<?xml version="1.0" encoding="utf-8"?>
<svg version="1.1" id="Layer_1"
xmlns="http://www.w3.org/2000/svg"
xmlns:xlink="http://www.w3.org/1999/xlink"
width="548px" height="596px"
xml:space="preserve">
<g id="PathID_668" transform="matrix(0.0352941, 0, 0, 0.0352941, 48, 37.8)">
<path style="fill:#FFFFFF;fill-opacity:1" d="M226 -744.5l-14 539.5l-83 0l-15 -539.5l112 0M221 0l-102 0l0 -105.5l102 0l0 105.5" />
</g>
<g id="PathID_669" transform="matrix(0.0352941, 0, 0, 0.0352941, 96, 37.8)">
<path style="fill:#FFFFFF;fill-opacity:1" d="M354 -778l-21.5 289.5l-66 0l-21.5 -289.5l109 0M166 -778l-21.5 289.5l-66 0l-21.5 -289.5l109 0" />
</g>
<g id="PathID_670" transform="matrix(0.0352941, 0, 0, 0.0352941, 144, 37.8)">
<path style="fill:#FFFFFF;fill-opacity:1" d="M674 -466l-146.5 0l-46 188l134 0l0 67.5l-151.5 0l-52.5 210.5l-64.5 0l52.5 -210.5l-135 0l-52.5 210.5l-64.5 0l52.5 -210.5l-129 0l0 -67.5l146.5 0l46 -188l-134 0l0 -67.5l151.5 0l52.5 -211l64.5 0l-52.5 211l135 0l52.5 -211l64.5 0l-52.5 211l129 0l0 67.5M464.5 -467l-137 0l-47 190l137 0l47 -190" />
</g>
<g id="PathID_671" transform="matrix(0.0352941, 0, 0, 0.0352941, 192, 37.8)">
<path style="fill:#FFFFFF;fill-opacity:1" d="M512 -190q0 73.5 -56 126.5q-56.5 52.5 -142 63l0 181l-57 0l0 -178.5q-54 -0.5 -108.5 -12.5q-55 -12 -95.5 -32l0 -101l7.5 0q39.5 29.5 89 48q49.5 18.5 107.5 23.5l0 -216q-12.5 -3 -30.5 -7q-18 -4.5 -30.5 -8.5q-75 -20.5 -107 -62q-32.5 -41.5 -32.5 -102q0 -71 55.5 -123.5q55.5 -52.5 145 -61l0 -136l57 0l0 135q45.5 1.5 94.5 13q48.5 11 79.5 24.5l0 99l-7.5 0q-35 -24 -76.5 -42q-42 -18 -90 -22l0 215q16.5 3.5 31 7.5q14 3.5 24.5 6q68 16 105.5 55.5q37 39.5 37 106.5l0 0M257 -373l0 -207q-45 4 -75.5 29.5q-30.5 25 -30.5 70q0 44.5 22.5 69q22 24 83.5 38.5l0 0M417.5 -177q0 -47 -24 -69.5q-24 -22.5 -79.5 -34l0 207.5q51 -6 77.5 -30.5q26 -25 26 -73.5l0 0" />
</g>
<g id="PathID_672" transform="matrix(0.0352941, 0, 0, 0.0352941, 240, 37.8)">
<path style="fill:#FFFFFF;fill-opacity:1" d="M403.5 -538q0 112.5 -45 167q-45.5 54 -131 54q-87 0 -131.5 -55q-45 -55 -45 -165.5q0 -112 45.5 -166.5q45.5 -54.5 131 -54.5q87 0 131.5 55q44.5 55 44.5 165.5l0 0M736.5 -744.5l-390 744.5l-82.5 0l390 -744.5l82.5 0M948.5 -206.5q0 112.5 -45 167q-45.5 54 -131 54q-87 0 -131.5 -55q-45 -55 -45 -165.5q0 -112 45.5 -166.5q45.5 -54.5 131 -54.5q87 0 131.5 55q44.5 55 44.5 165.5l0 0M314.5 -538q0 -76 -17.5 -115q-18 -39 -69.5 -39q-51.5 0 -69.5 39.5q-18 39.5 -18 115q0 75 17 114.5q17 39.5 70.5 39.5q51.5 0 69.5 -39.5q17.5 -39.5 17.5 -115l0 0M859.5 -206.5q0 -76 -17.5 -115q-18 -39 -69.5 -39q-51.5 0 -69.5 39.5q-18 39.5 -18 115q0 75 17 114.5q17 39.5 70.5 39.5q51.5 0 69.5 -39.5q17.5 -39.5 17.5 -115l0 0" />
</g>
<g id="PathID_673" transform="matrix(0.0352941, 0, 0, 0.0352941, 288, 37.8)">
<path style="fill:#FFFFFF;fill-opacity:1" d="M722.5 0l-128 0l-102 -106.5q-51 65 -104.5 93.5q-54 28.5 -122 28.5q-101 0 -166.5 -60.5q-66 -61 -66 -159.5q0 -43 12 -76.5q12 -33.5 32 -60.5q19.5 -26 45 -45.5q25.5 -20 49 -34.5q-50.5 -34 -75.5 -71.5q-25 -37.5 -25 -94.5q0 -35.5 14.5 -65.5q14 -30.5 37 -53.5q24 -23.5 62.5 -38.5q38 -15 83.5 -15q83 0 135.5 44q52.5 43.5 52.5 110.5q0 24.5 -6 51q-6.5 26 -23 50.5q-16.5 24.5 -43 46q-27 21.5 -71.5 37.5l176 181q7 -41 8.5 -89q1.5 -48.5 1.5 -126l97.5 0l0 48q0 48 -12 108.5q-12.5 60 -40.5 114l178.5 184M449 -150.5l-230 -235.5q-12.5 8 -25 19q-12.5 11 -27.5 33q-12 17.5 -21 46q-9.5 28 -9.5 59.5q0 71 42.5 117q42 45.5 114 45.5q48 0 86.5 -20q38.5 -20.5 70 -64.5l0 0M266 -456q28 -9.5 46.5 -25.5q18 -16 28 -35q9 -17.5 13.5 -37q4.5 -19.5 4.5 -42q0 -48.5 -28 -75q-28.5 -26.5 -66 -26.5q-44.5 0 -70 30q-25.5 30 -25.5 75q0 20 4 34.5q3.5 14 15.5 33q10.5 15.5 29.5 33q18.5 17.5 48 35.5l0 0" />
</g>
<g id="PathID_674" transform="matrix(0.0352941, 0, 0, 0.0352941, 336, 37.8)">
<path style="fill:#FFFFFF;fill-opacity:1" d="M163.5 -778l-21.5 289.5l-68 0l-21.5 -289.5l111 0" />
</g>
<g id="PathID_675" transform="matrix(0.0352941, 0, 0, 0.0352941, 384, 37.8)">
<path style="fill:#FFFFFF;fill-opacity:1" d="M355 206l-114.5 0q-87 -103.5 -136.5 -219q-50 -115.5 -50 -273q0 -154 49.5 -271q49 -117.5 137 -221l114.5 0l0 5q-40.5 36.5 -77 84.5q-37 47.5 -68.5 111q-30 61.5 -48.5 135.5q-19 74 -19 156q0 85.5 18.5 156.5q18 71 49 135q30 61.5 68.5 111.5q38.5 49.5 77 84l0 5" />
</g>
<g id="PathID_676" transform="matrix(0.0352941, 0, 0, 0.0352941, 432, 37.8)">
<path style="fill:#FFFFFF;fill-opacity:1" d="M338 -286q0 154.5 -49.5 271.5q-49.5 117 -137 220.5l-114.5 0l0 -5q38.5 -34.5 77.5 -84.5q39 -50.5 68 -111q31 -64.5 49.5 -136q18 -72 18 -155.5q0 -82.5 -18.5 -156q-18.5 -73.5 -49 -135.5q-30.5 -62 -69 -111.5q-38.5 -49.5 -76.5 -84l0 -5l114.5 0q87 103.5 137 220q49.5 116.5 49.5 272l0 0" />
</g>
<g id="PathID_677" transform="matrix(0.0352941, 0, 0, 0.0352941, 480, 37.8)">
<path style="fill:#FFFFFF;fill-opacity:1" d="M503.5 -443.5l-32.5 55l-163.5 -108.5l3.5 182l-62.5 0l3 -182l-162.5 109l-33 -55l177 -103.5l-177 -103.5l33 -55l163 109.5l-3.5 -182.5l62.5 0l-4 182.5l164 -109l32.5 55l-177 102.5l177 103.5" />
</g>
<g id="PathID_678" transform="matrix(0.0352941, 0, 0, 0.0352941, 0, 84)">
<path style="fill:#FFFFFF;fill-opacity:1" d="M666.5 -286l-252.5 0l0 252.5l-83 0l0 -252.5l-252.5 0l0 -80l252.5 0l0 -252.5l83 0l0 252.5l252.5 0l0 80" />
</g>
<g id="PathID_679" transform="matrix(0.0352941, 0, 0, 0.0352941, 48, 84)">
<path style="fill:#FFFFFF;fill-opacity:1" d="M250 -142.5l-140 327.5l-73 0l88 -327.5l125 0" />
</g>
<g id="PathID_680" transform="matrix(0.0352941, 0, 0, 0.0352941, 96, 84)">
<path style="fill:#FFFFFF;fill-opacity:1" d="M327 -280.5l-282 0l0 -90.5l282 0l0 90.5" />
</g>
<g id="PathID_681" transform="matrix(0.0352941, 0, 0, 0.0352941, 144, 84)">
<path style="fill:#FFFFFF;fill-opacity:1" d="M214.5 0l-119.5 0l0 -142.5l119.5 0l0 142.5" />
</g>
<g id="PathID_682" transform="matrix(0.0352941, 0, 0, 0.0352941, 192, 84)">
<path style="fill:#FFFFFF;fill-opacity:1" d="M364 -778l-291.5 940l-84.5 0l290 -940l86 0" />
</g>
<g id="PathID_683" transform="matrix(0.0352941, 0, 0, 0.0352941, 240, 84)">
<path style="fill:#FFFFFF;fill-opacity:1" d="M517.5 -372.5q0 200.5 -58 294.5q-58.5 93.5 -180 93.5q-123 0 -180.5 -95.5q-57.5 -95.5 -57.5 -291.5q0 -201.5 58.5 -294.5q58 -93.5 179.5 -93.5q123 0 180.5 96.5q57.5 96.5 57.5 290.5l0 0M389.5 -145.5q14.5 -37 20.5 -93.5q6 -56.5 6 -133.5q0 -76.5 -6 -133q-6 -56.5 -21 -94q-15 -38 -41 -57.5q-26.5 -20 -68.5 -20q-41.5 0 -68 20q-27 19.5 -42.5 58.5q-15 38 -20.5 96q-5.5 58 -5.5 131q0 78 5 130.5q4.5 52.5 20.5 94q14.5 38.5 41.5 59.5q26.5 20.5 69.5 20.5q41.5 0 68.5 -19.5q26.5 -20 41.5 -59l0 0" />
</g>
<g id="PathID_684" transform="matrix(0.0352941, 0, 0, 0.0352941, 288, 84)">
<path style="fill:#FFFFFF;fill-opacity:1" d="M476 0l-363 0l0 -76l135 0l0 -499l-135 0l0 -68q76.5 0 113 -21.5q36 -22 40.5 -82.5l77.5 0l0 671l132 0l0 76" />
</g>
<g id="PathID_685" transform="matrix(0.0352941, 0, 0, 0.0352941, 336, 84)">
<path style="fill:#FFFFFF;fill-opacity:1" d="M514 0l-459.5 0l0 -104.5q49.5 -47 93.5 -90q44 -43 86 -89.5q85 -93.5 116 -149.5q31 -56.5 31 -116.5q0 -31 -9.5 -54.5q-10 -23.5 -27 -39q-17.5 -15 -40.5 -22.5q-23 -7.5 -50.5 -7.5q-26.5 0 -53.5 7q-27.5 6.5 -52.5 16.5q-21 8.5 -40.5 20.5q-19.5 12 -31.5 20.5l-5.5 0l0 -106q31 -15.5 86.5 -30q55 -15 104.5 -15q104 0 163 55.5q59 55 59 149.5q0 43.5 -10 80.5q-10.5 37 -28.5 68.5q-18.5 32.5 -44.5 64.5q-26 32 -55 63q-47 51 -104.5 106q-58 55 -92.5 87l366 0l0 85.5" />
</g>
<g id="PathID_686" transform="matrix(0.0352941, 0, 0, 0.0352941, 384, 84)">
<path style="fill:#FFFFFF;fill-opacity:1" d="M255.5 -673.5q-27 0 -54 6.5q-27 6.5 -53 17q-24 10 -41.5 21q-18 11 -32 20.5l-6 0l0 -105.5q32.5 -17.5 88.5 -31.5q55.5 -14.5 106 -14.5q50.5 0 88.5 10.5q37.5 10 68 31.5q33 24 50 58q16.5 34 16.5 79.5q0 61.5 -40.5 108q-40.5 46.5 -97 59l0 7q23.5 4.5 50.5 15.5q26.5 11 49.5 32.5q23 21.5 37.5 55.5q14.5 33.5 14.5 82q0 50.5 -17 93q-17.5 42 -49 74.5q-32.5 34 -78.5 51.5q-46 17.5 -104.5 17.5q-56 0 -111 -13.5q-55 -13.5 -92.5 -32.5l0 -105.5l7 0q31.5 23 84.5 44q53 21 106 21q30.5 0 61.5 -9.5q30.5 -10 51 -32q20 -22 30.5 -48.5q10.5 -26.5 10.5 -67q0 -40.5 -11.5 -66.5q-12 -26 -33 -41q-21 -15 -49.5 -20.5q-29 -6 -62.5 -6l-42.5 0l0 -83l33 0q67.5 0 110 -32q42 -32 42 -93q0 -28 -11 -48q-11 -20.5 -28 -32.5q-19 -13 -42 -18q-23 -5 -49 -5l0 0" />
</g>
<g id="PathID_687" transform="matrix(0.0352941, 0, 0, 0.0352941, 432, 84)">
<path style="fill:#FFFFFF;fill-opacity:1" d="M533.5 -256l-88.5 0l0 256l-96 0l0 -256l-329 0l0 -105l333 -383.5l92 0l0 408.5l88.5 0l0 80M349 -336l0 -291l-251 291l251 0" />
</g>
<g id="PathID_688" transform="matrix(0.0352941, 0, 0, 0.0352941, 480, 84)">
<path style="fill:#FFFFFF;fill-opacity:1" d="M505.5 -237q0 54 -17 100q-17.5 46 -48.5 79.5q-31.5 34 -78 53.5q-47 19.5 -105 19.5q-53.5 0 -105 -11.5q-52 -12 -90 -31l0 -105.5l7 0q11.5 8.5 33 19.5q21.5 10.5 47.5 20q29.5 10.5 54 16.5q24.5 5.5 55 5.5q30 0 58.5 -10.5q28.5 -11 49 -35q18.5 -22 28.5 -51.5q9.5 -29.5 9.5 -69.5q0 -39.5 -10.5 -65q-11 -25.5 -31.5 -42q-21.5 -19 -52.5 -26.5q-31.5 -8 -70 -8q-40.5 0 -81.5 6.5q-41 6 -65.5 11.5l0 -383.5l408.5 0l0 87.5l-312 0l0 198q18 -2 35.5 -3q17.5 -1 32 -1q57 0 96.5 9.5q39.5 9.5 76 37q37 28 57 70q19.5 42 19.5 109.5l0 0" />
</g>
<g id="PathID_689" transform="matrix(0.0352941, 0, 0, 0.0352941, 0, 132)">
<path style="fill:#FFFFFF;fill-opacity:1" d="M525.5 -241.5q0 57.5 -19 106q-19 48.5 -51 81q-33.5 34.5 -75 52.5q-41.5 17.5 -91.5 17.5q-50.5 0 -91.5 -17q-41.5 -17 -73 -50.5q-38.5 -40.5 -60 -108q-22 -68 -22 -167q0 -97 20 -175q20 -78.5 61.5 -136.5q40.5 -56.5 104.5 -88q64 -32 148 -32q25 0 46.5 2.5q21.5 2.5 38 8l0 95.5l-4.5 0q-13.5 -7.5 -39 -13.5q-25.5 -6.5 -54.5 -6.5q-93 0 -150 63q-57.5 62.5 -68 186q35.5 -25 73 -38.5q37.5 -13.5 82 -13.5q43.5 0 76.5 9q32.5 8.5 68 35q41 31 61 78.5q20 47.5 20 111.5l0 0M424 -237.5q0 -46 -12 -77q-12 -31 -39 -53q-19.5 -16 -44 -21q-25 -5 -51 -5q-35 0 -68 10.5q-33 10.5 -65 30.5q-1 11 -1.5 21.5q-0.5 10 -0.5 25.5q0 77.5 15.5 125q15 47.5 37.5 72q21.5 23.5 44.5 33q22.5 9.5 49 9.5q60 0 97.5 -43q37 -43 37 -128.5l0 0" />
</g>
<g id="PathID_690" transform="matrix(0.0352941, 0, 0, 0.0352941, 48, 132)">
<path style="fill:#FFFFFF;fill-opacity:1" d="M522 -633l-322 633l-106.5 0l341 -657l-385 0l0 -87.5l472.5 0l0 111.5" />
</g>
<g id="PathID_691" transform="matrix(0.0352941, 0, 0, 0.0352941, 96, 132)">
<path style="fill:#FFFFFF;fill-opacity:1" d="M405.5 -571q0 -50 -33.5 -83.5q-33.5 -33.5 -93 -33.5q-54.5 0 -89 30q-35 30 -35 81q0 37 18 62.5q17.5 25.5 53 46q15.5 8.5 47.5 23.5q31.5 15 57.5 23.5q43.5 -33.5 59 -68.5q15.5 -35.5 15.5 -81l0 0M419.5 -198q0 -46 -18 -73q-18 -27 -69.5 -55q-17 -9.5 -45 -20.5q-28.5 -11 -64 -26q-41.5 27.5 -63.5 68q-22 40 -22 91.5q0 67.5 41 111.5q40.5 44 102 44q63 0 101 -37.5q38 -38 38 -103l0 0M279.5 17q-55.5 0 -101 -16.5q-45.5 -16.5 -77.5 -47.5q-31.5 -30 -47.5 -71q-16.5 -41.5 -16.5 -87.5q0 -60.5 32.5 -111q32 -51 93.5 -81l0 -3q-55 -32 -81.5 -70q-26.5 -38 -26.5 -95q0 -84 63.5 -140q63.5 -56 161 -56q101.5 0 163 53.5q61 53 61 136q0 50 -29 99q-29.5 49 -84.5 76.5l0 3q65 30.5 98.5 74q33.5 43.5 33.5 112q0 95.5 -69 160q-69.5 64.5 -173.5 64.5l0 0" />
</g>
<g id="PathID_692" transform="matrix(0.0352941, 0, 0, 0.0352941, 144, 132)">
<path style="fill:#FFFFFF;fill-opacity:1" d="M416 -438.5q0 -76 -14 -123.5q-14 -48 -38.5 -74q-22 -24 -44.5 -33q-22.5 -9 -49.5 -9q-61.5 0 -98 44q-36.5 44 -36.5 127.5q0 47 12 77.5q12 30.5 39 52.5q19 15.5 43 21q24 5 51.5 5q32 0 69 -11q37 -11.5 64.5 -30q0.5 -7.5 1.5 -19.5q0.5 -12.5 0.5 -27.5l0 0M33.5 -502.5q0 -57.5 19 -105q18.5 -47.5 51 -82q31 -33 76 -51.5q44.5 -18.5 90.5 -18.5q51.5 0 93.5 17.5q41.5 17 72 49.5q38.5 41 60 107.5q21 66.5 21 168q0 92.5 -20.5 175.5q-21 82.5 -61.5 137q-43 58 -103 88.5q-60.5 30.5 -149 30.5q-20 0 -42.5 -2q-22.5 -2.5 -42 -8.5l0 -95.5l5 0q12.5 7 39 13.5q26.5 6.5 54 6.5q98 0 154 -64.5q56 -64.5 63.5 -184.5q-40 27 -76 39.5q-36.5 12.5 -79 12.5q-41.5 0 -75.5 -9q-34 -9 -68.5 -35q-40 -30.5 -60.5 -77q-20.5 -47 -20.5 -113l0 0" />
</g>
<g id="PathID_693" transform="matrix(0.0352941, 0, 0, 0.0352941, 192, 132)">
<path style="fill:#FFFFFF;fill-opacity:1" d="M241 -416l-119.5 0l0 -142.5l119.5 0l0 142.5M241 0l-119.5 0l0 -142.5l119.5 0l0 142.5" />
</g>
<g id="PathID_694" transform="matrix(0.0352941, 0, 0, 0.0352941, 240, 132)">
<path style="fill:#FFFFFF;fill-opacity:1" d="M241 -416l-119.5 0l0 -142.5l119.5 0l0 142.5M274 -142.5l-140 327.5l-73 0l88 -327.5l125 0" />
</g>
<g id="PathID_695" transform="matrix(0.0352941, 0, 0, 0.0352941, 288, 132)">
<path style="fill:#FFFFFF;fill-opacity:1" d="M637.5 -39.5l-537 -256.5l0 -60l537 -256.5l0 89l-416.5 197.5l416.5 197.5l0 89" />
</g>
<g id="PathID_696" transform="matrix(0.0352941, 0, 0, 0.0352941, 336, 132)">
<path style="fill:#FFFFFF;fill-opacity:1" d="M649 -391l-553 0l0 -80l553 0l0 80M649 -181l-553 0l0 -80l553 0l0 80" />
</g>
<g id="PathID_697" transform="matrix(0.0352941, 0, 0, 0.0352941, 384, 132)">
<path style="fill:#FFFFFF;fill-opacity:1" d="M644.5 -296l-537 256.5l0 -89l416.5 -197.5l-416.5 -197.5l0 -89l537 256.5l0 60" />
</g>
<g id="PathID_698" transform="matrix(0.0352941, 0, 0, 0.0352941, 432, 132)">
<path style="fill:#FFFFFF;fill-opacity:1" d="M456 -569.5q0 49 -16 87.5q-16.5 38 -43.5 67q-27 29 -61 53.5q-34.5 24.5 -72.5 47.5l0 114l-89.5 0l0 -152.5q28 -17 65.5 -40.5q37 -24 58 -44.5q27 -25.5 42 -55.5q15 -30.5 15 -69q0 -56.5 -35.5 -84q-35.5 -28 -92.5 -28q-50 0 -94 17q-44.5 16.5 -72 34.5l-5.5 0l0 -102q33.5 -13.5 84.5 -24q51 -11 96.5 -11q102.5 0 161.5 52.5q59 52 59 137.5l0 0M271 0l-102 0l0 -105.5l102 0l0 105.5" />
</g>
<g id="PathID_699" transform="matrix(0.0352941, 0, 0, 0.0352941, 480, 132)">
<path style="fill:#FFFFFF;fill-opacity:1" d="M869.5 -331.5q0 69.5 -19 134.5q-19 64.5 -54.5 118.5l-210.5 0l-12.5 -58q-33.5 28.5 -61.5 45.5q-28.5 16.5 -77 16.5q-77 0 -126 -61.5q-49 -62 -49 -179.5q0 -117.5 60.5 -183q60 -65.5 137.5 -65.5q36 0 62 9q26 9 52.5 24l0 -24l79.5 0l0 421l113.5 0q19 -35.5 27.5 -92q8 -56.5 8 -102.5q0 -163.5 -83 -263q-83.5 -100 -239.5 -100q-148 0 -244 108q-96.5 107.5 -96.5 261q0 165 93.5 267.5q93.5 102 244.5 102q40.5 0 85.5 -5.5q44.5 -5.5 84.5 -17.5l0 71q-42 10 -85 14q-43.5 4 -85.5 4q-177 0 -293 -121.5q-116 -121.5 -116 -315q0 -183.5 120 -309.5q119.5 -126 291.5 -126q184 0 288 119q104 118.5 104 308.5l0 0M571 -204l0 -259q-28 -14.5 -51.5 -20.5q-23.5 -6.5 -49 -6.5q-56.5 0 -91 42.5q-34.5 42 -34.5 130.5q0 80 26 122.5q26 42.5 83 42.5q30.5 0 60.5 -14.5q29.5 -14.5 56.5 -37.5l0 0" />
</g>
<g id="PathID_700" transform="matrix(0.0352941, 0, 0, 0.0352941, 0, 180)">
<path style="fill:#FFFFFF;fill-opacity:1" d="M-5 0l251 -744.5l122 0l251 744.5l-104.5 0l-67.5 -208l-284.5 0l-67.5 208l-100 0M419.5 -292.5l-115 -351l-114.5 351l229.5 0" />
</g>
<g id="PathID_701" transform="matrix(0.0352941, 0, 0, 0.0352941, 48, 180)">
<path style="fill:#FFFFFF;fill-opacity:1" d="M580.5 -228.5q0 55.5 -21 98q-21 42.5 -56.5 70q-42 33 -90 47q-48 13.5 -124 13.5l-213.5 0l0 -744.5l197.5 0q79.5 0 119.5 5.5q39.5 5 76 24.5q40 21.5 58.5 56.5q18.5 34.5 18.5 81.5q0 52.5 -27.5 94q-28 41.5 -77 65l0 4q66.5 18 103 66q36.5 47.5 36.5 119l0 0M442.5 -562.5q0 -27 -9 -46.5q-9 -20 -29 -31.5q-24 -13.5 -53.5 -16.5q-29.5 -3 -81.5 -3l-95 0l0 218l112.5 0q46.5 0 68.5 -4.5q22 -5 45.5 -20q22.5 -14.5 32 -38q9.5 -23.5 9.5 -58l0 0M477.5 -224.5q0 -42 -12 -69q-12 -27.5 -48.5 -46.5q-23.5 -12.5 -51 -16q-28 -3.5 -79 -3.5l-112.5 0l0 275l80.5 0q65 0 102.5 -6q37.5 -6 66 -25.5q28 -19.5 41 -44q13 -25 13 -64.5l0 0" />
</g>
<g id="PathID_702" transform="matrix(0.0352941, 0, 0, 0.0352941, 96, 180)">
<path style="fill:#FFFFFF;fill-opacity:1" d="M366.5 13.5q-73 0 -134 -24.5q-61.5 -24.5 -106 -73q-44.5 -48.5 -69 -121q-24.5 -72.5 -24.5 -166.5q0 -93.5 24 -163q23.5 -69.5 69 -121q44.5 -50 105.5 -76q61 -26.5 136.5 -26.5q37.5 0 70.5 5.5q32.5 5.5 60.5 14q24 7.5 49.5 19q25 11 49.5 24.5l0 119.5l-8 0q-13 -12 -33.5 -29q-20.5 -17 -50 -33.5q-28.5 -15.5 -62 -25.5q-33.5 -10 -77.5 -10q-47.5 0 -90 19.5q-42.5 19.5 -74.5 57.5q-31.5 38 -49 95.5q-17.5 57.5 -17.5 129.5q0 76.5 18.5 132q18.5 55 50.5 93q31 37 73 56q42 18.5 89 18.5q43 0 79.5 -10.5q36.5 -10.5 65 -26.5q27.5 -15.5 47.5 -31.5q20 -16.5 31.5 -28l7.5 0l0 118q-24.5 11.5 -46 22q-22 10.5 -53 20.5q-32.5 10.5 -60 16q-28 5.5 -72.5 5.5l0 0" />
</g>
<g id="PathID_703" transform="matrix(0.0352941, 0, 0, 0.0352941, 144, 180)">
<path style="fill:#FFFFFF;fill-opacity:1" d="M662.5 -371.5q0 102 -41 184q-41.5 82 -111 128q-56.5 35.5 -114.5 47.5q-58.5 12 -149 12l-171.5 0l0 -744.5l169.5 0q105 0 165 16q59.5 15.5 101.5 43q72 47.5 111.5 126.5q39.5 78.5 39.5 187.5l0 0M559.5 -373q0 -86 -28.5 -146.5q-28.5 -61 -84.5 -95q-39.5 -24 -84.5 -34.5q-45 -10.5 -112 -10.5l-75.5 0l0 574.5l75.5 0q66 0 115.5 -10.5q49.5 -10.5 90.5 -39q51.5 -35 77.5 -93q26 -58.5 26 -145.5l0 0" />
</g>
<g id="PathID_704" transform="matrix(0.0352941, 0, 0, 0.0352941, 192, 180)">
<path style="fill:#FFFFFF;fill-opacity:1" d="M75.5 0l0 -744.5l465.5 0l0 88l-366.5 0l0 204l341.5 0l0 88l-341.5 0l0 276.5l366.5 0l0 88l-465.5 0" />
</g>
<g id="PathID_705" transform="matrix(0.0352941, 0, 0, 0.0352941, 240, 180)">
<path style="fill:#FFFFFF;fill-opacity:1" d="M521 -656.5l-346.5 0l0 210l332 0l0 88l-332 0l0 358.5l-99 0l0 -744.5l445.5 0l0 88" />
</g>
<g id="PathID_706" transform="matrix(0.0352941, 0, 0, 0.0352941, 288, 180)">
<path style="fill:#FFFFFF;fill-opacity:1" d="M387 14.5q-79 0 -144.5 -24q-65.5 -24 -112.5 -73q-47 -49.5 -72 -122.5q-25 -73 -25 -168q0 -90 25.5 -161q25 -71.5 72 -122q45.5 -49 112 -75.5q66.5 -26.5 145.5 -26.5q37.5 0 72 5.5q34.5 5.5 66 15q25 7.5 56 21q30.5 13 49.5 22.5l0 119.5l-8.5 0q-18.5 -16.5 -38 -31q-20 -15 -56 -32q-30 -15 -69 -25q-39 -10 -84 -10q-107.5 0 -173.5 81q-66.5 81 -66.5 215.5q0 75 17.5 131q17.5 56 50.5 95q32 38.5 77.5 59q45 20 101.5 20q42 0 83.5 -6q41.5 -6 70 -18l0 -192.5l-172 0l0 -87l270 0l0 325q-19 8.5 -50.5 21.5q-32 13 -59.5 20.5q-36.5 11 -66 16.5q-29.5 5.5 -71.5 5.5l0 0" />
</g>
<g id="PathID_707" transform="matrix(0.0352941, 0, 0, 0.0352941, 336, 180)">
<path style="fill:#FFFFFF;fill-opacity:1" d="M616 0l-99 0l0 -364.5l-342.5 0l0 364.5l-99 0l0 -744.5l99 0l0 292l342.5 0l0 -292l99 0l0 744.5" />
</g>
<g id="PathID_708" transform="matrix(0.0352941, 0, 0, 0.0352941, 384, 180)">
<path style="fill:#FFFFFF;fill-opacity:1" d="M335.5 0l-289 0l0 -76l95 0l0 -592.5l-95 0l0 -76l289 0l0 76l-95 0l0 592.5l95 0l0 76" />
</g>
<g id="PathID_709" transform="matrix(0.0352941, 0, 0, 0.0352941, 432, 180)">
<path style="fill:#FFFFFF;fill-opacity:1" d="M356 -193.5q0 98 -59.5 151q-60 53 -160.5 53q-24 0 -64 -4q-40.5 -4.5 -67.5 -10.5l0 -94.5l5.5 0q20.5 7 51 15.5q30 8.5 61.5 8.5q46 0 73.5 -10.5q27 -10.5 40 -30q13.5 -20 17.5 -49q3.5 -29 3.5 -67l0 -434.5l-157.5 0l0 -79l256.5 0l0 551" />
</g>
<g id="PathID_710" transform="matrix(0.0352941, 0, 0, 0.0352941, 480, 180)">
<path style="fill:#FFFFFF;fill-opacity:1" d="M618 0l-128.5 0l-271.5 -346.5l-43.5 49l0 297.5l-99 0l0 -744.5l99 0l0 342.5l305 -342.5l120.5 0l-308 332.5l326 412" />
</g>
<g id="PathID_711" transform="matrix(0.0352941, 0, 0, 0.0352941, 0, 228)">
<path style="fill:#FFFFFF;fill-opacity:1" d="M507 0l-431.5 0l0 -744.5l99 0l0 656.5l332.5 0l0 88" />
</g>
<g id="PathID_712" transform="matrix(0.0352941, 0, 0, 0.0352941, 48, 228)">
<path style="fill:#FFFFFF;fill-opacity:1" d="M713.5 0l-99 0l0 -641.5l-194 436.5l-60 0l-192.5 -436.5l0 641.5l-92.5 0l0 -744.5l135 0l186 414.5l179.5 -414.5l137.5 0l0 744.5" />
</g>
<g id="PathID_713" transform="matrix(0.0352941, 0, 0, 0.0352941, 96, 228)">
<path style="fill:#FFFFFF;fill-opacity:1" d="M608 0l-111 0l-329 -642l0 642l-92.5 0l0 -744.5l140.5 0l299.5 589.5l0 -589.5l92.5 0l0 744.5" />
</g>
<g id="PathID_714" transform="matrix(0.0352941, 0, 0, 0.0352941, 144, 228)">
<path style="fill:#FFFFFF;fill-opacity:1" d="M602 -659q42.5 49 66 121.5q23.5 72.5 23.5 165.5q0 90.5 -23 163.5q-23 73 -66.5 122.5q-45.5 52 -106 77q-61 24.5 -134 24.5q-75.5 0 -136 -25.5q-60.5 -25.5 -104 -76q-43 -49.5 -66 -122q-23 -72.5 -23 -164q0 -94 23.5 -165q23 -71 66 -122q43 -49.5 104 -75q60.5 -26 135.5 -26q76 0 137 26.5q61 26.5 103 74.5l0 0M588.5 -372q0 -74 -16 -131q-16 -57 -45 -94.5q-29.5 -38.5 -71 -57.5q-42 -19.5 -94 -19.5q-54 0 -94 19q-40.5 18.5 -71.5 58q-29.5 38 -45 95.5q-16 57.5 -16 130q0 146.5 61.5 224.5q61.5 77.5 165 77.5q103.5 0 165 -77.5q61 -78 61 -224.5l0 0" />
</g>
<g id="PathID_715" transform="matrix(0.0352941, 0, 0, 0.0352941, 192, 228)">
<path style="fill:#FFFFFF;fill-opacity:1" d="M545.5 -520q0 48.5 -17 92q-17.5 43 -48 73.5q-38.5 38 -90.5 57.5q-52 19.5 -131.5 19.5l-84 0l0 277.5l-99 0l0 -744.5l187 0q66 0 112.5 11q46.5 11 82 35.5q41.5 28.5 65 72.5q23.5 43.5 23.5 105.5l0 0M442.5 -517.5q0 -38.5 -13 -67q-13.5 -28.5 -40.5 -46.5q-23.5 -15.5 -54.5 -22q-31.5 -6.5 -78 -6.5l-82 0l0 297.5l67.5 0q60 0 97 -9.5q37 -10 61.5 -35q22 -22.5 32 -49q10 -26.5 10 -62l0 0" />
</g>
<g id="PathID_716" transform="matrix(0.0352941, 0, 0, 0.0352941, 240, 228)">
<path style="fill:#FFFFFF;fill-opacity:1" d="M694 182q-27 7 -56.5 10.5q-30 3.5 -59.5 3.5q-83.5 0 -135.5 -47q-52.5 -47 -57.5 -134q-6.5 0 -12.5 0q-6 0 -10.5 0q-75.5 0 -136 -25.5q-61 -26 -104 -75.5q-43 -49.5 -66 -122q-23 -72.5 -23 -164q0 -94 23.5 -165q23 -71 66 -122q43 -49.5 104 -75q60.5 -26 135.5 -26q76 0 137 26.5q61 26.5 103 74.5q42.5 49 66 121.5q23.5 72.5 23.5 165.5q0 144.5 -56.5 238.5q-56.5 94 -154.5 127.5q2.5 28 10 50.5q7 22 18.5 35q13.5 15.5 33 23q19 7 52.5 7q20 0 47 -6q27 -6.5 39 -11.5l13.5 0l0 90M588.5 -372q0 -74 -16 -131q-16 -57 -45 -94.5q-29.5 -38.5 -71 -57.5q-42 -19.5 -94 -19.5q-54 0 -94 19q-40.5 18.5 -71.5 58q-29.5 38 -45 95.5q-16 57.5 -16 130q0 146.5 61.5 224.5q61.5 78 165 78q103.5 0 165 -78q61 -78 61 -224.5l0 0" />
</g>
<g id="PathID_717" transform="matrix(0.0352941, 0, 0, 0.0352941, 288, 228)">
<path style="fill:#FFFFFF;fill-opacity:1" d="M652 0l-128.5 0l-236 -296l-113 0l0 296l-99 0l0 -744.5l192 0q64 0 107.5 7q43 7 82 32.5q39 25 62 64.5q22.5 39.5 22.5 98q0 82 -41.5 137q-41.5 55 -113 81.5l265 324M438 -535q0 -32.5 -11.5 -57.5q-11.5 -25.5 -35.5 -41.5q-21 -14 -49 -19.5q-28 -6 -69.5 -6l-98 0l0 281l87 0q42.5 0 76.5 -7.5q34 -7.5 58 -31q21.5 -21 32 -50q10 -29 10 -68l0 0" />
</g>
<g id="PathID_718" transform="matrix(0.0352941, 0, 0, 0.0352941, 336, 228)">
<path style="fill:#FFFFFF;fill-opacity:1" d="M283 13.5q-81 0 -137.5 -16.5q-57 -17 -107 -41.5l0 -124l7 0q49 46 111 71.5q62 25 119.5 25q82 0 124 -34q42 -34.5 42 -90.5q0 -44.5 -22 -72.5q-22 -28 -70 -41.5q-34.5 -10 -63 -16.5q-28.5 -6.5 -71.5 -17.5q-38.5 -10 -69 -25.5q-30.5 -15.5 -54 -40.5q-23 -24.5 -35.5 -57.5q-13 -33.5 -13 -77q0 -90.5 70.5 -151.5q70.5 -61.5 180 -61.5q62.5 0 118.5 12.5q55.5 12.5 103 35.5l0 118.5l-7.5 0q-35.5 -32.5 -91 -56.5q-55.5 -24.5 -116.5 -24.5q-69 0 -111.5 32.5q-42.5 32 -42.5 84.5q0 47.5 25 75.5q25 28 72.5 41q31.5 8.5 77 19.5q45.5 10.5 75.5 19.5q77 23.5 112.5 71q35.5 47.5 35.5 117q0 43.5 -17.5 86q-18 42.5 -50 72q-36 32.5 -81 50q-45.5 17.5 -113.5 17.5l0 0" />
</g>
<g id="PathID_719" transform="matrix(0.0352941, 0, 0, 0.0352941, 384, 228)">
<path style="fill:#FFFFFF;fill-opacity:1" d="M249.5 0l0 -656.5l-250 0l0 -88l599 0l0 88l-250 0l0 656.5l-99 0" />
</g>
<g id="PathID_720" transform="matrix(0.0352941, 0, 0, 0.0352941, 432, 228)">
<path style="fill:#FFFFFF;fill-opacity:1" d="M335.5 15.5q-65.5 0 -114.5 -17q-49 -17.5 -83.5 -51.5q-39 -39 -55 -93q-16 -54.5 -16 -134l0 -464.5l99 0l0 464.5q0 51.5 6.5 87q6.5 35 25.5 63q20 30 54.5 45.5q34 15.5 83.5 15.5q46.5 0 82.5 -15.5q36 -15.5 56 -45.5q18.5 -28.5 25.5 -63q6.5 -34.5 6.5 -84.5l0 -467l99 0l0 464.5q0 77.5 -15.5 133q-16 55.5 -55.5 94q-35.5 34.5 -82.5 51.5q-47.5 17 -116 17l0 0" />
</g>
<g id="PathID_721" transform="matrix(0.0352941, 0, 0, 0.0352941, 480, 228)">
<path style="fill:#FFFFFF;fill-opacity:1" d="M615 -744.5l-256 744.5l-107 0l-256 -744.5l106 0l206 618l206 -618l101 0" />
</g>
<g id="PathID_722" transform="matrix(0.0352941, 0, 0, 0.0352941, 0, 276)">
<path style="fill:#FFFFFF;fill-opacity:1" d="M910.5 -744.5l-187 744.5l-111.5 0l-151.5 -618l-148 618l-109 0l-190.5 -744.5l101.5 0l150 619l149 -619l100.5 0l150.5 625l149 -625l97 0" />
</g>
<g id="PathID_723" transform="matrix(0.0352941, 0, 0, 0.0352941, 48, 276)">
<path style="fill:#FFFFFF;fill-opacity:1" d="M590.5 0l-113.5 0l-181.5 -298l-184.5 298l-107 0l236.5 -372.5l-229.5 -372l113 0l178 292.5l180.5 -292.5l107.5 0l-233 367l233.5 377.5" />
</g>
<g id="PathID_724" transform="matrix(0.0352941, 0, 0, 0.0352941, 96, 276)">
<path style="fill:#FFFFFF;fill-opacity:1" d="M596.5 -744.5l-251.5 415l0 329.5l-99 0l0 -319l-251.5 -425.5l110 0l192 328.5l195 -328.5l105 0" />
</g>
<g id="PathID_725" transform="matrix(0.0352941, 0, 0, 0.0352941, 144, 276)">
<path style="fill:#FFFFFF;fill-opacity:1" d="M550 0l-520 0l0 -92l398.5 -564.5l-380.5 0l0 -88l492 0l0 89.5l-403 567l413 0l0 88" />
</g>
<g id="PathID_726" transform="matrix(0.0352941, 0, 0, 0.0352941, 192, 276)">
<path style="fill:#FFFFFF;fill-opacity:1" d="M343 196l-260 0l0 -974l260 0l0 71.5l-172.5 0l0 831l172.5 0l0 71.5" />
</g>
<g id="PathID_727" transform="matrix(0.0352941, 0, 0, 0.0352941, 240, 276)">
<path style="fill:#FFFFFF;fill-opacity:1" d="M402 162l-84.5 0l-291.5 -940l86 0l290 940" />
</g>
<g id="PathID_728" transform="matrix(0.0352941, 0, 0, 0.0352941, 288, 276)">
<path style="fill:#FFFFFF;fill-opacity:1" d="M309 196l-260 0l0 -71.5l172.5 0l0 -831l-172.5 0l0 -71.5l260 0l0 974" />
</g>
<g id="PathID_729" transform="matrix(0.0352941, 0, 0, 0.0352941, 336, 276)">
<path style="fill:#FFFFFF;fill-opacity:1" d="M678.5 -342l-99 0l-207.5 -312.5l-207 313.5l-98.5 0l274.5 -403.5l63 0l274.5 402.5" />
</g>
<g id="PathID_730" transform="matrix(0.0352941, 0, 0, 0.0352941, 384, 276)">
<path style="fill:#FFFFFF;fill-opacity:1" d="M567 150l-575 0l0 -65l575 0l0 65" />
</g>
<g id="PathID_731" transform="matrix(0.0352941, 0, 0, 0.0352941, 432, 276)">
<path style="fill:#FFFFFF;fill-opacity:1" d="M335 -651l-74.5 0l-136.5 -187l121.5 0l89.5 187" />
</g>
<g id="PathID_732" transform="matrix(0.0352941, 0, 0, 0.0352941, 480, 276)">
<path style="fill:#FFFFFF;fill-opacity:1" d="M380 -137.5l0 -155q-33.5 3 -84.5 8.5q-51.5 5 -83 14.5q-37.5 11.5 -62 35.5q-24.5 23.5 -24.5 66q0 48 27 72.5q27 24.5 79 24.5q44.5 0 80.5 -19q36 -19.5 67.5 -47.5l0 0M380 -59.5q-11.5 8.5 -30.5 24q-19.5 15 -37.5 24q-25 13 -48 20q-23.5 7 -65.5 7q-34.5 0 -65.5 -13q-31 -13 -54.5 -36.5q-22.5 -23 -36 -56.5q-13.5 -34 -13.5 -71.5q0 -58 24.5 -98.5q24.5 -41 77.5 -65q47 -21.5 111 -29.5q64 -8.5 138 -12.5l0 -18q0 -33 -10 -53q-10 -20.5 -28 -31.5q-18 -11.5 -44 -15q-26 -4 -53.5 -4q-32.5 0 -76.5 10q-44 9.5 -88 28l-5.5 0l0 -95.5q26 -7.5 74.5 -16.5q48.5 -9 96 -9q57.5 0 97 9q39.5 9 71 32.5q30.5 23 45.5 59.5q15 36.5 15 89l0 382l-93.5 0l0 -59.5" />
</g>
<g id="PathID_733" transform="matrix(0.0352941, 0, 0, 0.0352941, 0, 324)">
<path style="fill:#FFFFFF;fill-opacity:1" d="M439.5 -281q0 -100 -30.5 -151.5q-30.5 -52 -98 -52q-38.5 0 -77.5 18q-39.5 18 -71.5 45.5l0 320q35.5 17.5 63 25q27.5 7 60.5 7q72 0 113 -51q41 -51 41 -161l0 0M536.5 -288.5q0 137 -66.5 220.5q-66.5 83.5 -166.5 83.5q-45.5 0 -77.5 -11q-32.5 -11.5 -64 -30.5l-6 26l-88 0l0 -778l94 0l0 278q35.5 -32 77 -53q41.5 -21 94 -21q94.5 0 149 76q54.5 75.5 54.5 209.5l0 0" />
</g>
<g id="PathID_734" transform="matrix(0.0352941, 0, 0, 0.0352941, 48, 324)">
<path style="fill:#FFFFFF;fill-opacity:1" d="M290 12.5q-57.5 0 -105.5 -17.5q-48 -18 -82.5 -54q-34.5 -36 -53.5 -90.5q-19 -55 -19 -129q0 -73.5 20 -127q19.5 -53.5 52.5 -90q33 -36.5 82.5 -56q49 -20 105.5 -20q46 0 89 13q42.5 13 76 30l0 105.5l-5.5 0q-10 -8.5 -25.5 -19.5q-16 -11 -38.5 -22.5q-19.5 -10 -46 -17.5q-26.5 -7.5 -51 -7.5q-73 0 -117 55.5q-44.5 55 -44.5 156q0 99 43 154.5q42.5 55 118.5 55q46 0 87.5 -19q41.5 -19 73.5 -49l5.5 0l0 105.5q-14 6.5 -35 16q-21 9 -38 13.5q-24 7 -43 11q-19 3.5 -49 3.5l0 0" />
</g>
<g id="PathID_735" transform="matrix(0.0352941, 0, 0, 0.0352941, 96, 324)">
<path style="fill:#FFFFFF;fill-opacity:1" d="M498 0l-94 0l0 -57q-22 18.5 -38 30.5q-16 12 -37.5 22q-20 9.5 -41.5 15q-21.5 5 -50 5q-45.5 0 -84 -19q-39 -19 -66 -55.5q-27.5 -37 -42.5 -91q-15 -54.5 -15 -125q0 -73.5 19 -127q19 -54 52.5 -94q30.5 -36.5 74 -57q43 -21 90.5 -21q42 0 73 9.5q31 9 65.5 28.5l0 -242l94 0l0 778M404 -136l0 -322q-35 -17 -62.5 -23.5q-28 -6.5 -60.5 -6.5q-72.5 0 -113.5 54.5q-41 54 -41 156.5q0 98.5 31.5 151q31.5 52 101 52q37 0 74.5 -16.5q37.5 -17 70.5 -45.5l0 0" />
</g>
<g id="PathID_736" transform="matrix(0.0352941, 0, 0, 0.0352941, 144, 324)">
<path style="fill:#FFFFFF;fill-opacity:1" d="M310.5 13q-133.5 0 -207 -75q-74 -75.5 -74 -214q0 -136.5 71.5 -217q71.5 -81 187 -81q52 0 92 15q40 15 70 47q30 32 46 78.5q16 46 16 113l0 51l-387 0q0 97.5 49 149q49 51.5 135.5 51.5q31 0 61 -7q29.5 -7 53.5 -18q25.5 -11.5 43 -22q17.5 -11 29 -20.5l5.5 0l0 102.5q-16.5 6.5 -41 16.5q-24.5 9.5 -44 15q-27.5 7.5 -49.5 11.5q-22.5 4 -56.5 4l0 0M420.5 -341.5q-1 -38 -9 -65.5q-8 -27.5 -23 -46.5q-16.5 -21 -42 -32q-26 -11 -64 -11q-37.5 0 -63.5 11.5q-26.5 11 -48 32.5q-21 22 -32 49q-11 26.5 -14 62l295.5 0" />
</g>
<g id="PathID_737" transform="matrix(0.0352941, 0, 0, 0.0352941, 192, 324)">
<path style="fill:#FFFFFF;fill-opacity:1" d="M362 -688l-5 0q-12.5 -4.5 -36 -8.5q-23.5 -4.5 -42 -4.5q-59.5 0 -84.5 27q-25.5 26.5 -25.5 96.5l0 19l155.5 0l0 78l-152.5 0l0 480.5l-94 0l0 -480.5l-63.5 0l0 -78l63.5 0l0 -18.5q0 -101 48.5 -153.5q48.5 -52.5 139 -52.5q26 0 51 3q25 2.5 45.5 6l0 86" />
</g>
<g id="PathID_738" transform="matrix(0.0352941, 0, 0, 0.0352941, 240, 324)">
<path style="fill:#FFFFFF;fill-opacity:1" d="M404 -151.5l0 -306.5q-35 -17 -64.5 -24q-30 -7.5 -59.5 -7.5q-71.5 0 -112.5 52.5q-41 52.5 -41 150.5q0 93 31.5 141.5q31 48.5 101 48.5q36.5 0 75.5 -14.5q38.5 -14.5 69.5 -40.5l0 0M88 89.5q9.5 4 28 11q18.5 6.5 42 12.5q26 6.5 48 10.5q22 4 48 4q43.5 0 74 -11.5q30 -11.5 47 -32q16 -20.5 22.5 -47.5q6.5 -27 6.5 -61.5l0 -49q-38 33 -74.5 49q-36.5 15.5 -91.5 15.5q-95.5 0 -152 -71q-56.5 -71 -56.5 -204q0 -69.5 19.5 -123q19.5 -54 52.5 -91.5q31.5 -36 74.5 -55.5q43 -19.5 89 -19.5q43.5 0 75.5 10.5q31.5 10 63.5 29l5.5 -24l88.5 0l0 495q0 142 -62 208.5q-62 66.5 -189.5 66.5q-41 0 -83.5 -6.5q-43 -6.5 -80 -17.5l0 -98l5 0" />
</g>
<g id="PathID_739" transform="matrix(0.0352941, 0, 0, 0.0352941, 288, 324)">
<path style="fill:#FFFFFF;fill-opacity:1" d="M507 0l-94 0l0 -318q0 -38.5 -3.5 -71.5q-4 -33.5 -14.5 -53.5q-11.5 -21 -32 -31q-20.5 -10.5 -56 -10.5q-35 0 -72 19q-37.5 18.5 -73 48.5l0 417l-94 0l0 -778l94 0l0 281.5q42 -37.5 83 -57.5q41 -20 86.5 -20q82.5 0 129 54.5q46.5 54 46.5 157l0 362.5" />
</g>
<g id="PathID_740" transform="matrix(0.0352941, 0, 0, 0.0352941, 336, 324)">
<path style="fill:#FFFFFF;fill-opacity:1" d="M164 0l-94 0l0 -558.5l94 0l0 558.5M170.5 -652l-107 0l0 -97.5l107 0l0 97.5" />
</g>
<g id="PathID_741" transform="matrix(0.0352941, 0, 0, 0.0352941, 384, 324)">
<path style="fill:#FFFFFF;fill-opacity:1" d="M220.5 16q0 95.5 -51 145.5q-51.5 50 -141.5 50q-15.5 0 -34.5 -1.5q-19.5 -1.5 -38.5 -4.5l0 -84l5.5 0q11 2.5 24.5 5q13 2 25 2q37.5 0 62 -9q24 -9.5 36 -29.5q11 -18 15 -45.5q3.5 -27.5 3.5 -67l0 -458l-101 0l0 -78l195 0l0 574.5M221 -652l-107 0l0 -97.5l107 0l0 97.5" />
</g>
<g id="PathID_742" transform="matrix(0.0352941, 0, 0, 0.0352941, 432, 324)">
<path style="fill:#FFFFFF;fill-opacity:1" d="M531 0l-123.5 0l-208.5 -269.5l-37 36l0 233.5l-94 0l0 -778l94 0l0 455.5l221 -236l117 0l-229.5 233.5l260.5 325" />
</g>
<g id="PathID_743" transform="matrix(0.0352941, 0, 0, 0.0352941, 480, 324)">
<path style="fill:#FFFFFF;fill-opacity:1" d="M164 0l-94 0l0 -778l94 0l0 778" />
</g>
<g id="PathID_744" transform="matrix(0.0352941, 0, 0, 0.0352941, 0, 372)">
<path style="fill:#FFFFFF;fill-opacity:1" d="M702 0l0 -323q0 -38.5 -3 -71q-3 -33 -12.5 -51.5q-10 -20 -28.5 -29.5q-18.5 -9.5 -50 -9.5q-29 0 -62 18q-33.5 17.5 -69 51q0.5 8.5 1.5 20.5q0.5 11.5 0.5 27.5l0 367.5l-94 0l0 -323q0 -38.5 -3 -71q-3 -33 -12.5 -51.5q-10 -20 -28.5 -29.5q-18.5 -9.5 -50 -9.5q-30.5 0 -64 19q-33.5 19 -65 48.5l0 417l-94 0l0 -558.5l94 0l0 62q37 -37 73.5 -57q36 -20.5 79.5 -20.5q49.5 0 88 22.5q38 22.5 58 74q42.5 -47.5 83 -72q40.5 -24.5 88 -24.5q36 0 65.5 11.5q29.5 11 51.5 36q22.5 25.5 35 63.5q12 38 12 95.5l0 367.5l-94 0" />
</g>
<g id="PathID_745" transform="matrix(0.0352941, 0, 0, 0.0352941, 48, 372)">
<path style="fill:#FFFFFF;fill-opacity:1" d="M507 0l-94 0l0 -318q0 -38.5 -3.5 -71.5q-4 -33.5 -14.5 -53.5q-11.5 -21 -32 -31q-20.5 -10.5 -56 -10.5q-35 0 -72 19q-37.5 18.5 -73 48.5l0 417l-94 0l0 -558.5l94 0l0 62q42 -37.5 83 -57.5q41 -20 86.5 -20q82.5 0 129 54.5q46.5 54 46.5 157l0 362.5" />
</g>
<g id="PathID_746" transform="matrix(0.0352941, 0, 0, 0.0352941, 96, 372)">
<path style="fill:#FFFFFF;fill-opacity:1" d="M527.5 -279q0 141 -68 218q-68 76.5 -181 76.5q-116.5 0 -183 -79q-67 -79.5 -67 -215.5q0 -140 69 -217.5q68.5 -77.5 181 -77.5q113 0 181 77.5q68 77 68 217.5l0 0M430.5 -279q0 -108.5 -39.5 -161q-39.5 -53 -112.5 -53q-73.5 0 -113 53q-40 52.5 -40 161q0 105 40 159.5q39.5 54 113 54q72.5 0 112.5 -53q39.5 -53.5 39.5 -160.5l0 0" />
</g>
<g id="PathID_747" transform="matrix(0.0352941, 0, 0, 0.0352941, 144, 372)">
<path style="fill:#FFFFFF;fill-opacity:1" d="M536.5 -294q0 139.5 -66.5 222.5q-67 82.5 -169 82.5q-41.5 0 -73.5 -9.5q-32 -9.5 -65.5 -29.5l0 234l-94 0l0 -764.5l94 0l0 58.5q35 -31.5 78 -52.5q42.5 -21.5 93 -21.5q96 0 150 76q53.5 76 53.5 204l0 0M439.5 -283.5q0 -95.5 -30.5 -148q-30.5 -53 -99 -53q-40 0 -77 18q-37.5 17.5 -71 45.5l0 316.5q37 18 63.5 24.5q26 6.5 60 6.5q73 0 113.5 -53.5q40.5 -53.5 40.5 -156.5l0 0" />
</g>
<g id="PathID_748" transform="matrix(0.0352941, 0, 0, 0.0352941, 192, 372)">
<path style="fill:#FFFFFF;fill-opacity:1" d="M498 206l-94 0l0 -267q-41 37.5 -80 55q-39 17 -86.5 17q-95 0 -151.5 -76q-56.5 -76.5 -56.5 -212.5q0 -72 20 -127q19.5 -55.5 52 -93q31 -36.5 74 -56.5q43 -20 89.5 -20q43 0 74.5 10q31.5 10 64.5 29.5l6 -24l88 0l0 764.5M404 -140l0 -318q-35.5 -17.5 -63.5 -24.5q-28 -7 -60 -7q-74 0 -114 53.5q-40 53.5 -40 154q0 98 32 151q32 52.5 99.5 52.5q39.5 0 77 -17q37.5 -17 69 -44.5l0 0" />
</g>
<g id="PathID_749" transform="matrix(0.0352941, 0, 0, 0.0352941, 240, 372)">
<path style="fill:#FFFFFF;fill-opacity:1" d="M364 -457.5l-5 0q-10.5 -3 -22 -3.5q-12 -1 -28.5 -1q-38 0 -75.5 16.5q-37.5 16.5 -71 49l0 396.5l-94 0l0 -558.5l94 0l0 83q51.5 -45.5 90 -64q38 -19 74 -19q14.5 0 22 1q7 0.5 16 2l0 98" />
</g>
<g id="PathID_750" transform="matrix(0.0352941, 0, 0, 0.0352941, 288, 372)">
<path style="fill:#FFFFFF;fill-opacity:1" d="M219 13.5q-56 0 -104.5 -15q-49 -15 -81 -32l0 -105.5l5 0q12 9.5 28.5 21q16 11.5 43 24q24 11 53 19.5q28.5 8.5 59.5 8.5q22.5 0 48 -5q25.5 -5.5 38 -13.5q17.5 -11.5 25.5 -24.5q7.5 -13 7.5 -39q0 -33.5 -18 -50.5q-18.5 -17 -65 -28.5q-18 -4.5 -47 -10.5q-29 -6 -53.5 -13q-64 -18.5 -93 -57q-29 -39 -29 -94q0 -75.5 57 -123q57 -47.5 151.5 -47.5q46.5 0 93.5 11.5q47 11.5 79 29l0 100.5l-5 0q-36 -28.5 -80 -45q-44.5 -16.5 -89.5 -16.5q-46.5 0 -78.5 19.5q-32 19.5 -32 59q0 35 19 52.5q19 17 61 28q21 5.5 47 11q25.5 5 54 12q62 15.5 93.5 51.5q31 36 31 98q0 36 -14 68.5q-14.5 32 -42 55q-30 25 -67.5 38q-38 13 -95 13l0 0" />
</g>
<g id="PathID_751" transform="matrix(0.0352941, 0, 0, 0.0352941, 336, 372)">
<path style="fill:#FFFFFF;fill-opacity:1" d="M237 11q-77 0 -120 -43.5q-43 -44 -43 -138.5l0 -309.5l-63.5 0l0 -78l63.5 0l0 -160.5l94 0l0 160.5l173 0l0 78l-173 0l0 265.5q0 42.5 1.5 65.5q1.5 23 11.5 43q8.5 17.5 27.5 26.5q19 8.5 51.5 8.5q23 0 44.5 -6.5q21.5 -7 31 -11.5l5.5 0l0 84.5q-26.5 7.5 -53.5 12q-27.5 4 -50.5 4l0 0" />
</g>
<g id="PathID_752" transform="matrix(0.0352941, 0, 0, 0.0352941, 384, 372)">
<path style="fill:#FFFFFF;fill-opacity:1" d="M503 0l-94 0l0 -62q-43.5 38 -82.5 58q-39 19.5 -87 19.5q-36.5 0 -68.5 -12q-32.5 -12 -56.5 -38q-24 -26 -37 -65.5q-13.5 -39.5 -13.5 -96l0 -362.5l94 0l0 318q0 44.5 3.5 74q3 29 14.5 51q11.5 21.5 31.5 31.5q19.5 10 56.5 10q34.5 0 73.5 -19.5q39 -19.5 71.5 -48l0 -417l94 0l0 558.5" />
</g>
<g id="PathID_753" transform="matrix(0.0352941, 0, 0, 0.0352941, 432, 372)">
<path style="fill:#FFFFFF;fill-opacity:1" d="M507 -558.5l-210.5 558.5l-84.5 0l-209 -558.5l101.5 0l153 431l151.5 -431l98 0" />
</g>
<g id="PathID_754" transform="matrix(0.0352941, 0, 0, 0.0352941, 480, 372)">
<path style="fill:#FFFFFF;fill-opacity:1" d="M745 -558.5l-141.5 558.5l-87 0l-136.5 -430.5l-135.5 430.5l-86.5 0l-143 -558.5l98 0l98.5 432.5l132.5 -432.5l77.5 0l136 432.5l93 -432.5l94.5 0" />
</g>
<g id="PathID_755" transform="matrix(0.0352941, 0, 0, 0.0352941, 0, 420)">
<path style="fill:#FFFFFF;fill-opacity:1" d="M502 0l-115.5 0l-135.5 -211l-139.5 211l-106.5 0l194 -277l-192 -281.5l115.5 0l134.5 209l138 -209l107 0l-193 275l193 283.5" />
</g>
<g id="PathID_756" transform="matrix(0.0352941, 0, 0, 0.0352941, 48, 420)">
<path style="fill:#FFFFFF;fill-opacity:1" d="M507 -558.5l-300.5 764.5l-100.5 0l100 -233l-203 -531.5l101.5 0l152.5 413.5l152 -413.5l98 0" />
</g>
<g id="PathID_757" transform="matrix(0.0352941, 0, 0, 0.0352941, 96, 420)">
<path style="fill:#FFFFFF;fill-opacity:1" d="M435 0l-410.5 0l0 -69.5l292 -411.5l-280 0l0 -77.5l393 0l0 67l-293.5 413l299 0l0 78.5" />
</g>
<g id="PathID_758" transform="matrix(0.0352941, 0, 0, 0.0352941, 144, 420)">
<path style="fill:#FFFFFF;fill-opacity:1" d="M443 196l-58 0q-89.5 0 -140 -49q-51 -49.5 -51 -144.5l0 -74.5q0 -34.5 -6.5 -69.5q-6.5 -35 -25 -60q-18.5 -25 -48 -37.5q-30 -13 -74 -13l-10.5 0l0 -78l10.5 0q44 0 74 -12.5q29.5 -13 48 -38q18.5 -25 25 -60q6.5 -35 6.5 -69.5l0 -74.5q0 -95 51 -144q50.5 -49.5 140 -49.5l58 0l0 69l-40 0q-29.5 0 -51 6q-21.5 6 -37 20.5q-16 15 -23.5 41.5q-8 26.5 -8 65l0 87.5q0 41 -9.5 69q-9.5 28 -28 52.5q-16.5 22 -43 40.5q-26.5 18 -55 29.5l0 12q28.5 11.5 55 30q26 18 43 40q18.5 24.5 28 52.5q9.5 28 9.5 69l0 87.5q0 38.5 8 65q7.5 26.5 23.5 41.5q15 14.5 37 20.5q21.5 6 51 6l40 0l0 69" />
</g>
<g id="PathID_759" transform="matrix(0.0352941, 0, 0, 0.0352941, 192, 420)">
<path style="fill:#FFFFFF;fill-opacity:1" d="M237.5 196l-83.5 0l0 -974l83.5 0l0 974" />
</g>
<g id="PathID_760" transform="matrix(0.0352941, 0, 0, 0.0352941, 240, 420)">
<path style="fill:#FFFFFF;fill-opacity:1" d="M462 -252l-10.5 0q-44 0 -73.5 13q-30 12.5 -48.5 37.5q-18.5 25 -25 60q-6.5 35 -6.5 69.5l0 74.5q0 95 -50.5 144.5q-51 49 -140.5 49l-58 0l0 -69l40 0q29.5 0 51 -6q21.5 -6 37 -20.5q16 -15 24 -41.5q7.5 -26.5 7.5 -65l0 -87.5q0 -41 9.5 -69q9.5 -28 28 -52.5q16.5 -22 43 -40q26.5 -18.5 55 -30l0 -12q-28.5 -11.5 -55 -29.5q-26.5 -18.5 -43 -40.5q-18.5 -24.5 -28 -52.5q-9.5 -28 -9.5 -69l0 -87.5q0 -38.5 -7.5 -65q-8 -26.5 -24 -41.5q-15.5 -14.5 -37 -20.5q-21.5 -6 -51 -6l-40 0l0 -69l58 0q89.5 0 140.5 49.5q50.5 49 50.5 144l0 74.5q0 34.5 6.5 69.5q6.5 35 25 60q18.5 25 48.5 38q29.5 12.5 73.5 12.5l10.5 0l0 78" />
</g>
<g id="PathID_761" transform="matrix(0.0352941, 0, 0, 0.0352941, 288, 420)">
<path style="fill:#FFFFFF;fill-opacity:1" d="M678 -463.5q-1 51 -10.5 98.5q-9.5 47 -30 84.5q-20.5 36.5 -51 59.5q-30.5 23 -79.5 23q-28.5 0 -51 -7.5q-23 -8 -40.5 -20.5q-17.5 -12.5 -33.5 -30q-16 -17.5 -28.5 -32.5q-13.5 -16.5 -26.5 -33.5q-13 -17 -25.5 -30q-13.5 -14 -28 -22.5q-14.5 -8.5 -33 -8.5q-25 0 -41.5 13.5q-16.5 13 -27.5 39q-10.5 25 -14.5 60q-4.5 35 -6 73l-84 0q1 -52 11 -99.5q9.5 -47.5 29 -83.5q20 -38 53 -60q33 -22.5 78 -22.5q30 0 53 8q22.5 8 40 20.5q17.5 12.5 32.5 28.5q14.5 16 28.5 33.5q11 13.5 26.5 33q15 19.5 25.5 30.5q14.5 15 29.5 23q14.5 8 31 8q25 0 42.5 -14q17 -14 26.5 -38q10 -25 15 -58.5q4.5 -34 5.5 -75l84 0" />
</g>
<g id="PathID_762" transform="matrix(0.0352941, 0, 0, 0.0352941, 336, 420)">
<path style="fill:#FFFFFF;fill-opacity:1" d="M450.5 -648.5l-79.5 0l-92.5 -128l-92 128l-77.5 0l114 -189.5l113.5 0l114 189.5" />
</g>
<g id="PathID_763" transform="matrix(0.0352941, 0, 0, 0.0352941, 384, 420)">
<path style="fill:#FFFFFF;fill-opacity:1" d="M480 -816q-5 78 -37 117q-32.5 39 -86 39q-26 0 -48 -9.5q-22 -9.5 -43 -29.5q-22 -20.5 -38 -31q-16 -11 -31.5 -11q-24.5 0 -34 22.5q-10 22.5 -12 60.5l-70 0q3.5 -77 38 -116q34.5 -39.5 84.5 -39.5q25.5 0 47 10q21.5 9.5 43 28.5q21.5 19.5 39 30q17 10 31.5 10q23.5 0 34.5 -22.5q10.5 -22.5 12 -58.5l70 0" />
</g>
<g id="PathID_764" transform="matrix(0.0352941, 0, 0, 0.0352941, 432, 420)">
<path style="fill:#FFFFFF;fill-opacity:1" d="M561 -286l-563 0l0 -80l563 0l0 80" />
</g>
<g id="PathID_765" transform="matrix(0.0352941, 0, 0, 0.0352941, 480, 420)">
<path style="fill:#FFFFFF;fill-opacity:1" d="M933 -286l-935 0l0 -80l935 0l0 80" />
</g>
<g id="PathID_766" transform="matrix(0.0352941, 0, 0, 0.0352941, 0, 468)">
<path style="fill:#FFFFFF;fill-opacity:1" d="M167.5 -498.5l-69 0l-130.5 -279.5l121 0l78.5 279.5" />
</g>
<g id="PathID_767" transform="matrix(0.0352941, 0, 0, 0.0352941, 48, 468)">
<path style="fill:#FFFFFF;fill-opacity:1" d="M248 -778l-130.5 279.5l-69 0l78.5 -279.5l121 0" />
</g>
<g id="PathID_768" transform="matrix(0.0352941, 0, 0, 0.0352941, 96, 468)">
<path style="fill:#FFFFFF;fill-opacity:1" d="M193 -141.5l-130.5 279.5l-69 0l78.5 -279.5l121 0" />
</g>
<g id="PathID_769" transform="matrix(0.0352941, 0, 0, 0.0352941, 144, 468)">
<path style="fill:#FFFFFF;fill-opacity:1" d="M362.5 -498.5l-67 0l-130.5 -279.5l119 0l78.5 279.5M165.5 -498.5l-67 0l-130.5 -279.5l119 0l78.5 279.5" />
</g>
<g id="PathID_770" transform="matrix(0.0352941, 0, 0, 0.0352941, 192, 468)">
<path style="fill:#FFFFFF;fill-opacity:1" d="M448 -778l-130.5 279.5l-67 0l78.5 -279.5l119 0M251 -778l-130.5 279.5l-67 0l78.5 -279.5l119 0" />
</g>
<g id="PathID_771" transform="matrix(0.0352941, 0, 0, 0.0352941, 240, 468)">
<path style="fill:#FFFFFF;fill-opacity:1" d="M390.5 -141.5l-130.5 279.5l-67 0l78.5 -279.5l119 0M193.5 -141.5l-130.5 279.5l-67 0l78.5 -279.5l119 0" />
</g>
<g id="PathID_772" transform="matrix(0.0352941, 0, 0, 0.0352941, 288, 468)">
<path style="fill:#FFFFFF;fill-opacity:1" d="M491.5 -517l-181.5 -2.5l2.5 452l-66 0l2.5 -452l-181.5 2.5l0 -64.5l181.5 2.5l-2.5 -199l66 0l-2.5 199l181.5 -2.5l0 64.5" />
</g>
<g id="PathID_773" transform="matrix(0.0352941, 0, 0, 0.0352941, 336, 468)">
<path style="fill:#FFFFFF;fill-opacity:1" d="M491.5 -253.5l-181.5 -2.5l2.5 194l-66 0l2.5 -194l-181.5 2.5l0 -64.5l181.5 2.5l0 -209l-181.5 2.5l0 -64.5l181.5 2.5l-2.5 -194l66 0l-2.5 194l181.5 -2.5l0 64.5l-181.5 -2.5l0 209l181.5 -2.5l0 64.5" />
</g>
<g id="PathID_774" transform="matrix(0.0352941, 0, 0, 0.0352941, 384, 468)">
<path style="fill:#FFFFFF;fill-opacity:1" d="M408.5 -331q0 72.5 -51.5 124q-52 51.5 -124.5 51.5q-72.5 0 -124 -51.5q-51.5 -51.5 -51.5 -124q0 -72.5 51.5 -124q51.5 -51.5 124 -51.5q72.5 0 124.5 51.5q51.5 51.5 51.5 124l0 0" />
</g>
<g id="PathID_775" transform="matrix(0.0352941, 0, 0, 0.0352941, 432, 468)">
<path style="fill:#FFFFFF;fill-opacity:1" d="M748.5 0l-102 0l0 -111.5l102 0l0 111.5M469.5 0l-102 0l0 -111.5l102 0l0 111.5M190.5 0l-102 0l0 -111.5l102 0l0 111.5" />
</g>
<g id="PathID_776" transform="matrix(0.0352941, 0, 0, 0.0352941, 480, 468)">
<path style="fill:#FFFFFF;fill-opacity:1" d="M403.5 -538q0 112.5 -45 167q-45.5 54 -131 54q-87 0 -131.5 -55q-45 -55 -45 -165.5q0 -112 45.5 -166.5q45.5 -54.5 131 -54.5q87 0 131.5 55q44.5 55 44.5 165.5l0 0M736.5 -744.5l-390 744.5l-82.5 0l390 -744.5l82.5 0M948.5 -206.5q0 112.5 -45 167q-45.5 54 -131 54q-87 0 -131.5 -55q-45 -55 -45 -165.5q0 -112 45.5 -166.5q45.5 -54.5 131 -54.5q87 0 131.5 55q44.5 55 44.5 165.5l0 0M314.5 -538q0 -76 -17.5 -115q-18 -39 -69.5 -39q-51.5 0 -69.5 39.5q-18 39.5 -18 115q0 75 17 114.5q17 39.5 70.5 39.5q51.5 0 69.5 -39.5q17.5 -39.5 17.5 -115l0 0M859.5 -206.5q0 -76 -17.5 -115q-18 -39 -69.5 -39q-51.5 0 -69.5 39.5q-18 39.5 -18 115q0 75 17 114.5q17 39.5 70.5 39.5q51.5 0 69.5 -39.5q17.5 -39.5 17.5 -115l0 0M1370.5 -206.5q0 112.5 -45 167q-45.5 54 -131 54q-87 0 -131.5 -55q-45 -55 -45 -165.5q0 -112 45.5 -166.5q45.5 -54.5 131 -54.5q87 0 131.5 55q44.5 55 44.5 165.5l0 0M1281.5 -206.5q0 -76 -17.5 -115q-18 -39 -69.5 -39q-51.5 0 -69.5 39.5q-18 39.5 -18 115q0 75 17 114.5q17 39.5 70.5 39.5q51.5 0 69.5 -39.5q17.5 -39.5 17.5 -115l0 0" />
</g>
<g id="PathID_777" transform="matrix(0.0352941, 0, 0, 0.0352941, 0, 516)">
<path style="fill:#FFFFFF;fill-opacity:1" d="M316.5 -86l-255 -218l0 -44.5l255 -217.5l0 99.5l-165.5 140.5l165.5 140.5l0 99.5" />
</g>
<g id="PathID_778" transform="matrix(0.0352941, 0, 0, 0.0352941, 48, 516)">
<path style="fill:#FFFFFF;fill-opacity:1" d="M330.5 -304l-255 218l0 -99.5l165.5 -140.5l-165.5 -140.5l0 -99.5l255 217.5l0 44.5" />
</g>
<g id="PathID_779" transform="matrix(0.0352941, 0, 0, 0.0352941, 96, 516)">
<path style="fill:#FFFFFF;fill-opacity:1" d="M472.5 -331l-13.5 69l-310 0q22 85 73 134q58 56 145 56q93.5 0 162 -46l7 0l0 96.5q-85 35 -169.5 35q-137 0 -222 -79q-77 -71.5 -101.5 -196.5l-57 0l14 -69l34.5 0q-1.5 -20 -1.5 -40.5q0 -14.5 0.5 -28.5l-47.5 0l14 -69l41.5 0q23 -131 103.5 -207q87 -82 223 -82q89 0 168 35.5l0 97.5l-8 0q-70.5 -48.5 -161 -48.5q-92 0 -151 61.5q-50.5 53 -70 143l354.5 0l-13.5 69l-350 0q-1 14 -1 28.5q0 20.5 1.5 40.5l335 0" />
</g>
<g id="PathID_780" transform="matrix(0.0352941, 0, 0, 0.0352941, 144, 516)">
<path style="fill:#FFFFFF;fill-opacity:1" d="M817 -392.5l-62 0l0 -308l-10 0l-102 226.5l-42.5 0l-103 -230l-12.5 0l0 311.5l-61.5 0l0 -352l119 0l80.5 191l80.5 -191l113.5 0l0 352M346 -686l-114.5 0l0 293.5l-63.5 0l0 -293.5l-114.5 0l0 -58.5l292.5 0l0 58.5" />
</g>
</svg>
