<?xml version="1.0" encoding="utf-8"?>
<svg version="1.1" id="Layer_1"
xmlns="http://www.w3.org/2000/svg"
xmlns:xlink="http://www.w3.org/1999/xlink"
width="500px" height="548px"
xml:space="preserve">
<g id="PathID_285" transform="matrix(0.0352941, 0, 0, 0.0352941, 48, 37.8)">
<path style="fill:#FFFFFF;fill-opacity:1" d="M100 -736l96 0l0 512l-96 0l0 -512M100 -112l96 0l0 112l-96 0l0 -112" />
</g>
<g id="PathID_286" transform="matrix(0.0352941, 0, 0, 0.0352941, 96, 37.8)">
<path style="fill:#FFFFFF;fill-opacity:1" d="M173.5 -850l129 0l0 18.5l-129 312.5l-73.5 0l0 -18.5l73.5 -312.5M489.5 -850l129 0l0 18.5l-129 312.5l-73.5 0l0 -18.5l73.5 -312.5" />
</g>
<g id="PathID_287" transform="matrix(0.0352941, 0, 0, 0.0352941, 144, 37.8)">
<path style="fill:#FFFFFF;fill-opacity:1" d="M281.5 -752l80 0l-29.5 240l127 0l30.5 -240l80 0l-28.5 240l103 0l0 64l-113 0l-18 160l99 0l0 64l-112 0l-32 240l-80 0l32 -240l-128 0l-32 240l-80 0l32 -240l-112 0l0 -64l125.5 0l18.5 -160l-112 0l0 -64l120 0l29.5 -240M324 -448l-18.5 160l124 0l20 -160l-125.5 0" />
</g>
<g id="PathID_288" transform="matrix(0.0352941, 0, 0, 0.0352941, 192, 37.8)">
<path style="fill:#FFFFFF;fill-opacity:1" d="M358.5 -752l0 63.5q75.5 20.5 144 94l-64 66.5q-34 -34 -80 -50l0 178q160 31.5 168.5 181q-11.5 156 -168.5 203l0 95l-80 1l0 -96q-86 -13.5 -178.5 -108.5l66.5 -67.5q72 64 112 67l0 -195q-162 -29 -166 -178q-4 -149 166 -190l0 -64l80 0M278.5 -416l0 -166q-49 13 -63 71q-14.5 57.5 63 95l0 0M358.5 -304l0 179q61 -17 73 -53.5q11.5 -36.5 -0.5 -67q-12 -31 -72.5 -58.5l0 0" />
</g>
<g id="PathID_289" transform="matrix(0.0352941, 0, 0, 0.0352941, 240, 37.8)">
<path style="fill:#FFFFFF;fill-opacity:1" d="" />
</g>
<g id="PathID_290" transform="matrix(0.0352941, 0, 0, 0.0352941, 288, 37.8)">
<path style="fill:#FFFFFF;fill-opacity:1" d="M290 -294l89 133.5q-52 64 -97.5 64q-31 0 -52 -22q-21 -22 -21 -54q0 -29.5 17.5 -56.5q17.5 -27 64 -65l0 0M315 -439q-24 -35 -32.5 -54q-9 -19 -9 -36q0 -22 13.5 -35q13 -13.5 35 -13.5q21 0 34 13q13 12.5 13 32.5q0 37 -27 64l-23 25l-4 4M477.5 -336.5q-17 48.5 -36 77.5l-71.5 -100.5q14 -12 22.5 -20.5q8.5 -8.5 24 -25.5q32 -36.5 45 -65.5q13 -29 13 -63q0 -60.5 -41 -98q-41.5 -37.5 -110.5 -37.5q-32 0 -59.5 11q-28 11 -48.5 29.5q-20.5 18.5 -32.5 44q-12 25 -12 54q0 75 63 158.5q-37 30 -62 56q-25.5 25.5 -41.5 49.5q-16 24 -23 48.5q-7 24.5 -7 51q0 36 13.5 67.5q13.5 31.5 36.5 55q22.5 23 53.5 36q31 13 67 13q86.5 0 164 -80.5l51 72.5l133.5 0l-112.5 -160.5q5 -7 8.5 -12.5q3.5 -5.5 7.5 -11.5q4 -6.5 8.5 -17q4.5 -10.5 12.5 -28.5q7.5 -18 13 -31q5.5 -13 10 -24q4.5 -11 8 -21.5q3.5 -11 7.5 -26l-104.5 0" />
</g>
<g id="PathID_291" transform="matrix(0.0352941, 0, 0, 0.0352941, 336, 37.8)">
<path style="fill:#FFFFFF;fill-opacity:1" d="M166 -850l129 0l0 18.5l-129 312.5l-73.5 0l0 -18.5l73.5 -312.5" />
</g>
<g id="PathID_292" transform="matrix(0.0352941, 0, 0, 0.0352941, 384, 37.8)">
<path style="fill:#FFFFFF;fill-opacity:1" d="M308 -752l64 80q-160 106 -168 275.5l0 57q8 169.5 168 275.5l-64 80q-208 -146 -208 -384q0 -238 208 -384l0 0" />
</g>
<g id="PathID_293" transform="matrix(0.0352941, 0, 0, 0.0352941, 432, 37.8)">
<path style="fill:#FFFFFF;fill-opacity:1" d="M372 -368q0 238 -208 384l-64 -80q160 -106 168 -275.5l0 -57q-8 -169.5 -168 -275.5l64 -80q208 146 208 384l0 0" />
</g>
<g id="PathID_294" transform="matrix(0.0352941, 0, 0, 0.0352941, 0, 84)">
<path style="fill:#FFFFFF;fill-opacity:1" d="M290 -763.5l0 123.5l6 6l99 -59l24 36l-84 65l0 32l84 60l-24 42.5l-99 -62l-6 6.5l0 132l-54.5 0l0 -132l-6.5 -6.5l-101.5 62l-27.5 -41l91 -61.5l0 -32l-91 -65l27.5 -36l101.5 59l6.5 -6l0 -123.5l54.5 0" />
</g>
<g id="PathID_295" transform="matrix(0.0352941, 0, 0, 0.0352941, 48, 84)">
<path style="fill:#FFFFFF;fill-opacity:1" d="M276 -539l112 0l0 176l176 0l0 112l-176 0l0 176l-112 0l0 -176l-176 0l0 -112l176 0l0 -176" />
</g>
<g id="PathID_296" transform="matrix(0.0352941, 0, 0, 0.0352941, 96, 84)">
<path style="fill:#FFFFFF;fill-opacity:1" d="M164 -112.5l112 0l0 16l-112 272l-64 0l0 -16l64 -272" />
</g>
<g id="PathID_297" transform="matrix(0.0352941, 0, 0, 0.0352941, 144, 84)">
<path style="fill:#FFFFFF;fill-opacity:1" d="M100 -365l224 0l0 112l-224 0l0 -112" />
</g>
<g id="PathID_298" transform="matrix(0.0352941, 0, 0, 0.0352941, 192, 84)">
<path style="fill:#FFFFFF;fill-opacity:1" d="M100 -112.5l96 0l0 112l-96 0l0 -112" />
</g>
<g id="PathID_299" transform="matrix(0.0352941, 0, 0, 0.0352941, 240, 84)">
<path style="fill:#FFFFFF;fill-opacity:1" d="M212 15.5l-112 0l272 -768l112 0l-272 768" />
</g>
<g id="PathID_300" transform="matrix(0.0352941, 0, 0, 0.0352941, 288, 84)">
<path style="fill:#FFFFFF;fill-opacity:1" d="M328 -740q42.5 0 84 24.5q41 24.5 71.5 68.5q35 49 53.5 121q18.5 71.5 18.5 157q0 84 -18.5 155.5q-19 71.5 -53.5 120.5q-30 44 -71.5 68.5q-41.5 24.5 -84 24.5q-43 0 -84.5 -24.5q-41.5 -24.5 -71.5 -68.5q-34.5 -49 -53 -120.5q-19 -71.5 -19 -155.5q0 -85.5 18.5 -157q18.5 -72 53.5 -121q31 -44 72 -68.5q41 -24.5 84 -24.5l0 0M327.5 -629q-49 0 -81.5 56q-20 36.5 -32 90.5q-12 54 -12 112.5q0 57.5 12 111.5q11.5 54 32 91q32.5 56.5 81.5 56.5q49.5 0 82 -56.5q20 -36.5 32 -90.5q12 -54.5 12 -112q0 -58.5 -12 -112.5q-12 -54 -32 -90.5q-33 -56 -82 -56l0 0" />
</g>
<g id="PathID_301" transform="matrix(0.0352941, 0, 0, 0.0352941, 336, 84)">
<path style="fill:#FFFFFF;fill-opacity:1" d="M116 -739.5l177 0l0 739.5l-112.5 0l0 -643l-80.5 0l16 -96.5" />
</g>
<g id="PathID_302" transform="matrix(0.0352941, 0, 0, 0.0352941, 384, 84)">
<path style="fill:#FFFFFF;fill-opacity:1" d="M304 -110l203.5 0l0 110l-407.5 0q276.5 -394 286.5 -515q10 -121 -82.5 -109q-92.5 12 -188.5 91l0 -125.5q3 -14 84 -55.5q50.5 -25.5 110.5 -25.5q36 0 75 9q104.5 25 113.5 180.5q9 155.5 -194.5 440l0 0" />
</g>
<g id="PathID_303" transform="matrix(0.0352941, 0, 0, 0.0352941, 432, 84)">
<path style="fill:#FFFFFF;fill-opacity:1" d="M408.5 -399.5q95 76.5 92.5 171.5q-8.5 202 -235.5 228q-102 -3.5 -165.5 -61.5l13.5 -89q90.5 59.5 153.5 46.5q51 0 87 -34.5q36 -35 36 -87.5q0 -51 -36.5 -85q-37 -34.5 -87.5 -34.5l-74 -8l0 -92l75 -10q40 0 69 -28q29 -28 29 -70q0 -41 -29.5 -68q-29.5 -27.5 -70 -27.5q-47.5 0 -114.5 47.5l-10 -103q40.5 -36.5 124.5 -41.5q185.5 17 206 197q5 71 -63 149.5l0 0" />
</g>
<g id="PathID_304" transform="matrix(0.0352941, 0, 0, 0.0352941, 0, 132)">
<path style="fill:#FFFFFF;fill-opacity:1" d="M420.5 -736l96 0l0 496l64 0l0 112l-64 0l0 128l-112 0l0 -128l-304.5 0l320.5 -608M260.5 -240l144 0l-0.5 -267.5l-143.5 267.5" />
</g>
<g id="PathID_305" transform="matrix(0.0352941, 0, 0, 0.0352941, 48, 132)">
<path style="fill:#FFFFFF;fill-opacity:1" d="M147 -740l297 0l0 94l-187.5 0l0 125q238.5 20 247 245.5q-5.5 221.5 -147 269.5q-54 18 -104.5 18q-81 0 -152 -48l0 -125q142 76 221 48.5q79 -28 75.5 -163q-19 -136 -140 -136l-109.5 0l0 -328.5" />
</g>
<g id="PathID_306" transform="matrix(0.0352941, 0, 0, 0.0352941, 96, 132)">
<path style="fill:#FFFFFF;fill-opacity:1" d="M315 0q-185 -8.5 -213 -211.5q-0.5 -7 -0.5 -13.5q-1.5 -195 260 -520l88 62q-113.5 126 -178 266.5q247.5 -2.5 267.5 205q-15.5 203 -224 211.5l0 0M230 -289q-4 14.5 -5.5 22.5q-2 8 -3.5 20.5q-9 63.5 15 101.5q24 38 77.5 44q46 5 79.5 -20.5q33 -26 39.5 -72q6.5 -45.5 -19.5 -78q-26 -32.5 -71.5 -37.5q-55.5 -6.5 -111.5 19.5l0 0" />
</g>
<g id="PathID_307" transform="matrix(0.0352941, 0, 0, 0.0352941, 144, 132)">
<path style="fill:#FFFFFF;fill-opacity:1" d="M100 -736l416 0l0 16l-224 720l-128 0l192 -640l-256 0l0 -96" />
</g>
<g id="PathID_308" transform="matrix(0.0352941, 0, 0, 0.0352941, 192, 132)">
<path style="fill:#FFFFFF;fill-opacity:1" d="M338 -740.5q187.5 11.5 208 191.5q6 71 -62.5 149.5q95 76.5 92 171.5q-8.5 202 -237.5 228q-226.5 -26 -235 -228q-3 -95 92 -171.5q-68.5 -78.5 -63 -149.5q21 -180 206 -191.5l0 0M464.5 -226q0 -51 -36.5 -85q-36.5 -34.5 -90 -34.5q-50.5 0 -87 34.5q-37 34 -37 85q0 52.5 36 87.5q36 34.5 86.5 34.5q56 0 92 -34.5q36 -35 36 -87.5l0 0M439.5 -553q0 -41.5 -29 -68.5q-29.5 -27.5 -72.5 -27.5q-40.5 0 -70 27.5q-29.5 27 -29.5 68q0 42 29 70q29 28 69.5 28q45 0 74 -27.5q28.5 -28 28.5 -70l0 0" />
</g>
<g id="PathID_309" transform="matrix(0.0352941, 0, 0, 0.0352941, 240, 132)">
<path style="fill:#FFFFFF;fill-opacity:1" d="M324 -745q185 8.5 213 211.5q0.5 6.5 0.5 13.5q1.5 195 -260 520l-87.5 -62q113.5 -126 177.5 -266.5q-247.5 2 -267.5 -205q15.5 -203 224 -211.5l0 0M409 -456.5q4 -14 6 -22q1.5 -8 3 -20.5q9 -63.5 -15 -101.5q-24 -38.5 -77.5 -44.5q-45.5 -5 -79 21q-33.5 26 -40 72q-6 45 20 77.5q25.5 32.5 71.5 38q55 6 111 -20l0 0" />
</g>
<g id="PathID_310" transform="matrix(0.0352941, 0, 0, 0.0352941, 288, 132)">
<path style="fill:#FFFFFF;fill-opacity:1" d="M100 -352.5l96 0l0 112l-96 0l0 -112M100 -112.5l96 0l0 112l-96 0l0 -112" />
</g>
<g id="PathID_311" transform="matrix(0.0352941, 0, 0, 0.0352941, 336, 132)">
<path style="fill:#FFFFFF;fill-opacity:1" d="M180 -352.5l96 0l0 112l-96 0l0 -112M164 -112.5l112 0l0 16l-112 272l-64 0l64 -288" />
</g>
<g id="PathID_312" transform="matrix(0.0352941, 0, 0, 0.0352941, 384, 132)">
<path style="fill:#FFFFFF;fill-opacity:1" d="M100 -196.5l0 -119l448 -196.5l0 112l-304 144l304 144l0 112l-448 -196.5" />
</g>
<g id="PathID_313" transform="matrix(0.0352941, 0, 0, 0.0352941, 432, 132)">
<path style="fill:#FFFFFF;fill-opacity:1" d="M100 -400l448 0l0 112l-448 0l0 -112M100 -208l448 0l0 112l-448 0l0 -112" />
</g>
<g id="PathID_314" transform="matrix(0.0352941, 0, 0, 0.0352941, 0, 180)">
<path style="fill:#FFFFFF;fill-opacity:1" d="M100 0l0 -112l304 -144l-304 -144l0 -112l448 196.5l0 119l-448 196.5" />
</g>
<g id="PathID_315" transform="matrix(0.0352941, 0, 0, 0.0352941, 48, 180)">
<path style="fill:#FFFFFF;fill-opacity:1" d="M356 -208.5l-128 0l0 -80q0 -106.5 64 -165q64 -59 80 -121.5q-10 -65.5 -73.5 -65.5q-64 0 -118.5 96l-80 -32q15 -126 103.5 -169q48 -23 98.5 -23q42.5 0 86 16q96 36 96 167.5q0 131.5 -74 183.5q-74.5 52 -54 193l0 0M356 -112.5l0 112l-128 0l0 -112l128 0" />
</g>
<g id="PathID_316" transform="matrix(0.0352941, 0, 0, 0.0352941, 96, 180)">
<path style="fill:#FFFFFF;fill-opacity:1" d="M416.5 -221.5q-43 -4.5 -65.5 -40q-23 -36 -17.5 -89.5q3.5 -33.5 15.5 -62q12 -28.5 30.5 -48q18.5 -19.5 41.5 -29.5q22.5 -10.5 47.5 -8q41 4.5 61.5 37.5q20.5 33 15 86.5q-7.5 72.5 -43 115.5q-36 43 -85.5 37.5l0 0M695.5 -156q-15 15.5 -26 25.5q-11 9.5 -21 17.5q-10.5 7.5 -20.5 13.5q-10 6 -21.5 12.5q-57 28 -126 28q-65.5 0 -121.5 -24q-56 -24 -97 -66.5q-41.5 -42.5 -65 -99.5q-24 -57.5 -24 -125q0 -66.5 23.5 -124.5q23 -58.5 64.5 -101q41 -42.5 97 -67q56 -24.5 120.5 -24.5q61.5 0 113 20.5q51 20 88 55.5q37 35 58 84q21 49 21 107q0 39 -12 76.5q-12 37 -36.5 65q-21 26.5 -44 43q-23.5 16 -38.5 16q-17 0 -14.5 -18.5l0 -5.5q0 -3 1 -9q1 -6 3 -15l47.5 -283.5l-75 0l-11.5 57q-36 -70 -118.5 -70q-41 0 -76.5 17.5q-35.5 17.5 -62 48q-26.5 30.5 -41 72.5q-15 42 -15 90q0 39 11 72q11 32.5 31.5 56q20 23.5 48.5 36.5q28.5 13 62.5 13q63 0 104.5 -52q0 56.5 54 56.5q26.5 0 62.5 -15.5q82 -32.5 128 -102.5q46 -70.5 46 -164.5q0 -67.5 -25 -124q-25.5 -57 -71 -98q-45.5 -41.5 -107.5 -65q-62.5 -23.5 -135.5 -23.5q-81.5 0 -149.5 29q-68.5 29 -118.5 79.5q-50.5 50.5 -78.5 120q-28 69 -28 151q0 80.5 28 148.5q28 68 78 118q49.5 49.5 118.5 77.5q68.5 27.5 150 27.5q114 0 193.5 -52.5q13.5 -9.5 25.5 -18q11.5 -9 23 -20.5q11.5 -11.5 24.5 -27q12.5 -16 30.5 -38l-76 0" />
</g>
<g id="PathID_317" transform="matrix(0.0352941, 0, 0, 0.0352941, 144, 180)">
<path style="fill:#FFFFFF;fill-opacity:1" d="M423.5 -740l323.5 740l-114 0l-66 -145.5l-287 0l-66 145.5l-114 0l323.5 -740M319 -239.5l209 0l-104.5 -243l-104.5 243" />
</g>
<g id="PathID_318" transform="matrix(0.0352941, 0, 0, 0.0352941, 192, 180)">
<path style="fill:#FFFFFF;fill-opacity:1" d="M100 -736l176 0q132 0 169.5 112.5q37.5 112.5 -25.5 175.5q117 46.5 117 199q0 17.5 -1.5 36q-15 183.5 -259.5 213l-176 0l0 -736M212 -640l0 203.5q135 -15 135 -111q0 -96 -135 -92.5l0 0M212 -400l0 304q219 0 219 -152q0 -152 -219 -152l0 0" />
</g>
<g id="PathID_319" transform="matrix(0.0352941, 0, 0, 0.0352941, 240, 180)">
<path style="fill:#FFFFFF;fill-opacity:1" d="M519 -632.5q-24.5 1.5 -42 1.5q-36 0 -69.5 9.5q-34 9.5 -63 26.5q-29 17 -53 40.5q-24 23.5 -40.5 53q-17 29.5 -26.5 63q-9.5 33 -9.5 69q-0.5 54 20 102q20.5 47.5 56.5 83q35.5 35 83.5 56q47.5 20.5 102 20q9.5 0 19 -0.5q9 -1 23 -4.5l0 112.5q-9 0 -15 0q-6.5 0 -11.5 0.5q-4 0 -7.5 0.5q-4 0 -8 0q-78 -1 -146.5 -29.5q-69 -28.5 -120 -78.5q-51.5 -50.5 -81 -117.5q-29.5 -67.5 -29.5 -144q0 -51.5 14 -99q13.5 -47.5 37.5 -88.5q24 -41 59 -75q34.5 -34 76.5 -58q41.5 -24 90 -37q48 -13.5 100 -13.5q10 0 19.5 0.5q9.5 0.5 22.5 2.5l0 105l0 0" />
</g>
<g id="PathID_320" transform="matrix(0.0352941, 0, 0, 0.0352941, 288, 180)">
<path style="fill:#FFFFFF;fill-opacity:1" d="M100 -736l144 0q318.5 48 340 368q-21.5 320 -340 368l-144 0l0 -736M244 -112q224.5 -44 234 -256q-9.5 -212 -234 -256l-32 0l0 512l32 0" />
</g>
<g id="PathID_321" transform="matrix(0.0352941, 0, 0, 0.0352941, 336, 180)">
<path style="fill:#FFFFFF;fill-opacity:1" d="M100 -736l416 0l0 96l-304 0l0 288l224 0l0 112l-224 0l0 128l304 0l0 112l-416 0l0 -736" />
</g>
<g id="PathID_322" transform="matrix(0.0352941, 0, 0, 0.0352941, 384, 180)">
<path style="fill:#FFFFFF;fill-opacity:1" d="M100 -736l400 0l0 96l-288 0l0 288l224 0l0 112l-224 0l0 240l-112 0l0 -736" />
</g>
<g id="PathID_323" transform="matrix(0.0352941, 0, 0, 0.0352941, 432, 180)">
<path style="fill:#FFFFFF;fill-opacity:1" d="M600 -612q-30.5 -12.5 -60 -17.5q-30 -5 -63.5 -5q-38.5 0 -78 8q-54.5 12 -96.5 49.5q-42 37 -67 96.5q-10.5 27 -16 54.5q-6 27.5 -6 55.5q0 33 8.5 67q8 33.5 25.5 68q31.5 62 84 94q52.5 31.5 124 39l68 -1l0 -145.5l-93.5 0l0 -99.5l192 0l0 304.5q-21 21 -58.5 32.5q-37.5 11.5 -89.5 11.5q-53.5 0 -99 -9q-45.5 -9 -78.5 -24.5q-67 -34 -124.5 -105.5q-27.5 -35 -45 -82q-17.5 -47.5 -24 -108.5q-1.5 -12.5 -2 -24.5q-0.5 -12.5 -0.5 -24q0 -45 10 -87q9.5 -42.5 28 -79.5q11 -21 25.5 -41.5q14.5 -21 31 -39.5q16 -18.5 33.5 -34q17.5 -16 35 -28q38 -23 82.5 -36q44.5 -13.5 94.5 -16q6 -0.5 12 -0.5l11.5 0q85.5 0 160.5 32.5l-24 95.5" />
</g>
<g id="PathID_324" transform="matrix(0.0352941, 0, 0, 0.0352941, 0, 228)">
<path style="fill:#FFFFFF;fill-opacity:1" d="M100 -740l113 0l0 386l257 0l0 -386l113 0l0 740l-113 0l0 -241.5l-257 0l0 241.5l-113 0l0 -740" />
</g>
<g id="PathID_325" transform="matrix(0.0352941, 0, 0, 0.0352941, 48, 228)">
<path style="fill:#FFFFFF;fill-opacity:1" d="M100 -740l112 0l0 740l-112 0l0 -740" />
</g>
<g id="PathID_326" transform="matrix(0.0352941, 0, 0, 0.0352941, 96, 228)">
<path style="fill:#FFFFFF;fill-opacity:1" d="M317 -740l112.5 0l0 519.5q-1.5 218 -180.5 220.5q-98.5 0 -149 -43l0 -98.5l93.5 31.5q123.5 17.5 123.5 -94.5l0 -535.5" />
</g>
<g id="PathID_327" transform="matrix(0.0352941, 0, 0, 0.0352941, 144, 228)">
<path style="fill:#FFFFFF;fill-opacity:1" d="M100 -736l112 0l0 384l192 -384l128 0l-206.5 442l222.5 294l-144 0l-192 -250l0 250l-112 0l0 -736" />
</g>
<g id="PathID_328" transform="matrix(0.0352941, 0, 0, 0.0352941, 192, 228)">
<path style="fill:#FFFFFF;fill-opacity:1" d="M100 -736l112 0l0 624l256 0l0 112l-368 0l0 -736" />
</g>
<g id="PathID_329" transform="matrix(0.0352941, 0, 0, 0.0352941, 240, 228)">
<path style="fill:#FFFFFF;fill-opacity:1" d="M744 -739l140 739l-112 0l-73.5 -420l-206.5 420l-206.5 -420l-73.5 420l-112 0l140 -739l252 496l252 -496" />
</g>
<g id="PathID_330" transform="matrix(0.0352941, 0, 0, 0.0352941, 288, 228)">
<path style="fill:#FFFFFF;fill-opacity:1" d="M100 -740l384 420l0 -420l112 0l0 740l-384 -432l0 432l-112 0l0 -740" />
</g>
<g id="PathID_331" transform="matrix(0.0352941, 0, 0, 0.0352941, 336, 228)">
<path style="fill:#FFFFFF;fill-opacity:1" d="M856.5 -370q0 77 -29.5 144.5q-30 67 -81.5 117q-51.5 50 -120 79.5q-68.5 29 -147 29q-79 0 -147.5 -29q-68.5 -29.5 -120 -79.5q-51.5 -50 -81 -117q-30 -67.5 -30 -144.5q0 -76.5 30 -144.5q29.5 -68.5 81 -118.5q51.5 -50 120 -79q68.5 -29 147.5 -29q78.5 0 147 29q68.5 29 120 79q51.5 50 81.5 118.5q29.5 68 29.5 144.5l0 0M213 -370q0 55 21 103.5q20.5 48 56.5 84q36 35.5 84.5 56q48.5 20.5 103.5 20.5q54.5 0 103 -20.5q48.5 -20.5 84.5 -56q35.5 -36 56.5 -84q20.5 -48.5 20.5 -103.5q0 -55 -20.5 -103q-21 -48.5 -56.5 -84q-36 -36 -84.5 -56q-48.5 -20.5 -103 -20.5q-55 0 -103.5 20.5q-48.5 20 -84.5 56q-36 35.5 -56.5 84q-21 48 -21 103l0 0" />
</g>
<g id="PathID_332" transform="matrix(0.0352941, 0, 0, 0.0352941, 384, 228)">
<path style="fill:#FFFFFF;fill-opacity:1" d="M100 -740l161 0q209 52 209 240q0 135 -88 207q-88.5 71.5 -170 68l0 225l-112 0l0 -740M212 -643.5l0 304l16.5 0q129 -23 129 -153.5q0 -134.5 -145.5 -150.5l0 0" />
</g>
<g id="PathID_333" transform="matrix(0.0352941, 0, 0, 0.0352941, 432, 228)">
<path style="fill:#FFFFFF;fill-opacity:1" d="M458 -740l36 0q175 0 304 170q57 99.5 57 191l0 17.5q0 128.5 -116 256.5q34 25.5 64.5 36.5q30 10.5 72.5 20.5l-74 69.5q-57.5 -7.5 -90.5 -25q-33.5 -17.5 -58.5 -37.5q-93 40.5 -177 40.5q-204.5 0 -328.5 -187.5q-47.5 -86.5 -47.5 -167.5l0 -26.5q0 -159.5 140 -277.5q106.5 -80.5 218 -80.5l0 0M211.5 -375.5l0 17.5q0 135.5 135 221q59.5 31.5 120 31.5l15 0q77.5 -5 102.5 -18q-15 -29.5 -53.5 -47q-38.5 -18 -92.5 -21q43.5 -46 71.5 -78q58.5 11 91 31q32 19.5 67 50l31.5 -43q37.5 -66 37.5 -135.5q0 -145.5 -135 -229.5q-60 -31 -117 -31l-20.5 0q-145 0 -229 149q-23.5 56.5 -23.5 103l0 0" />
</g>
<g id="PathID_334" transform="matrix(0.0352941, 0, 0, 0.0352941, 0, 276)">
<path style="fill:#FFFFFF;fill-opacity:1" d="M100 -740l161 0q209 52 209 240q0 154.5 -141 247.5l168 252.5l-139.5 0l-145.5 -225l0 225l-112 0l0 -740M212 -643.5l0 304l16.5 0q129 -23 129 -153.5q0 -134.5 -145.5 -150.5l0 0" />
</g>
<g id="PathID_335" transform="matrix(0.0352941, 0, 0, 0.0352941, 48, 276)">
<path style="fill:#FFFFFF;fill-opacity:1" d="M154 3.5l-21.5 -103.5q175 -33.5 198 -91.5q22.5 -58.5 -104 -140.5q-126.5 -82.5 -126.5 -194q0 -181 295 -217l21.5 103q-175.5 33.5 -198 92q-22.5 58.5 104 141q126.5 82 126.5 193q0 181.5 -295 217.5l0 0" />
</g>
<g id="PathID_336" transform="matrix(0.0352941, 0, 0, 0.0352941, 96, 276)">
<path style="fill:#FFFFFF;fill-opacity:1" d="M100 -740l480 0l0 96l-184 0l0 640l-112 0l0 -640l-184 0l0 -96" />
</g>
<g id="PathID_337" transform="matrix(0.0352941, 0, 0, 0.0352941, 144, 276)">
<path style="fill:#FFFFFF;fill-opacity:1" d="M580 -300.5q0 290.5 -240 300.5q-240 -10 -240 -300.5l0 -439.5l112.5 0l0 439.5q0 185.5 127.5 185.5q127.5 0 127.5 -185.5l0 -439.5l112.5 0l0 439.5" />
</g>
<g id="PathID_338" transform="matrix(0.0352941, 0, 0, 0.0352941, 192, 276)">
<path style="fill:#FFFFFF;fill-opacity:1" d="M100 -739.5l125 0l172.5 450l172.5 -450l125 0l-297.5 739.5l-297.5 -739.5" />
</g>
<g id="PathID_339" transform="matrix(0.0352941, 0, 0, 0.0352941, 240, 276)">
<path style="fill:#FFFFFF;fill-opacity:1" d="M100 -740l108 0l131.5 412l130.5 -412l130.5 412l131.5 -412l108 0l-239.5 740l-130.5 -419l-130.5 419l-239.5 -740" />
</g>
<g id="PathID_340" transform="matrix(0.0352941, 0, 0, 0.0352941, 288, 276)">
<path style="fill:#FFFFFF;fill-opacity:1" d="M100 -740l128 0l151 244l151 -244l128 0l-207 356l207 384l-128 0l-151 -256l-151 256l-128 0l207 -384l-207 -356" />
</g>
<g id="PathID_341" transform="matrix(0.0352941, 0, 0, 0.0352941, 336, 276)">
<path style="fill:#FFFFFF;fill-opacity:1" d="M100 -739.5l118.5 0l139 358l138.5 -358l118.5 0l-193 489.5l0 250l-128.5 0l0 -250l-193 -489.5" />
</g>
<g id="PathID_342" transform="matrix(0.0352941, 0, 0, 0.0352941, 384, 276)">
<path style="fill:#FFFFFF;fill-opacity:1" d="M132 -739.5l434.5 0l-289.5 627l305.5 0l-16 112.5l-466.5 0l289.5 -627l-273.5 0l16 -112.5" />
</g>
<g id="PathID_343" transform="matrix(0.0352941, 0, 0, 0.0352941, 432, 276)">
<path style="fill:#FFFFFF;fill-opacity:1" d="M100 -740l192 0l0 90l-80 0l0 560l80 0l0 90l-192 0l0 -740" />
</g>
<g id="PathID_344" transform="matrix(0.0352941, 0, 0, 0.0352941, 0, 324)">
<path style="fill:#FFFFFF;fill-opacity:1" d="M100 -752.5l96 0l304 768l-96 0l-304 -768" />
</g>
<g id="PathID_345" transform="matrix(0.0352941, 0, 0, 0.0352941, 48, 324)">
<path style="fill:#FFFFFF;fill-opacity:1" d="M100 -740l192 0l0 740l-192 0l0 -90l80 0l0 -560l-80 0l0 -90" />
</g>
<g id="PathID_346" transform="matrix(0.0352941, 0, 0, 0.0352941, 96, 324)">
<path style="fill:#FFFFFF;fill-opacity:1" d="M341.5 -782l133.5 256l-95.5 0l-92 -160.5l-92 160.5l-95.5 0l133.5 -256l108 0" />
</g>
<g id="PathID_347" transform="matrix(0.0352941, 0, 0, 0.0352941, 144, 324)">
<path style="fill:#FFFFFF;fill-opacity:1" d="M100 48l622.5 0l0 80l-622.5 0l0 -80" />
</g>
<g id="PathID_348" transform="matrix(0.0352941, 0, 0, 0.0352941, 192, 324)">
<path style="fill:#FFFFFF;fill-opacity:1" d="M276 -538l0 16l-64 0l-112 -272l0 -16l112 0l64 272" />
</g>
<g id="PathID_349" transform="matrix(0.0352941, 0, 0, 0.0352941, 240, 324)">
<path style="fill:#FFFFFF;fill-opacity:1" d="M423.5 -740l323.5 740l-114 0l-66 -145.5l-287 0l-66 145.5l-114 0l323.5 -740M319 -239.5l209 0l-104.5 -243l-104.5 243" />
</g>
<g id="PathID_350" transform="matrix(0.0352941, 0, 0, 0.0352941, 288, 324)">
<path style="fill:#FFFFFF;fill-opacity:1" d="M100 -736l176 0q132 0 169.5 112.5q37.5 112.5 -25.5 175.5q117 46.5 117 199q0 17.5 -1.5 36q-15 183.5 -259.5 213l-176 0l0 -736M212 -640l0 203.5q135 -15 135 -111q0 -96 -135 -92.5l0 0M212 -400l0 304q219 0 219 -152q0 -152 -219 -152l0 0" />
</g>
<g id="PathID_351" transform="matrix(0.0352941, 0, 0, 0.0352941, 336, 324)">
<path style="fill:#FFFFFF;fill-opacity:1" d="M519 -632.5q-24.5 1.5 -42 1.5q-36 0 -69.5 9.5q-34 9.5 -63 26.5q-29 17 -53 40.5q-24 23.5 -40.5 53q-17 29.5 -26.5 63q-9.5 33 -9.5 69q-0.5 54 20 102q20.5 47.5 56.5 83q35.5 35 83.5 56q47.5 20.5 102 20q9.5 0 19 -0.5q9 -1 23 -4.5l0 112.5q-9 0 -15 0q-6.5 0 -11.5 0.5q-4 0 -7.5 0.5q-4 0 -8 0q-78 -1 -146.5 -29.5q-69 -28.5 -120 -78.5q-51.5 -50.5 -81 -117.5q-29.5 -67.5 -29.5 -144q0 -51.5 14 -99q13.5 -47.5 37.5 -88.5q24 -41 59 -75q34.5 -34 76.5 -58q41.5 -24 90 -37q48 -13.5 100 -13.5q10 0 19.5 0.5q9.5 0.5 22.5 2.5l0 105l0 0" />
</g>
<g id="PathID_352" transform="matrix(0.0352941, 0, 0, 0.0352941, 384, 324)">
<path style="fill:#FFFFFF;fill-opacity:1" d="M100 -736l144 0q318.5 48 340 368q-21.5 320 -340 368l-144 0l0 -736M244 -112q224.5 -44 234 -256q-9.5 -212 -234 -256l-32 0l0 512l32 0" />
</g>
<g id="PathID_353" transform="matrix(0.0352941, 0, 0, 0.0352941, 432, 324)">
<path style="fill:#FFFFFF;fill-opacity:1" d="M100 -736l416 0l0 96l-304 0l0 288l224 0l0 112l-224 0l0 128l304 0l0 112l-416 0l0 -736" />
</g>
<g id="PathID_354" transform="matrix(0.0352941, 0, 0, 0.0352941, 0, 372)">
<path style="fill:#FFFFFF;fill-opacity:1" d="M100 -736l400 0l0 96l-288 0l0 288l224 0l0 112l-224 0l0 240l-112 0l0 -736" />
</g>
<g id="PathID_355" transform="matrix(0.0352941, 0, 0, 0.0352941, 48, 372)">
<path style="fill:#FFFFFF;fill-opacity:1" d="M600 -612q-30.5 -12.5 -60 -17.5q-30 -5 -63.5 -5q-38.5 0 -78 8q-54.5 12 -96.5 49.5q-42 37 -67 96.5q-10.5 27 -16 54.5q-6 27.5 -6 55.5q0 33 8.5 67q8 33.5 25.5 68q31.5 62 84 94q52.5 31.5 124 39l68 -1l0 -145.5l-93.5 0l0 -99.5l192 0l0 304.5q-21 21 -58.5 32.5q-37.5 11.5 -89.5 11.5q-53.5 0 -99 -9q-45.5 -9 -78.5 -24.5q-67 -34 -124.5 -105.5q-27.5 -35 -45 -82q-17.5 -47.5 -24 -108.5q-1.5 -12.5 -2 -24.5q-0.5 -12.5 -0.5 -24q0 -45 10 -87q9.5 -42.5 28 -79.5q11 -21 25.5 -41.5q14.5 -21 31 -39.5q16 -18.5 33.5 -34q17.5 -16 35 -28q38 -23 82.5 -36q44.5 -13.5 94.5 -16q6 -0.5 12 -0.5l11.5 0q85.5 0 160.5 32.5l-24 95.5" />
</g>
<g id="PathID_356" transform="matrix(0.0352941, 0, 0, 0.0352941, 96, 372)">
<path style="fill:#FFFFFF;fill-opacity:1" d="M100 -740l113 0l0 386l257 0l0 -386l113 0l0 740l-113 0l0 -241.5l-257 0l0 241.5l-113 0l0 -740" />
</g>
<g id="PathID_357" transform="matrix(0.0352941, 0, 0, 0.0352941, 144, 372)">
<path style="fill:#FFFFFF;fill-opacity:1" d="M100 -740l112 0l0 740l-112 0l0 -740" />
</g>
<g id="PathID_358" transform="matrix(0.0352941, 0, 0, 0.0352941, 192, 372)">
<path style="fill:#FFFFFF;fill-opacity:1" d="M317 -740l112.5 0l0 519.5q-1.5 218 -180.5 220.5q-98.5 0 -149 -43l0 -98.5l93.5 31.5q123.5 17.5 123.5 -94.5l0 -535.5" />
</g>
<g id="PathID_359" transform="matrix(0.0352941, 0, 0, 0.0352941, 240, 372)">
<path style="fill:#FFFFFF;fill-opacity:1" d="M100 -736l112 0l0 384l192 -384l128 0l-206.5 442l222.5 294l-144 0l-192 -250l0 250l-112 0l0 -736" />
</g>
<g id="PathID_360" transform="matrix(0.0352941, 0, 0, 0.0352941, 288, 372)">
<path style="fill:#FFFFFF;fill-opacity:1" d="M100 -736l112 0l0 624l256 0l0 112l-368 0l0 -736" />
</g>
<g id="PathID_361" transform="matrix(0.0352941, 0, 0, 0.0352941, 336, 372)">
<path style="fill:#FFFFFF;fill-opacity:1" d="M744 -739l140 739l-112 0l-73.5 -420l-206.5 420l-206.5 -420l-73.5 420l-112 0l140 -739l252 496l252 -496" />
</g>
<g id="PathID_362" transform="matrix(0.0352941, 0, 0, 0.0352941, 384, 372)">
<path style="fill:#FFFFFF;fill-opacity:1" d="M100 -740l384 420l0 -420l112 0l0 740l-384 -432l0 432l-112 0l0 -740" />
</g>
<g id="PathID_363" transform="matrix(0.0352941, 0, 0, 0.0352941, 432, 372)">
<path style="fill:#FFFFFF;fill-opacity:1" d="M856.5 -370q0 77 -29.5 144.5q-30 67 -81.5 117q-51.5 50 -120 79.5q-68.5 29 -147 29q-79 0 -147.5 -29q-68.5 -29.5 -120 -79.5q-51.5 -50 -81 -117q-30 -67.5 -30 -144.5q0 -76.5 30 -144.5q29.5 -68.5 81 -118.5q51.5 -50 120 -79q68.5 -29 147.5 -29q78.5 0 147 29q68.5 29 120 79q51.5 50 81.5 118.5q29.5 68 29.5 144.5l0 0M213 -370q0 55 21 103.5q20.5 48 56.5 84q36 35.5 84.5 56q48.5 20.5 103.5 20.5q54.5 0 103 -20.5q48.5 -20.5 84.5 -56q35.5 -36 56.5 -84q20.5 -48.5 20.5 -103.5q0 -55 -20.5 -103q-21 -48.5 -56.5 -84q-36 -36 -84.5 -56q-48.5 -20.5 -103 -20.5q-55 0 -103.5 20.5q-48.5 20 -84.5 56q-36 35.5 -56.5 84q-21 48 -21 103l0 0" />
</g>
<g id="PathID_364" transform="matrix(0.0352941, 0, 0, 0.0352941, 0, 420)">
<path style="fill:#FFFFFF;fill-opacity:1" d="M100 -740l161 0q209 52 209 240q0 135 -88 207q-88.5 71.5 -170 68l0 225l-112 0l0 -740M212 -643.5l0 304l16.5 0q129 -23 129 -153.5q0 -134.5 -145.5 -150.5l0 0" />
</g>
<g id="PathID_365" transform="matrix(0.0352941, 0, 0, 0.0352941, 48, 420)">
<path style="fill:#FFFFFF;fill-opacity:1" d="M458 -740l36 0q175 0 304 170q57 99.5 57 191l0 17.5q0 128.5 -104.5 251q40 43 125.5 62.5l-76.5 87.5q-72.5 0 -158 -80.5q-81.5 40.5 -165.5 40.5q-204.5 0 -328.5 -187.5q-47.5 -86.5 -47.5 -167.5l0 -26.5q0 -159.5 140 -277.5q106.5 -80.5 218 -80.5l0 0M211.5 -375.5l0 17.5q0 135.5 135 221q59.5 31.5 120 31.5l15 0q77.5 -5 77.5 -14.5q-68.5 -56.5 -121 -71.5q78.5 -81 86 -81q67.5 17 143.5 84l31.5 -43q37.5 -66 37.5 -135.5q0 -145.5 -135 -229.5q-60 -31 -117 -31l-20.5 0q-145 0 -229 149q-23.5 56.5 -23.5 103l0 0" />
</g>
<g id="PathID_366" transform="matrix(0.0352941, 0, 0, 0.0352941, 96, 420)">
<path style="fill:#FFFFFF;fill-opacity:1" d="M100 -740l161 0q209 52 209 240q0 154.5 -141 247.5l168 252.5l-139.5 0l-145.5 -225l0 225l-112 0l0 -740M212 -643.5l0 304l16.5 0q129 -23 129 -153.5q0 -134.5 -145.5 -150.5l0 0" />
</g>
<g id="PathID_367" transform="matrix(0.0352941, 0, 0, 0.0352941, 144, 420)">
<path style="fill:#FFFFFF;fill-opacity:1" d="M154 3.5l-21.5 -103.5q175 -33.5 198 -91.5q22.5 -58.5 -104 -140.5q-126.5 -82.5 -126.5 -194q0 -181 295 -217l21.5 103q-175.5 33.5 -198 92q-22.5 58.5 104 141q126.5 82 126.5 193q0 181.5 -295 217.5l0 0" />
</g>
<g id="PathID_368" transform="matrix(0.0352941, 0, 0, 0.0352941, 192, 420)">
<path style="fill:#FFFFFF;fill-opacity:1" d="M100 -740l480 0l0 96l-184 0l0 640l-112 0l0 -640l-184 0l0 -96" />
</g>
<g id="PathID_369" transform="matrix(0.0352941, 0, 0, 0.0352941, 240, 420)">
<path style="fill:#FFFFFF;fill-opacity:1" d="M580 -300.5q0 290.5 -240 300.5q-240 -10 -240 -300.5l0 -439.5l112.5 0l0 439.5q0 185.5 127.5 185.5q127.5 0 127.5 -185.5l0 -439.5l112.5 0l0 439.5" />
</g>
<g id="PathID_370" transform="matrix(0.0352941, 0, 0, 0.0352941, 288, 420)">
<path style="fill:#FFFFFF;fill-opacity:1" d="M100 -739.5l125 0l172.5 450l172.5 -450l125 0l-297.5 739.5l-297.5 -739.5" />
</g>
<g id="PathID_371" transform="matrix(0.0352941, 0, 0, 0.0352941, 336, 420)">
<path style="fill:#FFFFFF;fill-opacity:1" d="M100 -740l108 0l131.5 412l130.5 -412l130.5 412l131.5 -412l108 0l-239.5 740l-130.5 -419l-130.5 419l-239.5 -740" />
</g>
<g id="PathID_372" transform="matrix(0.0352941, 0, 0, 0.0352941, 384, 420)">
<path style="fill:#FFFFFF;fill-opacity:1" d="M100 -740l128 0l151 244l151 -244l128 0l-207 356l207 384l-128 0l-151 -256l-151 256l-128 0l207 -384l-207 -356" />
</g>
<g id="PathID_373" transform="matrix(0.0352941, 0, 0, 0.0352941, 432, 420)">
<path style="fill:#FFFFFF;fill-opacity:1" d="M100 -739.5l118.5 0l139 358l138.5 -358l118.5 0l-193 489.5l0 250l-128.5 0l0 -250l-193 -489.5" />
</g>
<g id="PathID_374" transform="matrix(0.0352941, 0, 0, 0.0352941, 0, 468)">
<path style="fill:#FFFFFF;fill-opacity:1" d="M132 -739.5l434.5 0l-289.5 627l305.5 0l-16 112.5l-466.5 0l289.5 -627l-273.5 0l16 -112.5" />
</g>
<g id="PathID_375" transform="matrix(0.0352941, 0, 0, 0.0352941, 48, 468)">
<path style="fill:#FFFFFF;fill-opacity:1" d="M356 -689.5l-48 0q-48 0 -48 60.5l0 236q0 53 -48 111.5q48 58.5 48 121.5l0 81q0 61.5 48 61.5l48 0l0 71.5l-48 0q-128 -7.5 -128 -129.5l0 -62q0 -73 -80 -118l0 -52q80 -52 80 -118l0 -206.5q0 -122.5 128 -129.5l48 0l0 72" />
</g>
<g id="PathID_376" transform="matrix(0.0352941, 0, 0, 0.0352941, 96, 468)">
<path style="fill:#FFFFFF;fill-opacity:1" d="M100 -736.5l96 0l0 736l-96 0l0 -736" />
</g>
<g id="PathID_377" transform="matrix(0.0352941, 0, 0, 0.0352941, 144, 468)">
<path style="fill:#FFFFFF;fill-opacity:1" d="M100 -761.5l48 0q128 7.5 128 129.5l0 206.5q0 66 80 118l0 52q-80 45 -80 118l0 62.5q0 122 -128 129.5l-48 0l0 -72l48 0q48 0 48 -61l0 -81.5q0 -63 48 -121.5q-48 -58.5 -48 -111.5l0 -235.5q0 -61 -48 -61l-48 0l0 -72" />
</g>
<g id="PathID_378" transform="matrix(0.0352941, 0, 0, 0.0352941, 192, 468)">
<path style="fill:#FFFFFF;fill-opacity:1" d="M540.5 -768.5l59 62.5q-61 66 -113.5 70q-53 3.5 -165 -36q-112 -40 -162 39.5l-59 -62.5q61 -66 114 -69.5q52.5 -4 164.5 36q112 39.5 162 -40l0 0" />
</g>
<g id="PathID_379" transform="matrix(0.0352941, 0, 0, 0.0352941, 240, 468)">
<path style="fill:#FFFFFF;fill-opacity:1" d="M166 -850l129 0l0 18.5l-129 312.5l-73.5 0l0 -18.5l73.5 -312.5" />
</g>
<g id="PathID_380" transform="matrix(0.0352941, 0, 0, 0.0352941, 288, 468)">
<path style="fill:#FFFFFF;fill-opacity:1" d="M173.5 -850l129 0l0 18.5l-129 312.5l-73.5 0l0 -18.5l73.5 -312.5M489.5 -850l129 0l0 18.5l-129 312.5l-73.5 0l0 -18.5l73.5 -312.5" />
</g>
<g id="PathID_381" transform="matrix(0.0352941, 0, 0, 0.0352941, 336, 468)">
<path style="fill:#FFFFFF;fill-opacity:1" d="M173.5 -850l129 0l0 18.5l-129 312.5l-73.5 0l0 -18.5l73.5 -312.5M489.5 -850l129 0l0 18.5l-129 312.5l-73.5 0l0 -18.5l73.5 -312.5" />
</g>
<g id="PathID_382" transform="matrix(0.0352941, 0, 0, 0.0352941, 384, 468)">
<path style="fill:#FFFFFF;fill-opacity:1" d="M100 -740l262 0l0 52.5l-100.5 0l0 349.5l-61 0l0 -349.5l-100.5 0l0 -52.5M718 -740l76.5 403.5l-61 0l-40 -229.5l-113 229.5l-112.5 -229.5l-40.5 229.5l-61 0l76.5 -403.5l137.5 270.5l137.5 -270.5" />
</g>
</svg>
