<?xml version="1.0" encoding="utf-8"?>
<svg version="1.1" id="Layer_1"
xmlns="http://www.w3.org/2000/svg"
xmlns:xlink="http://www.w3.org/1999/xlink"
width="64px" height="25px"
xml:space="preserve">
<g id="379" transform="matrix(1, 0, 0, 1, -63.75, 5.7)">
<path style="fill:#0B0B0B;fill-opacity:0.8" d="M86.05,-0.9L89.7 -0.65L90 -0.5L90.6 -0.35Q91.8 -0.35 92 -2Q92.2 -3.7 94.4 -3.7L96.55 -4.1L100.3 -3.7Q101.7 -2.5 103.6 -2.35Q104.7 -2.3 104.7 -1.05L104.2 1.45L103.75 2.25L101.05 3.45L98.5 5.45Q96.25 7.3 95.5 7.3L93.5 6.9L91.7 6.5Q91.45 6.5 88.05 8.05Q84.65 9.55 82.75 9.55L77.3 8.75Q75.1 7.5 74.7 7.5L73.6 7.9L72.8 8.3Q71.5 8.3 71.2 7.5L71.15 6.6Q71.15 5.55 75.15 3.25Q79.2 0.9 82.65 0L83.3 -0.6L86.05 -0.9M82.85,11.7L84.7 11.4L86.35 11.05Q91 12.85 91 14.8Q91 17.2 87.2 17.2Q80.4 17.2 79.3 16.35Q78.95 16.1 78.95 15.55L78.7 14.65L76.75 13.45Q75.55 12.8 75.7 11.9L76.15 11.7L76.3 11.9L76.6 12.1Q76.95 12.1 77.7 11.6Q78.4 11.1 79.45 11.1L81.35 11.4L82.85 11.7M63.95,10.3L63.75 9.35Q63.75 7.5 66.85 6.15Q69.95 4.75 69.95 6.25L69.65 7.2L69.35 7.85Q69.35 8.8 71.3 10.9L73.25 13L73.05 13.7L71.65 14Q70.95 14 68.1 12.6L65.4 11.2Q64.35 11.2 63.95 10.3" />
<path style="fill:#0B0B0B;fill-opacity:0.6" d="M116.35,-3.15Q116.35 -2.35 115.35 -1.9Q114.45 -1.5 113.15 -1.5Q108.65 -1.5 108.65 -3.45Q108.65 -5.7 112.5 -5.7Q116.35 -5.65 116.35 -3.15M125.45,7.95Q123.55 9.3 121.05 9.3Q119.8 9.3 117.05 7.75L114.5 6.15Q114.5 2.75 120.8 2.8Q127.05 2.9 127.05 5.75Q127.05 6.75 125.45 7.95M112,7.45Q111.65 7.8 111.3 7.8Q109.65 7.8 108.65 7.1Q107.85 6.55 107.85 6Q107.85 4.15 110.15 4.55Q112.4 5 112.4 6.7L112 7.45M107,12.15Q107 13.2 105.85 14.35Q104.5 15.7 102.65 15.7Q101.65 15.7 98.5 13.15L95.5 10.55Q95.5 9.15 98.75 9.7L106.2 10.8L106.95 11.5L107 12.15M108.95,18.55L103.2 18.95Q102.7 18.95 102.6 18.45L102.6 17.85Q102.6 16.45 106.4 16.1Q110.15 15.7 110.15 17.55Q110.15 18.25 108.95 18.55" />
</g>
</svg>
