<?xml version="1.0" encoding="utf-8"?>
<svg version="1.1" id="Layer_1"
xmlns="http://www.w3.org/2000/svg"
xmlns:xlink="http://www.w3.org/1999/xlink"
width="17px" height="99px"
xml:space="preserve">
<g id="445" transform="matrix(1, 0, 0, 1, 0, 0)">
<path style="fill:#000000;fill-opacity:1" d="M7.05,7L7.75 19.85L9.25 19.75L9.4 23.9L9.45 23.95L10.45 23.85L10.6 25.75L10.9 27.25Q11 29.4 9.55 31Q8.5 32.15 7.05 32.5L8.4 48.65L11.55 50.95L13.65 55.85L13.85 58.5L12.9 58.55L14.5 77.3L15.45 77.25L15.5 77.95L15.5 77.35L15.75 77.35L15.85 79.85L15.5 79.4L12.85 83.65L12.8 89.15L14.1 89L14.4 91.8L15.4 91.75L15.4 91.6L16.35 91.65L16.6 97.2L5 98.15L4.85 95.6L6 95.5L5.8 92.55L7.65 92.4L7.45 89.6L8.7 89.5L7.7 84.05L4.4 80.1L4.25 78.45L4.25 78.15L5.2 78.1L3.6 59.35L2.65 59.4L2.45 56.65L3.4 51.85L0 24.75L1.45 24.65L1.7 24.3L1.4 20.15L2.85 20.1L1.75 0L7.05 7" />
</g>
</svg>
