<?xml version="1.0" encoding="utf-8"?>
<svg version="1.1" id="Layer_1"
xmlns="http://www.w3.org/2000/svg"
xmlns:xlink="http://www.w3.org/1999/xlink"
width="800px" height="500px"
xml:space="preserve">
<g id="1734" transform="matrix(1, 0, 0, 1, 0, 0)">
<path style="fill:#000000;fill-opacity:0.498039" d="M800,500L0 500L0 0L800 0L800 500" />
<path style="fill:#B69789;fill-opacity:0.4" d="M522.9,265.5Q526.65 265.15 529.55 266.75Q532.55 268.25 533.4 274.8L530.4 274.6Q527.05 274.25 525.6 272.1Q523.5 269 522.9 265.5M527.2,262.3Q525.7 261.9 524.45 261.05Q528.55 255.75 531.8 255.9Q535.3 256 538.3 258.2Q535.9 261 532.65 262.65Q530.45 263.65 527.2 262.3M543.4,269.1Q539.95 270.35 536.3 270Q533.8 269.8 531.75 266.95L529.95 264.65Q536.15 262.15 538.85 263.75Q541.75 265.65 543.4 269.1" />
<path style="fill:#665954;fill-opacity:1" d="M511.7,263.95Q510.65 262.9 510.65 261.4Q510.65 259.95 511.7 258.85Q512.75 257.8 514.25 257.8Q515.75 257.8 516.8 258.85Q517.85 259.95 517.85 261.4Q517.85 262.9 516.8 263.95Q515.75 265 514.25 265Q512.75 265 511.7 263.95" />
<path style="fill:#B69789;fill-opacity:0.4" d="M271.2,255.9Q274.45 255.75 278.55 261.05Q277.3 261.9 275.8 262.3Q272.55 263.65 270.35 262.65Q267.1 261 264.7 258.2Q267.7 256 271.2 255.9M273.05,264.65L271.25 266.95Q269.2 269.8 266.7 270Q263.05 270.35 259.6 269.1Q261.25 265.65 264.15 263.75Q266.85 262.15 273.05 264.65M280.1,265.5Q279.5 269 277.4 272.1Q275.95 274.25 272.6 274.6L269.6 274.8Q270.45 268.25 273.45 266.75Q276.35 265.15 280.1 265.5" />
<path style="fill:#665954;fill-opacity:1" d="M291.3,263.95Q292.35 262.9 292.35 261.4Q292.35 259.95 291.3 258.85Q290.25 257.8 288.75 257.8Q287.25 257.8 286.2 258.85Q285.15 259.95 285.15 261.4Q285.15 262.9 286.2 263.95Q287.25 265 288.75 265Q290.25 265 291.3 263.95" />
</g>
</svg>
