<?xml version="1.0" encoding="utf-8"?>
<svg version="1.1" id="Layer_1"
xmlns="http://www.w3.org/2000/svg"
xmlns:xlink="http://www.w3.org/1999/xlink"
width="20px" height="22px"
xml:space="preserve">
<g id="1255" transform="matrix(1, 0, 0, 1, 0.95, 3.35)">
<path style="fill:#7EF0FF;fill-opacity:1" d="M6,-0.3L6.4 0.15Q6.75 0.75 8.7 0.95L8.75 1.1L8.45 1.6Q8.45 2.15 9.1 2.65L9.8 3.15L10.6 2.5L11.75 1.4Q11.75 1.2 11 0.8Q10.2 0.35 10.2 -0.1Q10.2 -0.9 11.55 -2.4Q13 -4.05 13.9 -2.9L14.8 -0.85L15.45 1.45L15.2 1.6L14.8 1.3L14.65 0.85Q14.5 0.65 14.15 0.5L13.65 0.2L13.65 0L14.35 0L14.45 0L14.05 -1.65Q13.7 -2.9 13 -2.9Q12.15 -2.9 11.3 -1.5L10.6 -0.1L11.4 0.6L12.15 1.35Q12.15 2 11 2.7L10.1 3.35L10.5 3.7L10.55 3.7L10.3 3.75L9.85 3.7L9.85 3.75Q9.85 4.15 11.2 4.75Q12.55 5.3 12.55 5.8Q12.55 6.45 11.1 7.1Q9.1 8 8.45 8.6L8.75 8.95L8.55 9L8.1 8.55Q8.1 8.25 10.15 7.25Q12.15 6.2 12.15 5.8L10.8 5Q9.4 4.45 9.4 3.8L9.5 3.5L8.7 2.7Q8.05 1.85 7.95 1.25Q6.45 1.3 6.2 0.85L5.7 0.05L4.8 1.1Q4.3 1.65 4.3 2.15L4.7 3.55Q4.7 4 3.4 4L2.15 3.8L1.8 3.55L2.3 3.5L4.2 3.5L3.8 2.05Q3.8 1.45 5.25 -0.25L6 -0.3M16.7,5.9Q15.1 5.9 14.35 6.6Q13.85 7.05 13.85 7.4L14.2 7.95L14.55 8.4L14.5 8.65L14.3 8.75L13.15 8.45L14 11.15L13.9 11.3Q13.55 10.95 12.95 9.5L12.4 7.95L12.45 7.8L12.65 7.7L13.45 7.95L13.35 7.4Q13.35 6.85 13.95 6.3Q14.75 5.65 16.25 5.4Q17.7 5.25 18.2 5.75L17.95 6.25L17.75 6.25L17.9 6.05L16.7 5.9M11.5,11.85Q10 11.85 9.55 12.65L9.55 13.55L10.05 13.4L9.55 13.65L9.55 13.8Q6.35 14.5 4.05 15.7L6.45 17.5L6.5 17.5L6.3 17.55Q5.55 17.55 4.3 16.75Q3.05 15.9 2.85 15.9L2.8 15.6L5.6 14.6L8.95 13.6Q8.95 13.05 8.5 13.05L7.35 13.35L6.95 13.3L6.9 13.05L7 12.85L7.1 12.6Q7.1 11.5 5.7 11Q4.25 10.45 4.25 10.25L4.55 9.9Q3.5 9.7 2.45 9L1.1 8.05L1.25 8.8Q1.25 9.5 0.6 10.65Q-0.15 12 -0.95 12.05L0.1 10.3L0.8 8.65L0.5 7.65L0.55 7.45L1 7.45L2.45 8.45Q3.6 9.2 4.5 9.45L5.4 9.45L5.5 9.4L5.1 7.45Q5.1 6.55 6.65 6.3Q8.2 6.05 8.2 5.55L7.85 3.7L8.05 3.25L8.7 2.85L8.8 3L8.3 3.5L8.25 4.1Q8.25 4.75 8.55 5.65Q8.55 6.55 5.85 6.85Q5.55 7 5.55 7.5Q5.55 8 5.9 9.3Q5.95 9.75 5.6 9.9L5.35 9.9L4.95 10.2Q6.5 10.3 7.15 11.3L7.6 12.8L8.45 12.6Q8.9 12.6 9.2 12.95L9.1 12.65Q9.1 11.95 9.95 11.75Q11.45 11.45 12.15 11.05L12.15 11.75Q12.15 12.2 12.55 12.2L13.25 11.9Q13.45 11.6 13.75 11.6Q14.3 11.6 14.7 12.3L15.25 13.4L16.5 14.25L17.15 14.9L16.4 15.75Q15.65 16.4 15.65 16.75Q15.65 17.6 16.55 17.25L17 17.25L17.1 17.35L16.8 17.65L16.2 17.85Q15.5 17.85 15.25 17.3L15.15 16.75Q15.15 16.2 15.85 15.45L16.55 14.75Q16.55 14.6 15.2 14.15L13.45 13.4Q13.65 13 14.5 12.7Q14.25 12.15 13.75 12.15Q13.65 12.15 13.4 12.45L12.45 12.75Q11.95 12.75 11.75 12.3L11.5 11.85" />
</g>
</svg>
