<?xml version="1.0" encoding="utf-8"?>
<svg version="1.1" id="Layer_1"
xmlns="http://www.w3.org/2000/svg"
xmlns:xlink="http://www.w3.org/1999/xlink"
width="19px" height="17px"
xml:space="preserve">
<g id="554" transform="matrix(1, 0, 0, 1, -2.65, -9.15)">
<path style="fill:#000000;fill-opacity:0.498039" d="M19.15,23.7Q19.15 24.4 16.8 24.9L11.35 25.4L5.85 24.9Q3.65 24.4 3.65 23.7Q3.65 23.3 4.35 23Q4.9 22.7 5.85 22.5L8.3 22.15L11.35 22L15.7 22.3L16.8 22.5Q19.15 23 19.15 23.7" />
<path style="fill:#000000;fill-opacity:1" d="M21.65,11.7L21.5 12.8L20.85 13.6L19.7 14.35L19.5 14.65L20.3 15.65L20.8 15.95L20.75 16.45L20.45 16.8L18.5 14.9L17.95 14.85L17.45 15.35L18 16.1L18.85 17.2Q19.2 17.8 18.95 18.25L18.4 17.95L17.9 17.85L18 18.1Q18.1 18.5 18.35 18.75L19.25 19.95Q19.25 20.25 16.65 21.8Q16.3 21.8 15.9 20.95L15.55 19.85L15.35 19.1L15.25 19.1L14.85 19.05L14.5 19.75L14.1 20L12.9 19.75L12.6 20.75Q11.75 21.95 10.55 22.85L10.65 22.45L10.05 22.8L8.5 23.75L6.65 23.9L6.2 23.3L6.25 22.85L5.55 21.85L7.05 19.8L6.05 20.4L5.85 20.35Q5.55 20.4 5.2 20.6L5.15 20.55L4.5 20.5L4.15 20.45L3 20.4L2.65 16.9L2.7 16.55L2.9 16.15L2.95 15.45L3.95 15.5L4.75 16.6L4.9 18.05L7.55 17.1L8 16.6L7.85 17.25L8.35 16.6L7.95 16.3L8.75 14.95L9.5 15.25L9.75 15.2L10.9 14.2L10.9 14.15Q10.2 13.4 9.5 13.15L8.65 12.85Q8.1 12.6 8.1 12.15L7.55 11.45L7.05 10.9L7.45 10.4L8.2 9.95Q8.7 9.5 9.15 9.7L10.05 10.15Q12.3 11.3 12.2 12.2L13.35 12.15L13.4 12.15L13.75 11.7L14.2 11.95L14.65 11.95L15.55 12.3L15.4 12L15.65 10.95L16 10.35L16.8 9.8L17.05 9.35L17.65 9.15L18.7 9.3L19.75 9.8L20.95 10.75L21.65 11.7M16.9,16L17.05 16.3L17.55 17.15L18.4 17.7L18.7 17.6L17.25 15.6L16.9 16M18.9,17.95L18.8 17.85L18.75 17.9L18.9 17.95M11.8,21.7L11.55 21.5L11.25 21.85L11.8 21.7" />
</g>
</svg>
