<?xml version="1.0" encoding="utf-8"?>
<svg version="1.1" id="Layer_1"
xmlns="http://www.w3.org/2000/svg"
xmlns:xlink="http://www.w3.org/1999/xlink"
width="19px" height="11px"
xml:space="preserve">
<g id="1046" transform="matrix(1, 0, 0, 1, 9.6, 8.8)">
<path style="fill:#FFFF00;fill-opacity:1" d="M-1.8,1.85L-1.85 1.9L-2 1.9L-1.8 1.85M-3.6,1.65L-4.55 1.55L-3.65 1.6L-3.6 1.65M6.5,0.15L6.45 0.15L5.8 0.6L4.45 1.05L1.15 1.25L-1.3 1.3Q-1.6 1.3 -1.75 1.6L-1.95 1.6L-2 1.6L-2.05 1.55L-2.75 1.55L-3.15 1.45L-3.25 1.45Q-3.35 1.3 -3.55 1.3L-4.4 1.3L-4.45 1.3L-4.3 1Q-4.35 0.8 -4.5 0.95L-4.85 1.15L-5.7 1.15L-5.75 1.1L-5.8 1.05L-5.9 0.9L-6.1 0.8L-6.15 0.75L-6.25 0.7L-6.25 0.65L-6.3 0.6L-6.3 0.55L-6.35 0.55L-6.35 0.5L-6.4 0.5L-6.45 0.45L-6.2 0.3L-5.95 0.15L-5.75 0L-5.7 -0.15L-5.6 -0.35L-5.55 -0.6L-5.5 -0.9L-5.35 -1.3L-5.2 -1.65L-5.05 -1.9L-4.9 -2.1L-4.7 -2.55L-4.25 -3L-3.45 -3.35L-3.15 -3.5L-3.15 -3.55L-3.05 -3.65L-2.75 -3.95L-2.5 -4.15L-1.95 -4.45Q-1.7 -4.5 -1.55 -4.65L-1.4 -4.75L-1 -4.8L-0.95 -4.75L-0.9 -4.7L-0.8 -4.7L-0.7 -4.7L0 -4.95L0.5 -4.95L1.75 -4.25L2.1 -4L2.35 -3.85L2.65 -3.75L3.8 -3.15L4.1 -2.95L4.35 -2.2L4.35 -2.15L4.4 -2.1L4.45 -2.1L4.5 -2.05L4.6 -2L4.75 -2L4.9 -1.9L5.45 -1.4L5.65 -1.05Q5.7 -0.75 5.9 -0.5L6.4 0L6.5 0.1L6.5 0.15M-5.5,-0.25L-5.35 0.05L-5.3 0.1L-5.3 0.2L-5.35 0.2L-5.4 0.25L-5.4 0.3L-5.85 0.35L-6.05 0.5L-6.1 0.55L-6.1 0.65L-5.85 0.8L-5.75 0.85Q-5.5 1.05 -5.3 1.05L-4.1 0.1L-3.95 0.05L-4.2 0.85L-3.3 1.2L-2.25 0.7L-2.3 0.3L-2.3 0L-2.15 -0.35L-1.65 0.65L-1.25 0.7L-1.1 0.55L1.8 0.7L2.55 0.35L2.65 0.05L4.15 0.3Q3.65 -0.5 3.55 -1.5Q3.5 -1.8 3.85 -1.75L3.9 -1.6Q4 -2.7 3.15 -3.15L2.4 -3.55L2.4 -3.1L2.2 -2.85L1.7 -2.45L1.6 -1.95L1.45 -1.8L1.3 -1.8L1.25 -1.8L1.25 -1.85L1.3 -2Q1.6 -2.45 1.25 -2.9L0.35 -3.85Q1.05 -3.7 1.4 -3.1L1.6 -2.95L2.05 -3L2 -3.3L2 -3.55L1.85 -3.85L1.7 -4.05L1.3 -4.1L0.9 -4.15L0.9 -4.25L0.95 -4.3L1.05 -4.3L0.4 -4.7L-0.25 -4.75L-0.85 -4.25L-1.05 -4.2Q-1.15 -4.15 -1.15 -4.25L-1.15 -4.3Q-1.6 -4.25 -1.85 -4L-2.35 -3.6L-2.35 -3.5L-2.2 -3.4L-2 -3.2L-1.9 -3.1L-1.9 -3.05L-2.75 -3.1Q-3.35 -3.05 -3.75 -2.5L-3.75 -2L-3.65 -1.8L-3.55 -1.65L-3.5 -1.55L-3.65 -1.35L-4.7 -1.25L-4.95 -1.05L-5.3 -0.8L-5.5 -0.25M-4.8,-1.75L-4.1 -1.9L-4.15 -2.15L-3.95 -2.8L-4.1 -2.8L-4.8 -1.75M-0.65,-0.9Q-0.3 -0.95 0 -1.15L0.05 -1.15L-0.1 -1.4L0 -1.5L0.05 -1.55L0.25 -1.45L0.35 -1.35L0.4 -1.2L0.45 -1.2L0.45 -1.15L0.5 -1.1L1.4 -1.05L1.8 -1.15L2 -1.2L2.1 -1.15L2.1 -1.05L2.05 -1L2 -0.95L1.9 -0.85L1.9 -0.8L1.25 -0.65L0.4 -0.75L0.35 -0.75L-0.05 -0.6L-1.35 -0.7L-1.9 -1.25L-1.8 -1.45Q-1.75 -1.15 -1.4 -1L-0.65 -0.9M4.35,-0.25L4.45 0.25L4.6 0.25Q5.35 0.5 5.9 -0.2L5.75 -0.5Q5.4 -1.45 4.5 -2L4.2 -1.45L4 -1.1Q3.95 -0.65 4.35 -0.25M5.95,0.15L4.4 0.55L2.85 0.4L2.85 0.5L2.8 0.6L2.8 0.7L2.35 0.85L3.75 0.7Q4.75 1 5.6 0.7Q5.9 0.6 5.85 0.3L5.95 0.15M-1.2,1L-1.45 1L-2 0.8L-2.05 1.1L-2.05 1.25L-3.1 1.4L0.9 1.1L-1 0.85L-1.2 1" />
<path style="fill:#FFFFFF;fill-opacity:1" d="M-5.3,-0.8L-4.95 -1.05L-4.7 -1.25L-3.65 -1.35L-3.5 -1.55L-3.55 -1.65L-3.65 -1.8L-3.75 -2L-3.75 -2.5Q-3.35 -3.05 -2.75 -3.1L-1.9 -3.05L-1.9 -3.1L-2 -3.2L-2.2 -3.4L-2.35 -3.5L-2.35 -3.6L-1.85 -4Q-1.6 -4.25 -1.15 -4.3L-1.15 -4.25Q-1.15 -4.15 -1.05 -4.2L-0.85 -4.25L-0.25 -4.75L0.4 -4.7L1.05 -4.3L0.95 -4.3L0.9 -4.25L0.9 -4.15L1.3 -4.1L1.7 -4.05L1.85 -3.85L2 -3.55L2 -3.3L2.05 -3L1.6 -2.95L1.4 -3.1Q1.05 -3.7 0.35 -3.85L1.25 -2.9Q1.6 -2.45 1.3 -2L1.25 -1.85L1.25 -1.8L1.3 -1.8L1.45 -1.8L1.6 -1.95L1.7 -2.45L2.2 -2.85L2.4 -3.1L2.4 -3.55L3.15 -3.15Q4 -2.7 3.9 -1.6L3.85 -1.75Q3.5 -1.8 3.55 -1.5Q3.65 -0.5 4.15 0.3L2.65 0.05L2.55 0.35L1.8 0.7L-1.1 0.55L-1.25 0.7L-1.65 0.65L-2.15 -0.35L-2.3 0L-2.3 0.3L-2.25 0.7L-3.3 1.2L-4.2 0.85L-3.95 0.05L-4.1 0.1L-5.3 1.05Q-5.5 1.05 -5.75 0.85L-5.85 0.8L-6.1 0.65L-6.1 0.55L-6.05 0.5L-5.85 0.35L-5.4 0.3L-5.4 0.25L-5.35 0.2L-5.3 0.2L-5.3 0.1L-5.35 0.05L-5.5 -0.25L-5.3 -0.8M-4.1,-2.8L-3.95 -2.8L-4.15 -2.15L-4.1 -1.9L-4.8 -1.75L-4.1 -2.8M-1.4,-1Q-1.75 -1.15 -1.8 -1.45L-1.9 -1.25L-1.35 -0.7L-0.05 -0.6L0.35 -0.75L0.4 -0.75L1.25 -0.65L1.9 -0.8L1.9 -0.85L2 -0.95L2.05 -1L2.1 -1.05L2.1 -1.15L2 -1.2L1.8 -1.15L1.4 -1.05L0.5 -1.1L0.45 -1.15L0.45 -1.2L0.4 -1.2L0.35 -1.35L0.25 -1.45L0.05 -1.55L0 -1.5L-0.1 -1.4L0.05 -1.15L0 -1.15Q-0.3 -0.95 -0.65 -0.9L-1.4 -1M4,-1.1L4.2 -1.45L4.5 -2Q5.4 -1.45 5.75 -0.5L5.9 -0.2Q5.35 0.5 4.6 0.25L4.45 0.25L4.35 -0.25Q3.95 -0.65 4 -1.1M5.85,0.3Q5.9 0.6 5.6 0.7Q4.75 1 3.75 0.7L2.35 0.85L2.8 0.7L2.8 0.6L2.85 0.5L2.85 0.4L4.4 0.55L5.95 0.15L5.85 0.3M-1,0.85L0.9 1.1L-3.1 1.4L-2.05 1.25L-2.05 1.1L-2 0.8L-1.45 1L-1.2 1L-1 0.85" />
<path style="fill:#FFCC00;fill-opacity:1" d="M-2,1.9L-3.4 1.7L-3.5 1.65L-3.6 1.65L-3.65 1.6L-4.55 1.55L-4.85 1.55L-5.1 1.55L-5.2 1.5L-5.6 1.4L-5.9 1.5L-6.05 1.65L-6.3 1.8L-6.4 1.85L-6.45 1.85L-6.55 1.8L-6.55 1.65L-6.35 1.4L-6.2 1.25L-6.1 1.15L-6.1 1.1L-6.25 1.05L-6.35 1L-6.45 0.9L-6.55 0.8L-6.55 0.75L-6.6 0.7L-6.65 0.7L-6.65 0.6L-6.7 0.6L-6.8 0.45L-6.6 0.2L-6.25 0L-6 -0.2L-6 -0.25L-5.95 -0.3L-5.95 -0.35L-5.9 -0.4L-5.85 -0.55L-5.7 -1.05L-5.55 -1.6L-5.35 -2L-5.1 -2.45L-4.7 -2.95L-4.45 -3.2L-4.1 -3.45L-3.4 -3.65L-3.15 -3.95L-2.75 -4.3L-2.25 -4.65L-1.4 -5L-1.25 -5.05L-0.9 -5.05L-0.8 -5.05L-0.8 -5L-0.75 -4.95L-0.65 -5.05L-0.15 -5.25L0.05 -5.3L0.8 -5.25L1.45 -4.85L2.05 -4.4L2.35 -4.2L2.55 -4.15L3.2 -3.85L3.8 -3.55L4.25 -3.15L4.3 -3.1L4.4 -3L4.55 -2.85L4.65 -2.65L4.7 -2.5L4.7 -2.35L4.7 -2.3L4.9 -2.25L5.35 -1.9L5.75 -1.5L5.95 -1.05L6.05 -0.8L6.15 -0.65L6.4 -0.4L6.8 -0.1L6.85 0.2L6.45 0.45L5.75 1.1L5.3 1.25L4.65 1.35L1.8 1.5L0.25 1.65L-1.4 1.6L-1.45 1.65L-1.45 1.7L-1.5 1.7L-1.5 1.75L-1.55 1.8L-1.6 1.8L-1.65 1.85L-1.7 1.85L-1.8 1.85L-2 1.9M6.6,0.1L6.5 0.1L6.4 0L5.9 -0.5Q5.7 -0.75 5.65 -1.05L5.45 -1.4L4.9 -1.9L4.75 -2L4.6 -2L4.5 -2.05L4.45 -2.1L4.4 -2.1L4.35 -2.15L4.35 -2.2L4.1 -2.95L3.8 -3.15L2.65 -3.75L2.35 -3.85L2.1 -4L1.75 -4.25L0.5 -4.95L0 -4.95L-0.7 -4.7L-0.8 -4.7L-0.9 -4.7L-0.95 -4.75L-1 -4.8L-1.4 -4.75L-1.55 -4.65Q-1.7 -4.5 -1.95 -4.45L-2.5 -4.15L-2.75 -3.95L-3.05 -3.65L-3.15 -3.55L-3.15 -3.5L-3.45 -3.35L-4.25 -3L-4.7 -2.55L-4.9 -2.1L-5.05 -1.9L-5.2 -1.65L-5.35 -1.3L-5.5 -0.9L-5.55 -0.6L-5.6 -0.35L-5.7 -0.15L-5.75 0L-5.95 0.15L-6.2 0.3L-6.45 0.45L-6.4 0.5L-6.35 0.5L-6.35 0.55L-6.3 0.55L-6.3 0.6L-6.25 0.65L-6.25 0.7L-6.15 0.75L-6.1 0.8L-5.9 0.9L-5.8 1.05L-5.75 1.1L-5.7 1.15L-4.85 1.15L-4.5 0.95Q-4.35 0.8 -4.3 1L-4.45 1.3L-4.4 1.3L-3.55 1.3Q-3.35 1.3 -3.25 1.45L-3.15 1.45L-2.75 1.55L-2.05 1.55L-2 1.6L-1.95 1.6L-1.75 1.6Q-1.6 1.3 -1.3 1.3L1.15 1.25L4.45 1.05L5.8 0.6L6.45 0.15L6.5 0.15L6.6 0.1" />
<path style="fill:#FFFF00;fill-opacity:1" d="M6.25,-6.4L6.4 -6L6.55 -5.85L6.6 -5.8L5.8 -5.75L5.8 -5.9L5.7 -6.25L5.6 -6.6L5.4 -6.95L5.9 -6.75L6.25 -6.4M2.1,-8L3.15 -7.25L2.6 -7.15L2.4 -7.1L2.3 -7.25L2.15 -7.45L1.95 -7.6L1.75 -7.7Q1.1 -7.9 0.5 -7.7L0.45 -7.95L0.25 -8.15L0 -8.35L-0.2 -8.6L1.7 -8.15L1.8 -8.05L2.1 -8M4.05,-2.85L4.2 -2.7Q4.35 -2.5 4.5 -2.45L5.45 -2.2L5.45 -2.1L5.45 -2.05L5.45 -1.9L5.45 -1.85L5.5 -1.7L5.5 -1.6L2.4 -1.8L2.65 -1.9L3.15 -2.2L3.6 -2.45L4.05 -2.85M8.1,-3.1L8.15 -2.9L8.2 -2.6L8.3 -2.4L8.35 -2.1L8.3 -2L8.15 -2.05L8 -2.2L7.85 -2.25L7.7 -2.4L7.6 -2.75L7.5 -3.15L7.25 -3.45L6.95 -3.7L7.1 -3.7L7.15 -3.7L7.25 -3.85L7.7 -3.8L7.8 -3.65L7.9 -3.5L8 -3.3L8.05 -3.2L8.1 -3.1M-3.25,-7.95L-3.35 -7.9L-3.4 -7.85L-3.4 -7.7L-3.45 -7.7L-3.5 -7.65L-3.5 -7.55L-3.55 -7.5L-3.55 -7.45L-3.85 -7.45L-4.15 -7.55L-4.4 -7.6L-4.65 -7.7L-4.35 -7.9Q-4.1 -8 -3.95 -8.05L-3.5 -8.2L-3.1 -8.3L-2.8 -8.3L-2.9 -8.25L-3 -8.2L-3.05 -8.2L-3.1 -8.15L-3.15 -8.05L-3.15 -8L-3.2 -8L-3.25 -7.95M-6.75,-6.2L-6.75 -6.1L-6.75 -5.85L-6.7 -5.7L-6.7 -5.6L-6.8 -5.5L-6.95 -5.45L-7.05 -5.4L-7.05 -5.35L-7.1 -5.35L-7.3 -5.1L-7.4 -4.95L-7.5 -4.7L-7.65 -4.6L-7.65 -4.75L-7.65 -4.95L-7.7 -5.1L-7.65 -5.3L-7.6 -5.45L-7.45 -5.6L-7.3 -5.85L-7.05 -6.15L-6.75 -6.35L-6.75 -6.2M-8.4,-3.65L-8.35 -3.3L-8.25 -3L-8.1 -2.75L-7.8 -2.5L-7.2 -2.05L-6.4 -1.7L-6.4 -1.65L-6.45 -1.6L-6.5 -1.45L-6.55 -1.4L-6.55 -1.35L-7.9 -1.6L-8.5 -1.4L-8.6 -1.75L-8.8 -2L-9.25 -2.05L-9.25 -2.15L-9.25 -2.2L-9.2 -2.25L-9.15 -2.4L-9.1 -2.55L-9 -3L-8.8 -3.45L-8.55 -3.85L-8.4 -3.65M-2.1,-5.05L-2.1 -5L-2.15 -5L-2.15 -4.95L-2.2 -4.9L-2.55 -4.45L-2.9 -4.15L-3.1 -3.95L-3.25 -3.9L-3.4 -3.9L-3.4 -3.95L-3.5 -3.95L-3.65 -4.15L-3.85 -4.3L-4.05 -4.55L-4.15 -4.6L-4.25 -4.7L-4.25 -4.75L-4.15 -4.75L-4.1 -4.8L-4.1 -4.9L-4.25 -5.1L-4.35 -5.3L-4.4 -5.45L-4.55 -5.6L-4.55 -5.7L-4.4 -5.7L-4.25 -5.8L-4.05 -5.85L-3.8 -5.85L-3.7 -5.9L-2.7 -5.6L-2.2 -5.35L-1.95 -5.15L-2 -5.1L-2 -5.05L-2.1 -5.05" />
<path style="fill:#FFCC00;fill-opacity:1" d="M6.2,-6.8L6.55 -6.35L6.8 -6.1L6.85 -6L6.85 -5.85L6.9 -5.8L6.9 -5.7L6.9 -5.65L6.9 -5.5L6 -5.35L5.65 -5.4L5.45 -5.65L5.5 -5.75L5.45 -5.9L5.4 -6.2L5.2 -6.5L5 -6.85Q4.8 -7.1 4.9 -7.3L5.05 -7.3L5.65 -7.15L6.2 -6.8M5.9,-6.75L5.4 -6.95L5.6 -6.6L5.7 -6.25L5.8 -5.9L5.8 -5.75L6.6 -5.8L6.55 -5.85L6.4 -6L6.25 -6.4L5.9 -6.75M1.8,-8.05L1.7 -8.15L-0.2 -8.6L0 -8.35L0.25 -8.15L0.45 -7.95L0.5 -7.7Q1.1 -7.9 1.75 -7.7L1.95 -7.6L2.15 -7.45L2.3 -7.25L2.4 -7.1L2.6 -7.15L3.15 -7.25L2.1 -8L1.8 -8.05M1.15,-8.6L1.95 -8.3L2.65 -8L3.05 -7.8L3.05 -7.7L3.15 -7.7L3.2 -7.65L3.25 -7.6L3.8 -6.95L3.75 -6.85L2.3 -6.85L2.15 -6.9Q1.65 -7.7 0.55 -7.35Q0.15 -7.25 0.15 -7.65L-0.05 -7.9L-0.35 -8.25L-0.65 -8.6L-0.45 -8.8L0.4 -8.8L1.15 -8.6M3.95,-3.15L4.05 -3.15L4.85 -2.7Q5.05 -2.55 5.35 -2.55Q6.05 -2.6 5.9 -2.05L5.9 -1.75L5.95 -1.25L3.15 -1.45L1.4 -1.35L1.2 -1.4L1.75 -1.85L1.95 -1.9L2.15 -2.05Q2.65 -2.25 3.15 -2.55L3.55 -2.8L3.6 -2.85L3.75 -2.95L3.85 -3.1L3.95 -3.15M3.6,-2.45L3.15 -2.2L2.65 -1.9L2.4 -1.8L5.5 -1.6L5.5 -1.7L5.45 -1.85L5.45 -1.9L5.45 -2.05L5.45 -2.1L5.45 -2.2L4.5 -2.45Q4.35 -2.5 4.2 -2.7L4.05 -2.85L3.6 -2.45M8.05,-3.2L8 -3.3L7.9 -3.5L7.8 -3.65L7.7 -3.8L7.25 -3.85L7.15 -3.7L7.1 -3.7L6.95 -3.7L7.25 -3.45L7.5 -3.15L7.6 -2.75L7.7 -2.4L7.85 -2.25L8 -2.2L8.15 -2.05L8.3 -2L8.35 -2.1L8.3 -2.4L8.2 -2.6L8.15 -2.9L8.1 -3.1L8.05 -3.2M8.35,-3.35L8.55 -2.45L8.65 -1.45L8.5 -1.1L8 -1.7L7.75 -1.85L7.3 -2.35L7.3 -2.55Q7.3 -3.1 6.85 -3.35L6.55 -3.35L6.5 -3.35L6.5 -3.3L6.4 -3.3L6.35 -3.25Q6.05 -3.45 6.35 -3.6Q6.7 -3.9 7.2 -4L7.75 -4.05L8.35 -3.35M-3.2,-8L-3.15 -8L-3.15 -8.05L-3.1 -8.15L-3.05 -8.2L-3 -8.2L-2.9 -8.25L-2.8 -8.3L-3.1 -8.3L-3.5 -8.2L-3.95 -8.05Q-4.1 -8 -4.35 -7.9L-4.65 -7.7L-4.4 -7.6L-4.15 -7.55L-3.85 -7.45L-3.55 -7.45L-3.55 -7.5L-3.5 -7.55L-3.5 -7.65L-3.45 -7.7L-3.4 -7.7L-3.4 -7.85L-3.35 -7.9L-3.25 -7.95L-3.2 -8M-3,-7.8L-3.05 -7.65L-3.15 -7.55Q-3.15 -7.5 -3.25 -7.5L-3.25 -7.45L-3.25 -7.3L-3.35 -7.25L-3.35 -7.1L-3.45 -7L-5.15 -7.25L-5.5 -7.15L-6.1 -6.85Q-6.05 -6.6 -6.35 -6.35L-6.45 -5.75Q-6.25 -5.35 -6.75 -5.15Q-6.85 -5.1 -7.05 -5L-7.15 -4.75L-7.35 -4.55L-7.45 -4.3L-7.6 -4.05Q-7.95 -4.15 -7.9 -4.55L-7.95 -5.1L-7.8 -5.7L-7.7 -5.9L-7.6 -6.05L-7.2 -6.4L-6.8 -6.75L-6.45 -6.9L-6.2 -7.15L-4.95 -8L-2.4 -8.75L-2.15 -8.55Q-2.15 -8.3 -2.3 -8.2Q-2.55 -8.05 -2.75 -7.95L-2.9 -7.9L-3 -7.8M-3.8,-6.25L-2.75 -6.1Q-2.2 -5.85 -1.85 -5.45Q-1.4 -5.05 -1.95 -4.6L-2.3 -4.3L-2.3 -4.25L-2.4 -4.15L-2.55 -4L-2.75 -3.9L-3 -3.65L-3.1 -3.55L-3.15 -3.55L-3.4 -3.55L-3.5 -3.55L-3.5 -3.65L-3.55 -3.7L-3.7 -3.8L-3.75 -3.85L-3.85 -3.9L-3.95 -3.95L-3.95 -4L-4 -4.05L-4.05 -4.05L-4.1 -4.15L-4.15 -4.25L-4.35 -4.45L-4.45 -4.7L-4.65 -4.9L-4.75 -5.25L-4.75 -5.3L-4.85 -5.3L-4.85 -5.35L-4.9 -5.4L-4.9 -5.45L-4.9 -5.5L-4.9 -5.65L-4.95 -5.75L-4.9 -5.8L-4.9 -5.85L-4.75 -5.9L-4.45 -6.1L-4.05 -6.2L-3.8 -6.25M-6.75,-6.35L-7.05 -6.15L-7.3 -5.85L-7.45 -5.6L-7.6 -5.45L-7.65 -5.3L-7.7 -5.1L-7.65 -4.95L-7.65 -4.75L-7.65 -4.6L-7.5 -4.7L-7.4 -4.95L-7.3 -5.1L-7.1 -5.35L-7.05 -5.35L-7.05 -5.4L-6.95 -5.45L-6.8 -5.5L-6.7 -5.6L-6.7 -5.7L-6.75 -5.85L-6.75 -6.1L-6.75 -6.2L-6.75 -6.35M-9.25,-3.55L-9.2 -3.65L-9.1 -3.9L-8.8 -4.25L-8.6 -4.3L-8.4 -4.25L-8.25 -4.15L-8.25 -3.9L-8.25 -3.7L-8.2 -3.6L-8.05 -3.45L-7.95 -3.2L-7.9 -2.95L-7.4 -2.55L-6.65 -2.15L-5.95 -1.9L-5.9 -1.8L-6.1 -1.45L-6.2 -1.25L-6.35 -0.95L-7 -1.05L-8 -1.3L-8.05 -1.25L-8.35 -1L-8.5 -0.75L-8.6 -0.6L-8.65 -0.6L-8.7 -0.65L-8.8 -0.65L-8.85 -0.7L-8.85 -0.8L-8.85 -1.1L-8.85 -1.35L-8.95 -1.65L-9 -1.7L-9.15 -1.7L-9.15 -1.65L-9.2 -1.6L-9.2 -1.5L-9.2 -1.35L-9.2 -1.15L-9.25 -1L-9.3 -0.9L-9.4 -0.9L-9.45 -0.95L-9.5 -0.95L-9.55 -1L-9.55 -1.6L-9.55 -2.2L-9.5 -2.8L-9.45 -3.25L-9.25 -3.55M-8.55,-3.85L-8.8 -3.45L-9 -3L-9.1 -2.55L-9.15 -2.4L-9.2 -2.25L-9.25 -2.2L-9.25 -2.15L-9.25 -2.05L-8.8 -2L-8.6 -1.75L-8.5 -1.4L-7.9 -1.6L-6.55 -1.35L-6.55 -1.4L-6.5 -1.45L-6.45 -1.6L-6.4 -1.65L-6.4 -1.7L-7.2 -2.05L-7.8 -2.5L-8.1 -2.75L-8.25 -3L-8.35 -3.3L-8.4 -3.65L-8.55 -3.85M-2,-5.05L-2 -5.1L-1.95 -5.15L-2.2 -5.35L-2.7 -5.6L-3.7 -5.9L-3.8 -5.85L-4.05 -5.85L-4.25 -5.8L-4.4 -5.7L-4.55 -5.7L-4.55 -5.6L-4.4 -5.45L-4.35 -5.3L-4.25 -5.1L-4.1 -4.9L-4.1 -4.8L-4.15 -4.75L-4.25 -4.75L-4.25 -4.7L-4.15 -4.6L-4.05 -4.55L-3.85 -4.3L-3.65 -4.15L-3.5 -3.95L-3.4 -3.95L-3.4 -3.9L-3.25 -3.9L-3.1 -3.95L-2.9 -4.15L-2.55 -4.45L-2.2 -4.9L-2.15 -4.95L-2.15 -5L-2.1 -5L-2.1 -5.05L-2 -5.05" />
</g>
</svg>
