<?xml version="1.0" encoding="utf-8"?>
<svg version="1.1" id="Layer_1"
xmlns="http://www.w3.org/2000/svg"
xmlns:xlink="http://www.w3.org/1999/xlink"
width="142px" height="75px"
xml:space="preserve">
<g id="818" transform="matrix(1, 0, 0, 1, 29.4, -3.65)">
<path style="fill:#0B0B0B;fill-opacity:1" d="M92.65,20.45L92.5 20.55L92.4 20.65L91.9 23.8L91.95 24.05L91.15 24.45L88.45 23.65L88.75 23.15L88.7 22.7L88.3 22.25L87.75 22.35L87.35 22.7Q87.2 22.95 87.4 23.3L84.2 22.3L85.3 19.65L88.65 20.65L90.2 23.65L90.45 23.9L90.8 23.85L90.9 23.6L90.95 23.25L89.25 20Q89.25 19.8 88.9 19.8L93.25 16.4L95.15 17.7L97.7 16.5L97.3 18.4L92.65 20.45M92.85,23.65L93.15 21.15L97.6 19.25L98.5 21.15L95.05 22.65L95 22.2Q94.9 22 94.65 21.95Q94.35 21.75 94.1 21.95L93.7 22.4L93.7 22.9L93.9 23.25L92.85 23.65M85.15,21.7L85.2 21.8L85.45 22.05L86.15 21.95L86.45 21.6L86.55 21.1L85.95 20.85L85.3 20.8L85.05 21.25Q84.9 21.5 85.15 21.7M96,21L96.45 21.35L97 21.35L97.35 20.8Q97.5 20.6 97.25 20.3L97 19.95L96.5 20.05Q96.05 20.1 96.05 20.3Q95.9 20.6 96 21M102.35,41.15L102.35 41.05Q102.6 40.85 102.45 40.6L102.3 40.2L101.85 40.1L101.2 40.25Q100.95 40.55 101.15 40.9L101.4 41.3L101.5 41.35L98.3 41.8L97.7 41.45Q97.85 41.3 97.65 41.1L97.15 37.6L96.95 37.35L93.85 35.2L96.8 31.95L96.9 32.2L98.75 34.9L102.9 34.65L103.5 33.1L107.15 35.75L107.15 36.6L100.25 37.8L100.1 37.95L99.95 38.05L98.65 40.95L98.7 41.2L98.85 41.55L99.35 41.55L99.55 41.3L100.7 38.55L111.65 36.75L111.85 39.55L102.35 41.15M91.9,37.4L93.3 35.7L96.35 37.9L96.8 40.85L95.8 40.15L96 39.85L96.05 39.65L95.6 39.2L95.05 39L94.6 39.5L93.2 38.25L93.6 38.45L94.15 38L94.15 37.6L93.85 36.95L93.15 37Q93 36.9 92.8 37.15Q92.6 37.5 92.7 37.8L92.75 38L91.9 37.4M81.1,48.2L81.25 48.25L81.3 48.25L81.35 48.25L81.4 48.25L81.6 48.3L82.05 47.65L83.6 49.55L83.05 50.6L81.1 48.2M80.2,73L78.45 72.85Q77.05 72.65 75.85 72.1L75 71.7Q85.55 71.35 88.05 68Q92.55 61.95 85.1 52.85L85.75 53.2L87.7 54.75L88.05 55.1L89.05 56.3Q90.85 58.95 90.85 62.35L90.6 64.75Q90.1 67.1 88.5 69L87.7 69.85Q85.35 72.25 82.3 72.85L81.65 72.95L80.2 73M73.95,72.85L68.1 72.85L68.4 71.65L71.95 71.65L72 71.75L73.25 71.75L73.95 72.85M53.1,72.85L46.7 72.85L47.05 71.65L52.75 71.65L53.1 72.85M31.75,72.85L25.65 72.85L26.45 72.05L26.3 71.7L29.2 71.75L29.3 71.65L31.4 71.65L31.75 72.85M9.7,62.35Q9.7 60 10.6 58.05L11.05 57.05L13.4 54.25Q14.1 53.6 14.9 53.25L15.05 53.15Q15.25 52.95 15.55 52.85Q15.95 52.6 16.45 52.45L16.55 52.45L14.9 54.55Q9.05 62.5 13.15 68Q15.6 71.25 25.55 71.7L24.75 72.1L22.2 72.85L18.95 72.95Q15.45 72.5 12.8 69.85Q11.4 68.45 10.65 66.8Q10.1 65.7 9.9 64.5L9.7 62.35M17.1,49.8L18.8 47.8L19.5 48.75L17.5 51.15L17.1 49.8M27.15,34.35L25.35 33.55L23.9 33.3L24.25 28L30 21.4L32.2 22.55L32.9 23.8L32.5 24.5L31.7 24.3L31.7 24.2L31.5 23.7Q31.3 23.55 31 23.55L30.45 23.7L30.35 23.9L29.95 23.8L27.45 26.85L27.95 28L27.85 28.35L28.05 28.85L28.35 29L28.75 29.95L29.2 30.6L27.15 34.35M35.4,11.45L37.6 15.2L35.7 18.7L34.35 18.45L34 18.85L33.7 18.8L33.15 18.95L32.9 19.4Q32.9 19.8 33.15 19.9L31.95 21.4L30.6 20.7L31.55 14.85L35.4 11.45M38.15,16.15L41 10.85L43.25 11.9L43.35 8.6L43.6 8.7L43.7 9L46 11.75L46.15 11.85L46.3 11.85L53 12.3L52.75 15.9L52.35 16.85L52.25 17.05L52.15 17.2L52.1 17L52.05 16.8L51.95 16.5L52.1 16.15L51.9 15.6L51.5 15.4L51.45 15.2L51.35 14.95L51 13.85L49.7 13.8L47.45 13.75L47.15 13.8L46.95 13.8L46.65 14.35L46.65 14.4L44.15 13.05L43.25 14.75L42.05 19.7L43.2 18.25L43.25 18.25Q45.45 16.05 48.4 15.45L50.55 16.7Q46.6 16.8 43.7 19.45L43.4 19.7L42.35 21L42.3 21.05L37.65 19.05L36.65 18.9L38.15 16.15M46.5,11L44.5 8.7L46.25 8.85L46.05 9.25L46.2 9.75L46.75 10L47.2 9.8L47.5 9.25L47.4 8.95L56.5 9.5L56.3 11.6L46.5 11M53.85,14.1L53.85 12.4L56.35 12.5L55.15 13.95L55 14.1L54.55 14.1L54.05 14.05L53.85 14.1M56.8,13.5L62.2 12.05L67.55 16.6L65.95 18.15L65.45 17.6L65.5 17.6Q65.8 17.6 66 17.4L66.2 16.9L66 16.4Q65.8 16.25 65.5 16.25L64.95 16.4L64.75 16.9L61.5 17.8L58.1 19.7Q55.75 17.35 52.65 16.9L53.8 15.55Q56 16.15 57.85 17.8L58.2 18.15L58.7 18.8L57.35 14.5L56.8 13.5M67.65,17.8L67.95 22.35L66.2 23.05L67.5 19.75L66.55 18.8L67.65 17.8M68.6,32.6L71.2 28.25L75.55 28.45L75.75 30.95L70.15 32.25L68.6 32.6M76.4,28.5L78.5 28.6L78.55 29.6L78.4 29.4L77.95 29.25Q77.5 29.25 77.45 29.45L77.35 30.1L77.65 30.6Q77.7 30.8 78.15 30.8L78.5 30.45L78.65 30.4L78.75 32.1L78.55 32.15L78.2 32.05Q77.8 32.15 77.85 32.25L76.75 32.5L76.65 31.45L76.65 31.2L76.6 31.1L76.4 28.5M109.3,38.6L109.65 39.05L110.25 39.15L110.75 38.75L110.85 38.35L110.65 37.9L110.05 37.75Q109.8 37.8 109.45 38.1Q109.3 38.2 109.3 38.6M107.35,39.65Q107.75 39.65 107.95 39.3L108.05 38.8L107.8 38.4L107.25 38.25Q106.9 38.35 106.8 38.55Q106.55 38.65 106.6 39.1L106.85 39.5L107.35 39.65M104.1,39.05L103.9 39Q103.75 39.15 103.85 39.55L104.15 40L104.6 40.1L105 39.9L105.15 39.85L105.25 39.3Q105.25 38.9 104.95 38.95Q104.7 38.7 104.45 38.8L104.1 39.05M73.2,70.35L72.6 69.85Q70.85 68.1 70.1 65.85L66.5 65.85L67.05 64.1L69.6 63.6L69.8 64.75L69.6 63.5L69.6 62.65L69.55 61.95Q69.6 60.9 69.8 60L70 59.2L69.75 60L69.55 61.5L69.5 60.9L69.9 54.6L76.1 52.6L77 52.3L76.5 51.65L76.9 52.15L77.5 52L80.2 51.65L82.25 51.85L82.4 51.9Q92.25 63.1 87 67.4Q82.1 71.35 73.55 70.65L73.2 70.35M44.85,65.85L44.55 63.6L44.15 65.85L43.9 65.85L41.3 63.95L40.1 64.15L39.6 64.15L39.45 64.15L39.25 64.15L38.75 64.15L37.5 64L34.85 65.85L34.7 65.85L34.4 63.65L33.95 65.85L30.5 65.85Q29.7 68.1 27.9 69.85L27.4 70.35L27.15 70.6L27 70.7Q18.9 71.15 14.2 67.4Q8.95 63.1 18.9 51.75L20.35 51.65Q22.6 51.65 24.6 52.5L40.6 32.5L41.4 32.3L42.25 31.3L42.65 26.35L40.8 25.15L41.75 23.95L42.75 25.25L43 22.5L43.4 21.95L44.25 20.9L44.4 20.7Q47.05 18.1 50.8 18.1Q54.25 18.1 56.8 20.4L56.4 20.6L56.85 24.15L58.4 22.25L59.5 23.65L57.05 25.2L57 25.2L57.05 25.55L57.65 30.1L61.55 26.35L60.1 29.65L58.6 31.05L59.4 31.25L59.95 31.35L59.9 31.35L62.05 34L54.15 37.45L47.25 35.85L46.15 35.55L46.8 37L45.2 38.65L47.2 41L49.2 39.95Q51.05 41.6 53.3 42.25L53.4 44.7L56.6 44.9L56.95 43.85L58.05 45.9Q56.3 47.75 55.65 50.05L53.35 50.2L53.25 51.2L54.2 51.15L55.45 51.1L52.7 56.55L52.6 56.55L52.55 56.6L53.65 56.55L53.7 56.5L53.8 56.5L56.55 51L59.15 50.9L56.4 56.35L55.65 56.4L55.65 56.45L56.5 58.5L54.9 60.15L56.9 62.5L58.9 61.45L60.45 62.6L60.65 62.7L61.25 63.05L61.2 63.05L60 63.05L56.15 65.85L55.95 65.85L55.65 63.7L55.25 65.85L44.85 65.85M83.2,56.7Q81.8 55.9 80.05 55.9L78.75 56.1L80.05 62.25L80.05 56.65L80.15 56.65Q81.65 56.65 82.95 57.35L80.2 62.25L84.35 57.5L83.2 56.7M85.75,65.55Q86.6 64.15 86.6 62.4L86.45 61.2L80.6 62.4L85.95 62.4L85.95 62.5Q85.95 64 85.25 65.3L80.2 62.55L85.05 66.6L85.75 65.55M70.7,32.95L75.8 31.85L75.9 32.7L75.5 32.75L70.65 35.1L70.6 35.15L69.1 33.3L69.2 33.3L70.7 32.95M52.15,11.15L52.75 10.95L52.95 10.5L52.8 10L52.3 9.85Q52 9.8 51.8 10Q51.5 10.2 51.55 10.4Q51.5 10.75 51.7 10.9L52.15 11.15M54.3,10.6Q54.2 11 54.45 11.05Q54.7 11.3 55.05 11.35Q55.35 11.35 55.6 11.15L55.8 10.75L55.75 10.4L55.6 10.15Q55.4 10 55.05 9.95L54.9 9.95L54.6 10.05L54.55 10.15Q54.3 10.3 54.3 10.6M49.95,9.8L49.5 9.65L49.35 9.7L48.95 9.75Q48.75 9.85 48.7 10.25L48.8 10.8L48.9 10.75L49.35 11.05L49.9 10.85L50.15 10.3L49.95 9.8M49.2,19.25L50.5 25.4L50.5 19.8L50.6 19.8Q52.1 19.8 53.4 20.5L50.65 25.4L54.8 20.65Q54.3 20.15 53.65 19.85Q52.25 19.05 50.5 19.05L49.2 19.25M44.8,22.4Q44 23.8 44 25.55L44.2 27.05L50.35 25.7L46.25 30.45L47.35 31.25Q48.75 32.1 50.5 32.1L51.9 31.95L50.6 25.7L50.5 25.7L50.5 31.45Q48.9 31.45 47.65 30.7L50.45 25.7L50.35 25.7L50.45 25.55L44.75 25.55Q44.75 24 45.45 22.75L50.5 25.55L50.5 25.5L45.65 21.3Q45.1 21.75 44.8 22.4M57.05,25.55L56.65 24.4L51.05 25.55L55.75 25.55L56.35 25.65L56.4 25.6L56.4 25.65Q56.4 27.15 55.7 28.45L50.65 25.7L55.5 29.75L56.2 28.7Q57.05 27.3 57.05 25.55M66.3,39.85L66 40.95L64.75 38.7L65.35 38L66.95 39.95L66.3 39.85M44.65,48.7Q42.7 46.9 40.1 46.7L39.25 46.65L38.95 46.65Q36.15 46.7 34.05 48.55L33.5 49.05L33.4 49.15Q31.3 51.3 31.15 54.25L31.1 54.8L31.1 55.05Q31.15 58.1 33.25 60.35L33.5 60.55L33.85 60.85Q36 62.85 39.1 62.95L39.25 62.95L39.95 62.95Q42.75 62.65 44.85 60.7L45 60.55L45.55 60L46.75 58.1L45.75 58.25L45.15 59.2L44.6 58.15Q43.6 57.9 42.9 57.2L42.4 56.55L41.9 57.1Q40.9 58.1 39.6 58.1Q38.25 58.1 37.25 57.1Q36.3 56.1 36.3 54.8Q36.3 53.45 37.25 52.45Q38.25 51.5 39.6 51.5Q40.9 51.5 41.9 52.45L42.25 52.85L42.9 52L43.05 51.85L42.8 51.55L42.2 51L44.15 49.95L43.2 51.75Q43.85 51.2 44.65 51.05L45 50.3L45.5 50.95L46.5 51.1L45.4 49.5L45 49.05L44.65 48.7M58.9,42.4L57 43.7L57.35 42.6L58.9 42.4M72.1,30.4L71.9 29.9L71.4 29.75L70.85 29.9L70.6 30.4Q70.6 30.75 70.85 30.85L71.4 31.1L71.9 30.85L72.1 30.4M73.7,29.4L73.5 29.9L73.7 30.4L74.3 30.6Q74.55 30.6 74.75 30.4L75 29.9L74.75 29.4L74.3 29.25L73.7 29.4M63,42.8Q62.05 43.05 61.15 43.5L59.7 42.15L61.45 41.45L63 42.8M64.35,42.55L65.95 41.05L65.55 42.4L64.35 42.55M17.25,16.5L21.2 12.9L22.15 17.15L22.1 17.2L16.45 19.55L17.25 16.5M20.8,16.3L21.1 16.05L21.2 15.85Q21.3 15.55 21.05 15.45L20.6 14.95Q20.3 14.85 20.15 15.1Q19.85 15.15 19.8 15.35L19.75 15.45Q19.55 15.7 19.8 15.95L20.25 16.3L20.55 16.3L20.8 16.3M29.75,31.4L31.6 34L30.25 35.65L28 34.7L29.75 31.4M35.5,14.6L35.3 15.05L35.5 15.55L36.1 15.75L36.55 15.55L36.8 15.05L36.55 14.6L36.1 14.45L35.5 14.6M34.8,16.6L34.25 16.75L34.05 17.25L34.25 17.75Q34.55 17.95 34.8 17.95Q35.1 17.95 35.3 17.75L35.5 17.25L35.3 16.75L34.8 16.6M19.25,17.6L19.15 17.05L18.8 16.7L18.2 16.65Q17.95 16.8 17.85 17.1Q17.8 17.45 17.9 17.7L18.3 17.95L18.8 18.05L19.25 17.6M-3.85,35.9L-5.25 35.95L-6.1 34.95L-3.85 35.9M-6.3,37.4L-5.75 37.5L-5.9 38.5L-3.5 41.1L1.4 41.15L1.5 41.15L1.6 41.3Q1.7 41.45 1.9 41.4L2 41.35L2.4 41.25L3.9 41.35Q3.8 41.45 3.85 41.65L3.95 42.3L4.5 42.35L4.9 42.3L5.1 41.85L5.15 41.65L5.05 41.35L7.35 41.4L4.7 47.7L2.5 48.2L-21.15 37.8L-22.65 35.75L-19.25 28.25L-18.7 29L-18.75 29.1L-18.75 29.4L-18.55 29.6L-17.85 29.95L-16.2 31.55L-16.5 31.75L-16.65 32.25L-16.45 32.85L-16.3 33L-15.85 33L-15.6 33L-15.55 32.85L-15.45 32.55L-14.05 33.95L-14 34.05L-10.55 37.65L-7.1 37.8L-6.4 37.15L-6.3 37.4M-1.6,35.9L-6.45 34L-4.9 30.55L2 35.95L-1.6 35.9M-11.35,29.25L-5.5 29.95L-7.3 33.5L-7.5 33.4L-11.35 29.25M26.6,30.5L26.8 31L27.35 31.2L27.85 31L28.05 30.5L27.85 30.05L27.35 29.9L26.8 30.05L26.6 30.5M25.55,32.2L25.35 32.7L25.55 33.2L26.1 33.4L26.6 33.2L26.8 32.7L26.6 32.2L26.1 32.05L25.55 32.2M38.75,47.5L37.75 50.5L34.9 48.95Q36.5 47.65 38.75 47.5M36.35,51.55L35.95 52.1L34.75 49.95L36.9 51.05L36.35 51.55M39.6,50.2L38.75 50.3L39.5 47.9L40.2 50.3L39.6 50.2M32.8,54.65L35.1 53.95L35.05 54.8L35.1 55.4L32.85 54.7L32.8 54.65M32,53.95Q32.2 51.7 33.85 49.95L35.4 52.9L32 53.95M35.3,56.45L33.7 59.55Q32.1 57.65 31.95 55.35L35.3 56.35L35.3 56.45M37.9,59.05L38.8 62.1Q36.35 61.95 34.6 60.4L37.5 58.85L37.9 59.05M36.7,58.35L34.8 59.35L35.85 57.4L36.35 58L36.7 58.35M39.6,59.35L40.15 59.35L39.5 61.3L38.9 59.3L39.6 59.35M25.25,59.45L20.4 62.35L26.4 60.3L25.85 59.05Q25 57.65 23.5 56.75Q22.9 56.4 22.25 56.3L20.3 62.3L23.1 57.4L23.15 57.45Q24.5 58.2 25.25 59.45M26.4,64.55L20.75 62.7L25.35 65.35L25.3 65.4Q24.55 66.75 23.3 67.5L20.3 62.55L22.45 68.55L23.55 68Q25 67.15 25.9 65.65L26.4 64.55M20.3,62.35L18.2 56.3Q17.45 56.4 16.9 56.8Q15.45 57.65 14.6 59.15Q14.2 59.8 14.05 60.55L20.1 62.45L14.1 64.5L14.65 65.7Q15.5 67.2 17 68.05L18.25 68.65L20.25 62.55L20.2 62.5L17.3 67.5Q15.9 66.7 15.2 65.4L20.15 62.45L20.1 62.45L20.2 62.35L15.25 59.55Q16 58.2 17.25 57.45L20.25 62.4L20.3 62.35M74.35,59.25Q73.55 60.65 73.55 62.4L73.75 63.9L79.9 62.55L75.8 67.3L76.9 68.1Q78.3 68.95 80.05 68.95L81.45 68.8L80.15 62.55L80.05 62.55L80.05 68.3Q78.45 68.3 77.2 67.55L80 62.55L79.9 62.55L80 62.4L74.3 62.4Q74.3 60.85 75 59.6L80.05 62.4L80.05 62.35L75.2 58.15L74.35 59.25M61.3,56.1L64.05 50.6L64.45 50.6L66.7 50.5L66.7 50.65L64.05 55.95L61.3 56.1M65.75,55.9L65.15 55.9L66.8 52.55L67 55.8L65.75 55.9M62.95,50.7L60.2 56.15L57.55 56.3L60.3 50.8L62.95 50.7M61.65,63.25L63 63.75L63.05 64.25L62.35 63.75L61.65 63.25M51.65,51.3L48.9 56.75L48.85 56.75L48.8 56.8L49.9 56.75L49.95 56.7L50.05 56.7L52.8 51.2L51.65 51.3M47.9,51.8L47.85 51.8L48.5 52.75L49.15 51.4L48 51.5L47.9 51.8M47.35,52.8Q46.55 52 45.5 52Q44.55 52 43.85 52.6L43.6 52.8Q42.9 53.55 42.9 54.6L42.9 54.8Q42.95 55.75 43.6 56.5L43.8 56.7Q44.55 57.2 45.5 57.2L46.25 57.1L46.75 56.95L47.35 56.5Q48.1 55.7 48.1 54.6L47.95 53.7L47.35 52.8M47.15,53.15L47.75 54.2L47.75 54.6Q47.75 55.5 47.05 56.15L46.45 56.65L45.5 56.85L45.3 56.85Q44.55 56.75 44.05 56.25L43.95 56.15Q43.25 55.5 43.25 54.6Q43.25 53.6 43.95 53.05L44 53Q44.65 52.35 45.5 52.35Q46.5 52.35 47.05 53.05L47.15 53.15M42.8,58L43.25 57.6L44.15 59.35L42.4 58.45L42.8 58M41.55,58.95L44.15 60.35Q42.4 61.75 40.2 62L41.15 59.15L41.55 58.95M43.85,49.1L41.2 50.5L40.35 47.55Q42.25 47.85 43.85 49.1M-0.85,49.15L-4.25 56.85L-8.8 51.8L-5.35 47.15L-0.85 49.15M-9.15,51.5L-15.9 44.2L-15.3 42.65L-11 44.55L-10.95 44.6L-9.85 44.95L-9 45.35L-6.8 46.4L-9.15 51.5M-18.45,41.35L-16.65 42.05L-17.1 42.95L-18.95 41.05L-18.45 41.35M-18.55,30.55L-19.1 30.7L-19.2 31.25L-19 31.85L-18.5 32L-18.05 31.75L-17.8 31.25L-18.1 30.7Q-18.15 30.5 -18.55 30.55M-24.7,52.5L-24.55 52.5L-15.75 56.9L-16 59.4L-15.3 57.1L-9.3 60.05L-15.9 59.6L-16.3 67.05L-25.05 65.1L-24.7 52.5M-29.4,66.35L-28.55 50.5L-26.25 51.7L-27.1 65.3L-29.4 66.35" />
<path style="fill:#000000;fill-opacity:1" d="M95.15,17.7L93.25 16.4L98.5 12.1L98.65 12.05L97.7 16.5L95.15 17.7M93.9,23.25L94 23.3L94.65 23.05L95.1 22.75L95.05 22.65L98.5 21.15L96.5 27.65L95.3 28.2L92.15 26.95L91.45 25.2L91.15 25.6L90.85 27.15L87.85 28.8L82.15 27.1L84.2 22.3L87.4 23.3L87.8 23.55L88.45 23.65L91.15 24.45L91.95 24.05L91.95 24.15L92.2 24.3L92.6 24.2L92.8 23.9L92.85 23.65L93.9 23.25M93.1,24.5L92.55 25.05L92.55 25.45L93 25.85L93.65 25.7L93.95 25.45L94 25.3L94.05 24.85Q93.95 24.55 93.5 24.6L93.1 24.5M94.85,27L95.3 27.3L95.85 27.2L96.2 26.9Q96.35 26.6 96.15 26.35L95.8 25.85L95.25 26Q95 26.05 94.8 26.3L94.85 27M102.9,34.65L98.75 34.9L96.9 32.2L96.8 31.95L98.7 29.75L103.5 33.1L102.9 34.65M93.1,38.15L93.2 38.25L94.6 39.5Q94.45 39.5 94.55 39.9L94.8 40.1L95.5 40.45L95.8 40.15L96.8 40.85L96.9 41.25L97.1 41.45L97.45 41.7L97.7 41.45L98.3 41.8L101.5 41.35L101.9 41.35L102.35 41.15L111.85 39.55L112.2 44.65L101.35 46.6L98.7 44.55L98.25 42.95L98.25 42.8L98.15 42.9L97.15 44.55L93.7 45.05L88.35 41.2L91.9 37.4L92.75 38L93.1 38.15M90.05,25.6L90.15 25.15L89.55 24.8L89 24.9L88.65 25.25L88.7 25.7L88.8 25.8L89.25 25.95L89.85 26.1L90 25.6L90.05 25.6M86.75,26.9Q86.6 27.1 86.75 27.4L87.1 27.6L87.75 27.8L88 27.5Q88.15 27.05 87.95 26.75L87.55 26.35L87 26.4Q86.75 26.45 86.75 26.9M70.65,35.1L75.5 32.75L75.9 32.7L76.75 32.5L77.85 32.25L78.55 32.15L78.75 32.1L78.65 30.4L78.7 29.95L78.55 29.6L78.5 28.6L83.7 28.85L84.3 38.05Q84.1 37.8 83.9 37.9L84.55 38.65L85.95 40.25L84.75 43.45L82.05 47.65L81.6 48.3L81.4 48.25L81.35 48.25L81.3 48.25L81.25 48.25L81.1 48.2L70.6 35.15L70.65 35.1M90.85,62.35Q90.85 58.95 89.05 56.3L88.05 55.1L87.7 54.75L85.75 53.2L85.1 52.85L83.05 50.6L83.6 49.55L83.65 49.25L89.5 48.75L92.8 49.25L94.15 52.95L91.6 55.45L95.1 55.6L96.55 59.5L94.35 62L90.6 64.75L90.85 62.35M87.7,69.85L88.5 69L88.5 70.45L87.8 73.7L84.05 74.85L82.3 72.85Q85.35 72.25 87.7 69.85M73.25,71.75L75 71.7L75.85 72.1Q77.05 72.65 78.45 72.85L80.2 73L81.65 72.95L81.35 75.65L77.4 76.85L75 74.5L73.95 72.85L73.25 71.75M52.75,71.65L68.4 71.65L68.1 72.85L67.7 74.25L66.15 77.2L62.2 77.25L60.7 74.05L59.4 77.3L55.25 77.4L53.6 74.45L53.1 72.85L52.75 71.65M46.7,72.85L46.3 74.35L44.7 77.3L40.75 77.3L39.3 74.1L37.95 77.35L33.8 77.35L32.2 74.4L31.75 72.85L31.4 71.65L47.05 71.65L46.7 72.85M25.65,72.85L22.3 76.2L19.45 77.95L16.05 75.95L16.35 72.45L13.6 74.6L10 72.5L10.05 69.15L10.65 66.8Q11.4 68.45 12.8 69.85Q15.45 72.5 18.95 72.95L22.2 72.85L24.75 72.1L25.55 71.7L25.6 71.7L26.3 71.7L26.45 72.05L25.65 72.85M9.9,64.5L6.7 62.4L4.4 59.95L5.65 56.2L9.15 55.8L6.5 53.55L7.75 49.6L11.05 48.95L16.9 49.15L17.1 49.8L17.5 51.15L19.5 48.75L18.8 47.8L16.45 44.45L15.15 41.35L17.65 38.3L18.3 38.5L18.65 33.25L20.75 31.9L20.85 31.9L21.05 31.7L24.25 28L23.9 33.3L25.35 33.55L27.15 34.35L28 34.7L30.25 35.65L31.6 34L29.75 31.4L29.2 30.6L28.75 29.95L28.35 29L27.95 28L27.45 26.85L29.95 23.8L30.35 23.9L31.7 24.3L32.5 24.5L33.35 24.7L32.9 23.8L32.2 22.55L31.7 21.65L31.95 21.4L33.15 19.9L34 18.85L34.35 18.45L35.7 18.7L36.65 18.9L37.65 19.05L42.3 21.05L14.9 54.55L16.55 52.45L16.45 52.45Q15.95 52.6 15.55 52.85Q15.25 52.95 15.05 53.15L14.9 53.25Q14.1 53.6 13.4 54.25L11.05 57.05L10.6 58.05Q9.7 60 9.7 62.35L9.9 64.5M31.55,14.85L32.75 7L35.4 11.45L31.55 14.85M44.5,8.7L44.4 8.45L44 8.25Q43.85 8.2 43.8 8.35Q43.55 8.45 43.6 8.7L43.35 8.6L43.25 8.3L43.1 8.25L43 7.6L43.1 5.95L45.6 3.65L45.65 3.65L61.3 4.6L56.5 9.5L47.4 8.95L47.35 8.95Q47.2 8.75 46.8 8.7L46.35 8.9L46.25 8.85L44.5 8.7M52.75,15.9L53.05 15.4L53.65 14.35L53.7 14.3L53.8 14.1L53.85 14.1L54.05 14.05L54.55 14.1L55 14.1L55.15 13.95L56.8 13.5L57.35 14.5L58.7 18.8L58.2 18.15L57.85 17.8Q56 16.15 53.8 15.55L52.65 16.9L52.1 17.5L52 17.55L50.55 16.7L48.4 15.45Q45.45 16.05 43.25 18.25L43.2 18.25L42.05 19.7L43.25 14.75L44.15 13.05L46.65 14.4L46.65 14.35L46.95 13.8L47.15 13.8L47.45 13.75L49.7 13.8L51 13.85L51.35 14.95L51.45 15.2L51.5 15.4L51.95 16.5L52.05 16.8L52.1 17L52.15 17.2L52.25 17.05L52.35 16.85L52.75 15.9M70.15,32.25L70.7 32.95L69.2 33.3L68.6 32.6L68.55 32.6L67.1 30.8L67.15 30.75L65.9 29.2L65.85 29.25L63.5 26.35L63.55 26.3L62.7 25.25L62.65 25.3L62.55 25.2L62.55 25.1L61.35 23.6L61.25 23.5L60.75 22.9L60.75 22.85L59.5 21.4L58.1 19.7L61.5 17.8L64.75 16.9L65.45 17.6L65.95 18.15L66.55 18.8L67.5 19.75L66.2 23.05L67.95 22.35L68.35 28.1L71.2 28.25L68.6 32.6L70.15 32.25M96.55,42.45L96.15 42L95.6 41.8L95.05 42.1L95.1 42.3L95.25 42.65L95.55 42.95L96.15 43.3L96.4 42.95L96.45 42.65L96.55 42.45M99.4,43.25L99.65 43.5L100.3 43.65L100.7 43.4L100.75 43.4L100.9 42.95L100.6 42.4L100.05 42.4L99.5 42.6Q99.25 42.7 99.4 43.1L99.4 43.25M92.85,43.15Q92.6 43.4 92.7 43.65L92.75 43.75L93.1 43.95Q93.25 44.15 93.55 44.15L94 44L94.05 43.4L93.85 42.8L93.55 42.8L93.35 42.85Q93.1 42.85 92.85 43.15M102.35,44.35Q102.15 44.1 101.75 44.15L101.4 44.45L101.1 45.1L101.55 45.45L102.05 45.5L102.6 45.35L102.75 44.7L102.35 44.35M61.65,63.25L62.35 63.75L63.05 64.25L63.1 66.2L65.3 66.35L64.55 70.3L66.8 70.25L66.25 66.45L66.25 66.4L66.3 66.4L66.5 65.85L70.1 65.85Q70.85 68.1 72.6 69.85L73.2 70.35L73.55 70.65L72.5 70.55L72.35 70.35L61.5 70.35L61.35 63.15L61.65 63.25M56.15,65.85L60 63.05L60.15 70.35L56.55 70.35L55.95 65.85L56.15 65.85M55.25,65.85L54.3 70.35L45.45 70.35L44.85 65.85L55.25 65.85M41.3,63.95L43.9 65.85L44.15 65.85L43.2 70.35L40.15 70.35L40.1 64.15L41.3 63.95M34.85,65.85L37.5 64L38.75 64.15L38.8 70.35L35.2 70.35L34.7 65.95L34.7 65.85L34.85 65.85M27.9,69.85Q29.7 68.1 30.5 65.85L33.95 65.85L32.9 70.35L27.4 70.35L27.9 69.85M40.6,32.5L24.6 52.5Q22.6 51.65 20.35 51.65L18.9 51.75L20 50.55L19.75 50.55L22.15 47.65L25.8 49.95L23.05 46.55L25.35 43.8L29.1 46.8L29.95 45.8L26.2 42.75L28.7 39.75L32.25 42.05L29.6 38.65L34.25 33.05L38.1 35.45L35.25 31.85L37.5 29.15L41.4 32.3L40.6 32.5M42.65,26.35L42.25 31.3L38.3 28.15L40.8 25.15L42.65 26.35M41.75,23.95L43 22.5L42.75 25.25L41.75 23.95M56.85,24.15L56.4 20.6L56.8 20.4L57.1 20.7L57.75 21.4L58.15 21.95L58.4 22.25L56.85 24.15M57.65,30.1L57.05 25.55L57 25.2L57.05 25.2L59.5 23.65L61.55 26.35L57.65 30.1M75.8,50.8L71.05 44.85L70.65 44.35L68.7 41.95L68.65 41.2L68.05 41.1L67.15 40L66.95 39.95L65.35 38L65.45 37.85L64.85 37.1L62.25 33.9L62.05 34L59.9 31.35L59.95 31.35L59.4 31.25L58.6 31.05L60.1 29.65L62.4 27.45L62.7 27.85L62.7 27.65L64.9 30.4L62.05 33.85L65.85 31.55L71.15 38.1L68.5 41.05L72 39.15L74.3 42L71.05 44.85L71.95 45.85L75.15 43.05L77.65 46.15L75.2 48.75L78.4 47.05L82.25 51.85L80.2 51.65L77.5 52L76.9 52.15L76.5 51.65L75.8 50.8M69.55,61.5L69.75 60L70 59.2L69.8 60Q69.6 60.9 69.55 61.95L69.55 61.5M69.6,63.5L69.8 64.75L69.6 63.6L69.6 63.5M45.8,5.1Q45.75 5.4 46 5.6L46.5 5.9L47.05 5.7L47.3 5.2L46.95 4.75L46.5 4.6L46.1 4.65L45.8 5.1M44.3,6.8L44.1 7.2L44.1 7.35L44.3 7.7L44.85 7.85L44.9 7.85Q45.1 7.95 45.3 7.7L45.55 7.35L45.6 7L45.4 6.75L45.15 6.65L44.95 6.6L44.3 6.8M80.1,37.9L80.05 37.9L79.9 38.2L80.3 38.1L80.1 37.9M23.25,22.2L19.45 23.8L16.35 22.55L15.7 20.8L15.65 20.6L15.65 20.1L15.75 20.25L16 20.2L16.3 19.95L16.45 19.55L22.1 17.2L22.15 17.15L23.25 22.2M17.85,19.3L17.3 19.3Q17 19.4 16.95 19.75Q16.9 20.15 17 20.4L17.3 20.6L17.4 20.65L17.5 20.65L17.95 20.65L18.2 20.5L18.4 20.2L18.25 19.7L17.85 19.3M19.1,21.35L18.65 21.85L18.75 22.35L19.15 22.75L19.45 22.8L19.7 22.7L20.1 22.35L20.1 21.75L19.55 21.4L19.1 21.35M7.35,41.4L5.05 41.35L4.9 41.15L4.5 40.95Q4.1 40.95 3.85 41.25L3.9 41.35L2.4 41.25L2.45 41.2L2.4 41.1L2.55 40.6L2.35 40.1L2.3 40L2 39.95L1.8 40Q1.5 39.9 1.4 40.1L1.4 40.2L1.25 40.65L1.4 41.15L-3.5 41.1L-5.9 38.5L-5.75 37.5L-5.3 37.45L-5.2 37L-5.1 36.8L-5.2 36.5L-5.35 36.35L-5.95 36.2L-5.95 36.15L-6.4 36.4L-6.5 36.8L-6.45 36.85L-6.4 37.15L-7.1 37.8L-10.55 37.65L-14 34.05L-13.6 34.1L-13.25 34.05L-13.05 33.9Q-12.8 33.7 -12.85 33.35Q-12.8 33.1 -13.15 32.75L-13.55 32.65Q-13.9 32.65 -14.2 32.9L-14.25 33.35L-14.15 33.65L-14.05 33.95L-15.45 32.55L-15.25 32.1L-15.25 32L-15.5 31.75L-16 31.45L-16.2 31.55L-17.85 29.95L-6.1 34.95L-5.25 35.95L-3.85 35.9L5.45 39.9L5.75 39.85L6.05 39.6L6 39.35L7.35 41.4M2,35.95L5.85 39.05L-1.6 35.9L2 35.95M-7.5,33.4L-18.3 28.9L-18.6 28.9L-18.7 29L-19.25 28.25L-11.35 29.25L-7.5 33.4M-8.45,35.1L-8.95 35.35L-9.1 35.75L-9 36.25L-8.95 36.4L-8.4 36.55L-8.35 36.55L-7.95 36.35Q-7.75 36.1 -7.7 35.75L-7.95 35.3Q-8.15 35.05 -8.45 35.1M-11,33.65L-11.5 33.9L-11.65 34.45L-11.55 35L-11.45 34.95Q-11.25 35.2 -11.05 35.15L-11 35.15L-10.55 35L-10.3 34.5L-10.3 34.35L-10.5 33.9Q-10.7 33.65 -11 33.65M-0.3,38.45Q-0.45 38.3 -0.55 38.3L-0.8 38.25Q-1.05 38.25 -1.3 38.5L-1.35 39.05L-1.4 39.5L-1.2 39.6L-0.7 39.7L-0.4 39.6L-0.3 39.5L-0.15 39L-0.15 38.75L-0.3 38.45M-3.65,37.25L-3.85 37.55L-4 37.95L-4.05 38.05L-3.8 38.55L-3.3 38.65L-2.8 38.45L-2.65 38L-2.65 37.95L-2.75 37.4L-2.8 37.45L-2.9 37.3L-3.3 37.1L-3.5 37.2L-3.65 37.25" />
<path style="fill:#8B5F3D;fill-opacity:1" d="M93.15,21.15L92.85 23.65L92.8 23.9L92.6 24.2L92.2 24.3L91.95 24.15L91.95 24.05L91.9 23.8L92.4 20.65L92.5 20.55L92.65 20.45L97.3 18.4L97.6 19.25L93.15 21.15M85.3,19.65L85.6 18.8L88.9 19.8Q89.25 19.8 89.25 20L90.95 23.25L90.9 23.6L90.8 23.85L90.45 23.9L90.2 23.65L88.65 20.65L85.3 19.65M85.05,21.25L85.3 20.8L85.95 20.85L86.55 21.1L86.45 21.6L86.15 21.95L85.45 22.05L85.2 21.8L85.15 21.7Q84.9 21.5 85.05 21.25M88.45,23.65L87.8 23.55L87.4 23.3Q87.2 22.95 87.35 22.7L87.75 22.35L88.3 22.25L88.7 22.7L88.75 23.15L88.45 23.65M96.05,20.3Q96.05 20.1 96.5 20.05L97 19.95L97.25 20.3Q97.5 20.6 97.35 20.8L97 21.35L96.45 21.35L96 21Q95.9 20.6 96.05 20.3M93.5,24.6Q93.95 24.55 94.05 24.85L94 25.3L93.95 25.45L93.65 25.7L93 25.85L92.55 25.45L92.55 25.05L93.1 24.5L93.5 24.6M93.9,23.25L93.7 22.9L93.7 22.4L94.1 21.95Q94.35 21.75 94.65 21.95Q94.9 22 95 22.2L95.05 22.65L95.1 22.75L94.65 23.05L94 23.3L93.9 23.25M94.8,26.3Q95 26.05 95.25 26L95.8 25.85L96.15 26.35Q96.35 26.6 96.2 26.9L95.85 27.2L95.3 27.3L94.85 27L94.8 26.3M96.95,37.35L97.15 37.6L97.65 41.1Q97.85 41.3 97.7 41.45L97.45 41.7L97.1 41.45L96.9 41.25L96.8 40.85L96.35 37.9L93.3 35.7L93.85 35.2L96.95 37.35M100.7,38.55L99.55 41.3L99.35 41.55L98.85 41.55L98.7 41.2L98.65 40.95L99.95 38.05L100.1 37.95L100.25 37.8L107.15 36.6L107.15 35.75L108.1 36.35L111.6 35.75L111.65 36.75L100.7 38.55M92.75,38L92.7 37.8Q92.6 37.5 92.8 37.15Q93 36.9 93.15 37L93.85 36.95L94.15 37.6L94.15 38L93.6 38.45L93.2 38.25L93.1 38.15L92.75 38M94.6,39.5L95.05 39L95.6 39.2L96.05 39.65L96 39.85L95.8 40.15L95.5 40.45L94.8 40.1L94.55 39.9Q94.45 39.5 94.6 39.5M90,25.6L89.85 26.1L89.25 25.95L88.8 25.8L88.7 25.7L88.65 25.25L89 24.9L89.55 24.8L90.15 25.15L90.05 25.6L90 25.6M87,26.4L87.55 26.35L87.95 26.75Q88.15 27.05 88 27.5L87.75 27.8L87.1 27.6L86.75 27.4Q86.6 27.1 86.75 26.9Q86.75 26.45 87 26.4M83.9,37.9Q84.1 37.8 84.3 38.05L84.55 38.5L84.55 38.65L83.9 37.9M20.75,31.9L21.05 31.7L20.85 31.9L20.75 31.9M30,21.4L30.6 20.7L31.95 21.4L31.7 21.65L32.2 22.55L30 21.4M36.65,18.9L35.7 18.7L37.6 15.2L38.15 16.15L36.65 18.9M56.3,11.6L56.35 12.5L53.85 12.4L53.85 14.1L53.8 14.1L53.7 14.3L53.65 14.35L53.05 15.4L52.75 15.9L53 12.3L46.3 11.85L46.15 11.85L46 11.75L43.7 9L43.6 8.7Q43.55 8.45 43.8 8.35Q43.85 8.2 44 8.25L44.4 8.45L44.5 8.7L46.5 11L56.3 11.6M66.55,18.8L65.95 18.15L67.55 16.6L67.65 17.8L66.55 18.8M70.15,32.25L75.75 30.95L75.55 28.45L76.4 28.5L76.6 31.1L76.65 31.2L76.65 31.45L76.75 32.5L75.9 32.7L75.8 31.85L70.7 32.95L70.15 32.25M96.45,42.65L96.4 42.95L96.15 43.3L95.55 42.95L95.25 42.65L95.1 42.3L95.05 42.1L95.6 41.8L96.15 42L96.55 42.45L96.45 42.65M99.4,43.1Q99.25 42.7 99.5 42.6L100.05 42.4L100.6 42.4L100.9 42.95L100.75 43.4L100.7 43.4L100.3 43.65L99.65 43.5L99.4 43.25L99.4 43.1M101.9,41.35L101.5 41.35L101.4 41.3L101.15 40.9Q100.95 40.55 101.2 40.25L101.85 40.1L102.3 40.2L102.45 40.6Q102.6 40.85 102.35 41.05L102.35 41.15L101.9 41.35M93.35,42.85L93.55 42.8L93.85 42.8L94.05 43.4L94 44L93.55 44.15Q93.25 44.15 93.1 43.95L92.75 43.75L92.7 43.65Q92.6 43.4 92.85 43.15Q93.1 42.85 93.35 42.85M109.45,38.1Q109.8 37.8 110.05 37.75L110.65 37.9L110.85 38.35L110.75 38.75L110.25 39.15L109.65 39.05L109.3 38.6Q109.3 38.2 109.45 38.1M106.85,39.5L106.6 39.1Q106.55 38.65 106.8 38.55Q106.9 38.35 107.25 38.25L107.8 38.4L108.05 38.8L107.95 39.3Q107.75 39.65 107.35 39.65L106.85 39.5M104.45,38.8Q104.7 38.7 104.95 38.95Q105.25 38.9 105.25 39.3L105.15 39.85L105 39.9L104.6 40.1L104.15 40L103.85 39.55Q103.75 39.15 103.9 39L104.1 39.05L104.45 38.8M102.75,44.7L102.6 45.35L102.05 45.5L101.55 45.45L101.1 45.1L101.4 44.45L101.75 44.15Q102.15 44.1 102.35 44.35L102.75 44.7M64.75,16.9L64.95 16.4L65.5 16.25Q65.8 16.25 66 16.4L66.2 16.9L66 17.4Q65.8 17.6 65.5 17.6L65.45 17.6L64.75 16.9M51.7,10.9Q51.5 10.75 51.55 10.4Q51.5 10.2 51.8 10Q52 9.8 52.3 9.85L52.8 10L52.95 10.5L52.75 10.95L52.15 11.15L51.7 10.9M54.55,10.15L54.6 10.05L54.9 9.95L55.05 9.95Q55.4 10 55.6 10.15L55.75 10.4L55.8 10.75L55.6 11.15Q55.35 11.35 55.05 11.35Q54.7 11.3 54.45 11.05Q54.2 11 54.3 10.6Q54.3 10.3 54.55 10.15M46.1,4.65L46.5 4.6L46.95 4.75L47.3 5.2L47.05 5.7L46.5 5.9L46 5.6Q45.75 5.4 45.8 5.1L46.1 4.65M44.95,6.6L45.15 6.65L45.4 6.75L45.6 7L45.55 7.35L45.3 7.7Q45.1 7.95 44.9 7.85L44.85 7.85L44.3 7.7L44.1 7.35L44.1 7.2L44.3 6.8L44.95 6.6M46.25,8.85L46.35 8.9L46.8 8.7Q47.2 8.75 47.35 8.95L47.4 8.95L47.5 9.25L47.2 9.8L46.75 10L46.2 9.75L46.05 9.25L46.25 8.85M50.15,10.3L49.9 10.85L49.35 11.05L48.9 10.75L48.8 10.8L48.7 10.25Q48.75 9.85 48.95 9.75L49.35 9.7L49.5 9.65L49.95 9.8L50.15 10.3M51.5,15.4L51.9 15.6L52.1 16.15L51.95 16.5L51.5 15.4M78.65,30.4L78.5 30.45L78.15 30.8Q77.7 30.8 77.65 30.6L77.35 30.1L77.45 29.45Q77.5 29.25 77.95 29.25L78.4 29.4L78.55 29.6L78.7 29.95L78.65 30.4M78.55,32.15L77.85 32.25Q77.8 32.15 78.2 32.05L78.55 32.15M71.9,30.85L71.4 31.1L70.85 30.85Q70.6 30.75 70.6 30.4L70.85 29.9L71.4 29.75L71.9 29.9L72.1 30.4L71.9 30.85M74.3,29.25L74.75 29.4L75 29.9L74.75 30.4Q74.55 30.6 74.3 30.6L73.7 30.4L73.5 29.9L73.7 29.4L74.3 29.25M80.3,38.1L79.9 38.2L80.05 37.9L80.1 37.9L80.3 38.1M16.65,15.95L20.95 11.8L21.2 12.9L17.25 16.5L16.45 19.55L16.3 19.95L16 20.2L15.75 20.25L15.65 20.1L16.65 15.95M20.55,16.3L20.25 16.3L19.8 15.95Q19.55 15.7 19.75 15.45L19.8 15.35Q19.85 15.15 20.15 15.1Q20.3 14.85 20.6 14.95L21.05 15.45Q21.3 15.55 21.2 15.85L21.1 16.05L20.8 16.3L20.55 16.3M28.05,28.85L27.85 28.35L27.95 28L28.35 29L28.05 28.85M29.2,30.6L29.75 31.4L28 34.7L27.15 34.35L29.2 30.6M36.1,14.45L36.55 14.6L36.8 15.05L36.55 15.55L36.1 15.75L35.5 15.55L35.3 15.05L35.5 14.6L36.1 14.45M35.3,16.75L35.5 17.25L35.3 17.75Q35.1 17.95 34.8 17.95Q34.55 17.95 34.25 17.75L34.05 17.25L34.25 16.75L34.8 16.6L35.3 16.75M33.15,19.9Q32.9 19.8 32.9 19.4L33.15 18.95L33.7 18.8L34 18.85L33.15 19.9M32.9,23.8L33.35 24.7L32.5 24.5L32.9 23.8M31.7,24.3L30.35 23.9L30.45 23.7L31 23.55Q31.3 23.55 31.5 23.7L31.7 24.2L31.7 24.3M18.8,18.05L18.3 17.95L17.9 17.7Q17.8 17.45 17.85 17.1Q17.95 16.8 18.2 16.65L18.8 16.7L19.15 17.05L19.25 17.6L18.8 18.05M18.25,19.7L18.4 20.2L18.2 20.5L17.95 20.65L17.5 20.65L17.4 20.65L17.3 20.6L17 20.4Q16.9 20.15 16.95 19.75Q17 19.4 17.3 19.3L17.85 19.3L18.25 19.7M19.55,21.4L20.1 21.75L20.1 22.35L19.7 22.7L19.45 22.8L19.15 22.75L18.75 22.35L18.65 21.85L19.1 21.35L19.55 21.4M3.45,33.75L3.7 34.05L3.7 34.3L3.45 33.75M-6.1,34.95L-17.85 29.95L-18.55 29.6L-18.75 29.4L-18.75 29.1L-18.7 29L-18.6 28.9L-18.3 28.9L-7.5 33.4L-7.3 33.5L-5.5 29.95L-4.9 30.55L-6.45 34L-1.6 35.9L5.85 39.05L6 39.35L6.05 39.6L5.75 39.85L5.45 39.9L-3.85 35.9L-6.1 34.95M-16.2,31.55L-16 31.45L-15.5 31.75L-15.25 32L-15.25 32.1L-15.45 32.55L-15.55 32.85L-15.6 33L-15.85 33L-16.3 33L-16.45 32.85L-16.65 32.25L-16.5 31.75L-16.2 31.55M-14.05,33.95L-14.15 33.65L-14.25 33.35L-14.2 32.9Q-13.9 32.65 -13.55 32.65L-13.15 32.75Q-12.8 33.1 -12.85 33.35Q-12.8 33.7 -13.05 33.9L-13.25 34.05L-13.6 34.1L-14 34.05L-14.05 33.95M-6.4,37.15L-6.45 36.85L-6.5 36.8L-6.4 36.4L-5.95 36.15L-5.95 36.2L-5.35 36.35L-5.2 36.5L-5.1 36.8L-5.2 37L-5.3 37.45L-5.75 37.5L-6.3 37.4L-6.4 37.15M1.4,41.15L1.25 40.65L1.4 40.2L1.4 40.1Q1.5 39.9 1.8 40L2 39.95L2.3 40L2.35 40.1L2.55 40.6L2.4 41.1L2.45 41.2L2.4 41.25L2 41.35L1.9 41.4Q1.7 41.45 1.6 41.3L1.5 41.15L1.4 41.15M3.9,41.35L3.85 41.25Q4.1 40.95 4.5 40.95L4.9 41.15L5.05 41.35L5.15 41.65L5.1 41.85L4.9 42.3L4.5 42.35L3.95 42.3L3.85 41.65Q3.8 41.45 3.9 41.35M26.8,30.05L27.35 29.9L27.85 30.05L28.05 30.5L27.85 31L27.35 31.2L26.8 31L26.6 30.5L26.8 30.05M26.1,32.05L26.6 32.2L26.8 32.7L26.6 33.2L26.1 33.4L25.55 33.2L25.35 32.7L25.55 32.2L26.1 32.05M-7.95,35.3L-7.7 35.75Q-7.75 36.1 -7.95 36.35L-8.35 36.55L-8.4 36.55L-8.95 36.4L-9 36.25L-9.1 35.75L-8.95 35.35L-8.45 35.1Q-8.15 35.05 -7.95 35.3M-18.1,30.7L-17.8 31.25L-18.05 31.75L-18.5 32L-19 31.85L-19.2 31.25L-19.1 30.7L-18.55 30.55Q-18.15 30.5 -18.1 30.7M-10.5,33.9L-10.3 34.35L-10.3 34.5L-10.55 35L-11 35.15L-11.05 35.15Q-11.25 35.2 -11.45 34.95L-11.55 35L-11.65 34.45L-11.5 33.9L-11 33.65Q-10.7 33.65 -10.5 33.9M-0.15,38.75L-0.15 39L-0.3 39.5L-0.4 39.6L-0.7 39.7L-1.2 39.6L-1.4 39.5L-1.35 39.05L-1.3 38.5Q-1.05 38.25 -0.8 38.25L-0.55 38.3L-0.15 38.75M-3.5,37.2L-3.3 37.1L-2.9 37.3L-2.8 37.45L-2.75 37.4L-2.65 37.95L-2.65 38L-2.8 38.45L-3.3 38.65L-3.8 38.55L-4.05 38.05L-4 37.95L-3.85 37.55L-3.65 37.25L-3.5 37.2" />
<path style="fill:#BD8051;fill-opacity:1" d="M78.4,47.05L75.2 48.75L77.65 46.15L75.15 43.05L71.95 45.85L71.05 44.85L74.3 42L72 39.15L68.5 41.05L71.15 38.1L65.85 31.55L62.05 33.85L64.9 30.4L62.7 27.65L62.7 27.85L62.4 27.45L60.1 29.65L61.55 26.35L59.5 23.65L58.4 22.25L58.15 21.95L57.75 21.4L57.1 20.7L56.8 20.4Q54.25 18.1 50.8 18.1Q47.05 18.1 44.4 20.7L44.25 20.9L43.4 21.95L43 22.5L41.75 23.95L40.8 25.15L38.3 28.15L42.25 31.3L41.4 32.3L37.5 29.15L35.25 31.85L38.1 35.45L34.25 33.05L29.6 38.65L32.25 42.05L28.7 39.75L26.2 42.75L29.95 45.8L29.1 46.8L25.35 43.8L23.05 46.55L25.8 49.95L22.15 47.65L19.75 50.55L20 50.55L18.9 51.75Q8.95 63.1 14.2 67.4Q18.9 71.15 27 70.7L27.15 70.6L27.4 70.35L32.9 70.35L33.95 65.85L34.4 63.65L34.7 65.85L34.7 65.95L35.2 70.35L38.8 70.35L38.75 64.15L39.25 64.15L39.45 64.15L39.6 64.15L40.1 64.15L40.15 70.35L43.2 70.35L44.15 65.85L44.55 63.6L44.85 65.85L45.45 70.35L54.3 70.35L55.25 65.85L55.65 63.7L55.95 65.85L56.55 70.35L60.15 70.35L60 63.05L61.2 63.05L61.35 63.15L61.5 70.35L72.35 70.35L72.5 70.55L73.55 70.65Q82.1 71.35 87 67.4Q92.25 63.1 82.4 51.9L82.25 51.85L78.4 47.05M73.25,71.75L72 71.75L71.95 71.65L68.4 71.65L52.75 71.65L47.05 71.65L31.4 71.65L29.3 71.65L29.2 71.75L26.3 71.7L25.6 71.7L25.55 71.7Q15.6 71.25 13.15 68Q9.05 62.5 14.9 54.55L42.3 21.05L42.35 21L43.4 19.7L43.7 19.45Q46.6 16.8 50.55 16.7L52 17.55L52.1 17.5L52.65 16.9Q55.75 17.35 58.1 19.7L59.5 21.4L60.75 22.85L60.75 22.9L61.25 23.5L61.35 23.6L62.55 25.1L62.55 25.2L62.65 25.3L62.7 25.25L63.55 26.3L63.5 26.35L65.85 29.25L65.9 29.2L67.15 30.75L67.1 30.8L68.55 32.6L68.6 32.6L69.2 33.3L69.1 33.3L70.6 35.15L81.1 48.2L83.05 50.6L85.1 52.85Q92.55 61.95 88.05 68Q85.55 71.35 75 71.7L73.25 71.75M84.35,57.5L80.2 62.25L82.95 57.35Q81.65 56.65 80.15 56.65L80.05 56.65L80.05 62.25L78.75 56.1L80.05 55.9Q81.8 55.9 83.2 56.7L84.35 57.5M85.05,66.6L80.2 62.55L85.25 65.3Q85.95 64 85.95 62.5L85.95 62.4L80.6 62.4L86.45 61.2L86.6 62.4Q86.6 64.15 85.75 65.55L85.05 66.6M50.5,19.05Q52.25 19.05 53.65 19.85Q54.3 20.15 54.8 20.65L50.65 25.4L53.4 20.5Q52.1 19.8 50.6 19.8L50.5 19.8L50.5 25.4L49.2 19.25L50.5 19.05M45.65,21.3L50.5 25.5L50.5 25.55L45.45 22.75Q44.75 24 44.75 25.55L50.45 25.55L50.35 25.7L50.45 25.7L47.65 30.7Q48.9 31.45 50.5 31.45L50.5 25.7L50.6 25.7L51.9 31.95L50.5 32.1Q48.75 32.1 47.35 31.25L46.25 30.45L50.35 25.7L44.2 27.05L44 25.55Q44 23.8 44.8 22.4Q45.1 21.75 45.65 21.3M56.2,28.7L55.5 29.75L50.65 25.7L55.7 28.45Q56.4 27.15 56.4 25.65L56.4 25.6L56.35 25.65L55.75 25.55L51.05 25.55L56.65 24.4L57.05 25.55Q57.05 27.3 56.2 28.7M23.15,57.45L23.1 57.4L20.3 62.3L22.25 56.3Q22.9 56.4 23.5 56.75Q25 57.65 25.85 59.05L26.4 60.3L20.4 62.35L25.25 59.45Q24.5 58.2 23.15 57.45M25.9,65.65Q25 67.15 23.55 68L22.45 68.55L20.3 62.55L23.3 67.5Q24.55 66.75 25.3 65.4L25.35 65.35L20.75 62.7L26.4 64.55L25.9 65.65M20.25,62.4L17.25 57.45Q16 58.2 15.25 59.55L20.2 62.35L20.1 62.45L20.15 62.45L15.2 65.4Q15.9 66.7 17.3 67.5L20.2 62.5L20.25 62.55L18.25 68.65L17 68.05Q15.5 67.2 14.65 65.7L14.1 64.5L20.1 62.45L14.05 60.55Q14.2 59.8 14.6 59.15Q15.45 57.65 16.9 56.8Q17.45 56.4 18.2 56.3L20.3 62.35L20.25 62.4M75.2,58.15L80.05 62.35L80.05 62.4L75 59.6Q74.3 60.85 74.3 62.4L80 62.4L79.9 62.55L80 62.55L77.2 67.55Q78.45 68.3 80.05 68.3L80.05 62.55L80.15 62.55L81.45 68.8L80.05 68.95Q78.3 68.95 76.9 68.1L75.8 67.3L79.9 62.55L73.75 63.9L73.55 62.4Q73.55 60.65 74.35 59.25L75.2 58.15M65.75,55.9L67 55.8L66.2 55.9L65.75 55.9M65.3,66.35L66.25 66.45L66.8 70.25L64.55 70.3L65.3 66.35M-5.35,47.15L-8.8 51.8L-9.15 51.5L-6.8 46.4L-9 45.35L-9.85 44.95L-10.95 44.6L-11 44.55L-15.3 42.65L-15.9 44.2L-17.1 42.95L-16.65 42.05L-18.45 41.35L-18.95 41.05L-21.15 37.8L2.5 48.2L-0.85 49.15L-5.35 47.15M-16,59.4L-15.75 56.9L-15.3 57.1L-16 59.4M-27.1,65.3L-26.25 51.7L-24.7 52.5L-25.05 65.1L-16.3 67.05L-29.4 66.35L-27.1 65.3" />
<path style="fill:#604129;fill-opacity:1" d="M61.35,63.15L61.2 63.05L61.25 63.05L60.65 62.7L60.45 62.6L58.9 61.45L56.9 62.5L54.9 60.15L56.5 58.5L55.65 56.45L55.65 56.4L56.4 56.35L59.15 50.9L60.3 50.8L57.55 56.3L56.6 56.35L56.6 56.4L57.3 58L57.4 58.55L57.15 59.05L56.15 60.2L57.1 61.35L58.5 60.65L59.05 60.55L59.55 60.75Q61.2 62.25 63.2 62.85L63.65 63.15L63.9 63.65L64 65.35L65.7 65.45L66.2 63.85Q66.25 63.55 66.45 63.4L66.95 63.2L69.5 62.7L69.6 62.65L69.6 63.5L69.6 63.6L67.05 64.1L66.5 65.85L66.3 66.4L66.25 66.4L66.25 66.45L65.3 66.35L63.1 66.2L63.05 64.25L63 63.75L61.65 63.25L61.35 63.15M76.05,52.45L75.8 50.8L76.5 51.65L77 52.3L76.1 52.6L76.05 52.45M66.95,39.95L67.15 40L68.05 41.1L66.95 40.9L66.4 42.7L66.1 43.15L65.6 43.35Q63.4 43.35 61.55 44.35L61.05 44.45Q60.75 44.4 60.55 44.2L59.4 43.15L58.1 44.05L58.8 45.45L58.95 46L58.7 46.5Q57.1 48.2 56.5 50.35L56.2 50.8L55.7 50.95L54.2 51.05L54.2 51.15L53.25 51.2L53.35 50.2L55.65 50.05Q56.3 47.75 58.05 45.9L56.95 43.85L56.6 44.9L53.4 44.7L53.3 42.25Q51.05 41.6 49.2 39.95L47.2 41L45.2 38.65L46.8 37L46.15 35.55L47.25 35.85L47.6 36.5L47.7 37.05L47.45 37.55L46.45 38.7L47.4 39.85L48.8 39.15L49.35 39.05L49.85 39.25Q51.5 40.75 53.5 41.35Q53.8 41.4 53.95 41.65L54.2 42.15L54.3 43.85L56 43.95L56.5 42.35Q56.55 42.05 56.75 41.9L57.25 41.7Q59.25 41.55 61 40.65L61.55 40.55L62.05 40.75L63.5 42L64.85 40.8L64 39.15L63.85 38.6L64.1 38.1L64.75 37.3L64.85 37.1L65.45 37.85L65.35 38L64.75 38.7L66 40.95L66.3 39.85L66.95 39.95M70.45,44.25Q69.9 43.95 69.35 43.8Q69.05 43.7 68.95 43.45L68.75 42.95L68.7 41.95L70.65 44.35L70.45 44.25M45,49.05L45.4 49.5L46.5 51.1L45.5 50.95L45 50.3L44.65 51.05Q43.85 51.2 43.2 51.75L44.15 49.95L42.2 51L42.8 51.55L43.05 51.85L42.9 52L42.25 52.85L41.9 52.45Q40.9 51.5 39.6 51.5Q38.25 51.5 37.25 52.45Q36.3 53.45 36.3 54.8Q36.3 56.1 37.25 57.1Q38.25 58.1 39.6 58.1Q40.9 58.1 41.9 57.1L42.4 56.55L42.9 57.2Q43.6 57.9 44.6 58.15L45.15 59.2L45.75 58.25L46.75 58.1L45.55 60L45 60.55L44.85 60.7Q42.75 62.65 39.95 62.95L39.25 62.95L39.1 62.95Q36 62.85 33.85 60.85L33.5 60.55L33.25 60.35Q31.15 58.1 31.1 55.05L31.1 54.8L31.15 54.25Q31.3 51.3 33.4 49.15L33.5 49.05L34.05 48.55Q36.15 46.7 38.95 46.65L39.25 46.65L40.1 46.7Q42.7 46.9 44.65 48.7L45 49.05M57.35,42.6L57 43.7L58.9 42.4L57.35 42.6M61.45,41.45L59.7 42.15L61.15 43.5Q62.05 43.05 63 42.8L61.45 41.45M65.55,42.4L65.95 41.05L64.35 42.55L65.55 42.4M34.9,48.95L37.75 50.5L38.75 47.5Q36.5 47.65 34.9 48.95M36.9,51.05L34.75 49.95L35.95 52.1L36.35 51.55L36.9 51.05M40.2,50.3L39.5 47.9L38.75 50.3L39.6 50.2L40.2 50.3M32.85,54.7L35.1 55.4L35.05 54.8L35.1 53.95L32.8 54.65L32.85 54.7M35.4,52.9L33.85 49.95Q32.2 51.7 32 53.95L35.4 52.9M35.3,56.35L31.95 55.35Q32.1 57.65 33.7 59.55L35.3 56.45L35.3 56.35M37.5,58.85L34.6 60.4Q36.35 61.95 38.8 62.1L37.9 59.05L37.5 58.85M36.35,58L35.85 57.4L34.8 59.35L36.7 58.35L36.35 58M38.9,59.3L39.5 61.3L40.15 59.35L39.6 59.35L38.9 59.3M66.2,50.05Q67.4 50.05 68.25 50.9Q69.1 51.75 69.1 53Q69.1 54.2 68.25 55.05Q67.7 55.6 67 55.8L66.8 52.55L65.15 55.9L64.05 55.95L66.7 50.65L66.7 50.5L64.45 50.6Q65.2 50.05 66.2 50.05M60.2,56.15L62.95 50.7L64.05 50.6L61.3 56.1L60.2 56.15M52.8,51.2L50.05 56.7L49.95 56.7L49.9 56.75L48.8 56.8L48.85 56.75L48.9 56.75L51.65 51.3L52.8 51.2M55.45,51.1L56.55 51L53.8 56.5L53.7 56.5L53.65 56.55L52.55 56.6L52.6 56.55L52.7 56.55L55.45 51.1M48,51.5L49.15 51.4L48.5 52.75L47.85 51.8L47.9 51.8L48 51.5M47.95,53.7L48.1 54.6Q48.1 55.7 47.35 56.5L46.75 56.95L46.25 57.1L45.5 57.2Q44.55 57.2 43.8 56.7L43.6 56.5Q42.95 55.75 42.9 54.8L42.9 54.6Q42.9 53.55 43.6 52.8L43.85 52.6Q44.55 52 45.5 52Q46.55 52 47.35 52.8L47.95 53.7M47.05,53.05Q46.5 52.35 45.5 52.35Q44.65 52.35 44 53L43.95 53.05Q43.25 53.6 43.25 54.6Q43.25 55.5 43.95 56.15L44.05 56.25Q44.55 56.75 45.3 56.85L45.5 56.85L46.45 56.65L47.05 56.15Q47.75 55.5 47.75 54.6L47.75 54.2L47.15 53.15L47.05 53.05M42.4,58.45L44.15 59.35L43.25 57.6L42.8 58L42.4 58.45M41.15,59.15L40.2 62Q42.4 61.75 44.15 60.35L41.55 58.95L41.15 59.15M40.35,47.55L41.2 50.5L43.85 49.1Q42.25 47.85 40.35 47.55" />
<path style="fill:#0E0E0E;fill-opacity:1" d="M60.3,50.8L59.15 50.9L56.55 51L55.45 51.1L54.2 51.15L54.2 51.05L55.7 50.95L56.2 50.8L56.5 50.35Q57.1 48.2 58.7 46.5L58.95 46L58.8 45.45L58.1 44.05L59.4 43.15L60.55 44.2Q60.75 44.4 61.05 44.45L61.55 44.35Q63.4 43.35 65.6 43.35L66.1 43.15L66.4 42.7L66.95 40.9L68.05 41.1L68.65 41.2L68.7 41.95L68.75 42.95L68.95 43.45Q69.05 43.7 69.35 43.8Q69.9 43.95 70.45 44.25L70.65 44.35L71.05 44.85L75.8 50.8L76.05 52.45L76.1 52.6L69.9 54.6L69.5 60.9L69.55 61.5L69.55 61.95L69.6 62.65L69.5 62.7L66.95 63.2L66.45 63.4Q66.25 63.55 66.2 63.85L65.7 65.45L64 65.35L63.9 63.65L63.65 63.15L63.2 62.85Q61.2 62.25 59.55 60.75L59.05 60.55L58.5 60.65L57.1 61.35L56.15 60.2L57.15 59.05L57.4 58.55L57.3 58L56.6 56.4L56.6 56.35L57.55 56.3L60.2 56.15L61.3 56.1L64.05 55.95L65.15 55.9L65.75 55.9L66.2 55.9L67 55.8Q67.7 55.6 68.25 55.05Q69.1 54.2 69.1 53Q69.1 51.75 68.25 50.9Q67.4 50.05 66.2 50.05Q65.2 50.05 64.45 50.6L64.05 50.6L62.95 50.7L60.3 50.8M54.15,37.45L62.05 34L62.25 33.9L64.85 37.1L64.75 37.3L64.1 38.1L63.85 38.6L64 39.15L64.85 40.8L63.5 42L62.05 40.75L61.55 40.55L61 40.65Q59.25 41.55 57.25 41.7L56.75 41.9Q56.55 42.05 56.5 42.35L56 43.95L54.3 43.85L54.2 42.15L53.95 41.65Q53.8 41.4 53.5 41.35Q51.5 40.75 49.85 39.25L49.35 39.05L48.8 39.15L47.4 39.85L46.45 38.7L47.45 37.55L47.7 37.05L47.6 36.5L47.25 35.85L54.15 37.45" />
</g>
</svg>
