<?xml version="1.0" encoding="utf-8"?>
<svg version="1.1" id="Layer_1"
xmlns="http://www.w3.org/2000/svg"
xmlns:xlink="http://www.w3.org/1999/xlink"
width="117px" height="50px"
xml:space="preserve">
<g id="1611" transform="matrix(1, 0, 0, 1, 58.9, 24.45)">
<path style="fill:#ECD4A6;fill-opacity:1" d="M56.85,19.75Q56.4 23.8 51.9 23.8L-53.2 23.8L-55.1 23.45L-56.05 23Q-57.6 22.05 -57.85 19.75L-57.9 19.75L-57.9 -18.45Q-57.9 -20.3 -57.2 -21.5L-56.05 -22.7L-55.1 -23.15L-53.2 -23.45L51.9 -23.45Q55 -23.45 56.2 -21.5Q56.9 -20.35 56.9 -18.45L56.9 19.75L56.85 19.75" />
<path style="fill:none;stroke-width:2;stroke-linecap:round;stroke-linejoin:round;stroke-miterlimit:3;stroke:#623A2D;stroke-opacity:1" d="M56.9,19.75L56.9 -18.45Q56.9 -20.35 56.2 -21.5Q55 -23.45 51.9 -23.45L-53.2 -23.45L-55.1 -23.15L-56.05 -22.7L-57.2 -21.5Q-57.9 -20.3 -57.9 -18.45L-57.9 19.75M-57.85,19.75Q-57.6 22.05 -56.05 23L-55.1 23.45L-53.2 23.8L51.9 23.8Q56.4 23.8 56.85 19.75" />
</g>
</svg>
