<?xml version="1.0" encoding="utf-8"?>
<svg version="1.1" id="Layer_1"
xmlns="http://www.w3.org/2000/svg"
xmlns:xlink="http://www.w3.org/1999/xlink"
width="29px" height="21px"
xml:space="preserve">
<g id="1256" transform="matrix(1, 0, 0, 1, 5.2, 13.3)">
<path style="fill:#100806;fill-opacity:1" d="M15.5,-5.8L0.6 -5.8L0.6 -5L0.6 -3.15L5.1 2.45L11.55 2.45L15.5 -1.5L15.5 -5.8M-3.75,-6.75L-2.75 -6.45L15.25 -6.45L14.25 -10.2L11.55 -8.65L-3.4 -8.65L-3.3 -9.15L-2.9 -9.45L1.2 -9.45L0.9 -12.35L-3.3 -9.15L-4 -5.6L-3.55 -7.7L-3.75 -6.75M16.7,-9.45L16.2 -6.05L16.2 -0.55L15.85 0.45L16.25 3.15L19.7 4.35L21.45 4.35Q22.25 4 23 3.6L21.45 5.55L18.75 5.55L11.6 6.8L5 4.5L5 3.4L-0.2 -2.75L-0.45 -4.05L-4.15 -4.85L-5.2 -5.05L-4.3 -9.45L0.95 -13.3L10.65 -13.3L14.75 -11.05L19.2 -11.85L21.9 -11.85L23.45 -9.9L21.9 -10.65L20.15 -10.65L16.7 -9.45M13.6,-10.5L10.55 -12.6L1.7 -12.6L2.25 -9.45L11.55 -9.45L13.6 -10.5M12.55,3.4L6.25 3.4L11.55 5.4L15.5 4.8L14.9 1.3L12.55 3.4" />
<path style="fill:#9F6329;fill-opacity:1" d="M0.6,-5L0.6 -5.8L15.5 -5.8L15.5 -1.5L14.8 -5L0.6 -5M14.05,-9.05L12.4 -8.1L-2.75 -8.1L-2.75 -6.45L-3.75 -6.75L-3.55 -7.7L-3.4 -8.65L11.55 -8.65L14.25 -10.2L15.25 -6.45L14.05 -9.05" />
<path style="fill:#000000;fill-opacity:0.419608" d="M-3.55,-7.7L-4 -5.6L-3.3 -9.15L0.9 -12.35L1.2 -9.45L-2.9 -9.45L-3.3 -9.15L-3.4 -8.65L-3.55 -7.7M11.55,-9.45L2.25 -9.45L1.7 -12.6L10.55 -12.6L13.6 -10.5L11.55 -9.45" />
<linearGradient
id="LinearGradID_458" gradientUnits="userSpaceOnUse" gradientTransform="matrix(0, -0.00450134, 0.00909424, 0, 8.35, -7.7)" spreadMethod ="pad" x1="-819.2" y1="0" x2="819.2" y2="0" >
<stop  offset="0" style="stop-color:#511A16;stop-opacity:1" />
<stop  offset="0.505882" style="stop-color:#6D4414;stop-opacity:1" />
<stop  offset="1" style="stop-color:#511A16;stop-opacity:1" />
</linearGradient>
<path style="fill:url(#LinearGradID_458) " d="M15.25,-6.45L-2.75 -6.45L-2.75 -8.1L12.4 -8.1L14.05 -9.05L15.25 -6.45" />
<linearGradient
id="LinearGradID_459" gradientUnits="userSpaceOnUse" gradientTransform="matrix(-0.00280762, -0.00862122, 0.00970459, -0.00315857, 7.1, -4.65)" spreadMethod ="pad" x1="-819.2" y1="0" x2="819.2" y2="0" >
<stop  offset="0" style="stop-color:#511A16;stop-opacity:1" />
<stop  offset="0.505882" style="stop-color:#6D4414;stop-opacity:1" />
<stop  offset="1" style="stop-color:#511A16;stop-opacity:1" />
</linearGradient>
<path style="fill:url(#LinearGradID_459) " d="M14.8,-5L15.5 -1.5L11.55 2.45L5.1 2.45L0.6 -3.15L0.6 -5L14.8 -5" />
<path style="fill:#100806;fill-opacity:1" d="M3.05,-3.25Q4.3 -2.05 4.3 -0.25Q4.3 1.55 3.05 2.8Q1.8 4.05 0.05 4.05Q-1.75 4.05 -3 2.8Q-4.25 1.55 -4.25 -0.25Q-4.25 -2.05 -3 -3.25Q-1.75 -4.5 0.05 -4.5Q1.8 -4.5 3.05 -3.25" />
</g>
</svg>
