<?xml version="1.0" encoding="utf-8"?>
<svg version="1.1" id="Layer_1"
xmlns="http://www.w3.org/2000/svg"
xmlns:xlink="http://www.w3.org/1999/xlink"
width="13px" height="17px"
xml:space="preserve">
<g id="1155" transform="matrix(1, 0, 0, 1, 9.75, 3.75)">
<path style="fill:#999999;fill-opacity:0.705882" d="M0.25,-0.65L-0.15 -0.75L-0.5 -0.95L-0.7 -1.25L-1.45 -1.3L-1.65 -1.5L-1.45 -1.85Q-1.8 -2 -1.85 -2.5L-1.55 -2.85L-0.85 -3.05Q-0.4 -3.05 -0.1 -2.75L0.35 -2.5L0.4 -2.35L0.4 -2.3Q2.3 -2.25 2.3 -1.6L1.8 -1Q1.2 -0.65 0.25 -0.65M-6.35,-3.65L-5.75 -3.2L-5.45 -2.6Q-5.45 -2.15 -5.8 -2.15Q-5.85 -1.4 -6.3 -1.2L-6.55 -1.85L-6.45 -2.4L-6.5 -2.4L-6.7 -2.2L-6.8 -2.4L-7.05 -2.4L-7.35 -2.25Q-7.3 -2.05 -7.55 -2.05L-7.85 -2.15L-8 -2L-7.9 -1.8L-8 -1.7L-8.1 -1.7L-8.4 -1.8L-7.65 -0.9Q-7.65 -0.75 -7.85 -0.75Q-7.95 -0.75 -8.55 -1.1L-9.25 -1.55L-9.75 -2.55L-9.5 -3.3L-8.7 -3.75L-8.25 -3.6L-8.05 -3.5L-7.6 -3.75Q-7.05 -3.75 -6.9 -3.45L-6.35 -3.65M-9.05,-3L-9.1 -3L-8.95 -2.9L-9.05 -3M-6.25,-2.05L-6.2 -2.05L-6.2 -2.15L-6.25 -2.15L-6.25 -2.05M-6.75,-0.2L-7.05 0.25Q-6.75 0.45 -6.75 0.6L-7 1.15L-7.65 1.6L-7.7 1.5L-7.4 0.8L-7.6 0.65L-7.25 0.05L-6.85 -0.7L-6.95 -0.55L-7 -0.55L-6.75 -0.85L-6.6 -0.65L-6.75 -0.2M-2.8,-2.55L-2.75 -2.4L-2.65 -2.3L-2.6 -2.1L-2.6 -2Q-2.6 -1.55 -3.3 -1Q-3.95 -0.2 -4.55 -0.2Q-5.25 -0.2 -5.25 -0.8L-4.95 -1.45L-5.05 -1.8L-4.9 -2.3L-5 -2.6Q-5 -3.25 -4.2 -3.25L-3.65 -3L-3.5 -2.85L-3.45 -2.85L-3.1 -2.75Q-2.9 -2.75 -2.8 -2.55M-1.7,1.2L-3.35 1.7L-3.7 1.6L-3 1.3L-3.05 1.15L-2.6 0.9L-1.85 0.6L-1.1 0.4L-0.4 0.2L-0.25 0.25L-1.7 1.2M-4.95,1.3L-4.4 1.05L-4.35 1.1L-5 1.55L-5.8 1.95L-6 1.9L-6 1.8L-5.6 1.45L-5.75 1.4L-6 1.45L-6.05 1.45Q-5.2 0 -4.6 0L-4.55 0.1L-5.35 1.05L-5.35 1.1L-5.25 1.05L-5 1.05L-4.95 1.3M-5.75,8.35L-5.55 8.15L-5.35 8.45L-5.5 8.35Q-5.4 8.7 -3.9 9.4L-3.1 10L-2.55 10.15L-2.45 10.45Q-2.45 10.9 -2.9 10.9L-3 10.9L-3.15 10.95Q-4.15 11 -4.45 10.5L-4.6 10.6Q-5.65 9.3 -5.8 8.65L-5.8 8.35L-5.75 8.35M-6.9,8.85L-5.8 9.8L-6.05 10.05L-6.85 9.65L-7 9.75L-7.1 9.7Q-7.1 9.15 -7.35 8.95L-7.6 8.7L-7.45 8.45L-7.65 7.9L-7.5 7.55L-6.9 8.85M-6.9,11.4Q-6.9 10.5 -5.85 10.75Q-4.85 11.05 -4.85 11.75Q-4.65 12.6 -5.75 12.6L-6.7 12.1L-6.9 11.4M-1.65,8.85L-2 9.1L-1.95 9.35L-2.05 9.7L-2.85 9.55L-4 8.5L-4.5 7.4L-4.3 7.05L-3.65 7.5L-2.75 7.8L-2.15 8L-1.65 8.25Q-1.65 8.45 -2.05 8.45Q-1.65 8.6 -1.65 8.85M-3.4,10.4L-3.25 10.4L-3.75 10.1L-3.4 10.4M-2.85,11.4L-1.7 11.15L-1.2 11.2L-1.25 11.1Q-1.25 10.5 -0.5 10.7Q0.25 10.9 0.25 11.6Q0.25 12.15 -0.4 12.15L-0.8 12.1L-1.1 12.3L-2.2 12.6Q-3.35 12.6 -3.35 11.8L-2.85 11.4M-0.8,9.3L-0.7 9.25L-0.55 9.35L0.55 9.3Q2.05 9.25 2.05 9.85Q2.05 10.4 0.75 10.4L-0.3 10.1L-0.8 9.65L-0.8 9.3" />
</g>
</svg>
