<?xml version="1.0" encoding="utf-8"?>
<svg version="1.1" id="Layer_1"
xmlns="http://www.w3.org/2000/svg"
xmlns:xlink="http://www.w3.org/1999/xlink"
width="57px" height="10px"
xml:space="preserve">
<g id="1175" transform="matrix(1, 0, 0, 1, -19.15, 4.9)">
<path style="fill:#2E2E2E;fill-opacity:0.694118" d="M22.35,-2.7L21.95 0L21.95 0.05L22.15 0.65L23 0.55L23.1 0.85L22.5 1.35Q21.9 1.9 21.9 2.15Q21.9 2.6 21 3.05L20.95 3.05L20.9 3.1L20.9 3.05L20.45 3L20.85 2.95L20.7 2.6L20.8 2.6L20.9 2.9L21.75 2.25L21.4 2.05L21.35 2.05L20.45 2.2L19.45 1.9L19.3 1.55L19.35 1.35L19.15 1.2Q19.25 0.75 19.6 0.5L20.75 -0.3L20.5 -0.75L21.15 -0.8L21.15 -1L21.45 -1.9Q21.85 -2.75 22.25 -2.85L22.35 -2.7M21.5,-0.7L21.65 -1.2L21.65 -1.15L21.5 -0.8L21.5 -0.7M40.45,-3.9L40.15 -3.7L40.65 -3.7L40.95 -3.4L40.7 -3.05L42.15 -3.1L40.85 -2.7L39.75 -2.5L40.6 -3.3L37.85 -3.45L37.8 -3.7L38.1 -4.15L39.85 -4.2L40.3 -4.1L40.45 -3.9M49.3,-3.5L47.6 -3.15L48.05 -2.85L47.6 -2.85L47.45 -3.25L48.25 -3.45L47.5 -3.5L47.45 -3.5L47.4 -3.65L47.45 -3.85L48.6 -4L50.05 -4L49.3 -3.5M59.8,-4.7L59.7 -4.45L59.55 -4.4L59.45 -4.35L60.25 -4.3L60.65 -4Q60.25 -3.6 59.85 -3.6Q59.6 -3.6 59.65 -3.75L59.75 -3.95Q58.6 -3.9 58.7 -4.5L56.7 -4.25L53.2 -4.45L57.05 -4.6L59.75 -4.85L59.8 -4.7M59,-0.2L57.8 -0.3L59.1 -0.6L63.6 -0.6L64.2 -0.65L64.75 -0.55L63.5 -0.4L59.15 -0.35L59 -0.2M68.85,-1.55L68.85 -1.6L68.55 -1.6L68.35 -1.55Q68.65 -1.65 68.8 -2.3Q69.1 -2.6 69.95 -1.8L73.05 -1.8L74.4 -2.15L76 -1.8L75.8 -1.55L73.65 -1.45L69.3 -1.2Q69.1 -1.2 68.85 -1.55M66.9,1.35L64.95 1.5Q64.65 1.5 64.55 1.3L65.8 1L68.7 1.1L66.9 1.35M58.2,4.45L58.2 4.3Q58.2 3.85 59 3.7L61.1 3.75L60.7 4.4L58.85 4.6L58.2 4.45M48.25,0.55L48.1 0.45L47.25 0.65L46.15 0.65Q45.9 0.3 46 0.2L45.2 0.4Q44.95 0.4 44.75 0.2Q46.65 -1.2 48.65 0.4L48.4 0.9L48.3 0.85L48.25 0.55M42.4,3.9L40.75 3.85L39.3 3.6L39.2 3.5L40.75 3.25Q41.45 3.3 42.4 3.9M22.15,1.05L22.3 0.95L22.15 1L22.15 1.05" />
</g>
</svg>
