<?xml version="1.0" encoding="utf-8"?>
<svg version="1.1" id="Layer_1"
xmlns="http://www.w3.org/2000/svg"
xmlns:xlink="http://www.w3.org/1999/xlink"
width="33px" height="7px"
xml:space="preserve">
<g id="599" transform="matrix(1, 0, 0, 1, -41.8, -18.8)">
<path style="fill:#000000;fill-opacity:1" d="M64.95,19.9Q66.3 19.55 67.1 21.3Q67.35 21.85 67.25 22.5Q67.05 23.3 66.35 23.9L66.05 24.3L65.4 24.35Q64.75 24.95 63.4 24.7L58.85 24.95Q57.1 25.5 55.65 24.65L54.65 24.4L52.05 24.75L51.6 24.95L49.4 25.35L44.3 24.8L44.05 24.8L44.05 24.85L43.85 24.75L43 24.2L42.2 22.95L42.45 23.2L42.1 22.5L42.05 22.4L41.8 22.1L41.8 22.05Q41.8 21.75 42.1 21.6L42.5 21.45L42.7 21.3L44.25 21.25L44.25 21.3L44.3 21.35L44.4 21.4L44.7 21.7L44.7 21.8L44.8 21.85L44.9 21.95L52.6 21.05L52.95 21.05L53 21L53.2 20.9L53.3 20.95L53.4 21L53.5 21L55.55 19.85Q56.5 19.3 57.65 19.05L59.2 18.8Q61.1 19.95 62.35 20.1L64.95 19.9M69.45,23.55Q70.65 22.25 72.35 22.1Q75.3 22.1 74.3 24.55L74.05 24.7Q71.2 25.35 69.4 23.85Q69.25 23.75 69.45 23.55" />
</g>
</svg>
