<?xml version="1.0" encoding="utf-8"?>
<svg version="1.1" id="Layer_1"
xmlns="http://www.w3.org/2000/svg"
xmlns:xlink="http://www.w3.org/1999/xlink"
width="30px" height="21px"
xml:space="preserve">
<g id="1313" transform="matrix(1, 0, 0, 1, 15.6, 17.95)">
<path style="fill:#F8C601;fill-opacity:1" d="M7.85,-9.35L7.2 -7.8L8 -8L9.5 -9.4L9.45 -10.6L7.85 -9.35M9.15,-8.35L8.45 -7.65L6.85 -7.15L6.9 -7.85L7.85 -9.8L8.75 -10.5L8.95 -11.1L10.6 -12.65L9.5 -9.4L9.15 -8.35M1.7,-7.8L1 -3.7L-1.65 -6.55L-3.05 -3.3L-5.35 -9.65L-5.7 -3.95L-8.85 -7.65L-6.55 -2.3L-8.15 -2.2L-12.4 -3.8L-8.75 -0.95L-10.15 -0.6Q-8.85 0.25 -7.15 0.5L-5 0.45L-4.95 0.4L-4.85 0.35L-4.75 0.35L-4.65 0.35L-4.5 0.25L-4.3 0.1L-4.1 0.15L-4 0.15L-3.7 0.1L-1.55 1.95L-0.55 -0.6L7.5 -0.05L4.8 -2.45L7.2 -5.35L5.5 -4.25L2.8 -3.4L1.5 -3.9L1.85 -5.3L3.15 -6.5L3.2 -7.85L2.1 -6.3L2.9 -12.1L2.25 -10.3L2 -8.4L1.7 -7.8M1.45,-7.35L3.7 -17.95L2.8 -7.95L3.65 -8.55L3.7 -7.3L2.85 -5.9L3.25 -4.1L4.15 -4.35L6.35 -5.35L8.05 -5.85L8.1 -3.95L9.7 -5.15L10.9 -5.7L11.5 -6.3L13.5 -6.5L9.95 -2.6L12.55 -2.05L12.85 -1.6L12.55 0.05L12.05 0.5L10.1 0.6L7.95 -0.85L7.65 0.95L4.2 0.25L-0.4 0.4L-0.5 1.15L-1.3 2.85L-3.25 0.9L-3.35 0.95L-3.45 0.95L-3.55 1L-3.8 1.05L-4.3 1.05L-4.7 1.15L-5.1 1.05L-5.2 1.05L-5.3 1.05L-5.6 1.05L-5.75 1.05L-6.65 1.05Q-8.6 0.9 -10.2 0.05L-10.3 -0.05L-10.5 -0.15L-11.3 -0.85L-10.3 -1.55L-15.6 -5.3L-8.25 -3.5L-10.35 -10.2L-6.1 -5.1L-5.75 -12.3L-3.1 -4.9L-2.65 -7.55L-2.3 -8.2L-1.6 -9.05L0.95 -5.15L1.15 -6.95L1.45 -7.35M8.95,-2.4L11.6 -5.55L11 -5.4L6.95 -2.1L7.95 -1.95L10.15 0L10.8 0L11.25 -1.5L10 -2.35L8.95 -2.4M-12.7,-7.4L-11.9 -7.15Q-11.7 -7.25 -11.7 -7.7L-11.25 -6.85Q-12.15 -6.4 -12.95 -7.15L-13.85 -8.45L-14.35 -9.4L-14.95 -10.9L-14.3 -11.3L-13.25 -9.85L-12.7 -7.4" />
<path style="fill:#FFF193;fill-opacity:1" d="M9.45,-10.6L9.5 -9.4L8 -8L7.2 -7.8L7.85 -9.35L9.45 -10.6M2,-8.4L2.25 -10.3L2.9 -12.1L2.1 -6.3L3.2 -7.85L3.15 -6.5L1.85 -5.3L1.5 -3.9L2.8 -3.4L5.5 -4.25L7.2 -5.35L4.8 -2.45L7.5 -0.05L-0.55 -0.6L-1.55 1.95L-3.7 0.1L-4 0.15L-4.1 0.15L-4.3 0.1L-4.5 0.25L-4.65 0.35L-4.75 0.35L-4.85 0.35L-4.95 0.4L-5 0.45L-7.15 0.5Q-8.85 0.25 -10.15 -0.6L-8.75 -0.95L-12.4 -3.8L-8.15 -2.2L-6.55 -2.3L-8.85 -7.65L-5.7 -3.95L-5.35 -9.65L-3.05 -3.3L-1.65 -6.55L1 -3.7L1.7 -7.8L2 -8.4M10,-2.35L11.25 -1.5L10.8 0L10.15 0L7.95 -1.95L6.95 -2.1L11 -5.4L11.6 -5.55L8.95 -2.4L10 -2.35M-13.25,-9.85L-11.7 -7.7Q-11.7 -7.25 -11.9 -7.15L-12.7 -7.4L-13.25 -9.85" />
</g>
</svg>
