<?xml version="1.0" encoding="utf-8"?>
<svg version="1.1" id="Layer_1"
xmlns="http://www.w3.org/2000/svg"
xmlns:xlink="http://www.w3.org/1999/xlink"
width="38px" height="11px"
xml:space="preserve">
<g id="405" transform="matrix(1, 0, 0, 1, -152.05, -206.75)">
<path style="fill:#3A1D0F;fill-opacity:0.85098" d="M160.35,208.55Q161.15 207.6 162.35 207.1L162.8 207.25L162.9 207.25L162.3 207.55L162.35 207.55L162.7 207.6L162.8 207.6Q161.8 208.1 161.1 208.95L162.3 208.2L162.75 208.05L163.25 208.25L163.25 208.3L162.45 208.8L161 210.25L160.6 210.65L160.3 211.15L160.15 211.6L160.05 212.2L160.15 212.35L160.05 212.3L159.9 213.05L159.45 212.05L159.3 212.5L159.25 212.55L159.25 211.55Q159.1 210.95 159.45 210.05L159.6 209.75Q159.9 209.1 160.35 208.55M157.8,210.3L157.75 211.55L157.85 212.25Q158.45 213.7 159.85 214.15L161.1 214.25L161.9 214.25L161.5 213.9Q161.3 213.7 161.5 213.55L161 212.2L161.1 212.1L161.8 213Q161.85 211.6 163.1 210.3Q163.2 210.15 163.35 210.15L163.5 210.25L163.6 210.2Q163.9 210.2 164.1 210.45L164.1 210.5Q162.85 211.6 163.05 213.15L163.95 213.9L163.95 213.95L163.4 214.35L163.55 214.4L164.7 214.65L165.15 214.65L165.15 214.25Q164.5 214.05 164.85 213.6L164.95 213.5L166.55 214.45L169.4 214.1L170.15 214.2L170.25 214.25L167.75 214.85L170.25 215Q169.85 215.7 171.6 215.6L171.55 215.55L171.5 215.5Q174.4 214.6 177.6 214.4L178.4 214.35L178.55 214.2L178.85 214.05L179.45 214.35L179.65 214.35L179.75 214.05Q179.9 213.75 180.4 213.75Q183.5 213.65 182.15 211.2L182.55 211Q185.3 212.9 182.4 214.4L184.8 214.55Q186.55 213.6 187 211.45L187 210.05L187.1 209.9L187.25 209.85Q189.45 212.5 186.45 214.4L185.95 214.7L187.75 214.95L187.8 215L185.4 215.25L182.75 215.3L179.9 215.25L179.55 215.25Q177 217.3 173.2 216.5Q172.4 216.35 172.4 215.75L171.8 215.75Q169.95 216.8 168.3 216.55Q167.4 216.85 166.3 215.7L165.6 215.2L161.85 215.65Q157.95 215.85 154.05 215.55L154 215.45L154.2 215.25L154.25 215.25L154.35 215.2L155.7 215.1L158.9 215.2L158.8 215.1L156.8 215Q156.95 214.75 157.2 214.65L156.45 214.45L156.5 214.35L154.9 214.1Q153.75 213.9 152.95 213.3L155.2 213.1Q154.2 212 155 210.75Q155.1 210.6 155.3 210.55L155.65 211.4L155.6 211L155.85 211.75L156.3 210.85L155.95 211.9L156.35 212.4Q156.35 211.75 156.7 210.9Q157.15 209.8 158.3 209.4L157.8 209.95L157.8 210.25L157.9 210.15L157.8 210.3M157.45,213.35L157.85 213.55L157.4 212.95L157.2 212.7L157.3 213.05L157.45 213.35M158.7,214.1L158.9 214.1L158.7 214.05L158.7 214.1M183.6,208.1L184.1 208Q186.2 208.25 186.15 210.15L186.1 210.2L185.55 209.35Q186 210 186.05 211L186.05 211.05L184.6 209.55L183.05 208.15L183.15 208L183.6 208.1M168.8,215.8L167.85 215.7L168.85 215.85L168.8 215.8M169.25,215.85L169.05 215.85L169.35 215.9L169.25 215.85M162.4,213.55L162.4 213.6L162.45 213.65L162.4 213.55M174.55,215.45L173.7 215.5L173.6 215.55L174.6 215.45L174.55 215.45" />
<path style="fill:#3A1D0F;fill-opacity:0.6" d="M156.3,210.35Q156.8 208.35 158.6 208.8Q158.95 208.85 158.8 209.2Q158.25 210.1 158.5 210.9Q159.1 207.4 162.8 206.75Q164.5 207.3 163.35 208.8L162.1 210.15Q160.85 211.45 160.35 213.1L161 213.35L161.15 212.5L161.1 212.1L161.25 212.25Q162.05 209.6 165.1 209.3L165.2 209.5Q164.65 210.45 164.35 211.55Q164.1 212.5 164.15 213.45Q164.35 211.75 165.5 213.1Q165.9 213.55 166.6 213.65L171.3 213.8L171.45 214.05L171.2 214.5Q174.9 213.5 178.95 213.3Q179.85 212.65 181.15 212.6L181.6 212.1Q181.9 211 182.35 210.05L182.55 210Q185.2 211.05 184.5 213.6Q186.95 211.75 186.35 209.05Q186.2 208.4 186.8 208.25Q188.9 208.9 189.2 211.1Q189.4 212.75 188.65 214.15Q190.1 214.95 188.25 215.45L181.45 215.95Q179.95 215.8 179 216.7Q177.6 218 175.65 217.5L171.75 217.2L169.05 217.35Q167.05 217.25 165.3 216.2L164.65 216.05Q158.6 216.25 152.65 215.8Q152.35 215.8 152.5 215.55Q152.9 214.85 153.8 214.8L154.5 214.7Q152.3 214.35 152.05 212.1Q152 211.9 152.3 211.85L154.25 211.85Q153.65 209.8 155.65 209.95L156.15 210.2L156.3 210.35M157.75,209.6L157.65 209.8L157.7 209.75L157.75 209.6M186.05,211.05L186 211Q185.45 211.7 185 210.65Q184.45 209.2 182.95 208.4Q181.55 207.6 182.8 207Q186.3 207.15 186.2 210.45L186.1 210.85L186.1 210.9L186.05 211.05M186.05,213.35L186.1 213.25L186.3 213.05L186 213.35L186.05 213.35" />
</g>
</svg>
