<?xml version="1.0" encoding="utf-8"?>
<svg version="1.1" id="Layer_1"
xmlns="http://www.w3.org/2000/svg"
xmlns:xlink="http://www.w3.org/1999/xlink"
width="26px" height="13px"
xml:space="preserve">
<g id="962" transform="matrix(1, 0, 0, 1, 5.45, 5.35)">
<path style="fill:#000000;fill-opacity:0.85098" d="M7.6,-3.55Q6 -4.05 7.1 -5L7.55 -5.3Q8.8 -5.45 9.7 -4.7Q10.4 -4.05 9.5 -3.65L7.6 -3.55M12.4,-2.85Q13.05 -2.95 13.6 -3.2Q15.4 -2.3 15.2 -0.3Q15.1 1 13.8 0.9Q13.05 0.85 12.35 0.45Q10.2 -0.7 11.6 -2.4Q11.9 -2.8 12.4 -2.85M17.55,-3.35L18.5 -3.15L19.4 -2.65L19.85 -1.7Q19.9 -1.2 19.6 -0.8L18.4 -0.9L17.2 -1.7Q16.5 -2.2 16.95 -2.85L17.55 -3.3L17.55 -3.35M10.65,5.5Q10.35 5.75 10.4 6.1L10.4 6.7L10.2 7.5L10.2 7.55L10.1 7.55L8.65 7.5L8.15 7.35L8.1 7.3L8.05 7.25L8 7.2L7.9 7.15L7.85 7.1L7.85 7L7.85 6.85L7.75 6.7L7.75 6.65L7.6 6.5L7.4 6.2L7.35 6.15L7.35 6.1L7.35 6L7.35 5.8L7.5 5.6L7.7 5.4L8.4 4.95L9.15 4.75L9.5 4.65L10.05 4.7L10.4 4.75L10.75 4.8L10.95 5.05L10.9 5.2L10.65 5.5M5.75,1.95L5.75 2L5.75 2.15L5.65 2.3L5.55 2.5L5.4 2.6L5.4 2.65L6.1 2.8L6.25 3Q6.3 3.55 5.8 3.9L4.35 4.85L2.3 5.65Q1.2 6.05 0.7 5.1L0.25 4.8L-0.05 4.2L-0.15 4L-0.45 3.3L-0.45 2.75L-0.4 2.65L0.05 2.65L0.8 3.1L0.9 3.2L1.05 3.3L1.4 3.9L1.5 4.2L1.55 4.2Q1.7 4.15 1.8 4.05L2.1 3.9L2.35 3.8L2.35 3.75L2.4 3.7L2.45 3.6L2.5 3.4L2.5 3.3L2.5 3.15L2.75 2.95L3.45 2.35L3.75 2.2L4.6 1.95L5.05 1.8L5.55 1.85L5.7 1.9L5.75 1.95M-4.25,0.8Q-3.55 0.85 -3.05 1.35Q-2.4 1.95 -2.95 2.55Q-3.4 3 -4.1 3L-5.2 2.95L-5.4 2.7L-5.45 2.15L-5.15 1.55L-4.6 1L-4.25 0.8" />
</g>
</svg>
