<?xml version="1.0" encoding="utf-8"?>
<svg version="1.1" id="Layer_1"
xmlns="http://www.w3.org/2000/svg"
xmlns:xlink="http://www.w3.org/1999/xlink"
width="37px" height="25px"
xml:space="preserve">
<g id="1083" transform="matrix(1, 0, 0, 1, 14.6, 31.5)">
<path style="fill:#3A3A3A;fill-opacity:1" d="M4.6,-31L4.7 -30.8L5.05 -29.8Q5.1 -29.4 4.8 -29.05L4.4 -28.55L4.4 -28.5L4.3 -28.1L5.1 -28Q5.6 -28.05 6 -28.55L6.2 -29.2L6.4 -29.1L6.65 -28.9L6.85 -28.05Q7.05 -27.3 6.4 -26.85L5.8 -26.3L5.7 -26.45L5.6 -26.75L5.4 -27Q5.2 -27 5.25 -26.8L5.1 -26.2L4.5 -25.75Q3.75 -25.5 3.35 -26.2L3.3 -26.2L3.2 -26.1L2.9 -25.75L2 -25.6L1.9 -25.6L1.85 -25.6L1.65 -25.8Q1.2 -26.3 1.4 -26.95Q1.1 -27.25 1.15 -27.6Q1.3 -28.3 1.95 -28.7L2.45 -29.2L2.5 -29.2L2.5 -29.25L2.55 -29.85L2.5 -29.75L2.55 -30Q2.8 -30.7 3.45 -31Q4.05 -31.35 4.6 -31M9.95,-26.15L10.15 -26.25L10.45 -26.35L10.55 -26.35L10.95 -26.2L11.25 -26L11.3 -25.95L11.35 -25.85L11.4 -25.75L11.6 -25.7L11.85 -25.9L12.05 -26.1L12.3 -26.15L12.3 -26.1L12.4 -25.7L12.3 -25.3L12.1 -25.05Q11.85 -24.9 11.6 -25.05L11.3 -25.2L11.25 -25.25L11.25 -25.4L11.2 -25.5L10.95 -25.45L10.85 -25.3L10.7 -25.2L10.05 -25.25L9.8 -25.35L9.75 -25.6L9.75 -25.8L9.75 -25.9L9.8 -26L9.95 -26.15M12.75,-21.85Q12.85 -21.35 12.5 -21Q12 -20.5 11.2 -20.55L10.9 -20.9Q10.5 -21.5 10.8 -21.6L11.05 -21.85Q11.05 -22.25 11.35 -22.45L12 -22.6L12.7 -22.5L12.75 -21.85M11.35,-19.35L11.35 -19.3L11.5 -19.2L11.6 -19.2L12 -18.85L12.2 -18.5L12.1 -18.35L11.6 -17.7Q11 -17.2 10.2 -17.35L10.1 -17.15L9.7 -16.7L8.9 -16.75Q8.7 -17.25 8.9 -17.7L9.25 -18.3L9.9 -18.8Q9.8 -19.05 10 -19.1L10.45 -19.25L10.8 -19.35L11.35 -19.35M8.9,-21.9L8.9 -21.85L8.95 -21.75L9 -21.7L9 -21.65L9.1 -21.6L9.15 -21.55L9.15 -21.5L9.15 -21.35L9.15 -21.2L9.05 -21L9.05 -20.95L9.05 -20.85L9.05 -20.8L9.3 -20.8L9.15 -20.6L9.05 -20.3L8.9 -20.3L8.5 -20.1L8.4 -19.9L8.35 -19.9L8.05 -19.8L7.75 -19.65L7.7 -19.6L7.6 -19.5L7.35 -19.15L7.35 -19.1L6.35 -18.6Q5.95 -18.25 5.9 -17.75L5.65 -17.2L5.2 -16.7L4.4 -16.65L4.3 -16.7L4.25 -16.75L4.15 -16.8L4.15 -16.85L4 -17.2L3.85 -17.5L2.85 -17.55Q2.55 -17.75 2.5 -18.15L2.2 -18.3Q1.95 -18.4 2 -18.65L1.95 -18.95L2.2 -19.2L3.2 -19.35L3.25 -19.35L3.3 -19.5L3.4 -19.65L3.5 -19.85L4.15 -20.2L4.6 -20.45Q5.5 -20.85 5.25 -21.65L5.25 -21.8L5.15 -21.85L5.1 -21.9L5.3 -21.95L6.95 -21.65L7.35 -21.3L7.95 -20.85L8 -20.95L8 -21.05L8 -21.15L7.95 -21.3L7.95 -21.35L7.9 -21.35L7.85 -21.5L7.9 -21.55L8.15 -21.75L8.35 -21.85L8.85 -21.9L8.9 -21.9M4.35,-22.1L4.45 -22L4.4 -21.95L4.35 -21.85L4.35 -21.8L4.4 -21.8L4.55 -21.8L4.5 -21.4L4.2 -20.75L3.45 -20.35Q3.3 -20.2 3.15 -20.2L2.05 -19.6L2.25 -20.3L2.35 -21.25L2.2 -21.85L2.9 -22.25L4.1 -22.4L4.35 -22.1M1.65,-20.15L1.75 -20.1L1.75 -20.05L1.4 -19.05L0.7 -18.5L0.7 -18.55L0.55 -18.65L0.45 -18.6L0.35 -18.55L0.35 -18.45L0.4 -18.4L0.25 -18.2L0.45 -18.2Q0.35 -17.7 0.6 -17.3L1.1 -16.35L1.15 -16.2L0.7 -15.5L0.3 -15.1Q0.55 -15.75 0.05 -16.35L0.15 -17.05L0 -18.15Q-0.15 -18.75 -0.6 -19.15L-0.75 -19.45Q-0.75 -20.3 -1.25 -20.85L-1.1 -21.2Q-0.9 -22 -0.15 -22.3Q1.35 -22.9 1.9 -21.55Q2.2 -20.9 1.6 -20.3L1.6 -20.25L1.65 -20.2L1.65 -20.15M2.35,-14.4L2.7 -14.45L3.85 -14.35L5.1 -14.2L5.05 -14L4.85 -13.7L4.55 -13.45L4.5 -13.35L4.55 -13.25L4.65 -13.2L4.65 -13.1L4.6 -13L4.55 -13L4.55 -12.9L4.5 -12.85L3.8 -12.65Q2.75 -12.25 2.1 -12.9Q1.75 -13.3 1.9 -13.8L1.9 -13.85L1.85 -13.9L1.8 -13.95L1.9 -14.05L2.25 -14.35L2.35 -14.4M6.8,-15.4L6.95 -15Q7.35 -13.65 8.85 -13.7L9 -13.55Q8.9 -12.75 8.2 -12.15L8.15 -12.15Q7.5 -12 7.15 -12.4L7.2 -12.5L7.4 -12.7L7.55 -12.9L7.5 -13L7 -13.15L6.7 -13.6Q6.4 -14 6.45 -14.5L6.8 -15.4M-10.8,-26.6L-10.5 -26.7L-10.55 -26.75L-10.65 -26.85L-10.7 -26.85L-10.4 -27.05L-9.55 -27.15L-9.4 -27.45L-9.15 -27.8L-8.7 -28.05L-8.15 -27.65L-7.85 -27.35L-7.8 -27.1L-8.05 -26.8L-8.4 -26.55L-8.7 -26.45L-8.75 -26.45L-8.85 -26.55L-8.9 -26.65L-9.05 -26.75L-9.15 -26.75L-9.25 -26.25Q-9.2 -25.65 -9.75 -25.4L-10.15 -25.2L-10.15 -25.3L-10.1 -25.4L-10.2 -25.6L-10.25 -25.65L-10.4 -25.55L-10.45 -25.45L-10.6 -25.3Q-11.35 -25.05 -11.5 -25.7L-11.5 -26L-11.3 -26.3L-11.15 -26.45L-11 -26.55L-10.8 -26.6M-0.25,-27.85Q0.25 -27.45 -0.15 -27Q-0.55 -26.55 -1.05 -26.35L-0.9 -26.2Q-1.5 -26.15 -1.8 -26.95L-1.8 -27L-1.6 -27.45L-1.25 -27.85L-0.8 -28.1L-0.25 -27.85M-3.5,-26.25L-2.95 -26.15L-2.65 -25.9L-2.5 -25.7L-2.6 -25.4Q-2.85 -24.55 -3.75 -24.7Q-4.35 -24.75 -4.35 -25.3Q-4.4 -26.1 -3.7 -26.05L-3.75 -26.15L-3.6 -26.25L-3.5 -26.25M-3.4,-24.05L-3.3 -24.05L-3.35 -23.9Q-3.45 -23.65 -3.7 -23.55L-4.35 -23.2L-4.35 -23.1L-4.25 -23L-4.2 -23L-4.2 -22.9L-4.15 -22.85L-4.15 -22.8Q-3.8 -22.7 -3.65 -22.4Q-3 -21.2 -4.2 -20.35L-4.4 -20.1Q-5 -18.9 -6.4 -18.95L-6.6 -19.1L-6.9 -19.2L-6.95 -19.5L-6.9 -20.2L-6.75 -20.7L-6.45 -21.2L-6.45 -21.45L-6.45 -21.85L-6.3 -22.15L-5.8 -22.55L-5.9 -23.45Q-5.95 -24 -5.4 -24.3L-4.6 -24.6L-4.6 -24.55L-4.6 -24.45Q-4.25 -24.2 -3.75 -24.1L-3.4 -24.05M-2.7,-19.6L-2.15 -20.2Q-1.9 -20.55 -1.9 -20.95L-1.45 -20.45Q-1.15 -19.95 -1.15 -19.35Q-1.2 -18.7 -1.75 -18.45L-2.15 -18.25L-2.35 -18.2Q-3.25 -18.05 -3.15 -19.25L-2.7 -19.6M-6.95,-17.65L-6.9 -18.35L-6.8 -18.7L-6.4 -18.55L-5 -18.45L-5.15 -17.95Q-5.6 -16.95 -6.7 -17.25L-6.95 -17.65M-0.15,-17.2Q-0.15 -16.75 -0.4 -16.4L-0.4 -16.35Q0 -15.9 -0.05 -15.4Q-0.15 -14.25 -1.45 -14.6L-1.55 -14.7L-1.7 -14.95L-1.75 -15.2L-1.7 -15.3L-1.55 -15.4L-1.5 -15.55L-1.85 -15.8L-2.1 -16L-1.85 -16.65L-1.05 -17.5Q-0.7 -17.95 -0.5 -18.5L-0.2 -17.9L-0.15 -17.2M-2.2,-17.4Q-2.5 -16.9 -3.1 -16.65L-5.45 -16.45L-4.6 -16.65L-3.35 -17.1Q-2.7 -17.3 -2.15 -17.7L-2.2 -17.4M-1.95,-12.6Q-1.3 -11.85 -2.45 -11.65L-2.8 -11.75Q-3.5 -12.5 -2.4 -12.75L-1.95 -12.6M-13.7,-22.15L-13.3 -22.05Q-12.8 -21.5 -13.4 -20.95Q-13.7 -20.7 -14 -20.95Q-14.55 -21.45 -14.15 -22.05L-14.05 -22.05L-13.9 -22.05L-13.8 -22.05L-13.7 -22.15M-10.45,-11.5Q-10.2 -11.3 -10.35 -10.95Q-10.55 -10.3 -11.3 -10.65L-11.3 -10.7L-11.45 -10.9L-11.45 -11.05L-11.5 -11.15L-11.5 -11.2L-11.5 -11.3L-11.45 -11.35L-11.45 -11.4L-11.5 -11.4L-11.45 -11.45L-11.3 -11.55L-11.2 -11.6L-11.05 -11.65L-10.45 -11.5M-6.55,-9.85L-6.65 -9.85L-6.75 -9.85L-6.8 -9.8L-6.85 -9.8L-6.75 -9.95L-6.45 -10.05L-6.15 -10.15L-5.9 -10.15L-5.55 -10.05L-5.4 -9.9L-5.35 -9.85L-5.35 -9.65L-5.35 -9.4L-5.45 -9.2L-5.45 -9.1Q-5.6 -8.85 -5.9 -8.9L-6.5 -9.15L-6.75 -9.45L-6.75 -9.5L-6.7 -9.55L-6.65 -9.65L-6.6 -9.7L-6.55 -9.75L-6.55 -9.85" />
<path style="fill:#3A3A3A;fill-opacity:0.2" d="M17.3,-15.9Q18.6 -15.95 18.25 -14.95Q18.1 -14.65 17.75 -14.65Q16.35 -14.7 17 -15.75L17.3 -15.9M17.15,-15.5L17.15 -15.4L17 -15.35L16.95 -15.35L16.95 -15.25L17 -15.15L17 -15.1Q17.55 -14.85 18.1 -15.1L18.1 -15.15L18 -15.45L17.3 -15.55L17.25 -15.55L17.2 -15.5L17.15 -15.5M5.7,-10.1Q6 -9.45 5.95 -8.7L5.75 -7.3L5.75 -6.5Q5.05 -6.95 5.4 -7.9L5.55 -9.3Q5.45 -9.8 5.7 -10.1M9.1,-8.3L8.85 -8.15L8.65 -7.9L8.6 -7.7L8.6 -7.65L8.65 -7.65L8.65 -7.55L8.7 -7.55L8.75 -7.5L9.1 -7.5L9.2 -7.65L9.35 -7.9L9.3 -8.15L9.3 -8.25L9.2 -8.3L9.1 -8.3M9,-8.7Q10.1 -8.3 9.3 -7.35L8.5 -7.4Q8.2 -7.75 8.4 -8.25Q8.55 -8.6 9 -8.7M2.55,-10.1Q2.25 -10.65 1.6 -10.6L1.45 -10.45L1.35 -10.3L1.3 -10.15Q1.75 -9.3 2.55 -9.85L2.55 -10.1M1.55,-10.9Q3.1 -10.9 2.75 -9.55L2.3 -9.25Q0.8 -9.05 1.15 -10.5L1.4 -10.85L1.55 -10.9M0.15,-11.3Q-1.3 -11.35 -0.8 -12.45L-0.6 -12.7L-0.25 -12.8Q1.15 -12.55 0.45 -11.45Q0.35 -11.3 0.15 -11.3M0.15,-12.35L-0.1 -12.45L-0.15 -12.45L-0.4 -12.35L-0.6 -12.25L-0.75 -12.05L-0.65 -11.95L-0.5 -11.8L-0.45 -11.7L-0.35 -11.7L0.15 -11.75L0.25 -11.95L0.2 -12.3L0.2 -12.35L0.15 -12.35M12.95,-11.3Q12.85 -11.7 12.4 -11.65L12.3 -11.6L12.15 -11.55L12.05 -11.45L12 -11.4L12 -11.3L12 -11.25L11.9 -11.1L11.85 -11.05L11.85 -11L11.9 -10.95L11.9 -10.9L11.85 -10.9Q12.25 -10.15 12.8 -10.8L12.95 -11.3M13.85,-9.85Q14.1 -9.45 13.7 -8.8Q13.2 -8.1 12.35 -7.9L11.75 -7.55Q11.45 -7.25 11.1 -7.35Q11.4 -8.2 12.4 -8.6L13.4 -9.3L13.85 -9.85M12.4,-12Q13.85 -11.65 12.9 -10.45L11.9 -10.4Q11.15 -10.95 11.8 -11.7Q12.05 -11.95 12.4 -12M22.1,-11.2L22.1 -11.3L22.15 -11.4L22.1 -11.4L22.05 -11.5L21.6 -11.6L21.6 -11.55L21.45 -11.5L21.3 -11.4L21.25 -11.3L21.35 -11.1L22 -11.1L22.05 -11.1L22.1 -11.2M22.35,-11.35Q22.3 -10.6 21.55 -10.8L20.9 -10.95L20.75 -11.05L20.85 -11.45Q21.1 -11.75 21.45 -11.85L21.55 -11.9Q22.4 -12.05 22.35 -11.35" />
<path style="fill:#666666;fill-opacity:0.2" d="M17.2,-15.5L17.25 -15.55L17.3 -15.55L18 -15.45L18.1 -15.15L18.1 -15.1Q17.55 -14.85 17 -15.1L17 -15.15L16.95 -15.25L16.95 -15.35L17 -15.35L17.15 -15.4L17.15 -15.5L17.2 -15.5M9.2,-8.3L9.3 -8.25L9.3 -8.15L9.35 -7.9L9.2 -7.65L9.1 -7.5L8.75 -7.5L8.7 -7.55L8.65 -7.55L8.65 -7.65L8.6 -7.65L8.6 -7.7L8.65 -7.9L8.85 -8.15L9.1 -8.3L9.2 -8.3M2.55,-9.85Q1.75 -9.3 1.3 -10.15L1.35 -10.3L1.45 -10.45L1.6 -10.6Q2.25 -10.65 2.55 -10.1L2.55 -9.85M0.2,-12.35L0.2 -12.3L0.25 -11.95L0.15 -11.75L-0.35 -11.7L-0.45 -11.7L-0.5 -11.8L-0.65 -11.95L-0.75 -12.05L-0.6 -12.25L-0.4 -12.35L-0.15 -12.45L-0.1 -12.45L0.15 -12.35L0.2 -12.35M12.8,-10.8Q12.25 -10.15 11.85 -10.9L11.9 -10.9L11.9 -10.95L11.85 -11L11.85 -11.05L11.9 -11.1L12 -11.25L12 -11.3L12 -11.4L12.05 -11.45L12.15 -11.55L12.3 -11.6L12.4 -11.65Q12.85 -11.7 12.95 -11.3L12.8 -10.8M22.05,-11.1L22 -11.1L21.35 -11.1L21.25 -11.3L21.3 -11.4L21.45 -11.5L21.6 -11.55L21.6 -11.6L22.05 -11.5L22.1 -11.4L22.15 -11.4L22.1 -11.3L22.1 -11.2L22.05 -11.1" />
<path style="fill:#1E1E1E;fill-opacity:1" d="M4.8,-31.3L5.35 -30.75L5.8 -30.45L6.1 -29.75L6.2 -29.5Q7.5 -29.1 7.85 -27.9Q8.1 -26.85 7.45 -26.25L6.7 -25.4Q6 -24.95 5.25 -24.8L3.6 -24.85L2.1 -24.9Q1.2 -25.35 1 -26.25Q0.95 -26.55 1.05 -26.85Q0.5 -27.4 0.85 -28.05L1.95 -29.25L2.25 -29.5L2.25 -29.85Q2.35 -30.4 2.75 -30.85Q3.3 -31.45 4.1 -31.5L4.8 -31.3M3.45,-31Q2.8 -30.7 2.55 -30L2.5 -29.75L2.55 -29.85L2.5 -29.25L2.5 -29.2L2.45 -29.2L1.95 -28.7Q1.3 -28.3 1.15 -27.6Q1.1 -27.25 1.4 -26.95Q1.2 -26.3 1.65 -25.8L1.85 -25.6L1.9 -25.6L2 -25.6L2.9 -25.75L3.2 -26.1L3.3 -26.2L3.35 -26.2Q3.75 -25.5 4.5 -25.75L5.1 -26.2L5.25 -26.8Q5.2 -27 5.4 -27L5.6 -26.75L5.7 -26.45L5.8 -26.3L6.4 -26.85Q7.05 -27.3 6.85 -28.05L6.65 -28.9L6.4 -29.1L6.2 -29.2L6 -28.55Q5.6 -28.05 5.1 -28L4.3 -28.1L4.4 -28.5L4.4 -28.55L4.8 -29.05Q5.1 -29.4 5.05 -29.8L4.7 -30.8L4.6 -31Q4.05 -31.35 3.45 -31M9.8,-26L9.75 -25.9L9.75 -25.8L9.75 -25.6L9.8 -25.35L10.05 -25.25L10.7 -25.2L10.85 -25.3L10.95 -25.45L11.2 -25.5L11.25 -25.4L11.25 -25.25L11.3 -25.2L11.6 -25.05Q11.85 -24.9 12.1 -25.05L12.3 -25.3L12.4 -25.7L12.3 -26.1L12.3 -26.15L12.05 -26.1L11.85 -25.9L11.6 -25.7L11.4 -25.75L11.35 -25.85L11.3 -25.95L11.25 -26L10.95 -26.2L10.55 -26.35L10.45 -26.35L10.15 -26.25L9.95 -26.15L9.8 -26M9.35,-26Q9.7 -26.6 10.4 -26.7L10.9 -26.65L11.3 -26.45L11.55 -26.2L11.7 -26.3L12.55 -26.5L13 -26.3L13.2 -25.75L13 -25.1Q12.3 -24.1 11.2 -24.7Q10.2 -24.05 9.45 -24.9Q9.05 -25.4 9.35 -26M12.7,-22.5L12 -22.6L11.35 -22.45Q11.05 -22.25 11.05 -21.85L10.8 -21.6Q10.5 -21.5 10.9 -20.9L11.2 -20.55Q12 -20.5 12.5 -21Q12.85 -21.35 12.75 -21.85L12.7 -22.5M11.95,-22.95Q14.05 -22.85 13.5 -20.95Q13.05 -19.35 11.55 -20Q9.8 -20.7 10.7 -22.2Q11.1 -22.85 11.95 -22.95M10.8,-19.35L10.45 -19.25L10 -19.1Q9.8 -19.05 9.9 -18.8L9.25 -18.3L8.9 -17.7Q8.7 -17.25 8.9 -16.75L9.7 -16.7L10.1 -17.15L10.2 -17.35Q11 -17.2 11.6 -17.7L12.1 -18.35L12.2 -18.5L12 -18.85L11.6 -19.2L11.5 -19.2L11.35 -19.3L11.35 -19.35L10.8 -19.35M11.65,-15.65L11.4 -15.6L11.35 -15L10.75 -14.35L10.25 -14.05Q10.05 -12 7.95 -11.6Q6.6 -11.35 6 -12.45Q5.75 -12 5.1 -12.05L4.1 -11.25Q3 -10.85 1.95 -11.6L1.85 -11.9L1.15 -12.7Q0.75 -13.5 1.35 -14.1L1.85 -14.4Q2.15 -14.7 2.6 -14.8Q3.15 -14.9 3.5 -14.55L3.55 -14.55L3.6 -14.6L3.75 -14.7L4.05 -14.8L4.15 -14.85L4.55 -15L4.7 -15.05Q5.45 -15.1 5.85 -14.6L5.85 -14.75L5.7 -15.3L5.7 -15.45L3.6 -15.35L3.5 -15.4L2.45 -15.55Q2.15 -15.65 1.95 -15.9L1.85 -15.7L1.6 -15.35L1.35 -14.9Q0.65 -13.9 -0.6 -13.8Q-1.9 -13.6 -2.65 -14.75L-2.8 -15.05Q-3.75 -15.05 -4.65 -15.6L-5.15 -15.9L-5.35 -16.1L-6.3 -16.5L-6.75 -16.65L-7.05 -17.05L-7.05 -17.25L-7.3 -18.1L-7 -18.85Q-7.3 -19.2 -7.2 -19.75L-6.75 -22.05Q-6.65 -22.55 -6.15 -22.7L-6.2 -23.4L-6 -24.25Q-5.55 -24.8 -4.85 -24.95L-4.65 -24.9L-4.7 -25.15L-4.7 -25.65L-4.45 -26.1L-4.4 -26.2L-4.3 -26.35L-3.6 -26.65L-3.4 -26.65Q-1.9 -26.7 -2 -25.3Q-2 -24.65 -2.3 -24.35Q-1.9 -23.2 -2.2 -22.05L-2.2 -21.95L-2 -21.8L-1.9 -21.55L-1.9 -21.35L-1.4 -21L-1.4 -21.05L-1.2 -21.7L-0.5 -22.55L-0.2 -22.8L-0.1 -22.85L0.5 -22.85Q1.65 -22.85 2.1 -22.1L2.15 -22.2L2.65 -22.65L3.1 -22.85Q4.2 -23.05 4.85 -22.35L4.95 -22.4L5.05 -22.4L5.15 -22.45L5.25 -22.45L6 -22.4L6.85 -22.05L7.5 -21.75L7.95 -22.15Q8.9 -22.65 9.4 -21.75L9.65 -21.15L9.45 -20.55L9.35 -20.2L9.6 -19.9L9.85 -19.55L9.9 -19.45L11.65 -19.55Q13.75 -19.8 13.65 -17.85Q13.55 -15.9 11.65 -15.65M8.85,-21.9L8.35 -21.85L8.15 -21.75L7.9 -21.55L7.85 -21.5L7.9 -21.35L7.95 -21.35L7.95 -21.3L8 -21.15L8 -21.05L8 -20.95L7.95 -20.85L7.35 -21.3L6.95 -21.65L5.3 -21.95L5.1 -21.9L5.15 -21.85L5.25 -21.8L5.25 -21.65Q5.5 -20.85 4.6 -20.45L4.15 -20.2L3.5 -19.85L3.4 -19.65L3.3 -19.5L3.25 -19.35L3.2 -19.35L2.2 -19.2L1.95 -18.95L2 -18.65Q1.95 -18.4 2.2 -18.3L2.5 -18.15Q2.55 -17.75 2.85 -17.55L3.85 -17.5L4 -17.2L4.15 -16.85L4.15 -16.8L4.25 -16.75L4.3 -16.7L4.4 -16.65L5.2 -16.7L5.65 -17.2L5.9 -17.75Q5.95 -18.25 6.35 -18.6L7.35 -19.1L7.35 -19.15L7.6 -19.5L7.7 -19.6L7.75 -19.65L8.05 -19.8L8.35 -19.9L8.4 -19.9L8.5 -20.1L8.9 -20.3L9.05 -20.3L9.15 -20.6L9.3 -20.8L9.05 -20.8L9.05 -20.85L9.05 -20.95L9.05 -21L9.15 -21.2L9.15 -21.35L9.15 -21.5L9.15 -21.55L9.1 -21.6L9 -21.65L9 -21.7L8.95 -21.75L8.9 -21.85L8.9 -21.9L8.85 -21.9M4.1,-22.4L2.9 -22.25L2.2 -21.85L2.35 -21.25L2.25 -20.3L2.05 -19.6L3.15 -20.2Q3.3 -20.2 3.45 -20.35L4.2 -20.75L4.5 -21.4L4.55 -21.8L4.4 -21.8L4.35 -21.8L4.35 -21.85L4.4 -21.95L4.45 -22L4.35 -22.1L4.1 -22.4M1.65,-20.2L1.6 -20.25L1.6 -20.3Q2.2 -20.9 1.9 -21.55Q1.35 -22.9 -0.15 -22.3Q-0.9 -22 -1.1 -21.2L-1.25 -20.85Q-0.75 -20.3 -0.75 -19.45L-0.6 -19.15Q-0.15 -18.75 0 -18.15L0.15 -17.05L0.05 -16.35Q0.55 -15.75 0.3 -15.1L0.7 -15.5L1.15 -16.2L1.1 -16.35L0.6 -17.3Q0.35 -17.7 0.45 -18.2L0.25 -18.2L0.4 -18.4L0.35 -18.45L0.35 -18.55L0.45 -18.6L0.55 -18.65L0.7 -18.55L0.7 -18.5L1.4 -19.05L1.75 -20.05L1.75 -20.1L1.65 -20.15L1.65 -20.2M2.25,-14.35L1.9 -14.05L1.8 -13.95L1.85 -13.9L1.9 -13.85L1.9 -13.8Q1.75 -13.3 2.1 -12.9Q2.75 -12.25 3.8 -12.65L4.5 -12.85L4.55 -12.9L4.55 -13L4.6 -13L4.65 -13.1L4.65 -13.2L4.55 -13.25L4.5 -13.35L4.55 -13.45L4.85 -13.7L5.05 -14L5.1 -14.2L3.85 -14.35L2.7 -14.45L2.35 -14.4L2.25 -14.35M6.45,-14.5Q6.4 -14 6.7 -13.6L7 -13.15L7.5 -13L7.55 -12.9L7.4 -12.7L7.2 -12.5L7.15 -12.4Q7.5 -12 8.15 -12.15L8.2 -12.15Q8.9 -12.75 9 -13.55L8.85 -13.7Q7.35 -13.65 6.95 -15L6.8 -15.4L6.45 -14.5M-10.9,-27.25L-10.85 -27.25Q-10.4 -27.6 -9.8 -27.6L-9.75 -27.6L-9.65 -27.85L-9.2 -28.25L-8.8 -28.4Q-7.5 -28.7 -7.15 -27.6Q-6.8 -26.5 -7.65 -25.75Q-8.15 -25.4 -8.75 -25.35Q-8.75 -24.6 -9.45 -24.45Q-10.65 -24.15 -11.45 -24.95Q-12.2 -25.7 -11.5 -26.55L-11.35 -26.65L-11.35 -26.7L-11.25 -26.9L-10.95 -27.2L-10.9 -27.25M-11,-26.55L-11.15 -26.45L-11.3 -26.3L-11.5 -26L-11.5 -25.7Q-11.35 -25.05 -10.6 -25.3L-10.45 -25.45L-10.4 -25.55L-10.25 -25.65L-10.2 -25.6L-10.1 -25.4L-10.15 -25.3L-10.15 -25.2L-9.75 -25.4Q-9.2 -25.65 -9.25 -26.25L-9.15 -26.75L-9.05 -26.75L-8.9 -26.65L-8.85 -26.55L-8.75 -26.45L-8.7 -26.45L-8.4 -26.55L-8.05 -26.8L-7.8 -27.1L-7.85 -27.35L-8.15 -27.65L-8.7 -28.05L-9.15 -27.8L-9.4 -27.45L-9.55 -27.15L-10.4 -27.05L-10.7 -26.85L-10.65 -26.85L-10.55 -26.75L-10.5 -26.7L-10.8 -26.6L-11 -26.55M-0.8,-28.1L-1.25 -27.85L-1.6 -27.45L-1.8 -27L-1.8 -26.95Q-1.5 -26.15 -0.9 -26.2L-1.05 -26.35Q-0.55 -26.55 -0.15 -27Q0.25 -27.45 -0.25 -27.85L-0.8 -28.1M-3.6,-26.25L-3.75 -26.15L-3.7 -26.05Q-4.4 -26.1 -4.35 -25.3Q-4.35 -24.75 -3.75 -24.7Q-2.85 -24.55 -2.6 -25.4L-2.5 -25.7L-2.65 -25.9L-2.95 -26.15L-3.5 -26.25L-3.6 -26.25M-2.1,-27.25Q-2 -28.45 -0.8 -28.65Q1.15 -28.3 0.3 -26.55Q0.05 -25.95 -0.65 -25.9Q-2.15 -25.9 -2.1 -27.25M-3.75,-24.1Q-4.25 -24.2 -4.6 -24.45L-4.6 -24.55L-4.6 -24.6L-5.4 -24.3Q-5.95 -24 -5.9 -23.45L-5.8 -22.55L-6.3 -22.15L-6.45 -21.85L-6.45 -21.45L-6.45 -21.2L-6.75 -20.7L-6.9 -20.2L-6.95 -19.5L-6.9 -19.2L-6.6 -19.1L-6.4 -18.95Q-5 -18.9 -4.4 -20.1L-4.2 -20.35Q-3 -21.2 -3.65 -22.4Q-3.8 -22.7 -4.15 -22.8L-4.15 -22.85L-4.2 -22.9L-4.2 -23L-4.25 -23L-4.35 -23.1L-4.35 -23.2L-3.7 -23.55Q-3.45 -23.65 -3.35 -23.9L-3.3 -24.05L-3.4 -24.05L-3.75 -24.1M-3.15,-19.25Q-3.25 -18.05 -2.35 -18.2L-2.15 -18.25L-1.75 -18.45Q-1.2 -18.7 -1.15 -19.35Q-1.15 -19.95 -1.45 -20.45L-1.9 -20.95Q-1.9 -20.55 -2.15 -20.2L-2.7 -19.6L-3.15 -19.25M-2.25,-21.65L-2.3 -21.55L-2.25 -21.6L-2.25 -21.65M-6.7,-17.25Q-5.6 -16.95 -5.15 -17.95L-5 -18.45L-6.4 -18.55L-6.8 -18.7L-6.9 -18.35L-6.95 -17.65L-6.7 -17.25M-0.2,-17.9L-0.5 -18.5Q-0.7 -17.95 -1.05 -17.5L-1.85 -16.65L-2.1 -16L-1.85 -15.8L-1.5 -15.55L-1.55 -15.4L-1.7 -15.3L-1.75 -15.2L-1.7 -14.95L-1.55 -14.7L-1.45 -14.6Q-0.15 -14.25 -0.05 -15.4Q0 -15.9 -0.4 -16.35L-0.4 -16.4Q-0.15 -16.75 -0.15 -17.2L-0.2 -17.9M-2.15,-17.7Q-2.7 -17.3 -3.35 -17.1L-4.6 -16.65L-5.45 -16.45L-3.1 -16.65Q-2.5 -16.9 -2.2 -17.4L-2.15 -17.7M-2.4,-12.75Q-3.5 -12.5 -2.8 -11.75L-2.45 -11.65Q-1.3 -11.85 -1.95 -12.6L-2.4 -12.75M-2.35,-13.1Q-0.7 -12.75 -1.75 -11.55Q-2.2 -11.05 -2.8 -11.35Q-3.95 -11.95 -2.95 -12.8L-2.35 -13.1M-13.8,-22.05L-13.9 -22.05L-14.05 -22.05L-14.15 -22.05Q-14.55 -21.45 -14 -20.95Q-13.7 -20.7 -13.4 -20.95Q-12.8 -21.5 -13.3 -22.05L-13.7 -22.15L-13.8 -22.05M-13.75,-22.55Q-12.05 -22.25 -12.95 -20.8Q-13.2 -20.45 -13.7 -20.5Q-14.85 -20.65 -14.55 -21.8Q-14.4 -22.45 -13.75 -22.55M-11.05,-12Q-9.8 -11.95 -10.1 -10.75Q-10.25 -10.15 -10.9 -10.15Q-12.3 -10.2 -11.9 -11.25L-11.9 -11.6L-11.85 -11.65L-11.6 -11.85L-11.3 -11.95L-11.05 -12M-11.05,-11.65L-11.2 -11.6L-11.3 -11.55L-11.45 -11.45L-11.5 -11.4L-11.45 -11.4L-11.45 -11.35L-11.5 -11.3L-11.5 -11.2L-11.5 -11.15L-11.45 -11.05L-11.45 -10.9L-11.3 -10.7L-11.3 -10.65Q-10.55 -10.3 -10.35 -10.95Q-10.2 -11.3 -10.45 -11.5L-11.05 -11.65M-6.55,-9.75L-6.6 -9.7L-6.65 -9.65L-6.7 -9.55L-6.75 -9.5L-6.75 -9.45L-6.5 -9.15L-5.9 -8.9Q-5.6 -8.85 -5.45 -9.1L-5.45 -9.2L-5.35 -9.4L-5.35 -9.65L-5.35 -9.85L-5.4 -9.9L-5.55 -10.05L-5.9 -10.15L-6.15 -10.15L-6.45 -10.05L-6.75 -9.95L-6.85 -9.8L-6.8 -9.8L-6.75 -9.85L-6.65 -9.85L-6.55 -9.85L-6.55 -9.75M-6.2,-10.5Q-4.25 -10.25 -5.3 -8.85Q-5.75 -8.2 -6.55 -8.65Q-7.1 -9 -7.15 -9.65Q-7.15 -10.45 -6.2 -10.5" />
</g>
</svg>
