<?xml version="1.0" encoding="utf-8"?>
<svg version="1.1" id="Layer_1"
xmlns="http://www.w3.org/2000/svg"
xmlns:xlink="http://www.w3.org/1999/xlink"
width="32px" height="17px"
xml:space="preserve">
<g id="856" transform="matrix(1, 0, 0, 1, -55.75, 14.3)">
<path style="fill:#0E0E0E;fill-opacity:1" d="M57.9,-2.35L58.45 -2.3Q60.7 -4.05 61.95 -3.4Q63.05 -2.9 63.05 -1.2Q63.05 -0.4 62.65 0.15Q62.15 0.85 61.3 0.85Q59.95 0.85 59.35 0.2L59.1 0.4Q58.2 1.1 57.2 1.1Q56 1.1 55.75 0.55L55.75 -0.05Q55.75 -2.25 57.9 -2.35M70.65,-8.35L71.45 -8.35L71.45 -8.4Q71.45 -9.3 73.65 -9.55Q75.85 -9.75 75.85 -8.3Q75.85 -7.8 75.4 -7.4Q74.9 -6.95 74.2 -6.95L73.45 -7.15L73.4 -7.2L73.65 -5.95Q73.65 -5 73.35 -4.65Q73.05 -4.35 71.6 -3.75L70 -3.75L69.4 -4.15L69.1 -3.6Q68.6 -2.85 67.6 -2.85Q65.85 -2.85 65.2 -3.8Q64.9 -4.25 64.9 -4.9Q64.9 -5.6 65.15 -5.7L66.4 -6.25L67.65 -6.25Q67.7 -8.15 70.65 -8.35M78.95,-10.8L78.75 -11.8Q78.75 -13.65 81.9 -14.2Q85.05 -14.75 85.05 -12Q85.05 -11.05 84.85 -10.8L83 -9.55L80.6 -9.55Q79.3 -10.15 78.95 -10.8M74.95,-4.4Q74.95 -5.6 76.9 -5.65Q78.85 -5.7 78.85 -4.15Q78.85 -3.7 78.1 -3.15Q77.4 -2.6 77 -2.6Q75.45 -2.6 75.05 -3.5L74.95 -4.4M84.8,-5.5L84.7 -5.95Q84.7 -7.35 86.05 -7.4Q87.4 -7.45 87.4 -6.4L87.1 -5.6Q86.7 -5.05 85.9 -5.05Q85.05 -5.05 84.8 -5.5M74.2,1.05Q74.65 -0.95 76.65 -0.6Q78.6 -0.2 78.6 0.95Q78.6 2.6 75.9 2.6Q74.4 2.6 73.5 1.25L74.2 1.05" />
</g>
</svg>
