<?xml version="1.0" encoding="utf-8"?>
<svg version="1.1" id="Layer_1"
xmlns="http://www.w3.org/2000/svg"
xmlns:xlink="http://www.w3.org/1999/xlink"
width="44px" height="30px"
xml:space="preserve">
<g id="1551" transform="matrix(1, 0, 0, 1, 17.1, 22.4)">
<path style="fill:#333333;fill-opacity:0.498039" d="M17.6,-14.15Q17.6 -15.65 18.9 -15.8Q20.2 -15.9 20.2 -14.9Q20.2 -14.35 19.7 -13.8Q19.2 -13.2 18.6 -13.2Q17.75 -13.2 17.6 -13.65L17.6 -14.15M19.1,-14.75L19.1 -14.55L19.25 -14.8L19.1 -14.75M1.95,-20.55L1.85 -21.2L1.95 -22.05Q2.25 -22.6 3.5 -22.25L3.55 -21.65L3.3 -20.9Q3 -20.45 2.5 -20.45L1.95 -20.55M26.35,-8.55L25.9 -8.3L25.45 -8.35L25.4 -8.25Q25.3 -8.25 25.3 -8.55Q25.3 -8.8 26 -9.5L26.45 -9.45Q26.65 -9.5 26.65 -9L26.35 -8.55M22.95,2.5L23.4 3.05L23.8 3.75Q23.8 4.2 23.2 4.6L22.1 5Q21.35 5 21.2 4.5L21.2 4Q21.2 3.5 21.65 2.7Q22.25 1.6 23.05 2L22.95 2.5M10.7,6.85Q10.5 7.15 9.9 7.15L9.55 7.05Q9.45 7.3 9.45 6.8Q9.45 6.05 10.65 6.55L10.7 6.85M-15.9,-9.7Q-15.3 -9.95 -15.55 -9.65L-15.7 -9.3Q-15.95 -9.05 -16.35 -9L-16.4 -8.9L-16.45 -9.2L-15.9 -9.7M-17,-5.85Q-16.65 -6.2 -15.3 -5.85L-15.1 -5.15Q-15.1 -4.15 -16.55 -4.15Q-16.9 -4.15 -17.1 -5.25L-17 -5.85" />
</g>
</svg>
