<?xml version="1.0" encoding="utf-8"?>
<svg version="1.1" id="Layer_1"
xmlns="http://www.w3.org/2000/svg"
xmlns:xlink="http://www.w3.org/1999/xlink"
width="9px" height="7px"
xml:space="preserve">
<g id="957" transform="matrix(1, 0, 0, 1, 0, 0)">
<path style="fill:#000000;fill-opacity:0.85098" d="M7.85,0Q9.05 1.05 8.55 2.65Q8.3 3.55 7.45 4L4.65 5.3L3.35 5.9L2.55 6.3Q1.95 6.55 1.55 6.05Q1.8 4.9 2.65 3.9L4.6 2.05L6.5 0.7L7.85 0M3.5,2.4L1.75 3.55L0.05 3.45L0.05 2.85Q0.2 2.3 0.55 1.9L1.3 0.95Q1.7 0.35 2.35 0.15L2.85 0.1L3.15 0.1L3.7 0.2L4.1 0.4L4.5 0.65L4.55 0.75L4.2 1.6L3.5 2.4" />
</g>
</svg>
