<?xml version="1.0" encoding="utf-8"?>
<svg version="1.1" id="Layer_1"
xmlns="http://www.w3.org/2000/svg"
xmlns:xlink="http://www.w3.org/1999/xlink"
width="41px" height="20px"
xml:space="preserve">
<g id="1134" transform="matrix(1, 0, 0, 1, 39.5, 19.7)">
<path style="fill:#100806;fill-opacity:1" d="M-20.5,-6.95L-20.5 -19.7Q-19.35 -19.15 -17.95 -19.15Q-16.55 -19.15 -15.4 -19.7L-15.4 -7.75L-7.05 -7.75L0.7 -0.2L-39.5 -0.2L-38.15 -4.4L-20.5 -6.95M-15.4,-1L-13.5 -1L-15.4 -3.55L-15.4 -1M-11.35,-3.2L-9.55 -5.35L-12.9 -5.55L-11.35 -3.2M-7.25,-3.3L-8.85 -1L-4.9 -1L-7.25 -3.3" />
<linearGradient
id="LinearGradID_361" gradientUnits="userSpaceOnUse" gradientTransform="matrix(0, -0.011261, 0.00286865, 0, -29.3, -5.85)" spreadMethod ="pad" x1="-819.2" y1="0" x2="819.2" y2="0" >
<stop  offset="0" style="stop-color:#511A16;stop-opacity:1" />
<stop  offset="0.505882" style="stop-color:#6D4414;stop-opacity:1" />
<stop  offset="1" style="stop-color:#511A16;stop-opacity:1" />
</linearGradient>
<path style="fill:url(#LinearGradID_361) " d="M-37.8,-1L-37.3 -3.3L-20.6 -5.7L-20.6 -1L-22.15 -1L-22.4 -2.55L-23.6 -2.55L-23.9 -1L-26.15 -1L-26.45 -2.55L-27.6 -2.55L-27.9 -1L-29.95 -1L-30.25 -2.55L-31.35 -2.55L-31.75 -1L-33.85 -1L-34.15 -2.55L-35.3 -2.55L-35.6 -1L-37.8 -1" />
<linearGradient
id="LinearGradID_362" gradientUnits="userSpaceOnUse" gradientTransform="matrix(0.00653076, 0, 0, 0.00495911, -18.05, -5.1)" spreadMethod ="pad" x1="-819.2" y1="0" x2="819.2" y2="0" >
<stop  offset="0" style="stop-color:#511A16;stop-opacity:1" />
<stop  offset="0.505882" style="stop-color:#6D4414;stop-opacity:1" />
<stop  offset="1" style="stop-color:#511A16;stop-opacity:1" />
</linearGradient>
<path style="fill:url(#LinearGradID_362) " d="M-19.7,-9.15L-16.25 -9.15L-16.25 -1L-19.7 -1L-19.7 -9.15" />
<linearGradient
id="LinearGradID_363" gradientUnits="userSpaceOnUse" gradientTransform="matrix(0.00315857, -0.0136871, 0.0039978, 0.000915527, -8.45, -4.65)" spreadMethod ="pad" x1="-819.2" y1="0" x2="819.2" y2="0" >
<stop  offset="0" style="stop-color:#511A16;stop-opacity:1" />
<stop  offset="0.505882" style="stop-color:#6D4414;stop-opacity:1" />
<stop  offset="1" style="stop-color:#511A16;stop-opacity:1" />
</linearGradient>
<path style="fill:url(#LinearGradID_363) " d="M-11.15,-2.1L-8 -6.15L-14 -6.15L-11.15 -2.1M-11.8,-0.7L-15.55 -5.6L-15.55 -7.15L-7.5 -7.15L-0.9 -0.55L-3.3 -0.55L-7.25 -4.4L-10.4 -0.7L-11.8 -0.7" />
</g>
</svg>
