<?xml version="1.0" encoding="utf-8"?>
<svg version="1.1" id="Layer_1"
xmlns="http://www.w3.org/2000/svg"
xmlns:xlink="http://www.w3.org/1999/xlink"
width="38px" height="24px"
xml:space="preserve">
<g id="782" transform="matrix(1, 0, 0, 1, 0, -7.9)">
<path style="fill:#000000;fill-opacity:1" d="M27.35,8.3Q28.55 8.6 29.15 10.5Q29.75 12.4 29.45 14.8L31.85 15.3L32.4 15.35L33 16.95L35.55 17.35Q37.9 17.75 37.5 20.15L35.55 30.4Q34.85 31.35 33.25 31.05L28.05 30.2Q26.1 29.9 26.05 28.2L19.8 27.25L17.95 23L0 25.4L0 19.95L16.85 12.8L17.2 12.85L17.2 12.65L17.25 12.35L21.7 13.25Q21.8 12.45 22.05 11.75L22.45 10.6L23.4 8.95Q24.35 7.75 25.4 7.95L27.35 8.3M9.15,23L5.25 19.15L2.9 20L6.4 23.4L9.15 23M6.8,18.6L10.75 22.7L13.9 22.2L9.45 17.6L6.8 18.6M5.2,23.6L1.55 20.5L1.55 24.2L5.2 23.6M17.05,21.7L16.85 19.35L13.85 16L11.25 16.95L15.45 21.95L17.05 21.7" />
</g>
</svg>
