<?xml version="1.0" encoding="utf-8"?>
<svg version="1.1" id="Layer_1"
xmlns="http://www.w3.org/2000/svg"
xmlns:xlink="http://www.w3.org/1999/xlink"
width="52px" height="56px"
xml:space="preserve">
<g id="466" transform="matrix(1, 0, 0, 1, 0.4, 27.5)">
<path style="fill:#1E1E1E;fill-opacity:1" d="M18.25,-25.95Q16.5 -25.5 15.15 -24.3Q13.8 -23 13.7 -21.1Q13.65 -20 14.2 -19L14.4 -18.9L15.5 -18.8L15.6 -18.85Q16.2 -19.95 17.3 -20.55L20.95 -22.5Q21.8 -22.95 22.15 -23.95L22.4 -24.55L21.75 -25.25Q20.5 -26 18.9 -26.05L18.25 -25.95M14.75,-25.35L14.75 -25.65L14.8 -25.9L15.35 -26.55Q16.65 -27.2 18.15 -27.35L18.15 -27.4Q22.65 -28 23.2 -24.35L22.95 -22.75Q21.55 -19.7 18 -19.3L17 -18.65L16.1 -17.7Q14.5 -16.95 13.5 -18.35Q12.3 -20 12.7 -22Q13.05 -23.6 14.2 -24.8L14.75 -25.35M7.25,-0.35Q6.85 0.55 7.05 1.5Q9.95 3.7 11.9 1L12.45 -0.15Q12.95 -1.7 12.5 -3.35Q12.35 -3.85 12.35 -4.4L12.3 -4.5L11.55 -4.7L11.45 -4.7L9.2 -2.8Q7.95 -1.75 7.25 -0.35M18.75,-11.55Q20.85 -10.85 22.75 -12.1L25 -13.3L24.95 -13.45L24.9 -13.6L24.9 -13.75L24.85 -14L24.9 -14.3L25 -14.6L25.35 -14.75L25.95 -14.7L26.5 -14.35L26.6 -14.25Q28.3 -13.75 29.55 -14.9L30.8 -16Q30.65 -16.55 30.05 -16.7L27.2 -17.65L26.1 -17.85L24.85 -17.4L23.9 -16.55Q23.65 -16.15 23.2 -16.15Q22.5 -16.65 21.45 -15.6L19.65 -13.75Q18.95 -12.95 18.8 -11.85L18.75 -11.55M13.3,-5.8L13.7 -5.55Q14.85 -0.9 11.95 2.75Q10.6 4.45 8.3 3.8Q5.4 3.05 6.25 0.35Q7.6 -3.8 11.3 -6.1L12.5 -6.05L13.3 -5.8M18.05,-13.85Q21.55 -19.1 27.75 -19.4Q34.85 -17.75 30.85 -12.25Q29.65 -10.55 27.5 -10.7Q25.8 -10.8 24.2 -9.65Q19.95 -6.65 17.85 -10.25Q16.85 -12 18.05 -13.85M23.05,-3.5L22.65 -3.35L22 -2.9L21.9 -2.75L21.65 -2.7L21.5 -2.7L21.15 -2.8Q18.6 -1.65 18.2 1.05Q17.8 4.05 17.05 6.75Q16.55 8.65 17.35 10.5Q22.5 10.95 26.05 6.95Q26.8 6.1 26.55 5Q26.15 3.05 23.65 3.15Q23.5 2.8 23.75 2.5L24.85 1.7L25.8 1.3Q26.35 0.55 26.5 -0.35Q26.65 -1.4 26.1 -2.3Q25.2 -3.7 23.6 -3.7L23.05 -3.5M29.75,-1.3L29.45 0.8Q33.65 6.95 26.65 10.4L24.25 11.75Q19.1 14.75 14.15 13Q13.6 12.8 13.45 12.1Q12.3 7.1 15.9 3.8Q16.35 3.4 16.45 2.6Q17.15 -4.4 24.3 -5.25Q26.25 -5.3 28 -4.45Q29.9 -3.5 29.75 -1.3M43.1,-12.7Q48 -13.2 49.15 -9.5Q49.6 -7.95 47.9 -7.45Q42.15 -5.8 41.25 -10.7Q41.05 -11.9 42.3 -12.4L43.1 -12.7M47.1,-10.5L45.1 -11.15L43.3 -11.3L43.15 -11.15L43 -11.05L42.75 -10.95L42.55 -10.65L42.55 -10.6L42.3 -10.45L42.15 -10.35Q42.35 -9.3 43.55 -8.85L46.8 -8.65L47.05 -9.1L47.15 -9.65L47.15 -10.35L47.1 -10.5M51.2,10.65Q51.9 15.55 47.7 16.75Q46.95 16.95 46.35 16.4Q45.15 15.25 46.2 13.75Q45.1 12.7 45 11.35Q44.85 9.2 45.95 7.4Q46.85 5.85 48.2 4.95Q51.4 5.2 51.1 8.75L51.2 10.65M48.85,6.5L48.55 6.45L47.9 7.55Q47.65 8.15 47.65 8.85L47.45 9.85L47.1 9.9L46.6 9.75L46.5 9.75L46.2 10.3Q46.1 10.6 46.15 10.9L46.2 11.45Q47 12.05 47.4 13Q47.75 13.85 47.4 14.7L47 15.4Q49.8 16 50 12.7Q50.1 10.5 49.35 8.45L48.85 6.5M33.2,7.15Q37.35 7.85 36.8 12.55Q36.3 16.45 33.8 19.5Q32.45 21.2 30.1 20.8Q28.4 25.15 24.1 27L21.35 27.25Q15.25 25.95 15.3 20.65Q15.35 19.65 15.95 18.8Q19.6 13.7 25.85 15L27.85 12.7L30.7 8.8Q31.75 7.55 33.2 7.15M33.5,8.95Q31.65 9.45 31.15 11.35L30 14.6L29 16.2L29.35 16.6L29.8 17.15L30.1 18L30.2 18.3Q33.4 18.9 33.95 15.65L34.5 11.7L34.4 9.15L34.3 9L34.2 8.95L33.6 8.9L33.5 8.95M22.25,16.3Q17.25 17.75 17.2 22.2Q17.2 22.9 17.9 23.4Q22.3 26.5 26.2 23.3Q27.75 22 28.1 20L27.15 18.6Q26.6 17.2 25.15 16.6L22.25 16.3M0.7,10.85Q0.95 11.6 1.55 12.25Q2.55 13.35 4.05 13.55Q4.55 13.6 4.75 13.2L5.4 11.25Q5.8 10.25 5.3 9.35Q4.8 8.35 4.7 7.15L4.4 6.85L3 8.4L1.45 9.9Q0.95 10.3 0.7 10.85M4.9,4.85Q10.55 8.85 6.6 14.9L5.75 15.4Q2.1 15.9 0.15 12.35Q-1.45 9.5 1.7 7.15L4.9 4.85M3.4,17.9Q10.1 16.3 12.1 21.55Q14.05 26.7 8.4 28.05L5 27.9Q-1.2 25.85 1.45 19.95Q1.9 18.95 2.8 18.2L3.4 17.9M3.65,19.45Q-0.25 22.6 4 25.5Q4.7 26 5.65 25.8Q9.1 25.15 9.25 22.75Q9.4 20.9 7.55 20.15L5.85 19.5L5.6 19.45L5.5 19.5L5.35 19.65L5 19.8L4.7 19.65L4.45 19.45Q4.05 19.2 3.65 19.45" />
<path style="fill:#3A3A3A;fill-opacity:1" d="M18.9,-26.05Q20.5 -26 21.75 -25.25L22.4 -24.55L22.15 -23.95Q21.8 -22.95 20.95 -22.5L17.3 -20.55Q16.2 -19.95 15.6 -18.85L15.5 -18.8L14.4 -18.9L14.2 -19Q13.65 -20 13.7 -21.1Q13.8 -23 15.15 -24.3Q16.5 -25.5 18.25 -25.95L18.9 -26.05M9.2,-2.8L11.45 -4.7L11.55 -4.7L12.3 -4.5L12.35 -4.4Q12.35 -3.85 12.5 -3.35Q12.95 -1.7 12.45 -0.15L11.9 1Q9.95 3.7 7.05 1.5Q6.85 0.55 7.25 -0.35Q7.95 -1.75 9.2 -2.8M18.8,-11.85Q18.95 -12.95 19.65 -13.75L21.45 -15.6Q22.5 -16.65 23.2 -16.15Q23.65 -16.15 23.9 -16.55L24.85 -17.4L26.1 -17.85L27.2 -17.65L30.05 -16.7Q30.65 -16.55 30.8 -16L29.55 -14.9Q28.3 -13.75 26.6 -14.25L26.5 -14.35L25.95 -14.7L25.35 -14.75L25 -14.6L24.9 -14.3L24.85 -14L24.9 -13.75L24.9 -13.6L24.95 -13.45L25 -13.3L22.75 -12.1Q20.85 -10.85 18.75 -11.55L18.8 -11.85M23.6,-3.7Q25.2 -3.7 26.1 -2.3Q26.65 -1.4 26.5 -0.35Q26.35 0.55 25.8 1.3L24.85 1.7L23.75 2.5Q23.5 2.8 23.65 3.15Q26.15 3.05 26.55 5Q26.8 6.1 26.05 6.95Q22.5 10.95 17.35 10.5Q16.55 8.65 17.05 6.75Q17.8 4.05 18.2 1.05Q18.6 -1.65 21.15 -2.8L21.5 -2.7L21.65 -2.7L21.9 -2.75L22 -2.9L22.65 -3.35L23.05 -3.5L23.6 -3.7M47.15,-10.35L47.15 -9.65L47.05 -9.1L46.8 -8.65L43.55 -8.85Q42.35 -9.3 42.15 -10.35L42.3 -10.45L42.55 -10.6L42.55 -10.65L42.75 -10.95L43 -11.05L43.15 -11.15L43.3 -11.3L45.1 -11.15L47.1 -10.5L47.15 -10.35M49.35,8.45Q50.1 10.5 50 12.7Q49.8 16 47 15.4L47.4 14.7Q47.75 13.85 47.4 13Q47 12.05 46.2 11.45L46.15 10.9Q46.1 10.6 46.2 10.3L46.5 9.75L46.6 9.75L47.1 9.9L47.45 9.85L47.65 8.85Q47.65 8.15 47.9 7.55L48.55 6.45L48.85 6.5L49.35 8.45M33.6,8.9L34.2 8.95L34.3 9L34.4 9.15L34.5 11.7L33.95 15.65Q33.4 18.9 30.2 18.3L30.1 18L29.8 17.15L29.35 16.6L29 16.2L30 14.6L31.15 11.35Q31.65 9.45 33.5 8.95L33.6 8.9M25.15,16.6Q26.6 17.2 27.15 18.6L28.1 20Q27.75 22 26.2 23.3Q22.3 26.5 17.9 23.4Q17.2 22.9 17.2 22.2Q17.25 17.75 22.25 16.3L25.15 16.6M1.45,9.9L3 8.4L4.4 6.85L4.7 7.15Q4.8 8.35 5.3 9.35Q5.8 10.25 5.4 11.25L4.75 13.2Q4.55 13.6 4.05 13.55Q2.55 13.35 1.55 12.25Q0.95 11.6 0.7 10.85Q0.95 10.3 1.45 9.9M4.45,19.45L4.7 19.65L5 19.8L5.35 19.65L5.5 19.5L5.6 19.45L5.85 19.5L7.55 20.15Q9.4 20.9 9.25 22.75Q9.1 25.15 5.65 25.8Q4.7 26 4 25.5Q-0.25 22.6 3.65 19.45Q4.05 19.2 4.45 19.45" />
</g>
</svg>
