<?xml version="1.0" encoding="utf-8"?>
<svg version="1.1" id="Layer_1"
xmlns="http://www.w3.org/2000/svg"
xmlns:xlink="http://www.w3.org/1999/xlink"
width="26px" height="26px"
xml:space="preserve">
<g id="1233" transform="matrix(1, 0, 0, 1, 22.6, 21.85)">
<path style="fill:#100806;fill-opacity:1" d="M-15.35,-8.15L-14.2 -8.45L-6.15 -4.85L-5.45 -2.45L-6.55 -0.55L-0.75 2.2L1.5 -2.55L-12.2 -9L-11.45 -9.2L1.35 -3.2L1.5 -3.15L2.3 -2.55Q3.3 -1.55 3.3 -0.15Q3.3 1.25 2.3 2.2Q1.35 3.2 -0.05 3.2L-0.9 3.1L-1.7 2.8L-6.45 0.85L-9.6 1.85L-21.55 -3.55L-22.6 -6.25L-21.3 -6.6L-20.75 -5L-9.6 0.2L-7.65 -0.5L-7.45 -0.95L-6.35 -2.9L-6.85 -4.5L-15.35 -8.15M-9.5,-4.25L-11.15 -4.95L-12.8 -5.7L-14.35 -6.35L-15.9 -7.05L-17.25 -7.65L-16.6 -7.85L-15.75 -7.45L-14.15 -6.75L-7.65 -3.9L-7.8 -3.5L-9.5 -4.25M-8.9,-1.35L-9.1 -1L-20 -5.8L-19.85 -6.15L-18.45 -5.55L-16.9 -4.9L-15.4 -4.2L-13.85 -3.5L-12.15 -2.8L-10.5 -2.05L-8.9 -1.35" />
<linearGradient
id="LinearGradID_446" gradientUnits="userSpaceOnUse" gradientTransform="matrix(0.001297, -0.00483704, 0.0174713, 0.00468445, -12.4, -5.25)" spreadMethod ="pad" x1="-819.2" y1="0" x2="819.2" y2="0" >
<stop  offset="0" style="stop-color:#511A16;stop-opacity:1" />
<stop  offset="0.505882" style="stop-color:#6D4414;stop-opacity:1" />
<stop  offset="1" style="stop-color:#511A16;stop-opacity:1" />
</linearGradient>
<path style="fill:url(#LinearGradID_446) " d="M-16.6,-7.85L-15.35 -8.15L-6.85 -4.5L-6.35 -2.9L-7.45 -0.95L-7.65 -0.5L-9.6 0.2L-20.75 -5L-21.3 -6.6L-19.45 -7.1L-19.85 -6.15L-20 -5.8L-9.1 -1L-8.9 -1.35L-7.8 -3.5L-7.65 -3.9L-14.15 -6.75L-14.15 -6.8L-15.75 -7.5L-15.75 -7.45L-16.6 -7.85M-16.9,-4.9L-18.45 -5.55L-17.55 -7.6L-17.45 -7.75L-17.25 -7.65L-15.9 -7.05L-16.9 -4.9M-14.2,-8.45L-12.2 -9L1.5 -2.55L-0.75 2.2L-6.55 -0.55L-5.45 -2.45L-6.15 -4.85L-14.2 -8.45M-13.85,-3.5L-15.4 -4.2L-14.35 -6.35L-12.8 -5.7L-13.85 -3.5M-10.5,-2.05L-12.15 -2.8L-11.15 -4.95L-9.5 -4.25L-10.5 -2.05" />
<path style="fill:#9F6329;fill-opacity:1" d="M-18.45,-5.55L-19.85 -6.15L-19.45 -7.1L-17.55 -7.6L-18.45 -5.55M-15.75,-7.45L-15.75 -7.5L-14.15 -6.8L-14.15 -6.75L-15.75 -7.45M-10.5,-2.05L-9.5 -4.25L-7.8 -3.5L-8.9 -1.35L-10.5 -2.05M-18.75,-8.8L-17.3 -8.15L-18.75 -8.8M-15.9,-7.05L-14.35 -6.35L-15.4 -4.2L-16.9 -4.9L-15.9 -7.05M-12.8,-5.7L-11.15 -4.95L-12.15 -2.8L-13.85 -3.5L-12.8 -5.7" />
<path style="fill:#000000;fill-opacity:1" d="M-8.75,-19L-8.95 -19.9L-9.15 -19.9L-9 -20.6L-8.7 -21.25L-7.4 -21.85L-6.3 -21.2L-5.45 -20L-5.75 -20L-6.15 -18.65Q-6 -18.55 -6.3 -18.35L-7 -18.4L-7.45 -17.75L-7.15 -17.45L-4.6 -17.55L-4.45 -16.9Q-4.8 -16.7 -5.2 -16.55L-3.6 -16.6L-3.45 -15.95L-8.6 -16.1L-8.6 -16.05L-9.5 -14.8Q-7.95 -15 -6.65 -14.2L-7.3 -12.35L-8.1 -11.25L-8.55 -10.2L-7.5 -9.6L-7.55 -9.6L-7.7 -9.35L-8.6 -9.1L-11.35 -9.3L-11.35 -9.55L-9.75 -12.05L-9.35 -12.8L-9.6 -12.95L-9.75 -13.05L-11.5 -9.45L-13.4 -9.65L-14.3 -17.2L-13.25 -17.3L-12.35 -14.35L-11.5 -14.2L-11.9 -14.65L-11.25 -16.85L-8.35 -18.65Q-8.6 -18.65 -8.75 -19" />
</g>
</svg>
