<?xml version="1.0" encoding="utf-8"?>
<svg version="1.1" id="Layer_1"
xmlns="http://www.w3.org/2000/svg"
xmlns:xlink="http://www.w3.org/1999/xlink"
width="130px" height="84px"
xml:space="preserve">
<g id="816" transform="matrix(1, 0, 0, 1, 22.85, 5.95)">
<path style="fill:#000000;fill-opacity:1" d="M81,3.35L78.8 3.95L78.75 -2.8L78.8 -2.95L81.65 0.6L81 3.35M85.8,2.85L89.6 8.55L89.25 9.8L86.35 11.5L84.5 10.95L84.65 11.3L85.65 12.6L85.05 16L80.2 19.35L77.7 14.75L80.5 12.85L80.95 12.7L81.45 12.3L83.7 10.65L83.95 9.8L84 9.85L84.3 9.75L84.45 9.4L84.3 9.05L84.2 8.85L84.55 7.8L84.65 7.7L84.85 7.1L84.9 6.55L84.8 6.45L85.8 2.85M87.85,30.6L88.15 30.55L88.35 30.5L90.2 30.55L90.45 30.9L90.8 30.95L91.55 30.75L91.55 30.3L92.75 30.15L93.1 30.4L93.35 30.4L93.75 30.4L93.8 30.05L94.5 29.95L96.65 27.5L97 27.25L97.15 26.8L103.4 19.45L106.95 23.1L100 31.6L96.6 31.75L95.25 30.85L95.15 30.7L95.15 30.9L95.4 32.75L93.15 35.35L86.6 35.9L86.8 30.75L87.85 30.6M93.35,21.5L90.45 24.4L87.25 23.5L86.95 23.4L87 20.5L92.8 19.95L93.35 21.5M85.35,8.9Q85.05 9 85 9.25L85.1 9.95Q85.1 10.05 85.45 10.2L86 10.15L86.3 9.55L86.3 9.15L86.2 8.95L85.85 8.7Q85.55 8.6 85.35 8.9M83.65,11.9Q83.3 11.95 83.05 12.1L82.75 12.6L82.8 13.15L83.2 13.35L83.35 13.35L83.75 13.1L84.2 12.75L83.95 12.3L84 12.25L83.65 11.9M88.8,8.25L88.4 7.95L87.8 7.95L87.55 8.4L87.5 8.95L88.05 9.4L88.55 9.2L88.8 8.75L88.8 8.25M83.55,14.6L82.95 14.7L82.7 15.15Q82.6 15.35 82.9 15.65Q82.95 15.9 83.3 15.95L83.65 15.8L84.2 15.45L84.15 15Q83.9 14.65 83.55 14.6M96.7,28.95Q96.45 28.95 96.25 29.25L95.95 29.8L96.2 30.2L96.3 30.3L96.65 30.35L97.25 30L97.35 29.6L97.4 29.55L97.25 29.1L96.7 28.95M98.6,29.95L98.8 30.6L99.35 30.6L99.8 30.3L100.05 29.85L99.8 29.3L99.25 29.2Q98.95 29.2 98.7 29.45L98.6 29.95M93.8,32L93.65 31.75L93.6 31.55L93 31.4Q92.7 31.5 92.45 31.7L92.25 32.2L92.4 32.35L92.7 32.6L93.15 32.6L93.8 32.45L93.8 32M91.8,33.6L91.55 33.8L91.45 33.9Q91.25 34.1 91.3 34.5Q91.25 34.85 91.45 34.9L91.6 35L91.95 34.95L92.45 34.8L92.65 34.4L92.3 33.9L91.8 33.6M70.65,35.1L75.5 32.75L75.9 32.7L76.75 32.5L77.85 32.25L78.55 32.15L78.75 32.1L78.65 30.4L78.7 29.95L78.55 29.6L78.5 28.6L83.7 28.85L84.3 38.05Q84.1 37.8 83.9 37.9L84.55 38.65L85.95 40.25L84.75 43.45L82.05 47.65L81.6 48.3L81.4 48.25L81.35 48.25L81.3 48.25L81.25 48.25L81.1 48.2L70.6 35.15L70.65 35.1M90.85,62.35Q90.85 58.95 89.05 56.3L88.05 55.1L87.7 54.75L85.75 53.2L85.1 52.85L83.05 50.6L83.6 49.55L83.65 49.25L89.5 48.75L92.8 49.25L94.15 52.95L91.6 55.45L95.1 55.6L96.55 59.5L94.35 62L90.6 64.75L90.85 62.35M87.7,69.85L88.5 69L88.5 70.45L87.8 73.7L84.05 74.85L82.3 72.85Q85.35 72.25 87.7 69.85M73.25,71.75L75 71.7L75.85 72.1Q77.05 72.65 78.45 72.85L80.2 73L81.65 72.95L81.35 75.65L77.4 76.85L75 74.5L73.95 72.85L73.25 71.75M52.75,71.65L68.4 71.65L68.1 72.85L67.7 74.25L66.15 77.2L62.2 77.25L60.7 74.05L59.4 77.3L55.25 77.4L53.6 74.45L53.1 72.85L52.75 71.65M46.7,72.85L46.3 74.35L44.7 77.3L40.75 77.3L39.3 74.1L37.95 77.35L33.8 77.35L32.2 74.4L31.75 72.85L31.4 71.65L47.05 71.65L46.7 72.85M25.65,72.85L22.3 76.2L19.45 77.95L16.05 75.95L16.35 72.45L13.6 74.6L10 72.5L10.05 69.15L10.65 66.8Q11.4 68.45 12.8 69.85Q15.45 72.5 18.95 72.95L22.2 72.85L24.75 72.1L25.55 71.7L25.6 71.7L26.3 71.7L26.45 72.05L25.65 72.85M9.9,64.5L6.7 62.4L4.4 59.95L5.65 56.2L9.15 55.8L6.5 53.55L7.75 49.6L11.05 48.95L16.9 49.15L17.1 49.8L17.5 51.15L19.5 48.75L18.8 47.8L16.45 44.45L15.15 41.35L17.65 38.3L18.3 38.5L18.65 33.25L20.75 31.9L20.85 31.9L21.05 31.7L24.25 28L23.9 33.3L25.35 33.55L27.15 34.35L28 34.7L30.25 35.65L31.6 34L29.75 31.4L29.2 30.6L28.75 29.95L28.35 29L27.95 28L27.45 26.85L29.95 23.8L30.35 23.9L31.7 24.3L32.5 24.5L33.35 24.7L32.9 23.8L32.2 22.55L31.7 21.65L31.95 21.4L33.15 19.9L34 18.85L34.35 18.45L35.7 18.7L36.65 18.9L37.65 19.05L42.3 21.05L14.9 54.55L16.55 52.45L16.45 52.45Q15.95 52.6 15.55 52.85Q15.25 52.95 15.05 53.15L14.9 53.25Q14.1 53.6 13.4 54.25L11.05 57.05L10.6 58.05Q9.7 60 9.7 62.35L9.9 64.5M31.55,14.85L32.75 7L35.4 11.45L31.55 14.85M43.25,18.25L43.2 18.25L42.05 19.7L43.25 14.75L44.45 12.5L50.1 15.2Q46.1 15.4 43.25 18.25M50.25,15.2L56.8 13.5L57.35 14.5L58.7 18.8L58.2 18.15L57.85 17.8Q54.85 15.15 50.8 15.15L50.25 15.2M70.15,32.25L70.7 32.95L69.2 33.3L68.6 32.6L68.55 32.6L67.1 30.8L67.15 30.75L65.9 29.2L65.85 29.25L63.5 26.35L63.55 26.3L62.7 25.25L62.65 25.3L62.55 25.2L62.55 25.1L61.35 23.6L61.25 23.5L60.75 22.9L60.75 22.85L59.5 21.4L58.1 19.7L61.5 17.8L64.75 16.9L65.45 17.6L65.95 18.15L66.55 18.8L67.5 19.75L66.2 23.05L67.95 22.35L68.35 28.1L71.2 28.25L68.6 32.6L70.15 32.25M61.65,63.25L62.35 63.75L63.05 64.25L63.1 66.2L65.3 66.35L64.55 70.3L66.8 70.25L66.25 66.45L66.25 66.4L66.3 66.4L66.5 65.85L70.1 65.85Q70.85 68.1 72.6 69.85L73.2 70.35L73.55 70.65L72.5 70.55L72.35 70.35L61.5 70.35L61.35 63.15L61.65 63.25M56.15,65.85L60 63.05L60.15 70.35L56.55 70.35L55.95 65.85L56.15 65.85M55.25,65.85L54.3 70.35L45.45 70.35L44.85 65.85L55.25 65.85M41.3,63.95L43.9 65.85L44.15 65.85L43.2 70.35L40.15 70.35L40.1 64.15L41.3 63.95M34.85,65.85L37.5 64L38.75 64.15L38.8 70.35L35.2 70.35L34.7 65.95L34.7 65.85L34.85 65.85M27.9,69.85Q29.7 68.1 30.5 65.85L33.95 65.85L32.9 70.35L27.4 70.35L27.9 69.85M40.6,32.5L24.6 52.5Q22.6 51.65 20.35 51.65L18.9 51.75L20 50.55L19.75 50.55L22.15 47.65L25.8 49.95L23.05 46.55L25.35 43.8L29.1 46.8L29.95 45.8L26.2 42.75L28.7 39.75L32.25 42.05L29.6 38.65L34.25 33.05L38.1 35.45L35.25 31.85L37.5 29.15L41.4 32.3L40.6 32.5M42.65,26.35L42.25 31.3L38.3 28.15L40.8 25.15L42.65 26.35M42.75,25.25L41.75 23.95L43 22.5L42.75 25.25M56.85,24.15L56.4 20.6L56.8 20.4L57.1 20.7L57.75 21.4L58.15 21.95L58.4 22.25L56.85 24.15M57.65,30.1L57.05 25.55L57 25.2L57.05 25.2L59.5 23.65L61.55 26.35L57.65 30.1M75.8,50.8L71.05 44.85L70.65 44.35L68.7 41.95L68.65 41.2L68.05 41.1L67.15 40L66.95 39.95L65.35 38L65.45 37.85L64.85 37.1L62.25 33.9L62.05 34L59.9 31.35L59.95 31.35L59.4 31.25L58.6 31.05L60.1 29.65L62.4 27.45L62.7 27.85L62.7 27.65L64.9 30.4L62.05 33.85L65.85 31.55L71.15 38.1L68.5 41.05L72 39.15L74.3 42L71.05 44.85L71.95 45.85L75.15 43.05L77.65 46.15L75.2 48.75L78.4 47.05L82.25 51.85L80.2 51.65L77.5 52L76.9 52.15L76.5 51.65L75.8 50.8M69.55,61.5L69.75 60L70 59.2L69.8 60Q69.6 60.9 69.55 61.95L69.55 61.5M69.6,63.5L69.8 64.75L69.6 63.6L69.6 63.5M52.55,5.75L53.5 5.35L52.35 9.65L52.25 9.7L46 9.25L46.1 8.55L46.5 8.35L48.55 7.4L49.75 6.85L50.9 8.05L51.75 8.85L52.25 9.35L52.25 7.95L52.35 5.9L52.4 5.9L52.55 5.75M40.35,5.25L40.2 5.25L39.85 4.7L39.25 3.15L40.45 0L40.5 0L55 -5.95L52.8 0.5L44.4 4L44.35 4L43.75 4L43.35 4.4L43.3 4.45L41.7 5.05L41.5 4.85L41 4.85Q40.85 4.85 40.85 5.1L40.8 5.45L40.55 5.45L40.35 5.25M42.6,0.65L42.2 0.45L41.75 0.45L41.3 0.7L41.2 1.2L41.65 1.6L42.25 1.65L42.6 1.2Q42.8 1 42.6 0.65M41.15,2.95L40.7 3.4Q40.55 3.55 40.65 3.85L40.75 3.95L41.05 4.2L41.6 4.1L41.65 4.1L41.95 3.8Q42.2 3.55 42.05 3.35L41.9 3L41.65 2.9L41.35 2.9L41.15 2.95M80.1,37.9L80.05 37.9L79.9 38.2L80.3 38.1L80.1 37.9M29.35,7.45L25.5 10.95L22.25 8.45L21.8 5.15L23 3.65L23.1 3.55Q23.35 3.45 23.55 3.3L23.5 3.45L23.65 3.65L24 3.85L24.4 3.75L29.3 7.4L29.35 7.45M24.45,4.25L23.95 4.6L23.95 5L23.95 5.1L23.95 5.25L24.2 5.6L24.5 5.7L24.8 5.75L25.2 5.4L25.3 4.8L25.05 4.4L25 4.4Q24.85 4.2 24.45 4.25M23.55,6.8L23.15 7.15L23 7.65L23.3 8.15L23.85 8.25L24.3 8L24.4 7.35L24.15 6.95Q23.95 6.7 23.55 6.8M6.2,11.85L11.1 18.15L10.9 23.8L6.5 13L6.2 12.8L6.1 12.8L6.2 11.85M10.75,27.2L11.7 28.15L15.5 37.55L15.75 37.75L16.1 37.8L16.25 37.6L15.8 40L14.15 38.3L14.2 38.05L14.05 37.65Q13.8 37.4 13.45 37.4L13.35 37.5L12.3 36.35L12.45 36.25L12.95 36L13.15 35.5L13.15 35.4L13 35.15L12.85 35.05Q12.7 34.8 12.4 34.85L12 35.1L11.7 35.6L8.25 32.1L8.4 28.6L9.2 27.95L9.6 28.2L10 28L10.15 27.9L10.3 27.6L10.3 27.4L10.05 26.9L10.05 26.85L9.6 26.75Q9.4 26.7 9.2 26.95L9.2 27L9.05 27.2L8.05 27.15L5.7 24.7L5.85 19.7L6.1 20L6.35 20.2L6.65 20.25L7.15 20L7.35 19.4L7.15 19Q6.9 18.75 6.5 18.75L6.15 19.05L6 19.25L5.85 19.6L5.85 17.65L6.3 17.45L6.4 16.95L6.2 16.45L6.05 16.35L6 14.1L10.8 25.95L10.75 27.2M16.35,37.2L13.3 29.75L15.8 32.35L16.35 37.2M7.7,21.35Q7.35 21.4 7.25 21.6L6.95 22.1L6.95 22.15L7.15 22.55L7.2 22.6L7.65 22.8L8.1 22.65L8.25 22.55L8.4 22.05L8.2 21.5L7.7 21.35M8.1,24.4L7.85 24.75L7.75 24.95L8.05 25.35L8.1 25.45L8.55 25.6L9.1 25.3L9.25 24.8L9 24.3Q8.8 24.15 8.5 24.15L8.1 24.4M10.95,29.25L10.6 29.3L10.15 29.55L10.05 29.6Q9.9 29.8 9.9 30.1L10.15 30.5Q10.35 30.75 10.65 30.75L11.1 30.5L11.1 30.45L11.4 30L11.35 29.95L11.35 29.8L11.25 29.4L11.1 29.3L10.95 29.25M11.7,31.8L11.25 32.1L10.95 32.5L11 32.65L11.25 33.05L11.6 33.25L11.7 33.2L12.15 32.95L12.5 32.5L12.2 31.95L11.7 31.8" />
<path style="fill:#8B5F3D;fill-opacity:1" d="M82.45,7L84.2 8.85L84.3 9.05L84.45 9.4L84.3 9.75L84 9.85L83.95 9.8L83.7 9.65L81.6 7.35L81.55 7.2L81.6 7.05L82.85 2.1L83.7 2.35L82.45 7M76.35,12.3L75.85 11.5L78.75 9.5Q78.95 9.3 79.05 9.4L82.7 10.15L82.9 10.35L83 10.55L82.85 10.9L82.55 10.9L79.2 10.25L76.35 12.3M101.85,19.15L102.05 19.55L101.85 20.15L101.35 20.5L100.85 20.35L100.65 19.85L100.85 19.25L101.35 18.95L101.85 19.15M90.5,28.25L86.75 28.55L86.85 27.75L90.6 27.4L90.9 27.5L93.55 29.8L93.8 30.05L93.75 30.4L93.35 30.4L93.1 30.4L92.75 30.15L90.5 28.25M94.25,25.95L95.15 28.8L95.15 29.1L94.85 29.35L94.45 29.2L94.25 29.05L93.35 26L93.4 25.8L93.4 25.6L97.9 20.2L97.35 19.6L98.45 19.45L100.7 16.7L101.4 17.35L94.25 25.95M96.55,27.55L96.1 27.4Q95.75 27.25 95.75 26.9L96.1 26.35Q96.25 26.15 96.5 26.15Q96.7 26 96.9 26.3L97.15 26.7L97.15 26.8L97 27.25L96.65 27.5L96.55 27.55M91.55,30.3L91.55 30.75L90.8 30.95L90.45 30.9L90.2 30.55Q90.1 30.15 90.25 29.9L90.8 29.7L91.4 29.75L91.5 29.95L91.55 30.3M88.35,30.5L88.15 30.55L87.85 30.6L87.7 30.5L87.35 30Q87.3 29.6 87.5 29.55L88 29.15Q88.4 29.2 88.65 29.4L88.9 29.75L88.75 30.4L88.35 30.5M84.95,4.2L84.65 4.6L84.1 4.65Q83.7 4.55 83.6 4.25Q83.45 4.1 83.65 3.8Q83.6 3.55 83.9 3.35L84.35 3.3L84.8 3.55L84.95 4.2M84.15,7.7L83.75 7.4L83.65 6.8Q83.65 6.5 84 6.35L84.45 6.3L84.8 6.45L84.9 6.55L84.85 7.1L84.65 7.7L84.55 7.8L84.15 7.7M81.45,12.3L80.95 12.7L80.5 12.85Q80.15 12.8 80 12.55L79.95 12Q80 11.65 80.3 11.55L80.85 11.5L81.25 11.7L81.45 12.3M85.85,8.7L86.2 8.95L86.3 9.15L86.3 9.55L86 10.15L85.45 10.2Q85.1 10.05 85.1 9.95L85 9.25Q85.05 9 85.35 8.9Q85.55 8.6 85.85 8.7M84,12.25L83.95 12.3L84.2 12.75L83.75 13.1L83.35 13.35L83.2 13.35L82.8 13.15L82.75 12.6L83.05 12.1Q83.3 11.95 83.65 11.9L84 12.25M88.8,8.75L88.55 9.2L88.05 9.4L87.5 8.95L87.55 8.4L87.8 7.95L88.4 7.95L88.8 8.25L88.8 8.75M84.15,15L84.2 15.45L83.65 15.8L83.3 15.95Q82.95 15.9 82.9 15.65Q82.6 15.35 82.7 15.15L82.95 14.7L83.55 14.6Q83.9 14.65 84.15 15M99.6,21.15L100 21.3L100.25 21.8L100 22.4L99.6 22.65Q99.3 22.65 99.1 22.45Q98.75 22.15 98.85 21.95L99.05 21.45L99.6 21.15M98.4,24.15L98.2 24.55L97.85 24.75L97.25 24.6L96.95 24.15L97.15 24.05Q97.05 23.85 97.3 23.65Q97.4 23.45 97.75 23.45L98.2 23.5L98.45 23.95L98.4 24.15M97.25,29.1L97.4 29.55L97.35 29.6L97.25 30L96.65 30.35L96.3 30.3L96.2 30.2L95.95 29.8L96.25 29.25Q96.45 28.95 96.7 28.95L97.25 29.1M98.7,29.45Q98.95 29.2 99.25 29.2L99.8 29.3L100.05 29.85L99.8 30.3L99.35 30.6L98.8 30.6L98.6 29.95L98.7 29.45M93.8,32.45L93.15 32.6L92.7 32.6L92.4 32.35L92.25 32.2L92.45 31.7Q92.7 31.5 93 31.4L93.6 31.55L93.65 31.75L93.8 32L93.8 32.45M92.3,33.9L92.65 34.4L92.45 34.8L91.95 34.95L91.6 35L91.45 34.9Q91.25 34.85 91.3 34.5Q91.25 34.1 91.45 33.9L91.55 33.8L91.8 33.6L92.3 33.9M83.9,37.9Q84.1 37.8 84.3 38.05L84.55 38.5L84.55 38.65L83.9 37.9M20.75,31.9L21.05 31.7L20.85 31.9L20.75 31.9M30,21.4L30.6 20.7L31.95 21.4L31.7 21.65L32.2 22.55L30 21.4M36.65,18.9L35.7 18.7L37.6 15.2L38.15 16.15L36.65 18.9M66.55,18.8L65.95 18.15L67.55 16.6L67.65 17.8L66.55 18.8M70.15,32.25L75.75 30.95L75.55 28.45L76.4 28.5L76.6 31.1L76.65 31.2L76.65 31.45L76.75 32.5L75.9 32.7L75.8 31.85L70.7 32.95L70.15 32.25M64.75,16.9L64.95 16.4L65.5 16.25Q65.8 16.25 66 16.4L66.2 16.9L66 17.4Q65.8 17.6 65.5 17.6L65.45 17.6L64.75 16.9M78.7,13.05L78.3 13.55L77.95 13.7L77.85 13.7L77.45 13.45L77.3 12.95L77.25 12.9Q77.4 12.55 77.65 12.5L78.25 12.2L78.6 12.55Q78.85 12.8 78.7 13.05M51.35,2L51.35 1.9L51.55 1.7L51.7 1.6L52.3 1.55L52.5 1.7L52.7 2L52.7 2.45L52.3 2.85L51.65 2.85Q51.4 2.85 51.3 2.5Q51.2 2.2 51.35 2M50.85,4.6L44.65 7.05L44.55 7.15L44.35 7.1L41.05 5.65L40.8 5.45L40.85 5.1Q40.85 4.85 41 4.85L41.5 4.85L41.7 5.05L44.5 6.2L53.6 2.55L54 3.3L51.7 4.25L52.4 5.9L52.35 5.9L52.25 7.95L50.85 4.6M51.3,8.05L51.7 8.45L51.75 8.85L50.9 8.05L51.3 8.05M49.7,2.6L50.05 2.95L50.1 3.45L49.65 3.9L49.1 3.9L48.75 3.5Q48.6 3.3 48.75 3L49.15 2.7L49.7 2.6M47.45,4L47.45 4.65L47.1 5L46.5 5L46.4 5.05L46.1 4.6L46.1 4.05L46.4 3.85L46.55 3.7L47.05 3.65L47.45 4M42.6,1.2L42.25 1.65L41.65 1.6L41.2 1.2L41.3 0.7L41.75 0.45L42.2 0.45L42.6 0.65Q42.8 1 42.6 1.2M41.35,2.9L41.65 2.9L41.9 3L42.05 3.35Q42.2 3.55 41.95 3.8L41.65 4.1L41.6 4.1L41.05 4.2L40.75 3.95L40.65 3.85Q40.55 3.55 40.7 3.4L41.15 2.95L41.35 2.9M44.4,4L44.65 4.3L44.6 4.85L44.3 5.25L43.65 5.25L43.25 4.9L43.3 4.45L43.35 4.4L43.75 4L44.35 4L44.4 4M78.65,30.4L78.5 30.45L78.15 30.8Q77.7 30.8 77.65 30.6L77.35 30.1L77.45 29.45Q77.5 29.25 77.95 29.25L78.4 29.4L78.55 29.6L78.7 29.95L78.65 30.4M78.55,32.15L77.85 32.25Q77.8 32.15 78.2 32.05L78.55 32.15M71.9,29.9L72.1 30.4L71.9 30.85L71.4 31.1L70.85 30.85Q70.6 30.75 70.6 30.4L70.85 29.9L71.4 29.75L71.9 29.9M73.5,29.9L73.7 29.4L74.3 29.25L74.75 29.4L75 29.9L74.75 30.4Q74.55 30.6 74.3 30.6L73.7 30.4L73.5 29.9M80.3,38.1L79.9 38.2L80.05 37.9L80.1 37.9L80.3 38.1M27.45,2.9L24.4 3.75L24 3.85L23.65 3.65L23.5 3.45L23.55 3.3L27.65 2.1L33.35 3.75L32.55 4.5L27.45 2.9M26.9,5.05L26.7 4.55L26.7 4L27.2 3.7L27.8 3.8L28.05 4.3L27.95 4.8L27.5 5.15L26.9 5.05M29.65,4.5Q29.85 4.4 30.1 4.7L30.45 5.05L30.25 5.65L29.95 6L29.4 5.85L29.15 5.35Q29.05 5.05 29.2 4.8Q29.3 4.55 29.65 4.5M25,4.4L25.05 4.4L25.3 4.8L25.2 5.4L24.8 5.75L24.5 5.7L24.2 5.6L23.95 5.25L23.95 5.1L23.95 5L23.95 4.6L24.45 4.25Q24.85 4.2 25 4.4M24.15,6.95L24.4 7.35L24.3 8L23.85 8.25L23.3 8.15L23 7.65L23.15 7.15L23.55 6.8Q23.95 6.7 24.15 6.95M28.05,28.85L27.85 28.35L27.95 28L28.35 29L28.05 28.85M29.2,30.6L29.75 31.4L28 34.7L27.15 34.35L29.2 30.6M36.1,14.45L36.55 14.6L36.8 15.05L36.55 15.55L36.1 15.75L35.5 15.55L35.3 15.05L35.5 14.6L36.1 14.45M34.25,16.75L34.8 16.6L35.3 16.75L35.5 17.25L35.3 17.75Q35.1 17.95 34.8 17.95Q34.55 17.95 34.25 17.75L34.05 17.25L34.25 16.75M33.15,19.9Q32.9 19.8 32.9 19.4L33.15 18.95L33.7 18.8L34 18.85L33.15 19.9M32.9,23.8L33.35 24.7L32.5 24.5L32.9 23.8M31.7,24.3L30.35 23.9L30.45 23.7L31 23.55Q31.3 23.55 31.5 23.7L31.7 24.2L31.7 24.3M10.95,24.05L14.75 22.8L14.8 23.65L11.2 24.95L13.3 29.75L16.35 37.2L16.25 37.6L16.1 37.8L15.75 37.75L15.5 37.55L11.7 28.15L10.8 25.95L6 14.1L5.75 13.3Q5.6 13.15 5.75 13.05L6 12.85L6.1 12.8L6.2 12.8L6.5 13L10.9 23.8L10.95 24.05M5.1,15L4.6 15.2L4.1 15.05Q3.85 14.85 3.9 14.6Q3.9 14.2 4.15 14.05L4.6 13.75L5.1 14L5.3 14.4L5.1 15M5.85,17.65L5.6 17.75L5.5 17.8L5.2 17.65L4.95 17.1L5.25 16.55Q5.4 16.3 5.7 16.3L6.05 16.35L6.2 16.45L6.4 16.95L6.3 17.45L5.85 17.65M5.85,19.6L6 19.25L6.15 19.05L6.5 18.75Q6.9 18.75 7.15 19L7.35 19.4L7.15 20L6.65 20.25L6.35 20.2L6.1 20L5.85 19.7L5.85 19.6M9.05,27.2L9.2 27L9.2 26.95Q9.4 26.7 9.6 26.75L10.05 26.85L10.05 26.9L10.3 27.4L10.3 27.6L10.15 27.9L10 28L9.6 28.2L9.2 27.95L8.9 27.5L9.05 27.2M11.7,35.6L12 35.1L12.4 34.85Q12.7 34.8 12.85 35.05L13 35.15L13.15 35.4L13.15 35.5L12.95 36L12.45 36.25L12.3 36.35L12 36.15L11.9 36.15L11.8 35.85L11.8 35.7L11.7 35.6M13.35,37.5L13.45 37.4Q13.8 37.4 14.05 37.65L14.2 38.05L14.15 38.3L14 38.6L13.9 38.7L13.45 38.85Q13.2 38.9 13.05 38.65L12.75 38.2L13.1 37.7L13.35 37.5M8.2,21.5L8.4 22.05L8.25 22.55L8.1 22.65L7.65 22.8L7.2 22.6L7.15 22.55L6.95 22.15L6.95 22.1L7.25 21.6Q7.35 21.4 7.7 21.35L8.2 21.5M8.5,24.15Q8.8 24.15 9 24.3L9.25 24.8L9.1 25.3L8.55 25.6L8.1 25.45L8.05 25.35L7.75 24.95L7.85 24.75L8.1 24.4L8.5 24.15M11.1,29.3L11.25 29.4L11.35 29.8L11.35 29.95L11.4 30L11.1 30.45L11.1 30.5L10.65 30.75Q10.35 30.75 10.15 30.5L9.9 30.1Q9.9 29.8 10.05 29.6L10.15 29.55L10.6 29.3L10.95 29.25L11.1 29.3M12.2,31.95L12.5 32.5L12.15 32.95L11.7 33.2L11.6 33.25L11.25 33.05L11 32.65L10.95 32.5L11.25 32.1L11.7 31.8L12.2 31.95M26.8,30.05L27.35 29.9L27.85 30.05L28.05 30.5L27.85 31L27.35 31.2L26.8 31L26.6 30.5L26.8 30.05M26.1,32.05L26.6 32.2L26.8 32.7L26.6 33.2L26.1 33.4L25.55 33.2L25.35 32.7L25.55 32.2L26.1 32.05" />
<path style="fill:#0B0B0B;fill-opacity:1" d="M81.25,11.7L80.85 11.5L80.3 11.55Q80 11.65 79.95 12L80 12.55Q80.15 12.8 80.5 12.85L77.7 14.75L76.35 12.3L79.2 10.25L82.55 10.9L82.85 10.9L83 10.55L82.9 10.35L82.7 10.15L79.05 9.4Q78.95 9.3 78.75 9.5L78.8 3.95L81 3.35L81.65 0.6L82.85 2.1L81.6 7.05L81.55 7.2L81.6 7.35L83.7 9.65L83.95 9.8L83.7 10.65L81.45 12.3L81.25 11.7M84.8,6.45L84.45 6.3L84 6.35Q83.65 6.5 83.65 6.8L83.75 7.4L84.15 7.7L84.55 7.8L84.2 8.85L82.45 7L83.7 2.35L85.8 2.85L84.8 6.45M101.35,18.95L100.85 19.25L100.65 19.85L100.85 20.35L101.35 20.5L101.85 20.15L102.05 19.55L101.85 19.15L101.35 18.95M92.75,30.15L91.55 30.3L91.5 29.95L91.4 29.75L90.8 29.7L90.25 29.9Q90.1 30.15 90.2 30.55L88.35 30.5L88.75 30.4L88.9 29.75L88.65 29.4Q88.4 29.2 88 29.15L87.5 29.55Q87.3 29.6 87.35 30L87.7 30.5L87.85 30.6L86.8 30.75L86.75 28.55L90.5 28.25L92.75 30.15M86.85,27.75L86.95 23.4L87.25 23.5L90.45 24.4L93.35 21.5L92.8 19.95L97.35 19.6L97.9 20.2L93.4 25.6L93.4 25.8L93.35 26L94.25 29.05L94.45 29.2L94.85 29.35L95.15 29.1L95.15 28.8L94.25 25.95L101.4 17.35L103.4 19.45L97.15 26.8L97.15 26.7L96.9 26.3Q96.7 26 96.5 26.15Q96.25 26.15 96.1 26.35L95.75 26.9Q95.75 27.25 96.1 27.4L96.55 27.55L96.65 27.5L94.5 29.95L93.8 30.05L93.55 29.8L90.9 27.5L90.6 27.4L86.85 27.75M84.8,3.55L84.35 3.3L83.9 3.35Q83.6 3.55 83.65 3.8Q83.45 4.1 83.6 4.25Q83.7 4.55 84.1 4.65L84.65 4.6L84.95 4.2L84.8 3.55M99.05,21.45L98.85 21.95Q98.75 22.15 99.1 22.45Q99.3 22.65 99.6 22.65L100 22.4L100.25 21.8L100 21.3L99.6 21.15L99.05 21.45M98.45,23.95L98.2 23.5L97.75 23.45Q97.4 23.45 97.3 23.65Q97.05 23.85 97.15 24.05L96.95 24.15L97.25 24.6L97.85 24.75L98.2 24.55L98.4 24.15L98.45 23.95M81.1,48.2L81.25 48.25L81.3 48.25L81.35 48.25L81.4 48.25L81.6 48.3L82.05 47.65L83.6 49.55L83.05 50.6L81.1 48.2M80.2,73L78.45 72.85Q77.05 72.65 75.85 72.1L75 71.7Q85.55 71.35 88.05 68Q92.55 61.95 85.1 52.85L85.75 53.2L87.7 54.75L88.05 55.1L89.05 56.3Q90.85 58.95 90.85 62.35L90.6 64.75Q90.1 67.1 88.5 69L87.7 69.85Q85.35 72.25 82.3 72.85L81.65 72.95L80.2 73M73.95,72.85L68.1 72.85L68.4 71.65L71.95 71.65L72 71.75L73.25 71.75L73.95 72.85M53.1,72.85L46.7 72.85L47.05 71.65L52.75 71.65L53.1 72.85M31.75,72.85L25.65 72.85L26.45 72.05L26.3 71.7L29.2 71.75L29.3 71.65L31.4 71.65L31.75 72.85M9.7,62.35Q9.7 60 10.6 58.05L11.05 57.05L13.4 54.25Q14.1 53.6 14.9 53.25L15.05 53.15Q15.25 52.95 15.55 52.85Q15.95 52.6 16.45 52.45L16.55 52.45L14.9 54.55Q9.05 62.5 13.15 68Q15.6 71.25 25.55 71.7L24.75 72.1L22.2 72.85L18.95 72.95Q15.45 72.5 12.8 69.85Q11.4 68.45 10.65 66.8Q10.1 65.7 9.9 64.5L9.7 62.35M17.1,49.8L18.8 47.8L19.5 48.75L17.5 51.15L17.1 49.8M27.15,34.35L25.35 33.55L23.9 33.3L24.25 28L30 21.4L32.2 22.55L32.9 23.8L32.5 24.5L31.7 24.3L31.7 24.2L31.5 23.7Q31.3 23.55 31 23.55L30.45 23.7L30.35 23.9L29.95 23.8L27.45 26.85L27.95 28L27.85 28.35L28.05 28.85L28.35 29L28.75 29.95L29.2 30.6L27.15 34.35M35.4,11.45L37.6 15.2L35.7 18.7L34.35 18.45L34 18.85L33.7 18.8L33.15 18.95L32.9 19.4Q32.9 19.8 33.15 19.9L31.95 21.4L30.6 20.7L31.55 14.85L35.4 11.45M38.15,16.15L41 10.85L44.45 12.5L43.25 14.75L42.05 19.7L43.2 18.25L43.25 18.25Q46.1 15.4 50.1 15.2L50.15 15.2L50.2 15.2L50.25 15.2L50.8 15.15Q54.85 15.15 57.85 17.8L58.2 18.15L58.7 18.8L57.35 14.5L56.8 13.5L62.2 12.05L67.55 16.6L65.95 18.15L65.45 17.6L65.5 17.6Q65.8 17.6 66 17.4L66.2 16.9L66 16.4Q65.8 16.25 65.5 16.25L64.95 16.4L64.75 16.9L61.5 17.8L58.1 19.7Q55.05 16.7 50.8 16.7Q46.7 16.7 43.7 19.45L43.4 19.7L42.35 21L42.3 21.05L37.65 19.05L36.65 18.9L38.15 16.15M66.55,18.8L67.65 17.8L67.95 22.35L66.2 23.05L67.5 19.75L66.55 18.8M68.6,32.6L71.2 28.25L75.55 28.45L75.75 30.95L70.15 32.25L68.6 32.6M76.4,28.5L78.5 28.6L78.55 29.6L78.4 29.4L77.95 29.25Q77.5 29.25 77.45 29.45L77.35 30.1L77.65 30.6Q77.7 30.8 78.15 30.8L78.5 30.45L78.65 30.4L78.75 32.1L78.55 32.15L78.2 32.05Q77.8 32.15 77.85 32.25L76.75 32.5L76.65 31.45L76.65 31.2L76.6 31.1L76.4 28.5M73.2,70.35L72.6 69.85Q70.85 68.1 70.1 65.85L66.5 65.85L67.05 64.1L69.6 63.6L69.8 64.75L69.6 63.5L69.6 62.65L69.55 61.95Q69.6 60.9 69.8 60L70 59.2L69.75 60L69.55 61.5L69.5 60.9L69.9 54.6L76.1 52.6L77 52.3L76.5 51.65L76.9 52.15L77.5 52L80.2 51.65L82.25 51.85L82.4 51.9Q92.25 63.1 87 67.4Q82.1 71.35 73.55 70.65L73.2 70.35M44.85,65.85L44.55 63.6L44.15 65.85L43.9 65.85L41.3 63.95L40.1 64.15L39.6 64.15L39.45 64.15L39.25 64.15L38.75 64.15L37.5 64L34.85 65.85L34.7 65.85L34.4 63.65L33.95 65.85L30.5 65.85Q29.7 68.1 27.9 69.85L27.4 70.35L27.15 70.6L27 70.7Q18.9 71.15 14.2 67.4Q8.95 63.1 18.9 51.75L20.35 51.65Q22.6 51.65 24.6 52.5L40.6 32.5L41.4 32.3L42.25 31.3L42.65 26.35L40.8 25.15L41.75 23.95L42.75 25.25L43 22.5L43.4 21.95L44.25 20.9L44.4 20.7Q47.05 18.1 50.8 18.1Q54.25 18.1 56.8 20.4L56.4 20.6L56.85 24.15L58.4 22.25L59.5 23.65L57.05 25.2L57 25.2L57.05 25.55L57.65 30.1L61.55 26.35L60.1 29.65L58.6 31.05L59.4 31.25L59.95 31.35L59.9 31.35L62.05 34L54.15 37.45L47.25 35.85L46.15 35.55L46.8 37L45.2 38.65L47.2 41L49.2 39.95Q51.05 41.6 53.3 42.25L53.4 44.7L56.6 44.9L56.95 43.85L58.05 45.9Q56.3 47.75 55.65 50.05L53.35 50.2L53.25 51.2L54.2 51.15L55.45 51.1L52.7 56.55L52.6 56.55L52.55 56.6L53.65 56.55L53.7 56.5L53.8 56.5L56.55 51L59.15 50.9L56.4 56.35L55.65 56.4L55.65 56.45L56.5 58.5L54.9 60.15L56.9 62.5L58.9 61.45L60.45 62.6L60.65 62.7L61.25 63.05L61.2 63.05L60 63.05L56.15 65.85L55.95 65.85L55.65 63.7L55.25 65.85L44.85 65.85M83.2,56.7Q81.8 55.9 80.05 55.9L78.75 56.1L80.05 62.25L80.05 56.65L80.15 56.65Q81.65 56.65 82.95 57.35L80.2 62.25L84.35 57.5L83.2 56.7M85.25,65.3L80.2 62.55L85.05 66.6L85.75 65.55Q86.6 64.15 86.6 62.4L86.45 61.2L80.6 62.4L85.95 62.4L85.95 62.5Q85.95 64 85.25 65.3M70.7,32.95L75.8 31.85L75.9 32.7L75.5 32.75L70.65 35.1L70.6 35.15L69.1 33.3L69.2 33.3L70.7 32.95M78.6,12.55L78.25 12.2L77.65 12.5Q77.4 12.55 77.25 12.9L77.3 12.95L77.45 13.45L77.85 13.7L77.95 13.7L78.3 13.55L78.7 13.05Q78.85 12.8 78.6 12.55M51.3,2.5Q51.4 2.85 51.65 2.85L52.3 2.85L52.7 2.45L52.7 2L52.5 1.7L52.3 1.55L51.7 1.6L51.55 1.7L51.35 1.9L51.35 2Q51.2 2.2 51.3 2.5M53.5,5.35L52.55 5.75L52.4 5.9L51.7 4.25L54 3.3L53.5 5.35M52.8,0.5L53.6 2.55L44.5 6.2L41.7 5.05L43.3 4.45L43.25 4.9L43.65 5.25L44.3 5.25L44.6 4.85L44.65 4.3L44.4 4L52.8 0.5M42.25,9.05L42.1 8.85L40.55 5.45L40.8 5.45L41.05 5.65L44.35 7.1L44.55 7.15L44.65 7.05L50.85 4.6L52.25 7.95L52.25 9.35L51.75 8.85L51.7 8.45L51.3 8.05L50.9 8.05L49.75 6.85L48.55 7.4L46.5 8.35L46.1 8.55L46 9.25L42.25 9.05M49.15,2.7L48.75 3Q48.6 3.3 48.75 3.5L49.1 3.9L49.65 3.9L50.1 3.45L50.05 2.95L49.7 2.6L49.15 2.7M47.05,3.65L46.55 3.7L46.4 3.85L46.1 4.05L46.1 4.6L46.4 5.05L46.5 5L47.1 5L47.45 4.65L47.45 4L47.05 3.65M49.2,19.25L50.5 25.4L50.5 19.8L50.6 19.8Q52.1 19.8 53.4 20.5L50.65 25.4L54.8 20.65Q54.3 20.15 53.65 19.85Q52.25 19.05 50.5 19.05L49.2 19.25M44.8,22.4Q44 23.8 44 25.55L44.2 27.05L50.35 25.7L46.25 30.45L47.35 31.25Q48.75 32.1 50.5 32.1L51.9 31.95L50.6 25.7L50.5 25.7L50.5 31.45Q48.9 31.45 47.65 30.7L50.45 25.7L50.35 25.7L50.45 25.55L44.75 25.55Q44.75 24 45.45 22.75L50.5 25.55L50.5 25.5L45.65 21.3Q45.1 21.75 44.8 22.4M57.05,25.55L56.65 24.4L51.05 25.55L55.75 25.55L56.35 25.65L56.4 25.6L56.4 25.65Q56.4 27.15 55.7 28.45L50.65 25.7L55.5 29.75L56.2 28.7Q57.05 27.3 57.05 25.55M66.3,39.85L66 40.95L64.75 38.7L65.35 38L66.95 39.95L66.3 39.85M44.65,48.7Q42.7 46.9 40.1 46.7L39.25 46.65L38.95 46.65Q36.15 46.7 34.05 48.55L33.5 49.05L33.4 49.15Q31.3 51.3 31.15 54.25L31.1 54.8L31.1 55.05Q31.15 58.1 33.25 60.35L33.5 60.55L33.85 60.85Q36 62.85 39.1 62.95L39.25 62.95L39.95 62.95Q42.75 62.65 44.85 60.7L45 60.55L45.55 60L46.75 58.1L45.75 58.25L45.15 59.2L44.6 58.15Q43.6 57.9 42.9 57.2L42.4 56.55L41.9 57.1Q40.9 58.1 39.6 58.1Q38.25 58.1 37.25 57.1Q36.3 56.1 36.3 54.8Q36.3 53.45 37.25 52.45Q38.25 51.5 39.6 51.5Q40.9 51.5 41.9 52.45L42.25 52.85L42.9 52L43.05 51.85L42.8 51.55L42.2 51L44.15 49.95L43.2 51.75Q43.85 51.2 44.65 51.05L45 50.3L45.5 50.95L46.5 51.1L45.4 49.5L45 49.05L44.65 48.7M58.9,42.4L57 43.7L57.35 42.6L58.9 42.4M71.4,29.75L70.85 29.9L70.6 30.4Q70.6 30.75 70.85 30.85L71.4 31.1L71.9 30.85L72.1 30.4L71.9 29.9L71.4 29.75M73.7,30.4L74.3 30.6Q74.55 30.6 74.75 30.4L75 29.9L74.75 29.4L74.3 29.25L73.7 29.4L73.5 29.9L73.7 30.4M63,42.8Q62.05 43.05 61.15 43.5L59.7 42.15L61.45 41.45L63 42.8M64.35,42.55L65.95 41.05L65.55 42.4L64.35 42.55M29.3,7.4L24.4 3.75L27.45 2.9L32.55 4.5L29.35 7.45L29.3 7.4M27.5,5.15L27.95 4.8L28.05 4.3L27.8 3.8L27.2 3.7L26.7 4L26.7 4.55L26.9 5.05L27.5 5.15M29.2,4.8Q29.05 5.05 29.15 5.35L29.4 5.85L29.95 6L30.25 5.65L30.45 5.05L30.1 4.7Q29.85 4.4 29.65 4.5Q29.3 4.55 29.2 4.8M29.75,31.4L31.6 34L30.25 35.65L28 34.7L29.75 31.4M35.5,14.6L35.3 15.05L35.5 15.55L36.1 15.75L36.55 15.55L36.8 15.05L36.55 14.6L36.1 14.45L35.5 14.6M34.05,17.25L34.25 17.75Q34.55 17.95 34.8 17.95Q35.1 17.95 35.3 17.75L35.5 17.25L35.3 16.75L34.8 16.6L34.25 16.75L34.05 17.25M-1.45,14.8L6.2 11.85L6.1 12.8L6 12.85L5.75 13.05Q5.6 13.15 5.75 13.3L6 14.1L6.05 16.35L5.7 16.3Q5.4 16.3 5.25 16.55L4.95 17.1L5.2 17.65L5.5 17.8L5.6 17.75L5.85 17.65L5.85 19.6L5.85 19.7L5.7 24.7L8.05 27.15L9.05 27.2L8.9 27.5L9.2 27.95L8.4 28.6L8.25 32.1L11.7 35.6L11.8 35.7L11.8 35.85L11.9 36.15L12 36.15L12.3 36.35L13.35 37.5L13.1 37.7L12.75 38.2L13.05 38.65Q13.2 38.9 13.45 38.85L13.9 38.7L14 38.6L14.15 38.3L15.8 40L9.4 42.55L7.55 41.35L-1.85 17.3L-1.45 14.8M10.8,25.95L11.7 28.15L10.75 27.2L10.8 25.95M15.8,32.35L13.3 29.75L11.2 24.95L14.8 23.65L15.8 32.35M14.75,22.8L10.95 24.05L10.9 23.8L11.1 18.15L14.75 22.8M5.3,14.4L5.1 14L4.6 13.75L4.15 14.05Q3.9 14.2 3.9 14.6Q3.85 14.85 4.1 15.05L4.6 15.2L5.1 15L5.3 14.4M-2.7,25.55L-1.2 24.85L0.6 29.3L1.05 30.35L1.35 31.15L2.2 33.55L-3 35.5L-2.7 25.55M-3,35.9L2.7 35.1L4.45 39.65L-3.3 42.7L-3 35.9M-2.6,21.15L-2.4 21.75L-1.7 23.45L-2.65 23.75L-2.6 21.15M26.6,30.5L26.8 31L27.35 31.2L27.85 31L28.05 30.5L27.85 30.05L27.35 29.9L26.8 30.05L26.6 30.5M25.55,32.2L25.35 32.7L25.55 33.2L26.1 33.4L26.6 33.2L26.8 32.7L26.6 32.2L26.1 32.05L25.55 32.2M38.75,47.5L37.75 50.5L34.9 48.95Q36.5 47.65 38.75 47.5M36.35,51.55L35.95 52.1L34.75 49.95L36.9 51.05L36.35 51.55M39.6,50.2L38.75 50.3L39.5 47.9L40.2 50.3L39.6 50.2M32.8,54.65L35.1 53.95L35.05 54.8L35.1 55.4L32.85 54.7L32.8 54.65M33.85,49.95L35.4 52.9L32 53.95Q32.2 51.7 33.85 49.95M35.3,56.45L33.7 59.55Q32.1 57.65 31.95 55.35L35.3 56.35L35.3 56.45M37.9,59.05L38.8 62.1Q36.35 61.95 34.6 60.4L37.5 58.85L37.9 59.05M36.7,58.35L34.8 59.35L35.85 57.4L36.35 58L36.7 58.35M39.5,61.3L38.9 59.3L39.6 59.35L40.15 59.35L39.5 61.3M23.5,56.75Q22.9 56.4 22.25 56.3L20.3 62.3L23.1 57.4L23.15 57.45Q24.5 58.2 25.25 59.45L20.4 62.35L26.4 60.3L25.85 59.05Q25 57.65 23.5 56.75M26.4,64.55L20.75 62.7L25.35 65.35L25.3 65.4Q24.55 66.75 23.3 67.5L20.3 62.55L22.45 68.55L23.55 68Q25 67.15 25.9 65.65L26.4 64.55M20.3,62.35L18.2 56.3Q17.45 56.4 16.9 56.8Q15.45 57.65 14.6 59.15Q14.2 59.8 14.05 60.55L20.1 62.45L14.1 64.5L14.65 65.7Q15.5 67.2 17 68.05L18.25 68.65L20.25 62.55L20.2 62.5L17.3 67.5Q15.9 66.7 15.2 65.4L20.15 62.45L20.1 62.45L20.2 62.35L15.25 59.55Q16 58.2 17.25 57.45L20.25 62.4L20.3 62.35M74.35,59.25Q73.55 60.65 73.55 62.4L73.75 63.9L79.9 62.55L75.8 67.3L76.9 68.1Q78.3 68.95 80.05 68.95L81.45 68.8L80.15 62.55L80.05 62.55L80.05 68.3Q78.45 68.3 77.2 67.55L80 62.55L79.9 62.55L80 62.4L74.3 62.4Q74.3 60.85 75 59.6L80.05 62.4L80.05 62.35L75.2 58.15L74.35 59.25M61.3,56.1L64.05 50.6L64.45 50.6L66.7 50.5L66.7 50.65L64.05 55.95L61.3 56.1M65.75,55.9L65.15 55.9L66.8 52.55L67 55.8L65.75 55.9M62.95,50.7L60.2 56.15L57.55 56.3L60.3 50.8L62.95 50.7M61.65,63.25L63 63.75L63.05 64.25L62.35 63.75L61.65 63.25M51.65,51.3L48.9 56.75L48.85 56.75L48.8 56.8L49.9 56.75L49.95 56.7L50.05 56.7L52.8 51.2L51.65 51.3M47.9,51.8L47.85 51.8L48.5 52.75L49.15 51.4L48 51.5L47.9 51.8M47.35,52.8Q46.55 52 45.5 52Q44.55 52 43.85 52.6L43.6 52.8Q42.9 53.55 42.9 54.6L42.9 54.8Q42.95 55.75 43.6 56.5L43.8 56.7Q44.55 57.2 45.5 57.2L46.25 57.1L46.75 56.95L47.35 56.5Q48.1 55.7 48.1 54.6L47.95 53.7L47.35 52.8M47.15,53.15L47.75 54.2L47.75 54.6Q47.75 55.5 47.05 56.15L46.45 56.65L45.5 56.85L45.3 56.85Q44.55 56.75 44.05 56.25L43.95 56.15Q43.25 55.5 43.25 54.6Q43.25 53.6 43.95 53.05L44 53Q44.65 52.35 45.5 52.35Q46.5 52.35 47.05 53.05L47.15 53.15M42.8,58L43.25 57.6L44.15 59.35L42.4 58.45L42.8 58M41.55,58.95L44.15 60.35Q42.4 61.75 40.2 62L41.15 59.15L41.55 58.95M40.35,47.55Q42.25 47.85 43.85 49.1L41.2 50.5L40.35 47.55M-11.2,25L-10.35 27.45L-20.45 36.65L-22.85 35.7L-11.2 25M-6.4,38.5L-8.35 40.15L-6.25 38.95L-4 45.25L-8.45 40.35L-13.9 45.4L-18.85 37.85L-9.8 29.1L-6.4 38.5" />
<path style="fill:#BD8051;fill-opacity:1" d="M78.4,47.05L75.2 48.75L77.65 46.15L75.15 43.05L71.95 45.85L71.05 44.85L74.3 42L72 39.15L68.5 41.05L71.15 38.1L65.85 31.55L62.05 33.85L64.9 30.4L62.7 27.65L62.7 27.85L62.4 27.45L60.1 29.65L61.55 26.35L59.5 23.65L58.4 22.25L58.15 21.95L57.75 21.4L57.1 20.7L56.8 20.4Q54.25 18.1 50.8 18.1Q47.05 18.1 44.4 20.7L44.25 20.9L43.4 21.95L43 22.5L41.75 23.95L40.8 25.15L38.3 28.15L42.25 31.3L41.4 32.3L37.5 29.15L35.25 31.85L38.1 35.45L34.25 33.05L29.6 38.65L32.25 42.05L28.7 39.75L26.2 42.75L29.95 45.8L29.1 46.8L25.35 43.8L23.05 46.55L25.8 49.95L22.15 47.65L19.75 50.55L20 50.55L18.9 51.75Q8.95 63.1 14.2 67.4Q18.9 71.15 27 70.7L27.15 70.6L27.4 70.35L32.9 70.35L33.95 65.85L34.4 63.65L34.7 65.85L34.7 65.95L35.2 70.35L38.8 70.35L38.75 64.15L39.25 64.15L39.45 64.15L39.6 64.15L40.1 64.15L40.15 70.35L43.2 70.35L44.15 65.85L44.55 63.6L44.85 65.85L45.45 70.35L54.3 70.35L55.25 65.85L55.65 63.7L55.95 65.85L56.55 70.35L60.15 70.35L60 63.05L61.2 63.05L61.35 63.15L61.5 70.35L72.35 70.35L72.5 70.55L73.55 70.65Q82.1 71.35 87 67.4Q92.25 63.1 82.4 51.9L82.25 51.85L78.4 47.05M73.25,71.75L72 71.75L71.95 71.65L68.4 71.65L52.75 71.65L47.05 71.65L31.4 71.65L29.3 71.65L29.2 71.75L26.3 71.7L25.6 71.7L25.55 71.7Q15.6 71.25 13.15 68Q9.05 62.5 14.9 54.55L42.3 21.05L42.35 21L43.4 19.7L43.7 19.45Q46.7 16.7 50.8 16.7Q55.05 16.7 58.1 19.7L59.5 21.4L60.75 22.85L60.75 22.9L61.25 23.5L61.35 23.6L62.55 25.1L62.55 25.2L62.65 25.3L62.7 25.25L63.55 26.3L63.5 26.35L65.85 29.25L65.9 29.2L67.15 30.75L67.1 30.8L68.55 32.6L68.6 32.6L69.2 33.3L69.1 33.3L70.6 35.15L81.1 48.2L83.05 50.6L85.1 52.85Q92.55 61.95 88.05 68Q85.55 71.35 75 71.7L73.25 71.75M84.35,57.5L80.2 62.25L82.95 57.35Q81.65 56.65 80.15 56.65L80.05 56.65L80.05 62.25L78.75 56.1L80.05 55.9Q81.8 55.9 83.2 56.7L84.35 57.5M85.95,62.5L85.95 62.4L80.6 62.4L86.45 61.2L86.6 62.4Q86.6 64.15 85.75 65.55L85.05 66.6L80.2 62.55L85.25 65.3Q85.95 64 85.95 62.5M50.5,19.05Q52.25 19.05 53.65 19.85Q54.3 20.15 54.8 20.65L50.65 25.4L53.4 20.5Q52.1 19.8 50.6 19.8L50.5 19.8L50.5 25.4L49.2 19.25L50.5 19.05M45.65,21.3L50.5 25.5L50.5 25.55L45.45 22.75Q44.75 24 44.75 25.55L50.45 25.55L50.35 25.7L50.45 25.7L47.65 30.7Q48.9 31.45 50.5 31.45L50.5 25.7L50.6 25.7L51.9 31.95L50.5 32.1Q48.75 32.1 47.35 31.25L46.25 30.45L50.35 25.7L44.2 27.05L44 25.55Q44 23.8 44.8 22.4Q45.1 21.75 45.65 21.3M56.2,28.7L55.5 29.75L50.65 25.7L55.7 28.45Q56.4 27.15 56.4 25.65L56.4 25.6L56.35 25.65L55.75 25.55L51.05 25.55L56.65 24.4L57.05 25.55Q57.05 27.3 56.2 28.7M-2.65,23.75L-1.7 23.45L-2.4 21.75L-2.6 21.15L-1.85 17.3L7.55 41.35L4.45 39.65L2.7 35.1L-3 35.9L-3 35.5L2.2 33.55L1.35 31.15L1.05 30.35L0.6 29.3L-1.2 24.85L-2.7 25.55L-2.65 23.75M25.85,59.05L26.4 60.3L20.4 62.35L25.25 59.45Q24.5 58.2 23.15 57.45L23.1 57.4L20.3 62.3L22.25 56.3Q22.9 56.4 23.5 56.75Q25 57.65 25.85 59.05M25.9,65.65Q25 67.15 23.55 68L22.45 68.55L20.3 62.55L23.3 67.5Q24.55 66.75 25.3 65.4L25.35 65.35L20.75 62.7L26.4 64.55L25.9 65.65M20.25,62.4L17.25 57.45Q16 58.2 15.25 59.55L20.2 62.35L20.1 62.45L20.15 62.45L15.2 65.4Q15.9 66.7 17.3 67.5L20.2 62.5L20.25 62.55L18.25 68.65L17 68.05Q15.5 67.2 14.65 65.7L14.1 64.5L20.1 62.45L14.05 60.55Q14.2 59.8 14.6 59.15Q15.45 57.65 16.9 56.8Q17.45 56.4 18.2 56.3L20.3 62.35L20.25 62.4M75.2,58.15L80.05 62.35L80.05 62.4L75 59.6Q74.3 60.85 74.3 62.4L80 62.4L79.9 62.55L80 62.55L77.2 67.55Q78.45 68.3 80.05 68.3L80.05 62.55L80.15 62.55L81.45 68.8L80.05 68.95Q78.3 68.95 76.9 68.1L75.8 67.3L79.9 62.55L73.75 63.9L73.55 62.4Q73.55 60.65 74.35 59.25L75.2 58.15M65.75,55.9L67 55.8L66.2 55.9L65.75 55.9M65.3,66.35L66.25 66.45L66.8 70.25L64.55 70.3L65.3 66.35M-9.8,29.1L-18.85 37.85L-13.9 45.4L-22.85 35.7L-20.45 36.65L-10.35 27.45L-9.8 29.1M-8.35,40.15L-6.4 38.5L-6.25 38.95L-8.35 40.15" />
<path style="fill:#604129;fill-opacity:1" d="M61.35,63.15L61.2 63.05L61.25 63.05L60.65 62.7L60.45 62.6L58.9 61.45L56.9 62.5L54.9 60.15L56.5 58.5L55.65 56.45L55.65 56.4L56.4 56.35L59.15 50.9L60.3 50.8L57.55 56.3L56.6 56.35L56.6 56.4L57.3 58L57.4 58.55L57.15 59.05L56.15 60.2L57.1 61.35L58.5 60.65L59.05 60.55L59.55 60.75Q61.2 62.25 63.2 62.85L63.65 63.15L63.9 63.65L64 65.35L65.7 65.45L66.2 63.85Q66.25 63.55 66.45 63.4L66.95 63.2L69.5 62.7L69.6 62.65L69.6 63.5L69.6 63.6L67.05 64.1L66.5 65.85L66.3 66.4L66.25 66.4L66.25 66.45L65.3 66.35L63.1 66.2L63.05 64.25L63 63.75L61.65 63.25L61.35 63.15M76.05,52.45L75.8 50.8L76.5 51.65L77 52.3L76.1 52.6L76.05 52.45M66.95,39.95L67.15 40L68.05 41.1L66.95 40.9L66.4 42.7L66.1 43.15L65.6 43.35Q63.4 43.35 61.55 44.35L61.05 44.45Q60.75 44.4 60.55 44.2L59.4 43.15L58.1 44.05L58.8 45.45L58.95 46L58.7 46.5Q57.1 48.2 56.5 50.35L56.2 50.8L55.7 50.95L54.2 51.05L54.2 51.15L53.25 51.2L53.35 50.2L55.65 50.05Q56.3 47.75 58.05 45.9L56.95 43.85L56.6 44.9L53.4 44.7L53.3 42.25Q51.05 41.6 49.2 39.95L47.2 41L45.2 38.65L46.8 37L46.15 35.55L47.25 35.85L47.6 36.5L47.7 37.05L47.45 37.55L46.45 38.7L47.4 39.85L48.8 39.15L49.35 39.05L49.85 39.25Q51.5 40.75 53.5 41.35Q53.8 41.4 53.95 41.65L54.2 42.15L54.3 43.85L56 43.95L56.5 42.35Q56.55 42.05 56.75 41.9L57.25 41.7Q59.25 41.55 61 40.65L61.55 40.55L62.05 40.75L63.5 42L64.85 40.8L64 39.15L63.85 38.6L64.1 38.1L64.75 37.3L64.85 37.1L65.45 37.85L65.35 38L64.75 38.7L66 40.95L66.3 39.85L66.95 39.95M70.45,44.25Q69.9 43.95 69.35 43.8Q69.05 43.7 68.95 43.45L68.75 42.95L68.7 41.95L70.65 44.35L70.45 44.25M45,49.05L45.4 49.5L46.5 51.1L45.5 50.95L45 50.3L44.65 51.05Q43.85 51.2 43.2 51.75L44.15 49.95L42.2 51L42.8 51.55L43.05 51.85L42.9 52L42.25 52.85L41.9 52.45Q40.9 51.5 39.6 51.5Q38.25 51.5 37.25 52.45Q36.3 53.45 36.3 54.8Q36.3 56.1 37.25 57.1Q38.25 58.1 39.6 58.1Q40.9 58.1 41.9 57.1L42.4 56.55L42.9 57.2Q43.6 57.9 44.6 58.15L45.15 59.2L45.75 58.25L46.75 58.1L45.55 60L45 60.55L44.85 60.7Q42.75 62.65 39.95 62.95L39.25 62.95L39.1 62.95Q36 62.85 33.85 60.85L33.5 60.55L33.25 60.35Q31.15 58.1 31.1 55.05L31.1 54.8L31.15 54.25Q31.3 51.3 33.4 49.15L33.5 49.05L34.05 48.55Q36.15 46.7 38.95 46.65L39.25 46.65L40.1 46.7Q42.7 46.9 44.65 48.7L45 49.05M57.35,42.6L57 43.7L58.9 42.4L57.35 42.6M61.45,41.45L59.7 42.15L61.15 43.5Q62.05 43.05 63 42.8L61.45 41.45M65.55,42.4L65.95 41.05L64.35 42.55L65.55 42.4M34.9,48.95L37.75 50.5L38.75 47.5Q36.5 47.65 34.9 48.95M36.9,51.05L34.75 49.95L35.95 52.1L36.35 51.55L36.9 51.05M40.2,50.3L39.5 47.9L38.75 50.3L39.6 50.2L40.2 50.3M32.85,54.7L35.1 55.4L35.05 54.8L35.1 53.95L32.8 54.65L32.85 54.7M32,53.95L35.4 52.9L33.85 49.95Q32.2 51.7 32 53.95M35.3,56.35L31.95 55.35Q32.1 57.65 33.7 59.55L35.3 56.45L35.3 56.35M37.5,58.85L34.6 60.4Q36.35 61.95 38.8 62.1L37.9 59.05L37.5 58.85M36.35,58L35.85 57.4L34.8 59.35L36.7 58.35L36.35 58M40.15,59.35L39.6 59.35L38.9 59.3L39.5 61.3L40.15 59.35M66.2,50.05Q67.4 50.05 68.25 50.9Q69.1 51.75 69.1 53Q69.1 54.2 68.25 55.05Q67.7 55.6 67 55.8L66.8 52.55L65.15 55.9L64.05 55.95L66.7 50.65L66.7 50.5L64.45 50.6Q65.2 50.05 66.2 50.05M60.2,56.15L62.95 50.7L64.05 50.6L61.3 56.1L60.2 56.15M52.8,51.2L50.05 56.7L49.95 56.7L49.9 56.75L48.8 56.8L48.85 56.75L48.9 56.75L51.65 51.3L52.8 51.2M55.45,51.1L56.55 51L53.8 56.5L53.7 56.5L53.65 56.55L52.55 56.6L52.6 56.55L52.7 56.55L55.45 51.1M48,51.5L49.15 51.4L48.5 52.75L47.85 51.8L47.9 51.8L48 51.5M47.95,53.7L48.1 54.6Q48.1 55.7 47.35 56.5L46.75 56.95L46.25 57.1L45.5 57.2Q44.55 57.2 43.8 56.7L43.6 56.5Q42.95 55.75 42.9 54.8L42.9 54.6Q42.9 53.55 43.6 52.8L43.85 52.6Q44.55 52 45.5 52Q46.55 52 47.35 52.8L47.95 53.7M47.05,53.05Q46.5 52.35 45.5 52.35Q44.65 52.35 44 53L43.95 53.05Q43.25 53.6 43.25 54.6Q43.25 55.5 43.95 56.15L44.05 56.25Q44.55 56.75 45.3 56.85L45.5 56.85L46.45 56.65L47.05 56.15Q47.75 55.5 47.75 54.6L47.75 54.2L47.15 53.15L47.05 53.05M42.4,58.45L44.15 59.35L43.25 57.6L42.8 58L42.4 58.45M41.15,59.15L40.2 62Q42.4 61.75 44.15 60.35L41.55 58.95L41.15 59.15M41.2,50.5L43.85 49.1Q42.25 47.85 40.35 47.55L41.2 50.5" />
<path style="fill:#0E0E0E;fill-opacity:1" d="M60.3,50.8L59.15 50.9L56.55 51L55.45 51.1L54.2 51.15L54.2 51.05L55.7 50.95L56.2 50.8L56.5 50.35Q57.1 48.2 58.7 46.5L58.95 46L58.8 45.45L58.1 44.05L59.4 43.15L60.55 44.2Q60.75 44.4 61.05 44.45L61.55 44.35Q63.4 43.35 65.6 43.35L66.1 43.15L66.4 42.7L66.95 40.9L68.05 41.1L68.65 41.2L68.7 41.95L68.75 42.95L68.95 43.45Q69.05 43.7 69.35 43.8Q69.9 43.95 70.45 44.25L70.65 44.35L71.05 44.85L75.8 50.8L76.05 52.45L76.1 52.6L69.9 54.6L69.5 60.9L69.55 61.5L69.55 61.95L69.6 62.65L69.5 62.7L66.95 63.2L66.45 63.4Q66.25 63.55 66.2 63.85L65.7 65.45L64 65.35L63.9 63.65L63.65 63.15L63.2 62.85Q61.2 62.25 59.55 60.75L59.05 60.55L58.5 60.65L57.1 61.35L56.15 60.2L57.15 59.05L57.4 58.55L57.3 58L56.6 56.4L56.6 56.35L57.55 56.3L60.2 56.15L61.3 56.1L64.05 55.95L65.15 55.9L65.75 55.9L66.2 55.9L67 55.8Q67.7 55.6 68.25 55.05Q69.1 54.2 69.1 53Q69.1 51.75 68.25 50.9Q67.4 50.05 66.2 50.05Q65.2 50.05 64.45 50.6L64.05 50.6L62.95 50.7L60.3 50.8M54.15,37.45L62.05 34L62.25 33.9L64.85 37.1L64.75 37.3L64.1 38.1L63.85 38.6L64 39.15L64.85 40.8L63.5 42L62.05 40.75L61.55 40.55L61 40.65Q59.25 41.55 57.25 41.7L56.75 41.9Q56.55 42.05 56.5 42.35L56 43.95L54.3 43.85L54.2 42.15L53.95 41.65Q53.8 41.4 53.5 41.35Q51.5 40.75 49.85 39.25L49.35 39.05L48.8 39.15L47.4 39.85L46.45 38.7L47.45 37.55L47.7 37.05L47.6 36.5L47.25 35.85L54.15 37.45" />
</g>
</svg>
