<?xml version="1.0" encoding="utf-8"?>
<svg version="1.1" id="Layer_1"
xmlns="http://www.w3.org/2000/svg"
xmlns:xlink="http://www.w3.org/1999/xlink"
width="109px" height="19px"
xml:space="preserve">
<g id="1376" transform="matrix(1, 0, 0, 1, -1.2, 10.65)">
<path style="fill:#FF2F23;fill-opacity:1" d="M4.35,-4.65L4.7 -4.5L4.6 -4.35L4.6 -4.25L5.4 -4.25L5.85 -4.1Q7.7 -3.45 7.9 -3.05L9.1 -0.75L11.85 3.85L14.3 -0.35L15 -1.5Q16.8 -3.95 18.45 -3.95L21.1 -2.8L24.3 -1.05Q25.9 0.05 26.2 0.85Q26.35 1.35 27 1.85Q27.65 2.4 28.15 2.4Q28.8 2.4 31.95 -0.55L32.8 -2.4Q33.35 -3.85 34 -3.85L34.25 -3.8L34.3 -3.75L34.35 -3.75L34.5 -3.65L34.6 -3.65Q38.05 -2.1 38.85 -0.7Q40.75 2.7 42.55 2.7Q43.55 2.7 45.45 0.4L45.55 0.75L46.1 1.05Q47 1.05 48.6 -1.2Q49.2 -1.75 51.3 -3.1L52.65 -3.1L53.15 -2.8Q53.3 -2.6 53.65 -2.6L53.8 -2.6Q55.15 -1.8 56.95 0.45Q58.65 2.55 59.85 2.55Q61.15 2.55 63.5 0.35L63.3 0.55Q61.2 3.25 59.5 3.25Q58 3.25 56.45 0.45Q54.95 -2.4 51.45 -2.4Q49.8 -2.4 48.35 -0.5Q46.95 1.4 46.15 1.4Q45.55 1.4 45.4 0.9L44.4 2Q43.45 2.9 42.45 2.9Q40.65 2.9 38.85 -0.4Q38.5 -1 36.6 -2.1L33.95 -3.4Q33.35 -1.45 32.1 0.4Q30.2 3.1 28.15 3.1Q27 3.1 26 1.4L24.55 -0.8Q21 -3.15 17.9 -3.65Q16.35 -2.25 14.2 1.2Q12.45 4.05 12 4.05Q11.15 4.05 10.1 2.1L8.8 -0.35Q8 -1.35 7.7 -3Q7.6 -3.65 5.6 -3.65L3.95 -3.9L4 -4.35L2.6 -1.95L1.35 0.5L1.2 0.5Q1.5 -0.9 2.35 -2.5L1.45 0.15L1.5 0.15L2.35 -2.4Q2.95 -3.95 4.1 -4.9L4.3 -4.65L4 -5.15L4.3 -5.5L4.75 -5.45L4.7 -4.6L4.35 -4.65M6.3,-4.2Q8.3 -4.05 8.65 -3.4Q8.65 -2.55 8.9 -1.85L7.95 -3.15L6.3 -4.2M11.75,3.05L12 3.25L11.9 3.4L11.75 3.05M29.95,0.65L28.15 1.95Q27.3 1.95 26.85 0.95Q26.2 -0.5 24.4 -1.5L21.5 -3.15Q19.2 -4.35 18.4 -4.35Q17.35 -4.35 16.25 -3.45L17.1 -4.7Q21.8 -4.7 24.75 -2.1L28.2 1.7Q28.4 1.15 30.15 0.35L30.55 0.2L29.95 0.65M45.95,0.55Q45.95 -0.2 45.5 -0.2Q43.05 2.3 42.5 2.3Q41.6 2.3 39.7 -0.3Q37.75 -2.95 34.75 -3.85L34.75 -3.9L33.95 -4.3Q33.1 -4.3 32.6 -2.95L32.35 -2.25L32.35 -3.25Q32.6 -4.7 34.1 -4.7L36.35 -3.75Q38.7 -2.65 39.45 -1.5L40.85 0.6Q41.8 1.95 42.5 1.95L44.05 0.5L45.45 -1Q46.2 -1 46.2 0.35L46.25 0.4L45.95 0.55M46.6,0.1L48 -1.85Q49.3 -3.3 51.05 -3.4Q49.5 -3.1 48.25 -1.85L46.6 0.1M57,-0.15L53.95 -2.9L53.8 -2.9L53.5 -3.1Q55.45 -2.5 57 -0.65L59.25 1.95L57 -0.15M66.55,-2.3Q66.15 -2.65 65.6 -2.65Q65.35 -2.65 63.2 -0.25Q61 2.15 59.6 2.15Q61.25 2 63.05 -0.4Q65 -3 65.9 -3Q66.3 -3 66.9 -2.45L67.65 -1.95Q66.95 -1.95 66.55 -2.3M71.55,-3Q70.55 -3.05 69.6 -2.5Q69.1 -2.2 68.6 -2.05L69.6 -2.6Q70.75 -3.35 71.15 -3.35Q71.75 -3.35 72.2 -2.65L72.35 -2.45L71.55 -3M73.9,-2.15Q73.6 -2.15 73.2 -1.8L73.2 -1.75L72.85 -2L72.95 -2L74.25 -2.6L79 0.1L73.9 -2.15M82.65,1.75L83.4 1.95L83.4 2.05L86.75 1.65L87 1.6L87.4 1.45Q89.15 0.85 89.4 0.05Q89.5 -0.4 90.35 -1.5L89.35 0.35Q88.25 2.4 86.5 2.4L82.35 2L82.35 2.1Q82.4 2.35 81.9 2.35Q80.95 2.35 77.8 0.6L74.2 -1.8L73.7 -1.35L73.1 -1.1Q72.4 -1.1 71.9 -1.8L71.15 -2.55Q68.6 -1.1 67.85 -1.1Q66.95 -1.1 66.55 -1.65L65.9 -2.2L66.05 -2.35L66.45 -1.85L67.85 -1.65L69.8 -2.15L71.15 -2.7Q71.55 -2.7 72.2 -2L73.1 -1.3L73.45 -1.4L73.55 -1.55L73.3 -1.7L73.35 -1.75L73.85 -1.9L74.2 -1.8L75.95 -1L78.6 0.2L81.8 1.45Q80.9 0.5 80.45 0.25L80.35 0.35L80.3 0.55L80.65 0.8L80.55 0.8L79.35 0.25L79.55 0.3L80.1 0.1L80.6 -0.1Q80.85 -0.1 81.6 0.6L81.85 0.85L82.05 0.6L82.9 1.5L84.95 1.55L82.65 1.75M101,2.7Q100.2 2.7 99.25 1.35L98.05 -0.65Q96.35 -3.35 92.45 -2.65L92.45 -2.7L90.8 -2.25L90.75 -2.3L90.7 -2.2Q89.5 -1.6 89.15 -0.25Q88.95 0.55 87.7 1Q88.35 0.2 89.05 -1.55Q89.35 -2.55 90.3 -2.75L93.95 -2.95Q97.05 -2.95 98.75 -0.1Q100.3 2.5 101.15 2.7L101 2.7M101.8,2.45L103.4 1Q105.2 -0.75 105.95 -0.95L107.45 -0.95L107.85 -0.6L107.7 -0.15L105.7 0L107.15 -0.7L106.75 -0.8Q105.7 -0.8 103.75 0.95L101.8 2.45M105.5,0.1Q104.8 0.5 104.15 1.35Q102.35 3.7 101.5 3.7Q100.1 3.7 99.35 2.5L98.7 1.05Q100.35 3 101.05 3Q102.15 3 103.15 1.9Q104.05 0.9 105.5 0.1M96.45,-1.7L93.15 -2.15Q92.8 -1.8 91.95 -1.8L91.2 -2L90.95 -2.15L91.5 -2.2L92.25 -2.35L92.95 -2.5L94.1 -2.65L95.05 -2.25L96.25 -1.9L96.45 -1.7" />
<path style="fill:#FFFFFF;fill-opacity:1" d="M2.35,-2.6Q2.95 -4.2 4 -5.15L4.3 -4.65L4.1 -4.9Q2.95 -3.95 2.35 -2.4L1.5 0.15L1.45 0.15L2.35 -2.5L2.35 -2.6M11.9,3.4L12 3.25L14.3 -1.05Q15.3 -2.6 16.25 -3.45Q17.35 -4.35 18.4 -4.35Q19.2 -4.35 21.5 -3.15L24.4 -1.5Q26.2 -0.5 26.85 0.95Q27.3 1.95 28.15 1.95L29.95 0.65L30.55 0.2L31.9 -1.15L32.35 -2.25L32.6 -2.95Q33.1 -4.3 33.95 -4.3L34.75 -3.9L34.75 -3.85Q37.75 -2.95 39.7 -0.3Q41.6 2.3 42.5 2.3Q43.05 2.3 45.5 -0.2Q45.95 -0.2 45.95 0.55L46.25 0.4L46.6 0.1L48.25 -1.85Q49.5 -3.1 51.05 -3.4L52.15 -3.55L53.5 -3.1L53.8 -2.9L53.95 -2.9L57 -0.15L59.25 1.95L59.55 2.15L59.6 2.15Q61 2.15 63.2 -0.25Q65.35 -2.65 65.6 -2.65Q66.15 -2.65 66.55 -2.3Q66.95 -1.95 67.65 -1.95L67.7 -1.95L68.6 -2.05Q69.1 -2.2 69.6 -2.5Q70.55 -3.05 71.55 -3L72.35 -2.45L72.55 -2.25L72.85 -2L73.2 -1.75L73.2 -1.8Q73.6 -2.15 73.9 -2.15L79 0.1L79.35 0.25L80.55 0.8L80.65 0.8L80.3 0.55L80.35 0.35L80.45 0.25Q80.9 0.5 81.8 1.45L78.6 0.2L75.95 -1L74.2 -1.8L73.85 -1.9L73.35 -1.75L73.3 -1.7L73.55 -1.55L73.45 -1.4L73.1 -1.3L72.2 -2Q71.55 -2.7 71.15 -2.7L69.8 -2.15L67.85 -1.65L66.45 -1.85L66.05 -2.35L65.9 -2.2L63.5 0.3L63.5 0.35Q61.15 2.55 59.85 2.55Q58.65 2.55 56.95 0.45Q55.15 -1.8 53.8 -2.6L53.65 -2.6Q53.3 -2.6 53.15 -2.8L52.65 -3.1L51.3 -3.1Q49.2 -1.75 48.6 -1.2Q47 1.05 46.1 1.05L45.55 0.75L45.45 0.4Q43.55 2.7 42.55 2.7Q40.75 2.7 38.85 -0.7Q38.05 -2.1 34.6 -3.65L34.5 -3.65L34.35 -3.75L34.3 -3.75L34.25 -3.8L34 -3.85Q33.35 -3.85 32.8 -2.4L31.95 -0.55Q28.8 2.4 28.15 2.4Q27.65 2.4 27 1.85Q26.35 1.35 26.2 0.85Q25.9 0.05 24.3 -1.05L21.1 -2.8L18.45 -3.95Q16.8 -3.95 15 -1.5L14.4 -0.6L14.3 -0.35L11.85 3.85L9.1 -0.75L7.9 -3.05Q7.7 -3.45 5.85 -4.1L5.4 -4.25L4.7 -4.5L4.35 -4.65L4.7 -4.6L6.3 -4.2L7.95 -3.15L8.9 -1.85L9.35 -0.95L11.75 3.05L11.9 3.4M84.95,1.55L86.7 1.3L87.7 1Q88.95 0.55 89.15 -0.25Q89.5 -1.6 90.7 -2.2L90.8 -2.25L92.45 -2.7L92.45 -2.65Q96.35 -3.35 98.05 -0.65L99.25 1.35Q100.2 2.7 101 2.7L101.15 2.7L101.8 2.45L103.75 0.95Q105.7 -0.8 106.75 -0.8L107.15 -0.7L105.7 0L105.6 0.05L105.5 0.1Q104.05 0.9 103.15 1.9Q102.15 3 101.05 3Q100.35 3 98.7 1.05L98.6 0.9L96.45 -1.7L96.25 -1.9L95.05 -2.25L94.1 -2.65L92.95 -2.5L92.25 -2.35L91.5 -2.2L90.95 -2.15L90.4 -1.55L90.35 -1.5Q89.5 -0.4 89.4 0.05Q89.15 0.85 87.4 1.45L87 1.6L86.75 1.65L83.4 2.05L83.4 1.95L82.65 1.75L84.95 1.55" />
<path style="fill:#FFFFFF;fill-opacity:1" d="M9.2,-1.3L9.55 -1.5L9.65 -1.45Q10.35 -1.45 12.3 -2.7L11.85 -4.1L12.4 -4.9L12.95 -5.55L12.35 -6.45Q12.35 -6.7 12.7 -6.75L13.45 -6.75L13.65 -6.55L12.75 -6.4L12.95 -5.85L13.15 -5.5Q13.15 -5.25 12.65 -4.75L12.1 -4.05L12.5 -2.75Q12.5 -2.3 11.4 -1.9L9.35 -1.3L9.2 -1.3M7.9,-2.8L5.8 0L6.6 0.8Q7.4 1.7 7.4 2.35Q7.4 2.7 7 3.1L5.5 4.2L5.2 5.05Q5 5.6 2.95 5.7L3.45 6.05L3.1 6.2Q2.6 6.2 2.55 5.7Q2.55 5.3 3.2 5.25L5.05 4.95L4.8 4.65Q4.8 4.2 6.05 3.7Q7.25 3.15 7.25 2.35Q7.25 1.5 6.4 0.8L5.55 0L6.6 -1.5L7.9 -2.8M14.9,-0.45L14.7 -0.5Q15.95 -2.1 16.65 -1L18.2 1.15Q19.75 1.7 20.85 2.9Q21.9 4.1 23.3 4.65L23.35 4.8Q21.9 4.95 21.45 4.45L21 3.45Q20.7 2.95 19.2 1.95L17.75 1.3Q16.95 1 16.85 0.55L16.7 -0.4Q16.5 -1.15 16.1 -1.15L15.35 -0.95L14.9 -0.65L14.9 -0.45M26.75,-7.45L27.4 -6.15L27.85 -5Q27.85 -4.55 27 -4.3L26.4 -4.05L27.5 -5L25.75 -7.95L27.8 -7.45L26.75 -7.45M23.55,-1.75L25.5 -3.3L24.75 -2.3Q24.25 -1.8 23.65 -1.6L23.55 -1.75M37.05,-10.5L34.65 -10.25L33.25 -9.9L33.65 -9.1L34.65 -8.2L33.65 -7.55L32.95 -6.9Q32.95 -6.55 33.7 -5.75L34.4 -4.6L34 -4.05L33.8 -4.05L34.2 -4.6L33.5 -5.65Q32.75 -6.5 32.75 -6.9L33 -7.45L34.3 -8.05Q32.95 -9.3 32.95 -9.9Q32.95 -10.2 33.9 -10.45L35.8 -10.65L37.05 -10.5M39.55,-5.75Q39.15 -5.95 39 -6.25Q39.95 -6.25 41.4 -5L43.2 -3.8L43.9 -4L44.15 -3.75L43.55 -2.75L42.8 -1.8Q44.4 -0.65 45.3 -0.2Q44.8 -0.2 43.6 -1L42.45 -1.8L43.75 -3.55L43.75 -3.65L43 -3.5Q42.15 -3.5 41.35 -4.25L40.25 -5.3L37.55 -3.3Q37.3 -3.3 36.65 -3.8L36.75 -3.95Q37.1 -3.6 37.3 -3.6L40 -5.3L40.05 -5.4L39.55 -5.75M38.4,-2L38.9 -1.05Q38.9 -0.7 37.8 -0.1L36.35 0.55Q37 1.5 38 2.25Q38.8 2.85 38.8 3.15L38.65 3.9Q38.65 4.8 39.65 5.7Q40.6 6.6 40.6 7Q40.6 7.5 40.05 7.5Q38.75 7.5 38 6.6L37.45 5.5L37.5 5.45L37.6 5.45L37.6 5.55Q37.6 6.35 39.75 7.15L40.3 7.15Q40.25 6.7 39.6 6.15L38.8 5.25Q38.45 4.2 38.45 3.3Q38.45 2.95 37.3 1.9L35.95 0.45Q38.7 -0.75 38.7 -1.1L38.35 -2L38.4 -2M55.1,-3.5L56.3 -4.35Q57.6 -5.1 57.8 -4.75Q58.1 -4.15 58.35 -4.15Q58.75 -4.15 59.25 -4.5Q59.7 -4.85 60.25 -4.85Q60.65 -4.85 61.4 -3.9Q62.25 -2.85 62.8 -2.7L62.65 -2.6Q61.55 -2.6 61 -3.6L60.25 -4.6L59.3 -4.3L58.7 -3.9L57.95 -3.9L57.45 -4.7L54.4 -2.85L54 -3.05L53.95 -3.1Q54.3 -3 55.1 -3.5M77.15,-1.25L78.55 -2.65Q79.65 -3.95 80.55 -3.6L81.8 -3.2L83.65 -2.95L83.8 -2.5L83.2 -2.45L83.2 -2.5Q81.55 -2.5 80.5 -3.3L79.75 -3.3Q77.9 -1.15 77.3 -1.15L76.8 -1.35L77.15 -1.25M94.3,-0.8L94.6 0.3L94.2 1.55Q96.25 5.7 96.25 6.2L96.05 7.25L96.6 7.3L97.4 7.35L97.45 7.35L96.8 7.55L96.1 7.55Q95.75 7.45 95.75 7L96 5.9L94 1.55L94.2 0.75L94.4 0Q94.4 -0.5 93.85 -1L92.5 -2L92.55 -2L94.3 -0.8M105.75,-3.75Q105.75 -4.3 107.05 -4.95L109.3 -5.85L109.35 -5.8L107.15 -4.9Q105.95 -4.4 105.95 -3.8L106.55 -2Q106.55 -1.55 105.75 -0.8L104.4 0.05L104.15 0.05L105.55 -0.85Q106.35 -1.55 106.35 -2L106.05 -2.85L105.75 -3.75M106.85,5.25Q106.6 5 105.85 5Q105.05 5 104.9 4.25L104.6 3.2L103.7 3.15L101.85 3.4L101.65 3.2Q103.2 2.45 104.2 2.85Q105 3.2 105.25 4Q105.45 4.65 106.35 4.55Q107.2 4.5 107.25 5.1L107.85 4.9L108.45 4.55L109.1 4.55L109.2 4.65L109.2 4.8L107.4 5.45Q107.05 5.45 106.85 5.25M88,4.8L87.9 4.9Q85.85 3.85 84.85 1.5L84.9 1.45L88 4.8M75.25,2.8L74.2 3.1L74.9 2.75L75.25 2.8M72.25,6.05L70.65 5.35L69.2 4.6Q68.05 4.25 67.75 3.85Q67.6 3.6 67.6 3L67.8 1.4Q67.8 -0.05 64.05 0L64.05 -0.15Q67.3 -0.45 67.9 0.95Q68.25 1.7 67.9 2.95L68.1 3.7Q68.4 4.05 69.65 4.45Q70.1 4.6 72 5.85Q72.8 5.85 73.1 5.5L73.3 5.1L73.35 5.4Q73.35 6.05 72.25 6.05M74.1,3.25L73.65 4L73.55 4L74.05 3.15L74.1 3.25M53.6,6.2L53.6 6.35Q53.6 6.7 52.1 6.7Q50.5 6.7 49.8 6Q49.35 5.55 49.35 5.15L49.65 4L49.6 3.85L48.25 3.95Q47.55 3.45 47.55 2.65L47.75 1.5Q47.75 0.45 46.25 0.45L45.2 0.6L44.8 0.75Q46.45 -0.1 47.35 0.6Q48.05 1.1 47.9 1.8L47.8 3.2Q48 3.65 49.5 3.65Q49.95 3.65 49.95 4.1L49.8 4.65L49.65 5.2Q49.65 5.65 50.5 6.1L53.55 6.25L53.6 6.2" />
</g>
</svg>
