<?xml version="1.0" encoding="utf-8"?>
<svg version="1.1" id="Layer_1"
xmlns="http://www.w3.org/2000/svg"
xmlns:xlink="http://www.w3.org/1999/xlink"
width="18px" height="26px"
xml:space="preserve">
<g id="761" transform="matrix(1, 0, 0, 1, 5.65, 6.15)">
<path style="fill:#000000;fill-opacity:1" d="M4.15,-5.2Q4.75 -6.25 6.15 -6.15L7.2 -5.9L8.15 -5L8.2 -4.9L8.2 -5.1L8.4 -4.75L8.1 -4.05Q7.4 -3.4 6.55 -3.2L5.6 -2.95Q5.1 -2.45 4.9 -1.7L3.75 -1.65L3.7 -1.8Q3.45 -2.8 3.6 -3.9L4 -4.95L4.15 -5.2M2.05,-3.15L2.55 -2.8L2.85 -2.45L2.9 -2.35L3 -2Q3.1 -1.4 2.75 -1Q1.9 -0.15 1.25 -1Q-0.15 -2.75 2.05 -3.2L2.05 -3.15M7.95,-4.6L8.05 -4.65L8 -4.7L8 -4.8L7.95 -4.6M7.05,-3.75L7 -3.75L6.35 -3.5L7.05 -3.75M12.05,-2.8L11.65 0.7Q11.55 2.2 11.05 3.45L10 3.3L9.95 3.25L9.9 3.25L9.85 2.2L10.25 -1.05Q10.45 -2.3 10.8 -3.45L11 -3.55L11.75 -3.65L11.85 -3.65Q12.15 -3.4 12.05 -2.8M5.3,2.1Q5.85 1.05 6.95 0.4Q8.05 -0.3 9 -0.2L9.2 0Q9.05 1.4 7.8 2.35L5.25 2.25L5.3 2.1M4.7,4.5L5.95 4.9Q8.55 5.15 8.1 6.9L7.85 6.95L3.7 6.4L3.35 6.3L2.6 5.65Q2.3 5.2 2.5 4.7L2.65 4.75Q2.9 4.25 3.85 3.9L4.7 4.5M3.2,1.25L3.5 1.7Q3.35 3.05 2.3 4.05Q0.15 6 -2.5 5.6L-2.55 5.45L-1.7 2Q-1 0.25 1 0.05L1.7 0.35L3.2 1.25M4.85,7.85L5.7 7.75Q6.2 8.1 6.25 8.75L6.6 10.5L6.6 11.15L6.35 10.9L6.35 10.4L6.25 10.2L6.3 11.35L6.45 12.55L6.45 12.75L4.3 12.95L4.2 12.9L4.25 11.75L4.15 9.3Q4.15 8.55 4.45 7.95L4.85 7.85M1.2,12.35L1.2 12.7Q-0.3 13.85 -1.9 13.05L-4.7 11.3Q-6.1 10.25 -5.4 8.95Q-4.35 7.05 -2.45 6.6L-0.05 7.15Q1.9 7.7 3.6 8.75L3.55 9.35L3.3 9.9L3 10.4L2.95 10.45L1.95 10.45Q0.6 10.2 -0.15 10.45L0.8 11.4L1.2 12.35M7.1,14.95L7.1 15.05L7.1 15.15L7.05 15.25L6.95 15.2L6.65 15.6L6.2 15.95L5.95 16.3Q5.2 17.35 5.4 18.4Q5.55 19.15 4.95 19.4Q2.8 20.4 2.8 18.45L3 16.85L3.4 15.75L3.4 15.65L3.4 15.55L3.4 15.5Q3.25 16.15 2.55 16.6L0.45 17.8L0.2 17.95Q-1.2 18.8 -2.35 17.35L-2.15 17.1L-0.4 15.2Q0.5 14.2 1.95 14.4Q2.75 14.4 3.35 14.95L3.35 14.9L3.4 14.9L3.4 15L3.45 15.05L3.65 15.4Q4.2 14.6 5.2 14.25L6.85 14.7L7.1 14.9L7.1 14.95M-1.05,7.25L-1.1 7.25L-0.95 7.3L-1.05 7.25" />
</g>
</svg>
