<?xml version="1.0" encoding="utf-8"?>
<svg version="1.1" id="Layer_1"
xmlns="http://www.w3.org/2000/svg"
xmlns:xlink="http://www.w3.org/1999/xlink"
width="21px" height="32px"
xml:space="preserve">
<g id="603" transform="matrix(1, 0, 0, 1, 9.7, 6.3)">
<path style="fill:#000000;fill-opacity:0.498039" d="M3.9,22.4Q4.65 22.6 5.05 22.9Q5.65 23.2 5.65 23.6Q5.65 24.3 3.9 24.8L-0.4 25.3L-4.65 24.8Q-6.45 24.3 -6.45 23.6Q-6.45 22.9 -4.65 22.4L-3.8 22.2L-0.4 21.9L2 22.05L3.9 22.4" />
<path style="fill:#000000;fill-opacity:1" d="M0.95,-5L1.1 -4.85L2.1 -3.7L2.15 -3.6Q2.6 -6 4.3 -6.25L5.25 -6.2Q6.2 -6 6.7 -5.25Q7.35 -4.2 7.45 -2.95L7.4 -1.85L6.55 -1.7L6.45 -1.4L5.75 -0.75L5.6 -0.7L5.2 -0.35L6.2 0.8Q6.6 1.5 6.45 1.85L7.1 2.7L8.05 4.05L8.85 4.4Q10.4 5.25 10.45 6.85L10.1 7.6Q8 9.15 7.05 6.75Q5.95 6.15 5.3 5.1L4.7 4.2L4.3 4.9L3.45 6.9L3.3 7.15L3.35 7.2L3.8 8.3L4.65 10.1L4.65 10.65L4.35 11.15Q3.5 13 1.95 14.6Q2.55 15.4 2.6 16.3L2.65 16.4L2.6 16.95L2.6 17.15L2.25 17.55Q0.5 17.8 -0.15 16.65L-1.35 15.45Q-1.65 15.05 -1.4 14.65Q-0.5 12.85 1.05 11.35L1 11.15L0.35 9.55L-0.25 8.25L-0.35 8.2L-1.65 9.65L-3.6 11.7Q-3 12.65 -3.45 13.8L-4.05 14.35L-5.85 14.05Q-8.2 12.85 -6.8 10.55Q-4.45 6.75 -0.7 4.25L-0.65 4.25L0.75 2.75L0.65 2.7Q0.2 2.35 0 1.8L0.35 0.5L0.9 0.15L0.2 -1.2Q-0.25 -2.25 -0.05 -3.1L0 -3.05L1.4 -1.1L1.8 -0.35Q2.5 -0.75 2.05 -1.3Q1.6 -1.9 2 -2.15L2 -2.45L1.25 -3.25Q0.1 -4.25 0.95 -5M-1.4,-2.4Q0.85 -1.35 -0.25 0.7L-0.55 1.1Q-1.65 2.2 -2.5 1.5L-3.6 2.3Q-4.9 3.25 -6 2.7L-6.1 2.95L-6.5 4L-6.85 4.65Q-6.2 5.35 -6.75 6.05Q-7.15 6.55 -7.65 6.6Q-9.6 6.75 -9.7 4.6L-9.7 4.1Q-9.3 1.8 -7.25 1Q-7.2 1 -7.1 1.1L-6.9 1.3Q-5.65 -0.65 -3.25 -1.1Q-2.9 -1.95 -1.4 -2.4" />
</g>
</svg>
