<?xml version="1.0" encoding="utf-8"?>
<svg version="1.1" id="Layer_1"
xmlns="http://www.w3.org/2000/svg"
xmlns:xlink="http://www.w3.org/1999/xlink"
width="84px" height="48px"
xml:space="preserve">
<g id="866" transform="matrix(1, 0, 0, 1, 17.35, 14.25)">
<path style="fill:#BD8051;fill-opacity:1" d="M15.4,-2.1L13.25 -1.8L13 -2.8L15.8 -3.25L15.4 -2.1M13.05,-12.85Q11.55 -10.95 11.2 -8.6Q11.05 -8.25 11.05 -7.7L11.05 -7.05L11.05 -6.7L11.1 -5.55Q11.25 -2.8 12.05 -1L11.5 -0.85Q10.75 -3.3 10.6 -5.55L10.55 -6.9L10.55 -7L10.7 -7.7L10.85 -8.65Q11.35 -11.15 12.55 -13.25L13.05 -12.85M7.7,-6.8L-10 -5.35L-9.85 -5.75L7.7 -7.45L7.7 -6.8M47.7,9.5L46.25 9.2Q45.55 8.35 44.45 7.85L42.75 7.25L18.65 0.6L19.55 -0.25L19.6 -0.25L43.4 6.4Q44.5 6.7 45.4 7.25Q46.85 8.1 47.7 9.5M39.45,-4.6L39 -3.3L32.85 -5.6L33.25 -6.5L39.45 -4.6M47.45,-0.35L47.1 0.35Q46.75 0.65 46.3 0.55Q45.85 0.55 45.65 0.2Q45.35 -0.1 45.4 -0.55L45.8 -1.3L46.55 -1.55L47.25 -1.15L47.45 -0.35M48.05,1.7L48.3 2.5Q48.2 2.95 47.9 3.2L47.1 3.45L46.4 3.1Q46.1 2.7 46.2 2.25Q46.25 1.8 46.55 1.6Q46.85 1.3 47.3 1.35Q47.75 1.4 48.05 1.7M47.4,5.7Q47.1 5.4 47.15 4.95Q47.2 4.5 47.5 4.2L48.35 4.05Q48.8 4.05 49 4.4Q49.3 4.7 49.25 5.15L49.25 5.45L48.9 5.9L48.05 6.1L47.65 6.05L47.4 5.7M47.6,11.15L48.65 13.2L47.4 13.2Q47 11.9 46.1 11L47.6 11.15M45.7,16.3L43.45 18.85L43.05 18.7L42.85 15.15L40.35 15.4L40.55 19.05L37.8 16.65L36.1 18.6L38.7 20.85Q38.55 21.05 38.55 21.3L35.25 21.5L35.45 24.05L38.8 23.8L38.9 24L36.7 26.5L38.55 28.2L40.95 25.5L41.15 29.15L43.7 29L43.55 25.45L43.8 25.35L46.25 27.45L47.95 25.55L45.4 23.3L48.85 23.1L48.8 20.7L45.45 20.85L45.3 20.65L47.7 18.05L45.7 16.3M48.25,17.85L46.15 20.25L49.3 20.1L49.45 23.6L46.55 23.7L48.65 25.55L46.35 28.2L44 26.2L44.25 29.3L40.8 29.55L40.6 26.6L38.65 28.8L36.1 26.55L38.05 24.35L34.95 24.55L34.7 21.05L37.95 20.85L35.4 18.6L37.7 15.95L40.1 18.05L39.9 15L43.3 14.75L43.55 18.1L45.7 15.6L48.25 17.85M48.65,17.65L49.35 18.9Q49.9 20.3 49.9 21.95L49.75 23.55L49.55 24.5Q49 26.2 47.75 27.6L47.65 27.65L47.3 28Q46.1 29.2 44.6 29.75L43.8 29.95L15.7 29.95L15.2 29.9L14.1 29.7L13.2 29.3L12.15 28.5L2.1 17.3L2 17.15Q1.1 15.85 1.1 14.15L1.15 13.65Q1.25 11.75 2.6 10.45L3.55 9.55L4.65 8.9L4.8 8.85L5.8 8.75L6.55 8.7L7.2 8.75L7.8 8.85L41.9 14L43 14.15L43.05 14.15L43.45 14.2L45.4 14.85L45.55 14.9Q46.65 15.45 47.6 16.4L48.65 17.65M42.45,14.4L7.2 8.95L6.85 8.9L5.7 9Q4.75 9.1 3.35 10.6Q1.9 12.1 1.75 13.55Q1.55 14.95 1.95 15.85L2.7 17.2L3.45 17.85L3.5 17.9L8.6 23.9L8.75 24.1L11.8 27.7L11.85 27.75L11.9 27.85L12.1 28.1L12.25 28.2Q13.15 29.1 14.35 29.5L14.9 29.6L15.15 29.65L44.35 29.65L44.65 29.55Q46.1 29 47.35 27.7L47.3 27.7L47.65 27.4Q48.9 26 49.35 24.35L49.5 23.75L49.65 22.2Q49.65 20.55 49.05 19.1Q48.45 17.75 47.3 16.6Q45.65 14.95 43.45 14.5L42.45 14.4M7.9,12.15L8.8 11.2L10 12.4L8.85 13.55L10.45 13.55L10.45 15.35L8.95 15.35L9.95 16.35L8.7 17.6L7.6 16.5L7.6 18.1L5.8 18.1L5.8 16.6L4.75 17.65L3.55 16.45L4.35 15.65L4.6 15.4L4.2 15.4L3 15.4L3 13.6L3.9 13.6L4.65 13.55L4.1 13L3.45 12.35L4.7 11.1L5.4 11.8L5.85 12.25L5.85 11.65L5.8 10.7L7.55 10.65L7.6 11.95L7.6 12.4L7.9 12.15M6,10.9L6.05 12.75L4.75 11.45L3.8 12.4L5 13.6L4.95 13.85L3.3 13.8L3.3 15.1L5 15.1L5.05 15.25L3.85 16.45L4.7 17.3L6.05 16.05L6 17.9L7.3 17.9L7.3 16.1L7.45 16.05L8.6 17.2L9.6 16.3L8.35 15.05L10.15 15.05L10.2 13.9L8.45 13.85L8.4 13.7L9.65 12.45L8.75 11.55L7.55 12.75L7.35 12.65L7.35 10.85L6 10.9M13,21.65L14.2 22.85L14.15 23.1L12.5 23.05L12.5 24.35L14.2 24.35L14.25 24.5L13.05 25.7L13.9 26.55L15.25 25.3L15.2 27.15L16.5 27.15L16.5 25.35L16.65 25.3L17.8 26.45L18.8 25.55L17.55 24.3L19.35 24.3L19.4 23.15L17.65 23.1L17.6 22.95L18.85 21.7L17.95 20.8L16.75 22L16.55 21.9L16.55 20.1L15.2 20.15L15.25 22L13.95 20.7L13 21.65M14.2,26.7L13.95 26.9L12.75 25.7L13.2 25.3L13.8 24.65L13.1 24.65L12.2 24.65L12.2 22.85L13.7 22.8L13.85 22.8L13.8 22.75L12.65 21.6L13.9 20.35L15.05 21.5L15 19.95L16.75 19.9L16.8 21.65L18 20.45L19.2 21.65L18.05 22.8L19.65 22.8L19.65 24.6L18.6 24.6L18.15 24.6L18.6 25.05L19.15 25.6L17.9 26.85L17.65 26.6L16.8 25.75L16.8 27.15L16.8 27.35L15 27.35L15 27.2L15 25.85L14.2 26.7M-16.7,-5.65L-13.25 -6.05L-12.45 -7L-12.55 -2.8L-13.25 -4.75L-16.6 -4.7L-16.7 -5.65" />
<path style="fill:#0B0B0B;fill-opacity:1" d="M13,-2.8L13.25 -1.8L15.4 -2.1L14.1 0.85L12.6 -0.25L12.25 -0.15L12.8 0.75L9.1 0.3L11 -0.1Q10.1 -2.9 9.95 -5.05L8.65 -5.4L-9.9 -3.7L-12.15 -1.95L-17.2 -3.25L-17.35 -6.55L-12.1 -8.1L-10.2 -6.5L7.75 -8.35L7.75 -9.35L10.3 -9.95Q10.9 -12.2 12.4 -14.25L14.35 -13.4Q13.2 -10.95 13 -9.8L14.45 -10.3L15.8 -3.25L13 -2.8M12.55,-13.25Q11.35 -11.15 10.85 -8.65L10.7 -7.7L10.55 -7L10.55 -6.9L10.6 -5.55Q10.75 -3.3 11.5 -0.85L12.05 -1Q11.25 -2.8 11.1 -5.55L11.05 -6.7L11.05 -7.05L11.05 -7.7Q11.05 -8.25 11.2 -8.6Q11.55 -10.95 13.05 -12.85L12.55 -13.25M7.7,-7.45L-9.85 -5.75L-10 -5.35L7.7 -6.8L7.7 -7.45M18.95,-6.6L21.7 -13.2L23.2 -12.8L27.15 -12.7L27.1 -12.65L26.7 -12.6L26.2 -11.95L19 -6.6L18.95 -6.6M45.4,7.25Q44.5 6.7 43.4 6.4L19.6 -0.25L26.65 -7.6L27.05 -7.6Q29.35 -7.75 32.25 -7.5L48.85 -2.75L50.8 5.5Q51.6 5.75 52.3 6.45L54.6 10.1L54.55 10.1L54.8 10.95L47.7 9.5Q46.85 8.1 45.4 7.25M23.4,4L21.05 3.35L20.6 4.1L16.35 3.25L16.15 2.75L18.65 0.6L42.75 7.25L44.45 7.85Q45.55 8.35 46.25 9.2L32.45 6.5L30.85 6L30.8 6.15L23.45 4.65L23.4 4M33.25,-6.5L32.85 -5.6L39 -3.3L39.45 -4.6L33.25 -6.5M47.25,-1.15L46.55 -1.55L45.8 -1.3L45.4 -0.55Q45.35 -0.1 45.65 0.2Q45.85 0.55 46.3 0.55Q46.75 0.65 47.1 0.35L47.45 -0.35L47.25 -1.15M61.05,-1.65L62.8 -2.85L65.7 1.3L64.15 2.25L62.65 2.05L58.95 4.65L55 4.5L55.3 0.15L55.4 1.5L57.85 1.75Q59.4 0.75 60.9 -0.3L61.05 -1.65M47.3,1.35Q46.85 1.3 46.55 1.6Q46.25 1.8 46.2 2.25Q46.1 2.7 46.4 3.1L47.1 3.45L47.9 3.2Q48.2 2.95 48.3 2.5L48.05 1.7Q47.75 1.4 47.3 1.35M47.65,6.05L48.05 6.1L48.9 5.9L49.25 5.45L49.25 5.15Q49.3 4.7 49 4.4Q48.8 4.05 48.35 4.05L47.5 4.2Q47.2 4.5 47.15 4.95Q47.1 5.4 47.4 5.7L47.65 6.05M46.1,11Q47 11.9 47.4 13.2L48.65 13.2L47.6 11.15L54.8 11.85Q55.6 14.35 53 16.3L52.15 16.9L52.9 18.2L50.7 20.55L50.4 19.15L51.8 17.65L50.6 15.5L48.45 15.95L48.2 15.7Q47.05 14.55 45.75 13.95Q44.55 13.35 43.3 13.2L43.05 11.6L40.6 11.2L39.8 12.7L33.1 11.65L32.85 9.8L32.1 9.7L46.1 11M30.4,9.55L29.5 11.1L23.15 10.15L22.9 8.8L30.4 9.55M20.05,8.55L19.45 9.6L16.45 9.15L15.75 8.15L20.05 8.55M14.65,8.9L13.45 8.7L13 6.55L10.55 6.3L9.7 8.15L8.8 8L10 5.5L11 5.6L13 6.55L14.3 7.15L14.65 8.9M6.55,7.7L6.45 7.7L5.3 7.85L3.55 6.35L1.5 7.7L1.9 9.6L1.25 10.4L0.55 7.4L4 5.25L6.8 7.55L6.55 7.7M0.3,12.15L0 13.9L-1.35 14.9L-0.55 17.15L0.75 17.15L1.25 17.95L1.3 18L-1 18L-2.35 14.2L0.3 12.15M3.45,20.4L4.25 21.3L3.45 22.75L5.1 24.5L6.6 23.9L7.2 24.55L5 25.45L2.25 22.5L3.45 20.4M9.6,27.25L10.6 28.35L10.15 29.95L12.3 31.25L13.25 30.45L14.15 30.8L12.5 32.15L9 30.1L9.6 27.25M18.2,30.95L19.45 30.95L19.85 32.55L22.35 32.65L23 30.95L23.9 30.95L22.9 33.35L18.85 33.2L18.2 30.95M29.25,30.95L30.45 30.95L30.95 32.6L33.4 32.6L34 30.95L34.9 30.95L34.05 33.3L29.95 33.3L29.25 30.95M38.65,30.95L39.95 30.95L40.7 32.65L43.1 32.4L43.5 30.95L43.9 30.95L44.35 30.85L43.85 33L39.8 33.45L38.65 30.95M47.4,29.2L48.3 28.35L48.45 28.2L50.15 28.45L51.25 26.3L50.25 25.25L50.5 24.35L52.15 26.05L50.3 29.65L47.4 29.2M-16.6,-4.7L-13.25 -4.75L-12.55 -2.8L-12.45 -7L-13.25 -6.05L-16.7 -5.65L-16.6 -4.7" />
<path style="fill:#000000;fill-opacity:1" d="M23.45,4.65L20.6 4.1L21.05 3.35L23.4 4L23.45 4.65M50.8,21.95L50.5 24.35L50.25 25.25L51.25 26.3L50.15 28.45L48.45 28.2L48.3 28.35L47.4 29.2Q46 30.35 44.35 30.85L43.9 30.95L43.5 30.95L43.1 32.4L40.7 32.65L39.95 30.95L38.65 30.95L34.9 30.95L34 30.95L33.4 32.6L30.95 32.6L30.45 30.95L29.25 30.95L23.9 30.95L23 30.95L22.35 32.65L19.85 32.55L19.45 30.95L18.2 30.95L15.55 30.95L14.15 30.8L13.25 30.45L12.3 31.25L10.15 29.95L10.6 28.35L9.6 27.25L7.2 24.55L6.6 23.9L5.1 24.5L3.45 22.75L4.25 21.3L3.45 20.4L1.3 18L1.25 17.95L0.75 17.15L-0.55 17.15L-1.35 14.9L0 13.9L0.3 12.15Q0.6 11.2 1.25 10.4L1.9 9.6L1.5 7.7L3.55 6.35L5.3 7.85L6.45 7.7L6.55 7.7L7.25 7.75L7.85 7.85L8.8 8L9.7 8.15L10.55 6.3L13 6.55L13.45 8.7L14.65 8.9L16.45 9.15L19.45 9.6L20.05 8.55L22.9 8.8L23.15 10.15L29.5 11.1L30.4 9.55L30.45 9.4L32.1 9.7L32.85 9.8L33.1 11.65L39.8 12.7L40.6 11.2L43.05 11.6L43.3 13.2Q44.55 13.35 45.75 13.95Q47.05 14.55 48.2 15.7L48.45 15.95L50.6 15.5L51.8 17.65L50.4 19.15L50.7 20.55L50.8 21.95M45.7,15.6L43.55 18.1L43.3 14.75L39.9 15L40.1 18.05L37.7 15.95L35.4 18.6L37.95 20.85L34.7 21.05L34.95 24.55L38.05 24.35L36.1 26.55L38.65 28.8L40.6 26.6L40.8 29.55L44.25 29.3L44 26.2L46.35 28.2L48.65 25.55L46.55 23.7L49.45 23.6L49.3 20.1L46.15 20.25L48.25 17.85L45.7 15.6M47.6,16.4Q46.65 15.45 45.55 14.9L45.4 14.85L43.45 14.2L43.05 14.15L43 14.15L41.9 14L7.8 8.85L7.2 8.75L6.55 8.7L5.8 8.75L4.8 8.85L4.65 8.9L3.55 9.55L2.6 10.45Q1.25 11.75 1.15 13.65L1.1 14.15Q1.1 15.85 2 17.15L2.1 17.3L12.15 28.5L13.2 29.3L14.1 29.7L15.2 29.9L15.7 29.95L43.8 29.95L44.6 29.75Q46.1 29.2 47.3 28L47.65 27.65L47.75 27.6Q49 26.2 49.55 24.5L49.75 23.55L49.9 21.95Q49.9 20.3 49.35 18.9L48.65 17.65L47.6 16.4M43.45,14.5Q45.65 14.95 47.3 16.6Q48.45 17.75 49.05 19.1Q49.65 20.55 49.65 22.2L49.5 23.75L49.35 24.35Q48.9 26 47.65 27.4L47.3 27.7L47.35 27.7Q46.1 29 44.65 29.55L44.35 29.65L15.15 29.65L14.9 29.6L14.35 29.5Q13.15 29.1 12.25 28.2L12.1 28.1L11.9 27.85L11.85 27.75L11.8 27.7L8.75 24.1L8.6 23.9L3.5 17.9L3.45 17.85L2.7 17.2L1.95 15.85Q1.55 14.95 1.75 13.55Q1.9 12.1 3.35 10.6Q4.75 9.1 5.7 9L6.85 8.9L7.2 8.95L42.45 14.4L43.45 14.5M22.2,24.5Q22.2 26.85 20.7 28.65L36.15 28.7L35.8 28.35Q33.1 25.6 33.1 21.95Q33.1 20.85 33.35 19.8L33.75 18.65Q34.35 17.05 35.7 15.7L36.25 15.2L37.1 14.65L11.9 10.65Q12.9 12.2 12.9 14.15Q12.9 16.8 11 18.7L9.6 19.8Q8.3 20.55 6.75 20.6L9.35 23.7Q9.6 21.55 11.2 19.95L11.35 19.8Q13.2 18.05 15.75 18.05Q18.3 18.05 20.15 19.8L20.3 19.95Q22.2 21.85 22.2 24.5M3.9,13.6L3 13.6L3 15.4L4.2 15.4L4.35 15.65L3.55 16.45L4.75 17.65L5.8 16.6L5.8 18.1L7.6 18.1L7.6 16.5L8.7 17.6L9.95 16.35L8.95 15.35L10.45 15.35L10.45 13.55L8.85 13.55L10 12.4L8.8 11.2L7.9 12.15L7.6 11.95L7.55 10.65L5.8 10.7L5.85 11.65L5.4 11.8L4.7 11.1L3.45 12.35L4.1 13L3.9 13.6M13.7,22.8L12.2 22.85L12.2 24.65L13.1 24.65L13.2 25.3L12.75 25.7L13.95 26.9L14.2 26.7L15 27.2L15 27.35L16.8 27.35L16.8 27.15L17.65 26.6L17.9 26.85L19.15 25.6L18.6 25.05L18.6 24.6L19.65 24.6L19.65 22.8L18.05 22.8L19.2 21.65L18 20.45L16.8 21.65L16.75 19.9L15 19.95L15.05 21.5L13.9 20.35L12.65 21.6L13.8 22.75L13.7 22.8" />
<path style="fill:#0E0E0E;fill-opacity:1" d="M47.7,18.05L45.3 20.65L45.45 20.85L48.8 20.7L48.85 23.1L45.4 23.3L47.95 25.55L46.25 27.45L43.8 25.35L43.55 25.45L43.7 29L41.15 29.15L40.95 25.5L38.55 28.2L36.7 26.5L38.9 24L38.8 23.8L35.45 24.05L35.25 21.5L38.55 21.3Q38.55 21.05 38.7 20.85L36.1 18.6L37.8 16.65L40.55 19.05L40.35 15.4L42.85 15.15L43.05 18.7L43.45 18.85L45.7 16.3L47.7 18.05M20.3,19.95L20.15 19.8Q18.3 18.05 15.75 18.05Q13.2 18.05 11.35 19.8L11.2 19.95Q9.6 21.55 9.35 23.7L6.75 20.6Q8.3 20.55 9.6 19.8L11 18.7Q12.9 16.8 12.9 14.15Q12.9 12.2 11.9 10.65L37.1 14.65L36.25 15.2L35.7 15.7Q34.35 17.05 33.75 18.65L33.35 19.8Q33.1 20.85 33.1 21.95Q33.1 25.6 35.8 28.35L36.15 28.7L20.7 28.65Q22.2 26.85 22.2 24.5Q22.2 21.85 20.3 19.95M5.85,12.25L5.4 11.8L5.85 11.65L5.85 12.25M7.6,12.4L7.6 11.95L7.9 12.15L7.6 12.4M4.6,15.4L4.35 15.65L4.2 15.4L4.6 15.4M3.9,13.6L4.1 13L4.65 13.55L3.9 13.6M7.35,10.85L7.35 12.65L7.55 12.75L8.75 11.55L9.65 12.45L8.4 13.7L8.45 13.85L10.2 13.9L10.15 15.05L8.35 15.05L9.6 16.3L8.6 17.2L7.45 16.05L7.3 16.1L7.3 17.9L6 17.9L6.05 16.05L4.7 17.3L3.85 16.45L5.05 15.25L5 15.1L3.3 15.1L3.3 13.8L4.95 13.85L5 13.6L3.8 12.4L4.75 11.45L6.05 12.75L6 10.9L7.35 10.85M13.95,20.7L15.25 22L15.2 20.15L16.55 20.1L16.55 21.9L16.75 22L17.95 20.8L18.85 21.7L17.6 22.95L17.65 23.1L19.4 23.15L19.35 24.3L17.55 24.3L18.8 25.55L17.8 26.45L16.65 25.3L16.5 25.35L16.5 27.15L15.2 27.15L15.25 25.3L13.9 26.55L13.05 25.7L14.25 24.5L14.2 24.35L12.5 24.35L12.5 23.05L14.15 23.1L14.2 22.85L13 21.65L13.95 20.7M18.15,24.6L18.6 24.6L18.6 25.05L18.15 24.6M16.8,25.75L17.65 26.6L16.8 27.15L16.8 25.75M15,25.85L15 27.2L14.2 26.7L15 25.85M13.8,24.65L13.2 25.3L13.1 24.65L13.8 24.65M13.7,22.8L13.8 22.75L13.85 22.8L13.7 22.8" />
</g>
</svg>
