<?xml version="1.0" encoding="utf-8"?>
<svg version="1.1" id="Layer_1"
xmlns="http://www.w3.org/2000/svg"
xmlns:xlink="http://www.w3.org/1999/xlink"
width="28px" height="15px"
xml:space="preserve">
<g id="964" transform="matrix(1, 0, 0, 1, 6.55, 5.85)">
<path style="fill:#000000;fill-opacity:0.85098" d="M9.45,-5.5L9.5 -5.3L9.45 -5.15L8.7 -4.6L7.55 -4.35L7 -4.55L6.95 -4.65L6.95 -4.9L6.95 -5L6.95 -5.05L7.05 -5.15L7.25 -5.4L7.6 -5.65L8.05 -5.8L8.2 -5.85L8.8 -5.8L9.15 -5.7L9.45 -5.5M13.6,-4.05L13.7 -4Q14.25 -4.2 14.85 -4L15.45 -3.7L16.2 -3L16.75 -2.05L16.85 -1.6Q16.65 -1.05 16.1 -0.95Q14.3 -0.55 13.1 -1.8Q12.4 -2.5 12.5 -3.45Q12.55 -3.85 12.9 -4L13.2 -4.1L13.5 -4.1L13.6 -4.05M18.95,-3.9L19.85 -3.7L20.45 -3.05L20.8 -2.2Q20.85 -1.75 20.5 -1.5Q19.65 -1.15 19 -1.7Q18.5 -2.1 18.35 -2.65Q18.15 -3.3 18.65 -3.7L18.9 -3.85L18.95 -3.9M10.55,1.1Q11.2 2.3 10 3Q8.55 3.8 6.9 3.8Q6.3 3.8 6.2 3.25L4.85 3.2Q3.45 3.5 3.45 2.35L3.5 2.15L4.05 1.4L4.4 0.85L4.45 0.75L4.65 0.6L4.8 0.5L4.9 0.4L5.1 0.3L5.15 0.25L6 0.35L6.5 0.5L6.95 0.9L7.05 1.2L10.25 0.95L10.55 1.1M11.1,4.85L11.55 4.9L11.9 5.1L12.25 5.35L12.55 5.65L12.6 5.7L12.6 5.85L12.6 5.95L12.6 6.1L12.6 6.2L12.6 6.35L12.3 6.6L11.85 6.95L11.4 7.45L10.95 8.1L10.85 8.25Q10.2 8.4 9.95 7.75Q9.7 7.25 9.75 6.75L9.95 5.85Q10.2 5.15 10.95 4.9L11.1 4.85M0.15,1.3L0.2 1.35L0.4 1.55L0.6 2L0.6 2.45L0.2 2.95L0.1 3.05L-0.45 3.15L-1.45 3.05L-1.7 2.95L-1.9 2.7L-1.95 2.2L-1.6 1.75L-1.05 1.3L-0.85 1.3L-0.75 1.3L-0.65 1.25L-0.4 1.25L-0.4 1.2L-0.25 1.25L0.05 1.25L0.15 1.3M1.25,5.65L1.3 5.6L1.3 5.55L1.6 5.25L1.7 5.2L1.8 5.2L1.9 5.25L1.95 5.35L1.95 5.55L1.9 5.65L1.9 5.7L2.5 5.9L2.55 6L2.95 6.05L3.15 6.2Q3.1 6.65 2.65 6.9L2.15 7.1Q1.6 7.3 1.2 6.95L0.65 6.75L0.6 6.8L0.55 6.8L0.45 6.8L0.3 6.75L0.25 6.7L0.25 6.65L0.25 6.55L0.25 6.5L0.3 6.45L0.35 6.4L0.4 6.35L0.45 6.3L0.55 6.25L0.9 6.25L1 6L1.25 5.65M-4.7,2.1L-5.3 2.75L-6.35 2.85L-6.4 2.8L-6.5 2.35L-6.3 1.75L-5.8 1.25L-5.55 1.1L-4.95 1.15L-4.8 1.2L-4.65 1.4Q-4.55 1.75 -4.7 2.1" />
</g>
</svg>
