<?xml version="1.0" encoding="utf-8"?>
<svg version="1.1" id="Layer_1"
xmlns="http://www.w3.org/2000/svg"
xmlns:xlink="http://www.w3.org/1999/xlink"
width="35px" height="49px"
xml:space="preserve">
<g id="433" transform="matrix(1, 0, 0, 1, -0.9, 27.6)">
<path style="fill:#000000;fill-opacity:0.4" d="M19.6,-27.6Q22.3 -26.4 21.05 -23.85Q20.5 -22.65 19.15 -22.35Q16.5 -21.65 14.4 -22.95L14.2 -23.1Q13.8 -24.5 14.65 -25.65Q15.95 -27.45 18.25 -27.45L19.6 -27.6M34.75,5.95Q35.2 6 35.35 6.4L35.3 6.85L34.75 7.35L32.5 8.8L30.6 9.05L30.5 8.9L30.45 8.65L30.4 8.55L30 8.1Q29.65 7.8 29.65 7.35L29.85 6.95L30.05 6.8L31.3 6Q31.8 5.75 32.25 5.55L33.25 5.6L34.75 5.95M21.65,2.8L21.7 2.9Q22 4.45 23.5 5.65Q25.85 7.5 23.1 8.6Q21.55 9.15 20.05 9.85Q18.2 10.7 17.45 8.95Q17.1 8.2 17.25 7.3Q16.2 7 15.3 6.5Q14.75 6.25 15.1 5.75L16.6 3.55Q16.9 3.2 16.65 2.9Q16.65 2.55 16.95 2.35L17.15 2.1L17.2 2Q17.65 1.6 18.25 1.55L18.5 1.55L18.9 1.6L19.2 1.8L19.4 2.1Q20.6 1.8 21.4 2.5L21.65 2.8M11.4,11.8L11.55 11.85L11.65 11.95L11.7 12L11.8 12.1L11.85 12.2L12.25 12.15L12.7 12.25L12.9 12.4L13.1 13.8L12.9 14.5L11.95 15.85Q11.25 16.7 10.3 16.9L8.9 15.6L8.3 15.05L6.85 14L5.95 13.4L5.8 12.85Q5.85 12.5 6.05 12.25L6.15 11.95L6.15 11.85L6.65 11.35L6.75 11.3L8.5 12.05L10.25 12.1L11.4 11.8M11.9,6.7Q10.9 11.15 6.55 8.9L5.95 8.75Q0.8 8.75 1.95 4.35Q2.55 2.15 4.05 0.45Q4.45 -0.05 4.95 -0.15L9.45 0.85Q11.95 1.3 11.65 4.2Q11.5 5.45 11.9 6.7M5.75,18.4Q6 19.05 6.65 19.4L6.7 19.7L6.7 20.1L6.7 20.7L6.7 20.95Q4.75 22.05 3.7 19.9Q3.05 18.55 3.25 16.95Q3.4 15.9 4.25 15.6L4.55 15.65L4.8 15.7L5 15.85L5.15 16L5.35 16.95L5.75 18.4" />
<path style="fill:#000000;fill-opacity:0.4" d="M4,-3.35Q11.45 -2.8 8.95 3.55L8.1 4.3Q2.6 6.5 1.1 1.35Q0.35 -1.15 2.55 -2.7L4 -3.35M16,9.15Q22.6 10.45 18.15 14.8Q15.25 17.6 12.75 14.4Q11.3 12.5 13.1 10.85Q14.4 9.65 16 9.15M7.7,16.2Q7.4 17.3 6.5 18L6.25 18.05Q3.75 18.7 2.2 16.95L1.6 16.4L1.6 16.25L1.5 15.1Q1.35 14.2 1.8 13.45Q2.25 12.6 3.05 12.15Q5.2 11.55 6.7 12.9Q8.2 14.2 7.7 16.2" />
</g>
</svg>
