<?xml version="1.0" encoding="utf-8"?>
<svg version="1.1" id="Layer_1"
xmlns="http://www.w3.org/2000/svg"
xmlns:xlink="http://www.w3.org/1999/xlink"
width="25px" height="22px"
xml:space="preserve">
<g id="669" transform="matrix(1, 0, 0, 1, -9.7, -0.35)">
<path style="fill:#000000;fill-opacity:0.498039" d="M13.65,21.6Q10.8 21.05 10.8 20.3Q10.8 19.55 13.65 19L20.5 18.45L27.25 19Q30.05 19.55 30.05 20.3Q30.05 21.05 27.25 21.6L20.5 22.15L13.65 21.6" />
<path style="fill:#000000;fill-opacity:1" d="M31.3,2.45L30.1 2.85L29.5 3.15L27.8 3.8L26.65 4.3L25.2 5L25.1 6.1L25.3 7.5L26.45 6.7Q27.85 5.85 29.2 6.5L30.35 7.15L30.45 7.4Q30.8 8.35 30.2 9L29.4 9.7L28.6 9.85L27.35 10.1Q28.4 10.95 29.7 11.45Q30.9 12.05 31.95 13.15L32.15 13.45Q31.9 14.3 30.9 14.3L30.15 14.15L29.9 13.55L28.85 13.05L26.2 11.65L25.5 11.2L25.05 11.2L24.8 11L24.55 10.9L24.5 10.85L24.45 11L24.3 11.05L23.55 11.5L22.55 11.6L22.75 11.65L22.65 11.75L22.45 11.8L21.9 11.85L20.55 12.6L20.4 12.75L19.6 13.4L19.5 13.8L19.4 14.3L19.25 16.75Q19.25 17.65 19.55 18.25L19.75 18.7L19.25 19.15Q18.6 19.6 17.8 19.5L17.05 19.45L16.6 18.55L16.45 17.8L16.75 16L16.95 15.55L17.1 14.95L17.15 14.8L17 13.95L17.15 12.9L17.4 12.1Q16.4 12.5 15.25 13.05Q14.4 13.45 13.95 14.35L13.75 14.5L13.75 14.6L13.65 16.25L13.75 16.3L13.3 16.75L12.85 17.05L12.55 17.25L11.7 17.45L10.5 17.55L9.9 17.3L9.7 16.9L9.8 16.25L10.6 15.75Q11.15 15.45 11.3 14.7L11.4 14.5L11.7 14L11.75 13.75Q11.9 12.6 12.75 11.95Q13.65 11.1 14.75 10.8L16.45 10.15L16.75 9.7Q17.45 8.75 18.45 8.3L21.85 7.55L23.05 7.65L23.4 6.1L23.4 5.8L23.25 5.8Q22.25 6.15 21.3 6.65L19.2 7.65L18.85 7.75Q18.45 7.45 18.3 6.75L18.1 6.05L22.1 4.55L23.2 4.9L23.7 4.55L23.65 3.8L23.45 2.25L23.55 2L23.35 1.6L23.25 1.1L23.3 0.75L23.6 0.4L25.2 0.35L25.3 0.6L25.35 0.9L25.3 1.1L25.2 1.35L25.35 2.25L25.3 3.65L26.2 3.25L26.9 2.9L28.55 2.3L32.7 0.9L33.5 0.8L33.9 1.35L32.75 1.9L31.3 2.45" />
</g>
</svg>
