<?xml version="1.0" encoding="utf-8"?>
<svg version="1.1" id="Layer_1"
xmlns="http://www.w3.org/2000/svg"
xmlns:xlink="http://www.w3.org/1999/xlink"
width="23px" height="16px"
xml:space="preserve">
<g id="889" transform="matrix(1, 0, 0, 1, 3.7, -5)">
<path style="fill:#000000;fill-opacity:1" d="M3.1,5Q4.75 5 6.15 6.25L6.8 7.05L8 10.5L9 11.2L9.5 11.7Q9.95 12.1 10.65 11.9L14.2 12.5Q16.5 12.6 18.55 13.95L18.7 15.3L17.6 16.75L15.85 16.35L15.6 15.55L13.95 15.35L17.6 17.75L16.5 20.45L14.05 20L13.85 18.8L7.45 15.05L4.05 13.9L1.15 15.45L-1.9 15.4L-3.6 14.35L-3.6 13.9Q-3.95 12.6 -2.7 11.85L-2.1 11.8L-1.1 13.05L-0.35 13.45L1.85 11.9L1.55 11.75Q-0.25 10.75 0.25 8.95L2.15 7.35Q2.7 7.2 3.25 7.35Q2.3 6.85 2.2 5.75L3.1 5M3.65,7.5L4.05 7.8Q4.45 8.05 4.7 8.75Q5.05 9.7 5.35 9.05Q5.5 8.5 4.9 8.15L3.65 7.5" />
</g>
</svg>
