<?xml version="1.0" encoding="utf-8"?>
<svg version="1.1" id="Layer_1"
xmlns="http://www.w3.org/2000/svg"
xmlns:xlink="http://www.w3.org/1999/xlink"
width="29px" height="11px"
xml:space="preserve">
<g id="1312" transform="matrix(1, 0, 0, 1, 12.3, 9.3)">
<path style="fill:#F8C601;fill-opacity:1" d="M-3.6,0.55L-3.8 1.4L-11.45 -0.75L-9.35 -1.75L-12.3 -3.85L-4.8 -2.95L-5.95 -7.15L-1.25 -2.65L-1.8 -5.4L0.6 -3.55L1.85 -9.3L2.4 -4.6L5.1 -2.8L6.1 -5.65L6.35 -2.4L14 -4.15L13.6 -3.2L12.15 -2.25L16.2 -2.1Q15.95 -1.75 5.2 0.7L4.85 0.15L0.05 -0.35L-2.7 0.4L-3.05 0L-0.3 -1L5.7 0.3L11.75 -1.25L9.75 -1.4L11.45 -2.4L5.6 -1.6L5.55 -2.8L4.8 -1.9L4.1 -2.55L3.4 -2.35L1.9 -3.75L1.8 -6.9L0.95 -2.45L-0.85 -4.2L-0.45 -2.45L-1.65 -1.9L-4.65 -4.3L-3.6 -2.5L-9.75 -2.95L-5.45 -0.95L-10.2 -0.9L-4.6 0.6L-3.1 -0.05L-3.6 0.55" />
<path style="fill:#FFF193;fill-opacity:1" d="M-3.1,-0.05L-4.6 0.6L-10.2 -0.9L-5.45 -0.95L-9.75 -2.95L-3.6 -2.5L-4.65 -4.3L-1.65 -1.9L-0.45 -2.45L-0.85 -4.2L0.95 -2.45L1.8 -6.9L1.9 -3.75L3.4 -2.35L4.1 -2.55L4.8 -1.9L5.55 -2.8L5.6 -1.6L11.45 -2.4L9.75 -1.4L11.75 -1.25L5.7 0.3L-0.3 -1L-3.05 0L-3.1 -0.05" />
</g>
</svg>
