<?xml version="1.0" encoding="utf-8"?>
<svg version="1.1" id="Layer_1"
xmlns="http://www.w3.org/2000/svg"
xmlns:xlink="http://www.w3.org/1999/xlink"
width="41px" height="35px"
xml:space="preserve">
<g id="1582" transform="matrix(1, 0, 0, 1, -4.3, -9.7)">
<path style="fill:#FF0100;fill-opacity:1" d="M44.65,19.7L44.65 19.8Q43.75 19.85 42.95 20.5L43 20Q43 19.55 43.4 19.4Q44.25 19.2 44.65 19.7M34.6,11.6Q33.95 11.55 33.7 10.85Q33.55 10.35 33.75 10.1Q34.05 11.05 34.6 11.6M38,12.05Q38.5 11.95 38.85 12.5Q39.15 13 38.6 13.45Q40.05 14.5 41.8 13.5Q39.85 15.1 38.5 13.55L38.8 12.85L37.8 12.1L38 12.05M28.5,11.4Q28.1 11.1 28.25 10.5Q28.4 10 28.85 9.7L28.5 11.4M30.25,24.65L29.95 25.4L29.9 25.7Q27.1 25.6 26.1 22.35L25.3 21.75L23.05 21.75L23.1 21.7Q23.6 21.45 24.05 21.3L24.15 21.25Q27.5 21.9 28.85 25.3Q29 25.65 29.6 25.6L29.65 25.5L29.95 24.85L30.2 24.55L30.25 24.65M29.15,15.3L29.45 13.7Q29.55 12.6 28.85 11.75Q31.3 13.4 29.15 15.25L29.15 15.3M30.85,23.65L30.8 23.6Q34.3 21.75 32 20.05Q31.5 19.65 31.85 19.4Q35.35 21.35 30.85 23.65M4.55,22.4Q4.9 21.1 5.85 19.9L5.9 19.85Q5.6 20.9 4.55 22.4M15.4,34.95Q17.5 35.2 19.4 33.95Q17.05 29.85 20.9 27.75L21.35 27.5Q20.55 26.5 20.4 25.95Q21.35 26.55 21.6 27.5L21.6 27.6Q17.35 29.45 19.4 33.9Q19.65 34.35 19 34.7Q17.15 35.6 15.4 34.95M7.45,27.6L6.3 28.85Q5.65 29.35 5.55 30.05Q5.35 28.9 7.45 27.6M4.6,25.35Q7.65 26.05 7.55 27.25Q6.35 25.9 4.4 25.4Q4.2 24.2 4.4 23.05Q4.9 23.9 4.75 25.05L4.6 25.35M7,31.55L5.7 30.5L7.2 31.35Q6.8 32.95 5.05 32.15Q6.2 32.4 7 31.55M17.35,43.85Q19.9 44.7 21.8 43Q22.05 42.75 22.3 42.7L23.95 42.8L24.05 42.85Q21 44.65 17.55 44L17.35 43.85M35.45,33.55L35.5 33.35L36.6 33.1L36 33.95Q34.95 34.85 35.9 35.65Q34.65 35 35.45 33.55M36.9,31.75Q36.35 30.75 37.05 29.9L37.2 29.75L36.9 31.75M40.2,21.9L41.6 22.05Q41.05 22.55 40.2 21.9" />
</g>
</svg>
