<?xml version="1.0" encoding="utf-8"?>
<svg version="1.1" id="Layer_1"
xmlns="http://www.w3.org/2000/svg"
xmlns:xlink="http://www.w3.org/1999/xlink"
width="68px" height="28px"
xml:space="preserve">
<g id="381" transform="matrix(1, 0, 0, 1, -64.85, 8.5)">
<path style="fill:#0B0B0B;fill-opacity:0.8" d="M92.35,-1.2Q94.2 -0.35 95.95 0.75Q98.95 2.6 98.95 3.65L98.75 4.1L98.35 4.55L100.35 5.55Q100.85 6 100.85 6.7Q100.85 8.35 97.5 8.35Q95.8 8.35 95.15 7.85L94.3 7.15L90.6 7.7L87.9 8.35Q86.75 8.35 86.6 7.15Q86.5 6.15 86.95 5.25Q85.75 5.1 85.15 3.75Q84.65 2.7 84.65 1.7Q84.65 0.35 87.15 -1.25Q90 -3.1 92.35 -1.2M104.5,15.75Q104.5 16.7 103.6 17.95Q102.5 19.5 101 19.5Q100.25 19.5 96.85 18Q93.5 16.5 93.5 16.25L95.35 14.45Q97.35 12.8 98.5 13.1L102.9 14.05Q104.5 14.4 104.5 15.75M82.15,6.85Q82.15 7.3 80.85 8.75Q79.45 10.3 78.7 10.3L77.7 9.75L76.85 9.15L76.05 9.45L74.9 9.75L74.2 9.5L73.5 9.25Q72.45 9.25 71.85 9.85Q71.25 10.4 70.6 10.4Q69.5 10.4 69.3 10Q69.15 9.55 68.15 9.55Q67.2 9.55 66.8 8.8L66.6 8Q66.6 7.35 69.45 5.65Q72.15 4.05 72.65 4.05Q72.95 4.05 77.1 1.1Q80.95 -1.4 80.35 0.8L81.45 3.75Q82.15 5.85 82.15 6.85M85.45,16.25Q83.95 17.3 80.8 17.3L74.2 15.8Q73.25 15.6 72.75 14.5Q72.4 13.8 72.4 13.25Q72.4 11.65 74.05 10.6L80.6 11.25L84.3 11.55Q85.2 11.55 86.6 14.25Q86.6 15.45 85.45 16.25M66.4,10.5Q67.95 10.9 69.1 13Q68.45 13.1 67.6 13.7L66.55 14.3Q65.8 14.3 65.25 13L64.85 11.7Q64.85 10.05 66.4 10.5" />
<path style="fill:#0B0B0B;fill-opacity:0.6" d="M101.95,-4.95Q102.35 -6 104.7 -6.4L108.3 -7.1Q110.65 -7.45 116.7 -0.8Q116.7 -0.1 114.1 0.75L111.05 1.45L109.6 1.15L108.95 0.65L105.6 0.95Q103.7 0.95 102.45 0.05Q101.45 -0.65 101.45 -1.3L101.85 -2.25Q102.3 -2.9 102.25 -3.25L101.95 -4.95M130.55,-6.85Q129.45 -6.25 128.7 -6.25Q125.95 -6.25 125.95 -7.35Q125.95 -8.5 128.5 -8.5Q131.55 -8.5 131.55 -7.65Q131.55 -7.4 130.55 -6.85M132.8,3.6L132.25 4.25L130.9 4.6Q128.1 4.6 127.2 3.85Q126.85 3.55 126.85 3Q126.85 2.2 128.95 2.2Q130.75 2.2 131.9 2.75Q132.8 3.2 132.8 3.6M121.4,12.1Q121.4 12.8 120.1 13.55Q118.45 14.5 115.85 14.5Q114.8 14.5 114.4 13.05L114.2 11.5Q114.2 11.05 114.65 10.35Q115.25 9.4 116.2 9.4Q121.4 11.95 121.4 12.1" />
</g>
</svg>
