<?xml version="1.0" encoding="utf-8"?>
<svg version="1.1" id="Layer_1"
xmlns="http://www.w3.org/2000/svg"
xmlns:xlink="http://www.w3.org/1999/xlink"
width="94px" height="38px"
xml:space="preserve">
<g id="909" transform="matrix(1, 0, 0, 1, -9.05, -2.95)">
<path style="fill:#000000;fill-opacity:1" d="M27.45,18.1L27.65 19L27.4 19L27.15 20.15Q26.95 20.6 26.6 20.6L30.3 22.9L31.15 25.7L30.7 26.2L31.7 26.05L32.85 22.3L34.2 22.45L33.05 32.05L30.65 32.3L28.45 27.75L28.2 27.85Q28 27.85 27.9 28.05L28.4 29L30.45 32.2L30.45 32.5L26.95 32.75L25.8 32.45L25.6 32.15L25.55 32.15Q26.2 31.7 26.9 31.35Q26.75 30.45 26.3 30Q25.65 29.45 25.3 28.6L24.45 26.25Q26.1 25.25 28.1 25.5L27 23.9L26.95 23.9L26.95 23.85L20.4 24.05L20.55 23.2L22.7 23.25Q22.15 23.1 21.65 22.8L21.85 22L25.1 22.15L25.5 21.8L24.9 20.9L24 20.95L23.8 20.6L23.3 18.85L22.9 18.85Q23.35 17.95 24 17.35Q24.6 16.75 25.4 16.5L27.05 17.25L27.45 18.1M21.75,25.45L23.85 32.75L23.1 32.95L21 25.65L21.75 25.45" />
<path style="fill:#100806;fill-opacity:1" d="M102.15,24.6L100.05 24.3L98.5 13.2L99.55 24.2L98.2 24L95.85 18.7L61.95 27.45L61.3 31.95L53.75 32.25L55.25 38.75L59.15 38.3L59.15 40.7Q48.4 41.15 31.7 40.65Q27.75 39.95 24.55 35.8L26.05 35Q28.5 38.1 31.6 38.9L32.8 39L33.9 32.9L19.85 32.9Q18.65 33.65 17.1 33.65Q14.95 33.65 13.45 32.15Q11.95 30.65 11.95 28.5Q11.95 27.4 12.35 26.45L9.05 26.45L9.05 24.85L21.75 15.3L29.35 15.3L38.1 17L39.45 15L36.45 13.3L38.45 10.3L41.3 11.5L43.3 9.3L46.5 9.3L47.2 3.45L48.05 2.95L49.05 3.8L49.75 9.3L52.55 9.3L54.4 11.8L56.9 10.65L59.25 13.5L56.75 15L58.25 17.5L94.35 12.65L98 3.55L102.3 3.65L102.15 24.6M82.95,15.55L80.75 21.25L89.4 19.05L82.95 15.55M95.55,17.5L95.1 15.7L93.4 18.05L95.55 17.5M94.65,13.8L85.05 15.25L91.25 18.6L91.3 18.6L94.65 13.85L94.65 13.8M67.45,17.85L63.4 25.55L76.15 22.4L67.45 17.85M78.4,21.8L81.15 15.8L69.9 17.5L78.4 21.8M51,32.25L36.65 32.25L35.15 38.85L52.7 38.85L51 32.25M58.7,19.1L61.55 25.4L65.25 18.3L58.7 19.1M37.2,19.3L29.25 16.65L22.5 16.65L14.55 22.8L35.5 22.95L37.2 19.3" />
</g>
</svg>
