<?xml version="1.0" encoding="utf-8"?>
<svg version="1.1" id="Layer_1"
xmlns="http://www.w3.org/2000/svg"
xmlns:xlink="http://www.w3.org/1999/xlink"
width="13px" height="15px"
xml:space="preserve">
<g id="790" transform="matrix(1, 0, 0, 1, 0, 0)">
<path style="fill:#000000;fill-opacity:1" d="M3.7,14.9L2.85 12.9L2.1 9.65L2.3 9.7L2.7 9.6L2.95 9.25L2.85 8.8L2.5 8.55L2.05 8.65L2 8.7L1.9 8.8L0.45 2.65L0.55 2.85L0.9 3.1L0.95 3.1L1.35 3L1.6 2.65L1.5 2.2L1.15 1.95L0.7 2.05L0.55 2.25L0.5 2.25L0.45 2.65L0 0.8L0.75 0.45L1.1 0.5L1.1 0.3L1.15 0L5.6 0.9L5.7 0.3L7.85 1.9L2.3 0.85L3.15 1.9L9.45 3.15L12.65 5.6L4.95 4L7.1 5.75Q11.25 6.3 10.7 10.3L10.4 11.7L11 13.65L3.7 14.9" />
<path style="fill:#BD8051;fill-opacity:1" d="M9.45,3.15L3.15 1.9L2.3 0.85L7.85 1.9L9.45 3.15M0.45,2.65L0.5 2.25L0.55 2.25L0.7 2.05L1.15 1.95L1.5 2.2L1.6 2.65L1.35 3L0.95 3.1L0.9 3.1L0.55 2.85L0.45 2.65M1.9,8.8L2 8.7L2.05 8.65L2.5 8.55L2.85 8.8L2.95 9.25L2.7 9.6L2.3 9.7L2.1 9.65L2 9.55L1.9 9.45L1.8 9.25L1.85 8.85L1.9 8.8" />
<path style="fill:#553A24;fill-opacity:1" d="M11,13.65L10.4 11.7L10.7 10.3Q11.25 6.3 7.1 5.75L4.95 4L12.65 5.6L11 13.65" />
</g>
</svg>
