<?xml version="1.0" encoding="utf-8"?>
<svg version="1.1" id="Layer_1"
xmlns="http://www.w3.org/2000/svg"
xmlns:xlink="http://www.w3.org/1999/xlink"
width="88px" height="98px"
xml:space="preserve">
<g id="457" transform="matrix(1, 0, 0, 1, 17.8, 30.35)">
<path style="fill:#FFCC00;fill-opacity:1" d="M35.5,-30.35L35.7 -30.35L35.85 -30.35L36.2 -30.25L36.4 -30.15Q36.35 -28.3 35.65 -26.4L34.25 -22.35Q33.8 -20.95 32.8 -19.95L32.25 -20L32.1 -19.95L31.6 -19.95Q31.25 -22 31.95 -24.1L33.55 -28.3Q34.15 -29.75 35.5 -30.35M1.95,-11.55L0.85 -12.95L-0.4 -14.3L-0.45 -14.3L0 -11.95Q0.15 -10.7 0.9 -9.75Q1.3 -9.25 1.95 -9.05L1.9 -9.9L1.85 -10.75L1.95 -11.55M3.6,-7Q1.1 -6.85 -0.65 -9.6L-1.25 -11.15Q-1.75 -13.95 -2.7 -16.55L-2.8 -17.55L-2.75 -17.65L-2.6 -17.8L-2.45 -17.9L-2.2 -17.95L-2 -17.95L-1.95 -18Q-0.1 -16.6 1.55 -14.9Q3.45 -12.95 3.4 -10.6L3.2 -7.85L3.4 -7.7L3.55 -7.55L3.65 -7.4L3.65 -7.3L3.65 -7.15L3.6 -7M22.25,-0.25L25.6 -0.1Q27.3 0.25 28.85 0.95L29.75 1.8Q32.1 1.6 34.1 2.75L35.5 3.7L35.5 3.65L35.75 3.45L36.25 3.25L37.7 3.4L39 3.7L39.45 4.1Q44 4.65 46 8.55Q47.85 12.35 47.4 16.75Q47.2 18.7 46.1 19.45Q47.3 21.2 47.15 23.8Q46.9 27.4 44 29.4Q42.25 30.65 40.65 30Q40.75 32.45 38.95 34.85Q37.65 36.55 35.5 36.95Q31.4 37.65 29 35.75Q26.6 37.85 22.8 36.55Q21.2 36.05 19.9 34.8L19.4 34.3Q17.6 34.45 15.25 33.3Q13.05 32.2 12.1 30.25Q9.2 31.3 6.4 28.1Q4.65 26.15 4.3 23.65Q4.05 22.1 4.65 20.85Q3.4 19.6 3.55 17.15Q3.75 13.45 6.4 10.7Q7.1 10 7.95 9.5Q8.15 8.95 8.6 8.45L10.5 6.55Q12.8 4.6 15.7 4.15L15.75 3.75Q16.35 2.6 17.35 1.8Q19.05 0.4 21.25 -0.05L22.25 -0.25M47.1,-24.4L47.4 -24.3L47.6 -24.2Q47.95 -21.65 46.7 -19.25Q45.45 -16.85 43.65 -14.85Q42.4 -13.45 40.9 -13.6Q41.05 -16 42.1 -18.25Q43 -20.25 44.4 -22.05Q45.5 -23.5 46.9 -24.45L47.1 -24.4M45.4,-20.6Q45.85 -21.3 45.7 -21.65L44.5 -20.2L43.65 -18.35L43 -17.1Q43.9 -17.65 44.35 -18.65L45.4 -20.6M66.6,18.2Q64.6 18 62.55 18.15Q62 18.2 61.75 17.75L61.9 17.35L62.2 17.15L62.35 17L62.5 16.85L62.6 16.6L62.75 16.45L62.9 16.4L63.3 16.4L63.5 16.35L63.5 16.3L65.1 16.55L66.7 16.95Q67.3 17.15 67.3 17.75Q67.15 18.3 66.6 18.2M38.35,9.5L38.65 10Q39.25 10.75 40 11L40.1 11.15Q41.8 13.55 41.05 16.3L40.7 17.2Q41.8 18.2 41.95 20Q42.15 22.95 39.45 24.5L37.95 25L39.4 23.9Q41 22.15 40.75 19.9L40.65 19.15L39.8 16.65Q40.6 15.65 40.1 14.25Q39.4 12.05 37.7 10.6Q36.4 9.5 34.9 8.8L34.9 8.75L35.05 8.65L35.25 8.55L35.5 8.5L36 8.6Q36.4 8.95 36.95 9.1Q37.55 8.65 37.2 7.9Q36.35 5.95 34.9 4.3Q34.3 3.65 33.5 3.35Q30.75 2.3 27.85 2.3L27.3 1.7L25.4 1.2L22.6 1.05L21.65 1.3Q20.2 1.5 18.95 2.3L18.5 2.8L18.05 3.3Q17.25 3.9 17.65 4.7L17.75 4.85L17.35 4.95Q14.55 5.55 12.2 7.05Q11.45 7.5 10.8 8.1Q10.1 8.7 9.75 9.55L9.75 10L9.65 10.1L9.75 10.1L9.9 10.25L10.35 10.05L10.4 10.15L10.8 10.4L11 10.55L10.9 10.55L10.35 10.65Q5.7 11.55 5.3 15.9L5.2 16.7L5.35 18.15L5.35 18.25L5.9 20.4L6.45 21.55L6.1 21.45L5.8 21.6L5.5 21.5L5.55 21.8Q4.9 22.35 5.1 23.4Q5.55 25.6 7.25 27.1Q9.65 29.25 12.45 29.1L12.65 29.4L13 29.9L14 31.15L14.35 31.65L14.7 31.7L15 31.85L15.3 32.05L15.25 32.1L15.25 32.25L15.3 32.4L15.35 32.5Q16.5 33.15 17.9 33.2Q20 33.35 21.9 32.4Q22.9 31.9 23.3 31.35L22.25 32.85L21.45 32.95L21.4 33.6L21.05 33.8L21.55 34.15Q21.95 35.2 23.65 35.45Q26.4 35.95 28.2 34.15L28.2 34.05L27.9 33.4L27.6 33.05Q27.4 32.9 27.45 32.6L27.5 32.4Q30 36.5 34.9 35.8Q37.7 35.4 39 33.05Q41.35 28.7 37.9 26.15L37.95 26.05L38.15 25.95L38.45 25.8L38.8 25.85L39.15 25.9L39.8 26.95L39.65 27L39.85 27.1Q40.5 28.4 40.65 29.65Q43.85 28.35 45.1 25.2Q46.15 22.55 44.5 20.3L44.35 18.2L44.6 18L45.05 18.35L45.2 17.3Q45.9 16.25 45.9 14.7Q45.9 12.55 45.1 10.75Q44.4 8.85 42.75 7.35Q42 6.65 41.2 6.2Q39.5 4.95 37.45 4.2Q36.8 4.35 36.75 4.95L36.7 4.9L36.75 5L36.8 5.4Q36.95 6.1 37.4 6.7L38.15 7.95L38.15 8.2L38.15 8.85L38.1 9.35L38.35 9.5M59.95,24.4L60.15 24.35L60.15 24.3L65.05 25.7Q67.6 26.4 68.9 28.5L70.05 31.15Q68.7 32.1 66.7 31.6L64.25 31.2L63.05 30L61.55 28.5L59.95 27.2L59.5 26.65L59.45 26.55L59.45 26.4L59.4 26.25L59.4 26.1L59.4 26L59.45 25.85L59.5 25.7L59.6 25.55L59.75 25.45L59.65 25.15L59.65 24.9L59.65 24.75L59.7 24.6L59.95 24.4M62.7,27.45L64.05 28.85L65.05 29.7L67.8 29.75Q67.35 28.15 65.8 27.65L63.05 26.7L61.85 26.1L61.2 26.05L62.7 27.45M25.6,6.2L24.35 6.15L23.6 6.35Q22.7 6.5 22 7.05L21.5 7.5L21.2 7.7Q20.95 7.85 20.85 8.1L20.45 8.45L20.2 8.9L20.2 9.25Q19.65 9.45 19.25 9.85L18.85 10L18.45 10.65L18.25 11.5L18 12.8L17.65 12.9Q16.6 12.3 16.9 10.95Q17.15 9.9 18 9.2Q18.6 8.65 19.3 8.4L19.45 7.85L19.7 7.45L21.35 5.9Q22.05 5.35 22.8 5.1L25.2 5.25Q25.8 5.3 25.95 5.9L25.9 6.05L25.85 6.2L25.8 6.25L25.6 6.2M29.25,9.9L29.4 9.85L29.6 9.85L29.8 9.8L29.8 9.75Q31.7 10.1 32.95 11.65Q34.25 13.25 33.45 15.05Q34.45 15.75 34.6 17.2Q34.85 19.5 32.95 20.6Q31.8 21.25 30.85 20.6L30.9 20.5L30.95 20.45Q32.7 19.85 33.2 18.25Q33.55 16.9 32.65 16.3Q32.65 15.05 32.25 13.65Q31.45 11.2 29.25 9.9M23.25,14.5Q22.5 15.4 22.55 16.4Q22.3 16.95 22.75 17.4L22.8 17.5Q22.85 18.25 23.5 18.9Q22.05 19.05 21.5 17.5Q21.1 16.3 21.75 15.2Q22.25 14.3 23.2 14.1L23.35 14.15L23.55 14.2L23.25 14.5M23.3,26.95L23.6 27.15L24.75 27.35Q27.3 28.2 29.8 26.55L30.45 26.05Q29.5 28.25 26.95 28.7Q24.6 29.15 22.85 27.75Q21.9 27 22.4 26.25L23.3 26.95M19.75,24.95L19.8 25.15L19.9 25.25L20 25.35L20.1 25.65Q16.7 25.55 14.6 22.15Q13.65 20.65 14.1 18.95Q14.45 17.6 15.45 16.9L15.5 17L15.45 17.1Q14.85 18.85 15.35 20.6L15.25 21.3Q15.35 22.25 15.95 22.95Q16.9 24.05 18.35 24.5L19.4 24.75L19.65 24.75L19.75 24.95M0,44.65L-0.2 45.2Q0.35 46.5 -0.9 47.8Q-1.8 48.65 -2.35 49.85L-3 51.3Q-3.85 51.75 -4.65 50.9L-5.45 49.9L-3.5 47.2L-1.25 44.55Q-0.8 43.9 -0.2 43.6Q0.2 43.7 0.2 44.1L0 44.65M44.9,61.9L46.7 64.45Q47.25 65.25 47.45 66.15Q44.85 67.8 44.1 64.85Q43.65 63.05 42.8 61.45Q42.05 60.1 43.05 59.45L44.9 61.9M-11,19.5L-10.65 19.75L-10.5 20Q-11.6 21.25 -13.55 21.7L-16.95 21.55Q-17.8 21.35 -17.8 20.55Q-16.8 19.7 -15.15 19.75L-11.4 19.45L-11 19.5" />
<path style="fill:#FFFF00;fill-opacity:1" d="M1.85,-10.75L1.9 -9.9L1.95 -9.05Q1.3 -9.25 0.9 -9.75Q0.15 -10.7 0 -11.95L-0.45 -14.3L-0.4 -14.3L0.85 -12.95L1.95 -11.55L1.85 -10.75M44.35,-18.65Q43.9 -17.65 43 -17.1L43.65 -18.35L44.5 -20.2L45.7 -21.65Q45.85 -21.3 45.4 -20.6L44.35 -18.65M42.25,24.35Q43.3 22.7 42.8 20.75Q42 17.75 44.1 16.1L44.15 13.75Q43.95 12.15 43.15 10.7Q41.8 8.2 39.4 6.9L39.55 7.3L39.7 7.6L39.95 8.15L40 8.6L39.95 8.8L40.35 9.15L41.05 10.2Q41.25 10.75 40.8 11.1L40 11Q39.25 10.75 38.65 10L38.35 9.5L38.15 8.85L38.15 8.2L38.2 8.05L38.15 7.95L37.4 6.7Q36.95 6.1 36.8 5.4L36.75 5L36.75 4.95Q36.8 4.35 37.45 4.2Q39.5 4.95 41.2 6.2Q42 6.65 42.75 7.35Q44.4 8.85 45.1 10.75Q45.9 12.55 45.9 14.7Q45.9 16.25 45.2 17.3L45.05 18.35L44.6 18L44.35 18.2L44.5 20.3Q46.15 22.55 45.1 25.2Q43.85 28.35 40.65 29.65Q40.5 28.4 39.85 27.1L39.65 27L39.8 26.95Q41.2 26.05 42.25 24.35M21.4,33.6L21.45 32.95L22.25 32.85Q22.55 32.9 22.85 33.1Q24.35 34.15 26.15 33.65L26.15 33.55L26 32.55L25.85 31.15Q25.9 30.2 26.5 29.5L26.7 29.35Q28.45 30.95 30.65 32.2L32.3 32.5Q36.75 32.2 36.6 28L36.45 26.15L36.5 26.05L36.6 25.9L36.8 25.8L37.15 25.7L37.15 25.65L37.9 26.15Q41.35 28.7 39 33.05Q37.7 35.4 34.9 35.8Q30 36.5 27.5 32.4L27.45 32.6Q27.4 32.9 27.6 33.05L27.9 33.4L28.2 34.05L28.2 34.15Q26.4 35.95 23.65 35.45Q21.95 35.2 21.55 34.15L21.4 33.6M5.8,21.6L6.1 21.45L6.45 21.55L5.9 20.4L5.35 18.25L5.35 18.2L5.35 18.15L5.2 16.7L5.25 16.45L5.3 15.9Q5.7 11.55 10.35 10.65L10.9 10.55L11 10.55L10.8 10.4L10.4 10.15L10.35 10.05L9.9 10.25L9.75 10.1L9.75 10L9.75 9.55Q10.1 8.7 10.8 8.1Q11.45 7.5 12.2 7.05Q14.55 5.55 17.35 4.95L17.75 4.85L17.65 4.7Q17.25 3.9 18.05 3.3L18.5 2.8L18.95 2.3Q20.2 1.5 21.65 1.3L22.6 1.05L25.4 1.2L27.3 1.7L27.85 2.3Q30.75 2.3 33.5 3.35Q34.3 3.65 34.9 4.3Q36.35 5.95 37.2 7.9Q37.55 8.65 36.95 9.1Q36.4 8.95 36 8.6Q35.6 8.2 35.35 7.6L34.6 6.35Q31.1 1.8 25.35 4.4L24.95 4.35L24.85 4.2L24.8 4.05L24.8 3.95L24.85 3.65L25 3.35L25.25 3.1L25.35 2.95L25.1 2.85Q22.45 2.5 20.25 3.65L19.3 4.1L19.1 4.15L19.2 4.2L19.4 4.25L19.7 4.35L20.1 4.55L20.3 4.7L20.4 4.85L20.4 4.95L20.45 5.1L20.45 5.25L20.4 5.55L20.4 5.65L20.35 5.8Q19.65 6.4 18.8 6.4L16.3 6.7Q15 6.95 13.95 7.75L11.4 9.45L13.05 9.65L14.5 10.2Q15.2 10.55 15 11.15L14.7 11.2Q12.35 12.4 10.25 14.5Q9.25 15.5 9.4 17Q9.7 20.45 12.35 22.5L12.45 22.7Q11.25 23.85 9.5 22.85L9 23.5Q8.05 24.4 8.85 25.4L9.85 26.45L10.8 26.6Q10.75 26.05 11 25.6L11.65 24.9L12.05 24.8L12.6 24.3Q13.85 25.3 14 27Q14.1 28.25 14.85 29.3L15.35 29.95L15.95 30.55Q17.85 30.8 20 30.6Q21.55 30.45 22.85 29.65L23.15 29.5Q23.9 30.45 23.3 31.35Q22.9 31.9 21.9 32.4Q20 33.35 17.9 33.2Q16.5 33.15 15.35 32.5L15.3 32.4L15.25 32.25L15.25 32.1L15.3 32.05L15 31.85L14.7 31.7L14.35 31.65L14 31.15L13 29.9L12.65 29.4L12.45 29.1Q9.65 29.25 7.25 27.1Q5.55 25.6 5.1 23.4Q4.9 22.35 5.55 21.8L5.8 21.6M34.9,8.8Q36.4 9.5 37.7 10.6Q39.4 12.05 40.1 14.25Q40.6 15.65 39.8 16.65L40.65 19.15L40.7 19.6L40.75 19.9Q41 22.15 39.4 23.9L37.95 25L35.45 25.3L35.35 25L35.3 24.6L35.4 24.15L35.5 23.75L35.6 23.6L36.85 22.65L37.65 21.55L37.9 20.25L38.15 19.55L37.7 18.55L37.35 17.75L36.85 16.85L36.05 16L36 15.85L36 15.75L36 15.6L36 15.45L36 15.3L36.05 15.15L36.7 14.7L38.3 14.3Q38 13.3 37.3 12.45Q36.2 11.05 34.6 10.25Q32.8 9.35 34.05 8.45L34.9 8.8M61.2,26.05L61.85 26.1L63.05 26.7L65.8 27.65Q67.35 28.15 67.8 29.75L65.05 29.7L64.05 28.85L62.7 27.45L61.2 26.05M18.3,11.35Q18.6 10.45 19.25 9.85Q19.65 9.45 20.2 9.25L20.2 8.9L20.45 8.45L20.85 8.1L21.5 7.5L22 7.05Q22.7 6.5 23.6 6.35L24.35 6.15L25.6 6.2L25.8 6.25L26.7 6.5Q27.3 6.7 27.2 7.3L26.8 7.65Q24.9 7.4 23.2 8.35L22 9.35L21.95 9.45L21.95 9.6L21.9 9.9L21.95 10.05L21.95 10.3L21.85 10.6L21.7 10.7L21.2 10.75L20.55 11.2Q19.6 11.75 19.7 12.85L19.95 15.4L19.9 15.55Q18.6 15.75 18.2 14.3Q17.95 13.55 18 12.8L18.25 11.5L18.3 11.35M32.25,13.65Q32.65 15.05 32.65 16.3Q33.55 16.9 33.2 18.25Q32.7 19.85 30.95 20.45L30.9 20.5L30.8 20.5Q29.85 21.15 28.85 20.2L28.95 19.95Q28.95 19.35 29.35 19Q29.9 18.5 30.7 18.3L30.9 17.95L31.15 17.15L31 16.85L30.95 16.45L31.05 16.3L30.95 16.15Q30.5 15.8 30 16.4L29 17.3L28.1 17.25Q27.8 16.95 27.95 16.55Q28.05 16.15 28.4 15.85L28.95 15.3L29.3 14.85L28.85 13.3L27.7 11.7Q26.45 10.45 27.55 9.3L27.7 9.2Q28.55 9.5 29.25 9.9Q31.45 11.2 32.25 13.65M22.7,17.3L22.55 16.4Q22.5 15.4 23.25 14.5L23.55 14.2Q24.05 13.75 24.65 13.55Q25.35 13.95 24.8 14.6L24.1 15.75L23.85 16.5L24.1 17.05L24.25 17.3L24.95 18.05L25.15 18.3L25.6 18.4Q26.35 18.55 26.4 19.3Q25.05 20.4 23.55 18.95L23.5 18.9Q22.85 18.25 22.8 17.5L22.75 17.4L22.7 17.3M22.4,26.25L22.05 25.95L21.75 25.4L21.35 25.5L20.05 25.4L20 25.35L19.9 25.25L19.8 25.15L19.75 24.95L19.75 24.85L19.75 24.75L19.65 24.75L19.4 24.75L18.35 24.5Q16.9 24.05 15.95 22.95Q15.35 22.25 15.25 21.3L15.35 20.6Q14.85 18.85 15.45 17.1L15.5 17Q16.05 15.6 17.35 15.15L17.7 15.2L18 15.3L18.25 15.55Q17.2 17.3 17.15 19.35Q17.1 22.05 19.5 23L19.75 23.1L19.9 23.1L21.8 23.3L22.05 22.8L22.1 22.75L22.45 23.1L22.6 23.65L22.65 23.65L22.7 23.75L27.1 22.8Q28.25 22.45 28.8 21.4Q29 21 29.35 20.95Q31.2 21.95 30.55 23.5L30.85 23.55Q31.45 25 30.45 26.05L29.8 26.55Q27.3 28.2 24.75 27.35L23.6 27.15L23.3 26.95L22.4 26.25M9.7,12.7L9.75 12.6L9.65 12.65L9.7 12.7M23.85,25.1L23.85 25.05L23.75 25L23.85 25.1" />
<path style="fill:#FFFFFF;fill-opacity:1" d="M22.25,32.85L23.3 31.35Q23.9 30.45 23.15 29.5L22.85 29.65Q21.55 30.45 20 30.6Q17.85 30.8 15.95 30.55L15.35 29.95L14.85 29.3Q14.1 28.25 14 27Q13.85 25.3 12.6 24.3L12.05 24.8L11.65 24.9L11 25.6Q10.75 26.05 10.8 26.6L9.85 26.45L8.85 25.4Q8.05 24.4 9 23.5L9.5 22.85Q11.25 23.85 12.45 22.7L12.35 22.5Q9.7 20.45 9.4 17Q9.25 15.5 10.25 14.5Q12.35 12.4 14.7 11.2L15 11.15Q15.2 10.55 14.5 10.2L13.05 9.65L11.4 9.45L13.95 7.75Q15 6.95 16.3 6.7L18.8 6.4Q19.65 6.4 20.35 5.8L20.4 5.65L20.4 5.55L20.45 5.25L20.45 5.1L20.4 4.95L20.4 4.85L20.3 4.7L20.1 4.55L19.7 4.35L19.4 4.25L19.2 4.2L19.1 4.15L19.3 4.1L20.25 3.65Q22.45 2.5 25.1 2.85L25.35 2.95L25.25 3.1L25 3.35L24.85 3.65L24.8 3.95L24.8 4.05L24.85 4.2L24.95 4.35L25.35 4.4Q31.1 1.8 34.6 6.35L35.35 7.6Q35.6 8.2 36 8.6L35.5 8.5L35.25 8.55L35.05 8.65L34.9 8.75L34.9 8.8L34.05 8.45Q32.8 9.35 34.6 10.25Q36.2 11.05 37.3 12.45Q38 13.3 38.3 14.3L36.7 14.7L36.05 15.15L36 15.3L36 15.45L36 15.6L36 15.75L36 15.85L36.05 16L36.85 16.85L37.35 17.75L37.7 18.55L38.15 19.55L37.9 20.25L37.65 21.55L36.85 22.65L35.6 23.6L35.5 23.75L35.4 24.15L35.3 24.6L35.35 25L35.45 25.3L37.95 25L39.45 24.5Q42.15 22.95 41.95 20Q41.8 18.2 40.7 17.2L41.05 16.3Q41.8 13.55 40.1 11.15L40 11L40.8 11.1Q41.25 10.75 41.05 10.2L40.35 9.15L39.95 8.8L40 8.6L39.95 8.15L39.7 7.6L39.55 7.3L39.4 6.9Q41.8 8.2 43.15 10.7Q43.95 12.15 44.15 13.75L44.1 16.1Q42 17.75 42.8 20.75Q43.3 22.7 42.25 24.35Q41.2 26.05 39.8 26.95L39.15 25.9L38.8 25.85L38.45 25.8L38.15 25.95L37.95 26.05L37.9 26.15L37.15 25.65L37.15 25.7L36.8 25.8L36.6 25.9L36.5 26.05L36.45 26.15L36.6 28Q36.75 32.2 32.3 32.5L30.65 32.2Q28.45 30.95 26.7 29.35L26.5 29.5Q25.9 30.2 25.85 31.15L26 32.55L26.15 33.55L26.15 33.65Q24.35 34.15 22.85 33.1Q22.55 32.9 22.25 32.85M18.2,14.3Q18.6 15.75 19.9 15.55L19.95 15.4L19.7 12.85Q19.6 11.75 20.55 11.2L21.2 10.75L21.7 10.7L21.85 10.6L21.95 10.3L21.95 10.05L21.9 9.9L21.95 9.6L21.95 9.45L22 9.35L23.2 8.35Q24.9 7.4 26.8 7.65L27.2 7.3Q27.3 6.7 26.7 6.5L25.8 6.25L25.85 6.2L25.9 6.05L25.95 5.9Q25.8 5.3 25.2 5.25L22.8 5.1Q22.05 5.35 21.35 5.9L19.7 7.45L19.45 7.85L19.3 8.4Q18.6 8.65 18 9.2Q17.15 9.9 16.9 10.95Q16.6 12.3 17.65 12.9L18 12.8Q17.95 13.55 18.2 14.3M30.85,20.6Q31.8 21.25 32.95 20.6Q34.85 19.5 34.6 17.2Q34.45 15.75 33.45 15.05Q34.25 13.25 32.95 11.65Q31.7 10.1 29.8 9.75L29.8 9.8L29.6 9.85L29.4 9.85L29.25 9.9Q28.55 9.5 27.7 9.2L27.55 9.3Q26.45 10.45 27.7 11.7L28.85 13.3L29.3 14.85L28.95 15.3L28.4 15.85Q28.05 16.15 27.95 16.55Q27.8 16.95 28.1 17.25L29 17.3L30 16.4Q30.5 15.8 30.95 16.15L31.05 16.3L30.95 16.45L31 16.85L31.15 17.15L30.9 17.95L30.7 18.3Q29.9 18.5 29.35 19Q28.95 19.35 28.95 19.95L28.85 20.2Q29.85 21.15 30.8 20.5L30.9 20.5L30.85 20.6M23.55,18.95Q25.05 20.4 26.4 19.3Q26.35 18.55 25.6 18.4L25.15 18.3L24.95 18.05L24.25 17.3L24.1 17.05L23.85 16.5L24.1 15.75L24.8 14.6Q25.35 13.95 24.65 13.55Q24.05 13.75 23.55 14.2L23.35 14.15L23.2 14.1Q22.25 14.3 21.75 15.2Q21.1 16.3 21.5 17.5Q22.05 19.05 23.5 18.9L23.55 18.95M15.45,16.9Q14.45 17.6 14.1 18.95Q13.65 20.65 14.6 22.15Q16.7 25.55 20.1 25.65L20 25.35L20.05 25.4L21.35 25.5L21.75 25.4L22.05 25.95L22.4 26.25Q21.9 27 22.85 27.75Q24.6 29.15 26.95 28.7Q29.5 28.25 30.45 26.05Q31.45 25 30.85 23.55L30.55 23.5Q31.2 21.95 29.35 20.95Q29 21 28.8 21.4Q28.25 22.45 27.1 22.8L22.7 23.75L22.65 23.65L22.6 23.65L22.45 23.1L22.1 22.75L22.05 22.8L21.8 23.3L19.9 23.1L19.75 23.1L19.5 23Q17.1 22.05 17.15 19.35Q17.2 17.3 18.25 15.55L18 15.3L17.7 15.2L17.35 15.15Q16.05 15.6 15.5 17L15.45 16.9" />
</g>
</svg>
