<?xml version="1.0" encoding="utf-8"?>
<svg version="1.1" id="Layer_1"
xmlns="http://www.w3.org/2000/svg"
xmlns:xlink="http://www.w3.org/1999/xlink"
width="228px" height="40px"
xml:space="preserve">
<g id="351" transform="matrix(1, 0, 0, 1, 115.05, 71.55)">
<path style="fill:#665954;fill-opacity:0.498039" d="M-84.2,-60.95Q-87.85 -57.25 -87.85 -52.1Q-87.85 -46.95 -84.2 -43.3Q-80.5 -39.6 -75.35 -39.6Q-70.2 -39.6 -66.55 -43.3Q-62.85 -46.95 -62.85 -52.1Q-62.85 -57.25 -66.55 -60.95Q-70.2 -64.6 -75.35 -64.6Q-80.5 -64.6 -84.2 -60.95M-75.35,-71.55Q-67.3 -71.55 -61.65 -65.85Q-55.9 -60.15 -55.9 -52.1Q-55.9 -44.05 -61.65 -38.35Q-67.3 -32.65 -75.35 -32.65Q-83.4 -32.65 -89.1 -38.35Q-94.8 -44.05 -94.8 -52.1Q-94.8 -60.15 -89.1 -65.85Q-83.4 -71.55 -75.35 -71.55" />
<path style="fill:#665954;fill-opacity:0.498039" d="M65.25,-60.45Q61.6 -56.75 61.6 -51.6Q61.6 -46.45 65.25 -42.8Q68.95 -39.1 74.1 -39.1Q79.25 -39.1 82.9 -42.8Q86.6 -46.45 86.6 -51.6Q86.6 -56.75 82.9 -60.45Q79.25 -64.1 74.1 -64.1Q68.95 -64.1 65.25 -60.45M74.1,-71.05Q82.15 -71.05 87.8 -65.35Q93.55 -59.65 93.55 -51.6Q93.55 -43.55 87.8 -37.85Q82.15 -32.15 74.1 -32.15Q66.05 -32.15 60.35 -37.85Q54.65 -43.55 54.65 -51.6Q54.65 -59.65 60.35 -65.35Q66.05 -71.05 74.1 -71.05" />
<path style="fill:#665954;fill-opacity:0.498039" d="M-107.8,-51.9Q-104.8 -51.9 -102.7 -49.75Q-100.55 -47.65 -100.55 -44.65Q-100.55 -41.65 -102.7 -39.5Q-104.8 -37.4 -107.8 -37.4Q-110.8 -37.4 -112.95 -39.5Q-115.05 -41.65 -115.05 -44.65Q-115.05 -47.65 -112.95 -49.75Q-110.8 -51.9 -107.8 -51.9" />
<path style="fill:#665954;fill-opacity:0.498039" d="M105.05,-50.4Q108.05 -50.4 110.15 -48.25Q112.3 -46.15 112.3 -43.15Q112.3 -40.15 110.15 -38Q108.05 -35.9 105.05 -35.9Q102.05 -35.9 99.9 -38Q97.8 -40.15 97.8 -43.15Q97.8 -46.15 99.9 -48.25Q102.05 -50.4 105.05 -50.4" />
</g>
</svg>
