<?xml version="1.0" encoding="utf-8"?>
<svg version="1.1" id="Layer_1"
xmlns="http://www.w3.org/2000/svg"
xmlns:xlink="http://www.w3.org/1999/xlink"
width="38px" height="39px"
xml:space="preserve">
<g id="1575" transform="matrix(1, 0, 0, 1, -3.8, -2.25)">
<path style="fill:#FF0100;fill-opacity:0.333333" d="M41.1,22.85L38.3 22.7Q37.9 22.7 37.7 23.1Q37.55 23.45 37.55 23.8Q37.25 23.2 37.85 22.65Q38.4 22.1 39.15 22.25L41.1 22.8L41.1 22.85M32.3,5.35Q32 7.65 33.55 9.35L33.55 9.4Q31.95 8.5 32.1 6.35L32.3 5.35M22.75,2.25Q23.05 3.5 22.4 4.65L22.35 4.85Q22.1 3.95 22.55 2.85L22.65 2.5L22.75 2.25M36.15,24.25L36.8 24.25L37.15 24.5Q35.5 25.3 34.15 24.25Q33.2 23.55 33.35 22.65Q34 24.8 36.15 24.25M14.85,9.85Q14.4 11.15 15 12.3L15 12.35Q13.95 11.35 14.8 9.9L14.85 9.85M11.85,7.15Q13.4 7.85 14.6 9.1L14.6 9.35Q13.5 8.1 11.85 7.25Q11.7 7.2 11.85 7.15M5.85,15.9L6.35 16.3L7.15 17.25Q6.1 16.8 5.3 15.8L4.85 15.5Q3.75 15.05 3.8 14Q4.3 15.4 5.85 15.9M16.6,23.5L17.15 23.45Q18.55 23.3 19.65 22.8Q17.55 24.75 15 23.1Q14.1 22.5 14.7 21.8Q14.65 23.45 16.6 23.5M13.4,36.6L13.35 36.5Q13 35.6 13.65 34.9L13.4 36.6M13.3,36.85L13.2 37.2Q13.05 37.7 12.5 37.85L10.65 38.25L13.25 36.9L13.3 36.85M11.85,25.55Q13.3 25.8 14 24.65Q13.75 26.05 12.05 25.85L11.95 25.9L11.85 25.65L11.85 25.55M38.65,27.15Q38.9 26.9 38.65 26.6L37.45 25.45L37.55 25.45Q40.05 26.45 38.15 28.1L37.5 28.65L37.05 29.15Q37.7 28.1 38.65 27.15M28.4,35.75L28.45 35.75Q26.85 36.1 26.9 37.4L27.1 37.55Q28.3 37.95 28.75 39.05Q29.05 39.65 28.35 40.05L26.5 41.15Q27.85 40.35 28.6 39.1L28.5 38.85L26.55 37.2Q26.4 37.05 26.55 36.85Q27.15 36 28.15 35.65L28.4 35.75" />
</g>
</svg>
