<?xml version="1.0" encoding="utf-8"?>
<svg version="1.1" id="Layer_1"
xmlns="http://www.w3.org/2000/svg"
xmlns:xlink="http://www.w3.org/1999/xlink"
width="14px" height="14px"
xml:space="preserve">
<g id="888" transform="matrix(1, 0, 0, 1, 0.9, -7.6)">
<path style="fill:#000000;fill-opacity:1" d="M11.05,11.8L12.25 11.5L13.1 12.65L13.05 13.5L12.55 14.6L10.7 14.25L10 14.45L10.2 20.65L9.4 21.6L8.8 21.4L6.8 20.95Q6.35 19.25 7 18.15L6.5 16.55L5.7 17.75L5.65 18.5L4.85 20.55L4.2 20.95L2.75 20.9L1.95 20Q1.5 18.75 2.2 17.6L3.15 15.65L3.5 13.7Q2.55 13.7 1.85 14.05L-0.65 14Q-1.25 13.05 -0.45 12.15Q0.4 11.6 1.55 11.9L3.6 11.15L4.4 10.45L4.45 9.2L6.1 7.65Q7.4 7.4 8.45 8.2Q9.55 9 9.75 10.2Q9.85 11.05 10.3 11.4L11.05 11.8" />
</g>
</svg>
