<?xml version="1.0" encoding="utf-8"?>
<svg version="1.1" id="Layer_1"
xmlns="http://www.w3.org/2000/svg"
xmlns:xlink="http://www.w3.org/1999/xlink"
width="15px" height="19px"
xml:space="preserve">
<g id="1156" transform="matrix(1, 0, 0, 1, 10.65, 5.1)">
<path style="fill:#999999;fill-opacity:0.705882" d="M2.85,-3.15Q2.85 -2.7 1.6 -2.7Q-0.05 -2.7 -0.05 -3.35Q-0.05 -3.9 1.4 -3.8Q2.85 -3.7 2.85 -3.15M2.15,-1.7L3 -1.9Q3.3 -1.9 3.3 -1.5Q3.3 -1.1 2.55 -1.1Q1.9 -1.1 1.9 -1.5L2.15 -1.7M0.9,10.9Q1.45 10.7 2.15 10.9Q3.2 11.3 3.2 11.75Q3.2 11.95 2.65 12.2L1.75 12.4L0.55 12.15L0.15 11.65L0.2 11.25Q0.6 11 0.9 10.9M3.7,9.8Q3.7 10.1 2.7 10.1Q2.2 10.1 1.85 9.75L1.55 9.25Q1.55 8.55 2.7 8.7Q3.75 8.85 3.75 9.4L3.7 9.8M-10.15,-4.65Q-9.55 -5.1 -8.6 -5.1Q-7.6 -5.1 -7.05 -4.35L-6.65 -3.3Q-6.65 -3.05 -7 -2.75L-7.75 -2.35Q-8.05 -2.35 -8 -2.45L-7.6 -2.95L-7.8 -3.15L-8.25 -3.3L-8.8 -3.1Q-8.95 -2.95 -9.3 -2.95Q-9.3 -2.7 -9.95 -3.1Q-10.65 -3.5 -10.65 -3.95L-10.15 -4.65M-7.75,-0.9L-7.5 -0.9L-7.15 -0.5L-7 -0.45L-6.95 -0.75L-6.75 -0.75L-6.6 -0.65L-6.45 -0.55L-6.2 -0.65L-5.85 -0.15Q-5.85 0.2 -6.55 0.9L-7.6 1.75L-7.65 1.65L-7.95 1.55L-8.1 1.4L-7.8 1.05L-7.55 -0.05L-7.65 -0.4L-7.75 -0.9M-7.9,-1.4Q-7.25 -1.75 -6.95 -2.25L-6.6 -2.7L-6.5 -2.4Q-6.5 -1.55 -7.55 -1.3L-7.85 -1.3L-7.9 -1.4M-1.1,-3.7L-0.95 -3.55Q-0.95 -3.25 -1.55 -3.25L-2 -3.35L-2.1 -3.45L-2.1 -3.55L-2.05 -3.75L-1.5 -3.85L-1.1 -3.7M-2.6,-3.15L-2.65 -2.8L-3.05 -2.7L-3.45 -2.75L-4.1 -2.55Q-5.8 -2.55 -5.8 -3.15Q-5.8 -4.15 -4.2 -4.05Q-2.6 -3.95 -2.6 -3.15M-2.9,-2.45L-2.2 -2.3L-2 -2Q-2 -1.65 -2.95 -1.65Q-3.8 -1.65 -3.8 -2.05L-3.5 -2.3L-2.9 -2.45M-4.35,-0.05Q-4.35 0.3 -5.9 1.45L-5.95 1.4L-4.6 -0.65L-4.45 -0.5L-4.55 -0.3L-4.35 -0.05M-2.45,0.9L-1.6 0.95Q-1.65 1.25 -2.3 1.3L-3.95 1.5L-4.4 1.5L-4.45 1.4L-3.2 0.65L-2.6 0.2L-1.95 0L-2.15 0.3L-2.6 0.55L-2.35 0.65L-2.45 0.9M-6.65,8.9L-6 9.6Q-5.6 9.8 -4.5 10.7L-4.75 10.9L-6.25 10.1Q-6.4 10.1 -6.4 10.2Q-6.8 10.2 -7.3 8.85L-6.65 8.9M-6.35,12L-6.1 11.55L-5.4 11.6L-5.35 11.6Q-4.6 11.6 -4 12Q-3.4 12.35 -3.4 12.75Q-3.4 13.5 -4.8 13.5Q-6.5 13.5 -6.5 12.5L-6.35 12.1L-6.35 12M-0.8,8.6Q-0.4 8.95 -0.4 9.2L-0.55 9.8Q-0.75 10.25 -1.15 10.25L-2.15 9.95L-2.9 10L-3.45 9.7L-3.6 9.3Q-3.6 8.85 -3.15 8.85L-3.2 8.75Q-3.2 8.3 -2.75 8.25L-1.65 8.2Q-1.2 8.2 -0.8 8.6M-4.35,7.7L-4.35 7.95L-4.3 7.7L-4.35 7.7M-4.1,7.6L-3.7 7.8L-3.45 8.15L-3.6 8.45L-3.95 8.65Q-4.3 8.65 -4.55 8.35L-4.7 7.85L-4.5 7L-4.1 7.6M-4.3,8L-4 8.35L-3.95 8.35L-4.3 8M-1.35,11.95L-1.6 12.4Q-1.85 12.6 -2.15 12.6Q-2.65 12.6 -2.65 12.05L-2.35 11.55Q-1.35 11.5 -1.35 11.95M-1,13.45L-1.25 13.1Q-1.25 12.65 -0.5 12.65Q0.25 12.65 0.25 13.2Q0.25 13.65 -0.25 13.65L-1 13.45" />
</g>
</svg>
