<?xml version="1.0" encoding="utf-8"?>
<svg version="1.1" id="Layer_1"
xmlns="http://www.w3.org/2000/svg"
xmlns:xlink="http://www.w3.org/1999/xlink"
width="23px" height="10px"
xml:space="preserve">
<g id="916" transform="matrix(1, 0, 0, 1, -0.6, 2.4)">
<path style="fill:#100806;fill-opacity:1" d="M19.75,-0.8Q19.75 -1.15 20.25 -1.75Q20.8 -2.4 21.35 -2.4L22.35 -2.25Q23.1 -2 23.1 -1.55Q23.1 -0.95 22.55 -0.45Q21.9 0.1 21 0.1Q20.6 0.1 20.2 -0.2Q19.75 -0.5 19.75 -0.8M19.6,5.5Q19.6 6 18.95 6.45Q18.3 6.85 17.55 6.85Q15.7 6.85 15.7 5.55Q15.7 4.2 17.65 4.25Q19.6 4.35 19.6 5.5M16.3,3.3Q15.2 4.2 14.25 4.2Q13.4 4.2 12.8 3.45Q12.35 2.9 12.35 2.6L12.45 2.1L10.95 2.2Q10.35 2.2 10.05 1.85L9.85 1.45Q9.85 0.4 11.6 0.4Q13 0.4 13.3 1.05Q13.85 0.7 14.85 0.55Q17.3 0.15 17.3 1.95Q17.3 2.45 16.3 3.3M2.8,2.25L1.55 2.7Q0.9 2.7 0.6 1.75Q0.6 1.05 2.1 0.55Q3.6 0.1 3.6 1.3Q3.6 1.75 2.8 2.25" />
</g>
</svg>
