<?xml version="1.0" encoding="utf-8"?>
<svg version="1.1" id="Layer_1"
xmlns="http://www.w3.org/2000/svg"
xmlns:xlink="http://www.w3.org/1999/xlink"
width="15px" height="13px"
xml:space="preserve">
<g id="510" transform="matrix(1, 0, 0, 1, -1.75, 0.75)">
<path style="fill:#000000;fill-opacity:1" d="M14.2,5.5L16.35 6.15L16.15 7.7L15.45 9.8L15.05 10.85L14.25 11.95L12.3 11.7L11.75 10.95L11.85 8.45L9 8.1L8.4 7.25L9.85 7.05L7.7 5.05L7.5 11.85L1.75 11.3L2.15 9.15L3.05 8.45L4.4 8.65L4.1 6.25L3.75 5.9L3 3.9L3 3.8Q3.05 3.4 3.3 3.5L3.95 3.65L6.3 -0.75L10.7 0.05L10.5 1.2L12.45 2.75L11.95 3.55L14.2 5.5" />
</g>
</svg>
