<?xml version="1.0" encoding="utf-8"?>
<svg version="1.1" id="Layer_1"
xmlns="http://www.w3.org/2000/svg"
xmlns:xlink="http://www.w3.org/1999/xlink"
width="10px" height="10px"
xml:space="preserve">
<g id="509" transform="matrix(1, 0, 0, 1, -4.45, 8.3)">
<path style="fill:#000000;fill-opacity:1" d="M5.25,-7.3L4.9 -7.85L10.15 -8.3L10.35 -8.1L10.6 -8.05L10.8 -7.9L11.75 -7.5L11.95 -7.05L12.75 -6.75L12.9 -6.5L14.3 -5.15L14.35 -4Q14.1 -3.2 13.5 -2.5L13.2 -2.15L11.85 -1.1L11.4 -0.75Q10.65 -0.2 9.8 0.2Q8.3 0.6 6.95 1.15L5.85 1.2L5.55 1.15L4.9 0.75L4.65 -0.3L4.45 -2.2L6.85 -2.85L6.95 -2.85L7.1 -2.75L7.3 -3.1L8.55 -4.15L6.7 -5.35L5.3 -6.95L5.25 -7.3" />
</g>
</svg>
