<?xml version="1.0" encoding="utf-8"?>
<svg version="1.1" id="Layer_1"
xmlns="http://www.w3.org/2000/svg"
xmlns:xlink="http://www.w3.org/1999/xlink"
width="8px" height="6px"
xml:space="preserve">
<g id="1067" transform="matrix(1, 0, 0, 1, 3.85, 5.9)">
<path style="fill:#FFFF00;fill-opacity:1" d="M2.3,-4.15L1.15 -2.3L2.25 -2.05L1.6 -1L2.15 -0.55L-2.75 -0.45L-1.9 -0.8L-3.2 -2L-2 -2.05L-2.35 -3.05L-0.8 -1.85L-0.5 -3.05L0.05 -3.7L0.35 -2.9L2.2 -4.6L2.3 -4.15M1.7,-1.6L0.9 -2L1.25 -3.15L0.5 -2.45L-0.05 -2.85L-0.6 -1.3L-1.65 -2.05L-1.5 -1.85L-1.5 -1.8Q-1.5 -1.4 -1.85 -1.55L-1.45 -0.7L1.45 -0.65L1.7 -1.6" />
<path style="fill:#FFCC00;fill-opacity:1" d="M3.3,-4.9L2 -2.75L2.65 -2.3L2.35 -1.5L3.7 -0.15L-3.8 -0.3L-2.75 -1.05L-3.85 -2.2L-2.45 -2.5L-3.05 -3.8L-2.15 -3.8L-1.05 -2.9L-0.1 -5.5L0.55 -3.8L3.15 -5.9L3.3 -4.9M2.2,-4.6L0.35 -2.9L0.05 -3.7L-0.5 -3.05L-0.8 -1.85L-2.35 -3.05L-2 -2.05L-3.2 -2L-1.9 -0.8L-2.75 -0.45L2.15 -0.55L1.6 -1L2.25 -2.05L1.15 -2.3L2.3 -4.15L2.2 -4.6" />
<path style="fill:#FFFFFF;fill-opacity:1" d="M1.45,-0.65L-1.45 -0.7L-1.85 -1.55Q-1.5 -1.4 -1.5 -1.8L-1.5 -1.85L-1.65 -2.05L-0.6 -1.3L-0.05 -2.85L0.5 -2.45L1.25 -3.15L0.9 -2L1.7 -1.6L1.45 -0.65" />
</g>
</svg>
