<?xml version="1.0" encoding="utf-8"?>
<svg version="1.1" id="Layer_1"
xmlns="http://www.w3.org/2000/svg"
xmlns:xlink="http://www.w3.org/1999/xlink"
width="17px" height="21px"
xml:space="preserve">
<g id="1543" transform="matrix(1, 0, 0, 1, 8.6, 11.8)">
<path style="fill:#333333;fill-opacity:0.498039" d="M6.15,-7.55L5.7 -4.6L7.05 -3.7Q8.35 -2.7 8.35 -1.85Q8.35 -0.5 7.75 0.1Q6.85 1.05 4.2 1.05Q3.45 1.05 2.8 2.4Q2.15 3.75 0.9 3.75Q0.25 3.75 0 3.35L-0.2 2.75Q-1.35 3.55 -2.75 5.35L-5 8.25L-5.25 8.2L-5.3 7.85L-4.7 6.8L-4.9 6.55Q-5.1 6.3 -5.1 5.5Q-5.15 5.4 -5.3 5.4L-6.15 5.45Q-6.4 4.95 -6.1 4.25L-6.1 4.15Q-6.95 4.25 -7.25 4.85Q-7.65 5.65 -8 5.85L-8.6 5.7Q-8.5 4.35 -7.4 2.35L-5.6 -1.15Q-7.7 -1.5 -8.15 -2.25Q-8.35 -2.55 -8.35 -3.7Q-8.35 -4.9 -7.65 -5.75Q-6.7 -6.9 -6.3 -8.45Q-5.2 -12.45 -2.45 -11.65Q-1.05 -11.3 0.45 -10.1L1.05 -10.4L2.2 -10.75Q4.2 -10.75 5.35 -9.2Q6.15 -8.15 6.15 -7.55" />
</g>
</svg>
