<?xml version="1.0" encoding="utf-8"?>
<svg version="1.1" id="Layer_1"
xmlns="http://www.w3.org/2000/svg"
xmlns:xlink="http://www.w3.org/1999/xlink"
width="26px" height="20px"
xml:space="preserve">
<g id="1056" transform="matrix(1, 0, 0, 1, 13.4, 14.25)">
<path style="fill:#FFCC00;fill-opacity:1" d="M2.45,-14.15L2.55 -14.15L3 -14.1L3.4 -13.9L3.65 -13.7L4.75 -13.55L4.85 -13.5L4.85 -13.35L4.85 -13.25L4.85 -13.2L5.65 -12.85L6.15 -12.7L6.2 -12.65L6.5 -12.15L6.05 -11.75L5.05 -11.5L4.9 -11.5Q4.55 -11.4 4.4 -11.65L4.4 -11.75L4.4 -11.85L4.4 -11.9L4.45 -12L4.45 -12.05L4.2 -12.05L3.85 -12.05L3.8 -12.1L3.8 -12.2L3.8 -12.25L3.8 -12.4L3.7 -12.45L3.7 -12.5L3.65 -12.55L3.4 -12.5L3.05 -12.55L3 -12.6L2.95 -12.6L2.8 -12.5L2.7 -12.45L2.6 -12.4L2.5 -12.45L2.4 -12.45L2.25 -12.5L2.1 -12.4L1.9 -12.25L1.7 -12.1L1.6 -12.1Q1.5 -12.25 1.55 -12.5L1.6 -12.8L1.6 -12.85L1.75 -13.4L1.9 -13.9L2 -14L2.1 -14L2.25 -14.05L2.45 -14.15M2.1,-13.6L2 -13.3L1.9 -12.95L1.8 -12.55Q2.1 -12.8 2.45 -12.85L3.3 -12.8L3.95 -12.7L4.1 -12.4L4.1 -12.3L4.7 -12.25L4.75 -11.95L4.75 -11.8L5.2 -11.8L5.85 -11.9L5.95 -12.05L6.05 -12.2L6.05 -12.3L6.1 -12.35L5.2 -12.65Q4.55 -12.75 4.5 -13.25Q3.95 -13.15 3.4 -13.5L3.35 -13.6L3.05 -13.7L2.7 -13.85L2.6 -13.85L2.4 -13.8L2.25 -13.7L2.1 -13.6M9.85,-9.4L10.25 -9.4L10.45 -9.2L10.95 -8.95Q11.25 -8.65 11.15 -8.25Q11.1 -8.1 11.2 -7.9L11.25 -7.35L11.45 -7.35L11.8 -7.35L11.8 -6.95L11.2 -6.25L10.45 -5.5L10.4 -5.5L10.3 -5.55L10.15 -5.65L10.1 -5.7L10.1 -5.85L10.15 -5.95L10.1 -5.9L9.25 -5.9L9.25 -6.25L9.4 -6.8L9.65 -7.55L9.85 -7.75L9.8 -7.8L9.4 -7.9L9.35 -7.95L9.35 -8L9.15 -8.2L8.75 -8.2L8.6 -8.3L8.65 -8.5L9.1 -8.95Q9.35 -9.25 9.75 -9.35L9.85 -9.4M9.3,-11.55L9.8 -11.9Q10.05 -11.35 9.45 -10.7L8.4 -9.75L7.65 -9.5L7.6 -9.55Q7.8 -10.15 8.3 -10.6L9.3 -11.55M9.5,-8.9L9.25 -8.65L9.05 -8.5L9.45 -8.4L9.8 -8.2L9.8 -8.15L9.85 -8.1L10 -8.05L10.1 -8L10.1 -7.5L9.9 -7.1L9.8 -6.65L9.6 -6.25L10.25 -6.3L10.65 -6.2L10.9 -6.45L11.15 -6.75L11.35 -6.95L11.45 -7L11.3 -7L11.1 -6.95L10.95 -7.05L10.85 -7.5L10.8 -7.9L10.75 -8.3L10.8 -8.6L10.5 -8.75L10.1 -8.85L10.05 -8.95L10.05 -9.05L9.9 -9.05L9.5 -8.9M3.2,-9.45L3.25 -9.5L3.3 -9.5L3.45 -9.15L3.35 -8.7L3.3 -8.5L3.35 -8.4L3.45 -8.35L3.45 -8.3L3 -7.5L2.4 -6.75Q2.25 -6.55 2.1 -6.6L2.35 -7.7L2.7 -8.65L3.15 -9.45L3.2 -9.45M0.15,-10.95Q-0.6 -11.05 -0.8 -12L-1.2 -13.55Q-1.3 -14 -1 -14.25Q-0.2 -13.95 -0.15 -13.2L0 -11.75L0.15 -10.95M0.2,-7.4L0.5 -7.7L1.35 -4.95Q1.55 -4.1 0.95 -3.75L0.5 -3.8Q-0.7 -4.65 -1.3 -5.65L-1.25 -5.75L-1 -5.75L-0.95 -5.75L-0.25 -5.85L-0.2 -5.85L-0.25 -6.2L-0.2 -6.55L0.1 -6.65L0.2 -6.9L0.2 -7.4M0.55,-6.75L0.5 -7L0.5 -6.75L0.5 -6.45L0.45 -6.2L0.25 -6.15L0.1 -6.15L0 -5.7Q-0.35 -5.45 -0.75 -5.35L0.15 -4.55Q0.5 -4.2 0.95 -4.05L0.9 -4.7L0.8 -5.15L0.7 -5.65L0.7 -5.75L0.8 -5.8L0.8 -5.85L0.65 -6.35L0.55 -6.75M2.65,-7.85L2.65 -7.6L2.8 -7.8L2.95 -8.05L3.05 -8.15L3 -8.3L3 -8.45L3 -8.6L2.8 -8.2L2.65 -7.85M3.5,-3.8Q3.65 -3.5 3.95 -3.3L4.45 -2.95L4.8 -2.6L4.8 -2.55L4.65 -2.4Q4.45 -2.25 4.25 -2.2L4.2 -2.15L4.25 -2.1L4.25 -2.05L4.3 -2.05L4.4 -1.9L4.55 -1.9Q5.3 -1.9 5.9 -2.25L6.05 -2.4L5.95 -2.45L5.9 -2.5L5.8 -2.55L5.8 -2.65L5.75 -2.65L5.8 -2.8L5.9 -2.95L5.95 -2.95L5.8 -3.1L5.25 -3.25L4.7 -3.65L4.55 -3.7L4.55 -3.75L4.4 -3.75L4.35 -3.75L4.25 -3.8L4.2 -3.85L4.2 -3.9L4.45 -4.15L4.95 -4.35L5.3 -4.55L5.1 -4.6L5 -4.55L4.5 -4.5L4.3 -4.5L4.3 -4.4L4.1 -4.2L3.65 -4L3.5 -3.9L3.5 -3.8M3.15,-3.75Q3.1 -4.15 3.3 -4.4L3.3 -4.45L4.05 -4.75L5.4 -4.95L5.75 -4.9L5.85 -4.85L5.85 -4.65L5.5 -4.25L5 -3.95L4.9 -3.9L5.35 -3.55L6.15 -3.25L6.5 -3.05L6.5 -2.95L6.4 -2.8L6.35 -2.75Q6.65 -2.3 6.1 -2Q5.1 -1.4 3.9 -1.45L3.8 -1.55L3.8 -1.6L3.85 -1.7L3.95 -1.8L3.9 -1.85L3.7 -1.95L3.6 -2L3.55 -2.05L3.65 -2.3L4.05 -2.55L4.2 -2.6L3.55 -3.1Q3.2 -3.3 3.15 -3.75M9.55,-1.7L9.05 -1.7L9.1 -1.65L9.15 -1.65L9.2 -1.6L9.25 -1.55L9.3 -1.5L9.35 -1.5L9.35 -1.3L9.3 -1.25L9.25 -1.25L9.25 -1.2L9.2 -1.2L9.15 -1.15L9.25 -1.15L9.3 -1.1L9.35 -1.1L9.45 -1.05L9.55 -0.95L9.6 -0.9L9.75 -0.7L9.6 -0.45L9.65 -0.45L9.8 -0.35L9.85 -0.3L10 -0.2L10.1 0L10.1 0.3L10.05 0.3L10.05 0.35L10 0.35L9.95 0.4L9.9 0.4L9.8 0.5L9.65 0.5L9.5 0.6L9.4 0.75L9.45 0.8L9.45 0.85L9.5 0.9L9.5 1.05L9.4 1.15L9.1 1.25L8.8 1.3L8.7 1.3L8.4 1.35L8.4 1.45L8.35 1.6L8.25 1.7L6.55 1.9L6.55 1.95L6.6 2L6.65 2.05L6.7 2.05L6.7 2.1L6.75 2.15L6.75 2.3L6.7 2.35L6.35 2.55L4.05 2.7L3.35 2.35L3.05 2.1L3.05 2.15L3.1 2.2L3.1 2.25L3.15 2.3L3.15 2.35L3.2 2.35L3.2 2.4L3.25 2.45L3.25 2.6L3.2 2.65L3.2 2.7L3.15 2.7L3.15 2.75L3.1 2.8L3.1 2.85L2.75 2.9L2.45 3L2.1 2.95L1.45 2.45L1 2.3L1.05 2.35L1.05 2.4L1.05 2.5L1.1 2.55L1.15 2.7L1.25 2.9L1.25 2.95L1.15 3.1L0.95 3.2L-0.65 3.05Q-1 2.9 -1 2.45L-1.05 2.6L-1.1 2.75L-1.2 3.1Q-1.4 3.75 -2 3.5L-2.85 3L-2.9 3L-2.95 3.05Q-3.1 3.05 -3.1 3.15L-3.15 3.2L-3.2 3.25L-3.4 3.5L-3.75 3.5L-3.8 3.45L-3.8 3.2L-3.85 3.15L-3.85 3.1L-3.85 2.95L-3.85 2.9L-4.1 2.95L-4.25 3.05L-4.25 3.1L-4.3 3.15L-4.65 3.45L-4.5 3.6L-4.5 3.65L-4.6 3.75L-5.05 3.7L-5.3 3.6L-5.35 3.55L-5.35 3.45L-5.35 3.25L-5.45 3.2L-5.55 3.15L-5.65 3.1L-5.7 3L-5.65 2.8L-5.5 2.5L-5.4 2.35L-5.5 2.25L-5.5 2.15L-5.9 2.35L-6.35 2.5L-6.9 2.5L-6.95 2.45L-7 2.35L-7 2.25L-6.95 2.05L-7 2L-7 1.95L-7.05 1.95L-7.05 1.9L-7 1.75L-7 1.7L-6.95 1.6Q-7.45 1.75 -7.9 1.3L-8.25 1.1L-8.85 0.75L-8.9 0.6L-8.85 0.5L-8.7 0.35L-8.55 0.25L-8.55 0.05L-8.45 -0.05L-8.35 -0.1L-8.25 -0.15L-8.1 -0.2L-10 -0.2L-10.1 -0.45L-10.05 -0.8L-9.95 -0.95L-9.9 -1.1L-9.65 -1.25L-10.2 -1.3L-10.4 -1.45L-10.2 -1.75L-9.45 -1.9L-9.2 -1.95L-9.4 -2L-9.55 -2L-10.9 -2L-10.95 -1.95L-11 -1.85L-11.05 -1.8L-11.1 -1.8L-11.15 -1.75L-11.25 -1.65L-11.3 -1.65L-11.3 -1.6L-11.2 -1.5L-11.15 -1.35L-11.15 -1.3L-11.35 -1.05L-11.6 -0.8L-11.35 -0.6L-10.85 -0.15L-10.35 0.35L-10.1 0.65Q-9.8 0.95 -9.9 1.35L-9.8 1.4L-9.05 1.5L-8.65 1.65L-8.5 1.9L-8.55 1.95L-8.6 2.05L-8.65 2.1L-8.7 2.15L-8.7 2.2L-8.8 2.25L-8.8 2.35L-8.6 2.35L-7.6 2.35L-7.45 2.4L-7.45 2.5L-7.4 2.6L-7.4 2.7L-7.35 2.8L-7.4 3.05L-7.55 3.2L-7.4 3.3L-6.4 3.35Q-6.15 3.45 -6.15 3.7L-6.2 3.85L-6.05 3.85L-5.9 3.9L-5.85 3.95L-5.75 4.05L-5.65 4.2L-5.55 4.2L-5 4.15L-4.7 4.15Q-4.55 4.15 -4.55 4.25L-4.55 4.3L-4.5 4.4L-4.4 4.4L-4.15 4.4L-4 4.65L-3.35 4.25Q-2 3.35 -0.95 4.5L-0.35 4.4L-0.15 4.3L0.8 3.9L1.1 4L1.45 3.9L1.75 3.8L2.5 3.85L3.7 4.15L3.85 4.15L3.9 4.05L4 3.95L4.1 3.85L4.9 3.65L5.05 3.7L5.3 3.55L5.65 3.3Q6.4 2.5 7.6 2.65L7.95 2.6L7.95 2.35L8.2 2.35L8.3 2.35L8.35 2.35L8.4 2.4L8.45 2.4L8.55 2.4L8.65 2.3L8.7 2.3L8.75 2.2L8.9 2.2L9 2.2L9.2 2.2L9.3 2.15L9.35 2.15L9.35 2.1L9.45 2L9.55 1.95L9.6 1.9L9.65 1.85L9.8 1.7L9.8 1.45L9.85 1.4L9.95 1.4L10.15 1.4L10.25 1.4L10.35 1.4L10.35 1.35L10.4 1.25L10.5 1.15L10.65 1.05Q10.85 0.8 11.15 0.85L11.1 0.8L11.1 0.75L11.05 0.7L11 0.7L10.95 0.65L10.9 0.55L10.85 0.55L10.8 0.5L10.75 0.4L10.85 0.25L10.85 0.2L10.95 0.2L11 0.15L11.1 0.15L11.15 0.1L11.15 -0.1L11.2 -0.15L11.2 -0.2L11.25 -0.2L11.3 -0.25L11.25 -0.35L11.2 -0.4L11.1 -0.55L11.05 -0.6L10.85 -1L10.6 -1.3L10.5 -1.4L10.5 -1.5L10.6 -1.5L10 -1.65L9.55 -1.7M9.1,-2.05L10.15 -2L10.75 -2Q11.35 -2 11.7 -1.65L11.7 -1.55L11.65 -1.5L11.6 -1.5L11.55 -1.45L11.5 -1.45L11.45 -1.4L11.05 -1.3L11.1 -1.2L11.2 -1.05L11.25 -1L11.55 -0.65L11.9 -0.35L11.95 -0.3L11.95 -0.2L11.9 -0.15L11.85 -0.1L11.75 0L11.7 0L11.7 0.15L11.7 0.3L11.65 0.3L11.6 0.35L11.55 0.4L11.45 0.4L11.35 0.45L11.25 0.5L11.35 0.5L11.35 0.55L11.45 0.6L11.5 0.6L11.5 0.7L11.55 0.75L11.6 0.75L11.75 0.9L11.75 1.05L11.7 1.1L11.65 1.15L11.6 1.15L11.35 1.2L11 1.25L10.95 1.3L10.9 1.3L10.9 1.35L10.85 1.4L10.8 1.4L10.75 1.45L10.75 1.6L10.7 1.6L10.7 1.75L10.5 1.75L10.15 1.8L10.15 1.9L10.1 2L10 2.1L9.95 2.15L9.9 2.2L9.35 2.45L8.95 2.55L8.95 2.6L8.9 2.65L8.9 2.7L8.8 2.7L8.75 2.8L8.65 2.8L8.5 2.8L8.35 2.75L8.25 2.85L7.9 3L6.55 3.25L6 3.3L5.95 3.4L5.9 3.45L5.8 3.6L5.8 3.65L5.1 4.05L4.7 3.95L4.4 4.1L4.25 4.2Q3.95 4.6 3.4 4.45L1.85 4.1L1.8 4.15L1.65 4.2L1.5 4.25L1.35 4.3L1.3 4.35L0.75 4.3L0.75 4.25L0.55 4.3L0.25 4.5L-0.1 4.7L-1.3 4.6L-1.4 4.55L-1.45 4.55L-1.55 4.5L-1.6 4.45L-1.6 4.4L-1.65 4.4L-1.65 4.3L-1.7 4.3L-2.45 4.25L-2.55 4.25L-2.6 4.2L-2.9 4.3L-3.2 4.45L-3.55 4.8L-3.7 4.95L-3.7 5L-3.65 5.05L-3.7 5.15L-3.8 5.2L-3.85 5.25L-4.2 5.25L-4.3 5.2L-4.65 5.25L-4.9 5.1L-4.6 4.85L-4.5 4.85L-4.85 4.75L-4.9 4.7L-4.9 4.6L-4.95 4.6L-5 4.55L-5.85 4.5L-6 4.3L-6.05 4.2L-6.1 4.2L-6.35 4.15L-6.5 4.15L-6.55 4.15L-6.55 4.1L-6.6 4.05L-6.6 3.95L-6.6 3.9L-6.65 3.85L-6.6 3.7L-6.65 3.65L-7.35 3.6L-8.05 3.6L-8.1 3.55L-8.2 3.45L-8.25 3.35L-8.2 3.2L-7.85 2.9L-7.75 2.7L-7.85 2.65L-8.65 2.75L-9.1 2.8L-9.25 2.75L-9.25 2.7L-9.3 2.65L-9.3 2.55L-9.3 2.45L-9.25 2.35L-9.2 2.15L-9.1 1.95Q-10.1 2.05 -10.2 1.3Q-10.25 0.9 -10.6 0.65L-11.8 -0.6Q-12.15 -1.05 -11.5 -1.3L-11.5 -1.35L-11.65 -1.45L-11.7 -1.55L-11.7 -1.7L-11.45 -1.9Q-11.3 -1.95 -11.3 -2.1L-11.25 -2.15L-11.25 -2.2L-11.15 -2.2L-10.95 -2.25L-10.9 -2.25L-10.1 -2.2L-9.55 -2.1L-9.55 -2.15L-9.5 -2.2L-9.2 -2.2L-8.9 -2.2L-8.85 -2.25L-8.85 -2.2L-8.7 -2.05L-8.6 -1.9L-8.75 -1.75L-9.5 -1.6L-9.55 -1.55L-9.4 -1.5L-9.25 -1.4L-9.25 -1.25L-9.55 -0.9L-9.7 -0.75L-9.7 -0.65L-9.7 -0.55L-6.7 -0.5L-7.15 -0.15L-7.9 0.05L-8.2 0.2L-8.25 0.2L-8.25 0.25L-8.3 0.35L-8.4 0.45L-8.55 0.55Q-8.4 0.6 -8.3 0.7L-7.85 1L-7.75 1.15L-7.7 1.25L-7.65 1.3L-6.95 1.2L-6.1 1.25L-6.15 1.35L-6.25 1.5L-6.6 1.7L-6.7 1.8L-6.6 1.95L-6.6 2.05L-6.7 2.2L-6.7 2.25Q-6.25 2.25 -5.75 1.9L-5 1.3Q-4.55 0.9 -4.15 0.85Q-4.05 1.1 -4.25 1.25L-4.7 1.6L-4.9 1.8L-5.15 2.1L-5.15 2.25L-5.1 2.45L-5.2 2.7L-5.25 2.8L-5.3 2.9L-5.25 2.95L-5.1 3.1L-5.05 3.25L-5.05 3.35L-5 3.4L-4.95 3.35L-4.7 3.15L-4.25 2.55Q-3.95 2.2 -3.45 2.25L-3.45 2.4L-3.45 2.5L-3.5 2.55L-3.5 2.7L-3.55 2.95L-3.55 3.05L-3.45 3.05L-3.4 3L-3.4 2.95L-3.35 2.95L-3.25 2.85L-3.25 2.8L-3.2 2.8L-3 2.6L-2.9 2.55L-2.8 2.55L-2.7 2.6L-2.6 2.7L-2.55 2.75L-2.55 2.8Q-2.4 3.05 -2 3.1L-1.6 3.2L-1.6 3.1L-1.55 2.9L-1.5 2.7L-1.25 2.15L-1.1 1.4L-0.9 1.15L-0.8 1.2L-0.75 1.3L-0.75 1.45L-0.75 1.5L-0.7 2L-0.65 2.35L-0.6 2.7L-0.55 2.7L-0.3 2.75L0 2.85L0.1 2.85L0.85 2.85L0.8 2.8L0.75 2.7L0.75 2.6L0.75 2.5L0.65 2.2L0.6 1.9L0.7 1.6L0.8 1.55L1 1.7L1.05 1.75L1.15 1.85L1.8 2.3L2.2 2.7L2.25 2.65L2.35 2.65L2.45 2.6L2.55 2.6L2.65 2.55L2.75 2.55L2.85 2.55L2.8 2.5L2.8 2.45L2.75 2.4L2.75 2.35L2.7 2.3L2.65 2.25L2.55 2.1L2.55 1.85Q2.8 1.65 3.1 1.85Q3.6 2.25 4.25 2.4L6.25 2.15L6.2 2.1L6.15 2.1L6.15 2.05L6.1 2L6.1 1.95L6.05 1.9L6.05 1.85L6 1.8L6 1.7L6 1.65L6.1 1.6L7.7 1.5L8.05 1.45L8.05 1.4L8.05 1.3L8.05 1.2L8.15 1.1L9.05 0.9L9.05 0.8L9.05 0.65L9.05 0.6L9.1 0.55L9.4 0.35L9.75 0.15L9.75 0.05L9.65 0L9.55 -0.05L9.45 -0.15L9.4 -0.2Q9.25 -0.25 9.25 -0.4L9.3 -0.65L9.3 -0.75L9.2 -0.75L9.1 -0.8L9 -0.9L8.9 -0.9L8.65 -1.05Q8.55 -1.15 8.6 -1.2L8.6 -1.3L8.65 -1.3L8.7 -1.35L8.75 -1.4L8.75 -1.45L8.65 -1.45L8.65 -1.5L8.6 -1.55L8.55 -1.6L8.55 -1.75L8.55 -1.85L8.6 -1.9L8.6 -1.95L8.65 -1.95L8.7 -2L8.8 -2L9 -2.05L9.1 -2.05M12,-4.7L11.15 -4.35L10.4 -4.3Q10.3 -4.5 10.5 -4.65L11.2 -5.1L11.9 -5.3L12.1 -5.25L12.4 -5.3L12.55 -5.2Q12.55 -4.85 12 -4.7M-3.8,-13.25L-3.85 -13.4L-3.75 -13.5L-3.55 -13.4L-3.4 -13.25L-3.25 -13.15L-2.5 -13.1L-2.15 -12.2L-1.9 -11.4L-2.05 -11.3L-2.25 -11.2L-2.25 -11.15L-2.4 -11.05L-2.65 -10.9L-2.7 -10.8Q-3.25 -10.85 -3.55 -11.4L-4.1 -12.25Q-4.35 -12.55 -4.05 -12.8L-3.95 -12.85L-3.75 -12.9L-3.8 -13.1L-3.8 -13.25M-3.55,-12.9L-3.5 -12.85L-3.4 -12.8L-3.35 -12.75L-3.5 -12.6L-3.65 -12.45L-3.7 -12.45L-3.7 -12.5L-3.65 -12.2L-3.3 -11.7L-2.9 -11.2L-2.85 -11.25L-2.75 -11.3L-2.6 -11.35L-2.55 -11.45L-2.5 -11.55L-2.45 -11.6L-2.35 -11.65L-2.45 -12.05L-2.6 -12.6L-2.75 -13.1L-2.8 -13.15L-2.9 -13.1L-2.95 -13L-3.1 -12.9L-3.4 -12.9L-3.55 -13L-3.55 -12.9M-13.3,-10.6L-12.35 -9.8L-11.4 -9.1L-10.85 -8.65Q-11.65 -8.4 -12.4 -9.15L-13.15 -9.85Q-13.6 -10.3 -13.3 -10.6M-10.6,-6.45L-10.6 -6.5L-10.55 -6.55L-10.4 -6.6L-9.75 -6.65L-9.5 -6.65L-9.35 -6.65L-9.3 -6.65L-9.15 -6.65L-9.1 -6.65L-8.9 -6.65L-8.4 -6.55L-8.35 -6.5L-8.3 -6.5L-8.05 -6.35L-7.75 -6.35L-7.4 -6.25L-7.35 -6.2L-7.25 -6.15L-7.2 -6.15L-7.2 -6.1L-7.25 -6L-7.45 -5.8L-7.6 -5.75L-7.7 -5.7L-8.25 -5.6L-8.25 -5.45L-8.2 -5.35L-8.2 -5.25L-8.2 -5.15L-8.25 -5.15L-8.25 -5.1L-8.3 -5.1L-8.35 -5.05L-8.45 -5L-8.5 -4.95L-8.4 -4.95L-8.4 -4.9L-8.1 -4.8L-7.9 -4.65L-7.85 -4.65L-7.75 -4.55L-7.75 -4.45L-7.85 -4.35L-7.9 -4.3L-7.95 -4.3L-8.35 -4.25L-8.65 -4.2L-8.6 -4.15L-8.2 -3.9L-8.05 -3.85Q-7.65 -3.6 -7.95 -3.25Q-8.35 -2.9 -8.9 -3.1L-8.95 -3.15L-8.95 -3.25L-9.05 -3.25L-9.15 -3.3L-9.25 -3.4L-10.1 -3.6L-10.15 -3.65L-10.15 -3.75L-10.15 -3.9L-10.35 -4L-10.45 -4.05L-10.5 -4.05L-10.85 -4.25L-11.15 -4.45L-11.2 -4.55L-11.1 -4.85L-11 -4.9L-10.9 -4.95Q-10.2 -5.1 -9.7 -5.6L-9.55 -5.75L-9.8 -5.8L-9.9 -5.8L-10 -5.9L-10 -6.05L-9.95 -6.1L-9.95 -6.2L-10 -6.25L-10.1 -6.25L-10.5 -6.35L-10.6 -6.45M-10.85,-4.65L-10.8 -4.6L-10.5 -4.5L-10.3 -4.3L-10.25 -4.25L-10.2 -4.25L-9.75 -4.1L-9.65 -3.85L-9.45 -3.8L-9.35 -3.8L-9.2 -3.75L-8.8 -3.55L-8.7 -3.45L-8.65 -3.45L-8.65 -3.35L-8.45 -3.35L-8.35 -3.35L-8.3 -3.4L-8.2 -3.45L-8.25 -3.5L-8.25 -3.55L-8.55 -3.7L-8.7 -3.85L-8.8 -3.85L-9.35 -4.15L-9.55 -4.3L-9.55 -4.4L-9.45 -4.45L-8.5 -4.6L-8.55 -4.65L-8.65 -4.7L-8.7 -4.75L-8.8 -4.9L-8.85 -4.95L-8.85 -5.05L-8.8 -5.1L-8.75 -5.15L-8.65 -5.25L-8.5 -5.3L-8.55 -5.35L-8.55 -5.45L-8.55 -5.55L-8.55 -5.7L-8.5 -5.75L-8.5 -5.8L-8.45 -5.8L-8.4 -5.85L-8.3 -5.9L-7.95 -5.95L-7.9 -5.95L-8.75 -6.05L-9.05 -6.05L-9.2 -6.2L-9.2 -6.25L-9.15 -6.25L-9.35 -6.4L-9.5 -6.4L-9.7 -6.35L-9.6 -6.25L-9.6 -6.15L-9.6 -6.05L-9.5 -6L-9.4 -6L-9.3 -5.9L-9.3 -5.85L-9.4 -5.5L-9.45 -5.45L-9.55 -5.3L-10.55 -4.75L-10.85 -4.65M-4.65,-9.75L-5.25 -9.85L-5.65 -10.2L-5.75 -10.25L-5.85 -10.25L-5.95 -10.15L-6.3 -10.15L-6.3 -10.05L-6.25 -9.9L-6.2 -9.85L-6.2 -9.8L-6.35 -9.7L-6.65 -9.6L-6.65 -9.4L-6.55 -9.25L-6.6 -9.05L-6.65 -8.9Q-7.35 -8.65 -7.85 -9.1L-7.9 -9.1L-7.7 -8.85L-7.45 -8.6L-7.95 -9L-8.6 -9.65L-8.85 -10.15L-8.55 -10.1L-8.1 -9.95L-7.95 -9.9L-8 -10.05L-8.05 -10.15L-8.05 -10.2L-8 -10.35L-8.05 -10.45L-8.1 -10.6L-8.2 -10.75L-8.2 -10.85L-8.05 -10.9L-8 -10.95L-7.95 -10.95L-7.95 -11.15L-7.95 -11.3L-7.85 -11.5L-7.75 -11.55L-7.75 -11.7L-7.75 -11.8L-7.7 -11.95L-7.6 -12.05L-7.1 -12.15L-6.9 -12.2L-6.75 -12.15L-6.6 -12.05L-6.35 -11.95L-6.35 -12L-6.25 -12.05L-6.15 -12.15L-5.5 -11.4L-5 -10.5L-4.55 -9.9L-4.6 -9.85L-4.65 -9.75M-6.05,-11.6L-6.15 -11.6L-6.2 -11.55L-6.5 -11.65L-6.65 -11.8L-6.9 -11.9L-7 -11.85L-7.1 -11.85L-7.2 -11.8L-7.45 -11.75L-7.45 -11.65L-7.45 -11.55L-7.45 -11.4L-7.5 -11.35L-7.55 -11.3L-7.6 -11.25L-7.65 -11.25L-7.65 -11.1L-7.65 -11L-7.75 -10.8L-7.8 -10.65L-7.8 -10.5L-7.75 -10.35L-7.7 -10L-7.7 -9.8L-7.75 -9.7L-7.85 -9.7L-7.95 -9.65L-7.8 -9.45Q-7.4 -9 -6.9 -9.2L-6.95 -9.35L-7 -9.55L-6.8 -9.85L-6.65 -10L-6.65 -10.15L-6.6 -10.35L-6.1 -10.45L-6.05 -10.45L-6.05 -10.5L-6 -10.5L-6 -10.55L-5.7 -10.55L-5.45 -10.45L-5.2 -10.25L-5.4 -10.55L-5.75 -11.1L-6.05 -11.6M-8.3,-9.7L-8.35 -9.75L-8.35 -9.65L-8.3 -9.6L-8.25 -9.6L-8.3 -9.7M-5.45,-3.95L-5.05 -4.1L-4.7 -4.25Q-4.5 -4.25 -4.65 -4.45Q-4.35 -4.8 -3.75 -4.75L-3.3 -4.7L-3.6 -4.9L-4 -5.05L-4.15 -5.2L-4.1 -5.4L-3.1 -5.1L-2 -4.8L-1.5 -4.45Q-1.6 -4.05 -2.1 -4.1L-2.55 -3.95L-2.8 -3.75L-2.85 -3.7L-2.75 -3.45L-2.3 -3.2L-2.1 -3.15L-2 -3.1L-1.95 -3L-2 -2.9L-2.1 -2.75Q-2.15 -2.65 -2.3 -2.6L-2.4 -2.5L-2.05 -2.35L-1.5 -2.1L-1.45 -2.1L-1.45 -2L-1.4 -1.95L-1.45 -1.95L-1.45 -1.8L-3.2 -1.6L-5.3 -2.1L-5.15 -2.4L-4.7 -2.65L-4.25 -2.8L-4.85 -2.95Q-5.3 -2.9 -5.45 -3.2L-5.45 -3.25L-5.4 -3.35L-5.25 -3.45L-5.2 -3.5L-5.3 -3.5Q-5.5 -3.5 -5.65 -3.65L-5.7 -3.65L-5.45 -3.95M-2.45,-4.65L-2.65 -4.75L-2.8 -4.8L-2.85 -4.8Q-2.7 -4.45 -3.2 -4.45L-3.8 -4.45L-4.1 -4.2L-4.5 -4L-4.8 -3.9L-4.85 -3.9L-5.05 -3.8L-4.9 -3.65L-4.8 -3.55L-4.7 -3.4Q-4.8 -3.15 -4.25 -3.15L-4.2 -3.1L-4.1 -3.1L-3.8 -2.8L-3.75 -2.6Q-4 -2.35 -4.35 -2.35L-4.5 -2.3L-3 -2L-2.55 -1.9L-2.25 -2L-2.75 -2.2L-2.95 -2.4L-2.95 -2.45L-2.85 -2.65L-2.65 -2.8L-2.55 -2.9L-2.5 -2.9Q-2.9 -3 -3.15 -3.25L-3.25 -3.55Q-3.35 -3.95 -2.95 -4.15L-2.15 -4.5L-2.45 -4.65" />
<path style="fill:#FFFF00;fill-opacity:1" d="M2.25,-13.7L2.4 -13.8L2.6 -13.85L2.7 -13.85L3.05 -13.7L3.35 -13.6L3.4 -13.5Q3.95 -13.15 4.5 -13.25Q4.55 -12.75 5.2 -12.65L6.1 -12.35L6.05 -12.3L6.05 -12.2L5.95 -12.05L5.85 -11.9L5.2 -11.8L4.75 -11.8L4.75 -11.95L4.7 -12.25L4.1 -12.3L4.1 -12.4L3.95 -12.7L3.3 -12.8L2.45 -12.85Q2.1 -12.8 1.8 -12.55L1.9 -12.95L2 -13.3L2.1 -13.6L2.25 -13.7M9.9,-9.05L10.05 -9.05L10.05 -8.95L10.1 -8.85L10.5 -8.75L10.8 -8.6L10.75 -8.3L10.8 -7.9L10.85 -7.5L10.95 -7.05L11.1 -6.95L11.3 -7L11.45 -7L11.35 -6.95L11.15 -6.75L10.9 -6.45L10.65 -6.2L10.25 -6.3L9.6 -6.25L9.8 -6.65L9.9 -7.1L10.1 -7.5L10.1 -8L10 -8.05L9.85 -8.1L9.8 -8.15L9.8 -8.2L9.45 -8.4L9.05 -8.5L9.25 -8.65L9.5 -8.9L9.9 -9.05M0.65,-6.35L0.8 -5.85L0.8 -5.8L0.7 -5.75L0.7 -5.65L0.8 -5.15L0.9 -4.7L0.95 -4.05Q0.5 -4.2 0.15 -4.55L-0.75 -5.35Q-0.35 -5.45 0 -5.7L0.1 -6.15L0.25 -6.15L0.45 -6.2L0.5 -6.45L0.5 -6.75L0.5 -7L0.55 -6.75L0.65 -6.35M2.8,-8.2L3 -8.6L3 -8.45L3 -8.3L3.05 -8.15L2.95 -8.05L2.8 -7.8L2.65 -7.6L2.65 -7.85L2.8 -8.2M3.5,-3.9L3.65 -4L4.1 -4.2L4.3 -4.4L4.3 -4.5L4.5 -4.5L5 -4.55L5.1 -4.6L5.3 -4.55L4.95 -4.35L4.45 -4.15L4.2 -3.9L4.2 -3.85L4.25 -3.8L4.35 -3.75L4.4 -3.75L4.55 -3.75L4.55 -3.7L4.7 -3.65L5.25 -3.25L5.8 -3.1L5.95 -2.95L5.9 -2.95L5.8 -2.8L5.75 -2.65L5.8 -2.65L5.8 -2.55L5.9 -2.5L5.95 -2.45L6.05 -2.4L5.9 -2.25Q5.3 -1.9 4.55 -1.9L4.4 -1.9L4.3 -2.05L4.25 -2.05L4.25 -2.1L4.2 -2.15L4.25 -2.2Q4.45 -2.25 4.65 -2.4L4.8 -2.55L4.8 -2.6L4.45 -2.95L3.95 -3.3Q3.65 -3.5 3.5 -3.8L3.5 -3.9M10,-1.65L10.6 -1.5L10.5 -1.5L10.5 -1.4L10.6 -1.3L10.85 -1L11.05 -0.6L11.1 -0.55L11.2 -0.4L11.25 -0.35L11.3 -0.25L11.25 -0.2L11.2 -0.2L11.2 -0.15L11.15 -0.1L11.15 0.1L11.1 0.15L11 0.15L10.95 0.2L10.85 0.2L10.85 0.25L10.75 0.4L10.8 0.5L10.85 0.55L10.9 0.55L10.95 0.65L11 0.7L11.05 0.7L11.1 0.75L11.1 0.8L11.15 0.85Q10.85 0.8 10.65 1.05L10.5 1.15L10.4 1.25L10.35 1.35L10.35 1.4L10.25 1.4L10.15 1.4L9.95 1.4L9.85 1.4L9.8 1.45L9.8 1.7L9.65 1.85L9.6 1.9L9.55 1.95L9.45 2L9.35 2.1L9.35 2.15L9.3 2.15L9.2 2.2L9 2.2L8.9 2.2L8.75 2.2L8.7 2.3L8.65 2.3L8.55 2.4L8.45 2.4L8.4 2.4L8.35 2.35L8.3 2.35L8.2 2.35L7.95 2.35L7.95 2.6L7.6 2.65Q6.4 2.5 5.65 3.3L5.3 3.55L5.05 3.7L4.9 3.65L4.1 3.85L4 3.95L3.9 4.05L3.85 4.15L3.7 4.15L2.5 3.85L1.75 3.8L1.45 3.9L1.1 4L0.8 3.9L-0.15 4.3L-0.35 4.4L-0.95 4.5Q-2 3.35 -3.35 4.25L-4 4.65L-4.15 4.4L-4.4 4.4L-4.5 4.4L-4.55 4.3L-4.55 4.25Q-4.55 4.15 -4.7 4.15L-5 4.15L-5.55 4.2L-5.65 4.2L-5.75 4.05L-5.85 3.95L-5.9 3.9L-6.05 3.85L-6.2 3.85L-6.15 3.7Q-6.15 3.45 -6.4 3.35L-7.4 3.3L-7.55 3.2L-7.4 3.05L-7.35 2.8L-7.4 2.7L-7.4 2.6L-7.45 2.5L-7.45 2.4L-7.6 2.35L-8.6 2.35L-8.8 2.35L-8.8 2.25L-8.7 2.2L-8.7 2.15L-8.65 2.1L-8.6 2.05L-8.55 1.95L-8.5 1.9L-8.65 1.65L-9.05 1.5L-9.8 1.4L-9.9 1.35Q-9.8 0.95 -10.1 0.65L-10.35 0.35L-10.85 -0.15L-11.35 -0.6L-11.6 -0.8L-11.35 -1.05L-11.15 -1.3L-11.15 -1.35L-11.2 -1.5L-11.3 -1.6L-11.3 -1.65L-11.25 -1.65L-11.15 -1.75L-11.1 -1.8L-11.05 -1.8L-11 -1.85L-10.95 -1.95L-10.9 -2L-9.55 -2L-9.4 -2L-9.2 -1.95L-9.45 -1.9L-10.2 -1.75L-10.4 -1.45L-10.2 -1.3L-9.65 -1.25L-9.9 -1.1L-9.95 -0.95L-10.05 -0.8L-10.1 -0.45L-10 -0.2L-8.1 -0.2L-8.25 -0.15L-8.35 -0.1L-8.45 -0.05L-8.55 0.05L-8.55 0.25L-8.7 0.35L-8.85 0.5L-8.9 0.6L-8.85 0.75L-8.25 1.1L-7.9 1.3Q-7.45 1.75 -6.95 1.6L-7 1.7L-7 1.75L-7.05 1.9L-7.05 1.95L-7 1.95L-7 2L-6.95 2.05L-7 2.25L-7 2.35L-6.95 2.45L-6.9 2.5L-6.35 2.5L-5.9 2.35L-5.5 2.15L-5.5 2.25L-5.4 2.35L-5.5 2.5L-5.65 2.8L-5.7 3L-5.65 3.1L-5.55 3.15L-5.45 3.2L-5.35 3.25L-5.35 3.45L-5.35 3.55L-5.3 3.6L-5.05 3.7L-4.6 3.75L-4.5 3.65L-4.5 3.6L-4.65 3.45L-4.3 3.15L-4.25 3.1L-4.25 3.05L-4.1 2.95L-3.85 2.9L-3.85 2.95L-3.85 3.1L-3.85 3.15L-3.8 3.2L-3.8 3.45L-3.75 3.5L-3.4 3.5L-3.2 3.25L-3.15 3.2L-3.1 3.15Q-3.1 3.05 -2.95 3.05L-2.9 3L-2.85 3L-2 3.5Q-1.4 3.75 -1.2 3.1L-1.1 2.75L-1.05 2.6L-1 2.45Q-1 2.9 -0.65 3.05L0.95 3.2L1.15 3.1L1.25 2.95L1.25 2.9L1.15 2.7L1.1 2.55L1.05 2.5L1.05 2.4L1.05 2.35L1 2.3L1.45 2.45L2.1 2.95L2.45 3L2.75 2.9L3.1 2.85L3.1 2.8L3.15 2.75L3.15 2.7L3.2 2.7L3.2 2.65L3.25 2.6L3.25 2.45L3.2 2.4L3.2 2.35L3.15 2.35L3.15 2.3L3.1 2.25L3.1 2.2L3.05 2.15L3.05 2.1L3.35 2.35L4.05 2.7L6.35 2.55L6.7 2.35L6.75 2.3L6.75 2.15L6.7 2.1L6.7 2.05L6.65 2.05L6.6 2L6.55 1.95L6.55 1.9L8.25 1.7L8.35 1.6L8.4 1.45L8.4 1.35L8.7 1.3L8.8 1.3L9.1 1.25L9.4 1.15L9.5 1.05L9.5 0.9L9.45 0.85L9.45 0.8L9.4 0.75L9.5 0.6L9.65 0.5L9.8 0.5L9.9 0.4L9.95 0.4L10 0.35L10.05 0.35L10.05 0.3L10.1 0.3L10.1 0L10 -0.2L9.85 -0.3L9.8 -0.35L9.65 -0.45L9.6 -0.45L9.75 -0.7L9.6 -0.9L9.55 -0.95L9.45 -1.05L9.35 -1.1L9.3 -1.1L9.25 -1.15L9.15 -1.15L9.2 -1.2L9.25 -1.2L9.25 -1.25L9.3 -1.25L9.35 -1.3L9.35 -1.5L9.3 -1.5L9.25 -1.55L9.2 -1.6L9.15 -1.65L9.1 -1.65L9.05 -1.7L9.55 -1.7L10 -1.65M-3.55,-13L-3.4 -12.9L-3.1 -12.9L-2.95 -13L-2.9 -13.1L-2.8 -13.15L-2.75 -13.1L-2.6 -12.6L-2.45 -12.05L-2.35 -11.65L-2.45 -11.6L-2.5 -11.55L-2.55 -11.45L-2.6 -11.35L-2.75 -11.3L-2.85 -11.25L-2.9 -11.2L-3.3 -11.7L-3.65 -12.2L-3.7 -12.5L-3.7 -12.45L-3.65 -12.45L-3.5 -12.6L-3.35 -12.75L-3.4 -12.8L-3.5 -12.85L-3.55 -12.9L-3.55 -13M-10.55,-4.75L-9.55 -5.3L-9.45 -5.45L-9.4 -5.5L-9.3 -5.85L-9.3 -5.9L-9.4 -6L-9.5 -6L-9.6 -6.05L-9.6 -6.15L-9.6 -6.25L-9.7 -6.35L-9.5 -6.4L-9.35 -6.4L-9.15 -6.25L-9.2 -6.25L-9.2 -6.2L-9.05 -6.05L-8.75 -6.05L-7.9 -5.95L-7.95 -5.95L-8.3 -5.9L-8.4 -5.85L-8.45 -5.8L-8.5 -5.8L-8.5 -5.75L-8.55 -5.7L-8.55 -5.55L-8.55 -5.45L-8.55 -5.35L-8.5 -5.3L-8.65 -5.25L-8.75 -5.15L-8.8 -5.1L-8.85 -5.05L-8.85 -4.95L-8.8 -4.9L-8.7 -4.75L-8.65 -4.7L-8.55 -4.65L-8.5 -4.6L-9.45 -4.45L-9.55 -4.4L-9.55 -4.3L-9.35 -4.15L-8.8 -3.85L-8.7 -3.85L-8.55 -3.7L-8.25 -3.55L-8.25 -3.5L-8.2 -3.45L-8.3 -3.4L-8.35 -3.35L-8.45 -3.35L-8.65 -3.35L-8.65 -3.45L-8.7 -3.45L-8.8 -3.55L-9.2 -3.75L-9.35 -3.8L-9.45 -3.8L-9.65 -3.85L-9.75 -4.1L-10.2 -4.25L-10.25 -4.25L-10.3 -4.3L-10.5 -4.5L-10.8 -4.6L-10.85 -4.65L-10.55 -4.75M-5.75,-11.1L-5.4 -10.55L-5.2 -10.25L-5.45 -10.45L-5.7 -10.55L-6 -10.55L-6 -10.5L-6.05 -10.5L-6.05 -10.45L-6.1 -10.45L-6.6 -10.35L-6.65 -10.15L-6.65 -10L-6.8 -9.85L-7 -9.55L-6.95 -9.35L-6.9 -9.2Q-7.4 -9 -7.8 -9.45L-7.95 -9.65L-7.85 -9.7L-7.75 -9.7L-7.7 -9.8L-7.7 -10L-7.75 -10.35L-7.8 -10.5L-7.8 -10.65L-7.75 -10.8L-7.65 -11L-7.65 -11.1L-7.65 -11.25L-7.6 -11.25L-7.55 -11.3L-7.5 -11.35L-7.45 -11.4L-7.45 -11.55L-7.45 -11.65L-7.45 -11.75L-7.2 -11.8L-7.1 -11.85L-7 -11.85L-6.9 -11.9L-6.65 -11.8L-6.5 -11.65L-6.2 -11.55L-6.15 -11.6L-6.05 -11.6L-5.75 -11.1M-2.15,-4.5L-2.95 -4.15Q-3.35 -3.95 -3.25 -3.55L-3.15 -3.25Q-2.9 -3 -2.5 -2.9L-2.55 -2.9L-2.65 -2.8L-2.85 -2.65L-2.95 -2.45L-2.95 -2.4L-2.75 -2.2L-2.25 -2L-2.55 -1.9L-3 -2L-4.5 -2.3L-4.35 -2.35Q-4 -2.35 -3.75 -2.6L-3.8 -2.8L-4.1 -3.1L-4.2 -3.1L-4.25 -3.15Q-4.8 -3.15 -4.7 -3.4L-4.8 -3.55L-4.9 -3.65L-5.05 -3.8L-4.85 -3.9L-4.8 -3.9L-4.5 -4L-4.1 -4.2L-3.8 -4.45L-3.2 -4.45Q-2.7 -4.45 -2.85 -4.8L-2.8 -4.8L-2.65 -4.75L-2.45 -4.65L-2.15 -4.5" />
</g>
</svg>
