<?xml version="1.0" encoding="utf-8"?>
<svg version="1.1" id="Layer_1"
xmlns="http://www.w3.org/2000/svg"
xmlns:xlink="http://www.w3.org/1999/xlink"
width="35px" height="34px"
xml:space="preserve">
<g id="423" transform="matrix(1, 0, 0, 1, 4, 11.3)">
<path style="fill:#000000;fill-opacity:0.4" d="M7.3,-9.2Q8.65 -7.25 10.35 -5.6L12.4 -3.7Q12.6 -2.15 11.45 -1.15L6.95 2.5Q5.75 3.35 4.3 3.05Q3.6 2.85 3.05 2.45L2.5 2.8L0.95 3.45Q-0.2 3.8 -0.95 3.05Q-0.45 0.2 -2.5 -1.8Q-5.45 -4.65 -2.6 -7.65Q-0.35 -10 2.8 -11.15L3.3 -11.3Q5.9 -11.3 7.3 -9.2M17.7,-0.7L18 -0.65L18.45 -0.45L18.5 -0.4Q18.95 -0.8 19.55 -1Q21.4 -1.65 23.05 -2.7L23.3 -2.8L25.5 -2.7Q26.55 -2.35 27.45 -1.8Q28.05 -1.45 28.7 -1.2L29.05 -0.65L29.15 0.35L29.05 1.65Q29 2.8 29.45 3.8L29.5 4.05Q31.75 8.05 26.25 9L24.4 9.25Q20.5 9.45 17.55 6.85Q15.4 5 15.1 2.5L15.1 1.85Q14.7 1.3 15.25 0.75L15.9 0.2L16.55 -0.2Q17.1 -0.55 17.7 -0.7M15.75,10Q11.4 12.75 6.05 11.2Q2.35 10.1 -0.45 8.1Q0.2 6.3 2.5 6.1L11.45 5.15Q15.85 5.5 16.2 9.15Q16.3 9.7 15.75 10M9.55,17.95L10.45 18.35L10.5 18.5L10.55 18.6L10.55 18.7L10.55 18.95L10.55 19.1L10.65 19.15L10.8 19.15L11.25 19.15L11.5 19.2L11.55 19.35L11.65 19.55L11.8 19.95L11.85 20.15Q9.65 22.15 6.65 22.15L5.9 21.95Q4.45 21.15 3.7 20.05L3 20.35L0.9 20.65L0.8 20.4L0.65 20.05L0.55 19.55L0.55 19.35Q-0.5 18.4 -0.3 17L-0.25 14.45L-0.25 12.75Q1 12 2.2 12.75L2.5 12.45L2.65 12.3L2.85 12.4L3 12.55L3.15 12.6L3.35 14L3.5 15.55L3.6 16.8L3.7 16.8Q4.05 16.6 4.35 16.8L4.65 17.05L4.7 17.1L4.75 17.25L4.7 17.5L4.6 17.75L4.55 17.85L4.55 17.95L4.75 18.15L4.9 18.25L5 18.25L8.1 17.1L8.7 16.85L9.25 16.9Q9.45 16.95 9.55 17.1L9.7 17.3L9.6 17.5Q9.2 17.95 9.55 17.95" />
<path style="fill:#000000;fill-opacity:0.4" d="M9.3,-10.05L11.8 -8.3L11.85 -8.15L11.9 -7.9L11.9 -7.75L11.9 -7.5Q12.65 -6.6 12.8 -5.05Q13.2 -0.85 9.2 0.05L6.15 0.4L5.3 0.45Q4.4 0 3.8 -0.65Q3 -0.8 2.15 -1.35Q-1.05 -3.4 -0.2 -6.95Q0.2 -8.6 1.6 -9.6Q2.85 -10.6 4.35 -10.95L6.35 -11.2Q7.95 -10.95 9.3 -10.05M19.15,-0.1L19.95 0.15L21.6 0.2L22.05 0.05L22.05 0L22.8 0.1L23.2 0.3Q26.65 1.05 27.3 4.25L27.7 5.4L27.3 6.2Q26.95 7 25.8 7.3Q21.5 8.35 18.65 5.4L18.6 5.35L17.6 5.35Q15.8 5 15.2 3.3L15 2Q15 0.7 16.2 0L16.9 -0.35L19.15 -0.1M4.1,12.2L3.95 12.1L3.9 11.95L3.9 11.8Q3.85 11.1 4.25 10.55L6.3 7.75Q7.3 6.3 9.1 5.9Q12.35 5.75 12.85 8.8Q13.2 10.95 12.35 12.7Q11.85 17.35 6.4 16.3Q4.3 15.9 4.1 14.05Q4 13.05 4.2 12.25L4.1 12.2M1.15,16.55L1.35 16.85L1.55 17.1L1.65 17.2L2.75 17.6L3.2 17.75L3.8 18.15L3.85 18.3L3.85 18.45L3.85 18.6L3.85 18.75L3.85 18.9L3.8 19L3.1 19.4L2.05 19.7L0.9 19.9L0.35 19.8L0 18.9L0 18.35L0.05 17.9L0.25 17.25L0.45 16.25Q0.5 16.05 0.7 16.05L0.95 16.3L1.15 16.55M9.8,19.95L10.05 20.25L10.1 20.4L10.1 20.55L10.1 20.7L10.1 20.8L10.1 20.95L10.1 21.1L10.05 21.25L10 21.35L9.5 21.65L8.6 22L5.65 21.95L5.5 21.8L5.2 21.35L5.15 20.8L5.35 20L5.9 19.25Q6.15 18.95 6.5 19L8.05 19.2L9.05 19.4Q9.5 19.55 9.8 19.95" />
</g>
</svg>
