<?xml version="1.0" encoding="utf-8"?>
<svg version="1.1" id="Layer_1"
xmlns="http://www.w3.org/2000/svg"
xmlns:xlink="http://www.w3.org/1999/xlink"
width="19px" height="23px"
xml:space="preserve">
<g id="1219" transform="matrix(1, 0, 0, 1, 8.6, 21.95)">
<path style="fill:#100806;fill-opacity:1" d="M1.45,-19.2L-2.05 -20.95L-5.45 -20.6L-3.45 -19.2L-6.05 -14.8L3.15 -14.8L5.2 -15.85L1.45 -19.2M6.85,-11.8L5.85 -15.55L3.15 -14L-6.5 -14L-8 -12.15L-7.2 -12.1L6.85 -11.8M6.5,-16L7.8 -11.4L7.8 -5.9L8.15 -5.55L4.15 -1.95L-3.4 -1.95L-8.6 -8.1L-8.6 -12.5L-4.4 -18.8L-6.55 -20.75L-5.6 -21.55L-2.1 -21.95L2.55 -19.6L6.5 -16M-7.8,-8.5L-3.3 -2.9L3.15 -2.9L7.1 -6.85L7.1 -11.15L-7.8 -11.15L-7.8 -10.35L-7.8 -8.5M9.9,-2.3L8.25 0.55L2.65 0.6L2.65 -0.65L7.35 -0.65L8.35 -2.3L9.9 -2.3" />
<path style="fill:#9F6329;fill-opacity:1" d="M-8,-12.15L-6.5 -14L3.15 -14L5.85 -15.55L6.85 -11.8L5.65 -14.4L3.85 -12.7L-6.4 -12.95L-7.2 -12.1L-8 -12.15M6.4,-10.35L-7.8 -10.35L-7.8 -11.15L7.1 -11.15L7.1 -6.85L6.4 -10.35" />
<path style="fill:#000000;fill-opacity:0.419608" d="M5.2,-15.85L3.15 -14.8L-6.05 -14.8L-3.45 -19.2L-5.45 -20.6L-2.05 -20.95L1.45 -19.2L5.2 -15.85" />
<linearGradient
id="LinearGradID_435" gradientUnits="userSpaceOnUse" gradientTransform="matrix(0, -0.00450134, 0.00909424, 0, -0.05, -13.05)" spreadMethod ="pad" x1="-819.2" y1="0" x2="819.2" y2="0" >
<stop  offset="0" style="stop-color:#511A16;stop-opacity:1" />
<stop  offset="0.505882" style="stop-color:#6D4414;stop-opacity:1" />
<stop  offset="1" style="stop-color:#511A16;stop-opacity:1" />
</linearGradient>
<path style="fill:url(#LinearGradID_435) " d="M-7.2,-12.1L-6.4 -12.95L3.85 -12.7L5.65 -14.4L6.85 -11.8L-7.2 -12.1" />
<linearGradient
id="LinearGradID_436" gradientUnits="userSpaceOnUse" gradientTransform="matrix(-0.00280762, -0.00862122, 0.00970459, -0.00315857, -1.3, -10)" spreadMethod ="pad" x1="-819.2" y1="0" x2="819.2" y2="0" >
<stop  offset="0" style="stop-color:#511A16;stop-opacity:1" />
<stop  offset="0.505882" style="stop-color:#6D4414;stop-opacity:1" />
<stop  offset="1" style="stop-color:#511A16;stop-opacity:1" />
</linearGradient>
<path style="fill:url(#LinearGradID_436) " d="M-7.8,-10.35L6.4 -10.35L7.1 -6.85L3.15 -2.9L-3.3 -2.9L-7.8 -8.5L-7.8 -10.35" />
<path style="fill:#7EFFED;fill-opacity:1" d="M5.7,-8.1L-6.85 -8.1L-6.85 -9.6L5.7 -9.6L5.7 -8.1" />
</g>
</svg>
