<?xml version="1.0" encoding="utf-8"?>
<svg version="1.1" id="Layer_1"
xmlns="http://www.w3.org/2000/svg"
xmlns:xlink="http://www.w3.org/1999/xlink"
width="293px" height="67px"
xml:space="preserve">
<g id="482" transform="matrix(1, 0, 0, 1, 104.45, -195.85)">
<path style="fill:#3A1D0F;fill-opacity:0.85098" d="M147,255.2Q147.15 253.9 148.4 253.5Q155.45 251.15 163.05 250.25L163.6 250.1L165.8 250.4L169.6 250.9Q169.8 250.95 170 251.15L170.15 251.5L170.4 251.95L170.55 252.35Q170.7 253.05 171.4 253.55L172.2 254.3Q170.2 257.55 165.35 258.25Q156.3 259.6 147.85 256.55Q146.85 256.2 147 255.2M65.6,258.2Q64.95 259.3 63.8 260Q62.45 260.85 60.8 261.3L60.5 261.4Q57.35 262.45 53.95 261.85L53.6 261.45L53.2 261.05L52.95 260.8Q49.3 262.2 46.55 260.25L45.65 259.4Q45.5 259.1 45.5 258.7Q45.5 258.15 45.75 257.7Q46 257.2 46.5 256.85L47.65 255.9L48.2 255.55L48.6 255.35Q50.1 254.55 51.75 254.2L51.75 254.15Q54.05 254.1 56.2 254.8L59.8 256.1Q62.2 257 64.75 257.7Q65.2 257.8 65.6 258.2" />
<path style="fill:#3A1D0F;fill-opacity:0.694118" d="M49.7,197.25L50.45 196.8L51.75 196.15L52.25 195.85Q53.3 197.2 54.35 197.2L59.05 197.2Q61.55 197.2 62.6 199.15Q62.2 201.3 60.55 202.65Q56.6 205.9 52 204Q48.75 202.7 46.9 199.95Q47.45 198.25 49.25 197.5L49.7 197.25M51.7,197.75L52.5 197.65Q53.3 197.2 52.25 197.45L51.7 197.75M177.5,233.15L177.55 233.5Q177.7 234.4 176.95 234.95Q168.75 241.25 162 235.05Q160.9 234.1 161.45 232.7Q162.35 230.4 164.65 229.6L173.4 230.25Q176.15 230.65 177.5 233.15M179.25,237.15L182.65 237.45L183.7 237.7L184.05 238.1L184.2 238.45L184.25 238.85L184.25 239.65L184.65 240Q185.55 240.7 186.75 240.85Q188.45 241 188.4 242.5Q188.6 245.05 186 246.4Q180.15 249.5 176.5 244.55Q175.65 243.4 175.35 241.95L175.2 240.8L175.4 240.5Q175.95 240 176.7 239.7Q178.05 239.2 178.65 237.95Q178.8 237.55 179.25 237.25L179.25 237.15" />
<path style="fill:#3A1D0F;fill-opacity:0.458824" d="M110.75,246.65Q113.9 246.95 116.4 248.55Q118.15 249.7 118.9 251.25Q118.7 252 118.1 252.4L117.55 252.7L118 253.35L118 253.75Q118.05 255 117.35 255.95Q114.6 259.55 111.4 256.55L110.8 255.6Q110.75 255.5 110.7 255.55Q107.4 256.65 104.05 256.45L102.1 255.95L102.05 255.95Q97.45 257.2 94.75 254.4L94.8 254.1L94.6 254L94.9 253.35L96.55 251.85L96.5 251.8L96.3 251.4Q95.9 250.9 96.05 250.2L95.95 249.55Q95.6 248.85 96.15 248.25L96.55 247.9Q97.3 247.15 98.25 247.25Q101.75 247.45 104 246.3L110.75 246.65" />
<path style="fill:#3A1D0F;fill-opacity:0.305882" d="M-16.1,236.6Q-14.65 234.75 -12.25 234.45L-7.5 233.55Q-1.5 232.85 -0.95 237.35Q-0.85 238.25 -1.65 238.9Q-6.15 242.6 -12.2 241.5Q-14.7 241.05 -16.5 239.35Q-17.3 238.6 -17.05 237.5L-16.1 236.6M-60.85,235.65Q-58.95 235.6 -57.75 237.05Q-56.6 238.45 -56.8 240.3Q-56.9 241.25 -57.65 241.95Q-62.75 242.6 -66.05 239.65Q-66.55 239.2 -66.1 238.5Q-64.65 236.2 -61.65 235.85L-60.85 235.65M-92,210.7Q-91.95 210.95 -92.35 211.25Q-98 215.6 -103.7 210.75Q-105.2 209.45 -103.75 208Q-102.3 206.55 -100.35 206.15Q-93.45 205.1 -92 210.7" />
</g>
</svg>
