<?xml version="1.0" encoding="utf-8"?>
<svg version="1.1" id="Layer_1"
xmlns="http://www.w3.org/2000/svg"
xmlns:xlink="http://www.w3.org/1999/xlink"
width="19px" height="35px"
xml:space="preserve">
<g id="604" transform="matrix(1, 0, 0, 1, 14.65, 8.95)">
<path style="fill:#000000;fill-opacity:0.498039" d="M1.7,23.7Q1.7 24.4 -0.5 24.9L-6 25.4L-11.45 24.9Q-13.8 24.4 -13.8 23.7Q-13.8 23 -11.45 22.5L-10.35 22.3L-6 22L-2.95 22.15L-0.5 22.5L1 23Q1.7 23.3 1.7 23.7" />
<path style="fill:#000000;fill-opacity:1" d="M3.85,-5.75Q4.4 -2.85 2.35 -0.6Q0.5 1.45 -1.4 1Q-0.35 2.2 -0.1 4.15L-0.2 5L0.15 5.75L0.3 6.85L0.8 8.25L1.05 8.35L1.75 8.8L0.8 9.45L0.75 9.5L0.4 12.45L1.25 13L2.1 13.7Q2.7 14.6 2.45 15.75L1.45 15.85Q0.05 15.5 -1.25 14.95Q-2.85 14.2 -2.9 12.55L-2.95 6.4L-3.15 6.4Q-4.25 7.85 -4.55 9.7Q-4.95 12.1 -6 14.35L-7.2 14.5L-8.7 13.75Q-9.45 13.25 -9.2 12.65L-8.15 10.45Q-6.55 7.7 -6.5 4.65L-6.6 3.95L-6.65 3.25Q-7.2 0.35 -5.35 -1.6L-5.4 -1.75L-5.9 -2.45Q-6.25 -2.7 -6.15 -3.05L-6.75 -3.85L-7.65 -4.05Q-8.3 -4.1 -8.75 -4.45L-8.75 -4.5L-8.7 -4.7L-8.55 -5.05L-8.55 -5.15L-8.5 -5.2L-8 -5.35L-7.45 -5.35L-7 -5.2L-6.95 -5.45Q-7.5 -7.85 -4.85 -8.85L-3.6 -8.85Q-2.1 -8.55 -1.35 -7.15L-1 -6.15L-1.45 -5.8L-1.8 -5.5Q-1.5 -4.7 -1.75 -3.8L-1.9 -3.15L-0.65 -2.4L-0.2 -2.2L0.45 -2.85Q1.1 -3.75 0.8 -4.75Q0.2 -6.5 2.05 -6.8Q2.9 -7 3.55 -6.3L3.85 -5.75M-10.7,-2.75L-9.15 -2.35Q-7.75 -1.85 -7.7 -0.25L-7.8 -0.05L-8.35 0.3Q-8.45 0.95 -8.85 1.6L-9.5 3.15L-9.25 3.5L-8.15 5L-7.9 5.35L-7.5 5.2Q-7.05 5.25 -6.9 5.75Q-6.3 7.45 -8.2 7.65L-9.2 7.5L-9.25 7.55Q-10.75 6.3 -12.4 5.45Q-12.8 5.2 -12.8 4.8Q-13 2.6 -12.3 0.65L-12.5 0.55L-12.6 0.4Q-12.9 -0.7 -12.3 -1.65Q-11.75 -2.5 -10.7 -2.75M-6.95,-4.4L-7 -4.35L-6.9 -4.35L-6.95 -4.4" />
<path style="fill:#7E0000;fill-opacity:1" d="M-11.05,-6.3L-9.75 -5.8L-9.8 -6L-9.4 -5.9L-8.65 -5.2L-8.4 -5.05L-7.45 -4.05L-7.4 -4.05Q-6.65 -3.35 -7 -2.5L-7.1 -2.45L-7.2 -2.75L-9.65 -4.25Q-11.1 -5.05 -11.35 -6.35L-11.05 -6.3M-14.6,-3.35L-14.65 -3.45Q-14.3 -3.8 -13.5 -3.95L-10.05 -4.2L-10.05 -4.15L-9.35 -3.85L-9.1 -3.75L-8.9 -3.6L-8.9 -3.45Q-9.65 -2.85 -11.05 -2.8Q-12.85 -2.75 -14.6 -3.35" />
</g>
</svg>
