<?xml version="1.0" encoding="utf-8"?>
<svg version="1.1" id="Layer_1"
xmlns="http://www.w3.org/2000/svg"
xmlns:xlink="http://www.w3.org/1999/xlink"
width="72px" height="23px"
xml:space="preserve">
<g id="777" transform="matrix(1, 0, 0, 1, 6.7, -16.3)">
<path style="fill:#3A1D0F;fill-opacity:0.85098" d="M54.2,38.1L54.15 37.75Q58.2 37 61.9 35.3Q62.45 36.6 63.6 37.45L64.45 38.1L64.5 38.25Q59.55 37 54.35 38.4L54.2 38.1M14.4,16.3Q14.25 17.7 14.6 19.55Q14.75 20.45 14.35 21.1L13.6 22.35Q12.55 24.3 10.85 24.85L13.35 18.95L13.95 16.8Q14 16.4 14.4 16.3M14.75,22.15L15.1 21.4Q15.3 21.05 15.65 20.9L15.85 20.95L16 20.95L17.55 24L18.15 25.7Q15.35 25.15 14.35 22.4Q14.15 21.8 14.6 21.45L14.75 21.7L14.75 22.15M13.3,28.15Q16.2 30.4 15 34.3Q14.4 36.2 16.7 36.1Q19.05 35.95 20.7 36.9Q21.1 36.95 21.3 37.3L20.65 37.25L17.8 37.1L14.6 37.35Q11.35 37.85 8.7 36.9Q14.45 35.45 13.25 29.6L13.15 28.45L12.85 28.05Q12.75 27.9 12.95 27.85L13.15 28L13.15 27.85L13.3 28.15M5,32.15L5.15 32.25Q3.7 34.15 5.05 35.7Q5.65 36.45 6.55 36.75L6.65 36.85Q0.05 38.4 -6.7 37.2Q-4.45 36 -1.85 35.25Q0.75 34.45 2.95 33.1L4.7 32.05L5 32.15M25.25,26.15Q25.9 26.35 26.05 26.95Q24.5 28 22.55 27.35L22.1 26.9L21.95 26.9L21.65 26.95Q21.45 27 21.4 26.8Q21.45 26.5 21.8 26.3L22.9 25.8L23.05 25.8L25.25 26.15M26.9,33.95L28.3 33.85Q29.15 33.85 29.55 34.4Q29.4 34.9 28.9 35.1Q27.3 35.7 26.25 34.5L26.15 34.4L26.2 34.35L26.2 34.25L26.6 34.05L26.75 34L26.9 33.95" />
</g>
</svg>
