<?xml version="1.0" encoding="utf-8"?>
<svg version="1.1" id="Layer_1"
xmlns="http://www.w3.org/2000/svg"
xmlns:xlink="http://www.w3.org/1999/xlink"
width="8px" height="10px"
xml:space="preserve">
<g id="685" transform="matrix(1, 0, 0, 1, 17.3, -1.55)">
<path style="fill:#000000;fill-opacity:1" d="M-12.15,2.8L-12.1 4.2L-12.05 4.25L-12.15 4.3L-12.45 4.4L-12.8 5.25L-13.2 6.15Q-11.2 7.8 -10.1 9.7L-10.2 9.8Q-11.65 11.05 -13.6 10.75L-13.65 10.65L-14.1 10.65L-15.5 10.45L-15.95 10.15L-15.75 9.6L-15.15 9.1L-15 9L-15.05 8.8L-15.05 8.55L-15.05 8.4Q-15.55 8.05 -16.3 7.85L-17.3 7.35L-17.15 5.35Q-17 4.25 -16.25 3.4L-16.2 3.35L-15.9 3.05L-15.8 3L-15.6 2.8L-15.2 2.6L-15 2.6L-14.6 2.6L-14.6 2.55L-12.75 2.35L-12.6 2.4L-12.6 2L-12.5 1.65L-12.4 1.55Q-12.1 2.1 -12.15 2.8" />
</g>
</svg>
