<?xml version="1.0" encoding="utf-8"?>
<svg version="1.1" id="Layer_1"
xmlns="http://www.w3.org/2000/svg"
xmlns:xlink="http://www.w3.org/1999/xlink"
width="68px" height="27px"
xml:space="preserve">
<g id="386" transform="matrix(1, 0, 0, 1, -65.5, 8.8)">
<path style="fill:#0B0B0B;fill-opacity:0.8" d="M80.65,-1.6L80.45 -1.25Q80.45 -1.05 81 -0.55Q81.6 0 82.1 0Q82.5 0 83.15 -0.45Q83.85 -0.9 84.65 -0.9Q85.35 -0.9 87.7 0.2Q90.1 1.35 90.1 1.75Q90.1 3.35 89.55 3.7L85.85 4.1Q84.75 4.1 84.15 4.5L83.25 4.9Q80.45 3.45 79.5 3.25Q78.1 2.9 77.85 2.55Q77.7 2.35 77.7 1.6Q77.7 0.4 78.2 -0.6Q79 -2.05 80.65 -2.5L80.65 -1.6M115.35,11.85Q116.35 12.25 116.35 12.65Q116.35 13.35 115.9 13.55L113.15 13.9L110.6 13.85Q110 13.25 110 12.3Q110 11.85 110.7 11.6L112.35 11.35L115.35 11.85M98.4,9.55L99.9 11Q101.05 11.8 101.05 12.45Q101.05 13.45 99.25 13.45L97.65 13.15L96.15 12.85L92.85 13.25L92.05 13.65L86.95 10.55Q86.95 10.35 88.1 9.05Q89.3 7.75 89.6 7.75L90.2 8L90.8 8.2L96.35 7.45Q97.15 7.3 98.4 9.55M81.25,14.35L79.85 15.5L75.95 15.5L70.25 14.75L66.5 14.6L66.4 14.55L66.35 14.2Q66.35 13.8 68.8 12.75L71.4 11.75Q72.05 11.75 72.15 12.1L72.2 12.6L72.25 12.7L73.15 12Q72.7 11.55 71.9 11.1L71.1 10.7Q70.6 10.7 69.75 11.2Q68.95 11.7 67.6 11.7L65.5 10.25L68.65 7.45Q71.95 4.65 73.15 4.15Q73.55 4.25 73.55 4.7L73 6L73 6.05L73.5 6.25Q74.5 6.2 75.45 5.6Q76.4 5 76.85 5Q77.35 5 77.35 5.85L77.1 7.1Q78.8 7.7 82.15 13.05Q82.15 13.6 81.25 14.35M97.4,17.25L96 17.25L93.95 16.1Q93.1 15.6 92.6 14.75L92.7 14.45L94.4 14.45L96.35 14.4L97.55 15.45L98 16.35Q98 16.9 97.4 17.25" />
<path style="fill:#0B0B0B;fill-opacity:0.6" d="M98.25,-8.8L98.2 -8.5Q98.2 -8.1 98.35 -7.95L99.05 -7.8L99.9 -8L100.75 -8.2Q101.2 -8.2 102.55 -7.1L104.35 -6.05Q104.85 -6.05 105.25 -6.55L105.95 -7.1Q107 -7.1 106.95 -5.55Q106.95 -4.75 106.15 -3.45Q105.2 -1.85 104 -1.85L100.75 -2.7L96.35 -2.25Q95.2 -2.25 94.6 -3.4L94.2 -4.6Q94.2 -5.35 94.95 -5.7Q96.25 -6.25 97.05 -7.05Q96.5 -7.8 96.5 -8Q96.5 -8.5 97.05 -8.55L98.25 -8.8M120.6,-2Q119.85 -1.55 118.75 -1.55Q114.9 -1.55 114.9 -3.15Q114.9 -4.75 118.1 -4.35Q121.25 -3.9 121.25 -2.85Q121.25 -2.4 120.6 -2M132.55,4.35L132.05 5L129.3 5.1Q126.1 5.1 126.1 4.1Q126.1 3.8 127.6 3.3Q129.1 2.8 130 2.8Q132.9 2.8 132.9 3.6L132.55 4.35M112.7,6.95Q111.7 7.45 110.1 7.45Q107.3 7.45 106.05 6Q105.3 5.15 105.3 4.35Q105.3 2.45 109.4 4.1Q113.45 5.75 113.45 6.2L112.7 6.95" />
</g>
</svg>
