<?xml version="1.0" encoding="utf-8"?>
<svg version="1.1" id="Layer_1"
xmlns="http://www.w3.org/2000/svg"
xmlns:xlink="http://www.w3.org/1999/xlink"
width="96px" height="48px"
xml:space="preserve">
<g id="365" transform="matrix(1, 0, 0, 1, 1.9, 8.15)">
<path style="fill:#3A231C;fill-opacity:1" d="M8.3,-8.1L8.5 -8.15L14.75 -1.4Q19.7 3.45 25.5 6L25.3 6.45Q24.95 6.8 23.65 6.9L23.1 7.3Q28.65 9 29.9 10.1Q29.65 10.9 27.85 11.9Q26.2 12.85 25.5 12.85Q24.75 12.85 23.2 11.65Q21.6 10.4 17.65 10.4Q15.4 10.4 11.6 1.4Q8.25 -6.55 8.25 -7.75L8.3 -8.1M89.5,7.55Q86.85 8.65 82.6 8.55L78.5 8.25Q78.35 8.1 77.45 7.9L74.75 7.65Q73.8 7.4 73.8 6.6Q73.8 5.35 78.25 3.85L83.25 2.25Q84.25 1.55 92 5.65L90.85 6.75L89.5 7.55M93.75,24.45Q94.05 24.6 94.05 25.75Q93.15 26.4 85.1 27.35L78.25 27.4Q77.4 26.9 77.4 26.5Q77.4 25 81.15 24.2L88.15 23.85L93.75 24.45M93.55,36.85Q93.2 37.25 91.55 37.8Q89.3 38.55 86.5 38.6L78.6 38.75L69.3 39.75Q62.75 39.75 59.35 38.6Q57.15 37.9 57.15 37.4Q57.15 36.1 60.15 35.55L68.85 34L78.6 34.7L93.5 36.4L93.55 36.85M67.25,19.75Q67.25 20.7 64.95 21.7Q62.35 22.75 59.15 22.75L55.65 22.1Q53.25 21.4 51.05 21.4Q49.95 21.4 49.65 20.95L49.6 20.4Q49.6 19.4 51.25 18.55Q52.6 17.9 53.4 17.9L56.6 17Q58 16.6 58 18.5L60.4 18L65.9 18.25Q67.25 18.25 67.25 19.75M43.8,10.25Q45.55 10.25 46.5 11.45Q47.15 12.25 47.15 12.95Q47.15 15.85 40.6 17.25L38.55 19.35Q37.25 20.5 35.25 20.5Q32.75 20.5 32.75 17.15Q32.75 15.9 34.45 13.15Q36.15 10.45 37.05 10.1L40.25 10.35L40.75 10.8L43.8 10.25M19.45,20.05Q20.85 20.05 28.75 26.85Q34.3 31.6 38.9 36Q37.25 38.1 30.45 38.35L23.8 38.15L18.15 37.75L11.6 37.3L5.45 37.4L4.6 37.4L1.6 38.05L1 38.25L0.25 38.4L-1.75 38Q-1.9 38.25 -1.9 37.6Q0.05 36.25 2.45 34Q7.3 29.45 9.75 24.6Q10.8 22.4 11.55 18.1Q12.4 12.9 12.9 11.4Q13.8 12.15 14.3 16.3Q15.35 20.05 19.45 20.05M15.35,25L14.95 27.25Q14.55 28.75 13.6 29.75L14.35 29.9L14.45 29.85L14.55 30.3L13.85 31.3L12.9 32.35L12.6 32.75L20.75 31.8L17.85 28.35L15.35 25M22.25,32.1L23.5 32.1L22.8 31.95Q22.25 31.95 22.25 32.1" />
</g>
</svg>
