<?xml version="1.0" encoding="utf-8"?>
<svg version="1.1" id="Layer_1"
xmlns="http://www.w3.org/2000/svg"
xmlns:xlink="http://www.w3.org/1999/xlink"
width="725px" height="431px"
xml:space="preserve">
<g id="213" transform="matrix(1, 0, 0, 1, -13.3, -43.25)">
<path style="fill:none;stroke-width:1.5;stroke-linecap:round;stroke-linejoin:round;stroke-miterlimit:3;stroke:#000000;stroke-opacity:0.705882" d="M36.05,44Q30.1 45.15 27.3 48.4Q25.7 50.25 24.4 54.3Q23.25 57.85 21.8 58.85Q19.55 60.35 14.05 59" />
<path style="fill:none;stroke-width:0.7;stroke-linecap:round;stroke-linejoin:round;stroke-miterlimit:3;stroke:#FFFFFF;stroke-opacity:0.4" d="M737.9,100Q734.05 102.85 732.9 104L727.9 104L727.9 93Q726.9 93 725.9 92Q723.95 93.25 719.35 95.2Q716.35 96.45 714.3 97.4Q716.55 99.05 717.9 101L712.9 101L711.9 99.65Q711.5 99 710.9 99Q712.15 98.35 714.3 97.4Q711.75 95.6 708 94.25Q705.25 93.25 695.9 91M177.05,461.85Q177.8 470.1 183.05 473.85" />
</g>
</svg>
