<?xml version="1.0" encoding="utf-8"?>
<svg version="1.1" id="Layer_1"
xmlns="http://www.w3.org/2000/svg"
xmlns:xlink="http://www.w3.org/1999/xlink"
width="154px" height="31px"
xml:space="preserve">
<g id="151" transform="matrix(1, 0, 0, 1, -1.4, -2.15)">
<path style="fill:none;stroke-width:1;stroke-linecap:round;stroke-linejoin:round;stroke-miterlimit:3;stroke:#C7E9FD;stroke-opacity:1" d="M146.55,18.05L147.45 16.9L145.9 15.5L141.4 18.2L137.3 15.45L140.2 10.4L139.35 9.9L135.6 9.05L128.25 6.25L116.7 14.3L128.45 13.65M154.1,12.4L152.5 11.15L148.65 11.1L144.3 12.9L140.2 10.4M147.45,16.9L153.95 13.4M117.9,20.6L116.7 14.3L107.85 13.9L102.45 13.15L102.8 18.9L91.7 14.85L90.2 15.65L90.75 15.85M56.15,2.65L55.2 4.5L60.25 4.45L65.6 6.35L61.75 9.25L66.1 12.7L71.4 16.85L79.05 11.85L84.95 6.75L89.2 7.75M90.5,32.4L90.85 28.6L82.6 19.7L90.2 15.65L79.05 11.85M61.05,5.6L55.5 9.35L53.45 16.4L49.8 16.65L50.45 24.35L54.6 20.05M49.8,16.65L46.25 11.15L45.55 11.45L26.65 16.1L18.55 19.25L20.3 21.05L14.25 21.95L17 23.85M66.1,12.7L59.05 14.3M1.9,18.6L5.7 17.2L7.85 18.6L10 17.75L16 14.4L18.7 16.5M18.55,19.25L11.65 18.5L10 17.75" />
</g>
</svg>
