<?xml version="1.0" encoding="utf-8"?>
<svg version="1.1" id="Layer_1"
xmlns="http://www.w3.org/2000/svg"
xmlns:xlink="http://www.w3.org/1999/xlink"
width="15px" height="7px"
xml:space="preserve">
<g id="986" transform="matrix(1, 0, 0, 1, 2.85, 4.6)">
<path style="fill:#000000;fill-opacity:0.85098" d="M3.2,-4.4L3.3 -4.45L4.3 -4.4L4.65 -4.3L4.9 -4.25Q5.25 -3.95 5.2 -3.55Q5.1 -2.35 4 -1.8L2.6 -1.15L1.1 -0.75Q0.55 -0.75 0.2 -1.1L0.15 -1.15L0.15 -1.3L0.1 -1.4L0 -1.5L-0.05 -1.6L-0.1 -1.7L-0.1 -1.75L0.05 -2.3L0.6 -2.85L2.05 -3L2.1 -3.05L2.25 -3.35L2.4 -3.55L2.6 -3.8L2.85 -4.15L2.9 -4.2L2.95 -4.25L3.15 -4.35L3.2 -4.4M9.5,-4.25L10.4 -4.6L11.05 -4.55L11.2 -4.5Q11.6 -3.8 10.9 -3.2L9.05 -1.95Q8.05 -1.4 6.9 -1.6Q6.15 -1.7 6.35 -2.35Q6.5 -2.8 6.95 -2.85L7.15 -3.1L8.55 -3.85L9.5 -4.25M-1.3,-0.05L-1.1 0L-0.85 0.1L-0.7 0.3L-0.7 0.35L-0.6 0.35L-0.5 0.4Q-0.05 0.85 -0.35 1.3Q-0.9 2.1 -1.95 1.95L-2.8 1.3L-2.75 0.95L-2.05 0.05L-1.95 0L-1.6 0L-1.55 0L-1.55 -0.05L-1.3 -0.05" />
</g>
</svg>
