<?xml version="1.0" encoding="utf-8"?>
<svg version="1.1" id="Layer_1"
xmlns="http://www.w3.org/2000/svg"
xmlns:xlink="http://www.w3.org/1999/xlink"
width="33px" height="29px"
xml:space="preserve">
<g id="1546" transform="matrix(1, 0, 0, 1, 14.4, 19.5)">
<path style="fill:#333333;fill-opacity:0.498039" d="M1.2,-18.5Q1.85 -19 3.1 -19Q6.85 -19 8.85 -16.55Q10.2 -14.9 10.2 -13.35Q14.45 -13.1 16.7 -11.15Q18.4 -9.65 18.4 -8Q18.4 -6.9 17.95 -5.75Q17.3 -4.25 16.15 -3.6Q17.7 -2.65 18.2 -1.75Q18.6 -1 18.6 0.2Q18.6 2.3 17.45 3.8Q15.6 6.2 11.25 5.7L10.65 7.5Q9.85 9 7.8 9Q6 9 4.95 7.65L4.1 6.1Q3.15 6.8 2.2 6.8Q-0.2 6.8 -0.4 4.55L-0.15 3.35Q0.45 2.5 2.35 2.35L2.45 1.45Q2.8 1.2 2.3 1.2Q0.3 1.2 -1.65 3.6L-4 6.75L-4.25 6.65L-4.35 6.25Q-4.35 5.8 -2.5 3.4L-0.3 0.8L-1 0.2L-2.15 1.25Q-2.65 2 -3.5 2.25L-3.5 1.5L-3.55 1.35L-5.75 3.9L-7.95 6.45L-8.1 6.35L-8.1 6Q-8.1 5.4 -6.35 2.25L-4.55 -1.05L-4.45 -1.15Q-5.5 -1.15 -6.05 -0.8Q-6.65 -0.4 -8 -0.4Q-10.2 -0.4 -11.35 -1.9Q-12.4 -3.2 -12 -4.25Q-13.25 -4.45 -13.9 -6.25Q-14.4 -7.6 -14.4 -9Q-14.4 -12.95 -11.05 -14.5L-11.2 -15.1Q-11.2 -17.4 -9.15 -18.7Q-6.05 -20.65 0.15 -17.7L1.2 -18.5" />
</g>
</svg>
