<?xml version="1.0" encoding="utf-8"?>
<svg version="1.1" id="Layer_1"
xmlns="http://www.w3.org/2000/svg"
xmlns:xlink="http://www.w3.org/1999/xlink"
width="12px" height="6px"
xml:space="preserve">
<g id="921" transform="matrix(1, 0, 0, 1, -0.25, 1.05)">
<path style="fill:#100806;fill-opacity:1" d="M6.7,1.45Q6.4 1.1 6.4 0.4Q6.4 -1.2 8.95 -1.05Q11.45 -0.85 11.45 0.65Q11.45 1.55 9.8 2.6L8.85 2.6Q7.25 2.1 6.7 1.45M4.1,1.9Q5.7 2.15 5.7 3.2Q5.7 4.5 3.6 4.5Q1.95 4.5 1.5 3.95Q1.35 3.75 1.35 3.2L1.4 2.95Q0.25 2.7 0.25 1.65Q0.25 0.4 2.1 0.25Q3.95 0.1 3.95 1.35L3.85 1.85L4.1 1.9" />
</g>
</svg>
