<?xml version="1.0" encoding="utf-8"?>
<svg version="1.1" id="Layer_1"
xmlns="http://www.w3.org/2000/svg"
xmlns:xlink="http://www.w3.org/1999/xlink"
width="11px" height="14px"
xml:space="preserve">
<g id="854" transform="matrix(1, 0, 0, 1, 11.45, 9.4)">
<path style="fill:#0B0B0B;fill-opacity:1" d="M-10.15,-6.2L-7.6 -6Q-6.25 -7.95 -4.15 -9.4L-2.6 -8.05L-5 -5L-1.4 -5L-3.95 1.8L-7.15 0.7L-7.55 4L-10 3.8Q-9.95 0.7 -9.4 -1.5L-11.45 -2.7L-10.15 -6.2M-4,-7.9L-4.35 -8.45Q-6.75 -6.25 -8.3 -3.05Q-9.25 -0.4 -9.35 2.95L-8.75 2.95Q-9 0.65 -7.9 -2.7Q-6.9 -6.05 -4 -7.9" />
<path style="fill:#BD8051;fill-opacity:1" d="M-7.9,-2.7Q-9 0.65 -8.75 2.95L-9.35 2.95Q-9.25 -0.4 -8.3 -3.05Q-6.75 -6.25 -4.35 -8.45L-4 -7.9Q-6.9 -6.05 -7.9 -2.7" />
</g>
</svg>
