<?xml version="1.0" encoding="utf-8"?>
<svg version="1.1" id="Layer_1"
xmlns="http://www.w3.org/2000/svg"
xmlns:xlink="http://www.w3.org/1999/xlink"
width="24px" height="11px"
xml:space="preserve">
<g id="977" transform="matrix(1, 0, 0, 1, 6.6, 8.2)">
<path style="fill:#000000;fill-opacity:0.85098" d="M5.55,-6.25Q4.25 -6.05 2.95 -6.25L2.9 -6.3L2.8 -6.4L2.7 -6.55L2.65 -6.65L2.65 -6.75L2.65 -6.85L2.65 -6.9L2.7 -6.95L3.1 -7.35L3.45 -7.6L4.05 -7.95L4.45 -8.2L5.25 -8.1L5.95 -7.9L6.5 -7.45L6.6 -6.9L6.4 -6.65L5.55 -6.25M9.15,-6.55L10.95 -6.65Q12 -6.25 11.8 -5.3L11.4 -4.7Q10.6 -4.25 9.65 -4.7L9.15 -4.85L9.05 -4.9L9.05 -4.95L9.05 -5.15L9 -5.35L8.95 -5.65L8.9 -5.95L8.95 -6.35L8.95 -6.4L9 -6.5L9.05 -6.5L9.15 -6.55M1.05,-1.2Q1.15 -0.55 0.45 -0.5L-0.3 -0.45L-1.45 -0.4L-1.65 -0.4L-1.75 -0.6Q-1.8 -1 -1.4 -1.2L-0.35 -1.6L0.2 -1.75L0.25 -1.8Q1 -1.9 1.05 -1.2M4.1,-2.1L4.25 -1.9L4.4 -1.8L4.5 -1.7L4.65 -1.75L4.8 -1.8L5 -1.8L5.2 -1.75L5.25 -1.7L5.3 -1.65L5.3 -1.6L5.35 -1.55L5.45 -1.5L5.95 -1.45L6.05 -1.4Q6.3 -1.2 6.2 -0.9L6.05 -0.35L5.85 0.05L5.45 0.35Q5 0.55 4.8 1L4.75 1L4.75 1.05L4.7 1.05L4.75 1.35L4.7 1.4L4.65 1.45L4.45 1.45L4.4 1.55L4.25 1.6L4.15 1.55L4.1 1.5L4.05 1.45L4.05 1.35L4.1 1.2L4.15 1.1L4.15 1.05L4.1 0.9L4.05 0.85L3.95 0.8L3.95 0.65L3.95 0.55L3.95 0.5L3.9 0.3L4 0.05L3.95 -0.2L3.85 -0.65L3.7 -1.15L3.65 -1.4L3.65 -2.1L3.75 -2.25L3.95 -2.2L4.1 -2.1M8.75,-3.45L9.3 -3.25L9.55 -2.95L9.6 -2.9L9.55 -2.85L9.5 -2.7L9.5 -2.65L9.45 -2.6L9.45 -2.55L9.4 -2.5L8.65 -2.25L7.85 -1.95Q7.3 -1.7 6.7 -1.95L6.65 -2L6.5 -2.15L6.45 -2.2L6.35 -2.35L6.2 -2.5L6.15 -2.6L6.15 -2.7L6.3 -2.95L6.6 -3.25L6.9 -3.4L7.3 -3.6L7.35 -3.65L8.2 -3.55L8.75 -3.45M15.95,-6.25L13.55 -6.5L13.45 -6.6L13.4 -6.7L13.4 -6.85L13.45 -7.15L13.6 -7.35L13.95 -7.65L14.15 -7.8L15.2 -7.75L15.9 -7.5L16.45 -7L16.55 -6.75L16.55 -6.7Q16.35 -6.35 15.95 -6.25M1.65,0.75L1.65 0.85L1.65 1L1.6 1.05L1.45 1.2L1.35 1.3L1.25 1.4L1.1 1.55L0.95 1.6L0.85 1.65L0.8 1.7L0.8 1.75L0.75 1.8L0.7 1.8L0.65 1.85L0.45 1.85L0.4 1.9L0.35 1.95L0.25 2L0.15 2L0.05 1.95L-0.2 1.6L-0.5 1.3L-0.85 0.95L-1.35 0.4L-1.45 0.15L-1.45 0.1L-1.4 0.05L-1.35 -0.05L-1.25 -0.1L-1.15 -0.1L-1.15 -0.15L-0.15 -0.1L0.5 0.15L1.25 0.45L1.6 0.65L1.65 0.7L1.65 0.75M-0.55,-5.2L-0.1 -4.9L0.15 -4.55L-0.05 -4.25L-0.6 -3.9L-1.9 -3.75L-2.65 -4.1L-2.7 -4.2L-2.7 -4.3L-2.7 -4.55L-2.85 -4.7L-2.85 -4.8L-2.7 -5.05L-2.5 -5.2L-2.1 -5.35L-1.7 -5.45L-1.1 -5.4L-0.55 -5.2M-4.65,0.85L-4.95 1.25Q-5.35 1.55 -5.85 1.65L-6.35 1.7L-6.4 1.65L-6.45 1.6L-6.55 1.45L-6.6 1.35L-6.6 1.2L-6.6 1.1L-6.45 0.9L-6.15 0.65L-5.8 0.3L-5.45 0L-5.2 0L-5.1 0.05L-5 0.15L-5 0.25L-4.85 0.35L-4.7 0.45L-4.65 0.5L-4.65 0.85" />
</g>
</svg>
