<?xml version="1.0" encoding="utf-8"?>
<svg version="1.1" id="Layer_1"
xmlns="http://www.w3.org/2000/svg"
xmlns:xlink="http://www.w3.org/1999/xlink"
width="15px" height="7px"
xml:space="preserve">
<g id="971" transform="matrix(1, 0, 0, 1, 0.45, 0)">
<path style="fill:#000000;fill-opacity:0.85098" d="M13.4,0.2L13.4 0.3L13.4 0.35L13.7 0.45L13.8 0.5L13.7 0.8L13.3 1L12.85 1.15L12.5 1.25L12.4 1.3L12.35 1.3L12.25 1.25L12.2 1.25L12.1 1.2L12 1.15L11.9 1.1L11.9 1L11.9 0.9L11.9 0.85L11.9 0.75L11.95 0.65L12 0.45L12.05 0.3L12.1 0.25L12.2 0.2L12.35 0.15L12.4 0.1L12.55 0L12.7 0.1L12.8 0.1L12.95 0.1L13.15 0.05L13.3 0.05L13.35 0.1L13.4 0.2M6.15,1L7.4 1.05L7.45 1.05Q7.9 1.45 7.9 2.05L7.65 3.5L7.4 3.7L7.3 3.75L7.15 3.8L6.85 3.85L4.9 5.6Q4.35 6.2 3.6 6.4L1.55 6.45L1.5 6.5L1.45 6.55L1.4 6.5L1.4 6.4L1.3 6.25L1.35 6.05L1.35 6L1.4 5.4L1.5 5L1.55 5L1.7 4.9Q1.75 4.8 1.9 4.8L2.2 4.35L2.6 3.85L2.75 3.75L2.85 3.6L2.95 3.55L3.05 3.45L3.1 3.4L3.15 3.4L3.15 3.2L3.2 3.2L3.6 2.75L4.15 2.3L4.25 2.25L4.25 2.15L4.3 2.15L5.25 1.5L6.15 1M3.1,0.95L3.35 1.4L3.25 1.95L3.15 2.2L3.15 2.25L3.1 2.3L3.05 2.3Q2.7 3 1.85 3.3L1.65 3.4Q1.2 3.9 1.15 4.5L1.1 5.4L0.45 5.8L-0.2 5.85L-0.45 5.05L-0.35 4.25L-0.25 3.7L-0.2 3.7L-0.1 3.6L-0.1 3.55L-0.05 3.5L0.05 3L0.3 2.5L0.45 2.25L0.5 2.15L0.55 2.05L0.6 1.9Q0.7 1.6 0.95 1.4L1.1 1.2L1.45 0.9L3.05 0.9L3.1 0.95" />
</g>
</svg>
