<?xml version="1.0" encoding="utf-8"?>
<svg version="1.1" id="Layer_1"
xmlns="http://www.w3.org/2000/svg"
xmlns:xlink="http://www.w3.org/1999/xlink"
width="18px" height="30px"
xml:space="preserve">
<g id="1557" transform="matrix(1, 0, 0, 1, 5.3, 13)">
<path style="fill:#D6D6D6;fill-opacity:0.498039" d="M0.25,-2.1L-0.3 -3Q-0.3 -3.65 0.9 -4.2L3.65 -4.7L7.8 -5.1Q8.5 -5.15 8.5 -3.4L7.9 -0.05Q7.9 2.3 5.4 2.3Q1.7 2.3 0.9 0.9Q0.75 0.65 0.75 -1.35L0.25 -2.1M0,-6.9Q-2.35 -6.9 -4 -8.9Q-5.3 -10.45 -5.3 -11.6Q-5.3 -12.8 -4.75 -12.95L-2.2 -13L1.05 -12.85L1.3 -10.65Q1.3 -10.4 1.6 -9.8L1.9 -9Q1.9 -6.9 0 -6.9M11.9,9.55Q11.9 10.3 11.1 11.2L8.9 13.4L8.05 15.2Q7.2 16.7 5.7 16.7Q4.2 16.7 3.5 15.25Q3.1 14.4 3.1 13.55Q1.6 13.4 1.2 12.4L1.1 10.95Q1.1 9.35 1.65 9Q0.9 7.5 0.9 7.2Q0.9 3.5 3 3.7L7.7 4.7Q10.2 4.7 11.3 7Q11.9 8.25 11.9 9.55" />
</g>
</svg>
