<?xml version="1.0" encoding="utf-8"?>
<svg version="1.1" id="Layer_1"
xmlns="http://www.w3.org/2000/svg"
xmlns:xlink="http://www.w3.org/1999/xlink"
width="35px" height="39px"
xml:space="preserve">
<g id="425" transform="matrix(1, 0, 0, 1, 1.55, 15.4)">
<path style="fill:#000000;fill-opacity:0.4" d="M7,-13.3Q8.6 -11.55 11.1 -11.5Q12.65 -11.45 13.6 -10.25L14 -9.45L14 -9.3L13.9 -8.6L13.8 -8.15L13.45 -7.4L12.7 -6.6Q12.8 -5.3 12.05 -4.3Q11.25 -3.15 10 -2.85L6.35 -2.5Q4.85 -2.6 3.95 -3.6L3.75 -4.15Q3.3 -4.8 2.35 -4.35L1.2 -3.8L-0.2 -3.75Q-1.45 -4.8 -1.55 -6.3L-1.2 -8.5Q-0.4 -10.45 -0.05 -12.5Q0.3 -14.6 2.2 -15.4Q5.15 -15.35 7 -13.3M28.2,-1.2Q29.75 -2.3 31.4 -1.4Q33.3 -0.4 32.55 1.7Q31.6 4.55 29.25 6.65L28.9 6.9Q28.3 6.85 27.8 6.45Q26.75 5.55 26.55 4.15Q26.3 2.6 24.65 3L22.4 3.65L20.75 2.75Q19.3 1.85 19.45 0.2Q19.55 -1.55 21 -2.6Q21.85 -3.25 22.75 -3.55L25.2 -3.25Q26.35 -3 27.15 -2.1L28.2 -1.2M17.7,5.5L18.55 6.35L19.4 7.05L19.45 7.6Q19.15 9.15 17.65 9.85Q15.65 10.8 13.85 8.95L13.4 8.6Q12.1 7.9 10.55 8.6Q8.1 9.75 5.6 9.3L5.45 9.2L5.35 8.2Q5.45 6.1 7.2 5.2Q8.8 4.35 10.4 3.65L12.85 2.6L15.55 2.75Q16.8 2.95 17.25 4Q17.4 4.45 17.15 4.8L17.25 4.95L17.7 5.5M0.4,8.6L0.6 8.45L0.75 8.35L0.85 8.3L1 8.3L1.05 8.25Q4.15 7.75 4.8 10.45Q5.35 12.95 4.4 15.3Q3.75 16.95 2.3 16.5L2.3 16.35L2.25 16.05L2.25 15.95L2.25 15.85L2.1 15.8L1.9 15.95L1.55 16.15L1.35 16.2L0.5 16.05L0.35 16L0.3 15.15L0.15 12.55Q-0.1 11.2 0.1 9.75L0.4 8.6M9.95,16.2L11.3 14.8L12.25 14.05Q12.95 13.9 13.35 14.4L13.65 14.6L14.65 14.85L15.05 15.05Q15.25 15.65 15.05 16.25Q14.3 18.45 12.05 18.6Q10.6 18.65 10.05 19.85L8.45 20.15L8.05 20.2L7.5 20.25Q7.05 20.2 6.9 19.75Q6.85 19.05 7.55 18.5L9.95 16.2" />
<path style="fill:#000000;fill-opacity:0.4" d="M9.9,-12.95Q16.25 -12.15 14.45 -6.05L13.9 -4.8Q13.15 -2.9 10.5 -2.6Q7.95 -2.35 5.9 -3.7Q1.75 -3 1.15 -6.9Q0.9 -8.65 1.6 -10.2Q2 -11.2 2.85 -11.7L2.85 -11.5Q4.2 -13.15 6.8 -12L6.95 -12.05L8.3 -12.5L9.9 -12.95M18.75,-2.2L20.8 -3.6L21.6 -3.95L22.2 -3.9L22.55 -3.7L22.6 -3.65L22.7 -3.7L23.1 -3.65L23.5 -3.45L23.8 -3.15Q27.35 -4.8 28.95 -1.6Q31.05 2.55 27 3.75Q25.05 4.35 23.7 3Q21.5 3.1 20.15 1.45Q18.5 1.95 17.65 0.4Q17.3 -0.25 17.35 -1L18.75 -2.2M8.5,5.45Q15.25 5.7 13.25 11.8Q12.85 13 11.6 13.35Q6 14.95 5.3 9.8Q5 7.7 6.9 6.25Q7.65 5.7 8.5 5.45M0.75,12.05Q5.25 12.15 3.3 16.1Q2.25 18.3 0.25 16.75Q-2.7 14.45 0.2 12.35L0.75 12.05M9.2,15.8Q13.35 15.95 13.2 20.05Q13.1 22.6 10.4 23.2Q7.05 23.9 5.35 21.2L5.4 20.4Q5.7 19.15 6.25 18.05Q7.15 16.35 9.2 15.8" />
</g>
</svg>
