<?xml version="1.0" encoding="utf-8"?>
<svg version="1.1" id="Layer_1"
xmlns="http://www.w3.org/2000/svg"
xmlns:xlink="http://www.w3.org/1999/xlink"
width="34px" height="9px"
xml:space="preserve">
<g id="409" transform="matrix(1, 0, 0, 1, -155.7, -206.9)">
<path style="fill:#3A1D0F;fill-opacity:0.85098" d="M156.3,210.3Q155.8 208.25 158.05 207.9L158.2 207.85L158.45 208.05L158.5 208.1L157.8 209L156.9 210.85L156.85 210.9L156.8 209.8L156.65 209.9L156.55 209.9L156.45 210.15L156.3 210.3M160.45,213.95L170.55 214.35L170.7 214.4L160.25 213.95L160.45 213.95M187.7,209.9Q188.65 210.25 188.4 211.2Q187.7 210.85 187.3 210.1Q187.4 209.9 187.7 209.9M187.35,212.1L187.4 212.05Q187.8 212.6 187.25 213.2L187.25 213.25Q187.6 213.05 188 213.25Q187.7 214.2 187 214.3L186.45 214.7L185.9 214.15Q186.85 213.2 187.35 212.1" />
<path style="fill:#3A1D0F;fill-opacity:0.6" d="M158.2,208.5L157.8 209L157 210.6L156.95 211.1Q156.9 212.05 156.3 211.15Q155.1 209.55 156.35 207.95Q156.95 207.2 157.8 206.9Q159.65 207.15 158.2 208.5M160.45,213.95L170.55 214.35L170.7 214.4L160.25 213.95L160.45 213.95M187.7,208.55Q190.25 209.45 188.75 211.7L188.55 211.65L188.2 211.1L187.3 210.1L187.35 210.05Q186.6 209.2 187.7 208.55M188.6,213.8Q187.8 216.05 185.3 215.3Q185.05 215.2 185.25 215L185.95 214.2L185.9 214.15L186.05 214L186.65 213.1L187.15 212.5L187.35 212.1L187.4 212.05L187.5 212.2L187.8 212L188.2 211.8Q189.1 212.5 188.6 213.8" />
</g>
</svg>
