<?xml version="1.0" encoding="utf-8"?>
<svg version="1.1" id="Layer_1"
xmlns="http://www.w3.org/2000/svg"
xmlns:xlink="http://www.w3.org/1999/xlink"
width="113px" height="89px"
xml:space="preserve">
<g id="815" transform="matrix(1, 0, 0, 1, 16.05, 10.6)">
<path style="fill:#000000;fill-opacity:1" d="M29.65,-0.25L29.65 0L29.8 0.35L30.2 0.5L31.95 6.4L26.75 6.9L25.65 3L27.25 0.05L29.15 -0.4L29.25 -0.45L29.75 -0.35L29.65 -0.25M43.9,0.8L43.85 0.8L43.3 0.9L42.95 1.35L42.9 1.4L41.45 2.25L41.15 2.05L40.7 2.15L40.55 2.45L40.55 2.8L40.35 2.85Q40.3 2.65 40.1 2.7L39.95 2.7L39.55 2.2L38.7 0.75L39.4 -2.55L39.45 -2.55L52.9 -10.6L51.7 -3.95L43.9 0.8M52.25,1.3L53.1 0.75L52.65 5.2L52.55 5.25L46.3 5.75L46.3 5.05L46.7 4.8L48.55 3.55L49.65 2.85L51 3.85L51.95 4.5L52.5 4.9L52.3 3.55L52.05 1.45L52.1 1.45L52.25 1.3M40.35,-1.45Q40.6 -1.15 40.85 -1.15L41.45 -1.2Q41.7 -1.35 41.75 -1.65Q41.9 -1.9 41.65 -2.25L41.25 -2.4L40.75 -2.3L40.35 -1.95L40.35 -1.45M69.35,-1.25L68.25 0.7L63.4 -4.05L63.35 -4.15L63.35 -4.2L67.85 -3.65L69.35 -1.25M72.4,-5.05L79.1 -3.7L79.75 -2.55L78.9 0.7L77.25 1.65L77.6 1.75L79.2 1.95L81.15 4.8L80.1 10.6L75.1 9.1L75.75 5.8L75.95 5.35L76 4.75L76.45 2L76 1.2L76.1 1.2L76.25 0.9L76.1 0.55L75.7 0.4L75.55 0.35L75 -0.65L75 -0.75L74.75 -1.35L74.4 -1.75L74.25 -1.8L72.4 -5.05M77.85,-3.25L77.45 -2.85L77.55 -2.3L77.95 -1.9L78.6 -2L78.85 -2.45L78.7 -3L78.35 -3.35L77.85 -3.25M77.2,-0.95L77 -1L76.6 -0.9Q76.3 -0.75 76.35 -0.45L76.35 0.1L76.95 0.5L77.35 0.4L77.7 0L77.5 -0.65L77.2 -0.95M85.75,27.65L85.95 27.4L86.1 27.25L87.55 26.2L87.95 26.3Q88.1 26.2 88.35 26.15L88.75 25.55L88.5 25.2L89.4 24.35L89.8 24.3L90 24.2L90.3 23.95L90.2 23.65L90.7 23.15L90.95 19.9L91.05 19.45L90.95 19.05L91.5 9.4L96.55 10.2L96.05 21.2L93.45 23.35L91.8 23.4L91.65 23.3L91.75 23.5L93.05 24.8L92.8 28.25L87.9 32.6L84.95 28.35L85.75 27.65M84.7,17.05L84.1 21.1L81 22.35L80.7 22.4L79.05 20.05L83.3 16.15L84.7 17.05M94.5,21.1L94.95 20.75L95.1 20.25L95.05 19.75L94.55 19.45Q94.2 19.45 94.05 19.7L93.75 20.2L93.95 20.7L94.5 21.1M92.75,21.15L92.75 21.1Q92.5 20.9 92.35 20.85Q91.95 20.9 91.85 21.05Q91.6 21.2 91.65 21.5L91.75 22.15Q91.8 22.35 92.2 22.35L92.3 22.35L92.65 22.15L92.9 21.5L92.75 21.15M91.3,25.2L91.05 25.05Q91.05 24.9 90.9 24.95Q90.5 25 90.3 25.2L90.05 25.75L90.2 26.3L90.4 26.3L90.8 26.35L91.2 26.1L91.6 25.6L91.3 25.2M91.65,28.65L91.95 28.25L91.8 27.8L91.25 27.6L90.7 27.7L90.6 28L90.6 28.15Q90.55 28.4 90.8 28.7Q91 29 91.2 28.95L91.35 28.95L91.65 28.65M70.65,35.1L75.5 32.75L75.9 32.7L76.75 32.5L77.85 32.25L78.55 32.15L78.75 32.1L78.65 30.4L78.7 29.95L78.55 29.6L78.5 28.6L83.7 28.85L84.3 38.05Q84.1 37.8 83.9 37.9L84.55 38.65L85.95 40.25L84.75 43.45L82.05 47.65L81.6 48.3L81.4 48.25L81.35 48.25L81.3 48.25L81.25 48.25L81.1 48.2L70.6 35.15L70.65 35.1M90.85,62.35Q90.85 58.95 89.05 56.3L88.05 55.1L87.7 54.75L85.75 53.2L85.1 52.85L83.05 50.6L83.6 49.55L83.65 49.25L89.5 48.75L92.8 49.25L94.15 52.95L91.6 55.45L95.1 55.6L96.55 59.5L94.35 62L90.6 64.75L90.85 62.35M87.7,69.85L88.5 69L88.5 70.45L87.8 73.7L84.05 74.85L82.3 72.85Q85.35 72.25 87.7 69.85M73.25,71.75L75 71.7L75.85 72.1Q77.05 72.65 78.45 72.85L80.2 73L81.65 72.95L81.35 75.65L77.4 76.85L75 74.5L73.95 72.85L73.25 71.75M52.75,71.65L68.4 71.65L68.1 72.85L67.7 74.25L66.15 77.2L62.2 77.25L60.7 74.05L59.4 77.3L55.25 77.4L53.6 74.45L53.1 72.85L52.75 71.65M46.7,72.85L46.3 74.35L44.7 77.3L40.75 77.3L39.3 74.1L37.95 77.35L33.8 77.35L32.2 74.4L31.75 72.85L31.4 71.65L47.05 71.65L46.7 72.85M25.65,72.85L22.3 76.2L19.45 77.95L16.05 75.95L16.35 72.45L13.6 74.6L10 72.5L10.05 69.15L10.65 66.8Q11.4 68.45 12.8 69.85Q15.45 72.5 18.95 72.95L22.2 72.85L24.75 72.1L25.55 71.7L25.6 71.7L26.3 71.7L26.45 72.05L25.65 72.85M9.9,64.5L6.7 62.4L4.4 59.95L5.65 56.2L9.15 55.8L6.5 53.55L7.75 49.6L11.05 48.95L16.9 49.15L17.1 49.8L17.5 51.15L19.5 48.75L18.8 47.8L16.45 44.45L15.15 41.35L17.65 38.3L18.3 38.5L18.65 33.25L20.75 31.9L20.85 31.9L21.05 31.7L24.25 28L23.9 33.3L25.35 33.55L27.15 34.35L28 34.7L30.25 35.65L31.6 34L29.75 31.4L29.2 30.6L28.75 29.95L28.35 29L27.95 28L27.45 26.85L29.95 23.8L30.35 23.9L31.7 24.3L32.5 24.5L33.35 24.7L32.9 23.8L32.2 22.55L31.7 21.65L31.95 21.4L33.15 19.9L34 18.85L34.35 18.45L35.7 18.7L36.65 18.9L37.65 19.05L42.3 21.05L14.9 54.55L16.55 52.45L16.45 52.45Q15.95 52.6 15.55 52.85Q15.25 52.95 15.05 53.15L14.9 53.25Q14.1 53.6 13.4 54.25L11.05 57.05L10.6 58.05Q9.7 60 9.7 62.35L9.9 64.5M31.55,14.85L32.75 7L35.4 11.45L31.55 14.85M43.25,18.25L43.2 18.25L42.05 19.7L43.25 14.75L44.45 12.5L50.1 15.2Q46.1 15.4 43.25 18.25M50.25,15.2L56.8 13.5L57.35 14.5L58.7 18.8L58.2 18.15L57.85 17.8Q54.85 15.15 50.8 15.15L50.25 15.2M70.15,32.25L70.7 32.95L69.2 33.3L68.6 32.6L68.55 32.6L67.1 30.8L67.15 30.75L65.9 29.2L65.85 29.25L63.5 26.35L63.55 26.3L62.7 25.25L62.65 25.3L62.55 25.2L62.55 25.1L61.35 23.6L61.25 23.5L60.75 22.9L60.75 22.85L59.5 21.4L58.1 19.7L61.5 17.8L64.75 16.9L65.45 17.6L65.95 18.15L66.55 18.8L67.5 19.75L66.2 23.05L67.95 22.35L68.35 28.1L71.2 28.25L68.6 32.6L70.15 32.25M62.35,63.75L63.05 64.25L63.1 66.2L65.3 66.35L64.55 70.3L66.8 70.25L66.25 66.45L66.25 66.4L66.3 66.4L66.5 65.85L70.1 65.85Q70.85 68.1 72.6 69.85L73.2 70.35L73.55 70.65L72.5 70.55L72.35 70.35L61.5 70.35L61.35 63.15L61.65 63.25L62.35 63.75M56.15,65.85L60 63.05L60.15 70.35L56.55 70.35L55.95 65.85L56.15 65.85M55.25,65.85L54.3 70.35L45.45 70.35L44.85 65.85L55.25 65.85M41.3,63.95L43.9 65.85L44.15 65.85L43.2 70.35L40.15 70.35L40.1 64.15L41.3 63.95M34.85,65.85L37.5 64L38.75 64.15L38.8 70.35L35.2 70.35L34.7 65.95L34.7 65.85L34.85 65.85M27.9,69.85Q29.7 68.1 30.5 65.85L33.95 65.85L32.9 70.35L27.4 70.35L27.9 69.85M40.6,32.5L24.6 52.5Q22.6 51.65 20.35 51.65L18.9 51.75L20 50.55L19.75 50.55L22.15 47.65L25.8 49.95L23.05 46.55L25.35 43.8L29.1 46.8L29.95 45.8L26.2 42.75L28.7 39.75L32.25 42.05L29.6 38.65L34.25 33.05L38.1 35.45L35.25 31.85L37.5 29.15L41.4 32.3L40.6 32.5M42.65,26.35L42.25 31.3L38.3 28.15L40.8 25.15L42.65 26.35M41.75,23.95L43 22.5L42.75 25.25L41.75 23.95M56.85,24.15L56.4 20.6L56.8 20.4L57.1 20.7L57.75 21.4L58.15 21.95L58.4 22.25L56.85 24.15M57.65,30.1L57.05 25.55L57 25.2L57.05 25.2L59.5 23.65L61.55 26.35L57.65 30.1M75.8,50.8L71.05 44.85L70.65 44.35L68.7 41.95L68.65 41.2L68.05 41.1L67.15 40L66.95 39.95L65.35 38L65.45 37.85L64.85 37.1L62.25 33.9L62.05 34L59.9 31.35L59.95 31.35L59.4 31.25L58.6 31.05L60.1 29.65L62.4 27.45L62.7 27.85L62.7 27.65L64.9 30.4L62.05 33.85L65.85 31.55L71.15 38.1L68.5 41.05L72 39.15L74.3 42L71.05 44.85L71.95 45.85L75.15 43.05L77.65 46.15L75.2 48.75L78.4 47.05L82.25 51.85L80.2 51.65L77.5 52L76.9 52.15L76.5 51.65L75.8 50.8M69.55,61.5L69.75 60L70 59.2L69.8 60Q69.6 60.9 69.55 61.95L69.55 61.5M69.6,63.5L69.8 64.75L69.6 63.6L69.6 63.5M77.75,2.9Q77.45 2.75 77.3 2.9L77 3.45L77.15 4L77.6 4.35L78 4.25L78.1 4.15L78.2 3.7L78.3 3.1L77.8 2.95L77.75 2.9M80.2,5.05L79.8 4.75L79.1 4.85L78.8 5.35L78.9 5.9L79.4 6.05L79.9 6L80.05 5.65L80.2 5.05M41,0.15L40.75 0.2L40.55 0.25L40.15 0.75L40.2 1.2L40.3 1.3Q40.4 1.45 40.65 1.5L41.2 1.3L41.25 1.3L41.5 0.95L41.55 0.5L41.35 0.2L41 0.15M80.1,37.9L80.05 37.9L79.9 38.2L80.3 38.1L80.1 37.9M29.35,0.95L29.05 1.25L29 1.3L28.9 1.9L29.05 2.15L29.3 2.35L29.85 2.3L30.3 1.85L30.3 1.35L29.95 0.95L29.35 0.95M27.15,2.5Q26.85 2.6 26.75 2.8L26.65 3.4L27.05 3.8L27.6 3.85L28 3.4L28.05 2.95Q28.05 2.6 27.7 2.45L27.15 2.5M17.65,14.6L15.65 19.9L14.95 8.3L14.75 8L14.6 7.95L15 7.1L17.65 14.6M15.05,36.85L14.05 34.7L14.15 34.5L14.15 34.05L13.7 33.65L13.55 33.7L12.95 32.25L13.1 32.2L13.65 32.15L14 31.75L14 31.35L13.9 31.2L13.5 30.9L13.05 31L12.6 31.35L10.45 26.9L11.7 23.65L12.65 23.3Q12.75 23.65 13 23.65L13.4 23.6L13.6 23.55L13.85 23.35L13.9 23.15L13.85 22.6L13.85 22.55L13.45 22.3L13 22.35L13 22.4L12.8 22.55L11.85 22.2L10.4 19.1L12.2 14.4L12.3 14.8L12.7 15.2L13.3 15.1L13.65 14.65Q13.8 14.45 13.6 14.15L13.1 13.75L12.65 13.9L12.2 14.3L12.85 12.5L13.3 12.4L13.55 12L13.5 11.45L13.4 11.3L14.1 9.2L14.85 21.9L14.4 23.05L15 24.3L15.6 34.4L15.75 34.7L16.05 34.85L16.25 34.7L15.05 36.85M16.45,34.35L16 26.35L17.55 29.6L16.45 34.35M12.5,17.6L12.9 17.95L13.5 17.9L13.85 17.45L13.8 16.9L13.35 16.6L12.9 16.7L12.4 17.1L12.5 17.6M13.65,19.8L13.25 19.5L12.8 19.6Q12.5 19.75 12.3 20L12.4 20.5L12.85 20.9L13.45 20.75L13.75 20.35L13.65 19.8M14.05,25.2L13.95 25.15L13.55 25L13.1 25.15L13 25.15L12.65 25.55L12.75 26.05L13.15 26.4L13.65 26.35L13.7 26.3L14.1 26L14.1 25.9L14.15 25.75L14.15 25.35L14.05 25.2M14.35,28.65L14.25 28.05L13.85 27.75L13.3 27.85L12.9 28.2L12.9 28.35Q12.8 28.6 13 28.75L13.25 29.1L13.35 29.1L13.9 29L14.35 28.65" />
<path style="fill:#8B5F3D;fill-opacity:1" d="M30.2,0.5L29.8 0.35L29.65 0L29.65 -0.25L29.75 -0.35L33.8 1.1L37.35 5.85L36.25 6L33.1 1.65L30.2 0.5M52.8,-2L53.3 -1.3L51.2 -0.05L52.1 1.45L52.05 1.45L52.3 3.55L50.4 0.4L44.65 3.8L44.55 3.9L44.35 3.9L40.85 2.95L40.55 2.8L40.55 2.45L40.7 2.15L41.15 2.05L41.45 2.25L44.35 3L52.8 -2M44.2,1.05L44.25 1.6L44 2.05L43.4 2.15L42.95 1.85L42.9 1.4L42.95 1.35L43.3 0.9L43.85 0.8L43.9 0.8L44.2 1.05M40.35,-1.95L40.75 -2.3L41.25 -2.4L41.65 -2.25Q41.9 -1.9 41.75 -1.65Q41.7 -1.35 41.45 -1.2L40.85 -1.15Q40.6 -1.15 40.35 -1.45L40.35 -1.95M50.5,-2.35L50.65 -2.55L50.8 -2.7L51.35 -2.85L51.6 -2.7L51.85 -2.45L51.9 -1.95L51.55 -1.5L50.95 -1.4L50.55 -1.7Q50.4 -2 50.5 -2.25L50.5 -2.35M49.35,-1.05L49.45 -0.6L49.1 -0.1L48.55 0Q48.3 0 48.15 -0.35Q47.95 -0.5 48.05 -0.85L48.4 -1.2L48.95 -1.35L49.35 -1.05M72.95,0.25L75.55 0.35L75.7 0.4L76.1 0.55L76.25 0.9L76.1 1.2L76 1.2L75.7 1.25L72.65 1.15L72.5 1.05L72.4 0.9L69.8 -3.45L70.55 -3.9L72.95 0.25M72.4,8.35L71.5 8.1L72.15 4.65L72.3 4.35L75.35 2.35L75.65 2.3L75.9 2.4L76 2.75L75.8 2.95L73 4.9L72.4 8.35M72.75,-3.45L72.8 -2.95Q72.75 -2.65 72.5 -2.55L71.85 -2.45L71.55 -2.8Q71.35 -3 71.4 -3.35L71.7 -3.7L72.2 -3.85L72.75 -3.45M74.65,-0.4L74.15 -0.35L73.7 -0.7Q73.5 -0.95 73.6 -1.3L73.9 -1.65L74.25 -1.8L74.4 -1.75L74.75 -1.35L75 -0.75L75 -0.65L74.65 -0.4M76,4.75L75.95 5.35L75.75 5.8L75.15 5.95L74.75 5.6Q74.55 5.3 74.65 5.05Q74.75 4.75 75 4.6Q75.2 4.45 75.45 4.45L76 4.75M78.35,-3.35L78.7 -3L78.85 -2.45L78.6 -2L77.95 -1.9L77.55 -2.3L77.45 -2.85L77.85 -3.25L78.35 -3.35M77.5,-0.65L77.7 0L77.35 0.4L76.95 0.5L76.35 0.1L76.35 -0.45Q76.3 -0.75 76.6 -0.9L77 -1L77.2 -0.95L77.5 -0.65M83.65,26.65L83.2 25.95L86 23.45L86.3 23.35L89.8 23.55L90.2 23.65L90.3 23.95L90 24.2L89.8 24.3L89.4 24.35L86.45 24.15L83.65 26.65M86.75,13.15L87.6 12.35L87.7 8.8L88.65 8.9L88.1 20.1L90.5 21.85L90.7 22.1L90.55 22.45L90.2 22.6L89.95 22.55L87.4 20.65L87.3 20.45L87.2 20.3L87.6 13.3L86.75 13.15M90.95,19.05L91.05 19.45L90.95 19.9L90.85 20L90.45 20.15L89.85 19.95L89.8 19.3L90 18.9Q90.05 18.65 90.45 18.8Q90.7 18.7 90.85 18.95L90.95 19.05M88.5,25.2L88.75 25.55L88.35 26.15Q88.1 26.2 87.95 26.3L87.55 26.2L87.25 25.65Q87.25 25.4 87.6 25.15L88.1 24.85L88.25 24.95L88.5 25.2M86.1,27.25L85.95 27.4L85.75 27.65L85.55 27.65L84.95 27.45Q84.7 27.15 84.8 27Q84.8 26.5 85 26.4L85.65 26.2Q85.75 26.05 86.1 26.35L86.3 26.95L86.1 27.25M90,11.65L89.55 11.35L89.35 10.8Q89.3 10.5 89.55 10.2L90.1 10.1L90.5 10.3L90.7 10.9L90.5 11.45L90 11.65M90.4,14.2L89.9 14.35Q89.45 14.35 89.4 14.1Q89.25 13.95 89.25 13.6L89.5 13.05Q89.55 12.9 89.9 12.9Q90.15 12.9 90.4 13.15L90.55 13.8L90.4 14.2M90.3,16.15L90.4 16.6L90.25 16.95L89.7 17.2L89.2 17.05L89.25 16.85Q89.05 16.7 89.15 16.4Q89.1 16.2 89.4 15.95Q89.4 15.65 89.75 15.75Q90 15.7 90.25 15.95L90.3 16.15M93.95,20.7L93.75 20.2L94.05 19.7Q94.2 19.45 94.55 19.45L95.05 19.75L95.1 20.25L94.95 20.75L94.5 21.1L93.95 20.7M92.9,21.5L92.65 22.15L92.3 22.35L92.2 22.35Q91.8 22.35 91.75 22.15L91.65 21.5Q91.6 21.2 91.85 21.05Q91.95 20.9 92.35 20.85Q92.5 20.9 92.75 21.1L92.75 21.15L92.9 21.5M91.6,25.6L91.2 26.1L90.8 26.35L90.4 26.3L90.2 26.3L90.05 25.75L90.3 25.2Q90.5 25 90.9 24.95Q91.05 24.9 91.05 25.05L91.3 25.2L91.6 25.6M91.35,28.95L91.2 28.95Q91 29 90.8 28.7Q90.55 28.4 90.6 28.15L90.6 28L90.7 27.7L91.25 27.6L91.8 27.8L91.95 28.25L91.65 28.65L91.35 28.95M83.9,37.9Q84.1 37.8 84.3 38.05L84.55 38.5L84.55 38.65L83.9 37.9M20.75,31.9L21.05 31.7L20.85 31.9L20.75 31.9M30,21.4L30.6 20.7L31.95 21.4L31.7 21.65L32.2 22.55L30 21.4M36.65,18.9L35.7 18.7L37.6 15.2L38.15 16.15L36.65 18.9M66.55,18.8L65.95 18.15L67.55 16.6L67.65 17.8L66.55 18.8M70.15,32.25L75.75 30.95L75.55 28.45L76.4 28.5L76.6 31.1L76.65 31.2L76.65 31.45L76.75 32.5L75.9 32.7L75.8 31.85L70.7 32.95L70.15 32.25M77.8,2.95L78.3 3.1L78.2 3.7L78.1 4.15L78 4.25L77.6 4.35L77.15 4L77 3.45L77.3 2.9Q77.45 2.75 77.75 2.9L77.8 2.95M80.05,5.65L79.9 6L79.4 6.05L78.9 5.9L78.8 5.35L79.1 4.85L79.8 4.75L80.2 5.05L80.05 5.65M74.2,6.9L74.6 7.2L74.7 7.85L74.5 8.2L74.45 8.25L74 8.4L73.55 8.15L73.5 8.1L73.45 7.55L73.7 6.9L74.2 6.9M64.75,16.9L64.95 16.4L65.5 16.25Q65.8 16.25 66 16.4L66.2 16.9L66 17.4Q65.8 17.6 65.5 17.6L65.45 17.6L64.75 16.9M51.95,4.5L51 3.85L51.35 3.75L51.8 4.1L51.95 4.5M47.05,0.95L46.75 1.35L46.15 1.45L46.1 1.5L45.7 1.15L45.65 0.6L45.9 0.35L46.05 0.2Q46.2 0.05 46.5 0.05Q46.8 0.05 46.95 0.35L47.05 0.95M41.35,0.2L41.55 0.5L41.5 0.95L41.25 1.3L41.2 1.3L40.65 1.5Q40.4 1.45 40.3 1.3L40.2 1.2L40.15 0.75L40.55 0.25L40.75 0.2L41 0.15L41.35 0.2M78.65,30.4L78.5 30.45L78.15 30.8Q77.7 30.8 77.65 30.6L77.35 30.1L77.45 29.45Q77.5 29.25 77.95 29.25L78.4 29.4L78.55 29.6L78.7 29.95L78.65 30.4M78.55,32.15L77.85 32.25Q77.8 32.15 78.2 32.05L78.55 32.15M71.9,30.85L71.4 31.1L70.85 30.85Q70.6 30.75 70.6 30.4L70.85 29.9L71.4 29.75L71.9 29.9L72.1 30.4L71.9 30.85M74.75,29.4L75 29.9L74.75 30.4Q74.55 30.6 74.3 30.6L73.7 30.4L73.5 29.9L73.7 29.4L74.3 29.25L74.75 29.4M80.3,38.1L79.9 38.2L80.05 37.9L80.1 37.9L80.3 38.1M32.45,2.15L32.85 2.55L32.8 3.1L32.4 3.5Q32.15 3.7 31.85 3.5Q31.6 3.45 31.45 3.05L31.55 2.5L31.9 2.1L32.45 2.15M33.4,4.25Q33.65 4.1 33.95 4.25Q34.2 4.3 34.2 4.65L34.25 5.15L33.75 5.55L33.3 5.6L32.95 5.2L33.05 4.6Q33.15 4.35 33.4 4.25M29.95,0.95L30.3 1.35L30.3 1.85L29.85 2.3L29.3 2.35L29.05 2.15L28.9 1.9L29 1.3L29.05 1.25L29.35 0.95L29.95 0.95M27.7,2.45Q28.05 2.6 28.05 2.95L28 3.4L27.6 3.85L27.05 3.8L26.65 3.4L26.75 2.8Q26.85 2.6 27.15 2.5L27.7 2.45M28.05,28.85L27.85 28.35L27.95 28L28.35 29L28.05 28.85M29.2,30.6L29.75 31.4L28 34.7L27.15 34.35L29.2 30.6M36.1,14.45L36.55 14.6L36.8 15.05L36.55 15.55L36.1 15.75L35.5 15.55L35.3 15.05L35.5 14.6L36.1 14.45M34.05,17.25L34.25 16.75L34.8 16.6L35.3 16.75L35.5 17.25L35.3 17.75Q35.1 17.95 34.8 17.95Q34.55 17.95 34.25 17.75L34.05 17.25M33.15,19.9Q32.9 19.8 32.9 19.4L33.15 18.95L33.7 18.8L34 18.85L33.15 19.9M32.9,23.8L33.35 24.7L32.5 24.5L32.9 23.8M31.7,24.3L30.35 23.9L30.45 23.7L31 23.55Q31.3 23.55 31.5 23.7L31.7 24.2L31.7 24.3M13.35,9.25L13 9.7L12.4 9.75L12 9.45Q11.85 9.2 12 8.95Q12.1 8.6 12.35 8.5L12.9 8.4L13.3 8.75L13.35 9.25M14.75,8L14.95 8.3L15.65 19.9L15.65 20.15L19.6 20.2L19.4 21.05L15.6 21.1L16 26.35L16.45 34.35L16.25 34.7L16.05 34.85L15.75 34.7L15.6 34.4L15 24.3L14.85 21.9L14.1 9.2L14.1 8.35L14.2 8.1Q14.25 7.95 14.5 7.95L14.6 7.95L14.75 8M14.05,34.7L13.85 34.95L13.2 35L12.9 34.7L12.75 34.15L13.25 33.8L13.55 33.7L13.7 33.65L14.15 34.05L14.15 34.5L14.05 34.7M12.95,32.25L12.7 32L12.6 31.95L12.65 31.45L12.6 31.35L13.05 31L13.5 30.9L13.9 31.2L14 31.35L14 31.75L13.65 32.15L13.1 32.2L12.95 32.25M12.65,23.3L12.55 22.8L12.8 22.55L13 22.4L13 22.35L13.45 22.3L13.85 22.55L13.85 22.6L13.9 23.15L13.85 23.35L13.6 23.55L13.4 23.6L13 23.65Q12.75 23.65 12.65 23.3M12.2,14.4L12.2 14.3L12.65 13.9L13.1 13.75L13.6 14.15Q13.8 14.45 13.65 14.65L13.3 15.1L12.7 15.2L12.3 14.8L12.2 14.4M12.85,12.5L12.55 12.5L12.2 12.25L12.15 11.65L12.6 11.25L13.1 11.15L13.4 11.3L13.5 11.45L13.55 12L13.3 12.4L12.85 12.5M12.4,17.1L12.9 16.7L13.35 16.6L13.8 16.9L13.85 17.45L13.5 17.9L12.9 17.95L12.5 17.6L12.4 17.1M13.75,20.35L13.45 20.75L12.85 20.9L12.4 20.5L12.3 20Q12.5 19.75 12.8 19.6L13.25 19.5L13.65 19.8L13.75 20.35M14.15,25.35L14.15 25.75L14.1 25.9L14.1 26L13.7 26.3L13.65 26.35L13.15 26.4L12.75 26.05L12.65 25.55L13 25.15L13.1 25.15L13.55 25L13.95 25.15L14.05 25.2L14.15 25.35M13.9,29L13.35 29.1L13.25 29.1L13 28.75Q12.8 28.6 12.9 28.35L12.9 28.2L13.3 27.85L13.85 27.75L14.25 28.05L14.35 28.65L13.9 29M27.35,29.9L27.85 30.05L28.05 30.5L27.85 31L27.35 31.2L26.8 31L26.6 30.5L26.8 30.05L27.35 29.9M26.1,32.05L26.6 32.2L26.8 32.7L26.6 33.2L26.1 33.4L25.55 33.2L25.35 32.7L25.55 32.2L26.1 32.05" />
<path style="fill:#0B0B0B;fill-opacity:1" d="M33.1,1.65L36.25 6L31.95 6.4L30.2 0.5L33.1 1.65M44.35,3L41.45 2.25L42.9 1.4L42.95 1.85L43.4 2.15L44 2.05L44.25 1.6L44.2 1.05L43.9 0.8L51.7 -3.95L52.8 -2L44.35 3M52.1,1.45L51.2 -0.05L53.3 -1.3L53.1 0.75L52.25 1.3L52.1 1.45M40.85,2.95L44.35 3.9L44.55 3.9L44.65 3.8L50.4 0.4L52.3 3.55L52.5 4.9L51.95 4.5L51.8 4.1L51.35 3.75L51 3.85L49.65 2.85L48.55 3.55L46.7 4.8L46.3 5.05L46.3 5.75L42.55 6.1L42.4 5.95L40.35 2.85L40.55 2.8L40.85 2.95M50.5,-2.25Q50.4 -2 50.55 -1.7L50.95 -1.4L51.55 -1.5L51.9 -1.95L51.85 -2.45L51.6 -2.7L51.35 -2.85L50.8 -2.7L50.65 -2.55L50.5 -2.35L50.5 -2.25M48.95,-1.35L48.4 -1.2L48.05 -0.85Q47.95 -0.5 48.15 -0.35Q48.3 0 48.55 0L49.1 -0.1L49.45 -0.6L49.35 -1.05L48.95 -1.35M75.45,4.45Q75.2 4.45 75 4.6Q74.75 4.75 74.65 5.05Q74.55 5.3 74.75 5.6L75.15 5.95L75.75 5.8L75.1 9.1L72.4 8.35L73 4.9L75.8 2.95L76 2.75L75.9 2.4L75.65 2.3L75.35 2.35L72.3 4.35L72.15 4.65L68.25 0.7L69.35 -1.25L67.85 -3.65L69.8 -3.45L72.4 0.9L72.5 1.05L72.65 1.15L75.7 1.25L76 1.2L76.45 2L76 4.75L75.45 4.45M70.55,-3.9L72.4 -5.05L74.25 -1.8L73.9 -1.65L73.6 -1.3Q73.5 -0.95 73.7 -0.7L74.15 -0.35L74.65 -0.4L75 -0.65L75.55 0.35L72.95 0.25L70.55 -3.9M72.2,-3.85L71.7 -3.7L71.4 -3.35Q71.35 -3 71.55 -2.8L71.85 -2.45L72.5 -2.55Q72.75 -2.65 72.8 -2.95L72.75 -3.45L72.2 -3.85M86.3,26.95L86.1 26.35Q85.75 26.05 85.65 26.2L85 26.4Q84.8 26.5 84.8 27Q84.7 27.15 84.95 27.45L85.55 27.65L85.75 27.65L84.95 28.35L83.65 26.65L86.45 24.15L89.4 24.35L88.5 25.2L88.25 24.95L88.1 24.85L87.6 25.15Q87.25 25.4 87.25 25.65L87.55 26.2L86.1 27.25L86.3 26.95M83.2,25.95L80.7 22.4L81 22.35L84.1 21.1L84.7 17.05L83.3 16.15L86.75 13.15L87.6 13.3L87.2 20.3L87.3 20.45L87.4 20.65L89.95 22.55L90.2 22.6L90.55 22.45L90.7 22.1L90.5 21.85L88.1 20.1L88.65 8.9L91.5 9.4L90.95 19.05L90.85 18.95Q90.7 18.7 90.45 18.8Q90.05 18.65 90 18.9L89.8 19.3L89.85 19.95L90.45 20.15L90.85 20L90.95 19.9L90.7 23.15L90.2 23.65L89.8 23.55L86.3 23.35L86 23.45L83.2 25.95M90.5,11.45L90.7 10.9L90.5 10.3L90.1 10.1L89.55 10.2Q89.3 10.5 89.35 10.8L89.55 11.35L90 11.65L90.5 11.45M90.55,13.8L90.4 13.15Q90.15 12.9 89.9 12.9Q89.55 12.9 89.5 13.05L89.25 13.6Q89.25 13.95 89.4 14.1Q89.45 14.35 89.9 14.35L90.4 14.2L90.55 13.8M90.25,15.95Q90 15.7 89.75 15.75Q89.4 15.65 89.4 15.95Q89.1 16.2 89.15 16.4Q89.05 16.7 89.25 16.85L89.2 17.05L89.7 17.2L90.25 16.95L90.4 16.6L90.3 16.15L90.25 15.95M81.1,48.2L81.25 48.25L81.3 48.25L81.35 48.25L81.4 48.25L81.6 48.3L82.05 47.65L83.6 49.55L83.05 50.6L81.1 48.2M80.2,73L78.45 72.85Q77.05 72.65 75.85 72.1L75 71.7Q85.55 71.35 88.05 68Q92.55 61.95 85.1 52.85L85.75 53.2L87.7 54.75L88.05 55.1L89.05 56.3Q90.85 58.95 90.85 62.35L90.6 64.75Q90.1 67.1 88.5 69L87.7 69.85Q85.35 72.25 82.3 72.85L81.65 72.95L80.2 73M73.95,72.85L68.1 72.85L68.4 71.65L71.95 71.65L72 71.75L73.25 71.75L73.95 72.85M53.1,72.85L46.7 72.85L47.05 71.65L52.75 71.65L53.1 72.85M31.75,72.85L25.65 72.85L26.45 72.05L26.3 71.7L29.2 71.75L29.3 71.65L31.4 71.65L31.75 72.85M9.7,62.35Q9.7 60 10.6 58.05L11.05 57.05L13.4 54.25Q14.1 53.6 14.9 53.25L15.05 53.15Q15.25 52.95 15.55 52.85Q15.95 52.6 16.45 52.45L16.55 52.45L14.9 54.55Q9.05 62.5 13.15 68Q15.6 71.25 25.55 71.7L24.75 72.1L22.2 72.85L18.95 72.95Q15.45 72.5 12.8 69.85Q11.4 68.45 10.65 66.8Q10.1 65.7 9.9 64.5L9.7 62.35M17.1,49.8L18.8 47.8L19.5 48.75L17.5 51.15L17.1 49.8M27.15,34.35L25.35 33.55L23.9 33.3L24.25 28L30 21.4L32.2 22.55L32.9 23.8L32.5 24.5L31.7 24.3L31.7 24.2L31.5 23.7Q31.3 23.55 31 23.55L30.45 23.7L30.35 23.9L29.95 23.8L27.45 26.85L27.95 28L27.85 28.35L28.05 28.85L28.35 29L28.75 29.95L29.2 30.6L27.15 34.35M35.4,11.45L37.6 15.2L35.7 18.7L34.35 18.45L34 18.85L33.7 18.8L33.15 18.95L32.9 19.4Q32.9 19.8 33.15 19.9L31.95 21.4L30.6 20.7L31.55 14.85L35.4 11.45M38.15,16.15L41 10.85L44.45 12.5L43.25 14.75L42.05 19.7L43.2 18.25L43.25 18.25Q46.1 15.4 50.1 15.2L50.15 15.2L50.2 15.2L50.25 15.2L50.8 15.15Q54.85 15.15 57.85 17.8L58.2 18.15L58.7 18.8L57.35 14.5L56.8 13.5L62.2 12.05L67.55 16.6L65.95 18.15L65.45 17.6L65.5 17.6Q65.8 17.6 66 17.4L66.2 16.9L66 16.4Q65.8 16.25 65.5 16.25L64.95 16.4L64.75 16.9L61.5 17.8L58.1 19.7Q55.05 16.7 50.8 16.7Q46.7 16.7 43.7 19.45L43.4 19.7L42.35 21L42.3 21.05L37.65 19.05L36.65 18.9L38.15 16.15M66.55,18.8L67.65 17.8L67.95 22.35L66.2 23.05L67.5 19.75L66.55 18.8M68.6,32.6L71.2 28.25L75.55 28.45L75.75 30.95L70.15 32.25L68.6 32.6M76.4,28.5L78.5 28.6L78.55 29.6L78.4 29.4L77.95 29.25Q77.5 29.25 77.45 29.45L77.35 30.1L77.65 30.6Q77.7 30.8 78.15 30.8L78.5 30.45L78.65 30.4L78.75 32.1L78.55 32.15L78.2 32.05Q77.8 32.15 77.85 32.25L76.75 32.5L76.65 31.45L76.65 31.2L76.6 31.1L76.4 28.5M73.2,70.35L72.6 69.85Q70.85 68.1 70.1 65.85L66.5 65.85L67.05 64.1L69.6 63.6L69.8 64.75L69.6 63.5L69.6 62.65L69.55 61.95Q69.6 60.9 69.8 60L70 59.2L69.75 60L69.55 61.5L69.5 60.9L69.9 54.6L76.1 52.6L77 52.3L76.5 51.65L76.9 52.15L77.5 52L80.2 51.65L82.25 51.85L82.4 51.9Q92.25 63.1 87 67.4Q82.1 71.35 73.55 70.65L73.2 70.35M44.85,65.85L44.55 63.6L44.15 65.85L43.9 65.85L41.3 63.95L40.1 64.15L39.6 64.15L39.45 64.15L39.25 64.15L38.75 64.15L37.5 64L34.85 65.85L34.7 65.85L34.4 63.65L33.95 65.85L30.5 65.85Q29.7 68.1 27.9 69.85L27.4 70.35L27.15 70.6L27 70.7Q18.9 71.15 14.2 67.4Q8.95 63.1 18.9 51.75L20.35 51.65Q22.6 51.65 24.6 52.5L40.6 32.5L41.4 32.3L42.25 31.3L42.65 26.35L40.8 25.15L41.75 23.95L42.75 25.25L43 22.5L43.4 21.95L44.25 20.9L44.4 20.7Q47.05 18.1 50.8 18.1Q54.25 18.1 56.8 20.4L56.4 20.6L56.85 24.15L58.4 22.25L59.5 23.65L57.05 25.2L57 25.2L57.05 25.55L57.65 30.1L61.55 26.35L60.1 29.65L58.6 31.05L59.4 31.25L59.95 31.35L59.9 31.35L62.05 34L54.15 37.45L47.25 35.85L46.15 35.55L46.8 37L45.2 38.65L47.2 41L49.2 39.95Q51.05 41.6 53.3 42.25L53.4 44.7L56.6 44.9L56.95 43.85L58.05 45.9Q56.3 47.75 55.65 50.05L53.35 50.2L53.25 51.2L54.2 51.15L55.45 51.1L52.7 56.55L52.6 56.55L52.55 56.6L53.65 56.55L53.7 56.5L53.8 56.5L56.55 51L59.15 50.9L56.4 56.35L55.65 56.4L55.65 56.45L56.5 58.5L54.9 60.15L56.9 62.5L58.9 61.45L60.45 62.6L60.65 62.7L61.25 63.05L61.2 63.05L60 63.05L56.15 65.85L55.95 65.85L55.65 63.7L55.25 65.85L44.85 65.85M83.2,56.7Q81.8 55.9 80.05 55.9L78.75 56.1L80.05 62.25L80.05 56.65L80.15 56.65Q81.65 56.65 82.95 57.35L80.2 62.25L84.35 57.5L83.2 56.7M85.75,65.55Q86.6 64.15 86.6 62.4L86.45 61.2L80.6 62.4L85.95 62.4L85.95 62.5Q85.95 64 85.25 65.3L80.2 62.55L85.05 66.6L85.75 65.55M70.7,32.95L75.8 31.85L75.9 32.7L75.5 32.75L70.65 35.1L70.6 35.15L69.1 33.3L69.2 33.3L70.7 32.95M73.7,6.9L73.45 7.55L73.5 8.1L73.55 8.15L74 8.4L74.45 8.25L74.5 8.2L74.7 7.85L74.6 7.2L74.2 6.9L73.7 6.9M46.95,0.35Q46.8 0.05 46.5 0.05Q46.2 0.05 46.05 0.2L45.9 0.35L45.65 0.6L45.7 1.15L46.1 1.5L46.15 1.45L46.75 1.35L47.05 0.95L46.95 0.35M50.6,19.8Q52.1 19.8 53.4 20.5L50.65 25.4L54.8 20.65Q54.3 20.15 53.65 19.85Q52.25 19.05 50.5 19.05L49.2 19.25L50.5 25.4L50.5 19.8L50.6 19.8M44.8,22.4Q44 23.8 44 25.55L44.2 27.05L50.35 25.7L46.25 30.45L47.35 31.25Q48.75 32.1 50.5 32.1L51.9 31.95L50.6 25.7L50.5 25.7L50.5 31.45Q48.9 31.45 47.65 30.7L50.45 25.7L50.35 25.7L50.45 25.55L44.75 25.55Q44.75 24 45.45 22.75L50.5 25.55L50.5 25.5L45.65 21.3Q45.1 21.75 44.8 22.4M56.65,24.4L51.05 25.55L55.75 25.55L56.35 25.65L56.4 25.6L56.4 25.65Q56.4 27.15 55.7 28.45L50.65 25.7L55.5 29.75L56.2 28.7Q57.05 27.3 57.05 25.55L56.65 24.4M66.3,39.85L66 40.95L64.75 38.7L65.35 38L66.95 39.95L66.3 39.85M44.65,48.7Q42.7 46.9 40.1 46.7L39.25 46.65L38.95 46.65Q36.15 46.7 34.05 48.55L33.5 49.05L33.4 49.15Q31.3 51.3 31.15 54.25L31.1 54.8L31.1 55.05Q31.15 58.1 33.25 60.35L33.5 60.55L33.85 60.85Q36 62.85 39.1 62.95L39.25 62.95L39.95 62.95Q42.75 62.65 44.85 60.7L45 60.55L45.55 60L46.75 58.1L45.75 58.25L45.15 59.2L44.6 58.15Q43.6 57.9 42.9 57.2L42.4 56.55L41.9 57.1Q40.9 58.1 39.6 58.1Q38.25 58.1 37.25 57.1Q36.3 56.1 36.3 54.8Q36.3 53.45 37.25 52.45Q38.25 51.5 39.6 51.5Q40.9 51.5 41.9 52.45L42.25 52.85L42.9 52L43.05 51.85L42.8 51.55L42.2 51L44.15 49.95L43.2 51.75Q43.85 51.2 44.65 51.05L45 50.3L45.5 50.95L46.5 51.1L45.4 49.5L45 49.05L44.65 48.7M58.9,42.4L57 43.7L57.35 42.6L58.9 42.4M72.1,30.4L71.9 29.9L71.4 29.75L70.85 29.9L70.6 30.4Q70.6 30.75 70.85 30.85L71.4 31.1L71.9 30.85L72.1 30.4M74.3,29.25L73.7 29.4L73.5 29.9L73.7 30.4L74.3 30.6Q74.55 30.6 74.75 30.4L75 29.9L74.75 29.4L74.3 29.25M63,42.8Q62.05 43.05 61.15 43.5L59.7 42.15L61.45 41.45L63 42.8M64.35,42.55L65.95 41.05L65.55 42.4L64.35 42.55M31.9,2.1L31.55 2.5L31.45 3.05Q31.6 3.45 31.85 3.5Q32.15 3.7 32.4 3.5L32.8 3.1L32.85 2.55L32.45 2.15L31.9 2.1M33.05,4.6L32.95 5.2L33.3 5.6L33.75 5.55L34.25 5.15L34.2 4.65Q34.2 4.3 33.95 4.25Q33.65 4.1 33.4 4.25Q33.15 4.35 33.05 4.6M29.75,31.4L31.6 34L30.25 35.65L28 34.7L29.75 31.4M35.5,14.6L35.3 15.05L35.5 15.55L36.1 15.75L36.55 15.55L36.8 15.05L36.55 14.6L36.1 14.45L35.5 14.6M34.25,17.75Q34.55 17.95 34.8 17.95Q35.1 17.95 35.3 17.75L35.5 17.25L35.3 16.75L34.8 16.6L34.25 16.75L34.05 17.25L34.25 17.75M13.3,8.75L12.9 8.4L12.35 8.5Q12.1 8.6 12 8.95Q11.85 9.2 12 9.45L12.4 9.75L13 9.7L13.35 9.25L13.3 8.75M13.4,11.3L13.1 11.15L12.6 11.25L12.15 11.65L12.2 12.25L12.55 12.5L12.85 12.5L12.2 14.3L12.2 14.4L10.4 19.1L11.85 22.2L12.8 22.55L12.55 22.8L12.65 23.3L11.7 23.65L10.45 26.9L12.6 31.35L12.65 31.45L12.6 31.95L12.7 32L12.95 32.25L13.55 33.7L13.25 33.8L12.75 34.15L12.9 34.7L13.2 35L13.85 34.95L14.05 34.7L15.05 36.85L8.2 37.2L6.8 35.5L5.65 9.65L6.8 7.45L15 7.1L14.6 7.95L14.5 7.95Q14.25 7.95 14.2 8.1L14.1 8.35L14.1 9.2L13.4 11.3M14.85,21.9L15 24.3L14.4 23.05L14.85 21.9M17.55,29.6L16 26.35L15.6 21.1L19.4 21.05L17.55 29.6M19.6,20.2L15.65 20.15L15.65 19.9L17.65 14.6L19.6 20.2M3.7,13.1L3.7 13.75L3.8 15.5L2.8 15.5L3.7 13.1M2.2,17.2L3.85 17.05L4.1 21.8L4.2 22.95L4.2 23.8L4.25 26.35L-1.25 26.55L2.2 17.2M-3.85,33.25L-1.45 26.95L4.2 28L4.45 32.9L-3.85 33.25M26.8,30.05L26.6 30.5L26.8 31L27.35 31.2L27.85 31L28.05 30.5L27.85 30.05L27.35 29.9L26.8 30.05M25.55,32.2L25.35 32.7L25.55 33.2L26.1 33.4L26.6 33.2L26.8 32.7L26.6 32.2L26.1 32.05L25.55 32.2M38.75,47.5L37.75 50.5L34.9 48.95Q36.5 47.65 38.75 47.5M39.6,50.2L38.75 50.3L39.5 47.9L40.2 50.3L39.6 50.2M36.35,51.55L35.95 52.1L34.75 49.95L36.9 51.05L36.35 51.55M32.8,54.65L35.1 53.95L35.05 54.8L35.1 55.4L32.85 54.7L32.8 54.65M32,53.95Q32.2 51.7 33.85 49.95L35.4 52.9L32 53.95M33.7,59.55Q32.1 57.65 31.95 55.35L35.3 56.35L35.3 56.45L33.7 59.55M37.9,59.05L38.8 62.1Q36.35 61.95 34.6 60.4L37.5 58.85L37.9 59.05M36.35,58L36.7 58.35L34.8 59.35L35.85 57.4L36.35 58M38.9,59.3L39.6 59.35L40.15 59.35L39.5 61.3L38.9 59.3M22.25,56.3L20.3 62.3L23.1 57.4L23.15 57.45Q24.5 58.2 25.25 59.45L20.4 62.35L26.4 60.3L25.85 59.05Q25 57.65 23.5 56.75Q22.9 56.4 22.25 56.3M26.4,64.55L20.75 62.7L25.35 65.35L25.3 65.4Q24.55 66.75 23.3 67.5L20.3 62.55L22.45 68.55L23.55 68Q25 67.15 25.9 65.65L26.4 64.55M20.3,62.35L18.2 56.3Q17.45 56.4 16.9 56.8Q15.45 57.65 14.6 59.15Q14.2 59.8 14.05 60.55L20.1 62.45L14.1 64.5L14.65 65.7Q15.5 67.2 17 68.05L18.25 68.65L20.25 62.55L20.2 62.5L17.3 67.5Q15.9 66.7 15.2 65.4L20.15 62.45L20.1 62.45L20.2 62.35L15.25 59.55Q16 58.2 17.25 57.45L20.25 62.4L20.3 62.35M74.35,59.25Q73.55 60.65 73.55 62.4L73.75 63.9L79.9 62.55L75.8 67.3L76.9 68.1Q78.3 68.95 80.05 68.95L81.45 68.8L80.15 62.55L80.05 62.55L80.05 68.3Q78.45 68.3 77.2 67.55L80 62.55L79.9 62.55L80 62.4L74.3 62.4Q74.3 60.85 75 59.6L80.05 62.4L80.05 62.35L75.2 58.15L74.35 59.25M66.8,52.55L67 55.8L65.75 55.9L65.15 55.9L66.8 52.55M64.05,50.6L64.45 50.6L66.7 50.5L66.7 50.65L64.05 55.95L61.3 56.1L64.05 50.6M60.3,50.8L62.95 50.7L60.2 56.15L57.55 56.3L60.3 50.8M61.65,63.25L63 63.75L63.05 64.25L62.35 63.75L61.65 63.25M51.65,51.3L48.9 56.75L48.85 56.75L48.8 56.8L49.9 56.75L49.95 56.7L50.05 56.7L52.8 51.2L51.65 51.3M47.9,51.8L47.85 51.8L48.5 52.75L49.15 51.4L48 51.5L47.9 51.8M47.35,52.8Q46.55 52 45.5 52Q44.55 52 43.85 52.6L43.6 52.8Q42.9 53.55 42.9 54.6L42.9 54.8Q42.95 55.75 43.6 56.5L43.8 56.7Q44.55 57.2 45.5 57.2L46.25 57.1L46.75 56.95L47.35 56.5Q48.1 55.7 48.1 54.6L47.95 53.7L47.35 52.8M47.15,53.15L47.75 54.2L47.75 54.6Q47.75 55.5 47.05 56.15L46.45 56.65L45.5 56.85L45.3 56.85Q44.55 56.75 44.05 56.25L43.95 56.15Q43.25 55.5 43.25 54.6Q43.25 53.6 43.95 53.05L44 53Q44.65 52.35 45.5 52.35Q46.5 52.35 47.05 53.05L47.15 53.15M42.8,58L43.25 57.6L44.15 59.35L42.4 58.45L42.8 58M41.55,58.95L44.15 60.35Q42.4 61.75 40.2 62L41.15 59.15L41.55 58.95M43.85,49.1L41.2 50.5L40.35 47.55Q42.25 47.85 43.85 49.1M-14.45,18.7L-16.05 16.65L-0.55 13.35L-1.05 15.9L-14.45 18.7M-3.4,27.9L-4.7 34.5L-6 28L-13.3 29.55L-13.7 20.55L-1.4 17.65L-3.25 27.45L-5.8 27.95L-3.4 27.9" />
<path style="fill:#BD8051;fill-opacity:1" d="M78.4,47.05L75.2 48.75L77.65 46.15L75.15 43.05L71.95 45.85L71.05 44.85L74.3 42L72 39.15L68.5 41.05L71.15 38.1L65.85 31.55L62.05 33.85L64.9 30.4L62.7 27.65L62.7 27.85L62.4 27.45L60.1 29.65L61.55 26.35L59.5 23.65L58.4 22.25L58.15 21.95L57.75 21.4L57.1 20.7L56.8 20.4Q54.25 18.1 50.8 18.1Q47.05 18.1 44.4 20.7L44.25 20.9L43.4 21.95L43 22.5L41.75 23.95L40.8 25.15L38.3 28.15L42.25 31.3L41.4 32.3L37.5 29.15L35.25 31.85L38.1 35.45L34.25 33.05L29.6 38.65L32.25 42.05L28.7 39.75L26.2 42.75L29.95 45.8L29.1 46.8L25.35 43.8L23.05 46.55L25.8 49.95L22.15 47.65L19.75 50.55L20 50.55L18.9 51.75Q8.95 63.1 14.2 67.4Q18.9 71.15 27 70.7L27.15 70.6L27.4 70.35L32.9 70.35L33.95 65.85L34.4 63.65L34.7 65.85L34.7 65.95L35.2 70.35L38.8 70.35L38.75 64.15L39.25 64.15L39.45 64.15L39.6 64.15L40.1 64.15L40.15 70.35L43.2 70.35L44.15 65.85L44.55 63.6L44.85 65.85L45.45 70.35L54.3 70.35L55.25 65.85L55.65 63.7L55.95 65.85L56.55 70.35L60.15 70.35L60 63.05L61.2 63.05L61.35 63.15L61.5 70.35L72.35 70.35L72.5 70.55L73.55 70.65Q82.1 71.35 87 67.4Q92.25 63.1 82.4 51.9L82.25 51.85L78.4 47.05M73.25,71.75L72 71.75L71.95 71.65L68.4 71.65L52.75 71.65L47.05 71.65L31.4 71.65L29.3 71.65L29.2 71.75L26.3 71.7L25.6 71.7L25.55 71.7Q15.6 71.25 13.15 68Q9.05 62.5 14.9 54.55L42.3 21.05L42.35 21L43.4 19.7L43.7 19.45Q46.7 16.7 50.8 16.7Q55.05 16.7 58.1 19.7L59.5 21.4L60.75 22.85L60.75 22.9L61.25 23.5L61.35 23.6L62.55 25.1L62.55 25.2L62.65 25.3L62.7 25.25L63.55 26.3L63.5 26.35L65.85 29.25L65.9 29.2L67.15 30.75L67.1 30.8L68.55 32.6L68.6 32.6L69.2 33.3L69.1 33.3L70.6 35.15L81.1 48.2L83.05 50.6L85.1 52.85Q92.55 61.95 88.05 68Q85.55 71.35 75 71.7L73.25 71.75M84.35,57.5L80.2 62.25L82.95 57.35Q81.65 56.65 80.15 56.65L80.05 56.65L80.05 62.25L78.75 56.1L80.05 55.9Q81.8 55.9 83.2 56.7L84.35 57.5M85.05,66.6L80.2 62.55L85.25 65.3Q85.95 64 85.95 62.5L85.95 62.4L80.6 62.4L86.45 61.2L86.6 62.4Q86.6 64.15 85.75 65.55L85.05 66.6M50.5,19.8L50.5 25.4L49.2 19.25L50.5 19.05Q52.25 19.05 53.65 19.85Q54.3 20.15 54.8 20.65L50.65 25.4L53.4 20.5Q52.1 19.8 50.6 19.8L50.5 19.8M45.65,21.3L50.5 25.5L50.5 25.55L45.45 22.75Q44.75 24 44.75 25.55L50.45 25.55L50.35 25.7L50.45 25.7L47.65 30.7Q48.9 31.45 50.5 31.45L50.5 25.7L50.6 25.7L51.9 31.95L50.5 32.1Q48.75 32.1 47.35 31.25L46.25 30.45L50.35 25.7L44.2 27.05L44 25.55Q44 23.8 44.8 22.4Q45.1 21.75 45.65 21.3M57.05,25.55Q57.05 27.3 56.2 28.7L55.5 29.75L50.65 25.7L55.7 28.45Q56.4 27.15 56.4 25.65L56.4 25.6L56.35 25.65L55.75 25.55L51.05 25.55L56.65 24.4L57.05 25.55M5.65,9.65L6.8 35.5L4.45 32.9L4.2 28L-1.45 26.95L-1.25 26.55L4.25 26.35L4.2 23.8L4.2 22.95L4.1 21.8L3.85 17.05L2.2 17.2L2.8 15.5L3.8 15.5L3.7 13.75L3.7 13.1L5.65 9.65M23.5,56.75Q25 57.65 25.85 59.05L26.4 60.3L20.4 62.35L25.25 59.45Q24.5 58.2 23.15 57.45L23.1 57.4L20.3 62.3L22.25 56.3Q22.9 56.4 23.5 56.75M25.9,65.65Q25 67.15 23.55 68L22.45 68.55L20.3 62.55L23.3 67.5Q24.55 66.75 25.3 65.4L25.35 65.35L20.75 62.7L26.4 64.55L25.9 65.65M20.25,62.4L17.25 57.45Q16 58.2 15.25 59.55L20.2 62.35L20.1 62.45L20.15 62.45L15.2 65.4Q15.9 66.7 17.3 67.5L20.2 62.5L20.25 62.55L18.25 68.65L17 68.05Q15.5 67.2 14.65 65.7L14.1 64.5L20.1 62.45L14.05 60.55Q14.2 59.8 14.6 59.15Q15.45 57.65 16.9 56.8Q17.45 56.4 18.2 56.3L20.3 62.35L20.25 62.4M75.2,58.15L80.05 62.35L80.05 62.4L75 59.6Q74.3 60.85 74.3 62.4L80 62.4L79.9 62.55L80 62.55L77.2 67.55Q78.45 68.3 80.05 68.3L80.05 62.55L80.15 62.55L81.45 68.8L80.05 68.95Q78.3 68.95 76.9 68.1L75.8 67.3L79.9 62.55L73.75 63.9L73.55 62.4Q73.55 60.65 74.35 59.25L75.2 58.15M67,55.8L66.2 55.9L65.75 55.9L67 55.8M65.3,66.35L66.25 66.45L66.8 70.25L64.55 70.3L65.3 66.35M-13.7,20.55L-13.3 29.55L-16.05 16.65L-14.45 18.7L-1.05 15.9L-1.4 17.65L-13.7 20.55M-5.8,27.95L-3.25 27.45L-3.4 27.9L-5.8 27.95" />
<path style="fill:#604129;fill-opacity:1" d="M57.55,56.3L56.6 56.35L56.6 56.4L57.3 58L57.4 58.55L57.15 59.05L56.15 60.2L57.1 61.35L58.5 60.65L59.05 60.55L59.55 60.75Q61.2 62.25 63.2 62.85L63.65 63.15L63.9 63.65L64 65.35L65.7 65.45L66.2 63.85Q66.25 63.55 66.45 63.4L66.95 63.2L69.5 62.7L69.6 62.65L69.6 63.5L69.6 63.6L67.05 64.1L66.5 65.85L66.3 66.4L66.25 66.4L66.25 66.45L65.3 66.35L63.1 66.2L63.05 64.25L63 63.75L61.65 63.25L61.35 63.15L61.2 63.05L61.25 63.05L60.65 62.7L60.45 62.6L58.9 61.45L56.9 62.5L54.9 60.15L56.5 58.5L55.65 56.45L55.65 56.4L56.4 56.35L59.15 50.9L60.3 50.8L57.55 56.3M75.8,50.8L76.5 51.65L77 52.3L76.1 52.6L76.05 52.45L75.8 50.8M66.95,39.95L67.15 40L68.05 41.1L66.95 40.9L66.4 42.7L66.1 43.15L65.6 43.35Q63.4 43.35 61.55 44.35L61.05 44.45Q60.75 44.4 60.55 44.2L59.4 43.15L58.1 44.05L58.8 45.45L58.95 46L58.7 46.5Q57.1 48.2 56.5 50.35L56.2 50.8L55.7 50.95L54.2 51.05L54.2 51.15L53.25 51.2L53.35 50.2L55.65 50.05Q56.3 47.75 58.05 45.9L56.95 43.85L56.6 44.9L53.4 44.7L53.3 42.25Q51.05 41.6 49.2 39.95L47.2 41L45.2 38.65L46.8 37L46.15 35.55L47.25 35.85L47.6 36.5L47.7 37.05L47.45 37.55L46.45 38.7L47.4 39.85L48.8 39.15L49.35 39.05L49.85 39.25Q51.5 40.75 53.5 41.35Q53.8 41.4 53.95 41.65L54.2 42.15L54.3 43.85L56 43.95L56.5 42.35Q56.55 42.05 56.75 41.9L57.25 41.7Q59.25 41.55 61 40.65L61.55 40.55L62.05 40.75L63.5 42L64.85 40.8L64 39.15L63.85 38.6L64.1 38.1L64.75 37.3L64.85 37.1L65.45 37.85L65.35 38L64.75 38.7L66 40.95L66.3 39.85L66.95 39.95M70.45,44.25Q69.9 43.95 69.35 43.8Q69.05 43.7 68.95 43.45L68.75 42.95L68.7 41.95L70.65 44.35L70.45 44.25M45,49.05L45.4 49.5L46.5 51.1L45.5 50.95L45 50.3L44.65 51.05Q43.85 51.2 43.2 51.75L44.15 49.95L42.2 51L42.8 51.55L43.05 51.85L42.9 52L42.25 52.85L41.9 52.45Q40.9 51.5 39.6 51.5Q38.25 51.5 37.25 52.45Q36.3 53.45 36.3 54.8Q36.3 56.1 37.25 57.1Q38.25 58.1 39.6 58.1Q40.9 58.1 41.9 57.1L42.4 56.55L42.9 57.2Q43.6 57.9 44.6 58.15L45.15 59.2L45.75 58.25L46.75 58.1L45.55 60L45 60.55L44.85 60.7Q42.75 62.65 39.95 62.95L39.25 62.95L39.1 62.95Q36 62.85 33.85 60.85L33.5 60.55L33.25 60.35Q31.15 58.1 31.1 55.05L31.1 54.8L31.15 54.25Q31.3 51.3 33.4 49.15L33.5 49.05L34.05 48.55Q36.15 46.7 38.95 46.65L39.25 46.65L40.1 46.7Q42.7 46.9 44.65 48.7L45 49.05M57.35,42.6L57 43.7L58.9 42.4L57.35 42.6M61.45,41.45L59.7 42.15L61.15 43.5Q62.05 43.05 63 42.8L61.45 41.45M65.55,42.4L65.95 41.05L64.35 42.55L65.55 42.4M34.9,48.95L37.75 50.5L38.75 47.5Q36.5 47.65 34.9 48.95M40.2,50.3L39.5 47.9L38.75 50.3L39.6 50.2L40.2 50.3M36.9,51.05L34.75 49.95L35.95 52.1L36.35 51.55L36.9 51.05M32.85,54.7L35.1 55.4L35.05 54.8L35.1 53.95L32.8 54.65L32.85 54.7M35.4,52.9L33.85 49.95Q32.2 51.7 32 53.95L35.4 52.9M35.3,56.45L35.3 56.35L31.95 55.35Q32.1 57.65 33.7 59.55L35.3 56.45M37.5,58.85L34.6 60.4Q36.35 61.95 38.8 62.1L37.9 59.05L37.5 58.85M35.85,57.4L34.8 59.35L36.7 58.35L36.35 58L35.85 57.4M39.5,61.3L40.15 59.35L39.6 59.35L38.9 59.3L39.5 61.3M65.15,55.9L64.05 55.95L66.7 50.65L66.7 50.5L64.45 50.6Q65.2 50.05 66.2 50.05Q67.4 50.05 68.25 50.9Q69.1 51.75 69.1 53Q69.1 54.2 68.25 55.05Q67.7 55.6 67 55.8L66.8 52.55L65.15 55.9M62.95,50.7L64.05 50.6L61.3 56.1L60.2 56.15L62.95 50.7M52.8,51.2L50.05 56.7L49.95 56.7L49.9 56.75L48.8 56.8L48.85 56.75L48.9 56.75L51.65 51.3L52.8 51.2M55.45,51.1L56.55 51L53.8 56.5L53.7 56.5L53.65 56.55L52.55 56.6L52.6 56.55L52.7 56.55L55.45 51.1M48,51.5L49.15 51.4L48.5 52.75L47.85 51.8L47.9 51.8L48 51.5M47.95,53.7L48.1 54.6Q48.1 55.7 47.35 56.5L46.75 56.95L46.25 57.1L45.5 57.2Q44.55 57.2 43.8 56.7L43.6 56.5Q42.95 55.75 42.9 54.8L42.9 54.6Q42.9 53.55 43.6 52.8L43.85 52.6Q44.55 52 45.5 52Q46.55 52 47.35 52.8L47.95 53.7M47.05,53.05Q46.5 52.35 45.5 52.35Q44.65 52.35 44 53L43.95 53.05Q43.25 53.6 43.25 54.6Q43.25 55.5 43.95 56.15L44.05 56.25Q44.55 56.75 45.3 56.85L45.5 56.85L46.45 56.65L47.05 56.15Q47.75 55.5 47.75 54.6L47.75 54.2L47.15 53.15L47.05 53.05M42.4,58.45L44.15 59.35L43.25 57.6L42.8 58L42.4 58.45M41.15,59.15L40.2 62Q42.4 61.75 44.15 60.35L41.55 58.95L41.15 59.15M40.35,47.55L41.2 50.5L43.85 49.1Q42.25 47.85 40.35 47.55" />
<path style="fill:#0E0E0E;fill-opacity:1" d="M55.45,51.1L54.2 51.15L54.2 51.05L55.7 50.95L56.2 50.8L56.5 50.35Q57.1 48.2 58.7 46.5L58.95 46L58.8 45.45L58.1 44.05L59.4 43.15L60.55 44.2Q60.75 44.4 61.05 44.45L61.55 44.35Q63.4 43.35 65.6 43.35L66.1 43.15L66.4 42.7L66.95 40.9L68.05 41.1L68.65 41.2L68.7 41.95L68.75 42.95L68.95 43.45Q69.05 43.7 69.35 43.8Q69.9 43.95 70.45 44.25L70.65 44.35L71.05 44.85L75.8 50.8L76.05 52.45L76.1 52.6L69.9 54.6L69.5 60.9L69.55 61.5L69.55 61.95L69.6 62.65L69.5 62.7L66.95 63.2L66.45 63.4Q66.25 63.55 66.2 63.85L65.7 65.45L64 65.35L63.9 63.65L63.65 63.15L63.2 62.85Q61.2 62.25 59.55 60.75L59.05 60.55L58.5 60.65L57.1 61.35L56.15 60.2L57.15 59.05L57.4 58.55L57.3 58L56.6 56.4L56.6 56.35L57.55 56.3L60.2 56.15L61.3 56.1L64.05 55.95L65.15 55.9L65.75 55.9L66.2 55.9L67 55.8Q67.7 55.6 68.25 55.05Q69.1 54.2 69.1 53Q69.1 51.75 68.25 50.9Q67.4 50.05 66.2 50.05Q65.2 50.05 64.45 50.6L64.05 50.6L62.95 50.7L60.3 50.8L59.15 50.9L56.55 51L55.45 51.1M54.15,37.45L62.05 34L62.25 33.9L64.85 37.1L64.75 37.3L64.1 38.1L63.85 38.6L64 39.15L64.85 40.8L63.5 42L62.05 40.75L61.55 40.55L61 40.65Q59.25 41.55 57.25 41.7L56.75 41.9Q56.55 42.05 56.5 42.35L56 43.95L54.3 43.85L54.2 42.15L53.95 41.65Q53.8 41.4 53.5 41.35Q51.5 40.75 49.85 39.25L49.35 39.05L48.8 39.15L47.4 39.85L46.45 38.7L47.45 37.55L47.7 37.05L47.6 36.5L47.25 35.85L54.15 37.45" />
</g>
</svg>
