<?xml version="1.0" encoding="utf-8"?>
<svg version="1.1" id="Layer_1"
xmlns="http://www.w3.org/2000/svg"
xmlns:xlink="http://www.w3.org/1999/xlink"
width="58px" height="50px"
xml:space="preserve">
<g id="467" transform="matrix(1, 0, 0, 1, -0.95, 11.95)">
<path style="fill:#FFCC00;fill-opacity:1" d="M9.35,-0.3L9.55 -0.15L9.65 0L9.7 0.1L9.75 0.25L9.7 0.4L10.15 -0.15L11.1 -1.2L12.25 -2.15L12.25 -2.25L11.2 -1.7L10.15 -0.9L9.4 -0.35L9.35 -0.3M19.2,-9.35L21.35 -9.7L25.4 -9.65L24.75 -10.2Q23.45 -11.1 21.85 -10.7L20.8 -10.35L19.8 -9.95L19.2 -9.35M17.5,-9.2L17.6 -9.3L18.75 -10.35Q19.85 -11.45 21.35 -11.65L21.7 -11.7L24.55 -11.55L26.65 -9.75Q27.2 -9 27.05 -8.25L25.25 -8.15Q21.55 -9.65 18.3 -7.45L17.55 -7.25L17.45 -7.4L17.5 -7.8L17.55 -8.2L17.5 -8.75L17.5 -9.2M13.9,-3.25Q14.25 -3.25 14.3 -2.9Q13.7 -1.75 12.45 -0.85Q11.1 0.1 10.3 1.55Q9.45 3 9.4 4.55L9.3 4.65L9.25 4.7L8.75 4.7L8.45 4.65Q7.75 3.55 7.8 2.2Q7.85 0.4 9.15 -0.95Q10.75 -2.55 12.8 -3.3L13.9 -3.25M28.7,-2.6L28.4 -2.6Q28.25 -2.8 28.35 -2.95L29.15 -4.4Q30.15 -5.9 32 -6.5L32.75 -6.75Q34.6 -6.85 36.2 -6.1Q38.05 -5.25 38.45 -3.3Q38.7 -2 37.45 -1.3Q36.9 -1.45 36.45 -1.8Q33.8 -3.85 30.5 -2.5L29.35 -2.45L28.75 -2.6L28.7 -2.6M31.05,-4.05L31.5 -3.95L31.9 -3.8L35.5 -3.5L36.95 -2.9Q37.1 -3.7 36.55 -4.25Q33.5 -7.3 30.6 -3.9L31.05 -4L31.05 -4.05M42.15,-8.15Q42.1 -8.55 42.5 -8.55Q46.05 -7.4 47.6 -3.9Q49.1 -0.5 48.15 3.1Q47.6 5.15 46.05 5.9Q46 4.3 46.25 2.55Q46.65 0 45.1 -2.2L42.65 -5.8Q43.3 -5.9 43 -6.4L42.45 -7.2Q42.15 -7.65 42.15 -8.15M45.7,-4.55Q45.05 -5.95 43.9 -6.7L45.75 -3.35Q46.75 -1.7 47.4 0.15Q47.75 1.2 47.6 2.35Q47.95 0.65 47.25 -1L45.7 -4.55M53.2,7.2L53.35 6.95L53.7 6.65L53.8 6.6L54.05 6.5L54.1 6.45Q56.15 6.85 57.5 8.45Q58.8 10.05 58.95 12.2Q59.05 13.55 58.65 14.7L58.15 14.9L57.4 14.8L57 14.6L56.95 12.65Q56.7 11.15 55.6 10.1L53.15 7.35L53.2 7.2M41.55,1.75L41.65 3.05L41.75 4.25L41.75 5.1L42.05 3.95L41.9 2.55L41.55 1.75M41.5,11.6Q45.35 13.45 46.35 17.5Q47.4 21.75 43.55 24.2Q41.4 25.55 39.5 24.7Q41.2 22.85 42.3 20.45Q43.45 17.85 42.65 15Q42.15 13.3 41.3 11.7Q41.25 11.55 41.5 11.6M41.95,6.5Q41.1 7.65 39.9 7.55Q40.55 6.35 40.8 4.9Q41.1 3.15 40.3 1.65Q39.6 0.2 40.25 -0.6Q42.35 0.2 42.8 2.45Q43.3 4.65 41.95 6.5M44.05,18.7Q43.9 20.75 42.8 22.4L41.15 24.1Q44.55 23.4 45.5 20Q46.1 17.85 44.8 15.85L43.8 14.85Q44.15 16.8 44.05 18.7M44.85,34.95Q45.65 35.45 46.7 35.55L47.85 35.65Q49.05 35.85 49.55 34.8Q49.7 34.45 49.45 34.45L47.65 34.85L46.55 34.9L44.8 34.85L44.85 34.95M42.95,33.55L48.55 33.7Q50 33.5 50.95 32.65Q51.5 34.7 48.9 35.95L45.55 36.15Q43.6 35.55 42.95 33.55M33.7,5.45Q35.6 5.85 35.85 7.6Q36 8.55 35.75 9.5L34.85 9.35Q32.75 7.4 29.6 7.85L27.85 7.65L27.8 7.5Q27.75 7.25 27.95 6.95Q28.3 6.5 28.8 6.2Q29.5 5.75 30.3 5.5L30.5 5.45Q32.15 5.15 33.7 5.45M32.5,6.45L30.5 6.35Q29.9 6.5 30.05 6.55L32.3 7.05L34.25 7.6L34.9 7.85Q35 7.4 34.65 7.15L34.5 7.05Q33.55 6.55 32.5 6.45M23.95,7.25L23.6 7.05L23.35 6.95L23.2 6.95L22.3 7.6L21.65 8.4L21.15 9.15L21.7 8.85L22.85 7.95L23.8 7.35L23.9 7.3L23.95 7.25M21.45,7.35Q22.7 6.35 24.2 6.1L25 6.25L25.55 6.75L25.7 7.3Q25.2 8.2 24 8.6Q22.85 8.95 22.05 9.85L20.95 10.75Q20 10.1 20.4 8.85Q20.75 7.95 21.45 7.35M35,17.9L34.8 18.6L34.7 19L35.15 18.45L35.45 17.8Q35.55 17.35 35.3 17.2L35 17.9M35.15,14.6Q36.75 16.15 36.25 18.3Q35.65 20.5 33.35 21.15Q31.9 21.55 31.25 20.5Q32.85 20.15 33.7 18.7L34.85 16.5L34.95 16L34.7 15.65L34.55 15.05Q34.6 14.7 34.95 14.6L35.15 14.6M19.2,5.9L19.3 5.95L19.5 5.9L19.85 5.9L19.8 5.95Q18.05 7.6 17.25 9.95Q16.4 12.5 17.15 15.05Q17.65 16.75 19 17.85Q15.45 17.8 14.2 13.8Q12.95 9.95 16 7.15Q17.15 6.05 18.5 5.4L18.8 5.5L19 5.65L19.2 5.9M15.6,9.65Q14.3 11.5 15 13.65Q15.4 14.8 16.3 15.65Q15.9 14.35 16.05 12.8Q16.2 10.8 17.1 9.05L18.55 6.55Q16.85 7.85 15.6 9.65M8.1,9.05L6.85 13.2Q6.05 15.4 6.4 17.7Q6.65 19.3 7.65 20.6Q7.25 22.25 8.05 23.65Q9.05 25.45 10.8 26.8Q11.55 27.35 11.6 28.2Q7.85 29.75 5.4 26.2Q4.05 24.25 4.15 21.75Q1.75 19.5 2.3 16.55Q2.95 13.3 4.95 10.6Q5.85 9.35 7.35 8.8L7.65 8.85L7.95 8.95L8.1 9.05M5.45,24.3Q6.1 26 7.75 26.95L9.2 27.15Q6.5 24.45 5.75 20.7L5.35 18.95Q4.65 15.8 5.7 12.65L6.3 10.05L3.85 14.45Q2.5 16.75 3.6 19.05L5.2 21.5Q4.9 22.95 5.45 24.3M17.4,28.6L18.15 29.35L18.8 29.8L21.5 28.95L22.75 28.2L17.1 27.6L16.7 27.6L17.4 28.6M15.6,25.75Q17.25 26.55 19.05 26.85L22.95 26.55L25.05 25.95L25.4 26.05Q25.15 27.6 23.8 28.85Q20.6 31.7 17.35 29.8Q15.35 28.6 15.05 26.4Q15 25.8 15.6 25.75M2.15,30.15L3.35 32.15Q4.05 33.5 5.45 34.2Q6.15 34.6 6.5 35.3Q3.5 37.5 1.55 34.25Q0.7 32.85 1.1 31.1Q1.35 29.8 2.25 29.2L2.25 29.45L2.15 29.75L2.15 30L2.15 30.15M2.2,33.4Q2.55 34.4 3.45 35L4.85 35.35L3.25 33.45Q2.55 32.7 2.35 31.75Q2.25 31.25 1.95 31.2Q1.8 32.35 2.2 33.4M29.75,35.9Q30.5 35.25 30.4 34.75Q29.2 35.55 27.85 35.95Q26.95 36.15 26.25 35.95L23.6 35.35Q25.75 37.3 28.9 36.4Q29.4 36.25 29.75 35.9M29.25,33.85Q30.45 33.3 31.45 32.55Q32.8 35.5 29.4 37.1Q27.85 37.85 25.95 37.75Q22.1 37.55 22.1 34.05L29.25 33.85" />
<path style="fill:#FFFF00;fill-opacity:1" d="M9.4,-0.35L10.15 -0.9L11.2 -1.7L12.25 -2.25L12.25 -2.15L11.1 -1.2L10.15 -0.15L9.7 0.4L9.75 0.25L9.7 0.1L9.65 0L9.55 -0.15L9.35 -0.3L9.4 -0.35M19.8,-9.95L20.8 -10.35L21.85 -10.7Q23.45 -11.1 24.75 -10.2L25.4 -9.65L21.35 -9.7L19.2 -9.35L19.8 -9.95M31.05,-4L30.6 -3.9Q33.5 -7.3 36.55 -4.25Q37.1 -3.7 36.95 -2.9L35.5 -3.5L31.9 -3.8L31.5 -3.95L31.05 -4.05L31.05 -4M47.25,-1Q47.95 0.65 47.6 2.35Q47.75 1.2 47.4 0.15Q46.75 -1.7 45.75 -3.35L43.9 -6.7Q45.05 -5.95 45.7 -4.55L47.25 -1M41.9,2.55L42.05 3.95L41.75 5.1L41.75 4.25L41.65 3.05L41.55 1.75L41.9 2.55M43.8,14.85L44.8 15.85Q46.1 17.85 45.5 20Q44.55 23.4 41.15 24.1L42.8 22.4Q43.9 20.75 44.05 18.7Q44.15 16.8 43.8 14.85M44.8,34.85L46.55 34.9L47.65 34.85L49.45 34.45Q49.7 34.45 49.55 34.8Q49.05 35.85 47.85 35.65L46.7 35.55Q45.65 35.45 44.85 34.95L44.8 34.85M34.5,7.05L34.65 7.15Q35 7.4 34.9 7.85L34.25 7.6L32.3 7.05L30.05 6.55Q29.9 6.5 30.5 6.35L32.5 6.45Q33.55 6.55 34.5 7.05M23.9,7.3L23.8 7.35L22.85 7.95L21.7 8.85L21.15 9.15L21.65 8.4L22.3 7.6L23.2 6.95L23.35 6.95L23.6 7.05L23.95 7.25L23.9 7.3M35.3,17.2Q35.55 17.35 35.45 17.8L35.15 18.45L34.7 19L34.8 18.6L35 17.9L35.3 17.2M18.55,6.55L17.1 9.05Q16.2 10.8 16.05 12.8Q15.9 14.35 16.3 15.65Q15.4 14.8 15 13.65Q14.3 11.5 15.6 9.65Q16.85 7.85 18.55 6.55M5.2,21.5L3.6 19.05Q2.5 16.75 3.85 14.45L6.3 10.05L5.7 12.65Q4.65 15.8 5.35 18.95L5.75 20.7Q6.5 24.45 9.2 27.15L7.75 26.95Q6.1 26 5.45 24.3Q4.9 22.95 5.2 21.5M16.7,27.6L17.1 27.6L22.75 28.2L21.5 28.95L18.8 29.8L18.15 29.35L17.4 28.6L16.7 27.6M1.95,31.2Q2.25 31.25 2.35 31.75Q2.55 32.7 3.25 33.45L4.85 35.35L3.45 35Q2.55 34.4 2.2 33.4Q1.8 32.35 1.95 31.2M28.9,36.4Q25.75 37.3 23.6 35.35L26.25 35.95Q26.95 36.15 27.85 35.95Q29.2 35.55 30.4 34.75Q30.5 35.25 29.75 35.9Q29.4 36.25 28.9 36.4" />
</g>
</svg>
