<?xml version="1.0" encoding="utf-8"?>
<svg version="1.1" id="Layer_1"
xmlns="http://www.w3.org/2000/svg"
xmlns:xlink="http://www.w3.org/1999/xlink"
width="44px" height="17px"
xml:space="preserve">
<g id="407" transform="matrix(1, 0, 0, 1, -148.75, -203.3)">
<path style="fill:#3A1D0F;fill-opacity:0.85098" d="M154.95,207.7Q153.45 209.5 154.3 211.4L154.35 211.5Q152.85 212.4 152.4 210.8L152.6 210.75Q152.3 209.7 153.1 208.3Q153.5 207.55 154.2 207.25Q154.4 207.3 154.45 207.45L154.45 207.5L154.35 207.65L154.6 207.45Q154.85 207.45 154.9 207.65L154.95 207.7M158.9,207.45Q157.65 205.75 160.3 204.85Q161.8 204.3 163.35 204.3Q163.85 204.2 164 204.7L164 204.75Q161.65 205.2 159.65 206.45Q159.05 206.8 158.9 207.45M148.75,214.6L150.45 214.4L150.35 214.3L150.45 214.2L150.75 214.25L150.8 214.25L150.45 214.3L150.4 214.35L150.7 214.4L152.1 214.35L152.85 214.5L152.95 214.55L149.15 214.75L148.75 214.6M159.5,211.65L159.55 211.7L159.65 211.2L159.6 211.2L159.5 211.65M160.9,212.8Q159.6 214.1 158.6 212.3Q158.3 211.8 158.6 211.25Q159.85 208.8 162.4 208.35Q163.15 208.9 162.05 209.9Q160.9 210.95 160.25 212.3Q160.7 212.35 160.9 212.8M159.3,214.25L159.25 214.3Q158.8 214.5 158.85 214.2L158.9 214.15L159.3 214.25M161.1,214.25L161.35 214.25L162.6 214.15L163.45 214.15L161.2 214L161.1 214Q161.45 213.75 161.85 213.75L163.6 213.7L169.45 214L169.75 214L165.7 214.2L174.4 214.9L174.6 214.95L170.4 215.1L170.25 215.1Q165.3 215.25 160.65 214.25L161.1 214.25M155.3,214.15L155.15 214.2L162.8 214.7L154.9 214.5L154.5 214.25L154.7 214.1L155 214.05Q155.7 214.05 155.3 214.15M184.1,210.1Q186.5 211.15 185.5 213.45L185.45 213.55L186.2 213.75L186.3 214.25L186.3 214.45L186.25 214.5L186.75 214.45L188.25 214.15L189.6 214.05Q190.7 212.85 189.95 211.2L189.7 210.95Q189.65 210.9 189.55 211L189.75 210.65L189.9 210.55Q192.15 212.3 190.45 214L190.4 214.05L190.45 214L190.3 214.1L191.65 214.55L191.8 214.6L185.65 214.95L185.25 214.85L183.1 214.7Q182.35 214.95 181.65 214.45L183.75 212.85L184.05 212.25Q184.3 211 184.05 210.15L184.1 210.1M185,212.2L184.8 213L184.8 213.05Q185.2 212.7 185.05 212.15L185 212.2M163.1,215L163.3 215L165.7 215.95Q165.85 215.8 166.05 215.75L166.25 215.7Q166.85 215.8 166.95 216.35L168.25 216.7L168.3 216.7L168.2 216.95L168 217.05L168.4 217.55L168.35 217.8Q165.2 217.45 162.8 215.5L162.75 215.15L163.1 215M171.15,218.25L171.75 218.1L173.7 217.85Q175.3 217.6 176.4 218.25L176.45 218.3L171.4 218.45L171.15 218.25M179.95,216.1L180.95 215.6Q182.25 216.4 180 217.4L178.3 218.05L176.65 217.9Q177.55 217.1 179.1 216.55L179.95 216.1" />
<path style="fill:#3A1D0F;fill-opacity:0.6" d="M161.6,203.35Q163.5 203.15 164.35 204.5L164.3 204.75Q163.75 205.45 162.65 205.45L161.7 205.7L159.05 207.05L158.9 207.45L158.75 207.2L158.4 207.35Q158.2 207.45 158.15 207.2Q157.35 204.4 160.45 203.6L161.6 203.35M155.05,208.45Q154.45 209.75 154.2 211.2L154.3 211.4L154.35 211.5L154.15 211.65L154.1 212L153.85 212.15Q151.95 212.15 152.1 210.2Q152.25 207.75 154.3 206.6Q155.8 206.9 155.05 208.45M149.05,214.1Q149.7 213.65 150.55 213.65Q152.15 213.55 152.9 214.55L152.95 214.55L152.9 214.6L153.05 214.75L152.9 215L150 214.9L149.15 214.75L148.75 214.6L149.05 214.55Q148.65 214.35 149.05 214.1M160.8,213.05Q160.45 214.05 159.3 213.45Q157.45 212.5 158.45 210.55Q159.55 208.4 162 207.95Q164.4 208.05 162.85 209.7L161.9 211L160.8 213.05M161.85,213.65Q162.15 213.35 162.65 213.4L163.25 213.35Q169.15 213.3 174.7 214.8L174.7 215Q173.85 215.9 172.45 215.85L163.75 215.2L165.7 215.95Q165.85 215.8 166.05 215.75L166.25 215.7Q166.85 215.8 166.95 216.35L168.25 216.7L168.3 216.7L168.2 216.95L168 217.05L168.4 217.55L168.35 217.8L168.15 217.8Q166 218.95 163.9 217.35L162.8 216.3Q162.25 215.7 162.75 215.4L162.75 215.15L162.9 215.1L162.7 215.05L161.85 214.8L161.75 214.9Q161.3 215.4 160.5 215.25L157.85 214.9L156.5 214.8L154.8 214.6Q154.5 214.55 154.55 214.3L154.5 214.25L154.55 214.2Q154.7 213.8 155.05 213.75L161.45 214.6L161.6 214.6L161.5 214.45L160.65 214.25L161.1 214.25L161.35 214.25L161.5 214.25L161.6 214.05L161.2 214L161.1 214Q161.4 213.8 161.8 213.75L161.85 213.65M184.55,209.3Q187.9 210.55 186.9 213.75L186.85 213.8L186.95 214.45L188.25 214.15L188.4 214.15L189.05 213.8Q191 212.9 189.5 211.2Q188.6 210.1 189.75 209.55Q191.4 210.1 191.85 211.95Q192.2 213.35 191.3 214.4Q192.15 214.15 192.55 214.9Q192.7 215.25 192.3 215.25L188.3 214.9L186.55 214.95L185.55 215.1L183.15 215.1Q182.65 215.1 182.5 214.8L181.65 214.45L181.7 214.45Q181.45 214.25 181.9 213.75L182.45 213.45Q184.05 213 183.9 211.4Q183.8 210.6 184 209.8Q184.1 209.35 184.55 209.3M170.45,217.75L174.95 217.2Q175.95 217.25 176.45 217.85L176.8 217.45L178.3 216.55Q179.75 215.9 181.2 215.35Q182.75 215.6 181.7 217.05Q180.05 219.25 177.25 218.55L176.75 218.4L176.8 218.65L176.55 219.1L174.2 219.65Q171.25 220.2 170.35 217.85L170.45 217.75" />
</g>
</svg>
