<?xml version="1.0" encoding="utf-8"?>
<svg version="1.1" id="Layer_1"
xmlns="http://www.w3.org/2000/svg"
xmlns:xlink="http://www.w3.org/1999/xlink"
width="46px" height="38px"
xml:space="preserve">
<g id="322" transform="matrix(1, 0, 0, 1, -2.8, 16.25)">
<path style="fill:#E2E2E2;fill-opacity:0.8" d="M34.45,-13.45L34.95 -13.5Q37.35 -12.9 38.2 -11.2L38.25 -11.25Q39.25 -11.9 40.4 -11.9Q43.35 -11.3 44.6 -8.6Q45.75 -6.05 44.35 -5Q46.65 -3.8 46.65 -0.6Q46.6 0.8 46 2.1Q48.6 3.35 48.75 6.3Q48.85 9.2 46.85 10.1Q48.7 11.45 48.1 14.9Q47.8 16.6 46.85 18.15Q44.05 22.5 39.85 19.9Q36.75 17.9 37.85 14.4L38.05 13.8L37.4 13.25Q36.1 11.4 33.65 11.55L25.05 11.8L25.15 11.75L25.5 11.65L17.4 13.2Q13.45 14.05 9.95 15.8Q9.75 16.5 8.4 17.15L5.2 18.6L4.45 18.5Q4.2 18.05 4.35 17.55Q4.5 17.1 4.95 16.75L5.6 16.2Q4.85 16.3 3.95 16.9L2.95 17L2.8 17.05L2.9 17L2.85 16.95Q3.6 16.3 4.5 15.9L15.2 8.35L20.3 4.3L18.7 5L27.05 -2.05Q29.5 -4.25 29.15 -7.25Q27.2 -7.15 25.05 -8.4Q22.75 -9.75 23.25 -12.35Q23.65 -14.4 25.7 -15.5Q26.5 -15.9 27.25 -16.1Q32.4 -16.85 34.05 -13.2L34.45 -13.45M26,-14.05L24.85 -12.85L24.65 -12.7L24.45 -12.8L24.35 -12.85L24.25 -12.95L24.2 -13Q23.3 -9.2 27.4 -8.45Q29.7 -8 31.65 -9.25Q35.3 -11.55 31.75 -14Q29.9 -15.25 27.5 -14.85L26 -14.05M28.2,-1.9L23.65 2.1L22.55 3.7L22.2 4.05L23.15 3.35L33.4 -3.55L37.1 -7.55Q37.85 -8.25 37.65 -9.3Q37 -12.25 34.15 -13L34.55 -11.7Q34.85 -10.35 33.8 -9.4Q31.85 -7.55 29.7 -7.3Q30.7 -4.4 28.2 -1.9M38.55,-7.9Q38.2 -6.05 36.7 -4.9L35.05 -3.85Q34.6 -3.05 33.45 -2.35Q27.15 1.45 21.25 5.85Q18.45 8 15.5 9.75L12.35 11.9L6.65 15.3L6.85 15.25Q7.25 15.7 6.85 16.1L6.15 16.95L5.7 17.35L7.65 16.3Q9.15 15.1 11.1 14.35L12.9 13.7Q17.1 10.6 22 8.5Q25.6 7 29.3 5.85L32.45 4.65Q35.05 3.8 37.65 3.4L37.65 3.3L37.8 3.35Q37.7 3.2 37.85 3L39.05 3.15L39.45 3.05L39.9 3.15L39.95 3.15Q42.95 2.85 43.9 -0.65Q44.4 -2.4 43.9 -4L43.25 -4.25L39.7 -4.55L38.45 -3.75Q36.6 -2.9 36.2 -0.85L35.4 2.3Q34.75 1.35 34.7 0.25Q32.95 2 30.25 3.25Q27.3 4.65 24.6 6.35L24.15 6.35Q26.4 4.3 29.3 2.85L34.7 -0.05L35 -1.45Q36.3 -5.1 40.15 -5.7L40.15 -5.65L40.95 -5.75L43.55 -5.35Q44.25 -6.6 43.55 -8.1Q41.9 -11.75 38.45 -10.7Q38.8 -9.5 38.55 -7.9M41,5.3L40.25 5.35L40.15 5.2L40.2 5.2L38.4 4.55L38 4.25L37.2 4.5L27.4 7.6L23.9 8.95L15.15 13Q18.35 12 21.65 11.35L28.45 10.4L29.25 10.45L29.8 10.6L34.7 10.7Q37.25 10.8 38.5 12.8Q39.95 10.1 43.1 9.2Q45 9.15 46.25 9.75Q47.2 8.45 47.55 6.8Q48 4.35 45.65 3L45.5 2.9Q43.65 5.5 41 5.3M42.55,3.7L42.65 3.55L42.3 3.75L42.55 3.7M43.25,10.3Q39.05 12 39.05 15.7Q40.85 18.6 44.4 16.7Q46 15.85 46.75 14.3L47.15 14L47.35 14.15Q47.3 12.9 46.65 11.7Q45.6 9.85 43.25 10.3" />
<path style="fill:#E2E2E2;fill-opacity:0.498039" d="M27.5,-14.85Q29.9 -15.25 31.75 -14Q35.3 -11.55 31.65 -9.25Q29.7 -8 27.4 -8.45Q23.3 -9.2 24.2 -13L24.25 -12.95L24.35 -12.85L24.45 -12.8L24.65 -12.7L24.85 -12.85L26 -14.05L27.5 -14.85M29.7,-7.3Q31.85 -7.55 33.8 -9.4Q34.85 -10.35 34.55 -11.7L34.15 -13Q37 -12.25 37.65 -9.3Q37.85 -8.25 37.1 -7.55L33.4 -3.55L23.15 3.35L22.2 4.05L22.55 3.7L23.65 2.1L28.2 -1.9Q30.7 -4.4 29.7 -7.3M38.45,-10.7Q41.9 -11.75 43.55 -8.1Q44.25 -6.6 43.55 -5.35L40.95 -5.75L40.15 -5.65L40.15 -5.7Q36.3 -5.1 35 -1.45L34.7 -0.05L29.3 2.85Q26.4 4.3 24.15 6.35L24.6 6.35Q27.3 4.65 30.25 3.25Q32.95 2 34.7 0.25Q34.75 1.35 35.4 2.3L36.2 -0.85Q36.6 -2.9 38.45 -3.75L39.7 -4.55L43.25 -4.25L43.9 -4Q44.4 -2.4 43.9 -0.65Q42.95 2.85 39.95 3.15L39.9 3.15L39.45 3.05L39.05 3.15L37.85 3Q37.7 3.2 37.8 3.35L37.65 3.3L37.65 3.4Q35.05 3.8 32.45 4.65L29.3 5.85Q25.6 7 22 8.5Q17.1 10.6 12.9 13.7L11.1 14.35Q9.15 15.1 7.65 16.3L5.7 17.35L6.15 16.95L6.85 16.1Q7.25 15.7 6.85 15.25L6.65 15.3L12.35 11.9L15.5 9.75Q18.45 8 21.25 5.85Q27.15 1.45 33.45 -2.35Q34.6 -3.05 35.05 -3.85L36.7 -4.9Q38.2 -6.05 38.55 -7.9Q38.8 -9.5 38.45 -10.7M45.5,2.9L45.65 3Q48 4.35 47.55 6.8Q47.2 8.45 46.25 9.75Q45 9.15 43.1 9.2Q39.95 10.1 38.5 12.8Q37.25 10.8 34.7 10.7L29.8 10.6L29.25 10.45L28.45 10.4L21.65 11.35Q18.35 12 15.15 13L23.9 8.95L27.4 7.6L37.2 4.5L38 4.25L38.4 4.55L40.2 5.2L40.15 5.2L40.25 5.35L41 5.3Q43.65 5.5 45.5 2.9M46.65,11.7Q47.3 12.9 47.35 14.15L47.15 14L46.75 14.3Q46 15.85 44.4 16.7Q40.85 18.6 39.05 15.7Q39.05 12 43.25 10.3Q45.6 9.85 46.65 11.7" />
</g>
</svg>
