<?xml version="1.0" encoding="utf-8"?>
<svg version="1.1" id="Layer_1"
xmlns="http://www.w3.org/2000/svg"
xmlns:xlink="http://www.w3.org/1999/xlink"
width="61px" height="9px"
xml:space="preserve">
<g id="169" transform="matrix(1, 0, 0, 1, -158.2, -26.8)">
<path style="fill:#2C3643;fill-opacity:1" d="M158.8,27.8L158.8 26.8L218.8 26.8L218.8 30.8L158.8 30.8L158.8 29.8L198.2 29.8L208.2 29.8L208.2 27.8L198.2 27.8L158.8 27.8" />
<path style="fill:#598EAD;fill-opacity:1" d="M158.2,29.8L158.2 27.8L158.8 27.8L198.2 27.8L198.2 29.8L158.8 29.8L158.2 29.8" />
<path style="fill:#663300;fill-opacity:1" d="M218.5,35.8L158.5 35.8L158.5 31.8L218.5 31.8L218.5 35.8M164.5,32.8L159.5 32.8L159.5 34.8L164.5 34.8L164.5 32.8" />
<path style="fill:#FFCC00;fill-opacity:1" d="M164.5,34.8L159.5 34.8L159.5 32.8L164.5 32.8L164.5 34.8" />
<path style="fill:#202832;fill-opacity:1" d="M198.2,27.8L208.2 27.8L208.2 29.8L198.2 29.8L198.2 27.8" />
</g>
</svg>
