<?xml version="1.0" encoding="utf-8"?>
<svg version="1.1" id="Layer_1"
xmlns="http://www.w3.org/2000/svg"
xmlns:xlink="http://www.w3.org/1999/xlink"
width="107px" height="28px"
xml:space="preserve">
<g id="473" transform="matrix(1, 0, 0, 1, 88.45, -231.3)">
<path style="fill:#3A1D0F;fill-opacity:0.85098" d="M18.55,254.55L18 255L10.4 256.35L6.4 256.65L6.15 256.6L2.4 255.7L0.6 255.55Q-1.6 256 -1.8 254.4L-1.8 253.6L-2.75 253.25Q-6.6 252.4 -9.65 253.9L-11.45 254.6L-12 254.65Q-16.45 254.1 -20.5 255.4L-21.95 255.35Q-22.9 255.1 -22.25 256.55L-22.2 256.9Q-23.15 259.55 -26.95 258.05Q-28.1 257.6 -28.9 256.5L-29.25 256.1Q-30.6 254.75 -32.35 254.55L-35.75 254.9L-38.25 255.3L-46.95 254.6Q-49.7 254.25 -52 253.25L-51.9 252.35Q-55.6 252.1 -60.1 252.4L-74.05 253.85Q-76.75 254.25 -79.15 253.25L-79.05 252.9Q-78.45 252 -77.35 251.6L-75.8 250.85L-75.1 250.5L-74.35 250.1L-73.7 249.7Q-72.35 248.85 -70.9 248.25L-70.05 247.9Q-76.45 248.8 -83.75 246.45L-84.25 245.75Q-84.85 245.2 -84.75 244.5Q-84.6 243.9 -84.9 243.3Q-86.6 242.55 -87 240.9L-87.8 238.55L-88.45 237.05Q-87.6 235.55 -85.6 236.95L-83 239.05L-82.8 239.1Q-82.7 237.85 -83 236.65L-83.4 234.05Q-83.45 232.8 -83 231.75L-82.55 231.3Q-81.1 231.4 -80.75 232.9L-79.95 235.4L-78.9 237.3Q-74.9 239.6 -70.5 241.6Q-66.05 243.65 -62.85 245.65L-63.6 246.05L-33.15 247.6Q-16 248.05 1 246.85Q9.5 246.25 16.15 250.5Q18.45 252 18.55 254.55" />
</g>
</svg>
