<?xml version="1.0" encoding="utf-8"?>
<svg version="1.1" id="Layer_1"
xmlns="http://www.w3.org/2000/svg"
xmlns:xlink="http://www.w3.org/1999/xlink"
width="29px" height="15px"
xml:space="preserve">
<g id="965" transform="matrix(1, 0, 0, 1, 7, 6)">
<path style="fill:#000000;fill-opacity:0.85098" d="M9,-5.2L8.8 -5.05L8.3 -4.85Q7.35 -4.5 6.7 -5.05L6.65 -5.1L6.65 -5.15L6.65 -5.25L6.65 -5.45L6.7 -5.55L6.85 -5.65L7.05 -5.75L7.25 -5.8L7.5 -5.95L7.65 -6L8.05 -5.95L8.5 -5.85L8.85 -5.7L9 -5.25L9 -5.2M10,-0.25Q10.4 -0.15 10.7 0.15L11.15 0.85L11.2 1.45Q10.85 2.1 10.1 2.35L7.95 2.7L4.9 2.15Q4.55 2 4.3 1.7L4.3 1.55L4.3 1.45L4.3 1.25L4.35 1.2L4.4 1.1L4.45 1L4.45 0.95L4.55 0.85L4.65 0.7L4.8 0.55L4.9 0.5L6.05 0.25L7.4 0.4L7.7 0.65L7.75 0.7L7.95 0.7L8.05 0.65L8.2 0.5L8.4 0.25L8.65 -0.05L9 -0.25L9.2 -0.35L10 -0.25M13.95,-4.45L14.05 -4.45L15.5 -4.3L16.6 -3.35Q16.95 -2.65 16.55 -2L15.85 -1.25L14.2 -1.45L13.1 -2.35Q12.65 -3.15 13.15 -3.85L13.95 -4.45M18.95,-3.35L18.95 -3.5L18.95 -3.6L19 -3.65L19.05 -3.7L19.15 -3.75L19.25 -3.8L19.35 -3.85L19.45 -3.85L19.45 -3.9L19.9 -3.85L20.25 -3.8L20.6 -3.65L20.95 -3.35L21.1 -3.25L21.15 -3.2L21.15 -3.05L21.2 -2.95L21.2 -2.9L21.2 -2.75L21.2 -2.65L21.2 -2.55L21.2 -2.4L21 -2.25L20.15 -2.1Q19.8 -2.2 19.55 -2.4L18.95 -2.9L18.95 -2.95L18.95 -3.1L18.95 -3.2L18.95 -3.25L18.95 -3.35M10.75,5.7L10.85 5.65L11.05 5.5L11.15 5.45L11.15 5.4L11.25 5.45L11.35 5.55Q12.25 5.3 12.85 5.9Q13.45 6.6 12.7 7.15L11.45 8.2L10.3 8.3L10.25 7.95L10.25 7.9L10.25 7.55L10.15 7.1L10.3 6.55L10.45 6.25L10.45 6.2L10.4 6.15L10.4 6.1L10.4 6L10.65 5.85L10.7 5.75L10.75 5.7M0.15,1.95L0.1 2.05L0.05 2.1L0 2.2L-0.05 2.25L-0.45 2.4Q-1.1 2.65 -1.75 2.4L-2.25 2.1L-2.2 1.8L-2.2 1.65L-2.1 1.5L-1.95 1.25Q-1.8 1.05 -1.55 1L-1.4 0.95L-0.95 1.05L-0.5 1.15L-0.1 1.45L0.2 1.8L0.2 1.9L0.15 1.95M1.95,5.25L2.4 4.7Q2.7 4.4 3.05 4.2L3.05 4.15Q3.25 4.2 3.25 4.4L3.15 4.6L2.95 4.85L2.85 5.15Q2.85 5.4 3.2 5.25L3.6 5.3L3.8 5.55L3.8 5.65L3.9 5.65L4 5.7L4.1 5.8L4.15 5.95L3.5 6.5L2.7 6.7Q2.4 6.8 2.15 6.95L1.6 7.15L1.45 7.05L1.3 6.9L1.25 6.7L1.15 6.5L1.1 6.45L1.5 5.8L1.95 5.25M-5.8,1.5L-5.55 1.55L-5.4 1.6L-5.35 1.65L-5.4 1.85L-5.8 2.4L-6.25 2.6Q-6.7 2.7 -6.95 2.4L-7 2.35L-7 2.2L-7 2.1L-7 2L-6.95 1.8L-6.9 1.75L-6.8 1.7L-6.75 1.65L-6.6 1.65L-6.5 1.6L-6.15 1.5L-6.05 1.45L-5.9 1.45L-5.8 1.5" />
</g>
</svg>
