<?xml version="1.0" encoding="utf-8"?>
<svg version="1.1" id="Layer_1"
xmlns="http://www.w3.org/2000/svg"
xmlns:xlink="http://www.w3.org/1999/xlink"
width="46px" height="28px"
xml:space="preserve">
<g id="946" transform="matrix(1, 0, 0, 1, 28.65, 14.75)">
<path style="fill:#BD8051;fill-opacity:1" d="M2.6,-11.25L5.4 -9.7L6.3 -10.65L11.15 -9.6L13 -9.35L12.85 -8.9L12.55 -8.75L6.6 -9.95L5.9 -9.35L5.35 -7.55L4.5 -7.75L5 -9.25Q0.5 -12.2 -3.4 -13.3L-4.2 -13.95L-3.7 -14.75L-1.95 -14.5L-1.8 -13.8L-1.7 -13.7L2 -11.8L4.5 -12.6L5.1 -12.4L2.6 -11.25M8.2,-12.85L8.5 -12.6L8.45 -12.1L8.15 -11.8L7.65 -11.9L7.4 -12.25L7.45 -12.65L7.85 -12.95L8.2 -12.85M9.8,-12.2L10.1 -11.8L10 -11.5Q9.9 -11.3 9.65 -11.25L9.25 -11.3L9 -11.5L9.05 -12L9.45 -12.25L9.8 -12.2M2.65,-1.15L2.05 -1.4L2.1 -1.55L2.75 -1.3L2.65 -1.15M11.6,-1.4L12.95 -1.4L13 2.2L12.15 2.3L12.2 1.4L11.5 0.95L11.6 -1.4M11.45,2.85Q12.15 3.4 12.55 4.2L12.95 5.3Q13.45 7.2 12.4 8.85Q11.35 10.6 9.45 11Q7.55 11.45 5.95 10.4Q4.75 9.65 4.25 8.55L3.8 7.45Q3.4 5.6 4.4 3.95Q5.4 2.25 7.3 1.85Q9.2 1.45 10.9 2.4L11.45 2.85M12.05,5.25L11.35 4.05L10.2 5.5L12.05 5.25M10.6,2.95Q9.1 2 7.45 2.4L7 2.55L6.85 2.55Q5.65 3.05 4.9 4.25Q4.45 5 4.3 6.3L8.25 5.9L11.2 3.25L10.6 2.95M12.6,6.05L8.5 6.45L5.9 9.55L6.2 9.9Q7.75 10.85 9.4 10.45Q11.05 10.05 11.9 8.6Q12.65 7.4 12.6 6.05M6.8,3.75L6.8 3.55L8.35 3.2L8.35 3.8L6.8 3.75M6.85,7.05L4.7 7L5.65 8.6L6.85 7.05M-8.35,-3.75L-10.05 -1.85L-9.8 -2.5L-8.15 -4.95L-6.7 -3.3L-6.9 -3.1L-8.35 -3.75M-26.2,8.55L-26.05 8L-25.95 7.95L-21.25 5.85L-22.05 3.85L-21 3.65L-20.2 5.45L-19 5L-18.7 4.95L-18.7 4.9L-19.3 3.05L-18.25 2.95L-17.65 4.5L-17.7 4.55L-17.35 5.85L-18.35 6.3L-18.65 4.95L-20.05 5.55L-19.8 6.3L-20.9 6.9L-21.25 6.15L-25.5 8.25L-25.65 9.7L-25.9 9.15L-26.2 8.55M-26.4,6.25L-26.65 6.45Q-27.35 7.2 -27.35 8.1Q-27.4 9.15 -26.7 9.85L-25.7 10.4L-25.55 9.65L-25.1 9.85L-25.2 10.3L-24.25 10.05L-24.55 9.75L-24 9.6L-23.65 10.05L-23.45 9.95L-22.8 9.1L-22.5 8.95L-23.3 10.15Q-24 10.8 -25.15 10.9Q-26.25 10.8 -26.95 10.05Q-27.75 9.25 -27.65 8.15Q-27.6 7 -26.85 6.3Q-26.1 5.55 -25 5.55Q-23.9 5.65 -23.2 6.25L-23.5 6.4Q-24 6 -24.6 5.85L-24.8 7L-25.75 7.4L-26.4 6.25M-25.3,7.05L-25.1 6L-25.9 6.25L-25.3 7.05" />
<path style="fill:#0B0B0B;fill-opacity:1" d="M4.5,-12.6L2 -11.8L-1.7 -13.7L4.5 -12.6M-1,-8.9L-1.35 -10.3L-3.9 -10.95L-3.75 -11.7L-5.65 -12.1L-5.35 -13.85L-3.4 -13.3Q0.5 -12.2 5 -9.25L4.5 -7.75L-1 -8.9M8.5,-6.95L5.35 -7.55L5.9 -9.35L6.6 -9.95L12.55 -8.75L8.5 -6.95M11.15,-9.6L6.3 -10.65L5.4 -9.7L2.6 -11.25L5.1 -12.4L5.7 -12.25Q11.4 -15.1 11.15 -9.6M7.85,-12.95L7.45 -12.65L7.4 -12.25L7.65 -11.9L8.15 -11.8L8.45 -12.1L8.5 -12.6L8.2 -12.85L7.85 -12.95M9.45,-12.25L9.05 -12L9 -11.5L9.25 -11.3L9.65 -11.25Q9.9 -11.3 10 -11.5L10.1 -11.8L9.8 -12.2L9.45 -12.25M2.75,-1.3L2.75 -1.4L5.85 -0.6L10 -2.2L10.15 -2.15L10.05 -1.3L11.6 -1.4L11.5 0.95L12.2 1.4L12.15 2.3L13 2.2L12.95 -1.4L16.9 -4.65L15.8 -2.55L16.55 -1.2L15.25 -0.15L15.25 3.35L14.2 4.1L14.3 4.15L14.6 5.65L14 6.2L14.75 6.7L14.5 8.3L13.75 8.5L13.95 8.9L13.1 10.15L12.4 10.1L12.55 11.05L11.25 11.85L10.9 11.7L10.75 12.25L9.15 12.7L8.85 12.2L8.25 12.9L6.8 12.65L6.55 11.6L5.55 12.2L4.25 11.35L4.35 10.7L3.55 10.75L2.65 9.5L3.1 8.75L2.45 8.95L2.4 9.95L-1.85 10.9L-5.8 11.75L-6.4 8.1L-5.85 7.85L-6.4 7.85L-7 4.5L-2.2 1.9L-2.35 -0.15L-7.25 3.3L-7.55 1.4L-2.05 -2.35L2.65 -1.15L2.75 -1.3M10.9,2.4Q9.2 1.45 7.3 1.85Q5.4 2.25 4.4 3.95Q3.4 5.6 3.8 7.45L4.25 8.55Q4.75 9.65 5.95 10.4Q7.55 11.45 9.45 11Q11.35 10.6 12.4 8.85Q13.45 7.2 12.95 5.3L12.55 4.2Q12.15 3.4 11.45 2.85L10.9 2.4M10.2,5.5L11.35 4.05L12.05 5.25L10.2 5.5M11.2,3.25L8.25 5.9L4.3 6.3Q4.45 5 4.9 4.25Q5.65 3.05 6.85 2.55L7 2.55L7.45 2.4Q9.1 2 10.6 2.95L11.2 3.25M11.9,8.6Q11.05 10.05 9.4 10.45Q7.75 10.85 6.2 9.9L5.9 9.55L8.5 6.45L12.6 6.05Q12.65 7.4 11.9 8.6M6.75,3.8L6.7 4.85L7.8 5.1L7.9 5.1L9.3 3.95L8.35 3.8L8.35 3.2L6.8 3.55L6.8 3.75L6.75 3.8M1.9,0.6L-0.4 -0.3L-0.7 1.65L1.1 2.3L1.9 0.6M9.35,7.45L8.7 7.55L7.15 9.45Q10.4 10.1 11.7 7.05L9.4 7.25L9.35 7.45M5.65,8.6L4.7 7L6.85 7.05L5.65 8.6M-8.15,-4.95L-9.8 -2.5L-7.3 -9.6L-2.65 -8.35L-3.85 -6.85L-5.4 -7.3L-5.45 -6.35L-4.55 -5.95L-6.7 -3.3L-8.15 -4.95M-6.9,-3.1L-9.25 -0.15L-10.3 -1L-10.05 -1.85L-8.35 -3.75L-6.9 -3.1M-3.7,4.8L-6.25 6.2L-4.55 6.15L-3.7 4.8M-1.9,7.65L0.05 6.7L-2.8 6.9L-1.85 10.9L-1.9 7.65M-12.15,0.35L-10.25 7.75L-10.2 9.2L-11.55 9.1L-12.3 10L-14.2 9.8L-14.35 8.25L-16.6 7.85L-16.55 6.4L-21.55 8.45L-21.6 8.6L-21.85 8.75L-21.55 9.3L-21.9 10L-22.55 10.05L-22.35 10.5L-23 11.2L-23.35 11L-23.35 11.35L-24.2 11.65L-24.55 11.25L-24.8 11.7L-25.6 11.7L-25.75 11.3L-26.15 11.6L-26.85 11.2L-26.9 10.85L-27.5 11.1L-28.15 10.4L-27.9 9.95L-28.4 9.9L-28.65 9.1L-28.2 8.7L-28.65 8.45L-28.6 7.5L-28.1 7.35L-28.4 7.05L-28.05 6.25L-27.75 6.25L-27.9 6L-27.2 5.35L-26.75 5.5L-26.65 5.1L-25.9 4.75L-25.65 5.05L-25.45 4.65L-24.55 4.65L-24.65 3.05L-18.35 0.45L-13.8 0.95L-12.15 0.35M-26.55,6.85Q-27.45 8.7 -26 9.9L-25.9 9.15L-25.65 9.7L-25.5 8.25L-21.25 6.15L-20.9 6.9L-19.8 6.3L-20.05 5.55L-18.65 4.95L-18.35 6.3L-17.35 5.85L-17.7 4.55L-17.65 4.5L-18.25 2.95L-19.3 3.05L-18.7 4.9L-18.7 4.95L-19 5L-20.2 5.45L-21 3.65L-22.05 3.85L-21.25 5.85L-25.95 7.95L-26.55 6.85M-21.8,5.6L-22.7 5.8L-22.55 5.95L-21.8 5.6M-25.75,7.4L-24.8 7L-24.6 5.85Q-24 6 -23.5 6.4L-23.2 6.25Q-23.9 5.65 -25 5.55Q-26.1 5.55 -26.85 6.3Q-27.6 7 -27.65 8.15Q-27.75 9.25 -26.95 10.05Q-26.25 10.8 -25.15 10.9Q-24 10.8 -23.3 10.15L-22.5 8.95L-22.8 9.1L-23.45 9.95L-23.65 10.05L-24 9.6L-24.55 9.75L-24.25 10.05L-25.2 10.3L-25.1 9.85L-25.55 9.65L-25.7 10.4L-26.7 9.85Q-27.4 9.15 -27.35 8.1Q-27.35 7.2 -26.65 6.45L-26.4 6.25L-25.75 7.4M-24.2,6.7L-23.95 6.65L-24.2 6.4L-24.2 6.7M-25.9,6.25L-25.1 6L-25.3 7.05L-25.9 6.25" />
</g>
</svg>
