<?xml version="1.0" encoding="utf-8"?>
<svg version="1.1" id="Layer_1"
xmlns="http://www.w3.org/2000/svg"
xmlns:xlink="http://www.w3.org/1999/xlink"
width="22px" height="26px"
xml:space="preserve">
<g id="624" transform="matrix(1, 0, 0, 1, 11.7, 0.75)">
<path style="fill:#000000;fill-opacity:0.498039" d="M3.75,25.2L-0.55 24.7Q-2.3 24.2 -2.3 23.5Q-2.3 23.1 -1.7 22.8Q-1.3 22.5 -0.55 22.3L1.35 21.95L3.75 21.8L7.15 22.1L8 22.3Q9.8 22.8 9.8 23.5Q9.8 24.2 8 24.7L3.75 25.2" />
<path style="fill:#000000;fill-opacity:1" d="M2.6,1.3L1.45 2.75L1.15 3.05L0.85 3.35Q1 4.15 0.65 4.95L0.9 5.15L1.65 5L2.45 4.95L2.75 4.95L3 5.15L3 5.25Q2.4 5.7 1.45 5.8L2.4 7.15L3.3 5.2Q3.4 4.9 3.65 4.85L4.05 4.9L4.25 5L3.7 6.95L3 8.3Q3.55 9.55 3.75 11L4.25 12.55Q4.9 14.1 3.55 14.85L4.05 18.35Q4.05 18.85 4.65 18.95Q8.35 19.55 7.2 22.95L6.9 23.55Q4.9 24.05 4.6 22.45L4.5 21.95Q3.85 21.35 2.95 21.15L2.2 20.95L1.55 19L1.5 18.35L0.9 19.15L0.8 19.3Q2.3 21.45 2.6 23.65L2.3 24.15Q1.5 24.75 0.7 24.85L-1.6 25L-1.65 24Q-1.9 23.5 -1.3 22.9L-1 22.6L-1.75 19.85L-3.25 19.45L-3.25 19.4Q-3.1 18.85 -2.5 18.7L-1.95 18.45L-1.8 17.85L-1.7 17.7L-1.05 16.1L-0.7 15.5L-1.45 15.5L-1.8 14.95L-2.4 14.15Q-2.7 12.95 -1.5 12.45L-2.45 10.35L-2.55 10.1L-6.4 11.75L-6.65 11.65Q-8.9 10.1 -6.15 8.75L-6 8.7L-10 8.6L-10.5 8.5Q-11.4 8.45 -11.65 7.25Q-11.85 6.05 -10.8 5.55L-10.4 5.55L-10.2 5.7L-3.55 5.7L-4.3 4.8L-4.85 3.75L-5.3 3.8L-5.65 3.2Q-5.6 1.55 -4.5 0.45L-2.75 -0.75Q-1.6 -0.35 -0.7 0.5Q0.25 1.35 0.45 2.5L0.5 2.65L0.9 2.3L0.95 2.15L2.1 1.1L2.2 1.1L2.4 1.1L2.6 1.2L2.6 1.3M-1.3,19.9L-1.3 19.95L-1.2 19.9L-1.3 19.9" />
</g>
</svg>
