<?xml version="1.0" encoding="utf-8"?>
<svg version="1.1" id="Layer_1"
xmlns="http://www.w3.org/2000/svg"
xmlns:xlink="http://www.w3.org/1999/xlink"
width="40px" height="44px"
xml:space="preserve">
<g id="1578" transform="matrix(1, 0, 0, 1, -4.7, -0.5)">
<path style="fill:#FF0100;fill-opacity:1" d="M43.15,20.1L42.95 20.2Q43.6 21.25 42.9 22.5L42.5 23.05Q40.3 22.1 38.25 23.05Q40.3 21.7 42.35 22.9Q43.2 21.85 42.85 20.7L42.6 20.15Q43.1 19.8 43.95 19.6L43.15 20.1M32.5,8.15L32.8 8.8L32.7 8.75Q32.4 8.55 32.5 8.15M36.15,12L35.9 11.6L36.2 11.75Q36.7 12 36 12.35Q34.85 12.85 34.05 11.7Q35.05 12.5 36.15 12M21.1,0.5L20.45 1.3L20.4 1.4Q22.8 1.6 23.6 3.4L23.55 3.45Q23.15 3.9 22.5 3.95L23.4 3.15Q22.2 1.85 20.2 1.6Q20.2 0.85 21 0.55L21.1 0.5M29.6,17.35L29.95 18.95L30 19.05L31.65 19Q31.25 19 30.75 19.35L30.05 19.4Q29.4 18.45 29.55 17.35L29.6 17.35M23.1,21.1Q21.35 21.5 20 22.8Q19.25 23.45 18.25 23.35L17.6 23.3Q19.55 22.75 20.9 21.4L22 20.75L23.1 21.1M25.65,21.75Q24.3 22.6 23.65 21.25L25.65 21.7L25.65 21.75M32.65,23.85Q33.25 21.35 32.45 19.55L31.9 19Q34.45 19.35 33.2 22.45L32.65 23.85M14.9,9.35Q14.2 10.75 14.6 12.2Q13.6 10.95 14.9 9.35M10.7,3.85Q10.6 7.2 7.95 7.65L7.4 7.55Q10.35 7.3 10.55 3.95L10.15 3.75Q9.85 3.7 10.05 3.6L10.65 3.8L10.7 3.85M5.85,16.05Q7.4 17.4 7.2 20.05L7.2 20.15Q6.3 20.6 5.5 21.2L5.45 21.3L5.5 21.55L5.7 22.2Q4.55 20.7 6.95 20.05Q7 17.95 5.95 16.2L5.85 16.05M4.95,15.4L5.3 15.6Q4.3 15.75 4.95 15.4M15.1,13.55L15.4 14.05Q15.55 14.35 14.95 14.45Q13.5 14.8 12.55 15.65Q13.65 14.55 15.1 13.55M12.2,17.7Q11.7 17.35 12.05 16.6L12.6 16.2Q12.05 16.95 12.2 17.7M14.2,20Q14.55 20.35 14.35 21L13.9 21.55Q14.25 20.7 14.2 20M15.6,34.85L14.5 34.9Q14.75 34.15 15.65 34.45Q19.1 35.6 18.6 32.8Q19.35 35.8 15.6 34.85M11.75,38.55L10.55 38.5Q12.65 38.1 13.7 36.75Q13.55 38.1 11.75 38.55M37.5,30.7Q37.9 31.1 38.1 31.65Q37 32.75 35.4 31.95Q36.5 32.15 37.75 31.6Q35.4 29 38.65 26.8L37.25 30.1Q37.15 30.35 37.5 30.7M38.8,26.25L38.7 26.55Q38.5 26.05 38 26L38.75 26.15L38.8 26.25M27.35,40.35L24.35 43.3Q22.8 44.25 21.9 43.3L24.15 43.15L27.95 39.6L27.35 40.35M27.25,37.45Q28.2 38.35 28.05 39.25Q27.3 38.45 27.25 37.5L27.25 37.45" />
</g>
</svg>
