<?xml version="1.0" encoding="utf-8"?>
<svg version="1.1" id="Layer_1"
xmlns="http://www.w3.org/2000/svg"
xmlns:xlink="http://www.w3.org/1999/xlink"
width="79px" height="8px"
xml:space="preserve">
<g id="778" transform="matrix(1, 0, 0, 1, 6.15, -30.35)">
<path style="fill:#3A1D0F;fill-opacity:0.85098" d="M58.85,35.1L59.8 37.15L60.45 38Q57.75 38.55 55.5 38L58.35 35.5L58.85 35.1M64.7,36.05L65.45 35.75Q67.35 36.75 69.65 36.8L72 37.1Q66.55 39.25 61.1 37.2L63.35 36.5L64.7 36.05M65.55,34.5L65.95 34.3Q66.5 33.85 67.15 33.7L69.8 34.4Q70.5 34.5 70.75 35.2Q68.95 37.15 66.2 35.65L64.6 35Q64.95 34.65 65.55 34.5M16.2,36.15L18.6 36.55L18.75 36.7Q15.45 38.1 11.8 37.25L9.65 37.1L9.25 37.1L9.2 37.1Q1.35 38.05 -6.15 37.3Q-4.25 35.85 -1.65 35.6Q2.45 33.8 5.85 30.7Q6.15 30.45 6.5 30.35Q7.55 31.8 7.9 33.5L8.1 34.15Q8.35 35.05 9 35.75Q9.15 35.6 9.35 35.5L10.6 35.3L16.2 36.15" />
</g>
</svg>
