<?xml version="1.0" encoding="utf-8"?>
<svg version="1.1" id="Layer_1"
xmlns="http://www.w3.org/2000/svg"
xmlns:xlink="http://www.w3.org/1999/xlink"
width="14px" height="10px"
xml:space="preserve">
<g id="958" transform="matrix(1, 0, 0, 1, 1.1, 1.8)">
<path style="fill:#000000;fill-opacity:0.85098" d="M3.8,-1.7Q5.15 -2.05 5.8 -1Q6.25 -0.25 5.6 0.4Q4.85 1.2 3.9 1.8L2.55 1.85L1.9 1.35L1.9 1.3L1.95 0.65L2.3 -0.35L2.9 -1.1L3.6 -1.6L3.8 -1.7M9.2,-0.45Q11.5 -0.9 11.9 1.1Q12.1 2.1 11.35 2.85Q9.75 4.3 7.4 4.6L6.25 4.75Q4.85 5 4.8 3.55Q4.7 0.6 7.8 -0.05L9.2 -0.45M0.3,3.8L0.5 3.95L0.9 4.45L1.15 4.95L1.4 5.55L1.45 5.85Q3.95 4.95 5.8 6.3L5.85 6.55Q5.5 7.4 4.45 7.55Q2.6 7.8 1.35 6.65L0.6 6.5L-0.15 6.05L-0.75 5.35L-1.05 4.95L-1.1 4.9L-1.1 4.6L-1.05 4.3L-0.7 3.95L-0.25 3.75L0.2 3.75L0.3 3.8" />
</g>
</svg>
