<?xml version="1.0" encoding="utf-8"?>
<svg version="1.1" id="Layer_1"
xmlns="http://www.w3.org/2000/svg"
xmlns:xlink="http://www.w3.org/1999/xlink"
width="63px" height="26px"
xml:space="preserve">
<g id="385" transform="matrix(1, 0, 0, 1, -65.8, 10.15)">
<path style="fill:#0B0B0B;fill-opacity:0.8" d="M104.1,6.7Q102.95 7.4 102.35 7.4Q100.9 7.4 99.25 6.45L97.15 4.95Q98.05 3.65 100.35 3.85L104.25 4.3Q105.4 4.3 105.4 5.3Q105.4 5.95 104.1 6.7M107.2,13.25L105.3 13.7L102.2 13.25L99.95 12.85Q99.8 13 99.8 12.5Q99.8 11.5 104.25 10.95Q108.7 10.4 108.7 12.35Q108.7 12.75 107.2 13.25M93.4,9.9L92 11.15L90.45 12.2L91.15 13.15Q91.15 15.15 87.3 15.15Q85.9 15.15 85.2 14.75L84.4 14.3L80.95 15.1L77.5 12.6Q77.5 12.4 78.25 11.35Q79 10.25 79.3 10.15Q82.35 10.5 83.95 9.55Q85.6 8.55 87.35 8.65L87.45 9.1Q87.45 9.65 86.65 10.4L86.65 10.45L87.5 10.45L88.85 9.7Q89.9 9.1 91.95 9.1Q93.1 9.1 93.4 9.9M85.75,5.5Q85.75 6.7 83.35 7.5L79.3 8.2Q78.6 8.2 77.65 8.8L76.1 9.35Q74.95 9.35 73 7.95Q71.2 6.65 71.2 6.2Q71.2 5.75 72.1 4.9Q71.7 4.8 71.7 4.35L72.1 3.65Q72.5 3.1 72.75 3.1Q73.15 3.1 73.15 3.55L75.9 0.75Q77.8 -0.85 79.45 1.1Q80.4 2.7 83.25 4Q85.75 5.15 85.75 5.5M73.15,12.15L70.6 13.5L71.95 14.4Q71.4 15.25 70.1 15.2L68.4 15.1L67 15.1Q66.6 14.85 66.2 13.35L65.8 11.65Q65.8 11.1 66.75 9.6Q67.85 7.9 68.85 7.85L68.75 9.05Q68.75 10.7 70.2 11.3L73 11.8L73.15 12.15" />
<path style="fill:#0B0B0B;fill-opacity:0.6" d="M88.85,-9.65L90.3 -8.55L92.2 -9.25L94.85 -9.95Q96.3 -9.95 99.95 -7Q99.95 -6.05 98.55 -5.65L95.3 -4.6Q92.85 -2.75 92.1 -2.75Q89.4 -4.3 87.3 -4.6Q86.8 -4.65 85.7 -5.35Q84.45 -6.15 84.45 -6.7Q84.45 -7.6 86.35 -9.65Q87.2 -10.6 88.85 -9.65M118.1,-2.2Q118.1 -1.65 117.6 -1.25Q117.05 -0.8 116.2 -0.8Q111.4 -1.65 109.2 -2.5Q110.1 -4.15 114.1 -4.15Q118.1 -4.15 118.1 -2.2M124.65,5.5L121.5 5.45Q121 5.15 121 4.55Q121 2.6 124.55 3Q128.05 3.4 128.05 4.5Q128.05 5.5 124.65 5.5" />
</g>
</svg>
