<?xml version="1.0" encoding="utf-8"?>
<svg version="1.1" id="Layer_1"
xmlns="http://www.w3.org/2000/svg"
xmlns:xlink="http://www.w3.org/1999/xlink"
width="86px" height="43px"
xml:space="preserve">
<g id="362" transform="matrix(1, 0, 0, 1, 10.4, 3.2)">
<path style="fill:#3A1D0F;fill-opacity:0.85098" d="M11,-2.7Q11 -3.2 11.25 -3.2L11.45 -3.15L17 1.8L22.8 7.1Q22.65 8 20.7 8.75Q22.15 11.55 22.15 14.4Q22.15 16.3 20.15 18.3Q17.4 21.15 16.85 22.05L16.35 22.15Q15.2 21.6 15.2 19.05Q15.2 16.65 16.55 14.1Q14.7 13.15 14.4 12.75Q14.15 12.5 14.15 11.55Q14.15 11.2 15 9.75L15.8 8.3Q15.8 7.25 14.5 5.55Q13.2 3.9 13.2 1.75L12.1 -0.3Q11 -2.25 11 -2.7M56.3,5.2Q62.5 4.85 62.5 7.05Q62.5 7.65 59.6 8.9Q56.3 10.35 53.25 10.35Q52.1 10.35 51 9.15Q50.05 8.15 50.05 7.65Q50.05 5.6 56.3 5.2M45.15,21.7Q41.75 23.8 36.5 24.85Q30.25 26.15 28.7 26.8Q27.9 27 28.2 26.55L28.7 26L28 26.25L27.45 26Q27.8 24.6 31.7 23.1L39.1 20.7Q39.1 19.45 41.45 19.65Q43.95 19.8 45.15 21.7M40.8,36.85L39.1 37.15L28.7 37.15L23.6 37.7L17.5 38.2Q17.35 37.7 13.05 37.7L7.05 37.5L2.2 37.15Q-0.35 37.15 -4.5 38L-8.4 38.85Q-10.15 38.85 -10.4 38.5Q-10.25 38.2 -9.1 38L-9.85 37.6Q-2.7 35.6 0.5 34.45Q5.2 32.8 7.05 31.15L7.4 31.15Q4.75 30.7 4.2 30.25Q4 30.05 4 29.15L4.1 28.4L4.65 28L7.35 27.9Q8.1 27.45 11.3 25.95Q15 24.25 15.65 24.25L20.2 27.3Q20.2 27.9 19.6 28.4Q18.95 28.9 18.95 29.4L18.1 31.35L16.8 33.1Q17.65 33.95 20.65 34.8L24.15 34.8Q26.1 34 27 32.65Q28.6 31.5 35.2 30.8L36.05 30.1Q36.6 29.65 37.45 29.65Q41.6 29.65 55.4 36.9L55.2 37.65L54.65 37.85L49.25 37.85L42.75 36.65L40.8 36.85M71.05,29.65L67.45 28.35Q63.6 26.95 60.8 26.7L59.55 25.55Q59.55 23.85 67.1 24.5Q74.65 25.15 74.65 26.95L73.15 28.45Q71.6 29.65 71.05 29.65M29.9,16.5Q29.9 17.2 27.8 19.8Q25.6 22.55 24.45 22.55Q22.9 22.55 22.55 21.75L22.5 20.9Q22.5 19.45 25.25 17.45Q28.05 15.35 29.75 15.75L29.85 15.9L29.9 16.5" />
</g>
</svg>
