<?xml version="1.0" encoding="utf-8"?>
<svg version="1.1" id="Layer_1"
xmlns="http://www.w3.org/2000/svg"
xmlns:xlink="http://www.w3.org/1999/xlink"
width="25px" height="22px"
xml:space="preserve">
<g id="627" transform="matrix(1, 0, 0, 1, 39.7, -4.3)">
<path style="fill:#000000;fill-opacity:0.498039" d="M-15.55,23.95Q-15.55 24.65 -18.5 25.15L-25.35 25.65L-32.3 25.15Q-35.1 24.65 -35.1 23.95Q-35.1 23.55 -34.2 23.25L-32.3 22.75L-29.25 22.4Q-27.45 22.25 -24 22.4L-19.8 22.6L-17.3 22.95Q-15.55 23.25 -15.55 23.95" />
<path style="fill:#000000;fill-opacity:1" d="M-15.15,11.2L-15.15 11.65L-15.2 12.2L-15.55 12.75L-15.7 12.8L-17.4 12.7L-18.95 14.4Q-18.65 14.65 -18.95 15.2L-19.4 16.15L-19.45 16.25Q-19.95 16.2 -20.25 15.75L-20.45 15.4L-21.3 15.5L-25.85 15.2L-25.95 15.35L-26 15.45Q-28.45 14.75 -30.2 15.75L-30.9 16.2L-31.65 16.3Q-32.05 16.2 -32.55 18.05L-33.45 21.9Q-33.8 23.9 -34.45 23.9L-36.2 23.65Q-36.25 22.1 -35.85 20.5Q-38.35 20.75 -39.15 19.3Q-39.9 18.5 -39.65 16.9Q-39.45 15.7 -38.4 15.25L-38.55 14.8Q-38.75 14.25 -39.1 13.85L-39.15 13.75L-39.05 13.55L-38.65 13.35L-38.5 13.3L-38.3 13.3L-38.1 13.35L-38 13.4L-37.5 14.9L-37.45 14.95L-37.05 14.8L-35.9 14.9L-35.4 14.4L-35.7 13.9Q-36.1 13.2 -35.85 12.55L-35.75 12.5Q-35.3 12.85 -34.95 13.55L-34.75 14L-32.8 12.5L-36.4 12.1L-36.4 12.05L-36.4 11.95L-36.4 11.9L-36.2 11.6L-36.05 11.45L-33.85 11.45L-31.9 11.6L-31.7 11.45L-30.85 10.05Q-30.3 9.5 -29.55 9.45Q-28.05 9.2 -27.3 10.5L-26.95 11.1L-26.3 10.6L-24.35 9.2Q-25.5 7.85 -25.7 6.5L-25.5 6.15L-23 4.3Q-22.2 4.55 -21.7 5.25Q-21.25 6 -21.8 6.7L-21.9 6.85Q-20.8 8.55 -21.1 10.3Q-21.2 10.8 -21.6 11.25L-22.2 11.9L-21.1 11.75L-21.05 11.7L-20.85 11.25L-20.15 10.25L-19.15 9.25Q-18.05 9.2 -17.1 9.75L-15.4 10.9L-15.2 11.05L-15.15 11.2" />
</g>
</svg>
