<?xml version="1.0" encoding="utf-8"?>
<svg version="1.1" id="Layer_1"
xmlns="http://www.w3.org/2000/svg"
xmlns:xlink="http://www.w3.org/1999/xlink"
width="18px" height="16px"
xml:space="preserve">
<g id="968" transform="matrix(1, 0, 0, 1, -0.1, 6.45)">
<path style="fill:#000000;fill-opacity:0.85098" d="M7.55,-0.15Q8.35 -0.2 8.85 0.45Q9.45 1.15 8.8 1.75Q8.15 2.3 7.35 2L6.25 1.35L6.25 1.15L6.35 0.75L6.6 0.35Q6.9 -0.05 7.4 -0.1L7.55 -0.15M15.55,-6.45L16.3 -6.35L16.95 -6.1L17.55 -5.75L18 -5.15L18 -5.1Q17.65 -4.55 16.8 -4.65L15.1 -4.95Q14.6 -5 14.4 -5.45L14.4 -5.5L14.45 -5.65L14.55 -5.8L14.65 -6L14.9 -6.2L15.25 -6.35L15.55 -6.45M11.65,-0.9Q12.45 -0.85 12.95 -0.3Q13.45 0.25 13.55 1Q13.6 1.65 12.8 1.7L11.6 1.7L10.8 1.15Q10.45 0.95 10.55 0.55L10.95 -0.3L11.65 -0.9M13.85,6.15L13.25 7.15Q12.85 7.65 12.7 8.25L12.55 9.1L12.5 9.15L12.4 9.15L12.2 9.15L11.9 9.05Q11.7 8.6 11.75 8L12.15 6.95L12.75 5.8Q13.05 5.25 13.65 5.1Q14.25 5.4 13.85 6.15M0.3,4.95L0.8 4.95L1.25 5.15L1.55 5.45L1.55 5.85L1.4 6L0.8 6.15Q0.35 6.25 0.2 5.8L0.1 5.3Q0.05 5 0.3 4.95M4.05,4.45L4.55 4.7L4.95 5.15L5 5.65L3.9 5.55L3.5 5.1L3.35 4.5L3.5 4.3L4.05 4.45" />
</g>
</svg>
