<?xml version="1.0" encoding="utf-8"?>
<svg version="1.1" id="Layer_1"
xmlns="http://www.w3.org/2000/svg"
xmlns:xlink="http://www.w3.org/1999/xlink"
width="19px" height="8px"
xml:space="preserve">
<g id="1193" transform="matrix(1, 0, 0, 1, 25.25, -10.25)">
<path style="fill:#A6A6A6;fill-opacity:0.694118" d="M-7.05,10.5L-7.05 10.8L-10.2 10.8L-8.45 11.4Q-8.05 11.5 -8.65 11.75L-9.45 12L-9.35 12.2L-9.45 12.35Q-8.85 12.5 -8.85 13.05Q-8.85 13.45 -9.5 13.5Q-8.85 13.5 -8.25 13.85L-7.5 14.3L-10.15 13.6Q-12.1 12.75 -11.4 12.15L-12.3 11.85L-12.3 11.55L-9.6 11.55L-10.25 11.3Q-10.6 11 -10.85 11L-12.45 11.3L-12.15 10.7L-11.1 10.25L-7.35 10.25L-7.05 10.5M-15.65,11.4L-14.15 12.45Q-13.65 12.7 -13.65 13.15L-14.1 13.65L-13.8 14L-14.1 14.25L-12.9 15.15L-15.65 13.85Q-16.05 13.55 -16.05 12.45L-16.2 11.95L-16.35 11.45Q-16.35 11.1 -15.95 11.1Q-15.6 11.1 -15.3 11.4L-15.65 11.4M-18.2,14.9L-18.35 15Q-17.6 15.25 -17 15.95L-19.2 14.7L-20.85 13.05L-20.65 12.8L-20.1 12.8L-20.75 11.8Q-20.55 11.85 -20.55 11.55L-20.7 11.3L-20.85 11L-20.75 10.7L-20.55 10.65L-17.75 13.2Q-17.95 13.5 -18.3 13.5L-18 14.45L-17.7 14.9Q-17.75 15 -17.95 15L-18.2 14.9M-25.05,11.45L-24.15 12.05L-23.85 12.15L-24.95 10.95Q-24.4 10.95 -23.1 12Q-21.8 13.1 -21.6 13.65Q-21.6 13.8 -21.9 13.8L-22.65 13.45L-23.4 12.9L-23.55 12.95L-22.9 13.65Q-22.55 13.85 -22.55 13.95L-22.65 14.25L-23.45 14.25L-23.05 14.7L-22.8 15.15L-23 15.45L-23.7 15.05L-22.2 17.4L-22.15 17.5L-22.45 17.55Q-23.45 17.55 -24.35 15L-25.25 11.55L-25.05 11.45" />
</g>
</svg>
