<?xml version="1.0" encoding="utf-8"?>
<svg version="1.1" id="Layer_1"
xmlns="http://www.w3.org/2000/svg"
xmlns:xlink="http://www.w3.org/1999/xlink"
width="19px" height="20px"
xml:space="preserve">
<g id="1266" transform="matrix(1, 0, 0, 1, 33.6, 20.35)">
<path style="fill:#100806;fill-opacity:1" d="M-20.9,-20.35Q-17.4 -15.15 -15.65 -15.8L-16.15 -13.65Q-18.85 -14.45 -20.9 -17.75L-20.9 -20.35M-30.5,-3.9Q-29.9 -3.4 -29.9 -2.6Q-29.9 -1.8 -30.5 -1.3Q-30.95 -0.7 -31.7 -0.7Q-32.5 -0.7 -33.1 -1.3Q-33.6 -1.8 -33.6 -2.6Q-33.6 -3.4 -33.1 -3.9Q-32.5 -4.4 -31.7 -4.4Q-30.95 -4.4 -30.5 -3.9M-32.9,-3.9L-33.25 -2.95Q-33.25 -2.35 -32.9 -1.95Q-32.45 -1.55 -31.95 -1.55Q-31.4 -1.55 -31 -1.95Q-30.6 -2.35 -30.6 -2.95Q-30.6 -3.45 -31 -3.9Q-31.4 -4.25 -31.95 -4.25Q-32.45 -4.25 -32.9 -3.9M-23.9,-11L-22.95 -10.3L-22.95 -9.9Q-19.2 -7.65 -15.65 -8.55L-16.25 -5.6Q-19.6 -4.9 -22.95 -6.85L-22.95 -6.05L-24 -5.2L-24.45 -5.5L-24.5 -10.4L-23.9 -11M-25.8,-3.9Q-25.25 -3.4 -25.25 -2.6Q-25.25 -1.8 -25.8 -1.3Q-26.3 -0.7 -27.05 -0.7Q-27.85 -0.7 -28.4 -1.3Q-28.9 -1.8 -28.9 -2.6Q-28.9 -3.4 -28.4 -3.9Q-27.85 -4.4 -27.05 -4.4Q-26.3 -4.4 -25.8 -3.9M-27.25,-4.25L-28.25 -3.9L-28.55 -2.95L-28.25 -1.95Q-27.8 -1.55 -27.25 -1.55Q-26.7 -1.55 -26.3 -1.95Q-25.9 -2.35 -25.9 -2.95L-26.3 -3.9Q-26.7 -4.25 -27.25 -4.25M-20.7,-13.45Q-17.45 -11.7 -15.8 -12.3L-15.25 -11.1Q-17.6 -10.5 -20.7 -12.1L-20.7 -13.45" />
<path style="fill:#0000FF;fill-opacity:0.988235" d="M-31.95,-4.25Q-31.4 -4.25 -31 -3.9Q-30.6 -3.45 -30.6 -2.95Q-30.6 -2.35 -31 -1.95Q-31.4 -1.55 -31.95 -1.55Q-32.45 -1.55 -32.9 -1.95Q-33.25 -2.35 -33.25 -2.95L-32.9 -3.9Q-32.45 -4.25 -31.95 -4.25M-26.3,-3.9L-25.9 -2.95Q-25.9 -2.35 -26.3 -1.95Q-26.7 -1.55 -27.25 -1.55Q-27.8 -1.55 -28.25 -1.95L-28.55 -2.95L-28.25 -3.9L-27.25 -4.25Q-26.7 -4.25 -26.3 -3.9" />
</g>
</svg>
