<?xml version="1.0" encoding="utf-8"?>
<svg version="1.1" id="Layer_1"
xmlns="http://www.w3.org/2000/svg"
xmlns:xlink="http://www.w3.org/1999/xlink"
width="28px" height="24px"
xml:space="preserve">
<g id="731" transform="matrix(1, 0, 0, 1, 18.65, 4.6)">
<path style="fill:#000000;fill-opacity:1" d="M-11.65,-4.45Q-10.7 -4.25 -10.75 -3.35Q-11 -0.85 -13.85 -1.7L-14.2 -2.1Q-14.35 -4.2 -12.1 -4.6L-11.65 -4.45M-7.35,-2.25L-5.4 -1.8Q-4.05 -1.65 -3.3 -0.75Q-4 -0.2 -4.9 0.05Q-5.75 0.3 -6.6 0.05Q-8.15 -0.35 -8.5 -1.7L-8.4 -1.8L-7.95 -2.15L-7.35 -2.25M-3.75,3.85Q-3.55 5.65 -5 6.4Q-5.3 6.55 -5.45 6.3Q-6.55 4.55 -4.55 3.6L-4.5 3.45L-4.4 3.3L-4.2 3.25L-4.1 3.35L-3.9 3.6L-3.75 3.85M-6.55,4.5Q-6.65 5.85 -7.7 6.65Q-9.5 8 -12.05 7.2Q-13.65 6.7 -12.85 5.25Q-11.15 2.2 -7.35 2.4Q-6.45 3.2 -6.55 4.5M-11.65,9.6L-10.15 10.45L-9.2 11.15Q-9.35 12.9 -10.7 14.15L-13.7 14.1L-14.2 13.4Q-14.65 11.7 -13.15 10.45L-13.2 10.4Q-13.45 9.95 -12.85 9.65L-11.9 9.5L-11.65 9.6M-14.75,17.65L-15.95 18.15L-16.4 18.1L-16.4 18L-17.75 18.05Q-18.5 17.85 -18.65 17.2L-18.55 17.1Q-17.9 16.75 -17.4 16.2Q-16.85 15.6 -16.05 15.8Q-15.75 15.8 -15.5 15.95L-14.35 16.6L-14.3 16.65Q-13.65 15.75 -12.5 15.55L-9.15 15.4L-7.9 15.65Q-7.25 15.9 -7.25 16.55Q-7.25 17.15 -7.75 17.4Q-11.25 18.95 -14.75 17.75L-14.75 17.65M-3.95,17.4Q-4.75 18.4 -5.85 17.9L-7 17L-6.95 16.9Q-6.1 16.4 -5.45 15.75Q-4.7 15 -3.75 14.85L-0.8 15.95Q0.2 16.25 1.05 16.7Q1.8 16.35 2.6 16.35Q3.25 16.45 3.65 17L3.7 17.15L4.85 17.25L8.45 17.95L8.4 18.05L8.15 18.2L8.05 18.25L8.05 18.3L8.05 18.4L8.05 18.45L7.95 18.55L7.55 18.6L3.9 18.2L4.15 18.45Q3.7 18.9 2.75 18.95Q1.05 19.05 -0.2 18.25L-0.2 18.1L-0.4 18.1L-0.5 18.05L-0.7 18.05L-0.7 17.95L-2 17.4L-3.5 16.95L-3.95 17.4" />
</g>
</svg>
