<?xml version="1.0" encoding="utf-8"?>
<svg version="1.1" id="Layer_1"
xmlns="http://www.w3.org/2000/svg"
xmlns:xlink="http://www.w3.org/1999/xlink"
width="25px" height="13px"
xml:space="preserve">
<g id="900" transform="matrix(1, 0, 0, 1, 2.65, -7.3)">
<path style="fill:#000000;fill-opacity:1" d="M22,14.95L22 16L20.95 16.8L19.7 16.7L18.2 17.3L16.35 17.75L15.15 17.55Q14.55 17.05 14.25 16.35L13.95 15.7L13.5 15.05L10.25 15.15L8.65 15.7L7.35 16.15L5.6 16.7L4.45 17Q3.95 17.75 3.8 18.75L3.55 19.65L0.75 19.7Q0.05 18 0.4 16.3L0.5 16.1Q1 15.6 1.7 15.3L3.4 14.8L1.6 14.55L0.75 14.45L-0.55 15.7Q-1.2 15.75 -1.7 15.3L-2.4 14.95L-2.55 14.8Q-2.8 14.05 -2.5 13.8L-1.75 12.9Q-1.3 12.3 -0.6 12.05L3 12.3L6.75 11.95L7.45 12L7.95 10.9L8.4 10.1Q9.55 9.35 10.95 9.5Q11.15 8.85 11.65 8.35L12.3 7.95L14.45 7.5Q15.8 6.95 16.7 8L17.2 8.45L18 8.45L19 9.4L19.55 11.25L19 12.6L18.9 12.8L17.55 13.55L16.7 13.65L16.15 13.75L16.75 14.8Q18.25 15.3 19.5 14.45L20.2 13.95L20.7 13.7L21.55 13.7Q22 14.3 22 14.95" />
</g>
</svg>
