<?xml version="1.0" encoding="utf-8"?>
<svg version="1.1" id="Layer_1"
xmlns="http://www.w3.org/2000/svg"
xmlns:xlink="http://www.w3.org/1999/xlink"
width="26px" height="15px"
xml:space="preserve">
<g id="751" transform="matrix(1, 0, 0, 1, -17.55, -7.15)">
<path style="fill:#000000;fill-opacity:1" d="M41.45,7.15Q42.15 7.2 42.5 7.8Q42.85 8.4 42.6 9L42.55 9.1Q41.6 9.35 41.25 8.45Q41 7.8 41.35 7.25L41.45 7.15M43.05,10.45Q43.85 11.1 43.05 11.95L42.9 12.35Q42.6 12.95 41.85 12.7L41.55 12.6L41.3 12.55L41.15 12.5L41.2 12.45Q39.65 11.65 39.7 9.8L39.75 9.75L40.3 9.7L40.5 9.7Q42.5 9.65 43.05 10.45M41.35,12.2L41.25 12.15L41.35 12.2M42.5,20.8L37.25 20.95Q33.5 21.4 29.6 20.95L21.85 21.25L18.05 20.95L17.6 20.85Q17.5 20.4 17.75 19.95L17.9 19.7L17.95 19.55L18 19.4L18.05 19.25L18.25 18.75L18.4 18.4Q18.55 17.9 19.05 17.7Q21.3 18.9 23.95 18.5L25.4 18.35L25.5 18.3L25.7 18.2L25.85 18.05L25.95 18L26.6 17.65Q26.55 17.45 26.75 17.35L27.85 16.75L27.75 16.7L27.8 14.1Q27.8 12.75 27.95 11.4L28 11L28.9 10.9L29.35 10.6L29.3 13.15L29.05 15.95L29.6 15.55Q30.75 15.35 31.6 16.05L32.55 16.95L34 16.45L37.85 15.7L40.75 17.25Q42.45 18.4 42.25 20.1L42.25 20.25L42.3 20.3L42.35 20.35L42.35 20.45L42.5 20.6L42.5 20.8" />
</g>
</svg>
