<?xml version="1.0" encoding="utf-8"?>
<svg version="1.1" id="Layer_1"
xmlns="http://www.w3.org/2000/svg"
xmlns:xlink="http://www.w3.org/1999/xlink"
width="15px" height="14px"
xml:space="preserve">
<g id="903" transform="matrix(1, 0, 0, 1, -2.3, -6.55)">
<path style="fill:#000000;fill-opacity:1" d="M11.7,10.05L13.9 10.85L15.7 10.9L16.25 11.85Q16.5 12.5 15.95 13.05L11.9 12.85L11.8 13.7L12.3 15.1L13.65 17.5L13.5 18.95L12.7 19.8L11.25 19.9L10.6 19.5L9.75 16.7L9 15.55L8.45 17.1L8.9 19.25L8.55 19.95L6.65 20.35L6 20.55L5.35 19.9L5.4 13.35L5 13.1L4.9 13.1L4.75 13.2L2.9 13.55L2.4 12.5Q2.15 11.85 2.55 11.15Q2.8 10.65 3.15 10.45L4.4 10.75L5.35 10.25Q5.5 8.8 6.45 7.55Q7.15 6.7 8.35 6.55Q9.9 6.4 10.8 7.9L11.05 9.4L11.7 10.05" />
</g>
</svg>
