<?xml version="1.0" encoding="utf-8"?>
<svg version="1.1" id="Layer_1"
xmlns="http://www.w3.org/2000/svg"
xmlns:xlink="http://www.w3.org/1999/xlink"
width="14px" height="27px"
xml:space="preserve">
<g id="871" transform="matrix(1, 0, 0, 1, 7, 7.35)">
<path style="fill:#000000;fill-opacity:0.988235" d="M6.5,-7.1L6.95 -5.05L6.65 -4.85L6.5 -3.8L5.4 -0.65L5.25 -0.15L2.95 4.15L3 4.75Q3.25 6.75 2.3 7.8L2.1 7.9L2.55 10.05L3.25 12.75L3.55 15.55L3.45 16.35L3.7 16.6Q4.4 18.25 4.85 18.9L3.65 19.55Q1.45 17.8 1.55 16.65Q1.6 15.5 1.05 14.85Q0.45 14.25 0.1 12.6Q-0.25 10.95 -0.7 12.1L-1.6 14.1Q-1.7 14.55 -2.1 14.75Q-3.55 15.75 -3.3 17.25L-5.05 18Q-6.55 18.7 -7 17.15L-5.5 16.25L-5.45 16.15L-4.75 14.65L-3.45 11.75L-1.95 7.55L-3.1 6.95L-2.9 3.9L-3.25 3.3Q-4 0.9 -4.15 -1.55L-4.35 -1.95L-3.9 -4.85Q-4.7 -6.15 -3.7 -7.35L-2.8 -7.2L-2.65 -6.6L-2.6 -5.3L-2.65 -1.35Q-1.9 0.1 -2 2L-1.35 1.9L-1.75 1.05Q-2.4 -1.45 -0.1 -2.6L1.1 -2.1L1.75 -1.4Q2.65 0.35 1.45 2L2.15 2.3Q2.55 0.2 4.15 -1.45L4.85 -3.7L5.05 -4.75Q5.1 -6.05 5.55 -7.15L6.5 -7.1" />
</g>
</svg>
