<?xml version="1.0" encoding="utf-8"?>
<svg version="1.1" id="Layer_1"
xmlns="http://www.w3.org/2000/svg"
xmlns:xlink="http://www.w3.org/1999/xlink"
width="12px" height="15px"
xml:space="preserve">
<g id="1038" transform="matrix(1, 0, 0, 1, 7.1, 9.05)">
<path style="fill:#FFFF00;fill-opacity:1" d="M4.3,-7.25L3.5 -6.25L2.2 -6.1L2.55 -7.2L4.4 -9.05L4.3 -7.25M1.9,-3.35L1.6 -2.85L3.8 -3.45L2.1 -1.95L4.15 -0.15L3.1 -0.5L2.45 -0.25L3.7 1.55L1.05 0.7L0.4 2.5L-0.55 0.35L-2.2 0.45L-0.35 -0.65L-2.35 -2.45L0.4 -1.85L0.2 -4.15L0.9 -3.05L2.15 -4.4L1.9 -3.35M3.3,2.35L3.65 2.65L3.85 3.1L4.6 5.2L4.6 5.35L3.55 4L3.3 2.45L3.3 2.35M-2.55,-8.55L-2.55 -8.7L-1.5 -6.25Q-1.5 -5.3 -1.65 -4.7L-2.4 -5.95L-2.95 -7.2L-2.55 -8.55M-3.35,-0.45L-3.45 -0.4L-4.05 0.4Q-4.2 0.7 -4.7 0.7L-5.6 0.8L-7.1 0.85L-7 0.75Q-6.6 -0.25 -5.5 -0.35L-3.85 -0.45L-3.35 -0.45" />
</g>
</svg>
