<?xml version="1.0" encoding="utf-8"?>
<svg version="1.1" id="Layer_1"
xmlns="http://www.w3.org/2000/svg"
xmlns:xlink="http://www.w3.org/1999/xlink"
width="14px" height="79px"
xml:space="preserve">
<g id="491" transform="matrix(1, 0, 0, 1, 1.15, 5.45)">
<path style="fill:#000000;fill-opacity:1" d="M10.5,-0.05L7.6 57.65L9.45 57.65L11.95 73.55L-1.15 73.55L1.2 57.65L2.8 57.65L0.1 0.75L-0.05 0L-0.1 -0.55Q-0.1 -2.6 1.45 -4.05Q3 -5.45 5.2 -5.45Q7.4 -5.45 8.95 -4.05Q10.5 -2.6 10.5 -0.55L10.5 -0.05" />
<path style="fill:#BD8051;fill-opacity:1" d="M1.85,0L4.45 56.85L3.7 56.95L1.2 0.1L1.85 0M9.2,0.1L6.7 56.95L5.95 56.85L8.55 0L9.2 0.1" />
</g>
</svg>
