<?xml version="1.0" encoding="utf-8"?>
<svg version="1.1" id="Layer_1"
xmlns="http://www.w3.org/2000/svg"
xmlns:xlink="http://www.w3.org/1999/xlink"
width="18px" height="14px"
xml:space="preserve">
<g id="506" transform="matrix(1, 0, 0, 1, 1.15, 0.85)">
<path style="fill:#000000;fill-opacity:1" d="M12.35,5.55L13.5 6.3L15.45 7.25Q16.7 7.85 16.8 9.05L16.35 10.15L15.9 10.45L15.05 12.05L11.55 11.9L11.55 10.55L12.3 9.95L11.45 9.6L11.15 9.25Q10.1 9.4 9.3 8.85L8.65 8.45Q7.9 8.1 8.4 7.75L7.15 4.2L6.55 4.45L6.35 5.65Q6.8 6.65 6.5 7.65L6.3 8.6L6.1 9.65L5.75 10.35Q5.55 10.55 5.45 10.9L4.9 12.35L0 11.35L-0.35 11L-1.15 10.6L-0.5 9.35L1.15 8.6L2.8 9L3.1 5.15L1.6 2.6L2.8 2.9L6.15 -0.85L10.5 0.3L12.2 3.8L11.4 4.75L11.9 5.7Q12 6.05 12.35 5.55" />
</g>
</svg>
