<?xml version="1.0" encoding="utf-8"?>
<svg version="1.1" id="Layer_1"
xmlns="http://www.w3.org/2000/svg"
xmlns:xlink="http://www.w3.org/1999/xlink"
width="34px" height="34px"
xml:space="preserve">
<g id="14" transform="matrix(1, 0, 0, 1, 0.5, 0.5)">
<path style="fill:#000000;fill-opacity:0.796078" d="M32.8,16.4Q32.8 23.2 28 28Q23.2 32.8 16.4 32.8Q9.6 32.8 4.8 28Q0 23.2 0 16.4Q0 9.6 4.8 4.8Q8.2 1.4 12.65 0.4L16.4 0L20.15 0.4Q24.6 1.4 28 4.8Q32.8 9.6 32.8 16.4" />
<path style="fill:none;stroke-width:1;stroke-linecap:round;stroke-linejoin:round;stroke-miterlimit:3;stroke:#0B0603;stroke-opacity:1" d="M32.8,16.4Q32.8 23.2 28 28Q23.2 32.8 16.4 32.8Q9.6 32.8 4.8 28Q0 23.2 0 16.4Q0 9.6 4.8 4.8Q8.2 1.4 12.65 0.4L16.4 0L20.15 0.4Q24.6 1.4 28 4.8Q32.8 9.6 32.8 16.4z" />
</g>
</svg>
