<?xml version="1.0" encoding="utf-8"?>
<svg version="1.1" id="Layer_1"
xmlns="http://www.w3.org/2000/svg"
xmlns:xlink="http://www.w3.org/1999/xlink"
width="17px" height="29px"
xml:space="preserve">
<g id="1027" transform="matrix(1, 0, 0, 1, 3.9, 8.95)">
<path style="fill:#FFFF00;fill-opacity:1" d="M1.6,-8.95L1.7 -7.05Q1.7 -6 1.25 -6.95Q1.05 -7.4 1.1 -7.95L1.6 -8.95M1.6,-1.05L1.4 0.1Q1.2 0.7 0.55 0.55Q0.15 -1.5 1.6 -2.85L1.6 -1.05M1.8,-4Q1.65 -5.4 2.65 -6.35L2.55 -4.5Q2.45 -3.8 1.8 -4M3.7,-3.85Q3.15 -4.45 3.55 -5.2L4.15 -6.45Q4.65 -5.1 4 -3.85Q3.9 -3.65 3.7 -3.85M7.5,-6.1Q8.35 -4.8 7.05 -4.25Q6.8 -4.15 6.8 -4.45Q6.75 -5.5 7.5 -6.1M10.15,11.45Q9.9 11.55 10 11.25L11 9.45Q12.05 11 10.15 11.45M8.7,0.6L8.85 0.7L8.9 0.75Q8.75 1.95 8.05 2.65Q7.3 3.35 6.85 2.55Q6.7 2.25 6.95 1.95Q7.35 1.5 7.8 1.75L8.7 0.6M5.45,0Q4.9 -1.3 6.05 -2.2Q6.8 -0.9 5.75 0.05L5.45 0M6.8,4.7L6.2 7.05Q6.05 7.4 5.75 7.15Q4.6 6.3 5.9 5.15L6.6 4.6L6.8 4.7M8.5,5.3Q8.55 6.15 8 5.55Q7.7 5.2 7.7 4.75Q7.75 3.9 8.25 3.35L8.5 5.3M4.05,2.75Q4.5 2.2 5.1 2.25L4.8 3.05Q5.6 4.05 3.8 3.85L2.8 4Q2.05 1.95 2.95 0L3.3 -0.35L3.8 2.75Q3.85 3.05 4.05 2.75M0.5,3.25Q0.55 2.55 0.95 2.15Q1.85 3.5 1.4 4.95L1.15 5Q0.3 4.45 0.5 3.25M0.05,8.65Q-1.2 8.2 -0.9 6.7L-0.45 5.6Q0.65 6.85 0.45 8.45Q0.45 8.8 0.05 8.65M1.6,10.3L1.35 10.15Q1.2 8.8 2.15 7.85Q2.95 9.4 1.6 10.3M6.5,11.55Q6.4 11.8 6.45 12.1L6.55 12.65Q6.7 10.7 8.3 10.15L7.45 12.75L6.95 13.15Q5.05 13.55 5.35 11.6Q5.55 10.35 6.55 9.75Q6.9 10.5 6.5 11.55M9.85,7.1Q10.9 8.3 9.7 9Q9.35 9.2 9.3 8.8Q9.3 7.8 9.85 7.1M7.95,15.65L8.1 15.75L8.15 15.8L7.65 18.15L7.3 18.85Q6.1 20.1 5.6 18.75Q5.5 18.5 5.7 18.25L7.95 15.65M2.9,14.75Q2.4 13.25 3.35 12.05Q4.15 13.5 3.2 14.75Q3.05 15.05 2.9 14.75M1.2,18.35L0.85 19.3L0.7 19.65L0.4 19.85Q-0.65 20.05 -0.9 19.05L-0.7 19.2L-0.75 19.1Q-1.5 18.55 -1.25 17.55Q-0.95 16.2 -1.15 14.8L-1 14.7Q0.25 16.25 0.05 17.95L0.1 17.9L1.5 16.3L1.65 16.4L1.7 16.45L1.2 18.35M4.1,15.65Q4 17.2 2.8 17.05L2.7 16.75Q2.85 15.8 3.9 15.45L4.1 15.6L4.1 15.65M11.75,13.65L11.8 13.7Q11.85 15.1 11.25 16.15Q11.05 16.5 10.65 16.5Q9.9 16.55 10.2 15.8L10.85 14.55L11.6 13.55L11.75 13.65M-1.3,0.35Q-2 -1 -1.05 -2.1Q-0.4 -0.85 -1 0.35Q-1.15 0.65 -1.3 0.35M-0.85,4.4Q-0.75 4.9 -1.25 5.05Q-1.75 5.2 -1.95 4.6Q-2.5 2.95 -1.7 1.65Q-1.2 2.9 -0.85 4.4M-2.45,9.7L-2.65 9.95Q-3.6 10 -3.85 8.9Q-4.1 7.65 -3.5 6.8Q-2.7 8.15 -2.45 9.7M-1.4,13.9Q-2.15 13.5 -2.1 12.55Q-2.05 11.65 -1.5 11.15Q-0.55 12.45 -1 13.8Q-1.1 14.05 -1.4 13.9" />
<path style="fill:#FFFF00;fill-opacity:0.2" d="M12.05,3.85Q12.3 4.4 12 5.3L12 5.35Q11.35 4.8 12 3.85L12.05 3.85" />
</g>
</svg>
