<?xml version="1.0" encoding="utf-8"?>
<svg version="1.1" id="Layer_1"
xmlns="http://www.w3.org/2000/svg"
xmlns:xlink="http://www.w3.org/1999/xlink"
width="30px" height="4px"
xml:space="preserve">
<g id="763" transform="matrix(1, 0, 0, 1, 21.55, -19.2)">
<path style="fill:#000000;fill-opacity:0.498039" d="M8.35,21.85Q8.35 22.3 5.3 22.6L-2.2 22.9L-9.6 22.6L-12.6 22.05L-12.85 22.15L-14.85 22.5L-16.35 22.35L-16.85 22.15L-17.65 21.45L-17.65 21.3Q-17.65 20.8 -16.85 20.45Q-16.05 20.05 -14.85 20.05L-12.85 20.45Q-12.55 20.55 -12.45 20.7L-12.45 20.6L-12.45 20.45Q-12.45 19.95 -11.8 19.6Q-11.15 19.2 -10.2 19.2Q-9.25 19.2 -8.6 19.6L-8.2 19.9Q-7.9 20.15 -7.9 20.45L-8 20.85L-8.15 21L-2.2 20.8L5.3 21.15Q8.35 21.45 8.35 21.85M-19,20.3L-18.8 20.6L-18.85 20.8L-19.25 21.05L-20.2 21.25L-20.9 21.15L-21.15 21.05L-21.55 20.7L-21.55 20.6Q-21.55 20.3 -21.15 20.1L-20.2 19.9L-19.25 20.1L-19 20.3M-12,21.5L-11.6 21.4L-11.8 21.3L-11.95 21.2L-11.95 21.3L-12 21.5" />
</g>
</svg>
