<?xml version="1.0" encoding="utf-8"?>
<svg version="1.1" id="Layer_1"
xmlns="http://www.w3.org/2000/svg"
xmlns:xlink="http://www.w3.org/1999/xlink"
width="280px" height="56px"
xml:space="preserve">
<g id="479" transform="matrix(1, 0, 0, 1, 104.1, -206.25)">
<path style="fill:#3A1D0F;fill-opacity:0.85098" d="M159.5,242.25Q161.3 241.3 163.15 241.2Q167.7 243.1 164.75 247.4L163.7 248.7Q164.9 247.6 166.45 246.85Q168.35 245.85 170.25 245.3L173.05 245.55Q174.25 245.75 175.1 246.6L175.5 247.35Q175.35 248.8 174.2 249.65Q169.5 253.3 163.45 252.8L165.2 255.25Q165.9 256.55 164.3 257.25Q156.55 260.75 152.85 254.65Q151.45 252.3 153.9 251.45L155.2 251.1L154.2 250.5Q154.2 247.95 155.7 245.65Q157.15 243.4 159.5 242.25M109.2,256.75Q100.25 258 91.25 259.85Q82.9 261.55 78.4 255.4Q78.45 252.75 81.1 252.7Q91.55 252.65 101.65 250.55Q109.8 249.1 110.35 255.5Q110.45 256.55 109.2 256.75M150.7,256Q153.4 256.25 153.4 258.75Q148.7 260.95 143.25 261.85Q136.55 262.95 132.45 258.15Q131.9 257.5 131.9 256.45L132.7 255.8Q133.85 254.75 135.25 254.05Q136 253.65 136.85 253.55L138.55 253.25L140.1 252.75Q143.45 252.25 146 254.2Q148 255.75 150.7 256M50.95,206.25Q52.05 206.4 52.8 207.25Q53.65 208.2 53.4 209.65Q53.3 210.5 52.7 211.25Q48.55 213.5 43.8 212Q42.3 211.55 41.8 210.2Q43.4 208.75 45.8 208L50.95 206.3L50.95 206.25M60.1,233.45L60.15 233.2L62.45 230.95Q64 228.9 65.75 227.35Q68.15 225.3 71.15 224.85Q79.35 224.45 79.85 231.15Q79.9 232.45 78.55 233.25Q73.2 236.2 67.45 237.7L62.95 238.15L62.75 237.9L62 237.2L61.2 236.7L60.5 236.3L60.25 236.05L60.15 235.8L60.1 235.35L60.1 235.1L60.1 234.4L60.1 234.15L60.1 233.9L60.1 233.45M76.45,254.9Q78.95 257.15 75.4 257.75Q67.65 259.1 60.05 261.2L56.3 260.95L53.95 258.6Q52.65 257.5 53.75 256.25Q56.05 253.75 58.85 251.75Q60.5 250.6 62.2 249.9Q70.25 249.4 76.45 254.9M163,249.35L161.9 250.2L162.3 250.1L163 249.35" />
<path style="fill:#3A1D0F;fill-opacity:0.694118" d="M1.95,248.25L1.85 248.65L1.85 249.05L1.75 249.4L1.25 250.25L0.75 251L0.15 251.8Q-0.3 252.2 -0.85 252.4Q-14.05 257.1 -22.6 250.9L-22.5 250.5Q-21.55 248.4 -19.45 247.15Q-15.55 244.75 -10.95 244.75L-2.65 245.2Q0.15 245.5 1.8 247.9L1.95 248.25M-37.1,244.35Q-35.65 244.6 -34.3 245.1Q-33.1 245.5 -32.05 246.35Q-31.2 247.05 -31.1 248Q-30.95 250.2 -32.55 251.6Q-37.6 255.95 -43 251.5Q-44.05 250.65 -43.75 249.05L-43.65 248.25L-42.95 247.7L-41.35 246.45Q-39.75 245.05 -37.65 244.55L-37.1 244.35M-59.05,247.3Q-56.35 247.6 -54.5 249.35Q-53.25 250.55 -52.9 252.2Q-53.25 253.3 -54.35 253.95Q-62.35 258.85 -69.25 252.55L-69.65 252.2L-69.65 251.4L-69.65 251Q-69.75 250.1 -69.35 249.3Q-68.6 247.8 -66.9 247.6Q-65.35 247.45 -64.25 246.85L-59.05 247.3M-78.4,244.35Q-75.4 245.2 -76.05 248.4Q-76.5 250.6 -78.9 250.95Q-80.95 251.25 -82.1 250.1Q-82.9 250.8 -84.65 250.85Q-91.85 251.05 -91.7 247.2L-91.8 247.6L-92 248.1Q-92.35 248.35 -92.75 248.1L-93.3 247.5L-93.3 247.1Q-93.45 246.2 -93.2 245.45Q-92.8 244.3 -91.65 243.65Q-90.5 242.95 -89.35 242.65Q-84 241.75 -82.2 245.5L-82.15 245.4L-81.8 245L-78.4 244.4L-78.4 244.35M-79.95,220.9Q-83.95 222.15 -86.9 220.05L-88.1 221.75Q-89.3 223.25 -91.5 223.4Q-104.9 224.3 -99.4 214.8Q-98.1 212.55 -95.25 212.5L-94.6 212.35Q-87.35 212.85 -86.1 215.65L-85.3 215.2Q-83.55 214.35 -81.85 213.15L-81.5 213Q-76.5 213 -77.3 217.8Q-77.7 220.25 -79.95 220.9M-103.3,230.45Q-102.3 229.25 -100.85 228.7L-100.35 228.55Q-98.45 228.25 -97.1 229.6Q-95.65 231.05 -96.05 233.1Q-96.3 234.25 -97.2 235.05L-98.25 235.7Q-101.45 236.25 -103.8 234.1L-104.1 233.75L-104.1 232.6Q-104.1 231.45 -103.3 230.45" />
</g>
</svg>
