<?xml version="1.0" encoding="utf-8"?>
<svg version="1.1" id="Layer_1"
xmlns="http://www.w3.org/2000/svg"
xmlns:xlink="http://www.w3.org/1999/xlink"
width="27px" height="18px"
xml:space="preserve">
<g id="597" transform="matrix(1, 0, 0, 1, -41, -8.1)">
<path style="fill:#000000;fill-opacity:0.498039" d="M63.75,24.6L54.35 25.1L44.85 24.6Q41 24.1 41 23.4Q41 23 42.25 22.7L44.85 22.2L49.05 21.85L54.35 21.7L61.85 22L63.75 22.2Q67.8 22.7 67.8 23.4Q67.8 24.1 63.75 24.6" />
<path style="fill:#000000;fill-opacity:1" d="M60.75,9.1L60.5 9.05L60.35 8.95L60.3 8.9L60.3 8.8L60.7 8.6L62.9 8.25Q65.3 7.7 66.6 9.3Q67.35 10.2 66.25 10.8Q64.4 11.8 62.45 11.05L62.15 10.65L62.1 10.6L61.85 10.45L61.4 10.05L60.75 9.15L60.75 9.1M64.65,19.8Q65.95 19.55 66.75 21.3Q67 21.85 66.9 22.5Q66.7 23.3 66 23.9L65.7 24.3L65.05 24.35Q64.4 24.95 63.05 24.7L58.5 24.95Q56.75 25.5 55.3 24.65L54.3 24.4L51.7 24.75L51.25 24.95L49.05 25.35L43.95 24.8L43.7 24.8L43.7 24.85L43.5 24.75Q43 24.65 42.65 24.2L41.85 22.95L42.1 23.2L41.75 22.5L41.7 22.4L41.45 22.1L41.45 22.05Q41.45 21.75 41.75 21.6L42.15 21.45L42.35 21.3L43.9 21.25L43.9 21.3L43.95 21.35L44.05 21.4L44.35 21.7L44.35 21.8L44.45 21.85L44.55 21.95L52.25 21.05L52.6 21.05L52.65 21L52.85 20.9L52.95 20.95L53.05 21L53.15 21L55.2 19.85Q56.15 19.3 57.3 19.05L58.85 18.8Q60 20.65 61.65 20.35L64.65 19.8" />
</g>
</svg>
