<?xml version="1.0" encoding="utf-8"?>
<svg version="1.1" id="Layer_1"
xmlns="http://www.w3.org/2000/svg"
xmlns:xlink="http://www.w3.org/1999/xlink"
width="27px" height="43px"
xml:space="preserve">
<g id="1559" transform="matrix(1, 0, 0, 1, 3.45, 25)">
<path style="fill:#D6D6D6;fill-opacity:0.498039" d="M2.65,-15.75L2.7 -16.1Q2.7 -16.65 2.15 -17.1Q1.15 -17.9 -0.95 -17.35L-1.5 -18.1L-1.9 -18.9Q-1.9 -26.7 3.8 -24.5Q5.9 -23.7 7.7 -21.8Q9.45 -19.85 9.45 -18.35Q9.45 -17.65 8.65 -16.65Q7.7 -15.5 7.45 -14.55L7 -12.25Q6.8 -11.9 4.55 -11.9Q4.3 -11.9 4.05 -11.5Q3.8 -11.15 3.6 -11.15Q2.75 -11.15 2.15 -11.7L1.4 -12.25Q0.8 -12.25 -0.85 -10.85L-3.1 -9.15L-3.45 -9.6L-1.65 -11.2L0.3 -12.75Q0.65 -13 0.55 -14.1Q0.45 -15.2 1.2 -15.7L2.6 -15.8L2.65 -15.75M9.9,-11.05L10.75 -10.5L11.25 -10.65L11.25 -10.75Q11.25 -11.75 12.6 -11.4Q13.3 -11.25 13.65 -10.85L14.3 -10.65L15.25 -9.65L16.05 -8.7Q16.55 -7.25 17.6 -6.6Q18.4 -6.1 18.4 -5.05Q18.4 -2.55 13.6 -2.55L12.25 -2.25L11.2 -1.6L9.3 -1.65L7.6 -3.55Q6.55 -3.55 4.15 -2.15L1.8 -0.7Q1.35 -0.75 1.25 -1.05L5.1 -3.75L8.05 -6.15L7.75 -6.45L5.85 -6.55Q4.95 -6.8 5.1 -7.95Q5.1 -9 5.35 -9.35Q5.8 -10.05 7.65 -11.05L9.9 -11.05M22.9,9.5Q18.5 17.7 14.6 17.7Q12.5 17.7 11.6 16.8Q11.1 16.3 11.1 15.75Q11.1 15.3 11.45 14.75Q11.9 14.05 12.75 13.8Q11.85 12.35 12.55 10.35L7 10.65L3.15 10.55Q3.25 10.3 2.75 10.1Q3.3 9 4.1 9.1L5.4 9.4Q9.55 9.4 11.15 6.55Q11.95 5.1 12.05 3.4Q13.35 0.5 17 1.45L17.9 1.75L18.95 1.9Q19.45 2.2 19.55 3Q20.2 3.95 19.8 5.4Q21.7 6.35 22.35 7.4Q22.9 8.25 22.9 9.5" />
</g>
</svg>
