<?xml version="1.0" encoding="utf-8"?>
<svg version="1.1" id="Layer_1"
xmlns="http://www.w3.org/2000/svg"
xmlns:xlink="http://www.w3.org/1999/xlink"
width="17px" height="33px"
xml:space="preserve">
<g id="1022" transform="matrix(1, 0, 0, 1, 4.15, 11.65)">
<path style="fill:#FFFF00;fill-opacity:0.498039" d="M8,-7.75L7.75 -7.75Q7.3 -8.45 7.6 -9.25L7.65 -9.25Q8.1 -8.6 8 -7.8L8 -7.75M2.05,-10.05Q1 -10.45 1.7 -11.65Q2.05 -11 2.05 -10.05" />
<path style="fill:#FFFF00;fill-opacity:1" d="M5,-9.25Q5.65 -7.95 4.65 -6.95L4.5 -7.05Q4.45 -8.25 5 -9.25M1.1,-2L1.5 0.45Q1.7 1.45 0.7 0.95Q0.05 0.6 0.3 -0.1L1.1 -2M1.15,-5.6Q1.95 -3.8 0.75 -2.4L0.45 -2.45Q-0.1 -3.15 0.4 -4.1L1.15 -5.6M3.9,-4.5Q3.7 -3.25 4.1 -1.8Q4.45 -0.6 3.9 0.55Q3.15 2.05 2.5 0.55Q2.2 -0.1 2.55 -0.7Q3.3 -2.05 3.45 -3.6Q3.5 -4.15 3.9 -4.5M6.5,-0.95L6.3 -0.35Q5.9 0.1 5.35 -0.15Q5.3 -2.25 7.15 -3.5Q7.35 -2.95 6.8 -2.1Q6.45 -1.6 6.5 -0.95M8.45,-2.45L8.8 -1.15L8.9 -0.45Q9.05 0.55 8.35 -0.25Q7.7 -1 8.05 -1.95L8.45 -2.45M12.6,11.65Q12.8 13 11.65 12.7Q11.35 12.65 11.4 12.2Q11.55 11.05 12.3 10.2L12.6 11.65M11.65,8.5L11.45 8.45Q10.95 7.35 11.4 6.45Q12.05 7.5 11.65 8.5M10.25,5.1L10.05 5.05Q9.55 4 10.25 3.1Q10.85 4.15 10.25 5.1M5.6,0.7Q4.95 1.65 4.9 2.8L4.9 2.95L5.7 2.65Q5.7 4.7 3.35 3.9Q1.3 3.25 2.5 1.55Q2.8 3.05 3.75 2.1L4.65 1.2L5.45 0.6L5.6 0.7M6.9,4.25Q6.75 4.4 6.7 4.15Q6.55 2.85 7.25 1.9Q8 3.1 6.9 4.25M0.15,8.15Q-1 7.95 -1.1 6.7L-1 6.1Q-0.45 6.35 -0.1 7.1Q0.7 5.9 0.9 4.6Q2.1 6.45 0.75 7.95L0.15 8.15M4.8,10.65Q4.75 12 5.95 11.95Q6.2 10.45 7.85 10.1Q8.25 10.5 7.55 11.3Q6.9 12.1 6.7 13.1Q6.6 13.65 6.2 13.35Q4.95 13.35 4.4 12.05Q4 11.1 4.8 10.65M2.5,12.25Q2.2 12.8 2.3 13.4Q2.45 14.9 1.15 14.15Q0.6 13.9 0.85 13.35Q1.55 11.95 2.65 10.8Q2.95 11.35 2.5 12.25M5.5,10.05Q3.6 10.05 4.7 8.65Q5.7 7.3 6.15 5.9Q6.35 8 5.5 10L5.5 10.05M7.1,8.6Q6.3 7.9 7.25 6.9L7.75 6.2L8.4 5.45Q8.65 7.2 7.4 8.65L7.1 8.6M10.05,13.1L10.2 13.15L10.25 13.2L9.35 16.25Q9.1 16.95 8.5 16.25Q8.05 15.7 8.5 15.05L10.05 13.1M5.45,18Q5.6 18.3 6.25 17.7Q6.8 17.2 7.55 17.05L9.4 17.2L9.45 17.2L7.5 18.9L7.25 19.2Q6.1 20.65 5.35 19.1Q5.2 18.85 5.3 18.6L5.2 18.55Q5 18.4 5.1 18.15Q5.25 17.8 5.45 18M2.45,15.75Q3.4 18.1 0.7 19.4L0.2 19.9L-0.2 20.45L-0.15 19.95L-0.45 19.95L-0.5 20Q-1.05 19.95 -1.05 18.9Q-1.05 17.75 -0.5 16.7Q-0.3 16.2 -0.6 15.75Q-1.25 14.75 -1.2 14.05Q1.2 15.45 0.7 17.65Q1 17 2.1 16.65L2.3 16.35L2.3 15.85L2.35 15.75L2.45 15.75M-1.1,-2.95Q-1.2 -2.8 -1.3 -3.05Q-1.75 -3.9 -1.3 -4.55Q-0.55 -3.65 -1.1 -2.95M-3.9,3.8Q-3.1 5.2 -3.2 6.65L-3.35 6.7Q-4.1 6.55 -4.15 5.7Q-4.2 4.6 -3.9 3.8M-1.5,4.85Q-1.5 2.9 -0.55 1.25L0.25 4.8Q0.5 6.25 -1.1 5.55Q-1.5 5.35 -1.5 4.85M-2.6,10.5L-2.55 10.55Q-2.95 12.35 -1.75 13.85L-1.9 14.1Q-3.4 14.55 -3.55 13Q-3.75 11.45 -2.75 10.4Q-2.6 10.4 -2.6 10.5" />
</g>
</svg>
