<?xml version="1.0" encoding="utf-8"?>
<svg version="1.1" id="Layer_1"
xmlns="http://www.w3.org/2000/svg"
xmlns:xlink="http://www.w3.org/1999/xlink"
width="16px" height="12px"
xml:space="preserve">
<g id="1064" transform="matrix(1, 0, 0, 1, -1.1, -2.05)">
<path style="fill:#FFFF00;fill-opacity:1" d="M13.5,3.35L11.85 8.05L11.6 8.3L11 9.2L12.85 8.55L12.65 9.35L12.35 9.55L11.65 10.9L15.45 11.85L15 12.75L16.4 13.6L2.4 13.7L3.35 13.55L1.35 11.9L3.3 11.7L1.1 9.95L4.2 9.95L2.1 8.4L7.05 8.35L6.4 6.55L7.4 6.6L7.5 4.7L7.7 4.15L9.15 7.4L12.05 3.7L12.15 3.3L13.55 2.05L13.5 3.35" />
</g>
</svg>
