<?xml version="1.0" encoding="utf-8"?>
<svg version="1.1" id="Layer_1"
xmlns="http://www.w3.org/2000/svg"
xmlns:xlink="http://www.w3.org/1999/xlink"
width="26px" height="13px"
xml:space="preserve">
<g id="836" transform="matrix(1, 0, 0, 1, 0, 0)">
<path style="fill:#0E0E0E;fill-opacity:1" d="M24.8,3.05L8.7 3.05L8.7 4.15L24.8 4.15L24.8 3.05M8.25,0L8.25 1.2L25.4 1.2L25.4 11.35L8.25 11.35L8.25 12.55L3.55 12.55L0 10.6L0 1.7L3.55 0L8.25 0M2.95,2.3L0.7 3.4L2.95 3.85L3.3 11.3L3.7 4.2L8.15 4.2L8.15 2.35L3.65 2.35L3.55 0L2.95 2.3" />
<path style="fill:#BD8051;fill-opacity:1" d="M24.8,4.15L8.7 4.15L8.7 3.05L24.8 3.05L24.8 4.15M3.55,0L3.65 2.35L8.15 2.35L8.15 4.2L3.7 4.2L3.3 11.3L2.95 3.85L0.7 3.4L2.95 2.3L3.55 0" />
</g>
</svg>
