<?xml version="1.0" encoding="utf-8"?>
<svg version="1.1" id="Layer_1"
xmlns="http://www.w3.org/2000/svg"
xmlns:xlink="http://www.w3.org/1999/xlink"
width="58px" height="42px"
xml:space="preserve">
<g id="802" transform="matrix(1, 0, 0, 1, 0, 0)">
<path style="fill:#0B0B0B;fill-opacity:1" d="M53.4,26.7Q54.55 27.2 55.55 28.2L55.8 28.45L56.5 29.3Q57.8 31.2 57.8 33.6Q57.8 36.75 55.55 38.95Q53.35 41.2 50.2 41.2L48.95 41.1L47.1 40.55L46.5 40.25Q45.8 39.85 45.2 39.3L44.8 38.95Q43.55 37.7 43 36.1Q42.6 34.95 42.6 33.6Q42.6 30.45 44.8 28.2Q46.15 26.85 47.85 26.35L50.2 26L51.65 26.15L53.4 26.7M35.75,11.55L34.6 12.95Q32.4 15.2 29.25 15.2Q26.1 15.2 23.85 12.95L22.7 11.45Q21.65 9.75 21.65 7.6L21.65 7.5Q21.65 6.6 21.9 5.75L22.1 5.1Q22.4 4.15 22.95 3.3L23.85 2.2L23.9 2.2Q26.1 0 29.25 0Q32.15 0 34.3 1.9L34.55 2.15L35.75 3.65Q36.45 4.75 36.7 6L36.85 7.6L36.85 7.8Q36.8 9.85 35.75 11.55M14.8,36.1Q14.25 37.7 12.95 38.95L12.6 39.3L11.3 40.25L10.7 40.55L8.9 41.1L6.6 41.15Q4.1 40.85 2.2 38.95Q0 36.75 0 33.6Q0 31.95 0.65 30.55L0.95 29.85L2.65 27.85L3.8 27.05L4.15 26.85L4.8 26.55Q5.55 26.2 6.4 26.1L7.6 26Q9.2 26 10.6 26.6Q11.85 27.1 12.95 28.2Q15.2 30.45 15.2 33.6Q15.2 34.95 14.8 36.1" />
</g>
</svg>
