<?xml version="1.0" encoding="utf-8"?>
<svg version="1.1" id="Layer_1"
xmlns="http://www.w3.org/2000/svg"
xmlns:xlink="http://www.w3.org/1999/xlink"
width="62px" height="47px"
xml:space="preserve">
<g id="325" transform="matrix(1, 0, 0, 1, -3.4, 27.35)">
<path style="fill:#E2E2E2;fill-opacity:0.8" d="M26.95,-25.7Q19.9 -24.75 21.15 -19.05Q21.35 -18.05 22.25 -17.7L24.15 -18.2Q24.9 -18.25 25.25 -18.9Q25.55 -19.45 26.1 -19.45Q27 -18.75 27.9 -18.7L29.45 -18.35L30.4 -19.05Q33.85 -21.8 29.9 -24.85Q28.6 -25.85 26.95 -25.7M19.35,-21.7Q21.45 -26.5 26.8 -27.35Q34.15 -26.4 33.05 -19.7Q32.85 -18.5 31.8 -17.7Q25 -12.85 19.85 -18.4Q18.5 -19.85 19.35 -21.7M36.6,-14.35Q31.65 -12.65 30.55 -7.25L30.2 -6.75Q27.1 -3.1 24.7 0.95L25.45 0.85Q27.1 0.2 27.65 1.55L27.7 2.2L29.25 2.75L32.1 3.65L32.15 4L31.5 5.15L29.75 6.45L29.95 6.65L30.3 7.15L30.35 7.95L30.1 8.65L43.9 6.95L45.15 6.9Q48.9 7.3 48.25 4.25L45.75 3.25L43.3 2.3L43.05 2.2Q41 3.65 38.45 3.2L41.9 0.15Q43.1 -0.8 42.55 -2.05Q41.1 -3.5 40.4 -5.1Q40.25 -5.35 40.4 -5.8L38.8 -5.45Q36.35 -4.6 35.55 -6.3Q36.45 -7.25 37.9 -7.5Q40 -7.85 41.45 -9.3L41.3 -11.1Q40.35 -14.4 36.65 -14.35L36.6 -14.35M31.15,-12.25Q31.95 -15.85 35.35 -16.95Q40.2 -17.55 42.05 -13.3Q43.05 -11.05 42.85 -8.8L42.95 -8.85L42.8 -8.05L42.8 -7.45L42.6 -7.4L41.85 -5.45L41.75 -5.1L41.95 -4.75L42 -4.85L42.6 -4.3L43.75 -3.45L43.75 -3.5L44.7 -4.45Q45.9 -5.3 47.35 -5.15Q53.6 -5.55 55.35 -0.1Q56.05 2 54.6 3.65Q52.25 6.4 49.25 6.35L48.85 7.05Q48.4 7.85 47.45 8L41.25 8.4Q38.95 8.35 36.8 9.1Q32.6 10.6 28.7 9Q28.35 8.85 28.7 8.4L28.9 8.1L28.95 8L28.55 7.8L28.1 7.6L28.05 7.5L28 6.8Q28.15 6.15 28.65 5.7L29.9 4.7L29.95 4.6L29.75 4.4L29.5 4.15L29.4 3.95L29.3 3.8L29.15 3.75Q28.45 3.55 27.75 3.75L25.85 3.65L25.75 3.55L25.65 3.2L25.65 2.85L25.85 2.55L26.35 2.05L26.4 1.95L24.95 2.25L23 2.1Q24.2 -2 27.35 -5.2Q30.25 -8.15 31.15 -12.25M53.65,-16.6Q47.55 -13.5 50.65 -8.45Q52.35 -5.7 55.95 -6.15Q62.05 -6.95 60.85 -12.85Q60.6 -14 59.5 -14.7Q56.8 -16.35 53.65 -16.6M54.25,-17.85Q61.65 -18 62.6 -11.45Q62.9 -9.05 61.25 -7.25Q56.95 -2.5 50.9 -6.25Q47.45 -8.4 48.35 -12.15Q48.85 -14.5 50.7 -16.3Q52.2 -17.7 54.25 -17.85M44.75,-2.45L45.3 -1.65Q46.1 -2 47.1 -1.2Q48.7 0.15 49.8 1.95Q50.5 3.15 50.6 4.55Q53.55 3.2 53.85 0.15Q53.95 -1.5 52.4 -2.45Q48.3 -5 44.2 -3.05L44.75 -2.45M63.6,16.6Q61.45 18.3 58.4 17.75L55.55 17.9L54.75 18.1Q51.6 18.65 49.7 16Q47.6 13.05 50.15 10.2Q51.65 8.5 53.95 8.95L54.25 8.55Q55.4 7.55 56.9 7.1L59.1 6.6Q66.2 6.75 65.3 13.6Q65.05 15.4 63.6 16.6M63.75,11.2Q63 7.75 59.3 8.15Q57.2 8.45 55.7 9.75Q53.95 11.25 51.95 10.6L51.75 10.5Q48.25 14.3 51.6 15.9Q53.4 15.8 55.3 15L56.6 14Q56.85 13.65 57.2 13.6Q59.85 16.15 63.4 14.8Q64.25 13.6 63.75 11.2M23.75,13.5Q21.8 14.85 19.6 15.05L18.95 15.2Q17.25 15.55 15.9 15.2Q10.6 17.8 5.15 18.8L5.05 18.7L4.95 18.35L5.15 17.8L5.65 17.3L5.65 17.2L5.5 17.05L5.45 16.95L5.4 16.85L5.4 16.7L5.4 16.6L5.4 16.5L5.45 16.35L5.6 16.15L5.9 15.9L5.95 15.85Q5.3 15.6 4.6 16.1L3.8 16.15L3.7 16.05L3.65 15.8L3.5 15.45L3.4 15Q6.85 13.5 10.05 11.05Q11.7 9.7 12.55 7.9L13.15 6.35Q13.8 4.35 15.8 3.65Q17.4 3.2 18.45 4.35Q19.55 5.5 19.2 7.1L19.15 7.4Q24.85 6.95 24.45 12.4Q24.4 13.05 23.75 13.5M17.55,5.1Q16.95 4.35 15.8 4.9Q14 6.85 13.35 9.1L12.9 9.75L7.4 13.9L6.6 14.35L7.15 14.5L7.55 14.7L7.65 14.9L7.7 15.15L7.65 15.5L7.55 15.6L7.55 15.65L7.75 15.8L7.95 16L8 16.15L8 16.6L7.85 17.05Q11.95 14.65 16.5 13.9Q18.15 12.85 20.15 11.85Q21.65 11.1 20.65 9.95L19.8 8.75L17.8 8.95Q17.45 9.05 17.25 8.75Q17.05 7.95 17.6 7.3Q18.35 6.45 17.85 5.45L17.55 5.1" />
<path style="fill:#E2E2E2;fill-opacity:0.498039" d="M29.9,-24.85Q33.85 -21.8 30.4 -19.05L29.45 -18.35L27.9 -18.7Q27 -18.75 26.1 -19.45Q25.55 -19.45 25.25 -18.9Q24.9 -18.25 24.15 -18.2L22.25 -17.7Q21.35 -18.05 21.15 -19.05Q19.9 -24.75 26.95 -25.7Q28.6 -25.85 29.9 -24.85M36.65,-14.35Q40.35 -14.4 41.3 -11.1L41.45 -9.3Q40 -7.85 37.9 -7.5Q36.45 -7.25 35.55 -6.3Q36.35 -4.6 38.8 -5.45L40.4 -5.8Q40.25 -5.35 40.4 -5.1Q41.1 -3.5 42.55 -2.05Q43.1 -0.8 41.9 0.15L38.45 3.2Q41 3.65 43.05 2.2L43.3 2.3L45.75 3.25L48.25 4.25Q48.9 7.3 45.15 6.9L43.9 6.95L30.1 8.65L30.35 7.95L30.3 7.15L29.95 6.65L29.75 6.45L31.5 5.15L32.15 4L32.1 3.65L29.25 2.75L27.7 2.2L27.65 1.55Q27.1 0.2 25.45 0.85L24.7 0.95Q27.1 -3.1 30.2 -6.75L30.55 -7.25Q31.65 -12.65 36.6 -14.35L36.65 -14.35M59.5,-14.7Q60.6 -14 60.85 -12.85Q62.05 -6.95 55.95 -6.15Q52.35 -5.7 50.65 -8.45Q47.55 -13.5 53.65 -16.6Q56.8 -16.35 59.5 -14.7M44.2,-3.05Q48.3 -5 52.4 -2.45Q53.95 -1.5 53.85 0.15Q53.55 3.2 50.6 4.55Q50.5 3.15 49.8 1.95Q48.7 0.15 47.1 -1.2Q46.1 -2 45.3 -1.65L44.75 -2.45L44.2 -3.05M63.4,14.8Q59.85 16.15 57.2 13.6Q56.85 13.65 56.6 14L55.3 15Q53.4 15.8 51.6 15.9Q48.25 14.3 51.75 10.5L51.95 10.6Q53.95 11.25 55.7 9.75Q57.2 8.45 59.3 8.15Q63 7.75 63.75 11.2Q64.25 13.6 63.4 14.8M17.85,5.45Q18.35 6.45 17.6 7.3Q17.05 7.95 17.25 8.75Q17.45 9.05 17.8 8.95L19.8 8.75L20.65 9.95Q21.65 11.1 20.15 11.85Q18.15 12.85 16.5 13.9Q11.95 14.65 7.85 17.05L8 16.6L8 16.15L7.95 16L7.75 15.8L7.55 15.65L7.55 15.6L7.65 15.5L7.7 15.15L7.65 14.9L7.55 14.7L7.15 14.5L6.6 14.35L7.4 13.9L12.9 9.75L13.35 9.1Q14 6.85 15.8 4.9Q16.95 4.35 17.55 5.1L17.85 5.45" />
</g>
</svg>
