<?xml version="1.0" encoding="utf-8"?>
<svg version="1.1" id="Layer_1"
xmlns="http://www.w3.org/2000/svg"
xmlns:xlink="http://www.w3.org/1999/xlink"
width="19px" height="24px"
xml:space="preserve">
<g id="743" transform="matrix(1, 0, 0, 1, -4.4, 3.9)">
<path style="fill:#000000;fill-opacity:1" d="M8.5,-0.6L9 -0.45L9.15 -0.35Q8.7 1.25 7.9 2.85Q6.7 5.35 4.4 5.6L4.4 5.55L6.05 3Q7.05 1.55 7.65 0L8.05 -0.7L8.5 -0.6M15.15,-3.85Q16.3 -4.1 16.65 -3.25L16.95 -2.45L16.95 -2.55L17 -2.6L17 -1.85L17 -1.6L17 -1.5L16.95 -1.45L16.65 -1.2L16.5 -1.1L15.85 -0.65L15.75 -0.6L15.4 -0.45L13.05 -0.25L13 -0.3L12.8 -0.65L12.75 -1.15L12.75 -1.3Q13.2 -1.75 13.3 -2.4Q13.5 -3.7 15.1 -3.85L15.15 -3.85M17.55,-0.5L18.55 -0.45L18.6 -0.4L18.65 -0.35L18.85 0.6L18.5 1.55L18.5 1.6L18.1 1.7Q17.1 1.75 16.2 1.2L16.2 1.1L16.15 0.7Q16.05 0.5 16.1 0.15L16.15 0.05L17.15 -0.35L17.55 -0.5M21.05,3.45L20.85 3.65L20.85 3.7L21.15 4.7L21.3 6.3L21.25 6.45Q18.7 7.65 17.55 6.4L16 6.55L15.2 7.3Q14.3 8.05 13.05 7.6L12.25 8.2Q11.1 9 10.65 7.75Q11.2 7.1 11.9 6.6L12.7 5.95L12.7 5.85L12.75 5.5L12.75 4.95L12.7 4.95L12.65 4.9L12.65 4.85L12.65 4.75Q12.75 4.6 12.9 4.6L13 4.6L14.4 4.6L14.45 4.55L15.3 4.6L15.35 4.5L15.35 4.35L15.4 4.2L15.45 4.15L15 4L14.95 3.95L14.85 3.85L14.85 3.75L14.8 3.6L14.75 3.45L14.65 3.2L14.7 3.05L14.75 3Q15.05 2.65 15.55 2.45Q15.95 2.3 16.4 2.45L16.45 2.4L16.45 2.3L16.5 2.25L16.6 2.15L16.65 2.15L16.75 2.1L17.1 2.1L18.45 2.25Q18.8 2.3 19 2.45L19.65 2.65L20.4 3.05L20.5 3.15L20.6 3.05L20.8 3.2L20.9 3.3L21.05 3.45M21.55,9.25L21.55 9.7L21.85 10.25L22 11.2L22.25 11.75Q22.7 12.65 22.45 13.75L22.4 13.85Q21.2 13.95 20.3 14.6L20.05 14.7L19.2 12.6L18.9 11.5Q18.6 12.2 17.9 12.75Q16.4 13.9 14.8 14.1Q14.4 13.4 14.65 12.8L14.6 12.85L14.45 12.85L15.5 11.85L16.45 10.75L16.65 10.5L16.7 10.7L17.3 9.9L17.45 9.75Q17.25 8.7 17.5 7.7L17.7 7.55L18.05 7.65L18.4 7.6L18.55 7.6L20 8.5L21.55 8.8L21.55 9.25M22.6,14.65L22.6 15L22.55 16.4L22.4 17.55Q21.5 17.8 20.7 18.4Q19.8 19 18.9 18.75L18.75 18.5Q18.5 18.1 18.6 17.7L18.5 17.5L18.5 17.25L18.35 17.25L18.55 16.85Q19 16.1 19.7 15.6L19.95 15L20.1 14.9L21.45 14.55L22.55 14.65L22.6 14.65M14.35,2.8Q12.55 4.5 10.7 2.3Q10.25 1.75 10.35 0.9Q10.4 0.4 10.7 0.05Q11.8 0.5 12.45 1.4Q13.15 2.35 14.25 2.7L14.35 2.8M15.6,15.1L15.55 16.2L15.1 18.15L14.75 18.9L14.65 19.1L14.2 19.6L14.15 19.7L12.35 19.45Q11.5 19.35 11.7 18.35Q11.9 17.55 12.55 17.05L12.8 17L12.6 17.4L13 17.05L13.1 17.1L13.6 15.5L14 14.55L14.65 14.7L15.35 14.95L15.6 15.1M19,16.8L18.95 16.85L18.95 16.95L19.05 16.8L19 16.8M19.4,16.3L19.35 16.3L19.3 16.35L19.35 16.4L19.4 16.3" />
</g>
</svg>
