<?xml version="1.0" encoding="utf-8"?>
<svg version="1.1" id="Layer_1"
xmlns="http://www.w3.org/2000/svg"
xmlns:xlink="http://www.w3.org/1999/xlink"
width="115px" height="108px"
xml:space="preserve">
<g id="334" transform="matrix(1, 0, 0, 1, -12.8, 71.95)">
<path style="fill:#E2E2E2;fill-opacity:0.00784314" d="M79.6,-66.8Q84.9 -69.2 90.5 -70.25Q108.2 -66.85 107.45 -49.5Q107.4 -47.75 106.65 -46.05Q102 -35.2 88.95 -37.35Q74.9 -39.6 72.15 -53.1Q70.15 -62.55 79.6 -66.8M14.45,-65.1Q18.25 -70.45 25.45 -71.65L29.65 -71.95Q44.65 -71.1 43.6 -56.6Q43.15 -49.75 36.15 -48.1Q20.8 -44.55 13.85 -56.85Q11.5 -61 14.45 -65.1M32.5,-18.05Q32.2 -17.2 32.25 -16.3Q31.05 -21.85 37.05 -23.45Q41.05 -24.5 45.05 -24.75Q54.5 -20.3 56.2 -11.4L56.35 -11.45L56.9 -5.4Q57.15 -2.8 55.45 -1Q53.35 2.95 47 1.9Q40.95 0.85 37.55 -4.25Q36.2 -6.35 35.15 -8.5Q33.8 -10 33.25 -12.8L33.05 -13.45L33.25 -13L32.55 -18.15L32.55 -18.2L32.5 -18.05M113.85,-31.75Q128.85 -30 127.45 -14.7Q125.8 3.45 107.55 5.55Q103.05 6.05 100.1 2.85L97.9 0Q89.7 -12.2 98.65 -23.5Q100.1 -25.3 102 -26.65Q107.2 -30.4 113.85 -31.75M81.1,35.15Q76.65 35.75 72.85 33.2Q60.9 25.05 68.95 13.4Q70.6 10.85 73.55 9.55Q75.55 8.6 77.5 8.2Q90.6 9.7 91.3 22.2Q92.05 33.7 81.1 35.15" />
</g>
</svg>
