<?xml version="1.0" encoding="utf-8"?>
<svg version="1.1" id="Layer_1"
xmlns="http://www.w3.org/2000/svg"
xmlns:xlink="http://www.w3.org/1999/xlink"
width="13px" height="8px"
xml:space="preserve">
<g id="1170" transform="matrix(1, 0, 0, 1, -40.6, 1.75)">
<path style="fill:#2E2E2E;fill-opacity:0.694118" d="M52.95,-1.3L50.5 -0.2Q48.95 0.5 48.95 0.85L48.3 1.2Q47.65 1.45 47.65 1.8Q47.65 2.95 50.5 3.85Q53.35 4.8 53.35 5.25L53.1 5.55L52.25 5.55L50.7 5.35L48.75 4.95L47.85 4.3L45.9 3.9L44.2 4.2L42.3 3.8L40.7 3.35L40.6 2.55Q40.6 1.15 41.4 0.95L45.7 -0.1L48.45 -1L52.65 -1.75L52.95 -1.3" />
</g>
</svg>
