<?xml version="1.0" encoding="utf-8"?>
<svg version="1.1" id="Layer_1"
xmlns="http://www.w3.org/2000/svg"
xmlns:xlink="http://www.w3.org/1999/xlink"
width="20px" height="17px"
xml:space="preserve">
<g id="1043" transform="matrix(1, 0, 0, 1, 11.15, 13.4)">
<path style="fill:#232323;fill-opacity:0.129412" d="M8.8,-12.5Q8.8 -11.9 7.8 -11.9Q7.45 -11.9 7.15 -12.3Q6.85 -12.55 6.85 -12.75Q6.85 -13.6 7.85 -13.35Q8.8 -13.15 8.8 -12.5M3.6,-7.4L3.1 -6.8L2.4 -6.8L1.95 -7.45Q1.95 -8.1 2.8 -8.05Q3.6 -7.95 3.6 -7.4M2.45,-3.3L2.2 -3.55L1.9 -3.4L1.85 -3.6L2.15 -4L2.7 -4.2L3.7 -3.55Q3.7 -3.05 3.1 -3.05Q2.75 -3.05 2.45 -3.3M5.5,-4.65Q4.75 -4.65 4.75 -5.35Q4.75 -5.9 5.15 -5.9L5.85 -5.65L6.35 -5.2L6.05 -4.85L5.5 -4.65M-4.45,-11L-5.1 -10.8Q-6.25 -10.8 -6.25 -11.5Q-6.25 -12.3 -5.25 -12.3Q-4.15 -12.3 -4.15 -11.25L-4.45 -11M-1.55,-1.1L-2 -1.65L-1.7 -2.05L-0.75 -2.3Q0.1 -2.3 0.25 -1.55Q0.25 -0.85 -0.5 -0.85L-1.55 -1.1M-3.7,-3.95Q-3.95 -3.6 -4.15 -3.6Q-5.15 -3.6 -5.15 -4.3L-4.3 -4.95Q-3.45 -5.2 -3.45 -4.45L-3.7 -3.95M-10.05,-0.2Q-10.2 0.1 -10.8 0.1L-11.15 -0.25L-10.05 -0.2M-0.4,2.55Q-0.4 3.05 -1.1 3.05L-2.15 2.85L-2.3 2.3Q-2.3 1.75 -1.5 1.75Q-0.9 1.75 -0.65 2.1L-0.4 2.55" />
</g>
</svg>
