<?xml version="1.0" encoding="utf-8"?>
<svg version="1.1" id="Layer_1"
xmlns="http://www.w3.org/2000/svg"
xmlns:xlink="http://www.w3.org/1999/xlink"
width="36px" height="39px"
xml:space="preserve">
<g id="426" transform="matrix(1, 0, 0, 1, 2.95, 16.45)">
<path style="fill:#000000;fill-opacity:0.4" d="M13.5,-12.85L11.65 -6.95Q11.3 -5.85 10.05 -5.5Q9.55 -5.3 9.05 -5.05L6.95 -6.45Q3.85 -8.7 0.15 -7.15Q-0.9 -7.8 -0.8 -9.1Q-0.6 -11 0.2 -12.75Q1 -14.5 2.4 -15.95L2.7 -16L3.55 -16L3.8 -15.95Q4.2 -15.3 4.85 -15.3Q7.35 -15.2 9.7 -16.25L10.2 -16.45Q14.45 -16.4 13.5 -12.85M21.95,-2.1Q22.9 -4.05 24.95 -4.75L25.8 -5.05Q26.9 -5.1 27.7 -4.35Q28.15 -3.95 28.7 -3.9L30.6 -3.6L30.8 -3.55Q32.05 -1.5 32.25 0.85Q32.55 5.25 28.6 4.2L27.2 3.45Q24.9 1.65 21.65 1.35L20.6 0.75Q20.5 -0.15 21.05 -0.75L21.95 -2.1M19.35,5.05L19.5 6.2L19.8 8.05Q19.95 9.9 18 9.7Q17.1 9.6 16.45 9.05L16.35 8.75L16.45 7.9L16.45 7L15.85 5.9L15.2 5.25L13.3 5.75Q11.4 6.15 10.1 7.4Q9.05 8.4 7.6 7.95Q7 7.45 7.05 6.65Q7.1 5.3 8.25 4.45L11.8 1.45L12.1 1.25Q13.8 1.05 15.1 1.95L17.75 3.7L19.35 5.05M2.9,5.8L3.15 5.9L3.25 6Q3.35 8.1 4.6 9.45Q5 9.85 4.9 10.7Q4.65 12.95 3.7 15L3.05 16.15Q2.55 16.3 2.15 15.75L1.3 14.35L1 14.05L0.85 14.1L0.45 14Q0.25 13.9 0.3 13.65L0.15 10.85Q-0.1 9.1 0.2 7.35Q0.4 6.55 1.2 6.3L2.45 5.8L2.9 5.8M8.35,16.95Q10.25 14.05 13.15 12.3Q17.85 12 17.35 15.3Q17.25 16.05 16.6 16.6Q13.35 19.3 9.1 18.6Q7.4 18.35 8.35 16.95" />
<path style="fill:#000000;fill-opacity:0.4" d="M5.55,-13L6 -13.8Q6.8 -14.7 7.85 -15.2L9.85 -15.85Q14 -15.65 14.2 -11.45Q14.35 -7.85 10.95 -6.85Q8.6 -6.15 6.7 -7.6Q2.95 -5.85 1.05 -9.4Q-0.35 -11.95 2.35 -13.2L5.55 -13M23.7,-5.55L24.2 -5.95Q24.55 -6.3 25.05 -6.35L25.85 -6.6Q29.65 -6.9 30.7 -3.7Q31.75 -0.55 28.65 0.55L25.8 0.65L24.7 0.2Q22.15 1.3 20.7 -0.95Q19.2 -3.35 21.45 -5.15Q22.45 -5.95 23.6 -5.45L23.7 -5.55M12.9,11.6Q6.15 11.85 7.05 6.25Q7.45 3.55 10.05 2.9Q17.35 4.2 14.5 10.55Q14.1 11.55 12.9 11.6M8.65,16.45L9.1 15.6L10.2 14.8L10.6 14.65Q12.25 14.7 13.4 15.25L13.65 15.05Q15.35 15.7 16.2 17.3Q17.05 18.85 16.15 20.1Q16.05 20.85 15.25 21.35Q10.95 24.35 8.15 19.95Q7.45 18.9 7.8 17.65L7.9 17.5L8 17.4L8.1 17.35L8.35 17.25L8.4 17.15L8.65 16.45M0.95,16.7Q1.85 16.75 2.45 17.45L3.8 18.7L4.7 19.4L4.75 19.55L4.8 19.7L4.8 19.85L4.8 19.95L4.8 20.1L4.8 20.25L4.75 20.4Q3.9 21.2 2.75 20.65L0.75 19.75L0.25 19.65L-0.1 18.95L-0.2 17.95Q-0.25 17.4 0.2 17.1Q0.55 16.8 0.95 16.7M0.35,13.85Q-1.75 14.5 -2.95 12.8L-2.95 12.65L-2.9 11.8Q-2.9 11.15 -2.55 10.5Q-2.2 9.85 -1.5 9.7Q1.15 9.15 1.7 11.55Q2.05 13.35 0.35 13.85" />
</g>
</svg>
