<?xml version="1.0" encoding="utf-8"?>
<svg version="1.1" id="Layer_1"
xmlns="http://www.w3.org/2000/svg"
xmlns:xlink="http://www.w3.org/1999/xlink"
width="242px" height="68px"
xml:space="preserve">
<g id="486" transform="matrix(1, 0, 0, 1, 42.85, -186.7)">
<path style="fill:#3A1D0F;fill-opacity:0.419608" d="M59.85,189.6Q59.95 188.65 60.85 188.35L61.55 188.05L62.2 187.7L63.45 187.05L64.3 186.75Q65.75 186.5 66.9 187.15L69.65 188.1Q71.35 188.35 72.5 189.5L72.9 189.85L73 190.25L73.05 190.65L73.05 191.05L73.05 191.45L73.05 191.8L73.05 192.2Q71.35 194.45 68.15 193.7Q63.7 192.6 59.95 189.85L59.85 189.6M47.2,215.05Q47.75 218.55 47.3 221.8Q46.7 226.55 41.75 227.95Q37 229.25 35.05 225.75L34.9 225.85L34.5 225.95L33.75 225.6Q33.45 225.35 33.4 224.95L33.45 224.6L33.65 224.3L34.1 224.1L34.35 223.95L34.55 223.25L34.75 222.1L35.3 221.7L35.8 221.3L36.25 220.95Q36.95 220.5 37.8 220.4L37.85 220L37.9 219.6L37.9 219.2L37.9 218.45L37.9 217.65L38.75 216.95L41.3 215.3L43.4 214L45.2 214.2L45.65 214.35L46.75 214.75L47.2 215.05M175.6,218.7Q178.45 218.4 181.15 219.25Q183.8 220.05 185.8 221.9Q187.1 223.1 186.85 225.1Q186.15 226.35 184.55 226.75Q180.65 227.8 177.55 225.5L173 222.5L173 222.1L173.1 221.35Q173.25 220.9 173.55 220.55L174.3 219.75L175.15 219L175.6 218.7M197.7,235.05L197.3 235.45L196.9 235.8L196 236.45L193.5 235.65Q192.6 235.25 191.7 235.4Q189.15 235.9 188.55 233.75L188.6 233.35Q188.7 232.95 188.95 232.65L189.85 231.8L190.95 230.9L191.3 230.7L194 231.2Q195.4 231.5 196.7 232.05Q198.05 232.6 198.35 233.85L198.3 234.25L198.05 234.6L197.7 235.05M-24,218.05Q-20.45 219.65 -18.9 223.65Q-17.85 226.4 -19.45 229.15Q-21.55 232.75 -25.6 232.95Q-28.35 231.75 -28.75 229.05Q-29.05 226.8 -28.15 224.6Q-27.45 222.85 -28.05 220.9L-27.5 220.15Q-26.75 219.2 -25.6 218.7Q-24.7 218.3 -24 218.05M-33.5,222.4Q-31.1 223.9 -31.45 226.95Q-31.65 228.85 -32.25 230.45Q-32.9 231.05 -33.9 231.2L-37.5 230.95Q-40.1 230.25 -42.3 228.65Q-43.05 228 -42.75 227L-42.5 225.5Q-42.2 222.95 -40.3 221.5L-38.15 220.25Q-35.65 221.05 -33.5 222.4" />
<path style="fill:#3A1D0F;fill-opacity:0.290196" d="M60.1,246.25L62.35 246.45Q64.3 246.6 66 247.55Q67.7 248.5 68.7 250.1L68.85 250.45Q68.9 251.3 68.25 251.95Q65.7 254.5 62.25 254.35Q60.2 254.25 58.4 253.2L56.5 253.75Q52.95 255 51 252.8L50.05 252L50.05 251.65L50.1 251.25L50.2 250.85L50.5 250.05L50.85 249.25L51.25 248.5Q51.75 248.15 52.3 248L56.3 247L60.1 246.25" />
</g>
</svg>
