<?xml version="1.0" encoding="utf-8"?>
<svg version="1.1" id="Layer_1"
xmlns="http://www.w3.org/2000/svg"
xmlns:xlink="http://www.w3.org/1999/xlink"
width="35px" height="9px"
xml:space="preserve">
<g id="1180" transform="matrix(1, 0, 0, 1, 1.6, 2.15)">
<path style="fill:#E2E2E2;fill-opacity:1" d="M26.45,1.1L26.45 1.95L-1.15 1.15L-1.15 0.1L26.45 1.1" />
<path style="fill:#1C0A00;fill-opacity:1" d="M26.45,1.95L26.45 1.1L26.45 0.1L-1.15 -1.35L-1.15 0.1L-1.15 1.15L-1.15 6L26.45 4.6L26.45 1.95M26.7,5.15L-1.6 6.85L-1.6 -2.15L26.7 -0.35L26.7 5.15" />
<path style="fill:#2E2E2E;fill-opacity:1" d="M26.45,4.6L-1.15 6L-1.15 1.15L26.45 1.95L26.45 4.6M26.45,1.1L-1.15 0.1L-1.15 -1.35L26.45 0.1L26.45 1.1" />
<path style="fill:#1C0A00;fill-opacity:1" d="M23.6,0.7L23.6 1.15L23.6 1.5L23.6 4.3L26.25 5.65L26.3 5.65L32.7 4.55L32.7 1.9L32.7 1.4L32.7 0.65L26.4 -0.6L26.1 -1.55L25.75 -0.35L23.6 0.7M33.35,-0.1L33.35 5.05L26.05 6.55L22.9 4.8L22.9 0.1L26.05 -1.7L33.35 -0.1" />
<path style="fill:#2E2E2E;fill-opacity:1" d="M26.45,0.95L26.4 -0.6L32.7 0.65L32.7 1.4L26.45 0.95M32.7,1.9L32.7 4.55L26.3 5.65L26.6 1.45L32.7 1.9" />
<path style="fill:#E2E2E2;fill-opacity:1" d="M32.7,1.4L32.7 1.9L26.6 1.45L26.3 5.65L25.75 1.5L23.6 1.5L23.6 1.15L25.65 0.9L25.75 -0.35L26.1 -1.55L26.4 -0.6L26.45 0.95L32.7 1.4" />
<path style="fill:#666666;fill-opacity:1" d="M25.75,1.5L26.3 5.65L26.25 5.65L23.6 4.3L23.6 1.5L25.75 1.5M23.6,1.15L23.6 0.7L25.75 -0.35L25.65 0.9L23.6 1.15" />
</g>
</svg>
