<?xml version="1.0" encoding="utf-8"?>
<svg version="1.1" id="Layer_1"
xmlns="http://www.w3.org/2000/svg"
xmlns:xlink="http://www.w3.org/1999/xlink"
width="71px" height="89px"
xml:space="preserve">
<g id="11" transform="matrix(1, 0, 0, 1, 35.3, 44.05)">
<linearGradient
id="LinearGradID_115" gradientUnits="userSpaceOnUse" gradientTransform="matrix(0.0174561, -0.0345764, 0.0345764, 0.0174561, -8.25, -3.1)" spreadMethod ="pad" x1="-819.2" y1="0" x2="819.2" y2="0" >
<stop  offset="0" style="stop-color:#949494;stop-opacity:1" />
<stop  offset="0.521569" style="stop-color:#BDBDBD;stop-opacity:1" />
<stop  offset="1" style="stop-color:#525252;stop-opacity:1" />
</linearGradient>
<path style="fill:url(#LinearGradID_115) " d="M27.55,-26.35L27 -26.95L26.2 -27.15L25.05 -27.1L22.65 -27.05Q15.9 -27.05 11.4 -28.65Q6.75 -30.3 1.25 -33.5L1.3 -33.45L0.8 -33.75L0.05 -34L-0.7 -33.8L-1.25 -33.5L-1.3 -33.5Q-6.8 -30.3 -11.4 -28.65Q-15.95 -27.05 -22.6 -27.05L-25 -27.1L-26.1 -27.15L-26.9 -26.95L-27.5 -26.35L-27.7 -25.55L-27.65 -24.4Q-27.3 -2.8 -21.65 9.7L-21.65 9.75Q-16 22.3 -1.6 33.25L-1.55 33.3L-0.85 33.8L-0.4 34L0.05 34.05L0.95 33.75L1.6 33.25L1.55 33.25Q16 22.3 21.7 9.75Q27.35 -2.75 27.7 -24.4L27.75 -25.55L27.55 -26.35M32,-31.7Q31.05 -5.05 23.8 11Q16.4 26.95 -0.05 39.9Q-16.5 26.95 -23.8 11.05Q-31.1 -5.05 -31.95 -31.7L-30.75 -31.7Q-21.2 -31.75 -13.85 -34.15Q-7.1 -36.4 -0.05 -40.3Q7 -36.4 13.8 -34.15Q21.15 -31.75 30.75 -31.7L30.85 -31.7L32 -31.7M2.25,-35.25L2.25 -35.2L2.3 -35.2L2.25 -35.25" />
<radialGradient
id="RadialGradID_116" gradientUnits="userSpaceOnUse" gradientTransform="matrix(0.046936, 0, 0, 0.046936, 0.05, 0)" spreadMethod ="pad" cx="0" cy="0" r="819.2" fx="0" fy="0" >
<stop  offset="0"  style="stop-color:#C4C4C4;stop-opacity:1" />
<stop  offset="1"  style="stop-color:#FFFFFF;stop-opacity:1" />
</radialGradient>
<path style="fill:url(#RadialGradID_116) " d="M27.75,-25.55L27.7 -24.4Q27.35 -2.75 21.7 9.75Q16 22.3 1.55 33.25L1.6 33.25L0.95 33.75L0.05 34.05L-0.4 34L-0.85 33.8L-1.55 33.3L-1.6 33.25Q-16 22.3 -21.65 9.75L-21.65 9.7Q-27.3 -2.8 -27.65 -24.4L-27.7 -25.55L-27.5 -26.35L-26.9 -26.95L-26.1 -27.15L-25 -27.1L-22.6 -27.05Q-15.95 -27.05 -11.4 -28.65Q-6.8 -30.3 -1.3 -33.5L-1.25 -33.5L-0.7 -33.8L0.05 -34L0.8 -33.75L1.3 -33.45L1.25 -33.5Q6.75 -30.3 11.4 -28.65Q15.9 -27.05 22.65 -27.05L25.05 -27.1L26.2 -27.15L27 -26.95L27.55 -26.35L27.75 -25.55M8.45,-21.4Q4.6 -22.8 0.2 -25.4L-0.05 -25.5L-0.25 -25.4L-0.4 -25.3Q-4.7 -22.8 -8.5 -21.4Q-12.3 -20 -18.1 -20L-20.1 -20.05L-20.55 -20.05L-20.55 -19.55Q-20.2 -2.1 -15.75 7.5Q-11.25 17.05 -0.4 25.3L-0.3 25.35L-0.05 25.55L0.25 25.35Q11.25 17.1 15.7 7.5Q20.2 -2.1 20.55 -19.55L20.55 -20.05L20.1 -20.05L18.1 -20Q12.3 -20 8.45 -21.4" />
<linearGradient
id="LinearGradID_117" gradientUnits="userSpaceOnUse" gradientTransform="matrix(-0.00888062, -0.0229492, 0.0229492, -0.00888062, 2.85, -5.1)" spreadMethod ="pad" x1="-819.2" y1="0" x2="819.2" y2="0" >
<stop  offset="0" style="stop-color:#002342;stop-opacity:1" />
<stop  offset="1" style="stop-color:#004C7C;stop-opacity:1" />
</linearGradient>
<path style="fill:url(#LinearGradID_117) " d="M18.1,-20L20.1 -20.05L20.55 -20.05L20.55 -19.55Q20.2 -2.1 15.7 7.5Q11.25 17.1 0.25 25.35L-0.05 25.55L-0.3 25.35L-0.4 25.3Q-11.25 17.05 -15.75 7.5Q-20.2 -2.1 -20.55 -19.55L-20.55 -20.05L-20.1 -20.05L-18.1 -20Q-12.3 -20 -8.5 -21.4Q-4.7 -22.8 -0.4 -25.3L-0.25 -25.4L-0.05 -25.5L0.2 -25.4Q4.6 -22.8 8.45 -21.4Q12.3 -20 18.1 -20M0.65,-23.6L0.85 -23.7L-0.75 -23.65L-0.55 -23.55L-0.75 -23.6L-0.4 -23.4L0 -23.2L0.65 -23.6M-0.4,-23Q-4.35 -20.8 -7.8 -19.5Q-11.9 -18 -18.1 -18L-18.5 -18Q-18 -2.25 -13.9 6.65L-13.95 6.65Q-9.9 15.25 -0.4 22.75L0 23.05Q9.8 15.45 13.9 6.65Q18 -2.25 18.5 -18L18.1 -18Q11.9 -18 7.8 -19.5Q4.1 -20.85 0 -23.2L-0.4 -23" />
<path style="fill:#404040;fill-opacity:1" d="M35.35,-35.1L35.3 -33.75Q34.7 -5.4 26.9 11.95Q19.15 29.3 0.7 43.4L-0.05 44.05L-0.85 43.4Q-19.25 29.25 -27 11.95Q-34.7 -5.4 -35.25 -33.75L-35.3 -35.1L-33.95 -35.05L-30.75 -35Q-21.95 -35 -15.05 -37.25Q-8.2 -39.45 -0.7 -43.7Q-0.35 -43.85 -0.05 -44.05L0.55 -43.7Q8.05 -39.45 14.95 -37.25Q21.9 -35 30.75 -35L33.95 -35.05L35.35 -35.1M30.75,-33.7Q21.5 -33.75 14.4 -36.05Q7.3 -38.4 -0.05 -42.6Q-7.45 -38.4 -14.5 -36.05Q-21.55 -33.75 -30.75 -33.7L-34 -33.8Q-33.4 -5.15 -25.65 11.85Q-17.9 28.8 -0.05 42.45Q17.8 28.8 25.6 11.8Q33.35 -5.15 34.05 -33.8L30.75 -33.7M2.3,-35.2L2.25 -35.2L2.25 -35.25L2.3 -35.2" />
<path style="fill:#004978;fill-opacity:1" d="M0,-23.2L-0.4 -23.4L-0.75 -23.6L-0.55 -23.55L-0.75 -23.65L0.85 -23.7L0.65 -23.6L0 -23.2M-0.4,22.75Q-9.9 15.25 -13.95 6.65L-13.9 6.65Q-18 -2.25 -18.5 -18L-18.1 -18Q-11.9 -18 -7.8 -19.5Q-4.35 -20.8 -0.4 -23L-0.4 22.75" />
<linearGradient
id="LinearGradID_118" gradientUnits="userSpaceOnUse" gradientTransform="matrix(0.0115356, 0, 0, 0.0282288, 9.05, -0.1)" spreadMethod ="pad" x1="-819.2" y1="0" x2="819.2" y2="0" >
<stop  offset="0" style="stop-color:#003F69;stop-opacity:1" />
<stop  offset="1" style="stop-color:#004978;stop-opacity:1" />
</linearGradient>
<path style="fill:url(#LinearGradID_118) " d="M-0.4,-23L0 -23.2Q4.1 -20.85 7.8 -19.5Q11.9 -18 18.1 -18L18.5 -18Q18 -2.25 13.9 6.65Q9.8 15.45 0 23.05L-0.4 22.75L-0.4 -23" />
<path style="fill:#999999;fill-opacity:1" d="M30.85,-31.7L30.75 -31.7Q21.15 -31.75 13.8 -34.15Q7 -36.4 -0.05 -40.3Q-7.1 -36.4 -13.85 -34.15Q-21.2 -31.75 -30.75 -31.7L-31.95 -31.7Q-31.1 -5.05 -23.8 11.05Q-16.5 26.95 -0.05 39.9Q16.4 26.95 23.8 11Q31.05 -5.05 32 -31.7L30.85 -31.7M34.05,-33.8Q33.35 -5.15 25.6 11.8Q17.8 28.8 -0.05 42.45Q-17.9 28.8 -25.65 11.85Q-33.4 -5.15 -34 -33.8L-30.75 -33.7Q-21.55 -33.75 -14.5 -36.05Q-7.45 -38.4 -0.05 -42.6Q7.3 -38.4 14.4 -36.05Q21.5 -33.75 30.75 -33.7L34.05 -33.8" />
</g>
</svg>
