<?xml version="1.0" encoding="utf-8"?>
<svg version="1.1" id="Layer_1"
xmlns="http://www.w3.org/2000/svg"
xmlns:xlink="http://www.w3.org/1999/xlink"
width="9px" height="12px"
xml:space="preserve">
<g id="643" transform="matrix(1, 0, 0, 1, -3.5, 0.5)">
<path style="fill:#000000;fill-opacity:1" d="M6.3,-0.25L6.4 -0.3L6.45 -0.15L6.7 -0.25L6.75 -0.25L6.9 -0.25L7.2 -0.15L7.25 -0.15L7.4 -0.3L7.65 -0.5L8.65 -0.25L9.4 0.2L9.5 0.3Q9.8 0.95 9.5 1.5Q9.25 2.2 9.15 3L9 3.6L11.95 4.4L12.25 4.5Q12.55 5.4 12.3 6.35L11.65 8.6L11.2 8.95L10.25 8.3L10.05 7.4L10 7.2L7.5 6.95L7.6 7.5L7.8 9.95L7.6 10.4L3.75 10.8Q3.4 10.55 3.5 10.25L3.55 9.55L3.85 9.2Q4.15 8.9 4.6 8.85L4.9 8.75Q3.9 6.85 4.5 4.75L5.7 0.35L5.95 -0.1L6.1 -0.2L6.3 -0.25" />
</g>
</svg>
