<?xml version="1.0" encoding="utf-8"?>
<svg version="1.1" id="Layer_1"
xmlns="http://www.w3.org/2000/svg"
xmlns:xlink="http://www.w3.org/1999/xlink"
width="15px" height="26px"
xml:space="preserve">
<g id="574" transform="matrix(1, 0, 0, 1, 0, 0)">
<path style="fill:#000000;fill-opacity:1" d="M11.45,2.9L11.65 3.45L9.45 4.35L9.05 4.65L8.9 5.2L9.15 5.9L10 5.65Q10.6 5.3 11.35 5.2Q12.05 5.05 12.4 5.55L11.85 6L11.5 6.55L11.55 7L10.55 9.15L10.75 9.6L10.75 9.85L11.1 10L11.2 10.2L12.35 11.3L12.4 12.2L11.7 13.4L11.45 13.7L11.1 13.95L11.2 14.85L11 15.35L10.45 16L9.45 15.95L10.65 18.45L10 19.2L10.4 19.95Q10.5 20.25 10.8 19.85L11.7 20.45L13.25 21.2Q14.25 21.7 14.35 22.65L14 23.5L13.6 23.75L12.95 25.05L10.15 24.9L10.15 23.85L10.75 23.35L10.05 23.1L9.8 22.8Q9 22.9 8.35 22.5L7.8 22.15Q7.2 21.9 7.6 21.6L6.6 18.75L6.15 18.95L6 19.9Q6.35 20.7 6.1 21.5L5.95 22.3L5.8 23.05L5.8 23.1L5.5 23.7L5.25 24.1L4.8 25.3L1.25 24.6L0.9 24.5L0.6 24.2L0 23.9L0.5 22.9L1.8 22.3L3.15 22.6L3.4 19.5L2.2 17.5L3.15 17.7L4.8 15.9L4.75 15.65L3.85 15.6L3.75 13.8L4.45 13.65L4.75 13.45L5.05 11.75L4.65 11.15L4.7 8.75L4.4 8.1L4.7 7.8L4.95 7.35L5.45 6.7L5.6 6.6L5.2 6.5L4.35 5.85L3.9 5.1L3.75 4.1L3.35 3.7L3.45 3L3.7 2.7L4 2L4.85 1.15L5.7 0.55L6.25 0.3L7.35 0L7.7 0.2L8.25 0.6L8.7 1.5L8.95 3.05L9.25 3.5L10.45 3L10.9 2.7L11.45 2.9M11.7,5.55L9.9 6.05L9.3 6.15L10.1 8.15L10.85 6.5L11.65 5.95L11.7 5.55M12,5.6L12.1 5.45L11.95 5.45L12 5.6" />
</g>
</svg>
