<?xml version="1.0" encoding="utf-8"?>
<svg version="1.1" id="Layer_1"
xmlns="http://www.w3.org/2000/svg"
xmlns:xlink="http://www.w3.org/1999/xlink"
width="12px" height="13px"
xml:space="preserve">
<g id="512" transform="matrix(1, 0, 0, 1, -3.3, 0.65)">
<path style="fill:#000000;fill-opacity:1" d="M6.85,-0.6L9 -0.55L10.7 -0.5L11.65 2.9L11 3.5L11.05 4.1L15.1 6.55L12.2 11.4L10.2 10.45L10.2 9.1L10.65 8.4L9.9 7.65L8.85 7.95L9.35 10.5L9.05 10.8L7.2 11.85L4.2 11.95L3.95 9.4L5.55 8.55L5.1 7.55L4.75 5.95L3.3 4.15L4.8 4.3L5.75 -0.15Q6.05 -0.8 6.85 -0.6" />
</g>
</svg>
