<?xml version="1.0" encoding="utf-8"?>
<svg version="1.1" id="Layer_1"
xmlns="http://www.w3.org/2000/svg"
xmlns:xlink="http://www.w3.org/1999/xlink"
width="12px" height="10px"
xml:space="preserve">
<g id="531" transform="matrix(1, 0, 0, 1, -3.2, 8.65)">
<path style="fill:#000000;fill-opacity:1" d="M5.65,-8.65L11.4 -8.35L12.15 -8.15L12.55 -6.75L12.95 -6.45L14.4 -3.3L13.8 -2.25L9.25 0.35L4.5 1.25L4.05 0.9L3.65 -0.9L3.3 -1L3.2 -1.5L3.3 -1.95Q3.25 -2.3 3.6 -2.65Q3.75 -2.9 4 -2.85Q5.2 -3.45 6.5 -3.4L7.7 -4.25L6.8 -5.1L6.15 -7.1L6.05 -7.2L5.75 -8.35L5.8 -8.35L5.65 -8.65" />
</g>
</svg>
