<?xml version="1.0" encoding="utf-8"?>
<svg version="1.1" id="Layer_1"
xmlns="http://www.w3.org/2000/svg"
xmlns:xlink="http://www.w3.org/1999/xlink"
width="120px" height="41px"
xml:space="preserve">
<g id="1473" transform="matrix(1, 0, 0, 1, 0, -0.3)">
<linearGradient
id="LinearGradID_685" gradientUnits="userSpaceOnUse" gradientTransform="matrix(1.52588e-005, 0.024292, -0.0244141, 1.52588e-005, 60, 20.3)" spreadMethod ="pad" x1="-819.2" y1="0" x2="819.2" y2="0" >
<stop  offset="0" style="stop-color:#333333;stop-opacity:0.8" />
<stop  offset="0.215686" style="stop-color:#000000;stop-opacity:0.8" />
<stop  offset="0.752941" style="stop-color:#000000;stop-opacity:0.8" />
<stop  offset="1" style="stop-color:#333333;stop-opacity:0.8" />
</linearGradient>
<path style="fill:url(#LinearGradID_685) " d="M118.3,20.5L119.55 38.4L116.65 40.3L4.1 40.2L0.3 38.05L2.2 20.65L0.5 4.1L0.5 2.4L2.8 0.3L7.25 0.3L116.5 0.4L119.75 2.8L118.3 20.5" />
<radialGradient
id="RadialGradID_686" gradientUnits="userSpaceOnUse" gradientTransform="matrix(0.0720825, 0, 0, 0.039566, 61.75, 39.95)" spreadMethod ="pad" cx="0" cy="0" r="819.2" fx="0" fy="0" >
<stop  offset="0"  style="stop-color:#FF9900;stop-opacity:0.8" />
<stop  offset="1"  style="stop-color:#000000;stop-opacity:0" />
</radialGradient>
<path style="fill:url(#RadialGradID_686) " d="M116.35,40.75L3.8 40.65L0 38.5L1.9 21.1L0.2 4.55L0.2 2.85L2.5 0.75L6.95 0.75L116.2 0.85L119.45 3.25L118 20.95L119.25 38.85L116.35 40.75" />
</g>
</svg>
