<?xml version="1.0" encoding="utf-8"?>
<svg version="1.1" id="Layer_1"
xmlns="http://www.w3.org/2000/svg"
xmlns:xlink="http://www.w3.org/1999/xlink"
width="15px" height="11px"
xml:space="preserve">
<g id="1052" transform="matrix(1, 0, 0, 1, 7.4, 8.4)">
<path style="fill:#FFCC00;fill-opacity:1" d="M6.3,-6.25L4.35 -4.35L3.2 -3.25L4.7 -3.2L4.85 -3.15Q4.8 -2.65 4.2 -2.3L2.7 -1.5L2.65 -1.45L3.95 -0.75L4.7 0.1L1.5 0.45L1.5 0.85L1.7 1.25L1.7 1.65L1.65 1.75Q1.05 1.75 0.65 1.25L-0.15 0.55L-1.95 1.05L-2.45 1.1L-3.55 1.5L-4.85 1.3Q-4.7 0.9 -4.2 0.6L-3.55 0.3L-2.95 -0.1L-4.3 -0.15L-6.3 -0.4L-7.3 -0.6L-7.35 -0.8Q-6.45 -1.25 -5.2 -1.3L-4.05 -1.45L-2.45 -1.7L-2.85 -2.15L-3.5 -2.9L-4.7 -4.15Q-5 -4.5 -4.55 -4.6L-3.8 -4.4L-3.45 -4.3L-2.3 -3.8L-1.95 -3.65L-1.5 -3.45L-1 -3.4L-0.95 -3.4L-0.8 -3.25L-0.55 -4.35L-0.2 -5.7L-0.05 -6.05L-0.05 -7L0.05 -7.35Q0.8 -7.25 0.8 -6.55L0.85 -5.55L0.95 -4.65L0.95 -4.55Q2.55 -5.25 4 -6.25L6.55 -8.15L7.15 -8.4L7.3 -8.4L7.45 -8.35L7.55 -8.3Q7.2 -7.2 6.3 -6.25M6.15,-7L6.05 -6.95L5.4 -6.6L4 -5.75L2.4 -5Q1.5 -4.6 0.95 -4.05L0.85 -4L0.75 -3.95L0.65 -4.4L0.65 -5.1L0.55 -5.5L0.55 -5.6L0.5 -5.6L0.4 -5.7L0.25 -5.55L-0.05 -5.05L-0.45 -3.9L-0.8 -2.8L-1.8 -3.3Q-2.55 -3.75 -3.25 -3.7L-3.6 -3.95L-3.7 -3.85L-2.7 -2.5L-2.35 -1.95L-1.9 -1.45L-1.95 -1.45L-2.95 -1.3Q-4.25 -1.15 -5.2 -0.65L-5.2 -0.6L-3.3 -0.45L-2.45 -0.3L-2 -0.1L-2.85 0.25L-4.15 1.05Q-3.7 1.35 -3 1.05L0.05 0.3L0.35 0.6L0.85 1.05Q1.2 1.5 1.55 1.25L1.55 1.2L1.45 1L1.4 0.8L1.3 0.5L1.25 0.2L3.95 -0.2L3.5 -0.65L2.65 -1.1L2.1 -1.55L2.9 -2.1Q3.6 -2.4 4 -2.8L3.7 -3L2.35 -2.8L3.8 -4.4L5.5 -5.9Q6.2 -6.4 6.1 -6.9L6.15 -7" />
<path style="fill:#FFFF00;fill-opacity:1" d="M6.1,-6.9Q6.2 -6.4 5.5 -5.9L3.8 -4.4L2.35 -2.8L3.7 -3L4 -2.8Q3.6 -2.4 2.9 -2.1L2.1 -1.55L2.65 -1.1L3.5 -0.65L3.95 -0.2L1.25 0.2L1.3 0.5L1.4 0.8L1.45 1L1.55 1.2L1.55 1.25Q1.2 1.5 0.85 1.05L0.35 0.6L0.05 0.3L-3 1.05Q-3.7 1.35 -4.15 1.05L-2.85 0.25L-2 -0.1L-2.45 -0.3L-3.3 -0.45L-5.2 -0.6L-5.2 -0.65Q-4.25 -1.15 -2.95 -1.3L-1.95 -1.45L-1.9 -1.45L-2.35 -1.95L-2.7 -2.5L-3.7 -3.85L-3.6 -3.95L-3.25 -3.7Q-2.55 -3.75 -1.8 -3.3L-0.8 -2.8L-0.45 -3.9L-0.05 -5.05L0.25 -5.55L0.4 -5.7L0.5 -5.6L0.55 -5.6L0.55 -5.5L0.65 -5.1L0.65 -4.4L0.75 -3.95L0.85 -4L0.95 -4.05Q1.5 -4.6 2.4 -5L4 -5.75L5.4 -6.6L6.05 -6.95L6.15 -7L6.1 -6.9M3.85,-5.15L2.5 -4.45L1.9 -4.15L1.5 -3.9L0.95 -3.55L0.85 -3.45L0.75 -3.35L0.7 -3.35L0.65 -3.7L0.25 -4.55Q0.05 -4.45 0 -4.15L-0.25 -3.3L-0.3 -2.8L-0.3 -2.75L-0.4 -2.6L-0.4 -2.5L-0.65 -2.15Q-1.2 -2 -1.65 -2.45L-1.75 -2.6L-1.95 -2.7L-2.2 -2.85L-2.05 -2.7L-1.5 -2.05L-0.95 -1.35L-1.05 -1.1L-1.3 -1.05L-1.7 -0.95L-1.35 -0.8L-0.55 -0.55L-0.45 -0.3L-0.45 -0.25L-0.2 -0.25L-0.15 -0.25L-0.05 -0.3L0 -0.3L0.3 -0.1L0.45 0L0.55 0.1L0.55 -0.1L0.55 -0.25L0.55 -0.35L0.65 -0.55L0.7 -0.55L1.45 -0.5Q2.05 -0.3 2.65 -0.5Q2.2 -0.55 1.8 -0.75L1.15 -1.1L1 -1.3L1.5 -1.8L1.9 -1.95L2.1 -2.2L2.45 -2.35L2.05 -2.3L1.95 -2.3L1.05 -2.15Q0.85 -2.05 0.8 -2.25L1 -2.85L1.55 -3.2L1.95 -3.65L2 -3.7L3 -4.4L3.7 -5.05L3.85 -5.15" />
<path style="fill:#FFFFFF;fill-opacity:1" d="M3.7,-5.05L3 -4.4L2 -3.7L1.95 -3.65L1.55 -3.2L1 -2.85L0.8 -2.25Q0.85 -2.05 1.05 -2.15L1.95 -2.3L2.05 -2.3L2.45 -2.35L2.1 -2.2L1.9 -1.95L1.5 -1.8L1 -1.3L1.15 -1.1L1.8 -0.75Q2.2 -0.55 2.65 -0.5Q2.05 -0.3 1.45 -0.5L0.7 -0.55L0.65 -0.55L0.55 -0.35L0.55 -0.25L0.55 -0.1L0.55 0.1L0.45 0L0.3 -0.1L0 -0.3L-0.05 -0.3L-0.15 -0.25L-0.2 -0.25L-0.45 -0.25L-0.45 -0.3L-0.55 -0.55L-1.35 -0.8L-1.7 -0.95L-1.3 -1.05L-1.05 -1.1L-0.95 -1.35L-1.5 -2.05L-2.05 -2.7L-2.2 -2.85L-1.95 -2.7L-1.75 -2.6L-1.65 -2.45Q-1.2 -2 -0.65 -2.15L-0.4 -2.5L-0.4 -2.6L-0.3 -2.75L-0.3 -2.8L-0.25 -3.3L0 -4.15Q0.05 -4.45 0.25 -4.55L0.65 -3.7L0.7 -3.35L0.75 -3.35L0.85 -3.45L0.95 -3.55L1.5 -3.9L1.9 -4.15L2.5 -4.45L3.85 -5.15L3.7 -5.05" />
</g>
</svg>
