<?xml version="1.0" encoding="utf-8"?>
<svg version="1.1" id="Layer_1"
xmlns="http://www.w3.org/2000/svg"
xmlns:xlink="http://www.w3.org/1999/xlink"
width="18px" height="28px"
xml:space="preserve">
<g id="1011" transform="matrix(1, 0, 0, 1, 0, 0)">
<path style="fill:#D9E9FF;fill-opacity:1" d="M11.9,6.7Q12.15 6.7 12.4 6.5L12.95 6.2L14.7 7.3L14.75 7.35Q13.85 7.7 13 6.65Q11.35 7.3 10.3 8.5Q10 8.9 9.45 9.1L7.75 8.9Q7.15 8.55 6.55 8.9L5.35 10L5.7 10.7L6.35 10.8L5.65 11.7Q4.8 13.15 6.4 14.2Q7.1 14.65 7.95 14.8L11.1 13.4Q10.95 14.3 9.3 14.75L8.75 14.95L8.85 15L10.35 14.8Q11.65 15.35 10.95 16.8L10.9 17.1L11.35 17.2L11.45 17.05L11.5 17.05Q12.25 16.9 13.15 15.7Q13.55 15.25 14.1 15.1Q15.15 14.95 15.8 15.7L16.4 15.4Q16.85 15.2 17 15.55Q15.95 16.5 14.55 15.75Q13.8 15.35 13.4 16.05Q12.75 17.05 11.9 17.35L14.35 17.8Q12.65 18.25 10.8 17.35Q10.45 18.15 9.5 18.95L9.45 19Q11.95 19.25 10.85 21.2Q11.3 22.15 11 22.8L11.9 22.65Q14.25 22.65 14.2 24.85L14.2 24.9Q15.5 25.25 16.55 26.05L16.85 26L17.45 25.5Q17.65 26.65 16.05 26.4Q15.4 26.3 15.05 25.8L14.25 25.3Q13.55 25.1 13.45 24.2Q13.35 22.8 11.85 23.2Q11.2 23.35 10.95 22.9L10.45 23.4L9.95 23.7L12.35 25.9Q10.35 25.6 9.7 23.55Q9.65 23.3 9.95 23.25L10.6 22.9L10.35 21.55L10.25 21.2Q11.65 19.6 9.15 19.2Q8.85 19.15 9.05 18.9L10.5 17.2Q10.35 17.05 10.5 16.8Q11.5 14.8 9.15 15.2L8.95 15.25Q8.65 15.9 8.1 15.95Q7.85 17.25 6.4 17.95L6.2 17.9Q5.2 17.1 4.2 18.2L3.4 19.15L3.6 19.6Q3.8 20.15 3.3 20.6Q1.45 22.3 2 24.25L2.45 24.65Q5.35 25.25 5.05 27.6L4.95 27.6Q4.6 25.3 1.7 24.5Q0.95 24.3 1.2 23.5Q1.8 21.7 2.75 20.1L2.95 19.2Q0.7 18.3 0.15 16.3L0.15 15.9L0.05 14.35Q-0.1 13.95 0.35 13.65Q0.85 13.3 1.5 13.3Q-0.3 14.1 0.75 15.65L0.75 16.1Q0.3 17.15 1.75 17.8L3.15 18.8Q3.7 17.9 5 17.25Q6 16.75 6.7 17.6L7.55 15.85L7.4 15.8L7.5 15.75L7.6 15.75L7.65 15.35Q5.6 15 5.1 13.05Q4.85 12.1 5.45 11.35L5.45 11.3Q2.7 11.3 2.5 8.3L2.2 7.35Q1.75 6.4 0.55 6.5L0.5 6.4Q0.75 6.05 1.25 6L1.75 5.95Q1.4 6.3 2.25 6.75Q2.75 7 2.8 7.55Q3.1 9.45 4.4 10.65Q4.75 11 5.3 10.85L5.15 10.1Q5.05 9.2 5.85 8.7Q7.05 7.95 8.25 8.3Q8.1 7.8 8.55 7.05L9.25 5.95Q7.35 4.1 7.25 1.35Q7.2 0.6 8 0.3L9.4 0L9.8 0.1L9.85 0.15L7.85 1.15Q7.25 1.4 7.5 2L8.6 4.5L9.45 5.8Q9.75 6.15 9.35 6.55Q8.5 7.4 8.65 8.45L8.75 8.5Q9.65 8.95 10.2 7.8Q10.65 6.85 11.9 6.7M8.15,15.4L8.15 15.55L8.5 15.4L8.2 15.4L8.15 15.4" />
</g>
</svg>
