<?xml version="1.0" encoding="utf-8"?>
<svg version="1.1" id="Layer_1"
xmlns="http://www.w3.org/2000/svg"
xmlns:xlink="http://www.w3.org/1999/xlink"
width="66px" height="54px"
xml:space="preserve">
<g id="827" transform="matrix(1, 0, 0, 1, 4.8, 8.7)">
<path style="fill:#0B0B0B;fill-opacity:1" d="M11.85,-3.7L11.15 -2.5L3.7 -7.2L3.9 -8.7L11.85 -3.7M-0.3,-2L3.3 -6.05L10.6 -1.7L7.7 2.95L3.6 0.35L7.15 3.75L5.6 6.3L1.35 3.6L3.45 0.25L-0.3 -2M14.1,42.15L8.9 42.15L5.8 42.15L3.5 41.45L2.75 41.05Q2.05 40.6 1.4 39.95Q0.05 38.6 -0.5 36.85L-0.65 36.2L-0.8 34.6Q-0.8 32.95 -0.15 31.55L0.15 30.85L0.6 30.35L1.4 29.35L1.55 29.25L2.9 27.6L3.8 26.55L4.75 25.4L5.95 23.95L9.25 19.95L9.85 19.2L12 16.6L12.5 16L13.35 14.95L10.6 13.75L8.25 13.3L7.1 14.7Q7.25 12.65 7.75 10.8L6 9.7L5.85 8.35L13.95 -4.75L15.35 -5.45L19.5 -2.9Q23.35 -4.6 27.9 -4.6Q36.5 -4.6 42.6 1.5Q48.05 6.95 48.7 14.3L46.75 14.75L44.15 16L45 17.1L46 18.3L47.4 20.05L47.95 20.75L49.6 22.8L50.55 24L51.55 25.2L52.35 26.2L53.35 27.45L54.2 28.5L55 29.45L55.7 30.3Q57 32.2 57 34.6L56.7 36.9Q56.15 38.6 54.75 39.95L54.2 40.5Q52.2 42.15 49.6 42.2L49.4 42.2L49.2 42.2L48.15 42.1L43.9 42.1L39.35 42.1L28.7 42.15L24.75 42.15L14.1 42.15M7.1,17.7L7.05 16.9L7.55 17.8L7.1 17.7M25.45,-1.8L24.1 0.2L22.95 3.35L23.05 3.2L23.1 3.2Q25.3 1 28.45 1Q31.35 1 33.5 2.9L33.75 3.15L34.75 4.4L34.1 1.05L33.15 -1.15L30.2 -1.4L29.1 0.85L28.25 -1.55L25.45 -1.8M42.45,7L40.1 7.75L41.15 5.45L39.3 3.35L36.95 3.9L35.1 4.8L42.2 13.6L43.55 11.5L44.4 9.2L42.45 7M37.55,14.85L38.65 14.25L40.95 14.85L43.15 17.6L43.25 19L42.2 20.2L41.9 20.15L41.2 19.35L40.85 19.25L40.6 20.1L39.75 18.45L40.15 18L39.7 17.45L37.55 14.85M43.55,22.15L42.55 20.95L42.5 20.3L43.35 19.8L43.55 22.15M47.65,24.9L46.65 26L45.3 24.3L47.65 24.9M42.9,40.3L39.85 40.3L40.15 39.15L38.6 38L40.85 38.15L41.35 36.5L43.15 36.2L43.1 35.5L43.1 35.3Q43.1 34.5 43.25 33.8Q43.65 31.6 45.3 29.9Q46.4 28.8 47.75 28.25L48 28.2L48.35 28.05L47.6 27.15L46.7 26.05L48.45 25.1L49.4 25.35L50.85 27.15L51 27.2L51.55 27.85L51.65 27.95L52.3 28.75L53.95 31.05L54.5 31.95Q56.55 35.8 54.65 37.85L54.35 38.15L54.25 38.2Q50.75 41 44.65 40.5L44.4 40.3L44 39.95L43 38.75L42.4 39.35L42.9 40.3M38.1,37.65L37.9 36.1L38.45 36.25L38.55 38L38.1 37.65M34.65,35.15L35.55 34.65Q36.55 35.55 37.7 36L37.5 37.2L34.65 35.15M22.15,12.85L21.9 12.45L21.15 10.8Q20.85 9.75 20.85 8.6L20.85 8.55L23.2 5.85L23.25 5.8L23.8 5.15L23.8 5.1L23.9 4.95L24.5 4.45L25.95 3.6Q27.1 3.1 28.45 3.1Q30.25 3.1 31.7 4L32.95 4.95L33 5L33.4 5.45L33.7 5.85L36.05 8.9L35.8 10.75L34.95 12.55L34.8 12.85L34.55 13.2L36.05 13.6L35.85 13.85L35.1 14.65L34.35 15.35Q32.35 16.9 29.75 16.9L27.3 16.55L26.5 16.2L26.95 17.2L25.8 18.4L27.2 20.1L28.65 19.35Q29.95 20.5 31.55 20.95L31.65 22.7L33.95 22.85L34.2 22.15L34.95 23.55Q33.7 24.9 33.25 26.5L31.6 26.6L31.35 28.75L32.15 29L31 31.2L31.8 31.15L32.8 29.15L32.95 29.2L33.25 31.1L33.85 32.5L32.7 33.7L33.85 35.1L33.65 35.1L30.75 37.15L30.55 35.55L30.1 37.6L27.9 39.2L27.85 39.2L28.2 40.3L25.25 40.3L25.55 39.15L25.35 39L23.5 37.65L23.35 36.35L23.05 36.4L22.9 37.2L22 36.55L21.8 36.55L21.7 36.55L21.55 36.55L20 36.4L19.05 36.1L18.25 35.7L17.45 36.25L16.15 37.15L15.95 35.55L15.5 37.6L13.25 39.2L13.6 40.3L11.8 40.3L11.5 40.55L10.55 40.6Q5.45 40.65 2.4 38.2Q1.25 37.25 1.15 35.8Q1 34 2.4 31.55L2.85 30.8L4.55 28.55L5.15 27.75L5.6 27.3L5.75 27.1L6.55 26.2L6.35 26.2L7.65 24.65L9.1 24.3L10.9 25.4L9.85 24.1L13.25 23.25L13.85 22.5L14.15 18.95L15.5 19.8L14.2 18.15L14.35 16.5L16.1 14.35L18 13.9L19.8 15L18.75 13.7L22.15 12.85M36.65,13.75L37.85 14.05L37.35 14.6L36.65 13.75M52.7,27.65L52.05 26.9L51.45 26.25L36.85 8.15L36.85 8.1L34.65 5.45L33.65 4.25L33.35 3.95L33.25 3.9Q31.25 2.1 28.45 2.1Q26.35 2.1 24.65 3.15L24.45 3.25Q23.9 3.6 23.4 4.05L23.2 4.25L23.05 4.45L22.75 4.75L22.45 5.15L21.15 6.65L21.2 6.4L21.1 6.7L20.55 7.3L20.55 7.4L4 27.55L4.05 27.55L3.6 28.15L2 30.35L1.55 31.1Q0.95 32.25 0.7 33.35L0.55 33.95Q0.1 36.55 1.65 38.65Q3.3 40.85 9.85 41.25L10.5 41.25L13.1 41.3L13.15 41.25L43.55 41.25L43.55 41.3Q51.6 41.35 54.25 39.4L55 38.65L55.75 37.35Q57.25 33.7 53.65 28.8L52.9 27.85L52.85 27.8L52.7 27.65M53.5,34.7L53.5 34.9L53.35 35.95L53 36.7L49.4 34.75L52.8 37.6L52.85 37.65L53.35 36.9L53.8 35.95L53.95 34.8L53.95 34.65L53.85 33.8L49.7 34.65L53.5 34.65L53.5 34.7M51.55,30.6Q51 30.25 50.4 30.15L49.3 30L48.35 30.15L49.3 34.5L49.3 34.55L49.3 30.55L49.35 30.55L50.15 30.65L51.35 31.05L49.45 34.55L52.35 31.15L51.55 30.6M44.8,35.7L49.2 34.75L46.25 38.15L47.05 38.7Q47.65 39.05 48.35 39.2L49.15 39.3L49.3 39.3L50.3 39.2L49.35 34.75L49.3 34.75L49.3 38.85L49.25 38.85L48.25 38.75L47.25 38.3L49.25 34.75L49.2 34.75L49.25 34.65L45.2 34.65Q45.2 33.55 45.7 32.65L49.3 34.65L49.3 34.6L45.85 31.6L45.25 32.4Q44.65 33.4 44.65 34.65L44.8 35.7M30.5,4.35L29.2 3.85L28.25 3.75L27.3 3.9L28.25 8.3L28.25 4.3L28.3 4.3L29.15 4.4L30.3 4.8L28.35 8.3L31.3 4.9Q30.95 4.55 30.5 4.35M32.9,8.4L32.8 7.55L28.65 8.4L32.45 8.4L32.45 8.45L32.35 9.45L32.3 9.65L31.95 10.45L28.35 8.5L31.8 11.4L32.3 10.65L32.8 9.4L32.9 8.8L32.9 8.4M24.2,6.15Q23.6 7.15 23.6 8.4L23.65 8.95L23.75 9.45L24.3 9.35L24.35 9.35L27.8 8.6L28.15 8.5L25.2 11.9L26 12.45Q27 13.05 28.25 13.05L29.25 12.95L28.3 8.5L28.25 8.5L28.25 12.6Q27.1 12.6 26.2 12.05L28.2 8.5L28.15 8.5L28.2 8.4L24.15 8.4Q24.15 7.35 24.6 6.55L24.65 6.4L28.25 8.4L28.25 8.35L24.8 5.35L24.55 5.6L24.45 5.75L24.2 6.15M21.35,24.1Q19.35 24.15 17.85 25.45L17.45 25.8L17.4 25.9Q15.9 27.4 15.8 29.5L15.75 29.9L15.75 30.1Q15.8 32.25 17.3 33.85L17.45 34L17.7 34.2L19 35.15L19.05 35.15L20 35.5L20.75 35.65L21.45 35.7L21.55 35.7L22.05 35.7Q24.05 35.5 25.55 34.1L25.65 34L26.05 33.6L26.9 32.2L26.2 32.35L25.75 33.05L25.35 32.3Q24.65 32.1 24.15 31.6L23.8 31.15L23.45 31.55Q22.75 32.25 21.8 32.25Q20.85 32.25 20.15 31.55Q19.45 30.85 19.45 29.9Q19.45 28.95 20.15 28.25Q20.85 27.55 21.8 27.55Q22.75 27.55 23.45 28.25L23.7 28.55L24.15 27.9L24.25 27.8L24.1 27.6L23.65 27.2L25.05 26.45L24.4 27.7Q24.85 27.35 25.4 27.25L25.65 26.7L26 27.15L26.75 27.25L25.95 26.15L25.65 25.8L25.4 25.55Q24 24.3 22.15 24.15L21.55 24.1L21.35 24.1M34.45,21.2L35.5 21.1L34.25 21.9L34.45 21.2M39.45,21.15L40.6 20.1L40.3 21.05L39.45 21.15M37.4,20.4L38.45 21.35Q37.75 21.55 37.15 21.85L36.15 20.9L37.4 20.4M18.55,8.65L22.05 4.45L19.5 3.35L17.15 2.9L15.25 5.2L16.45 7.4L14 6.75L12.2 8.9L13.15 11.15L14.7 13.35L18 9.35L18.55 8.65M19.9,27.25L19.5 27.6L19.2 28L18.35 26.45L19.9 27.25M16.95,29.8L18.6 29.3L18.55 29.9L18.6 30.35L17 29.85L16.95 29.8M18.8,28.55L16.4 29.3Q16.55 27.7 17.7 26.45L18.8 28.55M10.35,36.75L10.35 36.8Q9.8 37.75 8.9 38.3L6.75 34.8L8.3 39L9.1 38.6L9.85 38.15L9.9 38.1L10.75 36.95L11.1 36.15L7.05 34.85L10.2 36.65L10.35 36.75M10.7,32.25Q10.15 31.25 9.05 30.65Q8.6 30.4 8.15 30.25L6.75 34.55L8.75 31.1L8.8 31.1Q9.75 31.65 10.3 32.55L6.85 34.6L11.1 33.1L10.7 32.25M19.5,32.2L19.75 32.45L18.4 33.15L19.15 31.75L19.5 32.2M18.75,31.1L17.6 33.3Q16.45 31.95 16.35 30.3L18.75 31L18.75 31.1M4.6,31.1L6.7 34.65L6.75 34.6L5.25 30.25Q4.7 30.35 4.35 30.65L3.6 31.2L3 31.9L2.7 32.3L2.3 33.3L6.55 34.7L2.3 36.15L2.5 36.65L2.75 37Q3.3 38.05 4.4 38.7L5.3 39.1L6.7 34.75L6.65 34.75L4.6 38.3Q3.6 37.7 3.15 36.75L6.6 34.7L6.55 34.7L6.65 34.6L3.15 32.6L3.45 32.15L4.1 31.5Q4.3 31.25 4.6 31.1M5.8,42.3L8.1 42.25L6.8 42.35L5.8 42.3M27.85,27.65L27.75 27.65L27.7 27.75L27.85 27.9L28.2 28.3L28.55 27.6L27.85 27.65M27.3,28.45Q26.75 27.9 26 27.9Q25.35 27.9 24.85 28.3L24.65 28.45Q24.15 29 24.15 29.75L24.15 29.9Q24.2 30.6 24.65 31.1L24.8 31.25L26 31.6L26.55 31.55L26.8 31.45L27.3 31.1Q27.85 30.55 27.85 29.75L27.75 29.15L27.35 28.5L27.3 28.45M27.2,28.75L27.6 29.5L27.6 29.75Q27.6 30.4 27.1 30.85L26.75 31.2L26 31.35L25.9 31.35L25 30.95L24.9 30.85Q24.4 30.4 24.4 29.75Q24.4 29.05 24.9 28.65L24.95 28.65Q25.35 28.15 26 28.15Q26.7 28.15 27.1 28.65L27.2 28.75M22.95,26.85L22.35 24.75Q23.7 24.95 24.85 25.85L22.95 26.85M21.8,26.65L21.2 26.7L21.75 25L22.25 26.7L21.8 26.65M24.4,31.9L25.05 33.15L23.8 32.5L24.1 32.2L24.4 31.9M23.2,32.85L25.05 33.85Q23.8 34.85 22.25 35.05L22.9 33L23.2 32.85M21.8,33.15L22.2 33.15L21.75 34.55L21.3 33.1L21.8 33.15M20.6,32.95L21.25 35.1Q19.5 35 18.25 33.9L20.3 32.8L20.6 32.95M29.15,31.3L31.1 27.45L30.3 27.5L28.35 31.35L29.15 31.3M20.5,26.85L18.45 25.75Q19.6 24.8 21.2 24.7L20.5 26.85" />
<path style="fill:#BD8051;fill-opacity:1" d="M13.95,-4.75L5.85 8.35L5.6 6.3L7.15 3.75L3.6 0.35L7.7 2.95L10.6 -1.7L3.3 -6.05L-0.3 -2L3.9 -8.7L3.7 -7.2L11.15 -2.5L11.85 -3.7L13.95 -4.75M45,17.1L45 17.05L46.05 18.25L46 18.3L45 17.1M47.4,20.05L47.7 19.75L48.35 20.4L47.95 20.75L47.4 20.05M49.6,22.8L49.8 22.55L50.9 23.8L50.55 24L49.6 22.8M39.95,13.6L38.65 14.25L37.55 14.85L37.35 14.6L37.85 14.05L39.15 12.65L37.45 10.5L34.8 12.85L34.95 12.55L35.8 10.75L36.8 9.85L36.05 8.9L33.7 5.85L33.4 5.45L33 5L32.95 4.95L31.7 4Q30.25 3.1 28.45 3.1Q27.1 3.1 25.95 3.6L24.5 4.45L23.9 4.95L23.8 5.1L23.8 5.15L23.25 5.8L23.2 5.85L20.85 8.55L19.9 9.75L21.15 10.8L21.9 12.45L22.15 12.85L19.25 10.5L17.7 12.4L18.75 13.7L19.8 15L18 13.9L17 13.25L16.1 14.35L14.35 16.5L13.6 17.4L14.2 18.15L15.5 19.8L14.15 18.95L12.95 18.2L11.2 20.3L13.85 22.5L13.25 23.25L10.6 21.05L9 23.05L9.85 24.1L10.9 25.4L9.1 24.3L8.35 23.8L7.65 24.65L6.35 26.2L6.55 26.2L5.75 27.1L5.6 27.3L5.15 27.75L4.55 28.55L2.85 30.8L2.4 31.55Q1 34 1.15 35.8Q1.25 37.25 2.4 38.2Q5.45 40.65 10.55 40.6L11.5 40.55L11.8 40.3L13.6 40.3L14.9 40.3L15.5 37.6L15.95 35.55L16.15 37.15L16.55 40.3L19.1 40.3L19.05 36.1L20 36.4L20.05 40.3L22.25 40.3L22.9 37.2L23.05 36.4L23.35 36.35L23.5 37.65L23.85 40.3L25.25 40.3L28.2 40.3L29.5 40.3L30.1 37.6L30.55 35.55L30.75 37.15L31.15 40.3L33.7 40.3L33.65 35.1L33.85 35.1L34.1 35.4L34.6 35.15L34.65 40.3L36.85 40.3L37.5 37.2L37.7 36L37.9 36.1L38.1 37.65L38.45 40.3L39.85 40.3L42.9 40.3L44.4 40.3L44.65 40.5Q50.75 41 54.25 38.2L54.35 38.15L54.65 37.85Q56.55 35.8 54.5 31.95L53.95 31.05L52.3 28.75L51.65 27.95L51.55 27.85L51 27.2L50.85 27.15L49.4 25.35L49 24.85L48.45 25.1L46.7 26.05L46.65 26L47.65 24.9L48.4 24.1L46.65 21.9L44.7 23.6L44.1 22.85L46.05 21.2L44.45 19.2L43.35 19.8L42.5 20.3L42.5 20.25L42.2 20.2L43.25 19L43.8 18.4L43.15 17.6L40.95 14.85L39.95 13.6M47.75,28.25L47.75 28.2L47.6 27.15L48.35 28.05L48 28.2L47.75 28.25M43.55,22.15L43.7 22.35L43.55 22.25L43 22.05L42.7 21.8L42.55 21.45L42.55 20.95L43.55 22.15M53.35,27.45L54 27.25L54.2 28.5L53.35 27.45M52.85,27.8L52.9 27.85L53.65 28.8Q57.25 33.7 55.75 37.35L55 38.65L54.25 39.4Q51.6 41.35 43.55 41.3L43.55 41.25L13.15 41.25L13.1 41.3L10.5 41.25L9.85 41.25Q3.3 40.85 1.65 38.65Q0.1 36.55 0.55 33.95L0.7 33.35Q0.95 32.25 1.55 31.1L2 30.35L3.6 28.15L4.05 27.55L4 27.55L20.55 7.4L20.55 7.3L21.1 6.7L21.2 6.4L21.15 6.65L22.45 5.15L22.75 4.75L23.05 4.45L23.2 4.25L23.4 4.05Q23.9 3.6 24.45 3.25L24.65 3.15Q26.35 2.1 28.45 2.1Q31.25 2.1 33.25 3.9L33.35 3.95L33.65 4.25L34.65 5.45L36.85 8.1L36.85 8.15L51.45 26.25L52.05 26.9L52.7 27.65L52.85 27.8M53.5,34.65L49.7 34.65L53.85 33.8L53.95 34.65L53.95 34.8L53.8 35.95L53.35 36.9L52.85 37.65L52.8 37.6L49.4 34.75L53 36.7L53.35 35.95L53.5 34.9L53.5 34.7L53.5 34.65M52.35,31.15L49.45 34.55L51.35 31.05L50.15 30.65L49.35 30.55L49.3 30.55L49.3 34.55L49.3 34.5L48.35 30.15L49.3 30L50.4 30.15Q51 30.25 51.55 30.6L52.35 31.15M44.65,34.65Q44.65 33.4 45.25 32.4L45.85 31.6L49.3 34.6L49.3 34.65L45.7 32.65Q45.2 33.55 45.2 34.65L49.25 34.65L49.2 34.75L49.25 34.75L47.25 38.3L48.25 38.75L49.25 38.85L49.3 38.85L49.3 34.75L49.35 34.75L50.3 39.2L49.3 39.3L49.15 39.3L48.35 39.2Q47.65 39.05 47.05 38.7L46.25 38.15L49.2 34.75L44.8 35.7L44.65 34.65M31.3,4.9L28.35 8.3L30.3 4.8L29.15 4.4L28.3 4.3L28.25 4.3L28.25 8.3L27.3 3.9L28.25 3.75L29.2 3.85L30.5 4.35Q30.95 4.55 31.3 4.9M32.9,8.8L32.8 9.4L32.3 10.65L31.8 11.4L28.35 8.5L31.95 10.45L32.3 9.65L32.35 9.45L32.45 8.45L32.45 8.4L28.65 8.4L32.8 7.55L32.9 8.4L32.9 8.8M24.45,5.75L24.55 5.6L24.8 5.35L28.25 8.35L28.25 8.4L24.65 6.4L24.6 6.55Q24.15 7.35 24.15 8.4L28.2 8.4L28.15 8.5L28.2 8.5L26.2 12.05Q27.1 12.6 28.25 12.6L28.25 8.5L28.3 8.5L29.25 12.95L28.25 13.05Q27 13.05 26 12.45L25.2 11.9L28.15 8.5L27.8 8.6L24.35 9.35L24.3 9.35L23.75 9.45L23.65 8.95L23.6 8.4Q23.6 7.15 24.2 6.15L24.45 5.75M35.3,14.75L34.35 15.35L35.1 14.65L35.85 13.85L35.3 14.75M18,9.35L18.5 8.6L18.55 8.65L18 9.35M9.25,19.95L9.05 19.8L9.6 19L9.85 19.2L9.25 19.95M12,16.6L12.5 15.95L12.5 16L12 16.6M10.2,36.65L7.05 34.85L11.1 36.15L10.75 36.95L9.9 38.1L9.85 38.15L9.1 38.6L8.3 39L6.75 34.8L8.9 38.3Q9.8 37.75 10.35 36.8L10.35 36.75L10.2 36.65M11.1,33.1L6.85 34.6L10.3 32.55Q9.75 31.65 8.8 31.1L8.75 31.1L6.75 34.55L8.15 30.25Q8.6 30.4 9.05 30.65Q10.15 31.25 10.7 32.25L11.1 33.1M2.9,27.6L3.6 26.35L3.8 26.55L2.9 27.6M4.1,31.5L3.45 32.15L3.15 32.6L6.65 34.6L6.55 34.7L6.6 34.7L3.15 36.75Q3.6 37.7 4.6 38.3L6.65 34.75L6.7 34.75L5.3 39.1L4.4 38.7Q3.3 38.05 2.75 37L2.5 36.65L2.3 36.15L6.55 34.7L2.3 33.3L2.7 32.3L3 31.9L3.6 31.2L4.35 30.65Q4.7 30.35 5.25 30.25L6.75 34.6L6.7 34.65L4.6 31.1Q4.3 31.25 4.1 31.5" />
<path style="fill:#000000;fill-opacity:1" d="M50.55,24L50.9 23.8L49.8 22.55L49.6 22.8L47.95 20.75L48.35 20.4L47.7 19.75L47.4 20.05L46 18.3L46.05 18.25L45 17.05L45 17.1L44.15 16L46.75 14.75L48.7 14.3L49.1 14.2L50.95 16.3L49.9 18.6L50.95 18.25L52.25 17.85L54.2 20.05L53.35 22.35L51.55 25.2L50.55 24M52.35,26.2L52.6 25.7L56.75 26.15L59 26.9L59.45 29.7L57.35 31.1L59.8 31.65L60.3 34.55L58.4 36.05L56.7 36.9L57 34.6Q57 32.2 55.7 30.3L55 29.45L54.2 28.5L54 27.25L53.35 27.45L52.35 26.2M54.2,40.5L54.15 40.9L53.5 43.15L50.75 43.75L49.6 42.2Q52.2 42.15 54.2 40.5M48.15,42.1L49.2 42.2L48.8 44.2L45.9 44.8L44.35 43L43.9 42.1L48.15 42.1M39.35,42.1L39.05 43.15L37.9 45.25L35.1 45.25L34.05 42.95L33.1 45.25L30.15 45.3L29 43.2L28.7 42.15L39.35 42.1M24.75,42.15L24.45 43.15L23.3 45.25L20.5 45.25L19.45 42.95L18.5 45.25L15.55 45.3L14.4 43.2L14.1 42.15L24.75 42.15M5.8,42.15L8.9 42.15L7.75 43.2L5.7 44.4L3.3 42.9L3.5 41.45L5.8 42.15M1.4,39.95Q2.05 40.6 2.75 41.05L1.6 41.85L-0.95 40.35L-0.8 37.95L-0.5 36.85Q0.05 38.6 1.4 39.95M1.55,29.25L1.4 29.35L0.6 30.35L0.15 30.85L-0.15 31.55Q-0.8 32.95 -0.8 34.6L-0.65 36.2L-3.5 33.35L-4.8 31.3L-3.45 28.85L-0.9 29.1L-2.45 27.1L-1 24.55L1.4 24.6L4.75 25.4L3.8 26.55L3.6 26.35L2.9 27.6L1.55 29.25M5.95,23.95L4.25 21.55L3.3 19.3L5.1 17.15L6.3 17.5L7.1 17.7L7.55 17.8L7.05 16.9L6.35 15.6L7.1 14.7L8.25 13.3L10.6 13.75L13.35 14.95L12.5 16L12.5 15.95L12 16.6L9.85 19.2L9.6 19L9.05 19.8L9.25 19.95L5.95 23.95M28.25,-1.55L29.1 0.85L30.2 -1.4L33.15 -1.15L34.1 1.05L34.75 4.4L33.75 3.15L33.5 2.9Q31.35 1 28.45 1Q25.3 1 23.1 3.2L23.05 3.2L22.95 3.35L24.1 0.2L25.45 -1.8L28.25 -1.55M44.4,9.2L43.55 11.5L42.2 13.6L35.1 4.8L36.95 3.9L39.3 3.35L41.15 5.45L40.1 7.75L42.45 7L44.4 9.2M43.15,17.6L43.8 18.4L43.25 19L43.15 17.6M43.35,19.8L44.45 19.2L46.05 21.2L44.1 22.85L43.7 22.35L43.55 22.15L43.35 19.8M45.3,24.3L44.7 23.6L46.65 21.9L48.4 24.1L47.65 24.9L45.3 24.3M48.45,25.1L49 24.85L49.4 25.35L48.45 25.1M42.4,39.35L43 38.75L44 39.95L44.4 40.3L42.9 40.3L42.4 39.35M38.55,38L38.6 38L40.15 39.15L39.85 40.3L38.45 40.3L38.1 37.65L38.55 38M37.5,37.2L36.85 40.3L34.65 40.3L34.6 35.15L34.65 35.15L37.5 37.2M33.65,35.1L33.7 40.3L31.15 40.3L30.75 37.15L33.65 35.1M27.85,39.2L27.9 39.2L30.1 37.6L29.5 40.3L28.2 40.3L27.85 39.2M25.35,39L25.55 39.15L25.25 40.3L23.85 40.3L23.5 37.65L25.35 39M22.9,37.2L22.25 40.3L20.05 40.3L20 36.4L21.55 36.55L21.7 36.55L21.8 36.55L22 36.55L22.9 37.2M17.45,36.25L18.25 35.7L19.05 36.1L19.1 40.3L16.55 40.3L16.15 37.15L17.45 36.25M13.25,39.2L15.5 37.6L14.9 40.3L13.6 40.3L13.25 39.2M7.65,24.65L8.35 23.8L9.1 24.3L7.65 24.65M9.85,24.1L9 23.05L10.6 21.05L13.25 23.25L9.85 24.1M13.85,22.5L11.2 20.3L12.95 18.2L14.15 18.95L13.85 22.5M14.2,18.15L13.6 17.4L14.35 16.5L14.2 18.15M16.1,14.35L17 13.25L18 13.9L16.1 14.35M18.75,13.7L17.7 12.4L19.25 10.5L22.15 12.85L18.75 13.7M20.85,8.6Q20.85 9.75 21.15 10.8L19.9 9.75L20.85 8.55L20.85 8.6M36.05,8.9L36.8 9.85L35.8 10.75L36.05 8.9M36.65,13.75L36.25 13.25L36.05 13.6L34.55 13.2L34.8 12.85L37.45 10.5L39.15 12.65L37.85 14.05L36.65 13.75M38.65,14.25L39.95 13.6L40.95 14.85L38.65 14.25M18.5,8.6L18 9.35L14.7 13.35L13.15 11.15L12.2 8.9L14 6.75L16.45 7.4L15.25 5.2L17.15 2.9L19.5 3.35L22.05 4.45L18.55 8.65L18.5 8.6M6.8,42.35L8.1 42.25L5.8 42.3L6.8 42.35" />
<path style="fill:#805A3D;fill-opacity:1" d="M28.35,31.35L30.3 27.5L31.1 27.45L29.15 31.3L28.35 31.35" />
<path style="fill:#0E0E0E;fill-opacity:1" d="M46.65,26L46.7 26.05L47.6 27.15L47.75 28.2L47.75 28.25Q46.4 28.8 45.3 29.9Q43.65 31.6 43.25 33.8Q43.1 34.5 43.1 35.3L43.1 35.5L41.3 35.85L40.95 36.05L40.75 36.35L40.4 37.45L39.15 37.4L39.1 36.2L38.95 35.85L38.6 35.65Q37.2 35.2 36 34.15L35.65 34L35.25 34.1L34.3 34.55L33.6 33.75L34.3 32.95L34.5 32.6L34.4 32.2L33.95 31.05L33.85 30.7L33.6 29.2L33.45 28.8L33.1 28.6L32.05 28.3L32.2 27.25L33.25 27.15L33.65 27.05L33.85 26.7Q34.3 25.2 35.4 23.95L35.6 23.6L35.5 23.25L34.95 22.25L35.9 21.6L36.75 22.35Q36.85 22.5 37.1 22.5L37.45 22.45Q38.75 21.75 40.3 21.75L40.65 21.6L40.9 21.25L41.3 20L41.9 20.15L42.2 20.2L42.5 20.25L42.5 20.3L42.55 20.95L42.55 21.45L42.7 21.8L43 22.05L43.55 22.25L43.7 22.35L44.1 22.85L44.7 23.6L45.3 24.3L46.65 26M35.85,13.85L36.05 13.6L36.25 13.25L36.65 13.75L37.35 14.6L37.55 14.85L39.7 17.45L39.25 18.05Q39.1 18.2 39.1 18.4L39.2 18.8L39.8 19.95L38.8 20.8L37.8 19.9L37.45 19.75L37.05 19.8Q35.8 20.45 34.4 20.55L34.05 20.75L33.85 21.05L33.5 22.15L32.25 22.1L32.2 20.9L32.05 20.55L31.7 20.35Q30.3 19.9 29.1 18.85L28.75 18.7L28.35 18.8L27.4 19.25L26.7 18.45L27.4 17.65L27.6 17.3L27.5 16.9L27.3 16.55L29.75 16.9Q32.35 16.9 34.35 15.35L35.3 14.75L35.85 13.85M42.2,27.1Q41.6 26.5 40.75 26.5Q39.85 26.5 39.25 27.1Q38.65 27.7 38.65 28.6Q38.65 29.5 39.25 30.05Q39.85 30.7 40.75 30.7Q41.6 30.7 42.2 30.05Q42.8 29.5 42.8 28.6Q42.8 27.7 42.2 27.1" />
<path style="fill:#604129;fill-opacity:1" d="M38.55,38L38.45 36.25L37.9 36.1L37.7 36Q36.55 35.55 35.55 34.65L34.65 35.15L34.6 35.15L34.1 35.4L33.85 35.1L32.7 33.7L33.85 32.5L33.25 31.1L32.95 29.2L32.8 29.15L31.8 31.15L31 31.2L32.15 29L31.35 28.75L31.6 26.6L33.25 26.5Q33.7 24.9 34.95 23.55L34.2 22.15L33.95 22.85L31.65 22.7L31.55 20.95Q29.95 20.5 28.65 19.35L27.2 20.1L25.8 18.4L26.95 17.2L26.5 16.2L27.3 16.55L27.5 16.9L27.6 17.3L27.4 17.65L26.7 18.45L27.4 19.25L28.35 18.8L28.75 18.7L29.1 18.85Q30.3 19.9 31.7 20.35L32.05 20.55L32.2 20.9L32.25 22.1L33.5 22.15L33.85 21.05L34.05 20.75L34.4 20.55Q35.8 20.45 37.05 19.8L37.45 19.75L37.8 19.9L38.8 20.8L39.8 19.95L39.2 18.8L39.1 18.4Q39.1 18.2 39.25 18.05L39.7 17.45L40.15 18L39.75 18.45L40.6 20.1L40.85 19.25L41.2 19.35L41.9 20.15L41.3 20L40.9 21.25L40.65 21.6L40.3 21.75Q38.75 21.75 37.45 22.45L37.1 22.5Q36.85 22.5 36.75 22.35L35.9 21.6L34.95 22.25L35.5 23.25L35.6 23.6L35.4 23.95Q34.3 25.2 33.85 26.7L33.65 27.05L33.25 27.15L32.2 27.25L32.05 28.3L33.1 28.6L33.45 28.8L33.6 29.2L33.85 30.7L33.95 31.05L34.4 32.2L34.5 32.6L34.3 32.95L33.6 33.75L34.3 34.55L35.25 34.1L35.65 34L36 34.15Q37.2 35.2 38.6 35.65L38.95 35.85L39.1 36.2L39.15 37.4L40.4 37.45L40.75 36.35L40.95 36.05L41.3 35.85L43.1 35.5L43.15 36.2L41.35 36.5L40.85 38.15L38.6 38L38.55 38M42.8,28.6Q42.8 29.5 42.2 30.05Q41.6 30.7 40.75 30.7Q39.85 30.7 39.25 30.05Q38.65 29.5 38.65 28.6Q38.65 27.7 39.25 27.1Q39.85 26.5 40.75 26.5Q41.6 26.5 42.2 27.1Q42.8 27.7 42.8 28.6M21.55,24.1L22.15 24.15Q24 24.3 25.4 25.55L25.65 25.8L25.95 26.15L26.75 27.25L26 27.15L25.65 26.7L25.4 27.25Q24.85 27.35 24.4 27.7L25.05 26.45L23.65 27.2L24.1 27.6L24.25 27.8L24.15 27.9L23.7 28.55L23.45 28.25Q22.75 27.55 21.8 27.55Q20.85 27.55 20.15 28.25Q19.45 28.95 19.45 29.9Q19.45 30.85 20.15 31.55Q20.85 32.25 21.8 32.25Q22.75 32.25 23.45 31.55L23.8 31.15L24.15 31.6Q24.65 32.1 25.35 32.3L25.75 33.05L26.2 32.35L26.9 32.2L26.05 33.6L25.65 34L25.55 34.1Q24.05 35.5 22.05 35.7L21.55 35.7L21.45 35.7L20.75 35.65L20 35.5L19.05 35.15L19 35.15L17.7 34.2L17.45 34L17.3 33.85Q15.8 32.25 15.75 30.1L15.75 29.9L15.8 29.5Q15.9 27.4 17.4 25.9L17.45 25.8L17.85 25.45Q19.35 24.15 21.35 24.1L21.55 24.1M34.25,21.9L35.5 21.1L34.45 21.2L34.25 21.9M40.3,21.05L40.6 20.1L39.45 21.15L40.3 21.05M36.15,20.9L37.15 21.85Q37.75 21.55 38.45 21.35L37.4 20.4L36.15 20.9M18.35,26.45L19.2 28L19.5 27.6L19.9 27.25L18.35 26.45M17,29.85L18.6 30.35L18.55 29.9L18.6 29.3L16.95 29.8L17 29.85M17.7,26.45Q16.55 27.7 16.4 29.3L18.8 28.55L17.7 26.45M19.15,31.75L18.4 33.15L19.75 32.45L19.5 32.2L19.15 31.75M18.75,31L16.35 30.3Q16.45 31.95 17.6 33.3L18.75 31.1L18.75 31M28.55,27.6L28.2 28.3L27.85 27.9L27.7 27.75L27.75 27.65L27.85 27.65L28.55 27.6M27.35,28.5L27.75 29.15L27.85 29.75Q27.85 30.55 27.3 31.1L26.8 31.45L26.55 31.55L26 31.6L24.8 31.25L24.65 31.1Q24.2 30.6 24.15 29.9L24.15 29.75Q24.15 29 24.65 28.45L24.85 28.3Q25.35 27.9 26 27.9Q26.75 27.9 27.3 28.45L27.35 28.5M27.1,28.65Q26.7 28.15 26 28.15Q25.35 28.15 24.95 28.65L24.9 28.65Q24.4 29.05 24.4 29.75Q24.4 30.4 24.9 30.85L25 30.95L25.9 31.35L26 31.35L26.75 31.2L27.1 30.85Q27.6 30.4 27.6 29.75L27.6 29.5L27.2 28.75L27.1 28.65M24.85,25.85Q23.7 24.95 22.35 24.75L22.95 26.85L24.85 25.85M22.25,26.7L21.75 25L21.2 26.7L21.8 26.65L22.25 26.7M24.1,32.2L23.8 32.5L25.05 33.15L24.4 31.9L24.1 32.2M22.9,33L22.25 35.05Q23.8 34.85 25.05 33.85L23.2 32.85L22.9 33M21.3,33.1L21.75 34.55L22.2 33.15L21.8 33.15L21.3 33.1M20.3,32.8L18.25 33.9Q19.5 35 21.25 35.1L20.6 32.95L20.3 32.8M21.2,24.7Q19.6 24.8 18.45 25.75L20.5 26.85L21.2 24.7" />
</g>
</svg>
