<?xml version="1.0" encoding="utf-8"?>
<svg version="1.1" id="Layer_1"
xmlns="http://www.w3.org/2000/svg"
xmlns:xlink="http://www.w3.org/1999/xlink"
width="30px" height="22px"
xml:space="preserve">
<g id="1150" transform="matrix(1, 0, 0, 1, 16.95, 13.05)">
<path style="fill:#100806;fill-opacity:1" d="M1.15,-5.25L1.2 -5.25L1.2 3.05L-2.3 3.05L-2.25 0.7L-4.4 -0.05L-4.05 -3L-5.3 -3.55L-5.15 -4.1L-6.2 -8.5L-3.3 -8.55L-3.5 -9.3L-6.4 -9.3L-6.85 -11.2L-5.4 -13.05L-5.35 -13.05L-2.3 -12.3L1.45 -7.05L1.15 -5.25M-4.9,-12.35L-6.1 -11.05L-5.85 -9.9L-3.25 -9.9L-2.65 -7.95L-4.1 -7.9L-5.4 -7.9L-4.75 -3.85L-4 -3.75L-3 -6.35L-2.75 -7.1L-1.2 -7.15L0.75 -7.2L-2.6 -11.8L-4.85 -12.35L-4.9 -12.35" />
<linearGradient
id="LinearGradID_375" gradientUnits="userSpaceOnUse" gradientTransform="matrix(0.00787354, -0.0137329, 0.00888062, 0.00509644, -3.55, -8.2)" spreadMethod ="pad" x1="-819.2" y1="0" x2="819.2" y2="0" >
<stop  offset="0" style="stop-color:#511A16;stop-opacity:1" />
<stop  offset="0.505882" style="stop-color:#6D4414;stop-opacity:1" />
<stop  offset="1" style="stop-color:#511A16;stop-opacity:1" />
</linearGradient>
<path style="fill:url(#LinearGradID_375) " d="M-4.85,-12.35L-2.6 -11.8L0.75 -7.2L-1.2 -7.15L-4.85 -12.35M-3,-6.35L-4 -3.75L-4.75 -3.85L-5.4 -7.9L-4.1 -7.9L-3 -6.35" />
<path style="fill:#9F6329;fill-opacity:1" d="M-4.1,-7.9L-2.65 -7.95L-3.25 -9.9L-5.85 -9.9L-6.1 -11.05L-4.9 -12.35L-4.85 -12.35L-1.2 -7.15L-2.75 -7.1L-3 -6.35L-4.1 -7.9" />
<path style="fill:#1C0E0B;fill-opacity:1" d="M3.35,0.1L-2.4 0.1L-2.4 -1.95L-1.85 -0.45L0.85 -0.45L3.25 -0.45L2.65 -1.5L1.8 -2.85L1.35 -3.4Q1.1 -3.85 1.05 -4.45L1.05 -6.75L0.75 -7.2L5.45 -7.2L6.95 -5.3L11.2 -5.3Q11.7 -2.8 11.4 0.1L5.1 -0.15L3.35 0.1" />
<path style="fill:#100806;fill-opacity:1" d="M5.1,-0.15L4.65 3.05L3.25 3.05L3.35 0.1L5.1 -0.15" />
<linearGradient
id="LinearGradID_376" gradientUnits="userSpaceOnUse" gradientTransform="matrix(0.00787354, -0.0137329, 0.00888062, 0.00509644, -3.55, -8.2)" spreadMethod ="pad" x1="-819.2" y1="0" x2="819.2" y2="0" >
<stop  offset="0" style="stop-color:#511A16;stop-opacity:1" />
<stop  offset="0.505882" style="stop-color:#6D4414;stop-opacity:1" />
<stop  offset="1" style="stop-color:#511A16;stop-opacity:1" />
</linearGradient>
<path style="fill:url(#LinearGradID_376) " d="M0.85,-0.45L-1.85 -0.45L-2.4 -1.95L-3.1 -3.9L-2.6 -5.45Q-0.3 -1.5 0.85 -0.45M-0.2,-6.65L1.05 -6.75L1.05 -4.45Q1.1 -3.85 1.35 -3.4L1.8 -2.85L2.65 -1.5L1.9 -1.9Q0 -2.7 -0.2 -4.4L-0.2 -6.65" />
<path style="fill:#9F6329;fill-opacity:1" d="M-2.6,-5.45L-2 -6.65L-0.2 -6.65L-0.2 -4.4Q0 -2.7 1.9 -1.9L2.65 -1.5L3.25 -0.45L0.85 -0.45Q-0.3 -1.5 -2.6 -5.45" />
<path style="fill:#100806;fill-opacity:1" d="M-14.65,2.3L-6.45 3.6L-5 6.65L-2.6 6.95L-1.05 4.3L-2.5 3.65L-3.15 2.55L-3.65 1.85L-3.85 0.15L-3.9 0.1L-13.65 -3.4L-14.15 -5.75L-14.2 -5.9L-15.65 -5.3L-15.95 0.1L-15.25 1.2L-14.65 2.3M-13.8,-6.95L-13.2 -4.3L-9.05 -2.25L-3.05 -0.4L-2.9 1.65L-1.9 3.3L0.25 4.25L-2.35 8L-5.35 7.5L-6.9 4.4L-15.3 3.2L-16.95 0.1L-16.25 -5.75L-13.8 -6.95" />
<path style="fill:#9F6329;fill-opacity:1" d="M-3.65,1.85L-3.15 2.55L-5.2 2.65L-15.25 1.2L-15.95 0.1L-15.65 -5.3L-14.2 -5.9L-14.15 -5.75L-15.05 -4.95L-15.05 0.15L-5.3 1.55L-3.85 0.15L-3.65 1.85" />
<linearGradient
id="LinearGradID_377" gradientUnits="userSpaceOnUse" gradientTransform="matrix(0.000549316, -0.00526428, 0.0101776, 0.00102234, -8.65, 0.6)" spreadMethod ="pad" x1="-819.2" y1="0" x2="819.2" y2="0" >
<stop  offset="0" style="stop-color:#511A16;stop-opacity:1" />
<stop  offset="0.505882" style="stop-color:#6D4414;stop-opacity:1" />
<stop  offset="1" style="stop-color:#511A16;stop-opacity:1" />
</linearGradient>
<path style="fill:url(#LinearGradID_377) " d="M-13.65,-3.4L-3.9 0.1L-3.85 0.15L-5.3 1.55L-15.05 0.15L-15.05 -4.95L-14.15 -5.75L-13.65 -3.4M-15.25,1.2L-5.2 2.65L-3.15 2.55L-2.5 3.65L-1.05 4.3L-2.6 6.95L-5 6.65L-6.45 3.6L-14.65 2.3L-15.25 1.2" />
<path style="fill:#100701;fill-opacity:1" d="M4.25,2.55L7.4 2.55L8.9 1L11.3 1L11.95 0.35L11.95 -4.1L11.2 -4.8L8.6 -4.7L8.55 -4.75L6.6 -6.65L1.5 -6.65L1.5 -7.1L6.9 -7.1L8.75 -5.3L11.25 -5.35L12.3 -4.55L12.35 0.7L11.55 1.6L9 1.6L7.6 3.05L4.1 3.05L4.1 2.55L4.25 2.55" />
<path style="fill:#9F6329;fill-opacity:1" d="M4.25,2.55L4.1 2.55L4.1 -0.5L2.65 -3.05Q1.6 -3.2 1.5 -6.65L6.6 -6.65L8.55 -4.75L6.4 -6.05L2.4 -6L2.55 -4.05L3.4 -3.65L4.65 -0.95L4.25 2.55" />
<radialGradient
id="RadialGradID_378" gradientUnits="userSpaceOnUse" gradientTransform="matrix(0.0125732, 0, 0, 0.0125732, 3.45, -5.5)" spreadMethod ="pad" cx="0" cy="0" r="819.2" fx="0" fy="0" >
<stop  offset="0"  style="stop-color:#6D4414;stop-opacity:1" />
<stop  offset="1"  style="stop-color:#511A16;stop-opacity:1" />
</radialGradient>
<path style="fill:url(#RadialGradID_378) " d="M4.65,-0.95L3.4 -3.65L2.55 -4.05L2.4 -6L6.4 -6.05L8.55 -4.75L8.6 -4.7L11.2 -4.8L11.95 -4.1L11.95 0.35L11.3 1L8.9 1L7.4 2.55L4.25 2.55L4.65 -0.95" />
<path style="fill:#E70000;fill-opacity:1" d="M5.1,-4.1L11.65 -4.1L11.65 -3.1L5.1 -3.1L5.1 -4.1M5.1,-1.15L11.65 -1.15L11.65 -0.15L5.1 -0.15L5.1 -1.15M2.35,0.9Q2.35 1.95 1.6 2.7Q0.85 3.45 -0.2 3.45Q-1.2 3.45 -1.95 2.7Q-2.65 2 -2.65 0.95Q-2.65 0.1 -2.15 -0.55L-2.2 0.15L2.25 0.25L2.35 0.9" />
</g>
</svg>
