<?xml version="1.0" encoding="utf-8"?>
<svg version="1.1" id="Layer_1"
xmlns="http://www.w3.org/2000/svg"
xmlns:xlink="http://www.w3.org/1999/xlink"
width="18px" height="17px"
xml:space="preserve">
<g id="568" transform="matrix(1, 0, 0, 1, 5.95, -6.05)">
<path style="fill:#1E1E1E;fill-opacity:1" d="M5.95,6.15L6.25 6.35L6.4 6.55Q7.55 6.05 7.55 7.35Q7.55 7.85 7.15 7.75L5.55 7.7Q4.75 7.7 5 6.85Q5.25 6.25 5.7 6.05L5.95 6.15M3.25,8.25L3.25 8.2L3.15 8.2L3.15 8.1L3.25 8.05L3.25 8L3 7.75L2 7.7Q1.15 7.9 0.55 8.6Q-0.15 9.4 -0.45 10.4Q-0.75 11.05 -0.4 11.65L-0.05 11.45Q0 10.6 1 10.4Q2.3 10.1 3.15 9.1L3.35 8.4L3.35 8.35L3.3 8.35L3.25 8.25M7.95,21.25Q8.8 19.3 7.5 18.2L6.95 17.85L6.1 17.25L5.7 17.25L5.7 17.2L5.75 17.1L5.8 17.05L5.3 16.9L5.25 16.9L5.25 16.7L5.15 16.2L4.75 15.5L4.2 14.7L4.1 14.7L4 14.8L3.95 14.8L3.85 14.8L3.8 14.65Q3.7 14.35 3.4 14.5L2.9 14.7L2.7 14.8L2.45 14.5L1.5 14L1 13.95L1 14.1L0.8 14L0.7 14.1Q0.55 14.15 0.45 14L0.4 13.95L-0.75 14L-1.15 14.3L-2 16.55L-2.15 16.9Q-3.45 18.35 -2.25 19.7L-2.05 19.9L-2.05 20.25L-2 20.75L-2.45 20.7L-2.4 20.15Q-3.15 19.75 -3.25 18.7Q-3.35 17.5 -2.6 16.75Q-1.9 16 -1.75 14.65L-1.4 13.85L-0.75 13.3L-0.05 13.35L0.45 13.5L0.55 13.2Q0.7 12.65 1.1 12.35L1.85 11.95L3.1 12.25Q3.7 12.5 4.1 13.3L4.2 13.6L4.3 13.45Q4.55 13.2 4.85 13.15Q6.1 13.1 6.85 14.2Q7.7 15.4 6.8 16.7L6.55 17L7.85 17.9Q8.95 18.85 8.6 20.4Q8.35 21.6 7.8 22.25L7.3 22.3L7.95 21.25M4.75,22L4.35 21.95Q4.3 21.35 3.9 21.1L3.8 20.9L3.8 20.8L4 20.65L4.1 20.65Q4.7 21.3 4.75 22M0.7,11.5Q-0.15 12.65 -0.75 11.5Q-1 11.05 -0.85 10.4Q0.15 7.35 2.7 7.25Q4.7 7.85 4.1 10.05L3.8 10.45L2.5 10.9L2.45 10.9L0.85 11.45L0.7 11.5M3.9,9.75L4 9.55L4 9.45L3.9 9.75M7.15,7.35L7.3 7.25Q6.95 6.75 6.3 6.85L5.95 6.7L5.7 6.55Q5.55 6.55 5.55 6.7L5.55 7L5.5 7.2L5.35 7.2L6.8 7.25L7.15 7.35M7.95,13.8Q7.5 13.1 7.4 12.5L7.5 12.45Q8.55 12.6 9 13.85Q9.5 15.15 8.55 16.15Q8.1 16.55 7.55 16.55L7.55 16.2L8.1 15.35Q8.35 14.55 7.95 13.8M8.55,14.35L8.5 15.2L8.35 15.7L8.6 15.5L8.8 15.15L8.8 15.05L8.7 14.45L8.55 13.7L8.35 13.5L8.55 14.35M6.5,14.35Q5.8 13.6 4.95 13.65Q4.5 13.65 4.3 14L4.3 14.2L4.5 14.45L4.95 15L5.35 15.8L5.55 16.2Q5.95 16.2 6.25 15.85L6.65 15.2L6.75 14.95L6.5 14.35M2.9,12.6L1.85 12.45Q1.6 12.5 1.4 12.75Q1.15 12.85 1.1 13.1L0.85 13.45Q1.35 13.2 1.9 13.6L2.85 14.2L2.9 14.2L3.1 14.2L3.8 14L3.85 13.95L3.55 13.2L2.9 12.6M10.8,17.9Q11.25 18.35 11.4 18.95Q11.65 19.6 11.4 20.15Q11.2 20.55 10.8 20.3L10.8 19.6L10.8 18.9L10.6 18.25L10.6 18.1L10.65 18.05L10.65 18L10.8 18L10.8 17.9M11.05,20.05Q11.35 20.05 11.25 19.7L11.25 19.3L11.2 19.25L11.2 19.55L11.1 19.75L11.05 20.05M-3.35,9.25L-3.45 9.3L-3.55 9.4L-3.45 9.45L-3.4 9.55L-3.4 9.6L-3.45 9.7L-3.55 9.8L-3.6 9.9L-3.6 9.95L-3.6 10.1L-3.45 10.3L-3.25 10.55L-3.05 10.65Q-2.75 11.05 -2.35 10.3Q-2.15 9.9 -2.4 9.4Q-2.7 8.95 -3.15 9.1L-3.25 9.2L-3.35 9.25M-4,9.8Q-4 8.75 -3.15 8.6Q-1.6 8.7 -2 10.55Q-2.15 11.1 -2.6 11.15Q-4.05 11.6 -4 9.8M-2.85,13.15L-3.45 13.1L-3.6 13.15Q-3.75 13.15 -3.8 13.3L-3.85 13.35L-3.85 13.45L-3.9 13.5L-4 13.5L-4.15 13.5Q-4.85 14.55 -4.85 16Q-4.85 16.9 -4.25 16.55Q-3.85 16.35 -3.6 15.85Q-3 14.65 -2.75 13.45L-2.75 13.15L-2.85 13.15M-3.45,12.6Q-1.85 12.6 -2.6 14.3L-3.2 15.8Q-3.55 16.75 -4.35 17.1Q-5 17.35 -5.1 16.55Q-5.4 14.85 -4.6 13.35Q-4.25 12.65 -3.45 12.6M-5,20.1L-5 19.45L-5.1 19.75L-5.2 20.1L-5.3 20.3L-5.4 20.15L-5.45 20.1L-5.6 20.85L-5.75 20.85L-5.95 20.9L-5.8 20.15Q-5.45 19.25 -4.9 18.7L-4.75 18.7L-4.6 18.75Q-4.75 19.8 -4.5 20.75L-4.8 20.75L-5 20.1" />
<path style="fill:#3A3A3A;fill-opacity:1" d="M3.3,8.35L3.35 8.35L3.35 8.4L3.15 9.1Q2.3 10.1 1 10.4Q0 10.6 -0.05 11.45L-0.4 11.65Q-0.75 11.05 -0.45 10.4Q-0.15 9.4 0.55 8.6Q1.15 7.9 2 7.7L3 7.75L3.25 8L3.25 8.05L3.15 8.1L3.15 8.2L3.25 8.2L3.25 8.25L3.3 8.35M4.1,20.65L4 20.65L3.8 20.8L3.8 20.9L3.9 21.1Q4.3 21.35 4.35 21.95L3.7 21.75L1.05 21.1L-2 20.75L-2.05 20.25L-2.05 19.9L-2.25 19.7Q-3.45 18.35 -2.15 16.9L-2 16.55L-1.15 14.3L-0.75 14L0.4 13.95L0.45 14Q0.55 14.15 0.7 14.1L0.8 14L1 14.1L1 13.95L1.5 14L2.45 14.5L2.7 14.8L2.9 14.7L3.4 14.5Q3.7 14.35 3.8 14.65L3.85 14.8L3.95 14.8L4 14.8L4.1 14.7L4.2 14.7L4.75 15.5L5.15 16.2L5.25 16.7L5.25 16.9L5.3 16.9L5.8 17.05L5.75 17.1L5.7 17.2L5.7 17.25L6.1 17.25L6.95 17.85L7.5 18.2Q8.8 19.3 7.95 21.25L7.3 22.3L4.75 22Q4.7 21.3 4.1 20.65M6.8,7.25L5.35 7.2L5.5 7.2L5.55 7L5.55 6.7Q5.55 6.55 5.7 6.55L5.95 6.7L6.3 6.85Q6.95 6.75 7.3 7.25L7.15 7.35L6.8 7.25M8.35,13.5L8.55 13.7L8.7 14.45L8.8 15.05L8.8 15.15L8.6 15.5L8.35 15.7L8.5 15.2L8.55 14.35L8.35 13.5M6.75,14.95L6.65 15.2L6.25 15.85Q5.95 16.2 5.55 16.2L5.35 15.8L4.95 15L4.5 14.45L4.3 14.2L4.3 14Q4.5 13.65 4.95 13.65Q5.8 13.6 6.5 14.35L6.75 14.95M3.55,13.2L3.85 13.95L3.8 14L3.1 14.2L2.9 14.2L2.85 14.2L1.9 13.6Q1.35 13.2 0.85 13.45L1.1 13.1Q1.15 12.85 1.4 12.75Q1.6 12.5 1.85 12.45L2.9 12.6L3.55 13.2M11.1,19.75L11.2 19.55L11.2 19.25L11.25 19.3L11.25 19.7Q11.35 20.05 11.05 20.05L11.1 19.75M-3.25,9.2L-3.15 9.1Q-2.7 8.95 -2.4 9.4Q-2.15 9.9 -2.35 10.3Q-2.75 11.05 -3.05 10.65L-3.25 10.55L-3.45 10.3L-3.6 10.1L-3.6 9.95L-3.6 9.9L-3.55 9.8L-3.45 9.7L-3.4 9.6L-3.4 9.55L-3.45 9.45L-3.55 9.4L-3.45 9.3L-3.35 9.25L-3.25 9.2M-2.75,13.15L-2.75 13.45Q-3 14.65 -3.6 15.85Q-3.85 16.35 -4.25 16.55Q-4.85 16.9 -4.85 16Q-4.85 14.55 -4.15 13.5L-4 13.5L-3.9 13.5L-3.85 13.45L-3.85 13.35L-3.8 13.3Q-3.75 13.15 -3.6 13.15L-3.45 13.1L-2.85 13.15L-2.75 13.15M-5.6,20.85L-5.45 20.1L-5.4 20.15L-5.3 20.3L-5.2 20.1L-5.1 19.75L-5 19.45L-5 20.1L-4.8 20.75L-5.6 20.85" />
</g>
</svg>
