<?xml version="1.0" encoding="utf-8"?>
<svg version="1.1" id="Layer_1"
xmlns="http://www.w3.org/2000/svg"
xmlns:xlink="http://www.w3.org/1999/xlink"
width="18px" height="29px"
xml:space="preserve">
<g id="1019" transform="matrix(1, 0, 0, 1, -1.7, 0.15)">
<path style="fill:#D9E9FF;fill-opacity:1" d="M10.65,0.3L10.7 0.3Q11 0.05 11.4 0.3L11.5 0.45L8.2 0.4L8.15 1.25L7.6 2.1L7.7 2.15L7.7 2.2L7.5 2.25L7.2 2.55L7.25 2.3L4.3 3.15Q4.25 4.35 2.7 4.65L2.35 4.95L2.2 5.15Q3.6 5.4 4 6.65L4.4 7.4L4.45 7.45Q5.4 7.1 6.25 6.35L6.8 6.2L7.2 6.75L7.25 6.9L6.65 6.85L6.6 6.8Q4.25 8.9 3.2 6.4Q2.85 5.7 1.9 5.35Q1.6 5.25 1.8 4.9Q2.55 3.75 3.95 3.5L3.85 3.15L3.8 2.95Q5.45 2.15 7.25 2L7.3 2L7.75 0.9L7.85 0.55Q7.85 -0.05 8.5 -0.1Q9.65 -0.35 10.55 0.25L10.65 0.3M10.3,3.4Q10.2 3.2 10.5 3.1Q11.35 2.9 11.85 2.3Q12.1 3.2 10.65 3.65L10.7 3.65Q12.6 3.55 12.6 4.95Q13.1 5.05 13.45 5.45L13.3 5.7Q14.4 6.2 15.1 7.1Q15.25 7.3 15.55 7.35Q16.9 7.75 16.35 9.15Q15.95 10.3 14.7 9.6Q13.55 9 12.25 9.35Q12.9 10.15 12.85 11.1L12.75 12L10.75 11.8Q11.4 11.15 12.4 11.6L12.05 9.05L12.25 8.95L15.75 9.3L16.05 9.1L15.95 8.4L16.05 8.1Q15 7.7 14.25 6.75L13.75 6.45L13 5.95L12.2 6.2Q12.1 5.85 12.5 5.65L12.55 5.55L12.1 5.4Q11.95 5 12.2 4.7L12.25 4.6Q10.85 4.45 10.3 3.4M3.6,7.75L2.65 8.2Q5.05 8.9 4.65 11Q6 11.3 7.05 12.25L3.65 11.25Q3.3 11.15 3.4 10.7Q2.65 10.65 2.25 11.4Q2.1 11.65 1.85 11.55Q1.75 11 2.25 10.6Q2.65 10.3 3.2 10.25Q3.8 10.25 3.8 10.8L3.8 10.85L4.2 10.9L4.25 10.45L4.35 9.9L2.3 7.95Q2.25 7.9 2.5 7.8L3.25 7.5Q3.55 7.45 3.6 7.75M6.5,11.65Q6.75 10.75 7.75 10.4L8 10.3Q8.9 10.3 8.75 11L8.7 11.05Q7.6 10.45 6.6 11.65L6.5 11.65M5.65,15.35L5.7 15.35Q6.65 15.3 7 16.2L7.5 15.65Q6.4 13.95 6.7 12.3L7.7 14.55L8.1 15.55L8.15 16.1Q8.9 15.5 9.7 15.75Q8.65 16.8 7.8 16.05L7.75 16L7.65 16L7.45 16.4L7 16.8Q6.45 15.75 5.45 15.85L5.5 15.9L5.15 15.9L4.6 16.1Q4.45 18.25 2.25 17.05Q3.4 17.2 4 16.4L4.2 15.8L4.65 15.6Q4.4 15.25 4.3 14.6L4 13.8L3.7 12.95L3.95 12.75Q4.2 13.55 4.9 14.1L4.95 14.1Q4.9 14.85 5.2 15.4L5.65 15.35M3.95,19.45L3.85 19.8L3.65 20.2L3.6 20.3Q4.6 21.3 2.5 21.65Q1.95 21.7 1.8 21.35Q2.4 21 3.25 20.9L3.55 20.8L3.3 20.6L3.15 20.5Q3.15 20.05 3.3 19.7Q3.45 19.25 3.75 18.95Q5.6 19.3 6.3 20.55L6.2 20.6L6.05 20.55L6 20.35Q5.25 19.85 4.3 19.6L3.95 19.45M3.45,23.6Q2.75 24.55 2.6 25.7L2.65 26.75Q1.45 26.1 2.2 24.4Q2.75 23.3 3.8 23.15Q3.7 22.85 3.9 22.6L4.25 22.25L4.9 22.4L4.95 22.45Q4.35 22.6 4.35 23.05L4.3 23.5L3.45 23.6M4.75,23.75Q5.35 22.95 6.35 22.85Q7.25 23 7.85 23.8L7.85 23.85L6.15 23.6Q5.7 23.45 5.4 23.9Q4.75 24.8 5.65 25.75L5.8 26.25Q5.75 27.1 5 27.05Q5.7 25.65 4.7 24.4Q4.45 24.1 4.75 23.75M19.5,15.4L19.6 15.35Q19 16.75 17.9 15.05Q17.6 14.55 17 14.7L16.75 16Q14.45 16.25 12.15 15.5L12.05 15.3L16.4 15.45Q16.75 14.55 16.25 13.55Q15.65 12.55 16.2 11.85Q17.8 11.5 18 12.4L18 12.45L17.75 12.45L17.7 12.4L17.65 12.3L17.4 12.4L17.35 12.45L17.2 12.5L16.95 12.45L16.35 12.35L16.85 14.25L16.9 14.35Q17.05 14.15 17.35 14.2L19.35 15.45L19.5 15.4M12.1,17.05Q12.45 17.7 12.25 18.8L12.3 18.85Q13.15 19.1 13.4 19.9L15.1 19.1Q15.95 19.15 15.85 20.05L15.85 20.1L17.65 19.85Q16.6 20.95 15.6 20.05L15.4 19.55L13.4 20.05L13.45 20.4Q13.45 20.65 13.75 20.8L14.3 21.1Q14.1 21.95 13.4 21.55Q13.65 21.05 12.9 20.4Q12.5 20.05 12.8 19.55Q11.2 18.7 12.1 17.25L12.1 17.05M11.8,23.7Q11.15 24.95 11.3 26.25L11.35 27.1L11.95 27L12.05 27.3L12.05 27.4Q10.65 27.7 10.9 26L11.4 23.4Q11.7 22.35 12.85 22.05Q12.85 22.7 12 23.4L11.8 23.7M13.7,23.05Q14 23.95 15.7 23.75L16 24.05L16.05 24.5Q17.5 24.3 18.15 25.65Q18.55 26.45 18.15 27.4Q18 27.7 18.1 28.05L18.05 28.35Q17.25 28.25 17.5 27.3L17.95 26Q17.45 25.8 17.3 25.3L17.3 25.2L17.25 25Q15.9 25.45 15.7 24.4L15.5 23.95Q14.35 24.15 13.5 23.55L13.7 23.05" />
</g>
</svg>
