<?xml version="1.0" encoding="utf-8"?>
<svg version="1.1" id="Layer_1"
xmlns="http://www.w3.org/2000/svg"
xmlns:xlink="http://www.w3.org/1999/xlink"
width="21px" height="15px"
xml:space="preserve">
<g id="897" transform="matrix(1, 0, 0, 1, 0.1, -6.85)">
<path style="fill:#000000;fill-opacity:1" d="M20.55,15.6L19.85 16.35L18.3 16.35L17.65 15.4L16.4 14.8L16.75 16.85Q15.65 19.05 13.2 18.8Q12.3 18.5 11.55 17.65L11.15 16.85L11.1 16.55L8.65 17.65L8.5 18.8L8.95 19.35L8.95 20.35L8.35 20.95L5.8 20.45L5.8 17.1L7.95 15.3L5.1 12.15Q2.8 10.7 0.3 10.8L-0.1 9.55Q0.75 8.2 2.15 8.15L2.3 8.1L3.4 8.65Q3.85 8.8 3.6 8.2Q4.75 6.3 6.55 7.05L6.9 7.3L9.1 9.75L11.4 10.7Q12.4 11.25 12.9 12.2L16 12.1Q16.75 12.35 17.35 12.8Q18.35 13.45 19.55 13.55L20.4 14.4L20.55 15.6" />
</g>
</svg>
