<?xml version="1.0" encoding="utf-8"?>
<svg version="1.1" id="Layer_1"
xmlns="http://www.w3.org/2000/svg"
xmlns:xlink="http://www.w3.org/1999/xlink"
width="60px" height="53px"
xml:space="preserve">
<g id="465" transform="matrix(1, 0, 0, 1, 4.35, 17.6)">
<path style="fill:#FFCC00;fill-opacity:1" d="M17.3,-16.15Q19.85 -17.2 22.45 -17.6L23.7 -17.5L24.75 -17.2L25.1 -16.75Q22.6 -15.75 19.45 -15.25L17.15 -14.55Q15.3 -13.55 14.55 -11.65Q14.45 -11.3 14.05 -11.4Q13.55 -12.2 13.8 -13.2L14.4 -14.2Q15.65 -15.45 17.3 -16.15M16.45,-1.15Q16.2 -1.4 16.3 -1.7L16.9 -4.05Q17.5 -5.9 19.05 -7.05Q20.15 -7.95 21.5 -8L25.25 -7.65Q27.1 -7.25 28.45 -5.9Q29.35 -5.05 28.95 -3.95Q27.85 -3.85 26.65 -4.5Q24.45 -5.65 21.85 -5Q19.1 -4.25 17.75 -1.85Q17.3 -1.05 16.45 -1.15M18.35,-4.7L17.7 -3.5Q18.75 -4.4 19.95 -5Q23 -6.5 26.1 -6.3L24.7 -6.75L21.8 -7.05Q20.7 -6.9 19.85 -6.25L18.35 -4.7M36.2,-2.75Q36.15 -3.15 36.55 -3.4Q37.1 -3.7 37.75 -3.8L40.1 -4Q43.25 -3.45 45.1 -1.05Q47 1.4 47.2 4.55Q47.35 6.35 47 7.85Q45.55 6.75 44.3 4.75Q42.15 1.45 39 -0.95Q37.6 -2.05 36.2 -2.75M32.2,-1.15Q36.1 -1.4 38 1.75Q40 4.95 38.1 8.2Q36.95 10.2 34.95 9.8L35.2 6.65Q35.15 2.5 30.55 2.45L25.75 2.7L25.65 2.55L25.6 2.4L25.6 2.15L25.55 2L25.6 1.85L25.6 1.75L25.65 1.6L26.75 0.7Q28.05 -0.25 29.55 -0.7L32.2 -1.15M47.35,-8.55L47.65 -8.75L48.55 -8.9L49.5 -8.75L50.4 -8.4L51.1 -7.75L51.15 -7.6L51.1 -7.45L51.05 -7.35L51 -7.2L51.75 -6.1L52.55 -4Q52.85 -2.75 52.1 -1.85L51.85 -1.7Q51.05 -2.3 50.5 -3.3L48.4 -6.2Q47.6 -7.05 47.1 -8L47.15 -8.25L47.35 -8.55M49.65,-6.7L50.2 -6.1L50.55 -5.55L50.9 -5.1L50.7 -5.6L50.2 -6.3L49.65 -6.7M40.7,-1.8L42.5 -0.05L44.25 1.95L45.5 3.15L44.55 1.05L42.75 -0.9Q41.7 -1.75 40.7 -1.8M48.55,11.2L48.65 11.05L48.8 10.95L48.95 10.8L49.1 10.7L49.3 10.65Q51.95 11.4 53.75 13.65Q55.5 15.9 55 18.65Q54.7 20.3 53.35 21.1Q52.55 20.15 52.35 18.7Q52 16.6 50.7 15.05Q49.55 13.75 48.8 12.15L48.55 11.2M41.8,17.4L40.85 15.25Q40.6 17.55 39.25 19.35Q37.9 21.15 36 22.25L33.55 23.55Q38.65 26.05 41.45 21.2Q42.4 19.5 41.8 17.4M53.2,16.65L53.8 18.4Q54.3 17.3 53.9 16.15Q53.2 14.45 51.75 13.25L49.95 12L51.8 14.15Q52.85 15.2 53.2 16.65M50.8,28.7L48.55 30.2L46 30.9L44.15 30.95Q46.5 32.15 48.8 31L50.35 30Q50.9 29.5 51.05 28.8Q51.1 28.55 50.8 28.7M51.7,26.4Q53.1 29.3 50.15 31.35Q47.65 33.1 44.55 32.25Q42.8 31.8 42 30.3Q42.15 29.75 42.75 29.5L44.4 29.45L44.5 29.6L44.55 29.75L44.55 29.85L44.5 29.95Q47.25 30.15 49.65 28.55Q50.75 27.8 51.2 26.65L51.35 26.5L51.5 26.45L51.7 26.4M36.4,2.35Q34.95 0.3 32.4 0.4L32.3 0.45L32 0.55L31.5 0.6Q33.15 1.1 34.65 2Q36.1 2.95 36.65 4.5Q37.1 5.8 37.15 7.15Q37.7 6.35 37.55 5.2Q37.3 3.65 36.4 2.35M33.5,11.2Q36.1 12.65 35.1 15.85Q34.45 18 32.2 18.65Q29.45 19.45 27.9 17.85L30.8 16L32 14.8L32.95 13L32.75 12.6L32.7 12.05Q32.7 11.6 33.05 11.4L33.5 11.2M33.25,10.3Q32.8 10.9 32.05 10.7Q30.4 10.25 29.2 11.5L28.15 12.7L27.25 13.35L27.3 13.5L27.3 13.6L26.65 13.75Q24.95 13 23.1 13.3L22.75 13.4L22.7 13.55L22.6 13.7L22.05 14.2L22 14.25L22.5 15.4L24.5 17.9L24.65 18.3Q19.45 20.35 17.05 15Q15.45 11.45 18 8.4Q19.2 7 20.8 6.45L22.25 6.55L22.7 6.7L22.8 6.85L22.85 6.95L22.9 7.25L22.85 7.5L22.8 7.65L22.5 7.95Q21.45 8.5 20.9 9.55Q20.55 10.25 20.75 11.05L20.95 11.9L21.05 11.95L21.15 12L21.25 11.85L22.05 10.95Q22.8 10.1 23.95 9.8L25.95 9.25L26.7 9.45L27.9 8.55Q28.8 8.05 29.8 8.05L31.55 8.25Q32.5 8.5 33 9.25Q33.35 9.65 33.25 10.2L33.25 10.3M39.35,11.9Q43.8 14.9 43.2 20.65Q42.9 23.5 40.25 24.9Q34.95 27.65 30.95 23.6L30.9 23.5Q33.4 21.45 36.5 20.05L37.8 19.05Q39.45 17.05 39.7 14.45L39.25 13.8L38.85 12.95Q38.6 12.4 39.1 12.05L39.35 11.9M24.3,12.05L26.2 12.4Q26.55 12.55 26.8 12.8L26.8 12.75Q27 11.8 27.8 11.15L28.75 10.25L29.65 9.5Q28.75 9.5 28 10.2L28.05 10.5L27.6 10.55Q26.65 11.3 25.75 11.35L25.65 10.85L23.15 11.7L22.4 12.25L22.8 12.1L24.3 12.05M20.25,14.3Q19.7 12.5 19.45 10.65Q19.3 9.4 19.85 8.5L19.8 8.55Q18.1 10.25 17.85 12.55Q17.6 14.8 19.4 16.35Q20.5 17.3 21.9 17.4Q20.75 15.95 20.25 14.3M27.35,21.6L27.55 21.75L27.65 21.85Q27.1 25.25 24.3 27.55Q21.35 29.95 17.8 28.65Q15.9 28 15.7 26.5Q12.15 28.1 8.35 25.35Q6.1 23.75 6.6 21.35Q3.7 19.15 4.8 15.65Q5.85 12.25 7.75 9.2Q8.45 8.05 9.45 7.15L9.35 6.9Q8.95 5.4 9.7 4Q11.55 0.4 15.65 -0.05L17.85 0.2Q18.95 0.35 19.75 1.15Q20.3 1.75 20.2 2.5Q18.5 2.9 16.75 3.6Q15 4.3 13.95 5.9Q13.25 7 12.85 8.2Q13 10.2 11.95 12.5Q10.6 15.45 13.3 16.6L15.7 16.7Q16.15 16.6 16.3 17.05Q16.4 17.45 16.1 17.75Q15.65 18.2 15.05 18.4L14.7 18.5Q13.95 20.6 16.4 20.85Q18.35 21.1 20.2 20.3Q21.2 22.9 23.95 21.95L27.1 20.75L27.45 20.8L27.25 21.6L27.35 21.6M23.2,24Q20.9 24.05 19.4 22.4Q15.6 23.7 13.55 20.7Q12.95 19.8 13.15 18.65Q10.1 17.45 10.35 14.05Q10.5 11.6 11.55 9.35L11.6 9.3Q10.65 9.15 10.1 8.45L9.15 9.75Q8.05 11.05 7.15 12.5Q5.3 15.55 6.35 18.65Q6.75 19.85 7.9 20.45Q7.5 23.1 10 24.4Q13.75 26.3 17.45 24.15L17.65 24.45L17.8 24.75L17.8 25L17.8 25.15L16.2 26.25Q19.45 29 23.45 26Q24.8 24.95 25.55 23.5L23.2 24M33.3,15L32.55 16.2L32.1 17.05Q32.85 17.05 33.5 15.9Q33.9 15.2 33.9 14.4L33.85 13.75L33.3 15M17.1,1.3L15.95 1.2L15.8 1.2Q14.05 1.55 12.65 2.45Q11.05 3.5 10.7 5.3Q10.6 5.75 10.65 6.2L10.65 6.25Q10.75 6.85 11.15 7.4L12.25 5.6Q13.3 3.95 14.8 2.75Q16.1 1.7 17.5 1.3L17.1 1.3M4.25,24.5Q4.95 24.75 5.1 25.55Q5.3 26.25 5.85 26.6Q6.4 26.9 6.3 27.5L6.15 27.65L7.1 29.2Q8.2 30.75 9.75 31.7L11.35 33.1Q7.7 35.15 4.95 31.7Q3.65 30 3.7 27.85L3.8 27.2L3.8 27.15L3.65 25.65Q3.55 24.95 4.05 24.6L4.25 24.5M5.4,27.75L5.1 27.65L5.35 29.15Q5.4 30.55 6.45 31.55Q7.5 32.55 8.9 32.85Q7.8 32 6.9 30.35L5.45 27.8L5.4 27.75M32.4,28.75Q34.1 32.15 29.8 34.2Q26.25 35.9 22.75 34.55Q20.5 33.7 20.05 31.6Q26.05 32.05 30.95 29.5L32.4 28.75M25.5,34.1L26.9 34.15Q28.65 33.75 30.1 32.65Q31.15 31.8 31 31.5Q29.5 32.2 27.8 32.35L25.95 32.45L23.05 32.5L22 32.6Q22.95 33.35 24.05 33.65L25.5 34.1M-1.55,7.2Q-2 9 -1.5 10.7Q-1.2 11.75 -1.45 12.7Q-4.35 12.4 -4.35 8.95Q-4.35 6.25 -2.7 4.4Q-2.2 3.85 -1.45 3.8Q-1 5.25 -1.55 7.2" />
<path style="fill:#FFFF00;fill-opacity:1" d="M19.85,-6.25Q20.7 -6.9 21.8 -7.05L24.7 -6.75L26.1 -6.3Q23 -6.5 19.95 -5Q18.75 -4.4 17.7 -3.5L18.35 -4.7L19.85 -6.25M50.2,-6.3L50.7 -5.6L50.9 -5.1L50.55 -5.55L50.2 -6.1L49.65 -6.7L50.2 -6.3M42.75,-0.9L44.55 1.05L45.5 3.15L44.25 1.95L42.5 -0.05L40.7 -1.8Q41.7 -1.75 42.75 -0.9M41.45,21.2Q38.65 26.05 33.55 23.55L36 22.25Q37.9 21.15 39.25 19.35Q40.6 17.55 40.85 15.25L41.8 17.4Q42.4 19.5 41.45 21.2M51.8,14.15L49.95 12L51.75 13.25Q53.2 14.45 53.9 16.15Q54.3 17.3 53.8 18.4L53.2 16.65Q52.85 15.2 51.8 14.15M51.05,28.8Q50.9 29.5 50.35 30L48.8 31Q46.5 32.15 44.15 30.95L46 30.9L48.55 30.2L50.8 28.7Q51.1 28.55 51.05 28.8M37.55,5.2Q37.7 6.35 37.15 7.15Q37.1 5.8 36.65 4.5Q36.1 2.95 34.65 2Q33.15 1.1 31.5 0.6L32 0.55L32.3 0.45L32.4 0.4Q34.95 0.3 36.4 2.35Q37.3 3.65 37.55 5.2M22.8,12.1L22.4 12.25L23.15 11.7L25.65 10.85L25.75 11.35Q26.65 11.3 27.6 10.55L28.05 10.5L28 10.2Q28.75 9.5 29.65 9.5L28.75 10.25L27.8 11.15Q27 11.8 26.8 12.75L26.8 12.8Q26.55 12.55 26.2 12.4L24.3 12.05L22.8 12.1M21.9,17.4Q20.5 17.3 19.4 16.35Q17.6 14.8 17.85 12.55Q18.1 10.25 19.8 8.55L19.85 8.5Q19.3 9.4 19.45 10.65Q19.7 12.5 20.25 14.3Q20.75 15.95 21.9 17.4M25.55,23.5Q24.8 24.95 23.45 26Q19.45 29 16.2 26.25L17.8 25.15L17.8 25L17.8 24.75L17.65 24.45L17.45 24.15Q13.75 26.3 10 24.4Q7.5 23.1 7.9 20.45Q6.75 19.85 6.35 18.65Q5.3 15.55 7.15 12.5Q8.05 11.05 9.15 9.75L10.1 8.45Q10.65 9.15 11.6 9.3L11.55 9.35Q10.5 11.6 10.35 14.05Q10.1 17.45 13.15 18.65Q12.95 19.8 13.55 20.7Q15.6 23.7 19.4 22.4Q20.9 24.05 23.2 24L25.55 23.5M33.85,13.75L33.9 14.4Q33.9 15.2 33.5 15.9Q32.85 17.05 32.1 17.05L32.55 16.2L33.3 15L33.85 13.75M17.5,1.3Q16.1 1.7 14.8 2.75Q13.3 3.95 12.25 5.6L11.15 7.4Q10.75 6.85 10.65 6.25L10.65 6.2Q10.6 5.75 10.7 5.3Q11.05 3.5 12.65 2.45Q14.05 1.55 15.8 1.2L15.95 1.2L17.1 1.3L17.5 1.3M5.45,27.8L6.9 30.35Q7.8 32 8.9 32.85Q7.5 32.55 6.45 31.55Q5.4 30.55 5.35 29.15L5.1 27.65L5.4 27.75L5.45 27.8M24.05,33.65Q22.95 33.35 22 32.6L23.05 32.5L25.95 32.45L27.8 32.35Q29.5 32.2 31 31.5Q31.15 31.8 30.1 32.65Q28.65 33.75 26.9 34.15L25.5 34.1L24.05 33.65" />
</g>
</svg>
