<?xml version="1.0" encoding="utf-8"?>
<svg version="1.1" id="Layer_1"
xmlns="http://www.w3.org/2000/svg"
xmlns:xlink="http://www.w3.org/1999/xlink"
width="40px" height="41px"
xml:space="preserve">
<g id="1576" transform="matrix(1, 0, 0, 1, -3.25, -1.9)">
<path style="fill:#FF0100;fill-opacity:0.498039" d="M42.55,22.35Q40.9 23.6 38.95 22.55L38.55 22.6Q37.95 22.9 37.7 23.45Q37.55 23 38 22.65L39 22.15Q40.75 23.05 42.5 22.35L42.55 22.35M34.5,11.25L34.6 11.55Q33.25 11.35 32.95 9.65L32.6 8.55Q32.2 7.85 32.45 7.25Q33 9.55 34.5 11.25M21.4,2Q21.4 1.9 21.55 1.9L21.7 1.9Q23.65 1.9 23.1 3.4L22.75 4L22.75 4.05Q23.4 4.6 24.35 4.8L24.4 4.85Q22.7 5.2 22.6 3.85Q22.6 3.6 22.75 3.4Q23.4 2.7 22.4 2.4L21.4 2M21.15,21.45L21.1 21.6L21.3 21.55L20.85 22L19.6 22.95L18.35 23.55L16.9 24L17.4 23.75Q16.15 24.1 15.05 23.25L18.1 23.3L20.55 21.85L20.65 21.8L21.1 21.5L21.15 21.45M32.15,19.1L32.2 19.05Q33.95 20.4 33.15 22.55Q33.05 22.7 33.25 22.9L34.6 24.35L35.3 24.5L36.05 24.4Q34.75 25.55 33.8 24.3Q33.2 23.5 32.85 22.5Q32.65 21.8 32.9 21.1Q33.15 20.55 32.8 19.95L32.15 19.1M13.1,8.2L12.6 7.9Q13.7 8.05 14.35 8.65Q13.9 8.35 13.1 8.2M14.85,10.4L14.6 10.7L14.4 11.6L14.4 11.65Q14.1 10.9 14.65 10.3L14.7 10.25L14.75 9.2L14.8 9.3Q15.1 9.8 14.85 10.4M9.7,6.5Q10.7 5.4 10.3 4.1L10.05 3.65Q9.9 3.4 10.2 3.4Q11.45 5 9.75 6.5L9.7 6.5M3.9,14.55L3.9 14.6Q3.45 14.1 3.25 13.4L3.9 14.55M6.95,18L6.9 18.95Q6.95 16.6 4.75 15.55L4.8 15.5Q6.65 16.2 6.95 18M14.55,14.1Q14.75 14.4 13.95 14.75L12.95 15.25Q13.55 14.45 14.55 14.1M13.5,36.9L12.75 37.8L12.2 37.8Q13.1 37.3 13.4 36.35L13.35 35.65Q13.15 35.2 13.6 35Q13.8 36 13.5 36.9M14.45,34.75L14.75 34.5L14.95 34.45Q16.35 34.35 17.55 34.9L17.55 34.95L14.45 34.85L14.4 34.85L14.4 34.8L14.45 34.75M38.15,27.8L38.5 27.3Q38.65 26.25 37.9 25.8Q39.85 27 37.85 28.5Q36.9 29.2 37.25 30.4Q36.25 28.85 38.15 27.8M27.35,36.05Q27.2 36.6 27.5 37.15L27.25 36.95Q26.7 36.45 27.35 36.05M28.15,38.05L28.2 38.1L28.55 38.5Q29.05 39.4 28.35 40.1Q28.65 39 28.15 38.05M26.05,41.75Q25.1 42.2 24.15 42.85Q25.5 41.35 27.5 40.4L27.6 40.35Q27.2 41.15 26.05 41.75" />
</g>
</svg>
