<?xml version="1.0" encoding="utf-8"?>
<svg version="1.1" id="Layer_1"
xmlns="http://www.w3.org/2000/svg"
xmlns:xlink="http://www.w3.org/1999/xlink"
width="14px" height="7px"
xml:space="preserve">
<g id="686" transform="matrix(1, 0, 0, 1, 14.3, 12.7)">
<path style="fill:#7E0000;fill-opacity:1" d="M-8.9,-12.65L-8.5 -12.55L-8.35 -12.45L-8.4 -12.25L-8.55 -12.05Q-8.85 -11.85 -9.2 -11.8L-9.25 -11.7L-9.25 -11.6L-9.3 -11.55L-9.4 -11.45L-9.55 -11.55L-9.9 -11.1L-11.3 -10L-11.7 -9.5L-11.65 -9.45L-11.55 -9.4Q-11.35 -8.85 -11.85 -8.35L-12.55 -7.15L-12.75 -6.85L-12.85 -6.6L-13.05 -6.35L-13.25 -6.45L-13.3 -6.35L-13.35 -6.5Q-14.15 -6.95 -14.3 -8.3Q-14.45 -9.5 -13.6 -10.35L-13.4 -10.45L-13.2 -10.4L-13.05 -10.35L-12.95 -10.25L-12.9 -9.55L-12.65 -10.05L-12.55 -10.3L-11.55 -11.55L-11.5 -11.6L-11.4 -11.75L-11.15 -11.95L-10.55 -12.35L-10.1 -12.35L-9.75 -12.2L-9.65 -12.15L-9.6 -12.05L-9.45 -12.35L-9.2 -12.65L-9.1 -12.7L-8.9 -12.65M-12.05,-7.25L-12.35 -7.3L-11.55 -8.35L-11.25 -8.7L-10 -9.55Q-9.4 -9.9 -8.8 -10.05L-8.25 -10.05L-7.8 -9.85Q-7.55 -8.85 -8.65 -8.6L-9.95 -7.95L-11.2 -7.15L-11.45 -7.25L-11.55 -7.3L-11.65 -7.4L-12.05 -7.25M-12.55,-9.2L-12.6 -9.3L-12.7 -9.1L-12.55 -9.2M-4.35,-9.5Q-4.05 -9.35 -4.05 -9L-4.05 -8.9L-4.15 -8.8L-4.25 -8.8L-4.75 -8.85L-4.75 -8.75L-4.8 -8.7L-4.9 -8.65L-5.05 -8.65L-5.15 -8.65L-5.25 -8.8L-5.25 -8.85L-5.4 -9.05L-5.5 -9.2L-5.45 -9.3L-5.45 -9.4L-5.2 -9.55L-4.95 -9.6L-4.35 -9.5M-0.8,-8.95L-0.8 -8.9L-1 -8.75L-1.6 -8.75L-1.65 -8.65L-1.75 -8.6L-1.8 -8.6L-1.95 -8.7L-2 -8.7L-2 -8.85L-2 -9L-1.95 -9.05L-1.8 -9.15L-1.6 -9.25L-1.5 -9.3L-1.15 -9.25L-0.8 -8.95" />
</g>
</svg>
