<?xml version="1.0" encoding="utf-8"?>
<svg version="1.1" id="Layer_1"
xmlns="http://www.w3.org/2000/svg"
xmlns:xlink="http://www.w3.org/1999/xlink"
width="131px" height="98px"
xml:space="preserve">
<g id="397" transform="matrix(1, 0, 0, 1, 30.2, 44.55)">
<path style="fill:#333333;fill-opacity:0.631373" d="M36.65,-33L38.75 -34.1Q41.4 -35 44.05 -35.4L45.05 -36.05L45.3 -36.1L46.55 -36.2L47.45 -36.15L47.75 -36.05L47.8 -35.9Q47.85 -35.5 47.5 -35.15L46.3 -34L45.2 -32.95L44.25 -31.85L43.8 -31.25Q40.55 -31.4 37.5 -30.05Q35.65 -29.3 34.05 -28.15L32.3 -27.1Q32.7 -28.65 33.8 -30.15Q35.1 -31.75 36.65 -33M23.75,-28.85Q24.35 -25.55 23.45 -22.2Q22.8 -19.85 22.65 -17.4Q21.35 -18.75 20.55 -21.2Q19.8 -23.4 19.7 -25.95L19.55 -28.55L19.35 -27Q18.6 -20.8 20.8 -15.35Q23.05 -9.85 20.95 -3.65L20.4 -1.9Q18.2 -3.65 17.9 -7.3Q17.55 -12.05 16.2 -16.55Q15.35 -19.4 15.45 -22.5Q15.6 -28.4 16.15 -34.1Q16.7 -39.8 19.2 -44.55Q20.05 -42.7 20.2 -40.1Q21.65 -37.95 22.35 -35.25L23.75 -28.85M4.75,-26.6Q1.1 -27.4 -1.25 -30.05L-2.45 -29.95L-3.05 -29.8L-3.7 -29.55L-4.25 -29.35L-4.95 -29.15L-5.35 -29.15L-5.5 -29.25L-5.45 -29.45L-5.35 -29.6L-5.1 -29.8L-4.55 -30L-4.5 -30.05Q-5.6 -29.7 -6.45 -30.35L-6.7 -30.5L-6.9 -30.7L-7.1 -30.85L-7.3 -31.05L-7.3 -31.25L-7.35 -31.6L-7.35 -31.8L-7.35 -31.95L-7.35 -32.15L-7.35 -32.35L-7.35 -32.7L-7.35 -32.9L-7.35 -33.1L-6.85 -33.7L-6.15 -34.4L-5.75 -34.9L-5.55 -35.55L-5.15 -36.5Q-4.6 -37.4 -3.3 -37.65L-1.5 -38.15L6.9 -36.15Q12.45 -34.9 10.7 -30.25Q8.95 -25.75 4.75 -26.6M7.2,-10.2L7.7 -9.85Q10.65 -9.35 12.05 -6.75Q13.6 -4.05 11.9 -1.65Q11.4 -0.95 10.35 -0.8Q6.75 -0.15 5.9 -3.35L5.7 -4.6L4.1 -3.5Q3.25 -2.95 2.4 -3.2Q0.95 -3.75 -0.5 -4.55Q-1.25 -4.95 -1.5 -5.65L-2.15 -5.9L-2.3 -5.95L-2.7 -6.15L-2.9 -6.25L-3.2 -6.45L-3.3 -7.2Q-3.3 -8.05 -2.95 -8.7Q-1.7 -11.25 1.7 -10.8L3.45 -11L5.4 -10.85L7.2 -10.2M35.85,-19.1Q38.4 -22.25 41.8 -24.45Q45.35 -26.75 49.5 -27.8Q51.35 -27.95 52.85 -27Q54.55 -25.9 54.7 -23.9Q54.8 -22.1 54.3 -20.45Q53.85 -19 52.8 -18L52.7 -17.9L51.2 -17.95L50.55 -18.3L49.7 -18.5L50.85 -17.6Q51.95 -16.75 51.7 -15.5Q51.45 -14.15 50.3 -13.35L50.25 -13.2L49.8 -12.75L49.35 -12.35L49.1 -12L48.95 -11.7L48.8 -11.45L48.8 -11.3L48.9 -11.1L49 -10.75L49 -10.55L49 -10.35L49 -10.2L49 -10L54.7 -9.7Q56.4 -9.3 56.85 -7.65Q57 -7 56.8 -6.3L55.6 -5.3L53.85 -4.4L51.15 -4.3L50.8 -4.4Q49.5 -3.55 48.15 -2.8Q45.6 -1.4 42.6 -1.1L38.45 -0.95Q37.55 -1.7 37.6 -3Q37.7 -4.5 38.95 -5.55Q40.2 -6.6 41.65 -7.3L44.65 -8.9L44.9 -9.05L44.35 -9.65Q44.05 -9.9 43.9 -10.25L43.6 -10.8L43.5 -11.3L43.5 -12.05L43.5 -12.2L43.95 -12.8L44.35 -13.1L45.2 -13.7L45.6 -14.05L45.8 -14.2L46.2 -14.15L45.85 -14.45L45.45 -14.8L45 -15.1L43.2 -14.75Q41.55 -14.45 40.65 -13.25L38.7 -10.8L37.7 -9.95L37.45 -9.95L37.15 -10.1L36.95 -10.25L36.8 -10.45L36.6 -10.75L36.35 -11.1Q35.7 -11.3 35 -10.9L32.5 -9.8Q30.95 -9.1 29.95 -7.8Q29.25 -6.9 29.65 -6.55L29.45 -6.35L29.3 -6.3L28.95 -6.35L28.65 -6.5L28.45 -6.7L28.35 -6.85Q29.35 -10.05 31.4 -13.05Q33.55 -16.2 35.85 -19.1M72.05,-34.6Q74.3 -33.2 75.7 -31Q77.15 -28.8 76.55 -26.15Q76.1 -24.2 74.6 -22.8L74.35 -22.75Q72.45 -22.75 70.6 -23.3Q69.7 -23.55 69 -24.2L68.9 -24.35Q64.1 -23.4 59.6 -24.9Q57.2 -25.7 58 -28.15Q59.3 -32.25 63.05 -34.15Q64.9 -35.05 66.9 -35.15Q69.75 -36 72.05 -34.6M60.55,-15.6L60.5 -15.8Q60.45 -16.1 60.7 -16.3L61.2 -16.8L61.65 -17.45L62.3 -17.5L62.55 -17.75L63.55 -18.45L63.9 -18.55L64.1 -18.45L64.5 -18.35L65.25 -18.55L78.65 -21Q80.5 -21.35 81.7 -22.8Q82.2 -23.45 83 -23.55L83.25 -23.6Q89.15 -23.85 86.9 -18.9Q86.3 -17.6 84.95 -16.75Q82.9 -15.4 80.5 -15.1L72.15 -14.7Q70.65 -14.75 69.15 -14.05Q67.4 -13.3 66.1 -14.75L66 -14.8L62.5 -14.55Q61.4 -14.75 60.65 -15.45L60.55 -15.6M74.95,-11.8L85.05 -13.55L86.7 -14L87.95 -13.95L88.2 -13.85L88.3 -13.7L86 -11.1Q84 -8.75 81.25 -9.2L75.6 -9.55L73.45 -9.8Q73.2 -9.85 73.05 -10Q73.2 -11.45 74.95 -11.8M83.25,16.75Q81.7 17.05 80.45 17.95L79.6 18.5Q77.95 19.4 76.75 18.15L76.35 17.8Q76.35 17.05 75.3 17.25Q72.65 17.7 70.7 16Q70.05 15.45 69.65 14.6L69.55 14.1Q69.5 13.75 69.75 13.65Q72.65 12.4 75.9 12.35L77.25 12.1L78.8 12.15L79.1 12.25L79.25 12.4L79.4 12.8L79.6 13.4L79.85 13.95Q79.95 14.3 80.35 14.45L80.45 14.55L82 15.05L83.25 15.75Q83.7 16 83.6 16.4L83.25 16.75M95.85,29.95L96.3 29.85Q97.55 30 98.3 31L99.7 32.8Q100.5 33.8 99.9 35L98.8 36.5Q97 36.85 95.4 35.95L93.55 34.65L92.45 33.55L92.45 33.35L92.45 33.15L92.45 33L92.45 32.8L92.45 32.6L92.45 32.45L92.5 32.25L92.5 32.05L93.1 31.55L94.05 30.85Q94.85 30.2 95.85 29.95M88.1,30.15Q84 30.6 80.1 29.2Q78.75 28.7 78.2 27.4L78.2 27.2L78.3 27.05L78.8 26.65L79.45 26.3L79.85 26.05L80.05 25.95L80.2 25.85L80.7 25.85L84.4 26.25L86.85 26.9L89.35 27.9L89.75 28.2L89.8 28.35L89.8 28.55Q89.6 30 88.1 30.15M63.45,24.6Q64.55 24.85 65.5 25.4L66.55 26.25L66.6 26.45L66.65 27L66.6 27.35L66.45 27.75L66.4 28.3L66.4 28.85L66.4 29.4Q66.35 29.85 66.55 30.15L66.95 30.5Q67.95 30.9 68.6 31.75L70.45 34.6Q71.4 36.4 71.9 38.35Q72.3 39.9 71.6 41.3L71.45 41.65L71.2 41.85L70.35 42.45Q69.65 43.1 68.75 43.35Q66.55 43.95 64.85 42.5L64.1 41.8L63.95 41.8L61.55 41.6L61 41.35L59.6 40.35L58.4 39L58.4 38.85L58.4 38.3L58.4 37.9L58.4 37.55L58.5 37.05L58.65 36.45L58.6 35.9L58.4 35.2L58.35 35.15L58.05 35L57.85 34.9L57.55 34.75L57.5 34.65L57.2 34.7L50 34.25Q47.9 34.05 47.9 32.1L47.9 30.45L48 30.3L48.95 29.5Q49.35 29.2 49.8 29L51.3 28.15Q52.1 27.65 53 27.4L53.1 27.2Q53.2 26.75 53.6 26.5L54.3 26L55.35 25.05L56.65 24.3L57.85 23.85L61 24.15L63.45 24.6M53.4,8.8Q54.35 9 55.2 9.55Q58.65 13.9 55.35 17.95Q53.65 20.05 50.8 18.45Q49.9 17.95 48.95 17.95Q38.45 18.2 30.65 10.7Q29.9 10 30.2 8.8Q31.15 5.4 34.75 4.3L34.8 4.1Q35 3.35 35.9 3.15L38.2 2.6L40.15 2Q41.85 1.8 43.4 2.65Q44.9 3.55 45.65 5.1L47.35 8.1Q48.05 9.25 49.05 10.15L49.45 10.05L50.75 9.3Q51.95 8.5 53.4 8.8M42.65,22.45Q42.45 24 41.05 25L40.8 25L40.15 25.05L39.85 24.9Q38.7 23.95 37.2 23.5L33.25 22.5Q31.85 22.25 30.9 21.25L30.9 21.05L31.1 20.55L31.4 19.8L31.9 18.65L32.25 17.8Q32.6 17.2 33.25 16.85L33.65 16.75L37.6 16.95Q39.55 17.55 41.2 18.85Q42.95 20.25 42.65 22.45M45.5,49.15Q46.45 51 47.8 52.6L47.9 52.9L46.45 52.95L43.3 50.2Q42 49 40.45 48.45Q39.3 48.05 38.3 47.45L38.3 47.05L38.2 46.7L37.95 45.9L37.7 44.9L37.3 43.7L36.85 42.8L36.85 42.7L36.85 42.65L36.3 42.9L35.95 43.25L35.55 43.95L35.15 44.75L34.5 45.45Q33.5 46.3 32.05 46.15Q30.1 45.95 28.55 44.9L27.45 43.85L27.5 43.7L27.7 43.35Q27.85 43.2 28.1 43.15L28.8 42.85L29.25 42.35L29.4 42.15Q29.35 42.75 29.85 42.75Q31.8 42.8 33.15 41.45L34.4 39.55Q34.8 38.6 35.7 38.15L37.3 38.4L38.6 39.4L39.6 40.55Q40.05 41.05 40.05 41.7L41.7 43.55Q42.85 44.65 43.85 46.2L45.5 49.15M26.8,20.15Q26.6 22.65 26.75 25.35Q27.45 26.05 27.8 26.95L28.5 28.9L28.75 30.7L28.65 32L27.15 33.25Q26.55 33.85 26.55 34.75L26.4 36.25L26.2 36.8L25.15 37.45L23.2 37.3L22.8 36.95L22.7 36.25L22.7 35.5Q22.65 35.05 22.9 34.7L23.4 34Q23.8 29.4 23.6 24.75L23.1 15.35Q22.8 10.6 23.25 6.1L23.75 -1.45Q24.8 2.05 25.25 5.6L26.4 12.9Q27.05 16.55 26.8 20.15M13.75,8.9Q14.4 10.85 15.45 12.75Q16.2 14.15 16.3 15.55L16 15.7Q14.7 16.15 13.85 15.4L12.95 14.45Q12.3 13.7 11.35 13.25L10.9 12.95Q9.45 13.7 8.85 15.15L7.2 19.35Q6 22.55 2.95 22.25Q0.85 22.05 -0.4 20.45Q-0.2 18.9 1 17.75Q3.2 15.55 4.05 12.7Q4.75 10.35 4.9 7.9Q5.05 6.1 6.25 4.7Q7.05 3.8 8.15 3.55Q10.45 3.45 11.8 5.25Q13.1 6.9 13.75 8.9M2.95,3.3Q4.65 4.3 4.3 6.4Q4.15 7.5 3.45 8.4Q0.1 9.4 -3.05 9.4Q-5.6 9.35 -7.15 7.65Q-9.15 5.45 -7.45 3.2Q-6.9 2.45 -6.15 1.95L-5.4 1.55L-4.2 1.55Q-2.9 2.95 -1 2.95L2.45 3.15L2.95 3.3M14.15,19Q14.95 22.35 15.3 26Q15.65 29.7 16.9 33Q18.4 37 15.25 39.45Q13.1 41.15 10.9 41.3Q12.9 38.5 13.7 35.2Q14.45 32 13.3 29Q12.05 25.7 13.1 22.45L14.15 19M1.1,38.55L0.95 38.4L0.75 38.2L0.65 38L0.55 37.85L0.45 37.65L-3.65 37.1L-3.85 37.15L-4.2 37.3L-4.5 37.45L-5 39.3Q-5.25 40.6 -6.45 41.2Q-8.2 42.15 -10.1 41.75Q-10.8 41.25 -11 40.35Q-11.2 39.45 -10.9 38.6L-10 37L-9.85 36.85L-10.05 36.85L-10.2 36.8L-10.35 35.5L-9.95 34.5L-9.5 33.75L-8.45 32.6Q-7.4 31.8 -6.15 31.45L-5.15 31.1L-1.05 32.15Q1.25 32.75 3.5 33.75Q6.35 34.95 4.6 37.4Q3.35 39.25 1.1 38.55M-15.85,-27.3L-13.75 -27.1L-11.25 -26.6Q-9.8 -26.25 -9.45 -24.85Q-9.15 -23.75 -9.3 -22.5L-9.45 -22.4L-10.65 -21.9Q-11.5 -21.5 -12.2 -20.8Q-13.4 -19.55 -14.85 -20.05L-15.55 -19.9L-15.6 -19.85L-15.9 -19.7L-16.1 -19.55L-16.2 -19.4L-16.3 -19.35L-16.65 -19.2L-16.8 -19.15L-17.5 -19.05L-17.8 -19.2L-18.2 -19.5L-19.05 -20L-20.45 -20.5L-21.05 -20.95L-21.4 -21.3L-21.4 -21.5L-21.4 -21.7L-21.4 -21.85L-21.4 -22.05L-21.4 -22.25L-21.4 -22.45L-21.4 -22.6L-21.4 -23L-21.4 -23.15L-21.4 -23.55L-21.25 -23.7L-20.55 -24.5L-19.75 -25.25L-18.3 -26.2L-15.85 -27.25L-15.85 -27.3M-20.45,-5.35Q-17.8 -5.95 -15.7 -4.6Q-13.75 -3.3 -11.95 -1.6Q-10.1 0.15 -10.2 2.85Q-10.3 4.65 -10.65 6.35L-11.2 6.9Q-16.1 9.6 -19.65 6.5L-22.4 4.8Q-24 4.15 -25.35 5.05L-25.85 5.05L-25.9 4.95L-25.65 4.65L-25.5 4.55L-25.35 4.35L-25 3.95L-24.85 3.85L-24.7 3.8Q-25.35 3.65 -26.05 4.05Q-26.7 4.45 -27.4 4.65L-28.25 4.75L-28.65 4.45Q-30.45 3.3 -30.15 1.25Q-29.9 -1.15 -27.65 -2.5Q-24.25 -4.6 -20.45 -5.35M-13.85,24.35Q-15.4 24.85 -16.8 25.65L-19.15 27.55L-19.25 27.65L-19.9 27.65Q-20.9 27.55 -21.6 26.8L-22.7 25.9Q-23.25 25.55 -23.95 25.45Q-24.75 24.2 -23.65 23.25Q-21.85 21.8 -19.35 21.55L-12.8 20.6L-11.95 20.7L-11.55 20.85L-11.25 21L-10.7 21.2L-10.5 21.35Q-10.35 22.25 -11.1 22.85L-13.85 24.35M-28.05,47.05Q-27.7 46.45 -27.05 46.2L-25.3 45.4L-24.85 45.2L-23.9 45.3L-23.3 45.45L-22.8 45.65L-22.35 45.95L-22.25 46.5Q-22.3 47.1 -22.75 47.6L-24.5 48.9L-26.8 49.15L-26.95 48.95L-27.3 48.65L-27.55 48.4L-28.05 48.05L-28.45 47.7L-28.4 47.55L-28.05 47.05" />
</g>
</svg>
