<?xml version="1.0" encoding="utf-8"?>
<svg version="1.1" id="Layer_1"
xmlns="http://www.w3.org/2000/svg"
xmlns:xlink="http://www.w3.org/1999/xlink"
width="11px" height="10px"
xml:space="preserve">
<g id="532" transform="matrix(1, 0, 0, 1, -4.3, 8.15)">
<path style="fill:#000000;fill-opacity:1" d="M6.65,-8.15L10.25 -8.1L11.8 -7.3L12.1 -6.8L12.8 -6.5L13.45 -5.8L13.75 -5.55L14.5 -4.2L14.35 -3.85L13.85 -2.65L13.55 -2.15L12.75 -1.6L12 -1.05Q10.9 -0.15 9.65 0.45L6.65 1.3L5.9 1.4Q5.05 1.4 4.7 0.85Q4.3 0.35 4.45 -0.2L4.3 -2.2L6.75 -2.7L6.8 -2.65Q6.9 -2.5 6.9 -2.6L7.7 -3.45L8.55 -3.8L8.45 -4.1L7.3 -4.65L6.2 -5.6L5.3 -6.9L4.95 -7.9L6.25 -8.05L6.65 -8.15" />
</g>
</svg>
