<?xml version="1.0" encoding="utf-8"?>
<svg version="1.1" id="Layer_1"
xmlns="http://www.w3.org/2000/svg"
xmlns:xlink="http://www.w3.org/1999/xlink"
width="27px" height="34px"
xml:space="preserve">
<g id="595" transform="matrix(1, 0, 0, 1, -31.6, 7.85)">
<path style="fill:#000000;fill-opacity:0.498039" d="M44.95,25.4L35.45 24.9Q31.6 24.4 31.6 23.7Q31.6 23.3 32.85 23L35.45 22.5L39.65 22.15L44.95 22L52.45 22.3L54.35 22.5Q58.4 23 58.4 23.7Q58.4 24.4 54.35 24.9L44.95 25.4" />
<path style="fill:#000000;fill-opacity:1" d="M46.4,-1.8L48.35 -1.65Q49.4 -1.3 49.25 -0.1L49.25 0.1L44.95 0Q44.35 -0.4 44.8 -1.05Q45.35 -1.75 46.4 -1.8M55.35,6.95Q57.55 8.25 57.25 9.95L57.35 9.9Q57.3 10.75 56.7 11.45L56.4 11.7L56.95 12.25L57.7 13.05L57.85 13.15L57.45 13.5L56.7 13.5L56.2 12.75L55.75 12.3L55.3 12.4L54.75 12.35L54.7 12.35L54.7 12.85L55.15 12.9L56.25 13.2L56.45 13.45L56.45 13.5L56.45 13.6L56.45 13.7L56.45 13.8L56.5 13.85L56.55 13.95L56.55 14L55.95 14.2L54.7 13.9L54.2 13.75L53.75 14Q52.8 14.3 52.2 13.8L50.6 14.6L48.3 14.5L46.65 15L45.35 15.35L45.3 15.45L45.15 15.5Q44 16.05 43.2 17.45L41.75 19.95Q41.2 20.9 40.3 21.3Q38.2 22.2 36.55 20.1L37.15 19.25Q37.65 18.65 38.4 18.55L38.6 18.5L39.95 16.7L40.15 16.5L40.5 16.1L40.55 16.05Q38.2 16.8 36.1 18.05L34.25 18.6L33.5 16.95L32.85 15.65Q31.55 14.1 33.85 13.5Q34.65 13.3 34.95 14.2L35.3 14.5L36.95 13.1Q37.9 12.3 39.15 12.4L42.45 12L42.4 11.85L42.95 11.45L43.8 11.05L44.8 10.5L44.85 10.2Q45.5 8.05 47.65 7.15L49.05 6.65Q51.05 6.8 50.95 8.8L50.8 9.6L51.1 9.65Q51.1 8.95 51.85 8.35Q52.45 7.85 53.2 7.85L53.1 7.65L53.05 7.5L53.15 7.45L53.45 7.15Q53.85 6.75 54.4 6.75L55.35 6.95M48.6,17.4Q48.35 16.65 49 16.25Q49.75 15.75 50.6 15.95L51.15 16.35L51.25 16.5L51.35 16.45L51.5 16.75L51.7 16.95L53.7 17.6L53.85 17.45L54 17.7L54.05 17.7L54.05 17.8L55.2 19.5L56 20.3Q56.65 20.25 57.15 20.85L57.15 20.95Q57.95 23.65 55.55 24.45Q54.85 24.75 54.3 24.2Q53.2 22.9 54.05 21.85L52.65 19.75L50.25 19.35Q48.8 19.1 48.8 18.05L48.6 17.4" />
<path style="fill:#7E0000;fill-opacity:1" d="M40.2,-7.65Q41.4 -7.5 42.3 -6.7L42.35 -6.6L42.4 -6.45L42.4 -6.3L42.35 -6L42.3 -5.75L42.1 -5.7Q39.05 -6.1 36.6 -7.65Q36.35 -7.8 36.8 -7.85L40.2 -7.65M52.2,4.45Q51.4 5.1 50.2 4.45L47.7 3.1L47.5 2.9Q47.4 2.65 47.65 2.5L48 2.3L48.2 2.2L48.4 2.15L49.95 2.65Q51.2 2.8 52.05 3.7L52.2 4.45M43.9,2.45L45.5 3.65L45.65 4.1L43 4.05Q41.55 3.4 41.85 2.1L42.1 1.8L43.9 2.45" />
</g>
</svg>
