<?xml version="1.0" encoding="utf-8"?>
<svg version="1.1" id="Layer_1"
xmlns="http://www.w3.org/2000/svg"
xmlns:xlink="http://www.w3.org/1999/xlink"
width="18px" height="10px"
xml:space="preserve">
<g id="959" transform="matrix(1, 0, 0, 1, 2, 2.7)">
<path style="fill:#000000;fill-opacity:0.85098" d="M3.1,-0.65L3.15 -0.85L3.75 -1.45L4.4 -1.95L5.5 -2.55L5.85 -2.7L6.4 -2.65L6.8 -2.45L7.1 -2.2L7.25 -1.9Q8.1 -1.95 8.15 -1.25Q8.15 -0.85 7.8 -0.6Q6.65 0.2 5.35 0.15Q4.25 0.15 3.45 -0.5L3.45 -0.55L3.35 -0.55L3.3 -0.55L3.2 -0.55L3.1 -0.65M9.35,-0.8L11.25 -1.25L11.7 -1.4Q13.85 -1.65 15.15 -0.15Q15.6 0.35 15.15 0.95Q14.3 2.2 12.85 2.75L12.4 3Q10.35 4.65 8.4 3.15Q7.1 2.1 7.6 0.4L7.9 0.1L8.3 -0.2Q8.7 -0.65 9.35 -0.8M6.55,4.55L7.65 4.65L8.1 4.7Q8.3 4.7 8.45 4.85L8.45 4.9L8.5 5.05L8.5 5.1L8.5 5.2L8.55 5.4L8.5 5.7L8.45 5.9L8.15 6.15Q7.05 6.9 5.7 7.1Q4.2 7.3 3 6.45Q2.7 6.2 2.5 6.45L2.4 6.5L2.35 6.45L2.25 6.45L2.15 6.4L2.15 6.3L2.15 6.2L2.15 6.1L2.2 5.95L2.2 5.85L2.25 5.7L2.3 5.65L2.3 5.6L2.4 5.6L2.5 5.65L2.55 5.7L2.6 5.7L2.65 5.65L3.85 5.3L5.8 4.8L6.55 4.55M0.25,2.25L0.5 2.45L0.55 2.5L0.7 2.65L0.75 2.8L0.75 2.95L0.8 3.3L1 4.05L1.2 4.9L1.15 5.35Q0.7 5.85 0.15 5.55L-1.55 4.55Q-2.15 4.2 -1.95 3.45Q-1.85 3.25 -1.9 3.05L-1.85 3L-1.6 2.75L-1.4 2.65L-1.15 2.6L-1.05 2.35Q-0.8 2.2 -0.55 2.2L0 2.15L0.25 2.25" />
</g>
</svg>
