<?xml version="1.0" encoding="utf-8"?>
<svg version="1.1" id="Layer_1"
xmlns="http://www.w3.org/2000/svg"
xmlns:xlink="http://www.w3.org/1999/xlink"
width="25px" height="17px"
xml:space="preserve">
<g id="1055" transform="matrix(1, 0, 0, 1, 12.3, 12.4)">
<path style="fill:#FFCC00;fill-opacity:1" d="M8.5,-9.45L7.55 -8.4L6.9 -7.9Q6.7 -8.45 7.25 -9.05L8.2 -10L8.95 -10.55Q9 -10 8.5 -9.45M7.95,-9.6L7.5 -9L7.3 -8.6L7.8 -9.1L8.4 -9.75L8.6 -10.1L7.95 -9.6M4.7,-9.65L4.85 -9.65L5 -9.5L5.05 -9.35L5.05 -9.1L5.05 -9L5.2 -8.95L5.5 -8.7Q5.55 -8.2 5 -7.95L3.8 -7.35L3.7 -7.35L3.65 -7.4L3.65 -7.5L3.75 -7.7L3.85 -7.95L4 -8.15L4.05 -8.1L4.1 -8L4.1 -7.9L4.15 -7.8L4.15 -7.75L4.25 -7.75L4.35 -7.75L4.65 -7.95L5 -8.2L5.15 -8.3L5.2 -8.3L5.3 -8.4L5.35 -8.45L5.35 -8.6L5.3 -8.7L5.25 -8.75L5.2 -8.8L5.15 -8.8L5.1 -8.85L5 -8.85L5 -8.9L5 -8.95L5 -9.15L4.9 -9.35L4.8 -9.4L4.75 -9.45L4.6 -9.5L4.55 -9.5L4.55 -9.6L4.55 -9.7L4.7 -9.65M4.5,-9.75Q4.3 -10.3 3.8 -10.5L4.05 -10.4L4.5 -9.75M2.8,-9.65L2 -9.65Q1.45 -9.5 1.5 -8.95L1.5 -8.25L1.5 -8.2L1.4 -8.15L1.3 -8.2L1.25 -8.25L1.25 -8.35L1.25 -8.45L1.1 -8.65L0.8 -9.45Q0.65 -9.85 0.75 -10.25L1.1 -10.65L1 -10.6L0.95 -9.95L0.95 -9.45L1 -9.2L1 -9.15L1.05 -9L1.05 -8.95L1.15 -8.95L1.3 -8.95L1.35 -9.05L1.5 -9.3L1.6 -9.5L1.65 -9.55L1.75 -9.75L2.8 -9.65M3.6,-9.05L3.55 -9.05L3.4 -9.05L3.35 -9L3.3 -9L3.2 -9L3.1 -9.05L3.05 -9.1L3.05 -9.3L3 -9.4L3 -9.45L3.4 -9.15L3.55 -9.1L3.6 -9.05L3.75 -9L3.85 -8.95L4.05 -8.8L4 -8.65L4 -8.6L3.85 -8.65L3.8 -8.7L3.8 -8.8L3.75 -8.85L3.75 -8.9L3.7 -8.95L3.6 -9.05M5.4,-6.55L6 -6.65L6.45 -6.55Q6.45 -6.3 6.6 -6.15L7.2 -5.75L7.35 -5.6L7.2 -5.15Q7.05 -5.05 7.25 -5.05L7.4 -5L7.5 -4.95L7.45 -4.55L7.3 -4.2L7 -4L6.8 -3.85L6.7 -3.8L7.15 -4L7.6 -4.4L7.8 -4.65L7.9 -4.7Q7.75 -5.05 7.9 -5.35Q8.05 -5.55 7.8 -5.75L7.4 -6.15L7 -6.55L6.8 -6.6L6.7 -6.75L6.7 -6.85L6.7 -6.9Q6.45 -6.9 6.4 -7.05L6.4 -7.15L6.4 -7.2L6 -6.95L5.6 -6.75L5.4 -6.55M7,-7.4L6.9 -7.2L6.85 -7.15L6.9 -7.05L6.9 -6.9L7.8 -6.2L8.25 -5.5L8.15 -5Q8.25 -4.35 7.6 -3.9L7.15 -3.6L7.6 -3.6L8.15 -3.5L8.65 -3.25L8.65 -3.2L8.6 -3.15L8.55 -3.05L8.5 -3L8.3 -2.95L7.9 -2.75L7.9 -2.55L7.95 -2.55L8.05 -2.45L8.15 -2.4L8.25 -2.3L8.6 -2.1L8.75 -1.85L8.55 -1.65L8.3 -1.5L8.8 -1.6L9.45 -1.65L9.65 -1.65L9.75 -1.55L9.8 -1.45L9.65 -1.3L9.45 -1.2L10.1 -0.95L10.9 -0.7L11.25 -0.6L11.25 -0.55L11.3 -0.55L11.3 -0.45L11.35 -0.4L11.5 -0.35L11.75 -0.2L11.8 -0.2L11.55 0.1L10.45 0.3Q10.85 0.45 11.15 0.7L11.8 1Q12.2 1.15 12.4 1.4L10.4 1.35L9.7 1.2L10.15 1.4L10.55 1.7L10.85 2L10.85 2.05L8.7 1.85L8.1 1.95Q7.95 2.2 7.65 2.15L6.75 2.15L6.8 2.2L6.95 2.4L6.95 2.6L6.95 2.7L6.9 2.75L5.55 2.65L5.05 2.5L5.2 2.8L5.5 3L5.8 3.2L5.85 3.25L5.9 3.35L5.9 3.45L5.35 3.4L3.85 3.2L2.6 3.15L0.35 3.3L-0.45 3.35L-1.45 3.3L-2 2.95L-2.9 3.4L-3.55 3.75L-4.05 4.2L-4.15 4.2L-4.25 4.15L-4.3 4.1L-4.3 4.05L-4.3 3.95L-4.25 3.85L-4.2 3.85L-4.4 3.6L-4.55 3.25L-4.6 3.1L-4.55 2.8L-4.6 2.75L-4.9 2.75L-5.05 2.85L-5.1 2.9L-5.2 2.9L-5.35 2.85L-5.4 2.75L-5.35 2.55L-5.3 2.35L-5.2 2.25L-5.8 2.35L-6 2.45L-7.75 2.45L-8.1 2.3L-8.1 2.25L-8.05 2.2L-8.05 2.15L-8.7 2.05L-8.75 2L-8.8 1.9L-8.8 1.8L-8.75 1.75L-8.65 1.65L-8.65 1.6L-9.15 1.55L-9.25 1.5L-9.3 1.45L-9.3 1.35L-9.25 1.3L-9.25 1.25L-9.15 1.15L-9.05 1.1L-9 1.1L-9.7 1.1L-10.35 0.85L-10.4 0.8L-10.45 0.7L-10.65 0.7L-11.25 0.6L-11.3 0.55L-11.3 0.35L-11.25 0.3L-11.1 0.25L-10.95 0.15L-10.85 0.1L-10.8 0.1L-10.65 0.05L-10.35 -0.1L-10.55 -0.2Q-10.8 -0.2 -10.9 -0.3L-11.4 -0.45L-12.25 -0.7L-12.25 -0.85L-12.05 -0.95L-11.85 -1L-11.75 -1L-11.3 -1.2L-11.25 -1.3L-11.1 -1.35L-8.4 -1.5L-8.55 -1.55L-8.6 -1.55L-8.7 -1.6L-8.75 -1.65L-8.85 -1.7L-8.95 -1.7L-8.95 -1.8L-8.8 -1.85L-8.2 -1.8L-7.6 -1.75L-6.8 -1.55L-6.8 -1.5L-6.55 -1.4L-6.3 -1.25Q-6.5 -0.8 -7.25 -0.9L-8.2 -0.8L-8.15 -0.75L-8.05 -0.65L-7.9 -0.55L-7.95 -0.4L-7.4 -0.3Q-7.15 -0.3 -7 -0.1L-7 -0.05L-7.05 0L-7.05 0.05L-7.15 0.05L-7.05 0.15L-6.95 0.2L-6.95 0.35L-6.95 0.45L-6.95 0.5L-4.85 0.1L-4.55 -0.05L-4.05 -0.1L-4 -0.1Q-3.85 0.05 -4 0.15L-4.5 0.45L-4.7 0.75L-4.75 0.8L-4.75 0.85L-4.7 0.85L-4.65 0.9L-4.6 0.9L-4.5 1L-4.5 1.2L-3.7 1.2L-3.6 1.25L-3.5 1.35L-3.5 1.5Q-3.2 1.55 -3 1.25L-2.55 0.8L-2.45 0.7L-2.35 0.65Q-2.2 0.35 -1.85 0.45L-1.85 0.55L-1.85 0.7L-1.95 0.9L-2 1.15L-1.55 1.25L-1.5 1.4L-0.9 0.6L-0.55 0.55L0.55 1.15L1.65 1.4L1.7 1.25L1.7 1.1L1.7 0.95L1.7 0.7L1.7 0.65L3.35 0.9L3.75 0.9L5.45 0.65L5.3 0.5L5 0.4L4.7 0.2L4.7 0.15Q5.65 0 6.9 0.15L8.6 0.1L8.8 0.05L8.55 -0.1L8.05 -0.35Q7.75 -0.4 7.7 -0.55L7.7 -0.6L7.75 -0.65L7.75 -0.7L7.85 -0.75L7.9 -0.8L5.75 -1.15L5.5 -1.35L6.6 -1.5L6.8 -1.55L6.95 -1.55L6.9 -1.65L6.95 -1.8L7 -1.95L7.05 -2L6.85 -2.15L6.6 -2.2L6.55 -2.35L6.6 -2.45L6.7 -2.6L6.55 -2.75L6.3 -2.9L6.25 -2.9L6.25 -3.1L5.5 -3.05L6.1 -3.8L7 -4.5L7.05 -4.75L6.75 -4.85L6.75 -5.05L6.85 -5.3L7 -5.45L6.5 -5.8L6.25 -6.1L6.15 -6.3L5.2 -6.15L4.95 -6.2Q4.95 -6.75 5.55 -7L6.7 -7.6L7 -7.75L7.2 -7.6L7 -7.4M3.5,-3.25L3.25 -2.9L3.15 -2.75L3.15 -2.7L3.6 -2.75L3.7 -2.8L3.75 -2.8L3.8 -2.75L3.85 -2.7L3.95 -2.7L3.95 -2.6L3.85 -2.5L3.8 -2.45L3.75 -2.4L3.7 -2.4L3.55 -2.3L3.4 -2.2L3.75 -2.05L3.85 -2L3.95 -1.95Q4.15 -1.8 4.4 -1.75L4.5 -1.6L3.55 -1.35L1.45 -1.55L1.45 -1.6L1.45 -1.7L1.5 -1.8L1.55 -1.85L1.65 -1.85L1.7 -1.9L1.75 -2L1.9 -2.1L1.55 -2.15L1.05 -2.15L1 -2.2L1 -2.3L1 -2.4L1 -2.45L1.05 -2.5L1.1 -2.6L1.25 -2.85L1.3 -2.9L1.05 -2.75L0.9 -2.7L0.5 -2.65L-0.65 -2.75L-0.65 -2.7L-0.55 -2.6L-0.5 -2.5L-0.4 -2.45L-0.35 -2.4L-0.15 -2.25L-0.15 -2L-0.2 -2L-0.3 -1.95L-0.35 -1.95L-0.65 -1.9L-0.65 -1.85L-0.6 -1.75L-0.5 -1.65L-0.45 -1.6L-0.45 -1.55L-0.3 -1.45L-0.2 -1.2L-1.25 -1L-2.6 -1.2L-3.35 -1.35L-4.2 -1.7L-4.1 -1.85L-3.8 -2L-3.55 -2.1L-2.7 -2.4L-2.55 -2.5L-2.4 -2.55L-2.55 -2.55L-3.1 -2.65L-3.65 -2.65L-3.7 -2.7L-3.7 -2.8L-3.65 -2.85L-3.6 -2.9L-3.55 -2.9L-3.6 -2.95L-3.75 -3.05L-3.95 -3.15L-4 -3.15Q-4.3 -3.15 -4.5 -3.35L-4.2 -3.5L-3.3 -3.6L-2.4 -3.8L-2.65 -3.9L-2.8 -4L-3.4 -4.4L-3.7 -4.6Q-4 -4.7 -3.8 -4.9L-3.75 -4.9L-3 -4.85L-2.2 -4.75L-1.7 -4.65L-1 -4.25L-1.05 -4.5L-1.25 -4.8L-1.2 -5L-0.45 -4.55L0.05 -3.9L0.15 -3.85Q0.2 -4.45 0.55 -4.9L1.05 -5.95L1.45 -6.3Q1.75 -5.85 1.5 -5.1L1.25 -3.8L1.1 -3.2L1.7 -3.7L2.45 -4.05L4.05 -4.25L4.1 -4.1L4.05 -4L3.95 -3.85L3.6 -3.35L3.5 -3.25M1.6,-2.4L1.65 -2.4L2.45 -2.2L2.45 -2.15L2.4 -2.1L2.3 -2L2.2 -1.9L2.15 -1.85L3.15 -1.75L3.65 -1.75L3.2 -1.9L3.05 -1.95Q2.85 -2 2.8 -2.1L2.8 -2.2L3 -2.35L3.05 -2.35L3.1 -2.4L3 -2.4L2.85 -2.45L2.85 -2.75L3.05 -3.15L3.5 -3.7L3.6 -4L3 -3.85L2.3 -3.6L1.85 -3.35L1.85 -3.2L1.8 -3.15L1.75 -3.1L1.65 -2.9L1.55 -2.8L1.6 -2.8L1.65 -2.8L1.55 -2.7L1.45 -2.5L1.4 -2.45L1.6 -2.4M0.1,-3.55L0 -3.55L-0.15 -3.7L-0.45 -4L-0.45 -3.9L-0.45 -3.8L-0.45 -3.7L-0.45 -3.65L-0.55 -3.65L-0.55 -3.6L-0.7 -3.6L-1.05 -3.75L-1.15 -3.75L-1.5 -4.05L-1.9 -4.35L-2.1 -4.4L-2.65 -4.5L-3.2 -4.55L-3.1 -4.5L-2.9 -4.4L-2.7 -4.3L-1.95 -3.85L-1.8 -3.75L-1.75 -3.55L-1.85 -3.5L-1.95 -3.5L-1.95 -3.45L-2.25 -3.45L-2.7 -3.4L-3.55 -3.25L-3.5 -3.25L-3.4 -3.2L-3.35 -3.2L-3.3 -3.15L-3.25 -3.1L-3.25 -3.05L-3.2 -3.05L-3.2 -2.95L-2.6 -2.8L-2.3 -2.85L-1.8 -2.65L-1.85 -2.45L-1.85 -2.4L-1.95 -2.4L-2.1 -2.35L-2.15 -2.25L-2.3 -2.2L-3.25 -1.85L-3.35 -1.85L-3.6 -1.75L-2.4 -1.55L-2.15 -1.5L-1.95 -1.5L-1.75 -1.4Q-1.65 -1.2 -1.45 -1.25L-1.25 -1.35L-1 -1.4L-0.8 -1.45L-1 -1.65L-1 -1.75L-1 -1.85L-1 -1.95L-1.05 -2L-1.05 -2.1L-0.95 -2.2L-0.85 -2.25L-0.75 -2.3L-0.8 -2.35L-0.9 -2.45L-0.95 -2.55L-0.9 -2.7L-0.9 -2.75L-0.95 -2.8L-1.1 -2.9L-1.2 -2.9L-1.2 -2.95L-1.15 -3L-1.1 -3L-0.85 -3.1L-0.65 -3.1L-0.6 -3.1L-0.45 -3.1L0.15 -3.1L0.35 -3.15L0.75 -3.15L0.8 -3.1L0.8 -3.05L1 -3.1L0.9 -3.45L0.95 -3.55L1.2 -4.1L1.1 -4.65L1.25 -5.2L1.35 -5.85L0.95 -5L0.55 -4L0.4 -3.55L0.2 -3.5L0.1 -3.55M6.7,-2.95L6.75 -2.85L6.8 -2.75L6.8 -2.7L7 -2.7L7.05 -2.7L7.05 -2.65L7 -2.5L7.15 -2.35L7.3 -2.25L7.4 -2.2L7.4 -2.1L7.4 -1.95L7.35 -1.85L7.35 -1.8L7.4 -1.7L7.4 -1.65L7.45 -1.6L8.3 -1.9L8.25 -1.95L8.15 -2L8.1 -2.1L7.95 -2.15L7.8 -2.3L7.45 -2.45L7.45 -2.75L7.45 -2.85L7.45 -2.9L7.6 -2.9L7.75 -3L7.85 -3.05L8.05 -3.1L8.25 -3.2L8.1 -3.3L7.5 -3.3Q6.9 -3.3 6.95 -3.5L6.8 -3.4L6.7 -3.25L6.5 -3.1L6.7 -3L6.7 -2.95M8.3,-3.9L9.35 -4L9.9 -4.25L10.2 -4.4L10.5 -4.6L9.6 -4.35L8.8 -4.1L8.3 -3.9M9.4,0.1L9.15 0.25L8.85 0.4L6.75 0.55L5.65 0.4L5.6 0.4L5.75 0.45L5.85 0.55L6.05 0.75L6.1 0.8L6 0.8L3.65 1.3L2.75 1.25L2.1 1.1L2 1.2L2 1.35L1.95 1.55L1.85 1.85L0.8 1.65L0.35 1.45L-0.05 1.25L-0.35 1.05L-0.75 0.85L-0.85 1.1L-1.1 1.55L-1.25 1.7L-1.3 1.65L-1.85 1.6Q-1.8 1.45 -1.95 1.55L-2.15 1.6L-2.15 1.55L-2.25 1.45L-2.35 1.5L-2.4 1.45L-2.4 1.3L-2.4 1.2L-2.4 1.15L-2.75 1.5L-3.05 1.75L-3.05 1.65L-3.1 1.6L-3.25 1.6L-3.55 1.65L-3.75 1.75L-3.85 1.65L-3.85 1.55L-4.55 1.5L-4.9 1.35L-4.9 1.25L-5.05 1.25L-5.2 1.2L-5.2 1.15L-5.15 1.1L-5.15 1.05L-5.25 0.95L-5.15 0.8L-5.05 0.65L-5.05 0.6L-7.3 0.85L-7.45 0.75L-7.45 0.65L-7.4 0.6L-7.35 0.5L-7.3 0.45L-7.65 0.35L-7.7 0.2L-7.65 0.1L-7.65 0.05L-7.7 0L-8.6 -0.15L-8.65 -0.25L-8.65 -0.3L-8.65 -0.4L-8.6 -0.45L-8.65 -0.5L-8.5 -0.55L-8.4 -0.6L-8.6 -0.65L-8.75 -0.75L-8.8 -0.8L-8.7 -0.85L-8.5 -0.95L-8.5 -1.1L-8.8 -1.05L-8.85 -1.05L-8.75 -1.15L-6.85 -1.25L-7.2 -1.35L-7.65 -1.4L-7.8 -1.5L-7.85 -1.5L-7.85 -1.45Q-7.9 -1.3 -8.15 -1.3L-10.45 -1.1L-10.5 -1.05L-10.55 -1L-10.85 -0.95L-11.1 -0.85L-11.25 -0.85L-11.4 -0.8L-11.45 -0.75L-11 -0.65L-10.8 -0.6L-10.65 -0.55Q-10.25 -0.5 -10 -0.2L-9.95 -0.05L-10 0L-10 0.05L-10.05 0.1L-10.1 0.1L-10.2 0.2L-10.25 0.2L-10.35 0.25L-10.4 0.3L-10.55 0.35L-10.5 0.4L-10.35 0.4L-10.25 0.45L-10.2 0.45L-10.05 0.6L-10.05 0.65L-10 0.65L-10 0.7L-8.55 0.8L-8.3 0.9L-8.3 0.95L-8.35 1L-8.35 1.05L-8.4 1.1L-8.6 1.25L-8.55 1.25L-8.5 1.3L-8.4 1.3L-8.35 1.35L-8.3 1.4L-8.25 1.4L-8.25 1.65L-8.3 1.7L-7.8 2L-6.75 2.1L-6 2.15L-5.95 2.1L-5.3 1.95L-5 1.9L-4.85 1.9L-4.7 1.95L-4.65 2L-4.7 2.1L-4.85 2.25L-4.9 2.4Q-4.5 2.3 -4.25 2.6L-4.2 2.9L-4.2 3.05L-4.25 3.15L-4.2 3.15L-4.1 3.3L-4.05 3.45L-4 3.5L-3.25 3.2L-2.75 2.95L-2.15 2.55L-1.45 2.85L-1.1 3.1L-0.5 3.2Q0 2.6 0.9 2.85Q1.75 3.1 2.25 2.85L4.9 3L4.7 2.8L4.55 2.45L4.65 2.15L5.65 2.3L6.45 2.4Q6.25 2.2 6.35 2Q6.7 1.5 7.35 1.65L7.35 1.55Q7.85 1.25 8.7 1.55L10 1.7L9.65 1.5L9.25 1.3L8.95 1.1L8.95 1.05Q9.65 0.65 10.6 1.05L11.3 1.2L10.65 0.8L10.15 0.55L9.65 0.2L9.65 0.15L10.85 -0.1L11.15 -0.15L11.1 -0.2L10.95 -0.25L10.85 -0.4L10.8 -0.45L9.8 -0.75L8.8 -1.05L8.7 -1.1L7.9 -1.2L8.2 -1.05L8.2 -1L8.25 -0.95L8.25 -0.85L8.3 -0.8L8.35 -0.8L8.4 -0.75L8.5 -0.7L8.55 -0.65L8.55 -0.45L9 -0.2L9.35 -0.05L9.4 0.1M7.45,-3.75Q8.15 -4.25 9.1 -4.5L11.15 -4.85L11.3 -4.85L11.35 -4.8L11.4 -4.7L9.95 -3.95Q8.8 -3.3 7.45 -3.75M-11.75,-9.45L-10.55 -8.85L-9.35 -8.15L-8.8 -7.55L-9.3 -7.45L-10.2 -7.7L-10.85 -8.2L-11.5 -8.75L-11.75 -9.05L-11.85 -9.15L-11.9 -9.25L-11.9 -9.4L-11.75 -9.45M-11.1,-8.7L-10.65 -8.3L-10.15 -8L-9.9 -8L-10.5 -8.35L-11.1 -8.7M-0.5,-9.65Q-0.1 -9.7 -0.05 -10.15L-0.15 -11.05L-0.4 -11.7L-0.45 -11.75L-0.6 -11.8L-0.7 -11.9L-0.85 -11.95Q-1.1 -11.75 -0.9 -11.35L-0.65 -10.45L-0.85 -11L-1.1 -11.75Q-1.3 -12.15 -1.05 -12.4L-0.15 -11.35Q0.15 -10.75 0.05 -10.05Q0 -9.65 -0.3 -9.35L-0.65 -9.6L-0.75 -10L-0.6 -10.25L-0.5 -9.65M-1.35,-8.75L-1.15 -8.75L-1.05 -9L-1 -9.05L-1.05 -9.25L-1.05 -9.9Q-1.05 -10.3 -1.4 -10.45L-1.85 -10.25L-2.6 -10.1L-2.7 -9.75L-2.75 -9.35L-2.75 -9.1L-2.75 -9.05L-2.7 -9L-2.6 -8.95Q-2.45 -8.95 -2.4 -9.05L-2.3 -9.15L-2.25 -9.2L-2.05 -9.15L-1.65 -9.1L-1.6 -8.95L-1.85 -9.05L-2.1 -9L-2.1 -8.95L-2.15 -8.9L-2.15 -8.85L-2.2 -8.85L-2.25 -8.8Q-2.65 -8.8 -2.85 -9.15Q-3.1 -9.45 -3 -9.85L-2.85 -10.2L-2.8 -10.2L-2.75 -10.25L-2.7 -10.25L-2.6 -10.2L-2.55 -10.25L-2.4 -10.35L-2.35 -10.35L-2.3 -10.4L-2.25 -10.4L-2.2 -10.35L-2.15 -10.35L-2.1 -10.3L-2 -10.3L-1.75 -10.4L-1.4 -10.55L-1.2 -10.5L-1.05 -10.5L-0.95 -10.4L-0.9 -9.8L-0.85 -8.95L-1 -8.25L-1.2 -8.3L-1.35 -8.6L-1.45 -8.8L-1.35 -8.75M-5.75,-7L-5.75 -7.15L-5.7 -7.15L-5.6 -7.2L-5.4 -7.25L-5.35 -7.25L-5.3 -7.3L-5.3 -7.4L-5.25 -7.5L-5.25 -7.55L-5.2 -7.55L-4.8 -7.7L-4.7 -7.75L-4.5 -7.85L-4.5 -7.95L-4.05 -7.85L-3.85 -7.85L-3.8 -7.9L-3.65 -7.65L-3.15 -7L-2.6 -6.4L-3.05 -7.4L-3.15 -7.65L-3.05 -7.7L-3.3 -8.05L-3.4 -8.1L-3.65 -8.55L-4.15 -9.3L-4.45 -9.45L-4.6 -9.35L-4.7 -9.25L-4.85 -9.2L-4.9 -9.1L-4.95 -9.05L-4.95 -8.95L-5 -8.9L-5 -8.85L-5.3 -8.85L-5.45 -8.95L-5.65 -9.1L-5.9 -8.85L-6.3 -8.35L-6.45 -8.1L-7.25 -8.05L-7.4 -7.9L-7.45 -7.8L-7.5 -7.7L-7.6 -7.55L-7.6 -7.5L-7.4 -7.3L-7.15 -7L-6.65 -6.35Q-6.5 -5.8 -6 -5.9L-5.95 -5.95L-5.95 -6.2L-6 -6.5L-6.1 -6.65L-6.1 -6.8L-6 -6.9L-5.85 -6.95L-5.75 -7M-4.55,-9.75Q-3.55 -9.45 -3.2 -8.5L-2.4 -6.85L-2.1 -5.9L-2.75 -6.35L-3.75 -7.35L-4.2 -7.8L-4.2 -7.7L-4.2 -7.65L-4.2 -7.55L-4.2 -7.5L-4.3 -7.45L-4.95 -7.4L-4.95 -7.35L-5 -7.3L-5.05 -7.3L-5.35 -7.2L-5.4 -7.1L-5.45 -6.95Q-5.55 -6.75 -5.85 -6.75L-6 -6.7L-6 -6.6L-5.85 -6.35L-5.5 -6L-5.45 -5.8L-5.5 -5.8L-5.6 -5.75L-5.85 -5.7L-5.9 -5.65L-5.95 -5.6L-6 -5.6L-6.15 -5.7L-6.5 -5.95L-6.9 -6.25L-6.9 -6.5L-7.65 -7.25Q-8.15 -7.75 -7.4 -8.2L-6.6 -8.4L-6.55 -8.55L-6.3 -8.8L-6 -9.15L-5.9 -9.3L-5.85 -9.35L-5.5 -9.35L-5.2 -9.2L-5.2 -9.3L-5.15 -9.35L-5.15 -9.4L-5.1 -9.4L-5.1 -9.45L-5.05 -9.45L-4.85 -9.55Q-4.7 -9.6 -4.65 -9.7L-4.55 -9.75M-5.5,-4.85Q-5.45 -4.6 -5.75 -4.55L-7.15 -4.15L-7.2 -4.1L-7.2 -4.05L-7.25 -3.95L-7.25 -3.9L-7.2 -3.8L-7 -3.7L-6.85 -3.55L-6.8 -3.45L-6.9 -3.35L-7.15 -3.25L-7.35 -3.2L-7.2 -2.9L-6.85 -2.6L-6.5 -2.2Q-7 -1.8 -7.7 -2.2L-8.95 -2.8L-9.05 -2.9L-9 -3.15L-8.8 -3.35L-8.7 -3.55L-8.55 -3.7L-9.15 -3.95L-9.65 -4.3L-9.8 -4.55L-9.5 -4.8L-8.85 -4.95Q-8.75 -4.95 -8.75 -5.1L-8.65 -5.2L-8.25 -5.25L-8.35 -5.4L-8.6 -5.55L-8.8 -5.7L-8.75 -5.8L-8.4 -5.85L-8.35 -5.9L-8.4 -5.9L-8.5 -5.95L-8.55 -6L-8.55 -6.05L-8.5 -6.1L-7.35 -5.65Q-6.8 -5.35 -6.15 -5.2L-5.5 -4.85M-7.7,-5L-7.7 -4.95L-7.75 -4.9L-7.75 -4.85L-7.9 -4.85L-8.4 -4.9L-8.7 -4.7L-9.25 -4.5L-9.3 -4.45L-8.85 -4.15L-8.15 -3.85L-8.05 -3.75L-8.2 -3.5L-8.5 -3.25L-8.6 -3.05L-7.95 -2.75L-7.4 -2.45L-7.2 -2.4L-7.45 -2.7L-7.9 -3.1L-8.05 -3.2L-8.05 -3.25L-7.8 -3.4L-7.5 -3.45L-7.4 -3.45L-7.35 -3.5L-7.4 -3.55L-7.45 -3.7L-7.45 -3.8L-7.5 -3.85L-7.5 -3.9L-7.55 -3.95L-7.55 -4L-7.5 -4.05L-7.5 -4.1L-7.45 -4.15L-7.4 -4.2L-7.35 -4.25L-7.4 -4.3L-7 -4.5L-6.45 -4.65L-6.4 -4.65L-6.25 -4.7L-6.35 -4.75L-6.6 -4.9L-7 -5.1L-7.45 -5.3L-8.15 -5.5L-7.95 -5.3L-7.75 -5.15L-7.65 -5L-7.7 -5" />
<path style="fill:#FFFF00;fill-opacity:1" d="M8.6,-10.1L8.4 -9.75L7.8 -9.1L7.3 -8.6L7.5 -9L7.95 -9.6L8.6 -10.1M3.9,-8.3L4 -8.6L4 -8.65L4.05 -8.8L3.85 -8.95L3.75 -9L3.6 -9.05L3.55 -9.1L3.65 -9.1L3.95 -9.15L3.95 -9.1L4.1 -9L4.25 -8.95L4.3 -8.95L4.2 -8.85L4.15 -8.8L4.15 -8.7L4.15 -8.65L4.2 -8.6L4.3 -8.55L4.4 -8.5L4.35 -8.4L4.35 -8.3L4.4 -8.25L4.4 -8.2L4.7 -8.3L4.75 -8.4L4.85 -8.6L4.8 -8.75L4.75 -8.8L4.7 -8.8L4.65 -8.9L4.65 -8.95L4.5 -9.2L4.3 -9.4L3.95 -9.5L3.9 -9.65L3.75 -9.8L3.45 -9.9L3.4 -9.95L3.3 -10.1L3 -10.1L2.85 -10.1L2.75 -10.25L2.4 -10.25L2.25 -10.2L2.2 -10.25L2.1 -10.3L2.05 -10.35L1.95 -10.35L1.85 -10.3L1.75 -10.2L1.7 -10.1L1.65 -10L1.6 -10L1.55 -10.05L1.45 -10.05L1.4 -10.1L1.4 -10.15L1.35 -10.2L1.25 -10.2L1.2 -10.15L1.15 -10.05L1.1 -9.95L1.1 -9.85L1.15 -9.75L1.1 -9.55L1.1 -9.45L1.1 -9.25Q1.15 -9.15 1.3 -9.2L1.45 -9.35L1.6 -9.5L1.5 -9.3L1.35 -9.05L1.3 -8.95L1.15 -8.95L1.05 -8.95L1.05 -9L1 -9.15L1 -9.2L0.95 -9.45L0.95 -9.95L1 -10.6L1.1 -10.65L1.1 -10.7L1.2 -10.7L1.3 -10.7L1.5 -10.7L1.55 -10.7L1.85 -10.75L1.95 -10.75L2.6 -10.75L3.8 -10.5Q4.3 -10.3 4.5 -9.75L4.55 -9.7L4.55 -9.6L4.55 -9.5L4.6 -9.5L4.75 -9.45L4.8 -9.4L4.9 -9.35L5 -9.15L5 -8.95L5 -8.9L5 -8.85L5.1 -8.85L5.15 -8.8L5.2 -8.8L5.25 -8.75L5.3 -8.7L5.35 -8.6L5.35 -8.45L5.3 -8.4L5.2 -8.3L5.15 -8.3L5 -8.2L4.65 -7.95L4.35 -7.75L4.25 -7.75L4.15 -7.75L4.15 -7.8L4.1 -7.9L4.1 -8L4.05 -8.1L4 -8.15L3.9 -8.3M5.6,-6.75L6 -6.95L6.4 -7.2L6.4 -7.15L6.4 -7.05Q6.45 -6.9 6.7 -6.9L6.7 -6.85L6.7 -6.75L6.8 -6.6L7 -6.55L7.4 -6.15L7.8 -5.75Q8.05 -5.55 7.9 -5.35Q7.75 -5.05 7.9 -4.7L7.8 -4.65L7.6 -4.4L7.15 -4L6.7 -3.8L6.8 -3.85L7 -4L7.3 -4.2L7.45 -4.55L7.5 -4.95L7.4 -5L7.25 -5.05Q7.05 -5.05 7.2 -5.15L7.35 -5.6L7.2 -5.75L6.6 -6.15Q6.45 -6.3 6.45 -6.55L6 -6.65L5.4 -6.55L5.6 -6.75M1.75,-9.75L1.9 -9.95L2 -9.9L2.35 -9.9L2.6 -9.95L2.6 -9.9L2.65 -9.8L3.05 -9.85L3.15 -9.8L3.15 -9.75Q3.15 -9.6 3.3 -9.6L3.6 -9.55L3.45 -9.45L3.4 -9.3L3.4 -9.15L3 -9.45L2.85 -9.6L2.8 -9.65L1.75 -9.75M1.85,-3.2L1.85 -3.35L2.3 -3.6L3 -3.85L3.6 -4L3.5 -3.7L3.05 -3.15L2.85 -2.75L2.85 -2.45L3 -2.4L3.1 -2.4L3.05 -2.35L3 -2.35L2.8 -2.2L2.8 -2.1Q2.85 -2 3.05 -1.95L3.2 -1.9L3.65 -1.75L3.15 -1.75L2.15 -1.85L2.2 -1.9L2.3 -2L2.4 -2.1L2.45 -2.15L2.45 -2.2L2.75 -2.35L2.6 -2.55L2.25 -2.65L2.3 -2.8L2.45 -2.95L2.5 -3.05L2.7 -3.15L3 -3.3L2.95 -3.5L2.75 -3.45L2.35 -3.3L1.8 -3.15L1.85 -3.2M1.75,-3.1L1.8 -3.15L1.75 -3.05L1.75 -2.95L1.65 -2.9L1.75 -3.1M1.4,-2.45L1.45 -2.5L1.55 -2.7L1.65 -2.8L1.8 -2.85L1.85 -2.85L1.75 -2.8L1.55 -2.65L1.5 -2.45L1.6 -2.4L1.4 -2.45M0.9,-4.4L0.75 -3.85L0.6 -3.4L0.2 -3.5L0.4 -3.55L0.55 -4L0.95 -5L1.35 -5.85L1.25 -5.2L1.1 -4.65L0.9 -4.4M0.85,-3.2L0.9 -3.45L1 -3.1L0.8 -3.05L0.8 -3.1L0.75 -3.15L0.85 -3.2M-0.4,-3.2L-0.45 -3.4L-0.1 -3.3L0.35 -3.15L0.15 -3.1L-0.45 -3.1L-0.4 -3.2M-1.1,-3.05L-1.05 -3.15L-1.05 -3.2L-0.75 -3.15L-0.7 -3.15L-0.65 -3.1L-0.85 -3.1L-1.1 -3L-1.1 -3.05M-1.25,-2.95L-1.2 -2.95L-1.2 -2.9L-1.25 -2.95M-1.2,-1.45L-1.15 -1.6L-1.2 -1.85L-1.3 -1.9L-1.4 -1.9L-1.4 -2L-1.4 -2.1L-1.4 -2.15L-1.45 -2.2L-1.45 -2.25L-1.3 -2.35L-1.1 -2.45L-0.95 -2.55L-0.9 -2.45L-0.8 -2.35L-0.75 -2.3L-0.85 -2.25L-0.95 -2.2L-1.05 -2.1L-1.05 -2L-1 -1.95L-1 -1.85L-1 -1.75L-1 -1.65L-0.8 -1.45L-1 -1.4L-1.25 -1.35L-1.2 -1.45M-1.9,-1.5L-1.65 -1.55L-1.7 -1.45L-1.75 -1.4L-1.95 -1.5L-1.9 -1.5M-2.2,-2.15L-2.05 -2.05L-1.95 -2L-2.05 -2L-2.15 -1.95L-2.2 -1.9L-2.25 -1.9L-2.3 -1.8L-2.2 -1.55L-2.15 -1.5L-2.4 -1.55L-3.6 -1.75L-3.35 -1.85L-3.25 -1.85L-2.3 -2.2L-2.15 -2.25L-2.2 -2.15M-2,-3.4L-2 -3.25L-2.15 -3.25L-2.45 -3.2L-2.55 -3.1L-2.4 -2.9L-1.75 -2.8L-1.45 -2.65L-1.55 -2.6L-1.85 -2.4L-1.85 -2.45L-1.8 -2.65L-2.3 -2.85L-2.6 -2.8L-3.2 -2.95L-3.2 -3.05L-3.25 -3.05L-3.25 -3.1L-3.3 -3.15L-3.35 -3.2L-3.4 -3.2L-3.5 -3.25L-3.55 -3.25L-2.7 -3.4L-2.25 -3.45L-1.95 -3.45L-2 -3.4M-1.6,-3.9L-1.7 -3.85L-1.75 -3.8L-1.75 -3.75L-1.7 -3.6L-1.75 -3.55L-1.8 -3.75L-1.95 -3.85L-2.7 -4.3L-2.9 -4.4L-3.1 -4.5L-3.2 -4.55L-2.65 -4.5L-2.1 -4.4L-1.9 -4.35L-1.5 -4.05L-1.15 -3.75L-1.6 -3.9M-0.6,-3.55L-0.7 -3.6L-0.55 -3.6L-0.6 -3.55M-0.45,-3.65L-0.45 -3.7L-0.45 -3.8L-0.45 -3.9L-0.45 -4L-0.15 -3.7L0 -3.55L-0.45 -3.65M7.2,-2.9L7.1 -3.1L6.8 -3.05L6.7 -3L6.5 -3.1L6.7 -3.25L6.8 -3.4L6.95 -3.5Q6.9 -3.3 7.5 -3.3L8.1 -3.3L8.25 -3.2L8.05 -3.1L7.85 -3.05L7.75 -3L7.6 -2.9L7.45 -2.9L7.45 -2.85L7.45 -2.75L7.45 -2.45L7.8 -2.3L7.95 -2.15L8.1 -2.1L8.15 -2L8.25 -1.95L8.3 -1.9L7.45 -1.6L7.4 -1.65L7.4 -1.7L7.35 -1.8L7.35 -1.85L7.4 -1.95L7.4 -2.1L7.4 -2.2L7.3 -2.25L7.15 -2.35L7 -2.5L7.05 -2.65L7.05 -2.7L7.2 -2.9M8.8,-4.1L9.6 -4.35L10.5 -4.6L10.2 -4.4L9.9 -4.25L9.35 -4L8.3 -3.9L8.8 -4.1M9.65,0.1L9.65 0L9.7 -0.1L9.65 -0.15L9.6 -0.2L9.5 -0.3L9.45 -0.4L9.45 -0.55L9.4 -0.55L9.2 -0.7L9 -0.85L8.8 -0.95L8.75 -0.9L8.7 -0.85L8.65 -0.75L8.7 -0.6L8.75 -0.55L8.9 -0.5L9.1 -0.4L9.1 -0.35L9.2 -0.2L9.35 -0.05L9 -0.2L8.55 -0.45L8.55 -0.65L8.5 -0.7L8.4 -0.75L8.35 -0.8L8.3 -0.8L8.25 -0.85L8.25 -0.95L8.2 -1L8.2 -1.05L7.9 -1.2L8.7 -1.1L8.8 -1.05L9.8 -0.75L10.8 -0.45L10.85 -0.4L10.95 -0.25L11.1 -0.2L11.15 -0.15L10.85 -0.1L9.65 0.15L9.65 0.1M-5.45,0.9L-5.6 0.9L-6 1L-6.45 1.25L-6.45 1.4L-6.4 1.4L-6 1.4L-5.9 1.35L-5.95 1.5L-5.9 1.6L-5.35 1.6L-5.2 1.4L-5.25 1.35L-5.3 1.35L-5.4 1.35L-5.35 1.3L-5.35 1.25L-5.25 1.2L-5.2 1.2L-5.05 1.25L-4.9 1.25L-4.9 1.35L-4.55 1.5L-3.85 1.55L-3.85 1.65L-3.75 1.75L-3.9 1.75L-3.95 1.75L-3.95 1.65L-4.15 1.7L-4.2 1.7L-4.3 1.75L-4.2 1.75L-4.05 1.8L-4 1.9L-3.9 1.95L-3.85 2.05L-3.6 2.1L-3.2 2.05L-3.05 1.75L-2.75 1.5L-2.4 1.15L-2.4 1.2L-2.4 1.3L-2.4 1.45L-2.35 1.5L-2.35 1.55L-2.4 1.65L-2.6 1.85L-2.6 2.2L-2.55 2.2L-2.25 2.1L-1.9 1.85L-1.8 1.9L-1.15 1.8L-1.25 1.7L-1.1 1.55L-0.85 1.1L-0.75 0.85L-0.35 1.05L-0.05 1.25L0.35 1.45L-0.1 1.55L-0.35 1.4L-0.55 1.25Q-0.8 1.1 -0.85 1.35L-0.7 1.6L0 2.05L0.55 2Q0.8 1.95 1.05 2.15L2.55 2.25L2.55 2.15L2.75 2.1L2.8 2.05L2.8 2L2.85 1.95L2.8 1.95L2.75 1.8L2.75 1.75L2.8 1.75L4.35 1.95L4.35 1.9L4.4 1.9L4.4 1.8L4.7 1.8L5.2 1.65L5.25 1.6L5.25 1.55L5.3 1.5L6.15 1.35L6.2 1.3L6.25 1.25L6.25 1.2Q6.05 0.9 6.7 1.05L8.8 0.85L9.05 0.8L9.35 0.6L9.65 0.35L9.65 0.3L9.65 0.2L10.15 0.55L10.65 0.8L11.3 1.2L10.6 1.05Q9.65 0.65 8.95 1.05L8.95 1.1L9.25 1.3L9.65 1.5L10 1.7L8.7 1.55Q7.85 1.25 7.35 1.55L7.35 1.65Q6.7 1.5 6.35 2Q6.25 2.2 6.45 2.4L5.65 2.3L4.65 2.15L4.55 2.45L4.7 2.8L4.9 3L2.25 2.85Q1.75 3.1 0.9 2.85Q0 2.6 -0.5 3.2L-1.1 3.1L-1.45 2.85L-2.15 2.55L-2.75 2.95L-3.25 3.2L-4 3.5L-4.05 3.45L-4.1 3.3L-4.2 3.15L-4.25 3.15L-4.2 3.05L-4.2 2.9L-4.25 2.6Q-4.5 2.3 -4.9 2.4L-4.85 2.25L-4.7 2.1L-4.65 2L-4.7 1.95L-4.85 1.9L-5 1.9L-5.3 1.95L-5.95 2.1L-6 2.15L-6.75 2.1L-7.8 2L-8.3 1.7L-8.25 1.65L-8.25 1.4L-8.3 1.4L-8.35 1.35L-8.4 1.3L-8.5 1.3L-8.55 1.25L-8.6 1.25L-8.4 1.1L-8.35 1.05L-8.35 1L-8.3 0.95L-8.3 0.9L-8.55 0.8L-10 0.7L-10 0.65L-10.05 0.65L-10.05 0.6L-10.2 0.45L-10.25 0.45L-10.35 0.4L-10.5 0.4L-10.55 0.35L-10.4 0.3L-10.35 0.25L-10.25 0.2L-10.2 0.2L-10.1 0.1L-10.05 0.1L-10 0.05L-10 0L-9.95 -0.05L-10 -0.2Q-10.25 -0.5 -10.65 -0.55L-10.8 -0.6L-11 -0.65L-11.45 -0.75L-11.4 -0.8L-11.25 -0.85L-11.1 -0.85L-10.85 -0.95L-10.55 -1L-10.5 -1.05L-10.45 -1.1L-8.15 -1.3Q-7.9 -1.3 -7.85 -1.45L-7.85 -1.5L-7.8 -1.5L-7.65 -1.4L-7.2 -1.35L-6.85 -1.25L-8.75 -1.15L-8.85 -1.05L-9.7 -0.8L-9.7 -0.75L-9.4 -0.65L-9.4 -0.55L-9.35 -0.5L-9.2 -0.45L-9 -0.35L-9 -0.2L-8.95 -0.15L-9.1 -0.05L-9.15 0L-9.2 0.1L-8.05 0.25L-8.15 0.35L-8.25 0.45L-8.3 0.6L-7.9 0.75L-7.55 0.7L-7.7 0.55L-7.9 0.4L-7.85 0.35L-7.75 0.3L-7.7 0.2L-7.65 0.35L-7.3 0.45L-7.35 0.5L-7.4 0.6L-7.45 0.65L-7.45 0.75L-7.3 0.85L-5.05 0.6L-5.05 0.65L-5.15 0.8L-5.25 0.95L-5.45 0.9M-8.7,-0.55L-8.8 -0.65L-8.9 -0.7L-8.8 -0.8L-8.75 -0.75L-8.6 -0.65L-8.4 -0.6L-8.5 -0.55L-8.65 -0.5L-8.7 -0.55M-2.1,1.65L-2.15 1.7L-2.15 1.6L-1.95 1.55Q-1.8 1.45 -1.85 1.6L-2.1 1.65M0.8,1.65L1.85 1.85L1.95 1.55L2 1.35L2 1.2L2.1 1.1L2.75 1.25L3.65 1.3L6 0.8L5.6 1.1L5.15 1.15L4.5 1.35L4.5 1.45L4.15 1.45L4.1 1.5L4 1.6L4 1.7L3.25 1.55L2.2 1.5L2.2 1.6L2.25 1.7L2.3 1.75L2.15 1.75L2.1 1.8L2 1.9L1.95 2.05L0.85 1.65L0.8 1.65M6.1,0.8L6.05 0.75L5.85 0.55L5.75 0.45L5.6 0.4L5.65 0.4L6.75 0.55L8.85 0.4L8.8 0.4L8.8 0.55L8.65 0.65L8.45 0.75L7.5 0.65L6.1 0.8M9.15,0.25L9.4 0.1L9.4 0.15L9.35 0.15L9.15 0.25M-10.5,-8.35L-9.9 -8L-10.15 -8L-10.65 -8.3L-11.1 -8.7L-10.5 -8.35M-0.65,-10.45L-0.9 -11.35Q-1.1 -11.75 -0.85 -11.95L-0.7 -11.9L-0.6 -11.8L-0.45 -11.75L-0.4 -11.7L-0.15 -11.05L-0.05 -10.15Q-0.1 -9.7 -0.5 -9.65L-0.6 -10.25L-0.65 -10.4L-0.65 -10.45M-1.05,-9L-1.15 -8.75L-1.35 -8.75L-1.45 -8.8L-1.6 -8.9L-1.6 -8.95L-1.65 -9.1L-2.05 -9.15L-2.25 -9.2L-2.3 -9.15L-2.4 -9.05Q-2.45 -8.95 -2.6 -8.95L-2.7 -9L-2.75 -9.05L-2.75 -9.1L-2.75 -9.35L-2.7 -9.75L-2.6 -10.1L-1.85 -10.25L-1.4 -10.45Q-1.05 -10.3 -1.05 -9.9L-1.05 -9.25L-1.1 -9.3L-1.25 -9.55L-1.4 -9.8L-1.55 -9.8Q-1.7 -9.7 -1.7 -9.85L-1.8 -9.95L-1.9 -9.9L-1.95 -9.7L-2.1 -9.5L-2.15 -9.6L-2.2 -9.7L-2.35 -9.75L-2.4 -9.6L-2.35 -9.45L-2.25 -9.3L-2.2 -9.3L-1.95 -9.3L-1.85 -9.4L-1.8 -9.45L-1.75 -9.45L-1.7 -9.4L-1.5 -9.4L-1.45 -9.35L-1.45 -9.3L-1.25 -9.05L-1.05 -9M-3.7,-8.45L-4.1 -8.55L-4.25 -8.6L-4.35 -8.7L-4.45 -8.7L-4.5 -8.7L-4.6 -8.6L-4.6 -8.55L-4.7 -8.6L-4.9 -8.65L-5 -8.6L-5.05 -8.55L-5.1 -8.45L-5.1 -8.35L-5.1 -8.3L-5.25 -8.25L-5.4 -8.2L-5.45 -8.15L-5.45 -8.1L-5.55 -8.1L-5.75 -8.1L-5.8 -8.05L-5.8 -7.95L-6.05 -7.8L-6.1 -7.6L-6.05 -7.4L-6.2 -7.4L-6.3 -7.4L-6.35 -7.35L-6.4 -7.4L-6.5 -7.5L-6.8 -7.6L-6.9 -7.5L-6.9 -7.4L-6.6 -7L-6.4 -6.6L-6.2 -6.25L-6.1 -6.35L-6.1 -6.55L-6.15 -6.75L-6.2 -6.9L-6.15 -6.9L-6.05 -6.95L-5.9 -6.95L-5.85 -6.95L-6 -6.9L-6.1 -6.8L-6.1 -6.65L-6 -6.5L-5.95 -6.2L-5.95 -5.95L-6 -5.9Q-6.5 -5.8 -6.65 -6.35L-7.15 -7L-7.4 -7.3L-7.6 -7.5L-7.6 -7.55L-7.5 -7.7L-7.45 -7.8L-7.4 -7.9L-7.25 -8.05L-6.45 -8.1L-6.3 -8.35L-5.9 -8.85L-5.65 -9.1L-5.45 -8.95L-5.3 -8.85L-5 -8.85L-5 -8.9L-4.95 -8.95L-4.95 -9.05L-4.9 -9.1L-4.85 -9.2L-4.7 -9.25L-4.6 -9.35L-4.45 -9.45L-4.15 -9.3L-3.65 -8.55L-3.4 -8.1L-3.7 -8.45M-3.15,-7.65L-3.05 -7.4L-2.6 -6.4L-3.15 -7L-3.65 -7.65L-3.8 -7.9L-3.85 -7.85L-4.05 -7.85L-4.5 -7.95L-4.5 -7.85L-4.7 -7.75L-4.8 -7.7L-5.2 -7.55L-5.25 -7.55L-5.25 -7.5L-5.3 -7.4L-5.3 -7.3L-5.35 -7.25L-5.4 -7.25L-5.6 -7.2L-5.7 -7.15L-5.75 -7.15L-5.75 -7L-5.85 -6.95L-5.85 -7L-5.8 -7.1L-5.75 -7.25L-5.75 -7.4L-5.75 -7.5L-5.7 -7.55L-5.6 -7.6L-5.55 -7.6L-5.5 -7.65L-5.45 -7.65L-5.3 -7.65L-5.25 -7.7L-5.2 -7.8L-5.15 -7.8L-5.15 -7.9L-5.1 -7.9L-5 -7.95L-4.9 -8.05L-4.8 -8.2L-4.8 -8.25L-4.4 -8.25L-4.25 -8.25L-4.1 -8.15L-3.9 -8.15L-3.85 -8.15L-3.7 -8L-3.4 -7.7L-3.15 -7.65M-6.65,-4.9L-7.1 -4.95L-7.6 -5.05L-7.65 -5L-7.75 -5.15L-7.95 -5.3L-8.15 -5.5L-7.45 -5.3L-7 -5.1L-6.6 -4.9L-6.65 -4.9M-6.35,-4.75L-6.25 -4.7L-6.4 -4.65L-6.35 -4.75M-7.3,-4.45L-7.2 -4.5L-7.15 -4.5L-7.05 -4.6L-7 -4.65L-6.65 -4.65L-6.55 -4.65L-6.45 -4.65L-7 -4.5L-7.4 -4.3L-7.3 -4.45M-7.5,-4.05L-7.55 -4L-7.6 -4.05L-7.55 -4.05L-7.5 -4.05M-7.7,-4.75Q-7.6 -4.7 -7.9 -4.6L-7.95 -4.55L-8 -4.5L-8 -4.4L-8 -4.35L-7.95 -4.3L-7.8 -4.25L-7.9 -4.25L-7.95 -4.2L-8 -4.15L-8.05 -4.15L-8.05 -4.05L-8.05 -4L-8 -3.95L-7.95 -3.9L-7.9 -3.9L-7.8 -3.85L-7.75 -3.85L-7.75 -3.6L-7.7 -3.55L-7.65 -3.5L-7.6 -3.5L-7.55 -3.45L-7.5 -3.45L-7.8 -3.4L-8.05 -3.25L-8.05 -3.2L-7.9 -3.1L-7.45 -2.7L-7.2 -2.4L-7.4 -2.45L-7.95 -2.75L-8.6 -3.05L-8.5 -3.25L-8.2 -3.5L-8.05 -3.75L-8.15 -3.85L-8.85 -4.15L-9.3 -4.45L-9.25 -4.5L-8.7 -4.7L-8.4 -4.9L-7.9 -4.85L-7.75 -4.85L-7.7 -4.75" />
<path style="fill:#FFFFFF;fill-opacity:1" d="M1.6,-9.5L1.45 -9.35L1.3 -9.2Q1.15 -9.15 1.1 -9.25L1.1 -9.45L1.1 -9.55L1.15 -9.75L1.1 -9.85L1.1 -9.95L1.15 -10.05L1.2 -10.15L1.25 -10.2L1.35 -10.2L1.4 -10.15L1.4 -10.1L1.45 -10.05L1.55 -10.05L1.6 -10L1.65 -10L1.7 -10.1L1.75 -10.2L1.85 -10.3L1.95 -10.35L2.05 -10.35L2.1 -10.3L2.2 -10.25L2.25 -10.2L2.4 -10.25L2.75 -10.25L2.85 -10.1L3 -10.1L3.3 -10.1L3.4 -9.95L3.45 -9.9L3.75 -9.8L3.9 -9.65L3.95 -9.5L4.3 -9.4L4.5 -9.2L4.65 -8.95L4.65 -8.9L4.7 -8.8L4.75 -8.8L4.8 -8.75L4.85 -8.6L4.75 -8.4L4.7 -8.3L4.4 -8.2L4.4 -8.25L4.35 -8.3L4.35 -8.4L4.4 -8.5L4.3 -8.55L4.2 -8.6L4.15 -8.65L4.15 -8.7L4.15 -8.8L4.2 -8.85L4.3 -8.95L4.25 -8.95L4.1 -9L3.95 -9.1L3.95 -9.15L3.65 -9.1L3.55 -9.1L3.4 -9.15L3.4 -9.3L3.45 -9.45L3.6 -9.55L3.3 -9.6Q3.15 -9.6 3.15 -9.75L3.15 -9.8L3.05 -9.85L2.65 -9.8L2.6 -9.9L2.6 -9.95L2.35 -9.9L2 -9.9L1.9 -9.95L1.75 -9.75L1.65 -9.55L1.6 -9.5M1.65,-2.4L1.6 -2.4L1.5 -2.45L1.55 -2.65L1.75 -2.8L1.85 -2.85L1.8 -2.85L1.65 -2.8L1.6 -2.8L1.55 -2.8L1.65 -2.9L1.75 -2.95L1.75 -3.05L1.8 -3.15L2.35 -3.3L2.75 -3.45L2.95 -3.5L3 -3.3L2.7 -3.15L2.5 -3.05L2.45 -2.95L2.3 -2.8L2.25 -2.65L2.6 -2.55L2.75 -2.35L2.45 -2.2L1.65 -2.4M0,-3.55L0.1 -3.55L0.2 -3.5L0.6 -3.4L0.75 -3.85L0.9 -4.4L1.1 -4.65L1.2 -4.1L0.95 -3.55L0.9 -3.45L0.85 -3.2L0.75 -3.15L0.35 -3.15L-0.1 -3.3L-0.45 -3.4L-0.4 -3.2L-0.45 -3.1L-0.6 -3.1L-0.65 -3.1L-0.7 -3.15L-0.75 -3.15L-1.05 -3.2L-1.05 -3.15L-1.1 -3.05L-1.1 -3L-1.15 -3L-1.2 -2.95L-1.25 -2.95L-1.2 -2.9L-1.1 -2.9L-0.95 -2.8L-0.9 -2.75L-0.9 -2.7L-0.95 -2.55L-1.1 -2.45L-1.3 -2.35L-1.45 -2.25L-1.45 -2.2L-1.4 -2.15L-1.4 -2.1L-1.4 -2L-1.4 -1.9L-1.3 -1.9L-1.2 -1.85L-1.15 -1.6L-1.2 -1.45L-1.25 -1.35L-1.45 -1.25Q-1.65 -1.2 -1.75 -1.4L-1.7 -1.45L-1.65 -1.55L-1.9 -1.5L-1.95 -1.5L-2.15 -1.5L-2.2 -1.55L-2.3 -1.8L-2.25 -1.9L-2.2 -1.9L-2.15 -1.95L-2.05 -2L-1.95 -2L-2.05 -2.05L-2.2 -2.15L-2.15 -2.25L-2.1 -2.35L-1.95 -2.4L-1.85 -2.4L-1.55 -2.6L-1.45 -2.65L-1.75 -2.8L-2.4 -2.9L-2.55 -3.1L-2.45 -3.2L-2.15 -3.25L-2 -3.25L-2 -3.4L-1.95 -3.45L-1.95 -3.5L-1.85 -3.5L-1.75 -3.55L-1.7 -3.6L-1.75 -3.75L-1.75 -3.8L-1.7 -3.85L-1.6 -3.9L-1.15 -3.75L-1.05 -3.75L-0.7 -3.6L-0.6 -3.55L-0.55 -3.6L-0.55 -3.65L-0.45 -3.65L0 -3.55M6.7,-3L6.8 -3.05L7.1 -3.1L7.2 -2.9L7.05 -2.7L7 -2.7L6.8 -2.7L6.8 -2.75L6.75 -2.85L6.7 -2.95L6.7 -3M0.85,1.65L1.95 2.05L2 1.9L2.1 1.8L2.15 1.75L2.3 1.75L2.25 1.7L2.2 1.6L2.2 1.5L3.25 1.55L4 1.7L4 1.6L4.1 1.5L4.15 1.45L4.5 1.45L4.5 1.35L5.15 1.15L5.6 1.1L6 0.8L6.1 0.8L7.5 0.65L8.45 0.75L8.65 0.65L8.8 0.55L8.8 0.4L8.85 0.4L9.15 0.25L9.35 0.15L9.4 0.15L9.4 0.1L9.35 -0.05L9.2 -0.2L9.1 -0.35L9.1 -0.4L8.9 -0.5L8.75 -0.55L8.7 -0.6L8.65 -0.75L8.7 -0.85L8.75 -0.9L8.8 -0.95L9 -0.85L9.2 -0.7L9.4 -0.55L9.45 -0.55L9.45 -0.4L9.5 -0.3L9.6 -0.2L9.65 -0.15L9.7 -0.1L9.65 0L9.65 0.1L9.65 0.15L9.65 0.2L9.65 0.3L9.65 0.35L9.35 0.6L9.05 0.8L8.8 0.85L6.7 1.05Q6.05 0.9 6.25 1.2L6.25 1.25L6.2 1.3L6.15 1.35L5.3 1.5L5.25 1.55L5.25 1.6L5.2 1.65L4.7 1.8L4.4 1.8L4.4 1.9L4.35 1.9L4.35 1.95L2.8 1.75L2.75 1.75L2.75 1.8L2.8 1.95L2.85 1.95L2.8 2L2.8 2.05L2.75 2.1L2.55 2.15L2.55 2.25L1.05 2.15Q0.8 1.95 0.55 2L0 2.05L-0.7 1.6L-0.85 1.35Q-0.8 1.1 -0.55 1.25L-0.35 1.4L-0.1 1.55L0.35 1.45L0.8 1.65L0.85 1.65M-8.65,-0.5L-8.6 -0.45L-8.65 -0.4L-8.65 -0.3L-8.65 -0.25L-8.6 -0.15L-7.7 0L-7.65 0.05L-7.65 0.1L-7.7 0.2L-7.75 0.3L-7.85 0.35L-7.9 0.4L-7.7 0.55L-7.55 0.7L-7.9 0.75L-8.3 0.6L-8.25 0.45L-8.15 0.35L-8.05 0.25L-9.2 0.1L-9.15 0L-9.1 -0.05L-8.95 -0.15L-9 -0.2L-9 -0.35L-9.2 -0.45L-9.35 -0.5L-9.4 -0.55L-9.4 -0.65L-9.7 -0.75L-9.7 -0.8L-8.85 -1.05L-8.8 -1.05L-8.5 -1.1L-8.5 -0.95L-8.7 -0.85L-8.8 -0.8L-8.9 -0.7L-8.8 -0.65L-8.7 -0.55L-8.65 -0.5M-5.25,0.95L-5.15 1.05L-5.15 1.1L-5.2 1.15L-5.2 1.2L-5.25 1.2L-5.35 1.25L-5.35 1.3L-5.4 1.35L-5.3 1.35L-5.25 1.35L-5.2 1.4L-5.35 1.6L-5.9 1.6L-5.95 1.5L-5.9 1.35L-6 1.4L-6.4 1.4L-6.45 1.4L-6.45 1.25L-6 1L-5.6 0.9L-5.45 0.9L-5.25 0.95M-3.75,1.75L-3.55 1.65L-3.25 1.6L-3.1 1.6L-3.05 1.65L-3.05 1.75L-3.2 2.05L-3.6 2.1L-3.85 2.05L-3.9 1.95L-4 1.9L-4.05 1.8L-4.2 1.75L-4.3 1.75L-4.2 1.7L-4.15 1.7L-3.95 1.65L-3.95 1.75L-3.9 1.75L-3.75 1.75M-1.85,1.6L-1.3 1.65L-1.25 1.7L-1.15 1.8L-1.8 1.9L-1.9 1.85L-2.25 2.1L-2.55 2.2L-2.6 2.2L-2.6 1.85L-2.4 1.65L-2.35 1.55L-2.35 1.5L-2.25 1.45L-2.15 1.55L-2.15 1.6L-2.15 1.7L-2.1 1.65L-1.85 1.6M-1.25,-9.05L-1.45 -9.3L-1.45 -9.35L-1.5 -9.4L-1.7 -9.4L-1.75 -9.45L-1.8 -9.45L-1.85 -9.4L-1.95 -9.3L-2.2 -9.3L-2.25 -9.3L-2.35 -9.45L-2.4 -9.6L-2.35 -9.75L-2.2 -9.7L-2.15 -9.6L-2.1 -9.5L-1.95 -9.7L-1.9 -9.9L-1.8 -9.95L-1.7 -9.85Q-1.7 -9.7 -1.55 -9.8L-1.4 -9.8L-1.25 -9.55L-1.1 -9.3L-1.05 -9.25L-1 -9.05L-1.05 -9L-1.25 -9.05M-3.4,-7.7L-3.7 -8L-3.85 -8.15L-3.9 -8.15L-4.1 -8.15L-4.25 -8.25L-4.4 -8.25L-4.8 -8.25L-4.8 -8.2L-4.9 -8.05L-5 -7.95L-5.1 -7.9L-5.15 -7.9L-5.15 -7.8L-5.2 -7.8L-5.25 -7.7L-5.3 -7.65L-5.45 -7.65L-5.5 -7.65L-5.55 -7.6L-5.6 -7.6L-5.7 -7.55L-5.75 -7.5L-5.75 -7.4L-5.75 -7.25L-5.8 -7.1L-5.85 -7L-5.85 -6.95L-5.9 -6.95L-6.05 -6.95L-6.15 -6.9L-6.2 -6.9L-6.15 -6.75L-6.1 -6.55L-6.1 -6.35L-6.2 -6.25L-6.4 -6.6L-6.6 -7L-6.9 -7.4L-6.9 -7.5L-6.8 -7.6L-6.5 -7.5L-6.4 -7.4L-6.35 -7.35L-6.3 -7.4L-6.2 -7.4L-6.05 -7.4L-6.1 -7.6L-6.05 -7.8L-5.8 -7.95L-5.8 -8.05L-5.75 -8.1L-5.55 -8.1L-5.45 -8.1L-5.45 -8.15L-5.4 -8.2L-5.25 -8.25L-5.1 -8.3L-5.1 -8.35L-5.1 -8.45L-5.05 -8.55L-5 -8.6L-4.9 -8.65L-4.7 -8.6L-4.6 -8.55L-4.6 -8.6L-4.5 -8.7L-4.45 -8.7L-4.35 -8.7L-4.25 -8.6L-4.1 -8.55L-3.7 -8.45L-3.4 -8.1L-3.3 -8.05L-3.05 -7.7L-3.15 -7.65L-3.4 -7.7M-7.75,-4.85L-7.75 -4.9L-7.7 -4.95L-7.7 -5L-7.65 -5L-7.6 -5.05L-7.1 -4.95L-6.65 -4.9L-6.6 -4.9L-6.35 -4.75L-6.4 -4.65L-6.45 -4.65L-6.55 -4.65L-6.65 -4.65L-7 -4.65L-7.05 -4.6L-7.15 -4.5L-7.2 -4.5L-7.3 -4.45L-7.4 -4.3L-7.35 -4.25L-7.4 -4.2L-7.45 -4.15L-7.5 -4.1L-7.5 -4.05L-7.55 -4.05L-7.6 -4.05L-7.55 -4L-7.55 -3.95L-7.5 -3.9L-7.5 -3.85L-7.45 -3.8L-7.45 -3.7L-7.4 -3.55L-7.35 -3.5L-7.4 -3.45L-7.5 -3.45L-7.55 -3.45L-7.6 -3.5L-7.65 -3.5L-7.7 -3.55L-7.75 -3.6L-7.75 -3.85L-7.8 -3.85L-7.9 -3.9L-7.95 -3.9L-8 -3.95L-8.05 -4L-8.05 -4.05L-8.05 -4.15L-8 -4.15L-7.95 -4.2L-7.9 -4.25L-7.8 -4.25L-7.95 -4.3L-8 -4.35L-8 -4.4L-8 -4.5L-7.95 -4.55L-7.9 -4.6Q-7.6 -4.7 -7.7 -4.75L-7.75 -4.85" />
</g>
</svg>
