<?xml version="1.0" encoding="utf-8"?>
<svg version="1.1" id="Layer_1"
xmlns="http://www.w3.org/2000/svg"
xmlns:xlink="http://www.w3.org/1999/xlink"
width="41px" height="39px"
xml:space="preserve">
<g id="1599" transform="matrix(1, 0, 0, 1, 20.25, 35.4)">
<path style="fill:#ECD4A6;fill-opacity:1" d="M15.15,-13.4L14.6 -13.4L5.7 -13.4L0 1.9L-4.9 -13.4L-14.25 -13.4Q-19.25 -13.4 -19.25 -18.4L-19.25 -29.4Q-19.25 -34.4 -14.25 -34.4L14.6 -34.4L15.15 -34.4L15.15 -34.35L16.4 -34.05L17.35 -33.6Q19.2 -32.45 19.2 -29.4L19.2 -18.4Q19.2 -15.35 17.35 -14.15L16.4 -13.7L15.15 -13.45L15.15 -13.4" />
<path style="fill:none;stroke-width:2;stroke-linecap:round;stroke-linejoin:round;stroke-miterlimit:3;stroke:#623A2D;stroke-opacity:1" d="M15.15,-34.4L14.6 -34.4L15.15 -34.35M14.6,-34.4L-14.25 -34.4Q-19.25 -34.4 -19.25 -29.4L-19.25 -18.4Q-19.25 -13.4 -14.25 -13.4L-4.9 -13.4L0 1.9L5.7 -13.4L14.6 -13.4L15.15 -13.45L16.4 -13.7L17.35 -14.15Q19.2 -15.35 19.2 -18.4L19.2 -29.4Q19.2 -32.45 17.35 -33.6L16.4 -34.05L15.15 -34.35M15.15,-13.4L14.6 -13.4" />
</g>
</svg>
