<?xml version="1.0" encoding="utf-8"?>
<svg version="1.1" id="Layer_1"
xmlns="http://www.w3.org/2000/svg"
xmlns:xlink="http://www.w3.org/1999/xlink"
width="33px" height="8px"
xml:space="preserve">
<g id="753" transform="matrix(1, 0, 0, 1, -17.05, -14.15)">
<path style="fill:#000000;fill-opacity:1" d="M47.9,17.8L48.2 17.35L48.25 17.35L49.05 17.75L49.1 17.7Q49.45 17.65 49.45 17.95L49.45 18.45L49.45 18.6L49.15 18.8L48.5 18.85L47.85 18.4Q47.65 18.35 47.75 18.1L47.9 17.8M43.85,16.85L44.05 16.55L44.4 16.35Q45.6 16.2 46.55 16.9Q47.55 17.7 47.2 18.8L47.15 18.9Q45.85 19.45 44.85 18.55L44.3 17.85L44.3 17.8L44.25 17.75L43.95 17.2L43.85 17.2L43.85 17.1L43.85 17L43.85 16.9L43.85 16.85M42.4,19.85L42.5 19.95L42.75 20.35L42.9 20.8L42.85 20.95L42.55 20.55L26.55 21.15L17.05 20.8L17.05 20.7Q18 19.45 19.4 18.5Q20.05 18.05 20.85 18.25Q24.5 19.2 27 17L26.75 16.8L25.75 15.6L25.3 14.8L25.3 14.75L25.35 14.6L25.45 14.3L25.55 14.2L25.6 14.15Q26.65 14.2 27.5 14.9L28.5 15.85Q28.8 15.65 29.15 15.6Q31 15.8 32.55 16.9L33.1 17.15Q33.4 16.8 34.35 16.8Q34.95 16.8 35.5 16.45L35.75 16.35L35.05 16.5L36.05 16.25L36.45 16.1L36.95 16.15Q38.4 16.1 39.7 16.85L41.05 17.7L42.35 19.25L42.4 19.4L42.4 19.5L42.4 19.55L42.4 19.65L42.4 19.7L42.35 19.75L42.4 19.85" />
</g>
</svg>
