<?xml version="1.0" encoding="utf-8"?>
<svg version="1.1" id="Layer_1"
xmlns="http://www.w3.org/2000/svg"
xmlns:xlink="http://www.w3.org/1999/xlink"
width="146px" height="23px"
xml:space="preserve">
<g id="1601" transform="matrix(1, 0, 0, 1, 1.35, 12.2)">
<path style="fill:#ECD4A6;fill-opacity:1" d="M19.5,-10.4L20.45 -10.85L22.35 -11.2L139.05 -11.2Q142.45 -11.2 143.25 -8.3Q143.55 -7.25 143.6 3.6L143.6 5.65Q143.6 6.8 143.25 7.65Q142.35 9.8 139.05 9.8L22.35 9.8L20.45 9.5L19.5 9.05Q17.7 7.9 18.05 3.4L-0.35 0L17.65 -4.05L17.65 -6.4Q17.7 -9.3 19.5 -10.4" />
<path style="fill:none;stroke-width:2;stroke-linecap:round;stroke-linejoin:round;stroke-miterlimit:3;stroke:#623A2D;stroke-opacity:1" d="M19.5,-10.4L20.45 -10.85L22.35 -11.2L139.05 -11.2Q142.45 -11.2 143.25 -8.3Q143.55 -7.25 143.6 3.6L143.6 5.65Q143.6 6.8 143.25 7.65Q142.35 9.8 139.05 9.8L22.35 9.8L20.45 9.5L19.5 9.05Q17.7 7.9 18.05 3.4L-0.35 0L17.65 -4.05L17.65 -6.4Q17.7 -9.3 19.5 -10.4z" />
</g>
</svg>
