<?xml version="1.0" encoding="utf-8"?>
<svg version="1.1" id="Layer_1"
xmlns="http://www.w3.org/2000/svg"
xmlns:xlink="http://www.w3.org/1999/xlink"
width="9px" height="12px"
xml:space="preserve">
<g id="640" transform="matrix(1, 0, 0, 1, 7.95, 0.2)">
<path style="fill:#000000;fill-opacity:1" d="M-2.1,-0.15L-1.95 -0.1L-1.85 0Q-1.7 1 -1.95 1.95L-2.25 3.6L-2.2 4.55L-0.95 7.05L0.3 9.05L-1.15 10.75Q-2.05 11.6 -2.95 11.35L-3.95 10.95L-4 10.5L-4 10.1L-3.4 9.6L-2.55 9.05Q-4.05 7.25 -4.8 5.1L-5.05 5.3L-4.85 6L-4.3 7.8Q-3.95 8.9 -4.1 9.15L-5.55 9.7Q-6.7 9.85 -7.55 9.25Q-8.15 8.95 -7.8 8.45Q-7.5 7.9 -7.15 7.9L-6.4 7.65Q-7.8 6.35 -7.85 4.7Q-7.9 3.2 -6.5 2.15L-5.35 1.3L-5.3 0.9L-5 0.2L-2.4 -0.2L-2.1 -0.15" />
</g>
</svg>
