<?xml version="1.0" encoding="utf-8"?>
<svg version="1.1" id="Layer_1"
xmlns="http://www.w3.org/2000/svg"
xmlns:xlink="http://www.w3.org/1999/xlink"
width="45px" height="19px"
xml:space="preserve">
<g id="1220" transform="matrix(1, 0, 0, 1, 44.25, 18.3)">
<path style="fill:#100806;fill-opacity:1" d="M-39.4,-1.9L-41.45 -0.65L-13.3 -0.65L-13.3 -1.9L-18.85 -3.55L-22.35 -3.5L-39.4 -1.9M-22.05,-9.7L-15.6 -15.35L-11.4 -15.35Q-11.2 -16.25 -10.5 -16.95L-10.4 -17.1L-10.35 -17.15L-9.75 -17.6Q-8.8 -18.3 -7.6 -18.3Q-6 -18.3 -4.85 -17.15Q-3.7 -16 -3.7 -14.4Q-3.7 -13.2 -4.35 -12.25L-4.85 -11.65L-4.95 -11.5L-4.35 -10.9L-4.05 -4.75L0.5 -0.2L-44.25 -0.2L-40 -2.75L-22.4 -4.4L-22.05 -9.7M-21.15,-4.5L-19.25 -4.6L-19.2 -9.55L-14.6 -13.3L-11.5 -13.8L-11.55 -14.35L-11.55 -14.65L-15.25 -14.65L-21 -9.45L-21.15 -4.5M-4.7,-14.1L-4.7 -14.35Q-4.7 -15.55 -5.55 -16.45Q-6.45 -17.3 -7.65 -17.3Q-8.85 -17.3 -9.7 -16.45Q-10.55 -15.6 -10.6 -14.5L-10.6 -14.35L-10.6 -14.1L-10.55 -13.95Q-10.45 -13 -9.7 -12.25L-9.55 -12.15L-8.6 -11.55L-8.1 -11.4L-7.65 -11.4L-7.55 -11.4L-7.05 -11.45L-6.4 -11.6L-5.65 -12.15L-5.55 -12.25Q-4.8 -13.05 -4.7 -14.1M-14.15,-12.6L-18.4 -9L-18.6 -4.4L-13.15 -2.75L-11.1 -4.75L-10.75 -10.9L-10.2 -11.45L-10.4 -11.6Q-11.05 -12.25 -11.3 -13L-14.15 -12.6M-12.4,-0.9L-1.5 -0.9L-4.85 -4.05L-10.25 -4.05L-10.25 -4.1L-12.4 -2.15L-12.4 -0.9M-5.7,-10.95Q-7.35 -10 -9.25 -10.9L-9.65 -10.55L-9.7 -9L-5.35 -9L-5.45 -10.7L-5.7 -10.95M-9.75,-7L-5.3 -7L-5.35 -8.05L-9.7 -8.05L-9.75 -7M-9.8,-5L-5.2 -5L-5.25 -6.05L-9.75 -6.05L-9.8 -5" />
<path style="fill:#9F6329;fill-opacity:1" d="M-10.6,-14.35L-10.6 -14.5Q-10.55 -15.6 -9.7 -16.45Q-8.85 -17.3 -7.65 -17.3Q-6.45 -17.3 -5.55 -16.45Q-4.7 -15.55 -4.7 -14.35L-4.7 -14.1Q-4.8 -15.05 -5.55 -15.7Q-6.45 -16.4 -7.65 -16.4Q-8.85 -16.4 -9.7 -15.7Q-10.35 -15.2 -10.5 -14.45L-10.6 -14.1L-10.6 -14.35" />
<path style="fill:#5D2C15;fill-opacity:1" d="M-9,-15.5Q-9.55 -15.1 -9.6 -14.45L-9.6 -14.35Q-9.6 -13.7 -9 -13.2L-8.9 -13.1Q-8.5 -12.8 -7.95 -12.7L-7.25 -12.7L-6.35 -13.1L-6.3 -13.2Q-5.7 -13.7 -5.7 -14.35L-5.7 -14.45L-6.3 -15.5Q-6.85 -16 -7.65 -16Q-8.45 -16 -9 -15.5M-5.55,-12.25L-5.65 -12.15L-6.4 -11.6L-7.05 -11.45L-7.55 -11.4L-7.65 -11.4L-8.1 -11.4L-8.6 -11.55L-9.55 -12.15L-9.7 -12.25Q-10.45 -13 -10.55 -13.95L-10.6 -14.1L-10.5 -14.45Q-10.35 -15.2 -9.7 -15.7Q-8.85 -16.4 -7.65 -16.4Q-6.45 -16.4 -5.55 -15.7Q-4.8 -15.05 -4.7 -14.1Q-4.8 -13.05 -5.55 -12.25" />
<linearGradient
id="LinearGradID_437" gradientUnits="userSpaceOnUse" gradientTransform="matrix(0, -0.0207367, 0.00227356, -1.52588e-005, -7.45, -9.25)" spreadMethod ="pad" x1="-819.2" y1="0" x2="819.2" y2="0" >
<stop  offset="0" style="stop-color:#511A16;stop-opacity:1" />
<stop  offset="0.505882" style="stop-color:#6D4414;stop-opacity:1" />
<stop  offset="1" style="stop-color:#511A16;stop-opacity:1" />
</linearGradient>
<path style="fill:url(#LinearGradID_437) " d="M-22.35,-3.5L-18.85 -3.55L-13.3 -1.9L-13.3 -0.65L-41.45 -0.65L-39.4 -1.9L-22.35 -3.5M-21,-9.45L-15.25 -14.65L-11.55 -14.65L-11.55 -14.35L-11.5 -13.8L-14.6 -13.3L-19.2 -9.55L-19.25 -4.6L-21.15 -4.5L-21 -9.45M-12.4,-2.15L-10.25 -4.1L-10.25 -4.05L-4.85 -4.05L-1.5 -0.9L-12.4 -0.9L-12.4 -2.15M-5.45,-10.7L-5.35 -9L-9.7 -9L-9.65 -10.55L-9.25 -10.9Q-7.35 -10 -5.7 -10.95L-5.45 -10.7M-9.7,-8.05L-5.35 -8.05L-5.3 -7L-9.75 -7L-9.7 -8.05M-9.75,-6.05L-5.25 -6.05L-5.2 -5L-9.8 -5L-9.75 -6.05" />
<linearGradient
id="LinearGradID_438" gradientUnits="userSpaceOnUse" gradientTransform="matrix(0, -0.00360107, 0.00227356, -1.52588e-005, -7.5, -12.8)" spreadMethod ="pad" x1="-819.2" y1="0" x2="819.2" y2="0" >
<stop  offset="0" style="stop-color:#511A16;stop-opacity:1" />
<stop  offset="0.505882" style="stop-color:#6D4414;stop-opacity:1" />
<stop  offset="1" style="stop-color:#511A16;stop-opacity:1" />
</linearGradient>
<path style="fill:url(#LinearGradID_438) " d="M-7.65,-16Q-6.85 -16 -6.3 -15.5L-5.7 -14.45L-5.7 -14.35Q-5.7 -13.7 -6.3 -13.2L-6.35 -13.1L-7.25 -12.7L-7.95 -12.7Q-8.5 -12.8 -8.9 -13.1L-9 -13.2Q-9.6 -13.7 -9.6 -14.35L-9.6 -14.45Q-9.55 -15.1 -9 -15.5Q-8.45 -16 -7.65 -16" />
</g>
</svg>
