<?xml version="1.0" encoding="utf-8"?>
<svg version="1.1" id="Layer_1"
xmlns="http://www.w3.org/2000/svg"
xmlns:xlink="http://www.w3.org/1999/xlink"
width="29px" height="15px"
xml:space="preserve">
<g id="966" transform="matrix(1, 0, 0, 1, 7, 6)">
<path style="fill:#000000;fill-opacity:0.85098" d="M8.35,-5.95L8.5 -5.9L8.65 -5.7L8.7 -5.6L8.7 -5.5L8.35 -5.1L7.55 -4.8L7.05 -4.85L7 -4.9L6.95 -4.95L6.85 -5L6.8 -5.1L6.8 -5.3L6.85 -5.35L6.9 -5.45L6.95 -5.55L7.05 -5.65L7.15 -5.7L7.4 -5.8L7.7 -5.9L7.95 -6L8.35 -5.95M14.35,-5.45Q16.05 -5.5 16.95 -4.15Q17.8 -2.8 16.25 -2.4Q14.85 -2 13.85 -3Q12.45 -4.45 14.25 -5.4L14.35 -5.45M19.7,-3.75L19.7 -4.3L19.75 -4.35L19.85 -4.4L19.95 -4.45L20 -4.5L20.6 -4.45L21.2 -4.05L21.4 -3.45L21.45 -2.85L21.4 -2.8L21.35 -2.75L21.3 -2.65L21.25 -2.6L21.2 -2.6L21.1 -2.55L20.55 -2.7L20 -3.1Q19.75 -3.35 19.7 -3.75M10.15,-0.45Q12.05 -0.4 11.3 1.15Q10.85 2.1 9.85 2.5L9.15 2.8Q7.25 3.55 6.25 1.95L6.2 1.4Q6.9 -0.3 8.5 0.85L8.55 0.8L8.95 0.65L9.4 0.3L9.9 -0.3L10.15 -0.45M12.4,4.75L12.7 4.5L13.05 4.3L13.2 4.25L13.35 4.3L13.6 4.3L13.7 4.35Q14.05 4.85 13.7 5.35Q13.3 5.8 13.05 6.4L12.7 7.6Q12.55 8.2 12.1 8.6Q11.35 8.65 11.05 8Q10.8 7.45 11.15 6.9L11.85 5.8L12.2 4.95L12.35 4.85L12.4 4.75M0.25,1.3L-0.4 1.85L-2.05 1.7L-2.15 1.65L-2.15 1.55L-2.15 1.4L-2.05 1.25L-1.95 1.05L-1.85 1L-1.75 1L-1.25 0.95L-1.05 0.9L-0.1 0.95Q0.1 0.95 0.2 1.1L0.25 1.25L0.25 1.3M0.75,5.1Q1.45 4.55 2.05 5.25L2.4 5.45L2.45 5.4L2.65 5.25L2.8 5L2.95 4.75L3.25 4.4L3.95 4.45L4.5 5.05Q4.65 5.4 4.4 5.75Q4.1 6.05 3.65 5.95Q3 6.6 2.1 6.75Q0.7 7 0.55 5.75Q0.5 5.35 0.75 5.1M-5.9,1.45L-6 1.9L-6.4 2.2L-6.6 2.45L-6.6 2.55L-6.65 2.6L-6.75 2.6L-6.8 2.6L-6.9 2.55L-6.95 2.5L-7 2.45L-7 2.35L-7 2.15L-6.95 1.9L-6.95 1.75L-6.95 1.65L-6.9 1.55L-6.75 1.45L-6.5 1.3L-6.35 1.2L-6.1 1.25L-6 1.25L-5.9 1.45" />
</g>
</svg>
