<?xml version="1.0" encoding="utf-8"?>
<svg version="1.1" id="Layer_1"
xmlns="http://www.w3.org/2000/svg"
xmlns:xlink="http://www.w3.org/1999/xlink"
width="17px" height="28px"
xml:space="preserve">
<g id="673" transform="matrix(1, 0, 0, 1, -8.15, 4.7)">
<path style="fill:#000000;fill-opacity:1" d="M8.2,-4.15L9.05 -4.6L9.2 -4.7Q11.4 -2.1 13.05 1.25L14.85 4.85Q15.55 3.8 16.95 3.5L16 1.4Q15.2 0.05 16.6 -1L17.65 -1.7Q19.55 -1.15 19.7 1.2Q19.7 2.35 19.05 3.15L20 2.8Q19.95 2.7 20.15 2.7Q21.65 3.4 22.9 4.45Q24.25 5.55 24.65 7.15L24.65 7.3Q22.65 9.45 19.75 9.85L19.45 9.5Q19.25 7.6 21.3 7.35L22.1 7.15Q21.4 6.9 20.8 6.4L20.6 6.25L20.15 6.95L18.45 9.5L18.05 12.6Q17.7 14.55 18.45 16.5Q19.5 18.85 19.05 21.3L18.8 21.7Q16.75 23.95 15.25 22Q15.1 21.75 15.3 21.45Q16.95 19.2 16 16.4L15.55 14.9L15 20.15Q14.95 20.75 14.3 21.05Q11.65 22.1 9.9 20.75Q9.4 20.4 9.95 20.05L12.85 18.05Q12.25 15.45 12.8 12.7L14 8.5L14.1 7.3L13.05 6.8Q11.25 5.75 12.1 4.1L11.5 2.75L8.5 -3.65L8.2 -3.85L8.2 -4.15" />
</g>
</svg>
