<?xml version="1.0" encoding="utf-8"?>
<svg version="1.1" id="Layer_1"
xmlns="http://www.w3.org/2000/svg"
xmlns:xlink="http://www.w3.org/1999/xlink"
width="61px" height="9px"
xml:space="preserve">
<g id="157" transform="matrix(1, 0, 0, 1, -82.2, -49.95)">
<path style="fill:#598EAD;fill-opacity:1" d="M137.2,50.95L137.2 52.95L82.8 52.95L82.2 52.95L82.2 50.95L82.8 50.95L137.2 50.95" />
<path style="fill:#2C3643;fill-opacity:1" d="M82.8,50.95L82.8 49.95L142.8 49.95L142.8 53.95L82.8 53.95L82.8 52.95L137.2 52.95L137.2 50.95L82.8 50.95" />
<path style="fill:#663300;fill-opacity:1" d="M82.5,54.95L142.5 54.95L142.5 58.95L82.5 58.95L82.5 54.95M83.5,57.95L123.5 57.95L123.5 55.95L83.5 55.95L83.5 57.95" />
<path style="fill:#FFCC00;fill-opacity:1" d="M83.5,55.95L123.5 55.95L123.5 57.95L83.5 57.95L83.5 55.95" />
</g>
</svg>
