<?xml version="1.0" encoding="utf-8"?>
<svg version="1.1" id="Layer_1"
xmlns="http://www.w3.org/2000/svg"
xmlns:xlink="http://www.w3.org/1999/xlink"
width="113px" height="15px"
xml:space="preserve">
<g id="1377" transform="matrix(1, 0, 0, 1, -1, 8.35)">
<path style="fill:#FF2F23;fill-opacity:1" d="M9.95,-5.5Q7.7 -5.25 6.4 -4.2L4.65 -2.55L2.45 -0.45L4.25 -2.4Q6.2 -4.35 8.05 -5.55L9.9 -5.55L10.7 -4.85L9.95 -5.5M12.25,-3.25L12.95 -2.5Q15.3 0.05 15.3 0.5L15.3 0.55L13.85 -1.35L12.25 -3.25M16.65,2.3L16.65 2.25Q16.65 1.7 17.4 0.4L18.3 -1.6L18.25 -1.4L17.75 0.75L17.05 2.8L16.65 2.3M18.35,-2L18.5 -3.7Q19.35 -5.3 22.75 -5.3Q25.8 -5.3 27.55 -3.55Q28.7 -2.45 28.8 -1.5Q28.9 -0.6 30.3 0.65Q31.65 1.85 33.05 2.4L33.25 1.6L33.4 2.05Q33.15 2.6 32.55 2.6Q30.9 2.6 29.4 0.8L28.25 -1.05L27.65 -2.15L27 -3.1Q25.7 -3.8 25.3 -4.05L24.95 -4.55L23.5 -5Q20.2 -4.7 19 -3.5Q18.5 -3 18.35 -2M33.4,-0.65L33.35 -1.95Q33.95 -5.15 37.85 -5.15Q38.8 -5.15 42.2 -2.95Q44 -1.95 44.1 -1.45L43.9 -0.45L43.5 -0.85L43.75 -1.4Q43.75 -1.75 42.15 -2.6L40.45 -3.35L39.75 -4.15L38.25 -4.4L37.3 -4.7Q35.05 -4.7 33.9 -2.15L33.4 -0.65M45.05,0.6L47.5 2.35L47.65 2.35L47.55 2.4Q46.55 2.05 45.05 0.6M73.35,-5Q72.85 -4.55 72.1 -4.4L69.4 -4Q68.9 -3.9 68.35 -3.35L67.05 -1.65L66.35 0.05Q65.6 1.45 64.4 1.45Q63.9 1.45 63.6 1.05L62.8 0.25L62.8 0.35L63.4 1.25L64.4 1.8Q64.9 1.8 65.95 0.85L67.15 -0.55Q67.7 -2.4 68.8 -3.2L69.05 -3.3L68.3 -2.15L67.3 -0.6L66.8 0.85Q66.4 1.7 65.3 2.2L63.4 2.2Q62.15 0.75 59.7 -0.8Q56.55 -2.8 54.3 -2.8Q50.9 -2.8 50 0.25Q49.1 3.25 47.75 3.25Q46.65 3.25 45.95 2.35L44.9 1.25L43.6 0.5Q43 -0.05 43 -0.55Q42.95 -1.1 42.35 -1.5L41.15 -2.2Q38.5 -3.9 37.5 -3.9Q34.85 -3.9 34.65 -0.2Q34.5 3.5 33 3.5Q31.2 3.5 29.5 1.6Q30.85 2.95 32.55 2.95Q33.1 2.95 33.4 2.6L33.65 2.05L33.45 1.05Q33.45 -0.1 34.2 -1.8Q35.3 -4.4 37.3 -4.4L38.35 -4.05L39.2 -4.1L39.8 -3.55L40.25 -3L40.75 -2.6Q40.9 -2.6 40.95 -2.7L41.1 -2.6Q42.1 -2.5 42.55 -1.95Q42.95 -1.5 43.35 -1.5L43.15 -0.9Q43.15 -0.5 43.85 -0.05L45.05 0.95Q46.5 2.9 47.6 2.9L49.6 0Q51.5 -2.95 54 -2.95L55.7 -2.75L56.35 -2.55L57.75 -2.6L62.8 1.15L63 1.05L63.05 0.95Q62.8 0.05 59.9 -1.35L58.5 -2.65Q57.7 -3.3 54 -3.3Q51.25 -3.3 49.4 -0.65L49.15 -0.1L49.35 -0.7Q50.75 -3.8 54.3 -3.8Q57.1 -3.8 60.1 -2.2Q63.05 -0.6 63.8 1.15L65.15 1.1Q65.9 0.65 66.15 -0.15L66.45 -1.55L67.25 -2.7L68.15 -4Q68.4 -4.55 69.85 -4.45Q71.75 -4.25 73.15 -4.95L73.35 -5.05L73.35 -5M74.1,-6.2L73.75 -7.3L73.8 -7.8L74.5 -7.85L74.35 -7.8L74.3 -7.4L74.1 -6.2M75.1,-7.55L75.1 -7.5L75.2 -6.65L74.85 -4.9L74.4 -5.35L74.25 -5.35Q75.1 -6.75 74.55 -7.55L75.1 -7.55M75.95,-3.7Q77.1 -2.8 77.7 -1.8L78.05 -1.15L77.45 -1.4Q76.55 -1.95 76.2 -3.15L75.95 -3.7M78.15,-0.9L78.35 -0.5L79 0L77.95 -0.5L78.15 -0.9M79.15,0.1L80.45 0.45L79.85 0.45L79.15 0.1M83,0.15L83.2 0.05L85.25 0.05L85.9 0.5L85.6 0.5L83.85 0.25L83.85 0.35L83 0.15M106.85,1.05L106.95 0.4Q107.3 -0.55 108 -1.55L107.9 -1.8Q107.35 -1.25 106.9 0.5L106.8 0.85L106.7 -0.15Q106.7 -1.35 107.15 -1.7Q107.65 -2.1 109.5 -2.1L110.6 -2.4L111.5 -2.7Q112 -2.7 112.5 -2.25L110.55 -2.05L108.1 -1.5L108.15 -1.45L108.45 -1.4L109.1 -1.6L111.7 -1.9L111.7 -1.8L112.35 -1.9L112.7 -2.1L113.1 -1.35L112.85 -1.15Q112 -1.75 111.5 -1.75Q108.2 -1.75 107.85 -0.4L108.1 1.6L108 2.4L107.2 2.55Q102.05 2.55 100.35 0.1Q98.6 -2.4 93.35 -2.4L93.3 -2.3L93.25 -2.05L92.9 -1.95L92.45 -2.25L92 -2.55L91 -2.45L91.15 -2.5L89.95 -2.1L89.95 -2.05Q89.1 -1.45 89 -0.2L88.6 1.5L88 1.6L87.45 1.2L87.4 1.1Q88 0.5 88.35 -1.25Q88.85 -3.8 92.15 -3.8Q92.7 -3.8 93.05 -3.25L96.5 -3.1L100.15 -1.8L102.3 0.2Q103.4 1.35 106.5 1.3Q106.15 1.7 105.55 1.7Q104.05 1.7 102.5 0.65L101.05 -0.55Q99.2 -1.35 99.05 -1.7Q98.75 -2.15 97.4 -2.45L95.7 -2.75L92.75 -2.7L93.25 -2.65Q98.2 -2.4 98.8 -1.8Q100.05 -0.6 100.6 -0.4L102.25 0.75Q103.4 1.65 105.4 1.9L106.05 2Q106.65 2 106.75 1.45L106.8 1.3L106.85 1.3L106.85 1.05M87.15,1.2Q87.6 1.85 88 1.85L88.3 1.8L87.5 2.1Q86.15 2.1 85.7 1.5Q85.3 0.9 84.2 0.9L81.3 1.35Q78.35 1.35 76.7 -1.45L75.2 -3.6L75.8 -3.1L76.45 -1.95Q77.05 -1.2 77.8 -1.05Q77.6 -0.3 78.3 0.25Q79.05 0.8 80.3 0.8L82 0.6L82.95 0.4L84.25 0.7L84.35 0.65L85.25 0.75L86.15 0.75L86.75 1.3L87.15 1.2M74.8,-3.95Q74.45 -4.25 74.15 -4.25L69.85 -3.6L71.5 -4.05Q73.75 -4.65 73.95 -4.9L74.05 -5L74.55 -4.8L74.65 -4.2L74.8 -3.95M28.45,0.25L27.95 -0.55Q25.8 -4.15 23 -4.55L24.15 -4.7Q27.5 -2.4 28.05 -0.7L28.45 0.25M16.7,2.75L17.05 3.15Q17.35 3.15 17.85 1.55L18.5 -0.9L19 -3L19.6 -3.5Q19.3 -3.15 19.15 -2.6L19 -0.3L17.95 2.05L16.8 3.85L14.25 0.3Q11.35 -3.55 9.6 -4.85L8.3 -4.8Q6.2 -2.8 4.95 -1.75Q2.65 0.25 1 0.95L1.4 0.6L1.55 0.6Q3.5 -1.5 8.15 -5.05L9 -5.25L9.8 -5.25L14.1 -0.4L15.85 1.75L15.9 1.8L16.7 3.05L16.7 2.75" />
<path style="fill:#FFFFFF;fill-opacity:1" d="M47.55,2.4L47.65 2.35L49.15 -0.1L49.4 -0.65Q51.25 -3.3 54 -3.3Q57.7 -3.3 58.5 -2.65L59.9 -1.35Q62.8 0.05 63.05 0.95L63 1.05L62.8 1.15L57.75 -2.6L56.35 -2.55L55.7 -2.75L54 -2.95Q51.5 -2.95 49.6 0L47.6 2.9Q46.5 2.9 45.05 0.95L43.85 -0.05Q43.15 -0.5 43.15 -0.9L43.35 -1.5Q42.95 -1.5 42.55 -1.95Q42.1 -2.5 41.1 -2.6L40.95 -2.7Q40.9 -2.6 40.75 -2.6L40.25 -3L39.8 -3.55L39.2 -4.1L38.35 -4.05L37.3 -4.4Q35.3 -4.4 34.2 -1.8Q33.45 -0.1 33.45 1.05L33.65 2.05L33.4 2.6Q33.1 2.95 32.55 2.95Q30.85 2.95 29.5 1.6L29.25 1.35L28.45 0.25L28.05 -0.7Q27.5 -2.4 24.15 -4.7L23 -4.55Q20.65 -4.2 19.6 -3.5L19 -3L18.5 -0.9L17.85 1.55Q17.35 3.15 17.05 3.15L16.7 2.75L15.9 1.8L15.85 1.75L14.1 -0.4L9.8 -5.25L9 -5.25L8.15 -5.05Q3.5 -1.5 1.55 0.6L1.4 0.6L1.35 0.6L2.45 -0.45L4.65 -2.55L6.4 -4.2Q7.7 -5.25 9.95 -5.5L10.7 -4.85L10.95 -4.6L12.25 -3.25L13.85 -1.35L15.3 0.55L16.65 2.3L17.05 2.8L17.75 0.75L18.25 -1.4L18.3 -1.6L18.3 -1.8L18.35 -2Q18.5 -3 19 -3.5Q20.2 -4.7 23.5 -5L24.95 -4.55L25.3 -4.05Q25.7 -3.8 27 -3.1L27.65 -2.15L28.25 -1.05L29.4 0.8Q30.9 2.6 32.55 2.6Q33.15 2.6 33.4 2.05L33.25 1.6L33.15 1.05L33.4 -0.65L33.9 -2.15Q35.05 -4.7 37.3 -4.7L38.25 -4.4L39.75 -4.15L40.45 -3.35L42.15 -2.6Q43.75 -1.75 43.75 -1.4L43.5 -0.85L43.9 -0.45L44.95 0.55L45.05 0.6Q46.55 2.05 47.55 2.4M79.85,0.45L80.45 0.45L80.75 0.45Q81.4 0 82.75 0.1L83 0.15L83.85 0.35L83.85 0.25L85.6 0.5L85.9 0.5L87.15 0.75L87.4 1.1L87.45 1.2L88 1.6L88.6 1.5Q89.45 1.05 89.45 -0.85L89.95 -2.05L89.95 -2.1L91.15 -2.5L91 -2.45Q90 -2 89.75 -0.7Q89.3 1.55 88.3 1.8L88 1.85Q87.6 1.85 87.15 1.2Q86.9 0.8 86.15 0.75L85.25 0.75L84.35 0.65L84.25 0.7L82.95 0.4L82 0.6L80.3 0.8Q79.05 0.8 78.3 0.25Q77.6 -0.3 77.8 -1.05Q77.05 -1.2 76.45 -1.95L75.8 -3.1L75.2 -3.6L74.8 -3.95L74.65 -4.2L74.55 -4.8L74.05 -5L73.95 -4.9Q73.75 -4.65 71.5 -4.05L69.85 -3.6L69.05 -3.3L68.8 -3.2Q67.7 -2.4 67.15 -0.55L65.95 0.85Q64.9 1.8 64.4 1.8L63.4 1.25L62.8 0.35L62.8 0.25L63.6 1.05Q63.9 1.45 64.4 1.45Q65.6 1.45 66.35 0.05L67.05 -1.65L68.35 -3.35Q68.9 -3.9 69.4 -4L72.1 -4.4Q72.85 -4.55 73.35 -5L73.35 -5.05L73.45 -5.1L73.85 -5.65L74.1 -6.2L74.3 -7.4L74.35 -7.8L74.5 -7.85L75.2 -7.65L75.25 -7.55L75.1 -7.55L74.55 -7.55Q75.1 -6.75 74.25 -5.35L74.4 -5.35L74.85 -4.9L75.45 -4.35L75.95 -3.7L76.2 -3.15Q76.55 -1.95 77.45 -1.4L78.05 -1.15L78.25 -1.1L78.15 -0.9L77.95 -0.5L79 0L79.05 0.05L79.15 0.1L79.85 0.45M106.9,0.5Q107.35 -1.25 107.9 -1.8L108 -1.55Q107.3 -0.55 106.95 0.4L106.85 1.05L106.8 1.3L106.75 1.45Q106.65 2 106.05 2L105.4 1.9Q103.4 1.65 102.25 0.75L100.6 -0.4Q100.05 -0.6 98.8 -1.8Q98.2 -2.4 93.25 -2.65L92.75 -2.7L95.7 -2.75L97.4 -2.45Q98.75 -2.15 99.05 -1.7Q99.2 -1.35 101.05 -0.55L102.5 0.65Q104.05 1.7 105.55 1.7Q106.15 1.7 106.5 1.3L106.8 0.85L106.9 0.5M112.5,-2.25L113.35 -2.15L113.35 -1.9L112.75 -2.1L112.7 -2.1L112.35 -1.9L111.7 -1.8L111.7 -1.9L109.1 -1.6L108.45 -1.4L108.15 -1.45L108.1 -1.5L110.55 -2.05L112.5 -2.25" />
<path style="fill:#FFFFFF;fill-opacity:1" d="M6,-2.25L5.85 -2.2Q5.9 -1.85 7.2 -1L8.65 0.3L9.2 1L9.8 1.55L10.05 2.8L9.55 5Q9.55 5.85 11.45 5.85L11.35 6.1L10.75 6.2Q9.25 6.2 9.25 5.05L9.5 3.9L9.75 2.75Q9.75 2.05 9.25 1.7Q8.65 1.3 8.35 0.2Q8.2 -0.25 6.85 -1.05Q5.65 -1.8 5.75 -2.3L5.95 -2.3L6 -2.25M19.75,-6.75L18.35 -6.55L17.15 -6.75L18.4 -6.85L19.65 -7.05L19.75 -6.9L19.75 -6.75M16.1,-6.25Q15.45 -5.9 14.75 -5.85L17 -6.7L16.1 -6.25M30.05,-7.8L31.4 -7.5L30 -7.3L29.2 -7.1L29.65 -6.45L29.7 -6Q29.7 -4.6 27.8 -3.7L27.6 -3.8Q28.55 -4.2 29.1 -4.9L29.55 -6.15L29.3 -6.6L29 -7.1Q29 -7.75 30.05 -7.8M37.7,-8.35L39.75 -7.2L42.35 -6.1L42.6 -6L42.2 -5.95Q41.25 -5.95 40.7 -6.35L39.95 -7.05L38.95 -7.25Q38.05 -7.45 37.75 -7.95L36 -6.55L35.35 -6.55L34.7 -5.95L34.15 -5.15Q34.15 -4.55 34.95 -4.15L35.7 -3.65L35.55 -3.4L35.35 -3.3Q34.9 -3.3 34.35 -4.2L33.9 -5.15Q33.9 -5.55 34.4 -6.1L35.35 -7Q36.1 -6.85 36.8 -7.45L37.7 -8.35M32.2,-6.8Q31.95 -6.85 31.8 -7.05L31.65 -7.35L32.2 -6.85L32.2 -6.8M39.45,-1.2L42.05 -1.95L41.85 -2.15Q41.65 -2.05 41.65 -2.3L42.25 -2.9Q43 -3.45 43.6 -3.25L44.45 -2.65L46 -2.85L46.2 -2.8L45.8 -2.6L45.3 -2.35L44.3 -2.35L43.55 -3L42.9 -3L41.9 -2.2L42.2 -1.85Q42.2 -1.65 40.6 -1.3Q38.95 -0.95 38.95 -0.5Q38.95 0 39.9 0.55Q40.85 1.05 40.75 1.85Q41.25 1.95 42.25 2.95Q43.25 4 43.25 4.45L43 4.75L40.25 4.95L40.8 5.8L40.75 5.95L40.25 5.5L39.85 4.95L40.3 4.55L42.9 4.4Q42.15 2.7 40.35 1.9L40.6 1.5L39.4 0.4Q38.65 -0.2 38.65 -0.55Q38.65 -1 39.45 -1.2M57,-6.15L56.95 -5.95L57.3 -5.05L57.6 -4.2L56.95 -3.55L56.3 -3.1L56.05 -2.95L55.75 -3L56.6 -3.65L57.3 -4.2L57 -5Q56.65 -5.65 56.65 -6L59.55 -5.9Q61.4 -5.6 61.4 -4.75Q61.35 -4.1 62.15 -3.25L63.3 -1.95L63.35 -1.9L63.15 -1.85Q62.75 -1.85 61.95 -2.7Q61.1 -3.6 61.05 -4.15Q60.9 -5.45 59.55 -5.85L57.55 -6.15L57 -6.15M66.9,-0.65L67.7 -0.7Q69.35 -0.7 69.8 0.05Q70.05 0.4 69.95 0.85L69.75 2.15Q69.75 2.7 70.75 3Q71.7 3.35 71.7 3.7L71.5 4.4L72.85 5.25L72.9 5.3L71.55 4.9Q71.2 4.75 71.2 4.45L71.5 3.7L70.55 3.15Q69.55 2.75 69.55 2.2L69.75 0.75Q69.75 0.2 69.55 0Q69.25 -0.45 68.15 -0.5L66.6 -0.5Q66.6 -0.65 66.9 -0.65M80.55,-1.5Q80.9 -1.75 81.05 -2.25L83.95 -2.65L84.6 -4.6Q84.55 -5.85 84.1 -6.2Q84.4 -6.8 85.95 -6.55L84.5 -6.3Q84.75 -6 84.8 -4.55L84.75 -3.35Q84.6 -2.5 83.95 -2.35L81.1 -2.2L80.55 -1.3L79.2 0L79.05 -0.05L80.55 -1.5M97.1,-1.15Q97.1 -0.7 95.6 1.6Q95.6 1.95 96.35 2.3L97.3 3.2L97.6 4.05L97.75 4.9Q97.75 5.45 95.8 5.25Q96.3 5.45 96.4 5.95L96.4 6L95 5.2Q95.8 4.6 96.25 4.8L97.4 5.1L97.45 4.65Q97.45 3.1 96.45 2.7Q95.4 2.25 95.4 1.65L96.15 0.15L96.9 -1.45L97.05 -1.45L97.1 -1.15M108.3,-6.25L109.05 -5.9Q108.3 -5.45 107.05 -5.25Q106.1 -5.05 106.1 -4.75L106.85 -3.55L106.35 -2.8L107.05 -1.75L107.9 -0.8L107.9 -0.7L106.8 -1.7L106 -2.8L106.5 -3.55L106.15 -4.05Q105.8 -4.45 105.8 -4.75Q105.8 -5.15 106.45 -5.25Q107.7 -5.4 108.75 -5.85L108.25 -6.15L108.25 -6.25L108.3 -6.25M106.65,4.7L107.8 5.2L108.1 5.8Q108.3 6.25 108.8 6.45L108.55 6.55Q108.1 6.55 107.8 5.95L107.35 5.15L106.55 4.7L106.65 4.7M106.25,2.8L105.7 4.15L106.05 4.5L105.45 4.15L106.05 2.8L105.85 2.45Q105.65 2.25 105.45 2.2L104.5 2.3L104.15 2.3L105.8 2.25Q106.25 2.45 106.25 2.8M86.15,1.2L86.3 1.45L86.05 1.35L86.05 1.1L86.2 1.1L86.15 1.2M86.8,1.9L86.9 1.95L86.65 2.6Q86.15 3.1 85.15 3.05L87 5.6Q87 5.8 86 6L85.75 5.95L86.75 5.45L84.95 2.85L86.2 2.55Q86.8 2.4 86.8 2L86.8 1.9M52.05,5.75L50.95 6.05L46.55 4.15Q46.55 3.95 47.4 3.45L48.4 2.75Q48.3 2.5 47.7 2.5L46.5 2.75Q48.6 2 48.6 2.75L48.15 3.4L46.95 4.1L48.6 5L50.9 5.7Q51.55 5.7 51.9 5.35Q52.2 4.95 52.6 4.95Q54.55 4.95 55.1 5.65L55.75 6.55L55.8 6.65L54.95 6.15L54.35 5.45L52.65 5.4L52.05 5.75M27.2,5.65Q27.3 5.3 26.8 4.85L26 4.05L25.3 4.05Q22.7 4.7 21.75 6.2L18.85 4.7Q18.15 4.35 18.15 3.65Q18.2 3 17.75 2.75L17.8 2.95L17.55 2.55L17.85 2.5Q18.45 2.5 18.5 3.25Q18.55 4.15 18.75 4.3L20.3 5.05L21.75 5.65L23 4.7Q24.5 3.7 25.6 3.7Q26.85 3.7 27.65 5.6L27.45 5.7L27.2 5.65" />
</g>
</svg>
