<?xml version="1.0" encoding="utf-8"?>
<svg version="1.1" id="Layer_1"
xmlns="http://www.w3.org/2000/svg"
xmlns:xlink="http://www.w3.org/1999/xlink"
width="13px" height="5px"
xml:space="preserve">
<g id="652" transform="matrix(1, 0, 0, 1, 5.05, 11.45)">
<path style="fill:#000000;fill-opacity:1" d="M6.85,-8.4Q7.25 -8.25 7.05 -7.5Q6.9 -6.95 6.45 -6.9L6.25 -6.85L6.35 -6.75L6.25 -6.55L5.6 -6.6L5.5 -6.65L5.2 -6.55L5.1 -6.7L3.95 -7L1.95 -6.9L-0.1 -7.1Q-0.45 -7.2 -1.2 -7.65L-2.15 -8.25L-3.4 -9.25L-3.8 -9.35Q-4.5 -9.55 -4.85 -10.15L-5 -11.15L-4.9 -11.45L-4.45 -11.35L-3.25 -10.9L-2.9 -10.7L-2.85 -10.9Q-2.2 -10.75 -2.1 -10.6L1.2 -9.3L1.6 -9.2L1.7 -9.05L5 -8.6L6.35 -8.55L6.85 -8.4M5.85,-7.2Q6.65 -7.25 6.7 -7.55Q6.8 -8 6.5 -8.05L5.05 -8.2L4 -8.2L2.7 -8.35L2.5 -8.55L2.35 -8.45L1.55 -8.65L1.45 -8.8L0.9 -9Q0.05 -9.25 0 -9.4Q-0.65 -9.6 -1.75 -10.1L-2.55 -10.45L-2.65 -10.15L-2.95 -9.65L-3.2 -9.35L-0.15 -7.5Q1.1 -7.4 4 -7.45L5.45 -7.1L5.85 -7.2M-4.65,-10.95Q-4.65 -10.6 -4.25 -10.15L-3.65 -9.75Q-3.2 -9.6 -3.05 -10.25L-3.05 -10.4L-3.5 -10.55L-3.65 -10.7L-4.55 -10.95L-4.65 -10.95" />
<path style="fill:#191919;fill-opacity:1" d="M5.45,-7.1L4 -7.45Q1.1 -7.4 -0.15 -7.5L-3.2 -9.35L-2.95 -9.65L-2.65 -10.15L-2.55 -10.45L-1.75 -10.1Q-0.65 -9.6 0 -9.4Q0.05 -9.25 0.9 -9L1.45 -8.8L1.55 -8.65L2.35 -8.45L2.5 -8.55L2.7 -8.35L4 -8.2L5.05 -8.2L6.5 -8.05Q6.8 -8 6.7 -7.55Q6.65 -7.25 5.85 -7.2L5.45 -7.1M-4.55,-10.95L-3.65 -10.7L-3.5 -10.55L-3.05 -10.4L-3.05 -10.25Q-3.2 -9.6 -3.65 -9.75L-4.25 -10.15Q-4.65 -10.6 -4.65 -10.95L-4.55 -10.95" />
</g>
</svg>
