<?xml version="1.0" encoding="utf-8"?>
<svg version="1.1" id="Layer_1"
xmlns="http://www.w3.org/2000/svg"
xmlns:xlink="http://www.w3.org/1999/xlink"
width="105px" height="87px"
xml:space="preserve">
<g id="814" transform="matrix(1, 0, 0, 1, 7.7, 9)">
<path style="fill:#000000;fill-opacity:1" d="M31.8,5.95L27.25 3.4L28.6 -0.35L31.6 -1.9L33.35 -1.2L33.5 -1.2L33.8 -0.8L33.7 -0.75L33.55 -0.55Q33.5 -0.3 33.6 -0.2L33.75 0.15L31.8 5.95M39.8,-0.15L39.8 0.35L39.85 0.45L40.15 0.7L40.75 0.65L40.8 0.65L41.1 0.35L41.2 -0.15L41.05 -0.45L40.75 -0.55L40.5 -0.55L40.3 -0.55L39.8 -0.15M43.5,0.6L43.45 0.6L42.9 0.6L42.4 0.95L42.35 1L40.8 1.6L40.55 1.35L40.1 1.35L39.9 1.65Q39.8 1.75 39.85 1.95L39.65 2Q39.6 1.8 39.4 1.8L39.25 1.75L38.95 1.2L38.35 -0.4L39.65 -3.5L39.7 -3.5L54.35 -9L52 -2.65L43.5 0.6M45.05,5.2L47.55 4.15L48.75 3.65L49.95 4.85L50.75 5.65L51.2 6.15L51.25 4.8L51.35 2.65L51.4 2.65L51.6 2.55L52.55 2.15L51.3 6.5L51.2 6.55L44.95 5.9L45.05 5.2M40.4,-2.25L40.8 -1.85L41.4 -1.8L41.8 -2.2L41.8 -2.8L41.45 -3.05L40.95 -3.05L40.45 -2.7L40.4 -2.25M66.35,-0.7L65.55 1.4L60.05 -2.6L60 -2.7L64.55 -2.8L66.35 -0.7M73.85,5.3L73.95 4.85L73.9 4.25L73.9 1.5L73.35 0.7L73.45 0.7L73.5 0.35L73.4 0.1L72.95 0L72.8 -0.05L72.05 -0.95L72.05 -1.05L71.75 -1.6L71.35 -1.9L71.15 -1.95L68.85 -4.9L75.65 -4.6L76.5 -3.6L76.1 -0.25L74.7 1L76.65 1L78.95 3.5L78.8 9.4L73.65 8.7L73.85 5.3M74.2,-3.5Q74.15 -3.2 74.35 -2.95Q74.6 -2.75 74.8 -2.7L75.45 -2.85L75.6 -3.3L75.35 -3.85L74.95 -4.2L74.45 -4L74.2 -3.5M74.05,-1.55L73.65 -1.5Q73.35 -1.25 73.45 -0.95Q73.4 -0.65 73.5 -0.45Q73.75 -0.25 74.15 -0.15L74.55 -0.25L74.85 -0.7L74.55 -1.3L74.25 -1.55L74.05 -1.55M85.25,26.65L85.35 26.35L85.4 26.15L85.45 26.15L86.35 24.6L86.85 24.6L87.15 24.25L87.3 23.6L86.9 23.4L87.45 22.25L87.8 22.05L88 21.9L88.15 21.55L87.9 21.3L88.2 20.65L87.35 17.55L87.25 17.05L87 16.7L84.05 7.55L89.1 6.5L92.55 16.9L90.85 19.9L89.4 20.45L89.2 20.45L89.35 20.6L91.05 21.35L92 24.7L89 30.5L84.7 27.65L85.25 26.65M80.45,17.1L81.35 21.1L78.9 23.4L78.7 23.55L76.3 22L78.85 16.8L80.45 17.1M91.05,17.35L91.35 16.9L91.3 16.4L91.05 15.95L90.5 15.9L90.15 16.3Q89.95 16.5 90 16.8L90.4 17.2L91.05 17.35M88.9,17.95L88.55 18.3Q88.35 18.55 88.5 18.8L88.85 19.35L89.35 19.4L89.4 19.35L89.7 19.05L89.7 18.35L89.45 18.1L89.4 18L88.9 17.95M88.6,22.7L88.55 23.3L88.9 23.8L89.05 23.75L89.45 23.6L89.75 23.25L89.95 22.65L89.55 22.35L89.25 22.3L89.1 22.25L88.6 22.7M90.35,24.65L89.9 24.9L89.9 25.2L89.95 25.4L90.35 25.8L90.85 25.9L90.95 25.85L91.1 25.45L91.25 24.95L90.95 24.65Q90.7 24.5 90.35 24.65M70.65,35.1L75.5 32.75L75.9 32.7L76.75 32.5L77.85 32.25L78.55 32.15L78.75 32.1L78.65 30.4L78.7 29.95L78.55 29.6L78.5 28.6L83.7 28.85L84.3 38.05Q84.1 37.8 83.9 37.9L84.55 38.65L85.95 40.25L84.75 43.45L82.05 47.65L81.6 48.3L81.4 48.25L81.35 48.25L81.3 48.25L81.25 48.25L81.1 48.2L70.6 35.15L70.65 35.1M90.85,62.35Q90.85 58.95 89.05 56.3L88.05 55.1L87.7 54.75L85.75 53.2L85.1 52.85L83.05 50.6L83.6 49.55L83.65 49.25L89.5 48.75L92.8 49.25L94.15 52.95L91.6 55.45L95.1 55.6L96.55 59.5L94.35 62L90.6 64.75L90.85 62.35M87.7,69.85L88.5 69L88.5 70.45L87.8 73.7L84.05 74.85L82.3 72.85Q85.35 72.25 87.7 69.85M73.25,71.75L75 71.7L75.85 72.1Q77.05 72.65 78.45 72.85L80.2 73L81.65 72.95L81.35 75.65L77.4 76.85L75 74.5L73.95 72.85L73.25 71.75M52.75,71.65L68.4 71.65L68.1 72.85L67.7 74.25L66.15 77.2L62.2 77.25L60.7 74.05L59.4 77.3L55.25 77.4L53.6 74.45L53.1 72.85L52.75 71.65M46.7,72.85L46.3 74.35L44.7 77.3L40.75 77.3L39.3 74.1L37.95 77.35L33.8 77.35L32.2 74.4L31.75 72.85L31.4 71.65L47.05 71.65L46.7 72.85M25.65,72.85L22.3 76.2L19.45 77.95L16.05 75.95L16.35 72.45L13.6 74.6L10 72.5L10.05 69.15L10.65 66.8Q11.4 68.45 12.8 69.85Q15.45 72.5 18.95 72.95L22.2 72.85L24.75 72.1L25.55 71.7L25.6 71.7L26.3 71.7L26.45 72.05L25.65 72.85M9.9,64.5L6.7 62.4L4.4 59.95L5.65 56.2L9.15 55.8L6.5 53.55L7.75 49.6L11.05 48.95L16.9 49.15L17.1 49.8L17.5 51.15L19.5 48.75L18.8 47.8L16.45 44.45L15.15 41.35L17.65 38.3L18.3 38.5L18.65 33.25L20.75 31.9L20.85 31.9L21.05 31.7L24.25 28L23.9 33.3L25.35 33.55L27.15 34.35L28 34.7L30.25 35.65L31.6 34L29.75 31.4L29.2 30.6L28.75 29.95L28.35 29L27.95 28L27.45 26.85L29.95 23.8L30.35 23.9L31.7 24.3L32.5 24.5L33.35 24.7L32.9 23.8L32.2 22.55L31.7 21.65L31.95 21.4L33.15 19.9L34 18.85L34.35 18.45L35.7 18.7L36.65 18.9L37.65 19.05L42.3 21.05L14.9 54.55L16.55 52.45L16.45 52.45Q15.95 52.6 15.55 52.85Q15.25 52.95 15.05 53.15L14.9 53.25Q14.1 53.6 13.4 54.25L11.05 57.05L10.6 58.05Q9.7 60 9.7 62.35L9.9 64.5M31.55,14.85L32.75 7L35.4 11.45L31.55 14.85M43.25,18.25L43.2 18.25L42.05 19.7L43.25 14.75L44.45 12.5L50.1 15.2Q46.1 15.4 43.25 18.25M50.25,15.2L56.8 13.5L57.35 14.5L58.7 18.8L58.2 18.15L57.85 17.8Q54.85 15.15 50.8 15.15L50.25 15.2M70.15,32.25L70.7 32.95L69.2 33.3L68.6 32.6L68.55 32.6L67.1 30.8L67.15 30.75L65.9 29.2L65.85 29.25L63.5 26.35L63.55 26.3L62.7 25.25L62.65 25.3L62.55 25.2L62.55 25.1L61.35 23.6L61.25 23.5L60.75 22.9L60.75 22.85L59.5 21.4L58.1 19.7L61.5 17.8L64.75 16.9L65.45 17.6L65.95 18.15L66.55 18.8L67.5 19.75L66.2 23.05L67.95 22.35L68.35 28.1L71.2 28.25L68.6 32.6L70.15 32.25M61.65,63.25L62.35 63.75L63.05 64.25L63.1 66.2L65.3 66.35L64.55 70.3L66.8 70.25L66.25 66.45L66.25 66.4L66.3 66.4L66.5 65.85L70.1 65.85Q70.85 68.1 72.6 69.85L73.2 70.35L73.55 70.65L72.5 70.55L72.35 70.35L61.5 70.35L61.35 63.15L61.65 63.25M56.15,65.85L60 63.05L60.15 70.35L56.55 70.35L55.95 65.85L56.15 65.85M55.25,65.85L54.3 70.35L45.45 70.35L44.85 65.85L55.25 65.85M41.3,63.95L43.9 65.85L44.15 65.85L43.2 70.35L40.15 70.35L40.1 64.15L41.3 63.95M34.85,65.85L37.5 64L38.75 64.15L38.8 70.35L35.2 70.35L34.7 65.95L34.7 65.85L34.85 65.85M27.9,69.85Q29.7 68.1 30.5 65.85L33.95 65.85L32.9 70.35L27.4 70.35L27.9 69.85M40.6,32.5L24.6 52.5Q22.6 51.65 20.35 51.65L18.9 51.75L20 50.55L19.75 50.55L22.15 47.65L25.8 49.95L23.05 46.55L25.35 43.8L29.1 46.8L29.95 45.8L26.2 42.75L28.7 39.75L32.25 42.05L29.6 38.65L34.25 33.05L38.1 35.45L35.25 31.85L37.5 29.15L41.4 32.3L40.6 32.5M42.65,26.35L42.25 31.3L38.3 28.15L40.8 25.15L42.65 26.35M41.75,23.95L43 22.5L42.75 25.25L41.75 23.95M56.85,24.15L56.4 20.6L56.8 20.4L57.1 20.7L57.75 21.4L58.15 21.95L58.4 22.25L56.85 24.15M57.65,30.1L57.05 25.55L57 25.2L57.05 25.2L59.5 23.65L61.55 26.35L57.65 30.1M75.8,50.8L71.05 44.85L70.65 44.35L68.7 41.95L68.65 41.2L68.05 41.1L67.15 40L66.95 39.95L65.35 38L65.45 37.85L64.85 37.1L62.25 33.9L62.05 34L59.9 31.35L59.95 31.35L59.4 31.25L58.6 31.05L60.1 29.65L62.4 27.45L62.7 27.85L62.7 27.65L64.9 30.4L62.05 33.85L65.85 31.55L71.15 38.1L68.5 41.05L72 39.15L74.3 42L71.05 44.85L71.95 45.85L75.15 43.05L77.65 46.15L75.2 48.75L78.4 47.05L82.25 51.85L80.2 51.65L77.5 52L76.9 52.15L76.5 51.65L75.8 50.8M69.55,61.5L69.75 60L70 59.2L69.8 60Q69.6 60.9 69.55 61.95L69.55 61.5M69.6,63.5L69.8 64.75L69.6 63.6L69.6 63.5M76.7,4.4L76.9 4.9L77.4 5L77.95 4.85L78.05 4.5L78.05 3.9L77.65 3.65L76.95 3.85Q76.75 4.15 76.7 4.4M74.7,2.8L74.85 3.3L75.4 3.55L75.75 3.45L75.85 3.3L75.9 2.85L75.95 2.25L75.4 2.2L75.35 2.15L74.9 2.2L74.7 2.8M80.1,37.9L80.05 37.9L79.9 38.2L80.3 38.1L80.1 37.9M33.25,0.4Q33.1 0.15 32.8 0.1L32.4 0.15L32.35 0.15L31.9 0.6L31.85 0.8L31.95 1.15L32.45 1.45L33.05 1.35L33.35 0.95L33.25 0.4M30.6,0.35Q30.45 0.05 30.1 0L29.6 0.1L29.2 0.5L29.3 1.05L29.65 1.4L30.25 1.25L30.6 0.95L30.6 0.35M23.9,15.3L20.25 19.65L23.45 8.5L23.4 8.15L23.25 8.05L23.9 7.35L23.9 15.3M15.4,33.35L15.45 33.65L15.65 33.9L15.9 33.85L14.05 35.5L13.85 33.1L14 32.95L14.15 32.5L13.85 32L13.7 32L13.6 30.45L13.75 30.45L14.3 30.55L14.75 30.3L14.9 29.9L14.85 29.75L14.6 29.3L14.1 29.25Q13.8 29.3 13.55 29.45L13.05 24.55L15.25 21.9L16.3 21.9Q16.3 22.25 16.55 22.3L17.15 22.45L17.45 22.3L17.55 22.15L17.65 21.65L17.65 21.6L17.4 21.2L16.95 21.1L16.7 21.2L15.9 20.55L15.55 17.2L18.85 13.35L18.75 13.75L19.05 14.25L19.6 14.35L20.1 14.05L20.25 13.55L19.9 13.05L19.4 13Q19.1 13.05 18.9 13.25L20.1 11.75L20.5 11.8L20.9 11.5L21.05 11L21 10.8L22.4 9.05L18.85 21.3L18.05 22.2L18.2 23.6L15.4 33.35M18.45,25.85L18.8 29.45L16.2 33.55L18.45 25.85M18.05,16.45L18.3 16.9L18.9 17.05L19.35 16.75L19.5 16.2L19.2 15.8L18.7 15.75L18.15 15.95Q17.95 16.2 18.05 16.45M17.65,18.45L17.1 18.65Q16.95 18.85 16.95 19.15L17.3 19.65L17.85 19.75L18.3 19.45L18.4 18.95L18.15 18.5L17.65 18.45M15.5,24.5Q15.55 24.85 15.75 25L16.2 25.1L16.3 25.1L16.75 24.9L16.8 24.8L17 24.3L16.95 24.15L16.6 23.8L16.1 23.75L16 23.75Q15.8 23.8 15.55 24Q15.45 24.2 15.5 24.5M16.25,26.9L15.95 26.45L15.4 26.4L14.9 26.55L14.85 26.7Q14.7 26.95 14.8 27.15L14.95 27.55L15.05 27.55L15.6 27.7L16.1 27.45L16.25 26.9" />
<path style="fill:#8B5F3D;fill-opacity:1" d="M36.35,2.65L36.55 8.65L35.6 8.1L35.45 2.75L33.75 0.15L33.6 -0.2Q33.5 -0.3 33.55 -0.55L33.7 -0.75L33.8 -0.8L36.35 2.65M40.3,-0.55L40.5 -0.55L40.75 -0.55L41.05 -0.45L41.2 -0.15L41.1 0.35L40.8 0.65L40.75 0.65L40.15 0.7L39.85 0.45L39.8 0.35L39.8 -0.15L40.3 -0.55M52.75,-0.6L53.1 0.2L50.8 1.05L51.4 2.65L51.35 2.65L51.25 4.8L49.95 1.35L43.7 3.7L43.55 3.8L43.4 3.75L40.1 2.15L39.85 1.95Q39.8 1.75 39.9 1.65L40.1 1.35L40.55 1.35L40.8 1.6L43.55 2.85L52.75 -0.6M42.35,1L42.4 0.95L42.9 0.6L43.45 0.6L43.5 0.6L43.75 0.9L43.7 1.45L43.35 1.85L42.75 1.85L42.35 1.45L42.35 1M40.45,-2.7L40.95 -3.05L41.45 -3.05L41.8 -2.8L41.8 -2.2L41.4 -1.8L40.8 -1.85L40.4 -2.25L40.45 -2.7M50.55,-1.35L50.9 -1.6L51.45 -1.65L51.85 -1.2L51.8 -0.7Q51.7 -0.45 51.4 -0.35L50.8 -0.35Q50.55 -0.4 50.45 -0.7L50.5 -1.25L50.55 -1.35M48.85,-0.65L49.2 -0.25L49.2 0.25L48.75 0.65L48.2 0.65L47.85 0.25Q47.7 0 47.85 -0.3L48.25 -0.6L48.85 -0.65M70.2,0.25L72.8 -0.05L72.95 0L73.4 0.1L73.5 0.35L73.45 0.7L73.35 0.7L73.1 0.85L69.95 1.2L69.85 1.15L69.7 0.95L66.55 -2.9L67.15 -3.45L70.2 0.25M70.85,8.35L69.95 8.2L70.1 4.7Q70.05 4.5 70.15 4.35L72.85 2Q72.95 1.8 73.15 1.85L73.4 1.95L73.5 2.25L73.4 2.5L70.95 4.85L70.85 8.35M69.4,-3.35L69.55 -2.9L69.3 -2.45Q69 -2.15 68.7 -2.25Q68.45 -2.3 68.3 -2.55L68.1 -3.05Q68.1 -3.35 68.4 -3.5L68.8 -3.7L69.4 -3.35M71.35,-1.9L71.75 -1.6L72.05 -1.05L72.05 -0.95L71.8 -0.7L71.3 -0.55L70.75 -0.8L70.6 -1.35Q70.55 -1.6 70.85 -1.8L71.15 -1.95L71.35 -1.9M74.45,-4L74.95 -4.2L75.35 -3.85L75.6 -3.3L75.45 -2.85L74.8 -2.7Q74.6 -2.75 74.35 -2.95Q74.15 -3.2 74.2 -3.5L74.45 -4M73.9,4.25L73.95 4.85L73.85 5.3L73.15 5.55L72.75 5.25Q72.5 5.05 72.55 4.7L72.8 4.25Q73.05 4.05 73.3 4L73.9 4.25M74.25,-1.55L74.55 -1.3L74.85 -0.7L74.55 -0.25L74.15 -0.15Q73.75 -0.25 73.5 -0.45Q73.4 -0.65 73.45 -0.95Q73.35 -1.25 73.65 -1.5L74.05 -1.55L74.25 -1.55M83,8.7L83.45 8.75L83.85 9.25L83.85 9.8L83.45 10.2L82.95 10.05L82.55 9.6Q82.4 9.4 82.55 9Q82.55 8.8 83 8.7M83.5,11.7Q83.45 11.5 83.85 11.4L84.4 11.4L84.75 12L84.75 12.4L84.35 12.75Q83.9 12.9 83.8 12.65L83.5 12.25L83.5 11.7M88.15,21.55L88 21.9L87.8 22.05L87.45 22.25L84.6 23.15L82.9 26.45L82.25 26L83.9 22.65L84.2 22.45L87.55 21.35L87.9 21.3L88.15 21.55M80.9,12.75L81.45 11.7L80.35 8.35L81.25 8.1L84.75 18.75L87.6 19.55L87.85 19.7L87.85 20.1L87.6 20.35L87.35 20.35L84.25 19.55L84.05 19.45L83.95 19.25L81.75 12.55L80.9 12.75M87.25,17.05L87.35 17.55L87.25 17.7L86.95 18L86.3 18L86 17.45Q85.9 17.15 86.05 16.9Q86.05 16.7 86.45 16.7Q86.65 16.5 86.85 16.7L87 16.7L87.25 17.05M90.4,17.2L90 16.8Q89.95 16.5 90.15 16.3L90.5 15.9L91.05 15.95L91.3 16.4L91.35 16.9L91.05 17.35L90.4 17.2M89.4,18L89.45 18.1L89.7 18.35L89.7 19.05L89.4 19.35L89.35 19.4L88.85 19.35L88.5 18.8Q88.35 18.55 88.55 18.3L88.9 17.95L89.4 18M84.4,14.95L84.45 14.4Q84.4 14.15 84.75 14.1L85.2 14.15L85.35 14.3L85.6 14.65L85.55 15.1L85.15 15.5L84.65 15.5L84.6 15.35L84.4 14.95M87.3,23.6L87.15 24.25L86.85 24.6L86.35 24.6L85.9 24.25Q85.85 23.95 86.05 23.7L86.45 23.25L86.6 23.25L86.9 23.4L87.3 23.6M89.1,22.25L89.25 22.3L89.55 22.35L89.95 22.65L89.75 23.25L89.45 23.6L89.05 23.75L88.9 23.8L88.55 23.3L88.6 22.7L89.1 22.25M90.95,24.65L91.25 24.95L91.1 25.45L90.95 25.85L90.85 25.9L90.35 25.8L89.95 25.4L89.9 25.2L89.9 24.9L90.35 24.65Q90.7 24.5 90.95 24.65M85.4,26.15L85.35 26.35L85.25 26.65L85.05 26.75L84.4 26.75L84.1 26.4Q83.95 25.9 84.1 25.75L84.6 25.3L85.05 25.35L85.45 25.8L85.45 26.15L85.4 26.15M83.9,37.9Q84.1 37.8 84.3 38.05L84.55 38.5L84.55 38.65L83.9 37.9M20.75,31.9L21.05 31.7L20.85 31.9L20.75 31.9M30,21.4L30.6 20.7L31.95 21.4L31.7 21.65L32.2 22.55L30 21.4M36.65,18.9L35.7 18.7L37.6 15.2L38.15 16.15L36.65 18.9M66.55,18.8L65.95 18.15L67.55 16.6L67.65 17.8L66.55 18.8M70.15,32.25L75.75 30.95L75.55 28.45L76.4 28.5L76.6 31.1L76.65 31.2L76.65 31.45L76.75 32.5L75.9 32.7L75.8 31.85L70.7 32.95L70.15 32.25M76.95,3.85L77.65 3.65L78.05 3.9L78.05 4.5L77.95 4.85L77.4 5L76.9 4.9L76.7 4.4Q76.75 4.15 76.95 3.85M74.9,2.2L75.35 2.15L75.4 2.2L75.95 2.25L75.9 2.85L75.85 3.3L75.75 3.45L75.4 3.55L74.85 3.3L74.7 2.8L74.9 2.2M72.9,6.85L73.1 7.5L72.95 7.9L72.9 7.95L72.45 8.15Q72.05 8.1 72 7.95L71.95 7.9L71.75 7.35Q71.7 7.1 71.95 6.75Q72.05 6.6 72.45 6.6L72.9 6.85M64.75,16.9L64.95 16.4L65.5 16.25Q65.8 16.25 66 16.4L66.2 16.9L66 17.4Q65.8 17.6 65.5 17.6L65.45 17.6L64.75 16.9M50.75,5.65L49.95 4.85L50.3 4.8L50.65 5.25L50.75 5.65M46.55,0.7L46.55 1.3L46.2 1.65L45.55 1.65L45.15 1.25Q45.1 0.95 45.2 0.7L45.7 0.4L46.2 0.35L46.55 0.7M78.65,30.4L78.5 30.45L78.15 30.8Q77.7 30.8 77.65 30.6L77.35 30.1L77.45 29.45Q77.5 29.25 77.95 29.25L78.4 29.4L78.55 29.6L78.7 29.95L78.65 30.4M78.55,32.15L77.85 32.25Q77.8 32.15 78.2 32.05L78.55 32.15M72.1,30.4L71.9 30.85L71.4 31.1L70.85 30.85Q70.6 30.75 70.6 30.4L70.85 29.9L71.4 29.75L71.9 29.9L72.1 30.4M74.3,30.6L73.7 30.4L73.5 29.9L73.7 29.4L74.3 29.25L74.75 29.4L75 29.9L74.75 30.4Q74.55 30.6 74.3 30.6M80.3,38.1L79.9 38.2L80.05 37.9L80.1 37.9L80.3 38.1M34.25,2.5L34.65 2.85L34.7 3.35L34.45 3.75L33.8 3.9Q33.5 3.9 33.35 3.55L33.3 3L33.75 2.6L34.25 2.5M33.35,0.95L33.05 1.35L32.45 1.45L31.95 1.15L31.85 0.8L31.9 0.6L32.35 0.15L32.4 0.15L32.8 0.1Q33.1 0.15 33.25 0.4L33.35 0.95M30.6,0.95L30.25 1.25L29.65 1.4L29.3 1.05L29.2 0.5L29.6 0.1L30.1 0Q30.45 0.05 30.6 0.35L30.6 0.95M33.7,5.15L34.2 5.05L34.7 5.35L34.65 5.9L34.4 6.3L33.8 6.35Q33.55 6.35 33.4 6.15Q33.2 5.85 33.3 5.55L33.7 5.15M23.9,21.25L23.45 22L19.85 20.8L18.45 25.85L16.2 33.55L15.9 33.85L15.65 33.9L15.45 33.65L15.4 33.35L18.2 23.6L18.85 21.3L22.4 9.05L22.65 8.25Q22.65 8.05 22.8 8.05L23.15 8L23.25 8.05L23.4 8.15L23.45 8.5L20.25 19.65L20.15 19.9L23.9 21.25M13.85,33.1L13.55 33.25L12.95 33.1L12.7 32.7L12.8 32.15L13.35 31.95L13.7 32L13.85 32L14.15 32.5L14 32.95L13.85 33.1M13.6,30.45L13.45 30.1L13.35 30L13.55 29.55L13.55 29.45Q13.8 29.3 14.1 29.25L14.6 29.3L14.85 29.75L14.9 29.9L14.75 30.3L14.3 30.55L13.75 30.45L13.6 30.45M16.3,21.9L16.4 21.35L16.7 21.2L16.95 21.1L17.4 21.2L17.65 21.6L17.65 21.65L17.55 22.15L17.45 22.3L17.15 22.45L16.55 22.3Q16.3 22.25 16.3 21.9M18.85,13.35L18.9 13.25Q19.1 13.05 19.4 13L19.9 13.05L20.25 13.55L20.1 14.05L19.6 14.35L19.05 14.25L18.75 13.75L18.85 13.35M20.1,11.75L19.8 11.65L19.55 11.3L19.7 10.7L20.25 10.5L20.8 10.55L21 10.8L21.05 11L20.9 11.5L20.5 11.8L20.1 11.75M20.6,9L20.3 8.6Q20.25 8.3 20.45 8.1L20.95 7.8L21.45 7.9L21.75 8.4L21.65 8.85L21.15 9.15L20.6 9M28.05,28.85L27.85 28.35L27.95 28L28.35 29L28.05 28.85M29.2,30.6L29.75 31.4L28 34.7L27.15 34.35L29.2 30.6M36.1,14.45L36.55 14.6L36.8 15.05L36.55 15.55L36.1 15.75L35.5 15.55L35.3 15.05L35.5 14.6L36.1 14.45M34.25,17.75L34.05 17.25L34.25 16.75L34.8 16.6L35.3 16.75L35.5 17.25L35.3 17.75Q35.1 17.95 34.8 17.95Q34.55 17.95 34.25 17.75M33.15,19.9Q32.9 19.8 32.9 19.4L33.15 18.95L33.7 18.8L34 18.85L33.15 19.9M32.9,23.8L33.35 24.7L32.5 24.5L32.9 23.8M31.7,24.3L30.35 23.9L30.45 23.7L31 23.55Q31.3 23.55 31.5 23.7L31.7 24.2L31.7 24.3M18.15,15.95L18.7 15.75L19.2 15.8L19.5 16.2L19.35 16.75L18.9 17.05L18.3 16.9L18.05 16.45Q17.95 16.2 18.15 15.95M18.15,18.5L18.4 18.95L18.3 19.45L17.85 19.75L17.3 19.65L16.95 19.15Q16.95 18.85 17.1 18.65L17.65 18.45L18.15 18.5M15.55,24Q15.8 23.8 16 23.75L16.1 23.75L16.6 23.8L16.95 24.15L17 24.3L16.8 24.8L16.75 24.9L16.3 25.1L16.2 25.1L15.75 25Q15.55 24.85 15.5 24.5Q15.45 24.2 15.55 24M16.1,27.45L15.6 27.7L15.05 27.55L14.95 27.55L14.8 27.15Q14.7 26.95 14.85 26.7L14.9 26.55L15.4 26.4L15.95 26.45L16.25 26.9L16.1 27.45M26.8,30.05L27.35 29.9L27.85 30.05L28.05 30.5L27.85 31L27.35 31.2L26.8 31L26.6 30.5L26.8 30.05M26.1,32.05L26.6 32.2L26.8 32.7L26.6 33.2L26.1 33.4L25.55 33.2L25.35 32.7L25.55 32.2L26.1 32.05" />
<path style="fill:#0B0B0B;fill-opacity:1" d="M31.8,5.95L33.75 0.15L35.45 2.75L35.6 8.1L31.8 5.95M43.55,2.85L40.8 1.6L42.35 1L42.35 1.45L42.75 1.85L43.35 1.85L43.7 1.45L43.75 0.9L43.5 0.6L52 -2.65L52.75 -0.6L43.55 2.85M51.4,2.65L50.8 1.05L53.1 0.2L52.55 2.15L51.6 2.55L51.4 2.65M40.1,2.15L43.4 3.75L43.55 3.8L43.7 3.7L49.95 1.35L51.25 4.8L51.2 6.15L50.75 5.65L50.65 5.25L50.3 4.8L49.95 4.85L48.75 3.65L47.55 4.15L45.05 5.2L44.95 5.9L41.2 5.55L41.1 5.4L39.65 2L39.85 1.95L40.1 2.15M50.5,-1.25L50.45 -0.7Q50.55 -0.4 50.8 -0.35L51.4 -0.35Q51.7 -0.45 51.8 -0.7L51.85 -1.2L51.45 -1.65L50.9 -1.6L50.55 -1.35L50.5 -1.25M48.25,-0.6L47.85 -0.3Q47.7 0 47.85 0.25L48.2 0.65L48.75 0.65L49.2 0.25L49.2 -0.25L48.85 -0.65L48.25 -0.6M73.3,4Q73.05 4.05 72.8 4.25L72.55 4.7Q72.5 5.05 72.75 5.25L73.15 5.55L73.85 5.3L73.65 8.7L70.85 8.35L70.95 4.85L73.4 2.5L73.5 2.25L73.4 1.95L73.15 1.85Q72.95 1.8 72.85 2L70.15 4.35Q70.05 4.5 70.1 4.7L65.55 1.4L66.35 -0.7L64.55 -2.8L66.55 -2.9L69.7 0.95L69.85 1.15L69.95 1.2L73.1 0.85L73.35 0.7L73.9 1.5L73.9 4.25L73.3 4M67.15,-3.45L68.85 -4.9L71.15 -1.95L70.85 -1.8Q70.55 -1.6 70.6 -1.35L70.75 -0.8L71.3 -0.55L71.8 -0.7L72.05 -0.95L72.8 -0.05L70.2 0.25L67.15 -3.45M68.8,-3.7L68.4 -3.5Q68.1 -3.35 68.1 -3.05L68.3 -2.55Q68.45 -2.3 68.7 -2.25Q69 -2.15 69.3 -2.45L69.55 -2.9L69.4 -3.35L68.8 -3.7M82.55,9Q82.4 9.4 82.55 9.6L82.95 10.05L83.45 10.2L83.85 9.8L83.85 9.25L83.45 8.75L83 8.7Q82.55 8.8 82.55 9M83.5,12.25L83.8 12.65Q83.9 12.9 84.35 12.75L84.75 12.4L84.75 12L84.4 11.4L83.85 11.4Q83.45 11.5 83.5 11.7L83.5 12.25M78.85,16.8L80.9 12.75L81.75 12.55L83.95 19.25L84.05 19.45L84.25 19.55L87.35 20.35L87.6 20.35L87.85 20.1L87.85 19.7L87.6 19.55L84.75 18.75L81.25 8.1L84.05 7.55L87 16.7L86.85 16.7Q86.65 16.5 86.45 16.7Q86.05 16.7 86.05 16.9Q85.9 17.15 86 17.45L86.3 18L86.95 18L87.25 17.7L87.35 17.55L88.2 20.65L87.9 21.3L87.55 21.35L84.2 22.45L83.9 22.65L82.25 26L78.7 23.55L78.9 23.4L81.35 21.1L80.45 17.1L78.85 16.8M84.7,27.65L82.9 26.45L84.6 23.15L87.45 22.25L86.9 23.4L86.6 23.25L86.45 23.25L86.05 23.7Q85.85 23.95 85.9 24.25L86.35 24.6L85.45 26.15L85.45 25.8L85.05 25.35L84.6 25.3L84.1 25.75Q83.95 25.9 84.1 26.4L84.4 26.75L85.05 26.75L85.25 26.65L84.7 27.65M84.6,15.35L84.65 15.5L85.15 15.5L85.55 15.1L85.6 14.65L85.35 14.3L85.2 14.15L84.75 14.1Q84.4 14.15 84.45 14.4L84.4 14.95L84.6 15.35M81.1,48.2L81.25 48.25L81.3 48.25L81.35 48.25L81.4 48.25L81.6 48.3L82.05 47.65L83.6 49.55L83.05 50.6L81.1 48.2M80.2,73L78.45 72.85Q77.05 72.65 75.85 72.1L75 71.7Q85.55 71.35 88.05 68Q92.55 61.95 85.1 52.85L85.75 53.2L87.7 54.75L88.05 55.1L89.05 56.3Q90.85 58.95 90.85 62.35L90.6 64.75Q90.1 67.1 88.5 69L87.7 69.85Q85.35 72.25 82.3 72.85L81.65 72.95L80.2 73M73.95,72.85L68.1 72.85L68.4 71.65L71.95 71.65L72 71.75L73.25 71.75L73.95 72.85M53.1,72.85L46.7 72.85L47.05 71.65L52.75 71.65L53.1 72.85M31.75,72.85L25.65 72.85L26.45 72.05L26.3 71.7L29.2 71.75L29.3 71.65L31.4 71.65L31.75 72.85M9.7,62.35Q9.7 60 10.6 58.05L11.05 57.05L13.4 54.25Q14.1 53.6 14.9 53.25L15.05 53.15Q15.25 52.95 15.55 52.85Q15.95 52.6 16.45 52.45L16.55 52.45L14.9 54.55Q9.05 62.5 13.15 68Q15.6 71.25 25.55 71.7L24.75 72.1L22.2 72.85L18.95 72.95Q15.45 72.5 12.8 69.85Q11.4 68.45 10.65 66.8Q10.1 65.7 9.9 64.5L9.7 62.35M17.1,49.8L18.8 47.8L19.5 48.75L17.5 51.15L17.1 49.8M27.15,34.35L25.35 33.55L23.9 33.3L24.25 28L30 21.4L32.2 22.55L32.9 23.8L32.5 24.5L31.7 24.3L31.7 24.2L31.5 23.7Q31.3 23.55 31 23.55L30.45 23.7L30.35 23.9L29.95 23.8L27.45 26.85L27.95 28L27.85 28.35L28.05 28.85L28.35 29L28.75 29.95L29.2 30.6L27.15 34.35M35.4,11.45L37.6 15.2L35.7 18.7L34.35 18.45L34 18.85L33.7 18.8L33.15 18.95L32.9 19.4Q32.9 19.8 33.15 19.9L31.95 21.4L30.6 20.7L31.55 14.85L35.4 11.45M38.15,16.15L41 10.85L44.45 12.5L43.25 14.75L42.05 19.7L43.2 18.25L43.25 18.25Q46.1 15.4 50.1 15.2L50.15 15.2L50.2 15.2L50.25 15.2L50.8 15.15Q54.85 15.15 57.85 17.8L58.2 18.15L58.7 18.8L57.35 14.5L56.8 13.5L62.2 12.05L67.55 16.6L65.95 18.15L65.45 17.6L65.5 17.6Q65.8 17.6 66 17.4L66.2 16.9L66 16.4Q65.8 16.25 65.5 16.25L64.95 16.4L64.75 16.9L61.5 17.8L58.1 19.7Q55.05 16.7 50.8 16.7Q46.7 16.7 43.7 19.45L43.4 19.7L42.35 21L42.3 21.05L37.65 19.05L36.65 18.9L38.15 16.15M66.55,18.8L67.65 17.8L67.95 22.35L66.2 23.05L67.5 19.75L66.55 18.8M68.6,32.6L71.2 28.25L75.55 28.45L75.75 30.95L70.15 32.25L68.6 32.6M76.4,28.5L78.5 28.6L78.55 29.6L78.4 29.4L77.95 29.25Q77.5 29.25 77.45 29.45L77.35 30.1L77.65 30.6Q77.7 30.8 78.15 30.8L78.5 30.45L78.65 30.4L78.75 32.1L78.55 32.15L78.2 32.05Q77.8 32.15 77.85 32.25L76.75 32.5L76.65 31.45L76.65 31.2L76.6 31.1L76.4 28.5M73.2,70.35L72.6 69.85Q70.85 68.1 70.1 65.85L66.5 65.85L67.05 64.1L69.6 63.6L69.8 64.75L69.6 63.5L69.6 62.65L69.55 61.95Q69.6 60.9 69.8 60L70 59.2L69.75 60L69.55 61.5L69.5 60.9L69.9 54.6L76.1 52.6L77 52.3L76.5 51.65L76.9 52.15L77.5 52L80.2 51.65L82.25 51.85L82.4 51.9Q92.25 63.1 87 67.4Q82.1 71.35 73.55 70.65L73.2 70.35M44.85,65.85L44.55 63.6L44.15 65.85L43.9 65.85L41.3 63.95L40.1 64.15L39.6 64.15L39.45 64.15L39.25 64.15L38.75 64.15L37.5 64L34.85 65.85L34.7 65.85L34.4 63.65L33.95 65.85L30.5 65.85Q29.7 68.1 27.9 69.85L27.4 70.35L27.15 70.6L27 70.7Q18.9 71.15 14.2 67.4Q8.95 63.1 18.9 51.75L20.35 51.65Q22.6 51.65 24.6 52.5L40.6 32.5L41.4 32.3L42.25 31.3L42.65 26.35L40.8 25.15L41.75 23.95L42.75 25.25L43 22.5L43.4 21.95L44.25 20.9L44.4 20.7Q47.05 18.1 50.8 18.1Q54.25 18.1 56.8 20.4L56.4 20.6L56.85 24.15L58.4 22.25L59.5 23.65L57.05 25.2L57 25.2L57.05 25.55L57.65 30.1L61.55 26.35L60.1 29.65L58.6 31.05L59.4 31.25L59.95 31.35L59.9 31.35L62.05 34L54.15 37.45L47.25 35.85L46.15 35.55L46.8 37L45.2 38.65L47.2 41L49.2 39.95Q51.05 41.6 53.3 42.25L53.4 44.7L56.6 44.9L56.95 43.85L58.05 45.9Q56.3 47.75 55.65 50.05L53.35 50.2L53.25 51.2L54.2 51.15L55.45 51.1L52.7 56.55L52.6 56.55L52.55 56.6L53.65 56.55L53.7 56.5L53.8 56.5L56.55 51L59.15 50.9L56.4 56.35L55.65 56.4L55.65 56.45L56.5 58.5L54.9 60.15L56.9 62.5L58.9 61.45L60.45 62.6L60.65 62.7L61.25 63.05L61.2 63.05L60 63.05L56.15 65.85L55.95 65.85L55.65 63.7L55.25 65.85L44.85 65.85M83.2,56.7Q81.8 55.9 80.05 55.9L78.75 56.1L80.05 62.25L80.05 56.65L80.15 56.65Q81.65 56.65 82.95 57.35L80.2 62.25L84.35 57.5L83.2 56.7M85.95,62.5Q85.95 64 85.25 65.3L80.2 62.55L85.05 66.6L85.75 65.55Q86.6 64.15 86.6 62.4L86.45 61.2L80.6 62.4L85.95 62.4L85.95 62.5M70.7,32.95L75.8 31.85L75.9 32.7L75.5 32.75L70.65 35.1L70.6 35.15L69.1 33.3L69.2 33.3L70.7 32.95M72.45,6.6Q72.05 6.6 71.95 6.75Q71.7 7.1 71.75 7.35L71.95 7.9L72 7.95Q72.05 8.1 72.45 8.15L72.9 7.95L72.95 7.9L73.1 7.5L72.9 6.85L72.45 6.6M46.2,0.35L45.7 0.4L45.2 0.7Q45.1 0.95 45.15 1.25L45.55 1.65L46.2 1.65L46.55 1.3L46.55 0.7L46.2 0.35M49.2,19.25L50.5 25.4L50.5 19.8L50.6 19.8Q52.1 19.8 53.4 20.5L50.65 25.4L54.8 20.65Q54.3 20.15 53.65 19.85Q52.25 19.05 50.5 19.05L49.2 19.25M44.8,22.4Q44 23.8 44 25.55L44.2 27.05L50.35 25.7L46.25 30.45L47.35 31.25Q48.75 32.1 50.5 32.1L51.9 31.95L50.6 25.7L50.5 25.7L50.5 31.45Q48.9 31.45 47.65 30.7L50.45 25.7L50.35 25.7L50.45 25.55L44.75 25.55Q44.75 24 45.45 22.75L50.5 25.55L50.5 25.5L45.65 21.3Q45.1 21.75 44.8 22.4M57.05,25.55L56.65 24.4L51.05 25.55L55.75 25.55L56.35 25.65L56.4 25.6L56.4 25.65Q56.4 27.15 55.7 28.45L50.65 25.7L55.5 29.75L56.2 28.7Q57.05 27.3 57.05 25.55M66.3,39.85L66 40.95L64.75 38.7L65.35 38L66.95 39.95L66.3 39.85M44.65,48.7Q42.7 46.9 40.1 46.7L39.25 46.65L38.95 46.65Q36.15 46.7 34.05 48.55L33.5 49.05L33.4 49.15Q31.3 51.3 31.15 54.25L31.1 54.8L31.1 55.05Q31.15 58.1 33.25 60.35L33.5 60.55L33.85 60.85Q36 62.85 39.1 62.95L39.25 62.95L39.95 62.95Q42.75 62.65 44.85 60.7L45 60.55L45.55 60L46.75 58.1L45.75 58.25L45.15 59.2L44.6 58.15Q43.6 57.9 42.9 57.2L42.4 56.55L41.9 57.1Q40.9 58.1 39.6 58.1Q38.25 58.1 37.25 57.1Q36.3 56.1 36.3 54.8Q36.3 53.45 37.25 52.45Q38.25 51.5 39.6 51.5Q40.9 51.5 41.9 52.45L42.25 52.85L42.9 52L43.05 51.85L42.8 51.55L42.2 51L44.15 49.95L43.2 51.75Q43.85 51.2 44.65 51.05L45 50.3L45.5 50.95L46.5 51.1L45.4 49.5L45 49.05L44.65 48.7M58.9,42.4L57 43.7L57.35 42.6L58.9 42.4M71.9,29.9L71.4 29.75L70.85 29.9L70.6 30.4Q70.6 30.75 70.85 30.85L71.4 31.1L71.9 30.85L72.1 30.4L71.9 29.9M74.75,30.4L75 29.9L74.75 29.4L74.3 29.25L73.7 29.4L73.5 29.9L73.7 30.4L74.3 30.6Q74.55 30.6 74.75 30.4M63,42.8Q62.05 43.05 61.15 43.5L59.7 42.15L61.45 41.45L63 42.8M64.35,42.55L65.95 41.05L65.55 42.4L64.35 42.55M33.75,2.6L33.3 3L33.35 3.55Q33.5 3.9 33.8 3.9L34.45 3.75L34.7 3.35L34.65 2.85L34.25 2.5L33.75 2.6M33.3,5.55Q33.2 5.85 33.4 6.15Q33.55 6.35 33.8 6.35L34.4 6.3L34.65 5.9L34.7 5.35L34.2 5.05L33.7 5.15L33.3 5.55M23.15,8L22.8 8.05Q22.65 8.05 22.65 8.25L22.4 9.05L21 10.8L20.8 10.55L20.25 10.5L19.7 10.7L19.55 11.3L19.8 11.65L20.1 11.75L18.9 13.25L18.85 13.35L15.55 17.2L15.9 20.55L16.7 21.2L16.4 21.35L16.3 21.9L15.25 21.9L13.05 24.55L13.55 29.45L13.55 29.55L13.35 30L13.45 30.1L13.6 30.45L13.7 32L13.35 31.95L12.8 32.15L12.7 32.7L12.95 33.1L13.55 33.25L13.85 33.1L14.05 35.5L7.5 33.5L6.75 31.45L14.2 6.7L16.05 5L23.9 7.35L23.25 8.05L23.15 8M20.15,19.9L20.25 19.65L23.9 15.3L23.9 21.25L20.15 19.9M21.15,9.15L21.65 8.85L21.75 8.4L21.45 7.9L20.95 7.8L20.45 8.1Q20.25 8.3 20.3 8.6L20.6 9L21.15 9.15M29.75,31.4L31.6 34L30.25 35.65L28 34.7L29.75 31.4M19.85,20.8L23.45 22L18.8 29.45L18.45 25.85L19.85 20.8M35.5,14.6L35.3 15.05L35.5 15.55L36.1 15.75L36.55 15.55L36.8 15.05L36.55 14.6L36.1 14.45L35.5 14.6M34.8,17.95Q35.1 17.95 35.3 17.75L35.5 17.25L35.3 16.75L34.8 16.6L34.25 16.75L34.05 17.25L34.25 17.75Q34.55 17.95 34.8 17.95M11.25,9.3L11.05 9.9L10.55 11.55L-3.5 7.2L-3.85 4.65L11.25 9.3M-7.7,17.3L-3.7 9.2L10.05 13.05L8.75 17.6L8.45 18.7L8.15 19.5L7.35 21.95L-0.35 19.5L6.8 23.5L5.35 28.2L-2.55 25.75L-0.6 19.45L-7.7 17.3M18.2,23.6L18.05 22.2L18.85 21.3L18.2 23.6M26.6,30.5L26.8 31L27.35 31.2L27.85 31L28.05 30.5L27.85 30.05L27.35 29.9L26.8 30.05L26.6 30.5M25.55,32.2L25.35 32.7L25.55 33.2L26.1 33.4L26.6 33.2L26.8 32.7L26.6 32.2L26.1 32.05L25.55 32.2M38.75,47.5L37.75 50.5L34.9 48.95Q36.5 47.65 38.75 47.5M36.35,51.55L35.95 52.1L34.75 49.95L36.9 51.05L36.35 51.55M39.6,50.2L38.75 50.3L39.5 47.9L40.2 50.3L39.6 50.2M32.8,54.65L35.1 53.95L35.05 54.8L35.1 55.4L32.85 54.7L32.8 54.65M35.4,52.9L32 53.95Q32.2 51.7 33.85 49.95L35.4 52.9M35.3,56.45L33.7 59.55Q32.1 57.65 31.95 55.35L35.3 56.35L35.3 56.45M37.9,59.05L38.8 62.1Q36.35 61.95 34.6 60.4L37.5 58.85L37.9 59.05M36.7,58.35L34.8 59.35L35.85 57.4L36.35 58L36.7 58.35M39.6,59.35L40.15 59.35L39.5 61.3L38.9 59.3L39.6 59.35M23.15,57.45Q24.5 58.2 25.25 59.45L20.4 62.35L26.4 60.3L25.85 59.05Q25 57.65 23.5 56.75Q22.9 56.4 22.25 56.3L20.3 62.3L23.1 57.4L23.15 57.45M26.4,64.55L20.75 62.7L25.35 65.35L25.3 65.4Q24.55 66.75 23.3 67.5L20.3 62.55L22.45 68.55L23.55 68Q25 67.15 25.9 65.65L26.4 64.55M20.3,62.35L18.2 56.3Q17.45 56.4 16.9 56.8Q15.45 57.65 14.6 59.15Q14.2 59.8 14.05 60.55L20.1 62.45L14.1 64.5L14.65 65.7Q15.5 67.2 17 68.05L18.25 68.65L20.25 62.55L20.2 62.5L17.3 67.5Q15.9 66.7 15.2 65.4L20.15 62.45L20.1 62.45L20.2 62.35L15.25 59.55Q16 58.2 17.25 57.45L20.25 62.4L20.3 62.35M74.35,59.25Q73.55 60.65 73.55 62.4L73.75 63.9L79.9 62.55L75.8 67.3L76.9 68.1Q78.3 68.95 80.05 68.95L81.45 68.8L80.15 62.55L80.05 62.55L80.05 68.3Q78.45 68.3 77.2 67.55L80 62.55L79.9 62.55L80 62.4L74.3 62.4Q74.3 60.85 75 59.6L80.05 62.4L80.05 62.35L75.2 58.15L74.35 59.25M61.3,56.1L64.05 50.6L64.45 50.6L66.7 50.5L66.7 50.65L64.05 55.95L61.3 56.1M65.75,55.9L65.15 55.9L66.8 52.55L67 55.8L65.75 55.9M62.95,50.7L60.2 56.15L57.55 56.3L60.3 50.8L62.95 50.7M61.65,63.25L63 63.75L63.05 64.25L62.35 63.75L61.65 63.25M51.65,51.3L48.9 56.75L48.85 56.75L48.8 56.8L49.9 56.75L49.95 56.7L50.05 56.7L52.8 51.2L51.65 51.3M47.9,51.8L47.85 51.8L48.5 52.75L49.15 51.4L48 51.5L47.9 51.8M47.35,52.8Q46.55 52 45.5 52Q44.55 52 43.85 52.6L43.6 52.8Q42.9 53.55 42.9 54.6L42.9 54.8Q42.95 55.75 43.6 56.5L43.8 56.7Q44.55 57.2 45.5 57.2L46.25 57.1L46.75 56.95L47.35 56.5Q48.1 55.7 48.1 54.6L47.95 53.7L47.35 52.8M47.15,53.15L47.75 54.2L47.75 54.6Q47.75 55.5 47.05 56.15L46.45 56.65L45.5 56.85L45.3 56.85Q44.55 56.75 44.05 56.25L43.95 56.15Q43.25 55.5 43.25 54.6Q43.25 53.6 43.95 53.05L44 53Q44.65 52.35 45.5 52.35Q46.5 52.35 47.05 53.05L47.15 53.15M42.8,58L43.25 57.6L44.15 59.35L42.4 58.45L42.8 58M41.55,58.95L44.15 60.35Q42.4 61.75 40.2 62L41.15 59.15L41.55 58.95M41.2,50.5L40.35 47.55Q42.25 47.85 43.85 49.1L41.2 50.5" />
<path style="fill:#BD8051;fill-opacity:1" d="M78.4,47.05L75.2 48.75L77.65 46.15L75.15 43.05L71.95 45.85L71.05 44.85L74.3 42L72 39.15L68.5 41.05L71.15 38.1L65.85 31.55L62.05 33.85L64.9 30.4L62.7 27.65L62.7 27.85L62.4 27.45L60.1 29.65L61.55 26.35L59.5 23.65L58.4 22.25L58.15 21.95L57.75 21.4L57.1 20.7L56.8 20.4Q54.25 18.1 50.8 18.1Q47.05 18.1 44.4 20.7L44.25 20.9L43.4 21.95L43 22.5L41.75 23.95L40.8 25.15L38.3 28.15L42.25 31.3L41.4 32.3L37.5 29.15L35.25 31.85L38.1 35.45L34.25 33.05L29.6 38.65L32.25 42.05L28.7 39.75L26.2 42.75L29.95 45.8L29.1 46.8L25.35 43.8L23.05 46.55L25.8 49.95L22.15 47.65L19.75 50.55L20 50.55L18.9 51.75Q8.95 63.1 14.2 67.4Q18.9 71.15 27 70.7L27.15 70.6L27.4 70.35L32.9 70.35L33.95 65.85L34.4 63.65L34.7 65.85L34.7 65.95L35.2 70.35L38.8 70.35L38.75 64.15L39.25 64.15L39.45 64.15L39.6 64.15L40.1 64.15L40.15 70.35L43.2 70.35L44.15 65.85L44.55 63.6L44.85 65.85L45.45 70.35L54.3 70.35L55.25 65.85L55.65 63.7L55.95 65.85L56.55 70.35L60.15 70.35L60 63.05L61.2 63.05L61.35 63.15L61.5 70.35L72.35 70.35L72.5 70.55L73.55 70.65Q82.1 71.35 87 67.4Q92.25 63.1 82.4 51.9L82.25 51.85L78.4 47.05M73.25,71.75L72 71.75L71.95 71.65L68.4 71.65L52.75 71.65L47.05 71.65L31.4 71.65L29.3 71.65L29.2 71.75L26.3 71.7L25.6 71.7L25.55 71.7Q15.6 71.25 13.15 68Q9.05 62.5 14.9 54.55L42.3 21.05L42.35 21L43.4 19.7L43.7 19.45Q46.7 16.7 50.8 16.7Q55.05 16.7 58.1 19.7L59.5 21.4L60.75 22.85L60.75 22.9L61.25 23.5L61.35 23.6L62.55 25.1L62.55 25.2L62.65 25.3L62.7 25.25L63.55 26.3L63.5 26.35L65.85 29.25L65.9 29.2L67.15 30.75L67.1 30.8L68.55 32.6L68.6 32.6L69.2 33.3L69.1 33.3L70.6 35.15L81.1 48.2L83.05 50.6L85.1 52.85Q92.55 61.95 88.05 68Q85.55 71.35 75 71.7L73.25 71.75M84.35,57.5L80.2 62.25L82.95 57.35Q81.65 56.65 80.15 56.65L80.05 56.65L80.05 62.25L78.75 56.1L80.05 55.9Q81.8 55.9 83.2 56.7L84.35 57.5M85.95,62.4L80.6 62.4L86.45 61.2L86.6 62.4Q86.6 64.15 85.75 65.55L85.05 66.6L80.2 62.55L85.25 65.3Q85.95 64 85.95 62.5L85.95 62.4M50.5,19.05Q52.25 19.05 53.65 19.85Q54.3 20.15 54.8 20.65L50.65 25.4L53.4 20.5Q52.1 19.8 50.6 19.8L50.5 19.8L50.5 25.4L49.2 19.25L50.5 19.05M45.65,21.3L50.5 25.5L50.5 25.55L45.45 22.75Q44.75 24 44.75 25.55L50.45 25.55L50.35 25.7L50.45 25.7L47.65 30.7Q48.9 31.45 50.5 31.45L50.5 25.7L50.6 25.7L51.9 31.95L50.5 32.1Q48.75 32.1 47.35 31.25L46.25 30.45L50.35 25.7L44.2 27.05L44 25.55Q44 23.8 44.8 22.4Q45.1 21.75 45.65 21.3M56.2,28.7L55.5 29.75L50.65 25.7L55.7 28.45Q56.4 27.15 56.4 25.65L56.4 25.6L56.35 25.65L55.75 25.55L51.05 25.55L56.65 24.4L57.05 25.55Q57.05 27.3 56.2 28.7M14.2,6.7L6.75 31.45L5.35 28.2L6.8 23.5L-0.35 19.5L7.35 21.95L8.15 19.5L8.45 18.7L8.75 17.6L10.05 13.05L-3.7 9.2L-7.7 17.3L-3.85 4.65L-3.5 7.2L10.55 11.55L11.05 9.9L11.25 9.3L14.2 6.7M23.1,57.4L20.3 62.3L22.25 56.3Q22.9 56.4 23.5 56.75Q25 57.65 25.85 59.05L26.4 60.3L20.4 62.35L25.25 59.45Q24.5 58.2 23.15 57.45L23.1 57.4M25.9,65.65Q25 67.15 23.55 68L22.45 68.55L20.3 62.55L23.3 67.5Q24.55 66.75 25.3 65.4L25.35 65.35L20.75 62.7L26.4 64.55L25.9 65.65M20.25,62.4L17.25 57.45Q16 58.2 15.25 59.55L20.2 62.35L20.1 62.45L20.15 62.45L15.2 65.4Q15.9 66.7 17.3 67.5L20.2 62.5L20.25 62.55L18.25 68.65L17 68.05Q15.5 67.2 14.65 65.7L14.1 64.5L20.1 62.45L14.05 60.55Q14.2 59.8 14.6 59.15Q15.45 57.65 16.9 56.8Q17.45 56.4 18.2 56.3L20.3 62.35L20.25 62.4M75.2,58.15L80.05 62.35L80.05 62.4L75 59.6Q74.3 60.85 74.3 62.4L80 62.4L79.9 62.55L80 62.55L77.2 67.55Q78.45 68.3 80.05 68.3L80.05 62.55L80.15 62.55L81.45 68.8L80.05 68.95Q78.3 68.95 76.9 68.1L75.8 67.3L79.9 62.55L73.75 63.9L73.55 62.4Q73.55 60.65 74.35 59.25L75.2 58.15M65.75,55.9L67 55.8L66.2 55.9L65.75 55.9M65.3,66.35L66.25 66.45L66.8 70.25L64.55 70.3L65.3 66.35" />
<path style="fill:#604129;fill-opacity:1" d="M61.35,63.15L61.2 63.05L61.25 63.05L60.65 62.7L60.45 62.6L58.9 61.45L56.9 62.5L54.9 60.15L56.5 58.5L55.65 56.45L55.65 56.4L56.4 56.35L59.15 50.9L60.3 50.8L57.55 56.3L56.6 56.35L56.6 56.4L57.3 58L57.4 58.55L57.15 59.05L56.15 60.2L57.1 61.35L58.5 60.65L59.05 60.55L59.55 60.75Q61.2 62.25 63.2 62.85L63.65 63.15L63.9 63.65L64 65.35L65.7 65.45L66.2 63.85Q66.25 63.55 66.45 63.4L66.95 63.2L69.5 62.7L69.6 62.65L69.6 63.5L69.6 63.6L67.05 64.1L66.5 65.85L66.3 66.4L66.25 66.4L66.25 66.45L65.3 66.35L63.1 66.2L63.05 64.25L63 63.75L61.65 63.25L61.35 63.15M76.05,52.45L75.8 50.8L76.5 51.65L77 52.3L76.1 52.6L76.05 52.45M66.95,39.95L67.15 40L68.05 41.1L66.95 40.9L66.4 42.7L66.1 43.15L65.6 43.35Q63.4 43.35 61.55 44.35L61.05 44.45Q60.75 44.4 60.55 44.2L59.4 43.15L58.1 44.05L58.8 45.45L58.95 46L58.7 46.5Q57.1 48.2 56.5 50.35L56.2 50.8L55.7 50.95L54.2 51.05L54.2 51.15L53.25 51.2L53.35 50.2L55.65 50.05Q56.3 47.75 58.05 45.9L56.95 43.85L56.6 44.9L53.4 44.7L53.3 42.25Q51.05 41.6 49.2 39.95L47.2 41L45.2 38.65L46.8 37L46.15 35.55L47.25 35.85L47.6 36.5L47.7 37.05L47.45 37.55L46.45 38.7L47.4 39.85L48.8 39.15L49.35 39.05L49.85 39.25Q51.5 40.75 53.5 41.35Q53.8 41.4 53.95 41.65L54.2 42.15L54.3 43.85L56 43.95L56.5 42.35Q56.55 42.05 56.75 41.9L57.25 41.7Q59.25 41.55 61 40.65L61.55 40.55L62.05 40.75L63.5 42L64.85 40.8L64 39.15L63.85 38.6L64.1 38.1L64.75 37.3L64.85 37.1L65.45 37.85L65.35 38L64.75 38.7L66 40.95L66.3 39.85L66.95 39.95M70.45,44.25Q69.9 43.95 69.35 43.8Q69.05 43.7 68.95 43.45L68.75 42.95L68.7 41.95L70.65 44.35L70.45 44.25M45,49.05L45.4 49.5L46.5 51.1L45.5 50.95L45 50.3L44.65 51.05Q43.85 51.2 43.2 51.75L44.15 49.95L42.2 51L42.8 51.55L43.05 51.85L42.9 52L42.25 52.85L41.9 52.45Q40.9 51.5 39.6 51.5Q38.25 51.5 37.25 52.45Q36.3 53.45 36.3 54.8Q36.3 56.1 37.25 57.1Q38.25 58.1 39.6 58.1Q40.9 58.1 41.9 57.1L42.4 56.55L42.9 57.2Q43.6 57.9 44.6 58.15L45.15 59.2L45.75 58.25L46.75 58.1L45.55 60L45 60.55L44.85 60.7Q42.75 62.65 39.95 62.95L39.25 62.95L39.1 62.95Q36 62.85 33.85 60.85L33.5 60.55L33.25 60.35Q31.15 58.1 31.1 55.05L31.1 54.8L31.15 54.25Q31.3 51.3 33.4 49.15L33.5 49.05L34.05 48.55Q36.15 46.7 38.95 46.65L39.25 46.65L40.1 46.7Q42.7 46.9 44.65 48.7L45 49.05M57.35,42.6L57 43.7L58.9 42.4L57.35 42.6M61.45,41.45L59.7 42.15L61.15 43.5Q62.05 43.05 63 42.8L61.45 41.45M65.55,42.4L65.95 41.05L64.35 42.55L65.55 42.4M34.9,48.95L37.75 50.5L38.75 47.5Q36.5 47.65 34.9 48.95M36.9,51.05L34.75 49.95L35.95 52.1L36.35 51.55L36.9 51.05M40.2,50.3L39.5 47.9L38.75 50.3L39.6 50.2L40.2 50.3M32.85,54.7L35.1 55.4L35.05 54.8L35.1 53.95L32.8 54.65L32.85 54.7M33.85,49.95Q32.2 51.7 32 53.95L35.4 52.9L33.85 49.95M35.3,56.35L31.95 55.35Q32.1 57.65 33.7 59.55L35.3 56.45L35.3 56.35M37.5,58.85L34.6 60.4Q36.35 61.95 38.8 62.1L37.9 59.05L37.5 58.85M36.35,58L35.85 57.4L34.8 59.35L36.7 58.35L36.35 58M38.9,59.3L39.5 61.3L40.15 59.35L39.6 59.35L38.9 59.3M66.2,50.05Q67.4 50.05 68.25 50.9Q69.1 51.75 69.1 53Q69.1 54.2 68.25 55.05Q67.7 55.6 67 55.8L66.8 52.55L65.15 55.9L64.05 55.95L66.7 50.65L66.7 50.5L64.45 50.6Q65.2 50.05 66.2 50.05M60.2,56.15L62.95 50.7L64.05 50.6L61.3 56.1L60.2 56.15M52.8,51.2L50.05 56.7L49.95 56.7L49.9 56.75L48.8 56.8L48.85 56.75L48.9 56.75L51.65 51.3L52.8 51.2M55.45,51.1L56.55 51L53.8 56.5L53.7 56.5L53.65 56.55L52.55 56.6L52.6 56.55L52.7 56.55L55.45 51.1M48,51.5L49.15 51.4L48.5 52.75L47.85 51.8L47.9 51.8L48 51.5M47.95,53.7L48.1 54.6Q48.1 55.7 47.35 56.5L46.75 56.95L46.25 57.1L45.5 57.2Q44.55 57.2 43.8 56.7L43.6 56.5Q42.95 55.75 42.9 54.8L42.9 54.6Q42.9 53.55 43.6 52.8L43.85 52.6Q44.55 52 45.5 52Q46.55 52 47.35 52.8L47.95 53.7M47.05,53.05Q46.5 52.35 45.5 52.35Q44.65 52.35 44 53L43.95 53.05Q43.25 53.6 43.25 54.6Q43.25 55.5 43.95 56.15L44.05 56.25Q44.55 56.75 45.3 56.85L45.5 56.85L46.45 56.65L47.05 56.15Q47.75 55.5 47.75 54.6L47.75 54.2L47.15 53.15L47.05 53.05M42.4,58.45L44.15 59.35L43.25 57.6L42.8 58L42.4 58.45M41.15,59.15L40.2 62Q42.4 61.75 44.15 60.35L41.55 58.95L41.15 59.15M43.85,49.1Q42.25 47.85 40.35 47.55L41.2 50.5L43.85 49.1" />
<path style="fill:#0E0E0E;fill-opacity:1" d="M60.3,50.8L59.15 50.9L56.55 51L55.45 51.1L54.2 51.15L54.2 51.05L55.7 50.95L56.2 50.8L56.5 50.35Q57.1 48.2 58.7 46.5L58.95 46L58.8 45.45L58.1 44.05L59.4 43.15L60.55 44.2Q60.75 44.4 61.05 44.45L61.55 44.35Q63.4 43.35 65.6 43.35L66.1 43.15L66.4 42.7L66.95 40.9L68.05 41.1L68.65 41.2L68.7 41.95L68.75 42.95L68.95 43.45Q69.05 43.7 69.35 43.8Q69.9 43.95 70.45 44.25L70.65 44.35L71.05 44.85L75.8 50.8L76.05 52.45L76.1 52.6L69.9 54.6L69.5 60.9L69.55 61.5L69.55 61.95L69.6 62.65L69.5 62.7L66.95 63.2L66.45 63.4Q66.25 63.55 66.2 63.85L65.7 65.45L64 65.35L63.9 63.65L63.65 63.15L63.2 62.85Q61.2 62.25 59.55 60.75L59.05 60.55L58.5 60.65L57.1 61.35L56.15 60.2L57.15 59.05L57.4 58.55L57.3 58L56.6 56.4L56.6 56.35L57.55 56.3L60.2 56.15L61.3 56.1L64.05 55.95L65.15 55.9L65.75 55.9L66.2 55.9L67 55.8Q67.7 55.6 68.25 55.05Q69.1 54.2 69.1 53Q69.1 51.75 68.25 50.9Q67.4 50.05 66.2 50.05Q65.2 50.05 64.45 50.6L64.05 50.6L62.95 50.7L60.3 50.8M54.15,37.45L62.05 34L62.25 33.9L64.85 37.1L64.75 37.3L64.1 38.1L63.85 38.6L64 39.15L64.85 40.8L63.5 42L62.05 40.75L61.55 40.55L61 40.65Q59.25 41.55 57.25 41.7L56.75 41.9Q56.55 42.05 56.5 42.35L56 43.95L54.3 43.85L54.2 42.15L53.95 41.65Q53.8 41.4 53.5 41.35Q51.5 40.75 49.85 39.25L49.35 39.05L48.8 39.15L47.4 39.85L46.45 38.7L47.45 37.55L47.7 37.05L47.6 36.5L47.25 35.85L54.15 37.45" />
</g>
</svg>
