<?xml version="1.0" encoding="utf-8"?>
<svg version="1.1" id="Layer_1"
xmlns="http://www.w3.org/2000/svg"
xmlns:xlink="http://www.w3.org/1999/xlink"
width="67px" height="22px"
xml:space="preserve">
<g id="1238" transform="matrix(1, 0, 0, 1, 40, 9.25)">
<path style="fill:#C9EBFF;fill-opacity:0.988235" d="M17.45,-7.8L18.35 -8.5Q19.2 -8.9 20.1 -7.55L20.2 -6.55L20.2 -5.55Q20.75 -3.85 22.45 -3.15Q23.9 -2.55 23.9 -1.8L23.6 -1.05L23.75 -0.85L24.1 -1.05L25.2 -0.95Q25.85 -0.15 26.45 0.2L25.85 0.7Q24.95 0.7 24.9 -0.05Q24.85 -0.85 24.5 -0.85Q24.15 -0.85 23.9 -0.55Q23.9 -0.05 23.5 -0.05Q23.05 -0.05 22.75 -0.55L22.5 -1.05L22.7 -1.4L22.9 -1.85L21.65 -2.7Q20.4 -3.2 20.4 -4.35L20.05 -4.85Q19.65 -5.25 19.65 -6.15L19.45 -7.05L19.05 -7.8L18.35 -7.75Q17.85 -7.4 17.45 -7.35L16.9 -7.4Q16.4 -7.4 15.65 -6.8L14.95 -6.1Q14.95 -5.9 15.3 -5.2L15.65 -4.4L15.4 -2.55L15.65 -1.95L15.85 -1.5Q15.85 -1.05 15.45 -0.75Q15 -0.4 14.4 -0.4L13.65 -0.6L14.5 -0.9Q15.25 -1.15 15.4 -1.5L14.95 -2L14.9 -2.45L15.15 -4.45L14.85 -5.25L14.55 -6.15Q14.55 -6.85 15.55 -7.35L17.45 -7.8M20.3,-1.15L20.25 -1.25Q20.85 -2.85 22.9 0.1L22.75 0.35L22.45 0.5Q21.5 0.5 21.1 -0.35Q20.75 -1.2 20.3 -1.15M25.45,3.5Q25.25 4.35 24.7 4.35L24.65 4.35L24.65 4.4L24.5 4.65L24.15 4.8Q23.75 4.6 23.25 4.55L23.15 4.65L22.95 4.8L22.65 5.55L22.45 6.9L22.7 7.85Q22.7 8.55 21.6 9.5Q20.35 10.55 18.95 10.55Q18.3 10.55 17.85 9.8L17.35 8.95L16.1 8.2Q15.6 7.85 15.6 7.55Q15.6 7.35 15.95 6.9L16.15 6.9L16.05 7.3Q16.05 7.65 16.8 8.1L17.85 8.55L18.35 9.3Q18.6 9.8 19.05 9.8Q21 9.8 21.55 8.65L21.75 6.85Q21.75 6.35 22.05 5.7L22.45 4.6L22.35 4.4Q22.1 4 21.6 4Q20.9 4 20.45 4.95L19.55 6.25L19.35 6.2L19.3 6.05L19.65 5.6L20.1 4.8L20.1 4.25Q20.05 3.95 20.4 3.7Q21.35 3 22.35 3.35L23 3.7L23.6 3.55Q24.25 3.5 24.5 3.85L25.05 2.6Q25.35 1.8 26.65 1.85Q25.75 2.45 25.45 3.5" />
<path style="fill:#C9EBFF;fill-opacity:0.988235" d="M-33.8,-7.4L-33.6 -7.15L-33.65 -6.95L-34.7 -6.4L-35.1 -5.95L-34.25 -5.7L-33.95 -5.35L-34.1 -4.75L-34.4 -4.65L-34.25 -4.95Q-34.25 -5.35 -34.8 -5.5L-35.35 -5.85Q-35.35 -6.35 -34.2 -7L-34.05 -7.1L-34.25 -7.25L-34.05 -7.45L-33.8 -7.4M-36.75,-6.3L-37.2 -5.7L-37.25 -5.4L-37.45 -5.2L-37.8 -5.2L-38 -5.25L-38.1 -5.2L-38.1 -5L-38.25 -3.85Q-38.25 -3.3 -37.8 -2.9L-37.35 -2.55L-37.4 -2.4L-37.55 -2.3Q-38.25 -2.2 -38.45 -3.75L-38.35 -4.55L-38.45 -4.75L-38.4 -5.05L-38.5 -5.05L-38.7 -4.95L-38.8 -4.45L-38.65 -4.05L-39.05 -3.5Q-39.45 -3.25 -39.45 -2.75L-39.2 -2.15L-38.95 -1.75L-39.15 -1.3L-39.45 -0.9L-39.4 -0.75L-39.3 -0.7L-39.4 -0.65Q-39.6 -0.6 -39.55 -0.9L-39.1 -1.7L-39.45 -2.2L-39.65 -2.75Q-39.65 -3.45 -38.9 -4L-39.05 -4.4Q-39.05 -5.15 -38.55 -5.25L-38.25 -5.3L-38.1 -5.5L-37.5 -5.5L-37.3 -5.95L-36.85 -6.4L-36.75 -6.3M-28.5,-6.7L-28 -7.5Q-27.5 -8 -26.9 -8.3L-27.45 -8.55L-27.9 -9L-27.2 -9.25Q-27.2 -8.7 -26.75 -8.65L-26.3 -8.5Q-26.3 -8.2 -26.85 -7.85Q-27.75 -7.4 -28.15 -6.85L-27.8 -6.7L-28.3 -6.5L-28.5 -6.7M-37.45,9.05Q-38.15 8.9 -38.2 9.05L-38.25 9.45L-38.75 9.45L-39.25 8.55L-40 7.85L-39.8 7.2Q-39.65 6.85 -39.3 6.85L-39.65 7.35L-39.7 7.8L-39.4 8.15Q-39.05 8.3 -39.05 8.5L-38.85 8.75L-38.7 9.2L-38.4 9.2L-38.3 8.9L-37.6 8.7L-37.25 8.8Q-37 8.95 -37.05 9.2L-37.45 9.05M-35.55,9.15L-36 9.9L-36.4 10.5L-36.1 11L-35.7 11.35L-35 11.25L-34.25 11.2Q-33.9 11.25 -33.7 11.55L-33.3 12L-33.3 12.15L-33.55 12.2L-34 11.85L-34.3 11.5L-35.45 11.65Q-36.45 11.4 -36.6 10.4L-36.1 9.6L-35.6 9.05L-35.55 9.15" />
</g>
</svg>
