<?xml version="1.0" encoding="utf-8"?>
<svg version="1.1" id="Layer_1"
xmlns="http://www.w3.org/2000/svg"
xmlns:xlink="http://www.w3.org/1999/xlink"
width="15px" height="16px"
xml:space="preserve">
<g id="1197" transform="matrix(1, 0, 0, 1, 12.1, -3.55)">
<path style="fill:#A6A6A6;fill-opacity:0.694118" d="M1.75,5.25L-0.65 5.65Q-2 5.65 -2.5 5.2L-2.7 4.75Q-2.7 3.6 -0.2 3.55Q2.3 3.55 2.3 4.6Q2.3 4.95 1.75 5.25M-9.9,11.8L-10.1 11.25Q-10.1 10.1 -8.1 10.2Q-6.1 10.35 -6.1 11.2L-6.5 11.75Q-7 12.15 -7.8 12.15L-9.9 11.8M-0.1,9.45Q0.95 9.1 0.95 10.3Q0.95 10.8 -0.45 10.8Q-1.25 10.8 -1.15 10.25Q-1.15 9.8 -0.1 9.45M-11.9,15.4Q-11.9 14 -9.8 14.05Q-7.75 14.15 -7.75 15.25L-8.25 16.1Q-8.95 16.8 -10.05 16.8Q-10.6 16.8 -11.3 16.2L-11.9 15.4M-10.35,17.65L-10.2 18.05Q-10.2 18.9 -11.35 18.9Q-12.3 18.9 -12.05 18.1Q-12.05 17.25 -11.25 17.25Q-10.6 17.25 -10.35 17.65M-1.8,13.8Q-1.8 14.15 -2.3 14.5Q-2.9 14.9 -3.7 14.9Q-4.9 14.9 -4.8 13.95Q-4.8 12.6 -3.75 13.1L-2.1 13.35Q-1.8 13.55 -1.8 13.8M-3.7,13.95L-3.2 13.95L-3.7 13.95" />
</g>
</svg>
