<?xml version="1.0" encoding="utf-8"?>
<svg version="1.1" id="Layer_1"
xmlns="http://www.w3.org/2000/svg"
xmlns:xlink="http://www.w3.org/1999/xlink"
width="29px" height="21px"
xml:space="preserve">
<g id="853" transform="matrix(1, 0, 0, 1, 0, 0)">
<path style="fill:#0B0B0B;fill-opacity:1" d="M26.7,20.9L5.85 6.9L3.05 6.85L0 2.65L1.95 0L7 2.15L7.55 4.55L28.75 18.55L26.7 20.9M27.5,18.9L7.3 5.3L6.95 5.6L27 19.4L27.5 18.9M1.85,1.1L1.4 1.9L4 3.95L3.25 6L6.05 2.65L4.8 2.95L1.85 1.1" />
<path style="fill:#BD8051;fill-opacity:1" d="M27,19.4L6.95 5.6L7.3 5.3L27.5 18.9L27 19.4M4.8,2.95L6.05 2.65L3.25 6L4 3.95L1.4 1.9L1.85 1.1L4.8 2.95" />
</g>
</svg>
