<?xml version="1.0" encoding="utf-8"?>
<svg version="1.1" id="Layer_1"
xmlns="http://www.w3.org/2000/svg"
xmlns:xlink="http://www.w3.org/1999/xlink"
width="122px" height="15px"
xml:space="preserve">
<g id="312" transform="matrix(1, 0, 0, 1, -3.2, -19.75)">
<path style="fill:#E9B669;fill-opacity:1" d="M121.8,30.55L122.7 34L119.8 31.9L116.8 33.85L117.9 30.45L115.1 28.15L118.7 28.15L120 24.8L121.1 28.25L124.7 28.4L121.8 30.55M104.6,30.55L100.25 33.4L101.85 28.45L97.8 25.15L103 25.15L104.9 20.3L106.5 25.25L111.7 25.5L107.5 28.6L108.85 33.65L104.6 30.55M30.1,24.6L26.05 27.9L27.65 32.85L23.3 30L19.05 33.1L20.4 28.05L16.2 24.95L21.4 24.7L23 19.75L24.9 24.6L30.1 24.6M8.1,31.35L5.2 33.45L6.1 30L3.2 27.85L6.8 27.7L7.9 24.25L9.2 27.6L12.8 27.6L10 29.9L11.1 33.3L8.1 31.35" />
</g>
</svg>
