<?xml version="1.0" encoding="utf-8"?>
<svg version="1.1" id="Layer_1"
xmlns="http://www.w3.org/2000/svg"
xmlns:xlink="http://www.w3.org/1999/xlink"
width="37px" height="7px"
xml:space="preserve">
<g id="737" transform="matrix(1, 0, 0, 1, 28.05, -14.4)">
<path style="fill:#000000;fill-opacity:1" d="M2.55,19.2L3.05 19.35Q6.1 19.05 8.75 20.15L8.75 20.2L8.75 20.45L8.75 20.7L8.75 20.9L8.7 20.95Q5.85 21.3 3 21L0.75 20.95L0.05 20.75Q-1.35 19.65 -3.3 19.8L-5 20.1Q-6.2 20.45 -7.15 20.1L-7.15 20.05L-7.05 19.95L-6.95 19.9L-6.85 19.9L-6.85 19.85L-6.8 19.75Q-6.5 18.6 -5.5 18Q-4.55 17.35 -3.25 17.7L-2.95 17.8L-0.4 18.7L0.05 18.75Q1.45 18.3 2.55 19.2M-10.55,15.7L-10.55 15.75L-10.1 15.9L-9.75 16.15L-9.7 16.2L-9.7 16.25L-9.65 16.9L-9.7 17.25Q-8.15 17.45 -7.8 18.75Q-7.35 20.25 -8.95 20.6L-17.75 20.95L-18 20.75L-18.05 20.55L-18.5 20.55L-21.75 19.9L-21.9 19.75L-21.95 19.6Q-21.8 18.75 -21.3 18.25L-23.35 18.4L-23.35 18.15Q-23 16.65 -21.75 15.8Q-20.55 14.9 -18.95 15.1L-18.9 15.1L-18.6 15.15L-18.5 15.25L-18.4 15.3L-18.55 15.65Q-19.05 16.65 -19.8 17.3L-19.7 17.25L-16.25 16.9L-15.75 17.05L-15.15 17.2Q-14 16.2 -12.35 16.05L-11.85 16.2L-11.6 15.95Q-11.15 15.55 -10.55 15.7M-25.85,14.5L-25.65 14.4Q-25.1 16.1 -26.75 17.45Q-27.6 18.15 -27.85 17.15L-27.95 16.65Q-28.25 16 -27.7 15.35Q-27 14.5 -25.95 14.45L-25.85 14.5" />
</g>
</svg>
