<?xml version="1.0" encoding="utf-8"?>
<svg version="1.1" id="Layer_1"
xmlns="http://www.w3.org/2000/svg"
xmlns:xlink="http://www.w3.org/1999/xlink"
width="15px" height="23px"
xml:space="preserve">
<g id="552" transform="matrix(1, 0, 0, 1, -0.2, -2.3)">
<path style="fill:#000000;fill-opacity:1" d="M11.65,2.85L12 3.65L12.05 5.05L12.25 5.5L13.55 5.05L14.05 4.75L14.55 4.95L14.65 5.45L12.35 6.25L11.9 6.55L11.7 7.05L11.85 7.65L12.7 7.45Q13.35 7.1 14.15 7.05Q14.85 6.9 15.15 7.35L14.5 7.75L14.1 8.25L14.1 8.65L12.8 10.6L12.9 11.05L12.9 11.25L13.2 11.4L13.3 11.55L14.3 12.55L14.2 13.4L13.35 14.5L13.05 14.75L12.65 15L12.65 15.8L12.4 16.25L11.75 16.85L10.75 16.8L11.6 19.05L10.85 19.75L11.15 20.45Q11.2 20.7 11.55 20.35L12.35 20.9L13.8 21.55Q14.75 22.05 14.7 22.9L14.25 23.65L13.8 23.9L13 25.05L10.2 24.95L10.35 24L11 23.55L10.35 23.3L10.15 23.05L8.75 22.75L8.25 22.45Q7.65 22.2 8.1 21.95L7.5 19.35L7.05 19.55L6.75 20.4Q7 21.1 6.65 21.85L6.35 22.55L6.1 23.25L6.1 23.3L5.7 23.85L5.4 24.2L4.8 25.3L1.35 24.65L1 24.55L0.75 24.3L0.2 24.05L0.85 23.1L2.2 22.55L3.5 22.85L4.2 20.05L3.3 18.2L4.2 18.4L6.1 16.75L6.1 16.55L5.2 16.5L5.35 14.85L6.05 14.7L6.4 14.55L6.9 13L6.6 12.45L7 10.25L6.8 9.65L7.1 9.4L8 8.4L8.2 8.3L7.8 8.2L7.05 7.6L6.7 6.95L6.7 6.05L6.35 5.65L6.55 5.05L6.85 4.75L7.2 4.1L9.1 2.8L9.7 2.55L10.85 2.3L11.65 2.85M14.45,7.35L11.95 7.9L12.45 9.7L13.45 8.2L14.35 7.7L14.45 7.35M14.75,7.4L14.85 7.25L14.7 7.25L14.75 7.4" />
</g>
</svg>
