<?xml version="1.0" encoding="utf-8"?>
<svg version="1.1" id="Layer_1"
xmlns="http://www.w3.org/2000/svg"
xmlns:xlink="http://www.w3.org/1999/xlink"
width="10px" height="5px"
xml:space="preserve">
<g id="920" transform="matrix(1, 0, 0, 1, 1.2, 0.4)">
<path style="fill:#100806;fill-opacity:1" d="M7.55,2.1Q7 2.8 6 2.8Q4.55 2.8 4.1 2.25Q3.85 1.95 3.85 1.2Q3.85 -0.1 5.9 -0.35Q7.95 -0.65 7.95 0.85Q7.95 1.55 7.55 2.1M1.75,2.4L2 3.1L1.8 3.8Q1.5 4.25 1 4.25Q0.05 4.25 -1.2 2.7L-1.15 2.45L-0.6 2.5L-0.3 2.3Q0.1 1.45 1.1 1.7L1.75 2.4" />
</g>
</svg>
