<?xml version="1.0" encoding="utf-8"?>
<svg version="1.1" id="Layer_1"
xmlns="http://www.w3.org/2000/svg"
xmlns:xlink="http://www.w3.org/1999/xlink"
width="18px" height="26px"
xml:space="preserve">
<g id="745" transform="matrix(1, 0, 0, 1, -10.25, 6.15)">
<path style="fill:#000000;fill-opacity:1" d="M14.35,-4.7L14.3 -4.65L14.4 -4.6L14.35 -4.8L14.35 -4.7M14.15,-4.9L14.2 -5Q14.55 -5.65 15.15 -5.9L16.2 -6.15Q17.6 -6.25 18.2 -5.2L18.35 -4.95L18.75 -3.9Q18.9 -2.8 18.65 -1.8L18.6 -1.65L17.45 -1.7L16.75 -2.95L15.8 -3.2Q14.95 -3.4 14.25 -4.05Q13.95 -4.3 13.95 -4.75L14.15 -5.1L14.15 -4.9M10.6,-3.65L11.35 -3.55L11.55 -3.45L12.1 -1.05L12.5 2.2L12.45 3.25L12.4 3.25L12.35 3.3L11.3 3.45Q10.8 2.2 10.7 0.7L10.3 -2.8Q10.2 -3.4 10.5 -3.65L10.6 -3.65M15.25,-3.75L15.3 -3.75L16 -3.5L15.35 -3.75L15.25 -3.75M19.8,-2.8L20.3 -3.15L20.3 -3.2Q22.5 -2.75 21.1 -1Q20.45 -0.15 19.6 -1Q19.25 -1.4 19.35 -2L19.45 -2.35L19.5 -2.45L19.8 -2.8M21.35,0.05Q23.35 0.25 24.05 2Q24.65 3.7 24.9 5.45L24.85 5.6Q22.2 6 20.05 4.05Q19 3.05 18.85 1.7L19.15 1.25L20.65 0.35L21.35 0.05M21.55,11.4L22.5 10.45Q21.75 10.2 20.4 10.45L19.4 10.45L19.35 10.4L19.05 9.9L18.8 9.35L18.75 8.75Q20.45 7.7 22.4 7.15L24.8 6.6Q26.7 7.05 27.75 8.95Q28.45 10.25 27.05 11.3L24.25 13.05Q22.65 13.85 21.15 12.7L21.15 12.35Q21.2 11.8 21.55 11.4M23.4,7.25L23.3 7.3L23.45 7.25L23.4 7.25M22.75,15.2L24.5 17.1L24.7 17.35Q23.55 18.8 22.15 17.95L21.9 17.8L19.8 16.6Q19.1 16.15 18.95 15.5L18.95 15.55L18.95 15.65L18.95 15.7L18.95 15.75L19.35 16.85L19.55 18.45Q19.55 20.4 17.4 19.4Q16.8 19.15 16.95 18.4Q17.15 17.35 16.4 16.3L16.15 15.95L15.7 15.6L15.4 15.2L15.3 15.25L15.25 15.15L15.25 15.05L15.25 14.95L15.25 14.9L15.5 14.7L17.15 14.25Q18.15 14.6 18.7 15.4L18.9 15.05L18.95 15L18.95 14.9L19 14.9L19 14.95Q19.6 14.4 20.4 14.4Q21.85 14.2 22.75 15.2M17.05,2.1L17.1 2.25L14.55 2.35Q13.3 1.4 13.15 0L13.35 -0.2Q14.3 -0.3 15.4 0.4Q16.5 1.05 17.05 2.1M17.65,4.5L18.5 3.9Q19.45 4.25 19.7 4.75L19.85 4.7Q20.05 5.2 19.75 5.65L19 6.3L18.65 6.4L14.5 6.95L14.25 6.9Q13.8 5.15 16.4 4.9L17.65 4.5M17.5,7.85L17.9 7.95L18.2 9.3L18.1 11.75L18.15 12.9L18.05 12.95L15.9 12.75L15.9 12.55L16.05 11.35L16.1 10.2L16 10.4L16 10.9L15.75 11.15L15.75 10.5L16.1 8.75Q16.15 8.1 16.65 7.75L17.5 7.85" />
</g>
</svg>
