<?xml version="1.0" encoding="utf-8"?>
<svg version="1.1" id="Layer_1"
xmlns="http://www.w3.org/2000/svg"
xmlns:xlink="http://www.w3.org/1999/xlink"
width="42px" height="26px"
xml:space="preserve">
<g id="1242" transform="matrix(1, 0, 0, 1, 17.95, 21.65)">
<path style="fill:#1F0E05;fill-opacity:0.988235" d="M13.05,-18.15L20.75 -17.5L21.5 -17.7L11.6 -19.65L13.05 -18.15M10.6,-19.85L6.6 -20.65L9.15 -18.45L12.4 -18.2L10.6 -19.85M5.15,-20.95L2.4 -20.25L4.7 -18.85L8.45 -18.5L5.5 -20.85L5.15 -20.95M1.6,-20.1L-2 -19.25L0.5 -17.8L0.55 -17.7L3.8 -18.7L1.6 -20.1M0.65,-17.2L1.55 -13.45L2.55 -13.45L4.1 -18.25L0.65 -17.2M2.95,-12.9L1.1 -12.9L-0.2 -17.75L-3.35 -19.4L5.3 -21.5L23.1 -17.75L21 -17.1L4.65 -18.25L2.95 -12.9M1.55,-9.7L0.65 -5.95L4.1 -4.9L2.55 -9.7L1.55 -9.7M2.95,-10.25L4.65 -4.9L21 -6.1L23.1 -5.4L5.3 -1.7L-3.35 -3.75L-0.2 -5.4L1.1 -10.25L2.95 -10.25M0.5,-5.35L-2 -3.9L1.6 -3.05L3.8 -4.45L0.55 -5.45L0.5 -5.35M2.4,-2.9L5.15 -2.25L5.5 -2.3L8.45 -4.65L4.7 -4.3L2.4 -2.9M6.6,-2.5L10.6 -3.3L12.4 -5L9.15 -4.7L6.6 -2.5M11.6,-3.5L21.5 -5.45L20.75 -5.65L13.05 -5L11.6 -3.5" />
<path style="fill:#100806;fill-opacity:1" d="M-13.6,-9.5L-13.05 -10.1L-5.5 -5L-4.7 -1.8L-5.5 -0.6L-0.45 2.85L1.45 2.45L2.9 0.3L2.5 -1.85L-11.7 -11.4L-10.95 -12.2L3.7 -2.35L4.1 0.4L2.05 3.4L-0.55 3.9L-6.05 0.15L-9.3 0.75L-17.95 -5.2L-17.3 -5.8L-9.2 -0.5L-6.2 -1.05L-6.35 -1.1L-5.75 -2L-6.25 -4.5L-13.6 -9.5" />
<linearGradient
id="LinearGradID_450" gradientUnits="userSpaceOnUse" gradientTransform="matrix(0.0039978, -0.00592041, 0.0149994, 0.0101013, -10.4, -6.6)" spreadMethod ="pad" x1="-819.2" y1="0" x2="819.2" y2="0" >
<stop  offset="0" style="stop-color:#511A16;stop-opacity:1" />
<stop  offset="0.505882" style="stop-color:#6D4414;stop-opacity:1" />
<stop  offset="1" style="stop-color:#511A16;stop-opacity:1" />
</linearGradient>
<path style="fill:url(#LinearGradID_450) " d="M2.5,-1.85L2.9 0.3L1.45 2.45L-0.45 2.85L-5.5 -0.6L-4.7 -1.8L-5.5 -5L-13.05 -10.1L-11.7 -11.4L2.5 -1.85M-6.25,-4.5L-5.75 -2L-6.35 -1.1L-6.2 -1.05L-9.2 -0.5L-17.3 -5.8L-13.6 -9.5L-6.25 -4.5" />
<path style="fill:#8C8C8C;fill-opacity:1" d="M-12.2,-7.6L-14.2 -4.75L-15 -5.35L-12.95 -8.25L-12.2 -7.6M-10.4,-6.55L-12.4 -3.6L-13.2 -4.25L-11.25 -7.1L-10.4 -6.55M-14.15,-8.8L-16.15 -5.85L-16.95 -6.5L-14.95 -9.35L-14.15 -8.8M-11.4,-3.05L-9.4 -5.95L-8.6 -5.35L-10.6 -2.45L-11.4 -3.05M-9.65,-1.9L-7.65 -4.8L-6.8 -4.2L-8.8 -1.35L-9.65 -1.9" />
<path style="fill:#000000;fill-opacity:1" d="M-6.2,-21Q-5.7 -20.5 -5.35 -19.8L-5.65 -19.8L-6.05 -18.45Q-5.9 -18.35 -6.2 -18.15L-6.9 -18.2L-7.35 -17.55L-7.05 -17.25L-4.5 -17.35L-4.35 -16.7L-5.1 -16.35L-3.5 -16.4L-3.35 -15.75L-8.5 -15.9L-8.5 -15.85L-9.4 -14.6Q-7.85 -14.8 -6.55 -14Q-6.8 -13.05 -7.2 -12.15L-8 -11.05L-8.45 -10L-7.4 -9.4L-7.45 -9.4L-7.6 -9.15L-8.5 -8.9L-11.25 -9.1L-11.25 -9.35L-9.65 -11.85L-9.25 -12.6L-9.5 -12.75L-9.65 -12.85L-11.4 -9.25L-13.3 -9.45L-14.2 -17L-13.15 -17.1L-12.25 -14.15L-11.4 -14L-11.8 -14.45L-11.15 -16.65L-8.25 -18.45L-8.65 -18.8L-8.85 -19.7L-9.05 -19.7L-8.9 -20.4L-8.6 -21.05L-7.3 -21.65L-6.2 -21" />
</g>
</svg>
