<?xml version="1.0" encoding="utf-8"?>
<svg version="1.1" id="Layer_1"
xmlns="http://www.w3.org/2000/svg"
xmlns:xlink="http://www.w3.org/1999/xlink"
width="123px" height="96px"
xml:space="preserve">
<g id="395" transform="matrix(1, 0, 0, 1, 23.9, 39.6)">
<path style="fill:#333333;fill-opacity:0.901961" d="M48.65,11.4Q51.65 14.6 52.3 18.7Q52.5 20 53 21.2L54.2 24.15Q52.95 25.5 51 24.6Q49.35 23.85 48.4 22.3Q47.4 20.65 45.55 20.05L41.4 19.05L41.15 19.35L40.7 20L39.95 21.1L39.5 21.85L39.15 22.55L39.35 23.2Q39.8 24.85 39 26.3Q37.55 28.95 34.6 29.75L34.45 30.1L34.4 30.3L34.4 30.65L34.4 31.05L34.35 31.4L38.45 37.5Q40.5 40.4 40.15 44.15Q40.1 44.65 40.6 45.05Q44.75 48.4 46.9 52.9L46.55 53.15Q45.75 53.15 45 52.75L43.85 51.95L43.65 51.8Q38.9 55.15 33.75 51.65Q29.55 48.85 24.45 49.5L24.35 49.7L24.15 50.05L23.95 50.45L23.8 50.65L23.7 51.25L23.5 52.95L23.25 54.6L23.1 55.35L22.95 55.7L22.4 56.1Q21.2 55.75 20.25 54.6L19.15 53.05Q18.65 52.35 18.75 51.55L18.95 50.1L19.05 48.95Q14.9 48.75 11.75 51.6Q9.1 54 5.7 55.1L1.35 55.3Q2.1 54.05 3.15 53.05L5.3 50.9L7.7 48.65L8.05 48.35L6 47.9Q2.2 46.6 -1.55 47.55Q-6.25 48.7 -10.75 48.4L-10.65 47.75Q-9.9 46.15 -8.45 45.2Q-7.65 44.7 -6.85 44.35L-5.45 43.5L-2.25 41.3Q-1 40.55 0.5 40.5L2.55 40.7L3.75 40.85L8 41.35L11.35 41.65Q16.7 38.45 16.4 31.65Q16.2 27.7 17.4 23.9Q18.9 19.3 18.85 14.1Q18.8 9.9 19.45 5.8Q19.55 5.25 19.9 4.85L19.9 4.7L19.85 4.5L19.75 4.1L19.75 3.75L19.85 3.4L19.95 3Q21.05 3.5 20.85 5.2L20.75 7.75L20.8 10.55Q20.8 11.75 21.25 12.9L21.95 9.35Q22.45 7.35 22.4 5.25Q22.35 3.2 22.6 1.35Q22.9 -0.85 24.15 -2.35Q26.4 2 27.15 7.45L27.4 8.65Q28.65 13.4 29.05 18.2Q29.25 17.9 29.55 17.8L30.1 17.9L32.5 18.15Q33.3 18.25 33.65 18.95Q33.95 18.65 34.4 18.55Q35.15 18.4 35.75 17.95L37.2 17.1L37.45 17L37.7 17L37.8 16.85L37.95 16.7Q37.9 16.05 37.3 15.65L36.95 15.45L35.75 14.9Q34.7 14.2 34.05 13.2L33.5 12.4L31.85 10.55L31.85 10.15L31.85 9.4L31.85 9.25L31.85 8.85L31.9 8.55L32.15 7.75L32 7.05L31.85 6.65L31.85 6.45L32.05 5.9L32.3 5.55L32.45 5.4L32.8 5.15L33 5.05L33.3 4.9L33.5 4.85L33.75 4.75Q38.1 4.7 41.95 6.5Q45.7 8.2 48.65 11.4" />
<path style="fill:#333333;fill-opacity:0.819608" d="M38.3,-30.25L39.4 -30.7L39.65 -30.65L40 -30.35L40.1 -30.05L40.2 -29.85L40.65 -29.75L41.65 -29.95Q42.3 -30.15 42.7 -29.65Q42.95 -28.4 42 -27.3Q40.2 -25.25 37.55 -24.05Q35.8 -23.25 34.5 -21.9Q33.25 -20.55 31.5 -20.85L31.05 -21.6L30.7 -22.35L30.6 -22.7L30.65 -23.1L30.4 -23.65L30.05 -23.7Q29.3 -24.4 30 -25.5Q31.4 -27.75 33.95 -28.55Q36.2 -29.3 38.3 -30.25M18.5,-39.6Q20.2 -33.5 22.35 -27.3Q22.95 -25.65 23.15 -23.9Q23.95 -17.25 24 -11Q24 -10.25 23.4 -9.4Q21.25 -6.5 20.45 -2.65Q19.55 2 17.8 5.8L17.5 5.25L17.65 4.7L17.85 3.95L18 3.2L17.95 3.2Q18.9 -1.95 17.35 -8.1Q15.9 -13.8 16.05 -19.5Q16.2 -25.1 17 -30.5L18.5 -39.6M1,-30.5Q10.15 -28.2 7.95 -19.5Q7.65 -18.3 6.5 -17.45Q0.45 -13.05 -7.15 -13.4Q-10.4 -13.5 -13.4 -15.2Q-16.15 -16.8 -15.05 -19.9Q-14.2 -22.35 -11.6 -22.9Q-8.15 -23.65 -5.35 -21.9L-4.95 -22.3L-4.75 -22.45L-4.35 -22.85L-3.95 -23.35L-3.55 -23.95L-3.4 -24.15L-3.45 -25.6L-3.2 -27.35L-2.2 -28.8Q-1.15 -29.8 0.25 -30.2Q0.7 -30.3 1 -30.5M6.15,-6L9.05 -4.85L12.15 -3.6L15.1 -1.7L15.15 -1.55L15.2 -0.6L15.2 0.15L15.35 1.2L15.7 2.1L16.3 3.1L16.95 4.2L16.95 4.4L16.85 4.7L16.7 5.3L16.7 5.5L16.7 5.65L16.7 5.85L16.55 6.2L16.4 6.6L16.35 6.7L16.25 6.75L15.6 6.75L14.45 6.5L14.1 6.5L13.3 6.6Q11.8 5.25 10.15 4.75Q7.95 4.15 6.2 2.65L0.15 -2.1Q-0.2 -2.35 -0.1 -3Q0.25 -5.65 2.95 -6.25L6.15 -6M28.45,-9.25Q30 -12.5 33.6 -14.3Q38.25 -16.6 43.05 -18.7Q45.25 -19.7 47.3 -21.15Q51.05 -23.9 55.55 -25.2L55.9 -25.3L58.1 -25.15L58.5 -25L58.5 -24.85L58.1 -24.3L57.75 -23.7L57.3 -23.3L56.85 -23Q58.55 -22.25 58.3 -20.4Q57.85 -17.15 54.3 -16Q51.65 -15.15 49.2 -13.9Q46.85 -12.7 45.9 -10.35L45.7 -9.8L45.75 -9.65L46.1 -9.35L46.75 -8.85L47.1 -8.25L47.25 -7.85Q49.85 -7.55 52.25 -8.65Q57.4 -10.9 63.05 -10.9Q63.45 -10.9 63.7 -10.5Q63.4 -9.7 62.5 -9Q60.75 -7.65 59.75 -5.75L57.65 -2L56.25 0.35L55.55 1.55Q52.75 3.05 49.75 2.7L47.7 2.35Q41.2 0.9 34.3 0.95L34.3 0.75Q34.25 0.3 34.35 -0.05Q34.45 -0.6 34.9 -0.95L35.55 -1.35L36.2 -1.65L36.25 -1.75L33.35 -1.3Q32.1 -0.8 31.6 -1.8L31.5 -1.85L27.55 -2L27.4 -2.1L27.35 -2.3Q27.25 -3.1 27.45 -3.95L27.8 -5.65L28.45 -7.25Q29.15 -8.45 28.45 -9.25M71.65,-25.35Q71.3 -23.45 69.55 -22.15Q65.65 -19.3 60.95 -21.05Q59.85 -21.45 59.8 -22.65Q59.7 -27.45 64.35 -29.75L66 -30.55L68.25 -30.5L68.55 -30.4Q72.4 -29.05 71.65 -25.35M60.25,-3.65L61.1 -4.25Q61.8 -4.6 62.55 -4.8L64.3 -5.25Q64.9 -5.4 65.35 -5.85L65.35 -6.05L65.35 -6.2L65.35 -6.4L65.35 -6.6L65.35 -6.75L65.35 -6.95L65.4 -7.15L65.6 -7.35L66.65 -8.15Q68.9 -9 71.45 -8.85L71.95 -8.85L72.05 -9.05L72.1 -9.2L72.25 -9.4L72.6 -9.6L72.9 -9.7L73.4 -9.75L73.4 -9.8L76.6 -9.6L78.1 -9.3L79.5 -8.5L79.7 -8.3L79.75 -8.1L79.75 -7.95L79.75 -7.75L79.75 -7.55L79.75 -7.4L79.7 -7.2Q78.55 -6.2 76.95 -5.7Q74.1 -4.85 71.55 -3.3Q68.3 -1.35 64.85 -1.75Q62.45 -2 60.35 -3.25L60.15 -3.5L60.25 -3.65M73.9,-18.05L77.7 -18.3L78.1 -18.4L79.05 -18.3L79.5 -18.25L81.55 -18.05L81.85 -17.95L81.9 -17.8L81.95 -17.4L81.95 -17.25L81.95 -16.85L81.8 -16.5L81.55 -16.1L81.65 -16L82.1 -15.75L82.2 -15.65L82.65 -15.15L83.1 -14.65L83.2 -14.3Q79.9 -13.05 75.95 -12.35Q69.55 -11.2 64.05 -13.25Q64.1 -14.05 64.75 -14.65Q66.95 -16.65 70.1 -17.45L73.15 -18L73.9 -18.05M94.85,34.4Q95.25 35.6 96.45 36.45Q97.6 37.2 98.2 38.45L98.95 40.6Q96.5 43.35 93.2 40.75L91 38.8Q89.65 37.4 88.8 35.7L88.8 35.55L88.8 35.35L88.8 35.15L88.9 35L89 34.8L89.05 34.6L89.9 34.1L92.55 33.55L92.9 33.5L92.85 33.45L92.45 33.25L92.35 33L92.6 32.65L92.85 32.6Q94.35 32.85 94.85 34.4M81.25,34.85L78.35 34.25Q76 33.55 73.8 32.4Q71.95 31.5 72.5 29.5Q72.7 28.9 73.15 28.45L75.15 28.55L78.25 28.3L79.9 27.75Q84.05 28.1 84.25 31.8Q84.4 35.1 81.25 34.85M67,17.85Q67.45 17.4 68.15 17.35Q69.25 17.25 70.25 16.75L71 16.3Q71.75 15.75 72.65 15.55L73.4 15.25Q74.75 15.15 76 15.7L78.55 16.8Q79.95 17.35 80.7 18.65Q81.35 19.8 81.2 21.1Q80.45 22.05 79.25 22.2Q74.85 22.7 70.45 21.6Q68.45 21.05 66.85 19.7L66.8 19.5L66.8 19.35L66.8 18.95L66.8 18.6L66.8 18.4L66.8 18.25L66.85 18.05L67 17.85M51.8,30.8L51.8 31Q53 31.2 54.65 31.95Q55.3 32.2 55.65 32.8L55.8 33L55.95 33.2Q58.45 33.3 60.35 34.8L63.05 37.2Q64.15 38.3 64.9 39.65Q65.7 41.1 65.6 42.8Q65.5 44.2 64.85 45.4Q59.3 47.85 54.15 46.15Q51.05 45.1 48.75 42.75Q46.45 40.45 43.05 39.25Q41.05 38.55 40.2 36.65L40.2 36.45L40.2 36.25L40.2 36.1L40.2 35.9L40.25 35.55L40.4 35.35Q42.15 34.5 44.1 33.95L45.2 33.55L47.6 32.5L48.75 32.15Q48.6 31.75 48.8 31.4L49.6 30.55L50.25 29.95L50.4 29.75Q50.65 29.4 51 29.4L51.45 29.6L51.65 30.05L51.7 30.4L51.8 30.8M50.55,30.95L50.5 30.9L50.15 31L49.85 31.15L49.65 31.35L49.5 31.55L49.4 31.7L49.45 31.75L49.75 31.65L50.05 31.45L50.25 31.3L50.55 30.95M8.85,13.55Q14 13.3 16.55 17.7Q19 21.8 15.4 25.95Q13.65 27.95 10.75 28.4Q9.9 28.5 9.2 29.2Q5.65 32.5 0.9 32.55Q-0.7 31.35 -1.5 29.55Q-2.8 26.6 -2.4 23.4Q-1.95 19.55 1.75 17.9Q4.3 16.8 6.5 15.05L8.85 13.55M-15.35,-0.2L-12.05 2.9Q-10.3 4.55 -10.6 6.85Q-10.8 8.5 -11.6 10L-11.5 10.15L-11.45 10.15L-10.65 10.1L-10.4 9.95Q-9.45 3.25 -3.35 4.95Q-1.75 5.4 -0.8 6.85Q1.55 10.5 -0.9 14.5Q-5.45 21.9 -13.9 17.9Q-16.45 16.65 -19.4 16.05Q-25.4 14.8 -23.35 9.9L-23.6 8.35Q-24.05 7.15 -23.8 5.85L-23.35 3.25Q-23.05 1.4 -21.7 0.1L-19.7 -1.5Q-17.1 -1.9 -15.35 -0.2M-20.35,27.1L-19.5 26.3Q-18.6 25.35 -17.25 25.1L-16.5 24.85Q-14.65 24.6 -13.55 26Q-12.75 26.95 -11.5 27.25L-8.1 28.2Q-6.35 28.75 -5.4 29.95Q-7 32.3 -10.35 31.4Q-11.75 31 -12.85 32.15Q-15.2 34.5 -18.3 33.15Q-20 32.4 -21.25 31.15L-21.45 30.95L-21.7 30.2Q-21.8 29.05 -21.25 28.15L-20.35 27.1M-18.95,48.9Q-17.8 48.8 -16.95 49.45L-15.1 50.5Q-14.15 50.9 -13.25 51.45Q-12.3 51.95 -11.9 52.85L-11.9 53L-11.95 53.4L-12.15 53.75L-12.6 54.35L-12.75 54.5L-13 54.7L-13.05 54.8L-19.7 55.1Q-21.1 54.95 -22 53.85L-22.6 53.1L-22.65 52.35L-22.55 51.35L-22.25 50.8Q-21.8 50 -20.95 49.6Q-20.05 49.15 -19.15 48.95L-18.95 48.9" />
</g>
</svg>
