<?xml version="1.0" encoding="utf-8"?>
<svg version="1.1" id="Layer_1"
xmlns="http://www.w3.org/2000/svg"
xmlns:xlink="http://www.w3.org/1999/xlink"
width="37px" height="4px"
xml:space="preserve">
<g id="720" transform="matrix(1, 0, 0, 1, -12.35, -18.55)">
<path style="fill:#000000;fill-opacity:0.498039" d="M48.25,20.45L47.4 20.55L46.25 20.25L45.8 19.95L45.75 19.65L45.95 19.25L46.25 19.05L47.4 18.8Q48.1 18.8 48.55 19.1L49 19.7L49 19.8L48.55 20.3L48.25 20.45M16.95,19.35L28.15 18.6L39.2 18.9Q43.8 19.35 43.8 20.1Q43.8 20.85 39.2 21.5L28.15 22.3L16.95 21.95Q12.35 21.55 12.35 20.8Q12.35 20.05 16.95 19.35" />
</g>
</svg>
