<?xml version="1.0" encoding="utf-8"?>
<svg version="1.1" id="Layer_1"
xmlns="http://www.w3.org/2000/svg"
xmlns:xlink="http://www.w3.org/1999/xlink"
width="15px" height="11px"
xml:space="preserve">
<g id="535" transform="matrix(1, 0, 0, 1, 2.25, 12.8)">
<path style="fill:#000000;fill-opacity:1" d="M1.75,-12.8L2.2 -11.3L2.45 -9.8L4.1 -6.6Q4.95 -7.35 5.4 -7.15Q6.8 -9.35 7.3 -8.85L8.6 -8.5L10.15 -7.85Q12.4 -6.75 12.4 -6.2Q12.4 -5.7 10.7 -4.8Q8.8 -3.8 7.05 -3.8L5.65 -3.9Q5.3 -3.5 4.7 -3.5L4.6 -3.55L3.75 -3.25L1.4 -2.65Q1.2 -2.65 0.1 -5.45L-0.95 -8.3L-0.8 -8.55L-1.65 -9.75L-2.25 -11.1L-1.55 -11.6L-0.6 -11.95Q-0.45 -11.95 0.15 -10.75L0.5 -10.1L0.35 -10.5L-0.1 -12.05L0.6 -12.5L1.75 -12.8" />
</g>
</svg>
