<?xml version="1.0" encoding="utf-8"?>
<svg version="1.1" id="Layer_1"
xmlns="http://www.w3.org/2000/svg"
xmlns:xlink="http://www.w3.org/1999/xlink"
width="23px" height="26px"
xml:space="preserve">
<g id="1307" transform="matrix(1, 0, 0, 1, 10.25, 25.2)">
<path style="fill:#7E0000;fill-opacity:1" d="M0.9,-19.35L0.7 -18.25L0.4 -18.25Q0.3 -18.25 0.15 -18.35L0.1 -18.4L-0.05 -19.45L-0.1 -21.35Q-0.1 -22.45 -0.55 -23.35L-0.75 -23.3Q-1.75 -22.65 -2.2 -23.7Q-2.45 -24.75 -1.55 -25.1L-1.15 -25L-0.5 -25.2L0.15 -24.9Q1.5 -24 1.5 -22.5L1.45 -21.9Q1.7 -21.35 1.6 -20.6L0.9 -19.35M0.3,-17L0.65 -17.05L0.85 -17.1L1.1 -16.9Q2 -15.4 1.5 -13.6L0.65 -10.5L0.85 -10.2L0.85 -9.65L1.7 -10.2L1.9 -10.15L2 -10.05L2.05 -10Q2.3 -8.9 1.9 -7.8L1.25 -5.5L1.85 -6.15L4.6 -13.45Q5.5 -15.7 7.5 -16.75L7.6 -16.75L7.7 -16.75L7.8 -16.6L7.95 -16.05Q7.9 -15.4 7.4 -14.8Q6.95 -14.25 6.3 -14.05Q5.85 -12.35 5 -10.75L2.95 -5.7L2.9 -5.25L2.55 -4.6L2.55 -4.5L1.9 -3.2L2.3 -2.95L2.35 -2.8L3.1 -4.7Q3.9 -6.6 5.3 -7.6L5.4 -7.55L5.55 -7.55L5.65 -7.45L5.7 -7.35Q5.55 -5.55 4.55 -3.75L3.65 -2.5L3.85 -2.5L4.2 -2.1L4.45 -2.15Q6.85 -2.5 7.95 -4.55Q9.05 -6.5 11.35 -7.3Q12.6 -6.25 10.85 -5.35Q9.75 -4.8 9.05 -3.9Q7.9 -2.4 6.5 -1.8Q6.8 -1.35 6.05 -0.75Q4.45 0.45 2.2 0.15L-2.95 0.35Q-4.6 0.65 -5.7 -0.2Q-6.15 -0.6 -5.7 -0.9Q-4.45 -1.75 -2.9 -2.15Q-3.4 -2.15 -3.9 -2.5L-3.95 -2.4L-4.1 -2.3L-4.3 -2.25L-4.45 -2.25L-4.75 -2.65L-4.95 -3.65L-4.75 -4.15L-4.35 -4.25Q-3.85 -4.05 -3.65 -3.65L-3.4 -3.25L-3.1 -3.2L-2.9 -3.1L-2.8 -3.15L-2.75 -3.15Q-2.65 -4.15 -2.9 -5.1Q-3.3 -7.15 -4.75 -8.55Q-6.5 -10.15 -4.15 -10.85L-3.35 -9.95Q-2.45 -7.9 -2.05 -5.8L-1.75 -4.05L-1.55 -4.5Q-1.3 -4.85 -0.95 -4.85L-1 -5.4L-1.1 -6.05L-0.8 -6.4L-0.6 -6.4L-0.35 -6.4L-0.3 -6.4L-0.3 -6.5L-0.2 -6.65L-0.15 -7.05L-0.4 -7.75L-0.15 -12.15L0.2 -16.9L0.3 -17M5.7,-14L4.4 -11.15L3.05 -8.3L4.45 -10.9L5.75 -13.85L5.7 -14M7.6,-9.1Q7.75 -10 8.55 -10.8Q9.35 -11.55 10.35 -11.85Q11.8 -11.35 10.75 -10.3Q9.7 -9.35 8.3 -9.35L8.25 -9.25L8.15 -9.1L8.05 -8.95L7.6 -8.95L7.6 -9.1M-9.35,-10.35L-7.95 -9.2Q-6.7 -8.35 -6.5 -7.15L-6.65 -7.05L-9.15 -8.4Q-11 -9.4 -9.8 -10.6L-9.35 -10.35" />
<path style="fill:#FFCBCB;fill-opacity:1" d="M0.6,-23.25L1 -21.15Q1.1 -20.05 0.75 -19.25L0.75 -19.4L0.8 -21.35L0.55 -23.25L0.6 -23.25M0.55,-24.3L0.55 -23.95L0.35 -23.9L0.2 -23.85L0.15 -23.9L-0.65 -24.2L-0.9 -24.4L-1.05 -24.35L-1.3 -24.35L-1.45 -24.45L-1.45 -24.5L-1.4 -24.6L-0.95 -24.85L-0.45 -24.9L0.05 -24.7Q0.4 -24.6 0.55 -24.3M1.1,-16.4L1.45 -15.7Q1.45 -15.3 1.15 -15.05L1.1 -15.05L0.6 -15.75Q0.45 -16.25 0.95 -16.45L1.1 -16.4M0.75,-14.4L0.8 -14.35L0.6 -12.45L0.35 -10.7L0.35 -10.75L0.45 -12.6L0.75 -14.4M5.8,-13.8L4.5 -10.85L3.1 -8.25L4.45 -11.1L5.75 -13.95L5.8 -13.8M7.45,-16.1Q7.6 -15.7 7.4 -15.35Q7.1 -14.8 6.55 -14.95L6.55 -15.05L6.7 -15.75Q6.85 -16.15 7.35 -16.15L7.45 -16.1M5.55,-6.75Q5.35 -6.4 5 -6.55L5 -7.1L5.4 -7.4L5.45 -7.4Q5.75 -7.15 5.55 -6.75M9.45,-10.2L9.95 -10.7L10.4 -11.35L10.55 -11.3L10.6 -10.65Q10.2 -9.85 9.4 -10L9.45 -10.2M1.7,-9.7L1.9 -8.85L1.45 -8.25L1.35 -8.25Q0.9 -8.5 1 -9.05Q1.1 -9.6 1.65 -9.7L1.7 -9.7M4.25,-4.25L3.6 -3.35L3.6 -3.4Q3.6 -4 3.95 -4.55L4.8 -5.5L4.85 -5.5L4.25 -4.25M1.45,-1.65L0.9 -0.65L0.9 -0.75L1.2 -1.75L1.65 -2.8L1.7 -2.75L1.45 -1.65M4.5,-1.8L5.05 -2L5.25 -1.8Q5.45 -1.5 5.2 -1.25Q4.5 -0.75 4.1 -1.45L3.6 -1.2L3.05 -1L3.1 -1.1L3.7 -1.4L4.25 -1.55L4.5 -1.8M9.6,-5.65L10.45 -6.05Q11 -6.15 11.35 -6.55L11.4 -6.4Q11.2 -5.9 10.45 -5.65L9.5 -5.6L9.6 -5.65M-3.9,-10.2L-3.7 -9.6L-3.7 -9.35L-2.85 -7.5L-2.4 -5.5L-3.15 -7.75L-3.8 -9.2L-4.05 -9.15L-4.65 -9.7L-4.6 -10.25L-4.45 -10.3L-4.4 -10.3L-4.2 -10.3L-3.9 -10.2M-9.55,-9.85L-9.4 -9.9L-9.25 -9.9L-9.05 -9.85L-8.7 -9.6L-8.65 -9.4L-8.7 -9.3L-7.95 -8.8Q-7.6 -8.5 -7.7 -8.1L-7.75 -8.25L-8.5 -8.85L-9 -9.2Q-9.2 -9.15 -9.35 -9.35L-9.7 -9.75L-9.55 -9.85M-1.3,-3.65L-1.05 -2.1Q-0.85 -0.95 -1.45 -0.6L-1.45 -0.7Q-1.2 -1.4 -1.3 -2.2L-1.4 -3.65L-1.3 -3.65M-4,-3.75L-3.7 -3.4Q-3.7 -3.2 -3.85 -3.1L-4.2 -3.1L-4.4 -3.2L-4.4 -3.4L-4.4 -3.6L-4.3 -3.7L-4.3 -3.75L-4.2 -3.75L-4.05 -3.75L-4 -3.75" />
</g>
</svg>
