<?xml version="1.0" encoding="utf-8"?>
<svg version="1.1" id="Layer_1"
xmlns="http://www.w3.org/2000/svg"
xmlns:xlink="http://www.w3.org/1999/xlink"
width="42px" height="26px"
xml:space="preserve">
<g id="320" transform="matrix(1, 0, 0, 1, -1.45, 7.45)">
<path style="fill:#E2E2E2;fill-opacity:0.8" d="M24.4,-7.4Q27.2 -7.75 28.65 -5.6L29.35 -4.2L29.65 -2.4Q31.1 -1.8 31.4 0.05L31.3 1.4L32.45 1.25Q37 0.9 37.4 4.65L37.55 4.6L39.4 4.75L40.2 4.95L40.3 4.8Q44.45 6.7 42.3 11.15Q40.3 15.25 35.8 13.9Q33.3 13.15 34.15 10.8Q30.45 11.05 26.85 12L22.9 13.05L20.8 13.85L13.1 16.3Q8.95 17.7 4.85 18.4L5.3 18.2L3.2 18.45Q3.3 18 3.7 17.75L4.15 17.5L3.8 17.45L3.95 17.2L2.8 17.7L1.55 17.75L1.45 17.8L1.55 17.75L1.45 17.65Q1.85 17.3 2.4 17Q6.9 13.1 11.95 9.75L19.95 4.4L20.55 3.7L21.2 2.95L21.25 2.55L21.35 2.2L21.6 1.75L21.75 1.55Q20.6 0.1 20.05 -1.6Q18.9 -5.5 23.05 -7L24.4 -7.4M20.65,-3.5Q20.45 -2.2 21.6 -0.55L22.9 1.35L22.9 1.45L22.55 2.25L22.55 2.3L22.5 2.65L22.75 2.45Q23.25 2.15 23.8 2Q23.7 3.15 21.85 4.3L20.1 5.4L19.55 5.75L10.45 11.8L3.25 16.65L3.75 16.5L4.7 16.25L5.95 15.3Q7.35 14.4 8.95 13.8L11.75 12.3L22.2 7.9Q23.55 7.35 24.75 6.6L25.05 6.7L25.3 6.95L25.35 7Q23.05 9.3 19.8 10.8L18.6 11.35L14.05 13.2Q10 14.55 6.4 16.55L5.95 16.9L5.75 17.1Q6.9 16.9 8.45 16.3Q9.55 15.9 10.45 15.95Q12.4 15.15 14.45 14.5L18.2 13.35L27.8 8.85L29.15 8.25L28.2 7.75Q27.75 7.5 27.9 7.05L29.4 7.55L32.5 6.5Q34.45 5.55 33.6 3.55L33.3 2.5Q29 2 27.6 6L26.9 6.95Q26.1 6.25 26.45 5.15Q27.35 2.5 29.9 1.7L30.15 0.45Q30.25 -0.75 29.55 -1.6Q29.15 1.9 25.75 2.85L25.6 2.8L27.1 -0.8Q28.15 -3.85 25.7 -5.6L24 -5.45Q22.25 -5.05 20.95 -3.8L20.65 -3.5M40.55,6L37.45 5.6Q37.4 6.55 36.65 7.15L33.8 8.7L33.6 8.8L33.35 8.85L30.35 8.7Q29 9.35 27.65 10.1L25.35 11.3L25.05 11.6L27.4 10.9Q30.45 10 33.65 10.2L34.35 10.25Q35.3 8.3 37.05 8.9Q36.7 9.05 36.45 9.3L36.9 11.05Q36.95 11.45 37.35 11.4Q40.75 11 40.85 7.6L41.05 6.5L41.15 6.45L41.25 6.4L40.8 6.05L40.55 6M30.1,8.7L30.3 8.7L29.7 8.5Q29.75 8.75 30.1 8.7" />
<path style="fill:#E2E2E2;fill-opacity:0.498039" d="M20.95,-3.8Q22.25 -5.05 24 -5.45L25.7 -5.6Q28.15 -3.85 27.1 -0.8L25.6 2.8L25.75 2.85Q29.15 1.9 29.55 -1.6Q30.25 -0.75 30.15 0.45L29.9 1.7Q27.35 2.5 26.45 5.15Q26.1 6.25 26.9 6.95L27.6 6Q29 2 33.3 2.5L33.6 3.55Q34.45 5.55 32.5 6.5L29.4 7.55L27.9 7.05Q27.75 7.5 28.2 7.75L29.15 8.25L27.8 8.85L18.2 13.35L14.45 14.5Q12.4 15.15 10.45 15.95Q9.55 15.9 8.45 16.3Q6.9 16.9 5.75 17.1L5.95 16.9L6.4 16.55Q10 14.55 14.05 13.2L18.6 11.35L19.8 10.8Q23.05 9.3 25.35 7L25.3 6.95L25.05 6.7L24.75 6.6Q23.55 7.35 22.2 7.9L11.75 12.3L8.95 13.8Q7.35 14.4 5.95 15.3L4.7 16.25L3.75 16.5L3.25 16.65L10.45 11.8L19.55 5.75L20.1 5.4L21.85 4.3Q23.7 3.15 23.8 2Q23.25 2.15 22.75 2.45L22.5 2.65L22.55 2.3L22.55 2.25L22.9 1.45L22.9 1.35L21.6 -0.55Q20.45 -2.2 20.65 -3.5L20.95 -3.8M40.8,6.05L41.25 6.4L41.15 6.45L41.05 6.5L40.85 7.6Q40.75 11 37.35 11.4Q36.95 11.45 36.9 11.05L36.45 9.3Q36.7 9.05 37.05 8.9Q35.3 8.3 34.35 10.25L33.65 10.2Q30.45 10 27.4 10.9L25.05 11.6L25.35 11.3L27.65 10.1Q29 9.35 30.35 8.7L33.35 8.85L33.6 8.8L33.8 8.7L36.65 7.15Q37.4 6.55 37.45 5.6L40.55 6L40.8 6.05" />
</g>
</svg>
