<?xml version="1.0" encoding="utf-8"?>
<svg version="1.1" id="Layer_1"
xmlns="http://www.w3.org/2000/svg"
xmlns:xlink="http://www.w3.org/1999/xlink"
width="11px" height="9px"
xml:space="preserve">
<g id="507" transform="matrix(1, 0, 0, 1, 0, 0)">
<path style="fill:#000000;fill-opacity:1" d="M6.1,0.75L6.7 1.85L6.9 2.75L7 3.8L7.35 4.4L8.85 3.75L9.45 3.35L10.1 3.6L10.35 4.3L7.6 5.45L7.1 5.8L6.9 6.6L6.75 6.3L5.2 7.35L5.05 7.65L5 7.5L3.9 8.25L3.6 8.4L3.7 8.5L2.3 8.1L1.25 7.3L0.7 6.35L0.5 5.1L0 4.65L0.1 3.75L0.45 3.35L0.8 2.5L1.9 1.45L2.95 0.7L3.6 0.4L5 0L5.45 0.25L6.1 0.75" />
</g>
</svg>
