<?xml version="1.0" encoding="utf-8"?>
<svg version="1.1" id="Layer_1"
xmlns="http://www.w3.org/2000/svg"
xmlns:xlink="http://www.w3.org/1999/xlink"
width="54px" height="30px"
xml:space="preserve">
<g id="837" transform="matrix(1, 0, 0, 1, -6.6, 5.9)">
<path style="fill:#0E0E0E;fill-opacity:1" d="M35.6,-2.7L33 2.8L33.5 3.1L36.1 -2.35L35.6 -2.7M48.75,-0.9Q48.25 -0.9 47.9 -0.55Q47.55 -0.2 47.55 0.3Q47.55 0.8 47.9 1.15Q48.25 1.5 48.75 1.5Q49.25 1.5 49.6 1.15L49.95 0.3L49.6 -0.55Q49.25 -0.9 48.75 -0.9M55.95,-1.4Q64.55 7.05 53.35 23.85L50.45 18.7L9.05 18.7L9.05 10.5L6.6 10.5L6.6 7.65L24.45 0.6L31.75 2.55L35.05 -3.4Q45.5 -9.3 55.95 -1.4M46.65,2.55Q46.3 2.9 46.3 3.4Q46.3 3.9 46.65 4.25Q47 4.6 47.5 4.6Q48 4.6 48.35 4.25Q48.7 3.9 48.7 3.4Q48.7 2.9 48.35 2.55Q48 2.2 47.5 2.2Q47 2.2 46.65 2.55M24.55,1.5L7.75 7.85L8.8 7.9L24.65 1.9L24.55 1.5" />
<path style="fill:#BD8051;fill-opacity:1" d="M36.1,-2.35L33.5 3.1L33 2.8L35.6 -2.7L36.1 -2.35M49.6,-0.55L49.95 0.3L49.6 1.15Q49.25 1.5 48.75 1.5Q48.25 1.5 47.9 1.15Q47.55 0.8 47.55 0.3Q47.55 -0.2 47.9 -0.55Q48.25 -0.9 48.75 -0.9Q49.25 -0.9 49.6 -0.55M47.5,2.2Q48 2.2 48.35 2.55Q48.7 2.9 48.7 3.4Q48.7 3.9 48.35 4.25Q48 4.6 47.5 4.6Q47 4.6 46.65 4.25Q46.3 3.9 46.3 3.4Q46.3 2.9 46.65 2.55Q47 2.2 47.5 2.2M24.65,1.9L8.8 7.9L7.75 7.85L24.55 1.5L24.65 1.9" />
</g>
</svg>
