<?xml version="1.0" encoding="utf-8"?>
<svg version="1.1" id="Layer_1"
xmlns="http://www.w3.org/2000/svg"
xmlns:xlink="http://www.w3.org/1999/xlink"
width="26px" height="27px"
xml:space="preserve">
<g id="625" transform="matrix(1, 0, 0, 1, 25.05, 0.75)">
<path style="fill:#000000;fill-opacity:0.498039" d="M-3.85,22.45L-2.6 22.65Q0 23.15 0 23.85Q0 24.55 -2.6 25.05L-8.8 25.55L-15 25.05Q-17.55 24.55 -17.55 23.85Q-17.55 23.45 -16.7 23.15L-15 22.65L-12.25 22.3L-8.8 22.15L-3.85 22.45" />
<path style="fill:#000000;fill-opacity:1" d="M-12.25,-0.65Q-12.2 0.25 -12.65 1.15L-12.95 1.65L-12.55 2.45Q-12.05 3.65 -12.15 4.4L-11.6 4.75L-11.55 4.65L-10.25 3.8L-10.1 3.7Q-9.55 4.2 -10.55 4.85L-11 5.15L-9.65 6.2L-9.65 6.1L-9.4 3.85L-9.45 3.65L-9.35 3.45L-9.3 3.4L-9.15 3.35L-8.75 3.35Q-8.5 3.4 -8.4 3.55L-8.35 3.6L-8.65 6L-8.75 7.2L-7.55 9.1L-6.75 10.5Q-6.05 11.45 -6.45 12.2L-3.65 12.85L-0.05 13.75L0.15 13.9L0.4 15.3Q0.4 16.25 -0.15 17Q-0.85 17.8 -1.95 17.45Q-2.15 15.8 -4.1 15.75L-7.45 15.45L-7.45 15.95L-7.45 16.1Q-4.8 16.3 -3.45 18.2Q-3.2 18.6 -3.25 19Q-3.55 21.9 -6.25 21.8Q-6.55 21.5 -6.45 21.1L-6.35 20.25L-6.35 20.15L-9.25 18.95L-10.95 18.1L-10.95 15.9L-11.05 14.05L-11.95 13.9L-12.15 13.75L-12.2 13.15L-12.25 12.7L-12.3 12.65L-12.65 12.15L-13.75 9.7L-16.75 11.4Q-20 12.8 -20.8 9.85L-20.8 9.65L-21.95 9.8Q-22.5 11.05 -24 10.35Q-25.25 9.8 -25 8.35L-24.6 7.95L-24.1 7.9Q-23.75 7.85 -23.6 8.15Q-21.2 6.9 -18.05 6.4L-16 5.95L-15.95 5.95Q-17.25 5.6 -18.05 4.25L-18.15 4.25L-18.6 4.25L-18.8 4.15L-19 4L-19.25 3.05Q-19.4 1.9 -19.15 0.9Q-18.75 -0.2 -17.65 -0.7Q-15 -0.9 -13.5 0.85L-13.35 0.4L-12.55 -0.75L-12.45 -0.75L-12.35 -0.7L-12.25 -0.65" />
</g>
</svg>
