<?xml version="1.0" encoding="utf-8"?>
<svg version="1.1" id="Layer_1"
xmlns="http://www.w3.org/2000/svg"
xmlns:xlink="http://www.w3.org/1999/xlink"
width="29px" height="25px"
xml:space="preserve">
<g id="607" transform="matrix(1, 0, 0, 1, 48.25, -1.35)">
<path style="fill:#000000;fill-opacity:0.498039" d="M-34.8,25.1L-44.2 24.6Q-48.25 24.1 -48.25 23.4Q-48.25 22.7 -44.2 22.2L-42.3 22L-34.8 21.7L-29.5 21.85L-25.3 22.2L-22.7 22.7Q-21.45 23 -21.45 23.4Q-21.45 24.1 -25.3 24.6L-34.8 25.1" />
<path style="fill:#000000;fill-opacity:1" d="M-19.95,20.75L-20.15 21.5Q-20.3 22.2 -20.8 22.9L-24.6 22.55L-24.15 23L-23.95 23.05Q-23.15 23.05 -22.6 23.55L-21.9 24.35Q-23.25 26.6 -25.45 26Q-26.35 25.7 -27.05 24.85L-28.8 22.55Q-29.8 21.25 -31.05 20.85L-31.2 20.85L-31.25 20.75L-32.55 20.55L-34.25 20.3Q-35 21.25 -36.55 20.7L-38.25 20.15Q-38.75 20.7 -39.7 20.55L-40.2 20.35L-40.7 20.55L-41.9 21L-42.5 20.9L-42.55 20.85L-42.5 20.75L-42.45 20.7L-42.45 20.6L-42.5 20.5L-42.5 20.4L-42.5 20.35L-42.35 20.05L-41.25 19.6L-40.8 19.5L-40.9 19L-40.95 19L-41.5 19.15L-41.95 19.1L-42.35 19.6L-42.75 20.4L-43.5 20.5L-43.95 20.2L-43.8 20.1L-43.15 19.2L-42.65 18.6Q-42.85 18.4 -43 18.35Q-43.7 17.75 -43.85 16.9L-43.75 16.95Q-44.25 15.35 -42.25 13.75L-41.3 13.4Q-40.75 13.35 -40.3 13.7L-40 13.95L-39.85 14L-39.9 14.15L-40 14.35Q-39.25 14.25 -38.6 14.7Q-37.8 15.15 -37.7 15.85L-37.4 15.75L-37.65 14.95Q-38 13.05 -36.05 12.6L-34.55 12.95Q-32.35 13.55 -31.4 15.55L-31.35 15.85L-30.25 16.3L-29.35 16.55L-28.75 16.9L-28.8 17.05L-28.5 17.1L-28.35 17.35L-24 19L-23.35 19Q-21.8 18.5 -20.4 19.25L-20.35 19.3L-20.2 19.4L-20.15 19.6L-20.1 19.65L-19.95 20.75M-33.7,3.25Q-35.45 4.25 -37.95 3.75Q-38.5 3.65 -38.65 3.15Q-38.95 2.45 -38.6 1.75L-38.05 1.55L-36.7 1.4L-35.65 1.45L-35.45 1.45Q-34.45 1.5 -33.9 2.2L-33.65 2.5L-33.5 2.7Q-33.4 3.1 -33.7 3.25M-39.55,21.45L-39.5 21.5L-39.25 21.45L-39.25 21.65L-37.4 22.65L-37.1 22.6L-36.8 22.5L-36.7 22.6L-36.55 22.55L-35.9 22.7Q-35.15 23.15 -34.95 24.05Q-34.75 24.75 -35.5 25.1L-36.05 25.45L-38.05 25.35L-40 23.9L-42.5 24.4Q-42.65 25.75 -44.3 25.9Q-45.1 25.9 -45.4 25.2Q-46.5 22.9 -44.05 21.55L-44 21.5Q-43.2 21.45 -42.75 21.95L-41.65 21.95L-39.65 21.55L-39.55 21.45" />
<path style="fill:#7E0000;fill-opacity:1" d="M-27.3,6L-27.35 5.9Q-27.15 5 -26.45 4.35Q-25.7 3.65 -24.8 3.5L-24.6 3.75Q-24.4 4.85 -25.4 5.8Q-26.45 6.8 -27.3 6M-32.55,3.9L-32.25 3.85L-31.8 3.85L-31.7 3.95Q-31.55 5.05 -32.5 6.2Q-34.05 8.05 -35.65 6.95L-35.65 6.85L-34.2 5.5Q-33.25 4.9 -32.8 3.95L-32.55 3.9M-47.8,20.3L-47.7 20.05Q-47.25 19.4 -46.4 19.15L-44.9 18.8Q-44.6 18.8 -44.5 19.15Q-44.3 20.15 -45.2 20.6Q-46.8 21.35 -47.8 20.3" />
</g>
</svg>
