<?xml version="1.0" encoding="utf-8"?>
<svg version="1.1" id="Layer_1"
xmlns="http://www.w3.org/2000/svg"
xmlns:xlink="http://www.w3.org/1999/xlink"
width="9px" height="16px"
xml:space="preserve">
<g id="1212" transform="matrix(1, 0, 0, 1, -10.85, 8.8)">
<path style="fill:#C9EBFF;fill-opacity:0.988235" d="M19,-7.85Q19 -7.45 18.2 -6.55L17.1 -5.45L17.05 -5.55L18.35 -7.75L17.35 -7.7Q17.1 -6.65 16.1 -5.3L14.8 -3.75Q14.45 -3.3 14.2 -1.35Q14.05 0.15 13.3 0.15Q11.35 0 10.85 -0.7L10.85 -0.95L11.1 -1L13.2 -0.55L13.55 -2.6Q13.75 -3.95 14.75 -4.85L15.45 -5.35L16 -5.8L16.1 -6.9L16.5 -8Q17.45 -9.1 18.3 -8.7Q19 -8.4 19 -7.85M18.25,-5.9L17.85 -5.2L17.4 -4.55L17.4 -4.5L18.8 -4.05Q18.5 -3.75 18.1 -3.75Q16.65 -3.75 16.65 -4.35L17.05 -5.25Q17.6 -6.1 18.2 -6.1L18.25 -5.9M18,-3.1L17.2 -3.1Q16.85 -3.1 16.6 -3.35L16.2 -3.8L16.25 -3.85L17.85 -3.45L18 -3.1M13.3,5.5Q15.2 5.45 15.8 6.35L15.45 6.7Q14.85 6.7 14.55 6.4L14.1 6.05L13.05 6.3L12.5 6.15L12.85 4.8L12.5 4.3L11.5 3.5Q12.9 3.3 13.2 4.2L13.3 5.5" />
</g>
</svg>
