<?xml version="1.0" encoding="utf-8"?>
<svg version="1.1" id="Layer_1"
xmlns="http://www.w3.org/2000/svg"
xmlns:xlink="http://www.w3.org/1999/xlink"
width="37px" height="36px"
xml:space="preserve">
<g id="1587" transform="matrix(1, 0, 0, 1, -5.55, -2.65)">
<path style="fill:#FF0100;fill-opacity:0.870588" d="M40.7,14.9L40.65 14.9Q41.75 16.2 40.85 17.2L40.6 17.35Q39.65 17.6 39.65 18.8Q39.65 19.3 39.3 19.45Q39.5 18.25 39.95 17.35Q40.1 17 40.55 17L40.95 16.95L40.55 14.7L40.65 14.5Q41.05 14.05 41.7 13.95L40.7 14.9M31.7,6.8L30.35 7.45Q28.2 8 27.95 10Q27.4 8.7 29.05 7.95L32.55 6.05Q34 7.15 33.1 9Q33 9.25 33.2 9.55L33.35 9.95Q32.25 9.4 32.85 8.1Q33.2 7.4 32.8 6.75L31.7 6.8M35.05,11.6L33.5 9.95Q34.75 10.4 35.05 11.55L35.05 11.6M22.7,2.65Q24.35 4.2 22.4 5.55Q21.7 6.05 22.45 6.55Q23.45 7.3 23.75 8.35L21.9 6.15Q21.5 5.55 22.2 5.15Q23.65 4.35 22.75 3.25Q22.45 2.9 22.7 2.65M39.85,23.55L39.8 23.6L38.1 23.7Q36 24.7 37.25 26.8Q37.9 27.9 37.2 28.85L36.6 25.55Q36.4 24.8 36.85 24.2Q37.75 23.05 39.3 23Q40.25 22.9 39.85 23.55M14.75,19.35L14 19.8Q13.1 20.05 13.35 19.35L13.5 19.55Q14.15 19.55 14.8 19.15Q14.3 18.8 14.6 18.3L14.7 18.25Q15.25 18.9 14.75 19.35M10.65,35.6L9.2 35.55Q7.95 34.95 8.3 34.1Q8.85 35.7 10.95 35.15L12.15 34.75Q14.55 33.65 16.4 35.55L16.8 36.2L14.2 34.8L13.35 34.7L10.65 35.6M6.15,28L6 29.35Q5.75 30.6 7 31.1Q8.4 31.6 7.8 32.85Q7.55 31.3 5.85 30.45L5.6 30.1Q5.35 28.85 6.15 28M30.6,26.65Q26.8 26.65 26.15 23.45Q27.7 27 31.75 26.45Q31.95 26.45 32.15 26.6Q33.5 27.75 32.9 29.1Q32.8 27.4 31.3 26.75L30.6 26.65M29.6,32.65L29.6 32.7Q26.85 32.85 27.6 35.35L28 37.1Q28.1 37.95 27.15 38.4L26.5 38.55Q27.35 37.9 27.7 36.95L27.65 36.7Q25.8 33.65 29 32.45Q29.45 32.35 29.6 32.65" />
</g>
</svg>
