<?xml version="1.0" encoding="utf-8"?>
<svg version="1.1" id="Layer_1"
xmlns="http://www.w3.org/2000/svg"
xmlns:xlink="http://www.w3.org/1999/xlink"
width="17px" height="26px"
xml:space="preserve">
<g id="762" transform="matrix(1, 0, 0, 1, 8.05, 4.75)">
<path style="fill:#000000;fill-opacity:1" d="M1.7,-3.95Q1.65 -2.95 0.75 -2.4Q-0.05 -1.85 -0.95 -1.65L-1 -1.6Q-1.25 -0.9 -2.05 -0.7L-2.75 -0.85L-3.05 -1.55L-3.45 -1.6Q-4.35 -1.85 -4.2 -2.7Q-4.05 -3.75 -2.85 -3.9L-2.8 -3.85Q-2.35 -4.65 -1.3 -4.75L0.2 -4.5Q1.05 -4.5 1.7 -3.95M7.15,-1.5L7.6 -1.15L7.8 -1.25L7.85 -1.25L8 -1.2L8.05 -1.05L8.1 -0.95L8.05 -0.85L8 -0.7L7.95 -0.65L7.9 -0.4L7.85 -0.25L7.75 -0.25Q6.45 0.7 5.65 2.1Q5 3.25 4.15 3.9L4.35 4.05L4.35 4.15L3.9 4.1L3.85 4.15L3.85 4.1L3.5 3.95L3.3 3.8L3.4 3.35Q4 1.95 4.9 0.7L6.6 -1.55L6.95 -1.55L7.15 -1.5M0.7,6.4Q1.05 5.95 1.65 5.9L2.5 6.7Q3.15 7.65 3.6 8.75L4.05 10.55L3.25 11.05L3.2 11.05L3.3 11.45L3.45 13.55L3.6 15.25L3.55 15.3L2.35 15.35L2.1 14.85L1.5 12.35L1.15 10.25L1.25 10.15L1.6 9.85L1.75 9.7L0.75 8.75Q-0.05 8.1 -0.15 7.2L0 7.1L0.7 6.4M3.55,17.45L3.95 17.35L4.05 17.4L4.15 17.45L4.25 17.5L4.4 18.15L4.6 18.85L4.75 19.75L4.75 20.35L-1.6 21.1L-1.7 20.9L-1.8 20.75L-2.05 20.55L-2.1 20.45L-1.9 20.25Q-4.3 19.45 -6.45 18.25L-6.45 18.2L-6.45 18.05L-6.4 17.9L-6.4 17.75L-6.3 17.7L-5.75 16.95L-5.15 16.35Q-4.35 16.9 -3.4 17.25Q-1.55 17.95 0.15 18.75L0.5 18.8L0.5 18.85L0.45 18.9L0.6 18.95L0.45 19L0.45 19.05L0.85 18.9Q2.2 18.5 2.95 17.35L3.2 17.4L3.55 17.45M-3.9,-3L-3.95 -3L-4.05 -2.7L-4.05 -2.45L-4.05 -2.55L-4 -2.75L-3.9 -3M-0.95,5.8L-1.25 7.05Q-2.25 7.4 -3 8.1Q-3.95 8.9 -5.2 8.7Q-5.95 8 -5.7 6.85Q-5.55 6.2 -5.7 5.6L-5.8 4.65L-5.7 4.6L-4.15 3.35L-2.3 2.45L-1.3 3.7Q-0.55 4.65 -0.95 5.8M-7.8,12.05Q-6.9 12.3 -6.45 11.65L-6.55 11.3Q-6.95 10.7 -6.35 10.3Q-5.85 10 -5.7 9.45L-5.6 9.4L-5.25 9.35L-4.95 9.55L-4.6 9.95Q-2.55 11.05 -0.75 12.45Q-0.3 12.85 -0.45 13.3Q-0.4 13.6 -0.5 13.8L-0.85 14.4L-1.25 14.9L-1.7 14.9L-2.85 14.6L-3.05 14.9Q-3.4 15.3 -3.9 15.3Q-4.95 15.8 -6.05 15.3L-6.05 15.25L-6.1 15.15L-6.1 15.05L-6.2 14.95L-6.6 14.7L-6.8 14.45L-8.05 13.6L-8.05 13.55L-7.95 13.35L-7.9 13.3L-7.85 13.25L-7.9 13.1L-7.95 12.7L-7.9 12.3L-7.85 12.1L-7.8 12.05" />
</g>
</svg>
