<?xml version="1.0" encoding="utf-8"?>
<svg version="1.1" id="Layer_1"
xmlns="http://www.w3.org/2000/svg"
xmlns:xlink="http://www.w3.org/1999/xlink"
width="10px" height="18px"
xml:space="preserve">
<g id="1136" transform="matrix(1, 0, 0, 1, 5.4, 13.15)">
<path style="fill:#100806;fill-opacity:1" d="M-0.1,-2.75Q1.5 -2.75 2.55 -1.6Q3.8 -0.5 3.8 1.05L3.7 2Q3.5 3 2.55 3.8Q1.5 4.85 0 4.85Q-1.6 4.85 -2.7 3.8Q-3.5 3 -3.7 2L-3.8 1.05Q-3.8 -0.4 -2.8 -1.5Q-1.7 -2.75 -0.1 -2.75" />
<path style="fill:#100806;fill-opacity:1" d="M-5.4,-13.15L-2.3 -12.3L1.45 -7.05L-0.9 -6.95L-1.15 -8.8L-3.15 -11.75L-5.05 -12.4L-5.4 -13.15M-3.3,-4.6L-2.5 -6.5L1.2 -5.25L1.2 3.05L-2.3 3.05L-2.25 0.7L-4.4 -0.05L-4.05 -3L-5.3 -3.55L-4.9 -5.3L-3.3 -4.6" />
</g>
</svg>
