<?xml version="1.0" encoding="utf-8"?>
<svg version="1.1" id="Layer_1"
xmlns="http://www.w3.org/2000/svg"
xmlns:xlink="http://www.w3.org/1999/xlink"
width="18px" height="18px"
xml:space="preserve">
<g id="122" transform="matrix(1, 0, 0, 1, -224.85, -157.55)">
<path style="fill:#D7D7D7;fill-opacity:0.0862745" d="M230.2,169.2Q231.15 170.25 231.15 171.7Q231.15 173.2 230.2 174.25Q229.3 175.3 228 175.3Q226.7 175.3 225.75 174.25Q224.85 173.2 224.85 171.7Q224.85 170.25 225.75 169.2Q226.7 168.1 228 168.1Q229.3 168.1 230.2 169.2M241.75,163.5Q238.8 168.95 233.35 167.2Q230.65 166.4 230.25 163.55Q229.95 161.7 230.85 160.2Q233.55 155.7 237.35 158.8Q240.55 158.5 241.8 161.85Q242.15 162.75 241.75 163.5" />
</g>
</svg>
