<?xml version="1.0" encoding="utf-8"?>
<svg version="1.1" id="Layer_1"
xmlns="http://www.w3.org/2000/svg"
xmlns:xlink="http://www.w3.org/1999/xlink"
width="51px" height="46px"
xml:space="preserve">
<g id="217" transform="matrix(1, 0, 0, 1, -708.4, -427.45)">
<path style="fill:#D7D7D7;fill-opacity:0.0862745" d="M757.9,442.75Q749.3 456.6 733.3 452.2Q725.45 450.15 724.15 442.8Q723.35 438.15 726 434.3Q733.95 422.75 745 430.7Q754.35 429.9 758.15 438.45Q759.15 440.75 757.9 442.75M726.8,463.7Q726.8 467.5 724.1 470.2Q721.4 472.9 717.6 472.9Q713.8 472.9 711.1 470.2Q708.4 467.5 708.4 463.7Q708.4 459.9 711.1 457.2Q713.8 454.5 717.6 454.5Q721.4 454.5 724.1 457.2Q726.8 459.9 726.8 463.7" />
</g>
</svg>
