<?xml version="1.0" encoding="utf-8"?>
<svg version="1.1" id="Layer_1"
xmlns="http://www.w3.org/2000/svg"
xmlns:xlink="http://www.w3.org/1999/xlink"
width="233px" height="66px"
xml:space="preserve">
<g id="485" transform="matrix(1, 0, 0, 1, 38.1, -189.8)">
<path style="fill:#3A1D0F;fill-opacity:0.498039" d="M60.3,189.95Q66.65 189.1 70.9 192.6Q74 195.2 70.6 196.6Q67.5 197.85 63.9 196.65Q59.95 195.35 56.9 192.8Q56.3 192.3 56.25 191.5Q56.5 190.95 57.05 190.9L58.2 190.7L58.75 190.5L59 190.4L60.3 189.95M44.9,217.85L45.85 217.9L46.25 218Q46.75 218.35 46.85 218.95L47.35 220.85Q47.7 221.8 47.65 222.8L47.6 223.3L47.45 223.5L47.2 223.7L46.65 223.95L46.65 224.15L46.5 224.9Q46.25 225.3 46.3 225.85L46.15 226.8Q42.1 229 37.05 227L36.8 226.75L36.55 226.5L36.15 225.95L36.1 225.55L37.65 224.05Q38.95 222.3 41.15 222.55L42.05 221.25L43.6 219.05Q44.1 218.15 44.9 217.85M171.4,223.75Q172.4 221.4 174.7 220.7Q177.35 220.8 179.1 222.8Q180.75 224.7 182.75 226.4Q184.1 227.6 184.4 229.1Q178.3 229.15 171.95 225.9Q170.7 225.25 171.4 223.75M186.25,233.2L186.4 233.05L186.55 232.95L186.95 232.8L187.2 232.7L187.5 232.6L187.55 232.55Q189.55 232.2 190.9 233.65L193.45 236.4Q194.3 237.3 194 238.5Q190.85 239.75 187.8 237.8Q185.85 236.55 185.95 234.15L186.25 233.2" />
<path style="fill:#3A1D0F;fill-opacity:0.431373" d="M69,253.3Q68.95 254.15 68.3 254.7Q66.9 255.95 64.7 255.75L51.8 254.6Q50.9 254.55 50.25 254L50.05 253.75Q49.75 253.45 49.8 253Q49.8 252.1 50.3 251.45Q52 249.2 55.15 248.8L57.05 248.3L61.65 248.45Q64.75 248.55 67.4 250Q69.2 250.95 69 253.3" />
<path style="fill:#3A1D0F;fill-opacity:0.498039" d="M-28.05,226.95L-26.6 225.25Q-25.85 224.55 -25.05 224.35Q-17.1 227.95 -24.05 233.55Q-30 238.3 -35.7 234Q-39.05 231.45 -37.7 227.4L-37.45 227.15L-37.15 226.9L-37 226.65L-36.75 226.4L-36.5 226.2Q-33.25 225 -31 227.25L-29.85 228.5Q-28.8 228 -28.05 226.95" />
</g>
</svg>
