<?xml version="1.0" encoding="utf-8"?>
<svg version="1.1" id="Layer_1"
xmlns="http://www.w3.org/2000/svg"
xmlns:xlink="http://www.w3.org/1999/xlink"
width="54px" height="53px"
xml:space="preserve">
<g id="390" transform="matrix(1, 0, 0, 1, -1.85, -2.1)">
<path style="fill:#3A231C;fill-opacity:1" d="M50.8,29.9Q50.65 21.6 44.8 15.75Q43.15 14.1 41.3 12.9L43.5 9.3Q45.75 10.75 47.75 12.75Q54.85 19.85 55 29.8L50.8 29.9M19.95,48.1Q23.85 50.4 28.65 50.75L28.3 54.95Q22.5 54.55 17.75 51.7L19.95 48.1" />
<path style="fill:#1E1715;fill-opacity:1" d="M17.75,51.7Q15.1 50.1 12.75 47.75Q5.5 40.5 5.5 30.25Q5.5 20 12.75 12.75Q20 5.5 30.25 5.5Q37.65 5.5 43.5 9.3L41.3 12.9Q36.45 9.7 30.25 9.7Q21.75 9.7 15.75 15.75Q9.7 21.75 9.7 30.25Q9.7 38.8 15.75 44.8Q17.7 46.75 19.95 48.1L17.75 51.7" />
<path style="fill:#413836;fill-opacity:1" d="M41.3,47.7Q43.15 46.45 44.8 44.8Q50.8 38.8 50.8 30.25L50.8 29.9L55 29.8L55 30.25Q55 40.5 47.75 47.75Q45.75 49.75 43.5 51.2L41.3 47.7M28.65,50.75L30.25 50.8L33.25 50.6L33.9 54.75L30.25 55L28.3 54.95L28.65 50.75" />
<path style="fill:#5F4D48;fill-opacity:1" d="M33.25,50.6Q37.65 50 41.3 47.7L43.5 51.2Q39.15 54.05 33.9 54.75L33.25 50.6" />
<path style="fill:#3A231C;fill-opacity:1" d="M22.85,2.7L20.5 6.2L16 4.95L16.8 3.65L21.55 2.1L22.85 2.7M1.85,21.15L3.75 16.55L5.05 15.9L6.2 20L2.35 22.6L1.85 21.15" />
<path style="fill:#5F4D48;fill-opacity:1" d="M12.75,7.1L12.05 11.3L7.45 12L7.65 10.45L11.3 7.1L12.75 7.1" />
</g>
</svg>
