<?xml version="1.0" encoding="utf-8"?>
<svg version="1.1" id="Layer_1"
xmlns="http://www.w3.org/2000/svg"
xmlns:xlink="http://www.w3.org/1999/xlink"
width="114px" height="19px"
xml:space="preserve">
<g id="1378" transform="matrix(1, 0, 0, 1, -1.55, 10.6)">
<path style="fill:#FF2F23;fill-opacity:1" d="M4.85,0.5L3.35 0.25L2.45 0L2.8 -0.1L4.55 0.2L4.95 0.5L4.85 0.5M26.1,0.2L25.7 1.25L25.5 2.15Q25.4 2.55 24.3 2.9Q23.1 3.3 22.7 3.9L22.85 4L24.4 3.4Q25.65 2.8 25.85 1.95L26.45 0.55Q25.9 4.05 22.35 4.05Q21.15 4.05 20.1 2L19.45 0.85L19.95 1.5L20.9 2.9Q21.65 3.85 22.1 3.85L22.65 3.55L22.5 3.4L22.1 3.65Q21.6 3.65 19.9 1.25Q18.15 -1.15 17.4 -2.85L16.5 -3.55Q15.75 -3.9 15.55 -4.25Q14.4 -5.65 13.55 -5.55Q11.45 -5.2 10.6 -4.3L9.25 -2.7L9.45 -2.6L8.25 -1.3L7.85 -0.85L7.1 -0.3L6.55 0Q7.65 -0.8 8.8 -2.6Q10.7 -5.75 12.75 -5.75Q13.95 -5.75 15.4 -5L17.1 -4Q17.85 -3.6 18.1 -2.75L18.3 -1.55Q19.25 -1.2 20.5 1.05Q21.65 3.2 22.35 3.2Q25.75 3.2 25.9 -1.25Q26 -3.55 26.4 -4.35Q27.05 -5.75 29.1 -5.75Q30.3 -5.75 32.3 -4.4L34.15 -2.75L33.4 -3.45L30.95 -4.4Q29.65 -5 29.25 -5L28.75 -4.95Q26.85 -6.05 26.85 -3.7L26.85 -3.6Q26.6 -2.9 26.5 -0.55L26.1 0.2M38.6,2.25L40.9 -1.5Q43.7 -5.45 46.6 -5.45Q51.4 -5.45 51.7 -3.75L51.9 -2.15Q52.25 -1.2 53.45 -0.55L53.4 -0.55Q52.65 -0.55 51.95 -1.65Q51.35 -2.55 51.1 -3.5Q50.85 -5.05 47.95 -4.8Q45.4 -4.6 44.3 -3.8L43.3 -2.9Q42.1 -2 41.4 -0.7L41.05 -0.25L39.1 2.3L38.65 2.25L38.7 2.55L39.15 2.75L40.8 0.65L40.3 1.95Q39.85 3.15 39.15 3.15Q37.8 3.15 35.7 0.1L34 -2.55L34.4 -2.15L34.5 -1.95L34.6 -1.8Q36.95 2.15 38.25 2.35L38.35 2.45L38.55 2.35L38.65 2.3L38.6 2.25M66.15,-0.25Q64.65 -0.25 60.8 -4.1L59.45 -3.95L58.8 -3.75Q55.45 -3.75 55.25 -2.3Q55.1 -1.6 53.9 -0.45L53.95 -0.85L53.9 -1Q55.45 -3.75 56.2 -4.25L59.55 -4.7Q60.95 -4.7 63.35 -2.4Q65.15 -0.7 66.35 -0.25L66.15 -0.25M77.9,-8.3L78.4 -7.2L77.4 -6.05L76.2 -5L74.15 -4.15L73.15 -3.7L72.8 -3.8Q71.35 -3.8 70.6 -3.15L70.1 -2.35L69.05 -1.4L68.6 -1.15L69.35 -2.4Q70 -3.9 71.6 -3.95L73.95 -4.15Q77.05 -6.15 77.2 -6.3Q77.6 -6.75 77.6 -8.6L77.55 -8.9L77.9 -8.3M77.55,-10.15L77.75 -9.85L77.35 -9.85L77.35 -9.45L77.2 -9.7L77.2 -10.6L79.5 -10.5L79.65 -10.1L79 -8.25L78.6 -7.15L78.65 -7.45L79.25 -9.7L79.25 -10.3L78.45 -10.15L78.3 -10.05L77.55 -10.15M90.85,-1.3L89.75 0.55L88 2.3Q86.65 3.45 86.2 3.45L85.35 3L84.4 2.25L83.45 1.55L82.45 1Q80.35 -1.85 80.35 -2.4Q80.35 -3.95 79.4 -4.6Q78.4 -5.25 78.4 -5.85L78.4 -5.9L79.35 -5.25Q80.35 -4.65 80.35 -4Q80.35 -2.75 81.3 -1.5Q82.5 0.15 85.7 3.05Q87.2 3.05 89.25 -0.3Q91.3 -3.7 91.65 -3.7Q92.3 -3.7 92.6 -3.25L92.25 -2.8Q91.8 -2.8 90.85 -1.3M97.4,-1.85L96 -1.65L95.05 -1.85L94.05 -1.55L92.55 -1.4L92.3 -1.5L92.35 -1.95L93.55 -2.3L95.55 -2.6L96.55 -2.25Q97.15 -1.95 97.75 -1.95L97.4 -1.85M99.25,-2.05L97.9 -1.95L99.95 -2.6Q102.5 -3.1 104.55 -2.15Q105.35 -1.7 105.5 -0.6Q105.65 0.55 106.25 0.95L109.15 0.6Q110.1 0.6 110.45 0.95L110.75 1.5L110 1.2L109 0.85L106.9 1.15L106.05 1.45L105.2 -0.55Q104.45 -2.55 103 -2.55Q102.6 -2.25 102.4 -2.25L102.15 -2.2L102 -2.2L99.8 -2.15L99.55 -1.95L99.25 -2.05M107,1.45L108.95 1.2L110.8 1.9L111.45 1.9L112.8 0Q113.95 -1.55 113.95 -2.2L113.9 -2.5L113.85 -2.45Q113.5 -1.3 112.4 0.2L111 1.55L110.85 1.55L111.9 -0.6Q112.65 -2.05 114.05 -2.85L114.65 -2.25Q114.65 -1.75 111.1 2.8Q110.8 2.8 109.4 1.8L105.95 1.95L105.85 1.85L107 1.45M105.25,0.35L105.25 0.8L104.8 -0.7L104.65 -1.1Q105.25 -0.25 105.25 0.35M99.25,-1.75L99.05 -1.6Q98.4 -1.1 97.7 -1.1Q96.95 -1.1 96.35 -1.45L96.2 -1.55L99.25 -1.75M91.45,-1.3L92.05 -2.25L92.1 -2.2L91.9 -1.7Q91.75 -1.25 92.15 -1.1L91.85 -1.05L91.4 -1.3L91.45 -1.3M83,1.8L84.4 2.95Q85.35 3.8 86.2 3.8Q87.35 3.8 89.5 1.2L90.15 0.45L89.95 0.7Q87.8 4 85.95 4Q85.6 4 83.8 2.5L82.95 1.8L83 1.8M80.1,-3.55L80.1 -2.15Q80.15 -1.4 80.8 -0.8L81.65 0.45L81.45 0.2L79.75 -2.2L79.7 -4L80.1 -3.55M78.45,-4.9Q77.75 -5.2 77.65 -5.6L78.05 -6L78.05 -5.9Q78.05 -5.35 78.45 -4.9M70.65,-2.85L71.15 -3.05L71 -3L70.4 -2.3L70.65 -2.85M63.15,-1.5Q65.25 0.05 66.65 0.05L67.35 -0.1L67.9 -0.4L68.6 -0.8L70 -1.7L69.6 -1.05Q68.9 0.3 67.9 0.75L66.6 0.75Q62.3 -0.55 61.7 -2.4L61.4 -3Q62.15 -2.25 63.15 -1.5M60.75,-3.65L61.05 -3.35L60.4 -3.65L60.75 -3.65M52.15,-0.95Q53.05 -0.25 53.4 -0.25L53.7 -0.3L53.55 -0.2L53.65 0Q54.7 -0.6 55.9 -2.3L56.45 -2.75L55.55 -1.45Q54.3 0.35 53.5 0.35Q52.3 0.35 51.5 -1.5L52.15 -0.95M28.25,-5.1L28.6 -4.95L27.4 -4.4L28.25 -5.1M16.5,-3.2L17.35 -2.1L17.6 -1.55L16.45 -3.1L16.15 -3.45L16.5 -3.2M13.8,-5.25Q14.05 -5.25 15 -4.45L15.15 -4.3Q14.05 -5.05 12.65 -5.05L13.8 -5.25M4.95,0.8L6.5 0.25Q7.9 -0.4 8.5 -1.2L9.5 -2.45L9.95 -3.05L10.9 -4.05L11 -4.1L9.1 -1.9Q6.75 1.25 5 1.25Q4.5 1.25 4.05 0.8L3.9 0.65L4.95 0.8M2.9,0.45L2.45 0.45L2.35 0.3L2.9 0.45M78.05,-9.25L78.5 -9.7L78.95 -10L78.95 -9.95Q78.6 -9.3 78.4 -8.2L78.4 -8.25Q77.7 -9.3 77.7 -9.5L77.95 -9.55L78.05 -9.25" />
<path style="fill:#FFFFFF;fill-opacity:1" d="M4.95,0.5L5.9 0.2L6.55 0L7.1 -0.3L7.85 -0.85L8.25 -1.3L9.45 -2.6L9.25 -2.7L10.6 -4.3Q11.45 -5.2 13.55 -5.55Q14.4 -5.65 15.55 -4.25Q15.75 -3.9 16.5 -3.55L17.4 -2.85Q18.15 -1.15 19.9 1.25Q21.6 3.65 22.1 3.65L22.5 3.4L22.65 3.55L22.1 3.85Q21.65 3.85 20.9 2.9L19.95 1.5L19.45 0.85L18.9 0.3L17.85 -0.95L17.6 -1.55L17.35 -2.1L16.5 -3.2L16.15 -3.45L15.15 -4.3L15 -4.45Q14.05 -5.25 13.8 -5.25L12.65 -5.05Q11.95 -5.05 11 -4.1L10.9 -4.05L9.95 -3.05L9.5 -2.45L8.5 -1.2Q7.9 -0.4 6.5 0.25L4.95 0.8L3.9 0.65L3.15 0.5L2.9 0.45L2.35 0.3L1.55 0L1.55 -0.25L1.7 -0.35Q1.95 -0.2 2.45 0L3.35 0.25L4.85 0.5L4.95 0.5M38.65,2.3L38.55 2.35L38.35 2.35L38.25 2.35Q36.95 2.15 34.6 -1.8L34.5 -1.95L34.4 -2.15L34 -2.55L32.55 -3.65L32.45 -3.7L32.25 -3.8L32.15 -3.85L31.3 -4.2Q29.4 -4.6 28.6 -4.95L28.25 -5.1L27.4 -4.4Q27.05 -3.85 27 -2.95L27 -2.3L26.85 -3.6L26.85 -3.7Q26.85 -6.05 28.75 -4.95L29.05 -4.8L30.95 -4.4L33.4 -3.45L34.15 -2.75L35 -1.55Q36.2 0.35 38.6 2.25L38.65 2.3M82.95,1.8Q82.25 1.4 81.75 0.6L81.7 0.55L81.65 0.5L81.65 0.45L80.8 -0.8Q80.15 -1.4 80.1 -2.15L80.1 -3.55L79.7 -4L79 -4.5L78.45 -4.9Q78.05 -5.35 78.05 -5.9L78.05 -6L77.65 -5.6L76.25 -4.5Q75.2 -3.75 74.1 -3.75L73.7 -3.45Q73.3 -3.2 72.8 -3.2L72.5 -3.25L72.55 -3.3L71.9 -3.2L71.15 -3.05L70.65 -2.85L70.4 -2.3L70.1 -1.8L70 -1.7L68.6 -0.8L67.9 -0.4L67.35 -0.1L66.65 0.05Q65.25 0.05 63.15 -1.5Q62.15 -2.25 61.4 -3L61.05 -3.35L60.75 -3.65L60.4 -3.65L60.05 -3.7Q57.75 -3.7 56.45 -2.75L55.9 -2.3Q54.7 -0.6 53.65 0L53.55 -0.2L53.7 -0.3L53.4 -0.25Q53.05 -0.25 52.15 -0.95L51.5 -1.5Q51 -2 50.9 -2.45L50.55 -3.5Q50 -4.4 48.7 -4.4Q46.3 -4.4 44.65 -3.5Q43.2 -2.7 41.95 -1L40.8 0.65L39.15 2.75L38.7 2.55L38.65 2.25L39.1 2.3L41.05 -0.25L41.4 -0.7Q42.1 -2 43.3 -2.9L44.3 -3.8Q45.4 -4.6 47.95 -4.8Q50.85 -5.05 51.1 -3.5Q51.35 -2.55 51.95 -1.65Q52.65 -0.55 53.4 -0.55L53.45 -0.55Q53.7 -0.55 53.7 -1.25L53.9 -1L53.95 -0.85L53.9 -0.45Q55.1 -1.6 55.25 -2.3Q55.45 -3.75 58.8 -3.75L59.45 -3.95L60.8 -4.1Q64.65 -0.25 66.15 -0.25L66.35 -0.25Q66.95 -0.3 67.8 -0.65L68.6 -1.15L69.05 -1.4L70.1 -2.35L70.6 -3.15Q71.35 -3.8 72.8 -3.8L73.15 -3.7L74.15 -4.15L76.2 -5L77.4 -6.05L78.4 -7.2L77.9 -8.3L77.55 -8.9L77.35 -9.4L77.35 -9.45L77.35 -9.85L77.75 -9.85L78.3 -10.05L78.45 -10.15L79.25 -10.3L79.25 -9.7L78.65 -7.45L78.6 -7.15L78.4 -5.9L78.4 -5.85Q78.4 -5.25 79.4 -4.6Q80.35 -3.95 80.35 -2.4Q80.35 -1.85 82.45 1L83.45 1.55L84.4 2.25L85.35 3L86.2 3.45Q86.65 3.45 88 2.3L89.75 0.55L90.85 -1.3Q91.8 -2.8 92.25 -2.8L92.45 -2.75L92.5 -2.45L92.35 -1.95L92.3 -1.5L92.55 -1.4L94.05 -1.55L95.2 -1.65L96 -1.65L97.4 -1.85L97.75 -1.95L97.9 -1.95L99.25 -2.05L99.55 -1.95L100.2 -1.85L102.15 -2.2L102.4 -2.25Q102.6 -2.25 103 -2.55Q104.45 -2.55 105.2 -0.55L106.05 1.45L106.9 1.15L109 0.85L110 1.2L110.75 1.5L110.85 1.55L111 1.55L112.4 0.2Q113.5 -1.3 113.85 -2.45L113.9 -2.5L113.95 -2.2Q113.95 -1.55 112.8 0L111.45 1.9L110.8 1.9L108.95 1.2L107 1.45L105.85 1.85L105.7 1.85Q105.25 1.55 105.2 1.05L105.25 0.8L105.25 0.35Q105.25 -0.25 104.65 -1.1L104.05 -1.7Q103.6 -2.1 103.15 -2.1L100.35 -1.55L99.25 -1.75L96.2 -1.55L94.8 -1.45L92.95 -1.05L92.25 -1.05L92.15 -1.1Q91.75 -1.25 91.9 -1.7L92.1 -2.2L92.05 -2.25L91.45 -1.3L91.4 -1.3L90.15 0.45L89.5 1.2Q87.35 3.8 86.2 3.8Q85.35 3.8 84.4 2.95L83 1.8L82.95 1.8M26.5,-0.55L27 -1.75L26.85 -0.4L26.45 0.55L25.85 1.95Q25.65 2.8 24.4 3.4L22.85 4L22.7 3.9Q23.1 3.3 24.3 2.9Q25.4 2.55 25.5 2.15L25.7 1.25L26.1 0.2L26.5 -0.55M77.95,-9.55L77.7 -9.5Q77.7 -9.3 78.4 -8.25L78.4 -8.2Q78.6 -9.3 78.95 -9.95L78.95 -10L78.5 -9.7L77.95 -9.55" />
<path style="fill:#FFFFFF;fill-opacity:1" d="M19.7,-6.45Q21.75 -6.75 21.75 -7.75Q21.75 -8.1 22.25 -8.25L23.1 -8.75L23.2 -8.75L23.2 -8.6Q23.2 -7.95 22.05 -7.75L22.15 -7.35L21.85 -6.75Q21.5 -6.25 21.1 -6.25L20.5 -6.45Q19.2 -6.45 18.4 -5.8L17.8 -5Q17.8 -4.5 19 -2.95L18.95 -2.85L17.95 -4.05Q17.6 -4.5 17.6 -5Q17.6 -6.1 19.7 -6.45M29.5,-2.1Q31.5 -1.2 31.7 -0.85L31.6 0.25L32.1 0.65L31.75 0.85Q31.25 0.85 31.3 0.25L31.45 -0.4Q31.45 -0.95 30.25 -1.4Q29.05 -1.8 29.05 -2.1L30 -2.85Q30.95 -3.4 30.95 -3.9Q30.95 -4.3 29.9 -4.75L28.85 -5.35L28.85 -5.45L28.9 -5.4L28.9 -5.45Q29.5 -5.1 30.5 -4.7Q31.2 -4.35 31.2 -3.85L30.75 -3L29.55 -2.15L29.5 -2.1M37.55,-6.65L37.9 -6.25L38.1 -5.75L38.05 -5.7Q37.7 -5.8 37.5 -6.2L37.1 -5.9L36.5 -5.7Q36.2 -5.7 35.85 -6.2L35.4 -6.7Q35.05 -6.7 34.3 -5.35Q33.55 -4 32.8 -4L32.4 -4.05L32.4 -4.25L32.6 -4.2Q33.55 -4.5 33.9 -5.1L34.4 -6.2Q35.1 -7.65 35.65 -7L36.5 -6.05L37.05 -6.35L37.55 -6.65M42,-0.55L41.9 -0.4L42.5 -0.3L42.6 -0.2L41.5 -0.1L41.45 -0.3Q41.45 -0.7 42.2 -0.9Q43 -1.1 43.65 -0.35L44.15 0.4L44.75 0.95L45.65 0.7L46.55 1L47.7 1.6Q48.15 1.9 48.1 2.15L48 2.8L47.75 4.4Q48.85 4.5 49.75 5.1Q50.7 5.75 51.45 5.9L51.55 6.05L51.15 6.2L49.95 5.7L48.7 4.95Q45.35 4.35 44.95 3.95L44.95 3.75L45.6 3.75L47.55 4.05L47.65 2.8Q47.65 2.15 46.85 1.7Q46.05 1.25 44.95 1.25Q44.4 1.25 43.8 0.3Q43.25 -0.7 42.5 -0.7L42 -0.55M57.95,-4.25L57.75 -4.25L57.7 -4.4L57.9 -5.4L58.3 -6.35L61.05 -5.9Q61 -7 62.1 -6.35Q63.8 -5.3 63.95 -5.3L63.9 -5.15L63.7 -5.05Q63.1 -5.05 62.65 -5.7L61.75 -6.35Q61.5 -6.35 61.35 -6L61.05 -5.65L59 -5.9L58.35 -6.1Q57.95 -6.1 57.95 -4.25M62.7,-2.15L62.35 -1.15L62.1 -0.05Q62.1 0.15 62.85 0.4Q63.75 0.7 63.95 0.95L64.3 2.15Q64.5 3.1 66.45 3.45Q68.35 3.75 68.35 4.05Q68.35 4.5 67.4 5.25L67.2 4.95L67.5 4.55L67.85 4.2L67.9 4.15Q64.1 3.9 63.95 2.2Q63.8 1.25 62.8 0.6L61.85 0L62.2 -1.2L62.65 -2.3L62.7 -2.15M70.3,-1.85L70.3 -2.05L71.3 -2.25L73.05 -2.45Q74.45 -2.45 74.95 -1.05Q75.55 0.55 76.8 1L76.45 1.2Q75.15 1.2 74.65 -0.5Q74.15 -2.2 72.6 -2.2L71.45 -1.95L70.8 -1.7Q70.45 -1.7 70.3 -1.85M82.45,-5.85L82.7 -6.15L84.2 -6.25L86.1 -6.05L85.45 -5.9L82.85 -5.75L83.1 -4.4Q83.1 -3.5 82.6 -2.85Q82.05 -2.2 80.7 -1.65L82.3 -3.1Q82.7 -3.55 82.7 -4.35L82.45 -5.85M98.65,-1.05L97.95 -1.05L98.05 -0.85L97.95 -0.8L97.85 -1.15Q99.25 -1.35 99.8 -0.65Q100.15 -0.3 100.15 0.25L99.75 1.5L100.3 2.1Q100.85 2.65 100.85 3.1Q100.7 4.2 101.65 4.65L101.45 4.7Q100.6 4.7 100.5 4.05L100.55 3.1Q100.6 2.6 100 2.25Q99.45 1.85 99.45 1.5L99.7 0.85L99.95 0.25L99.7 -0.45Q99.35 -1 98.65 -1.05M112.45,-5.5Q112.45 -4.45 108.85 -4.25Q108.5 -3.85 107.9 -2.3Q107.3 -0.7 107.3 -0.1L107.7 1.05L107.5 1.15Q107.25 1.15 107.1 0.55L107 -0.1Q107 -0.75 107.35 -1.7L107.95 -3.25Q108.4 -4.65 109.95 -4.7Q111.6 -4.75 112.35 -6.2L112.45 -5.5M98.25,5.65L94.75 3L94.1 3.15L93.6 3.3L91.75 2.45L90.75 1.9L90.9 2.05L90.85 2.1L90.65 1.9L89.6 1.8L89.55 1.6Q89.55 1 90.3 1.2L91.95 1.9L92.65 2.45Q93.25 2.95 93.6 2.95L94.25 2.8L94.8 2.65Q95.15 2.65 96.45 3.7L98.4 5.45L98.4 5.6L98.25 5.65M90.55,1.8L89.9 1.5L89.8 1.75L90.55 1.8M21.1,2.65Q21.6 2.7 21.6 3L20.8 4.3L22.75 4.85Q24.15 5.25 24.25 6.25Q25.6 6.35 26 6.85L26.55 7.7L26.3 7.85L25.85 7.45L25.4 6.85L24.05 6.3L23.8 6.05Q23.8 5.4 22.2 5.1Q20.6 4.75 20.6 4.3L21.5 3L21.5 2.95L21.45 2.8L21.05 2.75L21.1 2.65M10.75,2.95L10 2.9Q9.6 2.6 9.35 1.7Q9.15 0.85 8.55 0.5L7.05 0.55Q8.95 0.1 9.35 0.95L10.1 2.65L10.95 2.7L11.05 3.8Q11.15 4.5 12 5.3L13.45 6.65L14.85 6.85L17.1 7.15L17.15 7.25L16.4 7.4L14.1 7.3Q13.65 7.3 12.85 6.5L11.85 5.5L10.8 4.75Q10.25 4.2 10.75 3.8L10.75 2.95M6.05,0.9L5.9 0.85L6.4 0.7L6.05 0.9" />
</g>
</svg>
