<?xml version="1.0" encoding="utf-8"?>
<svg version="1.1" id="Layer_1"
xmlns="http://www.w3.org/2000/svg"
xmlns:xlink="http://www.w3.org/1999/xlink"
width="110px" height="33px"
xml:space="preserve">
<g id="474" transform="matrix(1, 0, 0, 1, 92.45, -227.35)">
<path style="fill:#3A1D0F;fill-opacity:0.85098" d="M17.45,253.6Q17.6 256.2 14.45 256.55L4 257.1Q-1 257.05 0.8 253.15Q0.85 253 1.1 252.95L1.15 252.75Q1.25 252.3 1.65 251.95L1.95 251.7L2.25 251.45L2.5 251.3Q2.95 251 3.5 250.8L4 250.7L4.3 250.6L4.3 250.55L15.9 251.9Q17.4 252.05 17.45 253.6M-78.05,234.4Q-78.55 237.75 -75.4 239.6Q-72.1 241.55 -69.2 243.9L-68.95 243.45L-66.75 245.55Q-65.85 246.45 -65.1 247.6L-64.7 248Q-64.35 248.4 -64.5 249.1L-64.5 249.2L-64.45 249.45Q-56.75 249.65 -49 251.25L-44.45 251.7Q-34.7 251.8 -25.15 251.45L-22.55 251.3Q-18.55 251 -14.6 252L-14.15 252.05Q-9.4 252.2 -10.4 256.95Q-10.6 257.9 -11.15 258.85Q-14.45 257.8 -18.2 257.75L-20.55 257.9L-27.05 258.1Q-28.15 258.05 -29.2 258.55Q-33.45 260.5 -37.75 259.1L-40.2 258.85Q-43.2 259.2 -46.05 258.05Q-53.5 255.05 -61.5 256.6Q-62.55 256.8 -63.3 256.1Q-63.65 255.4 -63.15 254.85L-62.35 253.95L-62.05 253.65L-61.6 253.05L-61.35 252.75L-65.55 251.9Q-67.05 254.2 -70.05 253.95Q-72.4 253.7 -74.55 254.9Q-75.9 255.65 -77.2 255.15Q-77.25 254.15 -76.55 253.55L-73.25 250.75Q-72.25 249.9 -72.25 248.5Q-75.5 247.7 -76.85 244.1Q-77.3 242.95 -78.45 243.05Q-90 243.75 -92.25 233.25Q-93.35 228.3 -88.5 227.4Q-87.1 227.1 -86.15 228.15Q-85.35 229 -84.85 230.1L-84 231.45Q-80.45 227 -78.4 231.75Q-77.85 233 -78.05 234.4M-6.45,252.95L-6.15 252.85L-3.35 253.1Q-2.2 253.3 -1.5 254.25Q-1.2 254.65 -1.15 255.15Q-1.3 255.65 -1.75 256.05Q-4.85 258.95 -6.85 255.7L-7.15 254.55L-7.25 253.35L-7.05 253.2L-6.7 253.05L-6.45 252.95" />
</g>
</svg>
