<?xml version="1.0" encoding="utf-8"?>
<svg version="1.1" id="Layer_1"
xmlns="http://www.w3.org/2000/svg"
xmlns:xlink="http://www.w3.org/1999/xlink"
width="39px" height="45px"
xml:space="preserve">
<g id="430" transform="matrix(1, 0, 0, 1, 2.75, 23.35)">
<path style="fill:#000000;fill-opacity:0.4" d="M17.05,-15.95L16.95 -15.95L16 -16.3L15.6 -16.45Q12.5 -14.95 10 -17.2Q7.65 -19.4 10.05 -21.9L11.75 -22.95Q14.2 -23.3 15.8 -21.75Q17.3 -20.2 17.95 -18.1Q18.35 -16.6 17.05 -15.95M1.7,-18.65L2.5 -18.2L2.75 -17.8Q2.65 -17.3 2.25 -17.05Q1.15 -16.35 -0.05 -15.95L-2.4 -15.85L-2.5 -16L-2.55 -16.15L-2.6 -16.25L-2.7 -16.55L-2.75 -17L-2.75 -17.1L-2.5 -17.35L-1.45 -18.05Q-0.5 -18.65 0.55 -18.75L1.7 -18.65M8.85,-2.8Q8.75 -1.5 7.9 -0.4Q7.35 0.25 6.6 0.7Q4.7 0.25 5.1 -1.8Q5.4 -3.4 6.9 -4.4L7.95 -5L8.3 -5L8.55 -4.9L8.7 -4.8L8.85 -2.8M30.1,-10.15L30.7 -10.5L31.2 -10.8L31.85 -11.3Q33.75 -11.25 33.4 -9.5Q33.15 -8.1 31.9 -7.2Q31.05 -6.55 30.1 -7.2Q30 -7.45 30.05 -7.75L30.05 -8.6L30.05 -9.75L30.1 -10.15M25.2,8.65L26.4 8.6L26.7 8.85L26.95 9.15L27.05 9.3L27.15 9.45L27.15 9.6L27.2 9.7L27.95 10L28.3 10.1L28.45 10.25L28.55 10.4L27.6 12.65Q26.15 15.65 22.4 14.1L20.65 13.55L20.45 14.05Q19.25 17 16.4 15.1Q15.6 14.55 15.15 13.6Q14.35 11.65 14.8 9.75Q15.1 8.7 15.9 8.1L16.6 8.15L16.75 8.2L16.85 8.25L16.9 8.35L17.05 8.55L17.2 8.7Q19.9 8.4 20.6 11.3L20.7 11.25L20.9 11.15L20.95 10.45L21 10L21.3 9.3Q21.7 8.7 22.4 8.55L22.6 8.5L23.75 8.85L25.2 8.65M4.8,9.25L5 9.4L5.1 9.55L5.2 9.85L5.25 9.95L5.35 10.25L5.4 10.35L6 10.2L6.15 10.05L6.25 9.95Q6.75 9.5 7.4 9.55L7.65 9.6Q7.95 9.85 7.9 10.3Q7.7 11.45 7.65 12.7Q7.65 14.15 7.15 15.45Q6.7 16.75 5.7 17.5L5.5 17.5L5.25 17.4L5.1 17.25L5.05 17.15L5 17.05L4.75 17.6L4.7 17.75L3.75 18.5Q3.25 18.7 2.75 18.5L1.6 17.05Q0.35 15.8 0.4 13.85L0.65 9.75Q0.7 8.95 1.35 8.75L2.3 8.95L4.55 9.2L4.8 9.25M8.3,17.25L9.15 17.3Q9.45 17.35 9.6 17.6L9.65 17.65L10 17.55Q10.35 17.35 10.7 17.55Q11.15 18.1 11 18.85Q10.7 20.6 8.9 21.35Q7.35 22 6.95 20.65L6.95 20.6L6.75 20.55L6.6 20.45L6.45 20.3Q6.4 20.05 6.5 19.85L6.85 18.95Q7.2 18.15 7.85 17.55Q8.05 17.3 8.3 17.25" />
<path style="fill:#000000;fill-opacity:0.4" d="M9.85,-21.7Q10.55 -23.25 12.3 -23.35Q18.7 -22.2 15.8 -16.95Q15.25 -15.95 14.05 -15.95Q7.25 -15.9 9.85 -21.7M11.4,-4.05Q16.15 -3.5 14 0.5Q13.05 2.3 11.15 1.15Q7.15 -1.3 10.9 -3.75L11.4 -4.05M33.4,-12Q34.05 -12 34.5 -11.6L35.3 -10.75L35.35 -10.6Q35.35 -9.9 34.7 -9.6Q32.1 -8.55 31.7 -10.75Q31.6 -11.35 32.1 -11.75L32.6 -12L33.4 -12M28.35,14.8Q23 17 22.2 12.15Q21.7 9.2 24.65 7.8L25.4 7.5Q31.15 7.75 29.8 13.1Q29.5 14.3 28.35 14.8M0.95,4.85L1.15 4.75L1.35 4.7L2.55 4.4L2.85 4.3Q10.4 5.1 8.45 11.85Q7.85 13.95 5.6 14.1Q-0.2 14.65 -0.5 8.95Q-0.6 6.7 0.8 5L0.95 4.85M7.4,16.6Q12.55 16.75 10.15 20.25Q8.75 22.3 6.45 20.85Q4.3 19.4 6.25 17.3L7.4 16.6" />
</g>
</svg>
