<?xml version="1.0" encoding="utf-8"?>
<svg version="1.1" id="Layer_1"
xmlns="http://www.w3.org/2000/svg"
xmlns:xlink="http://www.w3.org/1999/xlink"
width="37px" height="4px"
xml:space="preserve">
<g id="736" transform="matrix(1, 0, 0, 1, 28.55, -18.55)">
<path style="fill:#000000;fill-opacity:0.498039" d="M8.1,20.8Q8.1 21.55 3.5 21.95L-7.7 22.3L-18.75 21.5Q-23.35 20.85 -23.35 20.1Q-23.35 19.35 -18.75 18.9L-7.7 18.6L3.5 19.35Q8.1 20.05 8.1 20.8M-26.95,20.55L-27.8 20.45L-28.1 20.3L-28.55 19.8L-28.55 19.7Q-28.55 19.35 -28.1 19.1L-26.95 18.8L-25.8 19.05L-25.5 19.25L-25.3 19.65L-25.35 19.95L-25.8 20.25L-26.95 20.55" />
</g>
</svg>
