<?xml version="1.0" encoding="utf-8"?>
<svg version="1.1" id="Layer_1"
xmlns="http://www.w3.org/2000/svg"
xmlns:xlink="http://www.w3.org/1999/xlink"
width="35px" height="20px"
xml:space="preserve">
<g id="318" transform="matrix(1, 0, 0, 1, 0, 0)">
<path style="fill:#E2E2E2;fill-opacity:0.8" d="M34.5,9.2Q35.35 12.05 31.9 12.05Q27.45 12.1 23 13.2Q18.3 14.35 13.75 15.9L3.6 19.2L3.55 19.15L3.55 18.85L3.8 18.6L3.75 18.6L2.5 18.65L1.95 18.8L0.55 18.7L0.65 18.55L0.55 18.45L0 18.55L0.45 18.3L0.45 18.25L0.5 18.1L0.7 17.95L0.85 17.85L1.1 17.8Q1.75 17.05 2.95 16.45L4.65 15.55L12.45 10.1L16.95 6.65Q16.55 6 16.6 4.9Q16.75 2.05 19.5 0.6Q20.45 0.05 21.5 0Q25.25 0.8 24.1 4.25L23.95 4.7L23.8 5.25Q27.3 5.15 27.7 8.4Q29.8 7.55 32.15 7.5Q34 7.45 34.5 9.2M32.45,11.15Q33.05 11 33.25 10.5Q34.15 8.1 31.3 7.95L29.75 8.3L25.1 9.7L25.2 9.35L24.15 9.8L18.1 12L13.85 13.45Q16.85 11.8 20.15 10.7L25.2 9.05L25.75 7.85Q25.95 7.15 25.35 6.8Q22.25 5.15 19.65 8L19.65 7.6L16.7 9.95L12 12.9L11.75 12.95L12.6 12.1L9.95 13.55L9.7 13.55L15.6 9.6L19.15 7.4L19.7 7L19.7 6.6L19.65 6.25L19.55 6.05L20.05 5.95Q22.15 5.55 22.85 3.5Q23.8 0.9 20.65 0.8Q16.85 2.05 18.35 5.8L18.45 6.4L18.25 6.5L13.55 9.95Q11 11.65 9 13.7Q6.65 15.2 4.85 17.15L8.05 15.6L6.35 17.1Q11.3 15.65 16.5 13.8Q24.25 11.1 31.7 9.7Q30.15 11.6 32.45 11.15" />
<path style="fill:#E2E2E2;fill-opacity:0.498039" d="M31.7,9.7Q24.25 11.1 16.5 13.8Q11.3 15.65 6.35 17.1L8.05 15.6L4.85 17.15Q6.65 15.2 9 13.7Q11 11.65 13.55 9.95L18.25 6.5L18.45 6.4L18.35 5.8Q16.85 2.05 20.65 0.8Q23.8 0.9 22.85 3.5Q22.15 5.55 20.05 5.95L19.55 6.05L19.65 6.25L19.7 6.6L19.7 7L19.15 7.4L15.6 9.6L9.7 13.55L9.95 13.55L12.6 12.1L11.75 12.95L12 12.9L16.7 9.95L19.65 7.6L19.65 8Q22.25 5.15 25.35 6.8Q25.95 7.15 25.75 7.85L25.2 9.05L20.15 10.7Q16.85 11.8 13.85 13.45L18.1 12L24.15 9.8L25.2 9.35L25.1 9.7L29.75 8.3L31.3 7.95Q34.15 8.1 33.25 10.5Q33.05 11 32.45 11.15Q30.15 11.6 31.7 9.7" />
</g>
</svg>
