<?xml version="1.0" encoding="utf-8"?>
<svg version="1.1" id="Layer_1"
xmlns="http://www.w3.org/2000/svg"
xmlns:xlink="http://www.w3.org/1999/xlink"
width="23px" height="25px"
xml:space="preserve">
<g id="583" transform="matrix(1, 0, 0, 1, -0.9, -2.1)">
<path style="fill:#000000;fill-opacity:1" d="M15.9,4.2L16.1 4.3L16.1 4.1L15.9 4.2M16.3,4.05L16.15 4.65L16.25 5.35L16.6 5.75L16.9 8.2L17.35 8.35L19.15 11.2Q17.75 13.4 14.6 14.05L14.6 13.85L13.85 13.85L13.75 13.65L13.05 13.5L12.85 13.2L8.3 13.95L8.25 13.9L7.9 12.55L7.65 12.5L7.55 11.95L7.55 11.9L7.5 11.75L7.9 11.1L11.05 10.45L10.95 10.1L11.05 9.25L11.25 8.9L10.7 9.05L9.6 9L8.8 8.5L8.1 7.8L7.5 7.7L7.25 7L7.35 6.5L7.2 5.75L8.05 3.6L8.3 3.15L9.2 2.2L9.6 2.1L10.35 2.2L11.25 2.7L12.25 3.95L12.75 4.2L13.85 2.5L14.45 2.4L14.8 2.85L13.4 4.8L13.15 5.3L13.3 5.95L13.75 6.3L14.4 5.55L15.3 4.35Q15.85 3.75 16.3 4.05M16.05,4.75L15.8 4.45L14.05 6.45L15.95 7.55L15.7 5.8L16.05 4.75M13.15,5.8L13.2 5.9L13.3 5.95L13.15 5.8M8.1,16.35L8.2 15.8Q10.6 15.15 11.7 15.8L12.15 15.85L12 16.85L11.85 17.1L12.95 18.6L12.25 19.1L13.4 20.95L15.05 21.7L14.3 22.9L12.9 24.55L12.25 25.25L12.25 25.35L11.1 26.15L9.55 25.75L9.4 25.05L10.35 23.05L8.1 22.45L7.9 21.75L9.25 21.7L8.15 19.9L5.5 25.4L0.9 24.3L2 22.6L3.05 22.15L4 22.45L4.65 20.5L4.5 20.15L4.6 18.4L5 18.15L5.45 18.35L7.7 16.3L8.1 16.35" />
<path style="fill:#7E0000;fill-opacity:1" d="M21.55,16.15Q20.3 15.45 18.85 15.35L18.6 15.2L18.6 15.15L18.65 15L18.7 14.95L18.85 14.9L21.05 15.25Q22.15 15.55 23.15 16.05L23.25 16.1L21.55 16.15M16.4,15.15L16.45 14.95L16.55 14.9L16.7 14.8L16.9 14.85L17.4 14.95Q17.6 14.95 17.65 15.15L17.5 15.3L17 15.4Q16.7 15.4 16.45 15.2L16.4 15.15M15.5,15.3Q13.45 14.95 11.35 15.3L10.3 15.7Q10.1 15.8 10 15.6Q10.35 14.95 11.3 14.8L14.55 14.55L15.3 14.6L15.8 14.8L15.8 14.85L15.75 15L15.7 15.1L15.5 15.3M16.6,17.4Q15.9 17.7 15 17.15L13.4 16.25Q13.15 16.15 13.45 16.05L14.95 16.5L16.45 17.15L16.6 17.4M19.1,17.9Q19.8 18 20.05 18.65L20.05 18.7L18.85 18.6L17.9 17.7Q17.8 17.55 18 17.5Q18.5 17.8 19.1 17.9" />
</g>
</svg>
