<?xml version="1.0" encoding="utf-8"?>
<svg version="1.1" id="Layer_1"
xmlns="http://www.w3.org/2000/svg"
xmlns:xlink="http://www.w3.org/1999/xlink"
width="17px" height="28px"
xml:space="preserve">
<g id="1012" transform="matrix(1, 0, 0, 1, 0.75, 0.2)">
<path style="fill:#D9E9FF;fill-opacity:1" d="M14.3,7.8L14.25 7.6L13.7 7.4L13.9 7.25L14.05 7.25Q15.5 8.4 13.85 9.65L11.8 10.9Q11.4 11.1 11.15 10.9L11 10.75L11 10.5L11.1 10.25Q11.55 10.15 11.65 10.6L11.65 10.65L14.35 8.5L14.45 8.35Q14.3 8.15 14.3 7.8M12.95,6.2Q13.1 3.9 15.2 5.2Q13.85 4.8 13.4 5.8Q12.75 7.3 11.2 8.3Q10.4 8.85 9.85 8.85L9.6 10.15L9.5 10.35L7.45 9.65L6.7 11.15Q6.5 11.4 6.75 11.75Q7.8 13.25 5.8 13.5Q8.35 13.4 8.75 15.4Q10.1 14.8 11.75 15.1L12.05 14.9Q12.3 13.65 12.9 12.75L14.65 13.8L14.7 13.85Q13.85 14.1 13.05 13.25L13 13.25Q12.95 14.8 12.25 15.4Q12.95 15.8 12.25 17.05Q12.15 17.3 12.5 17.3Q14 17.35 14.65 18.3L15.55 18.1L14.15 18.15Q12.15 18.2 11.9 16.7Q11.85 16.4 12.05 16.15L12.3 15.65L12 15.55L10.3 15.7L8.75 15.65Q8.9 16.5 8.5 17.25L8.9 17.15Q9.95 17.55 9.3 18.85L9.4 18.95Q12.1 19.3 13.55 21.5L12.3 21.95Q12.75 22.1 12.9 22.75L12.8 23.25Q12 24.5 13.75 25.4Q14.15 25.6 13.75 26L13.1 26.75L14.2 27.15L14.2 27.2Q11.8 27.35 13.5 25.55L13.55 25.4Q11.6 24.7 12.4 23.15L12.75 22.55L11.55 22.15L10.45 22.4Q9.4 22.6 9.8 23.25L10.05 23.7L9.95 24.35Q11.65 25.4 9.4 26.5L8.75 26.6L8.55 26.45Q9.4 25.7 10.4 25.1Q9.25 24.85 9.7 23.85Q8.4 22.4 10.85 21.8L12.9 21.4L11.65 19.95Q9.7 19.85 8.95 18.55Q8.8 18.3 8.95 18.05L9.2 17.55L8.25 17.65L8.05 17.9Q7 19.05 6.1 17.65L5.7 17.15L4.6 18L4.55 18Q5.45 19.3 5.35 20.6Q5.3 20.95 5.4 21.3Q5.7 22.55 4 22.7L3.2 22.85Q4.1 23.95 4.45 25.25L4.45 25.45Q2.3 25.55 1.95 27.35Q1.3 25.8 3.5 25.3Q4 25.2 3.7 24.9Q3.7 24.65 3.95 24.55Q1.8 23.1 3.8 22.3L5.25 21.65Q4.7 20.9 4.8 20.05L5 19.6Q3.3 17.95 5.4 16.9Q4.85 16.55 4.15 16.55Q3.8 16.55 3.65 16.85Q3.05 17.95 2.2 16.95L1.75 16.5L-0.25 14.65L-0.35 16.05Q-0.3 16.25 -0.55 16.35Q-1 15.4 -0.3 14.45L0.1 14.4L1.65 15.9L2.85 17L3.2 17.1Q4.3 15.15 5.75 16.75L5.85 16.7L5.85 16.85L6.05 17.15Q6.9 18.3 7.6 17.9L7.9 17.55L8.3 16.85L8.55 15.65L8.15 15.7L8.55 15.5Q8.4 14.9 7.7 14.55Q6.6 14.05 5.55 13.65Q5.35 13.55 5.55 13.35Q6 12.8 6.85 12.75Q5.45 10.75 7.35 9.6L6.4 9L6.05 8.45Q5.85 6.75 4.7 8Q3.7 9.1 2.65 8.15Q2.1 7.65 1.9 6.8L1.7 6.3L1.05 6.3Q1.25 6 1.75 6Q2.3 7.25 3.2 8.15L3.75 8.2L5.45 7.2L6.05 7.25Q6.65 7.85 6.55 8.85L9.25 10.05Q9.2 9.2 9.5 8.8Q8.95 8.55 8.9 7.35L8.9 6.65Q8.85 5.35 7.9 4.35Q6.1 2.6 6.55 0.5L6.85 0.05L7.45 -0.2Q7.7 0.1 6.8 0.8Q6.3 1.2 6.65 1.9Q7.25 3.1 8.25 4.1Q9.45 5.25 9.2 6.85L9.2 7.65Q9.4 8.9 10.45 8.1L12.95 6.2" />
</g>
</svg>
