<?xml version="1.0" encoding="utf-8"?>
<svg version="1.1" id="Layer_1"
xmlns="http://www.w3.org/2000/svg"
xmlns:xlink="http://www.w3.org/1999/xlink"
width="55px" height="30px"
xml:space="preserve">
<g id="384" transform="matrix(1, 0, 0, 1, -69.95, 12.2)">
<path style="fill:#0B0B0B;fill-opacity:0.8" d="M88.1,-8.3L88.85 -7.7L94.35 -7.7L94.75 -7.8Q96 -7.8 95.7 -6.5Q95.7 -5.1 95.05 -4.35L91.85 -1.65L89.65 -0.25Q88.95 0.1 88.8 0.5L88.8 1.75Q88.65 2.65 87.55 2.65Q84.65 2.65 83.65 -0.1Q83.15 -1.45 83.2 -2.9Q83.2 -3.65 82.1 -4.3Q81 -5 81 -5.9Q81 -6.9 81.85 -7.45Q82.5 -7.9 83.3 -7.9L84.45 -8.2L86.25 -8.5L88.1 -8.3M104.15,13.55Q104.7 14.15 104.7 14.85L104.35 16.05Q103.9 16.95 103.2 16.95Q96.05 16.95 93.75 15.8Q92.35 15.1 92.35 13.3Q92.35 10.7 95.65 11.6Q97.35 12.05 99.8 13.05L100.7 12.85L101.6 12.65Q103.3 12.65 104.15 13.55M100.1,4.9L99.25 5.75L98.1 6.05Q95.9 6.05 93.45 4.35Q91.2 2.8 91.2 1.75L91.3 1.1L92.1 0.6L92.1 0.55Q92.1 -0.25 93.2 -0.25Q94.1 -0.25 94.3 0.35Q95.9 0.15 97.05 1.6L99 3.25Q100.1 4.1 100.1 4.9M85.4,11.65Q87.7 11.05 88.55 14.05Q88.55 14.65 88.05 15.15Q87.5 15.7 86.75 15.7L85.75 15.45Q85.55 15.15 85.3 15.15Q85.05 15.15 84.4 15.7Q83.75 16.25 83.1 16.25L82.05 15.9L81.3 15.5L78.95 15.9L76.05 15.7Q74.95 15.7 73.75 15.1Q72.65 14.55 72.65 14.2Q72.65 13.7 74.2 12.65Q75.7 11.6 76.3 11.6L76.45 11.6Q76.35 11.25 76.6 10.5Q72.55 11.3 70.9 9.2Q69.95 8.05 69.95 6.6L71.5 5.25L73.8 3.3L75.4 1.2Q76.05 0.35 77.1 0.35Q78 0.35 78.25 1.25L78.3 2.4Q78.3 4.45 85.5 6.25Q92.65 8.1 92.65 8.45Q92.65 9.85 89.4 10.75L85.3 11.45L85.4 11.65" />
<path style="fill:#0B0B0B;fill-opacity:0.6" d="M118.8,-11Q118.8 -11.8 121.6 -12.15Q124.35 -12.5 124.35 -11.15Q124.35 -9.45 121.85 -9.45Q120.15 -9.45 119.35 -10.1Q118.8 -10.5 118.8 -11M106.65,-2.65Q111.4 -1.6 111.4 0.4Q111.4 0.95 110.5 1.55Q109.55 2.15 108.65 2.15Q106.7 2.15 104.1 0.15Q101.85 -1.55 101.85 -1.95Q101.85 -3.75 106.65 -2.65M121.7,6.75L119.9 6.75L118.95 6.85Q116.75 6.85 116.25 6.15L116.15 5.35Q116.15 3.8 119.2 4.45Q122.25 5.1 122.25 6.05L121.7 6.75M117.2,16.4Q116.35 16.4 114.95 15.75L113.7 15.1Q113.7 12.75 116.4 13.4Q119.1 14.1 119.1 15.3Q119.1 16.1 117.2 16.4" />
</g>
</svg>
