<?xml version="1.0" encoding="utf-8"?>
<svg version="1.1" id="Layer_1"
xmlns="http://www.w3.org/2000/svg"
xmlns:xlink="http://www.w3.org/1999/xlink"
width="23px" height="11px"
xml:space="preserve">
<g id="978" transform="matrix(1, 0, 0, 1, 5.9, 8.5)">
<path style="fill:#000000;fill-opacity:0.85098" d="M6.1,-8.4L6.75 -8.2L7.2 -7.7L7.2 -7.3L7.15 -7.25L6.55 -6.75Q5.55 -6.15 4.35 -6.45L4.3 -6.5L4.25 -6.55L4.25 -6.65L4.25 -6.75L4.25 -6.8L4.2 -6.85L3.95 -7.2L4 -7.65Q4.2 -8.1 4.75 -8.35L5.25 -8.5L6.1 -8.4M9.95,-6.8L10.75 -6.6L11.35 -6.3L11.95 -5.7L12.2 -5Q11.85 -4.55 11.25 -4.85L9.75 -5.45Q9.15 -5.65 9.35 -6.3L9.95 -6.8M4.6,-2.55L5.55 -2.65L5.65 -2.7L5.7 -2.7L5.8 -2.65L5.9 -2.55L6.05 -2.6L6.35 -2.65L6.6 -2.65Q6.8 -2.4 6.6 -2.1L6 -1.2L5.45 -0.4L4.55 0.2L4.4 0.1L4.35 0L4.3 -0.05L4.25 -0.15L4.2 -0.2L4.2 -0.4L4.2 -0.5L4.25 -0.55L4.3 -0.6L4.35 -0.65L4.35 -0.7L4.3 -0.9L4.25 -1.05L4.2 -1.15L4.2 -1.2L4.15 -1.3L4 -1.55L3.95 -1.6L3.95 -1.7L3.95 -1.85L3.95 -2.1L3.95 -2.2L4.45 -2.45L4.6 -2.55M7.95,-3.45L8.05 -3.35L8.05 -3.3L8.05 -3.15L8 -3L7.9 -2.85L7.85 -2.8L7.9 -2.75L7.9 -2.7L8.15 -2.6L8.25 -2.55L8.25 -2.45L8.25 -2.3L8.15 -2.2L8.05 -2.05L7.95 -2.05L7.3 -2L6.85 -2.3L6.8 -2.4L6.75 -2.45L6.75 -2.55L6.7 -2.65L6.7 -2.8L6.7 -2.9L6.85 -3.1L7.15 -3.3L7.35 -3.45L7.45 -3.5L7.85 -3.45L7.95 -3.45M16.25,-7L16.2 -6.85L16.2 -6.8L16.15 -6.7L16.1 -6.65Q15.85 -6.4 15.5 -6.5L15.45 -6.45L14.2 -6.55L13.75 -6.85L13.75 -6.95L13.75 -7.05L13.75 -7.2L13.75 -7.3L13.75 -7.35L13.8 -7.4L13.9 -7.5L13.95 -7.55L14 -7.65L14.05 -7.65L14.15 -7.7L14.5 -7.7L15.5 -7.55L15.95 -7.45L16.2 -7.35L16.2 -7.3L16.25 -7.15L16.25 -7.1L16.25 -7M1.45,1.1L1.45 1.2L1.4 1.25L1.2 1.4L1.1 1.5L0.9 1.55L0.7 1.7L0.4 1.85L0.25 1.8L0 1.75L-0.2 1.65L-0.55 1.6L-1.05 1.15L-1.05 1.05L-1.05 1L-0.95 0.8L-0.9 0.75L-0.8 0.65L-0.6 0.5L-0.3 0.35L0.15 0.4L0.4 0.45L0.9 0.5L1.25 0.65L1.4 0.75L1.45 0.85L1.45 1.1M-0.55,-5.05L-0.35 -4.7L-0.4 -4.35L-0.55 -4.25L-1.55 -3.85Q-2.45 -3.55 -2.9 -4.2L-2.9 -4.25L-2.75 -4.5L-2.45 -4.8L-2 -5.15L-1.95 -5.15L-1.85 -5.2L-1.8 -5.15L-1.75 -5.15L-1.55 -5.25L-1.5 -5.25L-1.4 -5.3L-0.85 -5.25L-0.55 -5.05M-4.95,1.15L-5.25 1.3L-5.9 1.2L-5.9 1.1L-5.9 0.95L-5.85 0.75L-5.6 0.55L-5.45 0.5L-5.35 0.5L-5.3 0.5L-5.15 0.5L-5 0.6L-4.95 0.65L-4.9 0.75L-4.85 0.85L-4.85 0.95L-4.95 1.15" />
</g>
</svg>
