<?xml version="1.0" encoding="utf-8"?>
<svg version="1.1" id="Layer_1"
xmlns="http://www.w3.org/2000/svg"
xmlns:xlink="http://www.w3.org/1999/xlink"
width="18px" height="29px"
xml:space="preserve">
<g id="1026" transform="matrix(1, 0, 0, 1, 4.15, 8.35)">
<path style="fill:#FFFF00;fill-opacity:1" d="M4.65,-6.4Q3.9 -4.75 4.1 -2.95Q4.15 -2.6 3.8 -2.75Q2.9 -3.1 3.15 -4.1Q3.5 -5.5 4.45 -6.5L4.65 -6.4M1.4,-8.35Q2.55 -7.15 1.1 -6.15Q0.7 -5.85 0.8 -6.25L1.4 -8.35M0.95,-2.8Q1.75 -1.1 1.45 0.7L1.15 0.75Q0.2 0.15 0.35 -1.25Q0.45 -2.2 0.95 -2.8M2.2,-4.85Q2.85 -3.65 1.75 -2.5L1.45 -2.55Q1.15 -3.2 1.6 -4.1L2.2 -4.85M6.05,-0.55L5.8 0.2L4.65 0.25Q4.5 0 4.7 -0.25L6 -1.85L6.05 -0.55M10.75,11.55Q10.55 12.3 9.7 12.5Q9 12.65 9.4 11.95Q10.15 10.65 11.3 9.7Q11.55 10.2 11 11.05L10.75 11.55M8.3,2.3Q7.3 3.5 6.1 2.8Q5.8 2.65 6.1 2.4Q6.75 1.8 7.7 1.8L8.3 1.5L8.85 1.05L8.3 2.3M5.8,3.05L5.65 3.4Q5.25 4.6 4.5 3.65Q3.95 2.95 4.8 2.5L5.8 1.95Q6.1 2.25 5.8 3.05M6.45,5.35Q6 6.55 6.1 7.85L5.9 7.95Q4.5 7.95 5.1 6.65Q5.45 5.75 6.25 5.25L6.45 5.35M8,3.95Q8.75 4.95 8.8 6.2Q8.8 7.25 7.95 6.5Q7.5 6.15 7.75 5.6L8 3.95M3.35,1.55Q3.95 3.55 2.05 3.45Q1.75 3.4 1.8 3.05Q2.1 1.15 2.8 -0.5L3.1 0.8L3.35 1.55M0.9,3.8L0.75 3.3L0.8 3.15L0.9 3.15Q2.4 4.7 0.9 6.05Q0.75 6.15 0.65 5.95Q0.25 5.15 0.85 4.2L0.9 3.8M2.05,7.95Q2.4 8.35 2.2 9.2Q2.05 9.75 2.35 10.3Q2.55 10.65 2.2 10.95Q1.35 11.55 1.1 10.65Q0.9 9.9 1.25 9.25L2.05 7.95M10,6.7L10.35 9L10.1 9.4Q8.9 10 9.25 8.75Q9.55 7.65 10 6.7M6.75,8.85Q6.95 9.85 7.55 10.75L7.6 10.75L8.35 9.7Q8.65 12.15 6.6 13.75L6.35 13.95L6.4 14Q5.3 14.3 5.45 13L5.55 12.85Q5.2 12.3 5.35 11.45Q5.6 10.2 6.1 9.15L6.4 10.65L6.45 10.75L6.6 9L6.75 8.85M9.85,16.1Q11.05 15.3 11 13.7Q11 13.3 11.3 13.15L11.45 13.25Q11.25 14.65 11.4 16L11.2 16.45L9.65 16.5Q9.55 16.25 9.85 16.1M6.95,15.6L7.05 15.45Q8.25 17.4 6.55 19.05L6.3 19.35Q5.4 20.4 5.15 19.05Q4.85 17.45 6.15 17.15Q7.2 16.9 6.95 15.6M3.75,15Q3.15 16.3 2.5 15.25Q2.35 15 2.55 14.7Q3.05 14 3.05 13L3.1 13Q3.95 13.65 3.6 14.75L3.6 14.8L3.75 14.9L3.75 15M1.65,18.45Q1.8 18.95 1.35 19.25L-0.45 20.35Q-1.85 19.45 -1.15 17.55L-0.95 16.8Q-0.75 16.65 -0.55 16.8L-0.4 18L-0.35 18.1Q-0.1 16.8 0.75 15.85L0.8 15.8Q0.95 16.75 0.55 17.95L0.55 18Q1.45 17.8 1.65 18.45M2.1,17.1Q2.7 16.45 3.4 16.1L3.35 17.05Q3.25 18.35 2.1 17.4Q1.95 17.25 2.1 17.1M-1.55,0.75L-0.9 -1.55L-0.5 0.9Q-0.35 1.95 -1.3 1.35Q-1.65 1.15 -1.55 0.75M-0.45,5.6Q-0.2 6.55 -1.15 6.4L-1.65 6Q-2.4 4.05 -1.25 2.35L-0.75 4.45L-0.45 5.6M-3.8,7.5Q-1.5 8.75 -2.25 10.95Q-2.35 11.25 -2.7 11.2Q-3.6 11.15 -3.35 10.05L-3.1 9.65Q-2.85 9.8 -2.95 10.2L-2.95 10.5Q-2.75 9.05 -3.85 7.85Q-4.1 7.6 -3.8 7.5M-0.25,14.55Q-0.2 15 -0.65 14.95Q-2.1 14.85 -1.7 13.3L-1.05 11.55L-0.55 13.3L-0.25 14.55" />
<path style="fill:#FFFF00;fill-opacity:0.498039" d="M7.35,-6.2L7.4 -6.2Q7.05 -4.9 7.4 -3.7L7.25 -3.5Q6.4 -3.3 6.5 -4.3L6.75 -5.35L7.15 -6.25L7.35 -6.2M10.65,1.95Q11.1 2.3 10.8 2.85L10.8 2.95Q9.95 2.6 10.45 1.4L10.55 1.3Q10.8 1.55 10.65 1.95M12,4.5L11.75 6.25L11.75 6.3Q11.35 5.5 11.95 4.5L12 4.5M0.5,8.75Q-0.35 8.95 -0.95 8.1L-1.2 7L-1.15 6.9L-1.05 6.9L-0.35 7.35Q0.15 7.05 0.8 7.9Q1.35 8.6 0.5 8.75M-3.95,2.3Q-3.1 3.35 -3.8 4.1L-4 4.1Q-4.25 3.25 -4.05 2.4L-3.95 2.3" />
<path style="fill:#FFFF00;fill-opacity:0.2" d="M12.55,10.55L12.5 10.6Q12.3 9.75 12.9 9.05L12.55 10.55M-1.6,-5.4L-1.6 -5.35Q-2.2 -5.9 -1.9 -6.65L-1.6 -5.4" />
</g>
</svg>
