<?xml version="1.0" encoding="utf-8"?>
<svg version="1.1" id="Layer_1"
xmlns="http://www.w3.org/2000/svg"
xmlns:xlink="http://www.w3.org/1999/xlink"
width="115px" height="40px"
xml:space="preserve">
<g id="475" transform="matrix(1, 0, 0, 1, 93.5, -222.75)">
<path style="fill:#3A1D0F;fill-opacity:0.85098" d="M20.65,259.35Q15 259.85 9.35 261.7L8 262Q7.25 260.6 5.65 260.35Q3.15 260 1.05 258.65Q0.8 258.45 0.65 258.05Q1 255.9 2.75 254.35Q5.6 251.7 9.55 252.85Q9.5 255.15 11.65 254Q13.6 253 15.7 252.4L16.45 252.3L18.8 254.3Q19.9 255.5 20.35 257.1L20.65 259.35M-75.5,231.4Q-74.7 235.5 -78.7 236.65Q-81.65 237.5 -83.35 239.65L-83.45 240.05L-83.4 240.45L-82.15 241.6L-82.85 241.85L-82.85 242L-83 242.65L-83.1 242.8L-84.5 242.25Q-88.85 242.75 -91.4 238.1Q-93.75 233.75 -93.5 228.5Q-93.35 224.75 -89.9 223L-89.9 222.9Q-83.2 221.85 -83.9 227.6L-83.95 228.05Q-82.45 226.65 -80.5 226.15L-80.45 226.05Q-76.4 226.9 -75.5 231.4M-68.2,246.85L-66.35 247.35Q-65.5 247.5 -65.45 248.4Q-65.35 249.2 -65.8 249.9L-66.2 250.35L-66.65 250.75Q-67.55 251.5 -66.6 252.4L-66.5 252.7Q-71.3 256.75 -77.7 254.8L-81.9 254.25Q-82.1 254.3 -82.3 253.9Q-81.1 251.5 -78.25 250.55Q-74.05 249.25 -70.65 246.5Q-70.05 246 -69.5 245.8Q-69.05 246.5 -68.2 246.85M-50.15,258.2Q-52.75 258.35 -55.2 259.25L-55.65 259.5L-56.15 259.9Q-57.8 259.95 -59.25 259.3Q-60.6 258.7 -62.05 258.7Q-65.45 258.65 -68.1 257.25L-68.2 257L-68.15 256.65Q-68.1 255.95 -67.4 255.8L-66.4 255.5L-64.1 254.45L-63.25 254Q-62.5 253.55 -62.35 252.8L-61.8 251.8L-61.65 251.7L-60.5 251.25L-60.1 251.15L-59.55 251L-58.65 250.75L-58 250.55L-58 250.5Q-53.95 250.8 -50 251.65L-42.75 252.7Q-39.85 252.95 -38 255.45Q-30.85 255.3 -23.9 253.6Q-15.05 251.45 -8.35 255.45Q-6.5 256.55 -5.6 258.6Q-4.75 260.5 -6.15 262L-6.25 262.1L-8.4 261.9L-9.25 261.2L-10.1 260.5L-11.1 259.9L-12.55 259.15L-14.35 258.35L-14.75 258.65Q-15.05 259.15 -15.65 259.15L-17.75 258.95L-21.05 258.4L-21.8 258.35Q-22.2 259.75 -23.35 260.4Q-29.5 263.8 -35.9 261.75L-41.95 259.95Q-44.95 259.1 -48.45 259.35L-48.85 259L-49.25 258.6L-49.65 258.2L-50.15 258.2" />
</g>
</svg>
