<?xml version="1.0" encoding="utf-8"?>
<svg version="1.1" id="Layer_1"
xmlns="http://www.w3.org/2000/svg"
xmlns:xlink="http://www.w3.org/1999/xlink"
width="24px" height="25px"
xml:space="preserve">
<g id="1544" transform="matrix(1, 0, 0, 1, 11.85, 16.85)">
<path style="fill:#333333;fill-opacity:0.498039" d="M2.15,-14.85L3.7 -15.2Q6.75 -15.2 7.85 -13.3Q8.35 -12.4 8.35 -11.1Q8.35 -10.25 7.95 -9.25L7.1 -7.45Q9.25 -6.75 10.65 -5.5Q11.95 -4.35 11.95 -3.25Q11.95 0.3 6.55 -0.15Q6.85 0.6 6.1 2Q5.15 3.75 3.1 3.75Q2.05 3.75 1.7 3.15L1.35 2.25Q-2.1 3.95 -4.9 8.05L-5.35 8.05Q-5.5 8.25 -5.5 7.75Q-5.5 7.1 -5.1 6.2L-4.3 4.3L-4.3 4.15L-5.2 4.5L-5.9 3.85Q-5.9 3.4 -5.5 2.5L-6.65 3.8L-7.5 4.8L-7.85 4.75L-8 4.4Q-8 3 -6.8 1.5Q-5.6 0 -5.6 -0.4L-7.25 -0.85Q-9.25 -1.7 -10.8 -3.7Q-11.7 -4.85 -11.8 -5.65L-11.8 -7.6L-11.7 -9.15Q-11.5 -10 -10.9 -10.75Q-10.55 -11.15 -8.6 -11.65Q-7.3 -12.05 -7.6 -13.65Q-5.55 -17.7 -2.9 -16.6Q0 -14.55 1.3 -14.55L2.15 -14.85" />
</g>
</svg>
