<?xml version="1.0" encoding="utf-8"?>
<svg version="1.1" id="Layer_1"
xmlns="http://www.w3.org/2000/svg"
xmlns:xlink="http://www.w3.org/1999/xlink"
width="12px" height="12px"
xml:space="preserve">
<g id="886" transform="matrix(1, 0, 0, 1, -1.05, -7.85)">
<path style="fill:#000000;fill-opacity:1" d="M12.1,11.55Q13.1 13.05 12.85 14.85L11.9 14.9Q11.7 14.35 11.2 14.6Q10.25 14.8 9.75 15.35L9.6 15.7Q8.8 16.35 7.65 16.65L8.6 17.35L8.55 18.5L7.5 19.25L5.55 18.55L4.7 19.45L3 19.4Q1.35 18.7 1.1 17.15Q1 16.55 1.15 16.2Q1.6 15 2.9 14.85L2.45 12.3L1.95 11.6L2.4 10.3L3.05 10.1Q4.2 9.95 4.8 11L4.85 11.95L5.2 11.35L5.95 10.85L6.85 9.1L7.3 8.95L8 8Q8.95 7.65 9.6 8.2L9.95 9.05L10.2 10.1L10.2 10.85L9.15 12.3L11.9 11.25L12.1 11.55" />
</g>
</svg>
