<?xml version="1.0" encoding="utf-8"?>
<svg version="1.1" id="Layer_1"
xmlns="http://www.w3.org/2000/svg"
xmlns:xlink="http://www.w3.org/1999/xlink"
width="21px" height="10px"
xml:space="preserve">
<g id="975" transform="matrix(1, 0, 0, 1, 5.5, 7.4)">
<path style="fill:#000000;fill-opacity:0.85098" d="M6.1,-7.35L6.5 -7.1L6.9 -6.9L7.35 -6.65L7.3 -6.35L6.75 -5.65Q5.7 -4.75 4.2 -5.3L3.95 -5.45L3.95 -5.5L3.9 -5.6L3.9 -5.8L3.85 -5.85L3.7 -5.95L3.65 -6L3.55 -6.15L3.55 -6.25L3.55 -6.35L3.55 -6.5L3.6 -6.55L3.85 -6.8L4.25 -7L4.75 -7.2L5.45 -7.4L5.5 -7.4L6.1 -7.35M0.55,-4.85L0.85 -4.75L1.1 -4.55L1.25 -4.25Q1.3 -3.55 0.65 -3.25L-1.45 -3.2Q-1.9 -3.4 -1.75 -3.9Q-1.5 -5.05 0 -4.9L0.55 -4.85M5,-1.35L5.15 -1.7L5.4 -2.05L5.65 -2.35L6.95 -2.45L7.6 -2.5Q8.2 -2.15 7.8 -1.35L6.9 -0.2L5.65 -0.1Q5.15 -0.4 5.15 -1L5.15 -1.05L5.05 -1.1L5 -1.15L5 -1.35M9.85,-5.85L10.55 -5.65Q10.95 -5.55 11.15 -5.2L11.55 -4.5L11.7 -3.85Q10.7 -2.95 9.25 -3.45L8.7 -3.7Q7.65 -4.3 8.55 -5.05L9.15 -5.45L9.85 -5.85M12.2,-6.7L13.05 -6.95L13.15 -7L13.85 -6.9L14.3 -6.75L14.95 -6.6L15.4 -6.05L15.45 -5.8L14.95 -5.35L14.15 -5Q13.15 -4.5 12.4 -5.2L11.85 -5.7L11.85 -5.85L11.85 -6.2L11.9 -6.35L12.2 -6.7M1.75,1.2L1.8 1.25L1.75 1.6L1.35 2L0.05 2.2L-0.2 2.1L-0.2 1.85L-0.25 1.5L-0.25 1.2L-0.15 0.85L0.3 0.45L0.35 0.4L0.7 0.5L1 0.75L1.35 0.95L1.75 1.2M-3.95,-0.2Q-3.35 0.1 -3.65 0.6L-4.4 1.25L-5.35 1.2L-5.35 1.15L-5.45 0.85L-5.5 0.55L-5.45 0.15L-5.15 -0.25L-5 -0.35L-3.95 -0.2" />
</g>
</svg>
