<?xml version="1.0" encoding="utf-8"?>
<svg version="1.1" id="Layer_1"
xmlns="http://www.w3.org/2000/svg"
xmlns:xlink="http://www.w3.org/1999/xlink"
width="7px" height="12px"
xml:space="preserve">
<g id="644" transform="matrix(1, 0, 0, 1, -4.25, 0.75)">
<path style="fill:#000000;fill-opacity:1" d="M7.45,-0.4L7.95 -0.35L9.15 -0.15L9.65 0.1L9.65 0.65L8.85 2.35L8.05 3.65L8.6 3.8L9.65 3.9L11.15 4.4L11.2 5.2L10.8 7.3Q10.55 8.3 9.45 8.45L9.8 10.05L9.8 10.25L5.25 10.55Q5.25 10.1 5.4 9.7Q5.65 9 6.6 8.85L5.75 7.2Q5.45 6.55 5.45 5.9Q4.55 5.25 4.25 4.15Q4.15 3.75 4.5 3.3L5.85 1.45L5.75 0.75Q5.8 -0.25 6.85 -0.7L6.95 -0.75L7.45 -0.4" />
</g>
</svg>
