<?xml version="1.0" encoding="utf-8"?>
<svg version="1.1" id="Layer_1"
xmlns="http://www.w3.org/2000/svg"
xmlns:xlink="http://www.w3.org/1999/xlink"
width="8px" height="5px"
xml:space="preserve">
<g id="1109" transform="matrix(1, 0, 0, 1, 1.8, 1.15)">
<path style="fill:#C9C9C9;fill-opacity:1" d="M4.25,1.25L4.1 1.7L3.55 1.9Q3.2 1.9 3 1.7Q2.85 1.6 2.85 1.25Q2.85 0.9 3 0.75Q3.2 0.5 3.55 0.5Q3.85 0.5 4.1 0.75L4.25 1.25M1,0.75L1.2 1.25L1 1.7L0.4 1.9L-0.1 1.7L-0.2 1.25L-0.1 0.75Q0.1 0.5 0.4 0.5Q0.75 0.5 1 0.75" />
<path style="fill:#171717;fill-opacity:1" d="M1.95,-0.75Q2.65 -1.15 3.3 -1.15Q4.35 -1.15 5.05 -0.5Q5.8 0.3 5.8 1.35Q5.8 2.3 5.05 3Q4.35 3.75 3.3 3.75Q2.65 3.75 1.95 3.35Q1.4 3.75 0.7 3.75Q-0.35 3.75 -1.15 3Q-1.8 2.3 -1.8 1.35Q-1.8 0.3 -1.15 -0.5Q-0.35 -1.15 0.7 -1.15Q1.4 -1.15 1.95 -0.75M4.5,0Q4 -0.45 3.3 -0.4Q2.65 -0.35 2.2 0.15L2.05 0.4L1.7 0Q1.2 -0.45 0.5 -0.4Q-0.15 -0.35 -0.6 0.15Q-1.05 0.65 -1.05 1.35Q-1 2.05 -0.45 2.5Q0.05 2.95 0.7 2.9Q1.4 2.85 1.85 2.35L2.05 2.15L2.35 2.5Q2.85 2.95 3.5 2.9Q4.2 2.85 4.65 2.35Q5.1 1.85 5.05 1.15Q5.05 0.45 4.5 0" />
<path style="fill:#4D4D4D;fill-opacity:1" d="M5.05,1.15Q5.1 1.85 4.65 2.35Q4.2 2.85 3.5 2.9Q2.85 2.95 2.35 2.5L2.05 2.15L1.85 2.35Q1.4 2.85 0.7 2.9Q0.05 2.95 -0.45 2.5Q-1 2.05 -1.05 1.35Q-1.05 0.65 -0.6 0.15Q-0.15 -0.35 0.5 -0.4Q1.2 -0.45 1.7 0L2.05 0.4L2.2 0.15Q2.65 -0.35 3.3 -0.4Q4 -0.45 4.5 0Q5.05 0.45 5.05 1.15M4.1,0.75Q3.85 0.5 3.55 0.5Q3.2 0.5 3 0.75Q2.85 0.9 2.85 1.25Q2.85 1.6 3 1.7Q3.2 1.9 3.55 1.9L4.1 1.7L4.25 1.25L4.1 0.75M0.4,0.5Q0.1 0.5 -0.1 0.75L-0.2 1.25L-0.1 1.7L0.4 1.9L1 1.7L1.2 1.25L1 0.75Q0.75 0.5 0.4 0.5" />
</g>
</svg>
