<?xml version="1.0" encoding="utf-8"?>
<svg version="1.1" id="Layer_1"
xmlns="http://www.w3.org/2000/svg"
xmlns:xlink="http://www.w3.org/1999/xlink"
width="8px" height="9px"
xml:space="preserve">
<g id="1260" transform="matrix(1, 0, 0, 1, -0.25, 0.9)">
<path style="fill:#100806;fill-opacity:0.988235" d="M8,-0.4L0.25 -0.4L0.25 -0.9L8 -0.9L8 -0.4M8,1.75L0.25 1.75L0.25 0.95L8 0.95L8 1.75M8,4.2L0.25 4.2L0.25 3.4L8 3.4L8 4.2M7,5.85L6.25 6.65L0.25 6.65L0.25 5.85L7 5.85" />
<path style="fill:#C9EBFF;fill-opacity:0.988235" d="M2.9,2.6Q2.9 2.25 4.8 2.25Q5.9 2.25 5.9 2.6Q5.9 3 4.4 3Q2.7 3 2.9 2.6M4.4,4.8Q5.55 4.8 5.55 5.15Q5.55 5.55 4.2 5.55Q2.7 5.55 2.7 5.15Q2.7 4.8 4.4 4.8M4.4,0Q5.55 0 5.55 0.35Q5.55 0.75 4.2 0.75Q2.7 0.75 2.7 0.35Q2.7 0 4.4 0M4.4,7.15L5.5 7.35L2.8 7.35L4.4 7.15" />
</g>
</svg>
