<?xml version="1.0" encoding="utf-8"?>
<svg version="1.1" id="Layer_1"
xmlns="http://www.w3.org/2000/svg"
xmlns:xlink="http://www.w3.org/1999/xlink"
width="11px" height="10px"
xml:space="preserve">
<g id="1095" transform="matrix(1, 0, 0, 1, -30.9, -3.5)">
<path style="fill:#C9C9C9;fill-opacity:1" d="M41.15,7.15L40.65 7.25L39.9 7.05L37.1 7L36.85 6.85L35.1 6.65L34.4 6.45L33.65 6.3L33.65 5.8L31.3 6.4L30.9 6.2Q31.2 5.6 34.7 4.3Q38.25 3 38.25 3.75L37.7 4.4L36.3 5.05L36.55 5.4L36.35 5.75L37 6.4L39.8 6.45Q40.85 6.55 41.15 7.1L41.15 7.15M31.55,10.65L32.7 11L33.65 10.75Q34.8 10.75 36.85 11.7L39.25 12.9L39.5 13.05L39.25 13.2L37.1 12.65L34.3 12.35Q34.15 11.9 34.35 11.85L34.35 11.8Q31.1 11.7 31.1 11Q31.1 10.45 31.55 10.65" />
</g>
</svg>
