<?xml version="1.0" encoding="utf-8"?>
<svg version="1.1" id="Layer_1"
xmlns="http://www.w3.org/2000/svg"
xmlns:xlink="http://www.w3.org/1999/xlink"
width="29px" height="8px"
xml:space="preserve">
<g id="1171" transform="matrix(1, 0, 0, 1, -34.75, 1.8)">
<path style="fill:#2E2E2E;fill-opacity:0.694118" d="M44.7,-0.05Q45.1 0.85 47.25 1.85L50.7 3.5L50.5 3.8L50 3.85L48.4 3.6L46.2 3.3Q45.75 3.3 45.5 3.95Q45.25 4.55 44.4 4.55L43.05 4.4L42.6 3.85L40.55 3.65L39.1 3.85Q38.6 3.85 38.4 3.4L35.9 3.2L35.8 3.1L35.65 3.1L35.6 2.95Q35.05 2.4 35.05 1.95L35.1 1.55L35.05 1.55L35.1 1.5L35 1.25L34.75 1.1L35 0.95L35 0.75L35.4 0.8L36.7 0.6L38.9 0.55L40.25 0.4L41.35 0.15L42.75 -0.05L44.7 -0.05M47.35,-0.8L47.25 -0.8L47.1 -0.7L47.35 -0.8M50.05,-0.55Q49.6 0 48.75 0L48 -0.25Q47.8 0.2 46.5 0L45.85 0.05L45.6 0L45.5 -0.2Q45.5 -0.75 50.3 -1.8L50.35 -1.45L50.05 -0.55M63.35,1.1L63.6 1.3Q63.25 1.85 61.45 1.9L62.55 2.15L62.5 2.2L55.2 2.5L54.5 2.5L54.4 2.15L54.45 2.05L54.4 2.05Q54.1 2.05 54 1.85L52.15 1.8L48.7 1.6L48.45 1.55L48.4 1.35L48.45 1.1L54.65 1.05L54.8 0.95L57.15 0.95L57.75 0.85L60.55 0.85L60.7 0.95L60.9 1L63.35 1.1M51.6,5.25Q51.6 5.65 49.25 5.85L48 5.5L47.5 4.95Q47.5 4.55 47.8 4.5L49.8 4.55L51 4.85Q51.6 5 51.6 5.25M48.25,2.95L47.75 2.9L48.15 3.05L48.25 2.95" />
</g>
</svg>
