<?xml version="1.0" encoding="utf-8"?>
<svg version="1.1" id="Layer_1"
xmlns="http://www.w3.org/2000/svg"
xmlns:xlink="http://www.w3.org/1999/xlink"
width="37px" height="7px"
xml:space="preserve">
<g id="721" transform="matrix(1, 0, 0, 1, -11.7, -14.4)">
<path style="fill:#000000;fill-opacity:1" d="M46.4,14.45Q47.45 14.5 48.15 15.35Q48.7 16 48.4 16.65L48.3 17.15Q48.05 18.15 47.2 17.45Q45.55 16.1 46.1 14.4L46.3 14.5L46.4 14.45M43.8,18.15L43.8 18.4L41.75 18.25Q42.25 18.75 42.4 19.6L42.35 19.75L42.2 19.9L38.95 20.55L38.5 20.55L38.45 20.75L38.2 20.95L29.4 20.6Q27.8 20.25 28.25 18.75Q28.6 17.45 30.15 17.25L30.1 16.9L30.15 16.25L30.15 16.2L30.2 16.15L30.55 15.9L31 15.75L31 15.7Q31.6 15.55 32.05 15.95L32.3 16.2L32.8 16.05Q34.45 16.2 35.6 17.2L36.2 17.05L36.7 16.9L40.15 17.25L40.3 17.3Q39.5 16.65 39 15.65L38.85 15.3L38.95 15.25L39.05 15.15L39.35 15.1L39.4 15.1Q41 14.9 42.2 15.8Q43.45 16.65 43.8 18.15M23.7,17.7Q25 17.35 25.95 18Q26.95 18.6 27.25 19.75L27.3 19.85L27.3 19.9L27.4 19.9L27.5 19.95L27.6 20.05L27.6 20.1Q26.65 20.45 25.45 20.1L23.75 19.8Q21.8 19.65 20.4 20.75L19.7 20.95L17.45 21Q14.6 21.3 11.75 20.95L11.7 20.9L11.7 20.7L11.7 20.45L11.7 20.2L11.7 20.15Q14.35 19.05 17.4 19.35L17.9 19.2Q19 18.3 20.4 18.75L20.85 18.7L23.4 17.8L23.7 17.7" />
</g>
</svg>
