<?xml version="1.0" encoding="utf-8"?>
<svg version="1.1" id="Layer_1"
xmlns="http://www.w3.org/2000/svg"
xmlns:xlink="http://www.w3.org/1999/xlink"
width="83px" height="63px"
xml:space="preserve">
<g id="328" transform="matrix(1, 0, 0, 1, -3, 38.5)">
<path style="fill:#E2E2E2;fill-opacity:0.6" d="M28.1,-38.5Q36 -38.7 35.5 -31.25Q35.3 -28.5 32.3 -27.7Q28.35 -26.65 24.75 -28.65Q20.35 -25 17 -29.6Q16.6 -30.15 16.75 -30.9Q17.65 -35.15 22.1 -34.6L22.75 -35.2Q23.75 -36.5 25.15 -37.35Q26.55 -38.2 28.1 -38.5M25.35,-35.85Q24 -34.9 23.35 -33.45L23.3 -33.35Q23.1 -33.1 22.75 -33.05Q22.35 -33 22.05 -33.35L21.9 -33.65Q18.3 -33.5 18.25 -31.2L18.35 -31.3Q20.7 -28.2 24.5 -30.6L25.1 -31.15Q26.85 -29.8 29.45 -29.75Q33.15 -29.75 33.45 -33.2Q33.55 -33.9 34.1 -34.05Q32.7 -37.55 28.25 -37.1Q26.65 -36.75 25.35 -35.85M34.5,-23Q36.7 -26.15 40.35 -27.55L42.85 -28.05Q49.5 -27.25 49.2 -21.15Q49.05 -17.8 45.85 -16.1Q39.9 -13 35.1 -17.6Q32.4 -20.1 34.5 -23M37.4,-23.95L37.4 -24.05Q37.35 -24.2 37.45 -24.35L37.5 -24.5Q32.75 -21.5 36.9 -17.95Q39 -16.15 41.95 -16.45Q47.3 -16.95 47.85 -22Q48 -23.8 46.65 -25.1Q45.05 -26.6 42.8 -26.55Q41.3 -26.5 40.05 -25.75Q38.75 -25.05 38 -23.75L37.85 -23.65Q37.5 -23.65 37.4 -23.95M27.7,-3.9L28.5 -3.1Q31.5 -2.2 32.85 0.8Q34.1 3.5 32.65 5.2Q33.15 6.7 32.5 8.8Q31.7 11.5 29.1 12.7Q25.95 14.1 22.9 13.85L21.3 13.55L18.95 12.7L18.85 12.55L14 14.75Q9.45 16.65 5.05 17.75L5 17.65L4.95 17.55L4.95 17.45L4.95 17.35L5 17.2L5.15 17.1L5.25 17L4.9 17.05L4.5 17.1L4.2 17.1L4.1 17.05L4.1 16.9L4.2 16.6L4.35 16.25L4.6 15.9L4.85 15.65L4 15.95L3.4 16.1Q3.1 16.15 3 15.9L3 15.8Q3.3 15.4 3.8 15.2L6.1 14.3L6.3 14.2L6.2 14.2L5.4 14.3L4.9 13.9L4.85 13.6L4.85 13.5L4.3 13.65L3.4 13.7L3.15 13.4Q4.6 11.1 7.35 9.6Q12.15 7 16.6 3.75L16.8 3.55L16.5 2.1Q16 -0.75 17.8 -2.85Q19.5 -4.8 21.9 -5.45Q25.25 -6.05 27.7 -3.9M22.2,-3.95Q19.3 -3.35 18.35 -0.65Q17.5 1.55 18.2 3.8Q18.35 4.3 18 4.65L11.95 8.5L6.9 11.7L6.85 11.7L7.05 11.8L7.2 11.95L7.25 12.05L7.3 12.15L7.45 12.4L8.55 12.5L9.1 12.7L9.25 13.25Q9.25 13.75 8.9 14.05L7.9 15.1L7.8 15.2L7.8 15.3L7.85 15.45L7.95 15.55L7.95 15.65L8 15.75L8 15.9Q12.6 14.85 16.55 12.1Q18.6 10.7 20.65 11.3Q24.6 10.85 27.95 8.55Q29.3 7.65 29.25 6.05Q29.25 4.75 29.4 3.8Q28.25 3.2 26.65 3.35Q25.85 4.25 24.7 4.95Q23 6 21.65 4.95Q23 3.6 24.85 2.2Q26.7 0.8 26 -1.35L25.2 -3.75L22.2 -3.95M37.45,-2.65Q38.25 5.5 47.05 4.1Q49.35 3.7 50.25 1.5Q51.65 -2.15 49.05 -5.4Q46.85 -8.05 43.4 -7.6L42.45 -7.3L41.5 -6.95L41.2 -6.8Q39.4 -5.75 37.8 -3.95Q37.35 -3.4 37.45 -2.65M64.75,-28.65Q61.45 -28.05 59.25 -25.5Q57.15 -23.05 56.6 -19.85L56.55 -19.65Q61.25 -12.85 69.45 -15.4Q71.45 -16.05 72.9 -17.55Q77.15 -21.85 73.15 -25.9Q71.05 -28.05 67.95 -28.55L64.75 -28.65M56.2,-24.65Q59.2 -29.2 64.6 -30.2Q73.5 -31 76.2 -23.6Q77.05 -21.25 75.75 -19.05Q71.2 -11.3 62.25 -13.85Q55.75 -15.75 55.45 -22.1Q55.4 -23.45 56.2 -24.65M52.2,-1.5Q52.9 4.65 46.55 5.75Q40.9 6.75 37.7 2.35Q34 -2.65 38.3 -6.8Q40.35 -8.75 43.25 -9.2Q51.3 -9.25 52.2 -1.5M62.7,-8.3Q65.55 -11.65 69.85 -12.1Q78.2 -12.2 78.7 -4.45Q78.9 -1.35 76.3 0.5Q68.35 5.95 62.55 -1.6Q59.9 -5 62.7 -8.3M63.2,-2.15Q69.05 4.5 75.8 -1.25Q78.4 -3.5 77.05 -6.6Q75.05 -11.05 69.7 -10.6Q63.6 -9.8 62.55 -4.45Q62.3 -3.15 63.2 -2.15M82.55,8.5Q80 5.7 76.1 5.65L73.2 6.25Q71.7 6.65 70.65 7.7L70.5 7.85L70.3 7.85L70.05 7.75L69.95 7.7L69.8 7.6L69.75 7.65Q64.8 13.7 71.95 18.05Q78.45 22.05 83.1 16.4Q86.25 12.5 82.55 8.5M85.05,16.75Q78.9 24.5 70.45 18.75Q64.3 14.55 67.85 8.65Q69.5 5.95 72.55 4.9L76.1 4.1Q84.8 5.2 85.9 13.75Q86.1 15.4 85.05 16.75M63.6,14.95Q63.25 13.3 61.8 12.95Q61.45 12 60.55 11.55Q59.1 10.85 57.45 11.15Q55.9 11.5 54.75 12.5Q53.55 13.5 52.8 14.85L52.7 15.05Q53.8 18.65 57.7 19.85Q59.55 20.4 61.3 19.55Q64.35 18.15 63.6 14.95M63.65,22.15Q57.7 26.35 53.25 20.9Q49.3 16 53.85 11.7Q55.3 10.3 57.3 9.9Q65.4 9.15 66.15 16.65Q66.5 20.1 63.65 22.15M58.45,21.85L58.75 21.85L58.25 21.8L58.45 21.85M31.8,2.3Q31.35 -0.45 29.25 -1.8Q29.95 -0.2 29.4 1.7L29.2 2Q30.95 2.7 31.85 3.8L31.8 2.3" />
<path style="fill:#E2E2E2;fill-opacity:0.298039" d="M28.25,-37.1Q32.7 -37.55 34.1 -34.05Q33.55 -33.9 33.45 -33.2Q33.15 -29.75 29.45 -29.75Q26.85 -29.8 25.1 -31.15L24.5 -30.6Q20.7 -28.2 18.35 -31.3L18.25 -31.2Q18.3 -33.5 21.9 -33.65L22.05 -33.35Q22.35 -33 22.75 -33.05Q23.1 -33.1 23.3 -33.35L23.35 -33.45Q24 -34.9 25.35 -35.85Q26.65 -36.75 28.25 -37.1M37.85,-23.65L38 -23.75Q38.75 -25.05 40.05 -25.75Q41.3 -26.5 42.8 -26.55Q45.05 -26.6 46.65 -25.1Q48 -23.8 47.85 -22Q47.3 -16.95 41.95 -16.45Q39 -16.15 36.9 -17.95Q32.75 -21.5 37.5 -24.5L37.45 -24.35Q37.35 -24.2 37.4 -24.05L37.4 -23.95Q37.5 -23.65 37.85 -23.65M25.2,-3.75L26 -1.35Q26.7 0.8 24.85 2.2Q23 3.6 21.65 4.95Q23 6 24.7 4.95Q25.85 4.25 26.65 3.35Q28.25 3.2 29.4 3.8Q29.25 4.75 29.25 6.05Q29.3 7.65 27.95 8.55Q24.6 10.85 20.65 11.3Q18.6 10.7 16.55 12.1Q12.6 14.85 8 15.9L8 15.75L7.95 15.65L7.95 15.55L7.85 15.45L7.8 15.3L7.8 15.2L7.9 15.1L8.9 14.05Q9.25 13.75 9.25 13.25L9.1 12.7L8.55 12.5L7.45 12.4L7.3 12.15L7.25 12.05L7.2 11.95L7.05 11.8L6.85 11.7L6.9 11.7L11.95 8.5L18 4.65Q18.35 4.3 18.2 3.8Q17.5 1.55 18.35 -0.65Q19.3 -3.35 22.2 -3.95L25.2 -3.75M37.8,-3.95Q39.4 -5.75 41.2 -6.8L41.5 -6.95L42.45 -7.3L43.4 -7.6Q46.85 -8.05 49.05 -5.4Q51.65 -2.15 50.25 1.5Q49.35 3.7 47.05 4.1Q38.25 5.5 37.45 -2.65Q37.35 -3.4 37.8 -3.95M67.95,-28.55Q71.05 -28.05 73.15 -25.9Q77.15 -21.85 72.9 -17.55Q71.45 -16.05 69.45 -15.4Q61.25 -12.85 56.55 -19.65L56.6 -19.85Q57.15 -23.05 59.25 -25.5Q61.45 -28.05 64.75 -28.65L67.95 -28.55M62.55,-4.45Q63.6 -9.8 69.7 -10.6Q75.05 -11.05 77.05 -6.6Q78.4 -3.5 75.8 -1.25Q69.05 4.5 63.2 -2.15Q62.3 -3.15 62.55 -4.45M83.1,16.4Q78.45 22.05 71.95 18.05Q64.8 13.7 69.75 7.65L69.8 7.6L69.95 7.7L70.05 7.75L70.3 7.85L70.5 7.85L70.65 7.7Q71.7 6.65 73.2 6.25L76.1 5.65Q80 5.7 82.55 8.5Q86.25 12.5 83.1 16.4M61.3,19.55Q59.55 20.4 57.7 19.85Q53.8 18.65 52.7 15.05L52.8 14.85Q53.55 13.5 54.75 12.5Q55.9 11.5 57.45 11.15Q59.1 10.85 60.55 11.55Q61.45 12 61.8 12.95Q63.25 13.3 63.6 14.95Q64.35 18.15 61.3 19.55M31.85,3.8Q30.95 2.7 29.2 2L29.4 1.7Q29.95 -0.2 29.25 -1.8Q31.35 -0.45 31.8 2.3L31.85 3.8" />
</g>
</svg>
