<?xml version="1.0" encoding="utf-8"?>
<svg version="1.1" id="Layer_1"
xmlns="http://www.w3.org/2000/svg"
xmlns:xlink="http://www.w3.org/1999/xlink"
width="12px" height="6px"
xml:space="preserve">
<g id="654" transform="matrix(1, 0, 0, 1, 4.7, 12.7)">
<path style="fill:#191919;fill-opacity:1" d="M6.2,-7.9L6 -7.75L3.4 -7.95L0.8 -8.35L0.05 -8.8L-0.6 -9.05L-0.8 -9.25L-1.15 -9.4L-1.85 -10.1L-2.65 -10.75L-2.55 -10.95Q-2.4 -10.8 -1.75 -10.55L-1.05 -10.25L-0.95 -10.1L0.65 -9.55L1.35 -9.45L1.95 -9.4L2.7 -9.2L3.8 -9.1L4.2 -8.95L4.7 -8.9L5.3 -8.8L5.85 -8.6L6.2 -7.9M-2.95,-10.9L-3 -10.85L-3.25 -10.75L-3.65 -10.9Q-4.2 -11.05 -4.2 -11.5L-4.15 -12.1L-3.4 -11.8Q-2.9 -11.15 -2.95 -10.9" />
<path style="fill:#000000;fill-opacity:1" d="M5.85,-8.6L5.3 -8.8L4.7 -8.9L4.2 -8.95L3.8 -9.1L2.7 -9.2L1.95 -9.4L1.35 -9.45L0.65 -9.55L-0.95 -10.1L-1.05 -10.25L-1.75 -10.55Q-2.4 -10.8 -2.55 -10.95L-2.65 -10.75L-1.85 -10.1L-1.15 -9.4L-0.8 -9.25L-0.6 -9.05L0.05 -8.8L0.8 -8.35L3.4 -7.95L6 -7.75L6.2 -7.9L5.85 -8.6M6.6,-7.8Q6.4 -7.2 5.5 -7.35L2.85 -7.65L2.5 -7.75L1.5 -7.8L0.7 -7.8Q0.3 -7.95 0.25 -8.25L-0.1 -8.35L-0.2 -8.5L-1.95 -9.5L-2.8 -10.3L-3.55 -10.4Q-4.6 -10.75 -4.65 -11.65L-4.55 -12.5L-3.95 -12.6L-3.15 -12.15L-2.55 -11.5Q-2.1 -11.35 -1.9 -11.05L-1.55 -10.9L-0.8 -10.6L-0.65 -10.45L0.65 -10.05L3.8 -9.5Q5.7 -9.35 6.35 -8.75Q6.75 -8.3 6.6 -7.8M-3.4,-11.8L-4.15 -12.1L-4.2 -11.5Q-4.2 -11.05 -3.65 -10.9L-3.25 -10.75L-3 -10.85L-2.95 -10.9Q-2.9 -11.15 -3.4 -11.8" />
</g>
</svg>
