<?xml version="1.0" encoding="utf-8"?>
<svg version="1.1" id="Layer_1"
xmlns="http://www.w3.org/2000/svg"
xmlns:xlink="http://www.w3.org/1999/xlink"
width="19px" height="15px"
xml:space="preserve">
<g id="896" transform="matrix(1, 0, 0, 1, -1.75, -6.2)">
<path style="fill:#000000;fill-opacity:1" d="M10.95,6.8L11.8 8.6L12.4 10.45L12.4 10.65Q13.25 11.05 13.75 11.9L14.1 12.7L16.65 13.4L17.7 13.75L18.75 15L19.6 16.25L19.9 16.7Q20.25 17.7 19.8 18.6Q19 19.45 17.9 19.2L17.5 18.9Q17 18.2 16.8 17.15L16.6 16.65L15.95 15.8L14.05 15.15Q14.75 15.85 14.9 16.75Q15.05 18.1 14.15 19.05L12.95 19.75L11.15 19.8L9.9 18.75L9.55 18.15Q9.05 17.2 9.2 16.15L9.15 16.15L6.9 16.4L6.15 18Q6.95 18.55 6.35 19.35L5.3 20.3L5.2 20.35L4.1 20.35L3.3 19.5Q3.05 18.05 3.6 16.9L4.15 15.85L5.05 14.75Q6 14.05 7.15 13.75L7.7 13.6L7 12.15L5.3 11.1L3.9 10.25Q3.1 11.35 2.1 10.6L2 10.5Q1.6 9.7 1.9 8.7L1.9 8.6Q2.2 7.85 3.05 7.25L4.05 6.95L5.55 8L7.05 9.1L8.9 10.6Q9.2 10.9 9.5 10.85L8.7 9.3L7.95 8.8L7.75 8.7Q7.4 8.15 7.6 7.35L8.1 6.6L10.85 6.7L10.95 6.8" />
</g>
</svg>
