<?xml version="1.0" encoding="utf-8"?>
<svg version="1.1" id="Layer_1"
xmlns="http://www.w3.org/2000/svg"
xmlns:xlink="http://www.w3.org/1999/xlink"
width="6px" height="6px"
xml:space="preserve">
<g id="1092" transform="matrix(1, 0, 0, 1, -23.55, -6.05)">
<path style="fill:#2A2A2A;fill-opacity:1" d="M23.55,8.65Q23.55 7.6 24.25 6.8Q25.05 6.05 26.15 6.05Q27.2 6.05 27.9 6.8Q28.75 7.6 28.75 8.65Q28.75 9.7 27.9 10.45Q27.2 11.25 26.15 11.25Q25.05 11.25 24.25 10.45Q23.55 9.7 23.55 8.65M25.05,9.7Q25.5 10.15 26.1 10.15L27.15 9.7Q27.6 9.25 27.6 8.65Q27.6 8.05 27.15 7.6Q26.7 7.15 26.1 7.15Q25.5 7.15 25.05 7.6Q24.6 8.05 24.6 8.65Q24.6 9.25 25.05 9.7" />
<path style="fill:#989898;fill-opacity:1" d="M24.6,8.65Q24.6 8.05 25.05 7.6Q25.5 7.15 26.1 7.15Q26.7 7.15 27.15 7.6Q27.6 8.05 27.6 8.65Q27.6 9.25 27.15 9.7L26.1 10.15Q25.5 10.15 25.05 9.7Q24.6 9.25 24.6 8.65" />
</g>
</svg>
