<?xml version="1.0" encoding="utf-8"?>
<svg version="1.1" id="Layer_1"
xmlns="http://www.w3.org/2000/svg"
xmlns:xlink="http://www.w3.org/1999/xlink"
width="22px" height="4px"
xml:space="preserve">
<g id="760" transform="matrix(1, 0, 0, 1, 11.7, -18)">
<path style="fill:#000000;fill-opacity:0.498039" d="M8.25,20.4Q10.2 20.65 10.2 21L8.25 21.55L3.5 21.85L-1.2 21.55L-1.85 21.45L-3.05 21.65L-4.25 21.5L-4.65 21.3L-5 21.05L-5.6 21.3L-8.2 21.65L-10.75 21.3L-11.45 21.05L-11.25 20.65Q-11.25 20.35 -11.7 20.1Q-11.4 19.8 -10.75 19.6L-8.2 19.2L-6.3 19.4L-6.3 19.25Q-6.3 18.75 -5.2 18.4L-2.65 18L-0.05 18.4Q1.05 18.75 1.05 19.25Q1.05 19.75 -0.05 20.1L-0.8 20.3L-0.75 20.35L3.5 20.15L8.25 20.4" />
</g>
</svg>
