<?xml version="1.0" encoding="utf-8"?>
<svg version="1.1" id="Layer_1"
xmlns="http://www.w3.org/2000/svg"
xmlns:xlink="http://www.w3.org/1999/xlink"
width="30px" height="25px"
xml:space="preserve">
<g id="702" transform="matrix(1, 0, 0, 1, 12.6, 24.3)">
<path style="fill:#7E0000;fill-opacity:1" d="M11.9,-14.6L12.25 -14.6L12.65 -14.45L13.35 -13.4Q13.5 -12.95 13.15 -12.6L12.95 -12.6Q11.9 -12.6 11.65 -13.45Q11.5 -13.9 11.5 -14.3L11.6 -14.45L11.9 -14.6M1.55,-13.5L1.75 -13.4Q2.4 -13.05 2.25 -12.25Q2.15 -11.3 1 -11.55L0.9 -11.6Q0.35 -12.1 0.45 -12.85Q0.55 -13.65 1.55 -13.5M0.55,-5.2L0.7 -5.25L0.9 -5.3L1.1 -5.25L1.15 -5.25L1.3 -5.15L1.45 -4.45Q1.5 -3.5 1.7 -2.5L1.75 -1.7L2.1 -1.7L3.35 -1.7Q5.9 -1.9 6.3 -0.25L6.1 -0.1L3.35 -0.1L1.15 -0.25L1.1 -0.15L0.95 -0.25L0.45 -0.35L0.25 -0.35L-0.15 -0.15L-0.25 -0.15L-0.25 -0.05L-0.25 0.05L-0.3 0.15L-0.3 0.2L-0.5 0.25L-3.1 0.4L-3.65 0.2L-3.7 -0.15L-3.65 -0.5L-3.6 -0.55L-3.3 -0.65L-3.25 -0.7Q-3.8 -0.65 -4.2 -0.95Q-4.95 -1.45 -4.3 -1.9Q-3.5 -2.4 -2.4 -2.4L-0.1 -1.9L0.2 -2.75L0.45 -5.15L0.55 -5.2M16.45,-6.35L16.7 -6.35L16.9 -6.3L17.05 -6.25L17.15 -6.15L17.25 -5.95L17.4 -4.8Q17.45 -4.05 16.6 -4.1L16.45 -4.2L16.3 -4.45L16.3 -4.6L16.4 -4.65L16.05 -4.95L15.95 -5.75L16.05 -6.15L16.1 -6.25L16.45 -6.35M16.15,-10.05L16 -10.05Q15 -10.1 14.8 -11Q14.6 -11.9 15.55 -12.35L15.8 -12.15L16.3 -11Q16.45 -10.45 16.15 -10.05M13.7,-5.7L13.75 -5.45L13.75 -5.05L13.7 -4.9L13.2 -4.7L12.95 -4.75Q12.8 -4.9 12.8 -5L12.75 -5.3L12.65 -5.5L12.75 -5.55L12.95 -5.75L13.2 -5.85L13.5 -5.8L13.6 -5.75L13.7 -5.7M-9.8,-19Q-10.95 -18.95 -11.1 -19.95Q-11.2 -20.75 -10.75 -21.4L-10.7 -21.45L-10.5 -21.55L-10.25 -21.4L-9.25 -20.3Q-8.85 -19.45 -9.6 -18.95L-9.8 -19M-4.9,-24.3Q-3.05 -23.25 -4.25 -21.6Q-4.45 -21.3 -4.75 -21.45Q-7 -23 -4.9 -24.3M-11.1,-1.75L-11.05 -1.4L-11.05 -1.1L-11.05 -0.7L-11.25 -0.6L-11.65 -0.6L-11.95 -0.7L-12.35 -1.1L-12.6 -1.5L-12.55 -1.6Q-12.4 -1.9 -12.1 -1.85L-11.6 -1.95L-11.45 -1.95L-11.3 -1.9L-11.1 -1.75M-5.7,-4.4L-5.75 -4.6Q-5.9 -4.9 -5.65 -5.15L-5 -5.5L-4.25 -5.05L-3.6 -4.65L-3.5 -4.6L-3.45 -4.35L-3.5 -4.15L-3.6 -3.95L-3.65 -3.9L-4 -3.8L-4.05 -3.7L-4.4 -3.15Q-5.1 -2.6 -6.05 -2.95L-6.25 -3.25L-6.4 -3.9Q-6.25 -4.4 -5.7 -4.4" />
<path style="fill:#FFCBCB;fill-opacity:1" d="M12.45,-14.25L12.8 -13.85L12.8 -13.5L12.65 -13.5L12.2 -13.8L12.1 -14.2L12.1 -14.25L12.2 -14.25L12.35 -14.3L12.45 -14.25M1.15,-13.3L1.55 -13.5L1.75 -13.45L1.95 -13L1.9 -12.85L1.45 -12.7L1.15 -12.85L1.15 -12.9L1.15 -13.3M0.7,-4.55Q0.6 -4.85 0.95 -4.95L1.3 -4.4Q1.3 -3.95 0.8 -3.95L0.75 -4.1L0.7 -4.55M4.25,-1.15L2.6 -1.4Q2.8 -1.65 3.2 -1.65L4.15 -1.55L4.95 -1.25L5 -1.2L5.15 -1.15L5.7 -0.6L5.7 -0.55L4.95 -0.95L4.25 -1.15M15.5,-11.85L15.6 -11.9L16.05 -11.5L16.05 -11.05L16 -11.05L15.95 -11L15.75 -10.95L15.7 -11L15.25 -11.4L15.35 -11.8L15.4 -11.85L15.5 -11.85M13.2,-5.85L13.55 -5.55L13.3 -5.25L13.2 -5.25Q12.95 -5.35 12.95 -5.6L13.2 -5.85M16.8,-5.25L16.65 -5.3L16.45 -5.65L16.4 -5.9L16.45 -6.05L16.6 -6.15L16.7 -6.2Q17.15 -6.1 17.15 -5.65Q17.15 -5.35 16.8 -5.25M-4.25,-22.85Q-4.65 -22.75 -4.9 -23.1L-4.95 -23.5L-4.9 -23.55L-4.7 -23.65L-4.55 -23.75L-4.4 -23.6L-4.1 -23.25Q-4.1 -23.05 -4.25 -22.85M-9.9,-20.4L-10 -20.35L-10.35 -20.65Q-10.55 -20.95 -10.15 -20.95L-10 -20.95L-9.8 -20.65L-9.9 -20.4M-11.6,-1.65L-11.45 -1.65L-11.3 -1.55L-11.25 -1.5L-11.2 -1.45Q-11.3 -1.2 -11.6 -1.3L-11.65 -1.45L-11.6 -1.55L-11.6 -1.65M-5.3,-3.75L-5.1 -3.9L-4.9 -3.95L-4.7 -3.75Q-4.65 -3.45 -4.95 -3.45L-5.3 -3.7L-5.3 -3.75M-5.1,-4.95L-4.9 -5.05L-4.65 -5.05L-4.4 -4.85L-4.1 -4.55L-4.1 -4.45L-4.2 -4.4L-4.95 -4.55L-5.1 -4.85L-5.1 -4.95M-2.95,-1.75L-2.4 -1.8L-2.35 -1.8L-1.1 -1.55L-1.05 -1.5L-1.1 -1.5L-2.25 -1.45L-3.3 -1.5L-2.95 -1.75" />
</g>
</svg>
