<?xml version="1.0" encoding="utf-8"?>
<svg version="1.1" id="Layer_1"
xmlns="http://www.w3.org/2000/svg"
xmlns:xlink="http://www.w3.org/1999/xlink"
width="19px" height="15px"
xml:space="preserve">
<g id="894" transform="matrix(1, 0, 0, 1, -0.45, -5.55)">
<path style="fill:#000000;fill-opacity:1" d="M12.45,5.95L12.95 6.7L12.95 6.75L12.8 8.05L11.85 8.65L11.05 10.2L11.25 10.1L11.95 9.6L13.45 8.5L14.95 7.3L16.5 6.3Q17.1 6.25 17.5 6.6L18.65 7.95Q18.95 8.9 18.55 9.85Q18.15 10.3 17.55 10.25L16.65 9.6L15.25 10.45L13.55 11.5L12.85 12.95L13.95 13.3Q14.6 13.5 15.2 14L16.2 14.85L16.75 15.95L17.15 17Q17.65 17.85 17.25 18.85L16.45 19.7L15.35 19.7L15.2 19.6Q14.55 19.15 14.2 18.7Q13.7 17.75 14.4 17.35L14.25 17L13.65 15.75L11.4 15.5L11 17.3L10.6 18.05Q10.2 18.7 9.4 19.15L7.1 18.85L6.4 18.45Q5.55 17.45 5.7 16.1Q5.8 15.2 6.5 14.5L4.6 15.15L4 15.9Q3.75 16.25 3.65 16.7L3.05 18.25Q1.8 18.95 0.75 17.95Q0.25 17 0.65 16.05L1.15 15.25L1.6 14.6L2.35 13.6L2.85 13.1L3 13.05L3.9 12.75L6.45 12.05L7.1 10.85Q7.55 10.2 8.15 10L8.25 9.6L8.85 7.6L9.75 6L9.8 5.9L10.75 5.6Q11.6 5.45 12.45 5.95" />
</g>
</svg>
