<?xml version="1.0" encoding="utf-8"?>
<svg version="1.1" id="Layer_1"
xmlns="http://www.w3.org/2000/svg"
xmlns:xlink="http://www.w3.org/1999/xlink"
width="137px" height="80px"
xml:space="preserve">
<g id="817" transform="matrix(1, 0, 0, 1, 26.2, 1.4)">
<path style="fill:#000000;fill-opacity:1" d="M86,2.8L86.1 2.65L87.5 7L85.9 9.3L83.6 9.1L86 2.8M90.55,10.6L92.05 17.25L91.25 18.35L87.95 18.85L86.45 17.65L86.4 18.1L86.9 19.65L85.1 22.55L79.35 23.95L78.7 18.75L82 18L82.45 18.05L83.1 17.8L85.8 17.15L86.3 16.4L86.35 16.5L86.65 16.5L86.95 16.2L86.95 15.85L86.9 15.6L87.6 14.75L87.7 14.75L88.15 14.2L88.4 13.7L88.3 13.6L90.55 10.6M87.5,16.25Q87.35 16.5 87.35 17L87.55 17.3L88.1 17.45L88.6 17L88.75 16.65L88.7 16.45L88.5 16.05L87.95 16.1Q87.65 16.05 87.5 16.25M90.55,16.05L90.15 16.45L89.9 16.9L90.3 17.5L90.8 17.55Q91.2 17.45 91.25 17.2L91.4 16.75Q91.4 16.4 91.1 16.3Q90.9 16.05 90.55 16.05M84.6,18.25L84.2 18.6L84.05 19.1L84.3 19.45L84.45 19.5L84.95 19.4L85.5 19.25L85.4 18.7L85.45 18.7L85.3 18.25L84.6 18.25M83.65,20.6L83.2 20.9Q83.05 21.1 83.25 21.5Q83.2 21.7 83.5 21.9L83.9 21.9L84.5 21.75L84.6 21.35Q84.5 20.9 84.2 20.75L83.65 20.6M91.95,23.95L97.65 25.3L97.65 26.95L93.95 28.75L91.2 26.9L91 26.7L91.95 23.95M89.85,33.85L90 33.9L91.75 34.55Q91.65 34.6 91.85 34.9Q92.05 34.9 92.2 35.05L92.95 35.1L93.1 34.7L94.3 34.95L94.55 35.3L94.8 35.4L95.2 35.5L95.35 35.2L96.05 35.3L98.85 33.7Q99.2 33.7 99.25 33.55L99.55 33.2L107.8 28.2L110.05 32.85L100.7 38.65L97.45 37.7L96.45 36.4L96.4 36.2L96.3 36.4L96 38.25L93 40.05L86.6 38.4L88.45 33.6L89.5 33.8L89.85 33.85M93.15,36.75L93.25 36.95L93.5 37.25L93.9 37.4L94.6 37.5L94.7 37.05L94.65 36.75L94.65 36.55L94.1 36.25L93.5 36.3L93.15 36.75M97.9,35.2L97.45 35.6Q97.3 35.8 97.55 36.1L97.6 36.25L97.95 36.4L98.6 36.25L98.85 35.9L98.9 35.9L98.9 35.4L98.4 35.05L97.9 35.2M100.15,36.2L99.9 36.65Q99.8 36.95 99.85 37.35L100.4 37.5L100.9 37.35L101.3 37L101.25 36.4Q101.05 36.1 100.75 36.15L100.15 36.2M70.65,35.1L75.5 32.75L75.9 32.7L76.75 32.5L77.85 32.25L78.55 32.15L78.75 32.1L78.65 30.4L78.7 29.95L78.55 29.6L78.5 28.6L83.7 28.85L84.3 38.05Q84.1 37.8 83.9 37.9L84.55 38.65L85.95 40.25L84.75 43.45L82.05 47.65L81.6 48.3L81.4 48.25L81.35 48.25L81.3 48.25L81.25 48.25L81.1 48.2L70.6 35.15L70.65 35.1M90.85,62.35Q90.85 58.95 89.05 56.3L88.05 55.1L87.7 54.75L85.75 53.2L85.1 52.85L83.05 50.6L83.6 49.55L83.65 49.25L89.5 48.75L92.8 49.25L94.15 52.95L91.6 55.45L95.1 55.6L96.55 59.5L94.35 62L90.6 64.75L90.85 62.35M87.7,69.85L88.5 69L88.5 70.45L87.8 73.7L84.05 74.85L82.3 72.85Q85.35 72.25 87.7 69.85M73.25,71.75L75 71.7L75.85 72.1Q77.05 72.65 78.45 72.85L80.2 73L81.65 72.95L81.35 75.65L77.4 76.85L75 74.5L73.95 72.85L73.25 71.75M52.75,71.65L68.4 71.65L68.1 72.85L67.7 74.25L66.15 77.2L62.2 77.25L60.7 74.05L59.4 77.3L55.25 77.4L53.6 74.45L53.1 72.85L52.75 71.65M46.7,72.85L46.3 74.35L44.7 77.3L40.75 77.3L39.3 74.1L37.95 77.35L33.8 77.35L32.2 74.4L31.75 72.85L31.4 71.65L47.05 71.65L46.7 72.85M25.65,72.85L22.3 76.2L19.45 77.95L16.05 75.95L16.35 72.45L13.6 74.6L10 72.5L10.05 69.15L10.65 66.8Q11.4 68.45 12.8 69.85Q15.45 72.5 18.95 72.95L22.2 72.85L24.75 72.1L25.55 71.7L25.6 71.7L26.3 71.7L26.45 72.05L25.65 72.85M9.9,64.5L6.7 62.4L4.4 59.95L5.65 56.2L9.15 55.8L6.5 53.55L7.75 49.6L11.05 48.95L16.9 49.15L17.1 49.8L17.5 51.15L19.5 48.75L18.8 47.8L16.45 44.45L15.15 41.35L17.65 38.3L18.3 38.5L18.65 33.25L20.75 31.9L20.85 31.9L21.05 31.7L24.25 28L23.9 33.3L25.35 33.55L27.15 34.35L28 34.7L30.25 35.65L31.6 34L29.75 31.4L29.2 30.6L28.75 29.95L28.35 29L27.95 28L27.45 26.85L29.95 23.8L30.35 23.9L31.7 24.3L32.5 24.5L33.35 24.7L32.9 23.8L32.2 22.55L31.7 21.65L31.95 21.4L33.15 19.9L34 18.85L34.35 18.45L35.7 18.7L36.65 18.9L37.65 19.05L42.3 21.05L14.9 54.55L16.55 52.45L16.45 52.45Q15.95 52.6 15.55 52.85Q15.25 52.95 15.05 53.15L14.9 53.25Q14.1 53.6 13.4 54.25L11.05 57.05L10.6 58.05Q9.7 60 9.7 62.35L9.9 64.5M31.55,14.85L32.75 7L35.4 11.45L31.55 14.85M43.25,18.25L43.2 18.25L42.05 19.7L43.25 14.75L44.45 12.5L50.1 15.2Q46.1 15.4 43.25 18.25M50.25,15.2L56.8 13.5L57.35 14.5L58.7 18.8L58.2 18.15L57.85 17.8Q54.85 15.15 50.8 15.15L50.25 15.2M70.15,32.25L70.7 32.95L69.2 33.3L68.6 32.6L68.55 32.6L67.1 30.8L67.15 30.75L65.9 29.2L65.85 29.25L63.5 26.35L63.55 26.3L62.7 25.25L62.65 25.3L62.55 25.2L62.55 25.1L61.35 23.6L61.25 23.5L60.75 22.9L60.75 22.85L59.5 21.4L58.1 19.7L61.5 17.8L64.75 16.9L65.45 17.6L65.95 18.15L66.55 18.8L67.5 19.75L66.2 23.05L67.95 22.35L68.35 28.1L71.2 28.25L68.6 32.6L70.15 32.25M91.85,38.1Q91.6 38.2 91.5 38.6Q91.35 38.9 91.55 39.05L91.65 39.2L92 39.25L92.5 39.25L92.85 38.95L92.65 38.35L92.3 37.9L92 38L91.85 38.1M61.65,63.25L62.35 63.75L63.05 64.25L63.1 66.2L65.3 66.35L64.55 70.3L66.8 70.25L66.25 66.45L66.25 66.4L66.3 66.4L66.5 65.85L70.1 65.85Q70.85 68.1 72.6 69.85L73.2 70.35L73.55 70.65L72.5 70.55L72.35 70.35L61.5 70.35L61.35 63.15L61.65 63.25M56.15,65.85L60 63.05L60.15 70.35L56.55 70.35L55.95 65.85L56.15 65.85M55.25,65.85L54.3 70.35L45.45 70.35L44.85 65.85L55.25 65.85M41.3,63.95L43.9 65.85L44.15 65.85L43.2 70.35L40.15 70.35L40.1 64.15L41.3 63.95M34.85,65.85L37.5 64L38.75 64.15L38.8 70.35L35.2 70.35L34.7 65.95L34.7 65.85L34.85 65.85M27.9,69.85Q29.7 68.1 30.5 65.85L33.95 65.85L32.9 70.35L27.4 70.35L27.9 69.85M40.6,32.5L24.6 52.5Q22.6 51.65 20.35 51.65L18.9 51.75L20 50.55L19.75 50.55L22.15 47.65L25.8 49.95L23.05 46.55L25.35 43.8L29.1 46.8L29.95 45.8L26.2 42.75L28.7 39.75L32.25 42.05L29.6 38.65L34.25 33.05L38.1 35.45L35.25 31.85L37.5 29.15L41.4 32.3L40.6 32.5M42.65,26.35L42.25 31.3L38.3 28.15L40.8 25.15L42.65 26.35M42.75,25.25L41.75 23.95L43 22.5L42.75 25.25M56.85,24.15L56.4 20.6L56.8 20.4L57.1 20.7L57.75 21.4L58.15 21.95L58.4 22.25L56.85 24.15M57.65,30.1L57.05 25.55L57 25.2L57.05 25.2L59.5 23.65L61.55 26.35L57.65 30.1M75.8,50.8L71.05 44.85L70.65 44.35L68.7 41.95L68.65 41.2L68.05 41.1L67.15 40L66.95 39.95L65.35 38L65.45 37.85L64.85 37.1L62.25 33.9L62.05 34L59.9 31.35L59.95 31.35L59.4 31.25L58.6 31.05L60.1 29.65L62.4 27.45L62.7 27.85L62.7 27.65L64.9 30.4L62.05 33.85L65.85 31.55L71.15 38.1L68.5 41.05L72 39.15L74.3 42L71.05 44.85L71.95 45.85L75.15 43.05L77.65 46.15L75.2 48.75L78.4 47.05L82.25 51.85L80.2 51.65L77.5 52L76.9 52.15L76.5 51.65L75.8 50.8M69.55,61.5L69.75 60L70 59.2L69.8 60Q69.6 60.9 69.55 61.95L69.55 61.5M69.6,63.5L69.8 64.75L69.6 63.6L69.6 63.5M41.45,7.1Q41.45 6.9 41.25 6.85L41.1 6.85L40.85 6.25L40.55 4.6L42.35 1.75L42.4 1.75L57.75 -1.4L54.4 4.55L45.45 6.4L45.4 6.4L44.85 6.3Q44.65 6.4 44.4 6.6L44.3 6.6L42.6 6.9L42.45 6.7L42 6.6Q41.85 6.55 41.8 6.8Q41.6 6.95 41.7 7.15L41.45 7.1M51.8,12.55L52.1 12.95L52.2 13.15L52.25 13L52.45 11.75L52.9 10L52.95 9.75L53 9.75L53.2 9.65L54.15 9.4L52.25 13.45L52.15 13.5L46.1 11.85L46.1 11.8L46.3 11.2L46.75 11.05L48.9 10.5L50.2 10.2L51.1 11.6L51.8 12.55M43.05,2.6Q42.85 2.8 42.9 3.1L43.2 3.5L43.8 3.65L44.25 3.35L44.35 2.8L43.95 2.5L43.5 2.45L43.05 2.6M41.95,5.15L41.85 5.55L41.9 5.7L42.15 6L42.7 6L42.75 6L43.1 5.75Q43.4 5.55 43.3 5.35L43.2 4.95L42.95 4.8L42.7 4.75L42.5 4.75L41.95 5.15M80.1,37.9L80.05 37.9L79.9 38.2L80.3 38.1L80.1 37.9M18.45,13.05L18.7 13.1L19.05 12.95L19.3 12.6L25.35 11.75L25.4 11.7L25.2 16.9L21.1 17.45L18.45 15.45L18.25 13.55L18.25 13.35L18.4 12.9L18.45 13.05M20.85,15.35L20.8 15.9L21.05 16.35L21.4 16.5L21.65 16.45L22.1 16.2L22.25 15.65L21.85 15.15L21.4 15Q21.1 15 20.85 15.35M20.7,12.7L20.2 12.6Q19.9 12.6 19.7 12.9L19.6 13.5L19.9 13.8L19.95 13.85L20.05 13.95L20.45 14.05L20.75 13.95L21 13.7Q21.2 13.5 21 13.2L20.7 12.7M-5.45,17L1.2 21.5L2.75 26.9L-4.85 18L-5.15 17.9L-5.25 17.95L-5.45 17M-3.35,24.45L-3.95 22.6L-3.6 22.3L-3.55 22.15L-3.65 21.8Q-3.65 21.6 -4 21.35L-4.2 21.35L-4.95 19.2L3.3 28.95L3.65 30.2L4.85 30.8L11.4 38.5L11.7 38.6L12.1 38.55L12.15 38.3L12.45 40.75L10.4 39.6L10.35 39.4L10.1 39.05L9.4 39L9.4 39.1L8.05 38.35L8.1 38.35L8.1 38.25L8.5 37.85L8.55 37.3L8.55 37.2L8.3 37.05L8.1 37L7.65 36.9L7.65 37L7.35 37.3L7.2 37.85L2.85 35.6L1.9 32.2L2.45 31.35L2.9 31.5L3.2 31.15L3.35 31L3.4 30.7L3.35 30.5L2.9 30.1L2.9 30.05L2.4 30.1L2.15 30.4L2.15 30.45L2.05 30.7L1.1 31L-1.9 29.35L-3.35 24.55L-3 24.8L-2.7 24.9L-2.4 24.85L-2 24.45Q-1.85 24.25 -2 23.8L-2.3 23.5L-3.05 23.45L-3.25 23.85L-3.3 24.1L-3.35 24.45M10.1,33.45L12.15 37.95L6.9 31.8L10.1 33.45M1.5,28.35L1.1 28L0.55 28L0.3 28.3L0.15 28.75L0.1 28.95L0.55 29.3L0.6 29.3L1.05 29.3L1.5 28.9L1.5 28.35M4.65,32.1L4.5 32.05L4.15 32.25L3.85 32.55L3.75 32.65L3.75 33.2L4.15 33.45L4.7 33.55L5.05 33.2L5.05 33.15L5.2 32.65L5.15 32.6L5.1 32.45L4.85 32.1L4.65 32.1M6.55,34.25L6 34.25L5.7 34.7L5.5 35.1L5.6 35.25L6 35.6L6.35 35.65L6.45 35.6L6.8 35.2L6.95 34.95L6.95 34.65L6.75 34.4L6.55 34.25M-0.5,25.55L-1.05 25.6L-1.4 25.95L-1.55 26.5L-1.5 26.55L-1.2 26.85L-1.15 26.9L-0.65 26.95L-0.25 26.65L-0.15 26.5L-0.15 26Q-0.25 25.7 -0.5 25.55" />
<path style="fill:#0B0B0B;fill-opacity:1" d="M88.1,8.85L85.1 12.95L85.05 13.1L85 13.25L86.15 16.2L86.3 16.4L85.8 17.15L83.1 17.8L83.1 17.2L82.8 16.85L82.25 16.7L81.8 17.05Q81.6 17.25 81.65 17.55Q81.65 17.85 82 18L78.7 18.75L78.35 15.95L81.75 15.1L84.6 16.9L84.9 17.05L85.2 16.8L85.15 16.55L85.05 16.25L81.9 14.25Q81.85 14.1 81.55 14.25L83.6 9.1L85.9 9.3L87.5 7L88.1 8.85M88,11.1Q88 11.45 88.3 11.7L88.85 11.85L89.3 11.55L89.35 10.9L89.05 10.5L88.6 10.35Q88.25 10.45 88.25 10.7Q87.9 10.9 88 11.1M88.3,13.6L88.05 13.3L87.6 13.2Q87.25 13.2 87.15 13.5Q87 13.7 87 14.1L87.25 14.55L87.6 14.75L86.9 15.6L85.9 13.3L88.8 9.4L90.55 10.6L88.3 13.6M100.7,30.25Q100.4 30.4 100.4 30.6L100.2 30.6L100.35 31.15L100.85 31.5L101.25 31.4L101.6 31.05L101.7 30.95L101.6 30.4Q101.45 30 101.15 30.2L100.7 30.25M102.05,26.4L102.35 27.2L96.4 30.85L96.3 31.05L96.2 31.2L96.05 34.4L96.2 34.6L96.5 34.85L96.9 34.7L97 34.4L97.05 31.45L106.6 25.65L107.8 28.2L99.55 33.2L99.55 33.1L99.45 32.65L99.15 32.35L98.7 32.4L98.15 32.8Q98.05 33.15 98.35 33.4L98.75 33.7L98.85 33.7L96.05 35.3L95.35 35.2L95.2 34.85L93.4 31.85L93.15 31.65L89.5 30.8L91 26.7L91.2 26.9L93.95 28.75L97.65 26.95L97.65 25.3L102.05 26.4M90,33.9L90.45 33.9L90.8 33.3L90.65 32.95L90.15 32.45Q89.95 32.4 89.5 32.7Q89.3 32.7 89.2 33.05Q89.15 33.4 89.4 33.65L89.5 33.8L88.45 33.6L89.15 31.5L92.75 32.4L94.3 34.95L93.1 34.7L93.2 34.35L93.15 34.1L92.6 33.9L92 33.9Q91.75 34.1 91.75 34.55L90 33.9M81.1,48.2L81.25 48.25L81.3 48.25L81.35 48.25L81.4 48.25L81.6 48.3L82.05 47.65L83.6 49.55L83.05 50.6L81.1 48.2M80.2,73L78.45 72.85Q77.05 72.65 75.85 72.1L75 71.7Q85.55 71.35 88.05 68Q92.55 61.95 85.1 52.85L85.75 53.2L87.7 54.75L88.05 55.1L89.05 56.3Q90.85 58.95 90.85 62.35L90.6 64.75Q90.1 67.1 88.5 69L87.7 69.85Q85.35 72.25 82.3 72.85L81.65 72.95L80.2 73M73.95,72.85L68.1 72.85L68.4 71.65L71.95 71.65L72 71.75L73.25 71.75L73.95 72.85M53.1,72.85L46.7 72.85L47.05 71.65L52.75 71.65L53.1 72.85M31.75,72.85L25.65 72.85L26.45 72.05L26.3 71.7L29.2 71.75L29.3 71.65L31.4 71.65L31.75 72.85M9.7,62.35Q9.7 60 10.6 58.05L11.05 57.05L13.4 54.25Q14.1 53.6 14.9 53.25L15.05 53.15Q15.25 52.95 15.55 52.85Q15.95 52.6 16.45 52.45L16.55 52.45L14.9 54.55Q9.05 62.5 13.15 68Q15.6 71.25 25.55 71.7L24.75 72.1L22.2 72.85L18.95 72.95Q15.45 72.5 12.8 69.85Q11.4 68.45 10.65 66.8Q10.1 65.7 9.9 64.5L9.7 62.35M17.1,49.8L18.8 47.8L19.5 48.75L17.5 51.15L17.1 49.8M27.15,34.35L25.35 33.55L23.9 33.3L24.25 28L30 21.4L32.2 22.55L32.9 23.8L32.5 24.5L31.7 24.3L31.7 24.2L31.5 23.7Q31.3 23.55 31 23.55L30.45 23.7L30.35 23.9L29.95 23.8L27.45 26.85L27.95 28L27.85 28.35L28.05 28.85L28.35 29L28.75 29.95L29.2 30.6L27.15 34.35M35.4,11.45L37.6 15.2L35.7 18.7L34.35 18.45L34 18.85L33.7 18.8L33.15 18.95L32.9 19.4Q32.9 19.8 33.15 19.9L31.95 21.4L30.6 20.7L31.55 14.85L35.4 11.45M38.15,16.15L41 10.85L44.45 12.5L43.25 14.75L42.05 19.7L43.2 18.25L43.25 18.25Q46.1 15.4 50.1 15.2L50.15 15.2L50.2 15.2L50.25 15.2L50.8 15.15Q54.85 15.15 57.85 17.8L58.2 18.15L58.7 18.8L57.35 14.5L56.8 13.5L62.2 12.05L67.55 16.6L65.95 18.15L65.45 17.6L65.5 17.6Q65.8 17.6 66 17.4L66.2 16.9L66 16.4Q65.8 16.25 65.5 16.25L64.95 16.4L64.75 16.9L61.5 17.8L58.1 19.7Q55.05 16.7 50.8 16.7Q46.7 16.7 43.7 19.45L43.4 19.7L42.35 21L42.3 21.05L37.65 19.05L36.65 18.9L38.15 16.15M66.55,18.8L67.65 17.8L67.95 22.35L66.2 23.05L67.5 19.75L66.55 18.8M68.6,32.6L71.2 28.25L75.55 28.45L75.75 30.95L70.15 32.25L68.6 32.6M76.4,28.5L78.5 28.6L78.55 29.6L78.4 29.4L77.95 29.25Q77.5 29.25 77.45 29.45L77.35 30.1L77.65 30.6Q77.7 30.8 78.15 30.8L78.5 30.45L78.65 30.4L78.75 32.1L78.55 32.15L78.2 32.05Q77.8 32.15 77.85 32.25L76.75 32.5L76.65 31.45L76.65 31.2L76.6 31.1L76.4 28.5M106.45,27.45L106.05 27.1L105.45 27.25L105.05 27.75L105.1 28.25L105.55 28.55L106.15 28.4L106.5 27.9L106.45 27.45M103.05,28.7L102.7 29.15Q102.55 29.3 102.8 29.7L103.15 30.05L103.65 29.95L104.1 29.45L104 28.9L103.65 28.65L103.05 28.7M73.2,70.35L72.6 69.85Q70.85 68.1 70.1 65.85L66.5 65.85L67.05 64.1L69.6 63.6L69.8 64.75L69.6 63.5L69.6 62.65L69.55 61.95Q69.6 60.9 69.8 60L70 59.2L69.75 60L69.55 61.5L69.5 60.9L69.9 54.6L76.1 52.6L77 52.3L76.5 51.65L76.9 52.15L77.5 52L80.2 51.65L82.25 51.85L82.4 51.9Q92.25 63.1 87 67.4Q82.1 71.35 73.55 70.65L73.2 70.35M44.85,65.85L44.55 63.6L44.15 65.85L43.9 65.85L41.3 63.95L40.1 64.15L39.6 64.15L39.45 64.15L39.25 64.15L38.75 64.15L37.5 64L34.85 65.85L34.7 65.85L34.4 63.65L33.95 65.85L30.5 65.85Q29.7 68.1 27.9 69.85L27.4 70.35L27.15 70.6L27 70.7Q18.9 71.15 14.2 67.4Q8.95 63.1 18.9 51.75L20.35 51.65Q22.6 51.65 24.6 52.5L40.6 32.5L41.4 32.3L42.25 31.3L42.65 26.35L40.8 25.15L41.75 23.95L42.75 25.25L43 22.5L43.4 21.95L44.25 20.9L44.4 20.7Q47.05 18.1 50.8 18.1Q54.25 18.1 56.8 20.4L56.4 20.6L56.85 24.15L58.4 22.25L59.5 23.65L57.05 25.2L57 25.2L57.05 25.55L57.65 30.1L61.55 26.35L60.1 29.65L58.6 31.05L59.4 31.25L59.95 31.35L59.9 31.35L62.05 34L54.15 37.45L47.25 35.85L46.15 35.55L46.8 37L45.2 38.65L47.2 41L49.2 39.95Q51.05 41.6 53.3 42.25L53.4 44.7L56.6 44.9L56.95 43.85L58.05 45.9Q56.3 47.75 55.65 50.05L53.35 50.2L53.25 51.2L54.2 51.15L55.45 51.1L52.7 56.55L52.6 56.55L52.55 56.6L53.65 56.55L53.7 56.5L53.8 56.5L56.55 51L59.15 50.9L56.4 56.35L55.65 56.4L55.65 56.45L56.5 58.5L54.9 60.15L56.9 62.5L58.9 61.45L60.45 62.6L60.65 62.7L61.25 63.05L61.2 63.05L60 63.05L56.15 65.85L55.95 65.85L55.65 63.7L55.25 65.85L44.85 65.85M83.2,56.7Q81.8 55.9 80.05 55.9L78.75 56.1L80.05 62.25L80.05 56.65L80.15 56.65Q81.65 56.65 82.95 57.35L80.2 62.25L84.35 57.5L83.2 56.7M85.95,62.5Q85.95 64 85.25 65.3L80.2 62.55L85.05 66.6L85.75 65.55Q86.6 64.15 86.6 62.4L86.45 61.2L80.6 62.4L85.95 62.4L85.95 62.5M70.7,32.95L75.8 31.85L75.9 32.7L75.5 32.75L70.65 35.1L70.6 35.15L69.1 33.3L69.2 33.3L70.7 32.95M78.95,16.9L78.95 17.45L79.25 17.8L79.3 17.85L79.7 17.9L80.25 17.5L80.3 17.05L80.15 16.55L79.5 16.65Q79.2 16.6 78.95 16.9M52.95,5.45L52.7 5.6L52.7 5.7L52.55 6.2Q52.55 6.6 52.8 6.6L53.45 6.75Q53.8 6.7 53.95 6.4L54.05 5.95L53.9 5.65L53.7 5.45L53.1 5.4L52.95 5.45M54.4,4.55L54.75 6.7L45.15 8.6L42.6 6.9L44.3 6.6L44.2 7.05L44.5 7.5L45.1 7.6Q45.4 7.5 45.5 7.25L45.65 6.7L45.45 6.4L54.4 4.55M46.1,11.85L42.4 10.95L42.3 10.75L41.45 7.1L41.7 7.15L41.9 7.4L44.85 9.45L45 9.5L45.15 9.45L51.7 8.2L52.45 11.75L52.25 13L52.2 13.15L52.1 12.95L51.8 12.55L51.85 12.15L51.5 11.65L51.1 11.6L50.2 10.2L48.9 10.5L46.75 11.05L46.3 11.2L46.1 11.8L46.1 11.85M53,9.75L52.6 8.05L55.05 7.5L54.15 9.4L53.2 9.65L53 9.75M51.15,6.95L51.2 6.45L50.95 6L50.4 6L49.95 6.25Q49.75 6.5 49.85 6.75L50.1 7.2L50.65 7.3L51.15 6.95M48.15,6.55L47.65 6.5L47.5 6.65L47.15 6.8L47.05 7.3L47.25 7.8L47.35 7.75L47.9 7.9L48.35 7.6L48.45 7L48.15 6.55M50.6,19.8Q52.1 19.8 53.4 20.5L50.65 25.4L54.8 20.65Q54.3 20.15 53.65 19.85Q52.25 19.05 50.5 19.05L49.2 19.25L50.5 25.4L50.5 19.8L50.6 19.8M44.8,22.4Q44 23.8 44 25.55L44.2 27.05L50.35 25.7L46.25 30.45L47.35 31.25Q48.75 32.1 50.5 32.1L51.9 31.95L50.6 25.7L50.5 25.7L50.5 31.45Q48.9 31.45 47.65 30.7L50.45 25.7L50.35 25.7L50.45 25.55L44.75 25.55Q44.75 24 45.45 22.75L50.5 25.55L50.5 25.5L45.65 21.3Q45.1 21.75 44.8 22.4M56.65,24.4L51.05 25.55L55.75 25.55L56.35 25.65L56.4 25.6L56.4 25.65Q56.4 27.15 55.7 28.45L50.65 25.7L55.5 29.75L56.2 28.7Q57.05 27.3 57.05 25.55L56.65 24.4M66.3,39.85L66 40.95L64.75 38.7L65.35 38L66.95 39.95L66.3 39.85M44.65,48.7Q42.7 46.9 40.1 46.7L39.25 46.65L38.95 46.65Q36.15 46.7 34.05 48.55L33.5 49.05L33.4 49.15Q31.3 51.3 31.15 54.25L31.1 54.8L31.1 55.05Q31.15 58.1 33.25 60.35L33.5 60.55L33.85 60.85Q36 62.85 39.1 62.95L39.25 62.95L39.95 62.95Q42.75 62.65 44.85 60.7L45 60.55L45.55 60L46.75 58.1L45.75 58.25L45.15 59.2L44.6 58.15Q43.6 57.9 42.9 57.2L42.4 56.55L41.9 57.1Q40.9 58.1 39.6 58.1Q38.25 58.1 37.25 57.1Q36.3 56.1 36.3 54.8Q36.3 53.45 37.25 52.45Q38.25 51.5 39.6 51.5Q40.9 51.5 41.9 52.45L42.25 52.85L42.9 52L43.05 51.85L42.8 51.55L42.2 51L44.15 49.95L43.2 51.75Q43.85 51.2 44.65 51.05L45 50.3L45.5 50.95L46.5 51.1L45.4 49.5L45 49.05L44.65 48.7M58.9,42.4L57 43.7L57.35 42.6L58.9 42.4M71.9,29.9L71.4 29.75L70.85 29.9L70.6 30.4Q70.6 30.75 70.85 30.85L71.4 31.1L71.9 30.85L72.1 30.4L71.9 29.9M75,29.9L74.75 29.4L74.3 29.25L73.7 29.4L73.5 29.9L73.7 30.4L74.3 30.6Q74.55 30.6 74.75 30.4L75 29.9M63,42.8Q62.05 43.05 61.15 43.5L59.7 42.15L61.45 41.45L63 42.8M64.35,42.55L65.95 41.05L65.55 42.4L64.35 42.55M24,9.2Q23.7 9.2 23.65 9.35L23.55 9.45Q23.3 9.7 23.45 9.95L23.8 10.4L24.1 10.5L24.35 10.55L24.7 10.4L24.85 10.25Q25 9.95 24.8 9.8L24.5 9.2Q24.25 9.05 24 9.2M22.55,10.85L22.3 10.4L21.75 10.25L21.25 10.55L21.15 11.15L21.5 11.5L21.95 11.75L22.5 11.4L22.55 10.85M25.35,11.75L19.3 12.6L20.85 9.85L25.6 7.4L25.4 11.7L25.35 11.75M29.75,31.4L31.6 34L30.25 35.65L28 34.7L29.75 31.4M35.5,14.6L35.3 15.05L35.5 15.55L36.1 15.75L36.55 15.55L36.8 15.05L36.55 14.6L36.1 14.45L35.5 14.6M34.25,16.75L34.05 17.25L34.25 17.75Q34.55 17.95 34.8 17.95Q35.1 17.95 35.3 17.75L35.5 17.25L35.3 16.75L34.8 16.6L34.25 16.75M6.1,24.75L2.9 27.1L2.75 26.9L1.2 21.5L6.1 24.75M-11.8,22.2L-5.45 17L-5.25 17.95L-5.35 18L-5.5 18.3L-5.45 18.55L-4.95 19.2L-4.2 21.35L-4.55 21.4Q-4.8 21.5 -4.85 21.75L-5 22.4L-4.9 22.6L-4.55 22.8L-4.3 22.9L-4.2 22.8L-3.95 22.6L-3.35 24.45L-3.35 24.55L-1.9 29.35L1.1 31L2.05 30.7L2 31Q2.15 31.3 2.45 31.35L1.9 32.2L2.85 35.6L7.2 37.85L7.35 37.9L7.35 38.05L7.55 38.3L7.65 38.3L8.05 38.35L9.4 39.1L9.2 39.4L9 40L9.45 40.3L9.85 40.4L10.25 40.1L10.35 39.95L10.4 39.6L12.45 40.75L7.2 45.15L5.05 44.6L-11.4 24.75L-11.8 22.2M3.3,28.95L4.85 30.8L3.65 30.2L3.3 28.95M6.9,31.8L3.4 27.9L6.4 25.5L10.1 33.45L6.9 31.8M-10.9,28.6L-10.55 29.1L-9.3 30.5L-10.1 31.1L-10.9 28.6M-9.6,32.8L-8.4 31.7L-5.4 35.25L-5.35 35.35L-4.55 36.15L-4 36.9L-2.45 38.85L-6.8 42.35L-9.6 32.8M-6.65,42.75L-1.5 40.2L1.6 43.95L-4.85 49.3L-6.65 42.75M26.8,30.05L26.6 30.5L26.8 31L27.35 31.2L27.85 31L28.05 30.5L27.85 30.05L27.35 29.9L26.8 30.05M25.55,32.2L25.35 32.7L25.55 33.2L26.1 33.4L26.6 33.2L26.8 32.7L26.6 32.2L26.1 32.05L25.55 32.2M38.75,47.5L37.75 50.5L34.9 48.95Q36.5 47.65 38.75 47.5M39.6,50.2L38.75 50.3L39.5 47.9L40.2 50.3L39.6 50.2M36.35,51.55L35.95 52.1L34.75 49.95L36.9 51.05L36.35 51.55M32.8,54.65L35.1 53.95L35.05 54.8L35.1 55.4L32.85 54.7L32.8 54.65M35.4,52.9L32 53.95Q32.2 51.7 33.85 49.95L35.4 52.9M33.7,59.55Q32.1 57.65 31.95 55.35L35.3 56.35L35.3 56.45L33.7 59.55M37.9,59.05L38.8 62.1Q36.35 61.95 34.6 60.4L37.5 58.85L37.9 59.05M36.35,58L36.7 58.35L34.8 59.35L35.85 57.4L36.35 58M40.15,59.35L39.5 61.3L38.9 59.3L39.6 59.35L40.15 59.35M25.85,59.05Q25 57.65 23.5 56.75Q22.9 56.4 22.25 56.3L20.3 62.3L23.1 57.4L23.15 57.45Q24.5 58.2 25.25 59.45L20.4 62.35L26.4 60.3L25.85 59.05M26.4,64.55L20.75 62.7L25.35 65.35L25.3 65.4Q24.55 66.75 23.3 67.5L20.3 62.55L22.45 68.55L23.55 68Q25 67.15 25.9 65.65L26.4 64.55M20.3,62.35L18.2 56.3Q17.45 56.4 16.9 56.8Q15.45 57.65 14.6 59.15Q14.2 59.8 14.05 60.55L20.1 62.45L14.1 64.5L14.65 65.7Q15.5 67.2 17 68.05L18.25 68.65L20.25 62.55L20.2 62.5L17.3 67.5Q15.9 66.7 15.2 65.4L20.15 62.45L20.1 62.45L20.2 62.35L15.25 59.55Q16 58.2 17.25 57.45L20.25 62.4L20.3 62.35M74.35,59.25Q73.55 60.65 73.55 62.4L73.75 63.9L79.9 62.55L75.8 67.3L76.9 68.1Q78.3 68.95 80.05 68.95L81.45 68.8L80.15 62.55L80.05 62.55L80.05 68.3Q78.45 68.3 77.2 67.55L80 62.55L79.9 62.55L80 62.4L74.3 62.4Q74.3 60.85 75 59.6L80.05 62.4L80.05 62.35L75.2 58.15L74.35 59.25M66.8,52.55L67 55.8L65.75 55.9L65.15 55.9L66.8 52.55M64.05,50.6L64.45 50.6L66.7 50.5L66.7 50.65L64.05 55.95L61.3 56.1L64.05 50.6M60.3,50.8L62.95 50.7L60.2 56.15L57.55 56.3L60.3 50.8M61.65,63.25L63 63.75L63.05 64.25L62.35 63.75L61.65 63.25M51.65,51.3L48.9 56.75L48.85 56.75L48.8 56.8L49.9 56.75L49.95 56.7L50.05 56.7L52.8 51.2L51.65 51.3M47.9,51.8L47.85 51.8L48.5 52.75L49.15 51.4L48 51.5L47.9 51.8M47.35,52.8Q46.55 52 45.5 52Q44.55 52 43.85 52.6L43.6 52.8Q42.9 53.55 42.9 54.6L42.9 54.8Q42.95 55.75 43.6 56.5L43.8 56.7Q44.55 57.2 45.5 57.2L46.25 57.1L46.75 56.95L47.35 56.5Q48.1 55.7 48.1 54.6L47.95 53.7L47.35 52.8M47.15,53.15L47.75 54.2L47.75 54.6Q47.75 55.5 47.05 56.15L46.45 56.65L45.5 56.85L45.3 56.85Q44.55 56.75 44.05 56.25L43.95 56.15Q43.25 55.5 43.25 54.6Q43.25 53.6 43.95 53.05L44 53Q44.65 52.35 45.5 52.35Q46.5 52.35 47.05 53.05L47.15 53.15M42.8,58L43.25 57.6L44.15 59.35L42.4 58.45L42.8 58M41.55,58.95L44.15 60.35Q42.4 61.75 40.2 62L41.15 59.15L41.55 58.95M41.2,50.5L40.35 47.55Q42.25 47.85 43.85 49.1L41.2 50.5M-5.5,20.35Q-5.35 20.05 -5.5 19.75L-5.8 19.4L-6.4 19.3L-6.7 19.75L-6.8 20.35L-6.45 20.7L-5.95 20.7Q-5.6 20.6 -5.5 20.35M-23.9,57.5L-26.2 58.55L-25.35 42.7L-23.05 43.9L-23.9 57.5M-12.1,49.3L-6.1 52.25L-12.7 51.8L-13.1 59.25L-21.85 57.3L-21.5 44.7L-21.35 44.7L-12.55 49.1L-12.8 51.6L-12.1 49.3" />
<path style="fill:#8B5F3D;fill-opacity:1" d="M81.55,14.25Q81.85 14.1 81.9 14.25L85.05 16.25L85.15 16.55L85.2 16.8L84.9 17.05L84.6 16.9L81.75 15.1L78.35 15.95L78.15 15.05L81.55 14.25M82,18Q81.65 17.85 81.65 17.55Q81.6 17.25 81.8 17.05L82.25 16.7L82.8 16.85L83.1 17.2L83.1 17.8L82.45 18.05L82 18M85.9,13.3L86.9 15.6L86.95 15.85L86.95 16.2L86.65 16.5L86.35 16.5L86.3 16.4L86.15 16.2L85 13.25L85.05 13.1L85.1 12.95L88.1 8.85L88.8 9.4L85.9 13.3M88.25,10.7Q88.25 10.45 88.6 10.35L89.05 10.5L89.35 10.9L89.3 11.55L88.85 11.85L88.3 11.7Q88 11.45 88 11.1Q87.9 10.9 88.25 10.7M87.25,14.55L87 14.1Q87 13.7 87.15 13.5Q87.25 13.2 87.6 13.2L88.05 13.3L88.3 13.6L88.4 13.7L88.15 14.2L87.7 14.75L87.6 14.75L87.25 14.55M87.95,16.1L88.5 16.05L88.7 16.45L88.75 16.65L88.6 17L88.1 17.45L87.55 17.3L87.35 17Q87.35 16.5 87.5 16.25Q87.65 16.05 87.95 16.1M91.1,16.3Q91.4 16.4 91.4 16.75L91.25 17.2Q91.2 17.45 90.8 17.55L90.3 17.5L89.9 16.9L90.15 16.45L90.55 16.05Q90.9 16.05 91.1 16.3M85.3,18.25L85.45 18.7L85.4 18.7L85.5 19.25L84.95 19.4L84.45 19.5L84.3 19.45L84.05 19.1L84.2 18.6L84.6 18.25L85.3 18.25M84.2,20.75Q84.5 20.9 84.6 21.35L84.5 21.75L83.9 21.9L83.5 21.9Q83.2 21.7 83.25 21.5Q83.05 21.1 83.2 20.9L83.65 20.6L84.2 20.75M101.15,30.2Q101.45 30 101.6 30.4L101.7 30.95L101.6 31.05L101.25 31.4L100.85 31.5L100.35 31.15L100.2 30.6L100.4 30.6Q100.4 30.4 100.7 30.25L101.15 30.2M89.5,30.8L93.15 31.65L93.4 31.85L95.2 34.85L95.35 35.2L95.2 35.5L94.8 35.4L94.55 35.3L94.3 34.95L92.75 32.4L89.15 31.5L89.5 30.8M98.85,33.7L98.75 33.7L98.35 33.4Q98.05 33.15 98.15 32.8L98.7 32.4L99.15 32.35L99.45 32.65L99.55 33.1L99.55 33.2L99.25 33.55Q99.2 33.7 98.85 33.7M106.6,25.65L97.05 31.45L97 34.4L96.9 34.7L96.5 34.85L96.2 34.6L96.05 34.4L96.2 31.2L96.3 31.05L96.4 30.85L102.35 27.2L102.05 26.4L103.15 26.65L106.15 24.75L106.6 25.65M92.95,35.1L92.2 35.05Q92.05 34.9 91.85 34.9Q91.65 34.6 91.75 34.55Q91.75 34.1 92 33.9L92.6 33.9L93.15 34.1L93.2 34.35L93.1 34.7L92.95 35.1M89.5,33.8L89.4 33.65Q89.15 33.4 89.2 33.05Q89.3 32.7 89.5 32.7Q89.95 32.4 90.15 32.45L90.65 32.95L90.8 33.3L90.45 33.9L90 33.9L89.85 33.85L89.5 33.8M93.5,36.3L94.1 36.25L94.65 36.55L94.65 36.75L94.7 37.05L94.6 37.5L93.9 37.4L93.5 37.25L93.25 36.95L93.15 36.75L93.5 36.3M98.4,35.05L98.9 35.4L98.9 35.9L98.85 35.9L98.6 36.25L97.95 36.4L97.6 36.25L97.55 36.1Q97.3 35.8 97.45 35.6L97.9 35.2L98.4 35.05M100.75,36.15Q101.05 36.1 101.25 36.4L101.3 37L100.9 37.35L100.4 37.5L99.85 37.35Q99.8 36.95 99.9 36.65L100.15 36.2L100.75 36.15M83.9,37.9Q84.1 37.8 84.3 38.05L84.55 38.5L84.55 38.65L83.9 37.9M20.75,31.9L21.05 31.7L20.85 31.9L20.75 31.9M30,21.4L30.6 20.7L31.95 21.4L31.7 21.65L32.2 22.55L30 21.4M36.65,18.9L35.7 18.7L37.6 15.2L38.15 16.15L36.65 18.9M66.55,18.8L65.95 18.15L67.55 16.6L67.65 17.8L66.55 18.8M70.15,32.25L75.75 30.95L75.55 28.45L76.4 28.5L76.6 31.1L76.65 31.2L76.65 31.45L76.75 32.5L75.9 32.7L75.8 31.85L70.7 32.95L70.15 32.25M92,38L92.3 37.9L92.65 38.35L92.85 38.95L92.5 39.25L92 39.25L91.65 39.2L91.55 39.05Q91.35 38.9 91.5 38.6Q91.6 38.2 91.85 38.1L92 38M106.5,27.9L106.15 28.4L105.55 28.55L105.1 28.25L105.05 27.75L105.45 27.25L106.05 27.1L106.45 27.45L106.5 27.9M103.65,28.65L104 28.9L104.1 29.45L103.65 29.95L103.15 30.05L102.8 29.7Q102.55 29.3 102.7 29.15L103.05 28.7L103.65 28.65M64.75,16.9L64.95 16.4L65.5 16.25Q65.8 16.25 66 16.4L66.2 16.9L66 17.4Q65.8 17.6 65.5 17.6L65.45 17.6L64.75 16.9M79.5,16.65L80.15 16.55L80.3 17.05L80.25 17.5L79.7 17.9L79.3 17.85L79.25 17.8L78.95 17.45L78.95 16.9Q79.2 16.6 79.5 16.65M53.1,5.4L53.7 5.45L53.9 5.65L54.05 5.95L53.95 6.4Q53.8 6.7 53.45 6.75L52.8 6.6Q52.55 6.6 52.55 6.2L52.7 5.7L52.7 5.6L52.95 5.45L53.1 5.4M52.6,8.05L53 9.75L52.95 9.75L52.9 10L52.45 11.75L51.7 8.2L45.15 9.45L45 9.5L44.85 9.45L41.9 7.4L41.7 7.15Q41.6 6.95 41.8 6.8Q41.85 6.55 42 6.6L42.45 6.7L42.6 6.9L45.15 8.6L54.75 6.7L55.05 7.5L52.6 8.05M50.65,7.3L50.1 7.2L49.85 6.75Q49.75 6.5 49.95 6.25L50.4 6L50.95 6L51.2 6.45L51.15 6.95L50.65 7.3M51.1,11.6L51.5 11.65L51.85 12.15L51.8 12.55L51.1 11.6M43.5,2.45L43.95 2.5L44.35 2.8L44.25 3.35L43.8 3.65L43.2 3.5L42.9 3.1Q42.85 2.8 43.05 2.6L43.5 2.45M42.5,4.75L42.7 4.75L42.95 4.8L43.2 4.95L43.3 5.35Q43.4 5.55 43.1 5.75L42.75 6L42.7 6L42.15 6L41.9 5.7L41.85 5.55L41.95 5.15L42.5 4.75M45.45,6.4L45.65 6.7L45.5 7.25Q45.4 7.5 45.1 7.6L44.5 7.5L44.2 7.05L44.3 6.6L44.4 6.6Q44.65 6.4 44.85 6.3L45.4 6.4L45.45 6.4M48.45,7L48.35 7.6L47.9 7.9L47.35 7.75L47.25 7.8L47.05 7.3L47.15 6.8L47.5 6.65L47.65 6.5L48.15 6.55L48.45 7M78.65,30.4L78.5 30.45L78.15 30.8Q77.7 30.8 77.65 30.6L77.35 30.1L77.45 29.45Q77.5 29.25 77.95 29.25L78.4 29.4L78.55 29.6L78.7 29.95L78.65 30.4M78.55,32.15L77.85 32.25Q77.8 32.15 78.2 32.05L78.55 32.15M72.1,30.4L71.9 30.85L71.4 31.1L70.85 30.85Q70.6 30.75 70.6 30.4L70.85 29.9L71.4 29.75L71.9 29.9L72.1 30.4M74.75,30.4Q74.55 30.6 74.3 30.6L73.7 30.4L73.5 29.9L73.7 29.4L74.3 29.25L74.75 29.4L75 29.9L74.75 30.4M80.3,38.1L79.9 38.2L80.05 37.9L80.1 37.9L80.3 38.1M24.5,9.2L24.8 9.8Q25 9.95 24.85 10.25L24.7 10.4L24.35 10.55L24.1 10.5L23.8 10.4L23.45 9.95Q23.3 9.7 23.55 9.45L23.65 9.35Q23.7 9.2 24 9.2Q24.25 9.05 24.5 9.2M22.5,11.4L21.95 11.75L21.5 11.5L21.15 11.15L21.25 10.55L21.75 10.25L22.3 10.4L22.55 10.85L22.5 11.4M18.4,12.9L20.45 9.15L25.65 6.25L25.6 7.4L20.85 9.85L19.3 12.6L19.05 12.95L18.7 13.1L18.45 13.05L18.4 12.9M21.4,15L21.85 15.15L22.25 15.65L22.1 16.2L21.65 16.45L21.4 16.5L21.05 16.35L20.8 15.9L20.85 15.35Q21.1 15 21.4 15M21,13.2Q21.2 13.5 21 13.7L20.75 13.95L20.45 14.05L20.05 13.95L19.95 13.85L19.9 13.8L19.6 13.5L19.7 12.9Q19.9 12.6 20.2 12.6L20.7 12.7L21 13.2M28.05,28.85L27.85 28.35L27.95 28L28.35 29L28.05 28.85M29.2,30.6L29.75 31.4L28 34.7L27.15 34.35L29.2 30.6M36.1,14.45L36.55 14.6L36.8 15.05L36.55 15.55L36.1 15.75L35.5 15.55L35.3 15.05L35.5 14.6L36.1 14.45M34.8,16.6L35.3 16.75L35.5 17.25L35.3 17.75Q35.1 17.95 34.8 17.95Q34.55 17.95 34.25 17.75L34.05 17.25L34.25 16.75L34.8 16.6M33.15,19.9Q32.9 19.8 32.9 19.4L33.15 18.95L33.7 18.8L34 18.85L33.15 19.9M32.9,23.8L33.35 24.7L32.5 24.5L32.9 23.8M31.7,24.3L30.35 23.9L30.45 23.7L31 23.55Q31.3 23.55 31.5 23.7L31.7 24.2L31.7 24.3M12.35,32.75L12.35 32.15L12.5 32.5L12.35 32.75M3.4,27.9L6.9 31.8L12.15 37.95L12.15 38.3L12.1 38.55L11.7 38.6L11.4 38.5L4.85 30.8L3.3 28.95L-4.95 19.2L-5.45 18.55L-5.5 18.3L-5.35 18L-5.25 17.95L-5.15 17.9L-4.85 18L2.75 26.9L2.9 27.1L6.1 24.75L6.4 25.5L3.4 27.9M1.5,28.9L1.05 29.3L0.6 29.3L0.55 29.3L0.1 28.95L0.15 28.75L0.3 28.3L0.55 28L1.1 28L1.5 28.35L1.5 28.9M2.05,30.7L2.15 30.45L2.15 30.4L2.4 30.1L2.9 30.05L2.9 30.1L3.35 30.5L3.4 30.7L3.35 31L3.2 31.15L2.9 31.5L2.45 31.35Q2.15 31.3 2 31L2.05 30.7M7.65,38.3L7.55 38.3L7.35 38.05L7.35 37.9L7.2 37.85L7.35 37.3L7.65 37L7.65 36.9L8.1 37L8.3 37.05L8.55 37.2L8.55 37.3L8.5 37.85L8.1 38.25L8.1 38.35L8.05 38.35L7.65 38.3M10.35,39.95L10.25 40.1L9.85 40.4L9.45 40.3L9 40L9.2 39.4L9.4 39.1L9.4 39L10.1 39.05L10.35 39.4L10.4 39.6L10.35 39.95M4.85,32.1L5.1 32.45L5.15 32.6L5.2 32.65L5.05 33.15L5.05 33.2L4.7 33.55L4.15 33.45L3.75 33.2L3.75 32.65L3.85 32.55L4.15 32.25L4.5 32.05L4.65 32.1L4.85 32.1M-3.3,24.1L-3.25 23.85L-3.05 23.45L-2.3 23.5L-2 23.8Q-1.85 24.25 -2 24.45L-2.4 24.85L-2.7 24.9L-3 24.8L-3.35 24.55L-3.35 24.45L-3.3 24.1M-4,21.35Q-3.65 21.6 -3.65 21.8L-3.55 22.15L-3.6 22.3L-3.95 22.6L-4.2 22.8L-4.3 22.9L-4.55 22.8L-4.9 22.6L-5 22.4L-4.85 21.75Q-4.8 21.5 -4.55 21.4L-4.2 21.35L-4 21.35M6.75,34.4L6.95 34.95L6.8 35.2L6.45 35.6L6.35 35.65L6 35.6L5.6 35.25L5.5 35.1L5.7 34.7L6 34.25L6.55 34.25L6.75 34.4M27.35,29.9L27.85 30.05L28.05 30.5L27.85 31L27.35 31.2L26.8 31L26.6 30.5L26.8 30.05L27.35 29.9M26.1,32.05L26.6 32.2L26.8 32.7L26.6 33.2L26.1 33.4L25.55 33.2L25.35 32.7L25.55 32.2L26.1 32.05M-5.95,20.7L-6.45 20.7L-6.8 20.35L-6.7 19.75L-6.4 19.3L-5.8 19.4L-5.5 19.75Q-5.35 20.05 -5.5 20.35Q-5.6 20.6 -5.95 20.7M-0.15,26L-0.15 26.5L-0.25 26.65L-0.65 26.95L-1.15 26.9L-1.2 26.85L-1.5 26.55L-1.55 26.5L-1.4 25.95L-1.05 25.6L-0.5 25.55Q-0.25 25.7 -0.15 26" />
<path style="fill:#BD8051;fill-opacity:1" d="M78.4,47.05L75.2 48.75L77.65 46.15L75.15 43.05L71.95 45.85L71.05 44.85L74.3 42L72 39.15L68.5 41.05L71.15 38.1L65.85 31.55L62.05 33.85L64.9 30.4L62.7 27.65L62.7 27.85L62.4 27.45L60.1 29.65L61.55 26.35L59.5 23.65L58.4 22.25L58.15 21.95L57.75 21.4L57.1 20.7L56.8 20.4Q54.25 18.1 50.8 18.1Q47.05 18.1 44.4 20.7L44.25 20.9L43.4 21.95L43 22.5L41.75 23.95L40.8 25.15L38.3 28.15L42.25 31.3L41.4 32.3L37.5 29.15L35.25 31.85L38.1 35.45L34.25 33.05L29.6 38.65L32.25 42.05L28.7 39.75L26.2 42.75L29.95 45.8L29.1 46.8L25.35 43.8L23.05 46.55L25.8 49.95L22.15 47.65L19.75 50.55L20 50.55L18.9 51.75Q8.95 63.1 14.2 67.4Q18.9 71.15 27 70.7L27.15 70.6L27.4 70.35L32.9 70.35L33.95 65.85L34.4 63.65L34.7 65.85L34.7 65.95L35.2 70.35L38.8 70.35L38.75 64.15L39.25 64.15L39.45 64.15L39.6 64.15L40.1 64.15L40.15 70.35L43.2 70.35L44.15 65.85L44.55 63.6L44.85 65.85L45.45 70.35L54.3 70.35L55.25 65.85L55.65 63.7L55.95 65.85L56.55 70.35L60.15 70.35L60 63.05L61.2 63.05L61.35 63.15L61.5 70.35L72.35 70.35L72.5 70.55L73.55 70.65Q82.1 71.35 87 67.4Q92.25 63.1 82.4 51.9L82.25 51.85L78.4 47.05M73.25,71.75L72 71.75L71.95 71.65L68.4 71.65L52.75 71.65L47.05 71.65L31.4 71.65L29.3 71.65L29.2 71.75L26.3 71.7L25.6 71.7L25.55 71.7Q15.6 71.25 13.15 68Q9.05 62.5 14.9 54.55L42.3 21.05L42.35 21L43.4 19.7L43.7 19.45Q46.7 16.7 50.8 16.7Q55.05 16.7 58.1 19.7L59.5 21.4L60.75 22.85L60.75 22.9L61.25 23.5L61.35 23.6L62.55 25.1L62.55 25.2L62.65 25.3L62.7 25.25L63.55 26.3L63.5 26.35L65.85 29.25L65.9 29.2L67.15 30.75L67.1 30.8L68.55 32.6L68.6 32.6L69.2 33.3L69.1 33.3L70.6 35.15L81.1 48.2L83.05 50.6L85.1 52.85Q92.55 61.95 88.05 68Q85.55 71.35 75 71.7L73.25 71.75M84.35,57.5L80.2 62.25L82.95 57.35Q81.65 56.65 80.15 56.65L80.05 56.65L80.05 62.25L78.75 56.1L80.05 55.9Q81.8 55.9 83.2 56.7L84.35 57.5M85.95,62.4L80.6 62.4L86.45 61.2L86.6 62.4Q86.6 64.15 85.75 65.55L85.05 66.6L80.2 62.55L85.25 65.3Q85.95 64 85.95 62.5L85.95 62.4M50.5,19.8L50.5 25.4L49.2 19.25L50.5 19.05Q52.25 19.05 53.65 19.85Q54.3 20.15 54.8 20.65L50.65 25.4L53.4 20.5Q52.1 19.8 50.6 19.8L50.5 19.8M45.65,21.3L50.5 25.5L50.5 25.55L45.45 22.75Q44.75 24 44.75 25.55L50.45 25.55L50.35 25.7L50.45 25.7L47.65 30.7Q48.9 31.45 50.5 31.45L50.5 25.7L50.6 25.7L51.9 31.95L50.5 32.1Q48.75 32.1 47.35 31.25L46.25 30.45L50.35 25.7L44.2 27.05L44 25.55Q44 23.8 44.8 22.4Q45.1 21.75 45.65 21.3M57.05,25.55Q57.05 27.3 56.2 28.7L55.5 29.75L50.65 25.7L55.7 28.45Q56.4 27.15 56.4 25.65L56.4 25.6L56.35 25.65L55.75 25.55L51.05 25.55L56.65 24.4L57.05 25.55M-1.5,40.2L-6.65 42.75L-6.8 42.35L-2.45 38.85L-4 36.9L-4.55 36.15L-5.35 35.35L-5.4 35.25L-8.4 31.7L-9.6 32.8L-10.1 31.1L-9.3 30.5L-10.55 29.1L-10.9 28.6L-11.4 24.75L5.05 44.6L1.6 43.95L-1.5 40.2M26.4,60.3L20.4 62.35L25.25 59.45Q24.5 58.2 23.15 57.45L23.1 57.4L20.3 62.3L22.25 56.3Q22.9 56.4 23.5 56.75Q25 57.65 25.85 59.05L26.4 60.3M25.9,65.65Q25 67.15 23.55 68L22.45 68.55L20.3 62.55L23.3 67.5Q24.55 66.75 25.3 65.4L25.35 65.35L20.75 62.7L26.4 64.55L25.9 65.65M20.25,62.4L17.25 57.45Q16 58.2 15.25 59.55L20.2 62.35L20.1 62.45L20.15 62.45L15.2 65.4Q15.9 66.7 17.3 67.5L20.2 62.5L20.25 62.55L18.25 68.65L17 68.05Q15.5 67.2 14.65 65.7L14.1 64.5L20.1 62.45L14.05 60.55Q14.2 59.8 14.6 59.15Q15.45 57.65 16.9 56.8Q17.45 56.4 18.2 56.3L20.3 62.35L20.25 62.4M75.2,58.15L80.05 62.35L80.05 62.4L75 59.6Q74.3 60.85 74.3 62.4L80 62.4L79.9 62.55L80 62.55L77.2 67.55Q78.45 68.3 80.05 68.3L80.05 62.55L80.15 62.55L81.45 68.8L80.05 68.95Q78.3 68.95 76.9 68.1L75.8 67.3L79.9 62.55L73.75 63.9L73.55 62.4Q73.55 60.65 74.35 59.25L75.2 58.15M67,55.8L66.2 55.9L65.75 55.9L67 55.8M65.3,66.35L66.25 66.45L66.8 70.25L64.55 70.3L65.3 66.35M-21.85,57.3L-13.1 59.25L-26.2 58.55L-23.9 57.5L-23.05 43.9L-21.5 44.7L-21.85 57.3M-12.8,51.6L-12.55 49.1L-12.1 49.3L-12.8 51.6" />
<path style="fill:#604129;fill-opacity:1" d="M57.55,56.3L56.6 56.35L56.6 56.4L57.3 58L57.4 58.55L57.15 59.05L56.15 60.2L57.1 61.35L58.5 60.65L59.05 60.55L59.55 60.75Q61.2 62.25 63.2 62.85L63.65 63.15L63.9 63.65L64 65.35L65.7 65.45L66.2 63.85Q66.25 63.55 66.45 63.4L66.95 63.2L69.5 62.7L69.6 62.65L69.6 63.5L69.6 63.6L67.05 64.1L66.5 65.85L66.3 66.4L66.25 66.4L66.25 66.45L65.3 66.35L63.1 66.2L63.05 64.25L63 63.75L61.65 63.25L61.35 63.15L61.2 63.05L61.25 63.05L60.65 62.7L60.45 62.6L58.9 61.45L56.9 62.5L54.9 60.15L56.5 58.5L55.65 56.45L55.65 56.4L56.4 56.35L59.15 50.9L60.3 50.8L57.55 56.3M75.8,50.8L76.5 51.65L77 52.3L76.1 52.6L76.05 52.45L75.8 50.8M66.95,39.95L67.15 40L68.05 41.1L66.95 40.9L66.4 42.7L66.1 43.15L65.6 43.35Q63.4 43.35 61.55 44.35L61.05 44.45Q60.75 44.4 60.55 44.2L59.4 43.15L58.1 44.05L58.8 45.45L58.95 46L58.7 46.5Q57.1 48.2 56.5 50.35L56.2 50.8L55.7 50.95L54.2 51.05L54.2 51.15L53.25 51.2L53.35 50.2L55.65 50.05Q56.3 47.75 58.05 45.9L56.95 43.85L56.6 44.9L53.4 44.7L53.3 42.25Q51.05 41.6 49.2 39.95L47.2 41L45.2 38.65L46.8 37L46.15 35.55L47.25 35.85L47.6 36.5L47.7 37.05L47.45 37.55L46.45 38.7L47.4 39.85L48.8 39.15L49.35 39.05L49.85 39.25Q51.5 40.75 53.5 41.35Q53.8 41.4 53.95 41.65L54.2 42.15L54.3 43.85L56 43.95L56.5 42.35Q56.55 42.05 56.75 41.9L57.25 41.7Q59.25 41.55 61 40.65L61.55 40.55L62.05 40.75L63.5 42L64.85 40.8L64 39.15L63.85 38.6L64.1 38.1L64.75 37.3L64.85 37.1L65.45 37.85L65.35 38L64.75 38.7L66 40.95L66.3 39.85L66.95 39.95M70.45,44.25Q69.9 43.95 69.35 43.8Q69.05 43.7 68.95 43.45L68.75 42.95L68.7 41.95L70.65 44.35L70.45 44.25M45,49.05L45.4 49.5L46.5 51.1L45.5 50.95L45 50.3L44.65 51.05Q43.85 51.2 43.2 51.75L44.15 49.95L42.2 51L42.8 51.55L43.05 51.85L42.9 52L42.25 52.85L41.9 52.45Q40.9 51.5 39.6 51.5Q38.25 51.5 37.25 52.45Q36.3 53.45 36.3 54.8Q36.3 56.1 37.25 57.1Q38.25 58.1 39.6 58.1Q40.9 58.1 41.9 57.1L42.4 56.55L42.9 57.2Q43.6 57.9 44.6 58.15L45.15 59.2L45.75 58.25L46.75 58.1L45.55 60L45 60.55L44.85 60.7Q42.75 62.65 39.95 62.95L39.25 62.95L39.1 62.95Q36 62.85 33.85 60.85L33.5 60.55L33.25 60.35Q31.15 58.1 31.1 55.05L31.1 54.8L31.15 54.25Q31.3 51.3 33.4 49.15L33.5 49.05L34.05 48.55Q36.15 46.7 38.95 46.65L39.25 46.65L40.1 46.7Q42.7 46.9 44.65 48.7L45 49.05M57.35,42.6L57 43.7L58.9 42.4L57.35 42.6M61.45,41.45L59.7 42.15L61.15 43.5Q62.05 43.05 63 42.8L61.45 41.45M65.55,42.4L65.95 41.05L64.35 42.55L65.55 42.4M34.9,48.95L37.75 50.5L38.75 47.5Q36.5 47.65 34.9 48.95M40.2,50.3L39.5 47.9L38.75 50.3L39.6 50.2L40.2 50.3M36.9,51.05L34.75 49.95L35.95 52.1L36.35 51.55L36.9 51.05M32.85,54.7L35.1 55.4L35.05 54.8L35.1 53.95L32.8 54.65L32.85 54.7M33.85,49.95Q32.2 51.7 32 53.95L35.4 52.9L33.85 49.95M35.3,56.45L35.3 56.35L31.95 55.35Q32.1 57.65 33.7 59.55L35.3 56.45M37.5,58.85L34.6 60.4Q36.35 61.95 38.8 62.1L37.9 59.05L37.5 58.85M35.85,57.4L34.8 59.35L36.7 58.35L36.35 58L35.85 57.4M39.6,59.35L38.9 59.3L39.5 61.3L40.15 59.35L39.6 59.35M65.15,55.9L64.05 55.95L66.7 50.65L66.7 50.5L64.45 50.6Q65.2 50.05 66.2 50.05Q67.4 50.05 68.25 50.9Q69.1 51.75 69.1 53Q69.1 54.2 68.25 55.05Q67.7 55.6 67 55.8L66.8 52.55L65.15 55.9M62.95,50.7L64.05 50.6L61.3 56.1L60.2 56.15L62.95 50.7M52.8,51.2L50.05 56.7L49.95 56.7L49.9 56.75L48.8 56.8L48.85 56.75L48.9 56.75L51.65 51.3L52.8 51.2M55.45,51.1L56.55 51L53.8 56.5L53.7 56.5L53.65 56.55L52.55 56.6L52.6 56.55L52.7 56.55L55.45 51.1M48,51.5L49.15 51.4L48.5 52.75L47.85 51.8L47.9 51.8L48 51.5M47.95,53.7L48.1 54.6Q48.1 55.7 47.35 56.5L46.75 56.95L46.25 57.1L45.5 57.2Q44.55 57.2 43.8 56.7L43.6 56.5Q42.95 55.75 42.9 54.8L42.9 54.6Q42.9 53.55 43.6 52.8L43.85 52.6Q44.55 52 45.5 52Q46.55 52 47.35 52.8L47.95 53.7M47.05,53.05Q46.5 52.35 45.5 52.35Q44.65 52.35 44 53L43.95 53.05Q43.25 53.6 43.25 54.6Q43.25 55.5 43.95 56.15L44.05 56.25Q44.55 56.75 45.3 56.85L45.5 56.85L46.45 56.65L47.05 56.15Q47.75 55.5 47.75 54.6L47.75 54.2L47.15 53.15L47.05 53.05M42.4,58.45L44.15 59.35L43.25 57.6L42.8 58L42.4 58.45M41.15,59.15L40.2 62Q42.4 61.75 44.15 60.35L41.55 58.95L41.15 59.15M43.85,49.1Q42.25 47.85 40.35 47.55L41.2 50.5L43.85 49.1" />
<path style="fill:#0E0E0E;fill-opacity:1" d="M55.45,51.1L54.2 51.15L54.2 51.05L55.7 50.95L56.2 50.8L56.5 50.35Q57.1 48.2 58.7 46.5L58.95 46L58.8 45.45L58.1 44.05L59.4 43.15L60.55 44.2Q60.75 44.4 61.05 44.45L61.55 44.35Q63.4 43.35 65.6 43.35L66.1 43.15L66.4 42.7L66.95 40.9L68.05 41.1L68.65 41.2L68.7 41.95L68.75 42.95L68.95 43.45Q69.05 43.7 69.35 43.8Q69.9 43.95 70.45 44.25L70.65 44.35L71.05 44.85L75.8 50.8L76.05 52.45L76.1 52.6L69.9 54.6L69.5 60.9L69.55 61.5L69.55 61.95L69.6 62.65L69.5 62.7L66.95 63.2L66.45 63.4Q66.25 63.55 66.2 63.85L65.7 65.45L64 65.35L63.9 63.65L63.65 63.15L63.2 62.85Q61.2 62.25 59.55 60.75L59.05 60.55L58.5 60.65L57.1 61.35L56.15 60.2L57.15 59.05L57.4 58.55L57.3 58L56.6 56.4L56.6 56.35L57.55 56.3L60.2 56.15L61.3 56.1L64.05 55.95L65.15 55.9L65.75 55.9L66.2 55.9L67 55.8Q67.7 55.6 68.25 55.05Q69.1 54.2 69.1 53Q69.1 51.75 68.25 50.9Q67.4 50.05 66.2 50.05Q65.2 50.05 64.45 50.6L64.05 50.6L62.95 50.7L60.3 50.8L59.15 50.9L56.55 51L55.45 51.1M54.15,37.45L62.05 34L62.25 33.9L64.85 37.1L64.75 37.3L64.1 38.1L63.85 38.6L64 39.15L64.85 40.8L63.5 42L62.05 40.75L61.55 40.55L61 40.65Q59.25 41.55 57.25 41.7L56.75 41.9Q56.55 42.05 56.5 42.35L56 43.95L54.3 43.85L54.2 42.15L53.95 41.65Q53.8 41.4 53.5 41.35Q51.5 40.75 49.85 39.25L49.35 39.05L48.8 39.15L47.4 39.85L46.45 38.7L47.45 37.55L47.7 37.05L47.6 36.5L47.25 35.85L54.15 37.45" />
</g>
</svg>
