<?xml version="1.0" encoding="utf-8"?>
<svg version="1.1" id="Layer_1"
xmlns="http://www.w3.org/2000/svg"
xmlns:xlink="http://www.w3.org/1999/xlink"
width="25px" height="34px"
xml:space="preserve">
<g id="594" transform="matrix(1, 0, 0, 1, -25.7, 8.15)">
<path style="fill:#000000;fill-opacity:0.498039" d="M43.85,24.9L37 25.4L30.05 24.9Q27.25 24.4 27.25 23.7Q27.25 23.3 28.15 23L30.05 22.5L33.1 22.15L37 22L42.45 22.3L43.85 22.5Q46.8 23 46.8 23.7Q46.8 24.4 43.85 24.9" />
<path style="fill:#000000;fill-opacity:1" d="M34.15,-4.9L35.1 -4.8L35.85 -4.75L36 -4.7L36.05 -4.65L36.05 -4.5L36.05 -4.45L36.15 -4.2L36.3 -3.9L33.45 -1.65L32.3 -1.5Q30.85 -2.15 31.75 -3.6Q32.55 -4.95 34.15 -4.9M39.4,-1.45L39.45 -1.55L39.55 -1.95Q39.65 -2.5 40.2 -2.75L41.1 -3.05Q43.65 -3.05 44.25 -1.45L44.3 -1.5Q44.7 -0.75 44.45 0.15L44.35 0.5L44.35 0.65L44.8 0.85L45.7 1.4L45.8 1.45Q45.55 2.2 44.9 2L43.95 1.6L43.75 1.7L43.75 1.65L43.25 1.9Q42.5 2.45 41.6 2.55L41.25 3.25Q42.9 3.9 42.15 5.6Q41.95 6.05 41.4 6.1L40.65 6.15L39.25 7.75Q38.5 8.65 37.6 8.2L37.55 8.25L36.6 9.25L36.6 9.35L36.5 9.45Q35.8 10.5 35.8 12.15L35.8 15Q35.8 16.1 35.2 16.9Q33.85 18.7 31.35 17.75L31.45 16.7Q31.6 15.95 32.15 15.45L32.35 15.3L32.65 12.7L32.95 11.6Q32.45 11.85 32 12.15Q31.05 12.7 30.8 13.7L30.5 15L30.2 17.25L29.4 17.6L29.3 17.65L27 17.7L25.75 17.45L25.7 17.1L25.7 16.6L25.75 16L25.8 15.95Q26.2 15.5 26.9 15.45L27.25 15.4L27.45 15.45L27.5 14.35L27.65 12.65Q27.75 11.45 28.1 10.4Q28.6 10 29.2 9.85L30.85 9.45L31.15 9.4L31.1 9.3Q32.1 8.25 32.6 6.95Q32.9 6.2 33.35 5.6L32.35 5.55L32.3 5.55L32.3 5.6Q29.9 6.45 29.15 4.5Q28.75 3.5 29.2 2.65L29.5 2.35Q30.35 2.05 30.8 2.55L31.3 3.3Q32.1 2.85 32.95 2.5Q35.05 1.75 37.35 1.65L38.75 1.4Q38.4 0.8 38.75 -0.1Q39.05 -0.85 39.65 -1.2L39.5 -1.35L39.4 -1.45M41.6,2.4L41.65 2.35L41.55 2.4L41.6 2.4M45.45,8.55L46.5 8Q46.55 7.35 47.3 7.05L47.35 7.05Q50.2 7 50.4 9.5Q50.45 10.2 49.75 10.6Q48.25 11.4 47.5 10.3Q44.05 11.3 40.7 12.7Q39.3 13.25 38.8 12.3L38.25 11.85Q37.7 11.3 38.05 10.65Q38.45 9.8 39.3 9.6L39.95 9.65L40.15 9.7L40.2 9.65L40.45 9.8L40.75 9.9Q43.2 9.5 45.45 8.55M26.25,17.15L26.2 17.2L26.2 17.25L26.3 17.25L26.25 17.15" />
<path style="fill:#7E0000;fill-opacity:1" d="M36.7,-6.45Q35.75 -5.9 34.65 -6.1L30.95 -6.2L30.9 -6.3L31 -6.7L30.6 -7.05Q33.5 -6.9 36.3 -8.05L36.5 -8.15L37.05 -8L37.6 -7.65L37.65 -7.55Q37.35 -6.9 36.7 -6.45M37,-2.5L36 -2.55Q37.7 -4.05 40.25 -4.35L41.6 -4.55L41.85 -4.5Q42.2 -3.05 40.2 -2.75L37 -2.5M47.6,3.05Q47.25 4.45 44.7 4.35L43.4 4.25Q42.8 4.15 42.65 3.65L42.75 3.5L45.8 2.6L45.95 2.55L47.5 2.75Q47.75 2.8 47.6 3.05M44.45,6.05Q45 7 44.4 7.85L44.25 7.95Q43.55 7.95 43.45 7.4L42.7 5.5Q42.6 5.35 42.85 5.25Q44 5.15 44.45 6.05" />
</g>
</svg>
