<?xml version="1.0" encoding="utf-8"?>
<svg version="1.1" id="Layer_1"
xmlns="http://www.w3.org/2000/svg"
xmlns:xlink="http://www.w3.org/1999/xlink"
width="21px" height="12px"
xml:space="preserve">
<g id="905" transform="matrix(1, 0, 0, 1, -11.8, -63.05)">
<path style="fill:#000000;fill-opacity:1" d="M25.8,67.45L26.45 67.65L26.85 68.1L26.95 68.75L27.2 68.9L27.7 68.4L28.3 67.95L29 67.65L29.85 67.45L29.85 67.5Q30.3 67.6 30.05 68L29.8 69.05L29.55 69.8L29.35 70.45L29.35 70.9L29.35 70.95L31.75 71.05L31.95 71.15L32.05 71.45L32.05 71.95L32 72.25Q31.8 72.4 31.75 72.7L31.7 73L31.55 73.2L27.8 73.25L26.95 73L26.9 72.8L26.9 72.4L26.85 72.1L26.9 71.8L27.1 71.45L27.2 71.25L27.25 71.1Q27.35 70.75 26.95 71.05L26.45 71.25L25.95 71.6L25.5 71.85L25.35 72.05L25.45 72.25L25.85 72.8L26 73.1L26.45 73.55L26.75 73.75L26.8 73.9Q26.8 74.3 26.45 74.35L24.05 74.3L23.55 73.9L23.45 73.7L23.45 72.9L23.25 72.4L22.95 72.05L22.9 71.6L22.85 71.4L22.55 71.35L21.15 71.2L19.9 71.45L19.9 71.55L19.9 71.85L19.85 72.1L19.6 72.3L19.4 72.3L18.95 72.9L18.1 73.55Q17.7 73.65 17.45 73.9L16.7 74.3L16.35 74.2L15.95 73.9L15.5 73.65L14.9 73.4L14.65 73.15L15.15 72.4L16.05 71.65L16.4 71.55L16.35 71.45Q15.35 71.15 14.85 70.25Q14.4 69.6 14.5 68.8Q14.75 66.7 17.45 67L18.15 67.2L18.6 67.45L18.85 67.7L19 67.9L19 67.95L19.7 66.8L20.45 65.45Q20.8 64.75 21.6 64.75L21.85 64.85L22.35 65.4L22.45 66.05L22.35 66.65L22.15 66.95L24.95 67Q25.55 66.95 25.85 67.4L25.8 67.45M20.45,64.85Q19.65 65.35 18.85 65.5L17 65.8L16.95 65.8L16.6 65.35Q16.4 64.95 16.6 64.6L17 63.95L17.45 63.25L17.5 63.2L17.6 63.15L18.8 63.05L18.95 63.2L19.7 63.5Q20.2 63.7 20.5 64L20.6 64.6L20.6 64.65L20.45 64.85M12.35,66.05L12.6 66.15Q13.05 66.3 13.4 66.75L13.75 67.5L13.9 68.1L13.45 68.35L12.5 68.35Q12.2 68.35 12.1 68.15L12.1 68L12.15 67.85L12.2 67.65L12.2 67.5L12.25 67.45L12.25 67.3L12.1 67L11.9 66.65Q11.75 66.35 11.9 66.2Q12.1 65.95 12.35 66.05" />
</g>
</svg>
