<?xml version="1.0" encoding="utf-8"?>
<svg version="1.1" id="Layer_1"
xmlns="http://www.w3.org/2000/svg"
xmlns:xlink="http://www.w3.org/1999/xlink"
width="98px" height="80px"
xml:space="preserve">
<g id="392" transform="matrix(1, 0, 0, 1, 17.25, 18.2)">
<path style="fill:#FFFF0E;fill-opacity:1" d="M6.85,-3.55L10.65 0.6Q12.55 2.7 14.75 4.5Q16.6 5.95 17.6 7.7L17.45 6.8Q17.2 6.25 17.3 5.65L17.15 4.55L17 3.45L17.05 2.35L17.05 2.15Q17.5 1.6 18 2.25L18.55 3.2L18.95 4.05L19.3 5.05L19.45 5.4L19.65 5.35L19.8 5.2L19.8 5.05L19.8 4.85L19.9 4.5L20.05 4.1L20.1 3.95L20.25 3.8L20.45 3.75L21.3 3.85L21.55 4L21.7 4.2L21.85 4.35L21.95 4.55L22 4.75L22.1 5.1L22.3 5.45L22.4 5.65L22.6 5.75L22.9 5.8L23.5 5.9L23.75 6L24.5 8.6L24.8 11.2L25.25 13.6Q25.5 15 26.05 16.25Q26.55 17.4 26.65 18.6Q25.65 18.95 24.75 18.1Q23.35 16.85 21.45 17.65L21.05 17.9L21.25 18.25L21.6 18.65L21.95 19L22.3 19.4L22.5 19.75Q20.75 20.25 18.8 19.8L14.85 18.75L14.85 18.65L14.9 18.45L15 18.35L15.25 18.15L15.25 18L15.25 17.85L15.25 17.65L12.3 11.85L9.35 6.45L6.3 0.45L2.8 -6.35Q2.25 -7.4 3.05 -7.65L6.85 -3.55M38.95,-3.6L38.3 -2.1L38.3 -2.05L38.45 -2L39.45 -1.8L39.5 -1.7L39.5 -1.5L39.3 -1.1L39.15 -0.75L38.95 -0.4L38.8 0L38.7 0.15L43.85 -0.4Q46.4 -0.95 48.65 -0.4Q47.95 2.3 45.65 4.2Q44.15 5.45 42.25 5.95Q39.1 6.75 36.3 8.2Q35.65 8.5 35.15 8.9Q34 9.75 33.05 9.2Q32.65 8.1 30.05 9.35Q28.55 10.1 27.1 10.95Q25.9 11.65 24.85 11.3L28 5.45Q29.35 3.1 31.25 1.25L32.45 0.1L36.45 -4.05L40.55 -8.25Q41.6 -7.9 41 -6.8L39.9 -5.2L38.95 -3.6M42.15,14.95L41.15 15.75L40.6 16.25L40.35 16.5L40.4 16.55L41.95 17.1L42.6 17.55L42.9 17.95L43.05 18.5L43.05 18.65L42.85 19L42.45 19.55L42 19.95L41.75 20.15L41.55 20.35L40.3 22.75Q38.3 25.95 34.25 24.7L27.9 22.35L27.9 22.2L28.1 21.35L28.25 20.5Q28.2 20.15 28.45 19.85Q28.7 19.55 29.1 19.35L29.55 18.95L29.7 18.75Q31.25 18.35 32.8 17.6L37.3 15.3Q39.15 14.3 41.15 13.85L42.1 13.9L42.35 14.05L42.55 14.35L42.45 14.55L42.15 14.95M46.85,35.35Q49.3 36.9 51.4 38.75L55.75 42.3L58.85 44.8L58.8 45L58.75 45.1L58.7 45.15Q58 45.25 57.4 45.5L56.85 45.8L56.85 46Q56.8 46.4 57.1 46.7L57.55 47.65L57.6 48.4L57.35 49L56.95 49.5L56.7 50.05Q54.45 50.15 52.3 49Q50.65 48.1 49.35 46.7L46.25 43.75L43.8 41.2Q43.15 40.45 42.95 41.4Q41.8 41.6 40.8 40.7L39.15 38.9Q38.5 38.1 38.35 37.15Q38.1 35.9 39.05 35.1L41.2 33.65Q41.45 33.5 41.65 33.5Q44.4 33.85 46.85 35.35M20.55,23.1L20.4 23.3L20.25 23.45L19.85 23.65L20.05 23.8L20.45 23.95L20.75 24.05L22.5 24.35Q23.55 24.35 24 25L24.1 25.2Q23.95 26 23.2 26.55Q21.8 27.5 20.7 28.9L18.95 30.9Q17.6 32.4 15.7 33.35L12.8 35.15L12.35 35.15L12.05 35L11.9 34.9L11.7 34.75L11.2 35L10.65 35.35L9.4 36.15L8.1 37.25L7.4 37.6L7.15 37.65Q6.3 37.2 7.15 36.55L9.1 34.3L10.45 32.65L12.9 29.75L15.6 26.85L14.75 27.05L12.4 28.4L9.55 29.75Q9 30 8.6 30.35L7.15 31.4L6.9 31.45Q5.7 31.3 4.5 31.85L0.2 33.65L-2 34.6Q-3.45 35.3 -4.6 34.6Q-3.7 33.45 -2.2 32.65L1.6 30.6Q5.6 28.4 9.6 26.35L13.35 23.85L13.45 23.8L13.2 23.85L12.55 23.9Q12 23.95 11.55 24.25L11.1 24.4L10.7 24.35L11.15 24.15L11.8 23.75L12.5 23.2L13.65 22.2L14.55 21.8L15.35 21.45L15.75 21.3L15.75 21.25L17.05 21.4L18.2 21.6L19.3 21.95Q19.95 22.1 20.45 22.55L20.55 22.75L20.6 22.9L20.55 23.1M3.2,9.25L5.15 9.3L5.2 9.2Q5.7 8.6 6.4 9.55L8.1 11.8Q10.15 14.15 8.05 16.1Q6 18.05 6.4 21.3Q6.45 21.75 5.9 21.9L0.7 22.75L0.55 22.9L0.35 23.45L0.2 23.85L0.15 24L0.05 24.2L-0.05 24.4L-0.15 24.55L-0.4 24.95L-6.15 24.55L-6.45 24.5L-8.1 24.25L-8.9 23.95L-9 23.75L-9.05 23.2L-9.05 22.85L-9.05 22.65L-9.05 22.5L-9.05 22.3L-9 22.15L-8.9 21.75L-8.9 21.6L-9.05 21.4Q-9.1 21.3 -9.2 21.3L-9.9 21L-10.45 20.75L-10.8 20.55L-11 20.4L-11.2 20.2L-11.25 20L-11.25 19.65L-11.25 19.1L-11.25 18.9L-11.25 18.75L-11.25 18.55L-11.25 18.35L-11.25 18.2L-11.15 18.05L-10.3 17.4L-10.05 17.25L-9.8 17.05L-9.1 16.5L-7.8 15.65L-7.2 15.2L-7.15 15.1L-7.4 14.8L-7.55 14.5L-7.55 14.3Q-7.6 13.7 -7.1 13.35L-6.85 13.2L-6.6 13.05L-5.15 12Q-4.05 11.35 -2.75 11L-1.1 10.6L-1.15 10.55Q-2 10.4 -2.6 9.9L-2.7 9.8L-3 9.65Q-3.35 9.45 -3.35 9.1L-3.35 8.6L-2.95 8.2Q-1.8 8 -0.8 8.5L0 8.7L3.2 9.25M10.05,44.15L12.85 41.9L13.55 40.95Q13.7 40.85 13.8 40.8L14.05 40.75L14.55 40.7Q15.9 41 16.7 42.05L18.65 44L20.55 45.65L22.05 47.25Q22.45 48.75 21.35 49.75L18.3 52.35L15.85 54.25Q14.6 55.25 13 54.7L12.85 54.55L12.7 54.35L12.5 54L12.4 53.8L12.4 53.6L12.4 53.45L12.4 53.25Q11.85 52.9 11 53.45L10.05 54Q9.35 54.35 8.65 54L8.55 53.8L8.5 53.6L8.5 53.45L8.5 53.25L8.5 53.05L8.45 52.9L5.5 52Q4.4 51.8 3.75 50.85Q3.35 50.25 3.25 49.55L3.35 49Q4.75 47.75 6.35 46.7L10.05 44.15M25.6,27.65L25.75 28.2L25.85 28.55L25.95 28.95L28.05 31.05L29.1 32.8L30 34.8Q30.45 35.8 30.35 36.7L29.6 36.85L28.7 36.2L27.95 35.45L27.8 35.35L27.7 36.25L27.3 37.35L26.75 38.3L26.2 38.95L25.7 39.1L25.2 38.75Q24.9 38.6 24.95 38.2L25 37.65L25 37.1L24.95 36.75L24.15 37.75L23.5 39.15L23 40.05Q22.7 40.45 22.7 40.95Q22.65 41.4 22.25 41.5Q21.2 40.35 21.95 38.1L23.15 34.4L24.3 30.75Q24.85 28.95 24.5 27.2Q24.35 26.5 24.9 26.4L25.15 26.55L25.35 26.7L25.5 26.9L25.55 27.25L25.6 27.65M29,44.8Q30.85 42.35 33.9 41.55Q34.2 43.4 37.4 44.15Q40.1 44.75 41.7 46.9Q43.15 48.85 44 51.35Q44.75 53.45 43.6 55.05L38.75 54.8Q35.3 54.45 32.3 53.5Q32.05 53.45 32.1 53.2Q29.65 52.75 27.8 51.15Q26.75 50.2 27.05 48.85Q27.55 46.65 29 44.8" />
<path style="fill:#333333;fill-opacity:0.980392" d="M1.45,-13.55L7.1 -12.9Q9.95 -12.25 11.8 -9.85L15.6 -5.85Q17.05 -4.55 17.85 -2.75L17.95 -2.7L19 -2.45L19.2 -2.4L20 -2L20.9 -1.4L21.05 -1.25L21 -1.5L21 -1.6L20.75 -2.4L20.55 -3.3Q20.4 -3.7 20.5 -4.25L20.55 -4.45L20.75 -4.65Q21.9 -5.65 23.3 -6.3Q26.35 -7.65 28.45 -5.85L28.5 -5.7L28.5 -5.5L28.5 -5.3L28.5 -5.15L28.5 -4.95L28.5 -4.75L28.5 -4.4Q31.45 -4.05 33.2 -7.4Q35.1 -10.95 36.1 -14.75Q36.6 -16.75 38.8 -17.25L46.05 -17.85Q47.45 -17.75 48.75 -18.2L51.5 -18.15L51.8 -18.05L51.9 -17.9L52.15 -17.5L52.3 -17.15L52.4 -16.75L52.4 -16.4L52.4 -16.2L52.25 -16.05L51.3 -15.25L50.3 -14L49.75 -13.15L49.45 -12.5L49.45 -12.35L49.75 -11.05L49.55 -9.55L49.3 -8.45L49.1 -6.95L48.9 -6.25L48.7 -6.05L48.25 -5.5L47.7 -4.75L47.15 -4.05L46.85 -3.45L46.9 -3.35L50.3 -3.05L51.35 -2.5L51.4 -2.3L51.3 -1.35L50.85 0L50.65 0.85L50.6 1.6L50.6 2.5L50.5 2.7L49.7 3.4L48.85 4.4L48.45 5.1L48.4 5.45L48.55 5.65L48.75 6L48.7 6.35L48.7 6.55L50.55 5Q51.7 4.15 53.25 4.4L53.45 4.25L53.65 4.05L53.8 3.85L54 3.65L54.4 3.35L54.7 3.2L56.1 3.35Q56.95 3.6 57.6 4.15Q58.25 4.7 58.4 5.5Q58.55 6.3 59.05 7Q58.95 8.2 58.35 9.2Q56.25 12.45 52.5 11.85L51.8 11.85L47 11.55L46.9 11.75L46.8 11.9L46.6 12.1L46.4 12.3L46.25 12.5L46.3 12.65L46.45 12.85L46.6 13.05L46.75 13.2L46.9 13.6L46.95 13.95L47 14.15L47 14.2L49.4 14.45L49.6 14.65L50.05 14.95L50.8 15.55L51.25 16.1Q51.45 16.4 51.3 16.65L51.2 16.75L50.95 16.8L51.05 16.9L51.3 17.1L51.4 17.25L51.6 17.45L51.65 17.65L51.65 17.85L51.65 18.2L51.65 18.55L51.7 18.95L51.7 19.3L51.85 19.5L52.05 19.7L52.3 19.85L52.5 20.05L52.6 20.45L52.65 21L52.5 21.75Q52.4 22.1 52.45 22.45L52.5 22.8L53.1 23.2L53.6 23.25L53.7 23.15L53.95 23.1L53.95 23.05L56.85 23.55L59.9 23.45L61.6 23.15Q63.2 23.05 64.8 23.1L65.1 23.2L66.4 24.3L67.4 25.2Q69.25 27.25 67.75 29.9Q66.1 32.8 62.75 33.2L59.05 33.9Q57.65 34.25 56.95 35.55L56.9 35.7L57.05 36L57.9 36.7L58.15 36.85L58.4 36.9Q61.55 35.9 64.3 37.35L67.3 38.3L67.5 38.45L67.75 38.85L67.8 39L67.9 39.2L67.95 39.4L68 39.55L68 39.75L68 39.95L67.95 40.3L67.9 40.7L67.85 40.85L67.7 41.05L67.5 41.2L67.2 41.4L67 41.55L66.85 41.75L66.75 41.9L66.65 42.1L66.55 42.3L66.35 42.65L66.25 42.85Q66.6 43.4 67.25 43.55L68.2 43.85Q69.15 44.2 69.65 45Q71.8 48.35 75.85 49Q77.15 49.2 78.2 50.15Q79.5 51.35 80.45 53.05L80.5 53.25L80.55 53.45L80.55 53.6L80.55 53.8L80.55 54L80.55 54.15L80.55 54.35L80.5 54.55L79.8 55.1L77.15 55.25L75.4 54.95Q71.6 54.55 68.15 53.2Q67.15 52.8 66.25 52.05L64.25 50.65L64.35 50.85L64.7 51.4L64.85 51.6L65.05 51.75L65.15 51.95L65.3 52.15L65.4 52.3L65.9 53.05L66.5 54L67 54.9L66.8 55.65L66.65 56L66.45 56.35L66 56.75Q63.5 58 60.65 58.45Q57.4 59 55.45 56.75L55.35 56.7L53.95 56.6L53.65 56.5L53.45 56.3L53 55.75L52.9 55.6L52.6 55.05L52.5 54.85L50.9 53.55Q49.1 52.6 47.85 53.25L47.95 53.45L48.05 54L48.05 54.15L48 54.7L47.95 54.9L47.5 56.35L46.3 58.15L44.4 60.4L43.1 60.35L42.4 60.05Q38.75 59 34.95 59.3Q30.75 59.7 28 56.5L27.85 56.3L27.15 56.8L26.65 57.55L25.45 58.85Q20.7 62.2 14.6 59.9Q13 59.3 11.85 58.05L8.1 57.55Q7.1 57.6 6.2 57.15Q4.85 56.55 4.1 57.55Q2.3 59.8 -0.55 59.3L-1.85 58.6L-1.85 58.4L-1.9 58.05L-1.9 57.85L-1.9 57.65L-1.9 57.5L-1.9 57.3L-1.85 57.15L-1.7 56.95L-1.45 56.75L-1.4 56.7L-1.95 56.35L-2.25 56.15L-2.45 56L-2.65 55.8L-2.8 55.6L-2.9 55.45L-3.1 54.9L-3.1 54.35L-3.25 54.2L-3.9 54L-4.2 53.9L-4.35 53.75L-4.6 53.55L-4.75 53.15L-4.8 52.45L-4.8 52.05L-4.75 51.9Q-4.6 50.8 -4.1 49.95Q-3.25 48.45 -1.75 47.55Q0 46.5 2.1 46.15L2.25 45.95L2.5 45.4L2.55 45.25L2.7 44.85L2.8 44.7L2.9 44.5L3.45 43.35L4.35 42L5.25 40.6L5.3 40.45L5.2 40.3L4.95 40.05L4.65 39.95L4.45 39.85L4.15 39.65L4.05 39.5L4 39.3L4 39.15Q4.4 37.4 1.75 38.55Q-1 39.75 -4.3 40.25Q-9.15 40.9 -10.5 37.15L-10.7 37.1Q-11.05 36.8 -11 36.35L-11 35.4L-10.95 34.9L-11 34.65Q-11.15 32.6 -9.45 31L-8 29.7L-9.85 29.45L-11.75 28.95Q-12.85 28.45 -13.25 27.3L-13.85 26L-15.25 25.5Q-16 25.25 -16.4 24.6Q-17.15 23.35 -17.25 21.9Q-17.35 20.35 -16.8 18.9Q-16.2 17.45 -15.75 15.85Q-15.35 14.3 -14.05 13.3L-14 12.95L-14 12.75L-14 12.55L-14 12.4L-14 11.85L-13.9 11.3L-13.7 10.35L-13.45 9.45L-12.9 8.3L-12.8 7.95L-11.9 7.15L-10.55 6.35Q-8.5 5.5 -6.35 4.95Q-1.9 3.75 2.1 4.8L2.45 5L2.75 4.95L2.9 4.9L3.05 4.7L3.25 4.5L3.45 4.3L3.5 3.95L3.5 3.75L3.5 3.6L3.5 3.4L3.5 3.2L3.5 3.05L3.5 2.85L3.5 2.65L3.55 2.3L3.6 1.9L3.6 1.55L2.5 0.7L-0.45 -1.75Q-2.4 -3.45 -2.95 -5.8Q-3.5 -8.25 -2.55 -10.55Q-1.6 -12.75 1 -13.4L1.45 -13.55M3.05,-7.65Q2.25 -7.4 2.8 -6.35L6.3 0.45L9.35 6.45L12.3 11.85L15.25 17.65L15.25 17.85L15.25 18L15.25 18.15L15 18.35L14.9 18.45L14.85 18.65L14.85 18.75L18.8 19.8Q20.75 20.25 22.5 19.75L22.3 19.4L21.95 19L21.6 18.65L21.25 18.25L21.05 17.9L21.45 17.65Q23.35 16.85 24.75 18.1Q25.65 18.95 26.65 18.6Q26.55 17.4 26.05 16.25Q25.5 15 25.25 13.6L24.8 11.2L24.5 8.6L23.75 6L23.5 5.9L22.9 5.8L22.6 5.75L22.4 5.65L22.3 5.45L22.1 5.1L22 4.75L21.95 4.55L21.85 4.35L21.7 4.2L21.55 4L21.3 3.85L20.45 3.75L20.25 3.8L20.1 3.95L20.05 4.1L19.9 4.5L19.8 4.85L19.8 5.05L19.8 5.2L19.65 5.35L19.45 5.4L19.3 5.05L18.95 4.05L18.55 3.2L18 2.25Q17.5 1.6 17.05 2.15L17.05 2.35L17 3.45L17.15 4.55L17.3 5.65Q17.2 6.25 17.45 6.8L17.6 7.7Q16.6 5.95 14.75 4.5Q12.55 2.7 10.65 0.6L6.85 -3.55L3.05 -7.65M39.9,-5.2L41 -6.8Q41.6 -7.9 40.55 -8.25L36.45 -4.05L32.45 0.1L31.25 1.25Q29.35 3.1 28 5.45L24.85 11.3Q25.9 11.65 27.1 10.95Q28.55 10.1 30.05 9.35Q32.65 8.1 33.05 9.2Q34 9.75 35.15 8.9Q35.65 8.5 36.3 8.2Q39.1 6.75 42.25 5.95Q44.15 5.45 45.65 4.2Q47.95 2.3 48.65 -0.4Q46.4 -0.95 43.85 -0.4L38.7 0.15L38.8 0L38.95 -0.4L39.15 -0.75L39.3 -1.1L39.5 -1.5L39.5 -1.7L39.45 -1.8L38.45 -2L38.3 -2.05L38.3 -2.1L38.95 -3.6L39.9 -5.2M42.45,14.55L42.55 14.35L42.35 14.05L42.1 13.9L41.15 13.85Q39.15 14.3 37.3 15.3L32.8 17.6Q31.25 18.35 29.7 18.75L29.55 18.95L29.1 19.35Q28.7 19.55 28.45 19.85Q28.2 20.15 28.25 20.5L28.1 21.35L27.9 22.2L27.9 22.35L34.25 24.7Q38.3 25.95 40.3 22.75L41.55 20.35L41.75 20.15L42 19.95L42.45 19.55L42.85 19L43.05 18.65L43.05 18.5L42.9 17.95L42.6 17.55L41.95 17.1L40.4 16.55L40.35 16.5L40.6 16.25L41.15 15.75L42.15 14.95L42.45 14.55M41.65,33.5Q41.45 33.5 41.2 33.65L39.05 35.1Q38.1 35.9 38.35 37.15Q38.5 38.1 39.15 38.9L40.8 40.7Q41.8 41.6 42.95 41.4Q43.15 40.45 43.8 41.2L46.25 43.75L49.35 46.7Q50.65 48.1 52.3 49Q54.45 50.15 56.7 50.05L56.95 49.5L57.35 49L57.6 48.4L57.55 47.65L57.1 46.7Q56.8 46.4 56.85 46L56.85 45.8L57.4 45.5Q58 45.25 58.7 45.15L58.75 45.1L58.8 45L58.85 44.8L55.75 42.3L51.4 38.75Q49.3 36.9 46.85 35.35Q44.4 33.85 41.65 33.5M20.6,22.9L20.55 22.75L20.45 22.55Q19.95 22.1 19.3 21.95L18.2 21.6L17.05 21.4L15.75 21.25L15.75 21.3L15.35 21.45L14.55 21.8L13.65 22.2L12.5 23.2L11.8 23.75L11.15 24.15L10.7 24.35L11.1 24.4L11.55 24.25Q12 23.95 12.55 23.9L13.2 23.85L13.45 23.8L13.35 23.85L9.6 26.35Q5.6 28.4 1.6 30.6L-2.2 32.65Q-3.7 33.45 -4.6 34.6Q-3.45 35.3 -2 34.6L0.2 33.65L4.5 31.85Q5.7 31.3 6.9 31.45L7.15 31.4L8.6 30.35Q9 30 9.55 29.75L12.4 28.4L14.75 27.05L15.6 26.85L12.9 29.75L10.45 32.65L9.1 34.3L7.15 36.55Q6.3 37.2 7.15 37.65L7.4 37.6L8.1 37.25L9.4 36.15L10.65 35.35L11.2 35L11.7 34.75L11.9 34.9L12.05 35L12.35 35.15L12.8 35.15L15.7 33.35Q17.6 32.4 18.95 30.9L20.7 28.9Q21.8 27.5 23.2 26.55Q23.95 26 24.1 25.2L24 25Q23.55 24.35 22.5 24.35L20.75 24.05L20.45 23.95L20.05 23.8L19.85 23.65L20.25 23.45L20.4 23.3L20.55 23.1L20.6 22.9M0,8.7L-0.8 8.5Q-1.8 8 -2.95 8.2L-3.35 8.6L-3.35 9.1Q-3.35 9.45 -3 9.65L-2.7 9.8L-2.6 9.9Q-2 10.4 -1.15 10.55L-1.1 10.6L-2.75 11Q-4.05 11.35 -5.15 12L-6.6 13.05L-6.85 13.2L-7.1 13.35Q-7.6 13.7 -7.55 14.3L-7.55 14.5L-7.4 14.8L-7.15 15.1L-7.2 15.2L-7.8 15.65L-9.1 16.5L-9.8 17.05L-10.05 17.25L-10.3 17.4L-11.15 18.05L-11.25 18.2L-11.25 18.35L-11.25 18.55L-11.25 18.75L-11.25 18.9L-11.25 19.1L-11.25 19.65L-11.25 20L-11.2 20.2L-11 20.4L-10.8 20.55L-10.45 20.75L-9.9 21L-9.2 21.3Q-9.1 21.3 -9.05 21.4L-8.9 21.6L-8.9 21.75L-9 22.15L-9.05 22.3L-9.05 22.5L-9.05 22.65L-9.05 22.85L-9.05 23.2L-9 23.75L-8.9 23.95L-8.1 24.25L-6.45 24.5L-6.15 24.55L-0.4 24.95L-0.15 24.55L-0.05 24.4L0.05 24.2L0.15 24L0.2 23.85L0.35 23.45L0.55 22.9L0.7 22.75L5.9 21.9Q6.45 21.75 6.4 21.3Q6 18.05 8.05 16.1Q10.15 14.15 8.1 11.8L6.4 9.55Q5.7 8.6 5.2 9.2L5.15 9.3L3.2 9.25L0 8.7M6.35,46.7Q4.75 47.75 3.35 49L3.25 49.55Q3.35 50.25 3.75 50.85Q4.4 51.8 5.5 52L8.45 52.9L8.5 53.05L8.5 53.25L8.5 53.45L8.5 53.6L8.55 53.8L8.65 54Q9.35 54.35 10.05 54L11 53.45Q11.85 52.9 12.4 53.25L12.4 53.45L12.4 53.6L12.4 53.8L12.5 54L12.7 54.35L12.85 54.55L13 54.7Q14.6 55.25 15.85 54.25L18.3 52.35L21.35 49.75Q22.45 48.75 22.05 47.25L20.55 45.65L18.65 44L16.7 42.05Q15.9 41 14.55 40.7L14.05 40.75L13.8 40.8Q13.7 40.85 13.55 40.95L12.85 41.9L10.05 44.15L6.35 46.7M25.55,27.25L25.5 26.9L25.35 26.7L25.15 26.55L24.9 26.4Q24.35 26.5 24.5 27.2Q24.85 28.95 24.3 30.75L23.15 34.4L21.95 38.1Q21.2 40.35 22.25 41.5Q22.65 41.4 22.7 40.95Q22.7 40.45 23 40.05L23.5 39.15L24.15 37.75L24.95 36.75L25 37.1L25 37.65L24.95 38.2Q24.9 38.6 25.2 38.75L25.7 39.1L26.2 38.95L26.75 38.3L27.3 37.35L27.7 36.25L27.8 35.35L27.95 35.45L28.7 36.2L29.6 36.85L30.35 36.7Q30.45 35.8 30 34.8L29.1 32.8L28.05 31.05L25.95 28.95L25.85 28.55L25.75 28.2L25.6 27.65L25.55 27.25M27.05,48.85Q26.75 50.2 27.8 51.15Q29.65 52.75 32.1 53.2Q32.05 53.45 32.3 53.5Q35.3 54.45 38.75 54.8L43.6 55.05Q44.75 53.45 44 51.35Q43.15 48.85 41.7 46.9Q40.1 44.75 37.4 44.15Q34.2 43.4 33.9 41.55Q30.85 42.35 29 44.8Q27.55 46.65 27.05 48.85" />
</g>
</svg>
