<?xml version="1.0" encoding="utf-8"?>
<svg version="1.1" id="Layer_1"
xmlns="http://www.w3.org/2000/svg"
xmlns:xlink="http://www.w3.org/1999/xlink"
width="26px" height="15px"
xml:space="preserve">
<g id="767" transform="matrix(1, 0, 0, 1, 21.1, -7.15)">
<path style="fill:#000000;fill-opacity:1" d="M3.95,18.4L4.1 18.75L4.3 19.25L4.35 19.4L4.4 19.55L4.45 19.7L4.6 19.95L4.75 20.85L4.3 20.95L0.5 21.25L-7.25 20.95Q-11.15 21.4 -14.9 20.95L-20.15 20.8L-20.15 20.6L-20 20.45L-20 20.35L-19.95 20.3L-19.9 20.25L-19.9 20.1Q-20.1 18.4 -18.4 17.25Q-17 16.35 -15.5 15.7L-11.65 16.45L-10.2 16.95L-9.25 16.05Q-8.4 15.35 -7.25 15.55L-6.7 15.95L-6.95 13.15L-7 10.6L-6.55 10.9L-5.65 11L-5.6 11.4L-5.45 14.1L-5.4 16.7L-5.5 16.75L-4.4 17.35L-4.25 17.65L-3.6 18L-3.5 18.05L-3.35 18.2L-3.15 18.3L-3.05 18.35L-1.6 18.5Q1.05 18.9 3.3 17.7Q3.8 17.9 3.95 18.4M-19.1,7.15L-19 7.25Q-18.65 7.8 -18.9 8.45Q-19.25 9.35 -20.2 9.1L-20.25 9Q-20.5 8.4 -20.15 7.8Q-19.8 7.2 -19.1 7.15M-17.4,9.75L-17.35 9.8Q-17.3 11.65 -18.85 12.45L-18.8 12.5L-18.95 12.55L-19.2 12.6L-19.5 12.7Q-20.25 12.95 -20.55 12.35L-20.7 11.95Q-21.5 11.1 -20.7 10.45Q-20.15 9.65 -18.15 9.7L-17.95 9.7L-17.4 9.75" />
</g>
</svg>
