<?xml version="1.0" encoding="utf-8"?>
<svg version="1.1" id="Layer_1"
xmlns="http://www.w3.org/2000/svg"
xmlns:xlink="http://www.w3.org/1999/xlink"
width="9px" height="7px"
xml:space="preserve">
<g id="661" transform="matrix(1, 0, 0, 1, 18.25, 21.75)">
<path style="fill:#FFFF98;fill-opacity:1" d="M-15,-19.05L-15.05 -18.9L-15.3 -18.9L-14.5 -18.45L-14.45 -18.35L-14.6 -18.3L-16.1 -18.95L-18.25 -20.15Q-18 -20.2 -17.3 -19.85L-16.05 -19.25L-17.35 -20.1L-17.3 -20.25L-15.05 -19.15L-15 -19.05" />
<path style="fill:#000000;fill-opacity:0.639216" d="M-13.65,-20.5L-13.65 -20.4L-13.6 -20.1L-13.6 -20.05L-13.5 -19.65L-13.15 -19.3L-13.2 -19.5L-13.05 -19.8L-13.15 -20.6L-13.75 -20.65L-13.75 -20.6L-13.8 -20.5L-13.75 -20.5L-13.65 -20.5M-14.65,-20.55Q-14.65 -21.85 -13.25 -21.75L-12.35 -21.5Q-11.8 -21.4 -11.6 -20.85L-11.45 -20.15L-11.45 -20.05Q-10.7 -20.05 -10.7 -19.4L-10.75 -19.2L-11.15 -19.5L-11.5 -19.65L-11.55 -19.5Q-10.5 -19.25 -10.55 -18.45L-10.55 -17.95L-10.65 -17.9L-10.65 -17.85L-10.75 -17.85L-11.05 -18.25L-11.2 -17.95L-11.35 -17.75L-11.1 -17.6L-9.75 -16.85L-10.35 -16.65L-10.7 -16.7L-10.7 -16.65Q-10.9 -16.45 -11.2 -16.45Q-11.4 -16.45 -11.8 -16.8L-12.75 -17.15L-13 -16.95L-12.8 -16.9L-12.75 -16.75L-12.75 -16.55Q-12.85 -16.35 -13.25 -16.3L-12.85 -16.15L-12.8 -16.15L-12.85 -16.05L-12.1 -16L-12.1 -15.7L-12.7 -15.65L-13.4 -15.75L-13.65 -15.65L-14.3 -15.5Q-14.8 -15.5 -15.1 -15.8L-15.35 -16.05L-15.45 -16.35L-15 -17.25L-14.95 -17.2L-14.55 -17.55L-14.2 -17.5L-13 -17.65L-13.05 -17.8L-12.8 -17.8L-13.4 -18.55Q-14 -18.65 -14.4 -19.15L-14.7 -19.85L-14.65 -20.3L-14.65 -20.55M-14.05,-19.5L-14.1 -19.65L-14.25 -19.65L-13.95 -19.35L-14.05 -19.5M-12.75,-19.75L-12.4 -19.9L-12.45 -20.05L-12.9 -20.5L-12.85 -19.95L-12.85 -19.8L-12.75 -19.75M-11.85,-20.65L-11.85 -20.3L-11.9 -20.15L-11.9 -20.1L-11.9 -20.05L-11.7 -20.05L-11.7 -20.3L-11.85 -20.65M-11.8,-19.55L-11.75 -19.65L-11.85 -19.65L-11.9 -19.55L-11.8 -19.55M-12.45,-19.05L-12.3 -18.9L-12.25 -18.95L-12.35 -19.05L-12.45 -19.05M-12.2,-18.8L-12.15 -18.8L-12.25 -18.95L-12.3 -18.9L-12.2 -18.8M-11.6,-19.15L-11.8 -19.15L-11.85 -19.1L-11.85 -19.15L-11.9 -19.15L-11.85 -19.1L-11.6 -19.15M-11.65,-18.85L-11.5 -18.4L-11.55 -18.2L-11.55 -18.15L-11.55 -17.95L-11.4 -17.9L-11.05 -18.25L-11.15 -18.45L-11.3 -18.8L-11.65 -18.85M-11.8,-18.25L-12 -18.5L-11.85 -18.2L-11.8 -18.25M-12.5,-17.7L-12.15 -17.55L-11.9 -17.4L-12.3 -17.75L-12.5 -17.7M-11.1,-16.85L-11.1 -16.8L-10.8 -16.75L-11.1 -16.85M-14.55,-17.05L-14.95 -16.35L-14.7 -16.25L-13.8 -16.05L-13.9 -16.5L-13.85 -16.55L-13.9 -16.55L-13.8 -16.7L-13.75 -16.7L-13.7 -16.75L-14.2 -16.8L-14.5 -17.05L-14.55 -17.05M-13.85,-16.95L-13.4 -17.05L-13.7 -17L-13.85 -16.95M-13.35,-16.55Q-12.95 -16.65 -12.95 -16.75L-13.3 -16.6L-13.35 -16.55" />
</g>
</svg>
