<?xml version="1.0" encoding="utf-8"?>
<svg version="1.1" id="Layer_1"
xmlns="http://www.w3.org/2000/svg"
xmlns:xlink="http://www.w3.org/1999/xlink"
width="10px" height="7px"
xml:space="preserve">
<g id="690" transform="matrix(1, 0, 0, 1, 20.55, -4.35)">
<path style="fill:#000000;fill-opacity:1" d="M-18.55,4.35L-18 5.3L-16.95 6.75L-16.5 7.4L-13.45 7.5L-13.1 7.05L-12.95 7L-12.25 7Q-11.8 7 -11.55 7.35L-11.5 7.4L-11.25 7.7Q-10.55 9.05 -10.8 10.3Q-10.85 10.6 -11.25 10.65Q-12.2 10.65 -13.1 10.05L-13.7 10Q-16.3 10.75 -18 9.45L-19.65 7.9Q-20.35 7.05 -20.55 6.1L-20.3 5.45L-19.8 4.85L-19.85 4.8L-19.8 4.45L-19.4 4.35L-18.65 4.35L-18.55 4.35" />
</g>
</svg>
