<?xml version="1.0" encoding="utf-8"?>
<svg version="1.1" id="Layer_1"
xmlns="http://www.w3.org/2000/svg"
xmlns:xlink="http://www.w3.org/1999/xlink"
width="136px" height="46px"
xml:space="preserve">
<g id="1702" transform="matrix(1, 0, 0, 1, 0, 0)">
<path style="fill:#FFD645;fill-opacity:0.85098" d="M130.5,40.1Q131.4 38.8 131.4 37.2L131.4 3.7L3.7 3.7L3.7 37.2Q3.7 38.6 5.25 40.1Q6.95 41.7 9.25 41.8L127.15 41.8Q129.3 41.75 130.5 40.1M130.6,45.5L5.85 45.5Q3.45 45.4 1.65 43.45Q0 41.7 0 40L0 0L135.1 0L135.1 40Q135.1 41.9 134.15 43.45Q132.9 45.45 130.6 45.5" />
</g>
</svg>
