<?xml version="1.0" encoding="utf-8"?>
<svg version="1.1" id="Layer_1"
xmlns="http://www.w3.org/2000/svg"
xmlns:xlink="http://www.w3.org/1999/xlink"
width="235px" height="38px"
xml:space="preserve">
<g id="488" transform="matrix(1, 0, 0, 1, 47.5, -185.65)">
<path style="fill:#3A1D0F;fill-opacity:0.25098" d="M69,188.15L69.15 187.75Q69.4 187.15 69.8 187L72.25 186L73.2 185.65L75.25 185.8Q76.45 186 77.2 186.85Q77.8 187.5 78 188.4L78.05 188.75L77.9 189.15L77.65 189.6L77.45 189.95L76.85 190.75L74.2 191.25Q70.4 191.6 68.9 188.45L69 188.15M52.35,208.5Q53.2 209.05 53.7 209.95Q52.65 212.15 50.85 213.7Q46.55 217.3 42.3 213.9Q41.05 212.85 40.65 211.4Q40.55 210.8 40.95 210.35Q42.3 208.7 44.45 208.55Q46.95 208.45 48.6 207.6L50.65 207.8Q51.55 208 52.35 208.5M-20.2,218.5Q-23.55 222.4 -29 219.75L-29.3 219.3L-29.6 218.2Q-29.65 217.3 -29.25 216.55Q-28.65 215.6 -27.7 215.5L-27.7 215.45L-23 215.75Q-21.3 216 -20.35 217.45L-20.1 218.2L-20.2 218.5M-35.85,219.15Q-34.7 220.4 -35.25 222.25Q-36 223 -37.1 223Q-41.85 223.05 -46.35 221.6L-46.75 221.3L-47.1 220.9L-47.25 220.55L-47.3 219.75L-47.3 218.95L-47.45 217.8Q-47.6 217.15 -47.15 216.75L-47 216.65L-46.5 216.55L-44.4 216.4L-44.4 216.35L-39.65 216.8Q-37.35 217.45 -35.85 219.15" />
<path style="fill:#3A1D0F;fill-opacity:0.2" d="M186.7,218.95Q186.35 219.75 185.55 219.85L182.85 220.25Q180.45 220.65 178.6 219.35L178.2 218.55L178.15 217.8L178.15 217Q178.1 216.6 178.3 216.25Q178.65 215.5 179.25 215.45L182.6 216.1L185.7 217.2Q187.3 217.7 186.7 218.95" />
</g>
</svg>
