<?xml version="1.0" encoding="utf-8"?>
<svg version="1.1" id="Layer_1"
xmlns="http://www.w3.org/2000/svg"
xmlns:xlink="http://www.w3.org/1999/xlink"
width="16px" height="29px"
xml:space="preserve">
<g id="1564" transform="matrix(1, 0, 0, 1, -3.3, 21.45)">
<path style="fill:#D6D6D6;fill-opacity:0.498039" d="M6.9,-19.75L6.75 -19.9L7.45 -20.45L7.4 -19.85L6.9 -19.75M3.35,-20.85L3.3 -21.05L3.65 -21.45L3.9 -21L3.6 -20.75L3.35 -20.85M5.65,-17.35Q5.5 -17.2 5.25 -17.2L5.15 -17.5Q5.4 -17.75 5.65 -17.35M13.65,-11.2L13.55 -11.5Q13.8 -11.75 14.05 -11.35Q13.9 -11.2 13.65 -11.2M18.65,6.6L18.55 6L19.05 5.95L19.1 6.4L18.65 6.6" />
</g>
</svg>
