<?xml version="1.0" encoding="utf-8"?>
<svg version="1.1" id="Layer_1"
xmlns="http://www.w3.org/2000/svg"
xmlns:xlink="http://www.w3.org/1999/xlink"
width="63px" height="81px"
xml:space="preserve">
<g id="441" transform="matrix(1, 0, 0, 1, 0, 0)">
<path style="fill:#000000;fill-opacity:1" d="M28.65,19.5L29.45 18.95L32.5 20.65L31.95 19.35L30.25 18.4L31 17.85L31.4 18.05L31.25 17.65L34.4 15.45L42.8 3.45L42.95 5.45L45.3 6.05Q48.9 6.95 48.3 10.3L49.9 10.2L53.25 4.45L52.15 3.75L53.6 0L62.05 4.5L58.55 7.35L57.45 6.75L52.95 13.4L47.25 14.3L46.65 16.65L49.2 17.3L48.7 19.1L50.65 19.65L50.4 20.6Q52.4 21.25 53.85 19.9L54.75 18.25L56.55 18.95L55.55 20.9Q53.7 23.15 50 22.15L49.6 23.7L47.65 23.15L47.25 24.6L44.65 23.95Q43.5 26.8 40.1 25.9L38.5 25.5L39.25 26.95L39.2 26.95L38.35 25.45L37.2 25.15Q38.05 26 38.6 27.25L38.85 27.55L39.25 27.65L40.65 27.6L40.95 28.95L39.6 29.45L39.35 29.75L39.2 30.05Q39.25 31.35 38.75 32.6L38.7 33.05L38.95 33.35L39.9 34.25L39.25 35.35L38 34.85L37.65 34.8L37.3 35.05L35.05 36.6L34.75 36.9L34.65 37.2L34.65 38.45L33.55 38.75L33.05 37.65L32.75 37.35L32.7 37.35L32.4 37.25Q30.9 37.35 29.45 36.7L29.05 36.7L28.75 36.9L27.95 37.7L27.05 37.15L27.45 36.1L27.5 35.75L27.3 35.4L26.8 34.9L25.8 33.45L25.55 32.85L25.3 32.5L24.9 32.45L23.8 32.45L23.6 31.45L24.55 31.05L24.85 30.8L24.95 30.4L24.95 30.3Q24.85 28.8 25.55 27.3L25.6 26.9L25.35 26.6L24.55 25.85L25.2 24.9L26.25 25.35L26.6 25.4L26.95 25.2L27.2 25Q27.4 24.75 27.65 24.6L28.2 24.2L27.2 23.35L26.9 23.8L24.95 23.1L24.85 23.05L24.25 22.95Q24 23 23.8 23.15L23.7 23.25L23.3 23.65L22.3 24.55L20.95 25.45L20.5 25.65L20.05 26.05L19.9 26.65L20.05 28.75L18.15 29.35L17.25 27.45L27.9 20.05L33.45 23.3L32.1 23.1L31.3 23.15L27.85 21.15L28.4 22.45L30.15 23.5L29.15 24L28.95 23.85L29.05 24.05L28.5 24.5L28.45 24.55Q27 26.05 27 28.2Q27 30.35 28.45 31.85Q29.95 33.3 32.1 33.3Q34.25 33.3 35.75 31.85Q37.2 30.35 37.2 28.2Q37.2 26.25 36 24.85L35.75 24.55L34.6 23.7L33.6 23.3L33.05 22.05L28.65 19.5M31.9,78.5L22.9 80.55L17.2 77.5L16 72.15L15.5 75.25L13.95 73.2L14.85 67.05L13.15 59.3L11.4 65.7L10.85 69.05L3.6 59.45L6.1 60.05L6.5 58.65L2.6 57.65L3.15 55.4L7 56.35L7.4 54.95L3.45 53.9L3.95 51.9L7.9 52.9L8.3 51.5L7.35 51.25Q9 51.05 10.25 49.85Q11.7 48.35 11.7 46.2L11.7 45.85L11.8 45.75L12.25 43.3L11.15 42.5L10.95 43.45L10.25 42.55L9.85 42.2L9.95 41.65L9.25 41.15L8.65 41.5L6.6 41.1Q4.45 41.1 2.95 42.55L2.45 43.15L2.9 41.1L7.75 40.1L6.65 39.3L0.75 39.3L0.55 39.05L3.6 36.95L4.55 37.85L5.2 37.3L5.75 37.7L5.7 36.9L6.25 36.45L5.75 35.45L6.85 34.65L7.2 38.7L8.5 39.65L8 33.85L9.5 32.8L10.3 33.35L13.2 35.4L14.85 36.6L16.95 35.3L22.85 31.6L22.95 31.55L23.25 32.8L22.05 39.35L23.5 38.5L24.45 33.1L24.95 33.05L25.65 34.45L25.1 37.5L26.5 36.6L26.65 35.75L26.85 35.9L26.2 37.4L28.05 38.55L29.15 37.3Q30.65 38 32.2 37.95L31 39.3L23.7 39.3L23.05 39.75L26.6 40.5L27.3 43.7L26.45 42.55Q24.95 41.1 22.8 41.1Q21.45 41.1 20.35 41.7L19.85 41.3L19.9 41.95L19.15 42.55L18.75 43.05L18.5 40.35L17.2 39.4L17.75 45.55L17.7 46.2Q17.7 48.35 19.15 49.85L19.4 50.1L19.5 50.2Q20.3 50.8 21.25 51.1L21.6 52.3L25.55 51.3L26.05 53.3L22.1 54.35L22.5 55.75L26.3 54.8L26.35 54.8L26.9 57.05L23 58.05L23.4 59.45L27.25 58.5L27.7 60.5L23.9 61.5L24.3 62.9L28.05 61.95L28.5 64L24.85 64.95L25.25 66.35L28.85 65.45L29.3 67.45L25.75 68.4L26.15 69.8L29.65 68.9L31.9 78.5M26.9,49.35Q27.85 48.1 27.9 46.5L34.75 77.9L33.1 78.25L26.9 49.35M2.7,49.55L1.25 56.3L0 54.6L1.6 47.2Q1.8 48.5 2.7 49.55M11.75,35.5L11.95 37.7L12 37.65L12.4 42.4L13.7 43.35L13.1 36.5L11.75 35.5M17.55,36L17.2 38.25L18.3 39.05L18.6 37.2L18.65 37.3L19.05 35.05L17.55 36M9.65,38.6L9.8 40.55L11.1 41.5L10.9 39.15L10.95 39.05L10.55 34.7L9.25 33.75L9.7 38.45L9.65 38.6M19.6,38.8L19.45 39.85L20.3 40.5L20.65 40.25L21 38.3L20.9 38.15L21.8 33.35L20.35 34.25L19.55 38.7L19.6 38.8M16,37.4L16.05 36.9L15.65 37.15L16 37.4M13.9,44.45L13.5 44.2L13.4 44.75L13.9 44.45M16,49.4L16.95 53L17.05 52.45L16.25 49.1L16 49.4M16.35,45.25L15.75 38.4L14.45 37.45L15.05 44.3L16.35 45.25M14.3,55.1L15.7 61.55L16.2 58.1L14.85 53.1L14.3 55.1M18.25,58L19.35 62.1L18.3 57.75L18.25 58M16.85,66.95L18.5 74.85L21.1 76L17.5 62.85L16.85 66.95M27.3,77.1L26.8 75.3L27.1 77.05L27.3 77.1" />
<path style="fill:#5E4028;fill-opacity:1" d="M29.15,37.3L28.05 38.55L26.2 37.4L26.85 35.9L26.65 35.75L26.5 36.6L25.1 37.5L25.65 34.45L24.95 33.05L24.45 33.1L23.5 38.5L22.05 39.35L23.25 32.8L22.95 31.55L22.95 31.5L22.85 31.6L16.95 35.3L15.6 35.5L14.7 35.5L14.5 35.5L13.2 35.4L10.3 33.35Q12.05 34.3 14.15 34.4L13 30.55L12.85 30.5L14.6 29.3L15.15 29.3L16.85 28.95L16.4 28.05L17.25 27.45L18.15 29.35L20.05 28.75L19.9 26.65L20.05 26.05L20.5 25.65L20.95 25.45L22.3 24.55L23.3 23.65L23.7 23.25L23.8 23.15Q24 23 24.25 22.95L24.85 23.05L24.95 23.1L26.9 23.8L27.2 23.35L28.2 24.2L27.65 24.6Q27.4 24.75 27.2 25L26.95 25.2L26.6 25.4L26.25 25.35L25.2 24.9L24.55 25.85L25.35 26.6L25.6 26.9L25.55 27.3Q24.85 28.8 24.95 30.3L24.95 30.4L24.85 30.8L24.55 31.05L23.6 31.45L23.8 32.45L24.9 32.45L25.3 32.5L25.55 32.85L25.8 33.45L26.8 34.9L27.3 35.4L27.5 35.75L27.45 36.1L27.05 37.15L27.95 37.7L28.75 36.9L29.05 36.7L29.45 36.7Q30.9 37.35 32.4 37.25L32.7 37.35L32.75 37.35L33.05 37.65L33.55 38.75L34.65 38.45L34.65 37.2L34.75 36.9L35.05 36.6L37.3 35.05L37.65 34.8L38 34.85L39.25 35.35L39.9 34.25L38.95 33.35L38.7 33.05L38.75 32.6Q39.25 31.35 39.2 30.05L39.35 29.75L39.6 29.45L40.95 28.95L40.65 27.6L39.25 27.65L38.85 27.55L38.6 27.25Q38.05 26 37.2 25.15L38.35 25.45L39.2 26.95L39.25 26.95L41.15 26.9L41.7 29.3L39.85 30.1L39.4 32.85L40.7 34.1L39.55 36.2L37.75 35.5L35.3 37.2L35.35 38.9L33.15 39.55L32.45 37.9L32.2 37.95Q30.65 38 29.15 37.3M3.6,36.95L4.15 36.55L4.6 36.95L4.65 36.9L5.4 36.25L5.2 35.8L5.75 35.45L6.25 36.45L5.7 36.9L5.75 37.7L5.2 37.3L4.55 37.85L3.6 36.95M8.5,39.65L7.2 38.7L6.85 34.65L8 33.85L8.5 39.65M17.1,30.65L15.95 34.3Q18.75 33.95 20.95 32.15L17.9 30.55L17.6 30.6L17.55 30.5L17.1 30.65M14.25,30.85L15.05 33.4L15.85 30.9L15.15 30.9L14.25 30.85M13.1,36.5L13.7 43.35L12.4 42.4L12 37.65L11.95 37.7L11.75 35.5L13.1 36.5M19.05,35.05L18.65 37.3L18.6 37.2L18.3 39.05L17.2 38.25L17.55 36L19.05 35.05M9.7,38.45L9.25 33.75L10.55 34.7L10.95 39.05L10.9 39.15L11.1 41.5L9.8 40.55L9.65 38.6L9.7 38.45M8.65,41.5L9.25 41.15L9.95 41.65L9.85 42.2L8.65 41.5M10.95,43.45L11.15 42.5L12.25 43.3L11.8 45.75L11.7 45.85Q11.6 44.5 10.95 43.45M19.55,38.7L20.35 34.25L21.8 33.35L20.9 38.15L21 38.3L20.65 40.25L20.3 40.5L19.45 39.85L19.6 38.8L19.55 38.7M15.65,37.15L16.05 36.9L16 37.4L15.65 37.15M19.9,41.95L19.85 41.3L20.35 41.7L19.9 41.95M17.75,45.55L17.2 39.4L18.5 40.35L18.75 43.05Q17.9 44.15 17.75 45.55M13.4,44.75L13.5 44.2L13.9 44.45L13.4 44.75M15.05,44.3L14.45 37.45L15.75 38.4L16.35 45.25L15.05 44.3M23.5,24.9L23.4 24.95L23.55 24.9L23.5 24.9M23.85,26.05L20.95 26.95L21.1 28.6L22.2 30.75Q23.7 28.7 24 26.2L23.85 26.05M20.35,29.75L19.35 30.05L20.95 30.9L20.35 29.75M23.4,30.85L24.35 30.45Q24.3 29.65 24.4 28.9L23.4 30.85" />
<path style="fill:#BD8051;fill-opacity:1" d="M33.1,78.25L31.9 78.5L29.65 68.9L26.15 69.8L25.75 68.4L29.3 67.45L28.85 65.45L25.25 66.35L24.85 64.95L28.5 64L28.05 61.95L24.3 62.9L23.9 61.5L27.7 60.5L27.25 58.5L23.4 59.45L23 58.05L26.9 57.05L26.35 54.8L26.3 54.8L22.5 55.75L22.1 54.35L26.05 53.3L25.55 51.3L21.6 52.3L21.25 51.1L22.8 51.3Q24.95 51.3 26.45 49.85L26.9 49.35L33.1 78.25M2.7,49.55L2.95 49.85Q4.45 51.3 6.6 51.3L7.35 51.25L8.3 51.5L7.9 52.9L3.95 51.9L3.45 53.9L7.4 54.95L7 56.35L3.15 55.4L2.6 57.65L6.5 58.65L6.1 60.05L3.6 59.45L1.25 56.3L2.7 49.55M33.05,22.05L33.6 23.3L33.45 23.3L27.9 20.05L28.65 19.5L33.05 22.05M29.45,18.95L30.25 18.4L31.95 19.35L32.5 20.65L29.45 18.95M30.15,23.5L28.4 22.45L27.85 21.15L31.3 23.15L30.15 23.5M32.1,24.55Q33.4 24.55 34.4 25.45L34.45 25.45L34.65 25.65Q35.6 26.6 35.75 27.8L35.75 28.2Q35.75 29.75 34.65 30.85L33.2 31.7L32.1 31.85L30.95 31.7Q30.1 31.45 29.45 30.85Q28.45 29.75 28.45 28.2Q28.45 27.05 29.1 26.1L29.45 25.65L29.6 25.55L29.8 25.35L30.65 24.85L31.95 24.55L32.1 24.55M7.3,42.65L8.4 43.05L9.15 43.65L9.5 44.05Q10.25 45 10.25 46.2Q10.25 47.75 9.15 48.85Q8.05 49.85 6.6 49.85Q5.45 49.85 4.55 49.3L3.95 48.85L3.15 47.45L2.95 46.2Q2.95 44.75 3.95 43.65L5.05 42.9Q5.75 42.55 6.6 42.55L6.95 42.6L7.3 42.65M6.6,43.05L6.15 43.1L5.35 43.35L4.45 44.05Q3.85 44.5 3.65 45.2L3.5 45.9L3.45 46.2Q3.45 47.45 4.45 48.35L4.7 48.65Q5.5 49.35 6.6 49.35Q7.95 49.35 8.75 48.35Q9.75 47.45 9.75 46.2Q9.75 45.35 9.35 44.75L8.75 44.05L8.3 43.6L7.25 43.1L6.6 43.05M20.1,43.75L20.15 43.65L21.25 42.9Q21.95 42.55 22.8 42.55L23.55 42.65Q24.55 42.85 25.35 43.65L25.8 44.15Q26.45 45.05 26.45 46.2L26.4 46.95Q26.2 48 25.35 48.85L25.05 49.15Q24.05 49.85 22.8 49.85Q21.25 49.85 20.15 48.85Q19.15 47.75 19.15 46.2Q19.15 44.8 20.1 43.75M19.65,46.2Q19.65 47.45 20.65 48.35Q21.5 49.35 22.8 49.35Q24.1 49.35 24.9 48.45L24.95 48.35Q25.95 47.45 25.95 46.2Q25.95 44.85 24.95 44.05L24.55 43.65Q23.85 43.05 22.8 43.05Q21.95 43.05 21.3 43.5L20.65 44.05L20.15 44.55Q19.65 45.25 19.65 46.2M33.9,25.7L33.1 25.25L32.1 25.05L31.25 25.2Q30.75 25.3 30.35 25.65L30.05 26L29.95 26.05L29.35 26.7Q28.95 27.35 28.95 28.2Q28.95 29.45 29.95 30.35L30.1 30.55Q30.9 31.35 32.1 31.35Q33.3 31.35 34.05 30.6L34.25 30.35Q35.25 29.45 35.25 28.2L35.25 27.8L35.2 27.5Q34.95 26.6 34.25 26.05L33.95 25.75L33.9 25.7M27.1,77.05L26.8 75.3L27.3 77.1L27.1 77.05" />
<path style="fill:#0B0B0B;fill-opacity:1" d="M26.9,49.35L26.45 49.85Q24.95 51.3 22.8 51.3L21.25 51.1Q20.3 50.8 19.5 50.2L19.4 50.1L19.15 49.85Q17.7 48.35 17.7 46.2L17.75 45.55Q17.9 44.15 18.75 43.05L19.15 42.55L19.9 41.95L20.35 41.7Q21.45 41.1 22.8 41.1Q24.95 41.1 26.45 42.55L27.3 43.7Q27.9 44.8 27.9 46.2L27.9 46.5Q27.85 48.1 26.9 49.35M1.6,47.2L1.5 46.2Q1.5 44.45 2.45 43.15L2.95 42.55Q4.45 41.1 6.6 41.1L8.65 41.5L9.85 42.2L10.25 42.55L10.95 43.45Q11.6 44.5 11.7 45.85L11.7 46.2Q11.7 48.35 10.25 49.85Q9 51.05 7.35 51.25L6.6 51.3Q4.45 51.3 2.95 49.85L2.7 49.55Q1.8 48.5 1.6 47.2M9.5,32.8L12.85 30.5L13 30.55L14.15 34.4Q12.05 34.3 10.3 33.35L9.5 32.8M14.6,29.3L16.4 28.05L16.85 28.95L15.15 29.3L14.6 29.3M31.3,23.15L32.1 23.1L33.45 23.3L33.6 23.3L34.6 23.7L35.75 24.55L36 24.85Q37.2 26.25 37.2 28.2Q37.2 30.35 35.75 31.85Q34.25 33.3 32.1 33.3Q29.95 33.3 28.45 31.85Q27 30.35 27 28.2Q27 26.05 28.45 24.55L28.5 24.5L29.05 24.05L29.15 24L30.15 23.5L31.3 23.15M31.95,24.55L30.65 24.85L29.8 25.35L29.6 25.55L29.45 25.65L29.1 26.1Q28.45 27.05 28.45 28.2Q28.45 29.75 29.45 30.85Q30.1 31.45 30.95 31.7L32.1 31.85L33.2 31.7L34.65 30.85Q35.75 29.75 35.75 28.2L35.75 27.8Q35.6 26.6 34.65 25.65L34.45 25.45L34.4 25.45Q33.4 24.55 32.1 24.55L31.95 24.55M17.55,30.5L17.6 30.6L17.9 30.55L20.95 32.15Q18.75 33.95 15.95 34.3L17.1 30.65L17.55 30.5M15.15,30.9L15.85 30.9L15.05 33.4L14.25 30.85L15.15 30.9M16.95,35.3L14.85 36.6L13.2 35.4L14.5 35.5L14.7 35.5L15.6 35.5L16.95 35.3M6.95,42.6L6.6 42.55Q5.75 42.55 5.05 42.9L3.95 43.65Q2.95 44.75 2.95 46.2L3.15 47.45L3.95 48.85L4.55 49.3Q5.45 49.85 6.6 49.85Q8.05 49.85 9.15 48.85Q10.25 47.75 10.25 46.2Q10.25 45 9.5 44.05L9.15 43.65L8.4 43.05L7.3 42.65L6.95 42.6M7.25,43.1L8.3 43.6L8.75 44.05L9.35 44.75Q9.75 45.35 9.75 46.2Q9.75 47.45 8.75 48.35Q7.95 49.35 6.6 49.35Q5.5 49.35 4.7 48.65L4.45 48.35Q3.45 47.45 3.45 46.2L3.5 45.9L3.65 45.2Q3.85 44.5 4.45 44.05L5.35 43.35L6.15 43.1L6.6 43.05L7.25 43.1M19.15,46.2Q19.15 47.75 20.15 48.85Q21.25 49.85 22.8 49.85Q24.05 49.85 25.05 49.15L25.35 48.85Q26.2 48 26.4 46.95L26.45 46.2Q26.45 45.05 25.8 44.15L25.35 43.65Q24.55 42.85 23.55 42.65L22.8 42.55Q21.95 42.55 21.25 42.9L20.15 43.65L20.1 43.75Q19.15 44.8 19.15 46.2M20.15,44.55L20.65 44.05L21.3 43.5Q21.95 43.05 22.8 43.05Q23.85 43.05 24.55 43.65L24.95 44.05Q25.95 44.85 25.95 46.2Q25.95 47.45 24.95 48.35L24.9 48.45Q24.1 49.35 22.8 49.35Q21.5 49.35 20.65 48.35Q19.65 47.45 19.65 46.2Q19.65 45.25 20.15 44.55M33.95,25.75L34.25 26.05Q34.95 26.6 35.2 27.5L35.25 27.8L35.25 28.2Q35.25 29.45 34.25 30.35L34.05 30.6Q33.3 31.35 32.1 31.35Q30.9 31.35 30.1 30.55L29.95 30.35Q28.95 29.45 28.95 28.2Q28.95 27.35 29.35 26.7L29.95 26.05L30.05 26L30.35 25.65Q30.75 25.3 31.25 25.2L32.1 25.05L33.1 25.25L33.9 25.7L33.95 25.75M23.55,24.9L23.4 24.95L23.5 24.9L23.55 24.9M24,26.2Q23.7 28.7 22.2 30.75L21.1 28.6L20.95 26.95L23.85 26.05L24 26.2M20.95,30.9L19.35 30.05L20.35 29.75L20.95 30.9M24.4,28.9Q24.3 29.65 24.35 30.45L23.4 30.85L24.4 28.9" />
</g>
</svg>
