<?xml version="1.0" encoding="utf-8"?>
<svg version="1.1" id="Layer_1"
xmlns="http://www.w3.org/2000/svg"
xmlns:xlink="http://www.w3.org/1999/xlink"
width="19px" height="15px"
xml:space="preserve">
<g id="1065" transform="matrix(1, 0, 0, 1, 0, 0)">
<path style="fill:#FFFF00;fill-opacity:1" d="M13.95,0.05Q13.95 1.65 13.3 2.9L12.85 3.75L12.8 3.7L12.8 3.75L12 5.55L12.85 6.6L12.9 6.6L13.25 6.8L13.3 6.9L13.75 7.6L13.9 8.3L14.95 8.15L15 8.2L15 8.25L14.55 8.95L14.55 9.55L14.65 10.5L15.35 11.55L15.2 12.15L17.55 12.7L18.3 13.05L16.4 13.5L13.5 13.55L11.35 13.7L11.3 13.9L11.05 13.95L9.6 13.85L8.05 14.05L7.95 14.05L5.95 14.1L5.55 14L5.4 13.95L4.8 13.4L2.75 14.2L2.4 14.25L1.45 14.05L2.1 13.6L2.5 13.4L0.35 13.2L0.4 12.95L1.45 12.25L1.9 11.9L2 10.85L0.25 10L0.2 9.95L0.2 10L0 9.6L2.35 9.55L2.4 8.35L2.6 7.55L3.55 7.3L4.85 7.15L5.75 5.85L5.9 5.65L5.75 5.1L5.85 5L6.5 4.9L6.65 2.65L7.3 3.4L7.3 3.45L7.35 3.5L7.9 4.75L9.25 5.1L10.3 4.45L11.5 3.25L13.95 0L13.95 0.05" />
</g>
</svg>
