<?xml version="1.0" encoding="utf-8"?>
<svg version="1.1" id="Layer_1"
xmlns="http://www.w3.org/2000/svg"
xmlns:xlink="http://www.w3.org/1999/xlink"
width="18px" height="13px"
xml:space="preserve">
<g id="1040" transform="matrix(1, 0, 0, 1, 9.65, 10.55)">
<path style="fill:#C68D00;fill-opacity:1" d="M2.1,-1.95L1.8 -1.45L0.95 -1.3L0.15 -1.55Q-0.25 -1.75 -0.25 -1.9Q-0.25 -2.45 0.25 -2.35L1.2 -2.1L1.85 -2.25L2.1 -1.95" />
<path style="fill:#232323;fill-opacity:0.717647" d="M7.05,-10.1Q7.9 -9.45 7.9 -8.9Q7.9 -7.75 7 -7.75L4.85 -8.1Q3.75 -8.4 3.75 -8.65Q3.75 -9.2 4.25 -9.6L5.4 -10.35Q6.1 -10.8 7.05 -10.1M3.75,-5.4L4.2 -5.4Q5.25 -4.7 5.25 -4.15Q5.25 -3.1 4.15 -3.1L4.1 -3.1L4.1 -2.85L4.2 -2.45L4.05 -1.8L3.55 -1.2L3.95 -0.75L3.9 -0.45L4 -0.35L4.2 0.2Q4.2 1 3.3 1L2.65 0.75L2.6 0.7L2.1 1.2L1.7 1.2L1.4 1.2L0.95 1.95Q0.4 2.45 -0.45 2.45Q-1.95 2.45 -2 1.25L-1.75 0.4L-1.35 0.05L-1.65 -0.15Q-2.2 -0.55 -2.1 -0.85Q-2.7 -1.05 -2.9 -1.2L-3.05 -1.7Q-3.05 -2.1 -2.45 -2.5L-2.65 -2.9L-2.25 -3.5L-1.65 -3.9L-1 -4.3Q-0.65 -4.65 -0.05 -4.65L0.05 -4.7L0.25 -4.7L0.2 -4.85Q0.2 -5.15 0.55 -5.45Q0.9 -5.75 1.4 -5.8L1.95 -5.95L2.45 -5.7L3.05 -5.45L3.3 -5.25L3.75 -5.4M1.85,-2.25L1.2 -2.1L0.25 -2.35Q-0.25 -2.45 -0.25 -1.9Q-0.25 -1.75 0.15 -1.55L0.95 -1.3L1.8 -1.45L2.1 -1.95L1.85 -2.25M-3.45,-7.85Q-4.25 -7.85 -4.9 -8.4Q-5.45 -8.85 -5.45 -9.3Q-5.45 -10.4 -3.8 -10.45Q-2.2 -10.5 -2.2 -9.1Q-2.2 -8.6 -2.55 -8.25Q-2.9 -7.85 -3.45 -7.85M-9.65,0.85L-9.35 0.25Q-8.95 -0.2 -8.3 -0.2Q-7.8 -0.2 -7.5 0.2L-7.3 0.75L-7.5 1.3L-8.1 1.65L-9.3 1.35L-9.65 0.85" />
</g>
</svg>
