<?xml version="1.0" encoding="utf-8"?>
<svg version="1.1" id="Layer_1"
xmlns="http://www.w3.org/2000/svg"
xmlns:xlink="http://www.w3.org/1999/xlink"
width="16px" height="8px"
xml:space="preserve">
<g id="972" transform="matrix(1, 0, 0, 1, 3.25, 5.2)">
<path style="fill:#000000;fill-opacity:0.85098" d="M5.05,-4.85L5.3 -4.1L5.1 -3.3L4.8 -2.75L4.6 -2.65L4.25 -2.4L3.75 -2.15L3.2 -2.1L2.9 -1.65L1.9 -1.05Q1.05 -0.75 0.35 -1.25L0.25 -1.6Q0.15 -1.95 0.2 -2.35Q0.25 -2.8 0.55 -3.1L1.35 -3.6L1.35 -3.65L1.45 -3.65L1.55 -3.6L1.65 -3.55L2 -3.45L2.1 -3.3L2.7 -3.45L3.25 -4.2Q3.3 -4.75 3.8 -5L4.3 -5.2Q4.75 -5.25 5.05 -4.85M5.05,-0.2L5.1 -0.25L5.15 -0.3L5.3 -0.4L5.4 -0.45L5.4 -0.5L5.55 -0.45L5.65 -0.45L5.75 -0.35L5.8 -0.3L5.9 -0.3L5.9 -0.35L6 -0.45L6.1 -0.5L6.25 -0.45L6.4 -0.4L6.5 -0.25L6.6 -0.15L6.65 -0.1L6.35 0.25L5.35 0.7L4.85 0.55L4.8 0.5L4.8 0.35L4.85 0.25L4.9 0.2L5 0.15L5 0.05L5 -0.05L5 -0.15L5.05 -0.2M8.7,-3.85Q9.35 -4.6 10.2 -4.5Q10.9 -4.4 11.45 -4.8L11.65 -4.75L11.75 -4.75L11.85 -4.65L11.9 -4.6L11.6 -3.5Q11 -2.5 9.8 -2.4L9 -2.15L7.7 -2.2L7.65 -2.25L7.65 -2.4L7.65 -2.6L7.7 -2.85L7.7 -3L7.7 -3.15Q8.3 -3.4 8.7 -3.85M-1.85,1.8Q-3.2 2.35 -3.25 1.2Q-3.25 0.7 -2.9 0.25Q-2.55 -0.15 -2 -0.3Q-0.75 -0.1 -1.1 1.05Q-1.25 1.6 -1.85 1.8" />
</g>
</svg>
