<?xml version="1.0" encoding="utf-8"?>
<svg version="1.1" id="Layer_1"
xmlns="http://www.w3.org/2000/svg"
xmlns:xlink="http://www.w3.org/1999/xlink"
width="200px" height="142px"
xml:space="preserve">
<g id="118" transform="matrix(1, 0, 0, 1, -2.3, -6.45)">
<path style="fill:none;stroke-width:0.7;stroke-linecap:round;stroke-linejoin:round;stroke-miterlimit:3;stroke:#FFFFFF;stroke-opacity:0.4" d="M201.75,24.85L200.35 26.15L198.95 26.15L198.95 22.55L198.4 22.25L196.6 23.3L195.25 24L196.2 25.2L194.85 25.2L194.55 24.7L194.3 24.55L195.25 24Q194.55 23.4 193.5 22.95L190.15 21.9M47.25,143.45Q47.45 146.2 48.9 147.45" />
<path style="fill:none;stroke-width:0.1;stroke-linecap:round;stroke-linejoin:round;stroke-miterlimit:3;stroke:#000000;stroke-opacity:0.705882" d="M8.4,6.5Q6.75 6.9 5.95 7.95Q5.55 8.55 5.2 9.85L4.45 11.4Q3.85 11.85 2.35 11.4" />
</g>
</svg>
