<?xml version="1.0" encoding="utf-8"?>
<svg version="1.1" id="Layer_1"
xmlns="http://www.w3.org/2000/svg"
xmlns:xlink="http://www.w3.org/1999/xlink"
width="27px" height="4px"
xml:space="preserve">
<g id="728" transform="matrix(1, 0, 0, 1, 17.2, -17.3)">
<path style="fill:#000000;fill-opacity:0.498039" d="M7.7,19.7Q9.65 19.95 9.65 20.3Q9.65 20.6 7.7 20.85L2.95 21.15L-1.75 20.85Q-3.7 20.6 -3.7 20.3Q-3.7 19.95 -1.75 19.7L2.95 19.45L7.7 19.7M-16.55,20.8L-17.2 20.1L-17.2 19.95Q-17.2 19.45 -16.55 19.1L-14.95 18.7Q-14 18.7 -13.35 19.1L-12.95 19.4Q-12.65 19.65 -12.65 19.95L-12.75 20.35L-13.35 20.8L-14.95 21.15L-16.15 21L-16.55 20.8M-11.3,18.9L-8.75 18.5L-6.85 18.7L-6.85 18.55Q-6.85 18.05 -5.75 17.7L-3.2 17.3L-0.6 17.7Q0.5 18.05 0.5 18.55Q0.5 19.05 -0.6 19.4L-3.2 19.75L-5.1 19.6L-5.05 19.75Q-5.05 20.25 -6.15 20.6L-8.75 20.95L-11.3 20.6L-12 20.35L-11.8 19.95Q-11.8 19.65 -12.25 19.4Q-11.95 19.1 -11.3 18.9" />
</g>
</svg>
