<?xml version="1.0" encoding="utf-8"?>
<svg version="1.1" id="Layer_1"
xmlns="http://www.w3.org/2000/svg"
xmlns:xlink="http://www.w3.org/1999/xlink"
width="37px" height="23px"
xml:space="preserve">
<g id="319" transform="matrix(1, 0, 0, 1, -1.45, 4.1)">
<path style="fill:#E2E2E2;fill-opacity:0.8" d="M26.5,-2.15Q29.55 -2.1 30.2 0.75Q30.55 2.45 29.8 3.85Q31.4 4.1 32 5.45L32.5 5.25L32.8 5.25Q37.65 4.95 38.25 9.3Q38.45 10.85 37.2 11.95Q34.35 14.4 31 12.35L30.7 12.25L27.75 12.2L26.1 12.3L24.05 12.6L11.6 16.4L2.8 18.8L2.7 18.75Q2.6 18.4 2.95 18.25Q3.5 17.85 4.15 17.55L4.4 17.4L5 17.05L5.6 16.6Q5.7 16.45 5.3 16.6L3.3 17.15L3.25 17.2L1.7 17.9Q1.45 18.05 1.45 17.8Q5.65 14.35 10.35 11.3L17.55 6.4L20.5 4.15Q19.1 3.45 18.65 1.6Q17.85 -2.1 21.2 -3.75L22.4 -4.1Q24.95 -3.8 26.5 -2.15M27.15,-1.25L27.6 -0.5Q28.45 1.15 27.65 2.9Q26.8 4.7 25.2 4.75Q26.75 3.1 27 0.8Q27.1 -0.45 26.15 -1.4L25.95 -1.55L25.7 -1.6L25.65 -1.7L25.65 -1.85Q22.2 -4.75 19.7 -0.95Q19.3 -0.4 19.35 0.35Q19.5 2.35 20.9 3.85L21.2 3.55L21.35 3.6L21.45 3.65L21.55 3.75L21.25 4.2L21.45 4.4L21.45 4.5L21.1 4.4Q18.65 7.4 15 9.3Q11.2 11.3 7.7 13.7L7.25 14.15L8.65 13.3Q9.4 12.8 10 13.1Q8.2 14.7 5.7 15.95L5.5 16.05L6.25 16.25L6.35 16.3L6.35 16.4L6.3 16.6L6.05 17L5.9 17.15L14.15 14.7L24.25 11.55Q25.6 11.1 27 10.95L28.1 10.9L28.7 11.25L28.7 11.3Q31.3 10.85 34.05 11.95L35.6 10.5Q35.85 10.25 35.7 9.85Q34.8 7.2 32.2 6.6Q32.3 8.6 30.2 9.3L29.3 9.15L31.25 6.85L31.45 6.5L31.1 6.45L31.1 6.25L31.3 6L31.4 6L31 5.45Q30.2 4.75 29.2 4.6Q28.6 5.1 27.8 5Q28 3.9 28.9 2.75Q30.15 1.05 28.65 -0.35L27.15 -1.25M36,7.25Q34.9 6.3 33.7 6.25Q35.8 7 36.4 9.45Q36.65 10.4 36.5 11.15Q38.4 9.3 36 7.25M25.3,6.2Q25.9 7.15 24 8.05L18.05 11Q16.1 12 14.3 12.25Q16.65 10.2 19.85 8.8L24.7 6.45L25.3 6.2" />
<path style="fill:#E2E2E2;fill-opacity:0.498039" d="M28.65,-0.35Q30.15 1.05 28.9 2.75Q28 3.9 27.8 5Q28.6 5.1 29.2 4.6Q30.2 4.75 31 5.45L31.4 6L31.3 6L31.1 6.25L31.1 6.45L31.45 6.5L31.25 6.85L29.3 9.15L30.2 9.3Q32.3 8.6 32.2 6.6Q34.8 7.2 35.7 9.85Q35.85 10.25 35.6 10.5L34.05 11.95Q31.3 10.85 28.7 11.3L28.7 11.25L28.1 10.9L27 10.95Q25.6 11.1 24.25 11.55L14.15 14.7L5.9 17.15L6.05 17L6.3 16.6L6.35 16.4L6.35 16.3L6.25 16.25L5.5 16.05L5.7 15.95Q8.2 14.7 10 13.1Q9.4 12.8 8.65 13.3L7.25 14.15L7.7 13.7Q11.2 11.3 15 9.3Q18.65 7.4 21.1 4.4L21.45 4.5L21.45 4.4L21.25 4.2L21.55 3.75L21.45 3.65L21.35 3.6L21.2 3.55L20.9 3.85Q19.5 2.35 19.35 0.35Q19.3 -0.4 19.7 -0.95Q22.2 -4.75 25.65 -1.85L25.65 -1.7L25.7 -1.6L25.95 -1.55L26.15 -1.4Q27.1 -0.45 27 0.8Q26.75 3.1 25.2 4.75Q26.8 4.7 27.65 2.9Q28.45 1.15 27.6 -0.5L27.15 -1.25L28.65 -0.35M36.5,11.15Q36.65 10.4 36.4 9.45Q35.8 7 33.7 6.25Q34.9 6.3 36 7.25Q38.4 9.3 36.5 11.15M24.7,6.45L19.85 8.8Q16.65 10.2 14.3 12.25Q16.1 12 18.05 11L24 8.05Q25.9 7.15 25.3 6.2L24.7 6.45" />
</g>
</svg>
