<?xml version="1.0" encoding="utf-8"?>
<svg version="1.1" id="Layer_1"
xmlns="http://www.w3.org/2000/svg"
xmlns:xlink="http://www.w3.org/1999/xlink"
width="9px" height="8px"
xml:space="preserve">
<g id="1259" transform="matrix(1, 0, 0, 1, -0.25, 0.55)">
<path style="fill:#100806;fill-opacity:0.988235" d="M8.45,-0.55L8.45 0.25L0.25 0.25L0.25 -0.55L8.45 -0.55M8,2.3L0.25 2.3L0.25 1.5L8 1.5L8 2.3M8,4.75L0.25 4.75L0.25 3.95L8 3.95L8 4.75M0.25,6.4L6.55 6.4L5.8 7.2L0.25 7.2L0.25 6.4" />
<path style="fill:#C9EBFF;fill-opacity:0.988235" d="M4.4,5.35Q5.55 5.35 5.55 5.7Q5.55 6.1 4.2 6.1Q2.7 6.1 2.7 5.7Q2.7 5.35 4.4 5.35M4.4,0.55Q5.55 0.55 5.55 0.9Q5.55 1.3 4.2 1.3Q2.7 1.3 2.7 0.9Q2.7 0.55 4.4 0.55M4.8,2.8Q5.9 2.8 5.9 3.15Q5.9 3.55 4.4 3.55Q2.7 3.55 2.9 3.15Q2.9 2.8 4.8 2.8" />
</g>
</svg>
