<?xml version="1.0" encoding="utf-8"?>
<svg version="1.1" id="Layer_1"
xmlns="http://www.w3.org/2000/svg"
xmlns:xlink="http://www.w3.org/1999/xlink"
width="134px" height="51px"
xml:space="preserve">
<g id="1610" transform="matrix(1, 0, 0, 1, 66.9, 25.45)">
<path style="fill:#ECD4A6;fill-opacity:1" d="M65.85,20.25Q65.4 24.3 60.9 24.3L-61.2 24.3L-63.1 23.95L-64.05 23.5Q-65.6 22.55 -65.85 20.25L-65.9 20.25L-65.9 -19.45Q-65.9 -21.3 -65.2 -22.5L-64.05 -23.7L-63.1 -24.15L-61.2 -24.45L60.9 -24.45Q64 -24.45 65.2 -22.5Q65.9 -21.35 65.9 -19.45L65.9 20.25L65.85 20.25" />
<path style="fill:none;stroke-width:2;stroke-linecap:round;stroke-linejoin:round;stroke-miterlimit:3;stroke:#623A2D;stroke-opacity:1" d="M65.9,20.25L65.9 -19.45Q65.9 -21.35 65.2 -22.5Q64 -24.45 60.9 -24.45L-61.2 -24.45L-63.1 -24.15L-64.05 -23.7L-65.2 -22.5Q-65.9 -21.3 -65.9 -19.45L-65.9 20.25M-65.85,20.25Q-65.6 22.55 -64.05 23.5L-63.1 23.95L-61.2 24.3L60.9 24.3Q65.4 24.3 65.85 20.25" />
</g>
</svg>
