<?xml version="1.0" encoding="utf-8"?>
<svg version="1.1" id="Layer_1"
xmlns="http://www.w3.org/2000/svg"
xmlns:xlink="http://www.w3.org/1999/xlink"
width="300px" height="67px"
xml:space="preserve">
<g id="484" transform="matrix(1, 0, 0, 1, 105.6, -190.9)">
<path style="fill:#3A1D0F;fill-opacity:0.85098" d="M161.75,246.45L162.5 246.1L162.55 246.05Q163.85 247.05 165.25 246.85L172.45 246.55Q175.8 246.8 176 249.85Q174.05 253.25 169.5 251.5L168.8 251.15L167.1 249.7Q162.7 250.7 159.65 249.2Q159.65 248.6 159.9 248.1Q160.25 247.35 161 246.85L161.75 246.45M162.8,247.75L162.3 248.05Q162.6 248.35 163 247.85Q163.45 247.35 162.8 247.75" />
<path style="fill:#3A1D0F;fill-opacity:0.498039" d="M58.55,191.25L59.05 191.05L60.9 191.25L62.8 191.85L63.1 192Q65.65 192.3 68 193.9Q69.6 194.95 69.8 196.65Q67.4 200.1 62.4 199Q59.35 198.35 56.3 198.25L56 197.4L55.3 196.25L54.2 195.25Q53.6 194.75 53.85 193.9L54.05 193.3Q54.55 192.6 55.25 192.15L55.3 192.15L55.3 192.1L55.55 191.85L55.95 191.7L56.95 191L57 190.9Q58.8 190.85 58.1 191.3L58 191.35L58.55 191.25M177.95,224.4L182.05 226.7Q183.45 227.6 183.85 229.2Q183.85 230.85 182.35 230.95Q175.1 231.35 168.05 228.8L168 228.4Q167.85 227.05 168.85 226.25Q169.7 225.55 170.9 224.85Q172 224.2 173 223.85Q175.65 223.25 177.95 224.4M181.6,236.5L181.65 236.1Q181.7 235.7 181.9 235.5Q182.4 234.95 183.05 234.6L183.45 234.4Q184.1 234.55 184.6 234.9L185.95 235.05L188.15 234.35L188.15 234.3L191.8 234.4L192.45 234.55L192.75 234.9Q193.85 235.9 194.15 237.3Q194.45 238.7 193.95 240L193 241.6L189 241.45Q185.25 239.6 181.8 237.05L181.6 236.5M-28.45,227.75Q-27.55 228.45 -26.9 229.4L-26.6 229.8L-25.55 230.05L-24.6 230.6L-23.9 231.4L-23.9 231.65L-23.75 231.65L-23.9 231.9L-23.95 232.1L-24.05 232.35L-24.15 232.6L-22.7 234.3L-22.1 235.4L-21.15 236.45Q-20.2 237.65 -21 239L-25.15 239.25L-27.45 238.75Q-29.05 238.2 -30.6 237.25Q-33.4 235.5 -33.7 232.45Q-32.3 230.65 -30.2 229.9Q-29.3 229.55 -29.25 228.3Q-29.2 227.6 -28.45 227.75" />
<path style="fill:#3A1D0F;fill-opacity:0.705882" d="M61.7,256.1L57.5 256.3L53.85 256.15L52.65 255.7L52.65 254.95L52.65 254.55L52.85 253.95L53.8 252.6Q54.7 250.8 56.7 250.65L57.5 250.5L63.4 251.05Q66.05 251.45 68.5 252.55Q70.55 253.45 70.45 255.6L70.05 256.1L69.25 256.65L68.45 257Q65.3 258.2 62.55 256.75L61.7 256.1" />
<path style="fill:#3A1D0F;fill-opacity:0.105882" d="M-99.1,208Q-103.25 207.55 -105.45 204.6Q-105.85 204 -105.3 203.4Q-104.1 202.1 -102.4 201.6Q-96.55 200.9 -96.2 205.55Q-96 208.4 -99.1 208" />
</g>
</svg>
