<?xml version="1.0" encoding="utf-8"?>
<svg version="1.1" id="Layer_1"
xmlns="http://www.w3.org/2000/svg"
xmlns:xlink="http://www.w3.org/1999/xlink"
width="21px" height="24px"
xml:space="preserve">
<g id="696" transform="matrix(1, 0, 0, 1, -5.75, 2.95)">
<path style="fill:#000000;fill-opacity:0.498039" d="M24.8,18.15Q25.95 18.5 25.95 19.25Q25.95 20 23.9 20.55Q21.9 21.1 19.3 19.35Q16.15 21.1 14.1 20.55Q12.1 20 12.1 19.25Q12.1 18.5 14.1 17.95Q16.15 17.4 19.3 18.65Q20.7 17.75 22.15 17.8L24.8 18.15" />
<path style="fill:#000000;fill-opacity:1" d="M20,-0.3L20.1 -0.3L20.15 -0.3Q22.3 -0.2 22.2 2.15Q22.15 2.9 21.6 3.45L21 3.9L21.35 5.05L21.8 6.95L22.45 8.45L23 10.05L22.25 10.55L21 10.85Q20.5 10.85 20 8.55L19.35 9.8L18.95 11L19.5 12.95L21.15 14.85L22.5 16.75Q23.7 18.55 23.65 19.2L22.8 19.8L22.3 19.8L20.95 20.35Q20.8 20.35 20.4 19.45L19.75 18.25L18.25 16.25L17.45 14.05L17.3 13.1L17.2 13.25L17.1 13.55L17.3 3.6L17.65 3.5L17.65 3.15Q17.65 2.35 18.2 1.25L18.85 0.3L19.15 -0.05L20 -0.3M5.75,-2.4L6.15 -2.75L6.65 -2.95L8.5 -0.75L9.4 0.25L9.95 0.9L10 0.9L13.1 4.25L13.7 4.15L15.4 3.9L15.65 13.85Q14.95 15.7 14.95 17.5Q14.95 18.15 14.5 18.2Q13.8 18.25 13.4 18.7L13.15 19.4Q12.95 19.9 12.45 19.9L11.85 19.85L10.8 19.15L10.2 18.35Q11.9 16.7 12.5 14.85L13.05 12.95Q13.4 12 14.25 11.4L14.4 11.05Q14.2 10.95 14.2 10.45L14.3 8.95Q14.3 7.45 13.6 6L12.8 6.35L10.8 7.05L10.1 6.65L9.6 6.2L9.65 6.05Q8.7 4.9 8.7 4.55L8.9 2.5L8.85 2.45L8.9 2.35L8.9 2L9.15 2.15L9.2 2.1L8.55 1.35L5.75 -2.1L5.75 -2.4M11.55,4.7L11.6 4.7L10.7 3.75L10.65 4.15Q10.65 4.7 11.55 4.7M12.95,4.55L12.65 4.65L13 4.6L12.95 4.55" />
</g>
</svg>
