<?xml version="1.0" encoding="utf-8"?>
<svg version="1.1" id="Layer_1"
xmlns="http://www.w3.org/2000/svg"
xmlns:xlink="http://www.w3.org/1999/xlink"
width="26px" height="9px"
xml:space="preserve">
<g id="1223" transform="matrix(1, 0, 0, 1, -0.55, 2.25)">
<path style="fill:#1F0E05;fill-opacity:0.988235" d="M21.2,1L21.2 1.85L21.2 3.6L21.2 4.45L21.2 5.15L21.85 4.75L21.85 4.25L21.85 3.6L21.85 1.85L21.85 1.05L21.85 0.05L21.85 -1L21.2 -1.4L21.2 -0.25L21.2 1M22.2,-1.2L22.2 1.25L22.9 1.25L23.25 0.85Q23.7 0.45 24.3 0.5Q24.85 0.5 25.35 0.95Q25.7 1.35 25.7 1.9L25.35 2.85Q24.85 3.3 24.3 3.35Q23.7 3.35 23.25 2.9L22.9 2.5L22.2 2.5L22.2 4.9L20.9 5.8L20.9 3.45L19.7 3.25L19.7 5.1L18.25 6.05L18.25 3.2L0.55 3.7L0.55 0.05L18.25 0.6L18.25 -2.25L19.7 -1.35L19.7 0.4L20.9 0.25L20.9 -2L22.2 -1.2M18.7,0.95L18.7 1.85L18.7 3.7L18.7 4.65L18.7 5.35L19.4 4.95L19.4 4.4L19.4 3.7L19.4 1.85L19.4 1L19.4 -0.05L19.4 -1.2L18.7 -1.6L18.7 -0.4L18.7 0.95M24.45,2.95Q24.85 2.95 25.2 2.6L25.25 2.45L25.4 1.9L25.2 1.2Q24.85 0.9 24.5 0.9L24.45 0.9L24.3 0.85Q23.9 0.85 23.65 1.2Q23.25 1.45 23.3 1.9Q23.25 2.25 23.45 2.5L23.65 2.65Q23.9 2.95 24.3 2.95L24.45 2.95M22.9,1.6L22.2 1.6L22.2 2.05L22.9 2.05L22.9 1.6M19.8,3.05L20.85 3.15L20.85 2.55L20.85 2L19.8 1.9L19.8 2.55L19.8 3.05M2.25,3.15L18.25 2.8L18.25 2.25L18.25 1.6L2.25 1.5L2.25 2.4L2.25 3.15" />
<path style="fill:#3B3B3B;fill-opacity:0.988235" d="M21.2,-0.25L21.2 -1.4L21.85 -1L21.85 0.05L21.2 -0.25M18.7,-0.4L18.7 -1.6L19.4 -1.2L19.4 -0.05L18.7 -0.4" />
<path style="fill:#BDBDBD;fill-opacity:0.988235" d="M21.2,1L21.2 -0.25L21.85 0.05L21.85 1.05L21.2 1M18.7,0.95L18.7 -0.4L19.4 -0.05L19.4 1L18.7 0.95M25.1,1.55L25.25 1.9L25.1 2.25L24.8 2.4Q24.5 2.4 24.45 2.25L24.25 1.9L24.45 1.55Q24.5 1.35 24.8 1.4Q24.95 1.4 25.1 1.55M22.9,2.05L22.2 2.05L22.2 1.6L22.9 1.6L22.9 2.05" />
<path style="fill:#5F3A23;fill-opacity:0.988235" d="M20.85,2.55L20.85 3.15L19.8 3.05L19.8 2.55L20.85 2.55M18.25,2.25L18.25 2.8L2.25 3.15L2.25 2.4L18.25 2.25" />
<path style="fill:#7E4827;fill-opacity:0.988235" d="M21.2,4.45L21.2 3.6L21.85 3.6L21.85 4.25L21.2 4.45M19.4,3.7L19.4 4.4L18.7 4.65L18.7 3.7L19.4 3.7" />
<path style="fill:#461F07;fill-opacity:0.988235" d="M21.85,4.25L21.85 4.75L21.2 5.15L21.2 4.45L21.85 4.25M19.4,4.4L19.4 4.95L18.7 5.35L18.7 4.65L19.4 4.4M19.8,2.55L19.8 1.9L20.85 2L20.85 2.55L19.8 2.55M2.25,2.4L2.25 1.5L18.25 1.6L18.25 2.25L2.25 2.4" />
<path style="fill:#451E06;fill-opacity:0.988235" d="M24.4,0.95L24.25 1.05Q23.6 1.4 23.7 2Q23.75 2.55 24.3 2.95Q23.9 2.95 23.65 2.65L23.45 2.5Q23.25 2.25 23.3 1.9Q23.25 1.45 23.65 1.2Q23.9 0.85 24.3 0.85L24.45 0.9L24.5 0.9L24.4 0.95" />
<path style="fill:#3C3C3C;fill-opacity:0.988235" d="M24.8,1.4Q24.5 1.35 24.45 1.55L24.25 1.9L24.45 2.25Q24.5 2.4 24.8 2.4L25.1 2.25L25.25 1.9L25.1 1.55Q24.95 1.4 24.8 1.4M24.3,2.95Q23.75 2.55 23.7 2Q23.6 1.4 24.25 1.05L24.4 0.95L24.5 0.9Q24.85 0.9 25.2 1.2L25.4 1.9L25.25 2.45L25.2 2.6Q24.85 2.95 24.45 2.95L24.3 2.95" />
<path style="fill:#E0E0E0;fill-opacity:1" d="M21.2,1.85L21.2 1L21.85 1.05L21.85 1.85L21.2 1.85M19.4,1L19.4 1.85L18.7 1.85L18.7 0.95L19.4 1" />
<path style="fill:#834C2B;fill-opacity:0.988235" d="M21.2,3.6L21.2 1.85L21.85 1.85L21.85 3.6L21.2 3.6M18.7,3.7L18.7 1.85L19.4 1.85L19.4 3.7L18.7 3.7" />
</g>
</svg>
