<?xml version="1.0" encoding="utf-8"?>
<svg version="1.1" id="Layer_1"
xmlns="http://www.w3.org/2000/svg"
xmlns:xlink="http://www.w3.org/1999/xlink"
width="21px" height="12px"
xml:space="preserve">
<g id="982" transform="matrix(1, 0, 0, 1, 3.85, 10.9)">
<path style="fill:#000000;fill-opacity:0.85098" d="M8.65,-9.65L8.05 -8.95L7.5 -8.35Q6.9 -8.05 6.35 -8.55L6.2 -8.75L6.2 -8.8L6.35 -9.2L6.75 -9.65L7.15 -10.1L7.55 -10.3L8.3 -10.25Q8.45 -10.2 8.55 -10.1L8.75 -9.85L8.65 -9.65M2.15,-1.3L2.6 -1.25L2.75 -1.25L2.85 -1.2L2.95 -1.1L2.95 -1.05L3 -0.95L3.05 -0.9L3.05 -0.85L2.95 -0.4L2.25 0.55L0.8 0.65L0.3 0.4L0.35 0.15L0.6 -0.45L1.35 -1.1L2.15 -1.25L2.15 -1.3M8.1,-4.7L8.15 -4.5L8.15 -4.35L8.2 -4.3Q8.5 -4.3 8.65 -4.1L8.8 -3.85L8.85 -3.8L8.25 -3.2L7.1 -3.25Q6.65 -3.45 6.5 -3.85L6.65 -4.15L7.1 -4.4L7.35 -4.55L7.75 -4.75L7.8 -4.8L7.95 -4.75L8.1 -4.7M6.35,-0.9Q6.9 -0.8 6.55 -0.35L6.05 0.35L5.5 0.8L4.65 0.7L4.65 0.2L5 -0.4L5.6 -0.75L6.25 -0.85L6.35 -0.9M16.4,-10.25L16.4 -10.2L16.4 -10.1L16.35 -10L16.35 -9.95L16.25 -9.85L16.2 -9.8L16.05 -9.7L15.95 -9.6L15.5 -9.5L15.15 -9.4L14.2 -9.55L14.1 -9.7L14.1 -9.9L14.1 -9.95L14.15 -10.2L14.35 -10.55L14.85 -10.85L14.95 -10.9L15.4 -10.85L15.8 -10.7L16.15 -10.5L16.4 -10.25M-3.1,-6.65L-2.3 -7.05L-1.6 -7.3L-1.15 -7.45L-1.05 -7.45L-0.95 -7.4L-0.8 -7.35L-0.75 -7.3Q-0.65 -6.8 -1.05 -6.5Q-1.55 -6.15 -2.15 -6L-2.85 -5.7Q-3.35 -5.45 -3.8 -5.7L-3.85 -5.75L-3.85 -5.8L-3.85 -5.9L-3.85 -6L-3.85 -6.1L-3.85 -6.2L-3.85 -6.3L-3.1 -6.65" />
</g>
</svg>
