<?xml version="1.0" encoding="utf-8"?>
<svg version="1.1" id="Layer_1"
xmlns="http://www.w3.org/2000/svg"
xmlns:xlink="http://www.w3.org/1999/xlink"
width="18px" height="14px"
xml:space="preserve">
<g id="895" transform="matrix(1, 0, 0, 1, -1.25, -5.9)">
<path style="fill:#000000;fill-opacity:1" d="M14.15,5.95Q14.55 6.4 14.5 7.05L14.35 7.75Q13.8 9.45 12.6 10.9L13.2 13.25L15.25 13.5Q15.95 13.55 16.45 14.15L17.25 15.15Q18.5 16.8 18.55 18.65L18.3 18.85Q17.25 19.7 16.05 19.1L14.95 18.35L15.1 17.1L14.5 16.05L12.65 16.1Q12.85 16.6 12.65 17.2L11.6 18.65Q9.6 19.55 7.5 19.05L7 18.65Q6.15 17.5 6.2 16.3L4.95 16.65L4.7 18.2L3.45 19.5L1.55 19.1L1.25 18.05L3.4 14.2L6.3 13.5L6.6 12.8Q6.05 11.5 5.85 10.2L5.45 9.2Q4.7 7.9 4.9 6.35Q6.65 5.55 8.4 6.35L8.9 7L9.8 9.9L10.95 5.9L14.15 5.95" />
</g>
</svg>
