<?xml version="1.0" encoding="utf-8"?>
<svg version="1.1" id="Layer_1"
xmlns="http://www.w3.org/2000/svg"
xmlns:xlink="http://www.w3.org/1999/xlink"
width="23px" height="24px"
xml:space="preserve">
<g id="711" transform="matrix(1, 0, 0, 1, -8.5, 4.55)">
<path style="fill:#000000;fill-opacity:1" d="M17.6,-2.3L18.25 -2.45L18.8 -2.55Q20 -2.05 19.4 -0.6L18.7 0.7L18.65 1.5Q18.45 2.55 19.1 3.45Q20.35 5.3 18.2 5.45L17.95 5.25L17.9 5.05L17.7 4.95L17.1 3Q16.9 2.1 17 1.25L16.85 1L17.15 -0.4L17.5 -1.95L17.6 -2.3M22.15,-4.55Q24.45 -4.15 24.25 -1.95L24 -1.6L20.15 -1.4L20.25 -2.3Q20.65 -3.2 21.35 -3.9L22.15 -4.55M30.95,9.15L29 11.15Q28.4 11.8 27.6 11.85L26.95 12.5L25.6 13.45L25.45 13.55Q25.1 13.5 24.8 13.25L24.6 13.45L23.95 13.85Q23.5 15.3 23.55 16.9L23.25 18.4Q20.15 19.15 21.05 16.25L21.4 14.8L21.65 12.05L21.7 12L22 11.8Q21.3 11.75 20.75 11.1Q20.25 10.45 20.9 9.75L22.4 7.95L20.85 6.25L20.55 5.5L20.35 5.6L20.2 5.6Q20.1 5.5 20.15 5.4L20.6 4.5L21.2 3.8L20.95 2.8L20.95 2.75Q19.8 2.15 20.1 0.85Q20.25 0.15 20.75 -0.25L22.15 0.5L23.65 1.25L23.75 1.4Q23.6 2.5 23.05 2.9L23.65 3.65L24.05 4.15L24.65 4.9L25.85 7.45Q26.55 7.85 25.8 9.1Q24.75 10.8 22.95 11.6L22.8 11.7Q23.9 11.3 24.25 12.05L24.25 12.1L26.15 10.2L28.55 7.85Q28.85 7.55 29.2 7.4L29.95 8.4L30.9 9.1L30.95 9.15M23.7,13.3L23.75 13.1L23.7 13.15L23.7 13.3M25.1,16.6L26.25 17.55Q26.8 18.1 27.15 18.8L27.2 18.9L24.85 18.95Q24 18.3 24.55 17.3L25.1 16.6M18.8,10.8L19.3 10.6Q21.1 11 20.1 13L19.2 13.95Q17.8 14.9 17.15 16.5Q16.75 17.55 15.85 18.35Q15.15 19 14.1 18.65Q13.25 18.4 13.35 17.5Q15.35 16.85 15.9 15.1L13.75 14.9L9.8 14.25L8.55 13.9L8.5 13.8L8.5 13.7L8.5 13.55L8.5 13.3L8.55 13.15Q8.65 13.05 8.7 13.05L12.3 13.45L15.65 13.9L16.1 14Q16.3 12.05 18.15 11.2L18.8 10.8" />
</g>
</svg>
