<?xml version="1.0" encoding="utf-8"?>
<svg version="1.1" id="Layer_1"
xmlns="http://www.w3.org/2000/svg"
xmlns:xlink="http://www.w3.org/1999/xlink"
width="28px" height="13px"
xml:space="preserve">
<g id="1100" transform="matrix(1, 0, 0, 1, 5.9, 6)">
<path style="fill:#2E1803;fill-opacity:1" d="M4.5,-4.25Q6.3 -2.45 6.3 0.1Q6.3 2.65 4.5 4.4Q2.75 6.2 0.2 6.2Q-2.35 6.2 -4.15 4.4Q-5.9 2.65 -5.9 0.1Q-5.9 -2.45 -4.15 -4.25Q-2.35 -6 0.2 -6Q2.75 -6 4.5 -4.25" />
<path style="fill:#683C14;fill-opacity:1" d="M0.5,-2.85L2.9 -0.55L5.05 -1L5.15 0.1Q5.15 2.2 3.7 3.65Q2.25 5.1 0.15 5.1L-0.65 5.05L-0.15 3.2L-2.55 0.9L-4.65 1.35L-4.85 0.1Q-4.85 -1.95 -3.4 -3.4Q-1.95 -4.9 0.15 -4.9L1 -4.85L0.5 -2.85M1.7,-4.65Q2.85 -4.3 3.7 -3.4L4.9 -1.7L3.05 -1.25L1.2 -3.15L1.7 -4.65M-2.75,1.6L-0.85 3.45L-1.3 4.95Q-2.5 4.55 -3.4 3.65L-4.5 2.05L-2.75 1.6M1.9,-3.15L3.3 -1.75L4.05 -2.2L2.4 -3.85L1.9 -3.15M1.25,-1.35Q0.75 -1.9 0 -1.9Q-0.75 -1.9 -1.25 -1.35Q-1.75 -0.85 -1.75 -0.1Q-1.75 0.65 -1.25 1.15Q-0.75 1.65 0 1.65Q0.75 1.65 1.25 1.15Q1.75 0.65 1.75 -0.1Q1.75 -0.85 1.25 -1.35M-3.45,2.9L-2 4.05L-1.35 3.35L-2.65 2.15L-3.45 2.9" />
<path style="fill:#2E1803;fill-opacity:1" d="M1,-4.85L1.7 -4.65L1.2 -3.15L3.05 -1.25L4.9 -1.7L5.05 -1L2.9 -0.55L0.5 -2.85L1 -4.85M-4.5,2.05L-4.55 2.05L-4.7 1.35L-4.65 1.35L-2.55 0.9L-0.15 3.2L-0.65 5.05L-0.7 5.15L-1.35 5L-1.3 4.95L-0.85 3.45L-2.75 1.6L-4.5 2.05" />
<path style="fill:#985929;fill-opacity:1" d="M2.4,-3.85L4.05 -2.2L3.3 -1.75L1.9 -3.15L2.4 -3.85M1.75,-0.1Q1.75 0.65 1.25 1.15Q0.75 1.65 0 1.65Q-0.75 1.65 -1.25 1.15Q-1.75 0.65 -1.75 -0.1Q-1.75 -0.85 -1.25 -1.35Q-0.75 -1.9 0 -1.9Q0.75 -1.9 1.25 -1.35Q1.75 -0.85 1.75 -0.1M-2.65,2.15L-1.35 3.35L-2 4.05L-3.45 2.9L-2.65 2.15" />
<path style="fill:#00E2DB;fill-opacity:1" d="M14.6,-1.45L16.25 -3.6L21.8 -3.6L20.2 -1.45L14.6 -1.45M0.1,-2.7Q-0.95 -2.65 -1.75 -1.85Q-2.55 -1 -2.55 0.15L-2.5 0.55L-4.05 0.6L-4.1 0.15Q-4.1 -1.65 -2.85 -2.95Q-1.6 -4.15 0.1 -4.2L0.1 -2.7M3.3,3.2Q2.05 4.5 0.25 4.5L0.1 4.5L0.1 3L0.25 3Q1.45 3 2.25 2.15Q3.05 1.35 3.1 0.25L4.6 0.15Q4.6 1.95 3.3 3.2" />
</g>
</svg>
