<?xml version="1.0" encoding="utf-8"?>
<svg version="1.1" id="Layer_1"
xmlns="http://www.w3.org/2000/svg"
xmlns:xlink="http://www.w3.org/1999/xlink"
width="66px" height="290px"
xml:space="preserve">
<g id="10" transform="matrix(1, 0, 0, 1, 32.7, 244.15)">
<path style="fill:#D5D5D5;fill-opacity:1" d="M6.7,-228L-0.05 -238.35L-0.05 -243.65L10.6 -228.8L10.6 -8.35L8.45 -8.6L6.7 -8.6L6.7 -228" />
<linearGradient
id="LinearGradID_113" gradientUnits="userSpaceOnUse" gradientTransform="matrix(0, 0.00665283, -0.00576782, 0, 0.2, -6)" spreadMethod ="pad" x1="-819.2" y1="0" x2="819.2" y2="0" >
<stop  offset="0" style="stop-color:#ACACAC;stop-opacity:1" />
<stop  offset="1" style="stop-color:#5F5F5F;stop-opacity:1" />
</linearGradient>
<path style="fill:url(#LinearGradID_113) " d="M26,-6.45L26.25 -6.8Q27.4 -8 28.9 -8.1Q30.4 -8 31.55 -6.8Q32.7 -5.65 32.7 -4.1L32.7 -3.85L32.7 -3.75Q32.55 -2.35 31.55 -1.25Q30.4 -0.2 28.9 -0.2Q27.4 -0.2 26.25 -1.25L26.25 -1.4L26 -1.6L7.3 0.85L-7.3 0.85L-26 -1.6L-26.25 -1.4L-26.25 -1.25Q-27.3 -0.2 -28.9 -0.2Q-30.4 -0.2 -31.65 -1.25Q-32.55 -2.35 -32.7 -3.75L-32.7 -4.1Q-32.7 -5.65 -31.65 -6.8Q-30.4 -8 -28.9 -8.1Q-27.3 -8 -26.25 -6.8L-26 -6.45L-10.6 -8.3L-8.45 -8.6L-7.4 -8.6L-0.05 -8.6L6.7 -8.6L8.45 -8.6L10.6 -8.35L26 -6.45M27.9,-5.6L27.45 -5L26.65 -4.55L25.75 -4.45L8.4 -6.6L-8.45 -6.6L-25.75 -4.45L-26.65 -4.55Q-27.1 -4.7 -27.4 -5L-27.9 -5.6Q-28.3 -6 -28.85 -6.05Q-29.6 -5.95 -30.2 -5.4Q-30.7 -4.85 -30.7 -4.1L-30.7 -3.95L-30.15 -2.6Q-29.6 -2.2 -28.9 -2.2Q-28.35 -2.2 -27.95 -2.45L-27.65 -2.65L-27.35 -3.05L-26.85 -3.4L-25.75 -3.55L-7.25 -1.15L7.25 -1.15L25.75 -3.55Q26.5 -3.7 27.1 -3.25L27.7 -2.8L28 -2.45Q28.4 -2.2 28.9 -2.2Q29.6 -2.2 30.15 -2.65Q30.6 -3.25 30.7 -3.95L30.7 -4.1Q30.7 -4.85 30.15 -5.35L30.1 -5.4Q29.55 -6 28.9 -6.05Q28.35 -6 27.9 -5.6" />
<path style="fill:#B7B7B7;fill-opacity:1" d="M28.9,-6.05Q29.55 -6 30.1 -5.4L30.15 -5.35Q30.7 -4.85 30.7 -4.1L30.7 -3.95Q30.6 -3.25 30.15 -2.65Q29.6 -2.2 28.9 -2.2Q28.4 -2.2 28 -2.45L27.7 -2.8L27.1 -3.25Q26.5 -3.7 25.75 -3.55L7.25 -1.15L-7.25 -1.15L-25.75 -3.55L-26.85 -3.4L-27.35 -3.05L-27.65 -2.65L-27.95 -2.45Q-28.35 -2.2 -28.9 -2.2Q-29.6 -2.2 -30.15 -2.6L-30.7 -3.95L-30.7 -4.1Q-30.7 -4.85 -30.2 -5.4Q-29.6 -5.95 -28.85 -6.05Q-28.3 -6 -27.9 -5.6L-27.4 -5Q-27.1 -4.7 -26.65 -4.55L-25.75 -4.45L-8.45 -6.6L8.4 -6.6L25.75 -4.45L26.65 -4.55L27.45 -5L27.9 -5.6Q28.35 -6 28.9 -6.05" />
<path style="fill:#535353;fill-opacity:1" d="M-6.35,4.05L-7.3 4.05L-26 1.55L-26.25 1.8L-26.25 1.95Q-27.3 3 -28.9 3Q-30.4 3 -31.65 1.95Q-32.7 0.75 -32.7 -0.9L-32.7 -1.25L-32.7 -1.6L-32.7 -2L-32.7 -2.35L-32.7 -2.7L-32.7 -3.05L-32.7 -3.4L-32.7 -3.75Q-32.55 -2.35 -31.65 -1.25Q-30.4 -0.2 -28.9 -0.2Q-27.3 -0.2 -26.25 -1.25L-26.25 -1.4L-26 -1.6L-7.3 0.85L7.3 0.85L26 -1.6L26.25 -1.4L26.25 -1.25Q27.4 -0.2 28.9 -0.2Q30.4 -0.2 31.55 -1.25Q32.55 -2.35 32.7 -3.75L32.7 -3.5L32.7 -3.4L32.7 -3.15L32.7 -3.05L32.7 -2.8L32.7 -2.7L32.7 -2.45L32.7 -2.35L32.7 -2.1L32.7 -2L32.7 -1.75L32.7 -1.6L32.7 -1.4L32.7 -1.25L32.7 -1.05L32.7 -0.9Q32.7 0.75 31.55 1.95Q30.4 3 28.9 3Q27.4 3 26.25 1.95L26.25 1.8L26 1.55L7.3 4.05L6.4 4.05L-6.35 4.05" />
<path style="fill:#B3B3B3;fill-opacity:1" d="M-0.05,-238.35L6.7 -228L6.7 -8.6L-0.05 -8.6L-0.05 -238.35" />
<path style="fill:#FBFBFB;fill-opacity:1" d="M-0.05,-243.65L-0.05 -238.35L-7.4 -227.75L-7.4 -8.6L-8.45 -8.6L-10.6 -8.3L-10.6 -228.8L-0.05 -243.65" />
<path style="fill:#EBEBEB;fill-opacity:1" d="M-0.05,-8.6L-7.4 -8.6L-7.4 -227.75L-0.05 -238.35L-0.05 -8.6" />
<path style="fill:#404040;fill-opacity:1" d="M-6.3,5.2L-6.35 4.05L6.4 4.05L6.35 5.2L-6.3 5.2M-5.9,12.3L-6 10.45L6.1 10.05L6 11.85L-5.9 12.3M5.65,19.55L5.55 20.95L-5.5 20.95L-5.6 19.3L5.65 19.55M5.25,27.9L5.2 29.1L-5.1 29.6L-5.2 27.65L5.25 27.9" />
<path style="fill:#515151;fill-opacity:1" d="M6.35,5.2L6.1 10.05L-6 10.45L-6.3 5.2L6.35 5.2M6,11.85L5.65 19.55L-5.6 19.3L-5.9 12.3L6 11.85M-5.2,27.65L-5.5 20.95L5.55 20.95L5.25 27.9L-5.2 27.65M5.2,29.1L5.1 30.6L5.05 31.4Q4.85 33.1 3.6 34.35Q2.1 35.8 -0.05 35.8Q-2.1 35.8 -3.55 34.35Q-4.75 33.1 -5 31.5L-5.05 30.6L-5.1 29.6L5.2 29.1" />
<radialGradient
id="RadialGradID_114" gradientUnits="userSpaceOnUse" gradientTransform="matrix(-0.01474, 0, 0, -0.0163727, 0.25, 31.6)" spreadMethod ="pad" cx="0" cy="0" r="819.2" fx="0" fy="0" >
<stop  offset="0.298039"  style="stop-color:#C6C6C6;stop-opacity:1" />
<stop  offset="1"  style="stop-color:#595959;stop-opacity:1" />
</radialGradient>
<path style="fill:url(#RadialGradID_114) " d="M5.1,30.6L6.9 31.8Q9.8 34.15 9.8 37.55Q9.8 40.9 6.9 43.25Q4.15 45.6 0.05 45.6Q-4.05 45.6 -6.9 43.25Q-9.65 40.9 -9.75 37.55Q-9.65 34.15 -6.9 31.8L-5.05 30.6L-5 31.5Q-4.75 33.1 -3.55 34.35Q-2.1 35.8 -0.05 35.8Q2.1 35.8 3.6 34.35Q4.85 33.1 5.05 31.4L5.1 30.6M5,35.8Q2.9 37.8 -0.05 37.8Q-2.95 37.8 -4.95 35.8L-5 35.75L-6.25 34Q-7.65 35.5 -7.75 37.5L-7.75 37.6Q-7.6 40 -5.6 41.7L-5.6 41.75Q-3.25 43.6 0.05 43.6Q3.35 43.6 5.6 41.75L5.65 41.7Q7.75 40 7.8 37.55Q7.8 35.5 6.35 34L5.05 35.8L5 35.8" />
<path style="fill:#646464;fill-opacity:1" d="M5.05,35.8L6.35 34Q7.8 35.5 7.8 37.55Q7.75 40 5.65 41.7L5.6 41.75Q3.35 43.6 0.05 43.6Q-3.25 43.6 -5.6 41.75L-5.6 41.7Q-7.6 40 -7.75 37.6L-7.75 37.5Q-7.65 35.5 -6.25 34L-5 35.75L-4.95 35.8Q-2.95 37.8 -0.05 37.8Q2.9 37.8 5 35.8L5.05 35.8" />
<path style="fill:none;stroke-width:1;stroke-linecap:round;stroke-linejoin:round;stroke-miterlimit:3;stroke:#5C5C5C;stroke-opacity:1" d="M10.6,-8.35L10.6 -228.8L-0.05 -243.65M-10.6,-8.3L-10.6 -228.8L-0.05 -243.65" />
</g>
</svg>
