<?xml version="1.0" encoding="utf-8"?>
<svg version="1.1" id="Layer_1"
xmlns="http://www.w3.org/2000/svg"
xmlns:xlink="http://www.w3.org/1999/xlink"
width="27px" height="28px"
xml:space="preserve">
<g id="1545" transform="matrix(1, 0, 0, 1, 12, 19.25)">
<path style="fill:#333333;fill-opacity:0.498039" d="M6.8,-13.9Q6.8 -13.5 10.65 -12.05Q14.45 -10.6 14.45 -8.05Q14.45 -7.75 13.45 -6.55L12.45 -5.2L13.65 -3.5Q14.85 -1.85 14.85 -1Q14.85 0.35 14.3 1.55Q13.35 3.55 11.25 3.15Q11.25 4.3 10.6 5.25Q9.55 6.85 7.2 6.85Q5.3 6.85 4.3 5.1L3.3 2.95L1.65 2.95Q0.45 3.25 0 4.2L-0.65 5.8Q-1.1 6.5 -4.2 8.05Q-4.65 7.9 -4.65 7.35Q-4.65 7.1 -3.45 5L-1.85 2.25L-1.85 1.95L-2.15 1.7Q-2.7 1.9 -4.75 4.2Q-6.55 6.25 -7.7 6.25L-8.25 6.2L-8.4 5.8L-6.15 1.65Q-3.9 -2.35 -3.9 -3.2L-4.25 -3.8L-4.7 -4.2L-6.65 -2.95Q-8.2 -1.55 -8.8 -1.4L-10.2 -1.4Q-11.55 -2.3 -11.9 -3.3L-12 -5L-11.75 -7Q-11 -8.25 -8.05 -8.3Q-7.6 -8.75 -7.6 -9.35L-8.4 -10.75Q-9.2 -12 -9.2 -12.75Q-9.2 -13.6 -8.4 -14.7Q-7.45 -16 -6.1 -16L-4.55 -15.55Q-3.55 -14.85 -3.15 -14.7L-1.25 -14.7Q-0.45 -15.15 -0.05 -16.65Q0.4 -18.15 1.45 -18.85L4.15 -18.95L5.9 -17.85Q7.2 -17.05 7.2 -15.85L6.8 -13.9" />
</g>
</svg>
