<?xml version="1.0" encoding="utf-8"?>
<svg version="1.1" id="Layer_1"
xmlns="http://www.w3.org/2000/svg"
xmlns:xlink="http://www.w3.org/1999/xlink"
width="139px" height="15px"
xml:space="preserve">
<g id="1435" transform="matrix(1, 0, 0, 1, 1, -19.75)">
<path style="fill:#E9B669;fill-opacity:1" d="M133,24.8L134.1 28.25L137.7 28.4L134.8 30.55L135.7 34L132.8 31.9L129.8 33.85L130.9 30.45L128.1 28.15L131.7 28.15L133 24.8M110.8,25.15L116 25.15L117.9 20.3L119.5 25.25L124.7 25.5L120.5 28.6L121.85 33.65L117.6 30.55L113.25 33.4L114.85 28.45L110.8 25.15M25.9,24.6L21.85 27.9L23.45 32.85L19.1 30L14.85 33.1L16.2 28.05L12 24.95L17.2 24.7L18.8 19.75L20.7 24.6L25.9 24.6M8.6,27.6L5.8 29.9L6.9 33.3L3.9 31.35L1 33.45L1.9 30L-1 27.85L2.6 27.7L3.7 24.25L5 27.6L8.6 27.6" />
</g>
</svg>
