<?xml version="1.0" encoding="utf-8"?>
<svg version="1.1" id="Layer_1"
xmlns="http://www.w3.org/2000/svg"
xmlns:xlink="http://www.w3.org/1999/xlink"
width="34px" height="27px"
xml:space="preserve">
<g id="521" transform="matrix(1, 0, 0, 1, 2.75, 27.8)">
<path style="fill:#000000;fill-opacity:0.705882" d="M24.95,-24.9L25.9 -25.1Q28.15 -25.05 27.3 -23.45L27 -23Q27.6 -22.35 27.1 -21.75Q26.8 -21.35 26.25 -21.35L26.15 -21.35L26.2 -21.25L26.35 -20.65L26.7 -20.9L26.25 -20.45L25.65 -20Q24.65 -19.5 23.8 -20.4Q21.75 -19.3 20.05 -21Q19.5 -21.5 19.75 -22.1L19.8 -22.15L19.8 -22.6L19.35 -22.8L19.15 -22.9L19.25 -23.6Q19.6 -24.25 20.25 -24.45L20.75 -24.4L21.2 -24.55L21.3 -24.5L21.6 -24.65L21.95 -24.75L22.2 -25.25Q22.6 -25.7 23.15 -25.7Q23.75 -25.55 24.2 -25.05L24.35 -24.75L24.95 -24.9M27.1,-27.35L27.55 -27.7L27.85 -27.8L28.3 -27.6L28.7 -27.35L28.75 -27.3Q28.55 -27 28.2 -26.85Q27.45 -26.5 27 -27.1L27.1 -27.35M29.45,-27.25L29.8 -27.05L29.9 -27L29.9 -26.85L29.95 -26.7L29.95 -26.6L29.95 -26.4L28.7 -26.25L28.5 -26.35L28.45 -26.45L28.45 -26.6L28.5 -26.65L28.45 -26.7L28.45 -26.85L28.5 -26.9L28.6 -27L28.75 -27.05L28.8 -27.2L28.9 -27.35L29.05 -27.45L29.2 -27.5L29.45 -27.25M31.2,-21.6L30.95 -21.2L28.25 -21.05L27.95 -21.35L27.9 -21.4L28.15 -21.7L29.1 -22.1L29.3 -22.2L30.3 -22.15L31.15 -21.65L31.2 -21.6" />
<path style="fill:#000000;fill-opacity:1" d="M5.5,-8L6.25 -8.55L7.8 -8.4L10.45 -7.4L10.7 -7.4L11 -6.95L11.05 -6.6L9 -4.55L8.85 -4.3L7.7 -3.8L6.35 -3.6L6.2 -3.3L3.7 -2.1L3.5 -1.8L2.85 -1.6L1.45 -1.75L1 -2.15L0.3 -2.8L0 -3.55L-1.55 -6.15L-1.65 -7.2L-1.9 -7.4L-1.95 -7.65L-2.15 -7.65L-2.2 -8.4L-2.75 -10.3L-2.25 -10.7L-1.4 -10.55L-0.1 -11.15L0.45 -11L1.5 -8.45L3.45 -5.8L4 -6.25L4 -6.6L5 -7.7L5.3 -7.75L5.5 -8" />
</g>
</svg>
