<?xml version="1.0" encoding="utf-8"?>
<svg version="1.1" id="Layer_1"
xmlns="http://www.w3.org/2000/svg"
xmlns:xlink="http://www.w3.org/1999/xlink"
width="16px" height="29px"
xml:space="preserve">
<g id="1014" transform="matrix(1, 0, 0, 1, -1.65, 1)">
<path style="fill:#D9E9FF;fill-opacity:1" d="M7.5,-0.75L7.45 -0.8L7.55 -0.95L7.7 -1Q8.6 -0.2 7.2 0.9Q6.85 1.2 6.75 1.75Q6.6 2.4 7.15 2.9L6.4 2.55Q5.95 2.35 6.1 1.85Q6.5 0.4 7.65 -0.55L7.5 -0.75M14.85,1.7Q14.6 2.75 13.7 2.5L13.65 2.45Q12.6 2.85 12.2 3.5Q12.35 2.1 13.9 2.25L14 2.3Q14.35 1.85 14.85 1.7M13.45,8.35L13 8.7L12.95 8.75L12.95 8.55Q11.1 9 11.1 7.3Q11.1 6.55 10.25 6.4L10.15 6.4L10.45 6.2Q9.45 6.2 8.55 5.45L8.05 5.75Q8.1 7.55 7.35 9.2Q7.05 9.85 6.45 9.4Q5.85 8.9 5.1 8.75L4.8 7.8L4.1 6.8Q3.25 7.1 2.75 7.95Q2.5 8.4 2.15 8.25Q2.8 6.45 4.45 6.85L4.75 7Q5.5 7.5 5.45 8.35Q6.8 9.7 7.1 8.45L7.85 4.85L7.9 4.8L8.3 4.9Q8.45 4.05 7.8 3.4L7.9 3.45Q8.95 4 8.7 5.05Q9.8 5.4 10.7 6.15L10.7 6.2Q11.1 6.3 11.4 7.1L12 8L12.65 8.3L13 8.3Q13.05 8.1 13.4 8Q13.25 7.25 13.25 6.5Q13.25 5.7 13.9 5.4Q15.95 5.45 16.55 7.1Q15.6 6.25 14.2 6.05Q13.55 5.95 13.85 6.85Q14.1 7.6 13.8 8.05Q14.55 8.55 14.15 9.45L14.1 9.5Q15.15 10 15.7 10.75Q13.5 10.5 13.6 8.5L13.45 8.35M8.15,5.3L8 5.35L8.05 5.55L8.15 5.3M8.2,14.65Q8.1 14.9 7.8 14.95L7.8 15Q8.35 15.65 9.2 15.75L9.25 15.8Q10.1 14.35 11.9 14.65L13.45 14.95Q13.85 15 13.9 15.25L10.1 15.6L9.7 15.8L8.05 15.9Q6.9 15.15 7.75 14.45Q8.1 14.35 8.2 14.65M6.15,15.1L6.15 15.15Q6.85 15.05 7.15 15.6Q5.6 16.1 5.65 14.7Q5.65 13.65 4.4 14.45Q4.2 14.55 4.1 14.3Q4.55 13.7 5.4 13.7Q6.6 13.95 6.15 15.1M8.55,18.1L8 18.15Q8.25 17.65 8.9 17.7Q9.9 18.35 10.55 19.3L10.85 19.55L12.75 19.65L13.7 21.5L13.7 21.65Q12.95 21.25 12.5 20.3Q9.95 20.55 9.15 18.4Q9 17.95 8.55 18.1M5.05,16.4L4.45 16.6L4.3 16.7Q5.15 17.6 4.5 18.45L4.4 18.5L2.85 18.35Q2.65 18.85 2.95 19.4L3.35 20.4Q2.35 20.05 2.45 18.55Q2.55 17.45 3.6 17.95L4.4 18L3.95 16.8Q3.65 16.35 4.2 16.3L5 16.4L5.05 16.4M3.2,24.5Q5.15 26.3 2.15 26.85Q1.8 26.9 1.65 26.6Q2.75 26.25 3.5 25.4L3.4 25.15Q2.05 23.95 4.35 23.4L7.25 22.35Q5.35 21.75 6.15 20.3L6.4 20.15Q6.8 20.4 6.2 20.6L6.15 20.65Q6.55 21.7 7.55 22.45Q7.75 22.55 7.45 22.7L3.9 24L3.2 24.5M15.8,15.05Q17.05 15.9 15.9 16.9L15.9 16.95L16.9 17.35L16.85 17.65L16.75 17.75Q14.65 17.4 16.1 15.95Q15.5 15.4 15.8 15.1L15.8 15.05M12.5,22.4Q12.25 21.9 12.65 21.55L12.7 21.55Q13.35 23.05 12.05 22.65Q11.05 23.45 10.5 24.75L10.45 24.85Q12.9 25.7 11.55 27.5L11.45 27.45Q12.15 25.65 10.05 24.85L10.05 24.6Q10.65 23.2 11.9 22.35L12.5 22.4M15.4,24.1Q16.4 24.45 16.7 25.35L16.7 25.4Q16.25 25.45 15.9 24.9L15.7 24.8Q15.75 26.15 14.7 26.45L14.25 26.35L13.85 25.65L14.6 26.05L14.95 26.2L15.1 24.7Q15.1 24.25 15.4 24.1" />
</g>
</svg>
