<?xml version="1.0" encoding="utf-8"?>
<svg version="1.1" id="Layer_1"
xmlns="http://www.w3.org/2000/svg"
xmlns:xlink="http://www.w3.org/1999/xlink"
width="11px" height="5px"
xml:space="preserve">
<g id="1199" transform="matrix(1, 0, 0, 1, 18.95, 14.8)">
<path style="fill:#BFBFBF;fill-opacity:1" d="M-9.1,-13.55L-9.1 -12.95L-9.7 -12.95L-9.7 -11.65L-10.8 -11.65L-10.8 -14.75L-9 -14.75L-9 -14.15L-9.7 -14.15L-9.7 -13.55L-9.1 -13.55M-18.35,-14.05L-18.2 -14.35L-17.75 -14.6L-17.1 -14.7L-16.25 -14.55L-15.75 -14.2L-15.65 -13.6L-15.65 -13.3L-16.8 -13.3L-16.8 -13.85L-16.85 -14.1L-17.05 -14.15L-17.2 -14.1L-17.2 -13.8L-17.2 -12.35L-17.2 -12.15L-17.05 -12L-16.85 -12.15L-16.8 -12.45L-16.8 -12.75L-15.65 -12.75L-15.65 -12.7L-15.75 -12L-16.25 -11.7L-17.05 -11.55L-17.9 -11.7L-18.3 -12L-18.4 -12.7L-18.4 -13.5L-18.35 -14.05M-15.45,-13.1L-14 -13.1L-14 -12.6L-15.45 -12.6L-15.45 -13.1M-12.95,-14.7L-12.4 -14.8L-11.7 -14.7L-11.3 -14.45L-11.2 -14.15L-11.15 -13.45L-11.15 -13.05L-11.2 -12.3L-11.3 -11.9L-11.7 -11.65L-12.35 -11.6L-13.05 -11.7L-13.4 -12L-13.55 -12.45L-12.5 -12.45L-12.5 -12.25L-12.45 -12.1L-12.35 -12.1L-12.2 -12.1L-12.1 -12.25L-12.1 -12.45L-12.1 -12.95L-12.35 -12.7L-12.75 -12.7L-13.2 -12.8L-13.5 -13.1L-13.55 -13.5L-13.55 -13.75L-13.5 -14.25L-13.3 -14.55L-12.95 -14.7M-12.45,-14.3L-12.5 -14L-12.5 -13.45L-12.45 -13.2L-12.35 -13.15L-12.15 -13.2L-12.1 -13.45L-12.1 -14L-12.15 -14.3L-12.35 -14.3L-12.45 -14.3M-18.95,-10.9L-8.5 -10.9L-8.5 -9.8L-18.95 -9.8L-18.95 -10.9" />
</g>
</svg>
