<?xml version="1.0" encoding="utf-8"?>
<svg version="1.1" id="Layer_1"
xmlns="http://www.w3.org/2000/svg"
xmlns:xlink="http://www.w3.org/1999/xlink"
width="18px" height="23px"
xml:space="preserve">
<g id="748" transform="matrix(1, 0, 0, 1, -17.55, 1.45)">
<path style="fill:#000000;fill-opacity:1" d="M28.5,-0.25L28.7 -0.4L28.8 -0.5L28.9 -0.65L29.25 -0.75L29.35 -0.75L29.35 -0.8Q31.6 -0.35 32 0.9L32.05 0.95L32.1 1.45L32 2.15L32 2.45L31.45 2.95L30.7 3.05L30.75 2.9Q27.55 3.1 28.45 -0.15L28.5 -0.25M33.45,-1.05L33.5 -1.1Q33.65 -1.3 33.85 -1.35L34.15 -1.45Q35.9 -1.45 34.95 -0.15L33.8 -0.2Q33.5 -0.55 33.45 -1.05M33.45,9.9L34.25 13.1L34.25 13.3Q31.9 14.5 29.35 13.3L29.25 12.8L28.8 11.75Q28.55 11.35 28.55 10.85L27.55 10.65Q26.9 10.75 26.35 10.25Q26.25 8.55 27.85 8.15L31.15 7.65Q33.1 7.95 33.45 9.9M23.2,2.1L23.35 2.1L23.35 2.15Q23.65 2.2 23.9 2.4L24.6 3L24.7 3.1L22.7 4.9L20.55 6.7L20.2 7L20 6.9L19.65 6.8Q19.4 6.8 19.45 6.6Q19.85 5.6 20.75 4.9L22.55 3.3L22.65 3.2L22.3 3.5L22.2 3.55L22.25 3.3L21.85 3.5L21.75 3.5L22.4 2.8L22.6 2.65L22.6 2.6L22.75 2.5L22.8 2.5L22.95 2.25L23.05 2.2L23.05 2.25L23.15 2.15L23.05 2.1L23.1 2.1L23.2 2.1M25,10.7L26.5 11.25L27.75 12.2L27.8 12.4L25.2 13.05Q25.15 13.75 24.7 14.3L23.6 15.7L23.4 15.9L21.9 15.65L22.8 14.05Q23.35 13.25 24.1 13.05Q22.65 12.95 21.3 12.35L21.15 12.1Q21.65 11.7 22.45 11.4L25 10.7M25.85,14.85L29.4 15L30.8 15.1Q32 15.25 32.95 16.1L33.15 16L33.1 16.35L33.15 16.7L33.2 17L33.35 17.75L33.35 18.5L33.5 19.75L31.5 19.7L29.35 19.65L29.7 20.6L29.8 20.75Q27 21.25 24.25 20.75Q21 21.5 17.65 20.65L17.6 19.85L17.8 19.15L18 18.35L18.4 17.5L18.85 17.55Q19.9 18.45 21.5 18.65Q22.4 18.8 23.1 19.25L24.6 18.85L24.7 18.6L25 18.45L25.2 18.55Q25.95 18 26.95 17.55L27.35 17.4L25.35 16.8L25.25 15.9L25.25 15.45L25.15 15.35L25.1 15.3L25.15 15L25.15 14.95L25.2 14.85L25.25 14.9L25.35 14.75L25.4 14.7L25.75 14.75L25.8 14.8L25.85 14.85" />
</g>
</svg>
