<?xml version="1.0" encoding="utf-8"?>
<svg version="1.1" id="Layer_1"
xmlns="http://www.w3.org/2000/svg"
xmlns:xlink="http://www.w3.org/1999/xlink"
width="575px" height="419px"
xml:space="preserve">
<g id="211" transform="matrix(1, 0, 0, 1, -162.3, -40.25)">
<path style="fill:none;stroke-width:1.5;stroke-linecap:round;stroke-linejoin:round;stroke-miterlimit:3;stroke:#000000;stroke-opacity:0.705882" d="M710.9,54Q715.05 53.6 721.05 48.45L723 46.85L722.9 46Q722.9 43.85 724.95 42.4Q726.65 41.2 728.9 41L728.9 43Q727.35 43.2 723 46.85Q723.45 49.55 727.25 51.8Q729.8 53.3 735.9 56M163.05,234Q163.35 235.75 164.55 240.4Q165.5 245 165.05 249M595.9,457.85Q603.8 455.95 610.8 455.25Q618.2 454.5 626.9 454.85" />
<path style="fill:none;stroke-width:0.7;stroke-linecap:round;stroke-linejoin:round;stroke-miterlimit:3;stroke:#FFFFFF;stroke-opacity:0.4" d="M387.9,175Q378.4 178.1 380.9 188Q377.9 189 369.9 189" />
</g>
</svg>
