<?xml version="1.0" encoding="utf-8"?>
<svg version="1.1" id="Layer_1"
xmlns="http://www.w3.org/2000/svg"
xmlns:xlink="http://www.w3.org/1999/xlink"
width="26px" height="13px"
xml:space="preserve">
<g id="1218" transform="matrix(1, 0, 0, 1, 0, 0)">
<path style="fill:#100806;fill-opacity:1" d="M20.2,1.45L19.5 0.8L9.95 0.8L8.75 2.25L9.2 2.8L11.45 5.4L11.45 6.5L8.35 9.9L9.35 11.3L20.2 11.3L21.8 9L22.55 9L22.55 8.35L22.55 6.75L22.55 4.5L22.55 3.55L22.55 3L21.85 3L20.2 1.45M25.1,2.65L25.1 9.05L22.75 9.05L20.6 12.1L9 12.1L7.5 10L2.65 10L0 5.75L2.7 1.95L7.5 1.95L9.35 0L20 0L22.8 2.65L25.1 2.65M10.9,5.75L8.35 2.65L3.1 2.65L0.95 5.85L3.3 9.3L7.95 9.3L10.9 5.75" />
<path style="fill:#210F06;fill-opacity:1" d="M11.45,6.5L11.45 5.4L11.45 4.15L12.7 3L21.85 3L22.55 3L22.55 3.55L13.45 3.55L12.4 4.5L12.15 4.75L12.15 6.75L12.15 7.25L13.45 8.35L22.55 8.35L22.55 9L21.8 9L12.7 9L11.45 7.8L11.45 6.5" />
<path style="fill:#2C2C2C;fill-opacity:1" d="M22.55,8.35L13.45 8.35L12.15 7.25L12.15 6.75L13.05 6.75L13.05 7.4L14.6 7.4L14.6 6.75L15.4 6.75L15.4 7.4L16.95 7.4L16.95 6.75L17.8 6.75L17.8 7.4L19.35 7.4L19.35 6.75L20.2 6.75L20.2 7.4L21.75 7.4L21.75 6.75L22.55 6.75L22.55 8.35M19.35,4.5L19.35 4.3L17.8 4.3L17.8 4.5L16.95 4.5L16.95 4.3L15.4 4.3L15.4 4.5L14.6 4.5L14.6 4.3L13.05 4.3L13.05 4.5L12.4 4.5L13.45 3.55L22.55 3.55L22.55 4.5L21.75 4.5L21.75 4.3L20.2 4.3L20.2 4.5L19.35 4.5" />
<path style="fill:#8C8C8C;fill-opacity:1" d="M20.2,4.5L21.75 4.5L21.75 5L20.2 5L20.2 4.5M20.2,6.75L20.2 5.75L21.75 5.75L21.75 6.75L20.2 6.75M15.4,5.75L16.95 5.75L16.95 6.75L15.4 6.75L15.4 5.75M16.95,5L15.4 5L15.4 4.5L16.95 4.5L16.95 5M17.8,5.75L19.35 5.75L19.35 6.75L17.8 6.75L17.8 5.75M19.35,5L17.8 5L17.8 4.5L19.35 4.5L19.35 5M13.05,5.75L14.6 5.75L14.6 6.75L13.05 6.75L13.05 5.75M14.6,5L13.05 5L13.05 4.5L14.6 4.5L14.6 5" />
<path style="fill:#3D3C3C;fill-opacity:1" d="M21.75,4.5L22.55 4.5L22.55 6.75L21.75 6.75L21.75 5.75L21.75 5L21.75 4.5M20.2,6.75L19.35 6.75L19.35 5.75L19.35 5L19.35 4.5L20.2 4.5L20.2 5L20.2 5.75L20.2 6.75M13.05,6.75L12.15 6.75L12.15 4.75L12.4 4.5L13.05 4.5L13.05 5L13.05 5.75L13.05 6.75M15.4,6.75L14.6 6.75L14.6 5.75L14.6 5L14.6 4.5L15.4 4.5L15.4 5L15.4 5.75L15.4 6.75M17.8,6.75L16.95 6.75L16.95 5.75L16.95 5L16.95 4.5L17.8 4.5L17.8 5L17.8 5.75L17.8 6.75" />
<path style="fill:#707070;fill-opacity:1" d="M20.2,4.5L20.2 4.3L21.75 4.3L21.75 4.5L20.2 4.5M13.05,4.5L13.05 4.3L14.6 4.3L14.6 4.5L13.05 4.5M15.4,4.5L15.4 4.3L16.95 4.3L16.95 4.5L15.4 4.5M17.8,4.5L17.8 4.3L19.35 4.3L19.35 4.5L17.8 4.5M21.75,6.75L21.75 7.4L20.2 7.4L20.2 6.75L21.75 6.75M19.35,6.75L19.35 7.4L17.8 7.4L17.8 6.75L19.35 6.75M16.95,6.75L16.95 7.4L15.4 7.4L15.4 6.75L16.95 6.75M14.6,6.75L14.6 7.4L13.05 7.4L13.05 6.75L14.6 6.75" />
<path style="fill:#B6B6B6;fill-opacity:1" d="M20.2,5.75L20.2 5L21.75 5L21.75 5.75L20.2 5.75M16.95,5L16.95 5.75L15.4 5.75L15.4 5L16.95 5M19.35,5L19.35 5.75L17.8 5.75L17.8 5L19.35 5M14.6,5L14.6 5.75L13.05 5.75L13.05 5L14.6 5" />
<path style="fill:#9F6329;fill-opacity:1" d="M10.35,1.45L9.2 2.8L8.75 2.25L9.95 0.8L19.5 0.8L20.2 1.45L10.35 1.45M3.1,2.65L8.35 2.65L10.9 5.75L8.2 3.6L3.75 3.6L0.95 5.85L3.1 2.65" />
<linearGradient
id="LinearGradID_433" gradientUnits="userSpaceOnUse" gradientTransform="matrix(0, -0.012085, 0.00927734, -1.52588e-005, 15.4, 1.65)" spreadMethod ="pad" x1="-819.2" y1="0" x2="819.2" y2="0" >
<stop  offset="0" style="stop-color:#511A16;stop-opacity:1" />
<stop  offset="0.505882" style="stop-color:#6D4414;stop-opacity:1" />
<stop  offset="1" style="stop-color:#511A16;stop-opacity:1" />
</linearGradient>
<path style="fill:url(#LinearGradID_433) " d="M11.45,7.8L12.7 9L21.8 9L20.2 11.3L9.35 11.3L8.35 9.9L11.45 6.5L11.45 7.8M20.2,1.45L21.85 3L12.7 3L11.45 4.15L11.45 5.4L9.2 2.8L10.35 1.45L20.2 1.45" />
<linearGradient
id="LinearGradID_434" gradientUnits="userSpaceOnUse" gradientTransform="matrix(-0.00126648, -0.00817871, 0.00572205, -0.000869751, 5.25, 3.35)" spreadMethod ="pad" x1="-819.2" y1="0" x2="819.2" y2="0" >
<stop  offset="0" style="stop-color:#511A16;stop-opacity:1" />
<stop  offset="0.505882" style="stop-color:#6D4414;stop-opacity:1" />
<stop  offset="1" style="stop-color:#511A16;stop-opacity:1" />
</linearGradient>
<path style="fill:url(#LinearGradID_434) " d="M7.95,9.3L3.3 9.3L0.95 5.85L3.75 3.6L8.2 3.6L10.9 5.75L7.95 9.3" />
</g>
</svg>
