<?xml version="1.0" encoding="utf-8"?>
<svg version="1.1" id="Layer_1"
xmlns="http://www.w3.org/2000/svg"
xmlns:xlink="http://www.w3.org/1999/xlink"
width="51px" height="24px"
xml:space="preserve">
<g id="863" transform="matrix(1, 0, 0, 1, 25.4, 11.6)">
<path style="fill:#000000;fill-opacity:1" d="M20.15,-4.4L20 -4.45Q18.85 -5 17.65 -5.15L17.6 -5.15L16.5 -5.3L-17.6 -10.45L-18.2 -10.55L-18.85 -10.6L-19.6 -10.55L-20.6 -10.45Q-21.35 -10.35 -22.8 -8.85Q-24.3 -7.4 -24.3 -5.15Q-24.3 -3.35 -23.3 -2L-13.25 9.2L-12.2 10Q-11.1 10.6 -9.7 10.65L18.4 10.65Q20.6 10.15 22.25 8.35L22.35 8.3Q24.5 5.85 24.5 2.65Q24.5 -0.6 22.2 -2.9L20.15 -4.4M22.8,-3.6Q25.4 -1 25.4 2.65Q25.4 6.3 22.9 9.05Q21 11.1 18.5 11.65L-9.85 11.65Q-11.5 11.6 -12.8 10.85L-14.1 9.85L-24.15 -1.35Q-25.4 -3 -25.4 -5.15Q-25.4 -7.8 -23.5 -9.7Q-22.1 -11.1 -20.25 -11.45L-18.95 -11.6L-18.15 -11.55L-17.55 -11.45L16.6 -6.3L17.6 -6.15L17.65 -6.15L20.35 -5.35Q21.65 -4.75 22.8 -3.6M18.05,-4.8Q20.25 -4.35 21.9 -2.7Q24.25 -0.35 24.25 2.9Q24.25 6.1 21.9 8.4L21.95 8.4Q20.6 9.8 18.95 10.35L-10.25 10.35Q-11.95 10.1 -13.15 8.9L-13.3 8.8L-13.55 8.45L-13.6 8.4L-16.65 4.8L-16.8 4.6L-21.9 -1.4L-21.95 -1.45Q-22.3 -1.65 -22.7 -2.1L-23.45 -3.45Q-23.85 -4.35 -23.65 -5.75Q-23.5 -7.2 -22.05 -8.7Q-20.65 -10.2 -19.7 -10.3L-18.55 -10.4L-18.2 -10.35L17.05 -4.9L18.05 -4.8M-5.1,0.65Q-3.2 2.55 -3.2 5.2Q-3.2 7.55 -4.7 9.35L10.75 9.4L10.4 9.05Q7.7 6.3 7.7 2.65L7.95 0.5Q8.5 -1.8 10.3 -3.6L11.7 -4.65L-13.5 -8.65Q-12.5 -7.1 -12.5 -5.15Q-12.5 -2.5 -14.4 -0.6L-15.8 0.5Q-17.1 1.25 -18.65 1.3L-16.05 4.4Q-15.8 2.25 -14.2 0.65L-14.05 0.5Q-12.2 -1.25 -9.65 -1.25Q-7.1 -1.25 -5.25 0.5L-5.1 0.65M-19.05,-7.7Q-20.1 -7.7 -20.85 -6.95Q-21.55 -6.25 -21.55 -5.2Q-21.55 -4.15 -20.85 -3.45Q-20.1 -2.7 -19.05 -2.7Q-18 -2.7 -17.3 -3.45Q-16.55 -4.15 -16.55 -5.2Q-16.55 -6.25 -17.3 -6.95Q-18 -7.7 -19.05 -7.7M-12.3,5.25Q-12.3 6.4 -11.5 7.15Q-10.65 8 -9.55 8Q-8.4 8 -7.6 7.15Q-6.8 6.4 -6.8 5.25Q-6.8 4.05 -7.6 3.3Q-8.4 2.5 -9.55 2.5Q-10.65 2.5 -11.5 3.3Q-12.3 4.05 -12.3 5.25" />
<path style="fill:#BD8051;fill-opacity:1" d="M22.2,-2.9Q24.5 -0.6 24.5 2.65Q24.5 5.85 22.35 8.3L22.25 8.35Q20.6 10.15 18.4 10.65L-9.7 10.65Q-11.1 10.6 -12.2 10L-13.25 9.2L-23.3 -2Q-24.3 -3.35 -24.3 -5.15Q-24.3 -7.4 -22.8 -8.85Q-21.35 -10.35 -20.6 -10.45L-19.6 -10.55L-18.85 -10.6L-18.2 -10.55L-17.6 -10.45L16.5 -5.3L17.6 -5.15L17.65 -5.15Q18.85 -5 20 -4.45L20.15 -4.4L22.2 -2.9M17.05,-4.9L-18.2 -10.35L-18.55 -10.4L-19.7 -10.3Q-20.65 -10.2 -22.05 -8.7Q-23.5 -7.2 -23.65 -5.75Q-23.85 -4.35 -23.45 -3.45L-22.7 -2.1Q-22.3 -1.65 -21.95 -1.45L-21.9 -1.4L-16.8 4.6L-16.65 4.8L-13.6 8.4L-13.55 8.45L-13.3 8.8L-13.15 8.9Q-11.95 10.1 -10.25 10.35L18.95 10.35Q20.6 9.8 21.95 8.4L21.9 8.4Q24.25 6.1 24.25 2.9Q24.25 -0.35 21.9 -2.7Q20.25 -4.35 18.05 -4.8L17.05 -4.9" />
<path style="fill:#0E0E0E;fill-opacity:1" d="M-5.25,0.5Q-7.1 -1.25 -9.65 -1.25Q-12.2 -1.25 -14.05 0.5L-14.2 0.65Q-15.8 2.25 -16.05 4.4L-18.65 1.3Q-17.1 1.25 -15.8 0.5L-14.4 -0.6Q-12.5 -2.5 -12.5 -5.15Q-12.5 -7.1 -13.5 -8.65L11.7 -4.65L10.3 -3.6Q8.5 -1.8 7.95 0.5L7.7 2.65Q7.7 6.3 10.4 9.05L10.75 9.4L-4.7 9.35Q-3.2 7.55 -3.2 5.2Q-3.2 2.55 -5.1 0.65L-5.25 0.5M-17.3,-6.95Q-16.55 -6.25 -16.55 -5.2Q-16.55 -4.15 -17.3 -3.45Q-18 -2.7 -19.05 -2.7Q-20.1 -2.7 -20.85 -3.45Q-21.55 -4.15 -21.55 -5.2Q-21.55 -6.25 -20.85 -6.95Q-20.1 -7.7 -19.05 -7.7Q-18 -7.7 -17.3 -6.95M-11.5,3.3Q-10.65 2.5 -9.55 2.5Q-8.4 2.5 -7.6 3.3Q-6.8 4.05 -6.8 5.25Q-6.8 6.4 -7.6 7.15Q-8.4 8 -9.55 8Q-10.65 8 -11.5 7.15Q-12.3 6.4 -12.3 5.25Q-12.3 4.05 -11.5 3.3" />
</g>
</svg>
