<?xml version="1.0" encoding="utf-8"?>
<svg version="1.1" id="Layer_1"
xmlns="http://www.w3.org/2000/svg"
xmlns:xlink="http://www.w3.org/1999/xlink"
width="299px" height="69px"
xml:space="preserve">
<g id="483" transform="matrix(1, 0, 0, 1, 106.4, -192.15)">
<path style="fill:#3A1D0F;fill-opacity:0.85098" d="M51.6,195.3Q52.1 194.1 53.15 193.1Q53.9 192.4 54.8 192.15Q61.15 192.4 65.35 197.15Q67.55 199.6 63.95 200.35Q57.75 201.6 52.25 199.3L51.45 198.75L51.45 198L51.4 196.8Q51.35 196 51.6 195.3M154.3,249.85Q155.05 247.7 157.45 247.55Q160.05 247.4 161.9 246.65Q165.15 246.75 168.15 247.95Q171.1 249.1 173.2 251.35Q174.4 252.55 174.85 254.45Q172.7 257.9 167.55 256.9L157.1 254.55Q155.5 254.15 154.35 252.9L154.2 251.75Q153.95 250.85 154.3 249.85M68.45,256.85Q68.3 257.9 67.3 258.35Q60.95 261.45 54.2 259.7Q50.6 258.8 48.75 256.2Q48.5 255.85 48.65 255.4L48.9 255.15L50 254.45L51.25 254L52.6 253.6L54.5 253.05L60.2 253.45L65.8 254.5Q67.85 254.95 68.45 256.85M179.15,229.4Q181.45 230.45 180.7 232.65Q178.8 234.15 176.4 234.65Q168.6 236.4 166.6 230.6Q166.15 229.25 166.3 227.8L166.55 227.6L167.05 227.2L168 226.8L168.9 226.5L168.95 226.45L173.95 227.5Q176.65 228.25 179.15 229.4M180.45,235.85L182.7 234.15Q185 235.7 187.45 236.85Q190.1 238.05 191.5 240.55Q192.5 242.3 192.1 244.25Q184.7 246.6 179.8 241.15Q176.9 237.9 180.45 235.85M-26.75,234.8L-26.75 235.5L-26.75 235.75Q-24.4 238.3 -20.8 237.65L-20.5 237.35Q-20.95 235.7 -23 234.85L-24.8 233.95L-25.3 233.7L-26.75 233.35L-26.75 234.05L-26.75 234.8M-28.35,232.45Q-28.35 231.65 -27.55 231.6Q-24.8 231.45 -22.45 232.75Q-19.95 234.15 -19.05 236.6Q-18.5 238.15 -19.65 239.35L-24.65 239.2Q-26.3 238.7 -27.6 237.55L-28.2 237.05L-28.3 236.55L-28.35 235.1L-28.35 233.9L-28.35 232.45" />
<path style="fill:#3A1D0F;fill-opacity:0.270588" d="M103.25,242.5Q113.8 242.6 118.5 250.5Q119.35 251.9 117.65 252.45Q106.55 255.95 97.1 249.6Q94.5 247.85 96.9 245.55Q99.5 243.1 103.25 242.5" />
<path style="fill:#503224;fill-opacity:1" d="M-26.75,234.05L-26.75 233.35L-25.3 233.7L-24.8 233.95L-23 234.85Q-20.95 235.7 -20.5 237.35L-20.8 237.65Q-24.4 238.3 -26.75 235.75L-26.75 235.5L-26.75 234.8L-26.75 234.05" />
<path style="fill:#3A1D0F;fill-opacity:0.298039" d="M-94.4,205.9Q-93.15 207.2 -93.8 209.05L-94 209.4Q-97.45 212.6 -102.1 211.25Q-104.25 210.65 -105.95 209.2L-106.2 208.75L-106.4 207.65Q-106.45 206.75 -105.95 206L-104.85 204.15Q-104.55 203.55 -104 203.45L-98.8 203.7Q-96.15 204 -94.4 205.9" />
</g>
</svg>
