<?xml version="1.0" encoding="utf-8"?>
<svg version="1.1" id="Layer_1"
xmlns="http://www.w3.org/2000/svg"
xmlns:xlink="http://www.w3.org/1999/xlink"
width="7px" height="8px"
xml:space="preserve">
<g id="680" transform="matrix(1, 0, 0, 1, -1.15, 14.2)">
<path style="fill:#7E0000;fill-opacity:1" d="M3.4,-12.85Q3.35 -11.8 2.8 -11.05L2.5 -10.1L2.5 -10.05L2.5 -9.85Q2.6 -8.95 2.05 -8.6L1.8 -7.25L1.7 -7.05Q0.9 -7.85 1.25 -9.35L1.35 -10.85L1.5 -13.5Q1.55 -14.1 2.1 -14.2Q3.45 -14.2 3.4 -12.85M6.75,-7.2Q5 -7.3 3.75 -8.1L2.9 -8.15L2.8 -8.1L2.75 -8.15L2.6 -8.15L2.6 -8.25L2.65 -8.25Q2.3 -8.65 2.6 -9.15L2.8 -9.7L3.5 -10.85Q3.65 -11.15 3.95 -11.15L4.2 -11.15L4.45 -11.1L4.65 -10.95Q4.95 -10.3 4.5 -9.75L3.95 -9.05L4.5 -8.95L5.65 -8.9L6.5 -8.75Q7.55 -9.25 7.55 -7.9Q7.55 -7.15 6.75 -7.2" />
</g>
</svg>
