<?xml version="1.0" encoding="utf-8"?>
<svg version="1.1" id="Layer_1"
xmlns="http://www.w3.org/2000/svg"
xmlns:xlink="http://www.w3.org/1999/xlink"
width="34px" height="13px"
xml:space="preserve">
<g id="719" transform="matrix(1, 0, 0, 1, -11.85, -9)">
<path style="fill:#000000;fill-opacity:1" d="M43,9Q45.4 8.95 45 11.15Q44.9 11.7 44.35 11.75Q42.7 11.8 42.35 10.2L42.3 10.25L42.1 10.25L42.05 10.2L42 10.1L42 9.9L42.1 9.75L42.5 9.25Q42.7 9.05 43 9M42.4,19.4L42 20Q40.65 20.7 39.25 20.4L38.95 20.5L38.4 20.35L38.35 20.7Q33.4 21.45 28.75 20Q27.55 19.6 28.05 18.5Q28.5 17.6 29.75 17.5L30.35 17.15Q31.15 16.4 32.15 16L32.7 15.8Q34.2 15.9 35.15 17Q35.3 16.8 35.6 16.7L37.2 16.45Q38.75 16.4 40.1 17.15Q41.55 17.9 42.3 19.2L42.4 19.4M35.6,9.05Q38.8 9.35 38.5 12.45L38.2 12.75Q36.35 12.75 35 11.35Q33.45 9.85 35.6 9.05M22.75,19.6Q21.35 19.7 20.35 20.4Q19.2 21.25 17.6 21.1L11.95 20.8L11.9 20.75L11.9 20.45L11.95 20.1L11.95 19.85Q14.4 19.05 17 19.15Q17.45 19.15 17.8 18.8L19.7 18.7L20.1 18.7Q22.1 17.75 24.35 17.5Q25.45 17.5 26.3 18.2Q27.2 18.9 27.45 19.9L27.45 20L22.75 19.6M31.25,15.95Q28.7 15.4 29.9 13.6Q32.45 13.85 31.7 15.75L31.25 15.95" />
</g>
</svg>
