<?xml version="1.0" encoding="utf-8"?>
<svg version="1.1" id="Layer_1"
xmlns="http://www.w3.org/2000/svg"
xmlns:xlink="http://www.w3.org/1999/xlink"
width="48px" height="29px"
xml:space="preserve">
<g id="799" transform="matrix(1, 0, 0, 1, -5, 8.55)">
<path style="fill:#000000;fill-opacity:1" d="M21.15,-6.8L22.85 -8.55L34.95 -8.55L36.65 -6.8L36.65 -5.5L37.55 -6.6L40 -6.75L49.1 1.15L49.2 3.55L48.4 4.55L49.8 4.4L51.65 6.05L52.45 18.05L50.85 19.85L48.9 20L47.85 4.95L36.6 -4.85L21.2 -4.85L9.95 4.95L8.9 20L6.95 19.85L5.35 18.05L6.15 6.05L8 4.4L9.4 4.55L8.6 3.55L8.7 1.15L17.8 -6.75L20.25 -6.6L21.15 -5.5L21.15 -6.8" />
<path style="fill:#BD8051;fill-opacity:0.705882" d="M13.9,-4.75L14.05 -4.4L13.9 -4.05Q13.75 -3.9 13.55 -3.9Q13.35 -3.9 13.15 -4.05Q13 -4.15 13 -4.4L13.15 -4.75L13.55 -4.85L13.9 -4.75M11.35,4.15L11.15 4.05L11.05 3.85L11.05 3.6L11.2 3.5L11.45 3.5L11.65 3.55L16.35 6.05L20.95 -2.35L20.85 -4.85L20.95 -5.05L21.15 -5.15L21.35 -5.05L21.45 -4.85L21.55 -2.25L21.55 -2.1L12 15.35L11.8 15.5L11.55 15.5L11.45 15.3L11.45 15.05L16.05 6.6L11.35 4.15M29.1,-2.7L29.1 3.3L29 3.5L28.8 3.6L28.6 3.5L28.5 3.3L28.5 -2.7L28.5 -3L28.6 -3.2L28.8 -3.3L29 -3.2L29.1 -3L29.1 -2.7M36.45,-4.25L36.65 -4.35L36.85 -4.25L36.95 -4.05L37.15 -1.65L45.05 5.1L47.05 4.55L47.25 4.6L47.4 4.8L47.35 5L47.2 5.15L45.05 5.75L44.9 5.75L44.75 5.7L40.95 2.4L35.45 7.5L35.25 7.55L35.05 7.45L34.95 7.25L35.05 7.05L40.45 2L36.65 -1.25L36.55 -1.45L36.35 -4L36.45 -4.25M46.35,12.85L41.05 14L40.8 13.95L40.65 13.8L40.7 13.55L40.9 13.4L46.3 12.2L46.6 12.15L46.8 12.2L46.9 12.3L46.95 12.4L46.95 12.55L46.9 12.6L46.75 12.75L46.35 12.85" />
<path style="fill:#BD8051;fill-opacity:0.705882" d="M12.35,-2.95L12.75 -3.05L13.1 -2.95L13.25 -2.6L13.1 -2.25Q12.95 -2.1 12.75 -2.1Q12.55 -2.1 12.35 -2.25Q12.2 -2.35 12.2 -2.6L12.35 -2.95M12.4,-0.9L12.25 -0.55Q12.1 -0.4 11.9 -0.4L11.5 -0.55Q11.35 -0.65 11.35 -0.9L11.5 -1.25L11.9 -1.35L12.25 -1.25L12.4 -0.9M23.55,-7.95L23.9 -7.85L24.05 -7.5L23.9 -7.15L23.55 -7Q23.35 -7 23.15 -7.15Q23 -7.25 23 -7.5L23.15 -7.85L23.55 -7.95M46.8,12.2L46.6 12.15L46.3 12.2L45.95 7.8L46.05 7.6L47.7 5.65Q47.75 5.5 47.9 5.5L48.1 5.6L48.2 5.8L48.15 6L46.55 7.85L46.9 12.3L46.8 12.2M46.75,12.75L46.9 12.6L46.95 12.55L47.4 18.25L49.15 19.25L49.3 19.45L49.25 19.65L49.1 19.8L48.85 19.75L46.95 18.65L46.85 18.55L46.8 18.45L46.35 12.85L46.75 12.75" />
<path style="fill:#BD8051;fill-opacity:0.705882" d="M22.5,-6.4L22.85 -6.3L23 -5.95L22.85 -5.6L22.5 -5.45L22.1 -5.6Q21.95 -5.7 21.95 -5.95L22.1 -6.3L22.5 -6.4M34.7,-7.9L34.85 -7.55L34.7 -7.2Q34.5 -7.05 34.3 -7.05Q34.1 -7.05 33.95 -7.2Q33.8 -7.3 33.8 -7.55L33.95 -7.9L34.3 -8L34.7 -7.9M40.15,-5.2L39.8 -5L39.45 -5.1L39.25 -5.5L39.4 -5.9L39.75 -6.05L40.1 -5.8L40.3 -5.55L40.15 -5.2M11.45,1.25L11.1 1.4L10.7 1.25L10.55 0.9L10.7 0.55L11.1 0.45L11.45 0.55L11.6 0.9L11.45 1.25M10.55,2.7L10.4 3.05L10.05 3.2L9.65 3.05L9.5 2.7L9.65 2.35L10.05 2.25L10.4 2.35L10.55 2.7" />
<path style="fill:#BD8051;fill-opacity:0.705882" d="M23.95,-5L24.3 -4.9L24.45 -4.55L24.3 -4.2L23.95 -4.05Q23.75 -4.05 23.55 -4.2Q23.4 -4.3 23.4 -4.55L23.55 -4.9L23.95 -5M35.35,-6.45L35.75 -6.35L35.9 -6L35.75 -5.65Q35.55 -5.5 35.35 -5.5Q35.15 -5.5 35 -5.65Q34.85 -5.75 34.85 -6L35 -6.35L35.35 -6.45M38.45,-5.1L38.4 -4.7Q38.2 -4.55 38 -4.55L37.65 -4.65L37.45 -5.05L37.6 -5.35L37.9 -5.6L38.25 -5.35L38.45 -5.1M51.3,6.5L51.4 6.9L51.35 7.25L51.05 7.4L50.65 7.3L50.45 7Q50.45 6.75 50.6 6.6L50.95 6.4L51.3 6.5M48.35,1.95L47.95 2.1L47.55 1.95L47.4 1.6L47.55 1.25Q47.65 1.1 47.85 1.05L48.2 1.25L48.4 1.55L48.35 1.95M9.75,4.5L9.6 4.85L9.25 5L8.85 4.85Q8.7 4.75 8.7 4.5Q8.7 4.3 8.85 4.15L9.25 4.05L9.6 4.15L9.75 4.5M8.75,5.9L8.9 6.25L8.75 6.6L8.4 6.75L8 6.6L7.85 6.25L8 5.9L8.4 5.8L8.75 5.9" />
<path style="fill:#BD8051;fill-opacity:0.705882" d="M26.35,-4L26.2 -3.65L25.85 -3.5Q25.65 -3.5 25.45 -3.65Q25.3 -3.75 25.3 -4L25.45 -4.35L25.85 -4.45L26.2 -4.35L26.35 -4M33.9,-5.05L34.3 -4.95L34.45 -4.6L34.3 -4.25L33.9 -4.1Q33.7 -4.1 33.55 -4.25Q33.4 -4.35 33.4 -4.6L33.55 -4.95L33.9 -5.05M38.45,-3.35L38.65 -3.05L38.5 -2.65Q38.35 -2.5 38.15 -2.5Q37.95 -2.5 37.8 -2.65L37.6 -3L37.75 -3.35L38.1 -3.55L38.45 -3.35M47.95,3.05L48.2 3.45L48.05 3.8L47.75 3.95L47.35 3.75L47.2 3.45L47.3 3.1L47.65 2.95L47.95 3.05M49.65,5.55L49.75 6L49.7 6.35L49.45 6.6L49.05 6.45L48.85 6.1Q48.8 5.9 49 5.65Q49.05 5.5 49.3 5.55L49.65 5.55M51.55,17.7Q51.55 17.5 51.7 17.35Q51.8 17.15 52.05 17.15L52.4 17.25L52.55 17.6L52.5 18L52.15 18.25L51.75 18.05L51.55 17.7M7.95,7.7L8.1 8.05L7.95 8.4L7.6 8.55L7.2 8.4L7.05 8.05L7.2 7.7L7.6 7.6L7.95 7.7M6.7,9.55L6.85 9.9L6.7 10.25L6.35 10.4L5.95 10.25Q5.8 10.15 5.8 9.9Q5.8 9.7 5.95 9.55L6.35 9.45L6.7 9.55" />
<path style="fill:#BD8051;fill-opacity:0.705882" d="M27.85,-3.5Q27.65 -3.5 27.45 -3.65Q27.3 -3.75 27.3 -4L27.45 -4.35L27.85 -4.45L28.2 -4.35L28.35 -4L28.2 -3.65L27.85 -3.5M30.2,-4.35L30.35 -4L30.2 -3.65L29.85 -3.5L29.45 -3.65Q29.3 -3.75 29.3 -4L29.45 -4.35L29.85 -4.45L30.2 -4.35M39.1,-1.85L39.5 -1.7L39.7 -1.35L39.6 -1L39.25 -0.85L38.85 -1L38.65 -1.35L38.8 -1.7L39.1 -1.85M46.1,3.85L45.7 4.05L45.3 3.85L45.15 3.55L45.3 3.2Q45.4 3.05 45.6 3.05L45.95 3.15L46.15 3.55L46.1 3.85M48.5,7.6L48.45 7.95L48.1 8.1L47.75 8.05L47.6 7.65L47.7 7.25Q47.8 7.1 48 7.1L48.4 7.2L48.5 7.6M50.6,18.4L50.95 18.45L51.1 18.75L51.05 19.25L50.7 19.4Q50.4 19.45 50.35 19.3L50.2 18.85L50.3 18.55Q50.35 18.35 50.6 18.4M5.55,11.25L5.9 11.35L6.05 11.7L5.9 12.05L5.55 12.2L5.15 12.05L5 11.7L5.15 11.35L5.55 11.25" />
<path style="fill:#BD8051;fill-opacity:0.705882" d="M18.8,-5.6L18.65 -5.25L18.3 -5.1L17.9 -5.25Q17.75 -5.35 17.75 -5.6L17.9 -5.95L18.3 -6.05L18.65 -5.95L18.8 -5.6M31.3,-4L31.45 -4.35L31.85 -4.45L32.2 -4.35L32.35 -4L32.2 -3.65Q32.05 -3.5 31.85 -3.5Q31.65 -3.5 31.45 -3.65Q31.3 -3.75 31.3 -4M40.3,-0.4L40.6 -0.55L41 -0.4L41.2 -0.05L41.1 0.3L40.75 0.45L40.35 0.3L40.15 -0.05L40.3 -0.4M42.7,1.25L42.6 1.6L42.25 1.75L41.9 1.65L41.7 1.25Q41.6 1.15 41.8 0.95Q41.9 0.8 42.15 0.75L42.55 0.95L42.7 1.25M48,9.15L48.2 9.5L48.1 9.9L47.75 10.1L47.4 10L47.2 9.6L47.3 9.15L47.65 9L48 9.15M49.05,17.05L49.4 17.15L49.6 17.45L49.45 17.9Q49.4 18.05 49.2 18.05L48.75 17.95L48.6 17.5L48.7 17.2Q48.75 17.05 49.05 17.05" />
<path style="fill:#BD8051;fill-opacity:0.705882" d="M19.95,-5.05L20.3 -4.95L20.45 -4.6L20.3 -4.25L19.95 -4.1Q19.75 -4.1 19.55 -4.25Q19.4 -4.35 19.4 -4.6L19.55 -4.95L19.95 -5.05M27.5,-0.45L27.85 -0.35L28 0L27.85 0.35L27.5 0.5L27.1 0.35Q26.95 0.25 26.95 0L27.1 -0.35L27.5 -0.45M43.65,2.1L44.05 2.25L44.2 2.6L44.1 2.95L43.75 3.1L43.4 2.95L43.2 2.6Q43.1 2.45 43.3 2.25Q43.4 2.1 43.65 2.1M47.85,11L48.2 11.1L48.4 11.5L48.25 11.85L48 12.1L47.65 11.95L47.45 11.6L47.5 11.15Q47.55 11 47.85 11M48.5,13.85L48.2 14.05L47.85 13.95L47.65 13.6Q47.6 13.4 47.8 13.15Q47.75 13.05 48.05 13L48.4 13.1L48.6 13.55L48.5 13.85" />
<path style="fill:#BD8051;fill-opacity:0.705882" d="M19.95,-3.05L20.3 -2.95L20.45 -2.6L20.3 -2.25L19.95 -2.1Q19.75 -2.1 19.55 -2.25Q19.4 -2.35 19.4 -2.6L19.55 -2.95L19.95 -3.05M18.65,-1.4L19.05 -1.5L19.4 -1.4L19.55 -1.05L19.4 -0.7Q19.25 -0.55 19.05 -0.55L18.65 -0.7Q18.5 -0.8 18.5 -1.05L18.65 -1.4M42.65,11.8L42.8 11.45L43.2 11.35L43.55 11.45L43.7 11.8L43.55 12.15L43.2 12.3L42.8 12.15L42.65 11.8M44.85,11.8L44.7 11.45L44.85 11.1L45.25 11L45.6 11.1L45.75 11.45L45.6 11.8L45.25 11.95L44.85 11.8M48.6,15.15L48.8 15.5L48.65 15.85L48.35 16.05L48 15.95L47.85 15.55L47.95 15.2Q47.95 15 48.25 15L48.6 15.15M39.35,1.85L39.5 2.2L39.35 2.55L39 2.7L38.6 2.55L38.45 2.2L38.6 1.85L39 1.75L39.35 1.85M37.65,2.8L38 2.9L38.15 3.25L38 3.6L37.65 3.75L37.25 3.6L37.1 3.25L37.25 2.9L37.65 2.8M35.9,4.05L36.3 3.95L36.65 4.05L36.8 4.4L36.65 4.75L36.3 4.9L35.9 4.75L35.75 4.4L35.9 4.05M18.4,0.55L18.55 0.9L18.4 1.25L18.05 1.4L17.65 1.25Q17.5 1.15 17.5 0.9Q17.5 0.7 17.65 0.55L18.05 0.45L18.4 0.55M17.5,2.1L17.65 2.45L17.5 2.8L17.15 2.95L16.75 2.8L16.6 2.45L16.75 2.1L17.15 2L17.5 2.1M16.85,4L16.7 4.35L16.35 4.5L15.95 4.35L15.8 4L15.95 3.65L16.35 3.55L16.7 3.65L16.85 4M14.8,7.05L14.95 7.4L14.8 7.75L14.45 7.9L14.05 7.75Q13.9 7.65 13.9 7.4Q13.9 7.2 14.05 7.05L14.45 6.95L14.8 7.05M13.9,8.6L14.05 8.95L13.9 9.3L13.55 9.45L13.15 9.3L13 8.95L13.15 8.6L13.55 8.5L13.9 8.6M11.85,11.45L12.2 11.55L12.35 11.9L12.2 12.25L11.85 12.4L11.45 12.25L11.3 11.9L11.45 11.55L11.85 11.45M12.2,10.35L12.35 10L12.75 9.9L13.1 10L13.25 10.35L13.1 10.7L12.75 10.85L12.35 10.7L12.2 10.35M9.65,15.35L9.5 15L9.65 14.65L10.05 14.55L10.4 14.65L10.55 15L10.4 15.35L10.05 15.5L9.65 15.35M10.95,13L11.3 13.1L11.45 13.45L11.3 13.8L10.95 13.95L10.55 13.8L10.4 13.45L10.55 13.1L10.95 13" />
<path style="fill:#BD8051;fill-opacity:0.705882" d="M11.45,3.5L11.2 3.5L11.05 3.6L11.05 3.85L11.15 4.05L11.35 4.15L7.35 12.75L7.15 12.9L6.95 12.9L6.8 12.7L6.8 12.5L14.7 -4.35L14.85 -4.5L15.1 -4.5L15.25 -4.35L15.25 -4.1L11.65 3.55L11.45 3.5M28.6,-3.2L28.5 -3L28.5 -2.7L23.7 -2.7L23.6 -2.7L23.5 -2.8L21.7 -4.65L21.6 -4.85L21.7 -5.05L21.9 -5.15L22.15 -5.05L23.85 -3.3L28.8 -3.3L28.6 -3.2M29.1,-3L29 -3.2L28.8 -3.3L34.25 -3.3L35.35 -5L35.55 -5.15L35.8 -5.1L35.9 -4.9L35.85 -4.65L34.65 -2.8L34.55 -2.7L34.4 -2.7L29.1 -2.7L29.1 -3" />
</g>
</svg>
