<?xml version="1.0" encoding="utf-8"?>
<svg version="1.1" id="Layer_1"
xmlns="http://www.w3.org/2000/svg"
xmlns:xlink="http://www.w3.org/1999/xlink"
width="23px" height="23px"
xml:space="preserve">
<g id="374" transform="matrix(1, 0, 0, 1, 0, 0)">
<path style="fill:#0B0B0B;fill-opacity:1" d="M15.55,11.8Q16.2 10.4 16.2 8.75Q16.2 5.8 14.1 3.7Q12 1.65 9.1 1.65Q6.15 1.65 4.05 3.7Q2 5.8 2 8.75Q2 10 2.4 11.1L0 10.95Q0.05 6.5 3.25 3.25Q6.55 0 11.15 0Q15.75 0 19.05 3.25Q22.35 6.55 22.35 11.15L22.3 12.15L15.55 11.8M14.6,13.2L22.1 13.6Q21.45 16.65 19.05 19Q15.75 22.3 11.15 22.3Q6.55 22.3 3.25 19Q0.45 16.2 0.1 12.4L3.1 12.6L4.05 13.75Q6.15 15.85 9.1 15.85Q12 15.85 14.1 13.75L14.6 13.2" />
<path style="fill:#1E1715;fill-opacity:1" d="M2.4,11.1Q2 10 2 8.75Q2 5.8 4.05 3.7Q6.15 1.65 9.1 1.65Q12 1.65 14.1 3.7Q16.2 5.8 16.2 8.75Q16.2 10.4 15.55 11.8L2.4 11.1M12.05,6.7Q12.05 5.5 11.2 4.6Q10.3 3.75 9.1 3.75Q7.9 3.75 7 4.6Q6.15 5.5 6.15 6.7Q6.15 7.9 7 8.8Q7.9 9.65 9.1 9.65Q10.3 9.65 11.2 8.8Q12.05 7.9 12.05 6.7M14.1,13.75Q12 15.85 9.1 15.85Q6.15 15.85 4.05 13.75L3.1 12.6L14.6 13.2L14.1 13.75" />
<path style="fill:#5F4D48;fill-opacity:1" d="M11.2,8.8Q10.3 9.65 9.1 9.65Q7.9 9.65 7 8.8Q6.15 7.9 6.15 6.7Q6.15 5.5 7 4.6Q7.9 3.75 9.1 3.75Q10.3 3.75 11.2 4.6Q12.05 5.5 12.05 6.7Q12.05 7.9 11.2 8.8" />
<path style="fill:#BD8051;fill-opacity:1" d="M15.55,11.8L22.3 12.15L22.1 13.6L14.6 13.2L3.1 12.6L0.1 12.4L0 11.15L0 10.95L2.4 11.1L15.55 11.8" />
</g>
</svg>
