<?xml version="1.0" encoding="utf-8"?>
<svg version="1.1" id="Layer_1"
xmlns="http://www.w3.org/2000/svg"
xmlns:xlink="http://www.w3.org/1999/xlink"
width="37px" height="36px"
xml:space="preserve">
<g id="1583" transform="matrix(1, 0, 0, 1, -5.5, -8.35)">
<path style="fill:#FF0100;fill-opacity:1" d="M41.3,14.7Q40.25 14.85 39.6 15.4Q39.95 14.3 41.5 14.25Q42 14.25 42.3 13.95L39.1 13.95Q38.9 13.95 39 13.7L42.2 13.55Q43.1 14.45 41.3 14.7M34.2,10.95L34.2 11Q33.3 10.7 33.1 9.95Q33.75 10.25 34.2 10.95M28.4,9.8Q28.25 10.55 28.65 11.15L28.3 10.85L27.95 10.3Q27.85 9.15 28.65 8.35L28.4 9.8M27.7,24.15Q27.95 24.4 28.3 24.45Q29.35 24.75 30.15 25.35Q29.7 24.6 30.7 23.7L33.4 21.35Q32.9 22.65 31.35 23.6Q30.05 24.3 30.4 25.55L31.15 26.35L31.15 26.5Q29.25 25.1 27 24.1L26.55 23.65L25.75 21.95L25.8 21.95L27.7 24.15M29.85,13.95Q29.95 12.7 29.2 11.7Q30.7 12.75 29.85 13.95M13.9,19Q14.65 17.55 13.45 16.65L13.5 16.5Q15.15 17.55 13.9 19M11.15,34.8Q13.35 33.5 15.55 35.1Q16.05 35.45 16.65 35.4Q18.35 35.25 18.9 33.9Q19.15 33.4 18.85 32.85Q18.1 31.35 18.7 29.9Q18.7 32.05 19.3 34.1L19.05 34.75Q16.4 36.55 13.75 34.85L12.4 34.65L11.15 34.8M6.3,30.65Q7.9 31.65 6.35 32.55Q7.25 31.5 6.25 30.65L6.3 30.65M5.55,25.95Q5.4 25.85 5.6 25.85Q7.85 26 7.45 27.85Q7.3 28.4 6.75 28.6Q5.55 29.1 6.05 30.1Q4.9 29.1 6.6 28.2Q7.9 27.5 6.8 26.7L5.55 25.95M36,32.8Q35.2 33.5 35.2 34.6Q34.8 32.95 36.6 31.7L36.9 31.1L36.85 28.05Q38.2 30.8 36 32.8M27.95,35.8L27.95 35.85Q27 34.85 27.3 33.65L27.95 35.8M23.65,42.75Q22.25 42.9 21.15 43.95L20.95 43.95Q21.45 43.2 22.4 42.75L23.1 42.5Q23.45 42.45 23.65 42.75" />
</g>
</svg>
