<?xml version="1.0" encoding="utf-8"?>
<svg version="1.1" id="Layer_1"
xmlns="http://www.w3.org/2000/svg"
xmlns:xlink="http://www.w3.org/1999/xlink"
width="38px" height="43px"
xml:space="preserve">
<g id="1577" transform="matrix(1, 0, 0, 1, -5.65, -1.1)">
<path style="fill:#FF0100;fill-opacity:0.870588" d="M43.15,21.25L43 21.8Q42.95 23.45 41.1 22.9L39.6 22.75L39.35 22.7L42.55 22.3L42.6 22.1Q42.35 20.85 43.35 20.35L43.15 21.25M34.3,11.05L34.3 11.1Q32.6 10.1 32.45 7.85L32.55 7.8Q33 9.7 34.3 11.05M22.25,1.95Q23.65 2.35 23.15 3.25L23 3.7Q22.9 4.4 23.45 4.95Q22.35 4.65 22.75 3.55Q22.85 3.2 23.2 3Q22.25 1.8 20.6 1.4L20.55 1.35L20.65 1.1L20.7 1.1Q21.15 1.6 22.25 1.95M20.5,21.95Q19.1 23.95 16.65 23.75Q18.65 23.35 20.35 21.95L20.5 21.95M24.95,21.75L25 21.75Q24.25 22.05 23.8 21.5L23.85 21.4L24.95 21.75M29.85,18.35Q29.85 18.2 30 18.15Q30.25 19.55 32.1 19Q32.8 18.75 33.15 19.4Q33.75 20.45 33.5 21.7Q33.1 23.55 34.5 24.5Q33.05 24.45 33.2 22.65Q33.35 20.95 32.8 19.5Q32.7 19.25 32.4 19.3L30.15 18.9L29.85 18.35M13.4,8.3Q15.15 9 14.4 10.45Q14.55 9.2 13.45 8.4L13.4 8.3M10.05,6.2Q10.6 5.3 10.6 4.2Q11.1 6.65 8.8 7.4L8.2 7.55Q8.75 6.7 9.8 6.45L10.05 6.2M6.9,20.05L6.3 20.6L5.65 20.85Q6.6 20.15 6.95 19.1Q7.25 18.3 6.65 17.55L5.75 16Q8 17.75 6.9 20.05M12.35,16.55L12.3 16.55Q12.45 15.25 13.85 14.45L12.35 16.55M11.7,38.35L13.05 37.05L13.1 37Q13.05 38.05 11.7 38.35M16.8,35.1Q16.1 35.1 15.75 34.75Q17.05 34.7 18.15 34.1L18.8 33.65Q18.7 35.05 16.8 35.1M37.95,31.85L37.45 32.4L36.75 32.4Q37.85 32.05 37.45 31.3L36.9 29.8Q36.65 28.2 38.15 27.55L37.5 28.55Q36.8 29.25 37.35 30.05Q37.9 30.9 37.95 31.85M25.2,42.4Q24.8 42.5 24.45 42.8Q23.8 43.4 23.2 43.5Q24.4 41.85 26.45 41.55L26.5 41.55Q26.4 42.15 25.2 42.4M28.9,39.25Q27.8 38.85 27.5 37.75L27.55 37.75L28.9 39.25" />
</g>
</svg>
