<?xml version="1.0" encoding="utf-8"?>
<svg version="1.1" id="Layer_1"
xmlns="http://www.w3.org/2000/svg"
xmlns:xlink="http://www.w3.org/1999/xlink"
width="23px" height="32px"
xml:space="preserve">
<g id="1558" transform="matrix(1, 0, 0, 1, 3.9, 17.95)">
<path style="fill:#D6D6D6;fill-opacity:0.498039" d="M5.3,-10.5Q4.6 -9.55 2.5 -9.55L1.4 -8.9L0 -8.9L-0.7 -9.5L-1.15 -10.05L-2.7 -9.7L-3.65 -9.8L-3.7 -10.3L-3.5 -11L-3.3 -11.75L-3.6 -12.5L-3.9 -13.25Q-3.9 -14.75 -1.2 -16.5Q1.3 -18.15 2.2 -17.9Q4.2 -16.9 5.7 -12.3Q5.7 -11.05 5.3 -10.5M8.7,-6.35Q10.7 -6 11.25 -5.2L11.5 -3.85Q11.5 -2.2 9.4 -0.55Q7.55 0.9 6.4 0.9Q5.3 0.9 4.85 0Q4.55 -0.65 4.7 -1.05L3.25 -1.05L1 -0.9Q0.7 -1 0.65 -1.05Q0.5 -1.15 0.5 -1.5L1.7 -3.2Q2.9 -4.85 2.9 -6.6Q4.55 -8.65 5.9 -8.65Q7.35 -8.7 8.7 -6.35M18.7,4.35L18.9 5.3L18.45 7.05Q17.85 8.2 16.8 8.35Q17.25 9.55 16.75 11.2Q16 13.7 12.9 13.7L11.5 13.4L11.1 13.1L10.35 13.5Q9.7 13.9 9.1 13.9Q7.35 13.9 6.6 12.45Q6.2 10.95 5.9 10.8Q2.5 11 2.5 9.4Q2.5 8.9 2.9 8.75L5.85 8.2L5.7 5.85Q5.7 4.8 6.3 4Q7.15 2.9 9 2.9Q9.8 2.9 10.65 3.25L11.55 3.6L12.9 2.85L16.9 3L18.7 4.35" />
</g>
</svg>
