<?xml version="1.0" encoding="utf-8"?>
<svg version="1.1" id="Layer_1"
xmlns="http://www.w3.org/2000/svg"
xmlns:xlink="http://www.w3.org/1999/xlink"
width="18px" height="23px"
xml:space="preserve">
<g id="764" transform="matrix(1, 0, 0, 1, 12.95, 1.45)">
<path style="fill:#000000;fill-opacity:1" d="M-11.15,-1.1L-11.1 -1.05Q-11.15 -0.55 -11.45 -0.2L-12.6 -0.15Q-13.55 -1.45 -11.8 -1.45L-11.5 -1.35L-11.15 -1.1M-6.35,-0.4L-6.15 -0.25L-6.1 -0.15Q-5.2 3.1 -8.4 2.9L-8.35 3.05L-9.1 2.95L-9.65 2.45L-9.65 2.15L-9.75 1.45L-9.7 0.95L-9.65 0.9Q-9.25 -0.35 -7 -0.8L-7 -0.75L-6.9 -0.75L-6.55 -0.65L-6.45 -0.5L-6.35 -0.4M-1.55,2.4Q-1.3 2.2 -1 2.15L-1 2.1L-0.85 2.1L-0.75 2.1L-0.7 2.1L-0.8 2.15L-0.7 2.25L-0.7 2.2L-0.6 2.25L-0.45 2.5L-0.4 2.5L-0.25 2.6L-0.25 2.65L-0.05 2.8L0.6 3.5L0.5 3.5L0.1 3.3L0.15 3.55L0.05 3.5L-0.3 3.2L-0.2 3.3L1.6 4.9Q2.5 5.6 2.9 6.6L2.7 6.8L2.35 6.9L2.15 7L1.8 6.7L-0.35 4.9L-2.35 3.1L-2.25 3L-1.55 2.4M-6.2,10.85L-6.45 11.75L-6.9 12.8L-7 13.3Q-9.55 14.5 -11.9 13.3L-11.9 13.1L-11.1 9.9Q-10.75 7.95 -8.8 7.65L-5.5 8.15Q-3.9 8.55 -4 10.25Q-4.55 10.75 -5.2 10.65L-6.2 10.85M-2.65,10.7L-0.1 11.4Q0.7 11.7 1.2 12.1L1.05 12.35Q-0.3 12.95 -1.75 13.05Q-1 13.25 -0.45 14.05L0.45 15.65L-1.05 15.9L-1.25 15.7L-2.35 14.3Q-2.8 13.75 -2.85 13.05L-5.45 12.4L-5.4 12.2L-4.15 11.25Q-3.4 10.9 -2.65 10.7M-11,18.5L-11 17.75L-10.85 17L-10.8 16.7L-10.75 16.35L-10.8 16L-10.6 16.1Q-9.65 15.25 -8.45 15.1L-7.05 15L-3.5 14.85L-3.45 14.8L-3.4 14.75L-3.05 14.7L-3 14.75L-2.9 14.9L-2.85 14.85L-2.8 14.95L-2.8 15L-2.75 15.3L-2.8 15.35L-2.9 15.45L-2.9 15.9L-3 16.8L-5 17.4L-4.6 17.55Q-3.6 18 -2.85 18.55L-2.65 18.45L-2.35 18.6L-2.25 18.85L-0.75 19.25Q-0.05 18.8 0.85 18.65Q2.45 18.45 3.5 17.55L3.95 17.5L4.35 18.35L4.55 19.15L4.75 19.85L4.7 20.65Q1.35 21.5 -1.9 20.75Q-4.65 21.25 -7.45 20.75L-7.35 20.6L-7 19.65L-9.15 19.7L-11.15 19.75L-11 18.5" />
</g>
</svg>
