<?xml version="1.0" encoding="utf-8"?>
<svg version="1.1" id="Layer_1"
xmlns="http://www.w3.org/2000/svg"
xmlns:xlink="http://www.w3.org/1999/xlink"
width="19px" height="26px"
xml:space="preserve">
<g id="668" transform="matrix(1, 0, 0, 1, -9.65, 3.1)">
<path style="fill:#000000;fill-opacity:0.498039" d="M22.2,19Q24.15 19.55 24.15 20.3Q24.15 21.05 22.2 21.6L17.5 22.15L12.75 21.6Q10.8 21.05 10.8 20.3Q10.8 19.55 12.75 19Q14.75 18.45 17.5 18.45L22.2 19" />
<path style="fill:#000000;fill-opacity:1" d="M24.15,-2.9L24.35 -2.55L22.85 -0.55L20.6 2.35L20.45 2.6L20.8 3.1Q20.9 4.1 21.9 4.75L23 5.35Q23.05 4.4 23.55 3.75Q24.35 2.6 26.1 2.6Q27.3 2.6 27.7 3.55L27.85 4.9Q27.85 6.15 26.1 7L25.85 7Q26.5 8.4 27.2 11.65L27.15 11.3Q27.45 11.25 27.45 12.1L27.4 13.05Q27.2 13.65 26.5 13.65Q25.45 13.65 25.15 12.5L24.85 10.95L24.3 9.05Q22.05 9.65 21.45 10.2Q20.6 10.8 20.5 11.85L20.5 11.9L20.45 12.1L20.45 12.3L20.4 12.35L20.15 12.9L20.15 15.5L20.6 19.25Q20.8 19.8 19.9 19.8Q19 19.8 18.15 19.15Q17.25 18.45 17.35 16.7L17.15 13.35L17.15 12.4L17.2 12.4L17.2 12.2Q15.65 13.6 14.9 14.7L14.1 16.4L13.85 17.3Q13.6 17.9 12.9 18L12.45 18Q11.3 19.05 11 19.05L10.25 18.85L9.65 18.35Q9.65 17.45 10.7 16.45Q11.9 15.4 12.05 14.75Q12.55 12.2 13.75 10.95L14.8 10.3L15.6 10L14.05 8.45L15.7 6.2L16.95 5.2L17.85 4.75L18.8 3.4L18.25 2.65Q16.9 1.55 16.9 1.25Q16.9 0.35 17.65 0.35Q18.2 0.35 18.85 1L18.8 1.1L19.85 1.85L19.95 1.65Q23.2 -3.1 23.7 -3.1L24.15 -2.9M18.65,6.15L18.7 6.25L17.55 7.7L15.8 9.9L16.1 9.7L17.5 8L20.15 4.9L19.7 4.6L18.6 6.15L18.65 6.15M19.3,4.25L18.4 5.65L19.35 4.3L19.3 4.25" />
</g>
</svg>
