<?xml version="1.0" encoding="utf-8"?>
<svg version="1.1" id="Layer_1"
xmlns="http://www.w3.org/2000/svg"
xmlns:xlink="http://www.w3.org/1999/xlink"
width="8px" height="5px"
xml:space="preserve">
<g id="656" transform="matrix(1, 0, 0, 1, 4.15, 12.25)">
<path style="fill:#000000;fill-opacity:1" d="M3.05,-9.45Q3.8 -9.25 3.85 -8.9L3.75 -8.35Q3.5 -7.6 3.1 -7.75L1.5 -8.3L1.4 -8.45L-0.8 -9.25L-0.9 -9.4L-2.1 -9.85L-2.2 -10.05L-2.75 -10.2L-3.15 -10.35L-3.9 -10.85L-4.15 -11.15L-3.8 -12.25L-3.5 -12.15L-3.3 -11.95L-1.75 -11.2L-0.7 -11.05L-0.6 -10.9L0.85 -10.5L1.7 -10.15L2.3 -9.9L2.45 -9.75L2.95 -9.6L3.05 -9.45M1.65,-9.75L1.3 -9.85L1.2 -10L-0.85 -10.6L-0.95 -10.75L-1.6 -10.85L-1.7 -10.9L-1.8 -10.55L-1.9 -10.25L-1.55 -10.1L-1.55 -10.05L-0.7 -9.75L-0.55 -9.6L1 -9.1L1.05 -9L1.6 -8.8L1.7 -8.65L3.2 -8.2L3.4 -8.5L3.45 -8.7Q3.3 -8.9 2.75 -9.1L2.7 -9.25L2.15 -9.4L2.05 -9.55Q1.65 -9.7 1.65 -9.75M-2.15,-10.8L-2.3 -11.05Q-2.95 -11.15 -3.55 -11.7L-3.55 -11.25L-3.35 -10.85L-2.9 -10.65L-2.25 -10.5L-2.15 -10.8" />
<path style="fill:#191919;fill-opacity:1" d="M2.05,-9.55L2.15 -9.4L2.7 -9.25L2.75 -9.1Q3.3 -8.9 3.45 -8.7L3.4 -8.5L3.2 -8.2L1.7 -8.65L1.6 -8.8L1.05 -9L1 -9.1L-0.55 -9.6L-0.7 -9.75L-1.55 -10.05L-1.55 -10.1L-1.9 -10.25L-1.8 -10.55L-1.7 -10.9L-1.6 -10.85L-0.95 -10.75L-0.85 -10.6L1.2 -10L1.3 -9.85L1.65 -9.75Q1.65 -9.7 2.05 -9.55M-2.25,-10.5L-2.9 -10.65L-3.35 -10.85L-3.55 -11.25L-3.55 -11.7Q-2.95 -11.15 -2.3 -11.05L-2.15 -10.8L-2.25 -10.5" />
</g>
</svg>
