<?xml version="1.0" encoding="utf-8"?>
<svg version="1.1" id="Layer_1"
xmlns="http://www.w3.org/2000/svg"
xmlns:xlink="http://www.w3.org/1999/xlink"
width="21px" height="19px"
xml:space="preserve">
<g id="134" transform="matrix(1, 0, 0, 1, 10.25, 9.5)">
<path style="fill:#B69789;fill-opacity:0.4" d="M3.15,4.6Q0.65 4.4 -1.4 1.55L-3.2 -0.75Q3 -3.25 5.7 -1.65Q8.6 0.25 10.25 3.7Q6.8 4.95 3.15 4.6M-8.7,-4.35Q-4.6 -9.65 -1.35 -9.5Q2.15 -9.4 5.15 -7.2Q2.75 -4.4 -0.5 -2.75Q-2.7 -1.75 -5.95 -3.1Q-7.45 -3.5 -8.7 -4.35M-10.25,0.1Q-6.5 -0.25 -3.6 1.35Q-0.6 2.85 0.25 9.4L-2.75 9.2Q-6.1 8.85 -7.55 6.7Q-9.65 3.6 -10.25 0.1" />
</g>
</svg>
