<?xml version="1.0" encoding="utf-8"?>
<svg version="1.1" id="Layer_1"
xmlns="http://www.w3.org/2000/svg"
xmlns:xlink="http://www.w3.org/1999/xlink"
width="30px" height="4px"
xml:space="preserve">
<g id="732" transform="matrix(1, 0, 0, 1, 22.1, -18.5)">
<path style="fill:#000000;fill-opacity:0.498039" d="M7.8,21.15Q7.8 21.6 4.75 21.9L-2.75 22.2L-10.15 21.9L-13.15 21.35L-13.4 21.45L-15.4 21.8L-16.9 21.65L-17.4 21.45Q-18.1 21.15 -18.2 20.75L-18.2 20.6Q-18.2 20.1 -17.4 19.75L-15.4 19.35Q-14.2 19.35 -13.4 19.75L-13 20L-13 19.9L-13 19.75Q-13 19.25 -12.35 18.9L-10.75 18.5Q-9.8 18.5 -9.15 18.9L-8.75 19.2Q-8.45 19.45 -8.45 19.75L-8.55 20.15L-8.7 20.3L-2.75 20.1L4.75 20.45Q7.8 20.75 7.8 21.15M-19.35,19.9L-19.4 20.1L-19.8 20.35L-20.75 20.55L-21.45 20.45L-21.7 20.35L-22.1 20L-22.1 19.9L-21.7 19.4L-20.75 19.2L-19.8 19.4L-19.55 19.6L-19.35 19.9M-12.5,20.5L-12.5 20.6L-12.55 20.8L-12.15 20.7L-12.35 20.6L-12.5 20.5" />
</g>
</svg>
