<?xml version="1.0" encoding="utf-8"?>
<svg version="1.1" id="Layer_1"
xmlns="http://www.w3.org/2000/svg"
xmlns:xlink="http://www.w3.org/1999/xlink"
width="13px" height="8px"
xml:space="preserve">
<g id="693" transform="matrix(1, 0, 0, 1, 31.1, 0.25)">
<path style="fill:#7E0000;fill-opacity:1" d="M-20.05,-0.25Q-18.85 -0.2 -18.8 0.4L-18.75 0.45L-18.75 0.5L-18.8 0.55L-18.9 0.9Q-19.15 1.4 -19.75 1.15Q-20.5 0.9 -20.6 0.2L-20.55 0.15L-20.35 -0.1L-20.05 -0.25M-29.1,2.6Q-28.85 2.65 -28.6 2.85L-28.5 2.95L-28.5 3L-28.5 3.1L-28.55 3.2L-28.55 3.3L-28.6 3.35L-28.65 3.4L-29 3.45Q-29.35 3.5 -29.2 3.75L-29.55 3.9L-30.85 3.5L-31.1 3.3L-31 3.15L-30.35 2.7L-29.7 2.55L-29.7 2.5L-29.1 2.6M-30.9,7.1Q-31.2 7.1 -30.95 6.9L-30.9 6.9Q-30.55 7.05 -30.9 7.1" />
</g>
</svg>
