<?xml version="1.0" encoding="utf-8"?>
<svg version="1.1" id="Layer_1"
xmlns="http://www.w3.org/2000/svg"
xmlns:xlink="http://www.w3.org/1999/xlink"
width="25px" height="9px"
xml:space="preserve">
<g id="899" transform="matrix(1, 0, 0, 1, 3.6, -9.95)">
<path style="fill:#000000;fill-opacity:1" d="M20.55,15.4L21.25 16.2L21.3 16.95Q20.45 18.05 19.15 18.05Q16.3 18 13.65 17.1L13.85 15.75Q12.85 15.1 10.65 15.45Q9.55 15.6 8.6 15.05L5.35 15.8Q3.7 16.4 2.1 15.4L0.45 14.25L-0.45 14.15L-1.7 15.4L-3.6 14.85Q-3.7 13.7 -3 12.6L-2.45 11.6Q-1.25 10.3 0.45 10.3L1.05 10.9L4.3 11L7.05 11.6L8.9 11.85L9.5 10.95Q12.2 9.6 15.1 10.9L15.75 11.75L17.3 10.1Q19.5 9.5 20.65 11.4Q21.85 13.5 19.9 14.65Q18.45 15.6 17.05 14.45L16.7 15.85L18.65 16Q19.35 15.05 20.45 15.35L20.55 15.4" />
</g>
</svg>
