<?xml version="1.0" encoding="utf-8"?>
<svg version="1.1" id="Layer_1"
xmlns="http://www.w3.org/2000/svg"
xmlns:xlink="http://www.w3.org/1999/xlink"
width="41px" height="19px"
xml:space="preserve">
<g id="579" transform="matrix(1, 0, 0, 1, 10.35, -8.35)">
<path style="fill:#000000;fill-opacity:1" d="M26.6,18.5L26.95 18.3L27.1 18.1L27.25 18Q29.6 18.65 29.7 21.2Q29.75 22.5 29.1 23.2L29.25 23.3L30.05 23.7L30.5 24.1L30.4 24.3L30.05 24.5L29.6 24.85L29.45 25.05L28.4 24.1L28 23.8L27.15 23.95L26.9 23.9Q25.9 23.95 25.2 23.3Q24.6 22.75 23.85 23Q23.6 24.3 22.55 25.1Q21.25 26.1 19.8 26.4L18.7 26.85L15.85 26.75L15.5 26.05Q15.4 25.6 15.6 25.2Q16.1 24.4 16.95 24L17.55 24.05L17.75 24.15L18.85 23.95L19.5 23.6L20.3 22.95L14.2 24.05L10.7 23.95L10.55 23.7L10.45 23.25L10.45 22.9L10.7 22.35L10.8 21.9L10.85 21.85L11.4 21.75L11.6 21.7L11.35 21.55L11.1 21.35L11 21.2L10.95 21.15Q11.35 20.2 12.4 19.75L15.6 18.55L17.5 18.15Q20.95 19.55 24.3 19.55L25.05 19.35Q25.85 18.95 26.55 18.9L26.55 18.8L26.55 18.65L26.55 18.55L26.6 18.5M0.55,24.4L0.5 24.25L0.5 24.2L0.5 24.1Q-2.15 23.3 -5 24L-5.35 24.1Q-5.2 25.5 -6.8 25.75Q-8.7 26 -9.85 25L-9.9 24.95L-10 24.9L-10.1 24.8L-10.05 24.8L-10.1 24.65L-10.15 24.75L-10.2 24.65Q-10.5 24.35 -10.1 24Q-9.6 23.6 -8.95 23.45Q-9 22.1 -7.7 21.75Q-4.2 20.9 -1 19.55L-0.55 19.65L-0.45 19.45L3.5 20.7Q5.45 21.3 5.85 22.75Q7.1 23.9 4.8 24.6L0.6 24.5L0.55 24.4M20.95,25.95L19.8 26.4L20.35 26.2L20.95 25.95" />
<path style="fill:#7E0000;fill-opacity:1" d="M10,16.6Q10 16.45 10.15 16.45L10.25 16.45L10.35 16.5L10.45 16.55L10.55 16.65L10.65 17.2L10.4 17.9L10.25 18L10 17.75L9.85 17.25L9.8 17.15L9.85 16.95L10 16.6M2.9,14.65L3 14.95L3 15Q2.75 15.3 2.95 15.75L2.9 16.5L2.75 16.65L2.5 16.6L2.3 16.4L2.25 15.7L2.25 15.05L2.3 14.7L2.35 14.65L2.5 14.5L2.65 14.45L2.9 14.65M-3.15,8.35L-3 8.35L-2.9 8.4Q-2.65 8.6 -2.75 8.9L-2.8 9.65L-2.95 9.85L-3.5 9.3Q-3.6 8.85 -3.35 8.45L-3.25 8.35L-3.15 8.35" />
</g>
</svg>
