<?xml version="1.0" encoding="utf-8"?>
<svg version="1.1" id="Layer_1"
xmlns="http://www.w3.org/2000/svg"
xmlns:xlink="http://www.w3.org/1999/xlink"
width="15px" height="12px"
xml:space="preserve">
<g id="549" transform="matrix(1, 0, 0, 1, 1.55, 15.15)">
<path style="fill:#000000;fill-opacity:1" d="M0.9,-13.5L1.5 -13.9L1.85 -14.1Q2.3 -14.35 2.6 -13.8L2.95 -13.25L3.1 -13.3L3.7 -13.1L3.95 -12.95L4 -13L3.15 -13.75L3.9 -15.15L6.85 -13.3L6.35 -12.1L6.85 -11.05L6.4 -10.45L7.25 -9.2L7.15 -9.1L7.25 -9L7 -8.75L7.55 -7.75L7.55 -7.7Q8.05 -7.75 8.25 -7.9L10.25 -7.7L11.15 -7.45L11.85 -7.15L12.55 -6.45Q12.55 -5.65 11.65 -4.9Q10.65 -4.15 8.9 -3.85L7.4 -3.85L6.85 -3.9Q5.15 -4.45 4.9 -5.3L4.8 -5.3Q4.6 -5.3 4.25 -5.65L3.9 -6.05L3.6 -6Q3 -6 1.95 -7.4L1.55 -7.35L1.35 -7.35L0.35 -8.6L0.35 -8.65L0.2 -8.6L-0.7 -8.8L-1.15 -9.05L-1.35 -8.95L-1.55 -9L-1.55 -9.95L-1.3 -12.3L-0.9 -12.3L0.4 -12.45L0.55 -12L0.6 -12.05L0.7 -11.7L0.55 -11.6L0.4 -10.55L0.5 -10.65L0.9 -10.85L0.8 -11.55L1.05 -11.8L0.3 -12.85L0.9 -13.5" />
</g>
</svg>
