<?xml version="1.0" encoding="utf-8"?>
<svg version="1.1" id="Layer_1"
xmlns="http://www.w3.org/2000/svg"
xmlns:xlink="http://www.w3.org/1999/xlink"
width="360px" height="35px"
xml:space="preserve">
<g id="1353" transform="matrix(1, 0, 0, 1, -62.65, -16.05)">
<path style="fill:#8B292A;fill-opacity:1" d="M420.05,47.6L421.75 48.4L421.75 50.85L420.65 50.45L412.15 47.85L411.3 47.6L405.4 45.95Q396.95 43.65 387.15 41.45Q378.05 39.35 367.75 37.3Q301.7 23.9 241.65 23.9Q181.6 23.9 116.1 37.5L94.2 42.35L90.2 43.3L79.75 45.95L73.75 47.6L62.65 50.95L62.65 49.4L66.45 47.6L70.2 45.95Q78.8 42.25 90.2 38.6L94.2 37.3L109.95 32.7Q171.1 16.05 241.65 16.05Q312.1 16.05 374 32.3L387.15 35.95Q401.5 40.1 412.15 44.3L416.3 45.95L420.05 47.6" />
</g>
</svg>
