<?xml version="1.0" encoding="utf-8"?>
<svg version="1.1" id="Layer_1"
xmlns="http://www.w3.org/2000/svg"
xmlns:xlink="http://www.w3.org/1999/xlink"
width="26px" height="15px"
xml:space="preserve">
<g id="855" transform="matrix(1, 0, 0, 1, -57, 12.15)">
<path style="fill:#0E0E0E;fill-opacity:1" d="M60.55,-0.05Q60.55 1.35 58.9 1.35Q57.85 1.35 57.35 0.9Q57 0.6 57 0.3Q57 -0.85 58.8 -1.55Q60.55 -2.25 60.55 -0.05M68.35,-6.35Q68.35 -8.7 71.4 -8.05Q74.45 -7.45 74.45 -4.95Q74.45 -4.2 73.45 -3.4Q72.4 -2.55 71.2 -2.55L69.2 -2.65L69 -2.75L68.6 -2.6L66.55 -2.6L66.45 -2.45Q66.05 -1.9 65.4 -1.9Q63.15 -1.9 62.4 -2.6L62.1 -3.35Q62.1 -4.35 62.8 -4.95L64.95 -4.75L66.4 -6.4L68.35 -6.25L68.35 -6.35M77.45,-9.45Q77.05 -9.95 77.05 -10.55Q77.05 -12.5 79.95 -12.1Q82.8 -11.7 82.8 -10Q82.8 -8.45 80.1 -8.45Q78.2 -8.45 77.45 -9.45M79.05,-6Q79.05 -7.2 80.55 -6.95Q82 -6.65 82 -5.65L81.55 -4.85Q81.1 -4.45 80.6 -4.45Q79.05 -4.45 79.05 -6M80.35,-0.4Q80.35 0.65 79.05 0.65Q77.95 0.65 77.55 0.15Q77.35 0 77.2 -0.6Q79 -1.4 79.65 -1.35Q80.35 -1.35 80.35 -0.4M74,2.4Q72.65 2.4 72.25 1.7L71.95 0.7L71.8 1L71.45 1.05Q71.2 0.8 71.2 0.35Q71.2 -0.95 73.7 -0.95Q76.2 -1 76.2 0.75Q76.2 1.3 75.8 1.75Q75.2 2.4 74 2.4" />
</g>
</svg>
