<?xml version="1.0" encoding="utf-8"?>
<svg version="1.1" id="Layer_1"
xmlns="http://www.w3.org/2000/svg"
xmlns:xlink="http://www.w3.org/1999/xlink"
width="11px" height="12px"
xml:space="preserve">
<g id="641" transform="matrix(1, 0, 0, 1, 11.05, 0)">
<path style="fill:#000000;fill-opacity:1" d="M-4.25,0.6L-4.1 3.45Q-3.65 6.1 -1.2 7.25Q-0.55 7.55 -0.25 8.2Q-0.45 9 -1 9.6Q-2 10.7 -3.25 11.2Q-4.1 11.5 -4.75 10.95L-4.85 10.55L-4.85 10.45Q-4.9 9.85 -4.45 9.4L-3.9 8.75Q-5.7 7.45 -6.65 5.45L-7.2 3.9L-7.3 3.95L-8.2 4.5L-8.2 4.6L-8.4 4.8L-8.6 5.15L-7.8 6.6L-7.25 7.8Q-6.95 8.3 -7.1 8.85L-8.6 9.95L-10.8 10.05L-10.75 9.3L-10.15 8.6L-9.7 8.2Q-10.8 6.75 -11 5Q-11.35 2.6 -9 1.4L-8.45 1.2L-8.25 1L-7.5 0.5L-7.45 0.3L-6.7 0L-6.65 0.1L-6.6 0L-6.05 0.2L-4.7 0.4L-4.25 0.6" />
</g>
</svg>
