<?xml version="1.0" encoding="utf-8"?>
<svg version="1.1" id="Layer_1"
xmlns="http://www.w3.org/2000/svg"
xmlns:xlink="http://www.w3.org/1999/xlink"
width="21px" height="11px"
xml:space="preserve">
<g id="981" transform="matrix(1, 0, 0, 1, 4.3, 9.75)">
<path style="fill:#000000;fill-opacity:0.85098" d="M8.1,-9.75L8.4 -9.7L8.6 -9.65L8.75 -9.5L8.85 -9.25L8.85 -9.1L8.95 -9L9.05 -8.95L9.1 -8.9L9.2 -8.8L9 -8.4Q8.5 -7.95 7.85 -8.1L6.8 -8.45L6.65 -8.65L6.7 -8.8L6.95 -9.15L7.4 -9.45L8.05 -9.7L8.1 -9.75M1.1,-0.5L1.2 -0.45L1.25 -0.4L1.3 -0.35L1.35 -0.3L1.7 -0.4L2.35 -0.4L2.45 -0.4L2.5 -0.35L2.55 -0.3L2.7 -0.15L2.75 -0.05L2.8 0L2.75 0.3L2.7 0.4L2.65 0.55L2.6 0.6L2.5 0.75L2.4 1L2.25 1.15L1.65 1.1L1.4 1L1.35 1L0.35 0.8L0.35 0.45L0.35 0.25L0.4 0.2L0.55 -0.05L0.9 -0.4L1.1 -0.5M8.15,-3.6L8.2 -3.45L8.2 -3.4L8.15 -3.1L7.85 -2.75L7.15 -2.7L7.1 -2.75L7 -2.85L6.95 -2.85L6.85 -2.9L6.7 -2.9L5.9 -2.9L5.8 -2.9L5.75 -2.95L5.65 -3L5.6 -3.1L5.6 -3.2L5.7 -3.3L5.7 -3.35L5.8 -3.6L6 -3.85L6.4 -4.1L6.9 -4.05L6.95 -4.05L7.55 -3.95L8 -3.85L8.15 -3.65L8.15 -3.6M5.3,-0.15L5.55 -0.1L5.65 -0.1L5.7 -0.05L5.75 0.1L5.75 0.25L5.75 0.4L5.75 0.45L5.65 0.55L5.55 0.65L5.35 0.8L4.65 0.65L4.6 0.55L4.6 0.5L4.65 0.3L4.85 0L5.1 -0.15L5.2 -0.2L5.3 -0.15M15.6,-9.35L15.8 -9.2L15.9 -9.15L15.9 -9.1L15.95 -9.05L15.95 -8.95L15.95 -8.7L15.9 -8.65L15.6 -8.4L15 -8.3L14 -8.5L13.95 -8.55L13.85 -8.6L13.8 -8.65L13.75 -8.7L13.75 -8.8L13.75 -9L13.9 -9.2L14.2 -9.4L14.5 -9.5L14.9 -9.65L15.15 -9.6L15.4 -9.5L15.6 -9.35M-3.9,-6.3L-3.8 -6.3L-3.55 -6.3L-3.45 -6.3L-3.15 -6.35L-3.05 -6.4L-2.65 -6.35L-2.25 -6.3L-1.9 -6.2L-1.6 -6L-1.55 -5.9L-1.55 -5.75L-1.55 -5.65L-1.6 -5.6L-1.6 -5.5L-2.25 -5.15L-2.95 -4.95Q-3.65 -4.7 -4.15 -5.15L-4.3 -5.35L-4.3 -5.4L-4.3 -5.5L-4.3 -5.55L-4.3 -5.7L-4.3 -5.9L-4.3 -6L-4.25 -6.05L-4.2 -6.1L-4.1 -6.15L-4.05 -6.2L-3.9 -6.3" />
</g>
</svg>
