<?xml version="1.0" encoding="utf-8"?>
<svg version="1.1" id="Layer_1"
xmlns="http://www.w3.org/2000/svg"
xmlns:xlink="http://www.w3.org/1999/xlink"
width="29px" height="18px"
xml:space="preserve">
<g id="939" transform="matrix(1, 0, 0, 1, -0.75, 2)">
<path style="fill:#AF8A80;fill-opacity:1" d="M14.4,5.45L14.6 5.9L14.4 6.3L14 6.5L13.55 6.3Q13.4 6.15 13.4 5.9L13.55 5.45L14 5.3Q14.25 5.3 14.4 5.45M10.25,8.1Q6.75 4.1 3.25 2L2.7 1.2L3.25 0.5L4.85 1.35L4.9 2L4.95 2.05L8 4.9L10.6 4.8L11.2 5.1L8.55 5.55L10.75 7.75Q11.35 7.45 11.9 7.1L16.35 9.35L18.05 10.2L17.65 10.7L12 7.85L11.15 8.2L9.8 10.4L9.2 10L9.4 9.4L10.25 8.1M14.9,6.55Q15.05 6.4 15.3 6.4L15.7 6.55L15.85 6.95L15.7 7.35L15.3 7.5L14.9 7.35Q14.75 7.2 14.75 6.95Q14.75 6.7 14.9 6.55" />
<path style="fill:#0B0B0B;fill-opacity:1" d="M14,5.3L13.55 5.45L13.4 5.9Q13.4 6.15 13.55 6.3L14 6.5L14.4 6.3L14.6 5.9L14.4 5.45Q14.25 5.3 14 5.3M11.9,7.1Q11.35 7.45 10.75 7.75L8.55 5.55L11.2 5.1L11.75 5.35Q18 4.15 16.35 9.35L11.9 7.1M17.65,10.7L15.4 15.45L9.6 12.45L9.8 10.4L11.15 8.2L12 7.85L17.65 10.7M9.4,9.4L4.4 6.85L4.45 5.55L2.1 4.2L2.5 3.5L0.75 2.55L1.5 0.95L3.25 2Q6.75 4.1 10.25 8.1L9.4 9.4M4.95,2.05L10.6 4.8L8 4.9L4.95 2.05M14.75,6.95Q14.75 7.2 14.9 7.35L15.3 7.5L15.7 7.35L15.85 6.95L15.7 6.55L15.3 6.4Q15.05 6.4 14.9 6.55Q14.75 6.7 14.75 6.95" />
<path style="fill:#000000;fill-opacity:0.901961" d="M21.25,-0.35L20.65 -0.8Q20.75 -1.15 20.95 -1.1L21.4 -0.95Q21.65 -0.95 21.85 -1.5Q22.35 -1.9 23.75 -1.5L25 -1.15L25.2 -0.85Q25.2 -0.2 23.4 -0.05Q24.2 0.15 24.75 1.05Q24.8 0.7 25.5 0.45L27.25 0.2L28.1 0.4L28.25 0.8L29.15 0.65L29.2 0.85L27.95 1.4L26.15 1.8L25.8 1.7L26 1.55L24.9 1.25L25.25 2.1Q25.2 3.1 24.75 3.35Q25.15 3.45 25.15 3.85L24.9 4.35L24.9 4.45L27.05 5.25Q28.35 5.75 28.35 6.25Q28.35 6.85 26.75 6.85Q26.45 6.85 25.9 6.35L25.3 5.85L24.4 6.1Q23.9 6.1 23.8 5.8Q23.7 5.5 23.9 5.45L23.9 5.3L23.15 5.3Q22.65 4.8 22.65 4.5L22.8 3.8L24.1 3.4L23.7 2.8L23.55 1.95L22.55 1.1L22.55 1.15Q22.55 1.5 21.1 2.05L21.15 2.3L21.85 2.25L22.5 2.3L22.2 2.85L21.6 3.15L21.45 3.1L21.35 2.9L22.15 2.6L22.25 2.5L21.75 2.5L20.55 2.8L20.5 2.65L21 2.25L21.05 2.2L20.05 2.55L19.4 2.9L19.2 2.75L19.25 2.55Q18.05 2.9 17.65 3.3L17.55 3.3L17.55 3.15Q17.55 2.85 19.85 1.95Q21.9 1.1 22.45 1L22.05 0.55Q22.05 0.1 22.4 -0.05L21.25 -0.35M27,-1L26.2 -0.8Q25.1 -0.8 25.1 -1.45Q25.1 -1.8 26.3 -1.95Q27.45 -2.15 27.45 -1.4L27 -1M21.75,4.3L22.3 4.45L22.7 4.85L22.15 5.15L21.7 5.25L21.45 5.2Q21.45 4.9 21.75 4.6L20.25 4.5Q20.55 4.2 21.45 4.1L21.45 4.05L20.55 3.9L19.5 4.1L19.3 4Q19.45 3.55 20.65 3.65Q21.7 3.8 21.95 4.05L21.75 4.3M19.75,2.25L19.7 2.35L19.95 2.2L19.75 2.25" />
</g>
</svg>
