<?xml version="1.0" encoding="utf-8"?>
<svg version="1.1" id="Layer_1"
xmlns="http://www.w3.org/2000/svg"
xmlns:xlink="http://www.w3.org/1999/xlink"
width="25px" height="18px"
xml:space="preserve">
<g id="1048" transform="matrix(1, 0, 0, 1, 12.2, 12.75)">
<path style="fill:#FFCC00;fill-opacity:1" d="M1.1,-3.35L1.25 -3.6L1.15 -3.7L1.1 -3.75L1.1 -3.8L1.1 -4.35L1.05 -4.9L1 -4.95L0.95 -5.15L0.95 -5.2L0.9 -5.65L0.8 -6.25L0.7 -6.1L0.7 -6L0.6 -5.7L0.7 -5.5L0.75 -4.8L0.75 -4.6L0.75 -4.5L0.75 -4.45L0.75 -4.2L0.75 -3.75L0.75 -3.65L0.85 -3.25L0.9 -3.15L1.05 -3.2L1 -3.15L0.8 -2.8Q0.5 -3.8 0.55 -4.85L0.55 -6.8L0.65 -7.05L1.05 -5.45L1.15 -3.85L1.15 -3.75L1.25 -3.65L1.3 -3.5L1.1 -3.25L1.1 -3.35M4.75,-5.35L4.35 -4.95Q3.85 -5.1 3.4 -5.35L2.3 -5.95L1.95 -6.05L1.9 -6.05L1.9 -6.15L1.9 -6.25L1.95 -6.35L1.95 -6.4L1.9 -6.5L1.75 -6.6L1.7 -6.65L1.65 -6.65L1.8 -6.95L2.3 -7.1L2.8 -7.25L2.9 -7.25L2.95 -7.2L3 -7.15L3 -7.1Q3.9 -7 4.7 -6.45L5 -6.1Q5.15 -5.75 4.75 -5.35M4,-6.75L2.85 -7.1L2.8 -7.1L2.1 -7L2.05 -6.9L2 -6.9L2 -6.8L1.9 -6.75L2.05 -6.65L2.1 -6.5L2.15 -6.45L2.1 -6.45L2.05 -6.35L2.15 -6.3L2.1 -6.3L2.1 -6.25L2.35 -6.2L2.9 -5.85Q3.45 -5.5 4 -5.3L4.3 -5.1Q4.5 -5.05 4.55 -5.2L4.6 -5.25L4.6 -5.45L4.8 -5.7L4.9 -5.85L5 -6.1L4 -6.75M3.25,-2.4L3.3 -2.35Q3.3 -2.2 3.45 -2.15L3.5 -2.1L4 -2L3.85 -1.9L3.6 -1.85Q3.25 -2.05 3.05 -2.3L3.15 -3L3 -3.4Q2.45 -4.05 2.65 -4.7Q4.2 -4.6 4.35 -3.25L4.3 -2.45L4.3 -2.75L4.1 -3.7Q3.7 -4.45 2.85 -4.6L2.75 -4.45Q2.7 -4.3 2.8 -4.1L3.25 -2.9L3.35 -2.55L3.3 -2.45L3.25 -2.4M0.15,-4.25L0.3 -3.4L0.3 -3.1L0.25 -3.4L0.25 -3.8L0.15 -3.8L0 -3.9L0 -3.95L-0.1 -4.2L-0.15 -4.35L-0.15 -4.4L-0.25 -4.45L-0.3 -4.45L-0.35 -4.5L-0.45 -5.6L-0.35 -4.7L-0.3 -4.65Q-0.05 -4.7 -0.05 -4.35L0.05 -3.95L0.05 -4.05L0.15 -4.2L0.15 -4.25M-1.75,-0.55L-1.75 -0.35L-1.6 -0.25Q-1.5 0 -1.2 -0.1L-0.4 0L0 -0.25L0.05 -0.2L0.05 -0.15L0.1 -0.1L0.2 -0.05Q0.6 0.2 0.95 -0.05L1.05 -0.05L1.4 -0.1L1.55 -0.2L1.65 -0.25L1.65 -0.3L1.75 -0.45L1.95 -0.55L2 -0.6L2 -0.65L2.1 -0.75Q2.3 -1.05 2.1 -1.4L2 -1.55L2.15 -1.4L2.25 -1.15L2.2 -0.65L2.2 -0.5L2.15 -0.45L2.05 -0.35L1.9 -0.25L1.55 0.05L0.45 0.2L-0.8 0.25L-0.85 0.2L-0.95 0.2L-1.05 0.15Q-1.95 0.15 -1.95 -0.7Q-1.95 -1.35 -1.3 -1.65L-0.55 -1.6L-0.4 -1.8L0.6 -2L0.65 -1.95L0.65 -2L0.7 -2.1L0.75 -2.2L0.8 -2.2L0.9 -2.25L1.1 -2.25L1.25 -2.1L1.3 -2.05L1.7 -1.95L1.9 -1.8L1.9 -1.65L1.75 -1.85L1.65 -1.9L1.3 -2.05L1 -2.15L0.95 -2.15L0.9 -2.1L0.8 -1.95L0.8 -1.9L0.05 -1.8L-0.45 -1.55L-1.1 -1.55L-1.7 -1.05L-1.75 -1L-1.75 -0.55M0.2,-2.45L-0.1 -2.8L-0.25 -3.25L-0.2 -3.35L0 -3.1L0.1 -2.95L0.25 -2.85L0.3 -2.85L0.2 -2.5L0.2 -2.45M4.6,-0.2L4.75 -0.15L4.85 -0.15L5 -0.15Q6 -0.2 6.9 -0.65L6.95 -0.7L6.9 -0.85Q6.85 -1.4 6.4 -1.8L6.7 -1.8L6.75 -1.75L7.05 -1.65L7 -1.6L7 -1.55L7.05 -1.5L7.1 -1.5L7.7 -1.6L7.9 -1.8L7.95 -1.85L7.9 -1.9L7.8 -1.95L7.85 -1.95L7.95 -1.95L8.25 -1.8L8.15 -1.7L7.8 -1.6L7.35 -1.35L7.15 -1.25L7.1 -1.3L7.05 -1.4L7 -1.45L7 -1.5Q6.8 -1.5 6.65 -1.65L6.55 -1.7L7.05 -1L7.2 -0.6Q6.3 0.05 5.1 0.1L4.25 -0.1L4.6 -0.55L5.6 -0.9L5.3 -1.55Q5.05 -1.9 5.05 -2.35Q5 -2.7 5.3 -2.85L5.65 -2.85L5.7 -2.8L6.25 -2.05L6.35 -1.9L6.35 -1.85L5.65 -2.7L5.6 -2.75L5.5 -2.75L5.2 -2.45Q5.1 -2 5.4 -1.6L5.75 -0.85L5.2 -0.7L4.6 -0.35L4.65 -0.25L4.6 -0.2M6.75,-2.05L6.5 -2L6.35 -1.9L6.35 -1.95L6.55 -2.05L6.65 -2.1L6.8 -2.1L6.75 -2.05M7.4,-2.05L7 -2.1L7.15 -2.15L7.4 -2.15L7.45 -2.15L7.5 -2L7.4 -2.05M9.6,-1.6L9.1 -1.4L8.65 -1.2L8.65 -1.1L8.7 -1.1L8.75 -1.05L8.7 -1.05L9.5 -0.9L9.65 -0.85L10.05 -0.6L10.4 -0.4L10.3 -0.35L10.2 -0.3L10.2 -0.2L10.1 -0.2L10.2 -0.15L10.3 -0.05L10.45 0L10.5 0L10.5 0.1L10.45 0.1L10.4 0.15L10.35 0.2L10.25 0.25L10.15 0.3L10.25 0.3L10.25 0.35L10.4 0.45L9.55 0.45L9.95 0.4L9.95 0.35L9.9 0.35L10 0.2L10.1 0.15L10.2 0.05L10.15 0.05L9.95 -0.05L9.9 -0.1L9.8 -0.2L9.85 -0.2L9.95 -0.3L10 -0.35L10.2 -0.45L10.25 -0.45L9.95 -0.55L9.45 -0.7L9.4 -0.75L8.7 -0.9Q8.55 -0.9 8.45 -1L8.4 -1.05L8.5 -1.2L8.8 -1.4L9.3 -1.6L9.35 -1.65L10.05 -1.5L9.6 -1.6M11,-1.05L11.15 -0.85L11.05 -0.95L11 -1.05M9.35,0.85L9.45 0.85L11.05 0.65L11.25 0.5L11.35 0.4L11.5 0.05L11.4 -0.6L11.55 -0.3L11.6 0.15Q11.35 1.3 10.1 1.1L8.9 0.85L8.55 0.7Q8.6 0.55 8.85 0.5L9.55 0.45Q9.15 0.5 8.9 0.65L9 0.7L8.9 0.7L9.35 0.85M3.8,2L3.8 2.2L3.8 2.3L3.8 2.35L3.8 2.55L3.7 2.5L3.65 2.45L3.6 2.15L3.55 1.85L3.45 1.55L3.5 1.5L4.6 2.3L5.2 2.65L6 2.25L5.55 2L5.3 1.65L5.95 1.55L6.65 1.45L6.8 1.4L7.5 1.55L7.3 1.35L6.85 1.05Q6.65 0.85 6.8 0.75L6.8 0.7L8.2 1.15L9.65 1.65L9.7 1.7L9.3 2.05L8.45 2.4L9.55 1.75L9.45 1.7L8.7 1.5L8.65 1.45L8.45 1.4L8.25 1.3L7.15 0.9L7.1 0.95L7.05 0.95L7.1 1L7.2 1.2L7.35 1.3L7.6 1.55L7.5 1.55L5.55 1.75L5.6 1.8L5.9 2L6.1 2.2L6.35 2.45L6.2 2.4L6.1 2.45L6.05 2.5L6.05 2.55L5.5 2.65L5.45 2.65L5.5 2.8L5.45 2.8L5.55 2.85L5.8 3L6.75 2.85L6.6 2.65L7.25 2.8L8.25 2.5L8.25 2.6L6.8 3.15L5.5 3.3L3.45 3.85L2.3 3.95L2.1 3.9Q1.4 3.7 1.55 3.05L1.6 1.95L1.65 1.85L1.95 2.1L2.1 2.4L2.25 2.55L2.65 2.5L2.95 2.65L2.95 2.7L2.95 2.8L2.5 2.65L2.25 2.55L1.95 2.55L1.95 2.45L1.85 2.4L1.8 2.5L1.8 2.85L1.75 3.25L1.75 3.6L1.9 3.75L2.1 3.9Q2.35 3.75 2.6 3.75L3.3 3.7L3.3 3.75L3.4 3.75L3.3 3.7L5.5 3.25L5.5 3.15L5.5 3.05L5.5 2.95L5.4 2.8L5.35 2.8L4.6 2.4L3.9 1.95L3.85 2L3.85 2.05L3.8 2M3.4,2.45L3.4 2.5L3.35 2.5L3.3 2.55L3.2 2.5L3 2.55L2.95 2.6L2.95 2.5L2.95 2.35L3 2.35L3.4 2.4L3.5 2.45L3.4 2.45M2.25,2.8L2.2 2.8L2.2 2.75L2.25 2.8M-0.7,3.2L-0.65 3.25L-0.6 3.15L-0.6 3.05L-0.6 3L-0.15 3.1L-0.05 3.1L-0.1 2.9L-0.15 2.65L-0.15 2.6L0.35 2.85L0.2 2.85L0.2 2.9L0.15 3L0.1 2.95L0.1 3.1L0.1 3.2L0 3.25L-0.2 3.2L-0.65 3.3L-0.65 3.25L-0.75 3.2L-0.7 3.2M-0.9,3.05L-1 2.95L-1.2 2.6L-1.35 2.9L-1.45 3.45L-1.6 4.05L-0.35 4.1L0.8 3.9L0.75 3.85L0.85 3.8L0.8 3.7L0.7 3.35L1 3.95L-0.45 4.25L-0.45 4.3L-0.5 4.35L-1.6 4.1L-1.65 4.05L-1.5 3.1L-1.3 2.4L-1.15 2.1L-1 2.75L-0.9 3.05M0.35,3.2L0.3 3.2L0.3 3.15L0.35 3.2M-7.85,-2.2L-7.95 -2.25L-7.9 -2.3L-8.05 -2.45L-8.25 -2.5L-7.9 -2.45L-7.5 -2.1L-8.1 -2L-8.15 -1.9L-9.25 -1.7L-9.45 -1.45L-10.2 -1.2L-10.7 -1.1L-11.1 -0.8L-12.2 -0.8L-12.1 -1.1L-11.75 -1.4L-11.45 -1.65L-11.1 -1.85L-11.95 -1.05L-11.9 -1L-11.95 -1L-11.55 -0.95L-11.15 -1L-10.95 -1.05L-10.9 -1.1L-10.9 -1.2L-10.85 -1.2L-10.05 -1.3Q-9.65 -1.45 -9.35 -1.65L-9.3 -1.8L-8.1 -2.05L-8.1 -2.1L-8.05 -2.2L-7.95 -2.2L-7.85 -2.2M-6.55,2.4L-6.6 2.35L-6.55 2.35L-6.65 2.25L-7.1 2L-7.25 1.9L-7.25 1.85L-7.2 1.8L-7.05 1.6L-6.95 1.35L-6.95 1.3L-7 1.25L-7.25 1.3L-7.1 1.2L-6.5 1.05L-6.7 1.25L-6.9 1.45L-7.1 1.8L-7.1 1.85L-6.8 2.05L-6.4 2.2L-6.2 2.4L-9.35 2.55Q-11 2.1 -11.85 0.8L-12.1 0L-10.2 -0.3L-10.7 -0.25L-11.5 -0.1L-11.8 0.05L-11.85 0.05L-11.9 0.15L-11.95 0.2L-11.9 0.25L-11.7 0.75L-11.6 0.9L-10.75 1.75L-8.7 2.5L-8.2 2.55L-7.7 2.55L-7.6 2.55L-7.5 2.55L-6.55 2.4M-4.05,-6.65L-3.65 -6.95L-3.6 -6.95L-2.85 -7.4L-2.2 -7.65L-2 -7.5L-2 -7.2L-1.95 -7.1L-1.9 -6.85L-1.9 -6.75Q-2.85 -5.95 -4.1 -6.25L-4.15 -6.25L-4.25 -6.25L-4.2 -6.45L-4.1 -6.55L-4.05 -6.65M-3.9,-6.5Q-2.85 -6.2 -2.05 -6.8L-2.05 -7.2Q-2 -7.45 -2.2 -7.55L-2.8 -7.3L-3.9 -6.5M-5.3,-4.95L-5.4 -5L-5.5 -4.95L-5.85 -4.3L-5.9 -4.3L-6 -4.2L-6 -4.1L-6 -4L-5.9 -3.95Q-5.95 -3.55 -5.6 -3.35L-5.35 -3.55L-4.8 -4.05L-4.3 -4.5L-4.3 -4.55L-4.65 -4.95L-5.1 -5.1L-5.3 -4.95M-5.1,-5.25L-4.55 -4.95L-4.15 -4.55L-4.65 -3.95L-5.4 -3.3L-5.5 -3.2L-5.55 -3.15L-5.7 -3.15Q-6.05 -3.55 -6.05 -4.05L-5.8 -4.75L-5.1 -5.25M-4.7,-4.65L-4.95 -4.9L-4.9 -4.9L-4.85 -4.85L-4.7 -4.7L-4.7 -4.65M-9.55,0.9L-9.75 0.8L-9.8 0.7L-9.7 0.6L-9.7 0.45L-9.7 0.4L-10.2 0.35L-10.2 0.4L-10.25 0.4L-10.35 0.35L-10.45 0.25L-10.3 0.15L-9.9 -0.05L-9.8 -0.1L-9.8 -0.15L-10 -0.3L-9.65 -0.3L-9.45 -0.35L-9.25 -0.3L-9.15 -0.25L-9.6 0L-10.05 0.2L-10.25 0.25L-9.55 0.4L-9.5 0.4L-9.5 0.45L-9.6 0.6L-9.65 0.65L-9.7 0.75L-9.55 0.9M-8.5,1.5L-8.6 1.45L-8.6 1.3L-8.7 1.25L-9.2 1.05L-8.5 1.3L-8.45 1.35L-8.45 1.5L-8.5 1.5M-6.15,-1.85L-6.45 -1.95L-6.5 -2.05L-6.15 -1.85M-5,0.6L-4.95 0.6Q-4.25 0.75 -3.85 0.35L-3.7 0.15L-3.6 0.05L-3.6 0L-3.55 -0.45L-3.35 0.15L-6.15 0.2L-7.45 -0.95Q-7.7 -1.25 -7.45 -1.5L-7.1 -1.8L-7.3 -1.5L-7.35 -1.45L-7.4 -1.2L-7.1 -0.9L-7.05 -0.8L-6.9 -0.65Q-6.45 -0.2 -5.9 0.1L-5 0.6M-4.25,-1.45L-4.4 -1.4L-4.9 -1.55L-4.85 -1.55L-4.1 -1.65L-3.9 -1.25L-4.05 -1.35L-4.2 -1.35L-4.25 -1.45M-1.55,-3.95L-1.4 -3.4L-1.3 -3.15L-2.1 -2.35L-2.65 -1.55L-2.75 -1.45Q-3.65 -1.9 -3.4 -2.85L-3.15 -3.45Q-2.75 -4.15 -1.95 -4.3L-1.65 -4.3L-1.6 -4.25L-1.55 -3.95M-1.75,-4.25L-1.85 -4.25L-1.9 -4.25Q-2.75 -4 -3.15 -3.2L-3.3 -2.3L-3.25 -2L-3.2 -1.9L-3.05 -1.75L-3 -1.65L-2.75 -1.7L-2.7 -1.75L-2.65 -1.75L-2.25 -2.5L-1.6 -3.15L-1.55 -3.2L-1.45 -3.3L-1.5 -3.45L-1.6 -3.85L-1.7 -4.2L-1.75 -4.25M-4.55,3.1L-4.9 2.85L-5.3 2.55L-5.25 2.5L-5.2 2.4L-5.25 2.25L-5.3 2.3L-5.8 2.7L-6.5 3.3L-3.25 3.65L-2.75 3.65L-2.75 3.6L-2.7 3.6L-2.8 3.3L-2.9 2.9L-3 2.55L-3.05 2.55L-3.1 2.55L-3.35 2.65L-3.25 2.4L-3.05 2.1L-2.95 2.05L-2.8 2.8L-2.55 3.5L-2.45 3.75L-4.1 3.8L-5.65 3.55L-5.65 3.6L-5.7 3.65L-6.6 3.4L-6.7 3.25L-5.6 2.4L-4.95 1.85L-4.9 1.8Q-4.65 1.9 -4.9 2.2L-5.15 2.6L-5 2.6L-4.75 2.65L-4.75 2.75L-4.75 2.85L-4.8 2.95Q-4.1 3.1 -3.6 2.65L-3.4 2.7Q-3.9 3.05 -4.55 3.1" />
<path style="fill:#FFFF00;fill-opacity:1" d="M1.1,-3.25L1.05 -3.2L0.9 -3.15L0.85 -3.25L0.75 -3.65L0.75 -3.75L0.75 -4.2L0.75 -4.45L0.75 -4.5L0.75 -4.6L0.75 -4.8L0.7 -5.5L0.6 -5.7L0.7 -6L0.7 -6.1L0.8 -6.25L0.9 -5.65L0.95 -5.2L0.95 -5.15L1 -4.95L1.05 -4.9L1.1 -4.35L1.1 -3.8L1.1 -3.75L1.15 -3.7L1.25 -3.6L1.1 -3.35L1.1 -3.25M5,-6.1L4.9 -5.85L4.8 -5.7L4.6 -5.45L4.6 -5.25L4.55 -5.2Q4.5 -5.05 4.3 -5.1L4 -5.3Q3.45 -5.5 2.9 -5.85L2.35 -6.2L2.1 -6.25L2.1 -6.3L2.15 -6.3L2.05 -6.35L2.1 -6.45L2.15 -6.45L2.1 -6.5L2.05 -6.65L1.9 -6.75L2 -6.8L2 -6.9L2.05 -6.9L2.1 -7L2.8 -7.1L2.85 -7.1L4 -6.75L5 -6.1M2.3,-6.75L2.35 -6.7L2.45 -6.55L2.45 -6.4L3.25 -6.05L4.15 -5.55L4.35 -5.45L4.45 -5.55L4.6 -5.8L4.7 -6.05L4.2 -6.45L3.15 -6.85L2.9 -6.9L2.8 -6.85L2.25 -6.8L2.3 -6.75M4,-2L3.5 -2.1L3.45 -2.15Q3.3 -2.2 3.3 -2.35L3.3 -2.45L3.35 -2.55L3.25 -2.9L2.8 -4.1Q2.7 -4.3 2.75 -4.45L2.85 -4.6Q3.7 -4.45 4.1 -3.7L4.3 -2.75L4.3 -2.45L4.1 -2.05L4 -2M3.45,-3.4L3.55 -2.5L3.55 -2.4Q3.7 -2.2 3.95 -2.25L4 -3.4Q3.85 -4.05 3.15 -4.3L3.1 -4.3L3.45 -3.4M2.1,-1.4Q2.3 -1.05 2.1 -0.75L2 -0.65L1.75 -0.5L1.75 -0.45L1.65 -0.3L1.6 -0.25L1.55 -0.2L1.4 -0.1L1.05 -0.05L1 -0.1L0.95 -0.05Q0.6 0.2 0.2 -0.05L0.1 -0.1L0.05 -0.15L0.05 -0.2L0 -0.25L-0.4 0L-1.2 -0.1Q-1.5 0 -1.6 -0.25L-1.75 -0.35L-1.75 -0.55L-1.75 -0.95L-1.75 -1L-1.7 -1.05L-1.1 -1.55L-0.45 -1.55L0.05 -1.8L0.8 -1.9L0.8 -1.95L0.9 -2.1L0.95 -2.15L1 -2.15L1.3 -2.05L1.65 -1.9L1.75 -1.85L1.9 -1.65L1.95 -1.6L2 -1.55L2.1 -1.4M0.75,-1.65L-0.25 -1.4L-0.15 -1.2L-0.15 -1.05L-0.3 -1.1L-0.4 -1.15L-0.55 -1.15L-0.6 -1.3Q-1.15 -1.45 -1.55 -0.9L-1.6 -0.7L-1.55 -0.5L-1.45 -0.4L-1.4 -0.3L-1.1 -0.5L-0.9 -0.7L-0.9 -0.45L-1 -0.25L-0.95 -0.2Q-0.5 -0.15 -0.15 -0.5L0 -0.65L0.05 -0.7L0.15 -0.6L0.15 -0.45L0.5 -0.25L0.8 -0.2L0.9 -0.45L1 -0.6L1.05 -0.65L1.15 -0.5L1.15 -0.35L1.45 -0.35L1.5 -0.45L1.45 -0.7L1.3 -0.9L1.3 -0.95L1.65 -0.9L1.7 -0.75Q2.1 -0.85 1.9 -1.3L1.65 -1.6L1 -1.85L1.05 -1.7L1.1 -1.55L1.05 -1.5L0.85 -1.55L0.75 -1.65M4.9,-0.3L6.75 -0.75L6.75 -0.85L6.25 -1.7L6.2 -1.75L5.5 -2.5Q5.2 -2.05 5.6 -1.6Q5.95 -1.25 5.95 -0.75L5.9 -0.7L5.05 -0.4L4.9 -0.3M7.5,-2L7.8 -1.95L7.9 -1.9L7.95 -1.85L7.9 -1.8L7.7 -1.6L7.1 -1.5L7.05 -1.5L7 -1.55L7 -1.6L7.05 -1.65L7 -1.7L6.85 -1.75L6.75 -1.75L6.7 -1.8L6.4 -1.8Q6.85 -1.4 6.9 -0.85L6.95 -0.7L6.9 -0.65Q6 -0.2 5 -0.15L4.85 -0.15L4.75 -0.15L4.65 -0.25L4.6 -0.35L5.2 -0.7L5.75 -0.85L5.4 -1.6Q5.1 -2 5.2 -2.45L5.5 -2.75L5.6 -2.75L5.65 -2.7L6.35 -1.85L6.35 -1.9L6.5 -2L6.75 -2.05L6.8 -2.1L7 -2.1L7.4 -2.05L7.5 -2M10.5,0.1L10.5 0L10.45 0L10.3 -0.05L10.2 -0.15L10.2 -0.2L10.2 -0.3L10.3 -0.35L10.4 -0.4L10.05 -0.6L9.85 -0.75L9.65 -0.85L9.5 -0.9L8.85 -1.05L8.75 -1.05L8.7 -1.1L8.65 -1.1L8.65 -1.2L9.1 -1.4L9.6 -1.6L10.05 -1.5Q10.6 -1.4 11 -1.05L11.05 -0.95L11.35 0.15L11.25 0.5L11.05 0.65L9.45 0.85L9.35 0.85L9 0.7L8.9 0.65Q9.15 0.5 9.55 0.45L10.4 0.45L10.25 0.35L10.25 0.3L10.25 0.25L10.3 0.25L10.35 0.2L10.4 0.15L10.5 0.1M9.35,-1.2Q9.65 -1 10.05 -0.85L10.65 -0.45L10.7 -0.4L10.65 -0.35L10.5 -0.25L10.5 -0.2L10.65 -0.15L10.7 -0.15L10.7 -0.05L10.7 0.1L10.7 0.15L10.7 0.25L10.8 0.3L10.85 0.4L10.85 0.45L10 0.7L9.9 0.7L10.95 0.5L11.3 0.05L11.3 0L11.25 -0.2L11.2 -0.35L11.15 -0.55L11.1 -0.6L11.05 -0.65L11 -0.75Q10.6 -0.9 10.25 -1.2L9.45 -1.35L9.4 -1.3L9.35 -1.2M7.8,1.5L7.9 1.65L7.95 1.75L6.1 1.95Q6.55 2.45 7.1 2.5L8.1 2.2Q8.55 1.95 9.05 1.85L8.05 1.4L7.65 1.3L7.8 1.5M9.45,1.7L9.55 1.75L8.45 2.4L8.25 2.5L7.25 2.8L6.6 2.65L6.75 2.85L5.8 3L5.55 2.85L5.5 2.8L5.45 2.65L5.5 2.65L6.05 2.55L6.05 2.5L6.1 2.45L6.2 2.4L6.35 2.45L6.1 2.2L5.9 2L5.6 1.8L5.55 1.75L7.5 1.55L7.6 1.55L7.35 1.3L7.2 1.2L7.1 1L7.1 0.95L7.15 0.9L8.25 1.3L8.45 1.4L8.7 1.5L9.45 1.7M3.85,2.05L3.85 2L3.9 1.95L4.6 2.4L5.35 2.8L5.4 2.8L5.5 2.95L5.5 3.05L5.5 3.15L5.5 3.25L3.3 3.7L2.6 3.75Q2.35 3.75 2.1 3.9L1.9 3.75L1.75 3.6L1.75 3.25L1.8 2.85L1.8 2.5L1.85 2.4L1.95 2.45L1.95 2.55L2.25 2.55L2.5 2.65L2.95 2.8L2.95 2.7L2.95 2.65L2.95 2.6L3 2.55L3.2 2.5L3.3 2.55L3.35 2.5L3.4 2.5L3.4 2.45L3.5 2.45L3.65 2.45L3.7 2.5L3.8 2.55L3.8 2.35L3.8 2.3L3.8 2.2L3.85 2.05M6.3,2.85L6.4 2.8L6.35 2.7L6.25 2.65L6.2 2.7L6.2 2.75L5.8 2.85L6.05 2.85L6.3 2.85M2.2,2.75L2.2 2.8L2.15 2.8L2.05 2.8L2.05 3.15L2.05 3.4L2.05 3.5L5.3 3.05L4.3 2.45L4 2.25L4 2.5L4 2.75L3.95 2.75L3.65 2.7L3.5 2.7L3.2 2.75L3.15 2.75L3.15 2.85L3.15 2.95L3.15 3Q2.65 3.1 2.25 2.8L2.2 2.75M0.2,2.9L0.2 2.85L0.35 2.85L0.65 3.25L0.7 3.35L0.8 3.7L0.85 3.8L0.75 3.85L-0.35 4.1L-1.6 4.05L-1.45 3.45L-1.35 2.9L-1.2 2.6L-1 2.95L-0.9 3.05L-0.8 3.15L-0.75 3.15L-0.75 3.2L-0.65 3.25L-0.65 3.3L-0.2 3.2L0 3.25L0.1 3.2L0.15 3.05L0.15 3L0.2 2.9M0.3,3.15L0.3 3.2L0.25 3.25L0.2 3.4L-0.3 3.35L-0.5 3.45Q-0.85 3.55 -1.1 3.15L-1.2 3.1L-1.25 3.45L-1.35 3.8L-1.35 3.85L0.55 3.65L0.4 3.4L0.35 3.2L0.3 3.15M-8.05,-2.45L-7.9 -2.3L-7.95 -2.25L-7.95 -2.2L-8.05 -2.2L-8.1 -2.1L-8.1 -2.05L-9.3 -1.8L-9.35 -1.65Q-9.65 -1.45 -10.05 -1.3L-10.85 -1.2L-10.9 -1.2L-10.9 -1.1L-10.95 -1.05L-11.15 -1L-11.55 -0.95L-11.9 -1L-11.95 -1.05L-11.1 -1.85L-11 -1.9L-9.65 -2.35L-9.4 -2.4L-8.8 -2.5L-8.6 -2.55L-8.4 -2.55L-8.25 -2.5L-8.05 -2.45M-11.55,-1.2L-11.1 -1.25Q-10.95 -1.55 -10.5 -1.55L-9.95 -1.65L-9.6 -1.7L-9.6 -1.75L-9.55 -1.85L-9.55 -1.9L-9.5 -1.95L-9.35 -2L-8.3 -2.2L-8.3 -2.3L-8.5 -2.35L-8.55 -2.35L-10.1 -2Q-10.9 -1.8 -11.5 -1.25L-11.55 -1.2M-8.45,1.5L-7.4 1.35L-7.25 1.3L-7 1.25L-6.95 1.3L-6.95 1.35L-7.05 1.6L-7.2 1.8L-7.25 1.85L-7.25 1.9L-7.1 2L-6.65 2.25L-6.55 2.35L-6.6 2.35L-7.45 2.5L-7.5 2.55L-7.6 2.55L-7.7 2.55L-8.2 2.55L-8.7 2.5L-10.75 1.75L-11.6 0.9L-11.7 0.75L-11.9 0.25L-11.95 0.2L-11.9 0.15L-11.85 0.05L-11.8 0.05L-11.5 -0.1L-10.7 -0.25L-10.2 -0.3L-10 -0.3L-9.8 -0.15L-9.8 -0.1L-9.9 -0.05L-10.3 0.15L-10.45 0.25L-10.35 0.35L-10.25 0.4L-10.2 0.4L-10.2 0.35L-9.7 0.4L-9.7 0.45L-9.7 0.6L-9.8 0.7L-9.75 0.8L-9.55 0.9L-9.4 0.95L-9.2 1.05L-8.7 1.25L-8.6 1.3L-8.6 1.45L-8.5 1.5L-8.45 1.5M-10.65,-0.05L-11.1 0.05L-11.55 0.15L-11.65 0.25L-11.55 0.45L-11.5 0.5L-11.3 0.8L-11.25 0.95L-10 1.85L-7.2 2.25L-7.35 2.2L-7.45 2L-7.5 1.85L-7.4 1.7L-7.8 1.75L-8.65 1.75L-8.9 1.5L-10 0.9L-10.05 0.9L-10.05 0.8L-10.05 0.75L-10 0.7L-10 0.65L-9.95 0.6L-10.15 0.55L-10.6 0.45L-10.75 0.35L-10.75 0.25L-10.7 0.15L-10.55 0.05L-10.45 -0.05L-10.65 -0.05M-3.35,-6.6L-2.35 -6.85L-2.25 -6.9L-2.25 -7.05L-2.25 -7.1L-2.25 -7.2L-2.3 -7.25L-2.8 -6.95L-3.3 -6.65L-3.35 -6.6M-2.8,-7.3L-2.2 -7.55Q-2 -7.45 -2.05 -7.2L-2.05 -6.8Q-2.85 -6.2 -3.9 -6.5L-2.8 -7.3M-5.1,-5.1L-4.65 -4.95L-4.3 -4.55L-4.3 -4.5L-4.8 -4.05L-5.35 -3.55L-5.6 -3.35Q-5.95 -3.55 -5.9 -3.95L-6 -4L-6 -4.1L-6 -4.2L-5.9 -4.3L-5.85 -4.3L-5.5 -4.95L-5.4 -5L-5.3 -4.95L-5.1 -5.1M-4.7,-4.7L-4.85 -4.85L-4.9 -4.9L-4.95 -4.9L-5.05 -4.9L-5.55 -4.4L-5.6 -4.25L-5.65 -4.2L-5.7 -4.1L-5.7 -4L-5.7 -3.95L-5.65 -3.7L-5.6 -3.65L-5.15 -4.15L-4.55 -4.6L-4.7 -4.65L-4.7 -4.7M-4.9,-1.55L-4.4 -1.4L-4.2 -1.35L-4.05 -1.35L-3.9 -1.25L-3.85 -1.2L-3.55 -0.45L-3.6 0L-3.7 0.15L-3.85 0.35Q-4.25 0.75 -4.95 0.6L-5 0.6L-5.8 0.15L-5.9 0.1Q-6.45 -0.2 -6.9 -0.65L-7.05 -0.8L-7.1 -0.9L-7.4 -1.2L-7.35 -1.45L-7.3 -1.5L-7.1 -1.8L-6.65 -2.05L-6.55 -2.1L-6.5 -2.05L-6.45 -1.95L-6.15 -1.85L-4.9 -1.55M-6.4,-0.55L-5.3 0.25L-4.95 0.4L-4.1 0.35L-3.8 0.1L-3.7 -0.05L-3.8 -0.35L-3.8 -0.45L-3.85 -0.6L-3.85 -0.65L-3.9 -0.75L-4.15 -1.25L-4.2 -1.3L-5.1 -1.35L-5.55 -1.45L-6.45 -1.65L-6.95 -1.5L-7.15 -1.3L-6.4 -0.55M-1.7,-4.2L-1.6 -3.85L-1.5 -3.45L-1.45 -3.3L-1.55 -3.2L-1.6 -3.15L-2.25 -2.5L-2.65 -1.75L-2.7 -1.75L-2.75 -1.7L-3 -1.65L-3.05 -1.75L-3.2 -1.9L-3.25 -2L-3.3 -2.3L-3.15 -3.2Q-2.75 -4 -1.9 -4.25L-1.85 -4.25L-1.75 -4.25L-1.7 -4.2M-1.85,-3.85L-1.85 -4Q-2.5 -3.85 -2.9 -3.3Q-3.25 -2.75 -2.85 -2.15L-2.8 -2.05L-2.55 -2.5L-2 -3.1L-1.7 -3.35L-1.75 -3.45L-1.8 -3.65L-1.85 -3.85M-3.25,3.65L-6.5 3.3L-5.8 2.7L-5.3 2.3L-5.25 2.25L-5.2 2.4L-5.25 2.5L-5.3 2.55L-4.9 2.85L-4.55 3.1Q-3.9 3.05 -3.4 2.7L-3.4 2.65L-3.35 2.65L-3.1 2.55L-3.05 2.55L-3 2.55L-2.9 2.9L-2.8 3.3L-2.7 3.6L-2.75 3.6L-3.25 3.65M-3.35,3.05L-3.4 3.1L-3.5 3.05L-3.55 3.05Q-3.8 3.3 -4.2 3.35L-4.75 3.35L-2.95 3.45L-3.05 3.25L-3.1 3L-3.15 2.85L-3.25 2.95L-3.35 3.05M-5.05,3.1L-5.15 3L-5.3 2.85L-5.3 2.8L-5.35 2.8L-5.4 2.75L-5.5 2.75L-5.75 2.85L-5.95 3.1L-6.05 3.15L-5.05 3.25L-5.05 3.1" />
<path style="fill:#FFFFFF;fill-opacity:1" d="M2.25,-6.8L2.8 -6.85L2.9 -6.9L3.15 -6.85L4.2 -6.45L4.7 -6.05L4.6 -5.8L4.45 -5.55L4.35 -5.45L4.15 -5.55L3.25 -6.05L2.45 -6.4L2.45 -6.55L2.35 -6.7L2.3 -6.75L2.25 -6.8M3.1,-4.3L3.15 -4.3Q3.85 -4.05 4 -3.4L3.95 -2.25Q3.7 -2.2 3.55 -2.4L3.55 -2.5L3.45 -3.4L3.1 -4.3M0,-3.45L-0.2 -3.6L-0.35 -3.5L-0.4 -3.4L-0.45 -3.3L-0.5 -3.2L-0.6 -3.15L-0.6 -3.8L-0.6 -4.5L-0.45 -4.4L-0.45 -4.25L-0.35 -4.2L-0.3 -4.2L-0.25 -3.95L-0.1 -3.65L0 -3.6L0.05 -3.5L0 -3.45M0.85,-1.55L1.05 -1.5L1.1 -1.55L1.05 -1.7L1 -1.85L1.65 -1.6L1.9 -1.3Q2.1 -0.85 1.7 -0.75L1.65 -0.9L1.3 -0.95L1.3 -0.9L1.45 -0.7L1.5 -0.45L1.45 -0.35L1.15 -0.35L1.15 -0.5L1.05 -0.65L1 -0.6L0.9 -0.45L0.8 -0.2L0.5 -0.25L0.15 -0.45L0.15 -0.6L0.05 -0.7L0 -0.65L-0.15 -0.5Q-0.5 -0.15 -0.95 -0.2L-1 -0.25L-0.9 -0.45L-0.9 -0.7L-1.1 -0.5L-1.4 -0.3L-1.45 -0.4L-1.55 -0.5L-1.6 -0.7L-1.55 -0.9Q-1.15 -1.45 -0.6 -1.3L-0.55 -1.15L-0.4 -1.15L-0.3 -1.1L-0.15 -1.05L-0.15 -1.2L-0.25 -1.4L0.75 -1.65L0.85 -1.55M5.05,-0.4L5.9 -0.7L5.95 -0.75Q5.95 -1.25 5.6 -1.6Q5.2 -2.05 5.5 -2.5L6.2 -1.75L6.25 -1.7L6.75 -0.85L6.75 -0.75L4.9 -0.3L5.05 -0.4M9.4,-1.3L9.45 -1.35L10.25 -1.2Q10.6 -0.9 11 -0.75L11.05 -0.65L11.1 -0.6L11.15 -0.55L11.2 -0.35L11.25 -0.2L11.3 0L11.3 0.05L10.95 0.5L9.9 0.7L10 0.7L10.85 0.45L10.85 0.4L10.8 0.3L10.7 0.25L10.7 0.15L10.7 0.1L10.7 -0.05L10.7 -0.15L10.65 -0.15L10.5 -0.2L10.5 -0.25L10.65 -0.35L10.7 -0.4L10.65 -0.45L10.05 -0.85Q9.65 -1 9.35 -1.2L9.4 -1.3M7.65,1.3L8.05 1.4L9.05 1.85Q8.55 1.95 8.1 2.2L7.1 2.5Q6.55 2.45 6.1 1.95L7.95 1.75L7.9 1.65L7.8 1.5L7.65 1.3M6.05,2.85L5.8 2.85L6.2 2.75L6.2 2.7L6.25 2.65L6.35 2.7L6.4 2.8L6.3 2.85L6.05 2.85M2.25,2.8Q2.65 3.1 3.15 3L3.15 2.95L3.15 2.85L3.15 2.75L3.2 2.75L3.5 2.7L3.65 2.7L3.95 2.75L4 2.75L4 2.5L4 2.25L4.3 2.45L5.3 3.05L2.05 3.5L2.05 3.4L2.05 3.15L2.05 2.8L2.15 2.8L2.2 2.8L2.25 2.8M0.35,3.2L0.4 3.4L0.55 3.65L-1.35 3.85L-1.35 3.8L-1.25 3.45L-1.2 3.1L-1.1 3.15Q-0.85 3.55 -0.5 3.45L-0.3 3.35L0.2 3.4L0.25 3.25L0.3 3.2L0.35 3.2M-11.5,-1.25Q-10.9 -1.8 -10.1 -2L-8.55 -2.35L-8.5 -2.35L-8.3 -2.3L-8.3 -2.2L-9.35 -2L-9.5 -1.95L-9.55 -1.9L-9.55 -1.85L-9.6 -1.75L-9.6 -1.7L-9.95 -1.65L-10.5 -1.55Q-10.95 -1.55 -11.1 -1.25L-11.55 -1.2L-11.5 -1.25M-10.45,-0.05L-10.55 0.05L-10.7 0.15L-10.75 0.25L-10.75 0.35L-10.6 0.45L-10.15 0.55L-9.95 0.6L-10 0.65L-10 0.7L-10.05 0.75L-10.05 0.8L-10.05 0.9L-10 0.9L-8.9 1.5L-8.65 1.75L-7.8 1.75L-7.4 1.7L-7.5 1.85L-7.45 2L-7.35 2.2L-7.2 2.25L-10 1.85L-11.25 0.95L-11.3 0.8L-11.5 0.5L-11.55 0.45L-11.65 0.25L-11.55 0.15L-11.1 0.05L-10.65 -0.05L-10.45 -0.05M-3.3,-6.65L-2.8 -6.95L-2.3 -7.25L-2.25 -7.2L-2.25 -7.1L-2.25 -7.05L-2.25 -6.9L-2.35 -6.85L-3.35 -6.6L-3.3 -6.65M-4.7,-4.65L-4.55 -4.6L-5.15 -4.15L-5.6 -3.65L-5.65 -3.7L-5.7 -3.95L-5.7 -4L-5.7 -4.1L-5.65 -4.2L-5.6 -4.25L-5.55 -4.4L-5.05 -4.9L-4.95 -4.9L-4.7 -4.65M-7.15,-1.3L-6.95 -1.5L-6.45 -1.65L-5.55 -1.45L-5.1 -1.35L-4.2 -1.3L-4.15 -1.25L-3.9 -0.75L-3.85 -0.65L-3.85 -0.6L-3.8 -0.45L-3.8 -0.35L-3.7 -0.05L-3.8 0.1L-4.1 0.35L-4.95 0.4L-5.3 0.25L-6.4 -0.55L-7.15 -1.3M-1.8,-3.65L-1.75 -3.45L-1.7 -3.35L-2 -3.1L-2.55 -2.5L-2.8 -2.05L-2.85 -2.15Q-3.25 -2.75 -2.9 -3.3Q-2.5 -3.85 -1.85 -4L-1.85 -3.85L-1.8 -3.65M-3.25,2.95L-3.15 2.85L-3.1 3L-3.05 3.25L-2.95 3.45L-4.75 3.35L-4.2 3.35Q-3.8 3.3 -3.55 3.05L-3.5 3.05L-3.4 3.1L-3.35 3.05L-3.25 2.95M-5.05,3.25L-6.05 3.15L-5.95 3.1L-5.75 2.85L-5.5 2.75L-5.4 2.75L-5.35 2.8L-5.3 2.8L-5.3 2.85L-5.15 3L-5.05 3.1L-5.05 3.25" />
<path style="fill:#FFCC00;fill-opacity:1" d="M0.95,-12.7L2.25 -12.35L2.7 -12.2L2.65 -12.05L2.4 -11.8L2.25 -11.5L1.95 -11.25L1.7 -11.55Q1.25 -12.15 0.5 -11.7L0 -11.7L-0.8 -12.4L-0.8 -12.45L-0.75 -12.55L-0.7 -12.6L0 -12.6L0.95 -12.7M6.55,-9.9L6.6 -9.9L6.6 -10L6.65 -10.05L6.7 -10.1L6.8 -10.1L8.15 -9.15Q8.75 -8.4 8.55 -7.65L8.5 -7.6L8.35 -7.7L8.15 -7.9L8 -8.25L7.6 -8.3L7 -8.45L7.15 -8.9L7 -9.4L6.55 -9.9M7.3,-9.3L7.4 -8.7L8.05 -8.3L8.4 -8.15L7.85 -9.05L7.05 -9.7L7.3 -9.3M4.25,-11.35L4.5 -10.95L4.5 -10.9L2.7 -10.95L3 -11.3L3.8 -11.55L4.25 -11.35M3.95,-11.35L3.8 -11.35L3.6 -11.3L3.5 -11.25L3.35 -11.25L3.35 -11.2L3.3 -11.2L3.25 -11.15L4.15 -11.1L4.05 -11.25L3.95 -11.35M2.3,-11.95L2.4 -12.05L-0.4 -12.4L-0.05 -12.15L0.4 -11.9L0.45 -11.85Q1.15 -12.35 1.8 -11.85L2 -11.65L2.15 -11.8L2.3 -11.95M0.85,-6.55L1.05 -6.1L1.2 -5.6L1.25 -5.5L-0.45 -5.35L-0.75 -5.6L-1 -5.8L0.4 -6.35L0.85 -6.55M0.75,-6.25L0.15 -6.05L-0.45 -5.8L-0.5 -5.8L-0.45 -5.75L-0.4 -5.65L-0.35 -5.6L0.9 -5.75L0.85 -5.85L0.8 -6.05L0.75 -6.2L0.75 -6.25M5,-0.6L5.35 -0.35L5.95 -0.05L6.25 -0.25L6.55 -0.6L6.65 -0.7L7.55 -0.75L7.7 -0.8L7.9 -0.8L8.05 -0.7L7.75 -0.15L7.2 0.7L7.1 0.9L3.55 0.15Q4.15 0.1 4.55 -0.3L5 -0.6M4.75,-0.2L4.45 0.05L5.9 0.4L6.95 0.7L7 0.5L7 0.45L7.45 -0.05L7.6 -0.35L7.7 -0.6L7.45 -0.55L6.7 -0.45L6.7 -0.4L6.55 -0.15L5.45 0L5 -0.35L4.75 -0.2M11.4,-4.75L11.2 -4.9L11.2 -5.1L11.1 -5.3L11.2 -4.35L11.05 -3.45Q11.35 -3.45 11.55 -3.6L11.7 -3.7L11.55 -4.25L11.45 -4.75L11.4 -4.75M10.85,-5.85L11.55 -4.8L11.85 -3.6L11.85 -3.55L10.95 -3L10.3 -3L10.8 -3.5L11.05 -4.05L11.05 -4.15L10.9 -4.8L10.75 -5.7L10.85 -5.85M-11.05,-5.1L-11.45 -4.25L-11.75 -3.3L-11.75 -3.25L-11.65 -2.75L-11.55 -2.2L-11.55 -2.1L-10.9 -2.2L-10.65 -2.8L-10.15 -3.25L-10.45 -3.55L-10.75 -3.8L-10.8 -3.9L-10.8 -4.05L-10.8 -4.15L-11.05 -4.25L-11.05 -4.65L-11 -5.05L-11.05 -5.1M-10.8,-5L-10.9 -4.45L-10.6 -4.35L-10.6 -4.25L-10.6 -4.05L-10.65 -4L-10.1 -3.55L-9.75 -3.25L-10.45 -2.5L-10.7 -2L-11.75 -1.85L-11.85 -3.5L-11.4 -4.9L-11 -5.45Q-10.75 -5.35 -10.8 -5M-3.4,-11.95L-3.4 -12L-3.35 -12.15L-3.4 -12.2L-3.55 -12.2L-4.45 -11.9L-5.45 -11.5L-5.5 -11.45L-5.2 -11.3L-5.05 -11.2L-5 -11.15L-4.45 -11.65L-3.5 -11.8L-3.4 -11.95M-3.35,-11.5Q-4.4 -11.7 -4.85 -10.9L-4.9 -10.8L-4.95 -10.8L-5.15 -10.8Q-5.45 -11.3 -6.05 -11.15L-6.2 -11.2L-6.1 -11.35L-5.85 -11.35L-4.4 -12.15L-3.65 -12.35L-3.15 -12.45Q-3 -12.25 -3.15 -12L-3.35 -11.5M-4.65,-7.65L-4.65 -7.6L-5.45 -6.75Q-5.6 -6.35 -5.95 -6.1Q-6.45 -6.8 -5.9 -7.55L-4.9 -8.7L-4.85 -8.75L-4.65 -8.2L-4.65 -7.65M-4.95,-7.95L-5 -8.15L-5 -8.25L-5.65 -7.55L-5.9 -6.55L-5.9 -6.5L-5.45 -7.1L-4.9 -7.7L-4.95 -7.95M-7,-9.35L-7 -9.3L-7.35 -9.1L-7.65 -8.95L-7.6 -8.95L-7.6 -8.8L-8.3 -8.05L-8.3 -7.55Q-9.55 -6.85 -9.45 -8.05Q-9.4 -8.9 -8.7 -9.6L-7.6 -10.55L-7.2 -10L-7 -9.35M-7.4,-9.7Q-7.6 -9.75 -7.6 -10.05L-7.65 -10.2L-8.7 -9.15Q-9.2 -8.65 -9.3 -7.95L-9.4 -7.85L-9.3 -7.7L-9.2 -7.55L-9.1 -7.5L-8.8 -7.55Q-8.6 -7.55 -8.6 -7.65L-8.6 -8.3L-7.95 -8.8Q-7.8 -8.9 -7.95 -9L-7.6 -9.3L-7.2 -9.4L-7.4 -9.7M-8.9,-0.55L-8.85 -0.55L-8.2 -0.7L-7.75 -1L-9.75 -1.4L-9.3 -0.95L-8.9 -0.55M-8.8,-1.4L-7.4 -1.05L-7.35 -1Q-7.8 -0.65 -8.4 -0.4Q-9.1 -0.15 -9.6 -0.7L-10.1 -1.7L-8.8 -1.4" />
<path style="fill:#FFFF00;fill-opacity:1" d="M7.05,-9.7L7.85 -9.05L8.4 -8.15L8.05 -8.3L7.4 -8.7L7.3 -9.3L7.05 -9.7M4.05,-11.25L4.15 -11.1L3.25 -11.15L3.3 -11.2L3.35 -11.2L3.35 -11.25L3.5 -11.25L3.6 -11.3L3.8 -11.35L3.95 -11.35L4.05 -11.25M2.15,-11.8L2 -11.65L1.8 -11.85Q1.15 -12.35 0.45 -11.85L0.4 -11.9L-0.05 -12.15L-0.4 -12.4L2.4 -12.05L2.3 -11.95L2.15 -11.8M0.75,-6.2L0.8 -6.05L0.85 -5.85L0.9 -5.75L-0.35 -5.6L-0.4 -5.65L-0.45 -5.75L-0.5 -5.8L-0.45 -5.8L0.15 -6.05L0.75 -6.25L0.75 -6.2M5,-0.35L5.45 0L6.55 -0.15L6.7 -0.4L6.7 -0.45L7.45 -0.55L7.7 -0.6L7.6 -0.35L7.45 -0.05L7 0.45L7 0.5L6.95 0.7L5.9 0.4L4.45 0.05L4.75 -0.2L5 -0.35M11.45,-4.75L11.55 -4.25L11.7 -3.7L11.55 -3.6Q11.35 -3.45 11.05 -3.45L11.2 -4.35L11.1 -5.3L11.2 -5.1L11.2 -4.9L11.4 -4.75L11.45 -4.75M-11,-5.05L-11.05 -4.65L-11.05 -4.25L-10.8 -4.15L-10.8 -4.05L-10.8 -3.9L-10.75 -3.8L-10.45 -3.55L-10.15 -3.25L-10.65 -2.8L-10.9 -2.2L-11.55 -2.1L-11.55 -2.2L-11.65 -2.75L-11.75 -3.25L-11.75 -3.3L-11.45 -4.25L-11.05 -5.1L-11 -5.05M-3.5,-11.8L-4.45 -11.65L-5 -11.15L-5.05 -11.2L-5.2 -11.3L-5.5 -11.45L-5.45 -11.5L-4.45 -11.9L-3.55 -12.2L-3.4 -12.2L-3.35 -12.15L-3.4 -12L-3.4 -11.95L-3.5 -11.8M-4.9,-7.7L-5.45 -7.1L-5.9 -6.5L-5.9 -6.55L-5.65 -7.55L-5 -8.25L-5 -8.15L-4.95 -7.95L-4.9 -7.7M-7.2,-9.4L-7.6 -9.3L-7.95 -9Q-7.8 -8.9 -7.95 -8.8L-8.6 -8.3L-8.6 -7.65Q-8.6 -7.55 -8.8 -7.55L-9.1 -7.5L-9.2 -7.55L-9.3 -7.7L-9.4 -7.85L-9.3 -7.95Q-9.2 -8.65 -8.7 -9.15L-7.65 -10.2L-7.6 -10.05Q-7.6 -9.75 -7.4 -9.7L-7.2 -9.4M-9.3,-0.95L-9.75 -1.4L-7.75 -1L-8.2 -0.7L-8.85 -0.55L-8.9 -0.55L-9.3 -0.95" />
</g>
</svg>
