<?xml version="1.0" encoding="utf-8"?>
<svg version="1.1" id="Layer_1"
xmlns="http://www.w3.org/2000/svg"
xmlns:xlink="http://www.w3.org/1999/xlink"
width="29px" height="9px"
xml:space="preserve">
<g id="918" transform="matrix(1, 0, 0, 1, 1.05, 4.45)">
<path style="fill:#100806;fill-opacity:1" d="M6.05,-1.35Q7.7 -1.65 7.7 -0.7L7 0.05L5.9 0.7Q4.7 0.7 4.4 -0.25Q4.4 -1 6.05 -1.35M14.7,-1.95Q14.7 -2.35 16.1 -2.95Q17.5 -3.5 17.5 -2.75L17.95 -2.05Q17.95 -1.75 17.2 -1.35L15.65 -0.95Q15.25 -0.95 14.95 -1.45L14.7 -1.95M24.65,-3.35Q24.65 -4.6 26.05 -4.45Q27.45 -4.3 27.45 -3.2L27.1 -2.6Q26.75 -2.25 26.4 -2.25Q25.65 -2.25 25.1 -2.7Q24.65 -3.05 24.65 -3.35M1.4,3.9Q0.9 4.4 0.55 4.4Q-0.4 4.4 -0.8 3.9L-1.05 3.25Q-1.05 1.7 0.45 1.9Q1.9 2.05 1.9 3.05L1.4 3.9" />
</g>
</svg>
