<?xml version="1.0" encoding="utf-8"?>
<svg version="1.1" id="Layer_1"
xmlns="http://www.w3.org/2000/svg"
xmlns:xlink="http://www.w3.org/1999/xlink"
width="154px" height="23px"
xml:space="preserve">
<g id="1602" transform="matrix(1, 0, 0, 1, 151.05, 12.05)">
<path style="fill:#ECD4A6;fill-opacity:1" d="M-145.5,-11.05L-21.55 -11.05L-19.65 -10.7L-18.7 -10.25Q-16.9 -9.15 -16.85 -6.25L-16.85 -3.9L1.15 0.15L-17.25 3.55Q-16.9 8.05 -18.7 9.2L-19.65 9.65L-21.55 9.95L-145.5 9.95Q-148.8 9.95 -149.7 7.8Q-150.05 6.95 -150.05 5.8L-150.05 3.75Q-150 -7.1 -149.7 -8.15Q-148.9 -11.05 -145.5 -11.05" />
<path style="fill:none;stroke-width:2;stroke-linecap:round;stroke-linejoin:round;stroke-miterlimit:3;stroke:#623A2D;stroke-opacity:1" d="M-149.7,-8.15Q-150 -7.1 -150.05 3.75L-150.05 5.8Q-150.05 6.95 -149.7 7.8Q-148.8 9.95 -145.5 9.95L-21.55 9.95L-19.65 9.65L-18.7 9.2Q-16.9 8.05 -17.25 3.55L1.15 0.15L-16.85 -3.9L-16.85 -6.25Q-16.9 -9.15 -18.7 -10.25L-19.65 -10.7L-21.55 -11.05L-145.5 -11.05Q-148.9 -11.05 -149.7 -8.15z" />
</g>
</svg>
