<?xml version="1.0" encoding="utf-8"?>
<svg version="1.1" id="Layer_1"
xmlns="http://www.w3.org/2000/svg"
xmlns:xlink="http://www.w3.org/1999/xlink"
width="56px" height="53px"
xml:space="preserve">
<g id="372" transform="matrix(1, 0, 0, 1, 6, 11.75)">
<path style="fill:#3A1D0F;fill-opacity:0.85098" d="M5.75,-11.75Q7.7 -10.8 11.3 -6.1Q15.4 -0.75 17.3 0.75Q16.2 1.9 13.15 2Q11.5 2 9.15 -3.45L5.75 -11.75M49.25,27.5Q49.25 28.25 48.2 29.5Q47 30.9 45.85 30.75L43.35 30.75Q42.55 29.85 42.25 29.85Q41.9 29.85 41.65 30.15L41.05 30.4Q39.7 30.4 38 28.3Q39.9 26.3 43.05 26.2L48.3 26.5Q49.25 27.15 49.25 27.5M29.9,12.5L33.25 12.5L33.8 13L34.1 13.5Q34.1 15.15 31.25 16.9Q28.45 18.65 25.9 18.65L25.45 18.55L25.25 18.3Q25.25 17.65 25.55 17.25L23 17.25L22.7 17.05L22.55 16.55Q22.55 16.05 25.15 14.25Q28.05 12.15 29.9 12.65L29.9 12.5M15.9,6.75Q18.75 11.05 18.75 12.9Q18.75 16.6 18.55 17.25L16 23.1Q17.55 23.05 18 23.6L18.1 24.15Q18.1 25.05 15.65 28.8Q13.15 32.55 13.15 33.65L12.95 34.25L12.6 34.5L14 35.35Q15.05 36.1 15.05 36.75L15 37.15L14.85 37.25Q8.2 37.4 2.3 38.95L-4.35 40.9L-5.8 40.9Q-6 41 -6 40.35L-1.25 36.75Q4.25 32.4 7.65 27.75Q10.7 23.55 12.05 20.6Q13.6 17.1 13.6 13.7L13 6.15Q13 2.5 15.9 6.75M17.3,31.35L17.3 30.3Q20.25 27.4 27.9 25.3L28 25.45L28.05 25.9Q20.8 31.5 18.25 31.5L17.3 31.35M18.65,37.8Q20 36.45 23.8 34.35Q27.55 32.25 28.8 32.15Q30.35 32.05 34.05 34.2L39.05 37.5L38.8 38.15Q38.6 38.5 38.15 38.5L31.25 37.5L24.25 37.5L22.85 38.05L20.65 38.4L19.5 38.2L18.65 37.8" />
</g>
</svg>
