<?xml version="1.0" encoding="utf-8"?>
<svg version="1.1" id="Layer_1"
xmlns="http://www.w3.org/2000/svg"
xmlns:xlink="http://www.w3.org/1999/xlink"
width="31px" height="15px"
xml:space="preserve">
<g id="562" transform="matrix(1, 0, 0, 1, 13.15, -11.45)">
<path style="fill:#000000;fill-opacity:1" d="M7.5,17.65Q7.85 17.45 8.15 17.4L8.7 17.55L9.35 17.65L9.45 17.7L9.5 17.75L9.65 18.05L9.7 18.1L9.7 18.15L9.95 18.35L9.95 18.4L9.85 18.7L9.8 18.8L9.75 18.85L9.6 19.1L8.45 19.35L6.8 19.35L6.85 19.15L7 18.9L7.1 18.8L7.25 18.3L7.25 18.25Q6.95 18.15 7.15 17.95Q7.3 17.75 7.5 17.65M5.65,15.85L6.15 16.1L6.25 16.15L6.2 17.05L5.1 18.3L4.5 18.4L4.2 17.85L4.1 16.7L4.3 15.95L4.4 15.95L4.95 15.85L5 15.85L5.1 15.85L5.65 15.85M2.05,17.25Q2.05 18 2.6 18.9Q3.1 19.65 3.85 19.9L5.3 20.35Q6.2 20.65 7.05 20.35L6.95 20.55L6.85 21.1L6.8 21.25Q10.8 22.3 15.05 22.35Q16.2 22.35 16.85 23.2Q17.65 24.2 17.65 25.35Q17.65 25.85 17.1 25.95Q15.4 26.35 14.65 25.15L7.35 24.9L5.7 24.5L2.65 24.15L0.85 23.7L-0.2 24.35L-3.2 25L-3.35 25.05L-7.45 25.1Q-7.7 25.1 -7.8 24.9Q-9.6 26.35 -11.95 25.7L-13.05 25.4L-13.15 25.15L-13.15 24.85L-13.05 24.6Q-10.6 22.85 -7.45 22.8L-6.45 22.65L-5.25 22.3L-5.25 22.25L-5.25 21.9L-5.25 21.7L-7.55 21.4L-7.7 21.75L-7.7 21.8Q-9.8 21.75 -9.65 19.6L-9.5 18.8L-8.9 17.5L-8.75 17.3L-7.6 16.2L-7.5 16.15L-7.4 16.2L-7.3 16.25L-7.3 16.3L-7.25 16.25L-5.45 16.55L-4.85 15.75L-4 15Q-3.8 15.75 -4 16.7L-4.2 17.25L-3.7 17.9L-3.35 17.8L-1.65 18.1Q-2.1 17.5 -1.75 16.9L-2.2 16L-2.4 15.05Q-2.5 14.3 -1.9 13.85L-0.85 15.35L-0.45 16.25Q0.6 16.3 1.05 17.1L1.75 17.1L2.05 17.25" />
<path style="fill:#1E1E1E;fill-opacity:1" d="M7.95,22.15Q7.7 20.9 8.8 20.1L8.8 19.8Q8.85 18.4 8.2 17.25L7.85 16.55Q7.65 17.1 7.35 16.75L7.55 16.05Q7.55 15.3 7.05 14.95L6.8 14.65Q6.75 15.5 6.15 15.35L6.35 14.45L6.2 13.65Q5.7 12.8 5 13.45L4.85 13.35L4.75 12.8Q4.7 12.25 4.25 12L3.7 11.9L3.7 12L2.7 12.35Q2.55 12.35 2.4 12.5L2 12.95L1.85 13.35L1.25 13.35L0.25 13.5L-1.05 13.6L-1.35 14.15Q-1.75 14.8 -1.75 15.65L-1.7 16.55L-1.6 16.65L-1.55 16.7L-1.5 16.75L-2.45 17.5L-2.75 17.9L-3 18.85L-2.6 18.75L-2.35 18.75L-2.15 18.9L-2.05 19.05Q-2.9 19.1 -3.45 19.9Q-3.7 20.2 -3.6 20.7L-4 20.75L-3.75 19.45L-3.3 18.95L-3.25 18.25Q-3.2 17.6 -2.75 17.2Q-2.45 16.75 -1.95 16.65L-2.15 15.65L-1.75 13.85L-1.55 13.45L-1.85 13.2Q-1.6 12.85 -1.15 13L0 13.1L1.1 12.8L1.6 12.85L1.6 12.8L1.9 12.35L2 12.3L2.35 12L2.95 11.8L3.4 11.8Q3.4 11.6 3.55 11.5L3.9 11.5Q4.3 11.45 4.55 11.75L5.1 12.25L5.15 12.8Q6.25 12.35 6.65 13.6L6.75 14.2Q7.35 14.3 7.7 14.95Q8.05 15.5 7.95 16.2Q8.8 16.7 9.05 17.9Q9.35 19.2 9 20.4L8.8 20.9L8.25 21.4L8.3 22.25L7.95 22.25L7.95 22.15" />
<path style="fill:#3A3A3A;fill-opacity:1" d="M7.95,22.25Q5.85 22.4 3.7 21.75L1.05 21.1L-3.6 20.7Q-3.7 20.2 -3.45 19.9Q-2.9 19.1 -2.05 19.05L-2.15 18.9L-2.35 18.75L-2.6 18.75L-3 18.85L-2.75 17.9L-2.45 17.5L-1.5 16.75L-1.55 16.7L-1.6 16.65L-1.7 16.55L-1.75 15.65Q-1.75 14.8 -1.35 14.15L-1.05 13.6L0.25 13.5L1.25 13.35L1.85 13.35L2 12.95L2.4 12.5Q2.55 12.35 2.7 12.35L3.7 12L3.7 11.9L4.25 12Q4.7 12.25 4.75 12.8L4.85 13.35L5 13.45Q5.7 12.8 6.2 13.65L6.35 14.45L6.15 15.35Q6.75 15.5 6.8 14.65L7.05 14.95Q7.55 15.3 7.55 16.05L7.35 16.75Q7.65 17.1 7.85 16.55L8.2 17.25Q8.85 18.4 8.8 19.8L8.8 20.1Q7.7 20.9 7.95 22.15L7.95 22.25" />
</g>
</svg>
