<?xml version="1.0" encoding="utf-8"?>
<svg version="1.1" id="Layer_1"
xmlns="http://www.w3.org/2000/svg"
xmlns:xlink="http://www.w3.org/1999/xlink"
width="77px" height="29px"
xml:space="preserve">
<g id="912" transform="matrix(1, 0, 0, 1, -37.3, 0.25)">
<path style="fill:#000000;fill-opacity:0.25098" d="M109.8,24.2Q105.6 28.35 99.65 28.35Q93.7 28.35 89.55 24.2Q85.4 20 85.4 14Q85.4 8.1 89.55 3.9Q93.7 -0.25 99.65 -0.25Q105.6 -0.25 109.8 3.9Q114.05 8.1 114.05 14.1Q114.05 20 109.8 24.2" />
<path style="fill:#BD8051;fill-opacity:1" d="M99.35,14.8Q99 15.15 98.5 15.15Q98 15.15 97.65 14.75Q97.35 14.4 97.35 13.85Q97.35 13.35 97.7 13.05Q98.1 12.75 98.6 12.75Q99.1 12.75 99.4 13.1Q99.75 13.45 99.75 14Q99.75 14.5 99.35 14.8M56.5,11.2L58.05 13.4L57.35 13.8L55.85 11.6L56.5 11.2M55.2,11.75L56.75 13.95L56.05 14.35L54.55 12.15L55.2 11.75M52.4,12.2Q53.1 12.95 53.1 13.95Q53.05 14.95 52.3 15.6Q51.6 16.3 50.6 16.25Q49.6 16.25 48.9 15.5Q48.25 14.8 48.25 13.8Q48.3 12.8 49 12.1Q49.75 11.45 50.75 11.45Q51.75 11.5 52.4 12.2M45.1,11.45Q46.1 11.5 46.75 12.2Q47.45 12.95 47.45 13.95Q47.4 14.95 46.65 15.6Q45.95 16.3 44.95 16.25Q43.95 16.25 43.25 15.5Q42.6 14.8 42.6 13.8Q42.65 12.8 43.35 12.1Q44.1 11.45 45.1 11.45M47,13.95Q47 13.1 46.45 12.5Q45.9 11.95 45.1 11.9Q44.3 11.9 43.65 12.45Q43.1 13 43.05 13.8Q43.05 14.65 43.6 15.2Q44.15 15.8 44.95 15.8Q45.8 15.85 46.35 15.3Q46.95 14.75 47 13.95M49.25,15.2Q49.8 15.8 50.6 15.8Q51.45 15.85 52 15.3Q52.6 14.75 52.65 13.95Q52.65 13.1 52.1 12.5Q51.55 11.95 50.75 11.9Q49.95 11.9 49.3 12.45Q48.75 13 48.7 13.8Q48.7 14.65 49.25 15.2M45.35,22.35Q45.4 21.15 46.55 20.3Q47.7 19.5 49.3 19.55Q46.2 20.4 46.1 23.3Q45.8 26.35 48.95 27.35Q47.35 27.3 46.3 26.4Q45.2 25.55 45.25 24.35L45.35 22.35M44.6,19.55Q41.5 20.4 41.4 23.3Q41.1 26.35 44.25 27.35Q42.65 27.3 41.6 26.4Q40.5 25.55 40.55 24.35L40.65 22.35Q40.7 21.15 41.85 20.3Q43 19.5 44.6 19.55M50.35,22.35Q50.4 21.15 51.55 20.3Q52.7 19.5 54.3 19.55Q51.2 20.4 51.1 23.3Q50.8 26.35 53.95 27.35Q52.35 27.3 51.3 26.4Q50.2 25.55 50.25 24.35L50.35 22.35M38.6,13.85L40.15 11.65L40.8 12.05L39.3 14.25L38.6 13.85M39.5,11.5L38 13.7L37.3 13.3L38.85 11.1L39.5 11.5" />
</g>
</svg>
