<?xml version="1.0" encoding="utf-8"?>
<svg version="1.1" id="Layer_1"
xmlns="http://www.w3.org/2000/svg"
xmlns:xlink="http://www.w3.org/1999/xlink"
width="112px" height="49px"
xml:space="preserve">
<g id="368" transform="matrix(1, 0, 0, 1, 6.05, 8.05)">
<path style="fill:#3A1D0F;fill-opacity:0.85098" d="M25,-2.8L24.3 -3.75Q25.9 -4.7 26.3 -5.25L33 -4.85L37.7 -4.45L44.25 -3.8L44.5 -3.7L44.55 -3.2Q44.55 -2.35 42.2 -1.3Q39.7 -0.2 36.95 -0.2Q30.9 -0.2 30.5 -1Q30.05 -1.85 26.25 -1.95Q25.65 -2.1 25 -2.8M10.15,-8.05Q12.3 -0.1 15.5 4.85Q20.3 12.25 29 16.5Q28.4 17.15 27.85 17.05L25.1 16.65L23.45 16.9L18.65 17.25L16.35 21.25Q15.35 22.95 15.35 24.45L15 25.25L14.3 26.65L14.2 26.9Q17.3 26.7 18.85 26.95L18.95 27.05L19 27.65Q19 28.2 15.45 30.7L11.15 33.55L11.15 33.7L14.35 33.3L17.25 33.1L19.8 33.55L24.15 34L24.65 34.1L24.8 34.8Q24.8 36.5 19 37.4L-4.1 39.95L-5.9 39.95Q-6.05 40.05 -6.05 39.15Q-6.05 38.75 0.1 34.1L6.25 29.25L9.45 22.7Q12.65 15.55 12.65 12.35Q12.65 8.45 11.45 2.3Q9.9 -5.6 9.65 -7.95L10.15 -8.05M104.95,2.75L105 2.9L104.5 3Q102.75 3 101.5 2.3Q100.4 1.7 100.4 1.15Q100.4 0.45 101.2 0.2L102.65 0.4Q102.05 0.65 101.8 0.9L103.8 1.7Q104.7 2 104.95 2.75M104.5,24.6Q103.05 25.6 102.15 25.6L101.05 25.35L100.6 24.6L98.05 24.95Q96.55 24.95 95.9 23.75L95.6 22.75Q95.6 20.7 100.75 21.3Q105.9 21.95 105.9 23Q105.9 23.6 104.5 24.6M82.05,18.25Q82.35 18.4 82.35 18.95Q82.35 19.75 80.85 20.55Q75.85 20.55 73.05 19.7Q71.7 19.3 70.45 18.4Q71.9 18.05 71.05 17.7L81.35 18.05L82.05 18.25M91.85,36.25Q95.6 35.85 95.6 37.7Q95.6 38.65 94.65 39.05Q92.55 39.9 85.45 39.9Q82.05 39.9 79.9 38.7Q78.3 37.8 78.3 37.15Q78.3 36.6 78.4 36.7L78.45 36.85L83.75 37.05L91.85 36.25M69.3,6.65Q69.3 8.25 68.1 9.4Q66.5 10.95 63.3 10.95Q55.1 10.95 54.1 9.45Q53.75 9 54.15 8.2L54.7 7.05L54.7 6.95Q54.25 7 54.05 7.2L53.85 7.55Q53.05 7.3 52.6 6.85Q56.2 4.1 58.9 4.4L65.5 5.35Q68.35 5.35 69.1 5.95L69.3 6.65M41,21.3L41.25 21.4L41.25 21.35Q42.5 22.75 44.2 25.85Q46 29.15 47.3 30.75Q52.1 36.55 63.95 38.8L64 38.75L64 39.3L63.9 39.8L63.5 39.75L60.1 39.9L58.8 40L55.85 39.8L53.05 39.5L51.7 39.1L50.35 38.8L46.4 39.4L40.85 39.85Q36.85 39.55 33.15 39.75L32.45 39.25Q32.9 38.95 39.75 36.55Q45.9 34.4 45.9 33.6Q45.9 32.5 43.4 27.1L40.9 21.85Q40.9 21.3 41 21.3M41.95,13.15Q40.95 13.15 40.65 12.65L40.55 11.95L37.3 12.55L35 12Q34.15 11.6 33.75 11.1Q34.5 9.1 39.15 8.9Q43.9 8.7 43.9 11.75L43.45 12.65Q42.9 13.15 41.95 13.15M80.2,37.9L82.4 37.9L80.05 37.8L80.2 37.9" />
</g>
</svg>
