<?xml version="1.0" encoding="utf-8"?>
<svg version="1.1" id="Layer_1"
xmlns="http://www.w3.org/2000/svg"
xmlns:xlink="http://www.w3.org/1999/xlink"
width="117px" height="15px"
xml:space="preserve">
<g id="1" transform="matrix(1, 0, 0, 1, -3.2, -19.75)">
<path style="fill:#E9B669;fill-opacity:1" d="M97.1,28.45L93.05 25.15L98.25 25.15L100.15 20.3L101.75 25.25L106.95 25.5L102.75 28.6L104.1 33.65L99.85 30.55L95.5 33.4L97.1 28.45M117.95,34L115.05 31.9L112.05 33.85L113.15 30.45L110.35 28.15L113.95 28.15L115.25 24.8L116.35 28.25L119.95 28.4L117.05 30.55L117.95 34M30.1,24.6L26.05 27.9L27.65 32.85L23.3 30L19.05 33.1L20.4 28.05L16.2 24.95L21.4 24.7L23 19.75L24.9 24.6L30.1 24.6M6.1,30L3.2 27.85L6.8 27.7L7.9 24.25L9.2 27.6L12.8 27.6L10 29.9L11.1 33.3L8.1 31.35L5.2 33.45L6.1 30" />
</g>
</svg>
