<?xml version="1.0" encoding="utf-8"?>
<svg version="1.1" id="Layer_1"
xmlns="http://www.w3.org/2000/svg"
xmlns:xlink="http://www.w3.org/1999/xlink"
width="130px" height="102px"
xml:space="preserve">
<g id="398" transform="matrix(1, 0, 0, 1, 30, 54)">
<path style="fill:#333333;fill-opacity:0.470588" d="M18.1,-54Q19.35 -50.55 20 -46.65L21.45 -39.25L22.2 -35.2L22.5 -31.65Q22.6 -28.95 22.05 -26.3Q21.3 -26.9 21.2 -28.3L20.85 -30.55L20.3 -32.8L19.8 -34.55Q19.15 -32.2 19.3 -29.55L19.55 -24.6Q19.7 -21.95 19.4 -19.4Q19.15 -17.05 19.35 -14.8L19.15 -14.95Q19 -15.15 19 -15.45L19 -16L18.9 -16.55L18.85 -16.75L18.8 -16.55L18.7 -16L18.7 -15.45L18.7 -14.9L18.6 -14.35L18.6 -14.25Q17.95 -18.6 18 -24.4L17.9 -35.1L17.9 -35.2Q17.7 -40.5 17.9 -45.85Q17.95 -47.8 17.6 -50Q17.25 -52.45 18.1 -54M36.45,-35.9Q37.65 -36.9 39.05 -37.5L41 -37.85L41.2 -37.75L41.1 -37.6L40.4 -37.2L40.1 -37L40.1 -36.95L40.9 -37.15L43.05 -37.55L44.2 -37.95L44.7 -38L45.2 -37.75L46.4 -37.4L47.1 -37.1L47.2 -36.95Q46.4 -35.9 45.1 -35.2L44.8 -35.05Q42.65 -34 40.2 -33.5L36.3 -32.75Q34.8 -32.5 34.05 -33.55Q34.05 -34.15 34.6 -34.5L35.65 -35.2L36.45 -35.9M4.05,-37.55L6.35 -37.4Q7.4 -37.9 8.45 -37.4L8.5 -37.25L8.6 -37.05L8.75 -36.85L8.8 -36.7L8.6 -35.2Q8.25 -34.05 7.25 -33.3Q4.65 -31.3 1.3 -31.05Q-3.85 -30.7 -6.4 -35.05L-6.45 -35.2L-7.45 -37.25Q-7.85 -38.45 -7 -39.3L-6.1 -40.6L-5.9 -40.65L-5.65 -40.75L-5.35 -40.8L-5.2 -40.85L-5.15 -40.85L-4.7 -40.8L-4.1 -40.65L-3.4 -40.4L-2.7 -40.15L-2.35 -39.9L0.2 -40.15L1.75 -39.6L2.45 -39.1L3.75 -37.9L4.05 -37.55M18.8,-22.25L18.8 -21.7L18.8 -21.1L18.8 -20.55L18.75 -20L18.75 -19.75L18.9 -20.25L18.85 -20.8L18.85 -21.35L18.9 -21.9L18.8 -22.25M5.5,-8.4Q5 -6.7 3.35 -6.35L0.5 -6.05L0.2 -6.2L-0.05 -6.45L-0.5 -6.75L-0.8 -6.9L-1.2 -7.25L-1.5 -8.15Q-1.85 -9.1 -1.35 -9.95L0.35 -12.2Q1.25 -13.1 2.45 -13.3Q4.4 -13.5 5.25 -11.75Q6.05 -10.15 5.5 -8.4M6.4,-9.8L6.95 -9.95L7.95 -10.35L8.6 -10.7L8.85 -10.8L10.75 -10.75L11.05 -10.7L11.2 -10.5L12.5 -9.3Q13.25 -8.75 13.45 -7.85Q13.65 -6.85 14.1 -6L14.4 -4.7Q14.15 -3.95 13.4 -3.85Q10.5 -3.3 8.4 -5.25Q7.35 -6.25 6.55 -7.5Q6 -8.4 6.2 -9.5L6.25 -9.7L6.4 -9.8M33,-15.5L32.85 -15.35L32.75 -15.15L32.65 -15L32.4 -14.6L32.05 -14.25L31.8 -13.65L31.8 -13.3L32.15 -13.1L32.15 -13L32.1 -12.95L31.55 -12.9L31.25 -13L31 -13.2Q31.45 -15.25 32.95 -16.9L38.65 -23.4L41.05 -26.1Q43.1 -28.4 45.5 -30.3L48.05 -32.2Q49.95 -32.15 51.65 -31.45Q53.4 -30.75 53.85 -28.8Q54.3 -27.05 54.25 -25.15Q54.2 -23.6 52.8 -22.85L52.45 -22.8L50.5 -22.8L50.2 -22.85L50 -23.05L49.8 -23.2L49.65 -23.4L49.6 -23.6L49.5 -23.75L49.4 -24.15L49.3 -24.5L49.25 -24.7Q47.3 -25.15 45.9 -23.6Q42.9 -20.4 38.85 -19.25Q36.4 -18.55 34.65 -16.85L33.8 -15.85L33.7 -15.65L33.5 -15.6L33.2 -15.6L33 -15.5M23.8,-9.65L24.85 -5.15L24.85 -5.2L25.15 -5.3L25.15 -5.35L25.45 -5.2L25.7 -5.05L25.95 -4.1L25.75 -2.95L25.4 -1.95L25.4 -1.9L25.65 0.1Q26.2 5 25.9 10.05Q25.55 15.05 25.5 20.1Q25.45 23.8 23.9 26.8Q24.5 23.45 24.3 19.25L23.8 11.5L23.35 3.75Q23.25 1.15 23.8 -1.4L23.4 -3.65Q23.25 -4.8 23.4 -5.85L23.25 -8Q22.9 -9.25 23.8 -9.65M69.6,-36.3L70.7 -35.2L71.3 -34.65Q72.3 -33.85 72.8 -32.7Q73.25 -31.7 74 -31.05L74 -31Q75.4 -31.35 76.35 -30.75L77.05 -30.2L77.55 -29.6L77.55 -29.45L77.55 -28.7L77.25 -27.8L76.65 -27.05L75.85 -26.25L75.2 -25.95L74.65 -25.95L74.35 -26.05L73.9 -26.2L73.6 -26.3Q72.9 -27.25 71.85 -27.9Q70.45 -28.8 68.65 -28.9L63.95 -28.2L62.5 -28L62.3 -28.2L61.25 -29.05L60.45 -29.7L59.9 -30.25L59.55 -30.6Q59.3 -31.4 59.6 -32.1Q60.05 -33.15 60.85 -34L62.2 -35.2Q63.5 -36.1 65.05 -36.45L67.5 -36.9Q68.8 -37.2 69.6 -36.3M50.65,-15.4Q49.55 -14.25 48.3 -14.25L48.2 -14.4L48.15 -14.6L48.15 -14.8L48.15 -14.95L48.05 -15.15L47.9 -15.25L46.9 -16Q46.25 -16.7 46.5 -17.65L47.05 -19.35Q47.45 -20.25 47.5 -21.1L47.5 -21.3L47.6 -21.5L47.9 -21.85L48.25 -22.25L48.6 -22.6Q48.75 -22.85 49 -22.8L49 -22.85L49.75 -22.8L50.05 -22.7L50.25 -22.6L50.55 -22.5L51.35 -20.7Q52 -19.45 51.85 -18.05Q51.75 -16.5 50.65 -15.4M52.95,-13.75L55.25 -13.7L55.55 -13.65L56.65 -13.45L57.75 -12.75Q58.1 -11.6 57.7 -10.45Q56.3 -6.25 51.9 -6.4Q49.5 -6.45 47.45 -5.4Q44.35 -3.75 41.25 -4.85L41.2 -4.95Q41.1 -5.5 41.4 -5.9Q42.95 -7.85 44.8 -9.5L48.45 -11.9L51.3 -13.05L52.95 -13.75M80.95,-14.35L81.15 -14.5L81.3 -14.7L81.5 -14.75L82.1 -14.6L83.8 -14.75L85.65 -15.55L85.95 -15.7L89.65 -15.55L91.15 -15.2L91.55 -14.75L91.5 -14.6Q90.9 -13.5 89.45 -13.3Q85.45 -12.75 81.6 -13.35L81 -13.6L80.8 -13.75L80.75 -13.95L80.8 -14.15L80.95 -14.35M66.1,-20.5Q72.1 -21.1 77.45 -23.3Q80.6 -24.6 83.95 -25.7L84.25 -25.8Q84.85 -25.95 85.3 -25.55L86.05 -24.65L86.65 -23.65L87.5 -22.9L87.55 -22.8L87.6 -22.6L87.65 -22.4L87.6 -22.05L87.5 -21.7L87.4 -21.3L87.25 -20.95L87.2 -20.8Q83.4 -18 78.7 -17.85L65.45 -18.3L65.4 -18.5L65.45 -18.85L65.55 -19.2L65.75 -19.75L65.9 -20.15L66.1 -20.5M81.4,12.9L81.5 13.45Q81.6 15.55 79.55 16.15Q77.1 16.9 75 15.8L72.8 14.9Q71.35 14.55 70.35 13.6L70.35 13.45L70.35 13.25L70.45 13.1L70.7 12.95Q71.75 12.5 72.8 12.4L76.35 11.7L78.1 11.75L78.4 11.8L80.05 12.05Q80.75 12.2 81.25 12.7L81.4 12.9M85.6,24.65Q86.75 24.6 87.7 25.2Q88.75 25.8 89.15 26.8L89.15 27L89 27.35L88.9 27.55L88.8 27.7L88.6 27.9L88.45 28.1L88.05 28.45L87.8 28.65L85 28.3L83.95 27.65L82.1 26.2Q80.4 25.4 79.05 24.45L79.1 24.35L79.6 24.1L79.8 24.05L80.35 24.15L80.4 24.2L80.35 24.25L80.75 24.35L80.95 24.3L81.05 24.3L81.4 24.15L81.6 24.05L81.85 24L81.85 23.95L83.95 24.4L85.6 24.65M96.35,29.2L95.95 29.15L95.3 29.35L94.85 29.7L94.75 29.8L96.35 29.5Q98.6 29.05 99.5 31.15L99.85 32.05Q100.3 33.35 99.5 34.45L99.1 35.05Q98.3 35.45 97.45 35.05Q97 34.85 96.6 34.45L96.15 33.5Q96.05 33 96.25 32.55L96.3 32.4L95.75 32.1L94.2 31.4L93.45 30.8L93.25 30.5L93.3 30.3L93.4 30.15L93.7 29.75L94.1 29.4L94.5 29L95.15 28.7L95.15 28.65L95.55 28.7L96.1 28.9L96.3 29.05L96.35 29.2M62.75,23.3L65.45 25.95Q66.5 27.2 66.95 28.7Q67.4 30.35 68.45 31.65L69.2 32.6Q70.95 32.85 71.95 34.1Q73.1 35.5 72.95 37.4Q72.8 39.55 70.95 40.55Q68.7 41.75 67.8 39.25L67.55 38.85L67.55 38.3Q67.45 37.15 66.25 36.7L63.8 35.45Q62.25 34.45 61.2 33.15Q60.75 32.65 60.55 31.95L60.3 31.85Q59.15 31.6 58.25 30.85L57.15 29.8L56.9 29.55L56.45 29.5L53.8 28.9L53.6 28.75L53.45 28.55L53.2 28.1L53.1 27.5L52.9 26.9L52.85 26.55L52.9 26.4Q53.4 25.3 54.45 24.75L56 23.95Q57.15 23.45 58 22.75Q58.45 22.4 58.95 22.3L61.35 22.4L61.9 22.5L62.75 23.3M50.8,9.75Q44.9 14.9 37.15 12Q35.7 11.45 34.75 10.1Q33.8 8.7 33.55 7Q33.1 4.1 35.6 3L36.95 2.4L37.55 2.5L37.95 2.55L38.3 2.5L38.75 2.4L38.75 2.35L42.6 2.55L46.65 3Q48.55 3.45 50.15 4.4Q51.5 5.1 52.4 6.5Q52.35 8.35 50.8 9.75M41.15,20.3Q37.55 20.6 34.05 19.7Q33.4 19.55 33 19L32.95 18.45L33 18.25L33.15 17.85L33.2 17.7L33.3 17.5L33.6 16.9L33.8 16.65L34.25 16.25L34.6 16.4L34.75 16.5L34.8 16.7L39.4 16.6L39.75 16.7L42.25 17.7Q43.05 18 43.05 18.85Q42.85 19.75 41.9 20.1L41.15 20.3M40.7,40.95L40.2 40.85L39.75 40.45L39.1 39.55L38.4 38.5L37.75 37.25Q36.7 37.3 35.9 38L34 40.1Q32.95 41.5 31.4 42.2L30 42.25L29.9 42.05L29.9 41.9L29.95 41.75L30.3 41.45Q30.5 41.25 30.75 41.15L31.85 40.65Q32.1 40.05 32.5 39.6L33.45 38L34.45 36.2Q35.1 35.2 36.05 34.3L36.2 34.15L37 34.3L37.55 34.5L38.25 34.8L38.75 35.1L39.05 35.25L39.25 35.75L39.65 36.7L40.35 38.15L40.85 39.6L40.7 40.95M12.05,5.3Q12.25 6.1 12.9 6.65L13.15 7.75L13.6 9.05L14.1 10.5L14.2 12L14.1 12.35Q13.3 12.6 12.95 11.85Q12.6 11.05 11.85 10.6L10.8 9.7L10.35 8.95L10.2 8.9L9.4 8.95L9.15 9.1L8.1 11.5Q7.45 13.2 6.4 14.4Q5.25 15.6 4.75 17.15Q4.25 18.45 3.3 19.1L3.2 18.95L3.2 18.75L3.2 18.6L3.25 18.4L3.15 18.2L2.95 18L4.6 14.15L6 10.05Q6.7 7.95 6.45 5.65Q6.25 3.85 7.3 2.55L8 1.6L8.2 1.45L8.85 1.3L8.85 1.25Q9.8 1.4 10.4 2.2L11.35 3.65L12.05 5.3M2.25,1.7Q3.2 2.3 4 3.1L4.15 4.05L4.15 4.8Q4.15 5.35 3.75 5.7L2.8 6.55Q1.75 7.55 0.15 6.95L-0.2 6.55L-0.4 6.4L-0.75 6L-0.95 5.8L-1.15 5.45L-1.25 5.3L-1.45 5.1L-1.6 4.9Q-3.05 5.05 -4.45 4.45L-6.05 3.8L-6.85 3.5L-7 3.3L-7.05 3.15L-7.15 2.95L-7.25 2.75L-7.3 2.55L-7.3 2.4L-7.3 2.2L-7.3 1.8L-7.3 1.65L-6.75 1.1L-6.25 0.55L-5.85 0.1L-5.15 -0.5L-4 -0.85L-3.7 -0.95L-1.7 -0.3L0.15 0.6L2.25 1.7M15.15,16.7Q16.1 18.3 16.1 20.4Q16.1 22.45 16.6 24.4Q17.05 26.35 17.1 28.35L16.95 31.1L16.8 31.3L16.7 31.45L16.45 31.65L16.3 31.8L16 31.95L15.8 31.95L15.5 31.8L15.25 31.55L14.95 31.4L14.8 31.3Q15.4 29.45 15.4 27.4Q15.4 25.3 15 23.3L14.3 19.45Q14.1 17.55 15.15 16.7M2.25,33.5L2.2 33.6Q-1.1 34.45 -4.75 33.6L-5.3 33.5L-5.45 33.6Q-6.95 33.9 -8 34.9L-9.95 36.6L-12.4 36.7L-12.6 36.6Q-13.45 35.75 -12.9 34.7Q-12.15 33.2 -12 31.6L-11.85 31.4L-11.55 31L-11.5 30.85L-11.35 30.65L-11.2 30.3L-11.05 30.1L-10.85 29.95L-10.35 29.7L-10.1 29.6L-4.75 30.05L-1.4 30.85Q0.25 31.45 1.55 32.6L2.25 33.5M-17.45,-27.95L-17.2 -27.8L-14.55 -27.9L-11.45 -27.5Q-10.3 -27.2 -10.05 -26.1Q-9.1 -21.75 -14.25 -22.8L-14.55 -22.85L-17.9 -22.6L-19.4 -22.35L-20.35 -23.15L-21.15 -23.8L-21.3 -24L-21.35 -24.15L-21.6 -24.9L-21.4 -25.6L-21.3 -26.2L-20.55 -26.8L-19.85 -27.2Q-19.3 -27.35 -19 -27.85L-18.8 -28.05L-18.5 -28.2L-18.45 -28.25L-18 -28.2L-17.7 -28.1L-17.45 -27.95M-24.1,-6.6L-22.5 -6.4L-22.2 -6.3L-21.9 -5.9L-21.8 -5.75L-20.5 -4.55L-19.45 -3.85L-18.7 -2.95L-18.55 -2.35L-18.35 -2.35L-18.25 -2.35L-18 -2.4L-16.9 -2.55Q-15.85 -3.9 -14.55 -4.3Q-12.9 -4.8 -10.9 -3.8Q-8 -2.3 -9.1 0.65Q-10.55 4.55 -14.45 4L-14.55 4Q-16.95 3.6 -18.5 1.6L-19.8 0.45L-20.7 0.5Q-22 0.85 -23.15 1.3Q-25.5 2.3 -28.05 1.75L-28.35 1.4L-28.45 1.2L-28.6 0.85L-29.05 0.25L-29.45 -0.1L-29.65 -0.25L-29.7 -0.85L-29.45 -2.5L-28.6 -4.3Q-27.9 -5.2 -26.8 -5.7L-25.85 -6.15L-24.65 -6.65L-24.1 -6.6M-19.3,19.1L-18.7 18.85L-17.55 18.6L-17.25 18.5L-14.8 18.65L-14.55 18.7L-13.65 18.85Q-12.95 19 -12.4 19.45L-11.7 20.3L-11.75 20.5L-11.85 20.65L-12.1 20.85L-12.25 21.05L-12.4 21.2L-12.5 21.4L-12.6 21.55L-14.55 21.5L-14.8 21.5Q-18.05 21.4 -20.65 22.9Q-22.5 23.95 -24.05 22.65L-24 22.45Q-24 21.8 -23.6 21.35Q-22.8 20.45 -21.65 20.05L-19.85 19.35L-19.3 19.1M-26.6,45.15L-26.25 45.45L-26.2 45.65L-26.4 45.85L-27.2 46.35L-28.4 47.15L-29.85 47.1L-29.95 46.75L-30 46.35L-29.9 45.6L-29.25 45L-28.55 44.75L-28.35 44.65L-27.85 44.7L-27.55 44.75L-27.1 44.9L-26.6 45.15" />
</g>
</svg>
