<?xml version="1.0" encoding="utf-8"?>
<svg version="1.1" id="Layer_1"
xmlns="http://www.w3.org/2000/svg"
xmlns:xlink="http://www.w3.org/1999/xlink"
width="29px" height="19px"
xml:space="preserve">
<g id="717" transform="matrix(1, 0, 0, 1, -12, -2.7)">
<path style="fill:#000000;fill-opacity:1" d="M37.15,3.2Q37.55 2.8 38.1 2.8L38.6 2.7Q41.25 2.95 40.35 5L40.05 5.25Q37.35 5.8 37.1 3.45L37.1 3.4Q37 3.25 37.15 3.2M34.4,5.55Q34.8 6.15 34.65 6.9Q34.3 8.4 32.35 7.9Q30.75 7.45 29.5 6.25L29.1 5.65L29.15 5.65L30.05 5.45L31.4 5.45L33.5 5.45L34.4 5.55M33.15,12.05L33.45 12L33.5 11.95Q35.35 11.8 36.95 12.5Q38.7 13.25 38.25 15.25L38.2 15.4L35.05 15.55Q33.15 15.05 31.9 13.75L31.8 13.35Q32 12.65 32.55 12.15L32.65 12.1L32.7 12.1L32.8 12.1L33.15 12.05M29.05,10.2Q30.55 10.75 30.5 12Q30.45 12.45 30 12.5Q28.7 12.75 28.45 11.3Q28.35 10.5 29.05 10.2M29.9,17.4L30.6 16.3Q31.15 15.6 32 15.3Q33.5 14.95 34.5 15.95Q35.35 16.8 35.7 17.95L35.8 17.95L36.4 18.15Q37.1 18.1 37.7 18.4Q38.65 18.9 38.65 19.85L38.6 20.2L34.6 20.15L34 20.25Q30.4 21.05 27.75 19L27.7 18.7Q28.2 17.45 29.7 17.65L29.9 17.4M24.5,17.25Q25.45 17.45 26.25 17.95L27.6 19.25L27.6 19.35Q26.5 20.75 25.15 20L24.2 19.6Q22.4 18.9 20.8 20.3Q19.2 21.75 16.9 21.25L16.85 21.2L16.8 21L16.8 20.9L16.7 20.8L12.5 21.15L12.15 21L12.1 20.9L12.05 20.7L12.05 20.45L12.1 20.45L12 20.4L12.1 20.25L12.95 20L13.05 19.95L14.7 19.65L16.1 19.55L16.65 19.55L16.95 19.3L17.25 19.1L17.9 18.7L19.3 19L19.75 19.15Q20.5 18.7 21.35 18.3Q22.9 17.6 24.5 17.25" />
</g>
</svg>
