<?xml version="1.0" encoding="utf-8"?>
<svg version="1.1" id="Layer_1"
xmlns="http://www.w3.org/2000/svg"
xmlns:xlink="http://www.w3.org/1999/xlink"
width="46px" height="33px"
xml:space="preserve">
<g id="1316" transform="matrix(1, 0, 0, 1, 21.55, 32.75)">
<path style="fill:#F8C601;fill-opacity:1" d="M5.9,-32.75Q7 -31.3 6.2 -29.2Q5.5 -27.35 4.25 -25.95L4.1 -25.95Q4.05 -27.55 4.35 -29.3Q4.65 -31.05 5.65 -32.6L5.9 -32.75M21.3,-15L19.75 -14.1L19.35 -13.3L18.35 -12.7L20.2 -15.15L23.45 -16.9L23.5 -16L19.75 -13.6L21.3 -15M3.6,-0.1L-0.05 -0.05L-6.55 -0.8L-8.55 -1.35Q-9.45 -1.45 -10.1 -1.9L-5.25 -3.4L-6.2 -5.4L-3.15 -4.45L-2.05 -4.85L-0.75 -13.55L-0.2 -4.8L1.7 -6.35L1.55 -4.15L5.9 -6.8L4.5 -2.7L6.4 -3Q6.05 -1.45 4.8 -0.6L3.6 -0.1M3.05,-4.1L0.65 -1.9L0.75 -4.55L-0.55 -2.95L-1.15 -6.55L-1.95 -2.45L-4.75 -4.1L-3.7 -1.9L-7.5 -1.65Q-6 -0.95 -4.35 -0.9L-0.55 -0.6L1 -0.3Q3 -0.05 4.3 -1.5L2.6 -2L3.15 -3.15L3.05 -4.1M-21.5,-23L-21.15 -22.75Q-19.4 -21.25 -18.7 -18.65Q-18.35 -17.45 -19 -16.35L-21.55 -22.75L-21.55 -22.9L-21.5 -23M-14.85,-24.25L-14.5 -22.75L-13.45 -20.9L-13.85 -22.75L-13.9 -22.85L-14.7 -24.5L-14.85 -24.25M-13.4,-22.75L-12.55 -19.35L-15.1 -22.75L-15.8 -24.3Q-16.9 -26.35 -16.2 -28Q-14.25 -26.7 -13.7 -24.1L-13.4 -22.75M-5.45,-10.6Q-4.1 -9.85 -3.45 -8.4Q-2.7 -6.65 -3.95 -5.5L-4.8 -8.45L-4.55 -7.9L-4.8 -8.45L-5.45 -10.6" />
<path style="fill:#FFF193;fill-opacity:1" d="M19.35,-13.3L19.75 -14.1L21.3 -15L19.75 -13.6L19.2 -13.1L19.35 -13.3M3.15,-3.15L2.6 -2L4.3 -1.5Q3 -0.05 1 -0.3L-0.55 -0.6L-4.35 -0.9Q-6 -0.95 -7.5 -1.65L-3.7 -1.9L-4.75 -4.1L-1.95 -2.45L-1.15 -6.55L-0.55 -2.95L0.75 -4.55L0.65 -1.9L3.05 -4.1L3.15 -3.15M-14.7,-24.5L-13.9 -22.85L-13.85 -22.75L-13.45 -20.9L-14.5 -22.75L-14.85 -24.25L-14.7 -24.5M-4.55,-7.9L-4.8 -8.45L-4.55 -7.9M-5.05,-8.9L-4.8 -8.45L-5.05 -8.9" />
</g>
</svg>
