<?xml version="1.0" encoding="utf-8"?>
<svg version="1.1" id="Layer_1"
xmlns="http://www.w3.org/2000/svg"
xmlns:xlink="http://www.w3.org/1999/xlink"
width="14px" height="14px"
xml:space="preserve">
<g id="885" transform="matrix(1, 0, 0, 1, -0.05, -5.85)">
<path style="fill:#000000;fill-opacity:1" d="M11.65,9.15L10.05 10.3L9.4 11.9L11.35 11.1L12.25 10L13.9 10.6L13.95 12.05L13.2 13.25L10.8 15.1Q9.65 16.05 8.05 16.55L8 16.6Q7.75 17.45 8.4 17.85L8.5 19L7.75 19.65L6.35 19.5L5.5 19Q4.6 19.65 3.5 19.3Q2.3 19 1.55 17.8Q1 15.6 3 14.6L2.5 12.7L1.95 14.05L1.9 14.1Q0.75 14.65 0.1 13.7Q0 12.95 0.25 12.3Q0.5 11.45 1.2 10.95Q2.75 9.95 4.2 10.3L4.75 11.9L4.9 11.7Q5.8 10.8 6.8 10.7L7.3 9.4Q7.95 8.1 9.2 7.7L10.1 5.9L11.25 5.85Q12.4 6.45 11.9 7.75Q11.65 8.45 11.65 9.15" />
</g>
</svg>
