<?xml version="1.0" encoding="utf-8"?>
<svg version="1.1" id="Layer_1"
xmlns="http://www.w3.org/2000/svg"
xmlns:xlink="http://www.w3.org/1999/xlink"
width="55px" height="51px"
xml:space="preserve">
<g id="463" transform="matrix(1, 0, 0, 1, 2.95, 12.7)">
<path style="fill:#FFCC00;fill-opacity:1" d="M15.65,-8.6Q17.15 -9.6 19.3 -10.2Q22.8 -11.15 26.4 -10.9L23.6 -11.5L20.35 -11.5L18.5 -10.9L16.65 -9.85L15.65 -8.6M16.65,-11.35Q18.05 -12.25 19.7 -12.55L20.25 -12.7L23.9 -12.65Q25.75 -12.6 27.25 -11.65Q28.3 -11.05 27.8 -9.95L24 -9.75Q20.2 -9.8 17 -8Q15.8 -7.3 14.95 -6.25Q14.45 -5.65 13.9 -6.15L13.85 -6.4Q13.8 -7.4 14.15 -8.35Q14.55 -9.55 15.45 -10.4L16.65 -11.35M19.8,-0.7L22.25 -1.5Q24.5 -2.2 26.45 -2.3L24.8 -2.95L21.9 -3.15L20.75 -2.55L19.9 -1.55L19.8 -0.7M19.4,-3.35Q20.4 -4.35 21.7 -4.6L25.35 -4.3Q27.15 -3.6 28.55 -2.35Q29.5 -1.5 29.25 -0.3Q28.45 0.35 27.35 -0.1Q23.95 -1.45 20.75 0.45L19.3 1.65Q18.8 1.6 18.65 1.15Q18.35 0.2 18.35 -0.8Q18.3 -2.3 19.4 -3.35M41.55,-3.6Q42 -4.3 42.85 -4.55L45.25 -5L45.35 -5.05Q47.7 -4.95 49.25 -3Q50.7 -1.1 50.85 1.2Q50.95 2.75 49.85 3.55L47.95 0.65Q45.9 -2.6 41.95 -3.15Q41.55 -3.2 41.55 -3.6M46.8,-3.3L46.25 -3.2L45.8 -3.3L45.6 -3.3Q46.35 -2.85 47.15 -2.55Q48.05 -2.25 48.4 -1.4Q48.65 -0.7 49.3 -0.35L49 -1.2L48.4 -2.25L47.45 -3.3Q47.25 -3.6 47 -3.55L46.8 -3.3M43,7.8Q41.85 9.15 40.15 8.95Q39.05 6.9 37.45 5.15L34.35 1.7Q33.85 1.15 34.65 0.65Q36.65 -0.6 39 -0.95Q42.05 -0.2 43.5 2.45Q45.05 5.35 43 7.8M40.85,7.5Q42.1 7.45 42.55 6.1Q42.95 4.95 42.6 3.8Q42.1 1.9 40.35 0.7L39.5 0.55Q39.25 1.05 38.65 0.95L37.4 0.95Q36.55 1.1 35.95 1.55L35.75 1.7L37.6 3Q38.65 3.7 39.2 4.85L40.5 6.95L40.85 7.5M44.35,15.3Q47.5 16.95 47.95 20.25Q48.5 24.3 45.3 26.65Q43.45 28 41.4 27.75Q47.75 29.35 49.75 23.05Q51 19.3 48.7 16.15Q47.55 14.6 45.55 14.35L45.25 14.6L44.9 14.9L44.5 15.15L44.35 15.3M43.85,13.9Q43.8 13.65 44 13.35Q44.05 13.2 44.25 13.2Q51.35 13.45 51.4 20.65Q51.45 27.1 45.2 29Q41.1 30.25 39.4 26.75Q42.05 26.75 44.4 25.25Q48 23 46.3 19.2Q45.55 17.6 43.9 16.6Q42.8 15.9 42.9 14.75L43.45 14.4Q43.85 14.25 43.85 13.9M32.75,10.45Q34 11.1 34.7 12.2L34.75 12.15L35.1 12.05L35.4 12L34.75 10.05Q33.55 6.35 29.9 6.2Q28.8 6.15 28.5 7.25L28.45 7.5L28.9 7.6Q29.75 7.9 30.25 8.5Q30.75 9.05 30.35 9.7Q29.55 10.2 28.8 9.3Q28.2 8.65 27.3 8.65L23.85 8.65Q23.8 8.25 24.2 8.05Q25.2 7.5 26.35 7.4L27 7.35L27.1 6.9L27.8 5.75Q26.5 5.05 24.6 4.45Q21.1 3.35 19.55 5.85L19.7 5.8L20.6 5.85Q20.95 5.85 21.15 6.2L21.3 6.6L18.9 7.55Q17.7 7.8 17.1 8.85Q16.55 9.85 16.35 11.05L16.6 11.25L16.65 11.4L16.35 11.6L16.55 11.95L16.95 12.55L16.9 12.95Q15.7 13.45 15.35 12.45Q14.25 13.45 13.65 14.95Q12.4 18.05 15.5 18.5L15.8 18.55Q15.5 17.4 16.35 16.8L18.2 20.05Q19.2 21.55 21.1 21.45Q22.5 21.35 23.5 21.85Q20.55 24.75 17.15 21.05L16.7 20.45Q13.6 20.85 12.5 17.35Q11.75 14.9 13.1 12.9Q13.95 11.65 15.15 11.1Q15.15 9.6 15.95 8.25Q16.6 7.25 17.5 6.65L17.6 6.35L18.75 4.55L19.7 3.75L19.3 3.55L16.75 3.7Q15.25 3.75 13.95 4.55Q12.4 5.5 11.55 7L11.1 7.55L11.1 7.7L11.25 8.15L11.25 8.55L11.3 9.25L11.2 9.65L9.9 10.9L8.4 12.85Q7.75 13.8 7.5 14.9Q7.15 16.25 7.2 17.65L7.2 17.8L7.35 17.9L8.5 18.85L9 19.15L9.25 18.65Q9.6 18.1 10.1 17.8Q10.65 18.7 10.15 19.9L10.3 20L10.5 20.35L10.5 20.65L9.75 20.7Q9.4 21.65 9.5 22.75Q9.55 23.6 10.2 24.25L13.7 24.45L13.9 24.45Q14.05 24.45 14.2 24.6L14.2 24.65Q16.35 25.35 19.1 25.3Q22.6 25.25 24.3 22.25Q24.9 21.15 25.95 20.7Q26.25 21.9 25.95 22.95Q27.75 22.7 29.6 21.7Q30.85 21 31.7 19.8Q32 19.35 32.4 19.25L32.7 19.35L32.85 19.5L32.95 19.6L32.9 20.1L33.15 20Q34.55 19.65 34.75 18.3L34.75 17.85L34.65 17.75L34.3 17.5L34.05 17.25L34.05 17.15Q34.85 16.05 34.55 14.75Q34.2 13.05 32.8 11.95Q31.55 11.05 32.75 10.45M35.9,12Q39.75 13.35 41 17.25Q41.9 20 40 22.3Q37.5 25.3 34.3 23.75L33.65 23.7Q32.4 23.5 31.4 22.75L31.25 22.6L30.4 23.15Q28.05 24.5 25.35 24.05Q24.6 25.05 23 25.95Q20 27.65 16.55 26.9Q14.45 26.45 13.85 24.95Q11.2 27.25 8.8 23.75Q8.1 22.7 8.3 21.35L8.5 20.4Q7.5 19.9 6.6 18.8Q5.55 17.45 5.8 15.7Q6.3 12.7 8.3 10.45L10.05 8.65Q9.75 8.05 10.1 7.4Q10.65 6.35 11.35 5.45Q12.45 4.05 14.05 3.25Q15.4 2.6 16.75 2.25L18.2 2.3L18.25 2.2L18.4 2.1L18.7 2L18.95 2L18.95 1.95Q19.45 2.15 19.9 2.45L20.65 2.8L21.1 3.15L22.45 2.95L25.25 3.25Q26.6 3.75 27.75 4.65L28.25 5.25L29.6 4.5Q32.15 4.2 33.75 6.1Q35.25 7.8 36 10Q36.4 11.15 35.9 12M27.25,13.1L27.2 13.15L24.35 14.35L24 14.55L23.3 14.45L23.25 14.35Q23.25 13.9 23.5 13.55L24.05 12.95L24.15 12.9L24.8 12.55L25 12.45L26.65 12.5Q27.25 12.55 27.25 13.1M35.25,13.6Q35.8 15.6 35.9 17.7Q35.95 19 35.45 20.15L33.25 21.5L32.65 21.75L32.95 22Q33.6 22.55 34.55 22.4Q35.65 22.25 35.85 23.05L35.55 23.35Q38.25 22.4 39.45 19.4Q40.45 16.85 38.15 14.8Q36.55 13.4 34.9 12.55L35.25 13.6M2.4,3.2L2.7 3.25L3.05 3.65L1.2 6.45Q0.05 8.05 -0.2 10.05Q-0.4 11.55 -1.05 12.7Q-3.35 12.15 -2.9 9.6Q-2.5 7.1 -0.75 5.05Q0.35 3.75 1.85 3.15L2.4 3.2M10.45,30.25L9.25 29.25L8.95 29.2Q9.05 30.55 10.15 31.45Q11.25 32.35 12.7 32.45Q13.7 32.5 14.45 31.8Q12.3 31.8 10.45 30.25M11.05,33.6Q8.15 32.95 7.65 30.1Q7.45 28.8 8.1 27.65Q8.3 27.3 8.65 27.25L11.05 29.25Q12 30.05 13.25 30.05L15.9 30.45Q16.05 34.75 11.05 33.6M32.1,26.1Q31.95 25.85 31.8 25.95Q30.4 27.1 28.65 27.8L25.4 28.75L23 29.4Q25.2 32.65 29.45 31.15Q31.7 30.35 32.35 28.1Q32.6 27.1 32.1 26.1M31.8,34.65Q31.15 35.4 30.3 35.75L28.5 36.35L27.4 36.55Q28.9 37.9 30.7 36.8L31.75 35.85L32 34.9Q32 34.55 31.8 34.65M32.2,33.15Q32.75 33.4 32.85 34.05L32.95 35.3L32.95 36.15Q31.1 39.15 27.6 37.85Q26.3 37.35 25.7 35.95Q25.6 35.75 25.75 35.6Q28.4 35.9 30.55 34.15L32.2 33.15M27.7,26.75Q30.05 26 31.8 24.4Q35.75 27.55 31.65 31.1Q28.3 34 24 32.15Q21.35 31.05 21.3 28.45L27.7 26.75" />
<path style="fill:#FFFF00;fill-opacity:1" d="M16.65,-9.85L18.5 -10.9L20.35 -11.5L23.6 -11.5L26.4 -10.9Q22.8 -11.15 19.3 -10.2Q17.15 -9.6 15.65 -8.6L16.65 -9.85M19.9,-1.55L20.75 -2.55L21.9 -3.15L24.8 -2.95L26.45 -2.3Q24.5 -2.2 22.25 -1.5L19.8 -0.7L19.9 -1.55M47,-3.55Q47.25 -3.6 47.45 -3.3L48.4 -2.25L49 -1.2L49.3 -0.35Q48.65 -0.7 48.4 -1.4Q48.05 -2.25 47.15 -2.55Q46.35 -2.85 45.6 -3.3L45.8 -3.3L46.25 -3.2L46.8 -3.3L47 -3.55M40.5,6.95L39.2 4.85Q38.65 3.7 37.6 3L35.75 1.7L35.95 1.55Q36.55 1.1 37.4 0.95L38.65 0.95Q39.25 1.05 39.5 0.55L40.35 0.7Q42.1 1.9 42.6 3.8Q42.95 4.95 42.55 6.1Q42.1 7.45 40.85 7.5L40.5 6.95M44.5,15.15L44.9 14.9L45.25 14.6L45.55 14.35Q47.55 14.6 48.7 16.15Q51 19.3 49.75 23.05Q47.75 29.35 41.4 27.75Q43.45 28 45.3 26.65Q48.5 24.3 47.95 20.25Q47.5 16.95 44.35 15.3L44.5 15.15M32.8,11.95Q34.2 13.05 34.55 14.75Q34.85 16.05 34.05 17.15L34.05 17.25L34.3 17.5L34.65 17.75L34.75 17.85L34.75 18.3Q34.55 19.65 33.15 20L32.9 20.1L32.95 19.6L32.85 19.5L32.7 19.35L32.4 19.25Q32 19.35 31.7 19.8Q30.85 21 29.6 21.7Q27.75 22.7 25.95 22.95Q26.25 21.9 25.95 20.7Q24.9 21.15 24.3 22.25Q22.6 25.25 19.1 25.3Q16.35 25.35 14.2 24.65L14.2 24.6Q14.05 24.45 13.9 24.45L13.7 24.45L10.2 24.25Q9.55 23.6 9.5 22.75Q9.4 21.65 9.75 20.7L10.5 20.65L10.5 20.35L10.3 20L10.15 19.9Q10.65 18.7 10.1 17.8Q9.6 18.1 9.25 18.65L9 19.15L8.5 18.85L7.35 17.9L7.2 17.8L7.2 17.65Q7.15 16.25 7.5 14.9Q7.75 13.8 8.4 12.85L9.9 10.9L11.2 9.65L11.3 9.25L11.25 8.55L11.25 8.15L11.1 7.7L11.1 7.55L11.55 7Q12.4 5.5 13.95 4.55Q15.25 3.75 16.75 3.7L19.3 3.55L19.7 3.75L18.75 4.55L17.6 6.35L17.5 6.65Q16.6 7.25 15.95 8.25Q15.15 9.6 15.15 11.1Q13.95 11.65 13.1 12.9Q11.75 14.9 12.5 17.35Q13.6 20.85 16.7 20.45L17.15 21.05Q20.55 24.75 23.5 21.85Q22.5 21.35 21.1 21.45Q19.2 21.55 18.2 20.05L16.35 16.8Q15.5 17.4 15.8 18.55L15.5 18.5Q12.4 18.05 13.65 14.95Q14.25 13.45 15.35 12.45Q15.7 13.45 16.9 12.95L16.95 12.55L16.55 11.95L16.35 11.6L16.65 11.4L16.6 11.25L16.35 11.05Q16.55 9.85 17.1 8.85Q17.7 7.8 18.9 7.55L21.3 6.6L21.15 6.2Q20.95 5.85 20.6 5.85L19.7 5.8L19.55 5.85Q21.1 3.35 24.6 4.45Q26.5 5.05 27.8 5.75L27.1 6.9L27 7.35L26.35 7.4Q25.2 7.5 24.2 8.05Q23.8 8.25 23.85 8.65L27.3 8.65Q28.2 8.65 28.8 9.3Q29.55 10.2 30.35 9.7Q30.75 9.05 30.25 8.5Q29.75 7.9 28.9 7.6L28.45 7.5L28.5 7.25Q28.8 6.15 29.9 6.2Q33.55 6.35 34.75 10.05L35.4 12L35.1 12.05L34.75 12.15L34.7 12.2Q34 11.1 32.75 10.45Q31.55 11.05 32.8 11.95M26.65,12.5L25 12.45L24.8 12.55L24.15 12.9L24.05 12.95L23.5 13.55Q23.25 13.9 23.25 14.35L23.3 14.45L24 14.55L24.35 14.35L27.2 13.15L27.25 13.1Q27.25 12.55 26.65 12.5M34.9,12.55Q36.55 13.4 38.15 14.8Q40.45 16.85 39.45 19.4Q38.25 22.4 35.55 23.35L35.85 23.05Q35.65 22.25 34.55 22.4Q33.6 22.55 32.95 22L32.65 21.75L33.25 21.5L35.45 20.15Q35.95 19 35.9 17.7Q35.8 15.6 35.25 13.6L34.9 12.55M14.45,31.8Q13.7 32.5 12.7 32.45Q11.25 32.35 10.15 31.45Q9.05 30.55 8.95 29.2L9.25 29.25L10.45 30.25Q12.3 31.8 14.45 31.8M32.35,28.1Q31.7 30.35 29.45 31.15Q25.2 32.65 23 29.4L25.4 28.75L28.65 27.8Q30.4 27.1 31.8 25.95Q31.95 25.85 32.1 26.1Q32.6 27.1 32.35 28.1M32,34.9L31.75 35.85L30.7 36.8Q28.9 37.9 27.4 36.55L28.5 36.35L30.3 35.75Q31.15 35.4 31.8 34.65Q32 34.55 32 34.9" />
</g>
</svg>
