<?xml version="1.0" encoding="utf-8"?>
<svg version="1.1" id="Layer_1"
xmlns="http://www.w3.org/2000/svg"
xmlns:xlink="http://www.w3.org/1999/xlink"
width="15px" height="17px"
xml:space="preserve">
<g id="1088" transform="matrix(1, 0, 0, 1, 2.85, 36.55)">
<path style="fill:#3A3A3A;fill-opacity:1" d="M3.65,-26.7L3.35 -26.25Q3.05 -26 2.75 -25.9L2.6 -26.15L2.5 -26.55L2.65 -26.9Q3.3 -27.1 3.65 -26.7M6.45,-28.65L6.8 -28.5Q7 -28.2 6.8 -27.85L6.1 -27.35L6 -27.45L5.9 -27.6L5.85 -27.75L5.8 -27.8L5.85 -28.1L6.1 -28.45L6.45 -28.65M0.35,-30.4Q0.2 -29.6 -0.7 -29.9L-0.7 -30.25L-0.7 -30.6L-0.7 -30.85L-0.55 -31L-0.4 -31.1L-0.25 -31.15L0.05 -31.1Q0.45 -30.85 0.35 -30.4" />
<path style="fill:#3A3A3A;fill-opacity:0.2" d="M5.65,-36.5L5.9 -36.35L6.1 -36.2L6.1 -36.1L6.1 -35.95L6.05 -35.75L5.9 -35.5Q5.4 -35.3 5.15 -35.7Q4.9 -36.05 5.1 -36.35L5.35 -36.5L5.65 -36.5M5.4,-36.15L5.35 -36.1L5.3 -36L5.3 -35.9Q5.4 -35.75 5.6 -35.75L5.8 -35.9L5.7 -36.05L5.45 -36.15L5.4 -36.15M11.3,-25.05L11.45 -25Q11.6 -25 11.7 -25.15L11.75 -25.4L11.65 -25.55L11.4 -25.55L11.3 -25.4L11.25 -25.25L11.3 -25.1L11.3 -25.05M11.85,-24.9L11.15 -24.85Q10.6 -25.5 11.4 -25.9Q12.35 -25.75 11.85 -24.9M10.55,-21.7Q10.05 -21 9.8 -21.7Q9.5 -22.45 10.2 -22.85Q11.2 -22.6 10.55 -21.7M8.5,-20.35L8.6 -19.95L8.55 -19.9L8.45 -19.75L8.3 -19.65Q7.9 -19.9 7.9 -20.45L7.95 -21.3L8.25 -21.6L8.5 -21L8.5 -20.35M-2.3,-27.9Q-1.45 -27.9 -1.85 -27.15Q-2.1 -26.65 -2.6 -27Q-3 -27.3 -2.75 -27.75L-2.65 -27.8L-2.55 -27.85L-2.4 -27.9L-2.3 -27.9M-2.55,-27.35L-2.55 -27.25L-2.55 -27.2Q-2.4 -27.05 -2.15 -27.2L-2 -27.4L-2 -27.5L-2.3 -27.55L-2.4 -27.55L-2.5 -27.5L-2.55 -27.5L-2.55 -27.35" />
<path style="fill:#666666;fill-opacity:0.2" d="M5.45,-36.15L5.7 -36.05L5.8 -35.9L5.6 -35.75Q5.4 -35.75 5.3 -35.9L5.3 -36L5.35 -36.1L5.4 -36.15L5.45 -36.15M11.3,-25.1L11.25 -25.25L11.3 -25.4L11.4 -25.55L11.65 -25.55L11.75 -25.4L11.7 -25.15Q11.6 -25 11.45 -25L11.3 -25.05L11.3 -25.1M-2.55,-27.5L-2.5 -27.5L-2.4 -27.55L-2.3 -27.55L-2 -27.5L-2 -27.4L-2.15 -27.2Q-2.4 -27.05 -2.55 -27.2L-2.55 -27.25L-2.55 -27.35L-2.55 -27.5" />
<path style="fill:#1E1E1E;fill-opacity:1" d="M2.25,-26.75Q2.4 -27.25 2.9 -27.4L2.95 -27.4Q3.8 -27.5 4.05 -26.75Q4.3 -26 3.55 -25.6L2.7 -25.5L2.4 -25.85Q2.1 -26.25 2.25 -26.75M2.65,-26.9L2.5 -26.55L2.6 -26.15L2.75 -25.9Q3.05 -26 3.35 -26.25L3.65 -26.7Q3.3 -27.1 2.65 -26.9M6.1,-28.45L5.85 -28.1L5.8 -27.8L5.85 -27.75L5.9 -27.6L6 -27.45L6.1 -27.35L6.8 -27.85Q7 -28.2 6.8 -28.5L6.45 -28.65L6.1 -28.45M6.65,-29.15Q8.2 -28.9 7.4 -27.55Q6.75 -26.45 5.9 -27.3Q5.25 -28 5.9 -28.7L6.65 -29.15M0.05,-31.1L-0.25 -31.15L-0.4 -31.1L-0.55 -31L-0.7 -30.85L-0.7 -30.6L-0.7 -30.25L-0.7 -29.9Q0.2 -29.6 0.35 -30.4Q0.45 -30.85 0.05 -31.1M-1,-30.9Q-0.8 -31.4 -0.3 -31.5Q1.2 -31.15 0.35 -29.85Q0 -29.35 -0.55 -29.65Q-1.35 -30 -1 -30.9" />
</g>
</svg>
