<?xml version="1.0" encoding="utf-8"?>
<svg version="1.1" id="Layer_1"
xmlns="http://www.w3.org/2000/svg"
xmlns:xlink="http://www.w3.org/1999/xlink"
width="63px" height="32px"
xml:space="preserve">
<g id="382" transform="matrix(1, 0, 0, 1, -65.2, 12.45)">
<path style="fill:#0B0B0B;fill-opacity:0.8" d="M94.5,-2.2Q94.9 -1 95.95 -0.3Q96.45 0.15 98.35 1.05Q100.2 1.95 100.65 2.35L102.25 3.95Q103.15 4.8 103.95 4.95Q107.5 5.6 108.4 6.15Q108.9 6.45 108.9 7.4Q108.9 7.9 108.35 8.35L106.9 8.8L103.05 8.35L99.45 8.7L96 9Q93.7 9 93.4 7.65L93.5 5.9Q92.6 3.25 92.6 2.65L93.2 0.35L93 0L92.8 -0.4L92.9 -2.45Q94.35 -2.75 94.5 -2.2M85.3,-1.95Q85.7 -1.45 85.1 0.9L86.45 2.8Q87.8 4.5 87.8 5.75Q87.8 6.65 87.2 7.8Q86.35 9.35 85 9.35L84 9.2L83 9Q81.95 9 81.5 8.2Q81 7.35 80.15 7.35Q79.4 7.35 78.75 7.7L77.9 8.3L76.3 8.3L74.05 6.8Q72.25 5.4 72.25 4.75Q72.25 4.05 75.15 2.1Q77.8 0.35 79.85 -0.55Q84.75 -2.75 85.3 -1.95M89.5,14.85L89.75 15.9Q89.75 16.5 88.3 17.7Q86.65 19.05 85.1 19.05Q83.4 19.05 82.65 17.8Q82.15 16.45 81.85 16.2L79.8 15.2Q77.85 14.15 77.85 13.8Q77.85 13.2 78.5 12.7Q79.1 12.25 79.75 12.25L82.95 12.8Q85.75 13.4 86.25 13.9Q89.1 14.55 89.5 14.85M69.65,7.45Q70.95 8.35 73.5 11.3Q75.9 14.1 75.9 14.5Q75.9 15.2 74.55 15.2L73.25 15.05L71.7 14.85L71.1 14.7L68.85 14.5Q67.45 14.5 66.2 12.75Q65.2 11.4 65.2 10.9Q65.2 10.55 66.8 8.6Q68.6 6.4 69.85 6.25Q69.95 6.65 69.65 7.45" />
<path style="fill:#0B0B0B;fill-opacity:0.6" d="M99.8,-11Q101.4 -11.1 104.05 -12.2Q105.55 -12.85 105.55 -11.85Q105.55 -10.2 103.95 -9.15L102.15 -9Q100.2 -9 99.95 -9.4Q99.75 -9.65 99.8 -11M109.35,-11.55L111.8 -10.95L115.55 -11.45Q116.3 -11.45 117.7 -7.85Q117.7 -6.65 117.15 -5.35Q116.35 -3.45 114.75 -3.45Q111.75 -3.45 108.35 -5.45Q105.1 -7.35 105.1 -8.7L105.75 -9.95L106.9 -11.25Q108 -11.95 109.35 -11.55M123.25,10.1L121.65 8.4Q121.65 7.55 124.6 7.85Q127.55 8.15 127.55 9.75Q127.55 10.45 127.05 11Q126.5 11.6 125.8 11.6Q125 11.6 123.25 10.1M109.8,18Q107.4 18 105.25 15.95Q103.55 14.3 103.55 13.65Q103.55 12.15 107.55 13.4Q111.55 14.6 111.55 16Q111.55 16.65 111.15 17.25Q110.65 18 109.8 18" />
</g>
</svg>
