<?xml version="1.0" encoding="utf-8"?>
<svg version="1.1" id="Layer_1"
xmlns="http://www.w3.org/2000/svg"
xmlns:xlink="http://www.w3.org/1999/xlink"
width="17px" height="25px"
xml:space="preserve">
<g id="613" transform="matrix(1, 0, 0, 1, -4.5, -0.95)">
<path style="fill:#000000;fill-opacity:0.498039" d="M5.1,22.8Q5.5 22.5 6.25 22.3L8.15 21.95L10.55 21.8L13.95 22.1L14.8 22.3Q16.6 22.8 16.6 23.5Q16.6 24.2 14.8 24.7L10.55 25.2L6.25 24.7Q4.5 24.2 4.5 23.5Q4.5 23.1 5.1 22.8" />
<path style="fill:#000000;fill-opacity:1" d="M21,8.2L21.1 8.1L21 8.05L21 8.2M20.7,8.05L18.95 7.95L18.35 7.75L18.55 10L19.65 8.65L20.55 8.5L20.7 8.05M21.2,5.35L21.25 5.95L19 6.05L18.55 6.25L18.25 6.75L18.25 7.5L19.2 7.6L20.45 7.55Q21.2 7.65 21.4 8.3L20.25 8.9L20.2 9.4L18.65 11.2L18.7 11.7L18.65 11.9L18.95 12.2L19 12.4L19.75 13.9L19.5 14.75L18.55 15.75L18.25 15.95L17.85 16.05L17.65 16.95L17.4 17.45L16.7 17.85L16.2 17.65L14.6 19.7L13.65 19.45L13.2 20.15Q12.95 20.35 13.45 20.45L13.25 21.55L13.15 23.35Q13.2 24.5 12.4 25.05L11.45 25.15L11.1 24.95L9.65 25.05L9.45 24.4L8.95 25.05L5.85 23.05L5.6 22.85L5.4 22.45L4.9 21.9L5.65 21.1L7.05 21L8.15 21.75L9.25 18.75L8.7 16.45L9.45 16.95L11.55 15.75L11.55 15.5L10.7 15.15L11.15 13.35L11.85 13.45L12.15 13.35L12.9 11.8L12.75 11.05L13.35 8.7L13.3 7.95L13.65 7.75L14.7 6.95L14.85 6.95L14.5 6.7L13.85 5.75L13.65 4.9L13.85 3.8L13.55 3.3L13.85 2.6L14.15 2.4L14.55 1.85L16.55 1L17.15 0.95L18.2 1.1L18.95 1.95L19.05 3.05L18.9 4.6L19.05 5.15L20.7 4.95L21.2 5.35" />
</g>
</svg>
