<?xml version="1.0" encoding="utf-8"?>
<svg version="1.1" id="Layer_1"
xmlns="http://www.w3.org/2000/svg"
xmlns:xlink="http://www.w3.org/1999/xlink"
width="16px" height="28px"
xml:space="preserve">
<g id="1013" transform="matrix(1, 0, 0, 1, -1.15, -0.05)">
<path style="fill:#D9E9FF;fill-opacity:1" d="M12.4,3.3L13.5 3.45L13.55 3.5L12.3 3.75L12.2 3.85Q13.8 4.7 13 6.3Q12.75 6.75 13.1 7.15L13.25 7.4Q14.25 7.9 13.65 9.4Q13.4 9.95 14.15 10.3Q15.05 10.65 14.2 11.05L13.25 11.25L13.5 12.7L13.7 13.05L13.8 13.15L12.45 13.9Q12.85 15.15 12.3 15.6L12.45 15.7L12.25 15.9L12.25 15.95L12.4 16.1L12.85 16.15L12.95 16.15L12.95 15.6Q12.9 15.05 13.25 14.8L13.55 14.65L16.2 15L16.25 15.05L16.3 15.1L16.25 15.3L16.2 15.45L16.15 15.5L14.1 15.05L13.4 15.15Q13.7 16.55 12.5 16.45Q11.5 16.35 11.95 15.75L10.6 15.6L10.55 15.65Q9.25 15.85 8.45 17.3L8.35 17.6L9.35 17.8L9.35 17.9L9.25 18.25Q10.75 19.35 12.6 19.6L12.65 19.8L12.75 21.55L12.85 21.65L12.9 21.65L12.75 21.7L12.75 22.15Q13.7 22.7 13.05 24.05L13.05 24.1Q14.75 24.1 14.3 26.15Q15.15 25.1 15.55 23.65Q15.85 22.5 16.8 22.5Q15.45 24.05 14.9 26.05Q14.7 26.7 14.1 26.45Q13.8 26.35 13.8 25.9L13.85 24.65Q11.9 24.65 12.8 22.75Q12.9 22.5 12.6 22.45L11.9 22.05Q11.2 22.35 10.45 22.75Q10.8 23.2 10.45 23.7L10.1 24.2L12 25.9L12.3 26.45L12.3 26.6Q11 27.6 9.5 27.9L9.5 27.85Q10.25 27.2 11.25 26.6L11.6 26.45L9.85 24.15Q9.65 23.9 9.85 23.65L10.2 23.2Q9.45 22.2 11.45 21.7L12.35 21.45Q12.2 21 12.2 20.45L12.25 19.6Q9.95 19.75 8.7 18.2Q7.8 17.95 7.95 17.3Q6.65 15.65 4.45 15.8Q4.3 16.75 4.65 17.65Q7.2 17.85 6.1 19.95Q6 20.2 6.25 20.45Q8.25 22.4 5.9 24.15Q4.65 24 3.8 25Q4.85 26.2 5.4 27.75L5.15 27.95L3.5 24.6Q3.4 24.45 3.65 24.25Q4.3 23.8 5 23.7L5.5 23.75L6.5 22.75L7 22.2Q5.1 20.65 5.9 18.65Q6 18.35 5.65 18.35Q4.85 18.3 4.6 18L1.15 17.95Q1.6 17.15 1.15 16.35Q2.05 16.25 1.8 17.5L4.2 17.65Q3.3 14.95 5.8 15.55L7.75 16.25L7.65 14.65Q5.35 15 4.25 13L4.45 12.9Q5.75 12.5 6.45 11.55Q5.8 11 6.1 10.3L6.5 9.95L7 10.1L7 10.05Q7.1 7.65 4.6 8.35L3.55 8.3L4.25 7.85Q3.7 7.5 4.1 6.35L4.65 5.75Q4.25 4.6 3.35 4.15L3.45 4.15Q4.75 4.4 5.1 5.75L5.15 5.8Q3.95 6.4 4.4 7.7L4.45 7.8L5.05 7.55L5.95 7.65Q5.6 7.6 6.65 8.2Q7.25 8.55 7.3 9.25Q7.45 10.35 8 11.3L9.6 11.35L9.8 10.4Q9.65 9.5 9.9 8.6L10.3 8.05Q11.05 7.5 12 7.3L11.95 7.1L12.75 7.2L12.8 7.2Q12.25 6 12.6 4.7L12.4 4.35Q11.35 3.85 12.4 3.3M10.7,1.65Q9.7 1.85 9.25 0.6L9.2 0.55Q8.25 1.55 8.15 3.1L8.15 3.15L8.2 3.2L8.15 3.2L8.15 3.65Q8.45 4.8 9.25 5.7Q10.2 6.75 9.25 7.5Q9.3 5.6 7.8 3.85Q7.45 3.45 7.75 3Q7.05 2.8 6.55 3.45Q5.9 4.25 4.95 3.45Q4.2 2.8 4.9 2.3Q5.2 2.25 5.3 2.5L5.3 2.55L5.15 2.7L4.95 2.8Q5.25 3.75 6.35 3.45Q6.95 2.25 7.85 2.9L7.85 2.85Q8.3 2.3 8.25 1.45Q8.25 0.5 9.1 0.05L10.7 1.6L10.7 1.65M13.05,7.8L12.5 7.7Q11.1 7.95 10.05 8.85Q10.3 10.5 9.65 11.9Q9.4 12.5 8.8 12.35Q7.45 12.15 7.05 10.75L7 10.25Q6.15 10.65 6.6 11.85L6.5 12.3Q5.85 12.95 4.75 13.2L4.55 13.3Q6.2 14.6 8.25 14.2L8.4 14.8L8.55 15.35L11.85 15.2Q12.35 15.2 12.15 14.7Q11.6 13.4 13.15 13.1Q12.65 12.5 12.95 11.75L13.15 11.25L12.45 11.15L12.1 11.6L11.95 12.15Q11.2 11.55 12.45 10.9L13.4 10.8L14.2 10.65Q12.4 9.9 13.2 8L13.05 7.8M7.75,14.65Q8.2 15.7 8.1 16.95L8.55 16.3Q8.85 15.9 9.25 15.65Q7.9 16.05 7.95 14.6L7.75 14.65M12.25,21.9L12.7 22.1L12.5 21.8L12.25 21.9" />
</g>
</svg>
