<?xml version="1.0" encoding="utf-8"?>
<svg version="1.1" id="Layer_1"
xmlns="http://www.w3.org/2000/svg"
xmlns:xlink="http://www.w3.org/1999/xlink"
width="22px" height="14px"
xml:space="preserve">
<g id="898" transform="matrix(1, 0, 0, 1, 2.15, -7.35)">
<path style="fill:#000000;fill-opacity:1" d="M12.4,9.6Q13.45 9.8 14.3 10.55L14.5 10.85Q15.5 11.65 16.65 12.05Q17.45 12.25 17.85 12.9L18.45 13.1Q19.2 13.8 19 14.75L18.35 15.6Q17.8 15.65 17.4 16.25L16.4 16.9L15.2 17.1Q14.3 16.95 13.7 16.2L13.15 15.2L12.2 15.35Q11.7 16.1 11.9 17.2L12 17.35L13.35 18.1Q14.2 17.75 15.15 18.1Q15.95 18.95 15.15 19.95L14.75 20.55L13.65 20.6L11.5 19.75L10.6 19.2L9.8 18.75L9.4 18.35L9.35 18.35Q8.9 17.25 9.6 16.05L9.8 15.4Q9.4 15 8.2 15.1L5.9 14.95Q4.95 14.25 3.85 14.05L1.6 13.35L0.8 13.05L0.25 13Q-0.75 13.85 -1.95 13.15Q-2.4 12.25 -1.85 11.45L-1 10.2L-0.6 9.7L1 9.85L2.9 10.75L4.4 11.25Q5.2 11.45 4.85 11.15L2.65 9.95Q1.85 10.1 1.25 9.65Q0.8 9.05 1.1 8.35Q1.5 7.8 2.1 7.5L3.2 7.4L4.8 8.25L6.05 8.85L7.95 9.75Q8.5 9.9 9.1 10.2L10.5 9.7L12.4 9.6" />
</g>
</svg>
