<?xml version="1.0" encoding="utf-8"?>
<svg version="1.1" id="Layer_1"
xmlns="http://www.w3.org/2000/svg"
xmlns:xlink="http://www.w3.org/1999/xlink"
width="40px" height="8px"
xml:space="preserve">
<g id="738" transform="matrix(1, 0, 0, 1, 31.5, -14.95)">
<path style="fill:#000000;fill-opacity:0.498039" d="M8.1,20.35Q8.1 21.1 3.15 21.55L-8.95 22L-20.85 21.35Q-25.8 20.75 -25.8 20Q-25.8 19.25 -20.85 18.75L-8.95 18.3L3.15 18.95Q8.1 19.6 8.1 20.35M-31.4,19.85L-31.4 19.75Q-31.4 19.4 -30.7 19.1Q-30 18.8 -28.9 18.75L-27.1 19L-26.6 19.2Q-26.3 19.35 -26.3 19.55L-26.35 19.85L-27.1 20.2L-28.9 20.5L-30.2 20.45L-30.7 20.3L-31.4 19.85" />
<path style="fill:#000000;fill-opacity:1" d="M4.35,18.05Q5 18.15 5.35 18.75L5.85 19.4L8.4 19.4L8.45 19.45L8.5 19.85L8.5 20.2L8.45 20.55L8.45 20.6L5.55 20.7L2.6 20.75Q-0.55 21.1 -2.85 19.35Q-4.1 19.5 -5.15 20.2L-6.85 20.45L-6.9 20.35Q-6.9 19.05 -5.85 18.15Q-4.85 17.25 -3.5 17.45L-1.5 18.05L-0.45 18.35L1 18.5Q1 19.15 2.05 19.7L2.45 19.6L2.6 19.15L2.9 18.9L3.1 18.95L3.25 18.8L4.25 18.1L4.35 18.05M-11.45,15.7L-10.95 15.4L-10.45 15.65L-9.8 16.4L-9.35 17.2Q-8.65 17.45 -8.1 18Q-7.75 18.35 -7.65 18.85L-7.65 20.1Q-7.75 20.25 -7.95 20.25L-12.85 20.85L-18.3 20.3L-25.4 19.85Q-25.35 19.2 -24.9 18.75Q-23.8 17.75 -22.45 17.8L-22.7 16.85Q-22.9 15.95 -22.45 15.15L-22.35 15.05Q-20.9 14.75 -20.05 15.6L-19.7 16.1L-19.4 17.2Q-17.55 16.25 -15.6 16.75L-15.25 16.75Q-13.5 16 -11.9 16.25L-11.85 16.15L-11.45 15.7M-27.65,15.75Q-25.35 16.55 -26.35 18.95L-26.85 19.7Q-27.65 20.5 -29 20.3L-29.35 20.3Q-31.55 20.5 -31.5 18.6L-28.65 18.3Q-28.25 18.2 -28.25 17.7Q-28.25 16.6 -27.65 15.75" />
</g>
</svg>
