<?xml version="1.0" encoding="utf-8"?>
<svg version="1.1" id="Layer_1"
xmlns="http://www.w3.org/2000/svg"
xmlns:xlink="http://www.w3.org/1999/xlink"
width="69px" height="25px"
xml:space="preserve">
<g id="1225" transform="matrix(1, 0, 0, 1, 39.75, 9.45)">
<path style="fill:#C9EBFF;fill-opacity:0.988235" d="M17.5,-6.7L17.25 -5.9L18.1 -6L20.45 -3.9L20.25 -3.3L20.3 -2.85Q21.8 -2.85 22.3 -2.15L23.3 -0.9L23.95 -0.95L24.85 -1.55Q25.4 -1.95 25.6 -2.5L25.75 -4.35L26.1 -4.4Q27.1 -4.4 28.4 -2.2L28.2 -2Q27.15 -2.6 26.55 -3.65L26.35 -3.7L25.7 -1.55Q24.95 -0.3 23.2 -0.3Q22.25 -0.3 21.8 -1Q21.35 -1.9 20.85 -2.05Q19.2 -2.55 19.8 -3.85L18.95 -4.7L18.4 -3.8L17.95 -2.75L18.3 -1.9Q18.3 -1.2 18.1 -0.95Q17.8 -0.65 17 -0.65L16.8 -0.7L16.7 -1.35L17.75 -1.4L17.85 -2.2L17.55 -2.65Q17.55 -2.9 18.1 -3.95L18.7 -4.9Q18.3 -5.25 17.95 -5.3L16.95 -5.3Q16.7 -5.4 16.7 -5.8L16.9 -6.7L16.65 -6.9L16.25 -7Q15.45 -7 15 -6.05L14.7 -5Q14.7 -4.25 15 -3.4L15.25 -2.3L15.25 -2.25L15.65 -2.45Q16.3 -2.6 16.55 -1.6L16.6 0.3L19.1 0.6L19.4 1.55L20 2.3L20.65 3.1L20.6 3.25L20.4 3.3Q19.25 3.3 18.9 1.85Q18.6 0.55 16.35 0.85Q16.05 0.55 16.05 -0.1L16.15 -1.15L15.85 -2.05L15.4 -1.5L15.15 -1.45L15.1 -1.5L14.95 -1.25Q14.65 -0.9 13.55 -0.4L13.35 -0.45L14.25 -1.4L14.75 -2.25L14.45 -3.4L14.15 -4.9Q14.15 -6.45 15.85 -7.3Q17.5 -8.1 17.5 -6.7M21.6,5.15Q21.6 5.6 22.25 6.3Q22.85 7 22.85 7.4Q22.85 7.95 21.25 7.85L20.45 7.95L19.8 8.15Q18.3 8.15 18.2 7.65Q18.35 7 18.15 6.6Q17.65 6.95 17.35 7.95L16.7 9.3L15 9.25L14.2 8.5L14.15 7.95L14.4 6.9Q13.55 6.6 13.55 6.1L13.75 5.15L13.95 4.4L13.5 3.25Q13.95 3.3 14.2 3.95L14.4 4.7L14.05 5.7L14.05 6.25Q15.1 6.15 14.95 7L14.7 7.9L15.15 8.6L16.05 8.75Q16.5 8.75 16.85 7.4Q17.2 6 18.1 6Q18.6 6 18.85 6.5L18.95 7.3L18.95 7.35L19.85 7.55L22.2 7.3L21.4 5.95Q21.1 5.6 21.1 5.1Q21.1 4.45 21.35 4.2Q21.65 3.9 22.7 3.9L23.6 4L24 4.2L23.2 4.45L22.15 4.45L21.75 4.95L21.6 5.15M-34.75,-8.75L-34.25 -8.4L-34 -7.9L-34.2 -7.75L-34.7 -8.15L-34.9 -7.85L-35.55 -7.75L-36.4 -7.8L-36.5 -8.45L-36.9 -9.15L-38.15 -9.1L-38.45 -8.5L-37.65 -7.25Q-36.9 -6.05 -36.9 -5.6L-36.95 -5.4Q-37 -5.15 -37.2 -5L-37.3 -4.95L-37.35 -5.1L-37.15 -5.65L-37.95 -7L-38.8 -8.5Q-38.8 -9 -38.25 -9.45L-36.7 -9.45Q-36 -9 -36.1 -8.15Q-35.2 -8.15 -35.05 -8.45L-34.75 -8.75M-22.75,11.9L-23.2 12.4L-23.75 12.7L-23.95 12.7L-24.25 12.4L-25.15 12.6L-25.4 12.85L-25.15 13.5Q-25.15 13.9 -25.9 14.6Q-26.8 15.45 -27.9 15.55L-28.7 15.55L-28.85 14.95L-28.8 14.45L-28.75 14.35L-28.55 14.3Q-28.35 14.5 -28.45 14.7L-28.5 15.15L-28.2 15.2Q-26.9 15.2 -26.1 14.45Q-25.5 13.9 -25.5 13.55L-25.7 12.85Q-25.7 12.25 -25.15 12.15L-23.85 11.9L-23.6 12.1L-22.95 11.6L-22.75 11.9M-37.5,6.6Q-37.9 6.05 -38.05 6.05Q-38.3 6.05 -39.35 7.85L-38.5 8.15L-37.6 8.85L-37.75 9.05L-38.45 8.5L-39.65 8.2L-39.75 7.85Q-39.75 6.75 -38.95 6.05Q-37.95 5.2 -36.5 6.9L-36.5 7.05L-36.65 7.1L-37.5 6.6" />
</g>
</svg>
