<?xml version="1.0" encoding="utf-8"?>
<svg version="1.1" id="Layer_1"
xmlns="http://www.w3.org/2000/svg"
xmlns:xlink="http://www.w3.org/1999/xlink"
width="18px" height="12px"
xml:space="preserve">
<g id="1195" transform="matrix(1, 0, 0, 1, 20.7, -7.65)">
<path style="fill:#A6A6A6;fill-opacity:0.694118" d="M-5.4,9.95Q-6.25 10 -6.75 9.55L-7.1 8.95Q-7.1 7.75 -5.05 7.65Q-3.05 7.5 -3.05 8.35L-3.45 9L-3.05 9.65L-3.7 10.4L-4.85 10.7L-5.4 10.65L-5.4 9.95M-7.5,12.15L-6.8 14.7Q-6.8 15.35 -7.45 16.15Q-8.25 17.15 -9.2 17.15Q-10.35 17.15 -10.55 16.7L-10.55 16.25Q-10.55 15.65 -10.1 15.35L-8.4 14.55Q-8.3 14.8 -8.3 14.4Q-8.3 14.1 -9.55 13.95Q-10.8 13.75 -10.8 13.15Q-10.8 12.55 -9.35 11.8Q-7.9 11.05 -7.5 12.15M-3.3,12.25Q-3.3 12.95 -4.95 12.95Q-5.85 12.95 -5.85 12.45Q-5.85 11.7 -3.9 11.6Q-3.3 11.75 -3.3 12.25M-12.9,11.65L-13.8 12.15L-13.85 12.5L-14.15 12.5Q-15.05 12.5 -15.5 11.05Q-15.5 9.7 -13.75 9.85Q-12 10 -12 10.8Q-12 11.15 -12.9 11.65M-12.9,14.8L-13.05 15.25Q-13.05 16.05 -15.15 17.4Q-17.35 18.8 -18.95 18.8Q-19.65 18.8 -20.2 18.3L-20.7 17.7Q-20.7 17 -18.95 17Q-18 17 -18 16.15L-18.15 15.25Q-18.15 13.3 -15.45 13.05Q-12.75 12.85 -12.75 14.3L-12.9 14.8M-14.7,14L-14.4 14.15L-13.95 14.25L-13.8 14.25Q-13.9 14 -14.7 14M-13.25,18.5L-12.3 18.6L-12.75 18.3Q-11.8 17.2 -11.3 17.1L-10.3 17.25L-9.2 17.75L-9.15 18L-10.1 18.65L-11.4 19.35L-13.05 19.35Q-13.5 19.3 -13.85 18.95L-14.1 18.5L-13.95 18.05L-13.4 17.75L-12.9 18.2L-12.8 18.3Q-13.2 18.3 -13.25 18.45L-13.25 18.5" />
</g>
</svg>
