<?xml version="1.0" encoding="utf-8"?>
<svg version="1.1" id="Layer_1"
xmlns="http://www.w3.org/2000/svg"
xmlns:xlink="http://www.w3.org/1999/xlink"
width="43px" height="47px"
xml:space="preserve">
<g id="373" transform="matrix(1, 0, 0, 1, -12.8, 0)">
<path style="fill:#0B0B0B;fill-opacity:1" d="M12.8,13.15L22.5 0.2L25.55 1.65L16.4 14.7L12.8 13.15M15.3,30.55L26.3 43.25L24.15 46.2L13.4 33.95L15.3 30.55" />
<path style="fill:#0B0B0B;fill-opacity:1" d="M37.1,18.5L37.55 20.2L42.2 15.45Q43.05 16.6 43.4 18.1Q45.55 26.6 40.35 34.85Q36.4 42.55 25.55 45.75L24.2 41.8Q32.35 40.5 37.15 32.2L35.1 30.55L31.25 33Q22.7 32.55 24.3 26.15L30.35 10L35.6 5.75Q37.55 7.05 39.1 8.95L46.55 1.3L54.9 0L53.2 3L55.1 5.35L47.55 6.8L41.75 13.3L37.1 18.5" />
<path style="fill:#BD8051;fill-opacity:1" d="M41.75,13.3Q42.2 14.25 42.2 15.45L37.55 20.2L37.1 18.5L41.75 13.3" />
</g>
</svg>
