<?xml version="1.0" encoding="utf-8"?>
<svg version="1.1" id="Layer_1"
xmlns="http://www.w3.org/2000/svg"
xmlns:xlink="http://www.w3.org/1999/xlink"
width="22px" height="26px"
xml:space="preserve">
<g id="548" transform="matrix(1, 0, 0, 1, 9.1, 29.45)">
<path style="fill:#000000;fill-opacity:1" d="M1.85,-14.1Q2.3 -14.35 2.6 -13.8L2.95 -13.25L3.1 -13.3L3.7 -13.1L3.95 -12.95L4 -13L3.15 -13.75L3.9 -15.15L6.85 -13.3L6.35 -12.1L6.85 -11.05L6.4 -10.45L7.25 -9.2L7.15 -9.1L7.25 -9L7 -8.75L7.55 -7.75L7.55 -7.7Q8.05 -7.75 8.25 -7.9L10.25 -7.7L11.15 -7.45L11.85 -7.15L12.55 -6.45Q12.55 -5.65 11.65 -4.9Q10.65 -4.15 8.9 -3.85L7.4 -3.85L6.85 -3.9Q5.15 -4.45 4.9 -5.3L4.8 -5.3Q4.6 -5.3 4.25 -5.65L3.9 -6.05L3.6 -6Q3 -6 1.95 -7.4L1.55 -7.35L1.35 -7.35L0.35 -8.6L0.35 -8.65L0.2 -8.6L-0.7 -8.8L-1.15 -9.05L-1.35 -8.95L-1.55 -9L-1.55 -9.95L-1.3 -12.3L-0.9 -12.3L0.4 -12.45L0.55 -12L0.6 -12.05L0.7 -11.7L0.55 -11.6L0.4 -10.55L0.5 -10.65L0.9 -10.85L0.8 -11.55L1.05 -11.8L0.3 -12.85L0.9 -13.5L1.5 -13.9L1.85 -14.1" />
<path style="fill:#626262;fill-opacity:0.25098" d="M4.95,-24.7L5.95 -24.35L5.4 -24.3Q4.9 -24.3 4.75 -24.55L4.95 -24.7M-3.6,-29.35L-2.6 -28.45L-1.95 -27.55L-0.5 -25.8L-0.7 -25L-0.85 -25L-2.25 -26.8L-2.75 -26.85L-3 -27.45L-3.25 -27.7L-3.5 -28.05L-3.6 -29.35M-8.7,-19.8Q-8.7 -20.1 -8.95 -20.1L-8.5 -20.3L-7.8 -19.95L-8.15 -19.8L-8.7 -19.8" />
<path style="fill:#232323;fill-opacity:0.25098" d="M5.3,-25.05Q6.2 -24.8 6.2 -24.45L5.95 -24.05L5.05 -24.05Q4.45 -24.25 4.45 -24.7L4.5 -24.95L4.75 -24.95L5.3 -25.05M4.75,-24.55Q4.9 -24.3 5.4 -24.3L5.95 -24.35L4.95 -24.7L4.75 -24.55M-3.5,-28.05L-3.25 -27.7L-3 -27.45L-2.75 -26.85L-2.25 -26.8L-0.85 -25L-0.7 -25L-0.5 -25.8L-1.95 -27.55L-2.6 -28.45L-3.6 -29.35L-3.5 -28.05M-2.65,-28.85L-2 -27.8L-1.4 -27.3L-0.85 -26.8L-0.35 -25.75L-0.45 -25.25L-0.5 -25.05L-0.5 -24.75L-0.65 -24.7L-0.95 -24.75L-1.85 -25.65Q-2.4 -26.25 -2.4 -26.6L-2.85 -26.6L-3.05 -27.1L-3.4 -27.45L-3.6 -27.5L-3.85 -29.2Q-3.85 -29.8 -2.65 -28.85M-8.8,-19.65L-9.1 -20.1Q-9.1 -20.6 -8.3 -20.55Q-7.55 -20.5 -7.55 -20.05L-7.8 -19.75Q-8.05 -19.6 -8.2 -19.6L-8.8 -19.65M-8.15,-19.8L-7.8 -19.95L-8.5 -20.3L-8.95 -20.1Q-8.7 -20.1 -8.7 -19.8L-8.15 -19.8" />
</g>
</svg>
