<?xml version="1.0" encoding="utf-8"?>
<svg version="1.1" id="Layer_1"
xmlns="http://www.w3.org/2000/svg"
xmlns:xlink="http://www.w3.org/1999/xlink"
width="5px" height="6px"
xml:space="preserve">
<g id="1277" transform="matrix(1, 0, 0, 1, -6.1, -5.7)">
<path style="fill:#333333;fill-opacity:0.0862745" d="M10.15,6.75L10 6.7L9.9 6.6L9.9 6.55L10.1 6.55L10 6.1L9.7 5.8L9.3 6.15L9.1 6.5L9.3 6.7L9.5 6.9L9.2 7.25L8.95 7.4L9.05 7.5L9 7.5L8.9 7.5L9.25 7.8L9.6 8.05L9.25 8.4Q8.7 8.65 8.55 8.8L8.6 8.85L8.55 8.9L8.45 8.75L9 8.45L9.5 8.05L9.15 7.85L8.8 7.55L8.8 7.45L8.6 7.25L8.4 6.85L7.95 6.75L7.85 6.55L7.6 6.85L7.45 7.1L7.55 7.45Q7.55 7.6 7.25 7.6L6.9 7.55L6.8 7.45L6.95 7.45L7.45 7.45L7.35 7.1L7.7 6.5L7.9 6.45L8 6.6L8.6 6.8L8.6 6.85L8.55 6.95L8.7 7.25L8.9 7.35L9.1 7.2L9.4 6.9L9.2 6.75L9 6.5Q9 6.3 9.35 5.95Q9.7 5.5 9.95 5.8L10.2 6.35L10.35 6.95L10.3 6.95L10.2 6.9L10.15 6.75M11,8.1L10.7 8.1L10.05 8.25L9.95 8.45L10.05 8.6L10.1 8.75L10.1 8.8L10.05 8.8L9.75 8.75L10 9.45L9.95 9.5L9.7 9L9.55 8.6L9.6 8.55L9.65 8.55L9.85 8.6L9.8 8.45Q9.8 8.35 9.95 8.2Q10.2 8 10.55 7.95L11.05 8.05L11 8.15L10.95 8.15L11 8.1M10.65,10.25L10.8 10.4L10.6 10.65L10.4 10.9Q10.4 11.1 10.65 11.05L10.8 11.05L10.7 11.15L10.55 11.2Q10.35 11.2 10.3 11.05L10.3 10.9L10.45 10.55L10.65 10.4L10.3 10.2L9.85 10.05Q9.9 9.9 10.1 9.85L9.9 9.7L9.85 9.8L9.6 9.85L9.4 9.75L9.35 9.6Q8.95 9.6 8.85 9.85L8.85 10.05L8.95 10.05L8.85 10.1L8.85 10.15Q8 10.3 7.4 10.6L8 11.1L7.45 10.9L7.1 10.65L7.1 10.6L7.8 10.35L8.65 10.1L8.55 9.95L8.25 10L8.15 10L8.15 9.9L8.2 9.8L7.85 9.4L7.45 9.2L7.55 9.1L7 8.9L6.65 8.65L6.65 8.85L6.5 9.3L6.1 9.7L6.4 9.2L6.55 8.8L6.5 8.55L6.5 8.5L6.6 8.5L7 8.75L7.5 9L7.8 9L7.65 8.5Q7.65 8.25 8.1 8.2L8.5 8L8.4 7.5L8.45 7.4Q8.5 7.3 8.6 7.3L8.65 7.35L8.5 7.45L8.5 7.6L8.55 8Q8.55 8.25 7.85 8.35L7.8 8.5L7.9 8.95L7.8 9.1L7.75 9.1L7.65 9.2L8.2 9.5L8.3 9.85L8.55 9.8L8.7 9.85Q8.7 9.65 8.95 9.6L9.5 9.4L9.5 9.6L9.6 9.7L9.8 9.65L9.9 9.55L10.15 9.75L10.3 10.05L10.65 10.25" />
</g>
</svg>
