<?xml version="1.0" encoding="utf-8"?>
<svg version="1.1" id="Layer_1"
xmlns="http://www.w3.org/2000/svg"
xmlns:xlink="http://www.w3.org/1999/xlink"
width="285px" height="63px"
xml:space="preserve">
<g id="480" transform="matrix(1, 0, 0, 1, 104.6, -200.45)">
<path style="fill:#3A1D0F;fill-opacity:0.85098" d="M154.45,246.45Q154.25 244.5 157.15 243.1Q160 241.7 161.15 238.8L162.4 236.6Q163.55 235.25 165.15 234.95L168 235.2Q168.3 235.25 168.55 235.45Q171.1 238.1 169.45 240.85Q166.45 245.65 160.05 246.5Q157.05 246.85 154.45 246.45M81.1,231.7Q75.2 231.1 69.1 232Q65.85 232.5 64.15 230.35Q63.7 229.45 64.1 228.65Q65.65 225.3 69.75 224.5L77.35 222.8Q88.2 222 84.5 229.85Q83.5 231.95 81.1 231.7M113.3,256.75Q112.7 258.65 110.4 258.95L90.55 259.75Q86.45 259.6 82.45 257.8L82.25 257.4L82.2 257L82.2 256.65L82.2 256.25L82.2 255.85L82.2 255.45L82.2 255.05L82.2 254.65L82.6 254.3L83 253.95L83.75 253.45L84.25 253.1L84.55 252.85L84.7 252.75L85.2 252.65L85.2 252.6L92 252.95L100.9 252.7Q106.3 252.5 111.3 254.6Q112.85 255.25 113.3 256.75M154.1,257.95L154.05 258.35L154.05 258.7L154.05 259.1L154.05 259.5L154 259.9L153.8 260.3Q152.7 261.35 151.15 261.7Q145.85 262.9 141.55 260.75Q139.95 259.9 139.35 258L139.15 256.9Q141.05 255.95 143.75 256Q149.65 256.15 155.35 253.95L156.8 253.25L160.65 253.7Q162.2 254 163.5 254.9L164.75 255.7L164.9 256.1L164.95 256.5L164.9 256.9L164.9 257.15L165.15 257.25L165.75 257.6L166.1 257.9L166.4 258.35L166.55 258.7L166.6 259.1Q166.5 260.15 165.55 260.55L158.05 260.35Q155.95 259.35 154.3 257.65L154.1 257.95M57.75,200.95Q59.85 204.9 56.85 207.6Q53.45 210.7 49.25 212.45Q45.8 213.9 42.1 212.45L41.95 212.1L41.8 211.7L41.5 210.9L41.45 210.1L41.45 209.7L41.5 209.35Q41.85 208.6 42.55 208.1Q43.65 207.3 44.55 208.3L44.6 208.65L44.4 209.05Q44.1 209.45 44.15 209.8L44.55 209.7L46.65 208.55L50.85 206Q51.35 205.65 52 205.55L52 205.15L52.2 203.85L52.7 202.45L53.05 201.6L53.35 201.3L53.85 201L55.4 200.5L55.4 200.45L57.2 200.7L57.75 200.95M62.05,261.35L57.5 261.2Q56 263.2 53.6 262.55L47.95 261.45Q48 260.75 48.7 260.2L49.55 259.55L50.1 259.05L51.5 257.55L51.8 257.1L51.85 256.75L52 255.6L52.4 255.2Q52.8 254.7 53.45 254.5L53.85 254.3L54.5 254L55.4 253.6L57 253.6L57.55 253.95L57.75 254.3L57.85 254.65L57.9 255.05L62.45 255.3Q66.85 253.85 68.65 256.8L68.75 257.15Q68.7 258.5 67.4 258.8Q65.1 259.3 63.2 260.7L62.35 261.25L62.05 261.35M166.75,247L168.4 246.1Q169.3 245.6 170.4 245.65L170.6 245.25Q170.9 244.35 171.8 243.7L174 242.35L174.05 242.25L176.9 242.55L177.45 242.8L177.8 243.2L177.9 243.55L177.9 244.35L177.7 245.15Q180.5 246.9 179.35 249.25Q176.4 255.3 168.95 251.1L166.6 249.95L166.4 249.55L166.35 249.2L166.35 248.4L166.4 247.6L166.45 247.2L166.75 247" />
<path style="fill:#3A1D0F;fill-opacity:0.85098" d="M-13.15,239.6Q-9.95 238.8 -6.75 238.7Q-0.05 238.4 1.5 243.9Q2.5 247.5 -1.25 248.8Q-9.1 251.5 -15.75 247.4Q-17.15 246.5 -17.35 244.95Q-17.85 240.8 -13.15 239.6M-33.25,246.95Q-33.35 247.9 -34.35 248.3Q-40.65 250.85 -41.8 245.15Q-42.05 243.95 -40.75 243.45L-38.9 242.75Q-32.75 242.1 -33.25 246.95M-67.5,243.85Q-65.4 240.6 -61.15 241.15Q-53.55 241.25 -53.9 247.95Q-53.95 248.7 -54.7 249.1Q-62.45 253.1 -67.35 246.65Q-68.4 245.3 -67.5 243.85M-80.25,245.1Q-82.7 242.05 -78.25 241.35Q-73.45 242.15 -76.7 245.35Q-78.6 247.2 -80.25 245.1" />
<path style="fill:#3A1D0F;fill-opacity:0.588235" d="M-80.75,217.05Q-83.8 217.85 -85.75 215.65Q-85.65 215.2 -85.8 214.85Q-86.05 214.35 -85.85 213.75Q-85.55 212.7 -84.55 212.05L-83.35 211.45Q-79.65 211.05 -78.9 214.2Q-78.4 216.4 -80.75 217.05M-91.25,218.55Q-95.1 221.15 -99.6 218.75Q-102.3 217.3 -101.95 214.55Q-101.6 212 -98.6 211.65Q-93.7 210.75 -90.55 213.85Q-88 216.35 -91.25 218.55M-101.6,226.95Q-96.5 228.1 -100.3 230.85Q-103.65 233.3 -104.5 230Q-104.95 228.15 -102.95 227.35L-101.6 226.95M-88.55,240.75Q-84.9 241.65 -84.85 243.2Q-84.5 244.1 -84.95 245.35Q-85.75 247.5 -88.35 247.25Q-89.45 247.15 -89.9 246.55L-90.55 246.5Q-91.8 246.3 -92.4 245.15Q-94.4 241.35 -89.95 241.4L-89.7 241.25L-89.3 241L-88.85 240.85L-88.55 240.75" />
</g>
</svg>
