<?xml version="1.0" encoding="utf-8"?>
<svg version="1.1" id="Layer_1"
xmlns="http://www.w3.org/2000/svg"
xmlns:xlink="http://www.w3.org/1999/xlink"
width="12px" height="11px"
xml:space="preserve">
<g id="637" transform="matrix(1, 0, 0, 1, -0.1, 0.05)">
<path style="fill:#000000;fill-opacity:1" d="M11.85,6.25L11.65 7.75L11.5 9.2L11.3 9.7Q10.95 10 10.45 10.1L9.7 10Q9.25 9.8 9.35 9.35L9.5 8.55Q9.45 8.2 9 8.1Q6.8 8.2 5.8 5.45L5.3 3.95L4.95 4.75L4.75 5.9L4.8 9.25L4.8 10.9L2.7 10.9Q0.6 10.6 0.1 10.1L0.1 9.9L0.1 9.8L0.25 9.3L0.45 8.9L0.55 8.6L0.85 8.5L2.1 8.25L2.2 8.2L2.2 5.1Q1.95 2.85 3.45 0.95L4.55 -0.05L5.55 0.2L6.65 0.4L6.75 0.5Q6.85 0.35 7.05 0.3L8.1 2.5L9 4.7L9.05 4.85L10.85 5.6Q11.45 5.75 11.85 6.25" />
</g>
</svg>
