<?xml version="1.0" encoding="utf-8"?>
<svg version="1.1" id="Layer_1"
xmlns="http://www.w3.org/2000/svg"
xmlns:xlink="http://www.w3.org/1999/xlink"
width="8px" height="8px"
xml:space="preserve">
<g id="1241" transform="matrix(1, 0, 0, 1, 9.6, 16.1)">
<path style="fill:#5D2C15;fill-opacity:1" d="M-3.9,-10.4L-4 -10.3Q-4.6 -9.75 -5.4 -9.6L-5.9 -9.55L-6 -9.55L-6.45 -9.55Q-7.25 -9.7 -7.9 -10.3L-8.05 -10.4Q-8.85 -11.2 -8.95 -12.25Q-8.85 -13.2 -8.05 -13.85Q-7.2 -14.55 -6 -14.55Q-4.8 -14.55 -3.9 -13.85Q-3.15 -13.2 -3.05 -12.25Q-3.15 -11.2 -3.9 -10.4M-7.95,-12.6L-7.95 -12.5Q-7.95 -11.85 -7.35 -11.35L-7.25 -11.25L-6.3 -10.85L-5.6 -10.85Q-5.1 -10.95 -4.7 -11.25L-4.65 -11.35Q-4.05 -11.85 -4.05 -12.5L-4.05 -12.6Q-4.15 -13.25 -4.65 -13.65Q-5.2 -14.15 -6 -14.15Q-6.8 -14.15 -7.35 -13.65Q-7.9 -13.25 -7.95 -12.6" />
<path style="fill:#9F6329;fill-opacity:1" d="M-8.95,-12.5Q-8.95 -13.7 -8.05 -14.6Q-7.2 -15.45 -6 -15.45Q-4.8 -15.45 -3.9 -14.6Q-3.05 -13.7 -3.05 -12.5L-3.05 -12.25Q-3.15 -13.2 -3.9 -13.85Q-4.8 -14.55 -6 -14.55Q-7.2 -14.55 -8.05 -13.85Q-8.85 -13.2 -8.95 -12.25L-8.95 -12.5" />
<path style="fill:#100806;fill-opacity:1" d="M-6,-16.1Q-4.5 -16.1 -3.45 -15.05Q-2.4 -14 -2.4 -12.5Q-2.4 -11 -3.45 -9.95Q-4.5 -8.9 -6 -8.9Q-7.5 -8.9 -8.55 -9.95Q-9.6 -11 -9.6 -12.5Q-9.6 -14 -8.55 -15.05Q-7.5 -16.1 -6 -16.1M-3.05,-12.25L-3.05 -12.5Q-3.05 -13.7 -3.9 -14.6Q-4.8 -15.45 -6 -15.45Q-7.2 -15.45 -8.05 -14.6Q-8.95 -13.7 -8.95 -12.5L-8.95 -12.25Q-8.85 -11.2 -8.05 -10.4L-7.9 -10.3Q-7.25 -9.7 -6.45 -9.55L-6 -9.55L-5.9 -9.55L-5.4 -9.6Q-4.6 -9.75 -4 -10.3L-3.9 -10.4Q-3.15 -11.2 -3.05 -12.25" />
<linearGradient
id="LinearGradID_449" gradientUnits="userSpaceOnUse" gradientTransform="matrix(0, -0.00360107, 0.00227356, -1.52588e-005, -5.85, -10.95)" spreadMethod ="pad" x1="-819.2" y1="0" x2="819.2" y2="0" >
<stop  offset="0" style="stop-color:#511A16;stop-opacity:1" />
<stop  offset="0.505882" style="stop-color:#6D4414;stop-opacity:1" />
<stop  offset="1" style="stop-color:#511A16;stop-opacity:1" />
</linearGradient>
<path style="fill:url(#LinearGradID_449) " d="M-7.35,-13.65Q-6.8 -14.15 -6 -14.15Q-5.2 -14.15 -4.65 -13.65Q-4.15 -13.25 -4.05 -12.6L-4.05 -12.5Q-4.05 -11.85 -4.65 -11.35L-4.7 -11.25Q-5.1 -10.95 -5.6 -10.85L-6.3 -10.85L-7.25 -11.25L-7.35 -11.35Q-7.95 -11.85 -7.95 -12.5L-7.95 -12.6Q-7.9 -13.25 -7.35 -13.65" />
</g>
</svg>
