<?xml version="1.0" encoding="utf-8"?>
<svg version="1.1" id="Layer_1"
xmlns="http://www.w3.org/2000/svg"
xmlns:xlink="http://www.w3.org/1999/xlink"
width="23px" height="14px"
xml:space="preserve">
<g id="683" transform="matrix(1, 0, 0, 1, 9.25, 13.95)">
<path style="fill:#7E0000;fill-opacity:1" d="M1,-11.15L1.45 -10.95L1.5 -10.45Q1.1 -9.35 -0.05 -10.05Q-0.45 -10.3 -0.45 -10.7L-0.4 -10.75L-0.3 -10.95L0.1 -11.15L1 -11.15M3.35,-7.95L3.5 -8.1L3.6 -8.1L3.75 -8.15Q4.35 -8.1 4.8 -7.7Q5.25 -7.2 4.85 -6.7L4.75 -6.6Q4 -6.3 3.45 -6.9Q3.1 -7.35 3.25 -7.9L3.35 -7.95M9.4,-4L10.05 -3.85L10.5 -3.4L10.5 -3.35L10.45 -3.3L10.7 -3Q10.95 -2.45 10.55 -1.95L10.45 -1.85Q9.8 -1.7 9.35 -2.3Q9.1 -2.65 9.15 -3.05L8.95 -3.25L8.95 -3.35L9 -3.6L9.3 -3.95L9.4 -4M11.9,-1.75Q14.05 -1.55 12.7 -0.25Q12.35 0.05 11.9 -0.25Q11.45 -0.55 11.35 -0.85L11.3 -0.85L10.8 -0.95L10.8 -1.3L11.1 -1.65L11.3 -1.75L11.4 -1.7L11.5 -1.7L11.6 -1.65L11.65 -1.6L11.9 -1.75M-7.9,-13.1Q-6.25 -12.9 -5.8 -11.65L-5.5 -11.8L-4.5 -13.15L-4.25 -13.85L-4.15 -13.95L-3.8 -13.45Q-3.75 -13.05 -4.05 -12.95L-4.1 -12.6L-4.15 -12.45Q-4.75 -10.15 -6 -8.2L-6.05 -7.75L-6.1 -7.45L-6.2 -7.25L-6.65 -7.3L-6.7 -7.3Q-7.4 -7.55 -7.75 -8.35L-8.3 -10.3L-8.25 -10.35L-8.15 -10.45L-8 -10.5L-8.05 -10.75Q-7.75 -10.8 -7.6 -10.5L-7.1 -10.25L-7.1 -10.85L-7.15 -11.75Q-7.75 -10.9 -8.65 -11.55Q-10 -12.45 -8.4 -12.95L-7.9 -13.1M-1.4,-10.15Q-2.05 -9.6 -2.55 -10.3Q-3.15 -11.15 -2.5 -11.55L-2.2 -11.7Q0.15 -11.5 -1.4 -10.15M-3.9,-10.35L-3.8 -9.95L-3.85 -9.85L-4.2 -9.6L-4.45 -9.65L-4.5 -10.05L-4.35 -10.45L-4.2 -10.55L-3.9 -10.35" />
</g>
</svg>
