<?xml version="1.0" encoding="utf-8"?>
<svg version="1.1" id="Layer_1"
xmlns="http://www.w3.org/2000/svg"
xmlns:xlink="http://www.w3.org/1999/xlink"
width="9px" height="12px"
xml:space="preserve">
<g id="1044" transform="matrix(1, 0, 0, 1, 4.8, 9.15)">
<path style="fill:#FFCC00;fill-opacity:1" d="M0.25,-2.7L0 -2.25L-0.05 -2.05L-0.45 -2.35Q-0.65 -3.4 -1 -4.35L-1 -4.6L-1.2 -5.6L-1.45 -6.55L-1.6 -7.45L-1.65 -7.45L-1.65 -7.5L-1.75 -7.55L-1.75 -7.5L-1.85 -7.5L-1.9 -7.45L-1.9 -6.65L-1.7 -5.45L-1.6 -4.2L-1.4 -3.2L-1.4 -3.15L-1.4 -2.35L-1.35 -1.2L-1.35 -1.15L-1.7 -1.35L-2.05 -1.5L-2.1 -1.45L-2.15 -1.4L-2.55 -1.75L-2.65 -1.8L-1.95 -0.95Q-1.45 -0.6 -1.65 -0.3L-1.75 -0.15L-1.8 -0.15L-1.8 -0.1L-2.25 0L-2.55 0.05L-0.7 0.05Q-0.35 0 -0.25 0.4Q-0.1 0.9 -0.1 1.5L-0.1 1.55L0 0.8L0.05 0.55L0.1 0.4L0.35 0.15L0.7 0.05L1.4 0L0.95 -0.15L0.8 -0.45L0.65 -0.55L0.65 -0.6L0.8 -0.75L2.65 -1.3L1.65 -1.55L1.5 -1.65L1.1 -1.65L0.4 -1.8L0.5 -2.05L0.55 -2.2L0.95 -3.55L1.15 -4.7Q0.6 -3.85 0.35 -2.8L0.25 -2.7M1.3,-5.9L1.6 -6.15Q2 -5.75 1.8 -5.05L1.45 -3.9L1.2 -2.75L1.05 -2.1L4.1 -1.5L4.15 -1.4Q3.85 -0.95 3.25 -0.9L1.55 -0.45Q2.5 -0.1 3.5 0.15L3.55 0.3L2.7 0.45L1.95 0.35L1.05 0.5L0.5 0.55L0.45 0.95L0.35 1.5L0.2 2.05L-0.05 2.4L-0.45 2L-0.5 1.35L-0.6 0.8L-0.75 0.5L-4.75 0.45L-4.75 0.4L-3.75 -0.2L-2.15 -0.5L-2.75 -1.15L-3.35 -1.9L-3.75 -2.7L-3.75 -2.8Q-3.3 -2.95 -2.85 -2.5L-1.85 -1.7L-1.8 -1.65L-1.9 -3.2L-1.9 -4.4L-2.1 -5.75L-2.45 -7.9L-2.55 -8.55Q-2.6 -9 -2.25 -9.15L-2 -8.8L-1.65 -7.95L-1.55 -7.45L-1.3 -6.55L-0.65 -4.75L-0.1 -3.1L0.2 -3.9L0.8 -4.9L1.3 -5.9" />
<path style="fill:#FFFF00;fill-opacity:1" d="M0.6,-2.45L0.45 -2.85L0.35 -2.8Q0.6 -3.85 1.15 -4.7L0.95 -3.55L0.55 -2.2L0.6 -2.45M0.7,-1.55L0.2 -1.4L0.3 -1.6L0.4 -1.8L1.1 -1.65L0.7 -1.55M0.3,-0.9L0.65 -1Q1.15 -1 1.5 -1.3L1.65 -1.55L2.65 -1.3L0.8 -0.75L0.65 -0.6L0.65 -0.55L0.3 -0.9M0.1,0.35L0.15 0.2L0.2 0L0.2 -0.15L0.5 -0.05L0.75 -0.05L0.95 -0.15L1.4 0L0.7 0.05L0.35 0.15L0.1 0.4L0.1 0.35M-1.8,-0.05L-1.75 0L-1.5 0.05L-0.9 -0.15L-0.45 -0.4L-0.4 -0.15L-0.3 0.1L-0.25 0.3L-0.2 0.5L-0.15 0.55L-0.05 0.55L0.05 0.55L0 0.8L-0.1 1.55L-0.1 1.5Q-0.1 0.9 -0.25 0.4Q-0.35 0 -0.7 0.05L-2.55 0.05L-2.25 0L-1.8 -0.1L-1.8 -0.05M-2.2,-1.4L-2.15 -1.15L-1.7 -0.85L-1.2 -0.6L-1.4 -0.45L-1.65 -0.3Q-1.45 -0.6 -1.95 -0.95L-2.65 -1.8L-2.55 -1.75L-2.15 -1.4L-2.2 -1.4M-0.15,-1.75L-0.4 -1.4L-0.5 -1.8L-0.75 -2.6L-0.95 -3.45L-1.25 -4.2L-1.35 -3.75L-1.25 -2.95L-1.2 -2.15L-1.15 -1.4L-1.2 -1.35L-1.2 -1.3L-1.25 -1.25L-1.25 -1.15L-1.25 -1.1L-1.35 -1.15L-1.35 -1.2L-1.4 -2.35L-1.4 -3.15L-1.4 -3.2L-1.6 -4.2L-1.7 -5.45L-1.9 -6.65L-1.9 -7.45L-1.85 -7.5L-1.75 -7.5L-1.75 -7.55L-1.65 -7.5L-1.65 -7.45L-1.6 -7.45L-1.45 -6.55L-1.2 -5.6L-1 -4.6L-1 -4.35Q-0.65 -3.4 -0.45 -2.35L-0.05 -2.05L-0.15 -1.75" />
<path style="fill:#FFFFFF;fill-opacity:1" d="M-1.8,-0.1L-1.8 -0.15L-1.75 -0.15L-1.65 -0.3L-1.4 -0.45L-1.2 -0.6L-1.7 -0.85L-2.15 -1.15L-2.2 -1.4L-2.15 -1.4L-2.1 -1.45L-2.05 -1.5L-1.7 -1.35L-1.35 -1.15L-1.25 -1.1L-1.25 -1.15L-1.25 -1.25L-1.2 -1.3L-1.2 -1.35L-1.15 -1.4L-1.2 -2.15L-1.25 -2.95L-1.35 -3.75L-1.25 -4.2L-0.95 -3.45L-0.75 -2.6L-0.5 -1.8L-0.4 -1.4L-0.15 -1.75L-0.05 -2.05L0 -2.25L0.25 -2.7L0.35 -2.8L0.45 -2.85L0.6 -2.45L0.55 -2.2L0.5 -2.05L0.4 -1.8L0.3 -1.6L0.2 -1.4L0.7 -1.55L1.1 -1.65L1.5 -1.65L1.65 -1.55L1.5 -1.3Q1.15 -1 0.65 -1L0.3 -0.9L0.65 -0.55L0.8 -0.45L0.95 -0.15L0.75 -0.05L0.5 -0.05L0.2 -0.15L0.2 0L0.15 0.2L0.1 0.35L0.1 0.4L0.05 0.55L-0.05 0.55L-0.15 0.55L-0.2 0.5L-0.25 0.3L-0.3 0.1L-0.4 -0.15L-0.45 -0.4L-0.9 -0.15L-1.5 0.05L-1.75 0L-1.8 -0.05L-1.8 -0.1" />
</g>
</svg>
