<?xml version="1.0" encoding="utf-8"?>
<svg version="1.1" id="Layer_1"
xmlns="http://www.w3.org/2000/svg"
xmlns:xlink="http://www.w3.org/1999/xlink"
width="48px" height="20px"
xml:space="preserve">
<g id="688" transform="matrix(1, 0, 0, 1, 22.55, 11.25)">
<path style="fill:#7E0000;fill-opacity:1" d="M-20.6,-10.7L-20.25 -10.65L-19.95 -10.4L-19.9 -10.35L-20.25 -8.8L-20.1 -7.9L-19.5 -6.6L-19.25 -5.85L-18.75 -6.5L-18.5 -6.3L-18.6 -5.9L-18.65 -5.85L-19.05 -5.15Q-18.8 -5 -18.95 -4.75L-19.1 -4.45L-19.1 -4.2L-19 -4L-18.9 -3.75L-18.9 -3.7L-19.2 -3.65L-19.35 -3.45L-19.45 -3.5L-19.55 -3.5L-19.75 -3.45L-20.5 -4.6Q-21.1 -4.8 -21.7 -5.25Q-22.65 -5.95 -22.55 -6.95L-22.45 -7.05L-22.35 -7.1L-22.1 -7.15L-21.5 -6.85L-21.6 -7.2L-21.25 -6.95L-21.4 -7.6L-21.6 -8.4Q-21.8 -9.8 -20.7 -10.65L-20.6 -10.7M-14.35,-10.05L-14.25 -9.85L-14.15 -9.85L-14.05 -9.75L-13.95 -9.7Q-13.75 -8.85 -14.55 -8.2Q-15.3 -7.6 -15.65 -6.7L-15.95 -6.4L-16.2 -6.35Q-16.5 -6.3 -16.65 -6.55L-16.75 -6.4L-16.85 -6.35L-17.3 -6.4L-17.35 -6.4L-16.7 -7.45L-16.3 -8.15L-15.4 -9.1L-14.5 -9.95L-14.35 -10.05M-4.6,-7.9L-4.6 -8L-4.6 -8.25L-4.5 -8.35L-4.45 -8.4L-4.35 -8.45L-4.25 -8.5L-4 -8.45L-3.8 -8.3L-3.8 -8.25Q-3.75 -8.1 -3.85 -8.05Q-4.1 -7.7 -4.5 -7.8L-4.6 -7.9M-8.75,-11L-8.65 -11.05L-8.5 -11.2L-8.25 -11.25L-8.05 -11.2L-7.9 -11.1L-7.8 -11.05L-7.65 -10.65L-7.65 -9.95L-7.85 -9.75Q-8.45 -9.45 -8.7 -10.1L-8.75 -10.4L-8.9 -10.5L-8.9 -10.65L-8.9 -10.7L-8.85 -10.85L-8.75 -10.95L-8.75 -11M21.25,3.6L21.8 4L21.85 4.05L21.55 4.35Q20.55 4.5 20.35 3.65L20.45 3.5L21.25 3.6M25.25,8.15L25.2 8.2L25.05 8.4L24.85 8.55L24.5 8.4L24.4 7.95L24.55 7.8L24.9 7.85L25.2 8.05L25.25 8.1L25.25 8.15" />
</g>
</svg>
