<?xml version="1.0" encoding="utf-8"?>
<svg version="1.1" id="Layer_1"
xmlns="http://www.w3.org/2000/svg"
xmlns:xlink="http://www.w3.org/1999/xlink"
width="19px" height="25px"
xml:space="preserve">
<g id="788" transform="matrix(1, 0, 0, 1, 0, 0)">
<path style="fill:#000000;fill-opacity:1" d="M15.4,2.3L14.8 2.25L15.7 10.85L14.4 15.45L11.3 18.5L9.5 18.3L5 21.55L11 18.8L8.7 21L2.15 24.05L1.4 22.95L8 18.2L0.3 17.55L0 16.25L0.05 16.2L8.95 15.25L1.8 10.25L2.15 9L10.15 12.6L6.55 4.55Q5.3 5.35 4.15 6.45Q3 7.65 2.15 9L0.3 7.6Q1.25 6.15 2.5 4.85Q4.15 3.25 6 2.2Q9 0.4 12.65 0.1L14.3 0L15.95 0.1L18.55 0.55L17.95 2.8L15.7 2.35L15.4 2.3M12.5,2.4Q9.65 2.85 7.7 3.9L12.8 11.15L13.55 2.3L13.25 2.3L12.5 2.4M9.2,17.3L10.5 16.35L10.2 16.15L3.9 16.8L9.2 17.3M13.5,14.05L13.55 14.05L13.5 14L13.5 14.05M14.4,13.4L14.9 12.7L14.2 6.35L13.65 12.4L14.4 13.4M12.55,13.65L12.65 12.75L8.8 7.25L11.45 13.15L12.55 13.65M12.25,14.85L12.3 14.7L12.35 14.65L12.05 14.5L12.25 14.85M11.25,15L10.75 13.95L5.45 11.55L10.5 15.1L11.25 15M11.35,16.95L10.75 17.4L11.65 17.5L11.55 17.1L11.35 16.95" />
</g>
</svg>
