<?xml version="1.0" encoding="utf-8"?>
<svg version="1.1" id="Layer_1"
xmlns="http://www.w3.org/2000/svg"
xmlns:xlink="http://www.w3.org/1999/xlink"
width="11px" height="6px"
xml:space="preserve">
<g id="650" transform="matrix(1, 0, 0, 1, 3.95, 10.65)">
<path style="fill:#000000;fill-opacity:1" d="M6.15,-6.5L6.3 -6.55L6.35 -7.5L4.4 -7L1.7 -6.85Q-1.05 -8.55 -1.7 -9L-2.1 -8.4L0.65 -5.7Q2.9 -5.5 3.8 -6L5.5 -6.4L6.15 -6.5M6.65,-6.45L6.35 -6.05Q6 -5.75 5.85 -5.8L5.75 -5.9L4.15 -5.55L1.35 -5L0.35 -5.35L-2.45 -8.1L-2.4 -8.3L-2.85 -8.35Q-3.65 -8.6 -3.85 -9.2Q-4.05 -9.7 -3.9 -10.15Q-3.75 -10.75 -3.4 -10.65L-2.65 -10.05Q-1.55 -9.4 -1.6 -9.25L-1.3 -9.15L-0.6 -8.65L0.35 -8Q1 -7.5 1.75 -7.25Q2.9 -6.9 5.7 -7.9Q7.2 -8.4 6.65 -6.45M-3.35,-9.35L-2.7 -8.75L-2.3 -8.8L-2.15 -9.1L-2.05 -9.4L-3.15 -9.9L-3.5 -10.15L-3.35 -9.35" />
<path style="fill:#191919;fill-opacity:1" d="M5.5,-6.4L3.8 -6Q2.9 -5.5 0.65 -5.7L-2.1 -8.4L-1.7 -9Q-1.05 -8.55 1.7 -6.85L4.4 -7L6.35 -7.5L6.3 -6.55L6.15 -6.5L5.5 -6.4M-3.5,-10.15L-3.15 -9.9L-2.05 -9.4L-2.15 -9.1L-2.3 -8.8L-2.7 -8.75L-3.35 -9.35L-3.5 -10.15" />
</g>
</svg>
