<?xml version="1.0" encoding="utf-8"?>
<svg version="1.1" id="Layer_1"
xmlns="http://www.w3.org/2000/svg"
xmlns:xlink="http://www.w3.org/1999/xlink"
width="34px" height="13px"
xml:space="preserve">
<g id="735" transform="matrix(1, 0, 0, 1, 24.6, -9)">
<path style="fill:#000000;fill-opacity:1" d="M0.75,18.7L2.65 18.8Q3 19.15 3.45 19.15Q6.05 19.05 8.5 19.85L8.5 20.1L8.55 20.45L8.55 20.75L8.5 20.8L2.85 21.1Q1.25 21.25 0.1 20.4Q-0.9 19.7 -2.3 19.6L-7 20L-7 19.9Q-6.75 18.9 -5.85 18.2Q-5 17.5 -3.9 17.5Q-1.65 17.75 0.35 18.7L0.75 18.7M-14.55,11.35Q-15.9 12.75 -17.75 12.75L-18.05 12.45Q-18.35 9.35 -15.15 9.05Q-13 9.85 -14.55 11.35M-11.25,15.75Q-12 13.85 -9.45 13.6Q-8.25 15.4 -10.8 15.95Q-11.2 16 -11.25 15.75M-11.7,16L-9.9 17.15L-9.3 17.5Q-8.05 17.6 -7.6 18.5Q-7.1 19.6 -8.3 20Q-12.95 21.45 -17.9 20.7L-17.95 20.35L-18.5 20.5L-18.8 20.4Q-20.2 20.7 -21.55 20L-21.95 19.4L-21.85 19.2Q-21.1 17.9 -19.65 17.15Q-18.3 16.4 -16.75 16.45L-15.15 16.7Q-14.85 16.8 -14.7 17Q-13.75 15.9 -12.25 15.8L-11.7 16M-22.05,9.25L-21.65 9.75L-21.55 9.9L-21.55 10.1L-21.6 10.2L-21.65 10.25L-21.85 10.25L-21.9 10.2Q-22.25 11.8 -23.9 11.75Q-24.45 11.7 -24.55 11.15Q-24.95 8.95 -22.55 9Q-22.25 9.05 -22.05 9.25" />
</g>
</svg>
