<?xml version="1.0" encoding="utf-8"?>
<svg version="1.1" id="Layer_1"
xmlns="http://www.w3.org/2000/svg"
xmlns:xlink="http://www.w3.org/1999/xlink"
width="116px" height="51px"
xml:space="preserve">
<g id="369" transform="matrix(1, 0, 0, 1, 6.55, 10.05)">
<path style="fill:#3A231C;fill-opacity:1" d="M7.45,-9.85L7.65 -10.05Q9.3 -8.25 13.3 -1.7Q16.7 3.9 20.5 7L19.95 7.6L18.75 7.9L19.5 8.6L20 9.55Q16.55 13.3 13.5 17.6L13.9 20.45L13.05 25.15L11.75 29.6L11.75 29.75L12.5 29.9L15.05 28.6L15.65 28.75L15.8 29.15Q15.6 29.55 14.05 30.45Q12.45 31.45 11.35 31.75L12.9 32.6Q15.65 32.9 18.1 31.8L18.5 32L18.65 32.5Q18.65 33.2 17.95 33.35L15.6 34Q17.65 34.75 18 35.05L25 35.55Q25.8 35.8 26.1 36.4Q25.4 37.9 22.25 38.05L17.65 37.85L13.6 37.25L10.4 36.65Q6.3 36.65 1.4 37.85Q-2.35 38.8 -5.25 40.05L-6.35 40.05Q-6.55 40.15 -6.55 39.5Q-3.1 37.55 1.1 33.25Q8.9 25.3 12.8 14.45Q12.5 13.85 12.5 11.7L12.55 10.35Q12.7 9.65 13.1 9.35L11.4 2Q11.05 0.25 9.15 -4.6L7.35 -9.3L7.45 -9.85M35.2,-1.95L35.1 -2.55L35.45 -3.05L35.75 -3.65L35.5 -4.15Q35.25 -4.3 35.25 -4.65Q35.25 -4.9 39.05 -6.55Q43.3 -8.35 45.75 -8.5L45.85 -8.25L45.25 -7.8L52.05 -5.9Q57.35 -4.35 57.35 -2.9Q57.35 -2.45 56.75 -2.2L55.85 -2Q55 -2 54.4 -2.85Q53.75 -3.75 53 -3.75L48 -2.65L43.9 -1.4L36.5 -1.4Q35.5 -1.35 35.2 -1.95M101.4,23.3L100.85 21.7Q100.3 20.8 97.4 20.9Q98.45 18.55 103.7 19.4Q108.9 20.25 108.9 22.2Q108.9 22.85 106 24.25L104.1 23.8Q103.15 23.3 101.4 23.3M83.75,16.9Q88.55 17.15 88.55 18.45Q88.55 19.8 87.25 20L85.5 20Q84.85 20.1 83.95 19.45Q82.95 18.7 81.15 18.85L81 18.75L81 18.3Q81 17.75 81.85 17.3Q82.75 16.85 83.75 16.9M76.35,6.5Q76.35 7.05 75.85 7.5Q75.4 7.9 75 7.9L74.3 7.65L73.85 7.15L66.5 7.1L63.45 6.05Q62.3 5.55 62.3 5.15Q62.3 3.6 66.85 2.75Q71.4 1.9 71.1 3.25Q76.35 4.45 76.35 6.5M51.25,11.25Q51.05 11.85 49.9 11.85L45.7 11.45L43.9 11Q42.3 11 41.85 10.5L41.65 9.85Q41.65 8.05 46.45 7.45Q51.25 6.85 51.25 10.05L51.25 11.25M57.9,32.75L60.75 34.5Q63.1 35.4 68.6 35.25Q73.2 35.15 75.55 37Q74.6 38.25 71.75 38.75L63.45 39.3L58.1 38.9L55.9 38.55L48.1 38.55L46.45 38.85L44.6 39L42.55 38.75L46.7 37.1Q49.6 35.95 50.55 35.3L53.35 33.6L55.5 32Q56.4 31.95 57.9 32.75M22.8,10.45L24.35 13.4Q26.4 15.2 30.9 15.6Q34.75 16 34.75 16.6Q34.75 17.15 33.35 17.6L29.2 18.15Q24.25 18.15 22.25 16.75Q21.05 15.9 21.05 14.65Q21.05 11.55 20.75 10.1Q22.1 9.25 22.8 10.45" />
</g>
</svg>
