<?xml version="1.0" encoding="utf-8"?>
<svg version="1.1" id="Layer_1"
xmlns="http://www.w3.org/2000/svg"
xmlns:xlink="http://www.w3.org/1999/xlink"
width="15px" height="12px"
xml:space="preserve">
<g id="536" transform="matrix(1, 0, 0, 1, 2.75, 14)">
<path style="fill:#000000;fill-opacity:1" d="M2,-14Q2.45 -12.95 2.45 -11.5L2.5 -11.35L2.45 -11.15L2.45 -11L2.45 -10.8L3.3 -9.3L4.3 -6.9L4.3 -6.7Q5.05 -7.75 5.45 -7.8L7.25 -8.45L7.25 -8.55L7.5 -8.45L7.75 -8.55L7.8 -8.45L9.05 -8.1L10.05 -7.85Q12.1 -7.15 12.1 -6.3Q12.1 -5.75 10.3 -4.95L7.85 -4.05L6.6 -4L6.55 -3.95L6.4 -3.95L4.55 -2.8L3.05 -2.2L2.65 -2.3L1.6 -3L1.15 -3.85L0.5 -5.6L-0.2 -7.2L-0.9 -9.2L-0.75 -9.5Q-1.45 -10.05 -2.75 -12.25L-2.25 -12.75L-1.35 -13.15L-1 -13.15L-1.1 -13.05L-1.05 -13.05L-0.35 -12.35L0.4 -11.25L-0.1 -13.3L0.45 -13.8L2 -14" />
</g>
</svg>
