<?xml version="1.0" encoding="utf-8"?>
<svg version="1.1" id="Layer_1"
xmlns="http://www.w3.org/2000/svg"
xmlns:xlink="http://www.w3.org/1999/xlink"
width="28px" height="14px"
xml:space="preserve">
<g id="963" transform="matrix(1, 0, 0, 1, 6.55, 5.7)">
<path style="fill:#000000;fill-opacity:0.85098" d="M9.95,-5.2L10 -5.1L10.05 -4.85L10.05 -4.65L10 -4.35L9.7 -4.2L9.55 -4.15Q8.5 -3.55 7.55 -4.35Q7 -4.75 7.4 -5.35L7.8 -5.6L8.05 -5.7L8.3 -5.7L9.35 -5.6L9.75 -5.5L9.9 -5.25L9.95 -5.2M14.65,-3.35L15.45 -2.9L16.15 -2.2L16.45 -1.5Q16.3 -0.55 15.45 -0.2Q13.95 0.45 12.85 -0.7L12.15 -1.6Q11.75 -2.25 12.35 -2.8Q13.05 -3.4 13.8 -3.65L14.65 -3.35M19.3,-3.25L20 -2.7L20.5 -2.15L20.6 -1.5L20.55 -1.45L20.5 -1.4L20.4 -1.35L20.35 -1.3L20.3 -1.25Q19.55 -1 18.85 -1.25Q18.15 -1.45 17.85 -2.15Q17.55 -2.8 18.1 -3.2L18.5 -3.4L19.3 -3.25M11,5.3L11.3 5.5L11.35 5.55L11.55 5.95L11.6 6.35L11.7 6.4L11.7 6.45L11.75 6.55L11.75 6.9L11.7 6.95L11.25 7.5L10.4 8.1L9.65 8.2L9.4 7.85L9.35 7.8L9 7.3L8.75 6.7L8.75 6.45L8.65 6.4L8.6 6.35L8.6 6.2L8.6 6.1L8.7 5.7L9.05 5.35Q9.25 5.2 9.5 5.1L9.75 4.95L10.2 5L10.6 5.05L10.95 5.25L11 5.3M8.25,2.85L8.65 3.15L8.7 3.2L8.7 3.3L8.7 3.4L8.7 3.55L8.7 3.65Q7.7 4.25 6.45 4.5L5.7 4.65Q4.7 4.8 4.25 4L4.15 3.65L3.8 3.4Q3.15 3.2 2.75 3.65L2.65 3.7L2.55 3.7L2.45 3.65L2.4 3.6L2.35 3.55L2.35 3.5L2.25 3.5L2 3.5L1.85 3.45L1.8 3.4L3.8 2.45L5.3 1.65Q6.15 1.2 7 0.95L7.25 1.05L7.25 1.3L7.05 1.5L6.85 1.65L6.8 1.7L7 1.7L7.35 1.75L7.45 1.95L7.45 2.05L7.4 2.1L7.35 2.2L7.3 2.3L7.25 2.35L7.7 2.6L8.25 2.85M0.9,2.1Q1.3 2.85 0.85 3.45Q0.3 4.15 -0.5 3.85L-1.15 3.2Q-1.4 2.7 -0.85 2.35L-0.85 2.25L-0.85 2.15L-0.85 2.05L-0.8 1.9L-0.7 1.8L-0.65 1.75L0.3 1.8L0.6 1.8L0.7 1.85L0.9 2.1M-4.7,1.05L-4.45 1.1L-4.3 1.2L-4.15 1.35L-4.05 1.8Q-4 2.45 -4.55 2.75L-6.5 2.65L-6.55 2.5L-6.5 2.25L-6.2 1.9L-5.55 1.45L-5.5 1.4L-5.45 1.35L-5.45 1.25L-5.45 1.2L-5.4 1.1L-5.3 1.05L-5.1 0.95L-4.85 1L-4.7 1.05" />
</g>
</svg>
