<?xml version="1.0" encoding="utf-8"?>
<svg version="1.1" id="Layer_1"
xmlns="http://www.w3.org/2000/svg"
xmlns:xlink="http://www.w3.org/1999/xlink"
width="52px" height="55px"
xml:space="preserve">
<g id="468" transform="matrix(1, 0, 0, 1, 0.05, 30.05)">
<path style="fill:#1E1E1E;fill-opacity:1" d="M21.55,-28.7Q21.2 -26.3 19.05 -24.5Q15.15 -21.3 13.35 -24.95Q12.6 -26.4 13.4 -27.65Q14.55 -29.55 16.75 -30.05L19.15 -29.85L20.9 -29.3L21.55 -28.7M14.9,-26.85L14.7 -26.8L14.4 -26.7L14.3 -26.6L14.15 -26.15L14.15 -25.75L14.15 -25.05L14.25 -24.45Q16.05 -24.1 17.45 -25.55L19.85 -27.75Q20 -28.25 19.2 -28.65L16.8 -28.55L16.05 -28.2L15.4 -27.65L14.95 -26.85L14.9 -26.85M9.2,-8.6Q13.3 -9.05 12.9 -5.45Q12.55 -2.5 10.6 -0.35Q9.4 0.9 7.75 0.5Q7.1 -0.3 6.75 -1.25Q6.05 -3.2 6.2 -5.3Q6.35 -7.55 8.35 -8.3L9.2 -8.6M7.75,-6.4L7.6 -5.4L7.4 -3.45Q7.35 -2.3 8 -1.35L8.15 -1.2Q9.5 -1.2 10.1 -2.25L11.4 -4.9L11.6 -6.05L11.4 -6.45L11.25 -6.55L9.4 -6.9Q9.15 -6.7 8.85 -6.65L7.9 -6.5L7.75 -6.4M32.2,-18.65Q32.35 -17.7 31.7 -17Q27.4 -16.8 23.35 -14.15L20.15 -14.25Q16.9 -16.8 20.7 -19.4Q24.15 -21.75 28.25 -21.8Q29.65 -21.85 30.85 -21Q32 -20.15 32.2 -18.65M28.05,-20.25L25.4 -20Q23.85 -19.8 22.8 -19L21.95 -17.95L22.05 -17.65L22.1 -17.5L22.1 -17.25L22.15 -16.95L22 -16.35L21.9 -15.95L21.85 -15.9L23.75 -16.3L26.45 -17.85Q27.6 -18.6 28.85 -19.15L28.7 -19.45L28.6 -19.6L28.5 -19.7L28.45 -20L28.45 -20.15L28.45 -20.25L28.35 -20.3L28.05 -20.25M29.65,-3.25Q29.85 -0.85 27.9 0.25L28.85 1.8Q29.1 2.35 28.8 3.05Q25 11.45 15.6 8.4Q12.95 7.55 14.25 5.05Q15.3 3 17.25 1.4Q17.65 1.05 18.1 0.8Q16.3 0.05 17.55 -2.85Q18.8 -5.75 21.9 -7.05L26.35 -7.3Q29.35 -6.35 29.65 -3.25M25.6,-1.65Q26.95 -2.85 25.95 -4Q25.15 -4.8 24.7 -5.8Q21.55 -6.05 19.4 -3.5Q17.9 -1.7 18.6 0.5Q20.4 -0.6 22.6 -0.95L25 -1.05L25.6 -1.65M44.4,-14.25L43.6 -14.1L42.9 -13.9L42.85 -13.8Q43.15 -13.5 43.6 -13.45L46.8 -13.25L47 -13.35L47.2 -13.6L47.05 -13.9L46.95 -14L46.5 -14.25L44.75 -14.3L44.4 -14.25M42.35,-15.3Q42.8 -15.7 43.3 -15.75Q48.35 -16.95 48.2 -13Q48.2 -12.15 47.35 -11.95Q42.6 -10.7 42 -14.3Q41.9 -14.85 42.35 -15.3M51.7,6.05Q51.8 11.6 47.2 8.45Q46.1 7.75 46.25 6.4Q46.65 2.1 49.3 -0.55Q51.3 0.8 51.55 3.9L51.7 6.05M49.25,3.45L48.5 5.3Q48.1 6.2 47.95 7.15Q47.85 7.75 48.3 8.25L48.9 8.45L49.15 8.55L49.35 8.6L49.9 8.4L50.3 7.95L50.3 6.25L49.85 4.55L49.25 3.45M33.4,5.95L33.15 6.1L33 6.2L33.25 6.35L33.55 6.6L33.6 6.7L33.75 7L33.85 7.15Q32.85 7.4 32.25 8.2Q31.75 8.85 31.55 9.65Q31.35 10.5 31.45 11.4L31.75 11.6L32.2 11.85L33 12.2Q34.25 11.8 34.75 10.4Q35.25 9.05 34.65 7.7L33.7 5.85L33.4 5.95M36.3,10.65Q34.75 16.3 30.4 13.05Q28.9 11.9 29.45 9.9Q30.4 6.35 33.3 4.3Q37.7 5.6 36.3 10.65M26.3,0.85L24.45 0.55L22.75 0.65L22.1 0.85L21.35 0.95Q20.95 1 20.65 1.3L16.75 3.95Q13.2 6.7 17.4 7.7Q22.6 8.9 25.3 5.1L27.55 1.8Q27.5 1.2 26.4 0.85L26.3 0.85M22.95,14.45L23 14.3L23.05 14.15Q21.65 14 20.3 14.15L19.8 14.3L19.35 14.5L18.9 14.65L18.65 14.75L18.6 14.85L18.85 15.05L18.95 15.2L19 15.35L19 15.45L18.9 15.75L18.8 15.8L18.65 15.85L18.35 16L17.9 16.25L17.65 16.35L17.65 16.95L17.7 17.8L17.9 18.95L18.05 19.9L20.4 20.45Q20.25 19.45 21.35 19.15Q23.35 18.7 24.75 17.55Q24.95 17.2 24.7 16.8L23.85 15.8Q23.2 15.1 22.95 14.45M24.65,12.85L25.55 13.4Q28.2 14.8 27.75 18.8Q27.4 21.4 24.7 21.9Q18.9 23.05 15.75 19.05Q14.85 17.9 15.4 16.55Q16.95 12.75 21.25 12.6L24.4 12.95L24.65 12.85M3,0.85Q9.15 3.45 6.55 9.95Q5.3 13.15 2.3 10.85Q-1.5 7.9 0.85 3.4L1.5 2.1Q2 1.1 3 0.85M3.3,3.25L2.65 5.05L2.25 6.9Q2.2 7.75 1.4 7.5Q1 7.45 1.25 8.05L1.6 8.75L1.85 9.1Q4.7 10.3 5.15 7.3Q5.4 5.55 4.2 4.05L3.3 3.25M3.55,18.5L2.7 19Q2.25 19.15 1.85 19.45Q1.45 19.75 1.35 20.2L1.55 20.2L1.95 20L2.2 19.95L2.45 20L2.3 20.7L2 21.25Q1.9 21.75 2.1 22.15L2.25 22.4Q4.25 23.2 5.95 21.8Q7.2 20.75 6.35 19.25L6.25 19L5.4 18.6L3.65 18.45L3.55 18.5M0.3,19.65Q1.15 17.55 3.4 17Q9.85 17.05 8.55 22.3Q8.15 24.1 6.3 24.45Q2.05 25.35 0.45 22.3Q-0.2 21 0.3 19.65" />
<path style="fill:#3A3A3A;fill-opacity:1" d="M14.95,-26.85L15.4 -27.65L16.05 -28.2L16.8 -28.55L19.2 -28.65Q20 -28.25 19.85 -27.75L17.45 -25.55Q16.05 -24.1 14.25 -24.45L14.15 -25.05L14.15 -25.75L14.15 -26.15L14.3 -26.6L14.4 -26.7L14.7 -26.8L14.9 -26.85L14.95 -26.85M7.9,-6.5L8.85 -6.65Q9.15 -6.7 9.4 -6.9L11.25 -6.55L11.4 -6.45L11.6 -6.05L11.4 -4.9L10.1 -2.25Q9.5 -1.2 8.15 -1.2L8 -1.35Q7.35 -2.3 7.4 -3.45L7.6 -5.4L7.75 -6.4L7.9 -6.5M28.35,-20.3L28.45 -20.25L28.45 -20.15L28.45 -20L28.5 -19.7L28.6 -19.6L28.7 -19.45L28.85 -19.15Q27.6 -18.6 26.45 -17.85L23.75 -16.3L21.85 -15.9L21.9 -15.95L22 -16.35L22.15 -16.95L22.1 -17.25L22.1 -17.5L22.05 -17.65L21.95 -17.95L22.8 -19Q23.85 -19.8 25.4 -20L28.05 -20.25L28.35 -20.3M25,-1.05L22.6 -0.95Q20.4 -0.6 18.6 0.5Q17.9 -1.7 19.4 -3.5Q21.55 -6.05 24.7 -5.8Q25.15 -4.8 25.95 -4Q26.95 -2.85 25.6 -1.65L25 -1.05M44.75,-14.3L46.5 -14.25L46.95 -14L47.05 -13.9L47.2 -13.6L47 -13.35L46.8 -13.25L43.6 -13.45Q43.15 -13.5 42.85 -13.8L42.9 -13.9L43.6 -14.1L44.4 -14.25L44.75 -14.3M49.85,4.55L50.3 6.25L50.3 7.95L49.9 8.4L49.35 8.6L49.15 8.55L48.9 8.45L48.3 8.25Q47.85 7.75 47.95 7.15Q48.1 6.2 48.5 5.3L49.25 3.45L49.85 4.55M33.7,5.85L34.65 7.7Q35.25 9.05 34.75 10.4Q34.25 11.8 33 12.2L32.2 11.85L31.75 11.6L31.45 11.4Q31.35 10.5 31.55 9.65Q31.75 8.85 32.25 8.2Q32.85 7.4 33.85 7.15L33.75 7L33.6 6.7L33.55 6.6L33.25 6.35L33 6.2L33.15 6.1L33.4 5.95L33.7 5.85M26.4,0.85Q27.5 1.2 27.55 1.8L25.3 5.1Q22.6 8.9 17.4 7.7Q13.2 6.7 16.75 3.95L20.65 1.3Q20.95 1 21.35 0.95L22.1 0.85L22.75 0.65L24.45 0.55L26.3 0.85L26.4 0.85M23.85,15.8L24.7 16.8Q24.95 17.2 24.75 17.55Q23.35 18.7 21.35 19.15Q20.25 19.45 20.4 20.45L18.05 19.9L17.9 18.95L17.7 17.8L17.65 16.95L17.65 16.35L17.9 16.25L18.35 16L18.65 15.85L18.8 15.8L18.9 15.75L19 15.45L19 15.35L18.95 15.2L18.85 15.05L18.6 14.85L18.65 14.75L18.9 14.65L19.35 14.5L19.8 14.3L20.3 14.15Q21.65 14 23.05 14.15L23 14.3L22.95 14.45Q23.2 15.1 23.85 15.8M4.2,4.05Q5.4 5.55 5.15 7.3Q4.7 10.3 1.85 9.1L1.6 8.75L1.25 8.05Q1 7.45 1.4 7.5Q2.2 7.75 2.25 6.9L2.65 5.05L3.3 3.25L4.2 4.05M3.65,18.45L5.4 18.6L6.25 19L6.35 19.25Q7.2 20.75 5.95 21.8Q4.25 23.2 2.25 22.4L2.1 22.15Q1.9 21.75 2 21.25L2.3 20.7L2.45 20L2.2 19.95L1.95 20L1.55 20.2L1.35 20.2Q1.45 19.75 1.85 19.45Q2.25 19.15 2.7 19L3.55 18.5L3.65 18.45" />
</g>
</svg>
