<?xml version="1.0" encoding="utf-8"?>
<svg version="1.1" id="Layer_1"
xmlns="http://www.w3.org/2000/svg"
xmlns:xlink="http://www.w3.org/1999/xlink"
width="118px" height="43px"
xml:space="preserve">
<g id="476" transform="matrix(1, 0, 0, 1, 95.7, -220.25)">
<path style="fill:#3A1D0F;fill-opacity:0.85098" d="M21.7,253.65Q22.8 259.5 16.1 260.75Q9.05 262.05 7.1 256.85L7.15 255.95Q8.6 251.4 13.75 251.6L15.15 251.4L17.8 251.75Q19.15 252 20.35 252.7L21.7 253.65M-77.4,231.5Q-82.65 234.65 -88.35 232.75L-89.8 232.05Q-92.45 232.55 -94.4 229.5Q-96.3 226.5 -94.8 223.3Q-93.55 220.65 -90.5 220.25Q-87.7 220.25 -85.75 222.45L-85.1 223.25L-84.55 222.5Q-83.75 221.8 -82.75 221.55L-81.7 221.25Q-74.5 221.9 -75.75 229.2Q-76 230.7 -77.4 231.5M-78,243.25L-77.9 243.5Q-77.9 244.1 -78.45 244.35L-81.6 244.5L-83.85 244.1Q-84.15 243.45 -84.75 243.05Q-86.05 242.15 -86.1 240.7Q-86.15 239.35 -85.3 238.45Q-84.85 238 -84.4 237.8Q-82.45 237.55 -81.2 239.1L-79 241.95L-78 243.25M-70.45,246.7Q-66.65 250.15 -71.35 254.25L-73.95 256.25Q-78.55 259.35 -81.8 255.35Q-82.4 254.65 -81.95 253.8L-82.05 253.7L-82.1 253.7L-82.4 253.5L-82.7 253.25Q-83.6 249.7 -79.85 248.95L-71.05 246.85L-70.45 246.7M-46.2,251.95Q-42.25 252.3 -38.7 250.4L-38.5 250.3Q-32.95 250.05 -34.85 254.5Q-35.3 255.55 -36.35 256.05Q-40.45 258.1 -44.95 256.9L-46.6 256.4Q-52.2 258.9 -56.3 255.3Q-60.5 259.55 -67.1 256.4Q-68.15 255.9 -67.7 254.6Q-66.2 250.1 -60.7 251L-58 251.25Q-57.3 251.4 -56.8 251.8Q-55.6 250.1 -53.45 249.35Q-49.6 249.95 -47.45 252.35Q-46.95 251.85 -46.2 251.95M-6.95,257.3Q-8.65 259.2 -11.2 259.65Q-14.5 260.25 -17.1 258.6Q-20.35 260.35 -23.9 258.95Q-24.65 258.65 -25.3 257.95L-25.3 256.9Q-25.2 255.25 -23.9 254.2Q-22.1 252.7 -19.85 252.35Q-16.85 252.2 -15.75 253.6L-14.6 253.2L-11.25 252.75L-8.6 252.35Q-3.85 253.85 -6.95 257.3M-34.6,259.35Q-30.65 258.75 -29.4 261.7Q-29.2 262.05 -29.75 262.25Q-33.25 263.65 -35.55 260.9Q-36.15 260.2 -35.25 259.7L-34.6 259.35M-92.15,233.95Q-88.8 234.1 -86.95 236.65Q-85.5 238.75 -87.55 240.4Q-89.25 241.75 -91.4 241.25Q-98.15 239.6 -94.3 234.75Q-93.8 234.1 -93 233.95L-92.15 233.95" />
</g>
</svg>
