<?xml version="1.0" encoding="utf-8"?>
<svg version="1.1" id="Layer_1"
xmlns="http://www.w3.org/2000/svg"
xmlns:xlink="http://www.w3.org/1999/xlink"
width="23px" height="22px"
xml:space="preserve">
<g id="1034" transform="matrix(1, 0, 0, 1, 11.1, 13.35)">
<path style="fill:#7EF0FF;fill-opacity:1" d="M3.95,-13.35L4.1 -13.25L4.3 -13.2L4.35 -13.1L4.45 -13.05L4.1 -12.7L3.4 -12.25Q3.15 -12.05 2.9 -12L2.35 -11.65L2.6 -11.35L3.15 -10.8L3.4 -10.45L3.7 -10.05L3.9 -9.9L3.95 -9.9L4.1 -9.85L4.2 -9.75L4.3 -9.25L4.1 -8.85L3.8 -8.45Q3.65 -8.25 3.3 -8.15Q3.1 -8 2.85 -8.25L2.85 -8.3L2.9 -8.45L3.1 -8.8L3.4 -9.05L3.5 -9.05L3 -9.75L2.6 -10.15L2.1 -10.7L1.4 -11.45L1.3 -11.5L1.25 -11.6L1.25 -11.9L1.3 -12L2.1 -12.55L2.75 -12.85L3.5 -13.2L3.95 -13.35M6.3,-7.45L9.65 -7.45L9.95 -7.1L9.95 -6.95L9.9 -6.85L9.8 -6.8L9.75 -6.8L9.65 -6.7L6.45 -6.7L6.45 -6.65L6.3 -6.05L6.2 -5.75L6.2 -5.6L6.15 -4.85L6.05 -4.3L5.95 -4.2L4.9 -3.9L4.75 -3.8L4.5 -3.75L4.35 -3.65L4.2 -3.6Q3.7 -3.35 3.25 -3.6L3.25 -3.75L3.3 -3.9L3.4 -4.05L3.5 -4.15L4.5 -4.45L5.4 -4.8L5.4 -4.95L5.5 -5.05L5.5 -5.25L5.3 -5.75L5.3 -6.05L5.3 -6.15L5.25 -6.25L5.25 -6.3L5.15 -6.85L5.15 -7.2L5.25 -7.25L5.5 -7.35L6.3 -7.45M0.1,-2.7Q-1.55 -1.75 -3.7 -2.45Q-3.9 -3.2 -3.4 -3.65L-2.6 -4.45L-1.5 -5.5L-0.45 -6.7L-1.65 -7.35L-2.7 -8L-3.15 -8.65L-3.5 -9.05L-3.55 -9.25L-3.5 -9.35L-3.5 -9.5L-3.4 -9.6L-2.3 -8.8L-1.3 -7.9Q-0.75 -7.5 -0.05 -7.35L0.5 -6.8L-0.2 -5.65L-1 -4.95L-1.95 -4.15L-2.85 -3.2Q-1.25 -3.6 0.05 -2.8L0.1 -2.7M0.6,-0.2L0.75 -0.15L0.85 -0.05L0.85 0L0.9 0.1L0.2 0.75L-0.45 1.2L-1 1.6L-1.3 1.8L-1.65 1.7L-1.65 1.6L-1.7 1.55L-2.75 1.3L-3.4 0.8L-3.4 0.4L-3.25 0.35L-2.7 0.5L-1.95 0.8L-1.55 0.8L-1.15 0.9L-1 0.75L-0.45 0.4L0.35 -0.15L0.6 -0.2M11.5,6.6L11.8 7Q11.65 7.7 10.95 7.4L9.35 6.9L8.05 6.75L7.65 6.6L7.35 6.1L7.35 5.4L7.35 4.9L7.35 4.4L7.15 3.6L7.15 2.9L6.2 2.6L4.45 2.2L3.4 1.95L3.3 1.7L3.4 1.6L3.5 1.55L4.05 1.55L4.05 1.45L4.3 1.6L4.5 1.7L4.6 1.7L4.85 1.6L4.85 1.55L5.55 1.7L6.7 1.95L7.8 2.2Q8.15 2.2 8.3 2.4L8.3 2.75L8.15 3.2L8.15 3.7L8.15 4.1L8.15 4.35L8.15 4.75L8.15 5.3Q8.45 5.6 9.25 5.7Q10.15 5.85 10.95 6.35L11.5 6.6M0.35,3.8Q0.75 4 0.85 4.5L1.15 5.3L1.65 5.95L1.9 6.4L0.85 7L-0.45 7.7L-1.1 7.8L-1.15 7.7L-1.15 7.45L-0.75 7L0.3 6.5L0.7 6.2L0.6 5.8L0.35 5.3L0.3 4.8Q0.2 4.6 0.35 4.35L0.3 4.25L0.2 4.1L0.2 3.95L0.3 3.85L0.35 3.8M-11,-2.3L-10.95 -2.4L-10.85 -2.45L-10.55 -2.55L-10.05 -2.15L-9.55 -1.6L-9.15 -1L-9.1 -0.7L-8.75 -1L-8.3 -1.4L-7.75 -1.75L-7.55 -1.9L-6.55 -1.2L-5.5 0.2L-4.9 1L-4.7 1.7Q-5.15 1.8 -5.5 1.05L-6.35 -0.05L-7.1 -0.8L-7.5 -1.25L-7.9 -0.85L-8.35 -0.3Q-8.85 0.1 -9.4 -0.05L-9.75 -0.6L-10.05 -1.35L-10.75 -1.9L-11.1 -2.3L-11 -2.3M-4.5,4.6L-4.35 5L-3.95 5.4L-3.95 5.7L-4.05 5.7L-4.05 5.8L-4.1 5.8L-4.3 5.8L-4.45 5.7L-4.5 5.55L-4.85 5.3L-5 5.15L-5.1 5L-5.15 5.05L-5.3 5.2L-5.4 5.4L-5.5 5.55L-5.5 5.6L-5.4 5.8L-5.4 5.95L-5.5 6.1L-5.5 6.2L-8.95 6L-5.95 5.8L-5.95 5.7L-5.9 5.3L-5.55 4.75L-5.25 4.4L-4.85 4.2Q-4.5 4.25 -4.5 4.6" />
</g>
</svg>
