<?xml version="1.0" encoding="utf-8"?>
<svg version="1.1" id="Layer_1"
xmlns="http://www.w3.org/2000/svg"
xmlns:xlink="http://www.w3.org/1999/xlink"
width="25px" height="19px"
xml:space="preserve">
<g id="676" transform="matrix(1, 0, 0, 1, 1.35, -3.15)">
<path style="fill:#000000;fill-opacity:0.498039" d="M23.2,20.3Q23.2 21.05 20.4 21.6L13.65 22.15L6.8 21.6L4.8 21.05L2.3 21.05Q-0.5 20.7 -0.5 20.3Q-0.5 20.05 0.5 19.85L4.25 19.85Q4.85 19.4 6.8 19L13.65 18.45L20.4 19Q23.2 19.55 23.2 20.3" />
<path style="fill:#000000;fill-opacity:1" d="M20.9,21.55Q20.05 21.9 19.05 21.55Q19.2 19.95 18.3 19.05L17.3 18.15L17.3 18.4L17.3 18.55L17.25 18.7L17.2 18.85L17.2 18.95L17.2 19L17.2 19.1L17.2 19.2L17.2 19.3L17.2 19.35L17.15 19.8L17.2 20.55L14.4 20.8Q13.25 21.85 11.35 21.3Q11.2 20.75 11.6 20.3L11.9 19.95L11.75 19.8L8.2 19.65Q7.7 19.6 7.4 19.1L1.65 18.95L0.15 18.9L-0.5 18.9L-1.3 18.7L-1.35 18.55L-1.35 18.5L-1.3 18.25L-1.25 18.1L-1.25 18L-1.25 17.9L-1.15 17.75L-1.15 17.7L-1.15 17.6L8.7 17.6L10.35 17.4Q9.65 17 9.35 16.3Q9.5 15.3 10.1 14.5L11.7 12.8L11.85 12.7L10.75 11.45L9.7 13.2L9.2 13.9L8.6 15.7L8 16.05Q5.8 16 6.75 14.85L6.7 14.8L8.2 11.15Q8.9 9.45 9 7.6Q7.5 7.3 7.35 5.6Q7.1 3.4 9.4 3.15Q11.8 3.6 11.6 5.5L11.85 6L11.95 6.4Q14.05 6.15 15.2 7.7Q15.95 8.75 15.6 9.95L16.05 10.65L16.2 10.9L16.25 10.9L20.35 15.65Q21.85 17.25 21.7 19.15Q21.6 20.4 20.9 21.55M12.1,6.85L12.2 6.9L12.1 6.85M16.55,17.5L15.65 16.65L14.9 15.85L14.6 15.5L14.5 15.5L14.4 15.5L14.2 15.55Q13.9 15.85 13.9 16.3L13.95 16.7L14.2 17.1Q15.45 17.1 16.65 17.6L16.55 17.5" />
</g>
</svg>
