<?xml version="1.0" encoding="utf-8"?>
<svg version="1.1" id="Layer_1"
xmlns="http://www.w3.org/2000/svg"
xmlns:xlink="http://www.w3.org/1999/xlink"
width="26px" height="24px"
xml:space="preserve">
<g id="883" transform="matrix(1, 0, 0, 1, 5.45, -3.15)">
<path style="fill:#000000;fill-opacity:1" d="M20.3,11.65Q20.05 12.5 19.4 12.65L18.45 11.9Q17.2 14.6 14.2 15.1L10.8 15.5L6.45 18.1Q6.65 18.95 6.1 19.75Q4.65 22.1 5.65 24.6L6.3 25.5L6.25 26.25L5.3 27.1L4.05 27L3.75 26.55L2.9 23.4L3.8 18.6Q3.4 20.4 1.55 20.95Q-0.45 21.35 -1.45 19.35L-1.65 17.95L-1.4 17.05L-1.05 16.55Q0.1 15.6 1.7 16Q2.35 15.95 2.1 15.65Q2.2 15.15 1.35 15.1L-0.25 14.65L-2.85 16.7L-3 17.45L-4.8 18.25L-5.4 17.55Q-5.5 17.1 -5.2 16.65Q-4.25 15.05 -2.8 13.65Q-2.1 12.95 -1.25 12.6Q-0.35 12.1 0.5 12.25L1.35 12.55L1.75 12.85L2.4 13.2Q3.1 13.8 3.7 13.8L5 12.9L5.9 12.05Q7.1 10.9 8.3 11.25Q8.6 11.95 8.95 11.5L12.85 5.5L12.75 3.7L13.6 3.15L14.05 3.4Q15.45 4.5 15.55 6.25L12 11.65L11.9 12.55L13 12.35L14.7 12.55Q16.35 11.55 16.95 9.75L17.8 9.05L20.3 11.15L20.3 11.65" />
</g>
</svg>
