<?xml version="1.0" encoding="utf-8"?>
<svg version="1.1" id="Layer_1"
xmlns="http://www.w3.org/2000/svg"
xmlns:xlink="http://www.w3.org/1999/xlink"
width="8px" height="9px"
xml:space="preserve">
<g id="941" transform="matrix(1, 0, 0, 1, -24.2, 2.4)">
<path style="fill:#000000;fill-opacity:0.901961" d="M29.85,-1.2Q29.85 -0.75 28.6 -0.75Q27.5 -0.75 27.5 -1.25Q27.5 -1.85 28.55 -1.85Q29.85 -1.85 29.85 -1.2M31.7,-1.75L31.25 -1.6Q30.85 -1.6 30.85 -2.05Q30.85 -2.4 31.4 -2.4L31.9 -2.05L31.7 -1.75M31.6,5L32.05 5.35L31.75 5.7L31 5.95L29.55 5.7L28.7 5.2Q28.7 4.75 30.55 4.75L31.6 5M30.4,2.25L29.6 2.25L28.9 2.4L27.3 2.8Q26.15 1.45 26.05 0.75L26.45 0.65L27.4 1.3L27.6 1.05L28.2 1L30 1.3Q30.75 1.55 30.75 1.85L30.4 2.25M26.95,5.25L27.2 5.25Q28 5.25 28.5 5.6L28.9 6.15Q28.9 6.6 28.35 6.6L26.25 6.3L26 6.4L25.15 6.4L24.6 6L24.2 5.55Q24.2 5.05 25.75 5.1L26.95 5.25" />
</g>
</svg>
