<?xml version="1.0" encoding="utf-8"?>
<svg version="1.1" id="Layer_1"
xmlns="http://www.w3.org/2000/svg"
xmlns:xlink="http://www.w3.org/1999/xlink"
width="37px" height="24px"
xml:space="preserve">
<g id="1082" transform="matrix(1, 0, 0, 1, 14.1, 28)">
<path style="fill:#3A3A3A;fill-opacity:1" d="M1.45,-25.3Q1.55 -25.8 1.95 -26.1L2.3 -26.7Q2.55 -27.3 3.15 -27.5L4.7 -27.55L4.75 -27.35L5.1 -26.4L5.1 -25.6L5.1 -25.15L5.4 -25.15L5.6 -25.35L5.8 -25.55L5.9 -25.7L5.9 -26.45L5.95 -26.5L6.3 -26.55L6.6 -26.5L7.05 -25.75Q7.25 -25.05 6.85 -24.4Q6.4 -23.7 5.7 -23.45L5.5 -23.65L5.5 -23.95L5.5 -24.35L5.3 -24.65L5.2 -24.65L5.15 -24.6L5.15 -24.55L5.1 -24Q5.05 -23.2 4.5 -22.75Q4 -22.3 3.5 -22.75Q2.8 -23.35 2.8 -24.3Q2.6 -24.35 2.5 -24.1L2.3 -23.55L1.9 -23.5Q1.2 -23.15 0.9 -23.7L0.8 -23.85Q1.25 -24.1 1.3 -24.65L1.35 -25L1.45 -25.3M12.1,-23.25L11.9 -23.15Q11.15 -23.25 10.8 -22.8L10.5 -22.6Q8.85 -22.5 9.2 -23.9Q9.3 -23.7 9.4 -23.9L9.7 -24.25L9.9 -24.6L10.2 -24.6L10.65 -24.35Q11.3 -24.1 12.05 -24.35Q12.55 -23.85 12.1 -23.25M10.5,-19.75L10.7 -20.25L11.3 -20.85L12.1 -21.15L13 -21L13.6 -20.4L13.8 -20L13.75 -19.85L13.65 -19.55L13.6 -19.25L13.55 -19L13.45 -18.85L12.95 -18.65Q11.8 -18.15 11.05 -19.1L10.5 -19.75M10.55,-18.25Q11.35 -17.55 12.05 -17.5Q12.3 -16.95 11.75 -16.5Q11.05 -15.9 10.25 -16.05L10.35 -15.2Q10.6 -14.15 9.5 -14.1Q7.9 -14 7.5 -15.4L7.7 -15.8L8.2 -16.2L9 -16.4L9 -16.5Q8.8 -17 9.15 -17.5L9.55 -17.85Q10.2 -18.1 10.15 -18.4L10.35 -18.45L10.55 -18.25M10.45,-12.45L10.25 -12.15L10 -11.95L9.5 -11.7L9.4 -11.05Q9.05 -10.4 8.3 -10.4Q7.95 -10.4 7.7 -10.55Q7.4 -10.75 7.2 -11L7.2 -11.1L7.2 -11.3L7.25 -11.35L7.45 -11.5L7.45 -11.55L7.5 -11.65L7.3 -11.85Q7.05 -11.85 6.9 -12.05Q6.2 -12.9 7.25 -13.35L8.2 -13.5L9.65 -13.55L10.4 -13.55L10.6 -13L10.45 -12.45M17.35,-14.25L17.35 -14.35L17.45 -14.35L17.55 -14.4L17.65 -14.4L17.75 -14.45Q18.2 -14.45 18.3 -14.05Q18.35 -13.7 18.05 -13.6Q17.45 -13.35 17 -13.8L17.05 -13.9L17.25 -14.1L17.35 -14.25M6.75,-19.8L7.6 -19.1L7.8 -19.1L7.85 -19.15L7.85 -19.2L7.9 -19.2L7.9 -19.3L8.2 -19.35L8.45 -19.35L8.4 -19.35L8.4 -19.25L8.55 -19.15L8.55 -19L8.6 -18.9L8.6 -18.85L8.6 -18.75L8.45 -18.75L7.55 -18.3L7.3 -17.75Q5.9 -17.4 5.9 -16.05L5.75 -15.3Q5.25 -13.8 4.1 -14.7L4.05 -14.85L4.05 -14.95L4 -14.95L4 -15.25L4.05 -16.15L4 -16.2L3.9 -16.25L3.85 -16.25L3.45 -15.85Q3.2 -15.2 3.3 -14.55L3.35 -14.35Q2.9 -14.4 2.7 -14.85L2.6 -15.35L2.75 -15.85L2.55 -16.05L2.35 -16.3L2.2 -16.6L2.2 -16.8L2.25 -16.95L2.95 -17.25L4.05 -17.35L4.05 -17.6Q3.75 -17.85 3.7 -18.25Q3.65 -18.85 4.15 -19.3L4.8 -19.65L4.95 -19.65L5.05 -19.7L5.1 -19.7L5.1 -19.75L5.2 -19.8L5.2 -19.85L6.75 -19.8M1.45,-19.6L1.5 -19.55L1.6 -19.55L1.7 -19.55L2.4 -20.2L4.3 -20.35L4.65 -19.9L3.65 -19.3L3.25 -18.45Q3.25 -18.1 3.4 -17.8L2.15 -17.35Q1.65 -17 1.85 -16.45L2.25 -15.75Q2.05 -15.35 2.25 -14.9L2.65 -14.3L2.65 -14.2L2.65 -13.9L2.65 -13.65L1.95 -13.75Q1.7 -13.85 1.55 -13.9Q1.7 -15.15 0.85 -16.3L0.85 -16.9L0.4 -17.8L0.15 -18.05L-0.15 -19.3L-0.6 -20.15L-0.5 -20.25L1.2 -20.2L1.45 -19.6M1.3,-13.1Q2.05 -12.3 3 -12.85L4.05 -12.8L4.15 -12.85L4.15 -12.8L4.45 -12.1Q4.4 -11.65 3.85 -11.55L3.85 -11.45L3.95 -11.35L4.1 -11.25L4.15 -11.2Q4.1 -10.7 3.6 -10.7Q2.75 -10.75 2.05 -11.25L2 -11.15L2 -11.1L1.95 -11.05L1.95 -11Q1.2 -10.95 0.75 -11.55L0.4 -11.85L1.05 -12.65L1.3 -13.1M5.75,-7.1L5.75 -6.8L5.8 -6.2L5.7 -5.7L5.7 -5.65L5.55 -5.55L5.45 -5.55L5.45 -5.95L5.55 -6.55L5.75 -7.1M8.3,-6.75L8.85 -6.95L9.05 -6.9L9.2 -6.8L9.3 -6.7L9.35 -6.6L9 -6.15L8 -6.1L7.95 -6.4L8.3 -6.75M2,-9L2.05 -8.95L2.25 -8.65L2.2 -8.4L2.1 -8.15L2 -8.1L1.65 -7.9Q1.2 -8 0.85 -8.3L1 -8.5L1.1 -8.75L1.1 -8.85L1.1 -8.95L1.3 -9L1.4 -9.05L1.6 -9.05L1.7 -9.1L2 -9.1L2 -9.05L2 -9M2.85,-5.85L2.85 -5.8L2.8 -5.7L2.75 -5.65L2.75 -5.55L2.25 -5.5L1.9 -5.7L1.95 -5.85L1.95 -5.95L2 -6L2 -6.05L2.1 -6.05L2.15 -6.05L2.55 -6.05L2.85 -5.85M12.55,-10.2Q13.3 -9.95 12.9 -9.35Q12.55 -8.9 12.1 -9.2Q11.3 -9.75 12.35 -10.2L12.55 -10.2M10.95,-6.8L11.45 -7L11.95 -7.15L11.75 -7L11.35 -6.75L10.75 -6.65L10.95 -6.8M13.6,-8.5L13.5 -8Q13.2 -7.65 12.9 -7.7L13 -7.95L13.2 -8.3L13.6 -8.5M20.9,-9.95L21.15 -10.3L21.55 -10.45L21.6 -10.5L22.25 -10.35L22.45 -10.2L22.5 -9.95Q22.55 -9.55 22.1 -9.4Q21.35 -9.1 20.85 -9.7L20.9 -9.95M-8.35,-27.15Q-7.7 -27.1 -7.25 -26.6L-7.2 -25.6Q-7.4 -24.5 -8.7 -24.9L-8.7 -24.85Q-8.55 -24.4 -8.75 -23.95Q-9.05 -23.25 -9.9 -23.3L-10.05 -23.4L-10.25 -23.65L-10.4 -23.7L-10.45 -23.65L-10.75 -23.85Q-11.2 -24.3 -10.8 -24.85Q-10.4 -25.4 -9.8 -25.15L-9.65 -25.75L-9.2 -26.6L-8.35 -27.15M-0.25,-26.2L0.2 -26Q1.1 -24.9 -0.15 -24.1L-0.85 -24.15Q-2.35 -25.15 -0.9 -26.25L-0.25 -26.2M-2.85,-23.3Q-2.9 -23 -3.1 -22.8L-4 -22.2L-3.95 -22.15Q-3.4 -21.3 -3.6 -20.3Q-3.7 -19.7 -4.15 -19.3Q-4.75 -18.85 -5.45 -18.85L-5.05 -18.15Q-4.9 -17.8 -5.1 -17.5L-5.75 -16.6L-6.25 -16.6L-6.95 -16.4L-7.05 -16.5L-7.2 -16.25L-7.15 -16.1L-7.45 -16.2Q-8.5 -16.45 -8.15 -17.6Q-7.9 -18.3 -7.15 -18.35L-7.35 -18.95Q-7.7 -19.35 -7.25 -19.65L-6.1 -20.2L-6.45 -21.2Q-6.65 -21.9 -6.15 -22.45L-5.4 -22.95Q-5.35 -22.7 -5.1 -22.85L-5.15 -23.05L-5 -23.1L-5.05 -23.2L-5.15 -23.3L-5.2 -23.3L-5.1 -24L-4.5 -24.55Q-2.85 -24.95 -2.75 -23.45L-2.85 -23.3M-1.45,-19.6L-1.35 -19.55Q-0.6 -19.1 -0.75 -18.25L-0.75 -18.2Q-0.85 -17.65 -1.1 -17.25L-1.3 -17.25L-3.05 -17.2L-3.5 -17.8L-3.5 -18.1Q-2.9 -18.8 -2.45 -19.7L-1.65 -19.7L-1.65 -19.65L-1.6 -19.6L-1.45 -19.6M-6.8,-15.75L-5.05 -15.7L-4.2 -15.3L-2.45 -15.4L-2.35 -15.45Q-2.6 -15.15 -2.95 -14.95Q-4.05 -14.25 -5.4 -14.65Q-6.5 -14.95 -7.2 -15.7L-6.8 -15.75M-0.2,-16.65L0.2 -15.3Q0.45 -14.1 -0.1 -13Q-0.5 -12.1 -1.4 -12.1L-1.6 -12.4L-1.7 -12.65Q-1.25 -13.55 -1.65 -14.5L-1.7 -15.25L-0.55 -17.2L-0.2 -16.65M-13.45,-20.85L-12.9 -20.6Q-11.6 -20.05 -12.8 -19.3Q-13.05 -19.15 -13.3 -19.3Q-14.25 -20 -13.45 -20.85M-10.6,-10.15L-10.45 -9.9L-10.4 -9.5L-10.45 -9.25L-10.5 -9.1Q-10.75 -8.9 -11.1 -8.95Q-11.8 -9.05 -11.65 -9.6Q-11.5 -10.2 -10.9 -10.2L-10.85 -10.2L-10.7 -10.2L-10.65 -10.2L-10.6 -10.15M-2,-9.3L-2.2 -9.35L-2.45 -9.5Q-3.15 -10.7 -1.65 -10.95L-1.1 -10.65Q-1.05 -10.2 -1.35 -9.85Q-1.6 -9.5 -2 -9.3M-0.35,-10.4L-0.15 -10.35Q0.35 -9.7 -0.5 -9.5L-0.9 -9.4L-0.85 -9.5L-0.55 -10.35L-0.35 -10.4M-5.1,-8Q-5.05 -7.75 -5.25 -7.6Q-5.85 -7.15 -6.75 -7.3L-6.85 -7.65L-6.6 -8.1L-6.15 -8.3L-5.25 -8.2L-5.1 -8M-2.25,-5.7L-2.05 -5.6L-2 -5.55L-1.95 -5.5L-1.9 -5.35L-1.9 -5.25L-2.5 -5.15Q-2.7 -5.1 -2.8 -5.3L-2.7 -5.35L-2.6 -5.4L-2.5 -5.5L-2.45 -5.6L-2.4 -5.7L-2.25 -5.7" />
<path style="fill:#1E1E1E;fill-opacity:1" d="M1.7,-26.45L2.1 -26.75L2.2 -27.05L3.2 -27.8L4.2 -28Q4.85 -27.95 5.3 -27.5L5.85 -26.75L6 -26.85L6.1 -26.9Q7.7 -26.8 8 -25.2Q8.25 -23.65 7.15 -22.6Q6.5 -22.05 5.7 -22.05Q5.2 -21.25 4.2 -21.15L3.55 -21.15Q2.8 -21.25 2.3 -21.8Q0.95 -21.5 -0.2 -22.25Q-0.95 -22.8 -0.9 -23.7Q-1.75 -24 -1.8 -25.2Q-1.85 -26.4 -0.65 -26.6L-0.5 -26.65Q0.8 -26.6 1.2 -25.75L1.7 -26.45M1.35,-25L1.3 -24.65Q1.25 -24.1 0.8 -23.85L0.9 -23.7Q1.2 -23.15 1.9 -23.5L2.3 -23.55L2.5 -24.1Q2.6 -24.35 2.8 -24.3Q2.8 -23.35 3.5 -22.75Q4 -22.3 4.5 -22.75Q5.05 -23.2 5.1 -24L5.15 -24.55L5.15 -24.6L5.2 -24.65L5.3 -24.65L5.5 -24.35L5.5 -23.95L5.5 -23.65L5.7 -23.45Q6.4 -23.7 6.85 -24.4Q7.25 -25.05 7.05 -25.75L6.6 -26.5L6.3 -26.55L5.95 -26.5L5.9 -26.45L5.9 -25.7L5.8 -25.55L5.6 -25.35L5.4 -25.15L5.1 -25.15L5.1 -25.6L5.1 -26.4L4.75 -27.35L4.7 -27.55L3.15 -27.5Q2.55 -27.3 2.3 -26.7L1.95 -26.1Q1.55 -25.8 1.45 -25.3L1.35 -25M10.3,-24.9L10.75 -24.7L11 -24.45Q11.9 -25.15 12.55 -24.25L12.65 -23.5Q12.35 -22.4 11.15 -22.65Q10.45 -21.5 9.25 -22.5Q8.55 -23.1 8.9 -23.95Q9.2 -24.6 9.8 -25L10.3 -24.9M12.05,-24.35Q11.3 -24.1 10.65 -24.35L10.2 -24.6L9.9 -24.6L9.7 -24.25L9.4 -23.9Q9.3 -23.7 9.2 -23.9Q8.85 -22.5 10.5 -22.6L10.8 -22.8Q11.15 -23.25 11.9 -23.15L12.1 -23.25Q12.55 -23.85 12.05 -24.35M10.2,-18.75Q9.95 -19.25 10.2 -19.9Q10.65 -21.25 12.05 -21.5Q14.2 -21.45 14.15 -19.4Q14.1 -18.8 13.7 -18.4L13.45 -18.1Q14 -17.6 13.7 -16.75Q13.5 -16.05 12.9 -15.55L12.95 -15.2L12.7 -14.25L12.35 -13.85Q12.6 -13.2 12.3 -12.55Q12 -11.8 11.35 -11.35Q11 -11.1 10.55 -11Q10.15 -10.1 9.2 -9.75Q8.1 -9.35 7.25 -10Q6.45 -9.5 5.55 -10L5.45 -10.05L5.05 -9.45Q4.25 -8.65 3.15 -9.15L2.5 -9.65Q1.1 -9.9 0.15 -11.05L-0.05 -11.55L-1.85 -11.6L-2.45 -11.5L-3.15 -11.75L-3.25 -11.95L-3.25 -12L-4.85 -12.1L-5.3 -12.5L-5.65 -12.95L-5.65 -13.05L-5.65 -13.15L-6.5 -13.85L-7.8 -15.6L-7.8 -15.85L-8.4 -16.5Q-8.65 -16.95 -8.55 -17.5Q-8.4 -18.3 -7.65 -18.65L-7.9 -19.2L-7.75 -19.75Q-7.3 -20.3 -6.65 -20.45L-6.85 -21.25Q-7 -21.85 -6.65 -22.4L-5.45 -23.25L-5.4 -23.95Q-5.2 -24.85 -4.35 -25.05L-4.3 -25.05Q-3.4 -25.2 -2.8 -24.55Q-2.2 -23.9 -2.35 -22.95L-2.65 -22.05L-2.55 -21.85L-2.2 -21.15L-2.2 -20.2L-2.2 -20.1L-1.75 -20.1L-1.45 -20L-1.25 -20.1L-1.2 -20.1L-0.95 -20.45L1.5 -20.4L1.7 -20.05L1.85 -20.25Q2.15 -20.55 2.5 -20.7L3.5 -21L4.4 -20.85L5 -20.2L5.05 -20.15L5.25 -20.25L5.45 -20.3L5.6 -20.3L6.65 -20.2L7.45 -19.8L7.7 -19.65L7.8 -19.65L7.85 -19.7Q8.75 -20 9.35 -19.35L9.6 -19.05L9.7 -18.75L9.75 -18.75L9.85 -18.8L10.15 -18.75L10.2 -18.75M11.05,-19.1Q11.8 -18.15 12.95 -18.65L13.45 -18.85L13.55 -19L13.6 -19.25L13.65 -19.55L13.75 -19.85L13.8 -20L13.6 -20.4L13 -21L12.1 -21.15L11.3 -20.85L10.7 -20.25L10.5 -19.75L11.05 -19.1M10.35,-18.45L10.15 -18.4Q10.2 -18.1 9.55 -17.85L9.15 -17.5Q8.8 -17 9 -16.5L9 -16.4L8.2 -16.2L7.7 -15.8L7.5 -15.4Q7.9 -14 9.5 -14.1Q10.6 -14.15 10.35 -15.2L10.25 -16.05Q11.05 -15.9 11.75 -16.5Q12.3 -16.95 12.05 -17.5Q11.35 -17.55 10.55 -18.25L10.35 -18.45M10.6,-13L10.4 -13.55L9.65 -13.55L8.2 -13.5L7.25 -13.35Q6.2 -12.9 6.9 -12.05Q7.05 -11.85 7.3 -11.85L7.5 -11.65L7.45 -11.55L7.45 -11.5L7.25 -11.35L7.2 -11.3L7.2 -11.1L7.2 -11Q7.4 -10.75 7.7 -10.55Q7.95 -10.4 8.3 -10.4Q9.05 -10.4 9.4 -11.05L9.5 -11.7L10 -11.95L10.25 -12.15L10.45 -12.45L10.6 -13M17.65,-14.85Q18.7 -14.85 18.6 -13.9Q18.5 -12.95 17.55 -13.2L16.7 -13.45L16.6 -13.75L16.85 -14.4Q17.1 -14.8 17.65 -14.85M17.25,-14.1L17.05 -13.9L17 -13.8Q17.45 -13.35 18.05 -13.6Q18.35 -13.7 18.3 -14.05Q18.2 -14.45 17.75 -14.45L17.65 -14.4L17.55 -14.4L17.45 -14.35L17.35 -14.35L17.35 -14.25L17.25 -14.1M5.2,-19.85L5.2 -19.8L5.1 -19.75L5.1 -19.7L5.05 -19.7L4.95 -19.65L4.8 -19.65L4.15 -19.3Q3.65 -18.85 3.7 -18.25Q3.75 -17.85 4.05 -17.6L4.05 -17.35L2.95 -17.25L2.25 -16.95L2.2 -16.8L2.2 -16.6L2.35 -16.3L2.55 -16.05L2.75 -15.85L2.6 -15.35L2.7 -14.85Q2.9 -14.4 3.35 -14.35L3.3 -14.55Q3.2 -15.2 3.45 -15.85L3.85 -16.25L3.9 -16.25L4 -16.2L4.05 -16.15L4 -15.25L4 -14.95L4.05 -14.95L4.05 -14.85L4.1 -14.7Q5.25 -13.8 5.75 -15.3L5.9 -16.05Q5.9 -17.4 7.3 -17.75L7.55 -18.3L8.45 -18.75L8.6 -18.75L8.6 -18.85L8.6 -18.9L8.55 -19L8.55 -19.15L8.4 -19.25L8.4 -19.35L8.45 -19.35L8.2 -19.35L7.9 -19.3L7.9 -19.2L7.85 -19.2L7.85 -19.15L7.8 -19.1L7.6 -19.1L6.75 -19.8L5.2 -19.85M1.2,-20.2L-0.5 -20.25L-0.6 -20.15L-0.15 -19.3L0.15 -18.05L0.4 -17.8L0.85 -16.9L0.85 -16.3Q1.7 -15.15 1.55 -13.9Q1.7 -13.85 1.95 -13.75L2.65 -13.65L2.65 -13.9L2.65 -14.2L2.65 -14.3L2.25 -14.9Q2.05 -15.35 2.25 -15.75L1.85 -16.45Q1.65 -17 2.15 -17.35L3.4 -17.8Q3.25 -18.1 3.25 -18.45L3.65 -19.3L4.65 -19.9L4.3 -20.35L2.4 -20.2L1.7 -19.55L1.6 -19.55L1.5 -19.55L1.45 -19.6L1.2 -20.2M1.05,-12.65L0.4 -11.85L0.75 -11.55Q1.2 -10.95 1.95 -11L1.95 -11.05L2 -11.1L2 -11.15L2.05 -11.25Q2.75 -10.75 3.6 -10.7Q4.1 -10.7 4.15 -11.2L4.1 -11.25L3.95 -11.35L3.85 -11.45L3.85 -11.55Q4.4 -11.65 4.45 -12.1L4.15 -12.8L4.15 -12.85L4.05 -12.8L3 -12.85Q2.05 -12.3 1.3 -13.1L1.05 -12.65M5.55,-6.55L5.45 -5.95L5.45 -5.55L5.55 -5.55L5.7 -5.65L5.7 -5.7L5.8 -6.2L5.75 -6.8L5.75 -7.1L5.55 -6.55M5.8,-8.1L5.85 -8.15L5.95 -8.15L5.95 -8.2L6.2 -6.5Q6.3 -5.55 5.6 -4.85L5.25 -4.35Q5.2 -4.2 5 -4.25L5.1 -5.8L5.45 -7.2L5.8 -8.1M8.75,-7.35Q10.05 -7.2 9.45 -6.2Q8.95 -5.3 7.9 -5.8Q7.4 -6.05 7.65 -6.6Q7.95 -7.25 8.75 -7.35M7.95,-6.4L8 -6.1L9 -6.15L9.35 -6.6L9.3 -6.7L9.2 -6.8L9.05 -6.9L8.85 -6.95L8.3 -6.75L7.95 -6.4M1.65,-9.5Q3.15 -9.55 2.9 -8.1Q2.75 -7.3 1.9 -7.45Q0.4 -7.65 0.6 -8.85Q0.7 -9.4 1.3 -9.45L1.65 -9.5M2,-9.05L2 -9.1L1.7 -9.1L1.6 -9.05L1.4 -9.05L1.3 -9L1.1 -8.95L1.1 -8.85L1.1 -8.75L1 -8.5L0.85 -8.3Q1.2 -8 1.65 -7.9L2 -8.1L2.1 -8.15L2.2 -8.4L2.25 -8.65L2.05 -8.95L2 -9L2 -9.05M2.4,-6.45Q3.65 -6.15 2.8 -5.35L2.15 -5.25Q1.15 -5.8 2.1 -6.35L2.4 -6.45M2.55,-6.05L2.15 -6.05L2.1 -6.05L2 -6.05L2 -6L1.95 -5.95L1.95 -5.85L1.9 -5.7L2.25 -5.5L2.75 -5.55L2.75 -5.65L2.8 -5.7L2.85 -5.8L2.85 -5.85L2.55 -6.05M12.35,-10.2Q11.3 -9.75 12.1 -9.2Q12.55 -8.9 12.9 -9.35Q13.3 -9.95 12.55 -10.2L12.35 -10.2M12.6,-10.55Q14.15 -9.9 12.85 -8.9L11.9 -8.85Q10.8 -9.55 11.85 -10.35L12.6 -10.55M10.7,-7.1L12.5 -8.05L12.8 -8.35L13.6 -8.9Q14.45 -8.5 13.8 -7.65Q13.2 -6.85 12.1 -6.7L11.65 -6.5Q10.5 -5.75 10.5 -6.85L10.7 -7.1M10.75,-6.65L11.35 -6.75L11.75 -7L11.95 -7.15L11.45 -7L10.95 -6.8L10.75 -6.65M12.15,-7.25L12.05 -7.2L12.25 -7.25L12.15 -7.25M13.2,-8.3L13 -7.95L12.9 -7.7Q13.2 -7.65 13.5 -8L13.6 -8.5L13.2 -8.3M20.85,-9.7Q21.35 -9.1 22.1 -9.4Q22.55 -9.55 22.5 -9.95L22.45 -10.2L22.25 -10.35L21.6 -10.5L21.55 -10.45L21.15 -10.3L20.9 -9.95L20.85 -9.7M21.6,-10.9Q23.25 -10.8 22.65 -9.4L22.1 -9Q20.55 -8.75 20.6 -10.05Q20.6 -10.85 21.5 -10.9L21.6 -10.9M-10.25,-25.95L-9.5 -26.8Q-9.1 -27.35 -8.45 -27.5Q-7.4 -27.55 -6.8 -26.7Q-6.5 -26.3 -6.5 -25.8Q-6.5 -24.7 -7.45 -24.25L-7.5 -24.2L-7.65 -23.45Q-8.15 -22.15 -9.55 -22.5Q-10.2 -22.65 -10.5 -23.3L-11.05 -23.7Q-11.4 -24.1 -11.25 -24.65Q-11.1 -25.4 -10.4 -25.6L-10.25 -25.95M-9.2,-26.6L-9.65 -25.75L-9.8 -25.15Q-10.4 -25.4 -10.8 -24.85Q-11.2 -24.3 -10.75 -23.85L-10.45 -23.65L-10.4 -23.7L-10.25 -23.65L-10.05 -23.4L-9.9 -23.3Q-9.05 -23.25 -8.75 -23.95Q-8.55 -24.4 -8.7 -24.85L-8.7 -24.9Q-7.4 -24.5 -7.2 -25.6L-7.25 -26.6Q-7.7 -27.1 -8.35 -27.15L-9.2 -26.6M-0.9,-26.25Q-2.35 -25.15 -0.85 -24.15L-0.15 -24.1Q1.1 -24.9 0.2 -26L-0.25 -26.2L-0.9 -26.25M-2.75,-23.45Q-2.85 -24.95 -4.5 -24.55L-5.1 -24L-5.2 -23.3L-5.15 -23.3L-5.05 -23.2L-5 -23.1L-5.15 -23.05L-5.1 -22.85Q-5.35 -22.7 -5.4 -22.95L-6.15 -22.45Q-6.65 -21.9 -6.45 -21.2L-6.1 -20.2L-7.25 -19.65Q-7.7 -19.35 -7.35 -18.95L-7.15 -18.35Q-7.9 -18.3 -8.15 -17.6Q-8.5 -16.45 -7.45 -16.2L-7.15 -16.1L-7.2 -16.25L-7.05 -16.5L-6.95 -16.4L-6.25 -16.6L-5.75 -16.6L-5.1 -17.5Q-4.9 -17.8 -5.05 -18.15L-5.45 -18.85Q-4.75 -18.85 -4.15 -19.3Q-3.7 -19.7 -3.6 -20.3Q-3.4 -21.3 -3.95 -22.15L-4 -22.2L-3.1 -22.8Q-2.9 -23 -2.85 -23.3L-2.75 -23.45M-1.6,-19.6L-1.65 -19.65L-1.65 -19.7L-2.45 -19.7Q-2.9 -18.8 -3.5 -18.1L-3.5 -17.8L-3.05 -17.2L-1.3 -17.25L-1.1 -17.25Q-0.85 -17.65 -0.75 -18.2L-0.75 -18.25Q-0.6 -19.1 -1.35 -19.55L-1.45 -19.6L-1.6 -19.6M-7.2,-15.7Q-6.5 -14.95 -5.4 -14.65Q-4.05 -14.25 -2.95 -14.95Q-2.6 -15.15 -2.35 -15.45L-2.45 -15.4L-4.2 -15.3L-5.05 -15.7L-6.8 -15.75L-7.2 -15.7M-0.55,-17.2L-1.7 -15.25L-1.65 -14.5Q-1.25 -13.55 -1.7 -12.65L-1.6 -12.4L-1.4 -12.1Q-0.5 -12.1 -0.1 -13Q0.45 -14.1 0.2 -15.3L-0.2 -16.65L-0.55 -17.2M-13,-21.2Q-11.3 -20.95 -11.85 -19.4L-12.35 -18.95Q-14 -18.5 -14.1 -20.05Q-14.2 -21.2 -13 -21.2M-13.3,-19.3Q-13.05 -19.15 -12.8 -19.3Q-11.6 -20.05 -12.9 -20.6L-13.45 -20.85Q-14.25 -20 -13.3 -19.3M-11.9,-10.05L-11.85 -10.05L-11.75 -10.05L-11.45 -10.3L-10.6 -10.5Q-9.35 -9.85 -10.2 -8.75Q-10.65 -8.1 -11.4 -8.35Q-11.95 -8.55 -12.15 -9.15L-12 -10.05L-11.9 -10.05M-10.65,-10.2L-10.7 -10.2L-10.85 -10.2L-10.9 -10.2Q-11.5 -10.2 -11.65 -9.6Q-11.8 -9.05 -11.1 -8.95Q-10.75 -8.9 -10.5 -9.1L-10.45 -9.25L-10.4 -9.5L-10.45 -9.9L-10.6 -10.15L-10.65 -10.2M-0.4,-10.9Q0.7 -10.9 0.5 -9.9Q0.35 -9.1 -0.45 -8.95L-1.3 -9.05L-2.2 -9Q-3.45 -9.45 -2.8 -10.6Q-2.45 -11.2 -1.75 -11.3Q-0.95 -11.2 -0.7 -10.8L-0.5 -10.9L-0.4 -10.9M-1.35,-9.85Q-1.05 -10.2 -1.1 -10.65L-1.65 -10.95Q-3.15 -10.7 -2.45 -9.5L-2.2 -9.35L-2 -9.3Q-1.6 -9.5 -1.35 -9.85M-0.55,-10.35L-0.85 -9.5L-0.9 -9.4L-0.5 -9.5Q0.35 -9.7 -0.15 -10.35L-0.35 -10.4L-0.55 -10.35M-5.25,-8.2L-6.15 -8.3L-6.6 -8.1L-6.85 -7.65L-6.75 -7.3Q-5.85 -7.15 -5.25 -7.6Q-5.05 -7.75 -5.1 -8L-5.25 -8.2M-6.5,-8.6L-6.1 -8.75Q-4.5 -8.8 -4.75 -7.45Q-4.85 -6.7 -5.65 -6.65Q-7.3 -6.55 -7.05 -7.9L-6.5 -8.6M-2.4,-5.7L-2.45 -5.6L-2.5 -5.5L-2.6 -5.4L-2.7 -5.35L-2.8 -5.3Q-2.7 -5.1 -2.5 -5.15L-1.9 -5.25L-1.9 -5.35L-1.95 -5.5L-2 -5.55L-2.05 -5.6L-2.25 -5.7L-2.4 -5.7M-1.8,-4.8Q-3.2 -4.55 -2.9 -5.65L-2.4 -6.1Q-1.2 -5.95 -1.6 -4.9L-1.8 -4.8" />
</g>
</svg>
