<?xml version="1.0" encoding="utf-8"?>
<svg version="1.1" id="Layer_1"
xmlns="http://www.w3.org/2000/svg"
xmlns:xlink="http://www.w3.org/1999/xlink"
width="18px" height="13px"
xml:space="preserve">
<g id="1053" transform="matrix(1, 0, 0, 1, 8.6, 10.1)">
<path style="fill:#FFCC00;fill-opacity:1" d="M8.7,-10.1Q9 -9.45 8.1 -8.75L6.4 -7.15L5.2 -5.6L5.4 -5.15L5.45 -4.7L5.4 -4.25L5.4 -4.2Q6.05 -3.7 6.85 -4L8.1 -3.95Q7.7 -3.55 7 -3.35L5.75 -2.75L5.35 -2.55Q5.45 -2.4 5.65 -2.4L5.85 -2.25L5.45 -1.85L4.85 -1.5L4.65 -1.35L4.65 -1.3L4.75 -1.15L4.4 -0.65L4.25 -0.55L5.85 -0.4L7.3 -0.15L7.4 -0.1L7.3 0.05L7.05 0.15L6.5 0.25L6.4 0.25L5.2 0.45L5.35 0.5L5.45 0.55L5.6 0.55L5.85 0.6L6.05 0.65L6.35 0.8L6.4 0.9L6.35 0.95L5.45 1.25L4.35 1.25L2.2 1.1L2.2 1.2L2.25 1.2L2.35 1.25L2.35 1.3L2.45 1.35L2.45 1.4L2.55 1.45L2.6 1.5L2.6 1.6L2.65 1.65L2.65 1.75L2.65 1.85L2.6 1.85L2.15 1.9L1.75 1.75L1.55 1.7L1.5 1.65L0.2 1.25L0.2 1.3L0.15 1.35L0.1 1.45L0 1.5L-0.05 1.65L-0.05 1.75L-0.2 2L-0.5 2.25L-0.65 2.2L-0.7 2.15L-0.7 2.1L-0.8 2.05L-0.8 1.75L-0.85 1.7L-0.85 1.65L-0.9 1.65L-1.6 1.75L-1.9 1.85L-2.05 1.85L-2.2 1.85L-3.55 2.1L-3.65 2.05L-3.65 1.85L-3.5 1.75L-3.45 1.75L-3.35 1.7L-4.5 1.65L-7.35 1.35L-7.4 1.35L-7.4 1.1L-7.35 1.05L-7.2 1L-7.15 0.95L-7 1L-6.9 0.95L-6.75 0.95L-6.75 0.9L-6.8 0.85L-6.9 0.85L-7.1 0.8L-7.4 0.6L-7.5 0.5L-7.55 0.5L-7.55 0.4L-7.5 0.3L-7.5 0.25L-7.4 0.2L-7.3 0.2L-7.1 0.25L-6.8 0.25L-5.95 0.3L-5.85 0.3L-5.75 0.25L-5.85 0.2L-5.9 0.15L-5.95 0.15L-5.95 0.05L-5.65 -0.25L-4.1 -0.25L-4.15 -0.3L-4.55 -0.55L-7 -1L-8.6 -1.5L-4.85 -1.6L-4.75 -2.1L-4.55 -2.6L-4.15 -2.95L-4.75 -3.35L-5.35 -3.8L-5.55 -4L-4.85 -4.1L-3.7 -3.8Q-3.45 -4.5 -2.7 -4.9L-1.3 -5.55L-0.45 -5.85L-0.4 -6.4L-0.3 -7L-0.25 -7.45L-0.05 -7.6L0.5 -7.05L0.75 -6.5L0.95 -5.9L2.35 -5.7L2.45 -5.6L3.95 -6.7L5.55 -7.75Q6 -8.2 6.6 -8.55L8.4 -9.9L8.7 -10.1M5.6,0.1L5.7 0L5.6 -0.1L3.9 -0.3L4 -0.6L4.05 -0.65L4.1 -0.7L4.2 -0.9L4.2 -1.1L4.2 -1.15L4.15 -1.2L4.1 -1.25L4.15 -1.35L4.5 -1.7L4.7 -1.75L4.85 -1.85L5.15 -2.15L5.2 -2.25L5.15 -2.3L5.1 -2.4L5 -2.45L5 -2.55L5.35 -2.9L5.65 -3.1Q6.1 -3.25 6.45 -3.5L6.35 -3.6L5.75 -3.7L5.6 -3.8L5.35 -4.05L5.3 -4.25L5.2 -4.9L4.8 -5.6L5.6 -6.8L6.9 -7.95Q7.45 -8.35 7.45 -8.7L7.65 -8.9L7.45 -8.75L7.35 -8.95L3.95 -6.25Q1.9 -4.7 0.3 -6.25L0.25 -6.9L0.2 -6.95L0.1 -7L-0.05 -6.7L-0.05 -6.25L-0.1 -5.85L-1 -5.55L-2.25 -4.9L-3.5 -3.45L-4 -3.55L-4.2 -3.45L-4.2 -3.3L-4 -3.05L-3.85 -2.9L-4.15 -2.55L-4.45 -1.85L-4.45 -1.75L-4.35 -1.5L-6.15 -1.5L-6.5 -1.5L-7.15 -1.4L-7.3 -1.35Q-7.25 -1.2 -7.05 -1.2L-6.3 -1.15Q-6.4 -0.95 -5.8 -0.85L-4.75 -0.7Q-3.95 -0.6 -3.55 -0.25L-3.9 -0.1L-3.95 -0.05L-5.05 -0.05L-5.15 0.05L-5.15 0.1L-5.1 0.2L-4.8 0.3L-4.7 0.3L-4.65 0.35L-5 0.45L-5.55 0.45Q-6.15 0.25 -6.35 0.65L-6.3 0.75L-6.15 0.85L-5.95 0.9L-5.8 0.95L-5.7 1.1L-2.8 1.5L-2.8 1.55L-2.75 1.6L-2.05 1.55L-0.6 1.4L-0.55 1.45L-0.55 1.5L-0.5 1.5L-0.45 1.6L-0.35 1.6L-0.2 1.6L0.1 1.1L0.35 0.9L0.55 1L0.8 1.05L1.05 1.15L1.9 1.2L1.9 1.15L1.9 1.05L1.9 0.95L2.2 0.85L2.25 0.85L4.85 0.9L5.05 0.75L5 0.7Q4.9 0.55 4.65 0.5L4.1 0.35L4.55 0.25L5.5 0.1L5.6 0.1M6.6,-3.6L6.45 -3.5L6.6 -3.6M-8.3,-6.55L-7.35 -6L-6.45 -5.5L-5.85 -5.2Q-6.15 -4.35 -7 -4.95L-8 -5.75L-8.35 -6.5L-8.3 -6.55M-6.3,-5.2L-6.55 -5.4L-7 -5.7L-7.4 -5.95L-7.45 -5.7L-7.05 -5.25Q-6.75 -4.9 -6.35 -4.95L-6.35 -5L-6.3 -5.05L-6.3 -5.2M-4.15,0.6L-4.35 0.7L-4.55 0.7L-4.3 0.65L-4.15 0.6" />
<path style="fill:#FFFF00;fill-opacity:1" d="M6.9,-7.95L5.6 -6.8L4.8 -5.6L5.2 -4.9L5.3 -4.25L5.35 -4.05L5.6 -3.8L5.75 -3.7L6.35 -3.6L6.45 -3.5Q6.1 -3.25 5.65 -3.1L5.35 -2.9L5 -2.55L5 -2.45L5.1 -2.4L5.15 -2.3L5.2 -2.25L5.15 -2.15L4.85 -1.85L4.7 -1.75L4.5 -1.7L4.15 -1.35L4.1 -1.25L4.15 -1.2L4.2 -1.15L4.2 -1.1L4.2 -0.9L4.1 -0.7L4.05 -0.65L4 -0.6L3.9 -0.3L5.6 -0.1L5.7 0L5.6 0.1L5.5 0.1L4.55 0.25L4.1 0.35L4.65 0.5Q4.9 0.55 5 0.7L5.05 0.75L4.85 0.9L2.25 0.85L2.2 0.85L1.9 0.95L1.9 1.05L1.9 1.15L1.9 1.2L1.05 1.15L0.8 1.05L0.55 1L0.35 0.9L0.1 1.1L-0.2 1.6L-0.35 1.6L-0.45 1.6L-0.5 1.5L-0.55 1.5L-0.55 1.45L-0.6 1.4L-2.05 1.55L-2.75 1.6L-2.8 1.55L-2.8 1.5L-5.7 1.1L-5.8 0.95L-5.95 0.9L-6.15 0.85L-6.3 0.75L-6.35 0.65Q-6.15 0.25 -5.55 0.45L-5 0.45L-4.65 0.35L-4.7 0.3L-4.8 0.3L-5.1 0.2L-5.15 0.1L-5.15 0.05L-5.05 -0.05L-3.95 -0.05L-3.9 -0.1L-3.55 -0.25Q-3.95 -0.6 -4.75 -0.7L-5.8 -0.85Q-6.4 -0.95 -6.3 -1.15L-7.05 -1.2Q-7.25 -1.2 -7.3 -1.35L-7.15 -1.4L-6.5 -1.5L-6.15 -1.5L-4.35 -1.5L-4.45 -1.75L-4.45 -1.85L-4.15 -2.55L-3.85 -2.9L-4 -3.05L-4.2 -3.3L-4.2 -3.45L-4 -3.55L-3.5 -3.45L-2.25 -4.9L-1 -5.55L-0.1 -5.85L-0.05 -6.25L-0.05 -6.7L0.1 -7L0.2 -6.95L0.25 -6.9L0.3 -6.25Q1.9 -4.7 3.95 -6.25L7.35 -8.95L7.45 -8.75L7.45 -8.7Q7.45 -8.35 6.9 -7.95M4.5,-5.4L4.4 -5.65L4.5 -5.95L4.7 -6.15L4.9 -6.4L3.4 -5.5Q4.4 -5.35 4.5 -4.35L4.45 -4.95Q4.35 -5.2 4.55 -5.25L4.5 -5.4M2.6,-5.05L2.35 -4.7L2.25 -4.55L2.15 -4.15L1.85 -3.85L1.8 -3.95L1.6 -3.9L1.6 -4.4Q1.7 -4.75 1.4 -4.95L1.1 -5.2L0.5 -5.4L0.25 -5.45L-0.05 -5.35L-0.1 -5.35L-0.1 -5.3L-0.15 -5.25L-0.25 -5.25L-0.4 -5.05L-0.45 -4.8L-0.35 -4.5L-0.3 -4.2L-0.2 -3.9L-0.2 -3.85L-0.25 -3.8L-0.4 -3.7L-0.9 -4.35Q-1.25 -4.8 -1.8 -4.55L-2 -4.5L-2.65 -3.95L-2.8 -3.8L-2.95 -3.2L-2.95 -2.4L-2.9 -2.15L-2.55 -1.95L-2.1 -1.8L-2.05 -1.75L-2.1 -2.1Q-2.15 -2.8 -1.5 -3.1L-0.95 -3.3Q-0.75 -3 -1.45 -2.6L-1.7 -2.2Q-1.8 -1.55 -1.1 -1.4L-1.05 -1.35L-1.2 -1.25L-1.65 -1.2L-1.9 -1.45L-2.05 -1.4L-2.45 -1.2L-2.95 -1.3L-3 -1.2Q-3.2 -0.8 -2.8 -0.55L-2.5 -0.2L-3.05 -0.2L-3.05 -0.15L-3.15 -0.1L-3.2 0.05L-3.2 0.15L-3.2 0.2L-3.35 0.2L-3.65 0.2L-3.6 0.55L-2.75 0.65L-2.5 0.7L-2.25 0.65L-2.05 0.4L-1.55 -0.15L-1.45 -0.25L-1.35 -0.25L-1.3 -0.2L-1.2 -0.15L-1.25 0.15L-1.4 0.45L-1.5 0.75L-1.35 0.85L-1.05 0.95L-0.65 0.95L-0.6 0.95L-0.4 1L-0.05 0.3L0.25 -0.4L0.25 -0.45L-0.35 -0.35Q-0.55 -0.35 -0.7 -0.5L-0.75 -0.55L-0.75 -0.7L-0.7 -0.85L-0.7 -0.9L0.15 -1L0.3 -1.2L0 -1.3L-0.25 -1.4L-0.3 -1.45L-0.3 -1.65L-0.25 -1.7L-0.1 -1.65L0.15 -1.55L0.65 -1.55L0.75 -1.75L0.8 -2.05L0.8 -2.45L0.85 -2.7L0.7 -2.75L0.4 -2.85Q0.15 -2.9 0 -3.05L0 -3.1L0.05 -3.15L0.1 -3.2L0.2 -3.2L0.35 -3.25Q1 -3.15 1.3 -2.55Q1.6 -2 1.1 -1.5L0.65 -1.15L0.55 -0.8L0.6 -0.2L0.85 0.45L1.15 0.75L1.1 0.85L1.35 0.95L1.5 0.95L1.45 0.9L1.45 0.85L1.4 0.75L1.4 0.65L1.45 0.6L1.65 0.55L2.15 0.25Q2.55 0.2 2.7 -0.1L2.85 -0.35L2.75 -0.6L2.55 -0.75L2.2 -0.95Q1.9 -1 1.7 -1.15L1.65 -1.3L1.65 -1.4L1.7 -1.45Q1.95 -1.3 2.15 -1.25L2.15 -1.3L2.2 -1.35L2.5 -1.25Q2.8 -1.35 2.95 -1.8Q3.2 -2.45 2.45 -2.75L2.3 -2.95L2.4 -3L2.5 -3L2.65 -3.05L2.9 -2.95L3.2 -3.05L3.4 -3.15L3.4 -3.35Q3.85 -3.6 3.85 -4.1Q3.95 -5.2 2.9 -5.1L2.6 -5.05M4.75,-3.75Q4.4 -2.95 3.65 -2.7L3.35 -2.6L3.5 -1.95Q3.45 -1.25 2.85 -1L2.9 -0.95L3.3 -0.25L3.4 0.2L3.5 0.15L3.6 0.05Q3.4 0 3.45 -0.2L3.5 -0.4L3.5 -0.45L3.65 -0.75L3.75 -0.85Q3.65 -1.05 3.7 -1.3L3.75 -1.5L4.05 -1.85L4.65 -2.2Q4.55 -2.35 4.6 -2.55L4.6 -2.7L4.75 -2.8L5 -3.15L5.35 -3.4L5.4 -3.4L5.2 -3.55L5.15 -3.65L5 -3.6L4.85 -3.55L4.8 -3.75L4.75 -3.75M-6.3,-5.05L-6.35 -5L-6.35 -4.95Q-6.75 -4.9 -7.05 -5.25L-7.45 -5.7L-7.4 -5.95L-7 -5.7L-6.55 -5.4L-6.3 -5.2L-6.3 -5.05M-3.7,-2.2L-3.75 -2.45L-4.1 -1.95L-4.15 -1.7L-4 -1.65L-3.85 -1.5L-3.85 -1.45L-3.8 -1.35L-3.8 -1.3L-5.25 -1.15L-4.9 -1.1L-3.65 -0.8L-3.45 -0.75Q-3.7 -1.1 -3.45 -1.5L-3.35 -1.6L-3.7 -2.2M-4.3,0.65L-4.55 0.7L-4.85 0.75L-5.15 0.9L-5.2 1L-3.35 1.1L-3.4 1.05Q-3.75 0.95 -3.95 0.65L-4.05 0.3L-4.1 0.3L-4.1 0.5L-4.15 0.6L-4.3 0.65" />
<path style="fill:#FFFFFF;fill-opacity:1" d="M4.55,-5.25Q4.35 -5.2 4.45 -4.95L4.5 -4.35Q4.4 -5.35 3.4 -5.5L4.9 -6.4L4.7 -6.15L4.5 -5.95L4.4 -5.65L4.5 -5.4L4.55 -5.25M2.9,-5.1Q3.95 -5.2 3.85 -4.1Q3.85 -3.6 3.4 -3.35L3.4 -3.15L3.2 -3.05L2.9 -2.95L2.65 -3.05L2.5 -3L2.4 -3L2.3 -2.95L2.45 -2.75Q3.2 -2.45 2.95 -1.8Q2.8 -1.35 2.5 -1.25L2.2 -1.35L2.15 -1.3L2.15 -1.25Q1.95 -1.3 1.7 -1.45L1.65 -1.4L1.65 -1.3L1.7 -1.15Q1.9 -1 2.2 -0.95L2.55 -0.75L2.75 -0.6L2.85 -0.35L2.7 -0.1Q2.55 0.2 2.15 0.25L1.65 0.55L1.45 0.6L1.4 0.65L1.4 0.75L1.45 0.85L1.45 0.9L1.5 0.95L1.35 0.95L1.1 0.85L1.15 0.75L0.85 0.45L0.6 -0.2L0.55 -0.8L0.65 -1.15L1.1 -1.5Q1.6 -2 1.3 -2.55Q1 -3.15 0.35 -3.25L0.2 -3.2L0.1 -3.2L0.05 -3.15L0 -3.1L0 -3.05Q0.15 -2.9 0.4 -2.85L0.7 -2.75L0.85 -2.7L0.8 -2.45L0.8 -2.05L0.75 -1.75L0.65 -1.55L0.15 -1.55L-0.1 -1.65L-0.25 -1.7L-0.3 -1.65L-0.3 -1.45L-0.25 -1.4L0 -1.3L0.3 -1.2L0.15 -1L-0.7 -0.9L-0.7 -0.85L-0.75 -0.7L-0.75 -0.55L-0.7 -0.5Q-0.55 -0.35 -0.35 -0.35L0.25 -0.45L0.25 -0.4L-0.05 0.3L-0.4 1L-0.6 0.95L-0.65 0.95L-1.05 0.95L-1.35 0.85L-1.5 0.75L-1.4 0.45L-1.25 0.15L-1.2 -0.15L-1.3 -0.2L-1.35 -0.25L-1.45 -0.25L-1.55 -0.15L-2.05 0.4L-2.25 0.65L-2.5 0.7L-2.75 0.65L-3.6 0.55L-3.65 0.2L-3.35 0.2L-3.2 0.2L-3.2 0.15L-3.2 0.05L-3.15 -0.1L-3.05 -0.15L-3.05 -0.2L-2.5 -0.2L-2.8 -0.55Q-3.2 -0.8 -3 -1.2L-2.95 -1.3L-2.45 -1.2L-2.05 -1.4L-1.9 -1.45L-1.65 -1.2L-1.2 -1.25L-1.05 -1.35L-1.1 -1.4Q-1.8 -1.55 -1.7 -2.2L-1.45 -2.6Q-0.75 -3 -0.95 -3.3L-1.5 -3.1Q-2.15 -2.8 -2.1 -2.1L-2.05 -1.75L-2.1 -1.8L-2.55 -1.95L-2.9 -2.15L-2.95 -2.4L-2.95 -3.2L-2.8 -3.8L-2.65 -3.95L-2 -4.5L-1.8 -4.55Q-1.25 -4.8 -0.9 -4.35L-0.4 -3.7L-0.25 -3.8L-0.2 -3.85L-0.2 -3.9L-0.3 -4.2L-0.35 -4.5L-0.45 -4.8L-0.4 -5.05L-0.25 -5.25L-0.15 -5.25L-0.1 -5.3L-0.1 -5.35L-0.05 -5.35L0.25 -5.45L0.5 -5.4L1.1 -5.2L1.4 -4.95Q1.7 -4.75 1.6 -4.4L1.6 -3.9L1.8 -3.95L1.85 -3.85L2.15 -4.15L2.25 -4.55L2.35 -4.7L2.6 -5.05L2.9 -5.1M4.8,-3.75L4.85 -3.55L5 -3.6L5.15 -3.65L5.2 -3.55L5.4 -3.4L5.35 -3.4L5 -3.15L4.75 -2.8L4.6 -2.7L4.6 -2.55Q4.55 -2.35 4.65 -2.2L4.05 -1.85L3.75 -1.5L3.7 -1.3Q3.65 -1.05 3.75 -0.85L3.65 -0.75L3.5 -0.45L3.5 -0.4L3.45 -0.2Q3.4 0 3.6 0.05L3.5 0.15L3.4 0.2L3.3 -0.25L2.9 -0.95L2.85 -1Q3.45 -1.25 3.5 -1.95L3.35 -2.6L3.65 -2.7Q4.4 -2.95 4.75 -3.75L4.8 -3.75M-3.35,-1.6L-3.45 -1.5Q-3.7 -1.1 -3.45 -0.75L-3.65 -0.8L-4.9 -1.1L-5.25 -1.15L-3.8 -1.3L-3.8 -1.35L-3.85 -1.45L-3.85 -1.5L-4 -1.65L-4.15 -1.7L-4.1 -1.95L-3.75 -2.45L-3.7 -2.2L-3.35 -1.6M-4.35,0.7L-4.15 0.6L-4.1 0.5L-4.1 0.3L-4.05 0.3L-3.95 0.65Q-3.75 0.95 -3.4 1.05L-3.35 1.1L-5.2 1L-5.15 0.9L-4.85 0.75L-4.55 0.7L-4.35 0.7" />
</g>
</svg>
