<?xml version="1.0" encoding="utf-8"?>
<svg version="1.1" id="Layer_1"
xmlns="http://www.w3.org/2000/svg"
xmlns:xlink="http://www.w3.org/1999/xlink"
width="44px" height="12px"
xml:space="preserve">
<g id="1182" transform="matrix(1, 0, 0, 1, -24.85, 2.55)">
<path style="fill:#2E2E2E;fill-opacity:0.694118" d="M37.85,-0.4Q37.55 -0.55 37.55 -0.65L38.25 -0.55Q40.3 -0.55 41.9 -1.35L41.5 -1.65Q41.9 -2.1 43.45 -2.55L44.4 -2.45L45.35 -2.35L47.1 -2.15L48.7 -2L49.7 -1.8L50.05 -1.6L49.85 -1.35L49.35 -1.25L47.25 -1.25L45.3 -1.7L41.95 -1.05L39.05 -0.4L37.85 -0.4M64.15,1.95L60.95 2.15L60.4 2L60.7 1.85L56.75 2.1L56.85 2.15L51.25 2.5L50.6 2.6L47.65 2.35L50.5 2.3L51.25 2.25L50.95 2.25L44.85 2L45.05 1.8L53.1 1.65L55.45 1.7L58.6 1.2L61.9 1.2L62.15 1.25L68.25 1.3L68.55 1.6L68.25 1.9L66.8 2.05L64.15 1.95M54.5,3.65L54.15 3.75L51.65 3.6L51.55 3.5L49.55 3.5L48 3.65L47.35 3.55L44.85 3.55L44.7 3.65L42.9 3.7L42.5 3.35L42.8 3.15L43.95 3.25L46.5 3.15L40.9 2.9L40.6 2.65Q40.85 2.3 41.15 2.25L40.7 2.25L40.8 2.15L41.1 2.2L40.75 1.95Q40.6 1.95 40.6 2.05L40.5 2.15L40.25 2L40.25 1.95L39.75 1.9L39.8 1.8L40.25 1.9Q40.5 1.2 43.45 1.2L44.7 1.2L45 1.45L44.15 1.9Q43.6 1.95 43.4 2.35Q46.15 2.4 46.75 2.8L47.4 3.1L50.35 2.9Q54 2.75 54.6 3.45L54.5 3.65M53.2,8.05L53.8 8.1L54.75 7.9Q55.05 7.8 56.3 8.55L56.05 8.8L54.6 8.8L53.2 8.05M53.1,6.4Q53.9 5.35 55.6 5.4Q57.2 5.45 57.2 6.3L55.8 7.1L54.35 6.85L53.1 6.4M37.05,4.3L34.55 4.5Q33.5 4.5 31.75 3.45L31.75 3.3L31.85 3.3L34.45 3.65Q36.9 3.85 37.35 4.35L37.05 4.3M37.7,2.7L35.15 2.6L32.5 2.45L30.35 2.65L24.95 2.4L24.85 2.25L25.05 2.05L35.2 1.9L39 2.35L37.7 2.7" />
</g>
</svg>
