<?xml version="1.0" encoding="utf-8"?>
<svg version="1.1" id="Layer_1"
xmlns="http://www.w3.org/2000/svg"
xmlns:xlink="http://www.w3.org/1999/xlink"
width="36px" height="34px"
xml:space="preserve">
<g id="1547" transform="matrix(1, 0, 0, 1, 15.05, 22.15)">
<path style="fill:#333333;fill-opacity:0.498039" d="M14.65,-14.85L14.25 -12.3Q19.65 -11.15 19.65 -7.75Q19.65 -6.4 19.15 -5.3Q18.65 -4.1 17.25 -2.5L19.8 0Q20.25 0.7 20.25 2.3Q20.25 7.85 12.45 7.15L10.65 9.85Q9.25 11.85 6.6 11.85Q5.4 11.85 4.6 10.95Q3.95 10.3 3.95 9.9Q3.7 8.35 3.45 8.4L1.4 8.85Q-0.3 8.85 -0.85 7.5L-1.05 6.05L-0.75 4.5Q-0.3 3.55 0.7 3.55Q1.75 3.55 2.05 3.9L2.7 4.45L3.65 4.15Q3.55 3 4.45 2.35L5.4 1.5Q5.4 0.9 4.3 -0.15Q3.2 -1.2 3.2 -2.75L2.4 -2.95Q1.1 -2.95 -0.45 -1.7Q-1.95 -0.45 -2.4 -0.45Q-3.2 -0.45 -3.3 -0.95L-3.35 -1.75L-3.2 -1.8L-3.45 -1.85Q-4.55 -1.85 -4.85 -0.7Q-5.15 0.45 -7.25 0.45Q-15.05 0.45 -15.05 -4.95L-14.95 -6.35L-13.5 -8.4L-14.75 -10.15L-14.85 -11.55Q-14.85 -14.05 -14.1 -15.75Q-12.55 -19.25 -8.25 -18.55Q-8.35 -19.4 -7.1 -20.65Q-5.75 -22 -4.4 -22.05Q-1.45 -22.55 1 -20.95Q3.65 -19.15 4.25 -19.15Q5.25 -19.15 6.45 -19.7Q7.7 -20.25 8.8 -20.25Q11.95 -20.25 13.6 -17.65Q14.65 -16 14.65 -14.85M10.35,-15.3Q9.6 -16.35 8.55 -16.15L6.85 -15.15Q5.65 -14.5 5.7 -14.05Q7.45 -13.95 8 -13.1Q8.25 -12.2 8.55 -12L9.9 -12.95L10.9 -14.05Q10.9 -14.55 10.35 -15.3M13.5,-3.65Q12.7 -2.75 12.7 -1.8L12.75 -1.65Q12.75 -1.55 13.05 -1.55Q13.75 -1.55 14.1 -2.2L14.3 -2.95Q14.3 -4.5 13.5 -3.65M-7.15,-11.2Q-7.15 -11.85 -8.1 -11.9Q-9.05 -11.9 -9.05 -10.95L-8.95 -7.9L-8.05 -7.3L-6.8 -7Q-6.4 -7 -6.1 -7.75L-5.9 -8.55Q-5.9 -9.05 -6.7 -9.3Q-7.55 -9.55 -7.55 -10L-7.35 -10.6L-7.15 -11.2" />
</g>
</svg>
