<?xml version="1.0" encoding="utf-8"?>
<svg version="1.1" id="Layer_1"
xmlns="http://www.w3.org/2000/svg"
xmlns:xlink="http://www.w3.org/1999/xlink"
width="196px" height="33px"
xml:space="preserve">
<g id="1427" transform="matrix(1, 0, 0, 1, -7.65, -93.05)">
<path style="fill:#000000;fill-opacity:0.705882" d="M107.2,103.65L107.2 97.4Q107.2 93.05 110.6 93.05L199.7 93.05Q203.1 93.05 203.1 97.4L203.1 103.65Q203.1 108 199.7 108L110.6 108Q107.2 108 107.2 103.65" />
<path style="fill:#000000;fill-opacity:0.705882" d="M203.2,121.65Q203.2 126 199.75 126L110.6 126Q107.2 126 107.2 121.65L107.2 115.4Q107.2 111.05 110.6 111.05L199.75 111.05Q203.2 111.05 203.2 115.4L203.2 121.65" />
<path style="fill:#000000;fill-opacity:0.705882" d="M7.65,103.65L7.65 97.4Q7.65 93.05 11.05 93.05L99.65 93.05Q103.05 93.05 103.05 97.4L103.05 103.65Q103.05 108 99.65 108L11.05 108Q7.65 108 7.65 103.65" />
<path style="fill:#000000;fill-opacity:0.705882" d="M103.15,121.65Q103.15 126 99.75 126L11.05 126Q7.65 126 7.65 121.65L7.65 115.4Q7.65 111.05 11.05 111.05L99.75 111.05Q103.15 111.05 103.15 115.4L103.15 121.65" />
</g>
</svg>
