<?xml version="1.0" encoding="utf-8"?>
<svg version="1.1" id="Layer_1"
xmlns="http://www.w3.org/2000/svg"
xmlns:xlink="http://www.w3.org/1999/xlink"
width="19px" height="18px"
xml:space="preserve">
<g id="861" transform="matrix(1, 0, 0, 1, -56.25, 17)">
<path style="fill:#0E0E0E;fill-opacity:1" d="M56.25,-14.5Q56.25 -17.2 60.05 -17Q61.8 -16.9 62.75 -16.2L64.95 -16.5Q67.85 -16.25 67.85 -13.75Q67.85 -11.85 65.65 -11.4Q65.65 -10.85 65 -10.25Q64.1 -9.4 62.5 -9.4Q60.45 -9.4 59.65 -10.65L59.45 -11.3L59.2 -11.3Q57.55 -11.3 56.75 -12.85Q56.25 -13.8 56.25 -14.5M60.55,-3.3Q62.65 -5.35 64.6 -4.6L65.25 -3.6L64.85 -2.7L64.25 -2Q64.6 -1.45 65.3 -1.05L65.85 -0.4L65.55 0.25Q65.2 0.65 64.7 0.65L61.05 -0.65L60.15 -0.45L59.2 0Q58.75 -0.2 58.75 -0.6Q58.75 -1.5 60.55 -3.3M70.45,-12.2Q70.45 -13.45 72.55 -13.4Q74.6 -13.35 74.6 -12.3Q74.6 -11.85 74.25 -11.6Q73.85 -11.3 72.8 -11.05L71.4 -11.05L70.7 -11.5L70.45 -12.2M68.95,-6.6Q69.05 -8.3 71.4 -8.1L72.6 -7.95Q74.95 -7.45 74.95 -5.6Q74.95 -4.7 74.5 -3.95Q73.8 -2.8 72.4 -2.7L72.45 -2.1Q72.45 -0.75 71.2 -0.75L68.6 -1.15L67 -1.55L66.65 -1.65L66.55 -2.1Q66.55 -2.65 67.15 -3L67.9 -3.2L70.6 -3.6L69.95 -4.5L69.2 -5.8L68.75 -6.05L68.7 -6.25L68.95 -6.6" />
</g>
</svg>
