<?xml version="1.0" encoding="utf-8"?>
<svg version="1.1" id="Layer_1"
xmlns="http://www.w3.org/2000/svg"
xmlns:xlink="http://www.w3.org/1999/xlink"
width="15px" height="7px"
xml:space="preserve">
<g id="970" transform="matrix(1, 0, 0, 1, 0.35, 0)">
<path style="fill:#000000;fill-opacity:0.85098" d="M13.35,0.1L13.4 0.2L13.4 0.3L13.4 0.35L13.7 0.45L13.8 0.5L13.7 0.8L13.3 1L12.85 1.15L12.5 1.25L12.4 1.3L12.35 1.3L12.25 1.25L12.2 1.25L12.1 1.2L12 1.15L11.9 1.1L11.9 1L11.9 0.9L11.9 0.85L11.9 0.75L11.95 0.65L12 0.45L12.05 0.3L12.1 0.25L12.2 0.2L12.35 0.15L12.4 0.1L12.55 0L12.7 0.1L12.8 0.1L12.95 0.1L13.15 0.05L13.3 0.05L13.35 0.1M6.8,1.8L7.15 2.7L7.1 3.25L7 3.3L6.85 3.4L6.8 3.5Q5.8 3.45 4.95 3.85Q4.3 4.1 4.2 4.8Q4.1 5.5 3.5 5.9L3.35 6.05Q3.05 6.45 2.45 6.45L1.8 6.5L1.8 6.55L1.75 6.55L1.75 6.6L1.7 6.6L1.55 6.6L1.5 6.35L1.5 5.9L1.55 5.4L1.65 5.1L1.7 5.1L1.75 5.05L1.75 4.95L1.8 4.95L1.9 4.85L1.9 4.8L1.95 4.8L2 4.75L2.1 4.65L2.4 4.35L2.65 4.05L2.7 3.95L2.8 3.8L3 3.5L3.15 3.15L3.15 3L3.4 2.65L3.9 2.15L4.5 1.85L4.55 1.8L4.85 1.6L5.95 1.35Q6.45 1.4 6.8 1.8M0.3,1.9L0.65 1.5L1.3 1.3Q1.7 1.25 2 1.55L2.3 2.25L2.15 2.65L2.1 2.7L2.05 2.85L1.95 2.95L1.9 3.1L1.9 3.15L1.85 3.15L1.85 3.2L1.75 3.35L1.6 3.45L1.5 3.65L1.35 3.8L1.1 4.15L0.9 4.65L0.85 4.8L0.8 4.85L0.75 4.85L0.6 5.05L0.4 5.2L0.25 5.35L0.2 5.35L0.2 5.4L0.1 5.5L0.05 5.55L-0.25 5.55L-0.35 4.95L-0.25 3.95L0 3L0.1 2.85L0.1 2.65L0.1 2.45L0.1 2.25L0.1 2.1L0.3 1.9" />
</g>
</svg>
