<?xml version="1.0" encoding="utf-8"?>
<svg version="1.1" id="Layer_1"
xmlns="http://www.w3.org/2000/svg"
xmlns:xlink="http://www.w3.org/1999/xlink"
width="45px" height="40px"
xml:space="preserve">
<g id="1549" transform="matrix(1, 0, 0, 1, 19.2, 25.05)">
<path style="fill:#333333;fill-opacity:0.498039" d="M15,-20L15.2 -18.3L15.4 -15.95L16.1 -16.45L16.8 -17L18 -17Q19.4 -16.75 20.65 -15.55Q21.8 -14.5 21.8 -13.7L21.25 -11.3L23.35 -10.05Q25.4 -8.95 25.4 -7.45Q25.4 -5.95 24.1 -5.5Q22.75 -5.1 22.6 -4.05Q22.25 -1.1 20.8 -0.6L19 -0.6L18.4 -1.5Q18.4 -1.9 19.15 -3L18.65 -3.8Q18.15 -4.35 18.2 -4.75Q18.2 -5.1 18.7 -5.7L15.7 -6.15Q12.65 -6.15 11.6 -5.45L10.4 -5.45Q9.7 -5.65 9.5 -6.2L9.45 -7.1L9.5 -7.85Q9.65 -8.4 10.2 -8.7L11.65 -8.5L12.3 -8.35Q13.35 -8.35 16.2 -10.9Q16.2 -12.2 14.2 -13.45Q12.2 -14.75 12.2 -15.5Q12.2 -16.2 12.5 -16.8L12.8 -17.75Q12.8 -18.25 11.4 -18.75Q10 -19.2 10 -19.75Q10 -22.05 12.5 -22.7Q15 -23.3 15 -20M3.8,-18.85Q2.75 -17.4 1.2 -17.4Q0.25 -17.4 -0.7 -18.35Q-1.7 -19.3 -2.9 -19.05L-5.25 -19.1Q-5.95 -19.4 -6.15 -20.1L-6.2 -21.15Q-6.2 -22.75 -5.55 -23.3Q-4.65 -24.05 -1 -25Q0.5 -25.3 2.7 -23.1L4.6 -20.8Q4.6 -19.95 3.8 -18.85M22.45,8.7Q20.8 9.7 15.6 9.7Q13.15 9.7 12.55 12.05Q12 14.4 10.7 14.4Q9.15 14.4 9.05 13.3Q9.15 11.95 8.9 11.45L6.2 13Q4 14.25 3.3 14.25Q1.25 14.25 1.15 12.25Q1.15 11.1 2 10.15Q3.05 8.95 4.9 8.95Q5.65 8.95 5.95 9.25L6.4 9.75L7.75 9.65Q8.35 8.7 8.35 7.85L7.45 6.8Q6.55 5.9 6.55 5.45Q6.55 4.6 6.95 3.95Q7.55 2.95 8.9 2.95Q11.15 2.95 12.1 3.95Q12.6 4.5 12.6 5.05L12.1 6.45L11.6 7.55L11.55 8.05L11.9 8.15Q13.15 8.15 14.15 7.1Q15.05 6.2 16.35 6.5L16.8 6.2L17.2 5.75L16.35 4.75Q16.05 4.4 16.05 3.85Q16.05 3.05 16.8 2.45Q17.8 1.65 19.65 2.15L19.2 2.5L18.6 2.55Q23.6 2.5 23.6 6Q23.6 8 22.45 8.7M1.9,5.2L2.7 5.15L2.9 6.05L2.6 6.3L1.9 6.1L1.9 5.2M-9.9,-18.25L-10.45 -17.75L-10.5 -17.5L-10.6 -17.35L-11 -17.25L-11.25 -17.3L-11.55 -17.15L-13.35 -16L-12.35 -14.8Q-11.95 -14.4 -11.95 -13.9L-12 -13.25L-12.65 -12.25L-10.9 -11.15Q-10.55 -10.85 -10.55 -10.05Q-10.55 -9.45 -10.8 -9.15L-11.85 -8.2L-11.05 -7.5Q-9.95 -7.45 -7.85 -8.15L-4.5 -8.8Q-2.8 -8.8 -2.8 -7.8Q-2.8 -7.05 -3.4 -7Q-5.25 -7.5 -6.5 -5.45Q-7.9 -3.2 -9.4 -3.2L-11.9 -3.7Q-12.95 -3.7 -13.85 -2.95Q-14.8 -2.2 -15.3 -2.2Q-16.85 -2.2 -18.2 -4.35L-19.2 -6.5L-18.9 -8.1L-17.3 -9.7Q-18.6 -11.3 -18.6 -11.8Q-18.6 -12.45 -17.55 -13Q-16 -13.8 -15.45 -14.35Q-15.45 -14.9 -15.7 -15.25L-16 -15.85Q-16 -17.15 -15.05 -18.1Q-14.1 -19 -12.45 -19.05L-12.7 -19.3L-12.75 -19.6Q-11.1 -19.7 -10.7 -19.2L-10.45 -18.6L-10.1 -18.55L-9.9 -18.25" />
</g>
</svg>
