<?xml version="1.0" encoding="utf-8"?>
<svg version="1.1" id="Layer_1"
xmlns="http://www.w3.org/2000/svg"
xmlns:xlink="http://www.w3.org/1999/xlink"
width="55px" height="51px"
xml:space="preserve">
<g id="461" transform="matrix(1, 0, 0, 1, 2.55, 8.55)">
<path style="fill:#FFCC00;fill-opacity:1" d="M14.8,-2.65L15.5 -3.25L15.7 -3.55Q17.25 -5.35 19.2 -6.6Q21.65 -8.2 24.5 -8.5L24.85 -8.55L28.4 -8.1Q30.15 -7.65 31.65 -6.65Q32.35 -6.2 32.5 -5.55Q33.05 -5.2 33.1 -4.45Q30.35 -4.05 26.75 -4.4Q22.35 -4.9 18.65 -2.6Q16.05 -1 13.7 -0.85Q13.65 -1.2 13.9 -1.4L14.45 -2.1L14.8 -2.65M18.35,-4Q20.25 -5.15 22.45 -5.65L26.5 -6.25L28.3 -6.25L27.85 -6.55Q26.65 -7.4 25.05 -7.25Q20.95 -6.9 17.9 -4.25L16.35 -3Q17.4 -3.35 18.35 -4M23.75,-0.85Q25.7 -1.2 27.45 -0.4Q28.5 0.05 29.25 0.8L29.75 0.45L30.75 0L31.65 -0.2Q33.3 -0.3 34.65 0.45Q36.1 1.3 36.85 2.85L37.15 3.85Q38.65 4.45 39.55 6Q40.6 7.85 40.6 9.9Q45.2 11.55 46.4 16.4Q47.65 21.3 44.35 25.05Q43.05 26.5 41.55 26.7Q40.7 27.35 39.45 27.5Q35.6 27.85 32.6 26.05Q31.7 27.75 29.45 28.75Q25.9 30.3 21.95 29.5Q20.9 29.25 20.3 28.75Q19.55 29.6 17.55 30.05Q14.85 30.7 12.7 29.05Q10.1 27.1 10.95 24.05Q11 23.75 11.2 23.5L10.4 22.15Q9.6 20.45 9.9 18.5Q10 17.95 10.25 17.55Q9.45 16.7 9 15.1Q8.3 12.35 9.6 9.8Q10.2 8.5 11.3 7.8Q11.35 7.2 11.75 6.6Q12.8 4.9 14.5 3.8Q16.75 2.35 19.4 1.7L19.5 1.55Q20.8 0.25 22.65 -0.45L23.75 -0.85M41.4,-2.1L41.4 -2.2L41.75 -2.35Q42.45 -2.4 43 -2.8L43.4 -3Q48.85 -3.5 50.95 1.2Q53.2 6.2 48.4 9Q45.85 10.5 43.55 9.1Q45.4 8.25 47 6.6Q47.75 5.85 47.6 4.65Q47.25 0.65 43.4 -1.1L41.4 -2.1M44.9,-1.5Q46.55 -0.5 47.8 1.05Q49.1 2.65 49 4.8Q48.95 6.05 48.55 7.15Q50.5 6.1 50.15 4Q49.75 1.2 47.35 -0.45L44.9 -1.5M42,12.55Q40.95 11.75 40.5 10.95Q40.25 12.5 38.85 12.5L38.75 9.45Q38.85 6.95 36.75 5.5Q35.15 4.4 33.3 4.4Q33.35 4.05 33.65 3.85L34.4 3.65L35.15 3.55Q33.95 0.55 30.7 1.4L29.85 1.5L30.25 2.05Q30.9 3.15 30.55 4.25Q29.1 4.3 28.45 2.8Q27.7 1.15 25.9 0.9Q22.85 0.5 20.7 2L21.05 2.45L21.05 2.55L19.25 3.2L18.85 3.65L18.7 3.4L16.1 4.45Q14.5 5.1 13.3 6.45Q12.7 7.15 12.6 7.9Q12.5 8.6 12.9 9.35L12.7 9.65L12.6 9.7L12.15 9.75L11.8 9.7L11.5 9.15Q10.6 10.3 10.2 11.85Q9.45 14.7 11.9 16.4L13.8 18.3L11.05 18.15L10.95 18.25Q10.75 19.15 11 20.05Q11.25 21.15 11.9 22L12.75 23.35L14.55 24Q15.2 24.1 15.35 24.75L12.4 24.65L12.7 26.35Q12.9 27.85 14.4 28.5Q17.4 29.85 19.15 27.2L19.4 26.9L19.35 26.7L19.5 26.8Q19.9 26.35 20.4 26.2Q20.75 26.9 20.75 27.5Q25.65 29.85 30.45 26.05Q31.55 25.15 31.7 23.8L31.75 23.7L31 23.15Q31.8 22.1 33.45 21.9Q34.65 21.75 35.75 21.1L36.05 21L36.45 21.35Q38 20.5 39.1 18.9Q39.95 17.6 39.75 16.1Q39.65 15.45 40.3 15.4Q41.65 17.25 40.6 19.55Q39.6 21.7 37.35 22.55L35.6 22.65L35.35 22.75L33.1 23.6L32.95 25Q33.85 25.55 35 25.7L39.05 25.55L42 25.5Q44.7 23.9 45.25 20.45Q46.05 15.55 42 12.55M43.2,28.35Q45.1 30.7 44.85 33.75Q44.55 37.2 41.3 38.7L38 38.9L40 36.9Q41.2 35.75 41.65 34.05L42.15 32.7L42.15 32.55L41.95 32.4L41.8 32.25L41.75 32.15L41.95 30.9L41.85 29.5Q41.7 28.45 42.5 28.15L42.7 28.15L43 28.25L43.2 28.35M41.55,36.3L40.5 37.75Q42.9 37.15 43.35 34.8L43.5 31.8Q43.45 31.05 43.05 30.55Q43.25 32.2 42.75 33.6L41.55 36.3M22.8,8.9L23 9.4Q21.5 9.7 20 10.7Q18.75 11.5 18.85 13L18.6 15.35L17.6 14.8L17.1 16.15Q16.6 18.05 18.35 19.15L18.6 18L18.75 17.9L18.95 17.8L19.15 17.75L20.5 20.85Q20.85 21.6 21.7 21.9Q23.45 22.55 25.4 22.8L25.85 23.2L25.85 23.35L25.85 23.5L25.7 23.75L25.5 24.05Q21.5 24.45 19.1 21.4L18.7 20.8Q16.65 20.15 15.8 18.05Q15.05 16.2 16.25 14.45L17.15 13.45L17.15 12.95Q17.4 11.45 18.35 10.2Q19.6 8.65 21.5 8.4L22.15 8.55L22.8 8.9M23.55,11.6Q24.5 11.05 25.55 10.95L26 11.1L26.4 11.35L26.6 11.75L26.6 11.9Q26 12.6 24.75 12.65Q23.95 12.7 23.45 13.35Q23.15 13.75 22.65 13.75Q22.2 13.1 22.7 12.3L23.55 11.6M30,12.55Q31.85 13.6 31.45 15.8Q31.1 17.65 29.6 18.8Q28.45 19.7 27.55 18.95Q28.6 18.05 29.65 16.55Q30.65 15.15 29.6 13.7Q28.95 12.8 30 12.55M6.35,5.85L3.25 9.5Q1.6 11.3 1.05 13.75L0.4 16.9Q-1.75 15.85 -1.3 12.85Q-0.8 9.4 2.15 7.35Q3.85 6.1 5.7 5.35L6 5.5L6.2 5.6L6.35 5.85M0,12.3L-0.1 13.9L0.55 12.1Q1 10.85 1.85 9.7L2.9 7.9L1.15 9.9Q0.3 11 0 12.3M11.35,34.85Q11.1 34.65 10.75 34.6Q11.05 35.45 11.75 36Q12.4 36.5 13.25 36.55L13.85 36.5L12.5 35.7L11.35 34.85M18.2,36.15Q15.5 39.9 10.75 36.7Q9.55 35.9 9.05 34.55Q8.65 33.45 8.55 32.2L8.55 32.1L8.6 31.95L8.9 31.75L9.15 31.65L9.4 31.55L9.65 31.7L9.85 31.8L9.95 31.95L10 32.1L10.05 32.2L10.05 32.5L10.05 32.75L13.25 34.8Q15.65 35.95 18.2 36.15M7.1,28Q3.65 31.85 -0.8 28.15Q-2.4 26.85 -2.45 24.8L-2.55 21.8L-2.5 21.35L-2.35 21.25L-2.15 21.1L-1.85 21Q0 22.25 0.9 24.55Q1.2 25.35 1.8 26Q3.55 27.9 6.25 27.55Q6.85 27.5 7.1 28M4.9,28.65Q2.3 28.15 0.55 26.25L-0.75 24.3L-1.15 23.7Q-1.15 25.55 -0.15 27Q0.85 28.4 2.6 28.7L4.9 28.65M30.55,33.3Q27.65 35 24.6 33.55Q22.9 32.7 22.35 31.15L30.5 30.05Q31.3 29.9 31.8 29.15Q32.2 28.6 32.75 28.45Q34.05 31.3 30.55 33.3M31,31.5Q30.3 32.05 29.45 32.05L26.5 32.3L25.2 32.55L27.35 33.15L27.65 33.2Q29.15 33.25 30.15 32.35L31.1 31.45L31 31.5M32.4,35.45Q35.7 38.05 32.4 40.6Q29.45 42.9 26.65 40.65Q25.2 39.4 25.7 37.45L26.75 37.4L27.7 38.15L28.05 38.45Q30.7 39.2 31.4 37.1Q31.8 36.05 32.4 35.45M29.1,40.75Q30.55 40.85 31.9 40.1Q33.6 39.2 32.9 37.65L32.6 37Q32.4 38.1 31.35 38.8Q30.45 39.45 29.25 39.2Q28.5 39.1 27.95 39.6L27.4 39.4L26.85 39Q27.2 40.65 29.1 40.75" />
<path style="fill:#FFFF00;fill-opacity:1" d="M16.35,-3L17.9 -4.25Q20.95 -6.9 25.05 -7.25Q26.65 -7.4 27.85 -6.55L28.3 -6.25L26.5 -6.25L22.45 -5.65Q20.25 -5.15 18.35 -4Q17.4 -3.35 16.35 -3M47.35,-0.45Q49.75 1.2 50.15 4Q50.5 6.1 48.55 7.15Q48.95 6.05 49 4.8Q49.1 2.65 47.8 1.05Q46.55 -0.5 44.9 -1.5L47.35 -0.45M45.25,20.45Q44.7 23.9 42 25.5L39.05 25.55L35 25.7Q33.85 25.55 32.95 25L33.1 23.6L35.35 22.75L35.6 22.65L37.35 22.55Q39.6 21.7 40.6 19.55Q41.65 17.25 40.3 15.4Q39.65 15.45 39.75 16.1Q39.95 17.6 39.1 18.9Q38 20.5 36.45 21.35L36.05 21L35.75 21.1Q34.65 21.75 33.45 21.9Q31.8 22.1 31 23.15L31.75 23.7L31.7 23.8Q31.55 25.15 30.45 26.05Q25.65 29.85 20.75 27.5Q20.75 26.9 20.4 26.2Q19.9 26.35 19.5 26.8L19.35 26.7L19.4 26.9L19.15 27.2Q17.4 29.85 14.4 28.5Q12.9 27.85 12.7 26.35L12.4 24.65L15.35 24.75Q15.2 24.1 14.55 24L12.75 23.35L11.9 22Q11.25 21.15 11 20.05Q10.75 19.15 10.95 18.25L11.05 18.15L13.8 18.3L11.9 16.4Q9.45 14.7 10.2 11.85Q10.6 10.3 11.5 9.15L11.8 9.7L12.15 9.75L12.6 9.7L12.7 9.65L12.9 9.35Q12.5 8.6 12.6 7.9Q12.7 7.15 13.3 6.45Q14.5 5.1 16.1 4.45L18.7 3.4L18.85 3.65L19.25 3.2L21.05 2.55L21.05 2.45L20.7 2Q22.85 0.5 25.9 0.9Q27.7 1.15 28.45 2.8Q29.1 4.3 30.55 4.25Q30.9 3.15 30.25 2.05L29.85 1.5L30.7 1.4Q33.95 0.55 35.15 3.55L34.4 3.65L33.65 3.85Q33.35 4.05 33.3 4.4Q35.15 4.4 36.75 5.5Q38.85 6.95 38.75 9.45L38.85 12.5Q40.25 12.5 40.5 10.95Q40.95 11.75 42 12.55Q46.05 15.55 45.25 20.45M42.75,33.6Q43.25 32.2 43.05 30.55Q43.45 31.05 43.5 31.8L43.35 34.8Q42.9 37.15 40.5 37.75L41.55 36.3L42.75 33.6M32.7,6.3L32.4 6.4L32.2 6.55L32.1 6.65Q32.15 7.9 33.05 9Q33.65 9.8 33.7 10.9L33.6 12.3L33.7 12.45L33.8 12.6L33.95 12.75L34.15 12.95L34.45 13.15Q35.55 12.8 35.7 11.6Q35.95 9.8 35.3 8.15Q34.65 6.4 32.75 6.3L32.7 6.3M20.25,5.85L19.95 5.75L19.75 5.7Q18.25 6.05 16.95 7.1Q15.3 8.45 14.85 10.55Q14.4 12.6 16.1 12.95L16.9 10.95Q17.25 9.5 18.45 8.65Q19.85 7.55 20.55 6.25L20.5 6.1L20.25 5.85M22.15,8.55L21.5 8.4Q19.6 8.65 18.35 10.2Q17.4 11.45 17.15 12.95L17.15 13.45L16.25 14.45Q15.05 16.2 15.8 18.05Q16.65 20.15 18.7 20.8L19.1 21.4Q21.5 24.45 25.5 24.05L25.7 23.75L25.85 23.5L25.85 23.35L25.85 23.2L25.4 22.8Q23.45 22.55 21.7 21.9Q20.85 21.6 20.5 20.85L19.15 17.75L18.95 17.8L18.75 17.9L18.6 18L18.35 19.15Q16.6 18.05 17.1 16.15L17.6 14.8L18.6 15.35L18.85 13Q18.75 11.5 20 10.7Q21.5 9.7 23 9.4L22.8 8.9L22.15 8.55M22.7,12.3Q22.2 13.1 22.65 13.75Q23.15 13.75 23.45 13.35Q23.95 12.7 24.75 12.65Q26 12.6 26.6 11.9L26.6 11.75L26.4 11.35L26 11.1L25.55 10.95Q24.5 11.05 23.55 11.6L22.7 12.3M27.95,7.45Q27.3 6.1 25.95 5.5Q24.6 4.9 23.15 5.1Q22.05 5.6 23 6.5L26.35 9.15Q27.3 9.8 28.15 9.15Q28.35 8.25 27.95 7.45M29.6,13.7Q30.65 15.15 29.65 16.55Q28.6 18.05 27.55 18.95Q28.45 19.7 29.6 18.8Q31.1 17.65 31.45 15.8Q31.85 13.6 30 12.55Q28.95 12.8 29.6 13.7M28.8,14.9Q28.55 13 27.1 12Q26.15 12.4 26.6 13.5Q27.1 14.85 26.25 15.95Q25.3 17.15 25.5 18.45Q26.55 18.9 27.55 18.05Q29 16.8 28.8 14.9M22.55,20.45Q24.35 21.55 26 20.95Q26.15 20.55 25.8 20.3Q25.65 20.15 25.75 19.85L25.6 19.4Q25.15 18.95 24.55 19.2Q23.65 19.5 23.05 18.7Q22.5 17.95 21.65 17.65Q20.8 17.8 21.05 18.65Q21.45 19.8 22.55 20.45M33.5,13.8L33.45 13.85L33.15 13.95L32.95 14.05L32.85 14.2L32.85 14.5L32.85 14.9L32.9 15.35L33.05 15.75L33.15 16.05L32.05 17.75Q31.7 18.5 31.8 19.4Q31.85 20.2 32.55 20.5Q33.7 20.1 34.35 19.05Q35.35 17.55 35.9 15.7Q36.4 13.8 34.55 14.15L34.15 13.95L33.85 13.85L33.5 13.8M1.15,9.9L2.9 7.9L1.85 9.7Q1 10.85 0.55 12.1L-0.1 13.9L0 12.3Q0.3 11 1.15 9.9M12.5,35.7L13.85 36.5L13.25 36.55Q12.4 36.5 11.75 36Q11.05 35.45 10.75 34.6Q11.1 34.65 11.35 34.85L12.5 35.7M2.6,28.7Q0.85 28.4 -0.15 27Q-1.15 25.55 -1.15 23.7L-0.75 24.3L0.55 26.25Q2.3 28.15 4.9 28.65L2.6 28.7M31.1,31.45L30.15 32.35Q29.15 33.25 27.65 33.2L27.35 33.15L25.2 32.55L26.5 32.3L29.45 32.05Q30.3 32.05 31 31.5L31.1 31.45M26.85,39L27.4 39.4L27.95 39.6Q28.5 39.1 29.25 39.2Q30.45 39.45 31.35 38.8Q32.4 38.1 32.6 37L32.9 37.65Q33.6 39.2 31.9 40.1Q30.55 40.85 29.1 40.75Q27.2 40.65 26.85 39" />
<path style="fill:#FFFFFF;fill-opacity:1" d="M32.75,6.3Q34.65 6.4 35.3 8.15Q35.95 9.8 35.7 11.6Q35.55 12.8 34.45 13.15L34.15 12.95L33.95 12.75L33.8 12.6L33.7 12.45L33.6 12.3L33.7 10.9Q33.65 9.8 33.05 9Q32.15 7.9 32.1 6.65L32.2 6.55L32.4 6.4L32.7 6.3L32.75 6.3M20.5,6.1L20.55 6.25Q19.85 7.55 18.45 8.65Q17.25 9.5 16.9 10.95L16.1 12.95Q14.4 12.6 14.85 10.55Q15.3 8.45 16.95 7.1Q18.25 6.05 19.75 5.7L19.95 5.75L20.25 5.85L20.5 6.1M28.15,9.15Q27.3 9.8 26.35 9.15L23 6.5Q22.05 5.6 23.15 5.1Q24.6 4.9 25.95 5.5Q27.3 6.1 27.95 7.45Q28.35 8.25 28.15 9.15M27.55,18.05Q26.55 18.9 25.5 18.45Q25.3 17.15 26.25 15.95Q27.1 14.85 26.6 13.5Q26.15 12.4 27.1 12Q28.55 13 28.8 14.9Q29 16.8 27.55 18.05M21.05,18.65Q20.8 17.8 21.65 17.65Q22.5 17.95 23.05 18.7Q23.65 19.5 24.55 19.2Q25.15 18.95 25.6 19.4L25.75 19.85Q25.65 20.15 25.8 20.3Q26.15 20.55 26 20.95Q24.35 21.55 22.55 20.45Q21.45 19.8 21.05 18.65M33.85,13.85L34.15 13.95L34.55 14.15Q36.4 13.8 35.9 15.7Q35.35 17.55 34.35 19.05Q33.7 20.1 32.55 20.5Q31.85 20.2 31.8 19.4Q31.7 18.5 32.05 17.75L33.15 16.05L33.05 15.75L32.9 15.35L32.85 14.9L32.85 14.5L32.85 14.2L32.95 14.05L33.15 13.95L33.45 13.85L33.5 13.8L33.85 13.85" />
</g>
</svg>
