<?xml version="1.0" encoding="utf-8"?>
<svg version="1.1" id="Layer_1"
xmlns="http://www.w3.org/2000/svg"
xmlns:xlink="http://www.w3.org/1999/xlink"
width="5px" height="13px"
xml:space="preserve">
<g id="1539" transform="matrix(1, 0, 0, 1, 0, 0)">
<path style="fill:#CCCCCC;fill-opacity:1" d="M2.25,0.8L2.5 1.45L2.25 2.15L2.05 2.25L1.55 2.4L1 2.2L0.9 2.15Q0.6 1.85 0.6 1.45Q0.6 1.05 0.9 0.8Q1.15 0.5 1.55 0.5Q1.95 0.5 2.25 0.8" />
<path style="fill:#10080D;fill-opacity:1" d="M4.1,2.05Q4.1 2.9 3.5 3.5L2.7 3.8L2.7 12.05L1.35 12.05L1.35 3.8L0.6 3.5Q0 2.9 0 2.05Q0 1.2 0.6 0.6Q1.2 0 2.05 0Q2.9 0 3.5 0.6Q4.1 1.2 4.1 2.05M1.55,0.5Q1.15 0.5 0.9 0.8Q0.6 1.05 0.6 1.45Q0.6 1.85 0.9 2.15L1 2.2L1.55 2.4L2.05 2.25L2.25 2.15L2.5 1.45L2.25 0.8Q1.95 0.5 1.55 0.5" />
</g>
</svg>
