<?xml version="1.0" encoding="utf-8"?>
<svg version="1.1" id="Layer_1"
xmlns="http://www.w3.org/2000/svg"
xmlns:xlink="http://www.w3.org/1999/xlink"
width="48px" height="28px"
xml:space="preserve">
<g id="945" transform="matrix(1, 0, 0, 1, 29.05, 16.15)">
<path style="fill:#0B0B0B;fill-opacity:1" d="M-0.45,-9.7L-0.05 -11L-1.95 -12.9L-1.4 -13.45L-2.85 -14.8L-1.7 -16.15L-0.3 -14.7Q2.55 -11.8 4.9 -7L3.75 -5.95L-0.45 -9.7M6.85,-3.25L4.4 -5.35L5.75 -6.65L6.65 -6.8L11.2 -2.75L6.85 -3.25M7.05,-9.25Q13.4 -8.85 10.45 -4.2L6.75 -7.55L5.5 -7.2L3.9 -9.95L6.6 -9.65L7.05 -9.25M6.1,-10.1L3.55 -10.7L1.35 -14.2L6.1 -10.1M9.25,-8.75L8.75 -8.7L8.5 -8.35Q8.45 -8.1 8.55 -7.9L8.95 -7.6L9.35 -7.7L9.65 -8.05L9.55 -8.5L9.25 -8.75M9.95,-6.3L10.35 -6.35L10.6 -6.65L10.55 -7.1L10.25 -7.35L9.8 -7.3L9.55 -6.95Q9.45 -6.75 9.6 -6.55L9.95 -6.3M13.95,-0.45L18.7 -2.25L16.95 -0.65L17.25 0.9L15.75 1.4L14.55 4.8L13.35 5.15L13.4 5.2L13.25 6.75L12.45 7.05L13 7.8L12.25 9.2L11.45 9.15L11.5 9.55L10.3 10.5L9.65 10.25L9.5 11.1L8.05 11.5L7.75 11.2L7.35 11.8L5.8 11.65L5.6 11.1L4.85 11.55L3.5 10.85L3.6 9.75L2.5 10L1.5 8.75L1.9 8.15L1.1 7.95L0.65 6.5L1.3 5.95L0.65 5.9L0.25 6.9L-4.05 6.4L-4.5 6.35L-8.05 5.95L-7.45 2.25L-6.9 2.15L-7.4 2L-6.85 -1.35L-1.5 -2.2L-0.9 -4.25L-6.7 -2.55L-6.4 -4.45L0.05 -6.2L4.1 -3.55L4.25 -3.7L6.95 -2L11.35 -2.15L11.55 -2.05L11.1 -1.35L12.65 -0.9L11.8 1.3L12.35 1.95L12 2.75L12.8 2.95L13.95 -0.45M-3.7,5.35L-3.45 4.55L-3 3.25L-0.9 3L-3.6 2.3L-3.85 4.5L-4.05 6.4L-3.7 5.35M1.5,-0.85L2.8 -2.2L0.95 -3.7L0 -1.95L1.5 -0.85M10.7,2.45Q9.45 1 7.5 0.8Q5.6 0.6 4.1 1.8Q2.6 3.05 2.4 4.95L2.45 6.15Q2.55 7.35 3.45 8.4Q4.7 9.95 6.6 10.15Q8.55 10.35 10.05 9.05Q11.55 7.85 11.75 5.9L11.7 4.7L11.1 3.05L10.7 2.45M10.9,5.6L9.05 5.2L10.6 4.2L10.9 5.6M10.7,3.35L7.15 4.95L3.25 4Q3.8 2.85 4.5 2.25Q5.6 1.4 6.9 1.35L7.05 1.35L7.5 1.35Q9.2 1.5 10.3 2.85L10.7 3.35M6.4,2.4L5.95 3.4L6.95 4.05L7.05 4.05L8.75 3.45L7.85 3L8.1 2.35L6.5 2.2L6.45 2.4L6.4 2.4M3.65,7.6L7.15 5.55L11.15 6.45Q10.8 7.75 9.7 8.65Q8.4 9.75 6.7 9.6Q5.05 9.4 3.9 8.05L3.65 7.6M7.75,6.55L7.65 6.7L7 6.65L4.95 7.9Q7.75 9.55 10 7.15L7.75 6.55M5.4,5.55L3.7 6.65L3.35 4.85L5.4 5.55M-13.85,-2.2L-10.9 4.75L-10.65 6.25L-12 6.35L-12.65 7.35L-14.45 7.4L-14.9 5.85L-17.2 5.85L-17.3 4.4L-21.95 7.2L-21.95 7.35L-22.25 7.55L-21.85 7.95L-22.1 8.75L-22.65 8.85L-22.45 9.35L-22.95 10.05L-23.35 9.95L-23.3 10.4L-24.1 10.85L-24.5 10.5L-24.65 10.95L-25.5 11.05L-25.7 10.7L-26 11L-26.85 10.75L-26.95 10.4L-27.45 10.65L-28.2 10.15L-28.05 9.6L-28.5 9.6L-28.85 8.9L-28.55 8.4L-28.95 8.25L-29.05 7.35L-28.6 7.1L-28.9 6.8L-28.7 6L-28.45 5.95L-28.6 5.7L-28.05 5L-27.6 5.1L-27.6 4.65L-26.8 4.15L-26.5 4.4L-26.35 4L-25.55 3.9L-25.85 2.3L-20.05 -1.2L-15.4 -1.4L-13.85 -2.2M-10.5,1.95L-10.4 4.9L-12.45 -2.35L-8 -4.05L-8.1 -2.15L-9.6 -1.55L-9.1 -0.75L-8.15 -0.95L-8.35 2.45L-10.5 1.95M-9.95,3L-8.4 2.7L-8.6 6.45L-9.95 6.4L-10.25 5.5L-9.95 3M-5.1,1L-3.85 0L-6.7 0.5L-5.1 1M-26.45,7.3L-27.15 6.35Q-27.8 8.35 -26.15 9.25L-26.15 8.55L-25.85 9L-25.9 7.6L-21.95 4.9L-21.55 5.55L-20.5 4.8L-20.9 4.15L-19.65 3.25L-19.15 4.6L-18.25 4L-18.8 2.7L-18.8 2.65L-19.55 1.25L-20.55 1.5L-19.7 3.2L-19.7 3.25L-20 3.35L-21.05 4L-22.1 2.35L-23.2 2.65L-22.05 4.65L-26.5 7.45L-26.45 7.3M-23.95,5.3Q-24.75 4.75 -25.8 4.85Q-26.9 5 -27.55 5.85Q-28.2 6.7 -28.05 7.8Q-27.95 8.9 -27.1 9.55Q-26.25 10.2 -25.15 10.05Q-24.05 9.9 -23.4 9.1Q-22.9 8.5 -22.8 7.8L-23.1 8L-23.6 8.9L-23.85 9.05L-24.25 8.65L-24.7 8.9L-24.4 9.1L-25.3 9.5L-25.25 9.05L-25.75 9L-25.8 9.7L-26.9 9.3Q-27.65 8.7 -27.75 7.75Q-27.9 6.8 -27.35 6L-27.05 5.75L-26.25 6.8L-25.4 6.25L-25.4 5.1Q-24.8 5.15 -24.25 5.5L-23.95 5.3M-23.3,4.9L-22.6 4.4L-23.45 4.75L-23.3 4.9M-24.65,5.8L-24.9 5.6L-24.9 5.9L-24.65 5.8M-25.85,5.3L-25.85 6.4L-26.6 5.65L-25.85 5.3" />
<path style="fill:#BD8051;fill-opacity:1" d="M3.55,-10.7L6.1 -10.1L6.6 -9.65L3.9 -9.95L5.5 -7.2L6.75 -7.55L10.45 -4.2L11.9 -3L11.55 -2.7L11.2 -2.75L6.65 -6.8L5.75 -6.65L4.4 -5.35L3.75 -5.95L4.9 -7Q2.55 -11.8 -0.3 -14.7L-0.65 -15.65L0.1 -16.1L0.1 -16.15L1.45 -14.95L1.3 -14.3L1.35 -14.2L3.55 -10.7M9.55,-8.5L9.65 -8.05L9.35 -7.7L8.95 -7.6L8.55 -7.9Q8.45 -8.1 8.5 -8.35L8.75 -8.7L9.25 -8.75L9.55 -8.5M9.6,-6.55Q9.45 -6.75 9.55 -6.95L9.8 -7.3L10.25 -7.35L10.55 -7.1L10.6 -6.65L10.35 -6.35L9.95 -6.3L9.6 -6.55M12.8,2.95L12 2.75L12.35 1.95L11.8 1.3L12.65 -0.9L13.95 -0.45L12.8 2.95M-3.7,5.35L-3.8 5.35L-4.05 6.4L-4.55 8.55L-4.5 6.35L-4.05 6.4L-3.85 4.5L-3.45 4.55M-3.45,4.55L-3.7 5.35M1.85,-2.7L2.65 -2.3L2.55 -2.15L1.8 -2.55L1.85 -2.7M11.1,3.05L11.7 4.7L11.75 5.9Q11.55 7.85 10.05 9.05Q8.55 10.35 6.6 10.15Q4.7 9.95 3.45 8.4Q2.55 7.35 2.45 6.15L2.4 4.95Q2.6 3.05 4.1 1.8Q5.6 0.6 7.5 0.8Q9.45 1 10.7 2.45L11.1 3.05M10.6,4.2L9.05 5.2L10.9 5.6L10.6 4.2M10.3,2.85Q9.2 1.5 7.5 1.35L7.05 1.35L6.9 1.35Q5.6 1.4 4.5 2.25Q3.8 2.85 3.25 4L7.15 4.95L10.7 3.35L10.3 2.85M6.45,2.4L6.5 2.2L8.1 2.35L7.85 3L6.45 2.4M3.9,8.05Q5.05 9.4 6.7 9.6Q8.4 9.75 9.7 8.65Q10.8 7.75 11.15 6.45L7.15 5.55L3.65 7.6L3.9 8.05M3.35,4.85L3.7 6.65L5.4 5.55L3.35 4.85M-10.25,5.5L-10.4 4.9L-10.5 1.95L-8.35 2.45L-8.4 2.7L-9.95 3L-10.25 5.5M-8.35,4.5L-7.85 4.6L-8.4 4.75L-8.35 4.5M-26.55,8L-26.5 7.45L-22.05 4.65L-23.2 2.65L-22.1 2.35L-21.05 4L-20 3.35L-19.7 3.25L-19.7 3.2L-20.55 1.5L-19.55 1.25L-18.8 2.65L-18.8 2.7L-18.25 4L-19.15 4.6L-19.65 3.25L-20.9 4.15L-20.5 4.8L-21.55 5.55L-21.95 4.9L-25.9 7.6L-25.85 9L-26.15 8.55L-26.55 8M-24.25,5.5Q-24.8 5.15 -25.4 5.1L-25.4 6.25L-26.25 6.8L-27.05 5.75L-27.35 6Q-27.9 6.8 -27.75 7.75Q-27.65 8.7 -26.9 9.3L-25.8 9.7L-25.75 9L-25.25 9.05L-25.3 9.5L-24.4 9.1L-24.7 8.9L-24.25 8.65L-23.85 9.05L-23.6 8.9L-23.1 8L-22.8 7.8Q-22.9 8.5 -23.4 9.1Q-24.05 9.9 -25.15 10.05Q-26.25 10.2 -27.1 9.55Q-27.95 8.9 -28.05 7.8Q-28.2 6.7 -27.55 5.85Q-26.9 5 -25.8 4.85Q-24.75 4.75 -23.95 5.3L-24.25 5.5M-26.6,5.65L-25.85 6.4L-25.85 5.3L-26.6 5.65" />
</g>
</svg>
