<?xml version="1.0" encoding="utf-8"?>
<svg version="1.1" id="Layer_1"
xmlns="http://www.w3.org/2000/svg"
xmlns:xlink="http://www.w3.org/1999/xlink"
width="17px" height="11px"
xml:space="preserve">
<g id="1072" transform="matrix(1, 0, 0, 1, 7.4, 10.1)">
<path style="fill:#FFCC00;fill-opacity:1" d="M1.95,-7.5L1.8 -7.55L1.8 -7.5L1.75 -7.5L1.7 -7.5L1.55 -7.45L1 -8.35L0.7 -8.55L-0.25 -8.75L-1.15 -8.4L-1.75 -7.9L-1.8 -7.65L-0.8 -7.3L-0.25 -6.7L-0.15 -6.35L-2.5 -6.1L-3.15 -5.65L-3.3 -6.5Q-3.45 -7.4 -4.45 -7.1Q-5.45 -6.75 -5.25 -5.85L-5.25 -5.7Q-5.2 -5.15 -4.7 -4.75L-4.5 -4.6L-3.85 -4.15L-3.45 -3.9L-3.45 -3.85L-3.5 -3.85L-4.05 -3.45L-4.35 -2.7L-4.3 -2.4L-4.45 -2.45L-5.25 -2.65L-6.15 -2.75L-6.2 -2.75L-6.65 -2.4L-6.8 -2.2L-6.85 -1.9L-6.85 -1.8L-6.85 -1.75L-6.85 -1.65L-7.1 -1.45L-7.2 -1.1L-7.15 -0.95L-7.15 -0.9L-7.1 -0.85L-7 -0.75L-6.9 -0.7L-6.9 -0.65L-6.8 -0.6L-6.5 -0.4L-6.25 -0.45L-6.2 -0.5L-6.2 -0.6L-6.25 -0.65L-6.25 -0.7L-6.2 -0.75L-6.1 -0.8L-6 -0.8L-5.45 -0.45Q-5.05 -0.15 -4.55 -0.2L-3.9 -0.4L-3.35 -0.6L-3.15 -0.55Q-2.95 -0.55 -2.85 -0.7L-2.8 -0.75L-1.75 -0.75L-1.6 -0.75L-1.65 -1.05L-1.6 -1.5L-1.4 -2.05L-0.9 -2.3L-0.55 -2.4L-0.3 -2.3L0 -2L0.15 -1.65L-0.05 -1.9L-0.2 -2.1L-0.45 -2.2L-0.75 -2.2L-1.1 -2.05L-1.2 -2.05L-1.5 -1.55Q-1.7 -0.95 -1.25 -0.55L-0.95 -0.25L-0.85 0L-1.3 -0.05L-1.75 -0.25Q-2.2 -0.65 -2.8 -0.5L-2.85 -0.45L-2.85 -0.4L-2.9 -0.35L-3 -0.3L-3.75 -0.4L-4.5 0L-4.6 0.1L-5.2 -0.1L-5.9 -0.5L-5.95 -0.5L-5.9 -0.4L-5.9 -0.3L-5.95 -0.2L-5.95 -0.15L-6 -0.15Q-6.9 -0.1 -7.3 -0.8Q-7.55 -1.2 -7.25 -1.55L-7.15 -1.65Q-7.3 -2.1 -6.9 -2.5Q-6.25 -3.25 -5.2 -2.95L-4.5 -2.55L-4.45 -2.9L-4.4 -3.35L-4.15 -3.65L-4 -3.8L-4.55 -4.35L-5.2 -4.9L-5.25 -4.95L-5.45 -5.2L-5.65 -5.85Q-5.75 -6.5 -5.3 -6.9L-4.4 -7.5L-3.95 -7.45L-3.95 -7.5L-3.1 -7Q-2.8 -6.5 -3 -6L-2.3 -6.4L-1.35 -6.65L-0.75 -6.6L-0.5 -6.55Q-0.65 -7.05 -1.15 -7.2L-1.75 -7.45L-1.8 -7.45L-1.9 -7.45L-1.95 -7.65L-2 -7.65L-1.95 -7.7L-1.9 -8.05Q-1.4 -8.75 -0.5 -8.9L0.2 -9Q0.9 -9 1.35 -8.5L1.75 -7.65L2.05 -7.8L3.95 -7.55L4.15 -8.05L4 -9.05Q3.75 -9.7 4.3 -9.95L4.5 -10.1L4.7 -10.1L4.75 -10.1Q5.5 -10.05 5.8 -9.3Q6.1 -8.65 6 -7.9L6.2 -7.95L6.25 -8L7.3 -7.65Q7.75 -7.25 7.6 -6.65L7.3 -6.15Q7.8 -6.05 8.2 -6.45Q8.55 -6.85 8.4 -7.25L8.45 -7.8Q9.1 -7.6 9.2 -6.8Q9.25 -6.15 8.85 -5.75Q8.45 -5.3 8 -5.1L9.05 -4.35L9.3 -4.05L9.2 -4.05L9.1 -4.05L9.05 -4.15L8.7 -4.6L8.2 -4.85L8.1 -4.9L7.95 -5L7.8 -5.15L8.3 -5.45Q8.8 -5.75 8.95 -6.25Q9.15 -6.9 8.8 -7.25L8.7 -7.1Q8.75 -6.4 8.15 -6.2L6.85 -5.9L7 -6.15L7.3 -6.95L7.25 -7.1Q7.15 -7.7 6.55 -7.75L6.05 -7.65L6 -7.65L5.75 -7.55L5.65 -7.5L5.75 -7.8Q5.9 -8.45 5.65 -9.1L5.25 -9.65L5.2 -9.75L4.95 -9.95L4.7 -10L4.65 -10L4.4 -9.9L4.3 -9.85L4.3 -9.8L4.3 -9.5L4.35 -9.3L4.4 -8.95L4.45 -8.9L4.45 -8.5Q4.7 -7.2 3.2 -7.55L2.05 -7.5L1.95 -7.5M1.2,-6.9L1.15 -6.9L1.2 -6.9M0.05,-6.1Q-0.05 -6 -0.2 -6L-0.25 -5.95L-0.25 -6L-0.65 -6.1L0.05 -6.1M-3.4,-5.7L-3.3 -5.35L-3.35 -5.4L-3.4 -5.45L-3.4 -5.7L-3.45 -5.7L-3.45 -5.85L-3.4 -5.7M-4.4,-0.55L-4.25 -0.65L-4 -0.75L-4.1 -0.7L-4.4 -0.55M8.2,-3.95L8.35 -3.8L8.75 -3.1L9.05 -2.5L9.15 -2.45L9.2 -2.45L9.3 -2.45L9.3 -2.5L9.45 -2.85L9.5 -2.95L9.45 -2.8L9.3 -2.45L8.8 -2.15L8.7 -2.75L8.15 -3.5L7.6 -3.85L7 -3.35Q6.65 -2.95 6.8 -2.45L6.85 -2.05Q7.15 -1.55 6.8 -0.95Q6.45 -0.35 5.75 -0.1L5.2 -0.05L5.15 0L4.75 -0.3L4.2 -0.65L3.9 -0.55L3.8 -0.4L3.8 -0.25L3.85 -0.05L3.75 0.1L3.6 0L3 0.35Q2.05 0.55 1.4 0.05L1.2 -0.1L1.1 -0.05L1.05 -0.05L0.95 -0.05L0.85 -0.05L0.85 -0.1L0.8 -0.2L0.75 -0.35L0.65 -0.5L0.3 -0.7L0.25 -0.95L0.25 -1.35L0.95 -0.45Q1.5 0.05 2.15 0.05Q3 0.5 3.65 -0.35Q4.55 -1.5 5.05 -0.2Q5.55 -0.1 5.95 -0.4L6.65 -1.3L6.7 -2.3Q6.4 -4 8.15 -4L8.2 -3.95" />
<path style="fill:#FFFF00;fill-opacity:1" d="M-6.9,-0.7L-7 -0.75L-7.1 -0.85L-7.15 -0.95L-7.2 -1.1L-7.1 -1.45L-6.85 -1.65L-6.85 -1.75L-6.85 -1.8L-6.85 -1.9L-6.8 -2.2L-6.65 -2.4L-6.2 -2.75L-6.15 -2.75L-5.25 -2.65L-4.45 -2.45L-4.3 -2.4L-4.35 -2.7L-4.05 -3.45L-3.5 -3.85L-3.45 -3.85L-3.45 -3.9L-3.85 -4.15L-4.5 -4.6L-4.7 -4.75Q-5.2 -5.15 -5.25 -5.7L-5.25 -5.85Q-5.45 -6.75 -4.45 -7.1Q-3.45 -7.4 -3.3 -6.5L-3.15 -5.65L-2.5 -6.1L-0.15 -6.35L-0.25 -6.7L-0.8 -7.3L-1.8 -7.65L-1.75 -7.9L-1.15 -8.4L-0.25 -8.75L0.7 -8.55L0.95 -8.4L1 -8.35L1.55 -7.45L1.7 -7.5L1.75 -7.5L1.8 -7.5L1.8 -7.55L1.95 -7.5L2 -7.5L2.05 -7.5L3.2 -7.55Q4.7 -7.2 4.45 -8.5L4.45 -8.9L4.4 -8.95L4.35 -9.3L4.3 -9.5L4.3 -9.8L4.3 -9.85L4.4 -9.9L4.65 -10L4.7 -10L4.95 -9.95L5.2 -9.75L5.25 -9.65L5.65 -9.1Q5.9 -8.45 5.75 -7.8L5.65 -7.5L5.75 -7.55L6 -7.65L6.05 -7.65L6.55 -7.75Q7.15 -7.7 7.25 -7.1L7.3 -6.95L7 -6.15L6.85 -5.9L8.15 -6.2Q8.75 -6.4 8.7 -7.1L8.8 -7.25Q9.15 -6.9 8.95 -6.25Q8.8 -5.75 8.3 -5.45L7.8 -5.15L7.95 -5L8.1 -4.9L8.2 -4.85L8.7 -4.6L9.05 -4.15L9.1 -4.05L9.2 -4.05L9.3 -4.05L9.5 -3.5L9.5 -2.95L9.45 -2.85L9.3 -2.5L9.3 -2.45L9.2 -2.45L9.15 -2.45L9.05 -2.5L8.75 -3.1L8.35 -3.8L8.2 -3.95L8.15 -4Q6.4 -4 6.7 -2.3L6.65 -1.3L5.95 -0.4Q5.55 -0.1 5.05 -0.2Q4.55 -1.5 3.65 -0.35Q3 0.5 2.15 0.05Q1.5 0.05 0.95 -0.45L0.25 -1.35L0.15 -1.65L0 -2L-0.3 -2.3L-0.55 -2.4L-0.9 -2.3L-1.4 -2.05L-1.6 -1.5L-1.65 -1.05L-1.6 -0.75L-1.75 -0.75L-2.8 -0.75L-2.85 -0.7Q-2.95 -0.55 -3.15 -0.55L-3.35 -0.6L-3.9 -0.4L-4.55 -0.2Q-5.05 -0.15 -5.45 -0.45L-6 -0.8L-6.1 -0.8L-6.2 -0.75L-6.25 -0.7L-6.25 -0.65L-6.2 -0.6L-6.2 -0.5L-6.25 -0.45L-6.5 -0.4L-6.8 -0.6L-6.9 -0.7M-0.65,-6.1L-2.25 -5.75L-3.25 -5.15L-3.3 -5.35L-3.4 -5.7L-3.45 -5.85L-3.85 -6.85L-3.95 -6.9Q-5.35 -6.85 -4.8 -5.6L-4.15 -4.7L-3.95 -4.55L-3.75 -4.45L-3.5 -4.3L-3.2 -4.1L-3.1 -4.05L-3.1 -3.8L-3.2 -3.65L-3.4 -3.45L-3.8 -3.15L-3.95 -2.65L-3.95 -2.6L-3.9 -2.5L-3.85 -2.45L-3.8 -2.4L-3.85 -2.35L-3.85 -2.3L-3.95 -2.25L-4 -2.2L-4.05 -2.15Q-4.35 -1.95 -4.8 -2.15L-6.2 -2.25Q-6.55 -2.15 -6.55 -1.8L-6.6 -1.45L-6.6 -1.4L-6.65 -1.4L-6.75 -1.35L-6.85 -1.25L-6.9 -1.2L-6.9 -1.05L-6.8 -0.95L-6.75 -0.9L-6.6 -0.8L-6.45 -1Q-6.05 -1.25 -5.65 -1L-5.1 -0.65L-4.65 -0.4L-4.5 -0.5L-4.4 -0.55L-4.1 -0.7L-4 -0.75L-3 -0.95L-2.95 -0.95L-2.8 -1.05L-2.15 -1.1L-1.95 -1.1L-1.95 -1.4L-1.9 -1.85L-1.6 -2.35L-0.9 -2.75L-0.55 -2.75L-0.5 -2.75L0.3 -2.25L0.75 -1.45L0.85 -0.95L1.5 -0.6Q1.9 -0.3 2.35 -0.15L2.6 -0.2L3.1 -0.3Q3.35 -0.95 4.05 -1.2Q5.05 -1.5 5.25 -0.55Q5.6 -0.65 5.95 -0.9L6.45 -1.45Q6.1 -2.15 6.2 -2.9Q6.2 -3.5 6.6 -3.95Q7.1 -4.6 7.95 -4.6L7.4 -4.85Q7.05 -4.9 6.85 -5.15L7.4 -5.5L7.8 -5.6L6.6 -5.7L6.55 -5.7L6.45 -5.7L6.35 -5.75L6.3 -5.8L6.3 -5.95L6.35 -5.95L6.55 -6.2L6.9 -6.8L6.75 -7.35L5.85 -7.25L5.3 -7.2L5.3 -7.25L5.3 -7.4L5.3 -7.55L5.4 -7.7L5.4 -7.75Q5.6 -8.2 5.45 -8.65L4.95 -9.55L4.9 -9.55L4.75 -9.5L4.7 -9.5L4.85 -8.15Q4.7 -6.75 3.1 -7.2L2.1 -7.25L2.05 -7.25L1.95 -7.25L1.9 -7.2L1.75 -7L1.55 -6.75L1.45 -6.55L1.4 -6.7L1.3 -6.6L1.2 -6.9L1.1 -7.4Q1.1 -8.25 0.2 -8.35Q-0.6 -8.4 -1.25 -7.85Q-0.95 -7.85 -0.5 -7.5L0.1 -6.75L0.25 -6.1L0.05 -6.1L-0.65 -6.1" />
<path style="fill:#FFFFFF;fill-opacity:1" d="M-4.25,-0.65L-4.4 -0.55L-4.5 -0.5L-4.65 -0.4L-5.1 -0.65L-5.65 -1Q-6.05 -1.25 -6.45 -1L-6.6 -0.8L-6.75 -0.9L-6.8 -0.95L-6.9 -1.05L-6.9 -1.2L-6.85 -1.25L-6.75 -1.35L-6.65 -1.4L-6.6 -1.4L-6.6 -1.45L-6.55 -1.8Q-6.55 -2.15 -6.2 -2.25L-4.8 -2.15Q-4.35 -1.95 -4.05 -2.15L-4 -2.2L-3.95 -2.25L-3.85 -2.3L-3.85 -2.35L-3.8 -2.4L-3.85 -2.45L-3.9 -2.5L-3.95 -2.6L-3.95 -2.65L-3.8 -3.15L-3.4 -3.45L-3.2 -3.65L-3.1 -3.8L-3.1 -4.05L-3.2 -4.1L-3.5 -4.3L-3.75 -4.45L-3.95 -4.55L-4.15 -4.7L-4.8 -5.6Q-5.35 -6.85 -3.95 -6.9L-3.85 -6.85L-3.45 -5.85L-3.45 -5.7L-3.4 -5.7L-3.4 -5.45L-3.35 -5.4L-3.3 -5.35L-3.25 -5.15L-2.25 -5.75L-0.65 -6.1L-0.25 -6L-0.25 -5.95L-0.2 -6Q-0.05 -6 0.05 -6.1L0.25 -6.1L0.1 -6.75L-0.5 -7.5Q-0.95 -7.85 -1.25 -7.85Q-0.6 -8.4 0.2 -8.35Q1.1 -8.25 1.1 -7.4L1.2 -6.9L1.15 -6.9L1.2 -6.9L1.3 -6.6L1.4 -6.7L1.45 -6.55L1.55 -6.75L1.75 -7L1.9 -7.2L1.95 -7.25L2.05 -7.25L2.1 -7.25L3.1 -7.2Q4.7 -6.75 4.85 -8.15L4.7 -9.5L4.75 -9.5L4.9 -9.55L4.95 -9.55L5.45 -8.65Q5.6 -8.2 5.4 -7.75L5.4 -7.7L5.3 -7.55L5.3 -7.4L5.3 -7.25L5.3 -7.2L5.85 -7.25L6.75 -7.35L6.9 -6.8L6.55 -6.2L6.35 -5.95L6.3 -5.95L6.3 -5.8L6.35 -5.75L6.45 -5.7L6.55 -5.7L6.6 -5.7L7.8 -5.6L7.4 -5.5L6.85 -5.15Q7.05 -4.9 7.4 -4.85L7.95 -4.6Q7.1 -4.6 6.6 -3.95Q6.2 -3.5 6.2 -2.9Q6.1 -2.15 6.45 -1.45L5.95 -0.9Q5.6 -0.65 5.25 -0.55Q5.05 -1.5 4.05 -1.2Q3.35 -0.95 3.1 -0.3L2.6 -0.2L2.35 -0.15Q1.9 -0.3 1.5 -0.6L0.85 -0.95L0.75 -1.45L0.3 -2.25L-0.5 -2.75L-0.55 -2.75L-0.9 -2.75L-1.6 -2.35L-1.9 -1.85L-1.95 -1.4L-1.95 -1.1L-2.15 -1.1L-2.8 -1.05L-2.95 -0.95L-3 -0.95L-4 -0.75L-4.25 -0.65" />
</g>
</svg>
