<?xml version="1.0" encoding="utf-8"?>
<svg version="1.1" id="Layer_1"
xmlns="http://www.w3.org/2000/svg"
xmlns:xlink="http://www.w3.org/1999/xlink"
width="30px" height="8px"
xml:space="preserve">
<g id="679" transform="matrix(1, 0, 0, 1, 0, 0)">
<path style="fill:#000000;fill-opacity:1" d="M28.65,5.9L27.15 6.3L27.25 6.3L19.5 7.15L17.65 7.15Q16.25 6.95 15.35 6Q10.55 6.25 5.85 5.9Q5.75 5.6 5.95 5.4L6.05 5.05L1.75 5.35L1.6 5.35L1.25 5.5Q-0.1 5.8 0 4.35Q0.1 3.55 0.95 3.3L3.75 3L4.55 3.05L4.2 1.9L4.25 1.75L4.45 1.3Q4.65 0.65 5.3 0.3L6 0.05Q8.35 -0.2 9.1 1.05L10.4 0.6L11.9 0.35L16.05 0.8Q17.6 1.2 19.05 1.9L25 2.65L26.2 2.65Q29.35 2.05 29.3 4.85Q29.3 5.6 28.65 5.9" />
</g>
</svg>
