<?xml version="1.0" encoding="utf-8"?>
<svg version="1.1" id="Layer_1"
xmlns="http://www.w3.org/2000/svg"
xmlns:xlink="http://www.w3.org/1999/xlink"
width="37px" height="29px"
xml:space="preserve">
<g id="1314" transform="matrix(1, 0, 0, 1, 19.15, 24.6)">
<path style="fill:#F8C601;fill-opacity:1" d="M12.55,-13.55L9.9 -11.4Q9.35 -10.85 8.75 -11.1Q9.1 -12.55 10.05 -13.95Q11.2 -15.6 13.2 -15.9Q13.55 -15.45 13.5 -15.05Q13.35 -14.15 12.55 -13.55M2.3,-15.85L4.2 -24.6L3.55 -16.35L2.3 -15.85M5,0.75L4.4 -1.65L2.6 1.7L1.25 0.85L0.7 3.7L-1.3 0.55L-3.85 2.6L-6.35 2.15L-8.5 2.75L-7.55 0.8L-4.25 0.05L-4.8 1.15L-1.25 -0.05L0.1 1.6L0.55 0.6L1.6 -0.35L2.05 -0.4L4.65 -2.1L5.15 0.3L5.9 -0.85L6.65 -0.05L5 0.75M6.65,-0.05L7.55 0L7.7 0.95L6.95 1.1L6.65 -0.05M0.15,-13.9L0.9 -2.8L2.8 -9.15L2.8 -4.05L6.4 -7.2L7.25 -1.8L5.1 -5.8L2.45 -2.6L2.2 -4.9L0.75 -1.3L-1.25 -11.2L0.15 -13.9M-6.7,-1.1L-9.45 -2.75L-5.8 -3.75L-5.2 -7.3L-2.9 -5.75L-4 -11.9L-3 -11.45L-2.15 -9.55L-1.3 -11.1L-1.9 -6.2L-2.75 -9.15L-3.3 -9.4L-1.9 -2.55L-4.15 -5.95L-4.4 -3.4L-7.55 -2.45L-3.6 -1.5L-7.55 0.8L-6.7 -1.1M12.1,-6.3L13.8 -6.3L13.8 -7.95L13.05 -7.95L17.45 -11.9L15.75 -9.05L15.35 -7.9L14.75 -7.05L14.05 -6.25Q12.55 -4.9 10.8 -5.95L12.1 -7.1L12.1 -6.3M9.55,-12.55L9.1 -11.25L11.2 -13.85L9.55 -12.55M-14.85,-12.8L-13.05 -9.05Q-13.85 -8.85 -14.4 -9.5L-16.2 -11.45L-17.45 -12.95Q-18.25 -13.95 -17.9 -15.1L-14.85 -12.8M-19.15,-6.95L-12.1 -3.8Q-13.6 -2.55 -15.2 -3.8L-18.65 -6.2Q-19.15 -6.45 -19.15 -6.95M-8.35,-10.15L-9.15 -11.9L-9.6 -11.4L-10.6 -13.85Q-8.75 -13.3 -8.3 -11.4Q-7.85 -9.45 -7.95 -7.45L-8.25 -8.15L-8.35 -10.15" />
<path style="fill:#FFF193;fill-opacity:1" d="M-3.6,-1.5L-7.55 -2.45L-4.4 -3.4L-4.15 -5.95L-1.9 -2.55L-3.3 -9.4L-2.75 -9.15L-1.9 -6.2L-1.3 -11.1L-1.3 -11.2L-1.25 -11.2L0.75 -1.3L2.2 -4.9L2.45 -2.6L5.1 -5.8L7.25 -1.8L7.55 0L6.65 -0.05L6.65 -0.1L6.65 -0.05L5.9 -0.85L5.15 0.3L4.65 -2.1L2.05 -0.4L1.6 -0.35L0.55 0.6L0.1 1.6L-1.25 -0.05L-4.8 1.15L-4.25 0.05L-7.55 0.8L-3.6 -1.5M-7.6,0.8L-7.55 0.8L-7.6 0.8M13.05,-7.95L13.8 -7.95L13.8 -6.3L12.1 -6.3L12.1 -7.1L13.05 -7.95M11.2,-13.85L9.1 -11.25L9.55 -12.55L11.2 -13.85M-8.25,-8.15L-8.25 -8.1L-9.75 -11.25L-9.6 -11.4L-9.15 -11.9L-8.35 -10.15L-8.25 -8.15" />
</g>
</svg>
