<?xml version="1.0" encoding="utf-8"?>
<svg version="1.1" id="Layer_1"
xmlns="http://www.w3.org/2000/svg"
xmlns:xlink="http://www.w3.org/1999/xlink"
width="38px" height="39px"
xml:space="preserve">
<g id="1574" transform="matrix(1, 0, 0, 1, -2.25, -3.05)">
<path style="fill:#FF0100;fill-opacity:0.25098" d="M34.85,3.45Q34.35 5.1 32.65 4.5Q34 4.75 34.8 3.5L34.85 3.45M32.25,4.35L32.6 4.45L32.15 5.25L32.05 5.5Q32.7 6.1 32.45 6.8L32.15 7.4L33.15 8.7Q33.4 9.1 32.9 9.1Q32.7 9 32.95 8.55Q32.15 8 32.15 7.4L32.2 7.05L32.45 6.35Q31.7 5.75 32.05 5.05L32.25 4.35M22.45,4.25L22.75 3.6L23.05 3.3L23.15 3.2L23.2 3.05L23.35 3.2L23.35 3.25L22.8 3.9L22.7 4.05Q23.15 4.85 24.15 4.6Q25.2 4.4 25.3 5.4L25.05 5.2L24.95 4.9L24.95 4.85L24.85 4.8Q23.5 5.2 22.5 4.3L22.45 4.25M33.75,22.85Q33.9 26.15 36.45 24.15L36.5 24.1Q37.25 24 37.45 24.8L37.4 23.9Q37.2 22.9 38 22.4L38.5 22.4L37.85 22.7L37.75 22.8L37.6 23.1L37.75 23.8L37.45 25.55L37.45 25.6L37.7 25.8Q38.5 26.05 39 26.65L38.95 26.9L38.6 27.55L37.35 28.55L37.6 28.2L37.8 28L38.9 26.75L38.85 26.7L38.6 26.45L38.45 26.4L37.25 25.85L37.25 25.55L37.45 24.9L36.75 24.2Q33.8 26.55 33.7 22.85L33.75 22.85M40.05,22.5L39.85 22.45L40 22.45L40.05 22.5M10.2,3.95Q10.95 3.65 11.2 4.2L11.3 4.3L11.25 4.55L11.2 4.5Q10.4 4 9.4 4.1L10.2 4L10.2 3.95M12.5,7.7Q14.6 7.9 15.3 10.25L15.4 10.55Q14.05 12.05 16.3 12.75Q13.8 12.35 15.1 10.6Q14.7 8.1 12.45 7.95L12.25 7.85Q10.9 6.85 11.05 5.55Q11.1 6.6 12.3 7.3L12.5 7.7M2.9,13.25Q2.15 13.1 2.25 12.9L2.4 12.7Q3.05 12.5 3.15 13.05L3.15 13.15L3.4 13.8L3 13.55L2.9 13.25M4.65,15.9L6.35 16.55Q5.3 16.6 4.35 16.05L4.3 15.15L4.65 15.5L4.65 15.9M14.5,21.15Q15.25 21.9 15.05 22.95L15.45 22.8Q17.75 23.9 19.65 23.1L19.8 23.1Q17.9 24.05 15.2 23.55Q14 23.35 14.15 24.4Q14.45 26.55 12.45 25.95Q10.8 25.5 10 26.65Q11.3 24.7 14 25.2Q14.25 25.3 14.15 24.9Q13.85 23.65 14.75 23.1Q14.45 22.1 14.5 21.15M13.6,34.8L14.35 34.7L15.05 34.5L16.15 34.55L16.2 34.6L14.3 34.75Q13.85 34.85 13.45 35.1L13.9 35.35L14.15 35.75L14.35 36.75Q12.1 38.15 10 38.8Q9.65 38.9 9.55 39.4L9.2 40.2L9.2 39.8Q9.3 39.05 9.7 38.35L9.95 37.7Q13.65 38.55 13.5 35.7L13.15 35Q13.35 34.85 13.6 34.8M32.9,35.45L32.65 35.45L32.9 35.4L32.9 35.45M26.85,36.9L27.6 37.25L28.55 37.85L29 38.15L29.4 38.4L28.95 39.65L27.8 40.7L26.5 41.55Q26.75 40.95 27.4 40.6L28.3 40L29.25 38.65L28.8 38.15L27.65 37.6Q27 37.3 26.6 36.75L27.15 36.3Q27.65 35.9 28.25 35.7L28.8 35.5L29.4 35.3L30.75 35.5L28.25 35.95Q27.25 36.2 26.85 36.9" />
</g>
</svg>
