<?xml version="1.0" encoding="utf-8"?>
<svg version="1.1" id="Layer_1"
xmlns="http://www.w3.org/2000/svg"
xmlns:xlink="http://www.w3.org/1999/xlink"
width="22px" height="4px"
xml:space="preserve">
<g id="744" transform="matrix(1, 0, 0, 1, -10.8, -17.3)">
<path style="fill:#000000;fill-opacity:0.498039" d="M27.3,18.55L27.3 18.7L29.2 18.5L31.75 18.9Q32.4 19.1 32.7 19.4L32.25 19.95L32.45 20.35L31.75 20.6L29.2 20.95L26.6 20.6L26 20.35L25.65 20.6L25.25 20.8L24.05 20.95L22.85 20.75L22.2 20.85L17.5 21.15L12.75 20.85Q10.8 20.6 10.8 20.3Q10.8 19.95 12.75 19.7L17.5 19.45L21.75 19.65L21.8 19.6L21.05 19.4Q19.95 19.05 19.95 18.55Q19.95 18.05 21.05 17.7L23.65 17.3L26.2 17.7Q27.3 18.05 27.3 18.55" />
</g>
</svg>
