<?xml version="1.0" encoding="utf-8"?>
<svg version="1.1" id="Layer_1"
xmlns="http://www.w3.org/2000/svg"
xmlns:xlink="http://www.w3.org/1999/xlink"
width="11px" height="12px"
xml:space="preserve">
<g id="646" transform="matrix(1, 0, 0, 1, -2.15, 0.35)">
<path style="fill:#000000;fill-opacity:1" d="M7.8,-0.1L9.1 0.1L9.45 0.35L9.3 0.8L9.4 0.75L10.25 5.3Q10.35 6.35 11.05 7.35L13 9.8Q12.3 11.2 10.65 11.4Q9.55 11.55 8.8 10.9Q8.75 10.5 9.05 10.25L9.8 9.55Q7.9 8.2 7.25 6.3L7.1 5.65Q6.35 6.9 6.1 8.45L5.65 10.35L2.3 9.85L2.15 9.2L2.3 8.55Q2.4 8 2.95 7.95L4.1 7.6Q3.6 6.05 3.8 4.75Q4.05 3.45 4.9 2.3L7.1 -0.35L7.8 -0.1" />
</g>
</svg>
