<?xml version="1.0" encoding="utf-8"?>
<svg version="1.1" id="Layer_1"
xmlns="http://www.w3.org/2000/svg"
xmlns:xlink="http://www.w3.org/1999/xlink"
width="21px" height="11px"
xml:space="preserve">
<g id="979" transform="matrix(1, 0, 0, 1, 3.85, 8.9)">
<path style="fill:#000000;fill-opacity:0.85098" d="M7.35,-8.5L7.9 -8.1L8.2 -7.55Q7.75 -7.2 7.15 -7Q5.5 -6.5 4.75 -7.7Q4.6 -7.95 4.8 -8.25L5 -8.55L5.15 -8.7L5.25 -8.75L5.85 -8.8L5.95 -8.85L6.05 -8.85L6.05 -8.9L6.75 -8.85L7.35 -8.5M10.1,-7.1L10.2 -7.15L11.1 -7L11.95 -6.5L12.35 -5.75Q12.45 -5.3 12.05 -5.05Q11.5 -4.95 11.1 -5.3L10.3 -5.7Q9.65 -5.8 9.5 -6.4L9.5 -6.85L9.55 -6.9L9.7 -6.95L9.9 -7.05L10.1 -7.1M4.1,-2.8L4.2 -2.9L4.55 -3L5.35 -3.15L6.95 -3.65L7.2 -3.75L7.7 -3.75L7.8 -3.7L7.9 -3.6L8.05 -3.1L7.85 -2.6L7.55 -2.1L7.35 -1.8L6.75 -1.75Q5.65 -2.15 4.85 -1.35L4.6 -1.1L4.6 -1.05L4.6 -0.95L4.6 -0.8L4.55 -0.7L4.45 -0.6L4.3 -0.7L4.15 -1.3L4.05 -1.85L4.05 -2.4L4.1 -2.8M16.05,-6.65Q14.8 -6.15 14.3 -7.1L14.2 -7.4L14.2 -7.55L14.25 -7.95L14.3 -8L14.4 -8.05L14.5 -8.1L14.6 -8.15L14.7 -8.15L14.7 -8.2L15.05 -8.15L15.75 -8.05L16.25 -7.95L16.75 -7.7L16.8 -7.65L16.8 -7.35Q16.6 -6.85 16.05 -6.65M0.25,1.9L-0.05 1.9L-0.9 1.75L-0.9 1.7L-0.9 1.5L-0.9 1.35L-0.9 1.1L-0.85 0.8L-0.65 0.6L-0.55 0.55L-0.45 0.55L-0.35 0.5L-0.25 0.45L-0.15 0.4L1.3 0.55Q2.2 1 1.45 1.6Q0.95 2 0.25 1.9M-1.8,-5.6L-1.35 -5.25L-1.2 -4.8L-1.3 -4.3L-1.85 -4.1L-2.95 -3.9Q-3.45 -3.85 -3.8 -4.2L-3.8 -4.25L-3.8 -4.35L-3.85 -4.4L-3.85 -4.55L-3.85 -4.7L-3.85 -4.75L-3.75 -4.85L-3.35 -5.1L-2.8 -5.45L-2.25 -5.7L-1.8 -5.6" />
</g>
</svg>
