<?xml version="1.0" encoding="utf-8"?>
<svg version="1.1" id="Layer_1"
xmlns="http://www.w3.org/2000/svg"
xmlns:xlink="http://www.w3.org/1999/xlink"
width="27px" height="11px"
xml:space="preserve">
<g id="678" transform="matrix(1, 0, 0, 1, 5.65, -12.6)">
<path style="fill:#000000;fill-opacity:0.498039" d="M16.1,22.4L7.15 22.95L-1.95 22.4Q-5.65 21.85 -5.65 21.1Q-5.65 20.35 -1.95 19.8L7.15 19.25L16.1 19.8Q19.85 20.35 19.85 21.1Q19.85 21.85 16.1 22.4" />
<path style="fill:#000000;fill-opacity:1" d="M21,20.25L19.9 21.6Q18.5 23.05 16.5 22.15L12.6 22.4L12.35 22.45Q9.4 23.15 7.3 21.75L-0.5 21.55L-0.65 21.55L-2.25 21.55L-2.15 21.05L-2.1 20.95L-2.2 20.9L-2.25 20.75L-2.05 20.75L-2 20.65L-2 20.6L-1.9 20.5L-1.7 20.4L-1.55 20.7L3.65 20.35L3.4 19.7L3.35 18.75L1 19.4L-2.6 20.25L-5.2 20L-5.25 19.8L-5.2 19.35L-5.2 19.2L-5.15 18.9L-5.1 18.75Q-3.75 18.05 -2.2 17.7L0.25 16.95L0.3 16.95Q-0.8 16.3 -1 14.6Q-1.05 13.9 -0.5 13.35L0.85 12.6Q2.9 12.75 3.65 13.85Q5.95 13.75 7.95 14.95L8.95 15.55Q11.9 15.75 14.6 16.85L20.75 19.45L21 19.55Q21.2 19.9 21 20.25M6.45,18.45L5.4 18.05L5.75 19L5.9 20.25L8 20.1Q6.9 19.4 6.75 18.55L6.45 18.45M12.4,19.9L14.8 19.8Q13.55 19.2 12.2 18.95L10.9 18.7L11.8 19.4L12.4 19.9" />
</g>
</svg>
