<?xml version="1.0" encoding="utf-8"?>
<svg version="1.1" id="Layer_1"
xmlns="http://www.w3.org/2000/svg"
xmlns:xlink="http://www.w3.org/1999/xlink"
width="21px" height="12px"
xml:space="preserve">
<g id="980" transform="matrix(1, 0, 0, 1, 5, 9.2)">
<path style="fill:#000000;fill-opacity:0.85098" d="M7.5,-8.95Q8 -8.95 8.2 -8.55Q8.55 -8 8.05 -7.55Q7.5 -7.1 6.8 -7.25L6.2 -7.65L5.9 -7.9L5.85 -7.95L5.85 -8L5.85 -8.15L5.9 -8.25L5.9 -8.4L5.9 -8.55L5.95 -8.6L6 -8.65L6.15 -8.85L6.35 -9L6.45 -9.05L6.8 -9.2L7.2 -9.2L7.3 -9.15L7.35 -9.1L7.4 -9.05L7.45 -9L7.5 -8.95M4.95,-3.25L5.1 -3.45L5.35 -3.65L5.85 -3.9L6.4 -4.1L6.85 -4.05L7.2 -3.95L7.4 -3.9L7.8 -3.8L7.95 -3.7L8 -3.55L8 -3.35L8 -3.2L8 -3L7.8 -2.7L7.4 -2.2L6.45 -2.1L5.45 -2.35Q5.05 -2.55 4.9 -3L4.9 -3.05L4.95 -3.25M15.65,-8.75L15.85 -8.5L15.95 -8.15L15.9 -8.05L15.45 -7.75Q14.9 -7.5 14.3 -7.75L14 -7.85L13.95 -7.9L13.9 -7.95L13.9 -8L13.85 -8.15L13.85 -8.25L13.85 -8.35L13.85 -8.4L13.9 -8.45L14.05 -8.55L14.3 -8.7L14.65 -8.8L14.95 -8.9L15.35 -8.9L15.65 -8.75M2.45,0.5L2.45 0.65L2.15 1.25L1.7 1.6L1.05 1.9L1.05 2L0.95 2.1L0.85 2.15L0.8 2.2L0.75 2.25L0.65 2.3L0.55 2.25L0.45 2.1L0.45 2L0.35 1.8L0.15 1.5L0 1.35L0 1.25L0 1.15L0.05 1.05L0.35 0.55L0.75 0.2L1.2 0L1.6 0.05L1.85 0.1L2.25 0.25L2.4 0.3L2.45 0.5M-2.55,-5.8Q-2.35 -5.6 -2.45 -5.35L-2.65 -4.95L-3.1 -4.75Q-3.65 -4.3 -4.3 -4.5Q-4.65 -4.6 -4.95 -4.85L-5 -4.9L-5 -5L-5 -5.1L-4.95 -5.25L-4.95 -5.3L-4.75 -5.45L-4.3 -5.7L-3.9 -5.95L-3.45 -6.15L-2.95 -6.1L-2.55 -5.8" />
</g>
</svg>
