<?xml version="1.0" encoding="utf-8"?>
<svg version="1.1" id="Layer_1"
xmlns="http://www.w3.org/2000/svg"
xmlns:xlink="http://www.w3.org/1999/xlink"
width="58px" height="41px"
xml:space="preserve">
<g id="842" transform="matrix(1, 0, 0, 1, -2.2, 10.1)">
<path style="fill:#0E0E0E;fill-opacity:1" d="M15.5,-8.85L13.15 -9.05L15.25 -8.1L14.4 -4.4L15.9 -7.7L20.15 -6.3L20.4 -7.2L16.1 -8.6L16.4 -9.8L15.5 -8.85M20.9,-8.3L20.7 -7.7L34.85 -3L35.05 -3.35Q45.5 -9.25 55.95 -1.35Q62.85 5.4 57.05 17.5L56.95 17.75L54.95 15.6L53.15 16.4L50.3 14L51.1 12.35L48.15 9.5L46.1 10.55L43.4 8.3L43.65 5.8L39.95 4.1L37.9 6.25L37.85 6.25L34.4 6.8L33.2 4.35L29.15 4.9L28.6 7.65L24.05 8.35L22.85 5.85L18.8 6.4L18.2 9.2L14.9 9.7L13.05 7.3L9.2 8.65L9.2 10.75L9.05 10.85L9.05 10.55L6.6 10.55L6.6 7.7L24.45 0.65L31.75 2.6L32.35 1.55L19.1 -2.85L18.9 -2.25L14.4 -3.75L11.35 -5.8L12.8 -10.1L16.4 -9.8L20.9 -8.3M35.6,-2.65L33 2.85L33.5 3.15L36.1 -2.3L35.6 -2.65M20.65,-6.15L34.15 -1.7L34.4 -2.2L20.8 -6.7L20.65 -6.15M47.9,-0.5Q47.55 -0.15 47.55 0.35Q47.55 0.85 47.9 1.2Q48.25 1.55 48.75 1.55Q49.25 1.55 49.6 1.2L49.95 0.35L49.6 -0.5Q49.25 -0.85 48.75 -0.85Q48.25 -0.85 47.9 -0.5M46.65,2.6Q46.3 2.95 46.3 3.45Q46.3 3.95 46.65 4.3Q47 4.65 47.5 4.65Q48 4.65 48.35 4.3Q48.7 3.95 48.7 3.45Q48.7 2.95 48.35 2.6Q48 2.25 47.5 2.25Q47 2.25 46.65 2.6M41.25,12.2L40.65 12.3L41.1 11.7L41.25 12.2M39.95,10.3L39.2 11.35L39 9.95L39.95 10.3M38.1,9.9L38.45 9.9L37.85 9.95L38.1 9.9M37.25,10.25L37.4 11.45L36.55 10.8L37.25 10.25M35.75,12.45L36.4 12.9L35.8 13L35.75 12.45M36.65,14.65L36.7 14.65L36.7 14.7L36.65 14.65M49.2,17.9L49.45 19.55L49.6 19.6L50.65 18.15L51.7 18.9L50.6 20.4L52.4 20.15L52.55 21.4L50.9 21.65L50.9 21.8L52.25 22.75L51.5 23.8L50.2 22.85L49.95 22.95L50.25 24.65L48.9 24.85L48.6 23.05L47.5 24.55L46.5 23.8L47.55 22.35L47.4 22.15L45.7 22.4L45.5 21.1L47.35 20.85L47.35 20.75L46 19.65L46.7 18.75L48.15 19.8L47.9 18.1L49.2 17.9M49.65,19.15L49.65 19.1L49.7 19.1L49.65 19.15M51.2,20.1L51.1 20.1L51.2 20.05L51.3 19.85L51.45 20.05L51.2 20.1M51.35,21.85L51.95 21.75L51.9 22.25L51.35 21.85M50.25,23.25L50.85 23.7L50.35 23.9L50.25 23.25M48.5,23.6L48.55 23.9L48.35 23.8L48.5 23.6M47.1,22.5L47.1 22.45L47.15 22.45L47.1 22.5M45.05,12.5L48.1 15.15Q46.55 15.45 45.4 16.4L44.15 17.7L43.55 18.75Q42.7 20.45 42.95 22.45Q43.25 24.4 44.5 25.75L18.95 25.55L20.2 24.3Q21.65 22.25 21.9 19.9L21.95 18.75L21.8 17.75Q21.3 14.15 18.2 11.8L17.8 11.5L33.15 9.25Q31.9 11.3 32.25 13.6Q32.65 16.25 34.75 17.8L34.95 17.95L36.5 18.75L39.55 19.05L40.8 18.75Q42.5 18.15 43.7 16.65L43.75 16.45Q45.15 14.7 45.05 12.5M41.05,16L39.8 15.1L39.75 15.05L39.5 15.15L39.5 15.2L39.8 16.85L38.45 17.05L38.15 15.25L38.1 15.4L37.05 16.75L36.05 16L37.1 14.55L36.95 14.35L35.25 14.6L35.05 13.3L36.9 13.05L36.9 12.95L35.55 11.85L36.25 10.95L37.7 12L37.45 10.3L38.75 10.1L39 11.75L39.15 11.8L40.2 10.35L41.25 11.1L40.15 12.6L41.95 12.35L42.1 13.6L40.45 13.85L40.45 14L41.8 14.95L41.05 16M24.55,1.55L7.75 7.9L8.8 7.95L24.65 1.95L24.55 1.55M10.85,13.5L10.7 12.45L13.25 12.1L13.4 13.15L13 13.1L10.85 13.5M9.25,14.4L9.05 14.6L8.85 14.75L7.8 16.25L6.9 15.6L8.4 13.75L9.25 14.4M7.2,18.9Q7.2 19.95 7.5 20.85L6.4 21L6.05 18.4L7.25 18.25L7.2 18.9M10,25.15L7.9 23.7L8.65 22.75L8.85 22.95Q9.65 23.8 10.7 24.25L10 25.15M17.05,14.75L15.4 13.6L16.15 12.6L18.2 14.15L17.45 15.15L17.05 14.75M18.8,18.9L18.8 18.75L18.4 16.7L19.55 16.55L19.85 19L18.8 19.2L18.8 18.9M15.3,25.4L12.7 25.8L12.55 24.7L13 24.7L15.15 24.3L15.3 25.4M17.05,22.95L18.4 21.05L19.3 21.7L17.75 23.75L16.9 23.1L17.05 22.95" />
<path style="fill:#BD8051;fill-opacity:1" d="M16.4,-9.8L16.1 -8.6L20.4 -7.2L20.15 -6.3L15.9 -7.7L14.4 -4.4L15.25 -8.1L13.15 -9.05L15.5 -8.85L16.4 -9.8M36.1,-2.3L33.5 3.15L33 2.85L35.6 -2.65L36.1 -2.3M20.8,-6.7L34.4 -2.2L34.15 -1.7L20.65 -6.15L20.8 -6.7M48.75,-0.85Q49.25 -0.85 49.6 -0.5L49.95 0.35L49.6 1.2Q49.25 1.55 48.75 1.55Q48.25 1.55 47.9 1.2Q47.55 0.85 47.55 0.35Q47.55 -0.15 47.9 -0.5Q48.25 -0.85 48.75 -0.85M47.5,2.25Q48 2.25 48.35 2.6Q48.7 2.95 48.7 3.45Q48.7 3.95 48.35 4.3Q48 4.65 47.5 4.65Q47 4.65 46.65 4.3Q46.3 3.95 46.3 3.45Q46.3 2.95 46.65 2.6Q47 2.25 47.5 2.25M45.05,11.05L44.95 11.1L45.55 11.7L48.3 14.4L45.8 12.2L45.6 12L42.05 8.9L41.95 8.8L42.15 8.9L42.8 9.15L45.05 11.05M42.1,12.05L42.35 13.8L40.9 14.05L42.15 14.95L41.1 16.4L39.8 15.45L40.05 17.1L38.3 17.35L38.05 15.8L37.1 17.05L35.75 16.05L36.7 14.7L36.7 14.65L36.65 14.65L35.05 14.9L34.8 13.15L35.8 13L36.4 12.9L35.75 12.45L35.15 12L36.2 10.55L36.55 10.8L37.4 11.45L37.25 10.25L37.2 10.05L37.85 9.95L38.45 9.9L38.95 9.8L39 9.95L39.2 11.35L39.95 10.3L40.1 10.05L41.55 11.1L41.1 11.7L40.65 12.3L41.25 12.2L42.1 12.05M52.4,17.8Q52.05 17.55 51.75 17.45L51.7 17.4L49.55 15.55L49.8 15.05L52 16.85L51.65 17L52.25 17.65L52.4 17.8M47.9,18.1L48.15 19.8L46.7 18.75L46 19.65L47.35 20.75L47.35 20.85L45.5 21.1L45.7 22.4L47.4 22.15L47.55 22.35L46.5 23.8L47.5 24.55L48.6 23.05L48.9 24.85L50.25 24.65L49.95 22.95L50.2 22.85L51.5 23.8L52.25 22.75L50.9 21.8L50.9 21.65L52.55 21.4L52.4 20.15L50.6 20.4L51.7 18.9L50.65 18.15L49.6 19.6L49.45 19.55L49.2 17.9L47.9 18.1M51.9,22.25L52.6 22.75L51.55 24.2L50.85 23.7L50.25 23.25L50.35 23.9L50.5 24.9L48.75 25.15L48.55 23.9L48.5 23.6L48.35 23.8L47.55 24.85L46.2 23.85L47.1 22.5L47.15 22.45L47.1 22.45L45.5 22.7L45.25 20.95L46.85 20.7L45.6 19.8L46.65 18.35L47.85 19.25L47.65 17.85L49.4 17.6L49.65 19.1L49.65 19.15L49.7 19.1L50.55 17.85L52 18.9L51.3 19.85L51.2 20.05L51.1 20.1L51.2 20.1L51.45 20.05L52.55 19.85L52.8 21.6L51.95 21.75L51.35 21.85L51.9 22.25M41.8,14.95L40.45 14L40.45 13.85L42.1 13.6L41.95 12.35L40.15 12.6L41.25 11.1L40.2 10.35L39.15 11.8L39 11.75L38.75 10.1L37.45 10.3L37.7 12L36.25 10.95L35.55 11.85L36.9 12.95L36.9 13.05L35.05 13.3L35.25 14.6L36.95 14.35L37.1 14.55L36.05 16L37.05 16.75L38.1 15.4L38.15 15.25L38.45 17.05L39.8 16.85L39.5 15.2L39.5 15.15L39.75 15.05L39.8 15.1L41.05 16L41.8 14.95M33.6,26.85L33.65 26.95L29.75 26.95L29.8 26.75L28.95 26.7L24.7 26.7L23.45 26.7L23.55 26.95L19.25 26.95L19.25 26.9L18.4 26.85L14.1 26.7L12.95 26.7L13 26.9L10.7 26.55L10.55 26.55Q9.35 26.15 8.3 25.4L8.15 25.25L6.75 23.85Q5.5 22.3 5.2 20.2Q5.05 19 5.2 17.95L5.5 17.25Q5.25 18.55 5.45 19.95Q5.9 23.15 8.55 25.15Q10.45 26.5 12.7 26.6L13.7 26.55L49.4 26.8L49.75 26.8L50.8 26.5Q51.75 26.25 52.95 24.55L53.45 23.8Q54.1 22.55 54.05 21.45Q54.05 20 53.5 19.15L53.35 18.85L54.5 20.1L54.6 20.75L54.7 21.85Q54.65 23.4 53.7 24.6Q52.5 26.3 51.75 26.55L50.75 26.8L50 26.95L49.4 27L49.2 27L49.25 26.85L48.4 26.85L47.05 26.95L34.85 26.9L33.6 26.85M39.15,7.5L38.45 7.45L11.45 11.5L12.75 11L37.85 7.3L38.65 7.25L39.15 7.5M24.65,1.95L8.8 7.95L7.75 7.9L24.55 1.55L24.65 1.95M13.95,13.2L13.4 13.15L13.25 12.1L10.7 12.45L10.85 13.5L10.45 13.65L10.45 13.5L10.2 12L13.7 11.5L13.95 13.05L13.95 13.2M15,13.35L15.95 11.95L18.75 14.05L17.75 15.45L17.7 15.5L17.45 15.15L18.2 14.15L16.15 12.6L15.4 13.6L14.95 13.4L15 13.35M18.2,16.25L19.85 16L20.35 19.4L18.75 19.65L18.8 19.2L19.85 19L19.55 16.55L18.4 16.7L18.15 16.25L18.2 16.25M16.9,23.1L17.75 23.75L19.3 21.7L18.4 21.05L18.55 20.6L20 21.65L17.9 24.5L16.55 23.45L16.9 23.1M12.55,24.7L12.7 25.8L15.3 25.4L15.15 24.3L15.6 24.1L15.8 25.85L12.3 26.35L12.05 24.65L12.55 24.7M8.65,22.75L7.9 23.7L10 25.15L10.7 24.25L11.05 24.4L10.1 25.75L7.3 23.75L8.35 22.35L8.65 22.75M7.7,21.3L6 21.5L5.5 18.1L7.15 17.9L7.3 17.85L7.25 18.25L6.05 18.4L6.4 21L7.5 20.85L7.7 21.3M9.7,14.05L9.25 14.4L8.4 13.75L6.9 15.6L7.8 16.25L7.55 16.8L7.5 16.75L6.15 15.75L8.3 12.95L9.65 14L9.7 14.05M9.2,12L9.05 12.1Q7.9 12.75 7.05 13.9L7.25 13.45Q8.05 12.45 9.05 11.95L9.2 11.85L9.2 12" />
<path style="fill:#000000;fill-opacity:1" d="M6.45,12.9Q7.55 11.5 9.05 10.85L9.2 10.75L9.2 11.85L9.05 11.95Q8.05 12.45 7.25 13.45L7.4 13L6.45 12.9M13.3,27.9L13.25 27.9L10.5 27.5L9.05 26.9L9.5 26.7L8.9 26.05L6.3 27.3L4.6 25.55L5.9 23L5.05 22.15L4.9 22.45Q4.45 21.5 4.3 20.35L4.25 18.25L4.75 18.75L5.15 17.95L3.1 15.95L4.1 13.75L6.9 14.1L6.95 14.1L7.05 13.9Q7.9 12.75 9.05 12.1L9.2 12L9.2 12.25L10.05 11.95L10.05 9.1L12.35 8.3L14.05 10.55L15.2 10.1L14.9 9.7L18.2 9.2L18.05 9.9L18.9 9.85L19.55 7L21.95 6.7L23.15 9.3L24.4 9.1L24.05 8.35L28.6 7.65L28.45 8.45L29.3 8.4L29.9 5.5L32.3 5.2L33.55 7.8L34.75 7.55L34.4 6.8L37.85 6.25L37.9 6.25L37.45 6.7L38.3 7.1L40.25 5.05L42.45 6L42.45 6.05L42.15 8.9L41.95 8.8L42.05 8.9L45.6 12L45.8 12.2L48.3 14.4L45.55 11.7L48.05 10.45L48.1 10.4L49.9 12.15L48.6 14.7L49.55 15.55L51.7 17.4L51.75 17.45Q52.05 17.55 52.4 17.8L52.25 17.65L54.85 16.55L56.5 18.3L55.1 20.8L55.8 21.55L55.35 23.95L55.05 23.4L54.45 24L55.8 26.6L54.15 28.4L51.55 27.2L51 27.8L50.25 27.9L49.5 28L48.95 28L49.2 27L49.4 27L50 26.95L50.75 26.8L51.75 26.55Q52.5 26.3 53.7 24.6Q54.65 23.4 54.7 21.85L54.6 20.75L54.5 20.1L53.35 18.85L53.5 19.15Q54.05 20 54.05 21.45Q54.1 22.55 53.45 23.8L52.95 24.55Q51.75 26.25 50.8 26.5L49.75 26.8L49.4 26.8L13.7 26.55L12.7 26.6Q10.45 26.5 8.55 25.15Q5.9 23.15 5.45 19.95Q5.25 18.55 5.5 17.25L5.2 17.95Q5.05 19 5.2 20.2Q5.5 22.3 6.75 23.85L8.15 25.25L8.3 25.4Q9.35 26.15 10.55 26.55L10.7 26.55L13 26.9L13.3 27.9M45.05,11.05L42.8 9.15L43.3 9.35L43.4 8.3L46.1 10.55L45.05 11.05M49.8,15.05L50.3 14L53.15 16.4L52 16.85L49.8 15.05M35.8,13L34.8 13.15L35.05 14.9L36.65 14.65L36.7 14.7L35.75 16.05L37.1 17.05L38.05 15.8L38.3 17.35L40.05 17.1L39.8 15.45L41.1 16.4L42.15 14.95L40.9 14.05L42.35 13.8L42.1 12.05L41.25 12.2L41.1 11.7L41.55 11.1L40.1 10.05L39.95 10.3L39 9.95L38.95 9.8L38.45 9.9L38.1 9.9L37.85 9.95L37.2 10.05L37.25 10.25L36.55 10.8L36.2 10.55L35.15 12L35.75 12.45L35.8 13M47.1,22.5L46.2 23.85L47.55 24.85L48.35 23.8L48.55 23.9L48.75 25.15L50.5 24.9L50.35 23.9L50.85 23.7L51.55 24.2L52.6 22.75L51.9 22.25L51.95 21.75L52.8 21.6L52.55 19.85L51.45 20.05L51.3 19.85L52 18.9L50.55 17.85L49.7 19.1L49.65 19.1L49.4 17.6L47.65 17.85L47.85 19.25L46.65 18.35L45.6 19.8L46.85 20.7L45.25 20.95L45.5 22.7L47.1 22.45L47.1 22.5M43.75,16.45L43.7 16.65Q42.5 18.15 40.8 18.75L39.55 19.05L36.5 18.75L34.95 17.95L34.75 17.8Q32.65 16.25 32.25 13.6Q31.9 11.3 33.15 9.25L17.8 11.5L18.2 11.8Q21.3 14.15 21.8 17.75L21.95 18.75L21.9 19.9Q21.65 22.25 20.2 24.3L18.95 25.55L44.5 25.75Q43.25 24.4 42.95 22.45Q42.7 20.45 43.55 18.75L44.15 17.7L45.4 16.4Q46.55 15.45 48.1 15.15L45.05 12.5Q45.15 14.7 43.75 16.45M40,27.15L39.1 27.1L38.1 29.75L35.6 29.65L34.85 26.95L34.85 26.9L47.05 26.95L48.4 26.85L47.6 29.7L45.2 29.85L44.1 27.15L42.9 27.3L43.2 28L39.7 28L40 27.15M29.75,26.95L33.65 26.95L33.95 27.95L29.4 27.95L29.75 26.95M23.85,27.95L18.85 27.9L19.25 26.95L23.55 26.95L23.85 27.95M38.65,7.25L37.85 7.3L12.75 11L11.45 11.5L38.45 7.45L39.15 7.5L38.65 7.25M9.65,14L8.3 12.95L6.15 15.75L7.5 16.75Q7.25 17.3 7.15 17.9L5.5 18.1L6 21.5L7.7 21.3L8.35 22.35L7.3 23.75L10.1 25.75L11.05 24.4L12.05 24.65L12.3 26.35L15.8 25.85L15.6 24.1L16.55 23.45L17.9 24.5L20 21.65L18.55 20.6L18.75 19.65L20.35 19.4L19.85 16L18.2 16.25L17.75 15.45L18.75 14.05L15.95 11.95L15 13.35L13.95 13.05L13.7 11.5L10.2 12L10.45 13.5Q10 13.7 9.65 14M18.4,26.85L17.4 29.5L14.9 29.45L14.1 26.7L18.4 26.85M24.7,26.7L28.95 26.7L28 29.45L25.55 29.4L24.7 26.7" />
<path style="fill:#0B0B0B;fill-opacity:1" d="M9.2,11.85L9.2 10.75L9.2 8.65L13.05 7.3L14.9 9.7L15.2 10.1L14.05 10.55L12.35 8.3L10.05 9.1L10.05 11.95L9.2 12.25L9.2 12L9.2 11.85M18.2,9.2L18.8 6.4L22.85 5.85L24.05 8.35L24.4 9.1L23.15 9.3L21.95 6.7L19.55 7L18.9 9.85L18.05 9.9L18.2 9.2M28.6,7.65L29.15 4.9L33.2 4.35L34.4 6.8L34.75 7.55L33.55 7.8L32.3 5.2L29.9 5.5L29.3 8.4L28.45 8.45L28.6 7.65M43.3,9.35L42.8 9.15L42.15 8.9L42.45 6.05L42.45 6L40.25 5.05L38.3 7.1L37.45 6.7L37.9 6.25L39.95 4.1L43.65 5.8L43.4 8.3L43.3 9.35M46.1,10.55L48.15 9.5L51.1 12.35L50.3 14L49.8 15.05L49.55 15.55L48.6 14.7L49.9 12.15L48.1 10.4L48.05 10.45L45.55 11.7L44.95 11.1L45.05 11.05L46.1 10.55M55.1,20.8L56.5 18.3L54.85 16.55L52.25 17.65L51.65 17L52 16.85L53.15 16.4L54.95 15.6L56.95 17.75L57.7 18.55L55.95 21.7L55.8 21.55L55.1 20.8M55.35,23.95L56.75 26.6L54 29.55L50.75 28.05L51 27.8L51.55 27.2L54.15 28.4L55.8 26.6L54.45 24L55.05 23.4L55.35 23.95M42.9,27.3L44.1 27.15L45.2 29.85L47.6 29.7L48.4 26.85L49.25 26.85L49.2 27L48.95 28L48.3 30.3L44.25 30.55L43.2 28L42.9 27.3M33.65,26.95L33.6 26.85L34.85 26.9L34.85 26.95L35.6 29.65L38.1 29.75L39.1 27.1L40 27.15L39.7 28L38.65 30.45L34.6 30.3L33.95 27.95L33.65 26.95M23.55,26.95L23.45 26.7L24.7 26.7L25.55 29.4L28 29.45L28.95 26.7L29.8 26.75L29.75 26.95L29.4 27.95L28.65 30.15L24.55 30.15L23.85 27.95L23.55 26.95M18.85,27.9L17.95 30.25L13.9 30.1L13.3 27.9L13 26.9L12.95 26.7L14.1 26.7L14.9 29.45L17.4 29.5L18.4 26.85L19.25 26.9L19.25 26.95L18.85 27.9M9.05,26.9L6.25 28.25L3.35 25.35L4.9 22.45L5.05 22.15L5.9 23L4.6 25.55L6.3 27.3L8.9 26.05L9.5 26.7L9.05 26.9M7.4,13L7.25 13.45L7.05 13.9L6.95 14.1L6.9 14.1L4.1 13.75L3.1 15.95L5.15 17.95L4.75 18.75L4.25 18.25L2.2 16.25L3.9 12.55L6.45 12.9L7.4 13M16.9,23.1L16.55 23.45L15.6 24.1L15.15 24.3L13 24.7L12.55 24.7L12.05 24.65L11.05 24.4L10.7 24.25Q9.65 23.8 8.85 22.95L8.65 22.75L8.35 22.35L7.7 21.3L7.5 20.85Q7.2 19.95 7.2 18.9L7.25 18.25L7.3 17.85L7.15 17.9Q7.25 17.3 7.5 16.75L7.55 16.8L7.8 16.25L8.85 14.75L9.05 14.6L9.25 14.4L9.7 14.05L9.65 14Q10 13.7 10.45 13.5L10.45 13.65L10.85 13.5L13 13.1L13.4 13.15L13.95 13.2L13.95 13.05L15 13.35L14.95 13.4L15.4 13.6L17.05 14.75L17.45 15.15L17.7 15.5L17.75 15.45L18.2 16.25L18.15 16.25L18.4 16.7L18.8 18.75L18.8 18.9L18.8 19.2L18.75 19.65L18.55 20.6L18.4 21.05L17.05 22.95L16.9 23.1" />
</g>
</svg>
