<?xml version="1.0" encoding="utf-8"?>
<svg version="1.1" id="Layer_1"
xmlns="http://www.w3.org/2000/svg"
xmlns:xlink="http://www.w3.org/1999/xlink"
width="63px" height="31px"
xml:space="preserve">
<g id="383" transform="matrix(1, 0, 0, 1, -66.1, 12.05)">
<path style="fill:#0B0B0B;fill-opacity:0.8" d="M77.85,-3.5Q78.6 -5.25 82.8 -5.25L86.25 -4.55Q86.8 -4.55 88.05 -5.1L90.55 -5.65Q91.85 -4.5 91.85 -3.9L91.5 -3.2L90.9 -2.35Q90.75 -2.15 90.85 -1.6L90.95 -0.9Q89.25 8.3 87.55 8.3Q87 8.3 86.6 7.6L86.3 6.9L84.95 7.2Q84.2 7.2 83.5 6.2L82.8 5.15L78.45 4Q77.8 3.55 77.8 -0.35L77.85 -3.5M89.5,18.05Q88.1 18.05 87 16.9Q85.95 15.85 84.05 16.05Q83.3 15.7 83.3 14.9Q83.3 11.95 89.2 12.55Q95.05 13.15 95.05 15.25Q95.05 17.1 91.7 17.1L90.95 17.6L89.5 18.05M73.7,4.55L73.75 5.25Q75.3 5.1 76.9 6.2Q78.35 7.15 78.35 8Q78.35 8.65 77.9 9.1L76.3 10.5L78.6 12.05L78.45 13.6L80.5 15.75Q80.5 16.35 79.4 16.35Q77.7 16.35 76.05 15.6Q74.7 14.85 74.45 14.85L72.6 15.2L71.4 15.65L69.65 15.65L68.25 14.9Q67.3 14.3 67.3 13.85Q67.3 13.6 68.15 13.05L69 12.55L69.1 12.5L68.15 12.25L68.1 11.8Q68.1 11.2 69 10.55L69 10.5L67.25 10.75L66.25 10.7Q66.1 10.9 66.1 10.4L67.6 8.8L69.7 6.7Q70.45 5.8 70.7 4.45Q71.15 3.5 73.75 3.15L73.7 4.55" />
<path style="fill:#0B0B0B;fill-opacity:0.6" d="M97.05,-3Q97.55 -2.9 97.7 -2.6L97.25 -2.45L98.25 -2.2L101.35 -2.6Q104.7 -2.6 107.25 -0.9Q109.3 0.45 109.3 1.4Q109.3 3.6 104.5 3.6Q102.35 3.6 101.85 3L101.15 2.4Q99.85 2.4 99.4 2.75L98.35 3.1Q97.1 3.1 96.3 1.45L95.75 -0.25L96.25 -1.7L97.05 -3M118.4,-7Q115.1 -7 113.3 -8.65Q112.05 -9.8 112.05 -10.85Q112.05 -11.9 113.95 -12.05L117.8 -12.05Q119.2 -12.05 120.15 -11.25Q120.9 -10.6 120.9 -10.05Q120.9 -9.45 120.25 -8.35Q119.45 -7 118.4 -7M114.7,-3.95Q114.7 -5.7 117.8 -5.55Q120.9 -5.45 120.9 -4.2L119.9 -3.1L118.7 -2.4Q118.1 -2.4 116.4 -3.05Q114.7 -3.7 114.7 -3.95M126.35,9.5L126.4 8.8L128.85 9L129.1 9.7Q129.1 10.2 128.7 10.55L127.75 10.85Q126.75 10.85 126.45 10.2L126.35 9.5M117.05,5.75Q117.05 6.4 116.4 6.9Q115.65 7.45 114.4 7.45Q112 7.45 110.6 6.5Q109.55 5.8 109.55 5.1Q109.55 3.85 113.3 3.65Q117.05 3.45 117.05 5.75M110.05,14.95Q110.05 12.45 113.45 13.9Q115.15 14.65 116.85 15.9Q116.85 16.3 115.8 16.8Q114.75 17.35 113.6 17.45L112.2 17.45L110.35 16.1Q110.05 15.85 110.05 14.95" />
</g>
</svg>
