<?xml version="1.0" encoding="utf-8"?>
<svg version="1.1" id="Layer_1"
xmlns="http://www.w3.org/2000/svg"
xmlns:xlink="http://www.w3.org/1999/xlink"
width="23px" height="15px"
xml:space="preserve">
<g id="677" transform="matrix(1, 0, 0, 1, 1.55, -7.7)">
<path style="fill:#000000;fill-opacity:0.498039" d="M17.25,21.6L9.85 22.15L2.35 21.6Q-0.7 21.05 -0.7 20.3Q-0.7 19.55 2.35 19L9.85 18.45L17.25 19Q20.35 19.55 20.35 20.3Q20.35 21.05 17.25 21.6" />
<path style="fill:#000000;fill-opacity:1" d="M20.45,21.1Q19.1 22.4 17.45 20.65L17.1 20.3L17.1 20.7L17.3 21.6L17.25 21.85L13 21.95L13.05 22.05Q10.4 22.95 7.85 22.05L7.45 21.6L3.75 21.55Q1.55 21.4 -0.6 21.55L-1.5 21.25L-1.55 20.9L-1.55 20.65L-1.55 20.6L-1.5 20.55L-1.45 20.45L-1.3 20.4L-1.05 20.6L10.45 19.95L9.55 18.9Q8.65 17.6 9.45 16.2L8.8 15L8.8 14.95L8.15 14.5L8.65 14.6L8.55 14.2L7.7 13.55L7.35 13.25L1.6 15.1L1.55 15.6Q0.4 16.45 -0.3 15.4Q-0.85 14.55 -0.15 13.95L0.35 13.65L0.8 13.65L1.3 13.45Q3.1 13.05 4.65 12.25Q2.5 11.5 3.05 9.55L3.25 8.65Q3.6 7.95 4.4 7.8Q5.8 7.5 6.8 8.35Q7.6 9 7.5 9.8L8 9.95L8.2 10L9.05 10.2L10.8 10.45L10.85 10.4L12 10.5Q12.55 10.7 12.9 11.1L13.15 11.25L13.3 11.45L13.65 12.15L14.1 12.9L14.15 13.1L14.05 13.2L13.9 13.5Q17.9 15.45 20.65 18.8Q21.65 20 20.45 21.1M12.15,17.5L12.1 17.65L13.05 19.35L13.3 19.75L14.5 19.65L15.85 19.7L16.7 19.85Q14.75 17.85 12.6 16.2L12.15 17.5" />
</g>
</svg>
