<?xml version="1.0" encoding="utf-8"?>
<svg version="1.1" id="Layer_1"
xmlns="http://www.w3.org/2000/svg"
xmlns:xlink="http://www.w3.org/1999/xlink"
width="11px" height="6px"
xml:space="preserve">
<g id="648" transform="matrix(1, 0, 0, 1, 3.9, 8.6)">
<path style="fill:#000000;fill-opacity:1" d="M6.15,-7L6.05 -7.05L1.5 -5.5L0.9 -5.3L-0.45 -6.1L-1.65 -7L-1.85 -6.65L-1.95 -6.4L-1.05 -5.65L0.15 -4.35L0.55 -4.3L0.8 -4.1L1.7 -4Q2.45 -4.2 4.35 -5.1L6.45 -6.35Q6.5 -6.75 6.15 -7M6.85,-6.25Q6.8 -5.75 4.85 -4.85L1.75 -3.5L0.7 -3.65L-1.1 -4.9L-1.75 -5.5L-2.45 -6.25L-2.45 -6.3L-3.15 -6.6L-3.8 -7.1L-3.9 -8.05L-3.85 -8.45L-3.4 -8.6Q-3.15 -8.45 -2.9 -8.4L-2.3 -8.25L-1.6 -7.75L-1.5 -7.4L0.85 -5.85L1.55 -5.85L3.55 -6.5L6 -7.4L6.05 -7.5L6.5 -7.45L6.85 -6.25M-3.55,-7.75L-3.25 -7.2L-3.1 -7.05Q-2.8 -6.75 -2.5 -6.7L-2.15 -7L-1.95 -7.35L-2.5 -7.8L-2.95 -8L-3.4 -8.15L-3.55 -7.75" />
<path style="fill:#191919;fill-opacity:1" d="M6.45,-6.35L4.35 -5.1Q2.45 -4.2 1.7 -4L0.8 -4.1L0.55 -4.3L0.15 -4.35L-1.05 -5.65L-1.95 -6.4L-1.85 -6.65L-1.65 -7L-0.45 -6.1L0.9 -5.3L1.5 -5.5L6.05 -7.05L6.15 -7Q6.5 -6.75 6.45 -6.35M-3.4,-8.15L-2.95 -8L-2.5 -7.8L-1.95 -7.35L-2.15 -7L-2.5 -6.7Q-2.8 -6.75 -3.1 -7.05L-3.25 -7.2L-3.55 -7.75L-3.4 -8.15" />
</g>
</svg>
