<?xml version="1.0" encoding="utf-8"?>
<svg version="1.1" id="Layer_1"
xmlns="http://www.w3.org/2000/svg"
xmlns:xlink="http://www.w3.org/1999/xlink"
width="16px" height="12px"
xml:space="preserve">
<g id="539" transform="matrix(1, 0, 0, 1, 2.8, 15.1)">
<path style="fill:#000000;fill-opacity:1" d="M4.25,-14.6L5.3 -12.6L4.7 -12L5.4 -10.85L5.15 -10.55L6.35 -9L6.85 -8.2L7.35 -7.75L7.7 -8.2Q8.15 -8.65 8.5 -8.65Q9.3 -8.65 11.15 -7.75L12.15 -7.2L12.95 -6.45Q12.95 -5.9 11.65 -4.85Q10.3 -3.75 9.4 -3.75L6.6 -4.5L5.85 -4L4.95 -4.25Q4.75 -4.35 4.65 -4.4Q3.9 -3.85 3.55 -3.85Q3.3 -3.85 2.15 -5.8L0.8 -8.15L0.2 -7.75Q-0.1 -7.75 -0.7 -8.85L-0.95 -8.8L-1.35 -8.7L-2.15 -9.85L-2.8 -11.05L-2.2 -11.7L-1.3 -12.2L-0.75 -11.6L-0.35 -10.85L0.65 -11.45L1.05 -11Q1.5 -11.45 2.1 -11.6L1.9 -12.15L2.3 -12.7L2.75 -12.95Q2.2 -13.65 2.2 -14.25Q2.2 -14.55 3.3 -14.95L3.95 -15L4.25 -14.6" />
</g>
</svg>
