<?xml version="1.0" encoding="utf-8"?>
<svg version="1.1" id="Layer_1"
xmlns="http://www.w3.org/2000/svg"
xmlns:xlink="http://www.w3.org/1999/xlink"
width="30px" height="9px"
xml:space="preserve">
<g id="629" transform="matrix(1, 0, 0, 1, 48.35, -17.55)">
<path style="fill:#000000;fill-opacity:0.498039" d="M-23.5,25.15L-33.75 25.65L-44.15 25.15Q-48.35 24.65 -48.35 23.95Q-48.35 23.55 -47 23.25L-44.15 22.75L-39.6 22.4Q-36.9 22.25 -31.75 22.4L-25.45 22.6L-21.7 22.95Q-19.1 23.25 -19.1 23.95Q-19.1 24.65 -23.5 25.15" />
<path style="fill:#000000;fill-opacity:1" d="M-36.1,18.8L-35.9 18.4Q-35.5 17.8 -34.8 17.55Q-32.7 17.35 -32 19.35L-31.8 20.35L-25.95 21.2L-22.8 21.2Q-21.55 21.05 -20.75 22.3L-19.25 23.85Q-19.15 24.5 -19.8 25L-20.45 25.3Q-21.5 25.55 -22.2 24.9L-22.7 24.4L-22.75 24.35L-30.25 24.55L-30.35 25.15Q-33.2 25.4 -35.75 24.15L-36.75 23.95L-38.4 23.95Q-38.35 25.2 -40.25 25.4Q-41.7 25.55 -42.5 24.8Q-43.15 25.6 -44.7 25.4L-47.6 25.2L-48.05 23.75Q-48.25 21.85 -46.8 20.75L-45.35 20.1L-44.8 20.15L-44.8 20.05L-44.9 18.6Q-45 18.2 -44.65 18.15L-44.1 18.2L-43.85 18.25L-43.65 19L-43.55 20.4L-43.55 20.45Q-43 20.7 -42.65 21.1L-42.5 21L-41.85 20.65L-41.85 20.6L-41.9 18.95L-41.8 18.9L-41.75 18.95L-41.75 18.5L-41.7 18.45Q-41.15 19.2 -40.95 20.2L-39.45 19.5L-41.25 18.8L-41.25 18.6L-41.2 18.45L-41.2 18.35L-41.15 18.3L-41.1 18.2L-41 18.15L-40.9 18.15L-38.65 18.65L-37.7 18.9L-37.15 18.75L-36.1 18.8M-32.5,20.75L-32.55 20.75L-32.6 20.95L-32.5 20.75" />
</g>
</svg>
