<?xml version="1.0" encoding="utf-8"?>
<svg version="1.1" id="Layer_1"
xmlns="http://www.w3.org/2000/svg"
xmlns:xlink="http://www.w3.org/1999/xlink"
width="15px" height="26px"
xml:space="preserve">
<g id="575" transform="matrix(1, 0, 0, 1, -0.6, -0.2)">
<path style="fill:#000000;fill-opacity:1" d="M11.5,6.15L11.2 6.65L11 7L11.05 7.15L11.15 7.2L11.35 7.3Q14.4 9.05 15.1 12.35Q16.05 16.5 11.9 16.25L11.55 16.15L11.35 15.1L11.3 13.85Q11.35 13.1 12.1 12.9L11.6 11.85L11.2 11.1L11.15 11.3Q10.45 12.95 10.15 14.7L10.1 14.95L11.7 17.9L12.7 20.65L12.85 20.55L12.9 20.7L12.9 20.95L12.85 21.1Q13.7 21.9 13.85 22.6Q14 23.1 13.75 23.55L13.55 23.85L13.6 23.75L13.5 23.8L13 24.15L13.5 23.9L12.85 24.4Q11 25.5 9.2 24.6Q9.65 22.7 8.9 21L7.4 17.6L6.85 19.15Q6.55 20.05 6.55 21.1L6.55 24.5Q4.05 25.8 1.35 25.15Q0.95 24 1.9 23.35L3.55 22.3Q3.75 21.1 3.45 20.05L2.5 17.7L2.45 17.5L3.65 16.1L4.4 15.25L4.2 15.2L4.1 13.35Q4 14.05 3.5 14.7Q2.5 16.15 0.8 15L0.6 14.85L0.75 13.35Q0.9 12.6 1.35 11.95Q1.1 11.35 1.3 10.45L1.8 8.95L1.65 8.3Q1.6 7.6 2.15 7.15Q3 6.5 4 6.2L4.7 6.25L4.95 6.45L4.85 6.5L5.25 6.55L5.3 6.6L5.45 8L5.75 9.75L5.75 9.95L5.9 9.5L5.9 9.1L6.05 9.05L6.6 8.85L7 7.95Q7.15 7.3 7.65 6.75L7.8 6.55L7.85 6.35L7.65 6.15Q7 5.6 7 5.15Q6.95 4.3 7.35 3.8L7.1 3.6L6.95 3.2Q6.95 2.15 7.9 1.35Q8.8 0.6 9.8 0.25Q12.2 -0.05 12.55 2Q12.75 2.95 12.6 3.85L12.75 3.8L13.75 3.5Q14.1 3.65 13.9 4L13.65 4.55L13.6 4.65L12.05 5.25L12 5.35L11.9 5.5L11.5 6.15" />
<path style="fill:#7E0000;fill-opacity:1" d="M6.35,5.5L6.65 8.4L6.6 8.5L6.15 7.7L6.1 8.15L6 8.3L4.9 5.9L3.7 2.8L3.8 2.75Q4.85 3.75 5.55 5.2Q5.45 3.95 5.75 2.8L5.8 2.75L6.35 5.5" />
</g>
</svg>
