<?xml version="1.0" encoding="utf-8"?>
<svg version="1.1" id="Layer_1"
xmlns="http://www.w3.org/2000/svg"
xmlns:xlink="http://www.w3.org/1999/xlink"
width="14px" height="22px"
xml:space="preserve">
<g id="877" transform="matrix(1, 0, 0, 1, -0.55, -4.05)">
<path style="fill:#000000;fill-opacity:1" d="M11.75,5.1Q12.55 4.95 13.05 5.6Q13.65 6.4 13.8 7.35L14.1 9.15L14.15 9.65L14.2 9.9Q14.3 10.55 13.95 11.05L12.9 11.1L12.65 11.05L11.15 10.85L10.5 10.7L10.45 10.9L10.45 10.95Q10.3 11.15 10.3 11.45L10.25 12.1L10.15 12.8L9.95 13.35L10 13.4L10.05 13.55L10.05 13.6L10.05 13.75L10.05 14L10.05 14.1L10.05 14.25L9.95 14.35L9.8 14.45L9.75 14.45L9.05 14.6Q9.75 16.1 10.85 17.3Q11.8 18.3 11.05 19.55Q10.45 20.6 10.25 21.8L10.35 22.1Q11.3 23.35 10.25 24.2Q9.95 24.45 9.5 24.2Q8.45 23.65 7.8 22.6L7.75 22.35Q7.65 21.8 7.95 21.3L8.55 20Q8.75 19.35 8.45 18.75L8.15 18.15L8.05 18.1L8 18.05L7.95 18L7.95 17.9L7.9 17.85L7.6 17.65L7.5 17.55L7.15 17.2L6.75 16.95L6.7 17L6.25 17.5L5.8 18.05L5.55 18.35Q5.65 19.45 6.25 20.4Q6.9 21.5 6.95 22.8L6.5 24.05L5.3 25.3L4.6 25.55L4.6 25.6L4.6 25.55L4.55 25.55L4.4 25L4.35 24.95Q4.1 24.4 4.45 24.05L4.65 23.65L4.85 23.4L5.05 23.1L4.3 21.65L3.2 19.55L2.8 18Q2.75 17.4 3 16.8L3.4 16L4.35 15.2Q5.15 14.6 4.85 13.55L4.55 12.15L4.5 11.05L4.5 10.9Q3.6 10.2 2.5 10Q0.6 9.6 0.55 8.05L0.65 6.5L0.75 6.2L0.75 6.1L0.6 5.5L0.7 4.85L1.15 4.15L1.4 4.05L2.05 4.1L2.35 4.2L2.55 4.4L2.2 5.7Q1.9 6.75 2.2 7.7L2.4 7.85L4.75 8.55L5.75 8.8L5.75 8.45L5.25 7.2Q4.9 6.3 5.8 5.7Q6.55 5.2 7.4 4.9L7.75 4.85L8.8 5L8.9 5L9.05 5.15L9.45 5.5L10.05 6.45Q10.2 7.1 9.95 7.75L9.15 8.95L9.4 9L9.55 8.95L12 8.8L12 8.6L12 8.5L11.8 7.7L11.7 6.7L11.55 5.6Q11.5 5.3 11.75 5.1" />
</g>
</svg>
