<?xml version="1.0" encoding="utf-8"?>
<svg version="1.1" id="Layer_1"
xmlns="http://www.w3.org/2000/svg"
xmlns:xlink="http://www.w3.org/1999/xlink"
width="65px" height="30px"
xml:space="preserve">
<g id="1226" transform="matrix(1, 0, 0, 1, 38.65, 12.2)">
<path style="fill:#C9EBFF;fill-opacity:0.988235" d="M18,-6.95L17.7 -6.15L16.9 -5.3Q17 -5.1 17.6 -4.75L18.25 -4.1L18.55 -3.35L18.85 -2.85L18.6 -2.2Q18.3 -1.8 17.75 -1.75L18.05 -0.9Q18.05 -0.25 17.35 -0.15Q16.9 -0.25 17 -0.55L17.15 -1.05L16.55 -1.75Q16.55 -2.05 16.85 -2.15Q17.45 -2.35 18.05 -2.75Q17.6 -3.95 16.85 -4.45Q16.2 -4.8 16.2 -5.3L16.75 -6.15L17.35 -7.05L17.1 -7.2L16.05 -7.2Q14.55 -6.6 14.3 -5.5Q14.2 -4.2 13.9 -3.55L13.1 -1.6Q12.6 -0.5 11.85 0.1L11.65 0.05Q11.7 -0.75 12.25 -2.1L13.25 -4.2L13.9 -6.95Q14.4 -8.35 16 -7.85L17.6 -7.6L18 -6.95M19.95,-2.45Q19.95 -2.65 20.55 -2.85Q21.25 -3.1 21.85 -2.6Q22.2 -2.15 22.05 -1.25L22.05 -1.15L22.65 -1.25Q23.55 -1.25 24.15 -0.65L24.15 -2.4Q25.15 -2.4 25.75 -2L25.75 -1.9L24.65 -1.95L24.6 -1.2Q24.6 -0.45 24.85 -0.2L24.65 -0.05L24.9 0.5L24.85 0.8L24.6 0.85L23.4 -0.05Q22.45 -0.65 21.5 -0.4L21.1 -0.75L21.3 -1.25L21.45 -1.75L21.4 -2.25L21.3 -2.25L21.3 -2.35L21.15 -2.4L20.25 -2.25L20 -2.3L19.95 -2.45M21.45,3.8Q21.45 3.45 21.8 3.15L23 3.25L23.05 3.3L22.2 3.8L22.4 4.4Q22.4 6.6 20.45 6.6Q20.2 6.6 20.1 6.4L20.05 6.2Q20.05 5.8 21.65 5.45L21.8 4.45L21.45 3.8M23.65,3.8L23.4 3.85Q24.35 3.1 24.4 3.95L24.3 5L24.5 5.3L24.95 5.9L24.65 6Q23.6 6 23.6 5.1L23.85 3.95Q23.85 3.8 23.65 3.8M12.35,4L11.8 3.5Q12.55 3.15 12.85 4.25Q13.05 5.1 12.9 6.45Q12.9 7.15 13.6 7.4Q14.45 7.7 14.7 8.1L15.15 9.1Q15.5 9.8 16.05 10L15.95 9.4L16.45 8.3L16.3 7.9L16.1 7.5Q16.1 6.75 16.9 6.75L17.45 6.95L17.8 7.3L17.5 7.45L17.1 7.3L16.75 7.15L16.5 7.25L16.4 7.5L16.75 8.4L16.3 9.45Q16.3 10 16.65 10.35L15.9 10.5Q15.4 10.5 14.9 9.75L14.2 8.65L12.95 7.8Q12.3 7.5 12.3 7.05L12.5 4.65L12.35 4M20.05,6.45Q19.75 6.8 19.8 7.1L19.95 7.35L19.55 7.8L18.7 7.9L18.5 7.85L19.45 7.5L19.65 6.3L20.05 6.45M-34,-11.05L-34.15 -10.6L-33.7 -10.65Q-32.95 -10.65 -32.85 -9.75L-32.9 -8.75L-32.2 -8.2L-31.35 -7.85L-31.3 -7.65L-31.3 -7.55L-31.5 -7.5Q-32.9 -7.5 -33.15 -8.6L-33.2 -10.25L-34.4 -10.15L-34.55 -9.9L-35.1 -8.9L-34.55 -8.55Q-34 -8.35 -34 -8.15L-34.15 -7.65L-34.3 -7.6Q-34.5 -7.6 -34.55 -7.7L-34.55 -8.05Q-35.25 -8.1 -35.45 -8.4L-35.5 -8.95L-34.95 -10.1L-34.4 -11.1L-34.55 -11.4L-34.85 -11.7L-35.65 -11.7Q-36.05 -11.75 -36.45 -11.25L-36.8 -10.7L-36.45 -9.9Q-36.1 -9.5 -36.1 -9.1Q-36.1 -8.6 -36.85 -7.1L-37.5 -5.3L-37.7 -5.25L-37.75 -5.25L-37.85 -5.45L-37.15 -7.25Q-36.5 -8.5 -36.5 -8.95L-36.85 -9.65L-37.2 -10.7Q-37.2 -12.15 -34.7 -12.2L-34.05 -11.55L-34 -11.05M-21.4,-10.65Q-21.95 -10.65 -22.4 -11.1L-22.95 -10.1L-22.65 -9.15Q-22.65 -8.25 -23.4 -8.25L-23.8 -8.5L-23.3 -8.75Q-23.1 -8.9 -23.1 -9.2L-23.3 -10.05Q-23.3 -11.7 -22.35 -11.55L-20.85 -11.05Q-20.95 -10.65 -21.4 -10.65M-23.6,11.8Q-23.6 12.25 -24.6 12.7Q-25.6 13.1 -25.6 14L-25.2 14.75L-24.85 15.5L-25.7 16.55Q-26.6 17.4 -27.05 17.55L-27.65 17.55L-27.75 17.25L-27.65 17.2L-27.2 16.85L-29.15 16.3Q-29.55 16.1 -29.55 15.55L-29.25 14.9L-28.55 14.35L-28.45 14.55Q-28.45 14.95 -29.1 15.6Q-28.8 16.1 -26.85 16.4L-26.65 16.85L-25.8 16.25L-25.4 15.4L-26.15 13.95Q-26.15 13.4 -25.25 12.6L-23.8 11.3L-23.6 11.8M-35.8,1.3Q-35.45 1.45 -35.45 1.95L-35.95 2.95L-35.45 4.05L-35 4.8Q-35 5.85 -36.65 6.3Q-38.3 6.75 -38.3 7.3L-37.9 7.8Q-37.55 8.25 -37.55 8.55L-37.6 8.65L-38.35 8L-38.65 7.35Q-38.65 6.95 -38.25 6.65Q-37.7 6.3 -36.05 5.9L-35.4 4.9L-35.85 4.05L-36.35 3.05L-36.15 2.35L-35.95 1.5L-35.9 1.3L-35.8 1.3" />
</g>
</svg>
