<?xml version="1.0" encoding="utf-8"?>
<svg version="1.1" id="Layer_1"
xmlns="http://www.w3.org/2000/svg"
xmlns:xlink="http://www.w3.org/1999/xlink"
width="39px" height="42px"
xml:space="preserve">
<g id="1579" transform="matrix(1, 0, 0, 1, -4.3, -1)">
<path style="fill:#FF0100;fill-opacity:1" d="M41.9,22.8L41.55 22.75L39.45 22.65L42.05 22.7Q42.95 22.35 42.95 21.15L43.05 21.15Q43.5 22.85 41.9 22.8M37.95,12.25L38.35 12.55L35.1 12.05Q34.65 12 35 11.9L37.95 12.25M20.7,1Q21.45 1.9 22.9 2Q23.25 2 23.35 2.35L23.3 2.9Q22.9 1.85 21.5 1.8Q20.4 1.75 20.7 1M23.55,21.25Q22.3 21.2 21.15 21.8L20.4 22Q20.5 21.55 21 21.35Q21.6 21.1 22.25 21Q23.05 20.75 23.55 21.25M24.4,21.45L24.7 21.4Q25.7 21.4 26.1 22.15L24.35 21.55L24.4 21.45M32.9,21.55Q32.95 22.4 32.3 23Q31.95 23.35 31.55 23.3Q32.75 22.3 32.55 20.85Q32.45 20.35 31.95 20.1Q30.8 19.65 30.5 18.85Q32.8 19.55 32.9 21.55M6.3,7.65Q9.35 7.65 10.35 4.95Q10.35 6.35 8.95 7.25L8 7.7L6.3 7.65M5.05,23Q4.05 24.6 5.8 25.8Q3.65 25.1 4.6 23.05Q5.35 21.4 6.35 20Q6.05 21.45 5.05 23M14.25,14.15Q14.65 14.45 13.75 15.05L12.5 16L12.35 16Q12.9 14.95 14.05 14.25L14.25 14.15M18.8,29.25Q19.2 30.05 18.6 30.85L18.55 30.85L18.75 29.3L18.8 29.25M15.05,34.85Q16.6 34.9 17.95 34.3L18.9 33.25Q18.9 35.25 16.5 35.15L15.1 34.9L15.05 34.85M11.45,38.45L11.4 38.45L13.2 37.2Q12.8 38.3 11.45 38.45M38,27.7L38.2 27.85L38.25 27.9Q37.25 28.45 36.85 29.65L36.85 29.75Q38.4 30.75 37.15 31.7L37.1 31.75Q37.8 30.65 36.65 29.65L36.6 29.35Q37 28.3 38 27.7M26.2,41.85Q25.2 42.55 24.1 42.7Q27.45 41.45 27.8 38.25L27.9 38.15Q28.35 40.35 26.2 41.85" />
</g>
</svg>
