<?xml version="1.0" encoding="utf-8"?>
<svg version="1.1" id="Layer_1"
xmlns="http://www.w3.org/2000/svg"
xmlns:xlink="http://www.w3.org/1999/xlink"
width="19px" height="29px"
xml:space="preserve">
<g id="1018" transform="matrix(1, 0, 0, 1, 0.15, -1.05)">
<path style="fill:#D9E9FF;fill-opacity:1" d="M16.3,4.05Q16.65 4.2 16.6 4.7Q17.4 4.75 17.7 5.4Q16.65 5.5 16.2 4.65Q15.5 4.9 15 5.6L15.3 5.7L14.55 5.8Q15.05 4.7 16.25 4.1L16.3 4.05M11.75,1.1Q12.3 2.9 10.35 3.95L10.35 4Q12.3 6.1 9.35 6.35Q10.15 7.3 9.65 8.15Q8.95 7 9.35 6Q9.45 5.75 9.8 5.75L10.85 5.5Q9.05 3.75 11.25 2.35Q11.55 2.15 11.5 1.75Q11.5 1.3 11.75 1.1M14.85,7.6Q13.4 8.75 14.85 9.35L14.85 9.4Q15.45 8.75 15 7.85L14.85 7.6M15.15,7.2L15.5 7.8Q15.8 8.65 15.4 9.5L15.3 9.75Q14.4 9.9 13.9 9.1Q13.45 8.3 14.3 7.65Q12.65 7.05 10.55 7.6L11.15 8.55Q11.45 9.6 11.1 10.5L11.1 10.7Q9.9 10.4 10.75 9.1Q10.9 8.9 10.65 8.6Q9.3 7.15 11.35 6.9L15.05 7.15L15.15 7.2M12.4,11.75Q13.25 12.35 13.35 13.5L13.35 13.55Q14.75 13.25 15 14.85Q15.05 15.15 15.45 15.2L17.95 14.9L18.25 14.9Q18.75 15 18.85 15.4L17.3 15.55Q14.45 16.6 14.15 13.85Q12.7 14.1 12.45 12.4L12.35 12.25L11.15 14.55L10.85 14.7L12.05 12.05Q12.15 11.8 12.4 11.75M6.45,6.05L4.3 6.25L3.25 6.05L3 5.2L2.8 4.65L2.75 4.45Q0.85 4.6 1.4 2.9L1.6 2.25Q1.85 1.35 2.7 1.05Q4.45 1.9 6.15 1.6Q7.85 1.25 8.7 2.45Q7.35 1.8 6.05 2.2Q4.75 2.65 3.65 1.9L2.5 1.95Q1.85 2.7 1.75 3.7L1.8 4Q3.1 3.6 3.45 4.75L3.6 5.6L6.25 5.85L6.45 6.05M2.6,8.6L2.65 8.65Q5.2 8.4 4.45 11.05L4.4 11.15Q5.5 11.35 6.5 11.95Q7.6 10.6 9.15 10.4Q8.7 11.3 7.55 11.8Q6.95 12.05 6.7 12.6L6.4 12.8Q5.6 11.6 4.05 11.2L4.05 11Q4.75 8.65 2.35 9Q2.15 8.65 2.3 8.3Q2.35 8.2 2.45 8.2L2.6 8.6M8.55,17.75Q9.35 17.95 9.15 18.7Q7.3 18 6.45 16.2Q5.85 14.95 4.45 14.75Q3.6 14.6 3.65 13.6Q2.85 14.1 2.3 15.05L1.85 15.45Q2.05 14.5 2.8 13.7L3.5 13.15Q4.15 13.6 4.5 14.45L4.55 14.45Q6.9 14.85 7.8 17.05Q8 17.55 8.55 17.75M0.7,24.15Q1.05 24.3 0.95 24.8L0.95 24.85Q2.7 24.9 2 26.7L2.05 26.75L3.65 26.85Q1.6 27.9 1.8 26.25Q1.9 25.7 1.5 25.2L0.65 25.2L0.55 24.8L-0.05 25.55L-0.1 25.55Q-0.25 24.9 0.45 24.25L0.7 24.15M2.65,18.65Q3.05 17.9 4.1 18Q4.95 19.75 6.85 19.75L6.9 19.8Q4.9 20.8 4.15 18.85Q3.85 18.1 3.3 18.65L3.4 18.7L3.25 18.75L3.1 18.65L2.65 18.7L2.65 18.65M7.8,21.5Q8.5 21.75 8.95 22.35L9.35 22.85Q8.95 23.7 8.1 23.95Q7.35 24.2 6.95 23.55L5.95 24.6Q5.4 25.15 4.8 25.2L5.85 24.15L6.8 23.05L8.5 23.15Q8.9 22.8 8.7 22.2Q6.75 22.5 6.3 20.95Q6.2 20.7 6.45 20.65L9.45 21.25L7.8 21.5M11.9,17.3Q11.2 17.8 11.1 18.6L11.15 19.1Q10.2 18.4 11.2 17.3L11.75 16.75L13 17.25L13.05 17.25Q13.1 18.3 14.45 18.65L14.85 18.1Q15.05 17.75 15.35 18Q14.9 19.75 13.2 18.75Q12.5 18.3 12.55 17.5L11.9 17.3M13.25,24.2Q13.6 24.65 13.2 25.05L12.2 25.2Q11.75 24.95 11.6 25.35Q12.6 25.75 12.35 26.75L12.05 27.2Q13.9 27.95 13.65 29.45Q13.65 29.65 13.35 29.6Q12.8 29.45 12.8 29L13.5 29Q12.3 28.15 11.7 27.05Q11.6 26.9 11.8 26.7L12 26.2Q10.5 25.45 11.75 24.85L13 24.8Q12.2 23.5 12.65 22.25Q12.8 21.8 13.4 21.75Q14.35 21.6 14.95 21Q15.2 21.9 13.7 22.25Q12 22.6 13.25 24.2M17.55,28.3Q18.35 28.75 17.25 28.45L16.9 28.05Q16.85 27.65 16.6 27.4L15.25 27.7Q15.3 27.35 15.7 27.15L16.15 26.95Q17.3 27.05 17.55 28.3M9.9,25.45Q9.8 27.05 8.1 27Q7.7 27 7.45 26.7L7.45 26.65Q9 27 9.9 25.45" />
</g>
</svg>
