<?xml version="1.0" encoding="utf-8"?>
<svg version="1.1" id="Layer_1"
xmlns="http://www.w3.org/2000/svg"
xmlns:xlink="http://www.w3.org/1999/xlink"
width="119px" height="58px"
xml:space="preserve">
<g id="371" transform="matrix(1, 0, 0, 1, 5.85, 17.75)">
<path style="fill:#3A231C;fill-opacity:1" d="M8.65,-5.8Q7.15 -9.15 5.6 -11.5Q3.45 -14.7 0.4 -17.35L0.5 -17.75Q2.55 -16.6 5.3 -13.1L9.3 -8.15L20.4 1.85Q15.6 4.9 13.75 11Q11.2 19.2 10.1 20.85L9.8 20.7L9.75 20.15Q9.75 19.15 11.3 14.25Q12.8 9.35 12.8 5.75Q12.8 3.4 11.35 -0.05L8.65 -5.8M68.35,-12.85L66.25 -13L65.6 -13.35Q66.55 -15.05 67.85 -15.35Q69.3 -15.65 69.8 -13.6Q68.45 -12.85 68.35 -12.85M66.15,-7Q65.4 -7.1 65.3 -7.35L65 -8L61.55 -8.15L61.4 -8.3L61.35 -8.75Q61.35 -9.8 63.05 -10.2L71.8 -10.85L71.75 -9.85L72.15 -8.95L72.55 -8.1Q72.55 -7.2 72.25 -6.95L70.75 -6.75L66.15 -7M109.5,17.05Q111.5 16.4 113 17.35L112.65 17.95L112.05 18.5L109.55 18.75L107.95 19L107.05 18.9L106.75 18.35L109.5 17.05M88,2.35Q88.2 3.1 87.05 3.3L85.4 3.3L82.85 3.05L82.75 2.45Q82.75 0.9 85.4 0.9Q88 0.95 88 2.35M43.35,16.6L41.05 16.35L39.5 16.25Q39.3 16.55 39.3 15.9Q39.3 15.1 43.6 14.35Q48.15 13.5 49.8 15.15Q49 16.85 45.3 16.85L43.35 16.6M60.25,36.25L68.9 34.75Q70.75 34.05 74.85 35.3Q78.85 36.5 78.85 37.45L78.7 38L78.25 38.25L71.5 38.3L68.85 38.7L63.75 39.05L54.75 39.15L53.9 39.3L52.65 38.95L51.5 38.5Q52.3 37.65 60.25 36.25M12.9,35.25Q23.85 37 25.3 37.75L27.15 37.5Q27.8 37.5 28.3 38L28.4 38.25Q26.8 39.1 21.35 39.1L15.05 38.9L7.05 38.4L1.6 38.75L-3.55 39.1L-5.85 38.75Q-5.6 38.1 -1.65 36.45L3.8 34.15Q5.55 33.35 7.6 31.3Q9.65 29.25 10.8 28.75L11 28.85L11.05 29.25L10.15 30.6Q9.25 31.85 9.25 32.15L9.5 31.9Q9.75 32 9.75 33.55Q11.3 33.5 12.15 34.3L12.9 35.25" />
</g>
</svg>
