<?xml version="1.0" encoding="utf-8"?>
<svg version="1.1" id="Layer_1"
xmlns="http://www.w3.org/2000/svg"
xmlns:xlink="http://www.w3.org/1999/xlink"
width="20px" height="37px"
xml:space="preserve">
<g id="1386" transform="matrix(1, 0, 0, 1, 10.15, 18.1)">
<path style="fill:#FFFFFF;fill-opacity:1" d="M3.85,-17.3Q5.1 -16.65 6.6 -15Q9.2 -12.1 9.2 -7.2Q9.2 -2.4 4.7 1.85Q1.45 4.9 0.9 8.7Q0.85 9.45 0.25 9.45L-3.9 9.45Q-4.6 9.45 -4.6 8.65Q-4.6 2.1 -1.75 -1.45Q1.6 -5.5 1.4 -7.2Q-0.1 -10.7 -2.2 -9.5Q-3.8 -8.6 -4.2 -6.95Q-4.35 -6.3 -4.95 -6.4L-9.7 -6.7Q-10.15 -6.7 -10.15 -7.2Q-10.15 -12 -7.3 -15.05Q-4.4 -18.1 0.2 -18.1Q2.4 -18.1 3.85 -17.3M-4.4,17.75L-4.4 13Q-4.4 12.55 -4 12.55L0.3 12.55Q0.6 12.55 0.6 12.9L0.6 17.75Q0.6 18.15 0.25 18.15L-4 18.15Q-4.4 18.15 -4.4 17.75" />
</g>
</svg>
