<?xml version="1.0" encoding="utf-8"?>
<svg version="1.1" id="Layer_1"
xmlns="http://www.w3.org/2000/svg"
xmlns:xlink="http://www.w3.org/1999/xlink"
width="29px" height="26px"
xml:space="preserve">
<g id="577" transform="matrix(1, 0, 0, 1, 5.8, -0.2)">
<path style="fill:#000000;fill-opacity:0.498039" d="M19.15,23.7Q19.15 24.4 16.8 24.9L11.35 25.4L5.85 24.9Q3.65 24.4 3.65 23.7Q3.65 23.3 4.35 23Q4.9 22.7 5.85 22.5L8.3 22.15L11.35 22L15.7 22.3L16.8 22.5Q19.15 23 19.15 23.7" />
<path style="fill:#000000;fill-opacity:1" d="M20.65,11.55L20.4 11.65L19.9 11.8L19.55 11.8L19.45 11.8L19.4 11.9L19.4 11.95L19.7 12.25L20.35 12.75L20.4 12.8L20.3 12.85Q22.25 15.2 20.5 18.5Q19.25 20.85 17 18.7Q16.55 18.25 16.75 17.6Q17.1 16.65 18.1 16.7L17.95 15L17.85 14.55Q17.3 14.9 16.3 15.25Q14.65 15.85 13.85 14.7Q12.95 15.2 12.2 16L12.5 17.65L13.05 20.1L13.6 22.95L13.8 23.9Q12.85 24.9 11.45 24.5L9.3 24.2Q8.75 23.4 10.05 21.95Q11 21.4 9.95 19.05Q8.85 16.7 8.3 14.65L10.85 12.55Q13 10.55 15.95 9.95L16.8 9.75L17.15 8.5Q17.5 7.8 18.1 7.45L18.05 7.35L18 6.95L18 6.6L18.05 6.55L18.75 6.35L18.9 6.3Q21.75 6.05 22.15 8.65Q22.3 9.8 21.6 10.7L22 11.05L22.8 11.65L22.95 11.75L21 11.85L20.65 11.55M19.5,12.15L19.35 12L19.35 12.05L19.5 12.15M6,15.15Q6.65 16.25 6 17.4L4.35 19.7Q4.45 20.15 4.9 20.4L6.35 21.25L6.75 21.7Q6.7 22.9 5.7 23.4L3.45 24.5Q1.95 25.25 1 24.3Q1.05 23.7 1.5 23.3L2.5 22.4L3.55 21.65L2.65 20.95L2.3 20.75Q1.2 20.8 0.1 19.85L-0.25 19.4L1.15 18.7L1.85 18.35L1.9 18.4L2.9 17.2Q3.25 16.65 3.75 16.15Q3.15 15.45 2.3 15.1Q1.4 14.75 0.65 14.2L0.1 13.8L-1.05 14.7L-2.2 15.7L-2.8 16.4Q-2 19.05 -5 18.25Q-6.1 18 -5.65 16.9L-4.45 15.1L-2.1 12.6L-1.85 12.1L-0.6 11.3L-0.1 11.05Q2.7 12.3 5.15 14.2L6 15.15" />
<path style="fill:#7E0000;fill-opacity:1" d="M15.2,4.75L15.1 4.8L14.75 4.85L14.4 4.6L14.35 4.35L14.4 3.75L14.35 3.05Q13.7 3 13.4 3.8L12.75 5.2L12.6 5.35Q12.15 4.9 12.5 4.2L13.55 2.7Q13.75 2.5 13.95 2.45L14.45 2.45L14.55 2.5L14.9 3.1L15.25 4.15L15.2 4.75M12.1,6.3Q12.35 6.3 12.4 6.5L12.3 6.85L12.2 6.95L12.15 7.6L11.8 8.35L11.6 8.5Q11 8.25 11.3 7.5L11.95 6.4L12.1 6.3M10.5,11.3L9.05 12.8L8.95 12.8Q8.9 11.9 9.6 11L10.85 9.35L10.95 9.3Q11.3 10.2 10.5 11.3M0.1,1.15L-0.1 1.2L-0.6 1.15L-0.65 1.3L-0.7 1.4L-1.05 1.6L-1.4 1.55L-1.5 1.45L-1.65 1.1L-1.55 0.6L-1.15 0.2L-0.35 0.45Q0.1 0.65 0.1 1.1L0.1 1.15M1.5,3.55L1.55 3.5L2.35 4.75L2.6 6.15L2.6 6.25Q1.9 6 1.6 5.15Q1.35 4.3 1.5 3.55M3.85,9.75Q4.35 11.1 4.35 12.45L4.25 12.6L3.15 10.05Q2.6 8.6 2.6 7.25L2.65 7.2L3.85 9.75M-1.55,1.95L-1.45 1.95Q-1.15 1.95 -1.1 2.2L-1.25 2.55L-1.35 2.65L-1.25 3.35Q-1 3.8 -1.25 4.25L-1.45 4.45Q-1.7 4.55 -1.85 4.25L-2.15 3.9L-2.15 3.85L-2 3.15L-1.85 2.35L-1.7 2.1L-1.55 1.95" />
</g>
</svg>
