<?xml version="1.0" encoding="utf-8"?>
<svg version="1.1" id="Layer_1"
xmlns="http://www.w3.org/2000/svg"
xmlns:xlink="http://www.w3.org/1999/xlink"
width="22px" height="23px"
xml:space="preserve">
<g id="547" transform="matrix(1, 0, 0, 1, 7.65, 26.3)">
<path style="fill:#000000;fill-opacity:1" d="M1.45,-13.05L2.05 -13.45L2.4 -13.65Q2.85 -13.9 3.15 -13.35L3.5 -12.8L3.65 -12.85L4.25 -12.65L4.5 -12.5L4.55 -12.55L3.7 -13.3L4.45 -14.7Q5 -14.7 7.4 -12.85L6.9 -11.65L7.4 -10.6L6.95 -10L7.8 -8.75L7.7 -8.65L7.8 -8.55L7.6 -8.4L8.15 -7.75L8.25 -7.8L9.55 -8L9.85 -8L12 -7.3Q13.55 -6.6 13.55 -6.35Q13.55 -5.65 12 -4.65Q10.25 -3.5 8.45 -3.5L7.75 -3.6L7.05 -3.7Q6.05 -3.9 5.6 -4.45L5.35 -4.95L4.75 -5.35L4.45 -5.6L4.15 -5.55Q3.55 -5.55 2.5 -6.95L2.1 -6.9L1.9 -6.9L0.9 -8.15L0.9 -8.2L0.75 -8.15L-0.15 -8.35L-0.6 -8.6L-0.8 -8.5L-1 -8.55L-1 -9.5L-0.75 -11.85L-0.35 -11.85L0.95 -12L1.1 -11.55L1.15 -11.6L1.25 -11.25L1.1 -11.15L0.95 -10.1L1.05 -10.2L1.45 -10.4L1.35 -11.1L1.6 -11.35Q1.25 -11.65 0.85 -12.4L1.45 -13.05" />
<path style="fill:#626262;fill-opacity:0.498039" d="M5.75,-23.1L6 -22.85L5.6 -22.5L5.05 -22.3L4.95 -22.5L4.95 -22.55L5.25 -23.05L5.2 -23.2L5.75 -23.1M4.3,-22.15L4.65 -22L4.4 -21.5L3.9 -21.5Q3.25 -21.55 3.2 -22.15L3.85 -22.1L4.3 -22.15M3.8,-22.45Q2.6 -22.45 2.6 -23.1Q2.6 -23.55 2.85 -23.6L3.8 -23.6Q4.65 -23.6 4.55 -23Q4.55 -22.45 3.8 -22.45M0.05,-21.5L-0.6 -22.05L-1.2 -21.85Q-1.55 -21.85 -1.95 -22.75L-2.3 -23.85L-2.5 -25.9Q-2 -25.9 -1.75 -25.5L-1.35 -24.8Q-1.05 -24.55 -1 -24.1L-1 -23.4L-0.75 -23.15L-0.5 -22.95L-0.15 -22.6L0.15 -22.3L0.5 -21.6L0.8 -20.95L0.75 -20.8L0.05 -21.5M-7.3,-19.35L-7.25 -19.5L-7.05 -19.55L-6.7 -19.4L-6.6 -19.45L-6.6 -19.6L-5.35 -18.9L-6.05 -18.75L-6.95 -18.95L-7.3 -19.35M-5.7,-16.05Q-5.7 -16.55 -5.1 -16.55Q-4.75 -16.55 -4.65 -16.3L-4.6 -16Q-4.6 -15.5 -5.1 -15.5L-5.6 -15.65L-5.7 -16.05" />
<path style="fill:#232323;fill-opacity:0.498039" d="M5.1,-21.95L5.05 -21.95Q5.05 -21.1 4.25 -21.1Q2.9 -21.1 2.9 -22.05L2.95 -22.2L2.4 -22.55Q2.25 -22.75 2.35 -23L2.45 -23.65L3.85 -23.95Q4.5 -23.95 4.95 -23.55L5.05 -23.45L5.8 -23.55Q6.25 -23.55 6.35 -22.9L6 -22.35Q5.55 -21.95 5.1 -21.95M5.2,-23.2L5.25 -23.05L4.95 -22.55L4.95 -22.5L5.05 -22.3L5.6 -22.5L6 -22.85L5.75 -23.1L5.2 -23.2M3.85,-22.1L3.2 -22.15Q3.25 -21.55 3.9 -21.5L4.4 -21.5L4.65 -22L4.3 -22.15L3.85 -22.1M4.55,-23Q4.65 -23.6 3.8 -23.6L2.85 -23.6Q2.6 -23.55 2.6 -23.1Q2.6 -22.45 3.8 -22.45Q4.55 -22.45 4.55 -23M0.3,-22.6L0.5 -22.25Q1.1 -21.25 1.1 -20.7Q1.1 -20.5 0.7 -20.5Q0.3 -20.5 -0.15 -21.1L-0.65 -21.7L-1.2 -21.55Q-2.2 -21.55 -2.35 -23.55L-2.7 -25.7L-2.55 -26.3L-2.3 -26L-2.25 -26.2Q-1.75 -26.05 -1.55 -25.7L-1.05 -24.9Q-0.75 -24.55 -0.75 -23.45L-0.35 -23.25L-0.2 -22.9L0 -22.75L0.3 -22.6M0.75,-20.8L0.8 -20.95L0.5 -21.6L0.15 -22.3L-0.15 -22.6L-0.5 -22.95L-0.75 -23.15L-1 -23.4L-1 -24.1Q-1.05 -24.55 -1.35 -24.8L-1.75 -25.5Q-2 -25.9 -2.5 -25.9L-2.3 -23.85L-1.95 -22.75Q-1.55 -21.85 -1.2 -21.85L-0.6 -22.05L0.05 -21.5L0.75 -20.8M-6.8,-19.8L-6.3 -19.9Q-5.75 -19.9 -5.3 -19.4L-4.95 -18.8Q-4.95 -18.4 -6.05 -18.4Q-7.65 -18.4 -7.65 -19.5L-7.45 -19.85L-6.8 -19.8M-6.95,-18.95L-6.05 -18.75L-5.35 -18.9L-6.6 -19.6L-6.6 -19.45L-6.7 -19.4L-7.05 -19.55L-7.25 -19.5L-7.3 -19.35L-6.95 -18.95M-4.4,-15.8Q-4.4 -15.45 -4.95 -15.45L-5.6 -15.65L-5.1 -15.5Q-4.6 -15.5 -4.6 -16L-4.4 -15.8" />
</g>
</svg>
