<?xml version="1.0" encoding="utf-8"?>
<svg version="1.1" id="Layer_1"
xmlns="http://www.w3.org/2000/svg"
xmlns:xlink="http://www.w3.org/1999/xlink"
width="38px" height="27px"
xml:space="preserve">
<g id="523" transform="matrix(1, 0, 0, 1, 4.05, 27.8)">
<path style="fill:#000000;fill-opacity:0.498039" d="M24.05,-25.4Q24.35 -25.45 24.3 -25.5L24.85 -25.7L26.4 -25.55Q27.2 -25.35 27.8 -24.8L27.85 -24.6L27.2 -24.1L27.35 -23.55L27.45 -23.6L27.5 -23.65L28.55 -23.25Q29.05 -22.9 28.7 -22.35L28.65 -22.2L26.35 -22.15L25.9 -22.45L25.9 -22.5L25.9 -22.65L25.9 -22.7L25.95 -22.75L25.65 -22.8Q24.5 -22.9 23.45 -23.35Q23.05 -23.5 23.1 -23.8L23.2 -23.9L23.25 -23.9Q22.7 -24.25 22.75 -24.9L22.9 -25L23.75 -25.3L24.05 -25.4M28.65,-27.4L29.35 -27.65L30.4 -27.75L31.2 -27.8L31.55 -27.6Q30.85 -27.1 29.9 -27L28.8 -27Q28.55 -27 28.6 -27.3L28.65 -27.4M33.65,-22.35L33.7 -22.3Q33.15 -21.25 31.65 -21.8Q30.6 -22.15 31.4 -22.9Q31.55 -23.1 31.8 -23.1L31.95 -23.05L32.1 -23L32.2 -22.9Q31.75 -22.8 33.05 -22.65L33.65 -22.35" />
<path style="fill:#000000;fill-opacity:1" d="M7,-8.1L10.25 -6.8L10.55 -6.35L10.55 -5.95L8.3 -3.85L6.95 -3.15L5.45 -3L5.3 -2.65L3.3 -1.8L2.8 -1.4L2.55 -1.4L2.3 -1.3Q1.1 -0.65 -0.1 -1.3L-0.4 -1.55L-2.9 -6L-2.95 -7.1L-3.2 -7.3L-3.25 -7.5L-3.5 -7.5L-3.5 -8.3L-4.05 -10.35L-3.5 -10.85L-2.85 -10.85L-2.6 -10.75L-2.55 -10.75L-0.5 -11L-0.35 -10.6L-0.25 -10.6L-0.25 -10.25L0.3 -8.65L0.55 -8.45L2.4 -5.35L2.95 -6.15L4.5 -7.45L4.65 -7.65L5.55 -8.15L7 -8.1" />
</g>
</svg>
