<?xml version="1.0" encoding="utf-8"?>
<svg version="1.1" id="Layer_1"
xmlns="http://www.w3.org/2000/svg"
xmlns:xlink="http://www.w3.org/1999/xlink"
width="15px" height="23px"
xml:space="preserve">
<g id="878" transform="matrix(1, 0, 0, 1, 0.05, -3.2)">
<path style="fill:#000000;fill-opacity:1" d="M12.5,3.2L13.95 3.65L14 4.85L13.65 5.2L12.6 9.3L10.55 10.6L10.45 14.15L9.3 14.65L10.15 16.65L10.45 17.7Q10.8 19.35 10.4 21.1L11.5 22.75L11.45 23.4L11.4 23.45Q10.9 24.45 9.9 24.35L8.35 22.85L8.15 18.9L6.9 17L6.15 18.8L6.45 19.75L7.05 20.65Q8.05 21.9 7.7 23.3Q7.3 24.85 6.2 25.65L4.75 25.1Q4.55 24.3 5.05 23.4L5.1 22.3L3.95 19.6Q2.7 17.4 4.6 15.1L4.45 11.5L0.95 12.1L0.35 11.85Q-0.25 11.05 0.05 10.15L0.55 7.9L0.2 7.45Q0 6.5 0.8 5.9Q1.85 5.05 2.55 6.1L2 9.6L5.65 8.6L5.1 7.45L5.3 5.55Q6.4 3.9 8.05 4.2L9 4.6Q11.05 6.3 9.3 8.7L10.95 7.8L11.25 5.1Q11.35 3.75 12.5 3.2" />
</g>
</svg>
