<?xml version="1.0" encoding="utf-8"?>
<svg version="1.1" id="Layer_1"
xmlns="http://www.w3.org/2000/svg"
xmlns:xlink="http://www.w3.org/1999/xlink"
width="13px" height="16px"
xml:space="preserve">
<g id="1224" transform="matrix(1, 0, 0, 1, -0.55, 5.65)">
<path style="fill:#1F0E05;fill-opacity:0.988235" d="M3.45,0.15L3.45 1.8L3.45 5.25L3.45 6.9L3.45 8.15L4.65 7.35L4.65 6.4L4.65 5.15L4.65 1.8L4.65 0.25L4.65 -1.6L4.65 -3.65L3.45 -4.45L3.45 -2.3L3.45 0.15M2.85,-1.3L2.85 -5.65L5.25 -3.95L5.25 7.6L2.85 9.45L2.85 4.95L0.55 4.6L0.55 -1.05L2.85 -1.3M7.9,-0.95L7.9 -4.9L9.8 -3.35L9.8 7.05L7.9 8.65L7.9 4.6L6.05 4.3L6.05 -0.7L7.9 -0.95M8.35,0.3L8.35 1.8L8.35 4.9L8.35 6.35L8.35 7.5L9.35 6.8L9.35 5.9L9.35 4.8L9.35 1.8L9.35 0.4L9.35 -1.25L9.35 -3.1L8.35 -3.8L8.35 -1.85L8.35 0.3M12.35,1.8L12.35 4.6L12.35 5.95L12.35 6.95L13.2 6.35L13.2 5.55L13.2 4.55L13.2 1.8L13.2 0.55L13.2 -0.95L13.2 -2.65L12.35 -3.25L12.35 -1.5L12.35 0.45L12.35 1.8M11.95,-4.25L13.55 -2.9L13.55 6.55L11.95 8L11.95 4.35L10.45 4.1L10.45 -0.45L11.95 -0.7L11.95 -4.25M10.55,3.75L11.9 3.9L11.9 2.9L11.9 2.05L10.55 1.9L10.55 2.95L10.55 3.75M6.15,3.95L7.8 4.1L7.8 3L7.8 2.1L6.15 1.9L6.15 3.05L6.15 3.95M2.75,2.1L0.7 1.9L0.7 3.2L0.7 4.2L2.75 4.35L2.75 3.15L2.75 2.1" />
<path style="fill:#3B3B3B;fill-opacity:0.988235" d="M3.45,-2.3L3.45 -4.45L4.65 -3.65L4.65 -1.6L3.45 -2.3M8.35,-1.85L8.35 -3.8L9.35 -3.1L9.35 -1.25L8.35 -1.85M12.35,-3.25L13.2 -2.65L13.2 -0.95L12.35 -1.5L12.35 -3.25" />
<path style="fill:#E0E0E0;fill-opacity:1" d="M4.65,0.25L4.65 1.8L3.45 1.8L3.45 0.15L4.65 0.25M8.35,1.8L8.35 0.3L9.35 0.4L9.35 1.8L8.35 1.8M12.35,1.8L12.35 0.45L13.2 0.55L13.2 1.8L12.35 1.8" />
<path style="fill:#834C2B;fill-opacity:0.988235" d="M3.45,5.25L3.45 1.8L4.65 1.8L4.65 5.15L3.45 5.25M8.35,4.9L8.35 1.8L9.35 1.8L9.35 4.8L8.35 4.9M12.35,4.6L12.35 1.8L13.2 1.8L13.2 4.55L12.35 4.6" />
<path style="fill:#BDBDBD;fill-opacity:0.988235" d="M3.45,0.15L3.45 -2.3L4.65 -1.6L4.65 0.25L3.45 0.15M8.35,0.3L8.35 -1.85L9.35 -1.25L9.35 0.4L8.35 0.3M13.2,0.55L12.35 0.45L12.35 -1.5L13.2 -0.95L13.2 0.55" />
<path style="fill:#5F3A23;fill-opacity:0.988235" d="M10.55,2.95L11.9 2.9L11.9 3.9L10.55 3.75L10.55 2.95M6.15,3.05L7.8 3L7.8 4.1L6.15 3.95L6.15 3.05M2.75,3.15L2.75 4.35L0.7 4.2L0.7 3.2L2.75 3.15" />
<path style="fill:#461F07;fill-opacity:0.988235" d="M4.65,6.4L4.65 7.35L3.45 8.15L3.45 6.9L4.65 6.4M9.35,5.9L9.35 6.8L8.35 7.5L8.35 6.35L9.35 5.9M13.2,5.55L13.2 6.35L12.35 6.95L12.35 5.95L13.2 5.55M10.55,2.95L10.55 1.9L11.9 2.05L11.9 2.9L10.55 2.95M6.15,3.05L6.15 1.9L7.8 2.1L7.8 3L6.15 3.05M0.7,3.2L0.7 1.9L2.75 2.1L2.75 3.15L0.7 3.2" />
<path style="fill:#7E4827;fill-opacity:0.988235" d="M3.45,6.9L3.45 5.25L4.65 5.15L4.65 6.4L3.45 6.9M8.35,6.35L8.35 4.9L9.35 4.8L9.35 5.9L8.35 6.35M13.2,4.55L13.2 5.55L12.35 5.95L12.35 4.6L13.2 4.55" />
</g>
</svg>
