<?xml version="1.0" encoding="utf-8"?>
<svg version="1.1" id="Layer_1"
xmlns="http://www.w3.org/2000/svg"
xmlns:xlink="http://www.w3.org/1999/xlink"
width="25px" height="21px"
xml:space="preserve">
<g id="519" transform="matrix(1, 0, 0, 1, 2.3, 23.6)">
<path style="fill:#696969;fill-opacity:1" d="M15.3,-18.95L15.2 -19.05L15.4 -19.35L15.35 -19.55L15.35 -20.25L15.65 -19.55L15.5 -18.8L16.25 -19.15L16 -18.85Q15.45 -18.25 15.5 -18.8Q15.35 -18.85 15.3 -18.95" />
<path style="fill:#000000;fill-opacity:0.901961" d="M18.3,-21.75L18.55 -21.8Q20.9 -22.05 20.85 -20.2L20.8 -19.95L20.95 -20Q22.2 -19.7 21.95 -18.65Q21.7 -17.7 20.65 -17.7L19.85 -17.2Q18.8 -16.9 18.05 -17.5Q17.7 -17.2 17.4 -17.5L16.5 -17L16.45 -17.05L16.8 -17.55Q17.1 -18.45 16.25 -18.35Q15.4 -18 16.65 -17.9Q15.55 -16.3 13.3 -15.75L14.9 -17.05L14.5 -17.2L13.95 -16.7L12.55 -15.55L12.45 -15.55L13.5 -16.7L14.3 -17.55L14.3 -17.6L13.85 -17.6L14.2 -19.7Q13.2 -22.3 15.95 -23.6L16.1 -23.3L16.3 -23.4L16.85 -23.6Q18.05 -23.7 18.35 -22.55L18.3 -21.75M17.25,-20.85Q18.05 -20.05 17.5 -20.7L17.25 -20.85M15.5,-18.8Q15.45 -18.25 16 -18.85L16.25 -19.15L15.5 -18.8L15.65 -19.55L15.35 -20.25L15.35 -19.55L15.4 -19.35L15.2 -19.05L15.3 -18.95Q15.35 -18.85 15.5 -18.8M16.5,-21.25Q15.85 -22 16.25 -21.4L16.5 -21.25M14.85,-20.15Q15.45 -20.8 15 -20.4L14.85 -20.15M15.4,-17.45Q15.25 -16.95 15.45 -17.45L15.4 -17.45" />
<path style="fill:#000000;fill-opacity:1" d="M0.95,-12.5L1.9 -9.95L3.75 -7.2L4.3 -7.65L4.3 -8L5.35 -9.05L5.65 -9.1L5.85 -9.35L6.65 -9.85L8.2 -9.65L10.8 -8.6L11.05 -8.55L11.35 -8.1L11.35 -7.75L9.25 -5.8L9.1 -5.55L7.9 -5.1L6.55 -4.95L6.4 -4.65L3.85 -3.5L3.65 -3.25L3 -3.05L1.6 -3.25L1.15 -3.65L0.5 -4.35L0.2 -5.1L-1.25 -7.75L-1.3 -8.8L-1.55 -9L-1.6 -9.25L-1.8 -9.25L-1.8 -10L-2.3 -11.95L-1.8 -12.3L-0.95 -12.15L0.4 -12.7L0.95 -12.5" />
</g>
</svg>
