<?xml version="1.0" encoding="utf-8"?>
<svg version="1.1" id="Layer_1"
xmlns="http://www.w3.org/2000/svg"
xmlns:xlink="http://www.w3.org/1999/xlink"
width="69px" height="49px"
xml:space="preserve">
<g id="326" transform="matrix(1, 0, 0, 1, -2.55, 30.45)">
<path style="fill:#E2E2E2;fill-opacity:0.8" d="M25.25,-29.2Q23.85 -28.9 22.75 -28.05Q21.7 -27.3 20.55 -26.7L20.25 -26.7L20.05 -26.45Q20.2 -25.55 19.95 -24.35Q19.45 -22.5 21.15 -21.55Q23 -20.55 24.4 -22.35Q24.7 -22.7 25.05 -22.25Q27 -19.25 30.8 -20.9Q31.1 -21.05 31.1 -20.8Q31.8 -21.25 32.15 -22.15Q33.65 -25.65 30.2 -27.95Q27.95 -29.45 25.25 -29.2M38.8,-20Q45.3 -20.05 46.5 -13.85Q46.8 -12.25 45.85 -10.9Q42.7 -6.2 36.7 -7.8Q30.05 -9.6 31.9 -16.05Q32.7 -18.95 36 -19.5L38.8 -20M33.1,-21.25Q30.25 -17.4 25 -18.4L24.4 -18.35Q20.05 -17.4 18.25 -20.85Q16.45 -24.35 19.4 -27.2Q21.85 -29.55 25.1 -30.45Q32.5 -30.7 33.7 -23.9Q33.95 -22.5 33.1 -21.25M35.85,-17.5Q34.7 -16.5 33.85 -15.05Q32.95 -13.45 34.3 -12Q38.35 -7.5 43.05 -11.45L43.7 -11.95L44 -12.05L44.2 -12L44.3 -11.9L44.4 -11.85L44.15 -10.8Q46.4 -13.15 44.2 -16.45Q42.4 -19.15 39 -18.75L37.6 -18.2Q36.9 -17.95 36.35 -17.45L36.2 -17.35Q35.95 -17.35 35.85 -17.5M32.75,-1.8L33.05 -2.55Q34.9 -5.7 38.7 -5.6Q41.85 -5.4 44.05 -3.2Q46.6 -0.7 44.7 2L44.45 2.3Q47.5 5.1 44.55 7.7Q42 9.95 39.6 7.8L38.85 7.3L37.85 6.9L34.7 7.15Q32.45 8.05 30.3 7.75Q30.4 6.95 31.2 6.5L32.95 5.45L34.25 4.7L34.1 4.55L34 4.25L34 4.1L34.05 3.8L34.4 3.5L34.7 3.3L35 3L35.05 2.95L32.1 2.6Q31.15 2.55 30.75 1.85L28.15 2.55L25.3 2.65L26 2.15L25.95 2.1Q28.05 0.6 30.65 -0.75L32.75 -1.8M34.45,-2.05L34.45 -1.95Q34.3 -1.35 33.65 -1.05L33.5 -0.95L33.45 -0.85L34 -1.1Q34.8 -1.5 35.3 -0.95Q34.45 -0.1 32.95 0.35L31.95 0.6L31.9 0.65Q32.3 0.75 32.55 1.2L32.55 1.25L32.5 1.35L32.4 1.55L32.35 1.7Q34.15 1.8 35.75 2.5Q36.45 2.8 35.85 3.4L35.6 3.75L35.95 3.95L36.2 4.15L36.25 4.35L36.25 4.5L34.75 5.45Q33.85 5.8 33.05 6.3L32.5 6.65Q34.8 5.7 37.1 5.85L37.15 5.75L37.2 5.7L40.8 6.1Q43.75 6.35 43.1 3.9L42.75 2.95L42.75 2.85L42.5 2.8Q39.75 3.65 37.65 1.5Q37.45 1.3 37.65 1.1Q40.8 2.2 42.5 -0.1Q43.15 -0.9 42.6 -1.85Q42.3 -2.5 42.5 -3.1Q41.15 -4.2 39.4 -4.4Q35.7 -4.85 34.1 -2.3L34.2 -2.25L34.45 -2.05M32.95,-0.75L32.5 -0.45L33.05 -0.65L32.95 -0.75M53.7,-16.75L53.85 -16.8L54.3 -16.9L54.65 -16.8L55.15 -16.55L55.2 -16.5L54.8 -16.35L53.85 -15.9L53.1 -15.45L53.05 -15.4L53 -15.3Q55.5 -9.3 62.2 -10.55Q64.35 -10.9 65.75 -12.5L68.1 -15.1Q68 -16.7 66.65 -18.45Q65.05 -20.5 62.35 -20.2Q60.05 -20.1 57.85 -19.35Q55.6 -18.6 53.9 -17.05L53.65 -16.75L53.7 -16.75M51.3,-14.95Q54.7 -21.35 62.25 -21.45Q68.55 -21.15 69.05 -14.95Q69.3 -12 66.8 -10.2Q64.7 -8.7 62.15 -8L57.95 -7.75Q52.1 -8.65 51.15 -14.05Q51.1 -14.5 51.3 -14.95M57.9,-7.15Q64.4 -6.95 64.7 -1.05Q64.75 0.25 64.05 1.45Q60.8 7 54.9 3.95Q51.7 2.3 51 -1.3Q50.6 -3.35 52.35 -5Q54.65 -7.1 57.9 -7.15M52.2,-3.1Q53.7 -0.2 56.7 0.95Q60.55 2.45 62.05 -0.65L63.05 -2.25Q63.3 -2.55 63.7 -2.5Q63.5 -3.35 62.9 -3.95Q61.3 -5.5 59.1 -6.1L58.05 -6.1Q56.35 -6 54.8 -5.3Q53.25 -4.6 52.25 -3.2L52.2 -3.1M69,9.7Q66.65 6.9 62.65 7.15Q61.2 7.25 59.9 7.9L57.25 9.05L57.15 9L57.1 8.8L57.05 8.75L57.1 8.55L57.15 8.45L57.25 8.3Q55.4 8.15 54.1 9.4L53.9 11.7Q53.75 14.25 56.55 14.75Q58.8 15.15 60.3 13.85L60.95 12.8Q62.4 12.85 64.05 13.5Q66.05 14.35 67.55 12.9Q68.95 11.6 68.8 9.85L69.05 9.9L69 9.7M63.45,17.45L58.15 17.7L55.5 17.65Q50.1 15.25 52.15 10Q52.55 9 53.5 8.4Q55.5 7.15 57.85 7.45L58.5 7L60.2 6.4L62.5 5.9Q69.25 5.65 70.95 11.6Q71.75 14.25 69.6 16.25Q67.05 18.6 63.45 17.45M22.3,6.15L22.65 6.05Q27.4 6.9 27.4 11.5L27.05 12.5Q23.95 16.7 19.1 15L19.05 14.95L18.85 14.9L18.75 14.85L18.65 14.75L18.7 14.65L18.7 14.6L18.75 14.6L18.8 14.5L14.7 15.35Q9.75 16.1 5.3 18.25L3.15 18.4Q3.1 17.8 3.75 17.55L4.95 16.85L5.1 16.7Q5.2 16 6 15.55L7.5 14.65L7.65 14.6Q5.65 14.75 4 15.9L2.55 16L8.25 12.5L13.15 9.25Q12.75 8.1 12.8 6.85Q12.85 4.15 15.4 3.15L17.4 2.55Q19.9 2.6 21.55 4.4Q22.3 5.2 22.3 6.15M22.85,7.05L22.15 6.95L21.9 7.45L20.75 8.65L20.6 8.65L20.55 8.65L19.05 9.8L18.95 9.85L18.75 9.75L18.6 9.7L15.9 10.6Q15.1 10.75 14.5 10.35Q15.2 8.7 17.7 8.3Q19.65 8 19.45 6.1Q19.4 5.1 18.6 4.35L18.45 4.1L18.6 4L17.55 3.85Q13.85 3.5 13.85 7L13.9 8.6L14.1 8.5L13.95 9.3L13.9 9.35L13.2 10L9.55 12.45L7.25 13.85L8.7 14.05L8.85 14.15Q8.75 14.8 8.1 15.1Q7.4 15.45 7.05 16.15L6.85 16.45L15.15 14.1Q17.5 13.45 19.75 13.55Q20.6 13 22 12.9Q23.15 12.85 23.9 11.95Q26 9.45 23 7.2L22.85 7.05" />
<path style="fill:#E2E2E2;fill-opacity:0.498039" d="M30.2,-27.95Q33.65 -25.65 32.15 -22.15Q31.8 -21.25 31.1 -20.8Q31.1 -21.05 30.8 -20.9Q27 -19.25 25.05 -22.25Q24.7 -22.7 24.4 -22.35Q23 -20.55 21.15 -21.55Q19.45 -22.5 19.95 -24.35Q20.2 -25.55 20.05 -26.45L20.25 -26.7L20.55 -26.7Q21.7 -27.3 22.75 -28.05Q23.85 -28.9 25.25 -29.2Q27.95 -29.45 30.2 -27.95M36.2,-17.35L36.35 -17.45Q36.9 -17.95 37.6 -18.2L39 -18.75Q42.4 -19.15 44.2 -16.45Q46.4 -13.15 44.15 -10.8L44.4 -11.85L44.3 -11.9L44.2 -12L44 -12.05L43.7 -11.95L43.05 -11.45Q38.35 -7.5 34.3 -12Q32.95 -13.45 33.85 -15.05Q34.7 -16.5 35.85 -17.5Q35.95 -17.35 36.2 -17.35M34.2,-2.25L34.1 -2.3Q35.7 -4.85 39.4 -4.4Q41.15 -4.2 42.5 -3.1Q42.3 -2.5 42.6 -1.85Q43.15 -0.9 42.5 -0.1Q40.8 2.2 37.65 1.1Q37.45 1.3 37.65 1.5Q39.75 3.65 42.5 2.8L42.75 2.85L42.75 2.95L43.1 3.9Q43.75 6.35 40.8 6.1L37.2 5.7L37.15 5.75L37.1 5.85Q34.8 5.7 32.5 6.65L33.05 6.3Q33.85 5.8 34.75 5.45L36.25 4.5L36.25 4.35L36.2 4.15L35.95 3.95L35.6 3.75L35.85 3.4Q36.45 2.8 35.75 2.5Q34.15 1.8 32.35 1.7L32.4 1.55L32.5 1.35L32.55 1.25L32.55 1.2Q32.3 0.75 31.9 0.65L31.95 0.6L32.95 0.35Q34.45 -0.1 35.3 -0.95Q34.8 -1.5 34 -1.1L33.45 -0.85L33.5 -0.95L33.65 -1.05Q34.3 -1.35 34.45 -1.95L34.45 -2.05L34.2 -2.25M53.65,-16.75L53.9 -17.05Q55.6 -18.6 57.85 -19.35Q60.05 -20.1 62.35 -20.2Q65.05 -20.5 66.65 -18.45Q68 -16.7 68.1 -15.1L65.75 -12.5Q64.35 -10.9 62.2 -10.55Q55.5 -9.3 53 -15.3L53.05 -15.4L53.1 -15.45L53.85 -15.9L54.8 -16.35L55.2 -16.5L55.15 -16.55L54.65 -16.8L54.3 -16.9L53.85 -16.8L53.7 -16.75L53.65 -16.75M52.25,-3.2Q53.25 -4.6 54.8 -5.3Q56.35 -6 58.05 -6.1L59.1 -6.1Q61.3 -5.5 62.9 -3.95Q63.5 -3.35 63.7 -2.5Q63.3 -2.55 63.05 -2.25L62.05 -0.65Q60.55 2.45 56.7 0.95Q53.7 -0.2 52.2 -3.1L52.25 -3.2M69.05,9.9L68.8 9.85Q68.95 11.6 67.55 12.9Q66.05 14.35 64.05 13.5Q62.4 12.85 60.95 12.8L60.3 13.85Q58.8 15.15 56.55 14.75Q53.75 14.25 53.9 11.7L54.1 9.4Q55.4 8.15 57.25 8.3L57.15 8.45L57.1 8.55L57.05 8.75L57.1 8.8L57.15 9L57.25 9.05L59.9 7.9Q61.2 7.25 62.65 7.15Q66.65 6.9 69 9.7L69.05 9.9M23,7.2Q26 9.45 23.9 11.95Q23.15 12.85 22 12.9Q20.6 13 19.75 13.55Q17.5 13.45 15.15 14.1L6.85 16.45L7.05 16.15Q7.4 15.45 8.1 15.1Q8.75 14.8 8.85 14.15L8.7 14.05L7.25 13.85L9.55 12.45L13.2 10L13.9 9.35L13.95 9.3L14.1 8.5L13.9 8.6L13.85 7Q13.85 3.5 17.55 3.85L18.6 4L18.45 4.1L18.6 4.35Q19.4 5.1 19.45 6.1Q19.65 8 17.7 8.3Q15.2 8.7 14.5 10.35Q15.1 10.75 15.9 10.6L18.6 9.7L18.75 9.75L18.95 9.85L19.05 9.8L20.55 8.65L20.6 8.65L20.75 8.65L21.9 7.45L22.15 6.95L22.85 7.05L23 7.2" />
</g>
</svg>
