<?xml version="1.0" encoding="utf-8"?>
<svg version="1.1" id="Layer_1"
xmlns="http://www.w3.org/2000/svg"
xmlns:xlink="http://www.w3.org/1999/xlink"
width="86px" height="72px"
xml:space="preserve">
<g id="329" transform="matrix(1, 0, 0, 1, -7.5, 45.1)">
<path style="fill:#E2E2E2;fill-opacity:0.498039" d="M32.45,-43.8Q31 -43.65 29.75 -42.95L27.35 -41.25L27.15 -41.05Q25.35 -33.4 32.95 -30.8L33.2 -30.75L33.35 -30.7Q40.1 -28.55 42.85 -34.5Q44.05 -37.1 42.45 -39.55Q40.8 -42.15 37.65 -43.3Q35.2 -44.2 32.45 -43.8M31.05,-30.5Q25.65 -33.65 26.5 -39.75Q27.2 -44.7 32.35 -45.05Q42.1 -45.75 44.2 -37.25L44.45 -35.3Q51.1 -30.15 46.7 -22.9Q45.95 -21.7 44.5 -21.4Q35.15 -19.5 31.9 -27.7Q31.4 -28.95 32.05 -30Q31.55 -30.2 31.05 -30.5M15,-38.65Q22.3 -37 19.3 -30.85Q18.8 -29.85 17.65 -29.75Q10.9 -29.1 10.8 -34.9Q10.75 -37.2 12.85 -38.2L15 -38.65M15.15,-30.55Q20.6 -30 19 -34.8Q18.55 -36.1 17.35 -36.9Q15.65 -37.95 13.7 -37.9Q9.2 -35.55 12.35 -31.95Q13.45 -30.75 15.15 -30.55M20,-7.25L22.2 -8Q24.95 -8.25 26.75 -6.35Q28.55 -4.45 28.65 -1.8L28.65 -1.6Q29.75 -0.9 30.5 0Q30.85 -4.25 35.3 -6.9L36.45 -7.35L38.3 -7.7Q46.95 -7.25 48.2 1.1Q48.6 3.6 47 5.65Q41.7 12.2 34.15 8Q32.75 7.25 31.9 6Q30.7 11.9 23.8 11L22.35 11.2L20.5 11.05L20.45 10.9L20.4 10.65L20.4 10.25L20.65 9.85L20.75 9.75Q18.75 10.5 16.85 11.6Q14.2 13.05 11.45 13.8L11.4 13.7Q11.1 13.05 11.35 12.55Q11.8 11.65 12.75 11.15Q12.95 11 13.3 10.95Q12.7 10.85 11.5 11.3L7.65 12.6L7.5 12.5Q8.8 10.9 10.85 9.5L17.05 5.15Q15.35 2.95 15.3 -0.2Q15.2 -5.25 20 -7.25M22.25,-6.9Q17.95 -6.05 16.65 -2.15Q15.2 2.05 18.6 4.6L18.75 4.95L16.2 7.15L12.05 10.05L13.55 9.75Q14.2 9.5 14.75 9.95Q15 10.45 14.65 10.85L13.55 11.75L12.55 12.7L16.85 10.35Q19.45 8.9 21.95 9.15L21.95 9.4L21.9 9.6L21.75 9.85L21.5 10.2Q26 10.3 29.8 8Q30.9 7.35 31.05 6L31.1 4.4L31 4.1L30.55 2Q29.6 -0.1 27.2 -1.3Q28.15 -2 27.55 -3.45Q26.5 -5.85 24.05 -6.8L22.25 -6.9M35.1,-6.2Q31.1 -2.5 31.4 1.25Q31.45 2.5 32.1 3.8Q32.9 5.6 34.7 7.4Q35.9 8.65 37.65 8.75Q45.4 9.2 47.1 2.05Q47.85 -1.05 45.4 -3.65Q42.45 -6.8 38.2 -6.45L36.7 -6.1L35.15 -6.05L35.1 -6.2M35.9,-23.65Q42 -20.05 46.55 -24.6Q47.25 -25.35 47.4 -26.45Q47.95 -31.35 44.4 -34.8Q44.1 -32.6 42 -31Q37.65 -27.75 32.85 -29.6Q32 -25.95 35.9 -23.65M78.5,-29.15Q80 -27.15 79.5 -24.65Q78 -17 69.45 -16.15Q63.75 -15.55 60.05 -19.7Q58.05 -21.95 57.1 -24.65Q55.2 -30.05 58.85 -34.95Q60.25 -36.85 62.2 -37.75Q72.45 -37.3 78.5 -29.15M61.05,-36.7Q56.35 -32.05 57.2 -26.05Q57.6 -23.4 59.5 -21.2Q64.6 -15.3 72.3 -17.75Q79.85 -20.15 78 -27.5Q77.05 -31.25 73.5 -33.25Q67.5 -36.7 61.05 -36.7M75.75,-14.25Q83.1 -15.65 87.1 -10.35Q88.45 -8.6 88.6 -6.3Q88.95 -2.4 86.85 -0.35Q92.3 1.5 93.25 8.3Q93.95 12.9 90.75 16.3Q86.45 20.9 79.7 19.05Q71.7 16.95 71.7 9.1Q71.7 6 73.05 3.75Q69.85 2.8 67.95 -0.45Q64.65 -6.05 69.55 -10.9Q72.15 -13.5 75.75 -14.25M84.3,-12.05Q83.55 -12.75 82.5 -13Q71.7 -15.6 68.05 -6.25Q66.5 -2.4 69.2 0.6Q70.9 2.55 73.15 3.65Q74.65 1.15 77.75 -0.25Q79.75 -1.15 81.9 -1.15L86.2 -0.6Q89.95 -6.8 84.3 -12.05M85.3,0.7L85.4 0.55L82 0.05Q72.8 0.55 72.5 9.05Q72.35 13.55 76.3 16.1Q82.75 20.25 89.3 16.15Q90.4 15.45 91.05 14.2Q95.05 6.2 87.4 1.5L85.5 0.6L85.3 0.7M62.1,24.15Q54.2 29.9 47.9 23.25Q47.15 22.45 46.8 21.3Q44.55 12.7 52.7 8.4Q55 7.2 57.65 7.4Q65.85 10.75 64.8 19.5Q64.45 22.4 62.1 24.15M47.75,20.2Q49 26.45 55.85 25.5Q64.65 24.25 63.35 16.1Q62.2 9.15 55.25 8.6Q46 11.2 47.75 20.2" />
<path style="fill:#E2E2E2;fill-opacity:0.298039" d="M37.65,-43.3Q40.8 -42.15 42.45 -39.55Q44.05 -37.1 42.85 -34.5Q40.1 -28.55 33.35 -30.7L33.2 -30.75L32.95 -30.8Q25.35 -33.4 27.15 -41.05L27.35 -41.25L29.75 -42.95Q31 -43.65 32.45 -43.8Q35.2 -44.2 37.65 -43.3M12.35,-31.95Q9.2 -35.55 13.7 -37.9Q15.65 -37.95 17.35 -36.9Q18.55 -36.1 19 -34.8Q20.6 -30 15.15 -30.55Q13.45 -30.75 12.35 -31.95M24.05,-6.8Q26.5 -5.85 27.55 -3.45Q28.15 -2 27.2 -1.3Q29.6 -0.1 30.55 2L31 4.1L31.1 4.4L31.05 6Q30.9 7.35 29.8 8Q26 10.3 21.5 10.2L21.75 9.85L21.9 9.6L21.95 9.4L21.95 9.15Q19.45 8.9 16.85 10.35L12.55 12.7L13.55 11.75L14.65 10.85Q15 10.45 14.75 9.95Q14.2 9.5 13.55 9.75L12.05 10.05L16.2 7.15L18.75 4.95L18.6 4.6Q15.2 2.05 16.65 -2.15Q17.95 -6.05 22.25 -6.9L24.05 -6.8M35.15,-6.05L36.7 -6.1L38.2 -6.45Q42.45 -6.8 45.4 -3.65Q47.85 -1.05 47.1 2.05Q45.4 9.2 37.65 8.75Q35.9 8.65 34.7 7.4Q32.9 5.6 32.1 3.8Q31.45 2.5 31.4 1.25Q31.1 -2.5 35.1 -6.2L35.15 -6.05M32.85,-29.6Q37.65 -27.75 42 -31Q44.1 -32.6 44.4 -34.8Q47.95 -31.35 47.4 -26.45Q47.25 -25.35 46.55 -24.6Q42 -20.05 35.9 -23.65Q32 -25.95 32.85 -29.6M73.5,-33.25Q77.05 -31.25 78 -27.5Q79.85 -20.15 72.3 -17.75Q64.6 -15.3 59.5 -21.2Q57.6 -23.4 57.2 -26.05Q56.35 -32.05 61.05 -36.7Q67.5 -36.7 73.5 -33.25M86.2,-0.6L81.9 -1.15Q79.75 -1.15 77.75 -0.25Q74.65 1.15 73.15 3.65Q70.9 2.55 69.2 0.6Q66.5 -2.4 68.05 -6.25Q71.7 -15.6 82.5 -13Q83.55 -12.75 84.3 -12.05Q89.95 -6.8 86.2 -0.6M85.5,0.6L87.4 1.5Q95.05 6.2 91.05 14.2Q90.4 15.45 89.3 16.15Q82.75 20.25 76.3 16.1Q72.35 13.55 72.5 9.05Q72.8 0.55 82 0.05L85.4 0.55L85.3 0.7L85.5 0.6M55.25,8.6Q62.2 9.15 63.35 16.1Q64.65 24.25 55.85 25.5Q49 26.45 47.75 20.2Q46 11.2 55.25 8.6" />
</g>
</svg>
