<?xml version="1.0" encoding="utf-8"?>
<svg version="1.1" id="Layer_1"
xmlns="http://www.w3.org/2000/svg"
xmlns:xlink="http://www.w3.org/1999/xlink"
width="11px" height="13px"
xml:space="preserve">
<g id="516" transform="matrix(1, 0, 0, 1, -2.45, 0.45)">
<path style="fill:#000000;fill-opacity:1" d="M10.25,-0.45L11.8 3.4L10.8 4.2L10.85 5.6L11.9 5.6L11.9 5.7L12.1 6.3Q12.3 6.8 11.7 7.05L12.8 9.85L12.3 10.65L11.2 11.4L9.85 12L8.3 12.15L6.95 12.05L6.85 10.15L7.6 9.4L3.5 10L3.3 9.1L3.55 8.15L3.85 7.75L4.35 7.35L3.7 5.75L2.65 5.05L2.45 2.35L3.6 3.8L5.65 -0.3L10.25 -0.45M8.05,8.9Q7.8 9.3 8.3 9.1L7.9 8.2L8.1 8.7L8.05 8.9" />
</g>
</svg>
