<?xml version="1.0" encoding="utf-8"?>
<svg version="1.1" id="Layer_1"
xmlns="http://www.w3.org/2000/svg"
xmlns:xlink="http://www.w3.org/1999/xlink"
width="30px" height="16px"
xml:space="preserve">
<g id="967" transform="matrix(1, 0, 0, 1, 7.55, 6.25)">
<path style="fill:#000000;fill-opacity:0.85098" d="M6.95,-6.25L7.15 -6.25L7.25 -6.25L7.5 -6.25L7.6 -6.2L7.65 -6.15L7.7 -6.1L7.8 -6L7.95 -5.9L8 -5.8L8 -5.7L7.95 -5.55Q7.5 -5.2 6.85 -5.35Q6.5 -5.4 6.35 -5.7L6.35 -5.8L6.35 -5.85L6.4 -5.9L6.5 -6L6.7 -6.15L6.85 -6.2L6.95 -6.25M15.15,-6.05L15.2 -6.1L16.15 -6L16.95 -5.7L17.6 -5.05L17.7 -4.25L17.6 -4.15Q17.25 -3.8 16.8 -3.75L14.6 -4Q14.35 -4.05 14.2 -4.25L14.15 -4.35L14.15 -4.75L14.25 -5.1L14.55 -5.55L15.15 -6.05M10.55,-0.6L10.75 -0.7L12.45 -0.3Q13.5 0.2 12.85 1.1Q12.2 1.9 11.15 1.6L10 0.75L10 0.55L10 0.45L10 0.2L10.15 -0.2L10.55 -0.6M20.2,-4.45L20.25 -4.6L20.35 -4.7L20.45 -4.75L20.75 -4.7L21.2 -4.6L21.6 -4.35L21.75 -3.8L21.7 -3.55Q21.1 -3.25 20.45 -3.55Q20.25 -3.65 20.2 -3.9L20.2 -4.45M14.6,4.6L14.2 5.6Q13.7 6.2 13.35 6.95L12.85 8.4Q12.6 9.5 11.75 9.45L11.5 8.85L11.55 7.75L11.9 6.6L12.6 5.5L12.9 5.05L13 5.05L13.05 5L13.1 5L13.25 5L13.25 4.95L13.35 4.85L13.6 4.6L13.75 4.55L13.9 4.5L14.45 4.55L14.6 4.6M5.6,2.15Q5.2 1.85 5.5 1.4Q6.05 0.55 7 0.25Q8.45 0.35 8.5 1.7Q8.55 2.4 7.85 2.6Q6.6 2.9 5.6 2.15M0.65,4.35L0.8 4.65L0.9 4.95L1 4.95L1.15 5L1.25 5L1.35 5.05L1.5 5.25L1.7 5.55L1.8 5.9L1.8 6.15L1.8 6.35L1.25 6.65Q0.65 6.75 0.15 6.3L-0.15 6.05L-0.15 5.95L-0.15 5.8L-0.15 5.7L-0.15 5.55L-0.15 5.45L-0.15 5.35L-0.1 5.3L-0.05 5.25L0 5.2L0.05 5.15L0.1 5.15L0.1 4.95L0.05 4.65L0 4.4L0.05 4.1L0.1 4L0.2 3.95L0.45 4.05L0.65 4.35M4.3,4.3L4.5 4.4L4.5 4.5L4.5 4.65L4.45 4.7L4.4 4.8L4.6 4.95L4.75 5L5.05 5.35L5.1 5.75L4.95 6.05L4.9 6.1Q4.45 6.35 4.05 6.1L3.9 6.05L3.2 5.75L3.05 5.65L3.05 5.4L3.05 5.35L3 5.3L2.9 4.95L3 4.55L3.3 4.3L3.4 4.25L3.65 4.3L3.9 4.3L4.3 4.3M-0.45,0.75L-0.4 0.75L-0.25 0.8L-0.15 1.05L-0.3 1.3L-2 1.25L-2.1 1.2L-2.1 1.1L-2.1 1.05L-2.05 1L-2 0.95L-1.95 0.9L-1.95 0.85L-1.9 0.75L-1.85 0.75L-1.75 0.7L-1.5 0.6L-1.4 0.6L-1.35 0.55L-1.1 0.6L-0.95 0.55L-0.8 0.55L-0.65 0.55L-0.55 0.6L-0.45 0.7L-0.45 0.75M-7.05,1.15L-6.95 1.1L-6.8 1.15L-6.7 1.15L-6.6 1.2L-6.5 1.3L-6.45 1.35L-6.45 1.55L-6.45 1.65L-6.45 1.7L-6.55 1.8L-6.85 1.9L-7.25 2.1L-7.4 2.1L-7.45 2.05L-7.5 1.95L-7.5 1.85L-7.55 1.65L-7.5 1.45L-7.5 1.35L-7.4 1.3L-7.3 1.25L-7.25 1.25L-7.15 1.2L-7.05 1.15" />
</g>
</svg>
