<?xml version="1.0" encoding="utf-8"?>
<svg version="1.1" id="Layer_1"
xmlns="http://www.w3.org/2000/svg"
xmlns:xlink="http://www.w3.org/1999/xlink"
width="27px" height="36px"
xml:space="preserve">
<g id="1317" transform="matrix(1, 0, 0, 1, 17.8, 37.35)">
<path style="fill:#F8C601;fill-opacity:1" d="M1.65,-3.5Q2.2 -3.4 2.1 -2.9Q1.85 -2.05 1.05 -1.7L-1.95 -1.75L-2.2 -2.65L-5.95 -5.45L-1.95 -5.05L-1.3 -16.45L-0.2 -5.75L1.2 -6L1.65 -3.5M8,-37.35L8.95 -36.85L5.4 -30.05L7.75 -37.15Q7.85 -37.35 8 -37.35M-14.7,-26.5Q-14.05 -24.7 -14.95 -23.35L-17.8 -31.95L-17.55 -32.1L-17.1 -31.95L-16.45 -31.55Q-15.9 -31.1 -15.7 -30.45Q-15.15 -28.95 -14.9 -27.3L-14.7 -26.5M-6.75,-16.8L-6.5 -16.45L-5.5 -10.85L-7.25 -16.45L-6.75 -16.8M-3.4,-4.75L-0.95 -2.2L1.15 -3L-0.1 -3.05L0.6 -4.7L-0.4 -3.9L-1.35 -8.2L-1.35 -3.9L-3.4 -4.75" />
<path style="fill:#FFF193;fill-opacity:1" d="M-1.35,-3.9L-1.35 -8.2L-0.4 -3.9L0.6 -4.7L-0.1 -3.05L1.15 -3L-0.95 -2.2L-3.4 -4.75L-1.35 -3.9" />
</g>
</svg>
