<?xml version="1.0" encoding="utf-8"?>
<svg version="1.1" id="Layer_1"
xmlns="http://www.w3.org/2000/svg"
xmlns:xlink="http://www.w3.org/1999/xlink"
width="14px" height="7px"
xml:space="preserve">
<g id="1202" transform="matrix(1, 0, 0, 1, 0, 0.45)">
<path style="fill:#100806;fill-opacity:1" d="M11.4,-0.45L13.25 1.6L13.25 4.45L10.9 6.5L2.45 6.5L0 4.45L0 1.6L2.15 -0.45L11.4 -0.45M12.5,2.75L12.5 1.8L11.05 0.5L3.35 0.5L3.35 1.05L3.35 2.75L3.35 5.5L11.05 5.5L12.5 4.2L12.5 2.75M2.25,2.75L2.25 1.25L2.25 0.5L1.05 1.6L0.8 1.8L0.8 2.75L0.8 4.2L2.25 5.5L2.25 2.75" />
<linearGradient
id="LinearGradID_422" gradientUnits="userSpaceOnUse" gradientTransform="matrix(0, -0.00518799, 0.00714111, 0, 6.65, 1)" spreadMethod ="pad" x1="-819.2" y1="0" x2="819.2" y2="0" >
<stop  offset="0" style="stop-color:#511A16;stop-opacity:1" />
<stop  offset="0.505882" style="stop-color:#6D4414;stop-opacity:1" />
<stop  offset="1" style="stop-color:#511A16;stop-opacity:1" />
</linearGradient>
<path style="fill:url(#LinearGradID_422) " d="M3.35,0.5L11.05 0.5L12.5 1.8L10.55 1.05L3.35 1.05L3.35 0.5M12.5,4.2L11.05 5.5L3.35 5.5L3.35 2.75L12.5 2.75L12.5 4.2M2.25,5.5L0.8 4.2L0.8 2.75L2.25 2.75L2.25 5.5M2.25,1.25L1.05 1.6L2.25 0.5L2.25 1.25" />
<path style="fill:#AD6B39;fill-opacity:1" d="M12.5,2.75L3.35 2.75L3.35 1.05L10.55 1.05L12.5 1.8L12.5 2.75M2.25,1.25L2.25 2.75L0.8 2.75L0.8 1.8L1.05 1.6L2.25 1.25" />
</g>
</svg>
