<?xml version="1.0" encoding="utf-8"?>
<svg version="1.1" id="Layer_1"
xmlns="http://www.w3.org/2000/svg"
xmlns:xlink="http://www.w3.org/1999/xlink"
width="35px" height="51px"
xml:space="preserve">
<g id="432" transform="matrix(1, 0, 0, 1, 0.45, 27.45)">
<path style="fill:#000000;fill-opacity:0.4" d="M15.75,-25.9L18.4 -25.15Q19.9 -24.8 20.75 -23.55Q21.35 -22.7 21.05 -21.7L19.35 -20.3Q18.05 -19.4 16.55 -18.95Q15.4 -18.55 14.45 -19.25Q14.25 -19.4 14.3 -19.7L14.3 -19.8L14.3 -19.95L14.3 -20.25L14.35 -20.55L14.4 -20.8L14.45 -20.95L13.9 -21.5L13.85 -21.5L12.85 -22.05L12.45 -22.35Q12.3 -22.9 12.55 -23.35L13.4 -24.3L15.05 -25.55L15.75 -25.9M31.5,5.3L31.75 5.2Q33.75 6 32.8 8.1Q31.95 9.95 30.2 11.05L27.9 11.2L27.9 11.1L27.9 10.95L27.9 10.8L27.9 10.65L27.9 10.5L27.55 10.1Q27.1 9.75 27.1 9.25L27.15 8.4L27.15 8.25L28.65 7.25Q29.75 6.35 31.15 5.85L31.25 5.7L31.3 5.6L31.35 5.45L31.5 5.3M22.15,10.6Q21.55 12.05 19.8 12.5Q16.55 13.3 16.35 10.45Q16.3 10 16.5 9.65L15.35 8.6Q14.05 7.55 14.85 6Q15.45 4.75 16.8 4.35L17.25 4.15L19.6 4.7Q20.8 5.25 20.9 6.5L20.75 7.9Q23.1 8.4 22.15 10.6M8.65,5.35Q8.75 7.15 9.95 8.55L11.5 10.15Q9.65 13.05 6.45 12.75Q2.55 12.4 -0.25 9.5L-0.15 8.75Q0.35 7.75 1 6.9Q1.7 5.95 1.5 4.95L1.45 4.65Q1.5 4.3 1.85 4.25L6.1 3.45Q8.5 3.2 8.65 5.35M7.8,14.25L8.75 13.55L9.95 13.6L10.3 13.95L10.35 14.05L11.35 13.95Q11.75 13.75 12.2 13.7Q12.95 14.2 12.75 15.15Q12.3 17.4 10.15 17.95Q9.05 18.2 8.1 17.6L7.6 17.4Q7.25 17.35 7 17.1L6.9 16.55Q6.7 16.15 6.8 15.75Q7.1 14.85 7.8 14.25M2.65,17.85Q3.6 17.65 4.25 18.3L5.3 19.65L5.7 20.9L5.85 21.05L6.35 21.35L6.75 21.75Q7 22 6.9 22.35Q5.7 23.5 4.45 22.25Q3.25 21.05 1.8 20.35L1.1 19.5L1.1 19.35L1.2 18.9Q1.55 18.5 2 18.2Q2.35 17.95 2.65 17.85" />
<path style="fill:#000000;fill-opacity:0.4" d="M15.15,-27.45Q18.95 -26.25 16.85 -23.3Q16.6 -22.95 16.1 -22.9Q11.85 -22.65 13.55 -26.1Q14.1 -27.15 15.15 -27.45M33.65,9.05Q33.15 10.55 31.6 10.05Q28.35 8.9 30.75 6.4L30.9 6.3Q34.6 6.15 33.65 9.05M0.25,2.55Q0.85 -0.25 3.4 -1.2Q11.35 -0.55 8 6Q6.75 8.5 3.85 7.95Q-0.7 7 0.25 2.55M1.15,14.7Q3.7 14.8 4.9 17.05Q6.25 19.55 3.35 20.05Q2 20.3 0.65 19.7L0.2 18.85Q-0.3 18.1 -0.4 17.2Q-0.6 15.7 0.55 14.95Q0.85 14.75 1.15 14.7M10.7,15Q11.15 13 13.15 12.65Q18.6 13.15 15.6 17Q13.95 19.1 11.8 17.7Q10.35 16.8 10.7 15" />
</g>
</svg>
