<?xml version="1.0" encoding="utf-8"?>
<svg version="1.1" id="Layer_1"
xmlns="http://www.w3.org/2000/svg"
xmlns:xlink="http://www.w3.org/1999/xlink"
width="25px" height="16px"
xml:space="preserve">
<g id="882" transform="matrix(1, 0, 0, 1, 4.1, -5.85)">
<path style="fill:#000000;fill-opacity:1" d="M19.8,11.6L18.95 13.1L13.1 14.6Q12.5 14.65 12.05 15.25L13.9 17L16.5 17.05L18.7 16.75L19.1 19.95L18.9 20.1Q18.25 20.85 17.5 20.45L17.1 19.3Q14.6 20.4 12.25 18.8L9.3 16.75L4.3 15.7L3.95 16.15L1.5 17.25Q0.35 17.75 -0.2 18.75Q-0.85 19.9 -0.95 21.1L-2.75 21.5L-3.5 20.7L-3.45 20.05Q-2.7 19.05 -2.2 17.75L-1.65 16.95Q-1.1 16.3 -0.55 16Q1.2 15.5 1.9 14.2Q1.15 14.9 0.4 14.85Q-0.6 15 -1.6 14.1Q-3.45 12.5 -1.95 10.55Q-1 9.3 0.2 9.4Q0.75 9.5 1.1 9.95Q2.05 11.2 2.75 10.95L2.8 10.85L2.55 9.9L1.7 8.65L-1.65 8.35L-2.1 8.7Q-3.15 9 -4.1 8.2L-4.1 7.2Q-3.15 6.2 -2 6.4L0.25 5.9Q1.45 5.7 2.7 6.5Q4.1 7.5 4.55 9.15L5.15 10.65L7.9 10.8Q9.35 10.8 10.25 11.9L10.55 12.5L17.45 10.75L18.65 9.4L19.85 9.75Q20.15 10.7 19.8 11.6" />
</g>
</svg>
