<?xml version="1.0" encoding="utf-8"?>
<svg version="1.1" id="Layer_1"
xmlns="http://www.w3.org/2000/svg"
xmlns:xlink="http://www.w3.org/1999/xlink"
width="44px" height="27px"
xml:space="preserve">
<g id="1051" transform="matrix(1, 0, 0, 1, 22.1, 18.75)">
<path style="fill:#FFCC00;fill-opacity:0.2" d="M9.8,-5.2L10.15 -5.25L12.2 -4.95L14.25 -4.15L14.4 -3.9Q14.3 -3.75 14.1 -3.75L13.25 -3.9Q12.55 -4.15 12 -4.55L11.95 -4.6L11.15 -4.7L9.8 -4.9Q9.6 -4.9 9.5 -5.05L9.5 -5.1L9.65 -5.15L9.8 -5.2M19.1,-1.9Q18.8 -2.05 18.8 -2.15L18.9 -2.15L19.6 -1.8L20.2 -1.3L20.25 -1.2L20.3 -1.1L20.3 -1.05L20.3 -0.95L20.25 -0.8L20.55 -0.55L21.1 -0.2L21.15 -0.1L21.15 0.05L21.15 0.1L21.1 0.15L21.1 0.2L21.05 0.3L19.65 0.9L18.5 1Q18.7 0.6 19.2 0.45L20.3 0L20.2 -0.2L20 -0.3L19.75 -0.5L19.75 -0.6L19.75 -0.75L19.75 -0.85L19.75 -0.95L19.7 -1L19.65 -1.05L19.6 -1.1L19.45 -1.15L19.4 -1.2L19.4 -1.25L19.35 -1.4L19.4 -1.45L19.4 -1.55L19.45 -1.7L19.1 -1.9M0,-11.55L-0.05 -11.5L-0.35 -15.05L-0.2 -18.6L-0.1 -18.75L0.1 -15.2L0 -11.55M15.85,4.55L16.05 4.9L16.05 4.95Q14.95 5.6 13.35 5.6Q12.85 5.65 12.7 5.25L15.15 4.5L15.55 4.45L15.85 4.55M4.2,6.65L5.85 6.7L7.5 6.8L7.65 6.95Q7.5 7.5 6.7 7.5L4.95 7.2Q4.4 7 4.25 7.5L4.2 7.55L3.8 7.55L3.45 7.5L3.05 7.5L2.9 7.4L2.85 7.35L3 7.25L3.5 7.15L3.8 6.95L4 6.75L4.1 6.7L4.2 6.65M-16.6,-3.45L-16.35 -3.4L-16.15 -3.3L-17.15 -2.9L-18.2 -2.45L-18.5 -2.05Q-18.35 -1.65 -18.8 -1.45L-19.75 -0.95L-20.45 -0.9L-20.25 -1.35L-19.6 -1.65Q-19.25 -1.75 -19 -2L-19 -2.1L-19 -2.35L-18.75 -2.55L-18.55 -2.65L-18.5 -2.75L-18.45 -2.8L-18.45 -2.9L-18.4 -2.95L-17.95 -3.1L-17.25 -3.35L-16.85 -3.45L-16.6 -3.45M-8.5,-5.45L-9.1 -5.3L-9.2 -5.3L-8.85 -5.55L-8.45 -5.7L-8.45 -5.75Q-8.1 -5.55 -8.5 -5.45M-5.5,7L-3.4 7.55L-6.85 7.45L-9.05 7.05Q-10.3 6.95 -10.85 6.2Q-12 6.35 -12.65 5.8L-12.5 5.55L-12.15 5.45L-12.05 5.4L-11.85 5.45L-12.15 5.7L-12.15 5.75L-9.5 6.1L-5.5 7M-19.85,2L-19.9 2.05L-19.9 2.1L-19.95 2.2L-19.95 2.25L-19.85 2.35L-19.8 2.45L-19.8 2.5L-19.75 2.55Q-18.3 2.6 -17.05 3.15L-16 3.5L-15.3 3.95Q-16.45 4.35 -17.8 3.6Q-18.9 3 -20.2 2.8L-20.25 2.75L-20.3 2.7L-20.3 2.6L-20.3 2.45L-20.4 2.4L-20.5 2.4L-20.7 2.3L-20.75 2.2L-20.7 2.05L-20.65 2.05L-20.25 1.9L-20.15 1.8L-20.55 1.7L-22.1 1.5L-21.65 1.45L-21.25 1.45L-21.25 1.4L-20.9 1.45L-20.2 1.55L-19.85 1.95L-19.85 2" />
</g>
</svg>
