<?xml version="1.0" encoding="utf-8"?>
<svg version="1.1" id="Layer_1"
xmlns="http://www.w3.org/2000/svg"
xmlns:xlink="http://www.w3.org/1999/xlink"
width="12px" height="29px"
xml:space="preserve">
<g id="119" transform="matrix(1, 0, 0, 1, -6.2, -4.9)">
<path style="fill:#D7D7D7;fill-opacity:0.0862745" d="M13.65,4.95Q17.1 4.4 17.3 8.55L16.3 11.75Q18.05 14.2 17.15 17.05Q17.6 18.05 17.7 19.25Q17.85 22.4 16.8 25.35Q16.15 27.15 16.1 29Q16 30.2 15.45 31.2Q13.75 34.35 10.65 32.25Q9.05 27.55 10.85 22.75L8.3 22.55Q7.3 22.3 6.85 21.25Q4.95 16.95 8.65 15Q9.6 10.8 11.35 6.8Q12.1 5.15 13.65 4.95" />
</g>
</svg>
