<?xml version="1.0" encoding="utf-8"?>
<svg version="1.1" id="Layer_1"
xmlns="http://www.w3.org/2000/svg"
xmlns:xlink="http://www.w3.org/1999/xlink"
width="54px" height="16px"
xml:space="preserve">
<g id="1091" transform="matrix(1, 0, 0, 1, 14.2, 13.6)">
<path style="fill:#2E1803;fill-opacity:1" d="M8.15,-10.75L9.15 -10.75L6.95 -8.55L9.35 -6.15L11.7 -8.55L9.5 -10.75L10.5 -10.75L12.2 -9.05L13.9 -10.75L14.9 -10.75L12.7 -8.55L15.1 -6.15L17.5 -8.55L15.3 -10.75L16.3 -10.75L18 -9.05L19.7 -10.75L20.7 -10.75L18.5 -8.55L20.85 -6.2L23.2 -8.55L21 -10.75L22 -10.75L23.7 -9.05L25.4 -10.75L26.4 -10.75L24.2 -8.55L26.4 -6.35L26.4 -5.9L25.85 -5.9L23.7 -8.05L21.55 -5.9L20.15 -5.9L18 -8.05L15.85 -5.9L14.35 -5.9L12.2 -8.05L10.05 -5.9L8.6 -5.9L6.45 -8.05L4.3 -5.9L2.8 -5.9L0.65 -8.05L-1.5 -5.9L-2.9 -5.9L-5.05 -8.05L-7.2 -5.9L-8.7 -5.9L-10.85 -8.05L-13 -5.9L-14 -5.9L-11.35 -8.55L-13.55 -10.75L-12.55 -10.75L-10.85 -9.05L-9.15 -10.75L-8.15 -10.75L-10.35 -8.55L-7.95 -6.15L-5.55 -8.55L-7.75 -10.75L-6.75 -10.75L-5.05 -9.05L-3.35 -10.75L-2.35 -10.75L-4.55 -8.55L-2.2 -6.2L0.15 -8.55L-2.05 -10.75L-1.05 -10.75L0.65 -9.05L2.35 -10.75L3.35 -10.75L1.15 -8.55L3.55 -6.15L5.95 -8.55L3.75 -10.75L4.75 -10.75L6.45 -9.05L8.15 -10.75" />
<path style="fill:#858585;fill-opacity:1" d="M35.25,-5.2L33.2 -4.3L23.2 -4.25L15.95 -4.25L14.75 -4.25L13.5 -4.25L-13.6 -4.25L-13.6 -5.2L35.25 -5.2M34.25,-12.25L36.85 -11.4L13.5 -11.35L13.5 -11.3L-13.6 -11.3L-13.6 -12.25L34.25 -12.25" />
<path style="fill:#2E1803;fill-opacity:1" d="M36.85,-5.9L-13.6 -5.9L-13.6 -5.2L-13.6 -4.25L13.5 -4.25L14.75 -4.25L15.95 -4.25L23.2 -4.25L33.2 -4.3L35.25 -5.2L36.85 -5.9M32.05,-12.95L-13.6 -12.95L-13.6 -12.25L-13.6 -11.3L13.5 -11.3L13.5 -11.35L36.85 -11.4L34.25 -12.25L32.05 -12.95M25.05,-0.6L9.25 -0.6L6.75 2.2L-5.8 2.2L-8.75 -3.6L-14.2 -3.6L-14.2 -6.45L39.45 -6.45L33.45 -3.6L27.75 -3.6L25.05 -0.6M26.45,-3.6L-7.55 -3.6L-5.15 1.15L6.2 1.15L8.5 -1.45L24.35 -1.45L26.45 -3.6M39.45,-10.75L-14.2 -10.75L-14.2 -13.6L33.45 -13.6L39.45 -10.75" />
<path style="fill:#683C14;fill-opacity:1" d="M24.35,-1.45L8.5 -1.45L6.2 1.15L-5.15 1.15L-7.55 -3.6L26.45 -3.6L24.35 -1.45" />
<path style="fill:#C6C6C6;fill-opacity:1" d="M-13.6,-5.2L-13.6 -5.9L36.85 -5.9L35.25 -5.2L-13.6 -5.2M34.25,-12.25L-13.6 -12.25L-13.6 -12.95L32.05 -12.95L34.25 -12.25" />
</g>
</svg>
