<?xml version="1.0" encoding="utf-8"?>
<svg version="1.1" id="Layer_1"
xmlns="http://www.w3.org/2000/svg"
xmlns:xlink="http://www.w3.org/1999/xlink"
width="15px" height="15px"
xml:space="preserve">
<g id="1276" transform="matrix(1, 0, 0, 1, -0.25, -0.95)">
<path style="fill:#7EF0FF;fill-opacity:0.498039" d="M12.05,3.45L13.3 4.35L14 5.25Q14.3 5.65 15.15 5.75L15.25 5.85L15.15 6L14.8 6.1L11.8 4L11.2 5.95L11.65 6.55L12.05 7.15L13.2 7.6L14.45 8.45L14.35 8.6L12.7 7.95L11.95 7.6L11.85 7.7L11.2 8.05L10.15 7.4Q9.5 6.75 9 6.75L8.05 6.9L7.65 6.75L7.6 6.6L7.75 6L7.95 5.35Q8.1 4.6 6.9 4.6L6.45 4.6L6.55 4.75L6.15 5.8L5.7 6.4L5.7 6.5L5.2 6.95L4.85 7.1L5.3 6.75L5.35 6.6L3.2 6.85L2.8 6.7L2.15 6.85Q1.45 6.85 1.5 5.1L1.65 3.65L1.7 2L1.75 2L1.95 3.5L1.85 5.1Q1.85 6.6 2.35 6.6L2.85 6.45L3.25 6.6L5.3 6.3L5.45 6.3L6.25 4.8L6.25 4.65L5.85 5L5.7 5.1L5.55 4.9L5.95 4.55L6.05 4.5L5.8 4.3L6.55 3.3Q7.25 2.45 7.25 1.9L6.9 1.55L6.45 0.95L7.75 1.3Q8.85 1.8 9.1 2.45L9.35 3.45Q9.65 4 10.45 4.1L10.1 4.35Q9.45 4.35 8.95 3.1Q8.45 1.85 7.55 1.75Q7.55 2.75 6.9 3.55L6.25 4.2L6.35 4.4L7.1 4.35Q7.9 4.35 8.15 4.85L8.25 5.4L8.2 5.85L7.95 6.5L8 6.55L9 6.4Q9.8 6.4 10.3 7.05L11.1 7.7Q11.55 7.7 11.7 7.35L11.65 7.15L11.65 7.1L11.3 6.7Q10.85 6.25 10.85 5.85Q11.45 4.7 11.3 3.7L11.3 3.1Q11.6 3.15 12.05 3.45M12.4,10.5Q12.15 10.25 11.8 10.25L10.35 10.55L10 10.55L9.95 10.4Q9.95 10.1 11.4 9.95Q12.8 9.75 12.8 10.45L12.1 11.15L11.1 11.65Q11.9 11.55 12.4 12.05L12.75 12.7L12.2 13.25Q11.65 13.7 11.65 13.9Q11.65 14.35 11.9 14.45L13 15.3L13 15.4L12.8 15.4Q11.65 15.4 11.4 14.75L11.3 13.9Q11.3 13.5 11.55 13.35L12.35 12.7Q12.2 12.3 11.05 12.2L10 11.95L9.95 11.95L9.15 11.8L7.85 11.65L8.15 12.85L8.4 13.8L8.35 14L8.2 14L5.1 13.55L4.95 14.2L4.8 13.75L4.7 13.35L4.75 13.2L4.95 13.15L6.15 13.3L6.35 12.7Q6.35 12.2 5.4 12Q4.45 11.7 4.45 11.45Q4.45 11.25 4.6 11L2.35 10.25L2.4 10.15L4.95 10.75L4.85 11.1L4.65 11.4L5.95 11.95Q6.5 12.2 6.5 12.6L6.4 12.95L6.2 13.35L7.45 13.5L7.8 13.5L7.8 12.75L7.45 11.8L7.25 11.1Q7.25 10.8 7.55 10.6Q7.85 10.45 7.9 11L8.6 11.5L10 11.7Q10.15 11.4 10.85 11.1L12.4 10.5M0.55,5.3L1.45 5.35L1 5.3Q0.65 5.3 0.5 5.8L0.35 6.5L0.25 6L0.55 5.3M4.25,7.4L4.2 7.5L5.25 7.8L5.7 8.1L4.55 10.6L4.45 10.6L4.4 10.5L4.85 9.4L5.5 8.25L4.45 7.85L4 7.5Q4 7.35 4.3 7.35L4.45 7.3L4.25 7.4" />
</g>
</svg>
