<?xml version="1.0" encoding="utf-8"?>
<svg version="1.1" id="Layer_1"
xmlns="http://www.w3.org/2000/svg"
xmlns:xlink="http://www.w3.org/1999/xlink"
width="18px" height="29px"
xml:space="preserve">
<g id="1015" transform="matrix(1, 0, 0, 1, -0.35, 0.1)">
<path style="fill:#D9E9FF;fill-opacity:1" d="M13.2,-0.1Q13.55 0.25 13.2 0.9L13.15 0.95Q12.05 0.9 11.1 1.4Q12 1.6 12.45 2.1Q11.55 2.3 10.6 1.45L10.5 1.2Q11.5 0.55 12.8 0.6Q12.85 0.2 13.15 -0.1L13.2 -0.1M16.4,5.2L16.35 5.2L15.15 6.2Q15.65 5.05 16.6 5.1Q17.4 5.15 17.9 4.45Q18.15 5.7 16.4 5.2M12.25,3.85L12.3 3.9Q12.8 5.45 11.95 6.8Q11.65 7.3 11.3 6.8L10.25 5.55L10.15 5.45Q9.25 6 8.5 6.15Q10.2 4.05 11.85 6.5Q12.2 5.15 11.8 3.75L11.9 3.7Q12.1 3.7 12.25 3.85M13.15,7.2Q14.95 7.35 15.2 9.45L15.5 9.9Q16.45 10.5 16.85 9.45L17 9.4L17.25 9.45L17.35 9.5Q16 11.45 14.8 9.6L13.9 10.7L14 10.9L14.4 11.6Q12.95 11.3 13.65 10L14.2 9.45L14.55 9.2L14.5 9.1L14.05 8.05Q13.85 7.3 13 7.2L13.15 7.2M8.1,4.25Q7.25 4 6.35 3Q5.5 2.05 4.1 2.2L3.85 1.9Q3.75 1 4.45 0.55L4.5 1.95L4.9 2.05Q6.25 1.75 7.2 2.9L8.1 4.25M1.2,4.2Q1.9 4.35 2.25 4.95L2.3 5Q1.6 5.7 1.9 6.45L2 6.75Q0.95 6.55 1.55 5.5L1.8 5.2Q1.35 4.5 0.5 4.5Q0.65 4.25 0.95 4.25L1.2 4.2M4.15,7.9L5 7.6Q5.5 7.45 5.75 7.8L5.8 7.85Q4.1 7.8 3.5 9.15Q3.35 9.55 3.65 9.9Q4.7 11.05 3 11.2Q2.45 11.2 2.2 10.9L3.65 10.6L3.7 10.55Q2.05 8.8 4.15 7.9M6.65,12.1Q5.15 11.65 3.65 12.35L4.05 13.4L4.2 13.65L4.25 13.65Q6.9 13.7 5.1 15.6L5.05 15.6Q6.15 16.4 7.4 16.9L7.45 16.85Q7.7 16.35 8.1 16.6L8.1 16.8L7.5 17.5Q6.55 17.2 5.9 16.7Q5.35 17.6 3.9 18.2L2.8 18.6Q2.8 19.55 2.95 20.45L2.8 20.95L2.7 21.15Q3.4 21.6 3.95 22.15L2.8 22.9L4.7 23.55Q5.05 22.75 6.1 22.55L7.25 22.4L6.55 21.4Q5.8 20.45 6.65 19.85Q8.8 19.3 9.5 20.9L9.5 20.95Q9 21.1 8.5 20.45Q8.4 20.3 8.2 20.3L6.6 20.35L7 21.15L7.8 22.75Q6.45 22.85 5.15 23.45L4.9 23.6L5.6 23.8L5.2 24.25Q5.35 24.9 4.65 25.75Q5.6 27 3.75 26.9Q3 26.9 2.6 27.45L2.8 27.95Q1.95 28.05 1.2 27.15Q0.35 26.25 0.35 25.15L0.7 25.15Q1.1 26.35 2.15 27.2Q3.1 26.15 4.5 26.3Q3.95 25.2 5.1 24.25L4.8 24.15L4.75 24.15Q4.45 23.7 3.35 23.5Q1.9 23.2 2.65 22.5Q2.95 22.25 3.4 22.15Q1.8 21.7 2.6 20.55L2.75 20.2Q1.8 18.8 3.15 18.15Q4.6 17.5 5.85 16.65Q5.2 16.1 4.85 15.35Q4.75 15.2 4.95 15L5.45 14.35L3.8 14.3L3.95 14.3Q3.7 14.6 3.3 14.5L3.25 14.45Q3.15 14.25 3.3 14.1L3.85 13.75Q3.5 13.5 3.4 12.55Q3.25 11.65 4.5 11.45L5.25 11.3Q6.05 11.65 6.65 12.1M9.15,18.4Q10.55 19.15 12.15 19.35L12.5 19.45Q13.5 17.95 14.6 19.65L15.3 20.7Q15.8 21.55 14.65 22.05Q13.75 22.4 13.05 23.15L13.1 23.35L13.1 23.45L12.5 23.5Q12.8 22.35 14.05 21.7L15.1 20.95L14.1 19.8Q13.75 19.1 13.1 19.15L12.75 19.85L12.45 20Q11.1 19.2 9.35 18.8Q8.8 18.65 9.15 18.4M15.3,17.85Q12.65 17.6 13.45 15L13.45 14.85Q11.65 14.35 11.05 15.8L10.75 15.7L10.5 15.45Q11.55 14.3 13.1 14.25Q14.25 14.65 13.9 15.95L13.9 16.2Q13.95 17.95 15.35 16.75Q15.85 16.35 16.25 16.75L15.35 17.75L15.3 17.85M15.9,24.2Q16.9 25.7 15.5 27.2Q15.35 27.4 15.65 27.55L16.1 28.1Q14.75 28.2 15.2 26.7L15.75 25.55L15.85 25.15L15.85 24.7Q14.15 24.65 14.35 26.15Q13.45 25.75 14.5 24.65Q15.05 24.05 15.9 24.2M10.5,23.4Q10.6 24.2 9.5 24.75L9.45 24.8Q11.45 25.65 11.6 27.5L11.5 27.85L12.8 27.7L11.25 27.65L11.3 27.15Q10.65 25.95 9.5 25.25Q8.45 24.55 9.95 23.7L10.5 23.4" />
</g>
</svg>
