<?xml version="1.0" encoding="utf-8"?>
<svg version="1.1" id="Layer_1"
xmlns="http://www.w3.org/2000/svg"
xmlns:xlink="http://www.w3.org/1999/xlink"
width="20px" height="22px"
xml:space="preserve">
<g id="1099" transform="matrix(1, 0, 0, 1, -47.25, 4.25)">
<path style="fill:#C9C9C9;fill-opacity:1" d="M50.1,-3.55L49.75 -2.85L49.4 -2.55L48.8 -2.4L47.85 -2.6Q47.25 -2.8 47.25 -3.1L47.65 -3.85Q48.1 -4.25 49 -4.25Q50.1 -4.25 50.1 -3.55M56.95,-2.95L56.25 -3.15Q55.85 -3.15 55.85 -3.65Q55.85 -4.25 56.8 -4.25Q57.75 -4.25 57.75 -3.6Q57.75 -2.95 56.95 -2.95M63.35,11.8L61.6 11.45L63.9 11.4L65.25 12.3Q65.8 12.5 66.15 13.3L66.4 14.6L66.2 15.35L64.85 16.2L64.7 16.2L64.65 16Q64.65 15.8 65.2 15.35L65.7 14.65L65.5 13.45L65.25 13.15L64.2 13.25L63.55 13.15L63.5 12.85L63.7 12.5L64.2 12.25L63.35 11.8M61.45,1L61.55 1.15Q61.55 2.1 59.45 2.1L58.2 1.85L58.05 1.6Q58.05 1 58.7 1L60.5 1.15L61.2 0.95L61.45 1M62.45,16.4L62.8 16L61.75 16L61.55 15.75L61.65 15.6L62.95 15.75L63.35 16.35L63.4 16.85L63.2 17.75L62.8 17.75L62.9 16.85L62.75 16.75L62.45 16.4M52,11.7L51.6 11.45L51.6 11.2L52.75 11.2Q53.55 11.2 54.35 10.7L55.2 10L59 9.85L59.25 10.05L57.4 10.55L55.4 10.9Q55.1 11.25 54.3 11.5L52.85 11.8L52 11.7M50.05,2.1Q50.05 2.9 48.35 2.9Q47.95 2.9 47.85 2.6L47.8 2.25Q47.8 2 48.3 1.7Q48.95 1.3 49.55 1.45Q50.05 1.5 50.05 2.1M57.9,16.05Q57.8 16.4 57.05 16.4Q55.7 16.4 55.7 15.7Q55.7 15.15 56.6 15.35Q57.45 15.5 57.9 16.05" />
</g>
</svg>
