<?xml version="1.0" encoding="utf-8"?>
<svg version="1.1" id="Layer_1"
xmlns="http://www.w3.org/2000/svg"
xmlns:xlink="http://www.w3.org/1999/xlink"
width="21px" height="17px"
xml:space="preserve">
<g id="1041" transform="matrix(1, 0, 0, 1, 11.3, 12.5)">
<path style="fill:#232323;fill-opacity:0.498039" d="M7.8,-9.65Q6.65 -9.65 5.9 -10.35Q5.25 -10.95 5.25 -11.4L5.5 -11.95L5.9 -12.25L5.9 -12.35L5.95 -12.35L6.2 -12.4L6.35 -12.35L6.45 -12.4L6.9 -12.35L7.3 -12.5Q8 -12.5 8.5 -11.9L8.85 -11L8.55 -10.15L7.8 -9.65M0.05,-4.6Q-0.4 -4.05 -1.15 -4.05Q-2.8 -4.05 -2.8 -5.05Q-2.8 -6 -1.15 -6.05Q0.45 -6.05 0.45 -5.35L0.05 -4.6M5.7,0.75Q6.9 1.05 6.9 1.45Q6.9 2 5.6 2Q5.05 2 4.75 1.65L4.5 1.15Q4.5 0.35 5.7 0.75M-4,-11.6Q-2.6 -10.65 -2.6 -10.1Q-2.6 -9.25 -3.85 -9.25Q-6 -9.2 -6 -9.9L-5.5 -10.7L-4.5 -11.6L-4 -11.6M-9.3,1.15L-10.05 1.35Q-11.3 1.35 -11.3 0.65Q-11.3 -0.25 -10.05 -0.1Q-8.85 0 -8.85 0.7Q-8.85 1 -9.3 1.15M-3.05,2.85Q-3.05 1.65 -1.25 1.65Q0.5 1.65 0.5 2.85Q0.5 4 -1.2 4Q-2.05 4 -2.6 3.55L-3.05 2.85" />
<path style="fill:#232323;fill-opacity:0.631373" d="M3.3,-3.9L3.05 -4.4L2.3 -4.3Q0.75 -4.3 0.75 -5.3Q0.75 -7 2.55 -6.7Q4.05 -6.5 4.25 -5.6Q5.7 -5.55 5.7 -4.5L5.4 -3.9Q5 -3.5 4.55 -3.5Q3.75 -3.45 3.3 -3.9M0.4,-3.7L0.45 -3.75L1.2 -3.95L1.65 -3.9Q2.7 -4.05 3.4 -3.4L3.85 -2.5Q3.85 -1.8 3.1 -1.6L3.15 -1.25Q3.15 -0.8 2.45 -0.4Q1.7 0.05 0.55 0.05Q-0.45 0.05 -1.15 -0.4Q-1.7 -0.8 -1.7 -1.25L-1.25 -1.95L-1.4 -2.4L-0.95 -3.2L0.3 -3.7L0.4 -3.7M0.8,-2.4L0.45 -2.25L0.8 -1.7L2.1 -1.7L2.15 -1.75Q2.15 -1.95 2.3 -2L2.1 -2.1L0.8 -2.4M-3.8,-3.95Q-2.15 -3.95 -2.15 -2.65Q-2.15 -1.55 -3.55 -1.55Q-5.3 -1.8 -5.3 -2.7L-4.9 -3.4Q-4.35 -3.9 -3.8 -3.95" />
</g>
</svg>
