<?xml version="1.0" encoding="utf-8"?>
<svg version="1.1" id="Layer_1"
xmlns="http://www.w3.org/2000/svg"
xmlns:xlink="http://www.w3.org/1999/xlink"
width="28px" height="12px"
xml:space="preserve">
<g id="1243" transform="matrix(1, 0, 0, 1, -0.55, 4)">
<path style="fill:#1F0E05;fill-opacity:0.988235" d="M5.85,0.55L5.85 1.85L5.85 4.55L5.85 5.85L5.85 6.85L6.75 6.35L6.75 5.55L6.75 4.55L6.75 1.85L6.75 0.6L6.75 -0.9L6.75 -2.55L5.85 -3.05L5.85 -1.35L5.85 0.55M7.2,-0.25L8.7 -0.55L8.7 -3.95L10.45 -2.85L10.45 -0.25L11.85 -0.55L11.85 -3.95L13.6 -2.85L13.6 -0.25L15.15 -0.55L15.15 -4L16.9 -2.9L16.9 -0.3L18.45 -0.6L18.45 -4L20.2 -2.9L20.2 0.9L23.15 0.9L23.15 -0.65L23.7 -0.65L23.85 -0.65Q25.65 -0.65 26.9 0.1Q28.15 0.9 28.15 2Q28.15 3.1 26.9 3.85Q25.65 4.65 23.85 4.65L23.7 4.65L23.15 4.6L23.15 2.85L20.2 2.85L20.2 6.55L18.45 7.75L18.45 4.25L16.9 3.9L16.9 6.6L15.15 7.8L15.15 4.3L13.6 3.95L13.6 6.6L11.85 7.8L11.85 4.3L10.45 4L10.45 6.6L8.7 7.8L8.7 4.3L7.2 3.95L7.2 6.6L5.45 7.8L5.45 4.3L3.9 3.95L3.9 3.7L0.55 3.7L0.55 0.05L3.9 0.05L3.9 -0.25L5.45 -0.55L5.45 -3.95L7.2 -2.85L7.2 -0.25M9.1,0.55L9.1 1.85L9.1 4.55L9.1 5.85L9.1 6.85L10 6.35L10 5.55L10 4.55L10 1.85L10 0.6L10 -0.9L10 -2.55L9.1 -3.05L9.1 -1.35L9.1 0.55M12.25,0.55L12.25 1.85L12.25 4.55L12.25 5.85L12.25 6.85L13.15 6.35L13.15 5.55L13.15 4.55L13.15 1.85L13.15 0.6L13.15 -0.9L13.15 -2.55L12.25 -3.05L12.25 -1.35L12.25 0.55M15.55,0.55L15.55 1.85L15.55 4.55L15.55 5.85L15.55 6.85L16.45 6.35L16.45 5.55L16.45 4.55L16.45 1.85L16.45 0.6L16.45 -0.9L16.45 -2.55L15.55 -3.05L15.55 -1.35L15.55 0.55M19.75,5.5L19.75 4.5L19.75 1.8L19.75 0.55L19.75 -0.95L19.75 -2.6L18.85 -3.1L18.85 -1.4L18.85 0.5L18.85 1.8L18.85 4.5L18.85 5.8L18.85 6.8L19.75 6.3L19.75 5.5M26.25,0.55Q25.2 0 23.75 0L23.7 0L23.7 4.05L23.75 4.05Q25.2 4.05 26.25 3.45Q27.3 2.9 27.3 2Q27.3 1.15 26.25 0.55M23.15,1.4L20.25 1.4L20.25 2.1L23.15 2.1L23.15 1.4M17,3.6L18.35 3.8L18.35 2.85L18.35 2.05L17 1.9L17 2.85L17 3.6M15.05,2.9L15.05 2.1L13.7 1.95L13.7 2.9L13.7 3.65L15.05 3.85L15.05 2.9M11.75,2.9L11.75 2.1L10.45 1.95L10.45 2.9L10.45 3.65L11.75 3.85L11.75 2.9M7.25,3.65L8.6 3.85L8.6 2.9L8.6 2.1L7.25 1.95L7.25 2.9L7.25 3.65M4,3.65L5.35 3.85L5.35 2.9L5.35 2.1L4 1.95L4 2.9L4 3.65M1.55,3.15L3.9 3.15L3.9 2.4L3.9 1.5L1.55 1.5L1.55 2.4L1.55 3.15" />
<path style="fill:#3B3B3B;fill-opacity:0.988235" d="M5.85,-1.35L5.85 -3.05L6.75 -2.55L6.75 -0.9L5.85 -1.35M9.1,-1.35L9.1 -3.05L10 -2.55L10 -0.9L9.1 -1.35M12.25,-1.35L12.25 -3.05L13.15 -2.55L13.15 -0.9L12.25 -1.35M15.55,-1.35L15.55 -3.05L16.45 -2.55L16.45 -0.9L15.55 -1.35M18.85,-3.1L19.75 -2.6L19.75 -0.95L18.85 -1.4L18.85 -3.1M26.5,1.1L25.8 0.6L24.2 0.4L23.85 0.4L23.85 0.9L23.85 1.75L23.85 2.25L24.2 2.25L25.8 2.05L26.5 1.55L26.4 1.35L26.5 1.1M27.3,2Q27.3 2.9 26.25 3.45Q25.2 4.05 23.75 4.05L23.7 4.05L23.7 0L23.75 0Q25.2 0 26.25 0.55Q27.3 1.15 27.3 2" />
<path style="fill:#BDBDBD;fill-opacity:0.988235" d="M5.85,0.55L5.85 -1.35L6.75 -0.9L6.75 0.6L5.85 0.55M9.1,0.55L9.1 -1.35L10 -0.9L10 0.6L9.1 0.55M12.25,0.55L12.25 -1.35L13.15 -0.9L13.15 0.6L12.25 0.55M15.65,0.55L15.55 0.55L15.55 -1.35L16.45 -0.9L16.45 0.6L15.65 0.55M19.75,0.55L18.85 0.5L18.85 -1.4L19.75 -0.95L19.75 0.55M26.5,1.55L25.8 2.05L24.2 2.25L23.85 2.25L23.85 1.75L24.2 1.75L25.8 1.6L26.4 1.35L26.5 1.55M26.4,1.35L25.8 1.05L24.2 0.9L23.85 0.9L23.85 0.4L24.2 0.4L25.8 0.6L26.5 1.1L26.4 1.35M23.15,2.1L20.25 2.1L20.25 1.4L23.15 1.4L23.15 2.1" />
<path style="fill:#5F3A23;fill-opacity:0.988235" d="M18.35,2.85L18.35 3.8L17 3.6L17 2.85L18.35 2.85M15.05,3.85L13.7 3.65L13.7 2.9L15.05 2.9L15.05 3.85M11.75,3.85L10.45 3.65L10.45 2.9L11.75 2.9L11.75 3.85M7.25,2.9L8.6 2.9L8.6 3.85L7.25 3.65L7.25 2.9M4,2.9L5.35 2.9L5.35 3.85L4 3.65L4 2.9M1.55,2.4L3.9 2.4L3.9 3.15L1.55 3.15L1.55 2.4" />
<path style="fill:#7E4827;fill-opacity:0.988235" d="M5.85,5.85L5.85 4.55L6.75 4.55L6.75 5.55L5.85 5.85M9.1,5.85L9.1 4.55L10 4.55L10 5.55L9.1 5.85M12.25,5.85L12.25 4.55L13.15 4.55L13.15 5.55L12.25 5.85M16.45,4.55L16.45 5.55L15.65 5.85L15.55 5.85L15.55 4.55L16.45 4.55M19.75,4.5L19.75 5.5L18.85 5.8L18.85 4.5L19.75 4.5" />
<path style="fill:#461F07;fill-opacity:0.988235" d="M6.75,5.55L6.75 6.35L5.85 6.85L5.85 5.85L6.75 5.55M10,5.55L10 6.35L9.1 6.85L9.1 5.85L10 5.55M13.15,5.55L13.15 6.35L12.25 6.85L12.25 5.85L13.15 5.55M15.65,5.85L16.45 5.55L16.45 6.35L15.55 6.85L15.55 5.85L15.65 5.85M17,2.85L17 1.9L18.35 2.05L18.35 2.85L17 2.85M19.75,6.3L18.85 6.8L18.85 5.8L19.75 5.5L19.75 6.3M13.7,1.95L15.05 2.1L15.05 2.9L13.7 2.9L13.7 1.95M10.45,1.95L11.75 2.1L11.75 2.9L10.45 2.9L10.45 1.95M7.25,2.9L7.25 1.95L8.6 2.1L8.6 2.9L7.25 2.9M4,2.9L4 1.95L5.35 2.1L5.35 2.9L4 2.9M1.55,2.4L1.55 1.5L3.9 1.5L3.9 2.4L1.55 2.4" />
<path style="fill:#E0E0E0;fill-opacity:1" d="M5.85,1.85L5.85 0.55L6.75 0.6L6.75 1.85L5.85 1.85M9.1,1.85L9.1 0.55L10 0.6L10 1.85L9.1 1.85M13.15,0.6L13.15 1.85L12.25 1.85L12.25 0.55L13.15 0.6M16.45,0.6L16.45 1.85L15.55 1.85L15.55 0.55L15.65 0.55L16.45 0.6M19.75,1.8L18.85 1.8L18.85 0.5L19.75 0.55L19.75 1.8M23.85,0.9L24.2 0.9L25.8 1.05L26.4 1.35L25.8 1.6L24.2 1.75L23.85 1.75L23.85 0.9" />
<path style="fill:#834C2B;fill-opacity:0.988235" d="M5.85,4.55L5.85 1.85L6.75 1.85L6.75 4.55L5.85 4.55M9.1,4.55L9.1 1.85L10 1.85L10 4.55L9.1 4.55M12.25,4.55L12.25 1.85L13.15 1.85L13.15 4.55L12.25 4.55M15.55,4.55L15.55 1.85L16.45 1.85L16.45 4.55L15.55 4.55M19.75,4.5L18.85 4.5L18.85 1.8L19.75 1.8L19.75 4.5" />
</g>
</svg>
