<?xml version="1.0" encoding="utf-8"?>
<svg version="1.1" id="Layer_1"
xmlns="http://www.w3.org/2000/svg"
xmlns:xlink="http://www.w3.org/1999/xlink"
width="12px" height="28px"
xml:space="preserve">
<g id="874" transform="matrix(1, 0, 0, 1, 4.7, 8.5)">
<path style="fill:#000000;fill-opacity:0.988235" d="M6.25,-6.25L6.25 -5.2L5.65 -2L5.5 -1.5L3.85 3.15L4.05 3.75Q4.5 5.7 3.7 6.8L3.5 7.05L4.3 9.05L5.35 11.6L5.7 12.5L5.85 14.55L5.8 15.35L6.05 15.6L7.3 17.85L6.1 18.55Q3.9 16.9 3.9 15.75Q3.9 14.55 3.3 13.95Q2.9 13.55 2.6 12.65L2.3 11.9Q1.95 11 1.7 11L1.7 10.8L1.6 11.05L1.25 13L1.45 13.05L1.25 13.85Q0.5 15.35 1.35 16.65L0.2 18.15Q-0.85 19.45 -2 18.3L-1.1 16.8L-1.05 16.65L-1.15 14.95L-1.25 11.95L-1.15 11.35L-0.6 7.2L-1.7 6.75L-2 3.7L-2.35 3.15Q-3.45 0.9 -3.95 -1.45L-4.25 -1.85L-4.2 -4.75Q-5.15 -5.9 -4.3 -7.25L-3.4 -7.25L-3.25 -6.65L-3 -5.35L-2.45 -1.55Q-1.5 -0.15 -1.3 1.75L-0.75 1.55L-1.2 0.7Q-2.2 -1.65 -0.15 -3.1L1.15 -2.8L1.85 -2.15Q3.05 -0.55 2.05 1.3L2.85 1.45Q2.95 -0.7 4.25 -2.5L4.6 -4.9L4.65 -5.95Q4.5 -7.25 4.8 -8.35L5.75 -8.5L6.5 -6.55L6.25 -6.25" />
</g>
</svg>
