<?xml version="1.0" encoding="utf-8"?>
<svg version="1.1" id="Layer_1"
xmlns="http://www.w3.org/2000/svg"
xmlns:xlink="http://www.w3.org/1999/xlink"
width="94px" height="77px"
xml:space="preserve">
<g id="330" transform="matrix(1, 0, 0, 1, -4.15, 50.2)">
<path style="fill:#E2E2E2;fill-opacity:0.4" d="M36.05,-50.2L37.5 -49.9L37.55 -49.9Q46.85 -50 49.1 -41.95Q49.5 -40.6 49.1 -39.25Q48.5 -37.2 47.35 -35.6Q52.65 -33.75 53.2 -27.85Q53.7 -22.5 48.75 -20.35Q44.55 -18.55 40.25 -20.4Q34.8 -22.8 33.5 -28.3L33.4 -29L33.1 -28.6L32.9 -28.55Q32.6 -29.25 33 -29.95L33.5 -31.25Q32.1 -31.6 30.8 -32.25Q28.8 -32.3 27.05 -33.85Q25.85 -35 25.35 -36.65L25.5 -36.65Q23.45 -39.65 25.85 -43.2Q28.05 -46.4 31.15 -48.1Q31.2 -48.5 31.6 -48.8Q32.9 -49.7 34.45 -49.95L35.35 -50.15L36.05 -50.2M31.15,-47.85Q27.25 -45.55 25.65 -40.9Q24.75 -38.2 25.95 -36.25L28.1 -34.45L29.45 -33.45Q39.9 -28.6 47.05 -37.4Q48.75 -39.5 48.15 -42.25Q47.35 -45.85 43.65 -47.25Q39.9 -48.6 36.7 -49.2L34.5 -48.95Q32.95 -48.6 31.5 -47.9L31.15 -47.85M33.95,-29.9Q33.5 -24.25 40.1 -21.3Q44.15 -19.5 48.2 -21.25Q53 -23.35 51.95 -28.35Q51 -33.1 46.75 -34.95Q45.05 -33.1 42.4 -32.1Q37.95 -30.4 34.1 -31.15L33.95 -29.95L33.95 -29.9M6.25,-38.35L7.15 -38.3L7.15 -38.25Q2.8 -35.85 6.85 -32.95Q9.55 -31 12.25 -33.05Q14.85 -35.1 11.9 -37.65Q9.95 -39.3 7.3 -38.75L6.95 -38.65L6.6 -38.5L6.25 -38.35M4.2,-35.8Q3.7 -39.15 7.25 -39.9Q14.05 -40.3 14.35 -34Q14.4 -33.4 13.85 -33Q8.3 -28.8 4.65 -34.5Q4.3 -35.05 4.2 -35.8M18.1,-10Q20.3 -11.3 22.8 -11.2Q29.1 -8.95 28.75 -4.05Q30.2 -5.1 32.1 -5.65Q42.2 -3.85 42.45 6Q42.5 8.45 40.9 10.35Q35.45 16.8 28.7 11.05Q25.75 8.55 24.6 4.7Q24.15 3.3 24.45 1.95Q19.8 3.65 15.95 -0.05Q13.05 -2.85 15 -6.35Q15.75 -7.65 17.05 -8.45Q17.1 -9.45 18.1 -10M16.85,-0.45Q21.75 2.85 25.25 -0.15Q26.2 -1.85 27.55 -3.1Q28.25 -5.1 26.65 -7.05Q24.5 -9.6 21.3 -9.75L19.25 -8.75Q15.7 -7.05 15.5 -3.25Q15.35 -1.4 16.85 -0.45M28,-1.15Q27.35 0.4 25.95 1.25Q25 3.85 26.7 7.1Q28.1 9.75 30.75 11.2Q36.9 14.5 40.3 8.7Q43.3 3.7 39.45 -1Q36.6 -4.45 32.1 -4.75L31.4 -4.6Q30.55 -4.7 31.1 -4.5L31.45 -4.35L28.75 -2.25L28.25 -1.85L28 -1.15M72.4,-43.8L72.5 -43.9L72.6 -44L72.7 -44L71.85 -44.2L71.2 -44.15Q60.65 -42.6 58.7 -32.55Q58.45 -31.2 59.25 -29.9Q65.7 -19.75 77.65 -22.35Q81.95 -23.25 83.75 -27.1Q84.75 -29.2 84.2 -31.5Q81.8 -41.2 71.85 -43.55L72.1 -43.7L72.4 -43.8M59.1,-37.2Q63.5 -43.7 71.3 -44.55Q83.55 -42.6 85.35 -30.8Q86.25 -24.55 80.25 -21.9Q71.1 -17.85 63.55 -23.95Q59.5 -27.2 58.2 -32.05Q57.45 -34.75 59.1 -37.2M71.1,-7.55Q69.55 -5.4 70 -2.7Q70.9 2.8 75.9 4.6Q77.15 2.8 79.45 1.3L81.7 -0.05Q83.25 -0.9 84.95 -0.85Q89.85 -1 93.05 1Q97.1 -3.35 93.05 -9.05Q87.75 -16.5 78.7 -13.25Q73.8 -11.5 71.1 -7.55M76.2,-13.25Q79.7 -14.55 83.4 -15.1Q90.65 -15.05 94.4 -9.05Q98.2 -2.95 93.75 1.5Q96.4 3.55 97.65 7.35Q99.6 13.3 94.25 17.05Q86.1 22.8 77.8 17.15Q76 15.9 75.2 13.85Q73.25 9 75.45 5.3Q73.6 5.4 71.85 3.55Q68.9 0.4 69.05 -3.9Q69.3 -10.75 76.2 -13.25M92.35,2.55L92.1 2.45L91.95 2.35L91.85 2.25L91.85 2.2Q88.45 0.2 83.8 0.6L83.5 0.65L83.05 0.75L82.9 0.8L82.9 0.85L83.2 0.9L83.65 1.05L83.7 1.05Q76.2 2.5 75.5 9.7Q75.3 11.5 76.1 13.2Q79.45 20.05 87.85 18.65Q95 17.5 96.5 10.85Q97.2 7.9 95.35 5.4Q94.05 3.65 92.4 2.55L92.35 2.55M65.4,21.9Q60.95 28.2 52.65 26.35Q45.5 24.7 44.25 18.05Q44 16.55 44.15 15.1Q44.8 8.25 51.25 6.8Q63.6 7.45 66 19.3Q66.25 20.7 65.4 21.9M64.05,15.95Q60.1 8.2 51.4 8.05Q46.55 9.35 44.65 14.55Q43.6 17.55 45.25 20.2Q49 26.1 56.4 25.9Q64.1 25.65 64.65 18.9Q64.8 17.35 64.05 15.95M24.85,6.3Q26 7.7 23.1 8.7Q18.05 10.4 13.45 13.2Q10.25 15.2 7.05 16.1Q6.9 15.9 7.05 15.65L7.5 15.2L7.75 15Q7.4 15.05 7 15.25Q6.4 15.55 6.1 15.1Q6.05 14.8 6.15 14.55L6.8 13.75L7 13.55L7.05 13.45L7.1 13.45L6.8 13.2L6.65 13L6.75 12.5L7.35 11.8L7.6 11.6Q6.7 11.85 5.2 12.75Q4.55 13.15 4.3 12.6Q5.25 11.4 7.1 10.6L7.45 10.5Q8.4 9.1 10.5 8.7L12.25 8.1L13.75 7.4L13.9 7.4L14.15 7.5L14.25 7.6L14.35 7.65L22.7 6.5L23.4 6.35L24.05 6.4L24.35 6.55L24.85 6.3M16.9,8.1Q13.3 8.45 10 9.95L8.9 10.45L9.35 10.6Q9.5 11.2 9 11.55Q8.55 11.85 8.6 12.15L8.8 12.35Q9.05 12.75 8.65 13.05L8.1 13.65L7.9 13.9L9.4 14L9.65 14.15Q13.3 11.7 17.25 9.9L21.45 7.95L17 8.15L16.9 8.1" />
<path style="fill:#E2E2E2;fill-opacity:0.2" d="M31.5,-47.9Q32.95 -48.6 34.5 -48.95L36.7 -49.2Q39.9 -48.6 43.65 -47.25Q47.35 -45.85 48.15 -42.25Q48.75 -39.5 47.05 -37.4Q39.9 -28.6 29.45 -33.45L28.1 -34.45L25.95 -36.25Q24.75 -38.2 25.65 -40.9Q27.25 -45.55 31.15 -47.85L31.5 -47.9M33.95,-29.95L34.1 -31.15Q37.95 -30.4 42.4 -32.1Q45.05 -33.1 46.75 -34.95Q51 -33.1 51.95 -28.35Q53 -23.35 48.2 -21.25Q44.15 -19.5 40.1 -21.3Q33.5 -24.25 33.95 -29.9L33.95 -29.95M6.6,-38.5L6.95 -38.65L7.3 -38.75Q9.95 -39.3 11.9 -37.65Q14.85 -35.1 12.25 -33.05Q9.55 -31 6.85 -32.95Q2.8 -35.85 7.15 -38.25L7.15 -38.3L6.25 -38.35L6.6 -38.5M15.5,-3.25Q15.7 -7.05 19.25 -8.75L21.3 -9.75Q24.5 -9.6 26.65 -7.05Q28.25 -5.1 27.55 -3.1Q26.2 -1.85 25.25 -0.15Q21.75 2.85 16.85 -0.45Q15.35 -1.4 15.5 -3.25M28.25,-1.85L28.75 -2.25L31.45 -4.35L31.1 -4.5Q30.55 -4.7 31.4 -4.6L32.1 -4.75Q36.6 -4.45 39.45 -1Q43.3 3.7 40.3 8.7Q36.9 14.5 30.75 11.2Q28.1 9.75 26.7 7.1Q25 3.85 25.95 1.25Q27.35 0.4 28 -1.15L28.25 -1.85M72.1,-43.7L71.85 -43.55Q81.8 -41.2 84.2 -31.5Q84.75 -29.2 83.75 -27.1Q81.95 -23.25 77.65 -22.35Q65.7 -19.75 59.25 -29.9Q58.45 -31.2 58.7 -32.55Q60.65 -42.6 71.2 -44.15L71.85 -44.2L72.7 -44L72.6 -44L72.5 -43.9L72.4 -43.8L72.1 -43.7M78.7,-13.25Q87.75 -16.5 93.05 -9.05Q97.1 -3.35 93.05 1Q89.85 -1 84.95 -0.85Q83.25 -0.9 81.7 -0.05L79.45 1.3Q77.15 2.8 75.9 4.6Q70.9 2.8 70 -2.7Q69.55 -5.4 71.1 -7.55Q73.8 -11.5 78.7 -13.25M92.4,2.55Q94.05 3.65 95.35 5.4Q97.2 7.9 96.5 10.85Q95 17.5 87.85 18.65Q79.45 20.05 76.1 13.2Q75.3 11.5 75.5 9.7Q76.2 2.5 83.7 1.05L83.65 1.05L83.2 0.9L82.9 0.85L82.9 0.8L83.05 0.75L83.5 0.65L83.8 0.6Q88.45 0.2 91.85 2.2L91.85 2.25L91.95 2.35L92.1 2.45L92.35 2.55L92.4 2.55M64.65,18.9Q64.1 25.65 56.4 25.9Q49 26.1 45.25 20.2Q43.6 17.55 44.65 14.55Q46.55 9.35 51.4 8.05Q60.1 8.2 64.05 15.95Q64.8 17.35 64.65 18.9M17,8.15L21.45 7.95L17.25 9.9Q13.3 11.7 9.65 14.15L9.4 14L7.9 13.9L8.1 13.65L8.65 13.05Q9.05 12.75 8.8 12.35L8.6 12.15Q8.55 11.85 9 11.55Q9.5 11.2 9.35 10.6L8.9 10.45L10 9.95Q13.3 8.45 16.9 8.1L17 8.15" />
</g>
</svg>
