<?xml version="1.0" encoding="utf-8"?>
<svg version="1.1" id="Layer_1"
xmlns="http://www.w3.org/2000/svg"
xmlns:xlink="http://www.w3.org/1999/xlink"
width="96px" height="9px"
xml:space="preserve">
<g id="1710" transform="matrix(1, 0, 0, 1, -677.6, -73.35)">
<path style="fill:#8B292A;fill-opacity:0.705882" d="M751.4,78.5L725.25 77.6L698.7 78.6Q688.1 79.6 684.95 80.3L682.15 81L680.55 81.4L677.6 82.25L677.6 81.9L678.6 81.4L679.6 81L684.95 79.1L690.2 77.6Q706.45 73.35 725.25 73.35Q744 73.35 760.5 77.5L764 78.45L771.75 81L772.75 81.4L773.2 81.6L773.2 82.25L772.9 82.15L770.4 81.4L768.85 81L764 79.85L751.4 78.5" />
</g>
</svg>
