<?xml version="1.0" encoding="utf-8"?>
<svg version="1.1" id="Layer_1"
xmlns="http://www.w3.org/2000/svg"
xmlns:xlink="http://www.w3.org/1999/xlink"
width="84px" height="21px"
xml:space="preserve">
<g id="776" transform="matrix(1, 0, 0, 1, 6.6, -17.55)">
<path style="fill:#3A1D0F;fill-opacity:0.85098" d="M61.1,23.7L61.6 24.55L61.65 24.95Q58.4 24.95 60.55 22.6L60.65 22.4L61 22.2L61.15 22.15Q61.65 22.45 61.3 23.2L61.1 23.7M58.8,33.85Q58.9 35.05 59.3 36.5L59.45 37.1L61.55 36.55L63.9 35.85Q65.5 36.05 67.05 36.6Q68 36.9 68.65 37.5L59.05 38.45Q58.2 38.6 57.95 38L58.05 37.95L58.15 37.75L57.6 37.55Q57.15 36.4 57.45 35.1Q57.65 34.3 58.35 34.3L58.65 33.95Q58.7 33.85 58.8 33.85M73.1,34.25L73.15 34.15L73.35 34L73.45 33.95L73.65 34.15L73.65 34.35Q75.05 34.45 76.3 35.05L76.95 35.55Q76.25 36.65 74.75 35.8L73 34.65L73.1 34.25M68.65,28.95Q67.65 29.45 66.85 28.6Q66.1 27.85 66.5 27.3Q67.85 26.9 68.55 27.95Q68.8 28.4 68.65 28.95M13.55,18.15L13.7 18.15L13.85 17.7L14.1 17.55Q13.85 19.1 14.15 20.9L14.7 23.2L15.5 25.2Q16.05 26.2 17.15 26.5Q14.9 28.7 13.25 25.85L13.2 25.55L8.6 29.5Q10.95 29.65 11.85 31.7Q12.45 33.1 12.55 34.7Q12.6 35.7 13.65 36.05L18 37.15Q15.05 38.45 11.45 37.25L11.3 37.2L-6.5 37.9L-6.6 37.8L-3.35 36.45L-2.7 36.15L-1.9 35.65Q-1.65 35.9 -1.7 36.1L4.75 35.7L5.5 35.45Q6.9 34.55 8.5 34.25Q9.4 34.3 10.15 34.65L10.2 34.45Q10.95 32.45 8.9 30.85L8 29.95L7.8 30.1L7 30.05Q10.55 26.2 12.15 21.45L12.9 19.6L13.35 18.25L13.55 18.15M18.45,29.2Q18.35 28.7 18.65 28.4Q18.8 28.25 18.55 28.05Q18.9 27.55 19.65 27.35L21.55 26.9Q24.35 27.1 22.5 29.15L21.65 29.7Q19.85 30.4 18.5 29.3L18.45 29.2M22.55,35.55L22.6 35.1L22.55 34.95Q22.65 34.85 22.8 34.8L22.85 34.8L22.9 34.75L23 34.75L24.9 34.8Q26.25 34.45 27.05 35.35Q26.9 35.95 26.35 36.3Q24.5 37.45 22.55 36.1L22.55 35.9L22.55 35.85L22.55 35.7L22.55 35.6L22.55 35.55M28.9,32.85Q29.5 32.8 30 33.1L30.2 33.55Q29.8 34.3 28.9 34.05Q28.4 33.9 28.25 33.4L28.35 33.3L28.7 32.95L28.9 32.85" />
</g>
</svg>
