<?xml version="1.0" encoding="utf-8"?>
<svg version="1.1" id="Layer_1"
xmlns="http://www.w3.org/2000/svg"
xmlns:xlink="http://www.w3.org/1999/xlink"
width="57px" height="47px"
xml:space="preserve">
<g id="324" transform="matrix(1, 0, 0, 1, -2.2, 23.85)">
<path style="fill:#E2E2E2;fill-opacity:0.8" d="M20.1,-20.45L20.15 -20.45Q21.25 -23.1 24.05 -23.7Q28.75 -24.4 31.8 -21.25Q33.5 -19.5 32.6 -17.3Q31.8 -15.45 30.05 -14.5Q24.25 -11.5 20.6 -16.5Q19.3 -18.2 20.1 -20.25L20.1 -20.45M34.6,-14.7Q39.45 -15.1 41.45 -11.15Q43.4 -7.35 41.45 -4L42.2 -3.4Q44.55 -1.35 44.85 1.45L46 1.25L46.6 1.35L46.75 1.4L46.95 1.35L47.2 1.3Q53 2.4 51.5 7.45Q51.05 9 49.55 9.7Q46.25 11.15 44.15 9.5L42.8 9.65Q43.65 10.9 41.75 11.7L41.7 11.75L41.65 11.85L41.45 11.8L41.3 11.85Q40.65 12.1 39.95 11.85Q37.65 11.15 35.35 10.95L24.55 11.25L24.5 11.15Q24.45 11 24.55 10.8L25.2 10.3L25.3 10.25L23.35 10.55L21.7 10.3Q21.95 9.15 23.4 8.6Q23.9 8.45 24.35 8.1L25.55 7.25L27.6 5.9L24.4 6.25L23.25 6.1L23.1 5.75Q23.2 4.9 23.9 4.4L25.1 3.6L22.8 3.95L20.7 4.1L20.95 3.75Q21.35 1.6 23.75 0Q27.15 -2.3 28.45 -6.2L29.45 -8.3Q29.15 -8.95 29.35 -9.7Q29.95 -11.75 31.55 -13.15Q32.9 -14.35 34.6 -14.7M30.25,-21.1Q27.85 -23.1 24.2 -22.45Q23.15 -22.3 22.3 -21.6Q21.5 -20.95 21.2 -20.1Q21.8 -19.65 22.25 -18.7Q23.05 -16.95 25 -16.7Q29.5 -16.05 30.05 -20.15L30.25 -21.1M29.7,-6.25Q28.45 -3.35 26.3 -1.05L24.15 1.2L24.45 1.15Q24.7 1.1 24.7 1.3L24.65 1.4L22.55 3.1L24.95 2.75L26 2.75Q26.35 2.75 26.55 3.05L26.55 3.3L25.45 4.5L24.45 5.25L29.55 4.85L29.7 4.9L29.75 5L29.75 5.1L29.8 5.25L29.75 5.55L29.7 5.65L27.75 6.9L25.6 8.3L25 8.8L24.6 9.15L27.7 9.15L27.9 9.2L28 9.25L28.1 9.35L28.15 9.45L28.2 9.55L28.2 9.6L28.15 9.7L28.15 9.8L28.1 9.95L28 10.05L30.8 9.85L33.5 9L40.45 8.15L40.7 8.15L42.95 8.2L42.7 7.8L42.4 7.45L42.5 7.4L42.35 7.1L43.25 7Q44.6 6.55 46.45 7.5Q47.55 8.05 48.45 7.3Q49.85 6.05 50.15 4.15L50.15 4.1Q48.8 2.55 46.95 1.95Q45.3 2.35 43.75 3.3Q42.4 4.1 41.45 5.4Q41.2 5.75 40.95 5.5Q41 4.4 41.65 3.5Q42.45 2.35 43.75 1.8L44.45 1.55L43.2 -0.8Q40.2 -5.5 35 -3.15L33.7 -2.7Q33.5 -2.65 33.35 -2.85L33.35 -2.95L33.8 -3.7L33.85 -3.75Q33.35 -4.8 35.25 -5.9Q37.35 -7.1 39.7 -7.3L40.1 -7.7Q40.75 -9.5 40.1 -11.35Q38.35 -14.1 34.3 -13.35Q31.6 -12.8 30.7 -10.25L30.15 -8.85Q30.3 -7.75 29.7 -6.25M49.4,-9.05Q47.75 -8.55 46.8 -7.7Q46.55 -6.35 46.85 -4.65Q47.2 -3.1 48.65 -2.25Q53.35 0.3 56 -3.95Q56.55 -4.85 57.5 -4.8L57.75 -4.7L57.5 -6Q55.6 -10.4 50.35 -9.55L49.7 -9.4Q49.05 -9.4 49.3 -9.1L49.4 -9.05M50.2,-10.8Q56.25 -11.65 58.35 -6.5Q60.1 -2.2 55.8 0.15Q49.65 3.55 45.55 -1.7Q43.9 -3.75 44.8 -6.3Q46.15 -10 50.2 -10.8M49.1,11.3Q54.15 11.25 57.05 15Q58.05 16.3 57.3 17.8Q55.3 21.9 50.3 22.25Q46.6 22.5 44.15 19.65Q41.05 16 44.55 12.9Q45.5 12.1 46.75 11.8L49.1 11.3M46.55,14.45Q44.5 16.35 47.1 17.25Q51.3 18.75 53.45 15.3Q54 14.4 53.1 13.9L53 13.7L53.4 13.5Q51.45 12.75 49.5 12.6Q47.9 13.2 46.55 14.45M14.1,8.85L13.9 8.75L13.4 8.7Q12.25 9.1 11.4 10Q10.75 10.7 10.35 11.55L13.7 9.45L13.85 9.45L13.95 9.45L14.2 9L14.1 8.85M15,8.55Q15.3 9.2 15.1 9.75Q16.35 10.35 16.15 11.9L15.85 13Q17.6 14.05 15.45 15.5Q13.9 16.55 11.9 16.8Q11.05 16.9 10.55 16.45L9.3 17.05L7.05 18.15Q5.4 19.05 3.75 18.95L3.7 18.75L3.65 18.4Q3.65 18.25 3.8 18.15L3.65 17.95L3.5 17.6L3.45 17.25L2.45 17.15L2.2 16.85Q5.25 15.15 8.4 12.9L9.3 12.25L9.6 11.05Q10.4 9.1 12.3 8.05Q12.8 7.75 13.25 7.65Q14.55 7.45 15 8.55M14.2,11.8Q12.75 11.6 11.6 12.65Q10.7 13.4 9.65 13.75L8.95 14.45L8.6 14.8L10.1 13.9Q10.9 13.35 11.65 13.5L11.65 13.65L11.65 13.8Q13.3 13.3 14.1 12.05L14.2 11.8M9.35,13.05L6.95 14.65L4.55 16.5L4.55 16.6Q4.45 16.9 4.7 16.85Q5.2 16.75 5.4 17.15L5.35 17.5L8.45 16.35Q10 15.5 11.6 14.75L11.35 14.7L11.2 14.75L10.4 15.05L9.9 14.9L9.9 14.65L10.05 14.35L10.35 14.15L10.5 14.05L9.35 14.65L8.5 15.2L7.8 15.35L8.2 14.55L8.9 13.7L9.4 13.2L9.35 13.05M14,14.05L13.1 14.6L12.55 15.05L13.95 14.95Q15 15 15.55 14.15Q15.25 13.8 14.9 13.75L14.2 13.95L14 14.05" />
<path style="fill:#E2E2E2;fill-opacity:0.498039" d="M30.05,-20.15Q29.5 -16.05 25 -16.7Q23.05 -16.95 22.25 -18.7Q21.8 -19.65 21.2 -20.1Q21.5 -20.95 22.3 -21.6Q23.15 -22.3 24.2 -22.45Q27.85 -23.1 30.25 -21.1L30.05 -20.15M30.15,-8.85L30.7 -10.25Q31.6 -12.8 34.3 -13.35Q38.35 -14.1 40.1 -11.35Q40.75 -9.5 40.1 -7.7L39.7 -7.3Q37.35 -7.1 35.25 -5.9Q33.35 -4.8 33.85 -3.75L33.8 -3.7L33.35 -2.95L33.35 -2.85Q33.5 -2.65 33.7 -2.7L35 -3.15Q40.2 -5.5 43.2 -0.8L44.45 1.55L43.75 1.8Q42.45 2.35 41.65 3.5Q41 4.4 40.95 5.5Q41.2 5.75 41.45 5.4Q42.4 4.1 43.75 3.3Q45.3 2.35 46.95 1.95Q48.8 2.55 50.15 4.1L50.15 4.15Q49.85 6.05 48.45 7.3Q47.55 8.05 46.45 7.5Q44.6 6.55 43.25 7L42.35 7.1L42.5 7.4L42.4 7.45L42.7 7.8L42.95 8.2L40.7 8.15L40.45 8.15L33.5 9L30.8 9.85L28 10.05L28.1 9.95L28.15 9.8L28.15 9.7L28.2 9.6L28.2 9.55L28.15 9.45L28.1 9.35L28 9.25L27.9 9.2L27.7 9.15L24.6 9.15L25 8.8L25.6 8.3L27.75 6.9L29.7 5.65L29.75 5.55L29.8 5.25L29.75 5.1L29.75 5L29.7 4.9L29.55 4.85L24.45 5.25L25.45 4.5L26.55 3.3L26.55 3.05Q26.35 2.75 26 2.75L24.95 2.75L22.55 3.1L24.65 1.4L24.7 1.3Q24.7 1.1 24.45 1.15L24.15 1.2L26.3 -1.05Q28.45 -3.35 29.7 -6.25Q30.3 -7.75 30.15 -8.85M49.3,-9.1Q49.05 -9.4 49.7 -9.4L50.35 -9.55Q55.6 -10.4 57.5 -6L57.75 -4.7L57.5 -4.8Q56.55 -4.85 56 -3.95Q53.35 0.3 48.65 -2.25Q47.2 -3.1 46.85 -4.65Q46.55 -6.35 46.8 -7.7Q47.75 -8.55 49.4 -9.05L49.3 -9.1M49.5,12.6Q51.45 12.75 53.4 13.5L53 13.7L53.1 13.9Q54 14.4 53.45 15.3Q51.3 18.75 47.1 17.25Q44.5 16.35 46.55 14.45Q47.9 13.2 49.5 12.6M14.2,9L13.95 9.45L13.85 9.45L13.7 9.45L10.35 11.55Q10.75 10.7 11.4 10Q12.25 9.1 13.4 8.7L13.9 8.75L14.1 8.85L14.2 9M14.1,12.05Q13.3 13.3 11.65 13.8L11.65 13.65L11.65 13.5Q10.9 13.35 10.1 13.9L8.6 14.8L8.95 14.45L9.65 13.75Q10.7 13.4 11.6 12.65Q12.75 11.6 14.2 11.8L14.1 12.05M9.4,13.2L8.9 13.7L8.2 14.55L7.8 15.35L8.5 15.2L9.35 14.65L10.5 14.05L10.35 14.15L10.05 14.35L9.9 14.65L9.9 14.9L10.4 15.05L11.2 14.75L11.35 14.7L11.6 14.75Q10 15.5 8.45 16.35L5.35 17.5L5.4 17.15Q5.2 16.75 4.7 16.85Q4.45 16.9 4.55 16.6L4.55 16.5L6.95 14.65L9.35 13.05L9.4 13.2M14.2,13.95L14.9 13.75Q15.25 13.8 15.55 14.15Q15 15 13.95 14.95L12.55 15.05L13.1 14.6L14 14.05L14.2 13.95" />
</g>
</svg>
