<?xml version="1.0" encoding="utf-8"?>
<svg version="1.1" id="Layer_1"
xmlns="http://www.w3.org/2000/svg"
xmlns:xlink="http://www.w3.org/1999/xlink"
width="33px" height="18px"
xml:space="preserve">
<g id="704" transform="matrix(1, 0, 0, 1, -3.35, -2.65)">
<path style="fill:#000000;fill-opacity:0.498039" d="M36.25,19.3Q36.25 20.05 28.25 20.25Q20.15 20.4 21.95 18.55L28 17.8L33.8 18.2Q36.25 18.55 36.25 19.3M18.55,18.4Q15 21.05 12.25 20.55Q9.4 20 9.4 19.25Q9.4 18.5 12.25 17.95Q14.8 17.45 18.55 18.4" />
<path style="fill:#000000;fill-opacity:1" d="M26.35,6.1L26.3 6.05L26.3 5.95L26.3 5.85L26.4 5.75L26.5 5.65L26.5 5.6L26.6 5.6Q26.95 5.6 27.15 5.9L27.5 6.25L27.8 6.05L28.4 5.7L28.15 5.1Q27.95 4.4 28.35 3.75Q28.95 2.85 30.1 2.65Q33.3 3.05 32.15 6Q31.5 7.55 29.95 7L29.9 7L29.8 8.15L30.7 10.15Q31.35 11.5 32.35 12.45L32.55 12.6L32.5 13.25L32.15 13.85L32.05 13.95Q30.2 13.2 29.3 11.35L28.7 10.45L28.25 9.7L23.7 12.25Q23.25 12.45 22.8 12.8Q22.05 13.3 22.1 14.3Q23.65 15.3 24.3 16.8L24.25 17.55Q23.05 19.7 21.5 18.2Q20.95 17.7 21.55 17.15L21.8 16.75L20.7 15.85L19.25 14.75Q19.15 13.85 19.7 13.2L21.05 11.45Q21.2 11.25 21.45 11.2Q22.45 9.2 24.6 8.2L25.1 7.65Q25.8 7.25 26.1 6.55L26.4 6.15L26.35 6.1M16.35,5.45L16.75 5.1L17.15 4.9L17.25 4.9L17.3 4.85L17.5 4.75Q18.85 5.85 17.9 7.7L17.6 8.8L17.6 9.2Q17.85 9.25 17.75 9.55L17.65 9.95L17.7 9.95Q17.9 9.9 17.95 10.1L18 10.4Q18.35 10.65 18.3 11.15L18.25 11.85L18.15 12.15L18.05 12.15L17.75 12.15L17.65 12.45L17.55 12.8L17.55 12.95Q17.1 12.95 16.8 12.75L16.7 13.1L16.65 13.4L16.5 13.75L15.35 13.8L14.85 14.35L13.95 15.5L13.95 15.55L16.3 17.25L16.45 17.6Q16 19.75 14 19.1L13.95 18.65L14.05 18.2L14.05 17.9Q12.2 17.4 11.1 16.1Q10.9 15.9 11.15 15.65L13.4 12.95L13.45 12.9L11.45 12.8Q10.6 12.6 10.75 11.8L10.85 11.8L9.4 11.45L4.7 10.4Q3.9 10.25 3.35 9.7L3.4 9.35L3.45 9.25L3.75 8.95L3.95 8.9L10.25 10.3L14.15 11L14.15 10.95L14.15 10.5L14.3 10.35L14.6 8.55L14.85 7.65L13.95 8.25L11.3 9.35L10.85 9.2L10.45 8.85L10.45 8.8L10.45 8.7L10.45 8.5L10.45 8.45L13.2 6.95L15.6 5.55L15.9 5.45L16.35 5.45" />
</g>
</svg>
