<?xml version="1.0" encoding="utf-8"?>
<svg version="1.1" id="Layer_1"
xmlns="http://www.w3.org/2000/svg"
xmlns:xlink="http://www.w3.org/1999/xlink"
width="27px" height="11px"
xml:space="preserve">
<g id="917" transform="matrix(1, 0, 0, 1, 1.35, 3.85)">
<path style="fill:#100806;fill-opacity:1" d="M12.9,-1.5Q15.15 -1.75 15.15 -0.85Q15.15 -0.45 14.4 0.05Q13.55 0.65 12.6 0.65Q10.65 0.65 10.65 -0.45Q10.65 -1.25 12.9 -1.5M25.1,-3.5L25.65 -2.9Q25.65 -2.55 25.05 -1.9Q24.3 -1.05 23.4 -1.05Q22.15 -1.05 21.65 -1.7L21.35 -2.4Q21.35 -2.9 21.95 -3.35Q22.65 -3.85 23.6 -3.85Q24.45 -3.85 25.1 -3.5M20.6,6.6Q20.1 7 19.4 7Q18.45 7 18.1 6.35L17.9 5.7Q17.9 4.95 19.5 4.95Q21.05 4.95 21.05 5.9L20.6 6.6M3.05,0.35L4.75 -0.05Q5.2 0.1 5.25 0.25L5.3 0.55Q5.3 0.9 4.9 1.25Q4.4 1.65 3.8 1.65Q2.65 1.65 2.95 0.9L3.05 0.35M0,3.9Q-0.95 3.9 -1.25 3.5L-1.35 3.15Q-1.35 2.45 -0.05 2.6Q1.25 2.75 1.25 3.35Q1.25 3.9 0 3.9" />
</g>
</svg>
