<?xml version="1.0" encoding="utf-8"?>
<svg version="1.1" id="Layer_1"
xmlns="http://www.w3.org/2000/svg"
xmlns:xlink="http://www.w3.org/1999/xlink"
width="155px" height="15px"
xml:space="preserve">
<g id="349" transform="matrix(1, 0, 0, 1, -1.8, -19.75)">
<path style="fill:#E7B366;fill-opacity:1" d="M140.75,33.65L136.5 30.55L132.15 33.4L133.75 28.45L129.7 25.15L134.9 25.15L136.8 20.3L138.4 25.25L143.6 25.5L139.4 28.6L140.75 33.65M156.6,28.4L153.7 30.55L154.6 34L151.7 31.9L148.7 33.85L149.8 30.45L147 28.15L150.6 28.15L151.9 24.8L153 28.25L156.6 28.4M23.5,24.6L28.7 24.6L24.65 27.9L26.25 32.85L21.9 30L17.65 33.1L19 28.05L14.8 24.95L20 24.7L21.6 19.75L23.5 24.6M1.8,27.85L5.4 27.7L6.5 24.25L7.8 27.6L11.4 27.6L8.6 29.9L9.7 33.3L6.7 31.35L3.8 33.45L4.7 30L1.8 27.85" />
</g>
</svg>
