<?xml version="1.0" encoding="utf-8"?>
<svg version="1.1" id="Layer_1"
xmlns="http://www.w3.org/2000/svg"
xmlns:xlink="http://www.w3.org/1999/xlink"
width="17px" height="32px"
xml:space="preserve">
<g id="1025" transform="matrix(1, 0, 0, 1, 4.1, 11.05)">
<path style="fill:#FFFF00;fill-opacity:1" d="M4,-5.4Q4.9 -3.3 3.7 -1.55Q3.6 -1.4 3.45 -1.6Q2.8 -2.4 3.15 -3.55L4 -5.4M0.55,-5.95Q0.4 -6.95 1.4 -7.25Q2.2 -6.9 1.5 -5.85Q0.7 -4.6 0.55 -5.95M2,-4.1Q2.6 -2.45 1.5 -0.95L1.25 -1Q0.45 -2 1.25 -3.35L2 -4.1M3.35,-0.15L3.4 -0.1L2.85 2.9Q2.8 3.25 2.5 3.05Q1.85 2.7 2 1.9Q2.2 0.6 3.2 -0.25L3.35 -0.15M9.15,-4.05L9.35 -4L9.4 -4Q9.45 -3.15 9 -2.5L8.8 -2.35Q8.5 -3.1 9.05 -3.95L9.15 -4.05M6.95,-5.4Q7.9 -4 6.9 -2.85Q6.75 -2.65 6.6 -2.85Q6.05 -3.5 6.4 -4.5L6.95 -5.4M5.9,-1.2L5.95 -1.15Q5.95 0.3 5.15 1.3L4.75 1.25Q4.25 0 5.35 -1.05L5.75 -1.3L5.9 -1.2M10.7,2Q11.3 2.9 10.4 3.55L10.3 3.6Q10.15 2.8 10.6 2.05L10.7 2M12.05,5.2Q12.5 6.5 11.35 7.1Q11.35 6 12 5.25L12.05 5.2M12.8,9.55Q13.25 10.8 12.05 11.25L12 11.2Q11.9 10.1 12.8 9.55M12.45,10.55L12.35 10.8L12.35 10.85L12.45 10.55M10.95,10.45L9.85 13.1L9.6 13.05Q8.95 11.95 9.95 10.95L10.75 10.35L10.95 10.45M8.05,1.8Q7.35 3.35 5.7 3.5L5.1 3.3Q4.45 2.75 5.45 2.35L7.55 1.75L7.85 1.7L8.05 1.8M5.9,5.75Q6.2 7.2 5.3 7.95L5.2 7.85Q4.6 6.6 5.7 5.65L5.9 5.75M8.8,3.65L8.9 5.15L8.8 5.7Q8.5 6.45 7.85 6.6L8.6 3.85L8.8 3.65M1.15,6.15L0.95 6.1Q0.6 4.95 1.05 3.8L1.15 3.45L1.3 3.35Q2.5 4.8 1.15 6.15M1.4,0.8Q0.85 1.05 0.6 0.35Q0.1 -0.85 0.65 -1.85L1.55 0.45L1.4 0.8M1.95,11.7Q1.9 12.1 1.5 11.95Q0.65 11.6 0.9 10.5Q1.1 9.65 1.55 9.05Q2.15 10.3 1.95 11.7M6.05,11.7Q7.85 10.8 9.15 9.4Q9.4 10.5 8.2 11.25Q7.25 11.85 6.85 12.8Q6.15 14.4 5.25 13.15L5.05 12.5Q5 11.15 5.95 10.65L6 11.6L6.05 11.7M7.1,9.9Q7.05 11 6.5 10Q6.3 9.7 6.45 9.35L7.15 8.15Q7.55 8.6 7.25 9.4L7.1 9.9M9,17.4Q9.2 16.4 10.25 15.8L10.7 15.3L11.15 14.8L11.35 14.9Q11.3 17.3 9.2 17.65Q8.95 17.7 9 17.4M6.5,17.3L7.45 16.2L7.6 16.3L7.65 16.35Q7.65 18 6.7 19.1Q5.85 20.05 5.55 19.25Q5.2 18.4 5.85 17.8L6.5 17.3M3.75,14.95Q3.75 15.5 3.35 15.9L2.45 16.15Q2.3 14.6 3.6 13.55L3.75 14.95M0.75,16.85Q0.35 18.25 0.6 19.5L0.45 19.85L-0.9 20.55Q-1.4 19.1 -0.85 17.6L-0.65 17.5Q-0.35 18 -0.3 18.75L-0.3 18.8L0.55 16.75L0.75 16.85M1.8,17.45L2.6 17.05L2.85 17.15L2.9 17.2Q2.5 18.6 1.3 18.9Q0.8 19.05 0.8 18.55Q0.85 17.75 1.8 17.45M-1.65,2.15Q-1.8 0.7 -1.15 -0.4Q-0.45 0.7 -0.45 2.2Q-0.45 3.35 -1.4 2.6L-1.65 2.15M-3.9,4.5L-4.05 4.35Q-4.15 3.4 -3.85 2.7Q-2.75 3.8 -3.9 4.5M-1.2,3.4Q-0.45 4.85 -0.85 6.25L-1.15 6.3Q-2.05 5.5 -1.7 4.1L-1.2 3.4M-2.95,8.15Q-1.85 9.55 -2.2 11.25Q-2.35 11.85 -2.95 11.5Q-3.75 11.1 -3.2 10.25Q-2.7 9.4 -3.1 8.35L-2.95 8.15M-0.95,12.85L0 15.3Q0.15 15.6 -0.2 15.7Q-1.2 16.05 -1.35 14.9Q-1.5 13.7 -0.95 12.85" />
<path style="fill:#FFFF00;fill-opacity:0.498039" d="M-1.5,-4.8L-1.5 -4.75Q-2.35 -5.2 -1.9 -6.2L-1.85 -6.2Q-1.35 -5.6 -1.5 -4.8" />
<path style="fill:#FFFF00;fill-opacity:0.0862745" d="M7.4,-10.9L7.55 -11.05Q7.95 -10.45 7.75 -9.7L7.75 -9.65Q7.25 -10.05 7.4 -10.9M4.3,-11L4.35 -11Q5 -10.5 4.8 -9.7L4.75 -9.65Q4 -10.05 4.3 -11" />
</g>
</svg>
