<?xml version="1.0" encoding="utf-8"?>
<svg version="1.1" id="Layer_1"
xmlns="http://www.w3.org/2000/svg"
xmlns:xlink="http://www.w3.org/1999/xlink"
width="25px" height="9px"
xml:space="preserve">
<g id="891" transform="matrix(1, 0, 0, 1, 1.55, -9.95)">
<path style="fill:#000000;fill-opacity:1" d="M22.2,11.65L22.8 12.9Q23.55 13.95 23.35 14.85L23.15 15.05Q22.35 15.6 21.45 15.4L20.2 14.15L19.35 14.25L17.65 15.4Q16.4 16.25 15.1 15.95L11.15 15.05Q10.3 15.6 9.3 15.4L7.4 15.5Q6.3 15.05 5.9 15.75L6.1 17.1L3.9 17.7L2.75 17.95Q0.2 18.75 -1.55 16.95L-1.5 16.2L-0.8 15.4Q-0.2 15.05 0.05 15.2Q0.65 15.4 1.1 16L3.05 15.85L2.75 14.45Q1.5 15.5 0.1 14.8Q-0.65 14.5 -1 13.9Q-1.65 12.95 -1.1 11.75Q0.05 9.45 2.45 10.1L4 11.75L4.65 10.9Q7.6 9.6 10.25 10.95L10.85 11.85L12.7 11.6L15.4 11L18.7 10.9L19.35 10.3L20.75 10.5L22.2 11.6L22.2 11.65" />
</g>
</svg>
