<?xml version="1.0" encoding="utf-8"?>
<svg version="1.1" id="Layer_1"
xmlns="http://www.w3.org/2000/svg"
xmlns:xlink="http://www.w3.org/1999/xlink"
width="15px" height="19px"
xml:space="preserve">
<g id="1214" transform="matrix(1, 0, 0, 1, -11.65, 8)">
<path style="fill:#C9EBFF;fill-opacity:0.988235" d="M18,-6.95L17.7 -6.15L16.9 -5.3Q17 -5.1 17.6 -4.75L18.25 -4.1L18.55 -3.35L18.85 -2.85L18.6 -2.2Q18.3 -1.8 17.75 -1.75L18.05 -0.9Q18.05 -0.25 17.35 -0.15Q16.9 -0.25 17 -0.55L17.15 -1.05L16.55 -1.75Q16.55 -2.05 16.85 -2.15Q17.45 -2.35 18.05 -2.75Q17.6 -3.95 16.85 -4.45Q16.2 -4.8 16.2 -5.3L16.75 -6.15L17.35 -7.05L17.1 -7.2L16.05 -7.2Q14.55 -6.6 14.3 -5.5Q14.2 -4.2 13.9 -3.55L13.1 -1.6Q12.6 -0.5 11.85 0.1L11.65 0.05Q11.7 -0.75 12.25 -2.1L13.25 -4.2L13.9 -6.95Q14.4 -8.35 16 -7.85L17.6 -7.6L18 -6.95M19.95,-2.45Q19.95 -2.65 20.55 -2.85Q21.25 -3.1 21.85 -2.6Q22.2 -2.15 22.05 -1.25L22.05 -1.15L22.65 -1.25Q23.55 -1.25 24.15 -0.65L24.15 -2.4Q25.15 -2.4 25.75 -2L25.75 -1.9L24.65 -1.95L24.6 -1.2Q24.6 -0.45 24.85 -0.2L24.65 -0.05L24.9 0.5L24.85 0.8L24.6 0.85L23.4 -0.05Q22.45 -0.65 21.5 -0.4L21.1 -0.75L21.3 -1.25L21.45 -1.75L21.4 -2.25L21.3 -2.25L21.3 -2.35L21.15 -2.4L20.25 -2.25L20 -2.3L19.95 -2.45M22.4,4.4Q22.4 6.6 20.45 6.6Q20.2 6.6 20.1 6.4L20.05 6.2Q20.05 5.8 21.65 5.45L21.8 4.45L21.45 3.8Q21.45 3.45 21.8 3.15L23 3.25L23.05 3.3L22.2 3.8L22.4 4.4M23.65,3.8L23.4 3.85Q24.35 3.1 24.4 3.95L24.3 5L24.5 5.3L24.95 5.9L24.65 6Q23.6 6 23.6 5.1L23.85 3.95Q23.85 3.8 23.65 3.8M12.35,4L11.8 3.5Q12.55 3.15 12.85 4.25Q13.05 5.1 12.9 6.45Q12.9 7.15 13.6 7.4Q14.45 7.7 14.7 8.1L15.15 9.1Q15.5 9.8 16.05 10L15.95 9.4L16.45 8.3L16.3 7.9L16.1 7.5Q16.1 6.75 16.9 6.75L17.45 6.95L17.8 7.3L17.5 7.45L17.1 7.3L16.75 7.15L16.5 7.25L16.4 7.5L16.75 8.4L16.3 9.45Q16.3 10 16.65 10.35L15.9 10.5Q15.4 10.5 14.9 9.75L14.2 8.65L12.95 7.8Q12.3 7.5 12.3 7.05L12.5 4.65L12.35 4M19.65,6.3L20.05 6.45Q19.75 6.8 19.8 7.1L19.95 7.35L19.55 7.8L18.7 7.9L18.5 7.85L19.45 7.5L19.65 6.3" />
</g>
</svg>
