<?xml version="1.0" encoding="utf-8"?>
<svg version="1.1" id="Layer_1"
xmlns="http://www.w3.org/2000/svg"
xmlns:xlink="http://www.w3.org/1999/xlink"
width="9px" height="12px"
xml:space="preserve">
<g id="638" transform="matrix(1, 0, 0, 1, 1.05, 0.2)">
<path style="fill:#000000;fill-opacity:1" d="M2.9,-0.1L3.7 -0.05L4.55 0.2L4.7 0.3Q5.05 0.6 4.95 1.05L4.65 3.05L4.3 4.4L5 4.8L6.95 5.95L7.2 6.15L7.15 7.25L6.3 9.5L5.45 10.45L4.9 10.25Q4.45 9.85 4.5 9.3L4.7 8.2L3 7.7L3.5 9.3Q3.85 10.25 3.35 11.1L1.65 11.5L-0.8 11.55L-0.85 11.45L-1 10.85L-1 10.15L-1 10.05L-0.9 10L0.4 9.45L0.55 9.35L-0.35 5.9Q-0.95 3.35 0.35 0.9L1.25 -0.2L2.85 -0.1L2.9 -0.1" />
</g>
</svg>
