<?xml version="1.0" encoding="utf-8"?>
<svg version="1.1" id="Layer_1"
xmlns="http://www.w3.org/2000/svg"
xmlns:xlink="http://www.w3.org/1999/xlink"
width="27px" height="4px"
xml:space="preserve">
<g id="712" transform="matrix(1, 0, 0, 1, -10.8, -17.3)">
<path style="fill:#000000;fill-opacity:0.498039" d="M27.3,18.55L27.3 18.7L29.2 18.5L31.75 18.9Q32.4 19.1 32.7 19.4L32.25 19.95L32.45 20.35L31.75 20.6L29.2 20.95L26.6 20.6Q25.5 20.25 25.5 19.75L25.55 19.6L23.65 19.75L21.05 19.4Q19.95 19.05 19.95 18.55Q19.95 18.05 21.05 17.7L23.65 17.3L26.2 17.7Q27.3 18.05 27.3 18.55M22.2,20.85L17.5 21.15L12.75 20.85Q10.8 20.6 10.8 20.3Q10.8 19.95 12.75 19.7L17.5 19.45L22.2 19.7Q24.15 19.95 24.15 20.3Q24.15 20.6 22.2 20.85M33.8,20.8L33.2 20.35L33.1 19.95Q33.1 19.65 33.4 19.4L33.8 19.1Q34.45 18.7 35.4 18.7Q36.35 18.7 37 19.1Q37.65 19.45 37.65 19.95L37.65 20.1L37 20.8L36.6 21L35.4 21.15L33.8 20.8" />
</g>
</svg>
