<?xml version="1.0" encoding="utf-8"?>
<svg version="1.1" id="Layer_1"
xmlns="http://www.w3.org/2000/svg"
xmlns:xlink="http://www.w3.org/1999/xlink"
width="18px" height="19px"
xml:space="preserve">
<g id="1087" transform="matrix(1, 0, 0, 1, 5.3, 35.6)">
<path style="fill:#3A3A3A;fill-opacity:1" d="M6.15,-34.95L6.2 -34.8L6.15 -34.75L5.9 -34.45L5.75 -34.25L5.6 -34.05L5.5 -34.05L5.2 -34.05L5.05 -34.4L5.25 -34.95L5.75 -35.25L6 -35.2L6.1 -35.05L6.15 -34.95M0.75,-28.8Q0.7 -28.2 0.15 -27.85L0.05 -27.9L-0.5 -28.2L-0.75 -28.4L-0.75 -28.5L-0.75 -28.55L-0.75 -28.65L-0.75 -28.7L-0.7 -28.75L-0.8 -29.05L-0.7 -29.55L-0.3 -29.85L0.4 -29.7Q0.8 -29.35 0.75 -28.8M3.2,-26L3.35 -26.05L3.5 -26.05L3.95 -25.75L4.35 -25.35L4.45 -25.1L3.9 -24.5L2.75 -24.45L2.7 -24.55L2.65 -25.1L2.8 -25.65L3 -25.95L3.15 -25.95L3.2 -26M6.75,-27.1L6.8 -27.1L6.9 -27.1L7 -27.05L6.25 -26.4L6.05 -25.6L6.1 -25.2Q5.9 -25.25 5.85 -25.45L5.8 -25.9L5.75 -26.3L5.7 -26.5L5.95 -26.75L6.35 -27L6.75 -27.1M11.85,-24.3L12.3 -24L12.4 -23.75L12.3 -23.55Q11.9 -23.1 11.3 -23.4L11.25 -23.45L11.2 -23.55L11.15 -23.65L11.1 -23.7L11.15 -23.9L11.35 -24.2L11.6 -24.35L11.85 -24.3M10.25,-20.75L10.25 -21.2L10.4 -21.6L10.55 -21.4L10.6 -20.85L10.25 -20.5L10.25 -20.75M8.2,-19.8L8.4 -19.55L8.5 -18.7Q8.5 -18.15 8.1 -18L7.9 -18.4L8 -19.15L8.2 -19.8M-2.7,-26.75Q-2.65 -26.95 -2.4 -26.95L-2.35 -27L-2.15 -27L-2.05 -26.95L-2 -26.9L-1.9 -26.85L-1.9 -26.8L-1.85 -26.75L-1.9 -26.35Q-1.95 -25.95 -2.3 -25.8Q-2.85 -25.6 -3.15 -26.2L-2.95 -26.4L-2.7 -26.75" />
<path style="fill:#666666;fill-opacity:1" d="M3.4,-17.9Q3.2 -17.75 3 -17.75L2.7 -17.85L2.75 -17.9L2.85 -18L2.95 -18.1L3.3 -18.15L3.5 -18L3.4 -17.9" />
<path style="fill:#3A3A3A;fill-opacity:0.2" d="M5.2,-22.75L5.1 -22.75L5.05 -22.75L5.05 -22.65L5.05 -22.6L5.1 -22.5L5.15 -22.4L5.2 -22.35Q5.85 -22.05 6.25 -22.6L6.2 -23.1L5.65 -23.15L5.55 -23.05L5.4 -22.95L5.3 -22.8L5.25 -22.8L5.2 -22.75M5.95,-21.95Q4.45 -21.8 4.95 -22.95Q5.15 -23.4 5.6 -23.5Q7.25 -23.45 6.35 -22.2Q6.2 -22 5.95 -21.95M0.45,-22L0.45 -21.35L0.3 -20.95L0.1 -20.9L-0.45 -21L-0.5 -21.45L-0.35 -22.1Q-0.25 -22.4 0.05 -22.45Q0.4 -22.4 0.45 -22M0.05,-22.05L-0.15 -21.8L-0.25 -21.5L-0.2 -21.25L-0.2 -21.2L0.1 -21.25L0.15 -21.55L0.15 -21.8L0.05 -22.05M3.5,-18L3.3 -18.15L2.95 -18.1L2.85 -18L2.75 -17.9L2.7 -17.85L3 -17.75Q3.2 -17.75 3.4 -17.9L3.5 -18M2.95,-18.45Q3.7 -18.55 3.75 -17.95Q3.8 -17.6 3.45 -17.5L2.35 -17.6L2.35 -17.65L2.35 -17.85L2.6 -18.25L2.95 -18.45M-4.65,-28.15L-4.9 -27.95L-5 -27.8L-4.95 -27.6L-4.1 -27.45L-4 -27.55L-3.95 -27.6L-3.85 -27.7L-3.75 -27.85L-3.8 -28L-4 -28.2L-4.35 -28.3L-4.65 -28.15M-4.4,-28.7Q-2.9 -28.35 -3.9 -27.35L-4.95 -27.3Q-5.65 -27.85 -4.9 -28.4L-4.4 -28.7" />
<path style="fill:#666666;fill-opacity:0.2" d="M5.25,-22.8L5.3 -22.8L5.4 -22.95L5.55 -23.05L5.65 -23.15L6.2 -23.1L6.25 -22.6Q5.85 -22.05 5.2 -22.35L5.15 -22.4L5.1 -22.5L5.05 -22.6L5.05 -22.65L5.05 -22.75L5.1 -22.75L5.2 -22.75L5.25 -22.8M0.15,-21.8L0.15 -21.55L0.1 -21.25L-0.2 -21.2L-0.2 -21.25L-0.25 -21.5L-0.15 -21.8L0.05 -22.05L0.15 -21.8M-4.35,-28.3L-4 -28.2L-3.8 -28L-3.75 -27.85L-3.85 -27.7L-3.95 -27.6L-4 -27.55L-4.1 -27.45L-4.95 -27.6L-5 -27.8L-4.9 -27.95L-4.65 -28.15L-4.35 -28.3" />
<path style="fill:#1E1E1E;fill-opacity:1" d="M6.1,-35.05L6 -35.2L5.75 -35.25L5.25 -34.95L5.05 -34.4L5.2 -34.05L5.5 -34.05L5.6 -34.05L5.75 -34.25L5.9 -34.45L6.15 -34.75L6.2 -34.8L6.15 -34.95L6.1 -35.05M5.95,-34Q5.1 -33.3 4.8 -34.3Q4.65 -34.7 4.9 -35L5.75 -35.6Q7.1 -35.05 5.95 -34M0.4,-29.7L-0.3 -29.85L-0.7 -29.55L-0.8 -29.05L-0.7 -28.75L-0.75 -28.7L-0.75 -28.65L-0.75 -28.55L-0.75 -28.5L-0.75 -28.4L-0.5 -28.2L0.05 -27.9L0.15 -27.85Q0.7 -28.2 0.75 -28.8Q0.8 -29.35 0.4 -29.7M3.15,-25.95L3 -25.95L2.8 -25.65L2.65 -25.1L2.7 -24.55L2.75 -24.45L3.9 -24.5L4.45 -25.1L4.35 -25.35L3.95 -25.75L3.5 -26.05L3.35 -26.05L3.2 -26L3.15 -25.95M6.35,-27L5.95 -26.75L5.7 -26.5L5.75 -26.3L5.8 -25.9L5.85 -25.45Q5.9 -25.25 6.1 -25.2L6.05 -25.6L6.25 -26.4L7 -27.05L6.9 -27.1L6.8 -27.1L6.75 -27.1L6.35 -27M6.7,-27.45Q7.3 -27.45 7.7 -27.1L8.2 -26.2L8 -25.65Q8.1 -24.1 6.4 -24.5Q5.4 -24.7 5.3 -25.7Q5.25 -26.65 6 -27.2L6.7 -27.45M12.45,-23.3L12.05 -23Q10.6 -22.85 10.9 -24.05Q11.05 -24.55 11.5 -24.7Q13.05 -24.45 12.45 -23.3M11.6,-24.35L11.35 -24.2L11.15 -23.9L11.1 -23.7L11.15 -23.65L11.2 -23.55L11.25 -23.45L11.3 -23.4Q11.9 -23.1 12.3 -23.55L12.4 -23.75L12.3 -24L11.85 -24.3L11.6 -24.35M10.9,-20.15Q10.65 -19.9 10.25 -19.95L10.2 -20L10.2 -20.15Q9.85 -20.25 9.75 -20.65Q9.6 -21.1 9.8 -21.5Q9.9 -21.9 10.3 -22Q10.9 -21.9 11.15 -21.25Q11.45 -20.6 10.9 -20.15M10.25,-20.5L10.6 -20.85L10.55 -21.4L10.4 -21.6L10.25 -21.2L10.25 -20.75L10.25 -20.5M8.4,-20.35L8.8 -19.1Q9 -18.4 8.55 -17.85Q8.3 -17.5 7.9 -17.7Q7.5 -18.15 7.6 -18.75L7.95 -19.85L8.4 -20.35M8,-19.15L7.9 -18.4L8.1 -18Q8.5 -18.15 8.5 -18.7L8.4 -19.55L8.2 -19.8L8 -19.15M4.15,-23.6Q2.8 -23.05 2.4 -24.35Q2 -25.85 3.35 -26.35Q5.25 -26.35 5 -24.7Q4.9 -23.95 4.15 -23.6M-0.35,-30.2Q1.45 -30.05 1 -28.4Q0.7 -27.4 -0.15 -27.7Q-1.45 -28.1 -1.15 -29.45Q-1 -30.1 -0.35 -30.2M-2.95,-26.4L-3.15 -26.2Q-2.85 -25.6 -2.3 -25.8Q-1.95 -25.95 -1.9 -26.35L-1.85 -26.75L-1.9 -26.8L-1.9 -26.85L-2 -26.9L-2.05 -26.95L-2.15 -27L-2.35 -27L-2.4 -26.95Q-2.65 -26.95 -2.7 -26.75L-2.95 -26.4M-2.9,-27.15L-2.15 -27.3Q-1.05 -26.8 -1.85 -25.75Q-2.35 -25.05 -3 -25.6Q-3.9 -26.35 -2.9 -27.15" />
</g>
</svg>
