<?xml version="1.0" encoding="utf-8"?>
<svg version="1.1" id="Layer_1"
xmlns="http://www.w3.org/2000/svg"
xmlns:xlink="http://www.w3.org/1999/xlink"
width="34px" height="22px"
xml:space="preserve">
<g id="1176" transform="matrix(1, 0, 0, 1, 30.1, 17.65)">
<path style="fill:#1C0A00;fill-opacity:1" d="M2.4,-2.2Q3.4 -1.2 3.4 0.15Q3.4 1.5 2.4 2.45Q1.45 3.45 0.1 3.45Q-1.25 3.45 -2.25 2.45L-3.05 1.1L-10.75 2.55L-23.3 2.55L-27.15 -2.5L-30.1 -2.5Q-29.65 -9.9 -16.95 -10.2L-4.9 -11.65L0.1 -3.15Q1.45 -3.15 2.4 -2.2M-22.75,1.7L-11 1.7L-3.45 0.05L-3.45 -1.5L-3.45 -2.6L-25.85 -2.6L-25 -1.5L-22.75 1.7M-18.55,-3.2L-18.55 -7.55L-18.55 -8.6L-18.55 -9.2Q-27.2 -8.45 -29 -3.2L-27.8 -3.2L-23.15 -3.2L-18.55 -3.2M-10.8,-3.8L-11.65 -3.8L-11.65 -6.65L-10.8 -6.65L-10.8 -3.8M-14.1,-6.65L-13.25 -6.65L-13.25 -3.8L-14.1 -3.8L-14.1 -6.65M-16.55,-6.65L-15.7 -6.65L-15.7 -3.8L-16.55 -3.8L-16.55 -6.65M-17.7,-3.2L-5.7 -3.2L-2.75 -3.2L-1.3 -3.65L-5.25 -10.8L-17.7 -9.25L-17.7 -8.65L-17.7 -7.65L-17.7 -3.2" />
<path style="fill:#463E36;fill-opacity:1" d="M-9.7,-4.35L-9.7 -5.9L-10.8 -6.65Q-8 -6.2 -7.4 -3.8L-10.75 -3.8L-9.7 -4.35M-13.25,-6.65L-11.65 -6.65L-11.65 -3.8L-13.2 -3.8L-12.15 -4.35L-12.15 -5.9L-13.25 -6.65M-14.1,-3.8L-15.7 -3.8L-14.6 -4.35L-14.6 -5.9L-15.7 -6.65L-14.1 -6.65L-14.1 -3.8M-16.55,-3.8L-16.95 -3.8L-16.95 -6.65L-16.55 -6.65L-16.55 -3.8" />
<path style="fill:#27211C;fill-opacity:1" d="M-13.25,-6.65L-14.1 -6.65L-15.7 -6.65L-16.55 -6.65L-16.95 -6.65L-16.95 -3.8L-16.55 -3.8L-15.7 -3.8L-14.1 -3.8L-13.25 -3.8L-13.2 -3.8L-11.65 -3.8L-10.8 -3.8L-10.75 -3.8L-7.4 -3.8Q-8 -6.2 -10.8 -6.65L-11.65 -6.65L-13.25 -6.65M-5.7,-3.2L-17.7 -3.2L-17.7 -7.65L-10.05 -7.65Q-6.35 -7.1 -5.7 -3.2" />
<path style="fill:#776E64;fill-opacity:1" d="M-10.75,-3.8L-10.8 -3.8L-10.8 -6.65L-9.7 -5.9L-9.7 -4.35L-10.75 -3.8M-13.25,-6.65L-12.15 -5.9L-12.15 -4.35L-13.2 -3.8L-13.25 -3.8L-13.25 -6.65M-15.7,-6.65L-14.6 -5.9L-14.6 -4.35L-15.7 -3.8L-15.7 -6.65" />
<linearGradient
id="LinearGradID_399" gradientUnits="userSpaceOnUse" gradientTransform="matrix(-0.00189209, -0.0107422, 0.0157318, -0.0027771, -15.7, -6.65)" spreadMethod ="pad" x1="-819.2" y1="0" x2="819.2" y2="0" >
<stop  offset="0" style="stop-color:#511A16;stop-opacity:1" />
<stop  offset="0.505882" style="stop-color:#6D4414;stop-opacity:1" />
<stop  offset="1" style="stop-color:#511A16;stop-opacity:1" />
</linearGradient>
<path style="fill:url(#LinearGradID_399) " d="M-25,-1.5L-3.45 -1.5L-3.45 0.05L-11 1.7L-22.75 1.7L-25 -1.5M-19.15,-8.6L-18.55 -8.6L-18.55 -7.55Q-23.15 -7.2 -23.15 -3.2L-27.8 -3.2Q-26.25 -7.5 -19.15 -8.6M-5.25,-10.8L-1.3 -3.65L-2.75 -3.2L-5.7 -3.2Q-6.35 -7.1 -10.05 -7.65L-17.7 -7.65L-17.7 -8.65L-5.25 -10.8" />
<path style="fill:#9F6329;fill-opacity:0.988235" d="M-27.8,-3.2L-29 -3.2Q-27.2 -8.45 -18.55 -9.2L-18.55 -8.6L-19.15 -8.6Q-26.25 -7.5 -27.8 -3.2M-17.7,-8.65L-17.7 -9.25L-5.25 -10.8L-17.7 -8.65" />
<path style="fill:#3F1206;fill-opacity:0.988235" d="M-25,-1.5L-25.85 -2.6L-3.45 -2.6L-3.45 -1.5L-25 -1.5M-18.55,-7.55L-18.55 -3.2L-23.15 -3.2Q-23.15 -7.2 -18.55 -7.55" />
<path style="fill:#1C0A00;fill-opacity:1" d="M-2.25,-13.1L-4.3 -15L-6.45 -16.55L-6.45 -14.4L-4.9 -13L-3.75 -11.4Q-1.85 -8 -1.75 -2.25L-1.75 -0.2L2.15 -0.2L2.1 -2.25Q1.65 -8.75 -2.25 -13.1M-7.15,-17.65Q-3.9 -15.95 -1.7 -13.7Q2.75 -9.15 3 -2.25L2.95 0.45L-2.3 0.45L-2.3 -2.25Q-2.55 -7.5 -4.35 -10.75Q-5.45 -12.75 -7.15 -14L-7.15 -17.65" />
<path style="fill:#9F6329;fill-opacity:0.988235" d="M-4.9,-13L-6.45 -14.4L-6.45 -16.55L-4.3 -15L-4.9 -13" />
<path style="fill:#3F1206;fill-opacity:0.988235" d="M2.1,-2.25L2.15 -0.2L-1.75 -0.2L-1.75 -2.25L2.1 -2.25" />
<linearGradient
id="LinearGradID_400" gradientUnits="userSpaceOnUse" gradientTransform="matrix(-0.0018158, -0.0103455, 0.0157318, -0.0027771, -17, -8.2)" spreadMethod ="pad" x1="-819.2" y1="0" x2="819.2" y2="0" >
<stop  offset="0" style="stop-color:#511A16;stop-opacity:1" />
<stop  offset="0.505882" style="stop-color:#6D4414;stop-opacity:1" />
<stop  offset="1" style="stop-color:#511A16;stop-opacity:1" />
</linearGradient>
<path style="fill:url(#LinearGradID_400) " d="M-4.3,-15L-2.25 -13.1Q1.65 -8.75 2.1 -2.25L-1.75 -2.25Q-1.85 -8 -3.75 -11.4L-4.9 -13L-4.3 -15" />
</g>
</svg>
