<?xml version="1.0" encoding="utf-8"?>
<svg version="1.1" id="Layer_1"
xmlns="http://www.w3.org/2000/svg"
xmlns:xlink="http://www.w3.org/1999/xlink"
width="39px" height="45px"
xml:space="preserve">
<g id="429" transform="matrix(1, 0, 0, 1, 4.8, 21.15)">
<path style="fill:#000000;fill-opacity:0.4" d="M11.9,-14.75Q9.95 -15.35 8.65 -16.7L8.25 -17.15L8.2 -17.3L8.3 -18.15Q8.55 -18.9 9.1 -19.5Q10 -20.45 11.25 -21.05L11.5 -21.15L14.4 -21L17.3 -20.25Q18.3 -19.8 18.85 -18.95L18.5 -17.4Q16.9 -13.2 11.9 -14.75M1.85,-15.95Q2.25 -14.95 1.4 -14.25Q-0.75 -12.35 -3.8 -13.9L-4.6 -14.5L-4.8 -15.35L-4.55 -16.2L-3.65 -16.95L-2.35 -17.5Q-1.4 -17.6 -0.7 -17.05Q-0.15 -16.6 0.55 -16.5Q1.3 -16.4 1.85 -15.95M6.45,-2.5Q8.3 -4.65 11 -5.15L15.8 -3.25Q18.35 -2.15 18.85 0.55L18.85 2.05Q18.75 2.75 18.2 3.3Q15.35 3.4 13.95 0.2Q12.5 -3.05 10.6 -1.4Q8.7 0.25 7.8 1.55Q6.9 2.8 5.2 1.3Q5.1 0.4 5.35 -0.4Q5.65 -1.6 6.45 -2.5M26.25,-8.3Q26.05 -7.55 25.25 -7.1L23.95 -6.3L23.7 -6.2L23.25 -6.3L23.1 -6.35L22.65 -6.55L22.5 -6.65L22.4 -7.05Q22.35 -7.75 22.85 -8.2L23.85 -9.2L24.25 -9.45L24.7 -9.35L25.6 -9.2Q25.95 -9.15 26.15 -8.9L26.25 -8.3M30.1,-8.75Q30.4 -9.3 30.9 -9.45L31.1 -9.4L31.3 -9.4L31.45 -9.45L31.65 -9.45L32.1 -9.05L32.3 -8.85L32.55 -8.35Q32 -7.7 31.75 -6.9Q31.35 -5.55 29.9 -5.2L28.9 -5.15Q28.05 -5.8 28.6 -6.6L30.1 -8.75M22.3,14.95L18.8 14.8L17.95 16.2Q15.85 18.5 14.2 16Q12.95 14.1 13.4 12.15Q13.8 10.65 14.9 9.7Q15.85 9.8 16.15 10.8Q16.4 11.6 17 12.25L17.45 13.05L17.7 13.15L17.45 12.65Q16.55 11.15 18.45 10.3L21.45 9.25Q24.6 9.55 25.3 12.5Q25.45 13.15 24.8 13.65Q23.7 14.55 22.3 14.95M5.45,15.5L5.05 16.6Q5.55 17.35 5.25 18.25Q4.8 19.45 4.65 20.7Q4.5 21.95 3.15 21.6L2.9 21.3L2.45 20.75L2.05 19.9L1.95 19.75L1.8 19.8L1.3 19.8L1 19.6L0.85 19.45L0.85 18.15L0.75 16.15Q0.6 15.2 0.9 14.35L1 14.2L1.15 14.1L2.05 14L2.75 14.15L2.95 13.85L3.3 13.35L4.05 12.6L4.25 12.55Q5.45 12.5 5.6 13.6Q5.8 14.6 5.45 15.5M9,19.15L9 21.05Q8.7 23 6.5 23Q5.95 23 5.55 22.65L5.7 21.2Q6 20.15 6.9 19.4Q7.4 19 7.95 18.75L8.4 18.8L8.7 18.9L9 19.15" />
<path style="fill:#000000;fill-opacity:0.4" d="M13.45,-20.7Q17.75 -20.1 17.7 -15.75Q17.7 -13.45 15.25 -12.75Q11.2 -11.6 8.8 -14.25L8.85 -14.3Q8.45 -14.8 8.4 -15.35Q8.3 -15.9 8.7 -16.05L8.65 -16.6Q8.65 -18.6 10.4 -19.75Q11.8 -20.65 13.45 -20.7M11.55,-2.9Q18.25 -2.5 16.1 2.85Q14.95 5.65 11.85 3.95Q7.05 1.35 10.6 -2.35L11.55 -2.9M33.95,-8Q33.7 -7.15 32.75 -7.1Q28.4 -6.9 29.75 -10.3Q30.05 -11.15 30.9 -11.4Q35.1 -11.55 33.95 -8M26.75,13.5Q26.85 16.25 24.25 17.2Q21.1 18.4 18.75 15.75L16.95 13.65L17 12.8L17.45 10.7Q17.95 8.75 20.05 8.35L21.05 8.05Q26.5 8.2 26.75 13.5M4.25,20.3L4.35 20.25L4.55 20.2L5.8 20.4L7.05 21.05Q7.6 21.35 7.7 21.9L6.95 22.8Q5.6 23.5 4.45 22.25Q3.85 21.65 3.75 20.8L3.8 20.7L4.15 20.4L4.25 20.3M3.05,17.45Q-2.5 16.3 -0.2 11.5Q0.55 10 2.35 10Q8.8 10.85 6.35 15.85Q5.35 17.9 3.05 17.45" />
</g>
</svg>
