<?xml version="1.0" encoding="utf-8"?>
<svg version="1.1" id="Layer_1"
xmlns="http://www.w3.org/2000/svg"
xmlns:xlink="http://www.w3.org/1999/xlink"
width="26px" height="12px"
xml:space="preserve">
<g id="1234" transform="matrix(1, 0, 0, 1, -0.2, 4)">
<path style="fill:#1F0E05;fill-opacity:0.988235" d="M15.65,0.5L15.65 1.8L15.65 4.5L15.65 5.8L15.65 6.8L16.55 6.3L16.55 5.5L16.55 4.5L16.55 1.8L16.55 0.55L16.55 -0.95L16.55 -2.6L15.65 -3.1L15.65 -1.4L15.65 0.5M16.9,-0.3L18.45 -0.6L18.45 -4L20.2 -2.9L20.2 0.9L21.2 0.9L21.75 0.25Q22.45 -0.4 23.35 -0.4Q24.3 -0.4 25.05 0.25Q25.7 0.95 25.7 1.9Q25.7 2.85 25.05 3.5Q24.3 4.25 23.35 4.25Q22.45 4.25 21.75 3.5L21.2 2.85L20.2 2.85L20.2 6.55L18.45 7.75L18.45 4.25L16.9 3.9L16.9 6.55L15.15 7.75L15.15 3.7L0.55 3.7L0.55 0.05L15.15 0.05L15.15 -4L16.9 -2.9L16.9 -0.3M18.85,0.5L18.85 1.8L18.85 4.5L18.85 5.8L18.85 6.8L19.75 6.3L19.75 5.5L19.75 4.5L19.75 1.8L19.75 0.55L19.75 -0.95L19.75 -2.6L18.85 -3.1L18.85 -1.4L18.85 0.5M23.6,3.65Q24.25 3.65 24.8 3.1L24.95 2.85L25.2 1.9Q25.2 1.2 24.8 0.75Q24.3 0.25 23.7 0.2L23.6 0.2L23.4 0.2L22.35 0.75Q21.8 1.2 21.8 1.9Q21.8 2.45 22.05 2.85L22.35 3.1L23.4 3.65L23.6 3.65M20.25,1.4L20.25 2.1L21.2 2.1L21.2 1.4L20.25 1.4M17,3.6L18.35 3.8L18.35 2.85L18.35 2.05L17 1.9L17 2.85L17 3.6M1.55,3.15L15.15 3.15L15.15 2.4L15.15 1.5L1.55 1.5L1.55 2.4L1.55 3.15" />
<path style="fill:#3B3B3B;fill-opacity:0.988235" d="M15.65,-1.4L15.65 -3.1L16.55 -2.6L16.55 -0.95L15.65 -1.4M18.85,-1.4L18.85 -3.1L19.75 -2.6L19.75 -0.95L18.85 -1.4" />
<path style="fill:#BDBDBD;fill-opacity:0.988235" d="M15.65,0.5L15.65 -1.4L16.55 -0.95L16.55 0.55L15.65 0.5M18.85,0.5L18.85 -1.4L19.75 -0.95L19.75 0.55L18.85 0.5M24.7,1.3L24.95 1.9L24.7 2.45Q24.45 2.75 24.2 2.75Q23.75 2.75 23.6 2.45Q23.3 2.25 23.3 1.9L23.6 1.3Q23.75 1.05 24.2 1.05Q24.45 1.05 24.7 1.3M21.2,1.4L21.2 2.1L20.25 2.1L20.25 1.4L21.2 1.4" />
<path style="fill:#5F3A23;fill-opacity:0.988235" d="M18.35,2.85L18.35 3.8L17 3.6L17 2.85L18.35 2.85M15.15,2.4L15.15 3.15L1.55 3.15L1.55 2.4L15.15 2.4" />
<path style="fill:#7E4827;fill-opacity:0.988235" d="M15.65,5.8L15.65 4.5L16.55 4.5L16.55 5.5L15.65 5.8M19.75,4.5L19.75 5.5L18.85 5.8L18.85 4.5L19.75 4.5" />
<path style="fill:#461F07;fill-opacity:0.988235" d="M16.55,5.5L16.55 6.3L15.65 6.8L15.65 5.8L16.55 5.5M19.75,5.5L19.75 6.3L18.85 6.8L18.85 5.8L19.75 5.5M17,2.85L17 1.9L18.35 2.05L18.35 2.85L17 2.85M1.55,2.4L1.55 1.5L15.15 1.5L15.15 2.4L1.55 2.4" />
<path style="fill:#451E06;fill-opacity:0.988235" d="M23.5,0.35L23.3 0.5Q22.3 1.1 22.45 2.05Q22.55 2.95 23.4 3.65L22.35 3.1L22.05 2.85Q21.8 2.45 21.8 1.9Q21.8 1.2 22.35 0.75L23.4 0.2L23.6 0.2L23.7 0.2L23.5 0.35" />
<path style="fill:#3C3C3C;fill-opacity:0.988235" d="M24.2,1.05Q23.75 1.05 23.6 1.3L23.3 1.9Q23.3 2.25 23.6 2.45Q23.75 2.75 24.2 2.75Q24.45 2.75 24.7 2.45L24.95 1.9L24.7 1.3Q24.45 1.05 24.2 1.05M23.4,3.65Q22.55 2.95 22.45 2.05Q22.3 1.1 23.3 0.5L23.5 0.35L23.7 0.2Q24.3 0.25 24.8 0.75Q25.2 1.2 25.2 1.9L24.95 2.85L24.8 3.1Q24.25 3.65 23.6 3.65L23.4 3.65" />
<path style="fill:#E0E0E0;fill-opacity:1" d="M15.65,1.8L15.65 0.5L16.55 0.55L16.55 1.8L15.65 1.8M18.85,1.8L18.85 0.5L19.75 0.55L19.75 1.8L18.85 1.8" />
<path style="fill:#834C2B;fill-opacity:0.988235" d="M15.65,4.5L15.65 1.8L16.55 1.8L16.55 4.5L15.65 4.5M18.85,4.5L18.85 1.8L19.75 1.8L19.75 4.5L18.85 4.5" />
<path style="fill:#210F06;fill-opacity:1" d="M9.3,4.25L10.6 3.15L10.6 2.65L10.6 0.65L10.35 0.4L9.3 -0.55L0.2 -0.55L0.2 -1.1L10.05 -1.1L11.3 0.05L11.3 3.7L10.05 4.9L0.2 4.9L0.2 4.25L9.3 4.25" />
<path style="fill:#3D3C3C;fill-opacity:1" d="M10.35,0.4L10.6 0.65L10.6 2.65L9.7 2.65L9.7 1.65L9.7 0.9L9.7 0.4L10.35 0.4M1,0.4L1 0.9L1 1.65L1 2.65L0.2 2.65L0.2 0.4L1 0.4M7.35,1.65L7.35 0.9L7.35 0.4L8.15 0.4L8.15 0.9L8.15 1.65L8.15 2.65L7.35 2.65L7.35 1.65M5.8,0.4L5.8 0.9L5.8 1.65L5.8 2.65L4.95 2.65L4.95 1.65L4.95 0.9L4.95 0.4L5.8 0.4M2.55,1.65L2.55 0.9L2.55 0.4L3.4 0.4L3.4 0.9L3.4 1.65L3.4 2.65L2.55 2.65L2.55 1.65" />
<path style="fill:#707070;fill-opacity:1" d="M8.15,0.4L8.15 0.2L9.7 0.2L9.7 0.4L8.15 0.4M8.15,2.65L9.7 2.65L9.7 3.3L8.15 3.3L8.15 2.65M7.35,2.65L7.35 3.3L5.8 3.3L5.8 2.65L7.35 2.65M4.95,2.65L4.95 3.3L3.4 3.3L3.4 2.65L4.95 2.65M2.55,2.65L2.55 3.3L1 3.3L1 2.65L2.55 2.65M5.8,0.4L5.8 0.2L7.35 0.2L7.35 0.4L5.8 0.4M3.4,0.2L4.95 0.2L4.95 0.4L3.4 0.4L3.4 0.2M1,0.4L1 0.2L2.55 0.2L2.55 0.4L1 0.4" />
<path style="fill:#8C8C8C;fill-opacity:1" d="M8.15,0.9L8.15 0.4L9.7 0.4L9.7 0.9L8.15 0.9M9.7,1.65L9.7 2.65L8.15 2.65L8.15 1.65L9.7 1.65M5.8,0.9L5.8 0.4L7.35 0.4L7.35 0.9L5.8 0.9M7.35,1.65L7.35 2.65L5.8 2.65L5.8 1.65L7.35 1.65M3.4,0.9L3.4 0.4L4.95 0.4L4.95 0.9L3.4 0.9M4.95,1.65L4.95 2.65L3.4 2.65L3.4 1.65L4.95 1.65M1,0.9L1 0.4L2.55 0.4L2.55 0.9L1 0.9M2.55,1.65L2.55 2.65L1 2.65L1 1.65L2.55 1.65" />
<path style="fill:#2C2C2C;fill-opacity:1" d="M4.95,0.4L4.95 0.2L3.4 0.2L3.4 0.4L2.55 0.4L2.55 0.2L1 0.2L1 0.4L0.2 0.4L0.2 -0.55L9.3 -0.55L10.35 0.4L9.7 0.4L9.7 0.2L8.15 0.2L8.15 0.4L7.35 0.4L7.35 0.2L5.8 0.2L5.8 0.4L4.95 0.4M1,2.65L1 3.3L2.55 3.3L2.55 2.65L3.4 2.65L3.4 3.3L4.95 3.3L4.95 2.65L5.8 2.65L5.8 3.3L7.35 3.3L7.35 2.65L8.15 2.65L8.15 3.3L9.7 3.3L9.7 2.65L10.6 2.65L10.6 3.15L9.3 4.25L0.2 4.25L0.2 2.65L1 2.65" />
<path style="fill:#B6B6B6;fill-opacity:1" d="M8.15,0.9L9.7 0.9L9.7 1.65L8.15 1.65L8.15 0.9M5.8,1.65L5.8 0.9L7.35 0.9L7.35 1.65L5.8 1.65M3.4,1.65L3.4 0.9L4.95 0.9L4.95 1.65L3.4 1.65M2.55,0.9L2.55 1.65L1 1.65L1 0.9L2.55 0.9" />
</g>
</svg>
