<?xml version="1.0" encoding="utf-8"?>
<svg version="1.1" id="Layer_1"
xmlns="http://www.w3.org/2000/svg"
xmlns:xlink="http://www.w3.org/1999/xlink"
width="130px" height="99px"
xml:space="preserve">
<g id="396" transform="matrix(1, 0, 0, 1, 28.75, 42.25)">
<path style="fill:#333333;fill-opacity:0.788235" d="M32.45,-28.5L35.25 -30.2L38.5 -32.05L40.65 -33L40.9 -33.1L42.8 -33.05L43 -32.85L43.6 -32.45L44.55 -32.35L44.85 -32.35L45.4 -32.3L45.6 -32.1L45.75 -31.9L45.8 -31.75L45.85 -31.55L45.85 -31.4L45.85 -31.2L45.8 -31L45.75 -30.8Q45.15 -30 44.2 -29.6Q41.45 -28.35 38.5 -27.45Q35.25 -26.45 32.1 -27.35L31.9 -27.55Q31.85 -28.2 32.45 -28.5M23.05,-28.8Q23.75 -25.15 25.5 -21.85Q26.9 -19.3 24.6 -17.25L24.4 -14.85Q24.45 -13.2 24.85 -11.55Q25.2 -9.9 25.15 -8.2Q25.05 -6.6 24.35 -5.05L24.15 -4.9L23.9 -4.75L23.2 -4.6L22.85 -4.45Q22.15 -3.6 21.7 -2.55L20.75 0.05L19.75 2.65Q19.3 3.8 18.45 4.6L18.15 4.45L17.95 4.3L17.8 4.25L17.7 4.35L17.65 4.45L17.25 4.45Q18.3 -1.35 17.65 -7.2Q17 -13.05 17.2 -19.2Q17.4 -25.35 17.2 -31.4Q17 -37.3 19.2 -42.2L19.2 -42.25Q22.4 -40.25 22.35 -36.1Q22.35 -32.35 23.05 -28.8M7.45,-34.95L7.9 -34.5L8.2 -34.2L8.35 -34.05L9.65 -33.05L9.9 -32.95L10.15 -32.75L10.8 -32.05L10.8 -31.5L10.8 -30.95L10.8 -29.85L10.75 -28.9L10.35 -27.2Q9.85 -25.9 8.8 -25.05L7 -23.45L5.2 -23.35Q4.65 -23.5 4.2 -23.75L2.5 -24.6L0.9 -25.25L-2.7 -25.35L-2.95 -25.5L-3.35 -26L-3.5 -26.2L-3.75 -26.4L-3.95 -26.55L-4.8 -27.25L-5.15 -27.55L-5.4 -27.75L-6.15 -28.35L-6.15 -28.55L-6.15 -28.9L-6.15 -29.1L-6.15 -29.3L-6.15 -29.45L-6.15 -29.65L-6.05 -30L-5.85 -30.4L-5.9 -30.55Q-6.15 -30.95 -5.9 -31.35L-5.75 -31.7Q-5.65 -32.4 -5.15 -32.95L-4.35 -33.75L-2.8 -35Q-2.2 -35.5 -1.45 -35.65L0.8 -35.3L2.6 -34.95Q3.9 -34.75 4.9 -34.95L7.15 -35.15L7.45 -34.95M4.8,-0.95Q1.3 -1.9 -1.45 -3.95Q-3.35 -5.3 -2.9 -7.8L-2.6 -8.15L-2.15 -8.55L-1.95 -8.75Q-1.1 -9.4 0 -9.35Q1.95 -9.25 3.4 -10.3L3.45 -10.35L5.75 -10.55Q7.75 -10.4 9.2 -9.25Q10.95 -7.8 12 -5.9Q13.1 -3.8 12 -1.7L10.9 -0.45Q9.8 0.05 8.8 -0.1L4.8 -0.95M32.4,-14.45Q32.55 -16.95 35.3 -19.35Q38.9 -22.4 43.25 -23.1Q44.8 -23.35 46.2 -24.25L49 -26.05Q52.55 -23.55 52.5 -18.55Q52.5 -16.65 51.6 -15Q50.35 -12.6 47.9 -11.15L48.1 -11.1L48.4 -10.95L48.55 -10.75L48.65 -10.4L48.7 -10.2L48.7 -10.05L48.65 -9.65L48.55 -9.3L48.45 -9.1L48.6 -8.95L48.95 -8.55L49 -8.5L50 -8.9L50.95 -9.3L52.45 -9.2L53.25 -9Q53.85 -8.8 54.4 -8.75L56.9 -8.55L57.15 -8.4L57.3 -8.25L57.45 -8.05Q57.5 -8 57.65 -7.9L57.9 -7.7L58.15 -7.5L58.3 -7.3L58.4 -6.8L58.5 -6.4L58.55 -6.2L58.75 -5.25L58.8 -4.2L58.55 -2.9L58.35 -2.55Q57.05 -1.8 55.75 -1.15Q50.45 1.45 44.55 2.85Q40.4 3.8 37.2 0.8Q36.5 0.15 36.7 -0.8L36.65 -1Q36.5 -1.4 35.95 -1.3L35.65 -1.35L35.45 -1.45L35.15 -1.65L34.55 -2.1Q34.25 -2.35 34.2 -2.7L34.3 -3.45L34.45 -3.85L34.5 -4Q34.7 -5.05 35.45 -5.85Q36.3 -6.7 37.3 -7.05L35.85 -8.05Q35.1 -7.75 34.65 -7.05L33.3 -5.5Q31.9 -4.35 30.3 -5L29.8 -5.25L29.75 -6.55Q29.75 -7.5 30.05 -8.4Q30.35 -9.4 30.8 -10.4Q31.3 -11.35 31.3 -12.45L31.35 -12.8L31.5 -13L31.9 -13.35L32.25 -13.75L32.4 -14.1L32.4 -14.45M64.5,-32.7Q69.95 -31.75 74.8 -29.15Q76.35 -28.3 76 -26.5Q74.8 -20.25 68.05 -19.45Q62.7 -18.8 60.55 -22.55Q60.15 -23.25 60 -24.15Q59.5 -27 58.6 -29.5L58.65 -29.65L59.15 -30.15L61.2 -31.3L62.8 -32.15L63.05 -32.2L63.4 -32.3L64.5 -32.7M79.05,-19.4L82.9 -19L85.35 -19.1Q86.85 -19.5 87.65 -18.3L88.1 -17.5Q87.9 -16.45 87.3 -15.7Q83.8 -11.5 78.45 -12.55L75.75 -12.25Q70.95 -10.2 65.75 -10.05Q62.85 -10 60.9 -12.05L60.85 -12.25L60.8 -12.45L60.8 -12.6L60.8 -12.8L60.8 -13L60.8 -13.2L60.85 -13.35L60.9 -13.55L61.6 -14.3Q63 -15.85 65.1 -16.4L75.5 -18.75L79.05 -19.4M69.9,-8.65L75.4 -10.05L80.45 -11L81.25 -10.95L82 -10.75L83 -10.65L83.9 -10.75L84.2 -10.65L84.4 -10.45L84.55 -10.25L84.65 -10.1L84.65 -9.9L84.7 -9.75L84.85 -9.55L85 -9.35L85.1 -9L85.15 -8.8Q84.1 -7.25 82.1 -6.45Q77.2 -4.45 71.85 -5.8Q70.35 -6.15 69.35 -7.25Q69.1 -7.45 69.2 -7.8Q69.3 -8.45 69.9 -8.65M84.4,16.85L84.45 17.4L84.35 18.15Q83.75 18.9 82.95 19.25Q78.8 21 74.55 19.35L71.9 18.4L71.75 18L71.7 17.45L71.7 16.9L71.7 16.75L71.7 16.55L71.7 16.2L71.75 16L73.85 14.55L74.6 14.15Q77.3 12.85 80.3 13.1L80.55 13.25L80.75 13.6L80.85 13.95L80.95 14.35Q81.15 15.7 83.3 15L83.75 15.05Q84.25 15.2 84.35 15.7L84.4 16.5L84.4 16.65L84.4 16.85M92.3,33.5L93.1 32.5Q94.15 31.45 95.55 31.2L96.3 31.1Q96.95 31.25 97.55 31.55L98.45 32.45L98.7 33.7L98.9 35L99 35.15L99.3 35.4L99.8 35.65L100.15 36L100.5 36.55L100.7 36.95Q100.3 38.45 99.05 39.3L95.45 39.45Q93.3 38.45 92.05 36.45Q91.5 35.5 91.7 34.3L92.3 33.5M87.5,28.2L87.6 28.4L87.95 29.15L88.05 30Q87.85 30.75 87.25 31.25Q86.65 31.7 85.95 31.8L84.75 31.8L84.5 31.6L84.35 31.45L84.3 31.25L80.55 31.2Q78.9 31.2 77.95 29.95L76.8 28.8L76.65 28.7L76.7 28.5L76.75 28.3L76.9 28.1L76.95 27.95L76.95 27.75L76.95 27.55L76.95 27.4L77.15 27.25L77.65 27.2L77.85 27.15L78.35 26.9L78.95 26.5L79.55 26.15L79.8 26.1L82.5 26.3L84.4 26.75Q85.35 27.05 86.15 27.6Q86.75 28.05 87.5 28.2M41.15,3.6Q45.85 3.3 49.1 6.6Q52.25 9.8 54.5 13.4Q55 14.25 54.9 15.25Q54.4 20.1 50.25 22.95Q48.85 23.9 47.35 23.25L46.15 22.4L45.9 22.35L43.85 22.3L43.35 22.15Q42.85 22.1 42.7 21.75Q41.9 20 40.1 19.2Q38.35 18.45 36.85 17.2Q34.75 15.5 33.4 13.55Q33 12.95 32.85 12.1L32.75 12.05L32.1 11.7L31.3 11.35L30.8 11.1L30.35 10.75L30.2 10.55L30.15 10.4Q30.05 9.4 30.3 8.5Q30.7 7.3 31.9 6.5L34.85 4.6Q36.25 3.65 38 4.3L38.2 4.5L38.35 4.65L38.5 4.8L38.55 4.8L39.45 4.55L40.15 4.2L40.75 3.85L41.15 3.65L41.15 3.6M57.2,27.75L58.85 29.2Q59.95 30.05 61.3 30.6Q62.55 31.15 63.45 32.1Q64.45 33.25 65.1 34.6L65.25 34.9L66.7 35.3Q67.6 35.6 68.05 36.4L68.6 37.7L68.9 38.5L69.2 39.2L69.95 39.65Q70.9 40.05 71.1 41.05L71 42.1Q70.85 42.55 70.85 43.1Q70.8 43.95 70.1 44.6L69.75 44.95L54.65 43.5Q53.8 43.4 53.25 42.7Q51.65 40.55 50.8 38Q50.3 36.4 50.7 34.9L50.55 34.7L50.15 34.3Q49.6 33.8 48.75 33.75Q47.85 33.65 47.55 33Q47.95 32.1 48.9 31.7L52.05 29.85Q53.2 28.9 54.6 28.15L55.9 27.65L56.9 27.7L57.2 27.75M40.65,28.9L38.2 28.45Q36.5 27.9 35.05 26.85Q33.8 26 32.25 25.3Q31.3 24.85 30.55 24.2L30.4 24L30.35 23.8L30.35 23.65L30.35 23.45L30.35 23.05L30.35 22.9L30.35 22.7L30.35 22.5L30.35 22.35L30.45 22.15L30.65 21.95L30.85 21.75L31.2 21.05L31.45 20.45L32 19.6Q32.3 19.2 32.75 19L33 18.95L34.25 19L34.55 19.05L36.45 19.25L36.75 19.3L37.15 19.65L38.3 20.65L40.05 22.9Q40.9 23.95 41.4 25.25Q41.95 26.75 41.25 28.2L40.95 28.85L40.65 28.9M2.5,8.35L2.7 9.8L2.45 10.6Q1.5 11.85 0 12.5Q-3.7 14.15 -7.7 13.15L-8.2 12.25L-8.3 11.3L-8.4 10.75Q-8.9 9.85 -8.9 8.7Q-8.9 7.35 -8.25 6.15Q-7.55 4.75 -5.9 4.35L-4.35 4.5L-3.65 4.8L-3.15 5.5L-3 5.7L-2.35 5.75Q-0.4 5.65 1 6.9L1.55 7.4L1.75 7.6L2.5 8.35M7.15,8.75Q9.55 8.4 11.15 10.05L14 13.3Q15.3 15.05 16.1 17.1Q16.65 18.65 16.55 20.2L14.05 20.65Q11.85 20.95 11.15 23Q10.5 24.9 8.75 25.8L5.85 25.75L5.7 25.6L5.55 25.4L5.35 25.2L5.25 25L5.15 24.85L5.05 24.65L4.7 24.65Q3.35 24.95 2.15 25.6L-0.3 25.75Q-1.2 25.45 -1.25 24.6L-1.25 24.4L-1.3 24.35L-1.5 24.35L-1.8 24.3L-1.9 24.15L-1.85 23.95L-0.65 22.15L2.05 18.25L4.15 14.35Q4.85 12.9 5 11.25Q5.1 10.15 5.75 9.2L5.85 9.05L5.9 9L6.15 8.95L6.7 8.85L6.9 8.85L7.15 8.8L7.15 8.75M-15.25,-26.35L-14.75 -26.25L-14.2 -26.05L-13.75 -25.75L-13.4 -25.25L-13.3 -25.05L-13.2 -24.85L-9.5 -24.4Q-8.5 -23.65 -8.4 -22.4Q-8.35 -21.35 -8.55 -20.4Q-9.45 -15.75 -13.7 -17Q-16.9 -17.9 -19.3 -19.9Q-20.45 -20.85 -19.75 -22.35Q-19.25 -22.5 -19.05 -22.9Q-18.7 -23.55 -17.9 -23.8L-17 -24.2L-16.75 -24.45Q-16.4 -24.65 -16.1 -24.95L-16.1 -25.15L-16.1 -25.35L-16.15 -25.55L-16.15 -25.7L-16.05 -25.9L-15.85 -26.1L-15.75 -26.2L-15.5 -26.25L-15.25 -26.3L-15.25 -26.35M-15.95,-3.3Q-15.15 -3.1 -14.6 -2.55Q-14 -1.95 -14.1 -1.1L-12.3 0.85Q-10.7 2.95 -11 5.3Q-11.2 7.35 -12.65 9Q-15.15 11.85 -19.5 10.65L-19.7 10.5L-19.9 10.3L-20.05 10.1L-20.2 10.1Q-21.55 10.2 -22.55 9.3Q-23.35 8.55 -24.45 8.35L-27.4 7.95L-28.4 6.25Q-29.25 3.95 -27.95 1.95L-26.55 -0.2Q-24.25 -3.6 -20.2 -3.45L-19.2 -3.6L-17.25 -3.5L-15.95 -3.3M-13.55,22.75L-13.25 22.75L-10.6 23.1Q-9.8 23.2 -9.15 23.7L-9.15 23.9L-9.1 24.1L-9.1 24.25Q-9 24.95 -9.35 25.4L-10.55 26.8L-12.05 28.35L-12.5 28.95L-12.8 29L-18.95 29L-19.25 28.95L-20 28.65L-20.1 28.45L-20.2 28.3L-20.35 28.1L-20.85 27.7L-22 27.05L-22.55 26.3L-22.55 26.1L-22.5 25.95L-22.45 25.75L-21.4 24.35Q-20.1 23.15 -18.3 22.85L-17.5 22.65L-13.55 22.75M-23.85,47.75L-22.75 46.95L-22.05 46.55L-21.65 46.4Q-20.55 46.15 -19.65 46.75Q-18.75 47.3 -18.1 48.15Q-17.4 49 -17.65 50.1L-18.4 52L-18.5 52.05L-20.2 52.05L-20.65 51.85L-21 51.55L-21.05 51.5L-21.35 51.55L-21.8 51.75L-21.95 51.85L-22.3 52L-22.4 52.1L-22.65 52.15L-22.9 52.15L-23.7 51.8L-24.4 51.4L-24.9 50.85L-25.3 50.4L-25.3 50.2L-25.3 49.85L-25.25 49.45L-25.15 49.1L-25.05 48.7L-25 48.35L-24.85 48.25L-23.85 47.75" />
<path style="fill:#333333;fill-opacity:0.878431" d="M23.4,13.15Q26.2 16.2 25.8 21.05Q25.45 25.6 29.1 28.4Q32.55 31 33.65 35.2L33.95 36.1Q34.05 35.95 34.25 35.9L34.35 35.9L34.8 37L34.95 37.7Q35.85 38.7 37.35 39.05L35.35 38.8L35.65 39.25L36.15 40.35L36.05 40.5L35.75 40.85L35.35 41.15L35.1 41.35Q36.8 41.45 38.2 42.75L39.3 44.2L40.35 45.8L40.25 46.6L39.75 47.35Q39.5 47.7 39.05 47.85Q38.7 48 38.5 48.35Q39.85 49.35 41 50.7Q42.7 52.75 45.3 53.3L46.85 53.7L47.35 53.9L47.45 54.25L47.65 54.8L47.85 55.2L47.95 55.75L47.9 55.9Q46 56.45 43.85 55.9L43.55 55.8Q38.9 53.1 33.3 52.5Q31.2 52.3 29.4 50.95Q28.6 50.35 27.5 50.15L27.2 49.6Q27.15 49.2 26.8 49.05L26.3 48.6L26 48.05L24.85 47.75L24.2 47.6L24.35 49.65L24.3 51.65L24.3 53.5L24.15 54.3L23.2 56.05L23.15 56.1L22.15 56.1L21.85 56.05L21 54.05Q20.6 53.2 20.45 52.2L20.05 50.35L20 49.6Q20.15 48.8 19.6 48.3Q16.95 50.7 12.45 51.85Q11.25 52.15 10.15 52.8Q7.05 54.65 3.4 55.2Q3.05 55.25 2.75 54.9Q3.4 53.7 4.85 52.95L7.5 51.35L8.7 50.15L9.25 49.15L9.55 48.55Q5 46.6 -0.5 46.7L-0.85 46.6L-2.35 47.45L-3.45 48.45Q-4 49.15 -4.8 49.55L-5.15 49.9Q-7.9 49.9 -9.75 47.6Q-10.75 46.4 -10.25 45L-9.3 43.5Q-8.75 42.95 -8.05 42.95L-6.9 41.55Q-5.25 39.5 -2.9 38.3L1.8 38.15L2.9 39.3Q4 40.2 5.35 40.65Q6.2 40.9 6.55 41.7L7.7 42.05L10.05 42.3L12.75 38.15L14.95 33.55Q15.9 31.45 16.15 29.2L16.75 25.75Q17.95 26.4 17.5 28.2Q17.1 29.8 16.95 31.5Q16.75 33.15 17.05 34.85L17.55 37.45Q18.3 38 19.25 38.2L20.65 38.65L21.8 38.5Q23 35.5 22.7 32.65L22 26.1Q21.75 23.7 22.2 21.45Q22.8 18.35 22.25 15.6L22.25 15.2L22.4 14.85L22.6 14.25L22.8 13.7L23.15 13.3L23.4 13.15" />
</g>
</svg>
