<?xml version="1.0" encoding="utf-8"?>
<svg version="1.1" id="Layer_1"
xmlns="http://www.w3.org/2000/svg"
xmlns:xlink="http://www.w3.org/1999/xlink"
width="55px" height="12px"
xml:space="preserve">
<g id="1183" transform="matrix(1, 0, 0, 1, -19.75, 3.7)">
<path style="fill:#707070;fill-opacity:0.694118" d="M71.2,-0.15L70.75 -0.2L70 -0.05L69.65 -0.05L69.85 -0.3L71.75 -0.45L71.85 -0.3L71.8 -0.2L71.2 -0.15M60.85,0.4L61.95 0.2L63.05 0.2L63.6 0.45L63.3 0.45L63 0.4L60.85 0.4" />
<path style="fill:#2E2E2E;fill-opacity:0.694118" d="M38.8,-0.85L38.75 -1.15Q38.75 -1.35 39.95 -1.75Q41.35 -2.2 42.15 -1.75Q41.65 -1.4 41.2 -1.35L40.35 -1.15L40.65 -0.85L40.65 -0.8L39.9 -0.65L38.8 -0.85M49.2,-2.85Q47.75 -2.4 47.15 -3.05L47.15 -3.3L51.75 -3.5L53.75 -3.6L55.25 -3.4L57.05 -3.65L58.3 -3.5L57.6 -3.4L57.4 -3.15L54.15 -2.75L53.8 -2.95L53.85 -3.15L52.4 -3.05L52.1 -3L53.05 -2.85L50.8 -2.6L49.95 -2.7L49.2 -2.85M49,-1.75L49.1 -1.9L53 -1.75L53.05 -1.65L49.25 -1.65L49 -1.75M71.2,-0.15L71.75 -0.1L71.75 0.05L71.1 0.15L67.25 0.55L69.75 1.2L73.4 1.2L73.9 1.35L73.25 1.55L72.9 1.6L73.45 1.65L70.5 1.85L69.55 1.65L68.3 1.65L68.15 1.55L64.95 1.55L62.9 1.85Q61.85 1.7 61.55 1.85L61.25 1.7Q62.85 0.9 63.25 1.4Q63.7 1.9 65.1 1.2L68.55 1.2Q67.55 0.75 66.35 0.75L64.95 1L64.25 1L64.05 0.95L64 0.8Q64 0.65 64.35 0.4L66.1 0.15L68.85 0.05L71.2 0.05L71.2 -0.15M60.85,0.4L57.15 0.4L57 0.5L55.8 0.6L55.6 0.6L55.6 0.4L55.5 0.3L55.2 0.4L53.85 0.7Q53.75 0.85 53.75 0.6Q53.75 0.25 55.3 0.15L60.55 0.15L60.85 0.4M57.75,4.6L59.6 4.6L59.9 4.9Q59.9 5.15 58.1 5.8L56.85 5.5L56.3 5.25L56.1 5.2L56.5 4.9L57.75 4.6M57.8,8L57.55 7.9L57.4 7.75Q57.6 7.5 57.95 7.4L58.65 7.45L57.8 8M46.8,0.5L46.95 1L49.8 1.15L50.15 1.35Q50.05 1.55 49.8 1.55L46.3 1.35Q45.85 1.35 45.4 1.65L44.85 1.65L44.8 1.35Q44.8 1.1 45.05 1.1Q44.6 1.05 44.55 0.8L43.85 0.6L43.3 0.8L43.25 0.5Q43.25 0.2 43.85 0.2L46.4 0.15L46.8 0.5M40.95,4.05L39.3 4.55Q39 4.65 38.75 4.95Q38.55 5.15 38.3 5.15Q37.6 5.15 37.6 4.35L37.6 4.3L36.75 4.3L36.7 4.4L35.55 4.4L35.2 4.15L35.45 4.2L36.65 4.15L36.75 4.05L37.65 4.05Q37.7 3.4 38.15 3.65L38.85 4.05L39.8 4.05L39.95 4.05L40.65 3.95L40.95 4.05M31.35,3.5L29.8 3.45L25.4 3.45L21.6 3.3L21.35 2.95L21.6 2.8L23.2 2.8L23.65 2.75L19.85 2.4L19.75 2.3Q20.35 1.5 21.7 1.6L24.4 1.95L25.45 2.95L29.95 3.05L31.3 3.25L31.4 3.35L33.1 3.4L33.4 3.6L31.35 3.5" />
</g>
</svg>
