<?xml version="1.0" encoding="utf-8"?>
<svg version="1.1" id="Layer_1"
xmlns="http://www.w3.org/2000/svg"
xmlns:xlink="http://www.w3.org/1999/xlink"
width="52px" height="21px"
xml:space="preserve">
<g id="377" transform="matrix(1, 0, 0, 1, -68.2, 4.1)">
<path style="fill:#0B0B0B;fill-opacity:0.8" d="M88.8,-0.75L89.4 -1.8L90.2 -2.6L93.9 -3.3L97.6 -4L101.75 -3.75L102.3 -2.95L103.85 -3.25L105.5 -3.45Q108.2 -3.45 109.55 -2.55Q110.4 -2 110.4 -1.4Q110.4 1.5 108.15 1.85Q105.1 2.35 104.3 3.45L102.85 3.45L103.2 4.45Q103.2 5.65 101.8 6.2Q99.8 7 94.45 7L91.9 7.2Q91.6 7.2 88.15 8.95Q84.75 10.65 83.35 10.65Q81.45 10.65 80.9 10.2L80.4 9.45L78.45 9.4L77.95 9L77.35 8.8L76.05 9.1L73.65 9.4L71.8 9.25L71.3 8.75L68.4 8.55L68.2 7.65Q68.2 6.9 69.85 5.15Q71.3 3.55 72.05 3.1Q72.5 2.8 78.45 1.45L79.8 0.65Q81.15 -0.1 82.1 -0.1Q83 -0.1 83.85 0.65Q84.75 1.4 86.65 1.4L90.05 0.55L89.2 -0.05L88.8 -0.75M103.15,11.8L103.2 12.6Q103.2 13.9 100.95 15.1Q98.5 16.4 95.3 16.4Q92.5 16.4 90.4 15Q88.55 13.75 88.55 12.55Q88.55 11.55 89.25 10.4Q90.3 8.6 92.35 8.8L94.25 8.9L96.85 8.8L98.2 9.3Q99.7 9.75 99.85 10.75L99.95 10.85L102.15 10.95L103.15 11.8M81.25,15.15Q79.25 16.25 78 16.25Q73.7 16.25 70.65 13.3Q68.3 11.05 68.3 9.6L68.5 9Q70.8 10.35 77.45 11.7Q83.25 12.9 83.25 13.35Q83.25 14.05 81.25 15.15" />
<path style="fill:#0B0B0B;fill-opacity:0.6" d="M115.95,4.45Q118.7 4.45 119.6 5.75Q120 6.35 120 7.7Q120 8.45 117.1 9.6Q114.05 10.8 111.75 10.8Q109.8 10.8 107.8 8.6Q106.15 6.75 106.15 6.1Q106.15 3.2 108.15 3.8L113 5.15L115.95 4.45" />
</g>
</svg>
