<?xml version="1.0" encoding="utf-8"?>
<svg version="1.1" id="Layer_1"
xmlns="http://www.w3.org/2000/svg"
xmlns:xlink="http://www.w3.org/1999/xlink"
width="148px" height="75px"
xml:space="preserve">
<g id="819" transform="matrix(1, 0, 0, 1, 32.95, -3.65)">
<path style="fill:#000000;fill-opacity:1" d="M100.25,25.65L98.75 23.9L104.95 21.1L105.15 21.1L103.05 25.15L100.25 25.65M88.55,27.3L91.3 29L91.65 29.35Q91.9 29.6 92.3 29.65L94.65 31.1L95.55 30.95L95.5 31.05L95.7 31.2L96.15 31.25L96.4 31L96.55 30.8L97.65 30.65L97.7 30.75L98.45 30.65L98.9 30.45L98.9 30.4L102.65 29.85L99 35.55L97.7 35.8L95 33.8L94.8 31.9L94.35 32.25L93.65 33.6L90.35 34.45L85.3 31.35L88.55 27.25L88.55 27.3M96.1,32.9L96.75 32.95L97.1 32.8L97.2 32.7L97.35 32.25L96.9 31.85Q96.75 31.6 96.55 31.65Q96.2 31.7 95.85 32.05L95.75 32.45L96.1 32.9M93.3,31.95L93.55 31.55L93.05 31.05L92.45 31L92.05 31.25L92 31.65L92 31.8L92.45 32.05Q92.7 32.3 93 32.35L93.25 31.95L93.3 31.95M97.7,33.85Q97.5 34.1 97.55 34.55L97.95 34.9L98.5 34.95L98.9 34.8L99 34.25L98.8 33.65L98.2 33.65L97.7 33.85M90.15,31.9Q89.9 31.9 89.8 32.35Q89.6 32.5 89.65 32.8L89.95 33.1L90.5 33.45L90.85 33.2Q91.1 32.85 91 32.5L90.7 32L90.15 31.9M70.65,35.1L75.5 32.75L75.9 32.7L76.75 32.5L77.85 32.25L78.55 32.15L78.75 32.1L78.65 30.4L78.7 29.95L78.55 29.6L78.5 28.6L83.7 28.85L84.3 38.05Q84.1 37.8 83.9 37.9L84.55 38.65L85.95 40.25L84.75 43.45L82.05 47.65L81.6 48.3L81.4 48.25L81.35 48.25L81.3 48.25L81.25 48.25L81.1 48.2L70.6 35.15L70.65 35.1M90.85,62.35Q90.85 58.95 89.05 56.3L88.05 55.1L87.7 54.75L85.75 53.2L85.1 52.85L83.05 50.6L83.6 49.55L83.65 49.25L89.5 48.75L92.8 49.25L94.15 52.95L91.6 55.45L95.1 55.6L96.55 59.5L94.35 62L90.6 64.75L90.85 62.35M87.7,69.85L88.5 69L88.5 70.45L87.8 73.7L84.05 74.85L82.3 72.85Q85.35 72.25 87.7 69.85M73.25,71.75L75 71.7L75.85 72.1Q77.05 72.65 78.45 72.85L80.2 73L81.65 72.95L81.35 75.65L77.4 76.85L75 74.5L73.95 72.85L73.25 71.75M52.75,71.65L68.4 71.65L68.1 72.85L67.7 74.25L66.15 77.2L62.2 77.25L60.7 74.05L59.4 77.3L55.25 77.4L53.6 74.45L53.1 72.85L52.75 71.65M46.7,72.85L46.3 74.35L44.7 77.3L40.75 77.3L39.3 74.1L37.95 77.35L33.8 77.35L32.2 74.4L31.75 72.85L31.4 71.65L47.05 71.65L46.7 72.85M25.65,72.85L22.3 76.2L19.45 77.95L16.05 75.95L16.35 72.45L13.6 74.6L10 72.5L10.05 69.15L10.65 66.8Q11.4 68.45 12.8 69.85Q15.45 72.5 18.95 72.95L22.2 72.85L24.75 72.1L25.55 71.7L25.6 71.7L26.3 71.7L26.45 72.05L25.65 72.85M9.9,64.5L6.7 62.4L4.4 59.95L5.65 56.2L9.15 55.8L6.5 53.55L7.75 49.6L11.05 48.95L16.9 49.15L17.1 49.8L17.5 51.15L19.5 48.75L18.8 47.8L16.45 44.45L15.15 41.35L17.65 38.3L18.3 38.5L18.65 33.25L20.75 31.9L20.85 31.9L21.05 31.7L24.25 28L23.9 33.3L25.35 33.55L27.15 34.35L28 34.7L30.25 35.65L31.6 34L29.75 31.4L29.2 30.6L28.75 29.95L28.35 29L27.95 28L27.45 26.85L29.95 23.8L30.35 23.9L31.7 24.3L32.5 24.5L33.35 24.7L32.9 23.8L32.2 22.55L31.7 21.65L31.95 21.4L33.15 19.9L34 18.85L34.35 18.45L35.7 18.7L36.65 18.9L37.65 19.05L42.3 21.05L14.9 54.55L16.55 52.45L16.45 52.45Q15.95 52.6 15.55 52.85Q15.25 52.95 15.05 53.15L14.9 53.25Q14.1 53.6 13.4 54.25L11.05 57.05L10.6 58.05Q9.7 60 9.7 62.35L9.9 64.5M31.55,14.85L32.75 7L35.4 11.45L31.55 14.85M47.4,8.95L47.35 8.95Q47.2 8.75 46.8 8.7L46.35 8.9L46.25 8.85L44.5 8.7L44.4 8.45L44 8.25Q43.85 8.2 43.8 8.35Q43.55 8.45 43.6 8.7L43.35 8.6L43.25 8.3L43.1 8.25L43 7.6L43.1 5.95L45.6 3.65L45.65 3.65L61.3 4.6L56.5 9.5L47.4 8.95M52.75,15.9L53.05 15.4L53.65 14.35L53.7 14.3L53.8 14.1L53.85 14.1L54.05 14.05L54.55 14.1L55 14.1L55.15 13.95L56.8 13.5L57.35 14.5L58.7 18.8L58.2 18.15L57.85 17.8Q56 16.15 53.8 15.55L52.65 16.9L52.1 17.5L52 17.55L50.55 16.7L48.4 15.45Q45.45 16.05 43.25 18.25L43.2 18.25L42.05 19.7L43.25 14.75L44.15 13.05L46.65 14.4L46.65 14.35L46.95 13.8L47.15 13.8L47.45 13.75L49.7 13.8L51 13.85L51.35 14.95L51.45 15.2L51.5 15.4L51.95 16.5L52.05 16.8L52.1 17L52.15 17.2L52.25 17.05L52.35 16.85L52.75 15.9M70.15,32.25L70.7 32.95L69.2 33.3L68.6 32.6L68.55 32.6L67.1 30.8L67.15 30.75L65.9 29.2L65.85 29.25L63.5 26.35L63.55 26.3L62.7 25.25L62.65 25.3L62.55 25.2L62.55 25.1L61.35 23.6L61.25 23.5L60.75 22.9L60.75 22.85L59.5 21.4L58.1 19.7L61.5 17.8L64.75 16.9L65.45 17.6L65.95 18.15L66.55 18.8L67.5 19.75L66.2 23.05L67.95 22.35L68.35 28.1L71.2 28.25L68.6 32.6L70.15 32.25M107.8,47.05L104.05 45.15L103.8 41.95L103.9 41.65L106.65 40.7L109.1 46L107.8 47.05M100.25,50.95L103.25 52.15L103.6 52.35L104.1 52.4L113.1 55.75L110.85 60.35L100.45 56.6L99.25 53.55L99.65 51.9L99.7 51.75L99.55 51.8L97.9 52.75L94.65 51.45L91.9 45.45L96.9 43.95L97.3 44.85L97.6 45.2L97.6 45.35L98.2 47.1Q98.05 47 97.95 47.4L98.05 47.75Q98.1 48.1 98.5 48.4Q98.7 48.25 98.9 48.25L99.45 49.4L99.3 49.75L99.4 50.05L99.55 50.4L99.9 50.35L100.25 50.95M94.85,49.35Q94.5 49.5 94.5 49.75L94.45 49.85L94.7 50.2L94.95 50.6L95.4 50.7L95.75 50.2L95.9 49.55L95.6 49.4L95.45 49.35L94.85 49.35M101.95,53.25L101.9 52.6L101.45 52.3L100.85 52.25Q100.6 52.2 100.55 52.65L100.5 52.75L100.55 53.05L101.05 53.55L101.5 53.55L101.55 53.55L101.95 53.25M101.6,54.8Q101.3 54.95 101 55.2L101.25 55.7L101.65 56L102.2 56.15L102.65 55.65L102.5 55.15L102.05 54.7L101.6 54.8M98.25,50.75L98.4 50.6L98.25 50L97.9 49.6L97.25 49.55L97.2 49.8L97.2 50.15Q97.1 50.45 97.3 50.55L97.6 51.15L98.05 51L98.25 50.75M62.35,63.75L63.05 64.25L63.1 66.2L65.3 66.35L64.55 70.3L66.8 70.25L66.25 66.45L66.25 66.4L66.3 66.4L66.5 65.85L70.1 65.85Q70.85 68.1 72.6 69.85L73.2 70.35L73.55 70.65L72.5 70.55L72.35 70.35L61.5 70.35L61.35 63.15L61.65 63.25L62.35 63.75M56.15,65.85L60 63.05L60.15 70.35L56.55 70.35L55.95 65.85L56.15 65.85M55.25,65.85L54.3 70.35L45.45 70.35L44.85 65.85L55.25 65.85M41.3,63.95L43.9 65.85L44.15 65.85L43.2 70.35L40.15 70.35L40.1 64.15L41.3 63.95M34.85,65.85L37.5 64L38.75 64.15L38.8 70.35L35.2 70.35L34.7 65.95L34.7 65.85L34.85 65.85M27.9,69.85Q29.7 68.1 30.5 65.85L33.95 65.85L32.9 70.35L27.4 70.35L27.9 69.85M40.6,32.5L24.6 52.5Q22.6 51.65 20.35 51.65L18.9 51.75L20 50.55L19.75 50.55L22.15 47.65L25.8 49.95L23.05 46.55L25.35 43.8L29.1 46.8L29.95 45.8L26.2 42.75L28.7 39.75L32.25 42.05L29.6 38.65L34.25 33.05L38.1 35.45L35.25 31.85L37.5 29.15L41.4 32.3L40.6 32.5M42.65,26.35L42.25 31.3L38.3 28.15L40.8 25.15L42.65 26.35M41.75,23.95L43 22.5L42.75 25.25L41.75 23.95M56.85,24.15L56.4 20.6L56.8 20.4L57.1 20.7L57.75 21.4L58.15 21.95L58.4 22.25L56.85 24.15M57.65,30.1L57.05 25.55L57 25.2L57.05 25.2L59.5 23.65L61.55 26.35L57.65 30.1M75.8,50.8L71.05 44.85L70.65 44.35L68.7 41.95L68.65 41.2L68.05 41.1L67.15 40L66.95 39.95L65.35 38L65.45 37.85L64.85 37.1L62.25 33.9L62.05 34L59.9 31.35L59.95 31.35L59.4 31.25L58.6 31.05L60.1 29.65L62.4 27.45L62.7 27.85L62.7 27.65L64.9 30.4L62.05 33.85L65.85 31.55L71.15 38.1L68.5 41.05L72 39.15L74.3 42L71.05 44.85L71.95 45.85L75.15 43.05L77.65 46.15L75.2 48.75L78.4 47.05L82.25 51.85L80.2 51.65L77.5 52L76.9 52.15L76.5 51.65L75.8 50.8M69.55,61.5L69.75 60L70 59.2L69.8 60Q69.6 60.9 69.55 61.95L69.55 61.5M69.6,63.5L69.8 64.75L69.6 63.6L69.6 63.5M45.8,5.1Q45.75 5.4 46 5.6L46.5 5.9L47.05 5.7L47.3 5.2L46.95 4.75L46.5 4.6L46.1 4.65L45.8 5.1M44.95,6.6L44.3 6.8L44.1 7.2L44.1 7.35L44.3 7.7L44.85 7.85L44.9 7.85Q45.1 7.95 45.3 7.7L45.55 7.35L45.6 7L45.4 6.75L45.15 6.65L44.95 6.6M80.1,37.9L80.05 37.9L79.9 38.2L80.3 38.1L80.1 37.9M17,30.75L17.4 31.3L17.9 31.35L18.35 31.05L18.5 30.75L18.5 30.5L18.25 30.05L17.65 29.9L17.15 30.3L17 30.75M18.9,26.95L19.5 31L17.5 33.7L15.6 33.9L15.4 33.9L14.95 33.8L15.1 33.7L15.1 33.45L14.9 33.05L14.6 32.8L13.75 26.75L13.75 26.7L18.9 26.95M14.95,32.4L15.55 32.55L15.85 32.3L15.9 32.2L15.95 32.1L16.05 31.65L15.95 31.35L15.7 31.15L15.2 31.1Q14.8 31.2 14.7 31.4L14.6 31.95Q14.6 32.25 14.95 32.4M-8,48.15L-8 47.65L-7.95 47.45L-8.1 47.15L-8.3 47.05L-8.9 47.1L-8.95 47.05L-9.35 47.35L-9.35 47.75L-9.3 47.8L-9.15 48.1L-9.65 48.9L-13.1 49.5L-17.25 46.8L-16.85 46.75L-16.5 46.6L-16.35 46.45Q-16.15 46.15 -16.25 45.85Q-16.25 45.55 -16.7 45.3L-17.1 45.3Q-17.45 45.35 -17.7 45.7L-17.65 46.15L-17.5 46.45L-17.35 46.7L-19 45.6L-18.9 45.15L-18.9 45.05L-19.2 44.9Q-19.35 44.7 -19.8 44.7L-19.95 44.85L-21.95 43.65L-9.35 45.85L-8.3 46.7L-6.95 46.3L3 48.15L3.3 48L3.55 47.7L3.45 47.45L5.2 49.15L2.95 49.6L2.75 49.45L2.35 49.35Q1.95 49.45 1.75 49.8L1.85 49.85L0.35 50.1L0.4 50.05L0.35 49.95L0.35 49.45L0.05 49L0 48.95L-0.35 48.95L-0.5 49.05L-0.85 49.15L-0.9 49.25L-0.85 49.3L-0.9 49.75L-0.65 50.25L-5.4 51.3L-8.35 49.25L-8.45 48.3L-8 48.15M3.2,47.2L-4.75 45.8L-1.25 45.05L3.2 47.2M-15.75,41.5L-11.05 44.7L-22.6 42.7L-22.9 42.8L-22.95 42.9L-23.65 42.3L-15.75 41.5M-14.4,45.7L-14.85 46.1L-14.85 46.6L-14.65 47.15L-14.55 47.05L-14.1 47.2L-14.05 47.15L-13.7 46.9L-13.55 46.35Q-13.5 46.3 -13.6 46.2L-13.9 45.85L-14.4 45.7M-11.1,46.65L-11.6 46.55L-12 46.9L-12.05 47.35L-11.85 47.75L-11.8 47.9L-11.25 47.95L-11.2 47.9L-10.85 47.65Q-10.7 47.4 -10.7 47.05L-11.1 46.65M-5.75,47.45L-6.1 47.35L-6.3 47.5L-6.45 47.55L-6.55 47.9L-6.65 48.35L-6.65 48.45L-6.3 48.85L-5.75 48.85L-5.35 48.55L-5.3 48.1L-5.35 48.05L-5.55 47.5L-5.6 47.6L-5.75 47.45M-2.9,47.95L-3.2 47.85L-3.45 47.9L-3.85 48.25L-3.8 48.8L-3.75 49.25L-3.5 49.3L-3.05 49.3L-2.75 49.15L-2.7 49L-2.65 48.5L-2.7 48.25L-2.9 47.95" />
<path style="fill:#0B0B0B;fill-opacity:1" d="M92.7,29.2L92.8 28.8L92.5 28.25L91.9 28.2L91.45 28.45Q91.25 28.6 91.3 29L88.55 27.3L88.55 27.25L90.25 25L93.25 26.8L94 30.1L94.1 30.4L94.5 30.45L94.65 30.25L94.8 29.9L93.95 26.3L93.7 26.05L98.75 23.9L100.25 25.65L103.05 25.15L102.2 26.85L97.15 27.65L96.85 27.75L95.55 30.7L95.55 30.95L94.65 31.1L92.3 29.65L92.7 29.2M102.2,27.75L102.65 29.85L98.9 30.4L98.95 29.95L98.7 29.6Q98.45 29.3 98.15 29.45Q97.95 29.5 97.65 29.8L97.5 30.25L97.65 30.65L96.55 30.8L97.5 28.45L102.2 27.75M101.1,29.6L101.6 29.2Q101.8 29.05 101.65 28.65L101.5 28.25L100.95 28.2Q100.55 28.15 100.5 28.35Q100.25 28.6 100.25 29.05L100.55 29.45L101.1 29.6M89.6,27L89.8 27.3L90.45 27.4L90.85 27.1L91.1 26.7L90.55 26.3L89.95 26.1L89.6 26.45Q89.4 26.6 89.6 26.9L89.6 27M81.1,48.2L81.25 48.25L81.3 48.25L81.35 48.25L81.4 48.25L81.6 48.3L82.05 47.65L83.6 49.55L83.05 50.6L81.1 48.2M80.2,73L78.45 72.85Q77.05 72.65 75.85 72.1L75 71.7Q85.55 71.35 88.05 68Q92.55 61.95 85.1 52.85L85.75 53.2L87.7 54.75L88.05 55.1L89.05 56.3Q90.85 58.95 90.85 62.35L90.6 64.75Q90.1 67.1 88.5 69L87.7 69.85Q85.35 72.25 82.3 72.85L81.65 72.95L80.2 73M73.95,72.85L68.1 72.85L68.4 71.65L71.95 71.65L72 71.75L73.25 71.75L73.95 72.85M53.1,72.85L46.7 72.85L47.05 71.65L52.75 71.65L53.1 72.85M31.75,72.85L25.65 72.85L26.45 72.05L26.3 71.7L29.2 71.75L29.3 71.65L31.4 71.65L31.75 72.85M9.7,62.35Q9.7 60 10.6 58.05L11.05 57.05L13.4 54.25Q14.1 53.6 14.9 53.25L15.05 53.15Q15.25 52.95 15.55 52.85Q15.95 52.6 16.45 52.45L16.55 52.45L14.9 54.55Q9.05 62.5 13.15 68Q15.6 71.25 25.55 71.7L24.75 72.1L22.2 72.85L18.95 72.95Q15.45 72.5 12.8 69.85Q11.4 68.45 10.65 66.8Q10.1 65.7 9.9 64.5L9.7 62.35M17.1,49.8L18.8 47.8L19.5 48.75L17.5 51.15L17.1 49.8M27.15,34.35L25.35 33.55L23.9 33.3L24.25 28L30 21.4L32.2 22.55L32.9 23.8L32.5 24.5L31.7 24.3L31.7 24.2L31.5 23.7Q31.3 23.55 31 23.55L30.45 23.7L30.35 23.9L29.95 23.8L27.45 26.85L27.95 28L27.85 28.35L28.05 28.85L28.35 29L28.75 29.95L29.2 30.6L27.15 34.35M35.4,11.45L37.6 15.2L35.7 18.7L34.35 18.45L34 18.85L33.7 18.8L33.15 18.95L32.9 19.4Q32.9 19.8 33.15 19.9L31.95 21.4L30.6 20.7L31.55 14.85L35.4 11.45M38.15,16.15L41 10.85L43.25 11.9L43.35 8.6L43.6 8.7L43.7 9L46 11.75L46.15 11.85L46.3 11.85L53 12.3L52.75 15.9L52.35 16.85L52.25 17.05L52.15 17.2L52.1 17L52.05 16.8L51.95 16.5L52.1 16.15L51.9 15.6L51.5 15.4L51.45 15.2L51.35 14.95L51 13.85L49.7 13.8L47.45 13.75L47.15 13.8L46.95 13.8L46.65 14.35L46.65 14.4L44.15 13.05L43.25 14.75L42.05 19.7L43.2 18.25L43.25 18.25Q45.45 16.05 48.4 15.45L50.55 16.7Q46.6 16.8 43.7 19.45L43.4 19.7L42.35 21L42.3 21.05L37.65 19.05L36.65 18.9L38.15 16.15M56.5,9.5L56.3 11.6L46.5 11L44.5 8.7L46.25 8.85L46.05 9.25L46.2 9.75L46.75 10L47.2 9.8L47.5 9.25L47.4 8.95L56.5 9.5M53.85,14.1L53.85 12.4L56.35 12.5L55.15 13.95L55 14.1L54.55 14.1L54.05 14.05L53.85 14.1M56.8,13.5L62.2 12.05L67.55 16.6L65.95 18.15L65.45 17.6L65.5 17.6Q65.8 17.6 66 17.4L66.2 16.9L66 16.4Q65.8 16.25 65.5 16.25L64.95 16.4L64.75 16.9L61.5 17.8L58.1 19.7Q55.75 17.35 52.65 16.9L53.8 15.55Q56 16.15 57.85 17.8L58.2 18.15L58.7 18.8L57.35 14.5L56.8 13.5M66.55,18.8L67.65 17.8L67.95 22.35L66.2 23.05L67.5 19.75L66.55 18.8M68.6,32.6L71.2 28.25L75.55 28.45L75.75 30.95L70.15 32.25L68.6 32.6M76.4,28.5L78.5 28.6L78.55 29.6L78.4 29.4L77.95 29.25Q77.5 29.25 77.45 29.45L77.35 30.1L77.65 30.6Q77.7 30.8 78.15 30.8L78.5 30.45L78.65 30.4L78.75 32.1L78.55 32.15L78.2 32.05Q77.8 32.15 77.85 32.25L76.75 32.5L76.65 31.45L76.65 31.2L76.6 31.1L76.4 28.5M99.9,50.35L100 50L101.35 46.7L101.3 46.4L99.7 43L103.9 41.65L103.8 41.95L104.05 45.15L107.8 47.05L109.1 46L110.95 50.1L110.5 50.85L103.9 48.45L103.75 48.5L103.55 48.5L101 50.35L100.9 50.65Q100.8 50.85 100.85 51L101.3 51.25Q101.45 51.2 101.55 51.1L103.95 49.35L114.35 53.25L113.1 55.75L104.1 52.4L104.15 52.3Q104.45 52.3 104.4 51.95L104.5 51.55L104.15 51.25L103.55 51.05Q103.2 51.15 103.15 51.55L103.15 52.05L103.25 52.15L100.25 50.95L99.9 50.35M96.9,43.95L98.95 43.15L100.5 46.55L99.45 49.4L98.9 48.25Q99.05 48.1 99.25 48.1L99.4 47.95L99.2 47.35L98.8 46.9Q98.5 46.8 98.2 47.1L97.6 45.35L97.85 45.7L98.55 45.55L98.75 45.2L98.85 44.5L98.15 44.2L97.8 44.15L97.4 44.7L97.3 44.85L96.9 43.95M112.9,53.7Q112.65 53.35 112.45 53.3L111.75 53.3L111.35 53.7L111.45 54.2L111.95 54.6L112.55 54.5L112.85 54.2L112.9 53.7M109.25,52.4Q109 52.3 108.75 52.75L108.8 53.2Q108.85 53.5 109.15 53.6Q109.5 53.8 109.85 53.6L110.15 53.2L110.15 52.75L109.8 52.35L109.25 52.4M106.65,51.45L106.5 51.35L106.2 51.75L106.2 52.3L106.55 52.65L107 52.65L107.15 52.65L107.5 52.25Q107.7 51.9 107.45 51.8L107.05 51.4L106.65 51.45M73.2,70.35L72.6 69.85Q70.85 68.1 70.1 65.85L66.5 65.85L67.05 64.1L69.6 63.6L69.8 64.75L69.6 63.5L69.6 62.65L69.55 61.95Q69.6 60.9 69.8 60L70 59.2L69.75 60L69.55 61.5L69.5 60.9L69.9 54.6L76.1 52.6L77 52.3L76.5 51.65L76.9 52.15L77.5 52L80.2 51.65L82.25 51.85L82.4 51.9Q92.25 63.1 87 67.4Q82.1 71.35 73.55 70.65L73.2 70.35M44.85,65.85L44.55 63.6L44.15 65.85L43.9 65.85L41.3 63.95L40.1 64.15L39.6 64.15L39.45 64.15L39.25 64.15L38.75 64.15L37.5 64L34.85 65.85L34.7 65.85L34.4 63.65L33.95 65.85L30.5 65.85Q29.7 68.1 27.9 69.85L27.4 70.35L27.15 70.6L27 70.7Q18.9 71.15 14.2 67.4Q8.95 63.1 18.9 51.75L20.35 51.65Q22.6 51.65 24.6 52.5L40.6 32.5L41.4 32.3L42.25 31.3L42.65 26.35L40.8 25.15L41.75 23.95L42.75 25.25L43 22.5L43.4 21.95L44.25 20.9L44.4 20.7Q47.05 18.1 50.8 18.1Q54.25 18.1 56.8 20.4L56.4 20.6L56.85 24.15L58.4 22.25L59.5 23.65L57.05 25.2L57 25.2L57.05 25.55L57.65 30.1L61.55 26.35L60.1 29.65L58.6 31.05L59.4 31.25L59.95 31.35L59.9 31.35L62.05 34L54.15 37.45L47.25 35.85L46.15 35.55L46.8 37L45.2 38.65L47.2 41L49.2 39.95Q51.05 41.6 53.3 42.25L53.4 44.7L56.6 44.9L56.95 43.85L58.05 45.9Q56.3 47.75 55.65 50.05L53.35 50.2L53.25 51.2L54.2 51.15L55.45 51.1L52.7 56.55L52.6 56.55L52.55 56.6L53.65 56.55L53.7 56.5L53.8 56.5L56.55 51L59.15 50.9L56.4 56.35L55.65 56.4L55.65 56.45L56.5 58.5L54.9 60.15L56.9 62.5L58.9 61.45L60.45 62.6L60.65 62.7L61.25 63.05L61.2 63.05L60 63.05L56.15 65.85L55.95 65.85L55.65 63.7L55.25 65.85L44.85 65.85M83.2,56.7Q81.8 55.9 80.05 55.9L78.75 56.1L80.05 62.25L80.05 56.65L80.15 56.65Q81.65 56.65 82.95 57.35L80.2 62.25L84.35 57.5L83.2 56.7M85.25,65.3L80.2 62.55L85.05 66.6L85.75 65.55Q86.6 64.15 86.6 62.4L86.45 61.2L80.6 62.4L85.95 62.4L85.95 62.5Q85.95 64 85.25 65.3M70.7,32.95L75.8 31.85L75.9 32.7L75.5 32.75L70.65 35.1L70.6 35.15L69.1 33.3L69.2 33.3L70.7 32.95M52.15,11.15L52.75 10.95L52.95 10.5L52.8 10L52.3 9.85Q52 9.8 51.8 10Q51.5 10.2 51.55 10.4Q51.5 10.75 51.7 10.9L52.15 11.15M54.55,10.15Q54.3 10.3 54.3 10.6Q54.2 11 54.45 11.05Q54.7 11.3 55.05 11.35Q55.35 11.35 55.6 11.15L55.8 10.75L55.75 10.4L55.6 10.15Q55.4 10 55.05 9.95L54.9 9.95L54.6 10.05L54.55 10.15M49.95,9.8L49.5 9.65L49.35 9.7L48.95 9.75Q48.75 9.85 48.7 10.25L48.8 10.8L48.9 10.75L49.35 11.05L49.9 10.85L50.15 10.3L49.95 9.8M50.6,19.8Q52.1 19.8 53.4 20.5L50.65 25.4L54.8 20.65Q54.3 20.15 53.65 19.85Q52.25 19.05 50.5 19.05L49.2 19.25L50.5 25.4L50.5 19.8L50.6 19.8M44.8,22.4Q44 23.8 44 25.55L44.2 27.05L50.35 25.7L46.25 30.45L47.35 31.25Q48.75 32.1 50.5 32.1L51.9 31.95L50.6 25.7L50.5 25.7L50.5 31.45Q48.9 31.45 47.65 30.7L50.45 25.7L50.35 25.7L50.45 25.55L44.75 25.55Q44.75 24 45.45 22.75L50.5 25.55L50.5 25.5L45.65 21.3Q45.1 21.75 44.8 22.4M56.65,24.4L51.05 25.55L55.75 25.55L56.35 25.65L56.4 25.6L56.4 25.65Q56.4 27.15 55.7 28.45L50.65 25.7L55.5 29.75L56.2 28.7Q57.05 27.3 57.05 25.55L56.65 24.4M66.3,39.85L66 40.95L64.75 38.7L65.35 38L66.95 39.95L66.3 39.85M44.65,48.7Q42.7 46.9 40.1 46.7L39.25 46.65L38.95 46.65Q36.15 46.7 34.05 48.55L33.5 49.05L33.4 49.15Q31.3 51.3 31.15 54.25L31.1 54.8L31.1 55.05Q31.15 58.1 33.25 60.35L33.5 60.55L33.85 60.85Q36 62.85 39.1 62.95L39.25 62.95L39.95 62.95Q42.75 62.65 44.85 60.7L45 60.55L45.55 60L46.75 58.1L45.75 58.25L45.15 59.2L44.6 58.15Q43.6 57.9 42.9 57.2L42.4 56.55L41.9 57.1Q40.9 58.1 39.6 58.1Q38.25 58.1 37.25 57.1Q36.3 56.1 36.3 54.8Q36.3 53.45 37.25 52.45Q38.25 51.5 39.6 51.5Q40.9 51.5 41.9 52.45L42.25 52.85L42.9 52L43.05 51.85L42.8 51.55L42.2 51L44.15 49.95L43.2 51.75Q43.85 51.2 44.65 51.05L45 50.3L45.5 50.95L46.5 51.1L45.4 49.5L45 49.05L44.65 48.7M58.9,42.4L57 43.7L57.35 42.6L58.9 42.4M71.4,29.75L70.85 29.9L70.6 30.4Q70.6 30.75 70.85 30.85L71.4 31.1L71.9 30.85L72.1 30.4L71.9 29.9L71.4 29.75M74.3,30.6Q74.55 30.6 74.75 30.4L75 29.9L74.75 29.4L74.3 29.25L73.7 29.4L73.5 29.9L73.7 30.4L74.3 30.6M63,42.8Q62.05 43.05 61.15 43.5L59.7 42.15L61.45 41.45L63 42.8M64.35,42.55L65.95 41.05L65.55 42.4L64.35 42.55M29.75,31.4L31.6 34L30.25 35.65L28 34.7L29.75 31.4M35.5,14.6L35.3 15.05L35.5 15.55L36.1 15.75L36.55 15.55L36.8 15.05L36.55 14.6L36.1 14.45L35.5 14.6M35.3,17.75L35.5 17.25L35.3 16.75L34.8 16.6L34.25 16.75L34.05 17.25L34.25 17.75Q34.55 17.95 34.8 17.95Q35.1 17.95 35.3 17.75M11.85,31.25L9.4 26.5L13.75 26.7L13.75 26.75L14.6 32.8L11.85 31.25M11.25,27.6Q11.05 27.9 11.25 28.1L11.4 28.45L11.45 28.55L11.95 28.65Q12.2 28.65 12.45 28.3L12.5 28L12.6 27.75L12.4 27.4L12.25 27.25L11.8 27.3Q11.35 27.5 11.25 27.6M12.25,30.35L12.55 30.85L13.2 30.95L13.55 30.6L13.75 30.15L13.45 29.6L12.85 29.55Q12.6 29.65 12.45 29.8L12.25 30.35M-1.25,45.05L-4.75 45.8L-9.9 45.05L-9.15 41.3L-1.25 45.05M-9.9,40.9L-10.85 44.75L-11.05 44.7L-15.75 41.5L-9.9 40.9M-23.35,52.05L-25.25 50.4L-23.65 42.3L-22.95 42.9L-22.95 43L-22.9 43.3L-22.7 43.45L-21.95 43.65L-19.95 44.85L-20.2 45.1L-20.2 45.65L-19.95 46.15L-19.75 46.25L-19.3 46.15L-19.05 46.1L-19.05 45.95L-19 45.6L-17.35 46.7L-17.25 46.8L-13.1 49.5L-9.65 48.9L-9.15 48.1L-9 48.3L-8.45 48.3L-8.35 49.25L-5.4 51.3L-0.65 50.25L-0.55 50.2L-0.45 50.35L-0.1 50.35L0 50.3L0.35 50.1L1.85 49.85L1.8 50.05L1.85 50.2L2.1 50.75L2.65 50.7L3 50.55L3.1 50.1L3.1 49.9L3.05 49.75L2.95 49.6L5.2 49.15L4.05 55.9L2 56.85L-23.35 52.05M-9.35,45.85L-6.95 46.3L-8.3 46.7L-9.35 45.85M26.8,30.05L26.6 30.5L26.8 31L27.35 31.2L27.85 31L28.05 30.5L27.85 30.05L27.35 29.9L26.8 30.05M25.55,32.2L25.35 32.7L25.55 33.2L26.1 33.4L26.6 33.2L26.8 32.7L26.6 32.2L26.1 32.05L25.55 32.2M38.75,47.5L37.75 50.5L34.9 48.95Q36.5 47.65 38.75 47.5M39.6,50.2L38.75 50.3L39.5 47.9L40.2 50.3L39.6 50.2M36.35,51.55L35.95 52.1L34.75 49.95L36.9 51.05L36.35 51.55M32.8,54.65L35.1 53.95L35.05 54.8L35.1 55.4L32.85 54.7L32.8 54.65M33.85,49.95L35.4 52.9L32 53.95Q32.2 51.7 33.85 49.95M33.7,59.55Q32.1 57.65 31.95 55.35L35.3 56.35L35.3 56.45L33.7 59.55M37.9,59.05L38.8 62.1Q36.35 61.95 34.6 60.4L37.5 58.85L37.9 59.05M36.35,58L36.7 58.35L34.8 59.35L35.85 57.4L36.35 58M38.9,59.3L39.6 59.35L40.15 59.35L39.5 61.3L38.9 59.3M23.15,57.45Q24.5 58.2 25.25 59.45L20.4 62.35L26.4 60.3L25.85 59.05Q25 57.65 23.5 56.75Q22.9 56.4 22.25 56.3L20.3 62.3L23.1 57.4L23.15 57.45M26.4,64.55L20.75 62.7L25.35 65.35L25.3 65.4Q24.55 66.75 23.3 67.5L20.3 62.55L22.45 68.55L23.55 68Q25 67.15 25.9 65.65L26.4 64.55M20.3,62.35L18.2 56.3Q17.45 56.4 16.9 56.8Q15.45 57.65 14.6 59.15Q14.2 59.8 14.05 60.55L20.1 62.45L14.1 64.5L14.65 65.7Q15.5 67.2 17 68.05L18.25 68.65L20.25 62.55L20.2 62.5L17.3 67.5Q15.9 66.7 15.2 65.4L20.15 62.45L20.1 62.45L20.2 62.35L15.25 59.55Q16 58.2 17.25 57.45L20.25 62.4L20.3 62.35M74.35,59.25Q73.55 60.65 73.55 62.4L73.75 63.9L79.9 62.55L75.8 67.3L76.9 68.1Q78.3 68.95 80.05 68.95L81.45 68.8L80.15 62.55L80.05 62.55L80.05 68.3Q78.45 68.3 77.2 67.55L80 62.55L79.9 62.55L80 62.4L74.3 62.4Q74.3 60.85 75 59.6L80.05 62.4L80.05 62.35L75.2 58.15L74.35 59.25M66.8,52.55L67 55.8L65.75 55.9L65.15 55.9L66.8 52.55M64.05,50.6L64.45 50.6L66.7 50.5L66.7 50.65L64.05 55.95L61.3 56.1L64.05 50.6M60.3,50.8L62.95 50.7L60.2 56.15L57.55 56.3L60.3 50.8M61.65,63.25L63 63.75L63.05 64.25L62.35 63.75L61.65 63.25M51.65,51.3L48.9 56.75L48.85 56.75L48.8 56.8L49.9 56.75L49.95 56.7L50.05 56.7L52.8 51.2L51.65 51.3M47.9,51.8L47.85 51.8L48.5 52.75L49.15 51.4L48 51.5L47.9 51.8M47.35,52.8Q46.55 52 45.5 52Q44.55 52 43.85 52.6L43.6 52.8Q42.9 53.55 42.9 54.6L42.9 54.8Q42.95 55.75 43.6 56.5L43.8 56.7Q44.55 57.2 45.5 57.2L46.25 57.1L46.75 56.95L47.35 56.5Q48.1 55.7 48.1 54.6L47.95 53.7L47.35 52.8M47.15,53.15L47.75 54.2L47.75 54.6Q47.75 55.5 47.05 56.15L46.45 56.65L45.5 56.85L45.3 56.85Q44.55 56.75 44.05 56.25L43.95 56.15Q43.25 55.5 43.25 54.6Q43.25 53.6 43.95 53.05L44 53Q44.65 52.35 45.5 52.35Q46.5 52.35 47.05 53.05L47.15 53.15M42.8,58L43.25 57.6L44.15 59.35L42.4 58.45L42.8 58M41.55,58.95L44.15 60.35Q42.4 61.75 40.2 62L41.15 59.15L41.55 58.95M40.35,47.55Q42.25 47.85 43.85 49.1L41.2 50.5L40.35 47.55M-1.05,58.55L-2.65 66.8L-8.2 62.95L-5.85 57.6L-1.05 58.55M-8.6,62.7L-16.85 57.05L-16.55 55.45L-11.95 56.3L-11.9 56.35L-10.75 56.45L-9.8 56.65L-7.5 57.2L-8.6 62.7M-18.25,56.15L-20.5 54.7L-19.95 54.9L-18 55.2L-18.25 56.15M-22.5,44.35L-22.95 44.65L-22.95 45.2L-22.6 45.75L-22.1 45.8L-21.7 45.45L-21.6 44.9L-22 44.4L-22.5 44.35M-28.6,74.75L-28.25 62.15L-28.1 62.15L-19.3 66.55L-19.55 69.05L-18.85 66.75L-12.85 69.7L-19.45 69.25L-19.85 76.7L-28.6 74.75M-30.65,74.95L-32.95 76L-32.1 60.15L-29.8 61.35L-30.65 74.95" />
<path style="fill:#8B5F3D;fill-opacity:1" d="M97.5,28.45L96.55 30.8L96.4 31L96.15 31.25L95.7 31.2L95.5 31.05L95.55 30.95L95.55 30.7L96.85 27.75L97.15 27.65L102.2 26.85L102.2 27.75L97.5 28.45M90.25,25L90.8 24.2L93.7 26.05L93.95 26.3L94.8 29.9L94.65 30.25L94.5 30.45L94.1 30.4L94 30.1L93.25 26.8L90.25 25M97.65,30.65L97.5 30.25L97.65 29.8Q97.95 29.5 98.15 29.45Q98.45 29.3 98.7 29.6L98.95 29.95L98.9 30.4L98.9 30.45L98.45 30.65L97.7 30.75L97.65 30.65M92.3,29.65Q91.9 29.6 91.65 29.35L91.3 29Q91.25 28.6 91.45 28.45L91.9 28.2L92.5 28.25L92.8 28.8L92.7 29.2L92.3 29.65M100.55,29.45L100.25 29.05Q100.25 28.6 100.5 28.35Q100.55 28.15 100.95 28.2L101.5 28.25L101.65 28.65Q101.8 29.05 101.6 29.2L101.1 29.6L100.55 29.45M95.75,32.45L95.85 32.05Q96.2 31.7 96.55 31.65Q96.75 31.6 96.9 31.85L97.35 32.25L97.2 32.7L97.1 32.8L96.75 32.95L96.1 32.9L95.75 32.45M93.25,31.95L93 32.35Q92.7 32.3 92.45 32.05L92 31.8L92 31.65L92.05 31.25L92.45 31L93.05 31.05L93.55 31.55L93.3 31.95L93.25 31.95M98.2,33.65L98.8 33.65L99 34.25L98.9 34.8L98.5 34.95L97.95 34.9L97.55 34.55Q97.5 34.1 97.7 33.85L98.2 33.65M89.6,26.9Q89.4 26.6 89.6 26.45L89.95 26.1L90.55 26.3L91.1 26.7L90.85 27.1L90.45 27.4L89.8 27.3L89.6 27L89.6 26.9M90.7,32L91 32.5Q91.1 32.85 90.85 33.2L90.5 33.45L89.95 33.1L89.65 32.8Q89.6 32.5 89.8 32.35Q89.9 31.9 90.15 31.9L90.7 32M83.9,37.9Q84.1 37.8 84.3 38.05L84.55 38.5L84.55 38.65L83.9 37.9M20.75,31.9L21.05 31.7L20.85 31.9L20.75 31.9M30,21.4L30.6 20.7L31.95 21.4L31.7 21.65L32.2 22.55L30 21.4M36.65,18.9L35.7 18.7L37.6 15.2L38.15 16.15L36.65 18.9M56.3,11.6L56.35 12.5L53.85 12.4L53.85 14.1L53.8 14.1L53.7 14.3L53.65 14.35L53.05 15.4L52.75 15.9L53 12.3L46.3 11.85L46.15 11.85L46 11.75L43.7 9L43.6 8.7Q43.55 8.45 43.8 8.35Q43.85 8.2 44 8.25L44.4 8.45L44.5 8.7L46.5 11L56.3 11.6M66.55,18.8L65.95 18.15L67.55 16.6L67.65 17.8L66.55 18.8M70.15,32.25L75.75 30.95L75.55 28.45L76.4 28.5L76.6 31.1L76.65 31.2L76.65 31.45L76.75 32.5L75.9 32.7L75.8 31.85L70.7 32.95L70.15 32.25M101.3,46.4L101.35 46.7L100 50L99.9 50.35L99.55 50.4L99.4 50.05L99.3 49.75L99.45 49.4L100.5 46.55L98.95 43.15L99.7 43L101.3 46.4M110.95,50.1L111.45 51.15L114.8 52.35L114.35 53.25L103.95 49.35L101.55 51.1Q101.45 51.2 101.3 51.25L100.85 51Q100.8 50.85 100.9 50.65L101 50.35L103.55 48.5L103.75 48.5L103.9 48.45L110.5 50.85L110.95 50.1M95.45,49.35L95.6 49.4L95.9 49.55L95.75 50.2L95.4 50.7L94.95 50.6L94.7 50.2L94.45 49.85L94.5 49.75Q94.5 49.5 94.85 49.35L95.45 49.35M97.3,44.85L97.4 44.7L97.8 44.15L98.15 44.2L98.85 44.5L98.75 45.2L98.55 45.55L97.85 45.7L97.6 45.35L97.6 45.2L97.3 44.85M98.2,47.1Q98.5 46.8 98.8 46.9L99.2 47.35L99.4 47.95L99.25 48.1Q99.05 48.1 98.9 48.25Q98.7 48.25 98.5 48.4Q98.1 48.1 98.05 47.75L97.95 47.4Q98.05 47 98.2 47.1M112.85,54.2L112.55 54.5L111.95 54.6L111.45 54.2L111.35 53.7L111.75 53.3L112.45 53.3Q112.65 53.35 112.9 53.7L112.85 54.2M109.8,52.35L110.15 52.75L110.15 53.2L109.85 53.6Q109.5 53.8 109.15 53.6Q108.85 53.5 108.8 53.2L108.75 52.75Q109 52.3 109.25 52.4L109.8 52.35M107.05,51.4L107.45 51.8Q107.7 51.9 107.5 52.25L107.15 52.65L107 52.65L106.55 52.65L106.2 52.3L106.2 51.75L106.5 51.35L106.65 51.45L107.05 51.4M103.25,52.15L103.15 52.05L103.15 51.55Q103.2 51.15 103.55 51.05L104.15 51.25L104.5 51.55L104.4 51.95Q104.45 52.3 104.15 52.3L104.1 52.4L103.6 52.35L103.25 52.15M101.55,53.55L101.5 53.55L101.05 53.55L100.55 53.05L100.5 52.75L100.55 52.65Q100.6 52.2 100.85 52.25L101.45 52.3L101.9 52.6L101.95 53.25L101.55 53.55M102.05,54.7L102.5 55.15L102.65 55.65L102.2 56.15L101.65 56L101.25 55.7L101 55.2Q101.3 54.95 101.6 54.8L102.05 54.7M98.05,51L97.6 51.15L97.3 50.55Q97.1 50.45 97.2 50.15L97.2 49.8L97.25 49.55L97.9 49.6L98.25 50L98.4 50.6L98.25 50.75L98.05 51M64.75,16.9L64.95 16.4L65.5 16.25Q65.8 16.25 66 16.4L66.2 16.9L66 17.4Q65.8 17.6 65.5 17.6L65.45 17.6L64.75 16.9M51.7,10.9Q51.5 10.75 51.55 10.4Q51.5 10.2 51.8 10Q52 9.8 52.3 9.85L52.8 10L52.95 10.5L52.75 10.95L52.15 11.15L51.7 10.9M54.6,10.05L54.9 9.95L55.05 9.95Q55.4 10 55.6 10.15L55.75 10.4L55.8 10.75L55.6 11.15Q55.35 11.35 55.05 11.35Q54.7 11.3 54.45 11.05Q54.2 11 54.3 10.6Q54.3 10.3 54.55 10.15L54.6 10.05M46.1,4.65L46.5 4.6L46.95 4.75L47.3 5.2L47.05 5.7L46.5 5.9L46 5.6Q45.75 5.4 45.8 5.1L46.1 4.65M45.15,6.65L45.4 6.75L45.6 7L45.55 7.35L45.3 7.7Q45.1 7.95 44.9 7.85L44.85 7.85L44.3 7.7L44.1 7.35L44.1 7.2L44.3 6.8L44.95 6.6L45.15 6.65M47.4,8.95L47.5 9.25L47.2 9.8L46.75 10L46.2 9.75L46.05 9.25L46.25 8.85L46.35 8.9L46.8 8.7Q47.2 8.75 47.35 8.95L47.4 8.95M50.15,10.3L49.9 10.85L49.35 11.05L48.9 10.75L48.8 10.8L48.7 10.25Q48.75 9.85 48.95 9.75L49.35 9.7L49.5 9.65L49.95 9.8L50.15 10.3M51.5,15.4L51.9 15.6L52.1 16.15L51.95 16.5L51.5 15.4M78.65,30.4L78.5 30.45L78.15 30.8Q77.7 30.8 77.65 30.6L77.35 30.1L77.45 29.45Q77.5 29.25 77.95 29.25L78.4 29.4L78.55 29.6L78.7 29.95L78.65 30.4M78.55,32.15L77.85 32.25Q77.8 32.15 78.2 32.05L78.55 32.15M71.9,29.9L72.1 30.4L71.9 30.85L71.4 31.1L70.85 30.85Q70.6 30.75 70.6 30.4L70.85 29.9L71.4 29.75L71.9 29.9M73.7,30.4L73.5 29.9L73.7 29.4L74.3 29.25L74.75 29.4L75 29.9L74.75 30.4Q74.55 30.6 74.3 30.6L73.7 30.4M80.3,38.1L79.9 38.2L80.05 37.9L80.1 37.9L80.3 38.1M28.05,28.85L27.85 28.35L27.95 28L28.35 29L28.05 28.85M29.2,30.6L29.75 31.4L28 34.7L27.15 34.35L29.2 30.6M36.1,14.45L36.55 14.6L36.8 15.05L36.55 15.55L36.1 15.75L35.5 15.55L35.3 15.05L35.5 14.6L36.1 14.45M34.8,17.95Q34.55 17.95 34.25 17.75L34.05 17.25L34.25 16.75L34.8 16.6L35.3 16.75L35.5 17.25L35.3 17.75Q35.1 17.95 34.8 17.95M33.15,19.9Q32.9 19.8 32.9 19.4L33.15 18.95L33.7 18.8L34 18.85L33.15 19.9M32.9,23.8L33.35 24.7L32.5 24.5L32.9 23.8M31.7,24.3L30.35 23.9L30.45 23.7L31 23.55Q31.3 23.55 31.5 23.7L31.7 24.2L31.7 24.3M17.15,30.3L17.65 29.9L18.25 30.05L18.5 30.5L18.5 30.75L18.35 31.05L17.9 31.35L17.4 31.3L17 30.75L17.15 30.3M11.15,31.7L8.25 26.45L9.4 26.5L11.85 31.25L14.6 32.8L14.9 33.05L15.1 33.45L15.1 33.7L14.95 33.8L11.15 31.7M11.8,27.3L12.25 27.25L12.4 27.4L12.6 27.75L12.5 28L12.45 28.3Q12.2 28.65 11.95 28.65L11.45 28.55L11.4 28.45L11.25 28.1Q11.05 27.9 11.25 27.6Q11.35 27.5 11.8 27.3M12.45,29.8Q12.6 29.65 12.85 29.55L13.45 29.6L13.75 30.15L13.55 30.6L13.2 30.95L12.55 30.85L12.25 30.35L12.45 29.8M14.6,31.95L14.7 31.4Q14.8 31.2 15.2 31.1L15.7 31.15L15.95 31.35L16.05 31.65L15.95 32.1L15.9 32.2L15.85 32.3L15.55 32.55L14.95 32.4Q14.6 32.25 14.6 31.95M0.05,43L-0.3 42.6L0 42.8L0.05 43M-9.35,45.85L-21.95 43.65L-22.7 43.45L-22.9 43.3L-22.95 43L-22.95 42.9L-22.9 42.8L-22.6 42.7L-11.05 44.7L-10.85 44.75L-9.9 40.9L-9.15 41.3L-9.9 45.05L-4.75 45.8L3.2 47.2L3.45 47.45L3.55 47.7L3.3 48L3 48.15L-6.95 46.3L-9.35 45.85M3.05,49.75L3.1 49.9L3.1 50.1L3 50.55L2.65 50.7L2.1 50.75L1.85 50.2L1.8 50.05L1.85 49.85L1.75 49.8Q1.95 49.45 2.35 49.35L2.75 49.45L2.95 49.6L3.05 49.75M-0.65,50.25L-0.9 49.75L-0.85 49.3L-0.9 49.25L-0.85 49.15L-0.5 49.05L-0.35 48.95L0 48.95L0.05 49L0.35 49.45L0.35 49.95L0.4 50.05L0.35 50.1L0 50.3L-0.1 50.35L-0.45 50.35L-0.55 50.2L-0.65 50.25M27.35,29.9L27.85 30.05L28.05 30.5L27.85 31L27.35 31.2L26.8 31L26.6 30.5L26.8 30.05L27.35 29.9M26.1,32.05L26.6 32.2L26.8 32.7L26.6 33.2L26.1 33.4L25.55 33.2L25.35 32.7L25.55 32.2L26.1 32.05M-8.45,48.3L-9 48.3L-9.15 48.1L-9.3 47.8L-9.35 47.75L-9.35 47.35L-8.95 47.05L-8.9 47.1L-8.3 47.05L-8.1 47.15L-7.95 47.45L-8 47.65L-8 48.15L-8.45 48.3M-17.5,46.45L-17.65 46.15L-17.7 45.7Q-17.45 45.35 -17.1 45.3L-16.7 45.3Q-16.25 45.55 -16.25 45.85Q-16.15 46.15 -16.35 46.45L-16.5 46.6L-16.85 46.75L-17.25 46.8L-17.35 46.7L-17.5 46.45M-19.8,44.7Q-19.35 44.7 -19.2 44.9L-18.9 45.05L-18.9 45.15L-19 45.6L-19.05 45.95L-19.05 46.1L-19.3 46.15L-19.75 46.25L-19.95 46.15L-20.2 45.65L-20.2 45.1L-19.95 44.85L-19.8 44.7M-22,44.4L-21.6 44.9L-21.7 45.45L-22.1 45.8L-22.6 45.75L-22.95 45.2L-22.95 44.65L-22.5 44.35L-22 44.4M-13.9,45.85L-13.6 46.2Q-13.5 46.3 -13.55 46.35L-13.7 46.9L-14.05 47.15L-14.1 47.2L-14.55 47.05L-14.65 47.15L-14.85 46.6L-14.85 46.1L-14.4 45.7L-13.9 45.85M-10.7,47.05Q-10.7 47.4 -10.85 47.65L-11.2 47.9L-11.25 47.95L-11.8 47.9L-11.85 47.75L-12.05 47.35L-12 46.9L-11.6 46.55L-11.1 46.65L-10.7 47.05M-5.6,47.6L-5.55 47.5L-5.35 48.05L-5.3 48.1L-5.35 48.55L-5.75 48.85L-6.3 48.85L-6.65 48.45L-6.65 48.35L-6.55 47.9L-6.45 47.55L-6.3 47.5L-6.1 47.35L-5.75 47.45L-5.6 47.6M-2.7,48.25L-2.65 48.5L-2.7 49L-2.75 49.15L-3.05 49.3L-3.5 49.3L-3.75 49.25L-3.8 48.8L-3.85 48.25L-3.45 47.9L-3.2 47.85L-2.7 48.25" />
<path style="fill:#BD8051;fill-opacity:1" d="M78.4,47.05L75.2 48.75L77.65 46.15L75.15 43.05L71.95 45.85L71.05 44.85L74.3 42L72 39.15L68.5 41.05L71.15 38.1L65.85 31.55L62.05 33.85L64.9 30.4L62.7 27.65L62.7 27.85L62.4 27.45L60.1 29.65L61.55 26.35L59.5 23.65L58.4 22.25L58.15 21.95L57.75 21.4L57.1 20.7L56.8 20.4Q54.25 18.1 50.8 18.1Q47.05 18.1 44.4 20.7L44.25 20.9L43.4 21.95L43 22.5L41.75 23.95L40.8 25.15L38.3 28.15L42.25 31.3L41.4 32.3L37.5 29.15L35.25 31.85L38.1 35.45L34.25 33.05L29.6 38.65L32.25 42.05L28.7 39.75L26.2 42.75L29.95 45.8L29.1 46.8L25.35 43.8L23.05 46.55L25.8 49.95L22.15 47.65L19.75 50.55L20 50.55L18.9 51.75Q8.95 63.1 14.2 67.4Q18.9 71.15 27 70.7L27.15 70.6L27.4 70.35L32.9 70.35L33.95 65.85L34.4 63.65L34.7 65.85L34.7 65.95L35.2 70.35L38.8 70.35L38.75 64.15L39.25 64.15L39.45 64.15L39.6 64.15L40.1 64.15L40.15 70.35L43.2 70.35L44.15 65.85L44.55 63.6L44.85 65.85L45.45 70.35L54.3 70.35L55.25 65.85L55.65 63.7L55.95 65.85L56.55 70.35L60.15 70.35L60 63.05L61.2 63.05L61.35 63.15L61.5 70.35L72.35 70.35L72.5 70.55L73.55 70.65Q82.1 71.35 87 67.4Q92.25 63.1 82.4 51.9L82.25 51.85L78.4 47.05M73.25,71.75L72 71.75L71.95 71.65L68.4 71.65L52.75 71.65L47.05 71.65L31.4 71.65L29.3 71.65L29.2 71.75L26.3 71.7L25.6 71.7L25.55 71.7Q15.6 71.25 13.15 68Q9.05 62.5 14.9 54.55L42.3 21.05L42.35 21L43.4 19.7L43.7 19.45Q46.6 16.8 50.55 16.7L52 17.55L52.1 17.5L52.65 16.9Q55.75 17.35 58.1 19.7L59.5 21.4L60.75 22.85L60.75 22.9L61.25 23.5L61.35 23.6L62.55 25.1L62.55 25.2L62.65 25.3L62.7 25.25L63.55 26.3L63.5 26.35L65.85 29.25L65.9 29.2L67.15 30.75L67.1 30.8L68.55 32.6L68.6 32.6L69.2 33.3L69.1 33.3L70.6 35.15L81.1 48.2L83.05 50.6L85.1 52.85Q92.55 61.95 88.05 68Q85.55 71.35 75 71.7L73.25 71.75M84.35,57.5L80.2 62.25L82.95 57.35Q81.65 56.65 80.15 56.65L80.05 56.65L80.05 62.25L78.75 56.1L80.05 55.9Q81.8 55.9 83.2 56.7L84.35 57.5M85.95,62.5L85.95 62.4L80.6 62.4L86.45 61.2L86.6 62.4Q86.6 64.15 85.75 65.55L85.05 66.6L80.2 62.55L85.25 65.3Q85.95 64 85.95 62.5M50.5,19.8L50.5 25.4L49.2 19.25L50.5 19.05Q52.25 19.05 53.65 19.85Q54.3 20.15 54.8 20.65L50.65 25.4L53.4 20.5Q52.1 19.8 50.6 19.8L50.5 19.8M45.65,21.3L50.5 25.5L50.5 25.55L45.45 22.75Q44.75 24 44.75 25.55L50.45 25.55L50.35 25.7L50.45 25.7L47.65 30.7Q48.9 31.45 50.5 31.45L50.5 25.7L50.6 25.7L51.9 31.95L50.5 32.1Q48.75 32.1 47.35 31.25L46.25 30.45L50.35 25.7L44.2 27.05L44 25.55Q44 23.8 44.8 22.4Q45.1 21.75 45.65 21.3M57.05,25.55Q57.05 27.3 56.2 28.7L55.5 29.75L50.65 25.7L55.7 28.45Q56.4 27.15 56.4 25.65L56.4 25.6L56.35 25.65L55.75 25.55L51.05 25.55L56.65 24.4L57.05 25.55M23.1,57.4L20.3 62.3L22.25 56.3Q22.9 56.4 23.5 56.75Q25 57.65 25.85 59.05L26.4 60.3L20.4 62.35L25.25 59.45Q24.5 58.2 23.15 57.45L23.1 57.4M25.9,65.65Q25 67.15 23.55 68L22.45 68.55L20.3 62.55L23.3 67.5Q24.55 66.75 25.3 65.4L25.35 65.35L20.75 62.7L26.4 64.55L25.9 65.65M20.25,62.4L17.25 57.45Q16 58.2 15.25 59.55L20.2 62.35L20.1 62.45L20.15 62.45L15.2 65.4Q15.9 66.7 17.3 67.5L20.2 62.5L20.25 62.55L18.25 68.65L17 68.05Q15.5 67.2 14.65 65.7L14.1 64.5L20.1 62.45L14.05 60.55Q14.2 59.8 14.6 59.15Q15.45 57.65 16.9 56.8Q17.45 56.4 18.2 56.3L20.3 62.35L20.25 62.4M75.2,58.15L80.05 62.35L80.05 62.4L75 59.6Q74.3 60.85 74.3 62.4L80 62.4L79.9 62.55L80 62.55L77.2 67.55Q78.45 68.3 80.05 68.3L80.05 62.55L80.15 62.55L81.45 68.8L80.05 68.95Q78.3 68.95 76.9 68.1L75.8 67.3L79.9 62.55L73.75 63.9L73.55 62.4Q73.55 60.65 74.35 59.25L75.2 58.15M67,55.8L66.2 55.9L65.75 55.9L67 55.8M65.3,66.35L66.25 66.45L66.8 70.25L64.55 70.3L65.3 66.35M-18,55.2L-19.95 54.9L-20.5 54.7L-23.35 52.05L2 56.85L-1.05 58.55L-5.85 57.6L-8.2 62.95L-8.6 62.7L-7.5 57.2L-9.8 56.65L-10.75 56.45L-11.9 56.35L-11.95 56.3L-16.55 55.45L-16.85 57.05L-18.25 56.15L-18 55.2M-19.55,69.05L-19.3 66.55L-18.85 66.75L-19.55 69.05M-19.85,76.7L-32.95 76L-30.65 74.95L-29.8 61.35L-28.25 62.15L-28.6 74.75L-19.85 76.7" />
<path style="fill:#604129;fill-opacity:1" d="M57.55,56.3L56.6 56.35L56.6 56.4L57.3 58L57.4 58.55L57.15 59.05L56.15 60.2L57.1 61.35L58.5 60.65L59.05 60.55L59.55 60.75Q61.2 62.25 63.2 62.85L63.65 63.15L63.9 63.65L64 65.35L65.7 65.45L66.2 63.85Q66.25 63.55 66.45 63.4L66.95 63.2L69.5 62.7L69.6 62.65L69.6 63.5L69.6 63.6L67.05 64.1L66.5 65.85L66.3 66.4L66.25 66.4L66.25 66.45L65.3 66.35L63.1 66.2L63.05 64.25L63 63.75L61.65 63.25L61.35 63.15L61.2 63.05L61.25 63.05L60.65 62.7L60.45 62.6L58.9 61.45L56.9 62.5L54.9 60.15L56.5 58.5L55.65 56.45L55.65 56.4L56.4 56.35L59.15 50.9L60.3 50.8L57.55 56.3M75.8,50.8L76.5 51.65L77 52.3L76.1 52.6L76.05 52.45L75.8 50.8M66.95,39.95L67.15 40L68.05 41.1L66.95 40.9L66.4 42.7L66.1 43.15L65.6 43.35Q63.4 43.35 61.55 44.35L61.05 44.45Q60.75 44.4 60.55 44.2L59.4 43.15L58.1 44.05L58.8 45.45L58.95 46L58.7 46.5Q57.1 48.2 56.5 50.35L56.2 50.8L55.7 50.95L54.2 51.05L54.2 51.15L53.25 51.2L53.35 50.2L55.65 50.05Q56.3 47.75 58.05 45.9L56.95 43.85L56.6 44.9L53.4 44.7L53.3 42.25Q51.05 41.6 49.2 39.95L47.2 41L45.2 38.65L46.8 37L46.15 35.55L47.25 35.85L47.6 36.5L47.7 37.05L47.45 37.55L46.45 38.7L47.4 39.85L48.8 39.15L49.35 39.05L49.85 39.25Q51.5 40.75 53.5 41.35Q53.8 41.4 53.95 41.65L54.2 42.15L54.3 43.85L56 43.95L56.5 42.35Q56.55 42.05 56.75 41.9L57.25 41.7Q59.25 41.55 61 40.65L61.55 40.55L62.05 40.75L63.5 42L64.85 40.8L64 39.15L63.85 38.6L64.1 38.1L64.75 37.3L64.85 37.1L65.45 37.85L65.35 38L64.75 38.7L66 40.95L66.3 39.85L66.95 39.95M70.45,44.25Q69.9 43.95 69.35 43.8Q69.05 43.7 68.95 43.45L68.75 42.95L68.7 41.95L70.65 44.35L70.45 44.25M45,49.05L45.4 49.5L46.5 51.1L45.5 50.95L45 50.3L44.65 51.05Q43.85 51.2 43.2 51.75L44.15 49.95L42.2 51L42.8 51.55L43.05 51.85L42.9 52L42.25 52.85L41.9 52.45Q40.9 51.5 39.6 51.5Q38.25 51.5 37.25 52.45Q36.3 53.45 36.3 54.8Q36.3 56.1 37.25 57.1Q38.25 58.1 39.6 58.1Q40.9 58.1 41.9 57.1L42.4 56.55L42.9 57.2Q43.6 57.9 44.6 58.15L45.15 59.2L45.75 58.25L46.75 58.1L45.55 60L45 60.55L44.85 60.7Q42.75 62.65 39.95 62.95L39.25 62.95L39.1 62.95Q36 62.85 33.85 60.85L33.5 60.55L33.25 60.35Q31.15 58.1 31.1 55.05L31.1 54.8L31.15 54.25Q31.3 51.3 33.4 49.15L33.5 49.05L34.05 48.55Q36.15 46.7 38.95 46.65L39.25 46.65L40.1 46.7Q42.7 46.9 44.65 48.7L45 49.05M57.35,42.6L57 43.7L58.9 42.4L57.35 42.6M61.45,41.45L59.7 42.15L61.15 43.5Q62.05 43.05 63 42.8L61.45 41.45M65.55,42.4L65.95 41.05L64.35 42.55L65.55 42.4M34.9,48.95L37.75 50.5L38.75 47.5Q36.5 47.65 34.9 48.95M40.2,50.3L39.5 47.9L38.75 50.3L39.6 50.2L40.2 50.3M36.9,51.05L34.75 49.95L35.95 52.1L36.35 51.55L36.9 51.05M32.85,54.7L35.1 55.4L35.05 54.8L35.1 53.95L32.8 54.65L32.85 54.7M32,53.95L35.4 52.9L33.85 49.95Q32.2 51.7 32 53.95M35.3,56.45L35.3 56.35L31.95 55.35Q32.1 57.65 33.7 59.55L35.3 56.45M37.5,58.85L34.6 60.4Q36.35 61.95 38.8 62.1L37.9 59.05L37.5 58.85M35.85,57.4L34.8 59.35L36.7 58.35L36.35 58L35.85 57.4M39.5,61.3L40.15 59.35L39.6 59.35L38.9 59.3L39.5 61.3M65.15,55.9L64.05 55.95L66.7 50.65L66.7 50.5L64.45 50.6Q65.2 50.05 66.2 50.05Q67.4 50.05 68.25 50.9Q69.1 51.75 69.1 53Q69.1 54.2 68.25 55.05Q67.7 55.6 67 55.8L66.8 52.55L65.15 55.9M62.95,50.7L64.05 50.6L61.3 56.1L60.2 56.15L62.95 50.7M52.8,51.2L50.05 56.7L49.95 56.7L49.9 56.75L48.8 56.8L48.85 56.75L48.9 56.75L51.65 51.3L52.8 51.2M55.45,51.1L56.55 51L53.8 56.5L53.7 56.5L53.65 56.55L52.55 56.6L52.6 56.55L52.7 56.55L55.45 51.1M48,51.5L49.15 51.4L48.5 52.75L47.85 51.8L47.9 51.8L48 51.5M47.95,53.7L48.1 54.6Q48.1 55.7 47.35 56.5L46.75 56.95L46.25 57.1L45.5 57.2Q44.55 57.2 43.8 56.7L43.6 56.5Q42.95 55.75 42.9 54.8L42.9 54.6Q42.9 53.55 43.6 52.8L43.85 52.6Q44.55 52 45.5 52Q46.55 52 47.35 52.8L47.95 53.7M47.05,53.05Q46.5 52.35 45.5 52.35Q44.65 52.35 44 53L43.95 53.05Q43.25 53.6 43.25 54.6Q43.25 55.5 43.95 56.15L44.05 56.25Q44.55 56.75 45.3 56.85L45.5 56.85L46.45 56.65L47.05 56.15Q47.75 55.5 47.75 54.6L47.75 54.2L47.15 53.15L47.05 53.05M42.4,58.45L44.15 59.35L43.25 57.6L42.8 58L42.4 58.45M41.15,59.15L40.2 62Q42.4 61.75 44.15 60.35L41.55 58.95L41.15 59.15M41.2,50.5L43.85 49.1Q42.25 47.85 40.35 47.55L41.2 50.5" />
<path style="fill:#0E0E0E;fill-opacity:1" d="M55.45,51.1L54.2 51.15L54.2 51.05L55.7 50.95L56.2 50.8L56.5 50.35Q57.1 48.2 58.7 46.5L58.95 46L58.8 45.45L58.1 44.05L59.4 43.15L60.55 44.2Q60.75 44.4 61.05 44.45L61.55 44.35Q63.4 43.35 65.6 43.35L66.1 43.15L66.4 42.7L66.95 40.9L68.05 41.1L68.65 41.2L68.7 41.95L68.75 42.95L68.95 43.45Q69.05 43.7 69.35 43.8Q69.9 43.95 70.45 44.25L70.65 44.35L71.05 44.85L75.8 50.8L76.05 52.45L76.1 52.6L69.9 54.6L69.5 60.9L69.55 61.5L69.55 61.95L69.6 62.65L69.5 62.7L66.95 63.2L66.45 63.4Q66.25 63.55 66.2 63.85L65.7 65.45L64 65.35L63.9 63.65L63.65 63.15L63.2 62.85Q61.2 62.25 59.55 60.75L59.05 60.55L58.5 60.65L57.1 61.35L56.15 60.2L57.15 59.05L57.4 58.55L57.3 58L56.6 56.4L56.6 56.35L57.55 56.3L60.2 56.15L61.3 56.1L64.05 55.95L65.15 55.9L65.75 55.9L66.2 55.9L67 55.8Q67.7 55.6 68.25 55.05Q69.1 54.2 69.1 53Q69.1 51.75 68.25 50.9Q67.4 50.05 66.2 50.05Q65.2 50.05 64.45 50.6L64.05 50.6L62.95 50.7L60.3 50.8L59.15 50.9L56.55 51L55.45 51.1M54.15,37.45L62.05 34L62.25 33.9L64.85 37.1L64.75 37.3L64.1 38.1L63.85 38.6L64 39.15L64.85 40.8L63.5 42L62.05 40.75L61.55 40.55L61 40.65Q59.25 41.55 57.25 41.7L56.75 41.9Q56.55 42.05 56.5 42.35L56 43.95L54.3 43.85L54.2 42.15L53.95 41.65Q53.8 41.4 53.5 41.35Q51.5 40.75 49.85 39.25L49.35 39.05L48.8 39.15L47.4 39.85L46.45 38.7L47.45 37.55L47.7 37.05L47.6 36.5L47.25 35.85L54.15 37.45" />
</g>
</svg>
