<?xml version="1.0" encoding="utf-8"?>
<svg version="1.1" id="Layer_1"
xmlns="http://www.w3.org/2000/svg"
xmlns:xlink="http://www.w3.org/1999/xlink"
width="69px" height="71px"
xml:space="preserve">
<g id="1119" transform="matrix(1, 0, 0, 1, 15.6, 16.75)">
<path style="fill:#000000;fill-opacity:1" d="M20.85,18.15L18.5 14.8L14.8 16.3L14.8 20.2L18.7 21.35L20.85 18.15M53.15,28.15L26.55 28.15L8.95 53.65L8.95 27.8L-15.6 9.85L9.45 9.85L27.5 -16.75L27.5 10.35L53.15 28.15" />
<path style="fill:#183A4D;fill-opacity:1" d="M14.45,22.65L10.8 26.3L-5.8 15.25L13.7 15.2L9.95 11.45L10.8 11.45L21.4 -4.35L21.4 14.9L25.65 10.65L25.65 11.45L42.2 22.65L22 22.65L25.65 26.3L14.45 42.75L14.45 22.65M19,22.8L22.3 18.25L19 13.65L13.65 15.4L13.65 21.05L19 22.8" />
<path style="fill:#C2C2C2;fill-opacity:1" d="M21.4,14.9L21.4 -4.35L25.5 -10.45L25.65 10.65L21.4 14.9M42.2,22.65L47.35 26.15L25.65 26.3L22 22.65L42.2 22.65M14.45,42.75L10.75 48.15L10.8 26.3L14.45 22.65L14.45 42.75M13.7,15.2L-5.8 15.25L-11.3 11.55L9.95 11.45L13.7 15.2" />
</g>
</svg>
