<?xml version="1.0" encoding="utf-8"?>
<svg version="1.1" id="Layer_1"
xmlns="http://www.w3.org/2000/svg"
xmlns:xlink="http://www.w3.org/1999/xlink"
width="85px" height="80px"
xml:space="preserve">
<g id="460" transform="matrix(1, 0, 0, 1, 9.45, 30.85)">
<path style="fill:#1E1E1E;fill-opacity:1" d="M34.15,-28.4Q33.85 -28.1 34 -27.75L33.85 -27.75L33.75 -27.8L33.65 -27.8L33.45 -27.7L33.3 -27.55L33.25 -27.4L33.15 -27.1L33.1 -26.85Q33.1 -26.55 33.35 -26.4Q34.2 -25.8 35.1 -26.4Q35.85 -26.95 36.2 -27.9L36.45 -28.3L36.35 -28.55L36.25 -28.85L36.15 -29.1Q35.9 -29.5 35.5 -29.4L34.8 -28.95L34.15 -28.4M32.85,-29.2Q33.95 -30.3 35.2 -30.85Q39.7 -29.4 36.1 -25.6Q34.95 -24.35 33.3 -25.2Q30.35 -26.7 32.85 -29.2M1.5,-21.3L1.5 -21.35Q5.2 -21.7 5.05 -18.35Q4.95 -16.1 2.6 -15.5Q-0.15 -14.85 -1.75 -16.7L-1.85 -16.8L-3.6 -17.05Q-4.15 -16.7 -4.9 -16.7Q-10.05 -16.65 -8.3 -20.35Q-7.6 -21.85 -5.85 -22.05Q-0.75 -22.1 -2.55 -18.25L-1.95 -18.4L-1.95 -18.55L-2 -19.1L-1.9 -19.85L-1.25 -20.8L-0.8 -21.2L-0.55 -21.2L0.25 -21.2L1.5 -21.3M1.75,-20.05L1.5 -20L0.75 -19.85L0.2 -19.65L0 -19.5L-0.05 -19.35L-0.1 -19.2L-0.1 -18.95L-0.3 -18.35L-0.55 -17.65Q-0.2 -16.9 0.75 -16.75Q3 -16.4 4.05 -18.3L4 -18.6L3.6 -19.4Q3 -20.35 1.75 -20.05M5.85,-7.05L3.35 -7.45Q0.15 -6.2 1.55 -3.5Q2.35 -1.95 4.2 -2Q7.35 -2 8.35 -4.75L8.2 -5.2L8.05 -5.5L7.95 -5.75L7.75 -6.2L7.7 -6.4L5.85 -7.05M8.9,-2.05Q3 1.65 -0.1 -3.95Q-0.4 -4.55 -0.15 -5.25Q0.95 -8.4 4.35 -9Q10.9 -9.35 10.05 -3.8Q9.9 -2.65 8.9 -2.05M13.65,-4.3L14.55 -5.65L14.55 -6.1Q14.6 -7.15 15.45 -7.75Q18.05 -9.55 21.3 -10.05L24.1 -10.75Q31.95 -12.1 35.2 -6.2Q35.65 -5.4 35 -4.7L34.55 -4.3L36.1 -2.5L36.9 -1Q40.15 -0.65 42.15 1.85Q43.45 3.4 44.2 5.3Q44.9 7.1 44.55 8.9Q48.15 9.55 50.1 12.7Q51.25 14.5 50.75 16.65Q50.2 19.1 47.85 20.05Q48.4 23.45 46.35 26.25Q44.85 28.3 42.9 29.5L43.95 30.3Q44.3 30.7 44.3 31.3Q44.6 39.15 36.4 38.65Q34.1 38.5 35.35 36.55Q37 34 37.25 31.05L35.95 31.05L34 30.65Q32.3 35.85 26.45 36.7Q23.9 37.05 21.6 35.95L21 35.65Q18.6 39.85 12.95 38.4Q6.35 36.65 7.9 30.6Q8.35 28.95 9.95 28.15Q8.4 26.95 7.95 25L7.7 23.25Q7.65 21.5 8.25 20Q8.65 19.1 9.2 18.3L7.4 15.15Q6.95 14.25 6.9 13.2Q6.85 11.45 7.45 9.85Q7.85 8.8 8.6 8.1Q7.85 6.5 8.45 4.75Q9.15 2.7 10.8 1.1Q12.25 -0.25 14 -0.95L13.85 -1L13.75 -1.15L13.55 -1.7L13.45 -2.4L13.45 -3.1Q13.4 -3.75 13.65 -4.3M14.55,-2.1Q17.95 -3.25 22.05 -3.9L31.75 -5.45L31.7 -5.6Q31.65 -5.8 32 -5.8L32.55 -5.55L33.65 -5.75L34.1 -6.2Q33.65 -7.25 32.55 -7.9Q31.1 -8.75 29.4 -9.1L24.3 -9.25L19.1 -8.05Q16.25 -7.35 14.95 -4.85Q14.25 -3.55 14.55 -2.1M17.15,-1.1L17.7 -0.55Q17.95 -0.3 17.8 0Q14.95 -0.45 12.3 1.65Q10.4 3.15 10.05 5.5Q9.8 7.25 10.15 8.95Q7.6 10.9 8.85 14.05L10.45 18.4Q10.7 19.05 10.25 19.75Q7.45 24.35 11.55 27.7Q12 28.05 11.95 28.6Q8.65 29.95 9.05 33.35Q9.25 35.3 11.2 36.45Q14.1 38.15 16.9 36.65Q18.7 35.7 20.4 35.25Q18.4 33.7 18.85 31.2L22.05 34.5Q23 35.6 24.5 35.35Q28.65 34.8 31.55 32.05Q32.55 31.1 32.75 29.8L32.1 28.55L32.9 28.8L32.95 26.9L33.1 26.75L33.3 26.6L33.6 26.5L33.8 26.45Q34.55 27.5 34.35 29.15L37.5 29.3L37.65 29.15L38.05 28.95L38.05 28.9L38.3 29.05L38.4 29.15Q41.15 28.65 43.8 26.8Q45.95 25.35 46.55 22.85Q47 21.15 45.95 19.7Q46.7 18.55 48.1 17.85Q49 17.4 49.15 16.4L49.5 14.85L48.2 12.85Q46.75 10.85 44.25 10.45L42.95 10.05Q43.45 6.9 41.6 4.1Q39.3 0.75 35.55 -0.7L35.05 -1.05Q33.55 -2.35 32.65 -3.8Q25.55 -3.55 18.75 -1.95L16.8 -1.35L17.15 -1.1M33.75,-15.65L33.9 -15.1L33.9 -14.85L35.55 -13.65L37.35 -12.95L38.1 -12.55L38.85 -12.8L39.85 -13.05L39.85 -13.2L43.3 -11.7Q44.4 -11.1 45.2 -12.05Q46.35 -13.4 46 -15.1L46.05 -16Q44.7 -17.5 43.55 -15.3Q43.15 -14.5 42.3 -14.05Q40.3 -13 38.5 -14.9L36.6 -16.25L34.75 -16.8L34.45 -16.75L34.05 -16.6L33.7 -16.4L33.65 -16.25L33.65 -16.1L33.75 -15.65M34.45,-18.45Q36 -18.4 37.4 -17.7L40 -16.2L41.35 -15.15Q43.8 -20.75 48 -16.05Q48.55 -15.45 48.6 -14.5Q48.75 -8.3 42.45 -8.6Q41.2 -8.7 40.4 -9.65Q39.8 -10.35 39.6 -11.3Q37.75 -10.75 35.75 -11.65Q32.6 -13.05 32.35 -16Q32.1 -18.2 34.45 -18.45M23.55,-15.35L24.05 -14.35Q26.15 -13.35 28.1 -14.7Q29.25 -15.55 28.8 -16.85L28.35 -17.6L25.85 -17.7L25.75 -17.65Q24.85 -17.6 24.15 -17.05Q23.3 -16.4 23.55 -15.35M27.4,-13Q22.2 -11.7 22.6 -16.4Q22.85 -19 25.4 -19.5Q29.3 -20.1 30 -16.85Q30.65 -13.8 27.4 -13M48.55,-27.2Q50.55 -27.4 51.1 -25.6Q51.65 -24 50.7 -22.7L49.65 -20.9L48.75 -20.8L46.95 -21.45Q46.45 -21.7 46.1 -22.2L46.05 -22.3L46.05 -22.45L46.1 -22.6L46.15 -22.75L46.3 -22.9L46.35 -23.05L46.15 -23.75Q46.1 -24.7 46.6 -25.55Q47.25 -26.8 48.55 -27.2M48.6,-25.6L48.15 -25L47.45 -24.45L47.2 -23.95Q47.2 -23.65 47.45 -23.4L48.05 -22.95L48.95 -22.7L49.4 -23.05L49.7 -23.65L49.95 -24.05L50 -24.2L49.9 -24.5L49.85 -24.65L49.8 -24.9L49.75 -25.2L49.35 -25.4L48.6 -25.65L48.6 -25.6M59.2,-6.5Q58.5 -4.95 56.65 -5.35Q51.15 -6.5 54.85 -10.2Q55.2 -10.6 55.7 -10.75Q61.25 -10.8 59.2 -6.5M57.7,-8.55L54.95 -8.85L54.65 -8.7L54.4 -8.45L54.2 -8.15Q54.45 -7.1 55.45 -6.8Q57.35 -6.25 57.85 -7.5Q58.55 -8.2 57.7 -8.55M63.4,11.5Q62.15 11.75 62.3 12.15L63.7 12.1L66.9 11.1L68.85 10.5L68.95 10.45L68.5 10.35L68.25 10.3L68.2 10.3L65.75 10.9L63.4 11.5M63.2,10.1Q65.45 9.2 67.95 9L68.2 8.95Q73.15 9.9 69.3 11.6Q66.4 12.85 63.2 13.15Q60.95 13.35 61.05 11.05Q62.1 10.55 63.2 10.1M67.5,22.6L69.95 21.6L70.8 21.1L70.95 21L71.25 20.9Q75.75 20.45 74.85 23.9Q74.7 24.55 74 24.9Q72.7 25.55 71.25 25.55L66.3 25.4L65.8 25.15L65.75 24.55Q65.95 23.05 67.5 22.6M67.3,24.25Q70.85 25.25 73.95 23.3L74.1 23.2Q74.05 22.65 73.3 22.4L71.6 22.1Q71.55 23.05 70.2 23.15L68.25 23.45Q67.55 23.6 67.3 24.25M53.05,15Q56.65 16.8 57.8 20.65Q58.9 24.35 56.45 27.45Q54.85 29.4 52.75 27.9Q51.95 25.6 53.7 23.6Q55.65 21.35 54.15 18.45L52.8 15.4Q52.65 15.05 53.05 15M55.9,22.85Q55.45 24.2 54.45 25.2Q53.7 25.95 53.85 26.85Q56.5 27.3 57 24.1Q57.25 22.4 56.65 20.9L56.1 19.95Q56.4 21.45 55.9 22.85M56.25,33.9L56.55 33.95Q58 35.65 56.5 37.15L54.1 39.4Q52.3 40.85 50.55 40.3L50.55 40.15L50.55 40L50.6 39.75Q50.75 39.5 50.3 39.4L50.15 39.35Q51.55 38.6 52.3 37.25Q53.1 35.9 54.15 34.75Q54.8 34.1 55.7 33.9L56.25 33.9M55.9,35.15L55.85 35.1Q54.85 35.4 54.15 36.2L52.8 37.85L52.15 38.9L53.65 38L55.75 36.7L56.2 36.2L56.15 35.9L56.1 35.6L56 35.35L55.9 35.15M41.6,30.75L40.1 30.7L39.9 30.7L38.4 30.95L38.4 31.5L38.1 33.5Q37.7 34.95 36.65 36.1Q35.95 36.85 36.2 37.6L39.7 37.45Q42.5 36.2 42.95 33.2Q43.15 31.6 42.55 30.6L41.6 30.75M8.05,1.6L8.6 1.8Q7.3 8 4.9 14.05L4.25 15.3L4.25 15.45Q0.5 19.7 -1.3 14.75Q-1.7 13.65 -1.5 12.5Q-1.05 9.15 1.05 6.35L2.25 5.25Q3.95 3 6.55 1.35L7.3 1.4L8.05 1.6M6.9,2.85Q1.9 6.2 0.95 11.95Q0.25 15.9 3.55 13.65L4.25 12.6L7 2.9L6.9 2.85M0.15,19.75L-0.15 19.7L-0.8 19.65Q-1.55 19.95 -1.6 20.75L-1.6 22.2Q-1.65 22.75 -1.95 23.15L-2.05 23.25L-2.25 23.3L-2.65 23.3Q-2 31 5.65 28.75Q6.7 28.45 6.15 27.45Q4.85 25.05 2.7 23.15Q1.05 21.7 0.15 19.75M6.2,30.35Q4 31.6 1.4 30.75Q-4.8 28.55 -3.65 21.8Q-3.15 19.15 -0.95 18.15Q2.1 19 4.2 21.9L7.2 26.15Q8.95 28.7 6.2 30.35M2.25,36.7Q-0.05 37.05 -2 38.4Q-2.55 38.8 -2.55 39.55L-2.25 40.05L-1.8 40.4Q0.45 39 2.95 37.9L4.4 36.6Q5.2 35.3 4.1 34.25L2.85 34.05L2.65 34L2.6 34.05L2.1 34.4L1.6 34.85L1.55 35.45L1.7 35.7L2 36L2.25 36.45L2.25 36.7M0.5,34.6Q0.9 33.7 1.65 33.15Q2.55 32.45 3.5 32.2Q9.45 35.15 3.9 39.4L1.1 41L-2.1 41.35Q-4.35 40.9 -3.6 38.65Q-2.65 35.85 0.3 35.65L0.5 34.6M29.15,46.2L29.4 46.3L29.55 46.45L29.65 46.6L29.7 46.7L30.8 45.9Q31.65 45.05 32.7 44.5L33.5 44.25L34.05 44.25L34.3 44.3Q36.3 47 33.65 48.45Q31.15 49.8 29.05 48.4Q27.15 47.15 29.15 46.2M33.8,45.95L33.75 45.7Q33.75 45.5 33.55 45.55L33.5 45.6L32.15 46.3L30.95 47.2Q30.5 47.6 29.95 47.75L31.95 47.85Q32.95 47.5 33.75 46.95L33.85 46.65L33.85 46.4L33.8 45.95M-3.2,-19.7Q-3.85 -20.85 -5.35 -20.55L-5.45 -20.55L-5.9 -20.35L-6.3 -20.15L-6.75 -19.85L-6.75 -19.75L-6.3 -19.15Q-5.5 -18.6 -4.45 -18.45L-4.05 -18.35L-3.85 -18.45L-3.7 -18.55L-3.2 -18.85L-3.1 -19L-3.2 -19.7M-7.2,-1.25L-7.85 -0.9L-8.25 -0.25Q-7.3 0.5 -6.3 -0.5Q-5.65 -1.15 -6.5 -1.55L-6.5 -1.5L-7.2 -1.25M-7.45,-3.05L-7.15 -3.15Q-3.1 -2.3 -5.9 0.3Q-8.3 2.55 -9.2 -0.3Q-9.8 -2.2 -7.45 -3.05M-7.15,40.95Q-3 42.15 -6.35 44.65Q-9.1 46.7 -9.45 44Q-9.6 42.85 -8.8 41.95Q-8.15 41.2 -7.15 40.95M-7.15,42.45L-7.85 43.05L-8.5 43.75L-8.75 44.3Q-7.95 44.6 -7.15 44.1L-6.15 43.25L-6.1 43.1L-6.2 42.85L-6.5 42.6L-7.1 42.45L-7.15 42.45" />
<path style="fill:#3A3A3A;fill-opacity:1" d="M34.8,-28.95L35.5 -29.4Q35.9 -29.5 36.15 -29.1L36.25 -28.85L36.35 -28.55L36.45 -28.3L36.2 -27.9Q35.85 -26.95 35.1 -26.4Q34.2 -25.8 33.35 -26.4Q33.1 -26.55 33.1 -26.85L33.15 -27.1L33.25 -27.4L33.3 -27.55L33.45 -27.7L33.65 -27.8L33.75 -27.8L33.85 -27.75L34 -27.75Q33.85 -28.1 34.15 -28.4L34.8 -28.95M3.6,-19.4L4 -18.6L4.05 -18.3Q3 -16.4 0.75 -16.75Q-0.2 -16.9 -0.55 -17.65L-0.3 -18.35L-0.1 -18.95L-0.1 -19.2L-0.05 -19.35L0 -19.5L0.2 -19.65L0.75 -19.85L1.5 -20L1.75 -20.05Q3 -20.35 3.6 -19.4M7.7,-6.4L7.75 -6.2L7.95 -5.75L8.05 -5.5L8.2 -5.2L8.35 -4.75Q7.35 -2 4.2 -2Q2.35 -1.95 1.55 -3.5Q0.15 -6.2 3.35 -7.45L5.85 -7.05L7.7 -6.4M14.95,-4.85Q16.25 -7.35 19.1 -8.05L24.3 -9.25L29.4 -9.1Q31.1 -8.75 32.55 -7.9Q33.65 -7.25 34.1 -6.2L33.65 -5.75L32.55 -5.55L32 -5.8Q31.65 -5.8 31.7 -5.6L31.75 -5.45L22.05 -3.9Q17.95 -3.25 14.55 -2.1Q14.25 -3.55 14.95 -4.85M16.8,-1.35L18.75 -1.95Q25.55 -3.55 32.65 -3.8Q33.55 -2.35 35.05 -1.05L35.55 -0.7Q39.3 0.75 41.6 4.1Q43.45 6.9 42.95 10.05L44.25 10.45Q46.75 10.85 48.2 12.85L49.5 14.85L49.15 16.4Q49 17.4 48.1 17.85Q46.7 18.55 45.95 19.7Q47 21.15 46.55 22.85Q45.95 25.35 43.8 26.8Q41.15 28.65 38.4 29.15L38.3 29.05L38.05 28.9L38.05 28.95L37.65 29.15L37.5 29.3L34.35 29.15Q34.55 27.5 33.8 26.45L33.6 26.5L33.3 26.6L33.1 26.75L32.95 26.9L32.9 28.8L32.1 28.55L32.75 29.8Q32.55 31.1 31.55 32.05Q28.65 34.8 24.5 35.35Q23 35.6 22.05 34.5L18.85 31.2Q18.4 33.7 20.4 35.25Q18.7 35.7 16.9 36.65Q14.1 38.15 11.2 36.45Q9.25 35.3 9.05 33.35Q8.65 29.95 11.95 28.6Q12 28.05 11.55 27.7Q7.45 24.35 10.25 19.75Q10.7 19.05 10.45 18.4L8.85 14.05Q7.6 10.9 10.15 8.95Q9.8 7.25 10.05 5.5Q10.4 3.15 12.3 1.65Q14.95 -0.45 17.8 0Q17.95 -0.3 17.7 -0.55L17.15 -1.1L16.8 -1.35M33.65,-16.1L33.65 -16.25L33.7 -16.4L34.05 -16.6L34.45 -16.75L34.75 -16.8L36.6 -16.25L38.5 -14.9Q40.3 -13 42.3 -14.05Q43.15 -14.5 43.55 -15.3Q44.7 -17.5 46.05 -16L46 -15.1Q46.35 -13.4 45.2 -12.05Q44.4 -11.1 43.3 -11.7L39.85 -13.2L39.85 -13.05L38.85 -12.8L38.1 -12.55L37.35 -12.95L35.55 -13.65L33.9 -14.85L33.9 -15.1L33.75 -15.65L33.65 -16.1M24.15,-17.05Q24.85 -17.6 25.75 -17.65L25.85 -17.7L28.35 -17.6L28.8 -16.85Q29.25 -15.55 28.1 -14.7Q26.15 -13.35 24.05 -14.35L23.55 -15.35Q23.3 -16.4 24.15 -17.05M48.6,-25.65L49.35 -25.4L49.75 -25.2L49.8 -24.9L49.85 -24.65L49.9 -24.5L50 -24.2L49.95 -24.05L49.7 -23.65L49.4 -23.05L48.95 -22.7L48.05 -22.95L47.45 -23.4Q47.2 -23.65 47.2 -23.95L47.45 -24.45L48.15 -25L48.6 -25.6L48.6 -25.65M57.85,-7.5Q57.35 -6.25 55.45 -6.8Q54.45 -7.1 54.2 -8.15L54.4 -8.45L54.65 -8.7L54.95 -8.85L57.7 -8.55Q58.55 -8.2 57.85 -7.5M65.75,10.9L68.2 10.3L68.25 10.3L68.5 10.35L68.95 10.45L68.85 10.5L66.9 11.1L63.7 12.1L62.3 12.15Q62.15 11.75 63.4 11.5L65.75 10.9M68.25,23.45L70.2 23.15Q71.55 23.05 71.6 22.1L73.3 22.4Q74.05 22.65 74.1 23.2L73.95 23.3Q70.85 25.25 67.3 24.25Q67.55 23.6 68.25 23.45M56.1,19.95L56.65 20.9Q57.25 22.4 57 24.1Q56.5 27.3 53.85 26.85Q53.7 25.95 54.45 25.2Q55.45 24.2 55.9 22.85Q56.4 21.45 56.1 19.95M56,35.35L56.1 35.6L56.15 35.9L56.2 36.2L55.75 36.7L53.65 38L52.15 38.9L52.8 37.85L54.15 36.2Q54.85 35.4 55.85 35.1L55.9 35.15L56 35.35M42.55,30.6Q43.15 31.6 42.95 33.2Q42.5 36.2 39.7 37.45L36.2 37.6Q35.95 36.85 36.65 36.1Q37.7 34.95 38.1 33.5L38.4 31.5L38.4 30.95L39.9 30.7L40.1 30.7L41.6 30.75L42.55 30.6M7,2.9L4.25 12.6L3.55 13.65Q0.25 15.9 0.95 11.95Q1.9 6.2 6.9 2.85L7 2.9M2.7,23.15Q4.85 25.05 6.15 27.45Q6.7 28.45 5.65 28.75Q-2 31 -2.65 23.3L-2.25 23.3L-2.05 23.25L-1.95 23.15Q-1.65 22.75 -1.6 22.2L-1.6 20.75Q-1.55 19.95 -0.8 19.65L-0.15 19.7L0.15 19.75Q1.05 21.7 2.7 23.15M2.25,36.45L2 36L1.7 35.7L1.55 35.45L1.6 34.85L2.1 34.4L2.6 34.05L2.65 34L2.85 34.05L4.1 34.25Q5.2 35.3 4.4 36.6L2.95 37.9Q0.45 39 -1.8 40.4L-2.25 40.05L-2.55 39.55Q-2.55 38.8 -2 38.4Q-0.05 37.05 2.25 36.7L2.25 36.45M33.85,46.4L33.85 46.65L33.75 46.95Q32.95 47.5 31.95 47.85L29.95 47.75Q30.5 47.6 30.95 47.2L32.15 46.3L33.5 45.6L33.55 45.55Q33.75 45.5 33.75 45.7L33.8 45.95L33.85 46.4M-3.1,-19L-3.2 -18.85L-3.7 -18.55L-3.85 -18.45L-4.05 -18.35L-4.45 -18.45Q-5.5 -18.6 -6.3 -19.15L-6.75 -19.75L-6.75 -19.85L-6.3 -20.15L-5.9 -20.35L-5.45 -20.55L-5.35 -20.55Q-3.85 -20.85 -3.2 -19.7L-3.1 -19M-6.5,-1.5L-6.5 -1.55Q-5.65 -1.15 -6.3 -0.5Q-7.3 0.5 -8.25 -0.25L-7.85 -0.9L-7.2 -1.25L-6.5 -1.5M-7.1,42.45L-6.5 42.6L-6.2 42.85L-6.1 43.1L-6.15 43.25L-7.15 44.1Q-7.95 44.6 -8.75 44.3L-8.5 43.75L-7.85 43.05L-7.15 42.45L-7.1 42.45" />
</g>
</svg>
