<?xml version="1.0" encoding="utf-8"?>
<svg version="1.1" id="Layer_1"
xmlns="http://www.w3.org/2000/svg"
xmlns:xlink="http://www.w3.org/1999/xlink"
width="8px" height="5px"
xml:space="preserve">
<g id="1094" transform="matrix(1, 0, 0, 1, 1.8, 1.15)">
<path style="fill:#5D5D5D;fill-opacity:1" d="M0.5,-0.35L0.2 -0.45Q-0.45 -0.45 -0.9 0.15L-1.25 0.9L-1.05 1.3L-0.9 1.3Q-0.35 1.3 -0.35 0.65L0.25 0.3L0.6 -0.1L0.5 -0.35M1.7,-0.05L1.9 0.2L2.15 -0.05L2.7 -0.35L3.45 -0.6Q4.2 -0.6 4.7 -0.05Q5.4 0.65 5.4 1.35Q5.4 2 4.7 2.65Q4.2 3.2 3.45 3.2L2.7 2.95L2.15 2.65L1.9 2.4L1.7 2.65L1.3 2.95L0.55 3.2Q-0.3 3.2 -0.85 2.65Q-1.4 2 -1.4 1.35Q-1.4 0.65 -0.85 -0.05Q-0.3 -0.6 0.55 -0.6L1.3 -0.35L1.7 -0.05M4.1,0.75Q3.85 0.5 3.55 0.5Q3.2 0.5 3 0.75Q2.85 0.9 2.85 1.25Q2.85 1.6 3 1.7Q3.2 1.9 3.55 1.9L4.1 1.7L4.25 1.25L4.1 0.75M3.65,3L3.85 3.05Q4.4 3.05 4.4 2.6L4.4 2.55Q4.4 2.15 3.95 2.25Q3.5 2.35 3.5 2.7L3.55 2.85L3.65 3M2.5,0.9L3.35 0.15Q3.35 -0.45 2.75 -0.15L2.15 0.55L2.2 0.75L2.5 0.9M0.4,0.5Q0.1 0.5 -0.1 0.75L-0.2 1.25L-0.1 1.7L0.4 1.9L1 1.7L1.2 1.25L1 0.75Q0.75 0.5 0.4 0.5" />
<path style="fill:#383838;fill-opacity:1" d="M4.25,1.25L4.1 1.7L3.55 1.9Q3.2 1.9 3 1.7Q2.85 1.6 2.85 1.25Q2.85 0.9 3 0.75Q3.2 0.5 3.55 0.5Q3.85 0.5 4.1 0.75L4.25 1.25M1,0.75L1.2 1.25L1 1.7L0.4 1.9L-0.1 1.7L-0.2 1.25L-0.1 0.75Q0.1 0.5 0.4 0.5Q0.75 0.5 1 0.75" />
<path style="fill:#C9C9C9;fill-opacity:1" d="M0.6,-0.1L0.25 0.3L-0.35 0.65Q-0.35 1.3 -0.9 1.3L-1.05 1.3L-1.25 0.9L-0.9 0.15Q-0.45 -0.45 0.2 -0.45L0.5 -0.35L0.6 -0.1M3.55,2.85L3.5 2.7Q3.5 2.35 3.95 2.25Q4.4 2.15 4.4 2.55L4.4 2.6Q4.4 3.05 3.85 3.05L3.65 3L3.55 2.85M2.2,0.75L2.15 0.55L2.75 -0.15Q3.35 -0.45 3.35 0.15L2.5 0.9L2.2 0.75" />
<path style="fill:#171717;fill-opacity:1" d="M1.95,-0.75Q2.65 -1.15 3.3 -1.15Q4.35 -1.15 5.05 -0.5Q5.8 0.3 5.8 1.35Q5.8 2.3 5.05 3Q4.35 3.75 3.3 3.75Q2.65 3.75 1.95 3.35Q1.4 3.75 0.7 3.75Q-0.35 3.75 -1.15 3Q-1.8 2.3 -1.8 1.35Q-1.8 0.3 -1.15 -0.5Q-0.35 -1.15 0.7 -1.15Q1.4 -1.15 1.95 -0.75M1.3,-0.35L0.55 -0.6Q-0.3 -0.6 -0.85 -0.05Q-1.4 0.65 -1.4 1.35Q-1.4 2 -0.85 2.65Q-0.3 3.2 0.55 3.2L1.3 2.95L1.7 2.65L1.9 2.4L2.15 2.65L2.7 2.95L3.45 3.2Q4.2 3.2 4.7 2.65Q5.4 2 5.4 1.35Q5.4 0.65 4.7 -0.05Q4.2 -0.6 3.45 -0.6L2.7 -0.35L2.15 -0.05L1.9 0.2L1.7 -0.05L1.3 -0.35" />
</g>
</svg>
