<?xml version="1.0" encoding="utf-8"?>
<svg version="1.1" id="Layer_1"
xmlns="http://www.w3.org/2000/svg"
xmlns:xlink="http://www.w3.org/1999/xlink"
width="16px" height="22px"
xml:space="preserve">
<g id="1033" transform="matrix(1, 0, 0, 1, 8.35, 12.45)">
<path style="fill:#7EF0FF;fill-opacity:1" d="M0.45,-12.4L0.45 -12.45L0.9 -12.25L1.3 -11.75L1.65 -11.25L1.8 -10.95L2.05 -10.8L2.2 -10.65L2.5 -10.4L2.7 -10.05L1.3 -8.55L-0.1 -6.95L-0.2 -6.8Q-0.1 -6.65 -0.45 -6.4L-0.5 -6.3L-1 -5.6L-1.25 -5.2L0.05 -4.45Q0.85 -4 1.1 -3.2Q1.3 -2.7 1 -2.15L-0.1 -0.05L-0.6 0.5Q-0.2 0.5 0.1 0.65Q0.5 0.4 1.1 0.35L3.55 -0.15Q4.3 -0.2 4.85 -0.6Q4.7 -0.85 4.7 -1.2L4.7 -1.6L4.7 -2L4.6 -2.3L4.5 -2.95L5.1 -3.4L5.55 -3.75L6.3 -4.2L6.75 -4.55L6.85 -4.45L7 -4.3L7 -4.15L7 -4L6.95 -3.9Q6.55 -3.75 6.3 -3.5L5.9 -3.1L5.65 -3L5.3 -2.85L5.3 -2.2L5.3 -1.9L5.3 -1.35L5.4 -0.85L5.5 -0.2Q4.6 0.4 3.5 0.5Q2.05 0.6 0.7 1.15L0.85 1.3L1 1.85L1 2.65L1.3 3.95L1.4 4.1L3.1 3.7L4.35 3.2L5.3 3.05L5.75 4.2L6.05 5.05L6.75 6.5L7.4 8.05L7.35 8.45Q6.6 8.65 6.35 7.85L6.2 7.15L5.65 6L4.85 4.75L4.7 4.5L3.4 5L2.2 5.4L2.05 5.55L1.5 6.2Q1.25 6.35 1.15 6.65L2.1 7.4L3 8.2L3.7 8.9L3.7 9Q3.15 9.15 2.7 8.6L1.7 7.65Q1.25 7.15 0.6 7L0.45 6.8Q0.5 6.35 0.9 6L1.5 5.55L0.7 5.3L0.3 5.05L0.05 4.4L-0.3 3.6L-0.45 3.15L-0.75 2.35L-0.9 2.1L-2.05 2.2L-3.25 2.4L-3.15 2.6L-3 2.8L-2.85 3.05L-2.75 3.15L-3.8 4.35L-4.45 5.55L-5.1 7L-5.1 7.85Q-5.8 7.55 -5.4 6.65L-4.75 5.3L-3.95 3.85L-3.25 3.05L-3.15 3.05L-3.3 3L-3.4 2.9L-3.5 2.75L-3.55 2.6L-4.2 2.75L-5.4 3.15L-5.8 3.7L-6.3 4.5L-6.55 4.9L-6.75 5.7L-7.15 6.6Q-7.55 7.25 -8.2 7.25L-8.35 7.05L-8.35 6.8L-8.05 6.1L-7.55 5.4L-7.35 4.9L-7 4.1L-6.55 3.2L-5.8 1.85L-4.5 1.6L-2.75 1.45L-1.9 1.15L-1.8 0.4L-1.65 0L-1.25 -0.95L-3.55 -0.8L-4.7 -0.85L-5 -2.15L-5.1 -3.5L-5 -4.8L-5 -5.2L-4.75 -5.35L-4.6 -4.2L-4.5 -3.1L-4.45 -2L-4.3 -1.35Q-2.75 -0.85 -1.1 -1.35L-0.6 -2.55L-0.3 -2.95L-0.1 -3.1L-1 -3.8L-1.65 -4.3L-2.2 -4.85Q-2.6 -5.25 -2.1 -5.45L-1.9 -5.85L-1.8 -5.85L-1.5 -6.4L-0.35 -7.85L0.75 -8.95L1.7 -10L1.4 -10.45L0.9 -11.05L0.45 -11.6Q0.1 -11.75 0.1 -12.05L0.1 -12.25L0.3 -12.4L0.45 -12.4" />
</g>
</svg>
