<?xml version="1.0" encoding="utf-8"?>
<svg version="1.1" id="Layer_1"
xmlns="http://www.w3.org/2000/svg"
xmlns:xlink="http://www.w3.org/1999/xlink"
width="19px" height="20px"
xml:space="preserve">
<g id="1086" transform="matrix(1, 0, 0, 1, 5.5, 35.45)">
<path style="fill:#3A3A3A;fill-opacity:1" d="M6.15,-34.2L6.2 -34Q6.45 -33.55 6 -33.25L5.7 -33L5.65 -33L5.35 -32.65Q4.65 -32 4.35 -32.8Q4.05 -33.45 4.8 -33.55L4.85 -33.5L4.85 -33.45L4.85 -33.35L4.85 -33.3Q5 -33.1 5.2 -33.3L5.5 -33.8L5.9 -34.2L6.15 -34.2M6.25,-25.35L6.75 -25.4L6.85 -25.4L7 -25.3L7.2 -25.05L6.65 -24.65L5.65 -24.6L5.7 -24.65L5.75 -24.65L5.8 -24.7L5.8 -24.75Q5.65 -24.95 5.8 -25.1L6.25 -25.35M11.4,-23.1L11.75 -23.1Q12.9 -22.6 11.9 -21.85L11.3 -21.8Q10.4 -22.4 11.4 -23.1M10.5,-19.9Q10.35 -19.3 9.85 -19.45Q9.75 -19.6 9.8 -19.75L9.95 -20.2L10.2 -20.65L10.3 -20.65L10.6 -20.6L10.55 -20.5L10.5 -19.9M8.65,-18.7Q9 -18.3 8.55 -17.9L7.95 -17.35L7.9 -17.75L8 -18.4L8.4 -18.85L8.65 -18.7M4.65,-24.45Q5.2 -24.2 5.05 -23.6Q4.6 -22.3 3.35 -23.1L3.3 -23.5L3.45 -24.1L3.5 -24.2L4 -24.65L4.65 -24.45M0.3,-20.25L0.4 -20L0.3 -19.75L0.15 -19.4L-0.1 -19.15L-0.45 -19.45L-0.4 -19.9L-0.3 -20.25L-0.2 -20.35L0 -20.55L0.15 -20.7L0.2 -20.7L0.2 -20.45L0.3 -20.25M3.2,-17.05Q3.95 -17.25 4.45 -16.85L4.4 -16.8L3.3 -16.4Q2.7 -16.25 2.5 -16.8L2.6 -17L2.7 -17.2L2.9 -17.3L2.9 -17.2L2.95 -17.15L2.95 -17.1L3.2 -17.05M-4.1,-26.5L-3.65 -26.4Q-3.25 -26.1 -3.4 -25.7L-3.4 -25.6L-3.45 -25.55L-3.8 -25.15L-4.55 -25.25L-4.55 -25.3L-4.6 -25.35L-4.65 -25.45L-4.65 -25.55L-4.85 -25.8L-4.6 -26.3L-4.1 -26.5M-2.65,-25.6L-2.4 -25.55L-2.25 -25.35Q-2.15 -25.1 -2.2 -24.75Q-2.25 -24.35 -2.6 -24.25L-2.7 -24.5L-2.8 -25.1L-2.65 -25.6" />
<path style="fill:#3A3A3A;fill-opacity:0.2" d="M2.55,-35.05L2.5 -35.1L2.35 -35.1L2.15 -35L2 -34.85L1.9 -34.7L1.85 -34.65L1.8 -34.65L1.7 -34.65L1.7 -34.6Q1.65 -34.35 1.9 -34.3L2.75 -34.45L2.75 -34.5L2.8 -34.6L2.75 -34.75L2.65 -34.95L2.55 -35.05M2.25,-35.45Q3.65 -35.15 2.75 -34.1L2 -33.95Q1.05 -34.25 1.6 -35L2.25 -35.45M3.6,-28.4Q5.15 -28.55 4.85 -27.3L4.45 -26.65L3.6 -26.7Q2.7 -27.15 3.3 -28L3.3 -28.05L3.25 -28.1L3.25 -28.2L3.3 -28.25L3.3 -28.3L3.35 -28.35L3.4 -28.35L3.45 -28.4L3.55 -28.4L3.6 -28.4M3.55,-27.9L3.35 -27.55Q3.3 -27.25 3.55 -27.05L4.05 -26.9L4.2 -27L4.35 -27.35L4.45 -27.7L4.45 -27.85L4.4 -27.85L4.25 -27.9L3.85 -27.95L3.75 -27.95L3.55 -27.9M-4.35,-23.5L-4.4 -23.55L-4.6 -23.65L-4.7 -23.65L-4.85 -23.6L-5.05 -23.55L-5.1 -23.5L-5.15 -23.5L-5.15 -23.4L-5.2 -23.35L-5.25 -23.3L-5.2 -23.2Q-5.05 -22.95 -4.7 -22.95L-4.35 -23.05L-4.35 -23.15L-4.3 -23.3L-4.35 -23.45L-4.35 -23.5M-4.8,-22.7Q-6.05 -23.05 -5.1 -23.85L-4.7 -24Q-3.5 -23.7 -4.3 -22.85Q-4.5 -22.6 -4.8 -22.7" />
<path style="fill:#666666;fill-opacity:0.2" d="M2.65,-34.95L2.75 -34.75L2.8 -34.6L2.75 -34.5L2.75 -34.45L1.9 -34.3Q1.65 -34.35 1.7 -34.6L1.7 -34.65L1.8 -34.65L1.85 -34.65L1.9 -34.7L2 -34.85L2.15 -35L2.35 -35.1L2.5 -35.1L2.55 -35.05L2.65 -34.95M3.75,-27.95L3.85 -27.95L4.25 -27.9L4.4 -27.85L4.45 -27.85L4.45 -27.7L4.35 -27.35L4.2 -27L4.05 -26.9L3.55 -27.05Q3.3 -27.25 3.35 -27.55L3.55 -27.9L3.75 -27.95M-4.35,-23.45L-4.3 -23.3L-4.35 -23.15L-4.35 -23.05L-4.7 -22.95Q-5.05 -22.95 -5.2 -23.2L-5.25 -23.3L-5.2 -23.35L-5.15 -23.4L-5.15 -23.5L-5.1 -23.5L-5.05 -23.55L-4.85 -23.6L-4.7 -23.65L-4.6 -23.65L-4.4 -23.55L-4.35 -23.5L-4.35 -23.45" />
<path style="fill:#1E1E1E;fill-opacity:1" d="M5.5,-34.4L5.85 -34.6Q6.65 -34.65 7 -33.95Q7.25 -33.3 6.75 -32.8L6.65 -32.7L6.6 -32.7L6.6 -32.65L5.95 -32.6L5.9 -32.6L5.8 -32.55Q5.15 -31.65 4.2 -32.35Q3.8 -32.65 3.85 -33.1Q4 -33.9 4.85 -33.85L5 -33.85L5 -33.9L5.1 -34.05L5.5 -34.4M5.9,-34.2L5.5 -33.8L5.2 -33.3Q5 -33.1 4.85 -33.3L4.85 -33.35L4.85 -33.45L4.85 -33.5L4.8 -33.55Q4.05 -33.45 4.35 -32.8Q4.65 -32 5.35 -32.65L5.65 -33L5.7 -33L6 -33.25Q6.45 -33.55 6.2 -34L6.15 -34.2L5.9 -34.2M0.7,-25.65Q0.45 -25.1 -0.25 -25.3Q-1.35 -25.65 -1.45 -26.7Q-1.8 -27.2 -1.25 -27.75Q-0.9 -28.15 -0.35 -28.15L-0.25 -28.2Q0.45 -28 0.6 -27.6Q1.3 -26.75 0.7 -25.65M4.65,-24.9L4.75 -24.95L5.35 -24.9L5.6 -25.3Q6 -25.75 6.6 -25.75L6.7 -25.75Q7.25 -25.7 7.4 -25.35Q8.15 -25.05 8.15 -24.1L7.85 -23.4L7.8 -23.25L7.7 -23.1Q7.85 -22.7 7.6 -22.3Q7.15 -21.55 6.25 -21.9Q5.75 -20.6 4.3 -21L3.4 -21.4L3.25 -21.6L3.4 -21.55Q2.5 -21.9 2.7 -23.05Q2.75 -23.65 3.05 -24L3.15 -24.3Q3.5 -24.95 4.2 -25.05L4.65 -24.9M5.8,-25.1Q5.65 -24.95 5.8 -24.75L5.8 -24.7L5.75 -24.65L5.7 -24.65L5.65 -24.6L6.65 -24.65L7.2 -25.05L7 -25.3L6.85 -25.4L6.75 -25.4L6.25 -25.35L5.8 -25.1M11.3,-21.8L11.9 -21.85Q12.9 -22.6 11.75 -23.1L11.4 -23.1Q10.4 -22.4 11.3 -21.8M12.5,-21.95L12.1 -21.55Q10.75 -20.9 10.6 -22.25Q10.5 -22.85 10.9 -23.25L11.3 -23.55Q13.05 -23.45 12.5 -21.95M10.55,-20.5L10.6 -20.6L10.3 -20.65L10.2 -20.65L9.95 -20.2L9.8 -19.75Q9.75 -19.6 9.85 -19.45Q10.35 -19.3 10.5 -19.9L10.55 -20.5M11.6,-19.7Q11.5 -19.1 10.95 -18.85Q9.85 -18.3 9.6 -19.35Q9.3 -20.45 10.3 -21Q11.9 -21.1 11.6 -19.7M8.4,-18.85L8 -18.4L7.9 -17.75L7.95 -17.35L8.55 -17.9Q9 -18.3 8.65 -18.7L8.4 -18.85M4,-24.65L3.5 -24.2L3.45 -24.1L3.3 -23.5L3.35 -23.1Q4.6 -22.3 5.05 -23.6Q5.2 -24.2 4.65 -24.45L4 -24.65M0.2,-21.3L0.35 -21.3L0.45 -21.3L0.5 -21.2L0.55 -21.05L0.55 -20.85L0.5 -20.7Q1 -19.65 0 -18.95Q-0.4 -18.7 -0.6 -19.2Q-0.85 -20 -0.4 -20.85L0.1 -21.3L0.2 -21.3M0.2,-20.45L0.2 -20.7L0.15 -20.7L0 -20.55L-0.2 -20.35L-0.3 -20.25L-0.4 -19.9L-0.45 -19.45L-0.1 -19.15L0.15 -19.4L0.3 -19.75L0.4 -20L0.3 -20.25L0.2 -20.45M3.25,-17.55L3.4 -17.45Q4.7 -17.75 4.65 -16.7L4.4 -16.3Q3.15 -15.6 2.35 -16.6Q2.1 -16.95 2.4 -17.3Q2.6 -17.55 2.9 -17.65L3.1 -17.6L3.25 -17.55M2.95,-17.1L2.95 -17.15L2.9 -17.2L2.9 -17.3L2.7 -17.2L2.6 -17L2.5 -16.8Q2.7 -16.25 3.3 -16.4L4.4 -16.8L4.45 -16.85Q3.95 -17.25 3.2 -17.05L2.95 -17.1M9.2,-17.7L10 -16.45L9.95 -16.3Q9.5 -15.25 8.35 -15.95Q7.9 -16.2 7.9 -16.55L7.85 -16.6L7.8 -16.65L7.55 -17.4Q7.45 -18 7.65 -18.55Q7.85 -19.1 8.4 -19.25Q9.2 -19.1 9.25 -18.3L9.2 -17.7M-4.6,-26.3L-4.85 -25.8L-4.65 -25.55L-4.65 -25.45L-4.6 -25.35L-4.55 -25.3L-4.55 -25.25L-3.8 -25.15L-3.45 -25.55L-3.4 -25.6L-3.4 -25.7Q-3.25 -26.1 -3.65 -26.4L-4.1 -26.5L-4.6 -26.3M-4.95,-25.25Q-5.25 -25.65 -5.05 -26.25L-4.2 -26.9Q-2.95 -26.8 -3.1 -25.85L-3.05 -25.85L-3.05 -25.75L-3 -25.7L-2.95 -25.8L-2.95 -25.85L-2.9 -25.9L-2.8 -26.05L-2.3 -26.1Q-1.1 -25.3 -1.65 -23.8L-1.95 -23.4Q-3.15 -22.45 -3.85 -23.8L-4.1 -24.15L-4.95 -25.2L-4.95 -25.25M-2.8,-25.1L-2.7 -24.5L-2.6 -24.25Q-2.25 -24.35 -2.2 -24.75Q-2.15 -25.1 -2.25 -25.35L-2.4 -25.55L-2.65 -25.6L-2.8 -25.1" />
</g>
</svg>
