<?xml version="1.0" encoding="utf-8"?>
<svg version="1.1" id="Layer_1"
xmlns="http://www.w3.org/2000/svg"
xmlns:xlink="http://www.w3.org/1999/xlink"
width="15px" height="25px"
xml:space="preserve">
<g id="667" transform="matrix(1, 0, 0, 1, -9.55, 3.95)">
<path style="fill:#000000;fill-opacity:1" d="M12.3,-3.3L12.95 -2.25Q14.1 -0.35 14.9 1.85L16.1 2.4L17.15 2.35Q18.2 2.35 19.15 3.25L19.15 2.25Q19.3 1.55 19.8 1.1Q20.75 0.3 22.1 0.3Q22.9 0.1 23.3 0.75Q24.15 2.1 23.45 3.25L23.15 3.45Q22.2 4.3 20.7 4.4L24.2 8.65L24.15 8.8L24.3 9.45L24 10.2L22.2 10.15L22 9.85L21.65 8.95Q20.9 8.35 20.6 7.4L20.2 8.05Q19.55 8.95 19.25 9.9L18.7 11.7L19.3 13L21 16.05L21.05 16.1L21.05 16.25L21 16.3L20.65 16.85L21.5 18Q22.15 18.75 21.95 19.65L20.15 20.05L19.8 19.95L19.35 19.75L19.1 19.3Q18.6 18.35 18.55 17.35Q17.2 16.6 16.5 14.9L15.65 13.05L15.05 13.55Q14.35 14.1 13.9 15.05L14.4 16.7L14.65 17.3L14.9 18.9L13.6 18.95L13.3 19.05L12.9 19.25Q12 20.3 10.65 20.15L10.2 19.85Q9.55 19.35 9.55 18.55Q10.15 18.15 11 17.95Q11.8 17.7 11.85 17L11.55 16.5Q10.9 15.4 11.05 13.85L11.1 13.85L11.4 13.25L11.45 13.1L11.5 13L12.1 12.65L13.1 12.05Q14.2 11.35 14.8 10.25L15.85 7.95L14.15 3.45L14.05 3.45L14 3.4L13.85 3.3L13.6 3.1L12.95 2.85L12.25 2.4L12.3 2.05Q12.55 1.25 13.4 1.5L13.4 1.35L11.95 -1.6Q11.6 -2.2 11.55 -2.85L11.2 -3.95L12 -3.85L12.3 -3.3M23.8,8.55L23.75 8.5L23.75 8.55L23.8 8.55M16.45,5L16.5 4.75Q16.2 5.55 16.45 5" />
</g>
</svg>
