<?xml version="1.0" encoding="utf-8"?>
<svg version="1.1" id="Layer_1"
xmlns="http://www.w3.org/2000/svg"
xmlns:xlink="http://www.w3.org/1999/xlink"
width="12px" height="15px"
xml:space="preserve">
<g id="1198" transform="matrix(1, 0, 0, 1, 9.1, -2.05)">
<path style="fill:#A6A6A6;fill-opacity:0.694118" d="M1.2,3.15Q0.55 3.15 0.55 2.7Q0.55 2.35 1.3 2.1Q2.05 1.9 2.05 2.55Q2.05 3.15 1.2 3.15M0.95,9.7Q0.55 9.7 0.65 9.35Q0.65 8.8 1.3 8.65Q1.95 8.5 1.95 8.9Q1.95 9.7 0.95 9.7M-1.35,12.8L-0.6 12.55Q0 12.55 0 13L-0.3 13.45L-1.1 13.75Q-1.55 13.75 -1.55 13.2L-1.35 12.8M-7.65,16.5Q-9.1 16.5 -9.1 15.8Q-9.1 14.8 -8 14.6Q-6.9 14.4 -6.9 15.3Q-6.9 15.65 -7.05 16L-7.65 16.5" />
</g>
</svg>
