<?xml version="1.0" encoding="utf-8"?>
<svg version="1.1" id="Layer_1"
xmlns="http://www.w3.org/2000/svg"
xmlns:xlink="http://www.w3.org/1999/xlink"
width="106px" height="53px"
xml:space="preserve">
<g id="366" transform="matrix(1, 0, 0, 1, 0, 12.4)">
<path style="fill:#3A1D0F;fill-opacity:0.85098" d="M24.6,-1.4L25.7 -0.9L25.9 -0.4Q25.2 0.55 21.55 1.1L17.15 1.45Q13.5 1.45 10.95 -1.7Q9.7 -3.3 9.1 -5.05L6.5 -8.55Q4.45 -11 3.9 -12.4Q9.55 -10.55 17.75 -2.6Q21.35 -1.55 24.6 -1.4M99.15,3.4Q99.45 4.2 100.45 5.15L99.6 5.85L93.65 6.4L85.05 6.1L83.7 5.15Q82.75 4.3 82.75 3.65Q82.75 2.6 87.05 1.45L96 1.55L96.6 2.05L98.7 2.15L99.15 3.4M97.15,23.75Q99.85 24.4 99.85 24.9Q99.85 26.75 93.95 26.75Q89.95 26.75 88.8 25.85L88.4 24.85Q88.4 23.85 89.75 23.5L94.15 23.15L97.15 23.75M98.2,35.4L101.25 35.7Q104.35 36.1 105 36.7L105.1 37.2L104.1 38.35Q103.1 39.15 101.75 39.15L95.85 38.6L91.6 38L88.65 38.3L82.4 39L75.25 39.25L72.7 39L72.6 38.85Q72.45 38.7 72.45 38.2Q72.45 36.75 78.25 34.95L82.55 35.2Q85.35 36.3 86.1 36.3L94.35 35.85L98.2 35.4M67.65,18.25L67.8 18.35L68.6 18.4Q74.2 19 74.2 21.1Q74.2 21.9 72.55 22.65Q70.7 23.4 68.1 23.4Q67.15 23.4 66.75 23.05L66.3 22.45L59.5 22.3Q58.9 22.25 57.5 21.25Q59.15 20.1 60.9 19.4Q61.35 18.85 62.45 18.55L67.65 18.25M53.55,9.3Q54.2 8.85 54.6 8.85Q55.5 8.85 55.4 9.05L55.65 9.55L54.65 11.05Q55.05 11.85 56.85 12.9Q56.7 13.55 56.05 14.1Q54.9 15.1 52.25 15.1L48.15 14.85Q43.25 14.45 41.9 13.85Q41.3 13.6 41.3 12.85Q41.3 12.4 41.7 11.9L42.05 10.95Q42.05 10.45 41.6 10.4L41.05 10.3Q41.45 9.35 43.05 8.1Q44.65 6.95 45.5 6.85Q49.35 6.4 49.7 8Q50.1 9.7 52.45 9.7Q52.9 9.7 53.55 9.3M21.7,9.35Q22.1 8.9 22.55 9.05Q26.25 8.95 29.05 10Q32.7 11.35 33.85 11.5L35 12.5L34.4 13.15L24.45 13.9Q22.6 13.9 21.8 12.05Q21.4 11.1 21.4 10.05Q21.4 9.7 21.7 9.35M26.6,24.3Q26.6 25.6 32.1 30.65L38.5 36.3L37.45 37.2L23.6 37.4L13.85 38.7L4.2 39.95Q1.05 39.95 0.25 39.45Q0 39.3 0 38.75Q0 37.85 3.85 35.3L9.1 32L9.25 31.9Q7.45 32.1 6.95 31.4Q6.8 31.2 6.8 30.3Q6.8 29.8 8.65 28.4Q10.75 26.8 11.35 25.6Q11.35 24.4 12 20.5L14.15 10.7Q15.4 11.55 15.6 13.35L15.85 16.5Q16.85 20.4 26.6 21.4L27.1 21.5L27.3 22.15L26.95 23.25Q26.6 23.9 26.6 24.3M15.15,22.35L15.15 22.45Q16.35 26.6 16.65 29.7L16.65 29.8L18.95 29.8L19.1 29.85L19.25 30.5L17.75 31.8Q16.25 32.8 14.8 33.4L14.35 33.65L18.15 33L27.3 32.25L24.35 28.5Q22.5 26.05 20.9 25L20.45 25.8L19.55 26Q19 26 17.55 24.6L15.15 22.35" />
</g>
</svg>
