<?xml version="1.0" encoding="utf-8"?>
<svg version="1.1" id="Layer_1"
xmlns="http://www.w3.org/2000/svg"
xmlns:xlink="http://www.w3.org/1999/xlink"
width="16px" height="7px"
xml:space="preserve">
<g id="913" transform="matrix(1, 0, 0, 1, 0, 0)">
<path style="fill:#100806;fill-opacity:1" d="M15.6,1.7Q15.6 2.15 14.8 2.8Q13.75 3.65 12.15 3.65L11.45 3.6L11.15 3.6Q10.1 3.6 9.55 3.15L9.3 2.9L9.25 2.95L9.1 3.05Q8.8 3.05 8.7 2.55L8.65 2Q8.65 -0.25 12.15 0.05Q15.6 0.4 15.6 1.7M10.65,6.15Q9.95 7 8.8 7Q7.3 7 6.15 5.9L5.3 4.9L5.3 4.75L4.3 4.8Q2.3 4.8 0.95 4.05L0 3.25Q0 1.95 3.2 1.75Q6.15 1.6 6.35 3.3L8.25 3.2Q11.15 3.6 11.15 5L10.65 6.15" />
</g>
</svg>
