<?xml version="1.0" encoding="utf-8"?>
<svg version="1.1" id="Layer_1"
xmlns="http://www.w3.org/2000/svg"
xmlns:xlink="http://www.w3.org/1999/xlink"
width="22px" height="25px"
xml:space="preserve">
<g id="558" transform="matrix(1, 0, 0, 1, 3.7, -0.15)">
<path style="fill:#000000;fill-opacity:1" d="M8.3,2.55L8.45 2.6L8.65 3.35L8.35 4.65L8.35 4.7Q8.75 4.85 9 5.3Q9.55 6.25 9.05 7.2L8.95 7.3L9.85 10.2Q10.35 12 9.6 13.5Q11.5 15.15 12.45 17.35L12.5 17.3Q12.8 17 13.2 16.85L13.3 16.9L13.35 16.95L13.4 17L13.4 17.8L13.2 18.4L14.15 20.25L14.6 21.05Q15.25 21.25 15.85 21.6L17.65 22.7L17.7 22.75Q17.4 25.2 14.45 24.5Q12.6 24.05 12.3 22.55L12.2 21.9L11.35 21.05L10.25 19.35Q8.9 19 7.9 17.5L7.65 17.05L6.8 18.2L8.75 20.3Q9.4 21.15 9.65 22.1L8.45 22.95Q7.75 24.05 6.3 24.9L5.6 25.15L5.25 25.1Q4.45 25.1 4.4 24.4L4.35 24.4Q4.15 23.65 4.65 23.15L4.7 23.15L5.6 21.65L3.4 18.85L2.7 18.3L1.75 17.15Q1.45 16.7 1.85 16.5L2.75 16.85L3 16.95Q3.75 15.85 4.75 15.15Q3 13.75 1.85 12L1.55 12.7L1.1 13.5Q1.25 14.1 1 14.9Q0.75 15.85 0.9 16.8L0.9 16.9L-1.2 16.9L-1.55 17.05L-1.9 17.1L-2.45 17.3Q-3.3 17.5 -3.7 16.75L-2.95 15.8L-3.1 15.25Q-3.15 15 -2.85 14.85L-2.15 14.45Q-1.9 13.3 -1.3 12.3Q-1.3 11.55 -0.95 10.75L0.1 8.5L0.5 8.1L0.5 8.4L0.9 7.7Q1.45 7.1 2.25 6.75L1.75 6.35Q0.65 5.4 0.85 4.15L0.35 3.8L0.2 3.45Q0.3 1.05 2.35 0.15Q5.05 0.1 5.8 2.05L6.65 1.25L6.75 1.2Q7.2 1.2 7.2 1.65L7.2 2.4L7.2 2.45L6.1 3.55L6 3.65L5.65 4.5L5.55 5.1L6.65 4.85L6.95 4.8Q6.75 4.55 6.9 4.1L7.4 2.85L7.8 2.5L8.3 2.55M5,6.05L5 6.1L5 6.05M2.7,17.5L2.7 17.45L2.55 17.35L2.7 17.5" />
</g>
</svg>
