<?xml version="1.0" encoding="utf-8"?>
<svg version="1.1" id="Layer_1"
xmlns="http://www.w3.org/2000/svg"
xmlns:xlink="http://www.w3.org/1999/xlink"
width="279px" height="99px"
xml:space="preserve">
<g id="344" transform="matrix(1, 0, 0, 1, 141.85, 82.75)">
<path style="fill:#000000;fill-opacity:0.4" d="M125.3,-2.6Q132.05 7.05 135.85 13.55L68.95 7.6Q-2.05 1.5 -22.55 0.75Q-43.05 0 -94.25 7.5Q-119.85 11.25 -141.35 15.15Q-120.65 -6.75 -91.6 -29.8Q-33.5 -75.9 8.25 -81.65Q50 -87.4 97.1 -37.5Q111.8 -21.9 125.3 -2.6" />
<path style="fill:none;stroke-width:1;stroke-linecap:round;stroke-linejoin:round;stroke-miterlimit:3;stroke:#1E0000;stroke-opacity:1" d="M97.1,-37.5Q50 -87.4 8.25 -81.65Q-33.5 -75.9 -91.6 -29.8Q-120.65 -6.75 -141.35 15.15Q-119.85 11.25 -94.25 7.5Q-43.05 0 -22.55 0.75Q-2.05 1.5 68.95 7.6L135.85 13.55Q132.05 7.05 125.3 -2.6Q111.8 -21.9 97.1 -37.5z" />
</g>
</svg>
