<?xml version="1.0" encoding="utf-8"?>
<svg version="1.1" id="Layer_1"
xmlns="http://www.w3.org/2000/svg"
xmlns:xlink="http://www.w3.org/1999/xlink"
width="13px" height="20px"
xml:space="preserve">
<g id="1216" transform="matrix(1, 0, 0, 1, -13.65, 8.6)">
<path style="fill:#C9EBFF;fill-opacity:0.988235" d="M16.9,-7.4Q16.4 -7.4 15.65 -6.8L14.95 -6.1Q14.95 -5.9 15.3 -5.2L15.65 -4.4L15.4 -2.55L15.65 -1.95L15.85 -1.5Q15.85 -1.05 15.45 -0.75Q15 -0.4 14.4 -0.4L13.65 -0.6L14.5 -0.9Q15.25 -1.15 15.4 -1.5L14.95 -2L14.9 -2.45L15.15 -4.45L14.85 -5.25L14.55 -6.15Q14.55 -6.85 15.55 -7.35L17.45 -7.8L18.35 -8.5Q19.2 -8.9 20.1 -7.55L20.2 -6.55L20.2 -5.55Q20.75 -3.85 22.45 -3.15Q23.9 -2.55 23.9 -1.8L23.6 -1.05L23.75 -0.85L24.1 -1.05L25.2 -0.95Q25.85 -0.15 26.45 0.2L25.85 0.7Q24.95 0.7 24.9 -0.05Q24.85 -0.85 24.5 -0.85Q24.15 -0.85 23.9 -0.55Q23.9 -0.05 23.5 -0.05Q23.05 -0.05 22.75 -0.55L22.5 -1.05L22.7 -1.4L22.9 -1.85L21.65 -2.7Q20.4 -3.2 20.4 -4.35L20.05 -4.85Q19.65 -5.25 19.65 -6.15L19.45 -7.05L19.05 -7.8L18.35 -7.75Q17.85 -7.4 17.45 -7.35L16.9 -7.4M20.3,-1.15L20.25 -1.25Q20.85 -2.85 22.9 0.1L22.75 0.35L22.45 0.5Q21.5 0.5 21.1 -0.35Q20.75 -1.2 20.3 -1.15M25.45,3.5Q25.25 4.35 24.7 4.35L24.65 4.35L24.65 4.4L24.5 4.65L24.15 4.8Q23.75 4.6 23.25 4.55L23.15 4.65L22.95 4.8L22.65 5.55L22.45 6.9L22.7 7.85Q22.7 8.55 21.6 9.5Q20.35 10.55 18.95 10.55Q18.3 10.55 17.85 9.8L17.35 8.95L16.1 8.2Q15.6 7.85 15.6 7.55Q15.6 7.35 15.95 6.9L16.15 6.9L16.05 7.3Q16.05 7.65 16.8 8.1L17.85 8.55L18.35 9.3Q18.6 9.8 19.05 9.8Q21 9.8 21.55 8.65L21.75 6.85Q21.75 6.35 22.05 5.7L22.45 4.6L22.35 4.4Q22.1 4 21.6 4Q20.9 4 20.45 4.95L19.55 6.25L19.35 6.2L19.3 6.05L19.65 5.6L20.1 4.8L20.1 4.25Q20.05 3.95 20.4 3.7Q21.35 3 22.35 3.35L23 3.7L23.6 3.55Q24.25 3.5 24.5 3.85L25.05 2.6Q25.35 1.8 26.65 1.85Q25.75 2.45 25.45 3.5" />
</g>
</svg>
