<?xml version="1.0" encoding="utf-8"?>
<svg version="1.1" id="Layer_1"
xmlns="http://www.w3.org/2000/svg"
xmlns:xlink="http://www.w3.org/1999/xlink"
width="22px" height="10px"
xml:space="preserve">
<g id="976" transform="matrix(1, 0, 0, 1, 5.95, 7.4)">
<path style="fill:#000000;fill-opacity:0.85098" d="M6.05,-7.3L6.6 -7.2L7.1 -7L7.35 -6.7L7.3 -6.45L6.6 -5.95L4.15 -5.85Q3.85 -5.9 3.65 -6.15L3.65 -6.2L3.7 -6.5L3.9 -6.85Q4.1 -7.15 4.45 -7.15Q4.95 -7.2 5.4 -7.4L6.05 -7.3M0.65,-4.25Q0.8 -3.7 0.35 -3.4L-0.3 -3.15L-1.25 -3.35L-1.4 -3.4L-1.65 -3.65L-1.95 -4L-2 -4.05L-2 -4.15L-2 -4.25L-2 -4.3L-1.8 -4.5L-1.7 -4.6L-1.6 -4.65L-1.4 -4.75L-1.1 -4.9L-0.85 -5L0 -4.8Q0.55 -4.75 0.65 -4.25M0.5,-1.2L0.8 -1.15L1 -1L0.9 -0.65L0.45 -0.3L-0.45 -0.1L-1.35 -0.35L-1.45 -0.45L-1.45 -0.6L-1.25 -0.8L-1.05 -0.85L-0.7 -1.15L-0.35 -1.35L-0.3 -1.4L0 -1.35L0.35 -1.25L0.5 -1.2M4.7,-0.8L4.8 -0.7L5 -0.6L5.2 -0.65L5.65 -0.55L5.9 -0.4L6 -0.3L5.75 0.1L5.3 0.4L5 0.7L4.7 1L4.65 1.05L4.55 1.05L4.4 1.05L4.3 1L4.2 0.95L4.1 0.85L4 0.75L3.95 0.65L3.95 0.55L3.95 0.4L3.95 0.2L3.95 0.1L3.95 -0.05L4.05 -0.2L4.05 -0.3L4 -0.4L3.95 -0.45L3.9 -0.55L3.9 -0.7L3.9 -0.75L4 -0.85L4.1 -0.9L4.1 -0.95L4.1 -1.05L4.1 -1.1L4.15 -1.15L4.3 -1.25L4.45 -1.15L4.6 -0.95L4.7 -0.8M9.55,-5.85L10.4 -5.8L11.3 -5.45Q11.75 -5.15 11.8 -4.7Q11.85 -4.25 11.55 -4L10.8 -3.9L9.45 -4.2L8.8 -4.45Q8.7 -4.55 8.75 -4.7L8.75 -4.85L8.75 -4.95L8.8 -5.3L9.05 -5.6L9.55 -5.8L9.55 -5.85M7.35,-3.05L7.7 -3.1L8.3 -3.05L8.7 -2.95L9.05 -2.8L9.15 -2.7Q9.2 -2.2 8.85 -1.75Q8 -0.7 6.45 -1.2Q5.85 -1.45 5.95 -2.05Q6.1 -3.15 7.35 -3.05M13.25,-7.15L14.05 -7.35L14.15 -7.4Q14.95 -7.25 15.5 -6.65Q16.2 -5.95 15.2 -5.6L14.55 -5.45Q13.65 -5.35 13.05 -5.9L12.65 -6.3L12.7 -6.65L12.85 -7L13.25 -7.15M1.8,1.05L1.85 1.1L1.85 1.2L1.85 1.4L1.8 1.45L1.25 1.8L0.15 1.9L-0.25 1.8L-0.35 1.7L-0.45 1.55L-0.5 1.45L-0.55 1.35L-0.65 1.2L-0.65 1.15L-0.45 0.85L-0.05 0.65Q0.25 0.55 0.5 0.4L0.8 0.25Q1 0.25 1.1 0.4L1.25 0.65L1.5 0.85L1.75 1L1.8 1.05M-3.9,0.3L-3.9 0.4L-3.95 0.45L-4.15 0.7L-4.5 1L-4.8 1.3L-4.9 1.4L-4.95 1.45L-5 1.45L-5.35 1.45L-5.55 1.4L-5.9 1.1L-5.95 1L-5.95 0.75L-5.95 0.6L-5.95 0.5L-5.95 0.4L-5.9 0.3L-5.85 0.25L-5.8 0.2L-5.7 0.15L-5.6 0.1L-5.55 0.05L-5.45 0L-5 0L-4.2 0.05L-3.9 0.3" />
</g>
</svg>
