<?xml version="1.0" encoding="utf-8"?>
<svg version="1.1" id="Layer_1"
xmlns="http://www.w3.org/2000/svg"
xmlns:xlink="http://www.w3.org/1999/xlink"
width="22px" height="22px"
xml:space="preserve">
<g id="1254" transform="matrix(1, 0, 0, 1, 3.25, 2.4)">
<path style="fill:#7EF0FF;fill-opacity:1" d="M9.75,-0.25L10.15 1.25Q10.55 2.05 11.75 2.2Q11.5 2.55 11.25 2.55Q10.25 2.55 9.55 0.75Q8.8 -1.1 7.5 -1.25Q7.5 0.25 6.55 1.4L5.6 2.35L5.75 2.65L6.85 2.55Q8 2.55 8.35 3.3L8.5 4.1L8.45 4.8L8.1 5.7L8.15 5.8L9.6 5.55Q10.8 5.55 11.5 6.55Q12.25 7.5 12.65 7.5Q13.35 7.5 13.6 7L13.5 6.65L13.5 6.6L13 6Q12.3 5.35 12.3 4.8Q13.2 3.05 13 1.6L13 0.7Q13.45 0.8 14.1 1.25L15.9 2.55L16.95 3.85Q17.35 4.45 18.65 4.6L18.75 4.8L18.6 5L18.1 5.15L13.7 2.05L12.85 4.9L13.5 5.8L14.1 6.65L15.75 7.35Q17.4 8.05 17.6 8.6L17.45 8.8L15.05 7.85L13.95 7.3L13.8 7.5Q13.35 8 12.85 8Q12.2 8 11.3 7.05Q10.35 6.05 9.6 6.05L8.2 6.3Q7.85 6.3 7.65 6.1L7.55 5.85L7.8 4.95L8.05 4.05Q8.25 2.9 6.55 2.9L5.9 2.95L6 3.15Q6 3.65 5.4 4.7L4.75 5.55L4.8 5.7L4.05 6.35L3.5 6.6L4.15 6.05L4.25 5.85L1.1 6.2L0.5 6L-0.45 6.25Q-1.45 6.25 -1.4 3.65L-1.2 1.55L-1.1 -0.85L-1 -0.85Q-0.65 -0.05 -0.7 1.35L-0.9 3.65Q-0.9 5.85 -0.15 5.85L0.55 5.65L1.15 5.85L4.2 5.4L4.4 5.4Q5.6 3.6 5.6 3.2L5.55 3Q4.95 3.15 4.95 3.55L4.8 3.65L4.55 3.35Q4.55 3.1 5.1 2.85L5.25 2.8L4.9 2.5L6 1.05Q7.05 -0.2 7.05 -1.05L6.55 -1.55Q6 -1.85 5.9 -2.4L7.8 -1.9Q9.35 -1.2 9.75 -0.25M11,11.45Q11 11 13.1 10.75Q15.15 10.45 15.15 11.5Q15.15 11.95 14.15 12.55Q13.3 13.15 12.65 13.3Q13.85 13.1 14.6 13.85L15.1 14.8L14.3 15.65Q13.5 16.25 13.5 16.6Q13.5 17.2 13.85 17.4L15.45 18.65L15.45 18.75L15.2 18.8Q13.5 18.8 13.1 17.85L13 16.6Q13 16 13.35 15.75L14.5 14.8Q14.3 14.2 12.6 14.05Q11.25 13.95 11.05 13.7L11 13.7L9.8 13.5L7.9 13.25L8.35 15L8.7 16.45L8.65 16.7L8.45 16.75L3.9 16.05L3.7 17L3.45 16.35L3.3 15.75L3.35 15.55L3.7 15.5L5.4 15.7L5.45 15.7L5.7 14.8Q5.7 14.1 4.3 13.75Q2.9 13.35 2.9 12.95L3.15 12.3L-0.15 11.2L-0.1 11.1L3.65 11.95L3.55 12.45L3.25 12.9L5.1 13.7Q5.95 14.1 5.95 14.65L5.8 15.15L5.5 15.75L7.3 15.95L7.85 15.95L7.85 14.85L7.35 13.5L7.05 12.45Q7.05 12 7.5 11.75Q7.95 11.5 8 12.3Q8.05 12.75 9 13.05L11.05 13.35L12.35 12.5L14.6 11.55Q14.25 11.2 13.7 11.2L11.55 11.65L11.05 11.65L11 11.45M2.95,7.7L2.3 7.2L2.7 6.95L2.9 6.9L2.65 7.05L2.6 7.15L4.1 7.65L4.75 8.1L3.1 11.7L2.9 11.7L2.85 11.55L3.55 10L4.45 8.25L2.95 7.7M-2.8,3.95L-1.5 4L-2.15 3.95Q-2.65 3.95 -2.85 4.7L-3.1 5.75L-3.25 5L-2.8 3.95" />
</g>
</svg>
