<?xml version="1.0" encoding="utf-8"?>
<svg version="1.1" id="Layer_1"
xmlns="http://www.w3.org/2000/svg"
xmlns:xlink="http://www.w3.org/1999/xlink"
width="84px" height="79px"
xml:space="preserve">
<g id="391" transform="matrix(1, 0, 0, 1, 9.9, 15.6)">
<path style="fill:#FFFFB1;fill-opacity:1" d="M33.45,9.7L29.85 15.55L26.05 21.15L23.15 25.05L33.55 24.55Q32.65 25.9 31.1 26.6L27.6 27.8Q26.2 28.2 24.95 28.95L27.5 32.25L30.4 36L32.25 39.45Q32.8 40.75 32.65 41.9Q31.1 40.85 29.5 39.2Q27.9 37.6 26.65 35.8L23.95 32.55Q23.45 32.1 23.25 32.35L22.45 36.4L21.65 40.65L20.75 44.9Q20.35 46.85 20.2 48.8Q20.15 49.55 19.7 50.1Q18.65 49.35 18.85 47.35L18.8 44.05Q18.6 42.45 18.75 40.75Q18.85 39.15 19.2 37.6Q19.35 37.05 19.1 36.65Q18.05 36.85 18.6 35.5L19 33.9L19.3 32.05L19.65 30.2L19.65 29.85Q15.4 30.15 10.95 31.55Q7.95 32.5 5.6 31.95Q6.95 30.15 8.95 28.9Q11.55 27.25 14.35 26L16.45 24.95Q16.1 23.8 15.25 22.9Q14.35 21.95 13.9 20.75L12.65 18.3L11.6 16.5Q13.55 16.3 15.25 18.25L17.9 21.2L20.95 24.3L25.3 18.75L29.7 12.85L33.8 7.25L35.95 4.1Q35.4 6.4 33.45 9.7" />
<path style="fill:#FFFF0E;fill-opacity:1" d="M40.75,-1.2L37.45 5.75L34.45 12.85L31.3 20.15L30.75 21.45Q37.55 21.3 44.7 21.45Q43.85 23.1 42.1 24.25L37.1 27.6L34.55 29.6Q37.2 31.45 39.35 33.95L43.85 39.05Q45.85 41.4 47.15 44.05L47.4 45.2L42.9 45L37.8 43.8L38.75 44.75L39.45 45.55L40.3 46.6Q40.7 47.05 40.45 47.55Q38.4 46.5 35.6 45.55Q32.8 44.6 30.35 43.15L26.8 41L26.7 45.6L25.95 50.8Q25.5 53.25 25.6 55.75L25.45 60.75L25.4 60.9L24.2 61.6L22.75 61.6Q19.65 58.9 18.3 54.9L15.85 47.45Q14.7 44.1 14.45 40.4Q14.25 37.65 15.15 35.3L14.8 34.5L13.95 34.35L14.1 34.05L14.55 33.85L14.5 33.7L14.4 33.25L8.2 35.2Q3.85 36.2 -0.55 35.35L-3.3 34.85L-3.3 34.75L-2.75 33.75L-0.5 32.15L1.3 31.1L2 30.6L-3.3 30.4Q-1.75 28.5 0.5 27.1Q3.15 25.4 6.1 24.25Q8.85 23.1 11.15 21.75L9.7 20.35L7.75 18.9L6.5 17.8Q6.05 17.35 6.05 16.75L6.05 16.55L6.05 16.4L6.25 16.25L6.8 15.95L6.65 15.85L5.6 14.85Q4.5 14 3 13.65Q2.15 13.45 1.6 12.8Q7.4 11.5 13.55 13.05L16.15 13.45Q16.05 12.6 15.5 11.9L14.15 10.4L13.2 9.35L12.85 8.85Q12.2 8 12 6.95Q11.85 6.45 12.3 6.3L13.2 6.95L15.65 9.1Q17.2 10.65 18.4 12.45Q19.65 14.3 21.2 15.75L23.15 17.75Q25.2 14.6 27.9 11.5L34.15 4.25L40.1 -3.4L41.45 -4.8Q41.95 -3.55 40.75 -1.2M35.95,4.1L33.8 7.25L29.7 12.85L25.3 18.75L20.95 24.3L17.9 21.2L15.25 18.25Q13.55 16.3 11.6 16.5L12.65 18.3L13.9 20.75Q14.35 21.95 15.25 22.9Q16.1 23.8 16.45 24.95L14.35 26Q11.55 27.25 8.95 28.9Q6.95 30.15 5.6 31.95Q7.95 32.5 10.95 31.55Q15.4 30.15 19.65 29.85L19.65 30.2L19.3 32.05L19 33.9L18.6 35.5Q18.05 36.85 19.1 36.65Q19.35 37.05 19.2 37.6Q18.85 39.15 18.75 40.75Q18.6 42.45 18.8 44.05L18.85 47.35Q18.65 49.35 19.7 50.1Q20.15 49.55 20.2 48.8Q20.35 46.85 20.75 44.9L21.65 40.65L22.45 36.4L23.25 32.35Q23.45 32.1 23.95 32.55L26.65 35.8Q27.9 37.6 29.5 39.2Q31.1 40.85 32.65 41.9Q32.8 40.75 32.25 39.45L30.4 36L27.5 32.25L24.95 28.95Q26.2 28.2 27.6 27.8L31.1 26.6Q32.65 25.9 33.55 24.55L23.15 25.05L26.05 21.15L29.85 15.55L33.45 9.7Q35.4 6.4 35.95 4.1" />
<path style="fill:#333333;fill-opacity:0.980392" d="M41.45,-4.8L40.1 -3.4L34.15 4.25L27.9 11.5Q25.2 14.6 23.15 17.75L21.2 15.75Q19.65 14.3 18.4 12.45Q17.2 10.65 15.65 9.1L13.2 6.95L12.3 6.3Q11.85 6.45 12 6.95Q12.2 8 12.85 8.85L13.2 9.35L14.15 10.4L15.5 11.9Q16.05 12.6 16.15 13.45L13.55 13.05Q7.4 11.5 1.6 12.8Q2.15 13.45 3 13.65Q4.5 14 5.6 14.85L6.65 15.85L6.8 15.95L6.25 16.25L6.05 16.4L6.05 16.55L6.05 16.75Q6.05 17.35 6.5 17.8L7.75 18.9L9.7 20.35L11.15 21.75Q8.85 23.1 6.1 24.25Q3.15 25.4 0.5 27.1Q-1.75 28.5 -3.3 30.4L2 30.6L1.3 31.1L-0.5 32.15L-2.75 33.75L-3.3 34.75L-3.3 34.85L-0.55 35.35Q3.85 36.2 8.2 35.2L14.4 33.25L14.5 33.7L14.55 33.85L14.1 34.05L13.95 34.35L14.8 34.5L15.15 35.3Q14.25 37.65 14.45 40.4Q14.7 44.1 15.85 47.45L18.3 54.9Q19.65 58.9 22.75 61.6L24.2 61.6L25.4 60.9L25.45 60.75L25.6 55.75Q25.5 53.25 25.95 50.8L26.7 45.6L26.8 41L30.35 43.15Q32.8 44.6 35.6 45.55Q38.4 46.5 40.45 47.55Q40.7 47.05 40.3 46.6L39.45 45.55L38.75 44.75L37.8 43.8L42.9 45L47.4 45.2L47.15 44.05Q45.85 41.4 43.85 39.05L39.35 33.95Q37.2 31.45 34.55 29.6L37.1 27.6L42.1 24.25Q43.85 23.1 44.7 21.45Q37.55 21.3 30.75 21.45L31.3 20.15L34.45 12.85L37.45 5.75L40.75 -1.2Q41.95 -3.55 41.45 -4.8M48.4,-15.6Q48.3 -13 46.95 -10.25Q45.7 -7.75 44.85 -5.05L43.05 0.2Q42.35 2.15 41.25 3.8L41.3 4.2L41.15 4.75L40.95 5.1L40.7 5.45L40.5 5.65L46.25 4.1Q48.7 3.5 50.4 4.4Q50.6 5.15 50.15 5.6L49.35 6.6L48.15 7.65L47.7 8Q50.6 7.6 52.85 9.45Q53.8 10.25 54.25 11.3L54.35 11.7Q53.5 13.65 51.55 14.85Q48.85 16.5 45.85 16.25Q44.7 16.15 43.75 17L51 17.55L53.65 18.1L55.2 18.4Q55.8 18.95 55.85 19.7L55.8 21L55.4 22.3L54.65 23.4Q58.05 24.95 60.3 27.8Q62.9 31.1 59.9 33.55Q56.7 36.25 52.4 35.35Q54 36.15 55.45 37.3Q56.75 38.35 57.5 39.8Q58.2 41.1 57.5 42.3L57.2 42.7L57.7 43.3L57.85 43.85L57.85 44.4L57.85 44.95L57.75 45.3L55.2 46.95L55.15 47L57.85 47.65L59.45 47.95Q60.9 48.3 62.15 49.05Q63.35 49.75 64.8 49.45Q65.15 49.4 65.2 49.8Q64.8 50.65 65.8 50.75Q66.4 50.85 66.95 51.2L68.65 52.75L69.95 54.1Q71 55.05 72.45 55.4Q73.2 55.6 73.3 56.35Q66.3 60.85 57.05 58.35L52.85 58L41.4 59.15L30.75 59.9L30.15 60.45L29.75 60.7L29.55 60.75L27.2 60.75Q24.9 63.1 20.75 62.4Q15.3 61.45 10.3 59.15Q8.05 58.1 8.65 55.4Q6.4 55.25 4.6 54Q3.75 53.4 3.6 52.25L3.25 50.1L2.7 48.75Q2.7 48.1 3 47.45Q3.45 46.4 4.45 45.6L6.5 43.35L7.4 41.65Q7.55 41.2 7.15 40.75L1.15 39.55L-4.35 38.85Q-6.4 38.8 -7.3 37.1Q-6.8 35.35 -7.8 33.75Q-9.3 31.5 -9.85 29.05Q-10 28.25 -9.35 27.4Q-7.5 25.05 -5.15 23.25L-3.4 22L-3.15 21.8Q-2.7 21.4 -2.1 21.3L-2.95 20.85Q-3.65 20.55 -3.95 19.85L-4.4 18.8L-5.2 17.45L-5.6 16.7L-5.55 16.5L-5.45 16.1L-5.35 15.75L-5.3 15.4L-5.15 15L-5.1 14.65L-5.15 14.45L-5.35 14.1L-5.6 13.75L-5.95 13.35L-6.35 12.95L-6.65 12.6Q-5.15 11.15 -2.75 10.45L2.8 8.65L8.5 6.6L8.45 6.4L8.25 6L8.2 5.65L8.1 5.3L8 4.9L7.95 4.55Q8.7 3.05 10.05 2.1Q14.75 -1.15 20.75 0.55Q21.3 0.7 21.7 -0.2Q22.7 -0.35 23.4 0.3L24.75 1.6L25.9 3.2L26.55 5L26.95 5.15L27.15 5.3L27.2 5.45L27.15 5.55Q29.9 2.15 33.2 -1.15Q37.35 -5.25 41.2 -9.65Q44.2 -13.05 48.05 -15.45L48.4 -15.6" />
</g>
</svg>
