<?xml version="1.0" encoding="utf-8"?>
<svg version="1.1" id="Layer_1"
xmlns="http://www.w3.org/2000/svg"
xmlns:xlink="http://www.w3.org/1999/xlink"
width="37px" height="22px"
xml:space="preserve">
<g id="857" transform="matrix(1, 0, 0, 1, -53.95, 17.4)">
<path style="fill:#0E0E0E;fill-opacity:1" d="M57.35,-0.45Q57.35 0.05 57.05 0.25L55.5 0.5Q54.3 0.5 54 -0.05L53.95 -0.65Q53.95 -2.1 55.65 -2.1Q57.35 -2.1 57.35 -0.45M59.45,-1.15Q59.45 -1.85 60 -2.4Q60.6 -3.05 61.3 -2.6Q61.3 -3.35 61.8 -3.9Q62.7 -5 65 -4.45L66.15 -3.6L66.6 -2.45Q66.6 -1.75 66 -1.25Q65.3 -0.65 63.9 -0.65L63.2 -0.05L62.2 0.4Q60.75 0.4 60 -0.25Q59.45 -0.7 59.45 -1.15M69.4,-7.6Q69.75 -8 71.25 -8.05Q71.35 -10 73.85 -10.35Q76.15 -10.7 76.6 -8.75L76.8 -7.2Q76.8 -6.65 76.15 -6Q75.4 -5.25 74.5 -5.25L72.9 -5.5L72.6 -5.05Q72.1 -4.4 71.4 -4.4Q69.9 -4.4 69.45 -5.35L69.25 -6.45Q69.25 -7.45 69.4 -7.6M78.4,-10.75Q79.95 -10.75 79.95 -9.9Q79.95 -8.9 78.2 -8.9Q77.15 -8.9 76.95 -9.2L76.95 -9.6Q76.95 -10.75 78.4 -10.75M90.4,-16.15Q90.4 -14.65 89.2 -14.65L87.05 -14.75Q86.5 -14.9 86.15 -15.5L85.9 -16.15Q85.9 -16.75 86.2 -17L87.15 -17.2L89.4 -17.4Q90.4 -17.35 90.4 -16.15M81.55,2.05Q82.55 2 82.55 2.65L82.1 3.4L80.6 3.85L80 3.35L79.65 2.8Q79.65 2.4 80.3 2.2Q80.5 1.9 81.1 1.95L81.55 2.05" />
</g>
</svg>
