<?xml version="1.0" encoding="utf-8"?>
<svg version="1.1" id="Layer_1"
xmlns="http://www.w3.org/2000/svg"
xmlns:xlink="http://www.w3.org/1999/xlink"
width="20px" height="16px"
xml:space="preserve">
<g id="904" transform="matrix(1, 0, 0, 1, 2.1, -5.8)">
<path style="fill:#000000;fill-opacity:1" d="M12.4,12.15L12.45 13L13.95 14.4L15.5 15.9L16.6 16.9L16.95 17.3L17 18.4L16.2 19.75L14.7 19.9L14.1 19.15L13.95 18.05L13.95 18L13 17.05L11.7 15.9L11.5 15.8L12.2 17.25L12.9 19.05L12.95 19.95Q12.3 21 11 20.9L9.95 20.5L9.2 19.25L8.6 17.6L8.45 17.25L7.7 15.3L7.45 14.9L6.55 13.95L5.45 13.05Q4.65 13.15 3.9 13.7L2.7 14.5L1 13.95L-0.8 13.2L-1.7 12.6L-2.05 12.45L-2.05 11.3L-2.05 11L-1.35 10.25Q-0.4 10.15 0.45 10.9L1.35 11.35L2.6 11.7L3.15 11.8L3.55 11.55L3.6 11.5L3.65 11.45Q4.05 11.3 3.6 11.25Q2.65 10.95 2.2 10.2L2 9.75Q1.55 8.75 1.95 7.9L2 7.8Q2.65 7.1 3.55 6.85Q4.25 6.6 4.9 6.85L5.35 6.9Q5.45 6.3 5.95 5.95L7.05 5.9L8.35 6.95L9.35 8.05L10.1 8.75L10.2 8.85Q10.35 9.5 10.1 9.9L10.05 10L10.55 10.6L12.4 12.15" />
</g>
</svg>
