<?xml version="1.0" encoding="utf-8"?>
<svg version="1.1" id="Layer_1"
xmlns="http://www.w3.org/2000/svg"
xmlns:xlink="http://www.w3.org/1999/xlink"
width="20px" height="21px"
xml:space="preserve">
<g id="742" transform="matrix(1, 0, 0, 1, -0.05, 1.75)">
<path style="fill:#000000;fill-opacity:1" d="M14.95,-1.75Q18.25 -1.35 16.75 1.55L16.7 1.7Q17.7 4.15 19.35 6.4Q20.05 7.35 19.25 8.45L18.7 9.3Q18.2 12 18.45 14.85Q18.65 16.75 17.4 18Q16.2 19.15 14.55 18.5Q15.4 16.55 15.65 14.45Q15.7 13.55 15.9 12.7L14.15 15.45L12.45 17.55L12.3 17.65L11.45 18.3L11.15 18.3L11 18.3L9.45 18L9.3 17.6L9.25 17.1L9.3 16.6Q11.85 15.9 13.1 13.45Q13.6 12.5 14.25 11.8Q14.4 10.8 14.7 9.8L15.65 6.8L15.7 6.8L15.25 5.85Q13.3 6.85 11.2 7.45L9.7 7.4L9.55 7.45L7.15 7.7L7.05 7.65L4.45 8.5L0.5 9.7L0.45 9.6L0.2 9.2L0.05 8.8L0.05 8.75Q3.3 7.35 6.8 6.3L11.3 5L11.4 5Q12.6 4.35 14.05 3.8L14.3 3.75L14.35 3.45L14.65 2.35L14.55 2.25L14 1.7Q12.45 0 14.15 -1.35L14.95 -1.75" />
</g>
</svg>
