<?xml version="1.0" encoding="utf-8"?>
<svg version="1.1" id="Layer_1"
xmlns="http://www.w3.org/2000/svg"
xmlns:xlink="http://www.w3.org/1999/xlink"
width="140px" height="30px"
xml:space="preserve">
<g id="1607" transform="matrix(1, 0, 0, 1, 0.2, 0)">
<path style="fill:#ECD4A6;fill-opacity:1" d="M137.85,21.95L137.85 23.55Q137.85 26.6 136 27.75L135.05 28.2L133.15 28.55L12.65 28.55L12.45 28.55Q7.65 28.45 7.65 23.55L7.65 11.95L0.8 1L11.6 8.55L133.15 8.55L135.05 8.85L136 9.3Q137.85 10.5 137.85 13.55L137.85 20.95L137.85 21.95" />
<path style="fill:none;stroke-width:2;stroke-linecap:round;stroke-linejoin:round;stroke-miterlimit:3;stroke:#623A2D;stroke-opacity:1" d="M137.85,21.95L137.85 23.55Q137.85 26.6 136 27.75L135.05 28.2L133.15 28.55L12.65 28.55L12.45 28.55Q7.65 28.45 7.65 23.55L7.65 11.95L0.8 1L11.6 8.55L133.15 8.55L135.05 8.85L136 9.3Q137.85 10.5 137.85 13.55L137.85 20.95" />
</g>
</svg>
