<?xml version="1.0" encoding="utf-8"?>
<svg version="1.1" id="Layer_1"
xmlns="http://www.w3.org/2000/svg"
xmlns:xlink="http://www.w3.org/1999/xlink"
width="15px" height="11px"
xml:space="preserve">
<g id="542" transform="matrix(1, 0, 0, 1, 1.55, 15.2)">
<path style="fill:#000000;fill-opacity:1" d="M1.5,-13.95L1.85 -14.15Q2.3 -14.4 2.6 -13.85L2.95 -13.3L3.1 -13.35L3.7 -13.15L3.95 -13L4 -13.05L3.15 -13.8L3.9 -15.2L6.85 -13.35L6.35 -12.15L6.85 -11.1L6.4 -10.5L7.25 -9.25L7.15 -9.15L7.8 -8.55L8.1 -8.55L9.75 -8.25L10.7 -8.05L10.7 -7.95L12.3 -7.45L12.5 -6.75Q12.5 -6.2 11.4 -5.3Q10.45 -4.55 9.8 -4.35L7.75 -4.3L7.75 -4.35Q6 -4.2 5.6 -5.2L5.55 -5.2L5.4 -5.15Q5.15 -5.15 4.75 -5.7L4.35 -6.25L4.2 -6.2L3.6 -6.05Q3 -6.05 1.95 -7.45L1.55 -7.4L1.35 -7.4L0.35 -8.65L0.35 -8.7L0.2 -8.65L-0.7 -8.85L-1.15 -9.1L-1.35 -9L-1.55 -9.05L-1.55 -10L-1.3 -12.35L-0.9 -12.35L0.4 -12.5L0.55 -12.05L0.6 -12.1L0.7 -11.75L0.55 -11.65L0.4 -10.6L0.5 -10.7L0.9 -10.9L0.8 -11.6L1.05 -11.85L0.3 -12.9L0.9 -13.55L1.5 -13.95" />
</g>
</svg>
