<?xml version="1.0" encoding="utf-8"?>
<svg version="1.1" id="Layer_1"
xmlns="http://www.w3.org/2000/svg"
xmlns:xlink="http://www.w3.org/1999/xlink"
width="10px" height="13px"
xml:space="preserve">
<g id="1031" transform="matrix(1, 0, 0, 1, 5, 6.8)">
<path style="fill:#7EF0FF;fill-opacity:1" d="M0.45,-6.7L0.75 -5.45L1 -4.05L1.5 -2.7L1.55 -1.9L0.45 -1.1Q-0.35 -0.6 -1.25 -0.3L-1.3 -0.3L-0.7 0.1L-0.05 0.75L-0.05 0.65L0.45 0.1L1.1 -0.2L1.25 0.25L1.3 0.6L1.55 0.8L1.65 1.05L1.1 1L0.85 0.6L0.35 1L0.2 1.3L0.35 1.6L0.85 2.2L1.25 2.75L1.55 3L2.5 2.4L3.65 1.85Q4.1 1.55 4.5 1.85L4.05 2.9Q3.7 3.45 3.5 3.95L3.1 4.75L2.75 5.55Q2.6 5.85 2.3 5.7Q2.1 5.4 2.3 5L2.5 4.35L2.9 3.7L3.15 3.05L3.3 2.75L2.75 2.9L2.2 3.3L1.8 3.7L1.55 3.85L0.75 3.15L0.2 2.35L0.05 2.1L-0.35 2.4L-1.25 2.65L-2.1 3.05L-2.5 3.4L-2.1 3.7L-1.65 3.95L-1.1 4.4L-1 4.5L-1.5 5.05L-2.3 5.45L-3.15 6.1L-3.55 6L-3.3 5.45L-3 5.3L-2.5 4.9L-2.2 4.5L-3 4.1L-3.4 3.85L-3.65 3.55L-3.65 3.3L-2.75 2.65L-1.4 2L-0.35 1.7L-0.35 1.6L-0.9 1.4L-2.5 0.4L-2.75 0.1L-2.85 0L-2.85 -0.05L-2.9 -0.3L-2.9 -0.55L-2.9 -0.8L-2.7 -1L-2.6 -1.35L-2.6 -1.4L-2.75 -1.4L-2.85 -1.4Q-3.95 -1.25 -4.9 -1.75L-4.7 -1.9L-4.2 -1.9L-3 -1.9L-2.35 -1.8L-2.3 -1.6L-2.3 -1.5L-2.35 -1.25L-1.8 -1.6L0.05 -2.3Q0.2 -2.3 0.3 -2.4L0.1 -3.1L-0.45 -3.2Q-1.1 -3.35 -1.5 -3.6L-1.5 -3.9L-1.4 -4.4L-1.4 -4.8L-1.4 -4.95L-1.3 -4.95L-1.15 -4.7L-1.1 -4.4L-1.1 -4.15L-1.1 -3.9L0.05 -3.4L0.05 -3.6L-0.05 -4.85L-0.1 -6.15Q-0.3 -6.65 0.2 -6.8L0.35 -6.7L0.45 -6.7" />
</g>
</svg>
