<?xml version="1.0" encoding="utf-8"?>
<svg version="1.1" id="Layer_1"
xmlns="http://www.w3.org/2000/svg"
xmlns:xlink="http://www.w3.org/1999/xlink"
width="22px" height="12px"
xml:space="preserve">
<g id="960" transform="matrix(1, 0, 0, 1, 3.65, 4.2)">
<path style="fill:#000000;fill-opacity:0.85098" d="M4.95,-1.75L4.95 -1.85L5.05 -2.4L5.45 -3.3L6.15 -4L6.45 -4.2Q7.6 -4.3 8.35 -3.55Q9 -2.9 8.55 -2.1Q8 -1.2 6.9 -0.9L5.75 -1.05L5 -1.5L4.95 -1.75M11.45,-1.45L13.5 -1.1L13.6 -1.25L14 -1.65L14.7 -2.05L15.05 -2.15L16.15 -2.1L16.7 -2L17.2 -1.7L17.25 -1.6L17.35 -1.2Q17.55 -0.45 17.05 0.15Q15.9 1.6 14.25 0.45L14.1 0.65Q13.5 1.65 12.55 2.25L11.05 2.55L10.65 2.25Q9.95 1.95 9.65 1.3Q9.3 0.65 9.65 -0.1L10.35 -1.1Q10.8 -1.55 11.45 -1.45M7.15,4.8L7.65 4.65Q9.1 4.5 9.6 5.7Q10.15 7 8.75 7.05L8.4 7.05L6 6.75Q5.55 6.65 5.2 6.4L4.65 6.1L4.6 6.1L4.55 6.15L4.45 6.15L4.35 6.1L4.2 6L4.1 5.9L4.1 5.85L4.2 5.6Q4.75 5.25 5.4 5.1L7.15 4.8M0,3.55L-0.1 3.55L-0.25 3.7L-0.3 3.8L-0.65 4.05L-1.05 4.25L-1.9 4.35L-2 4.3L-2.15 4.2L-2.45 4.05L-2.95 3.6L-3.5 2.8Q-3.8 2.4 -3.45 2.1L-2.9 1.8L-2.45 1.75L-1.45 1.9Q-1 2 -0.6 2.25Q-0.1 2.55 0.15 3L0.15 3.5L0.1 3.5L0 3.55M0.35,4.5L0.55 4.55L0.7 4.55L0.85 4.65L1.1 4.7L1.25 4.8L1.4 4.75L1.45 4.75L1.55 4.7L1.6 4.7L1.7 4.75L1.8 4.85L1.85 4.95L2.25 5L2.5 5.1L2.7 5.2L2.85 5.3L2.9 5.4L2.65 5.75L1.95 6.1L1.55 6.35L1.15 6.6L0.9 6.75L0.8 6.7L0.75 6.65L0.7 6.6L0.6 6.55L0.55 6.5L0.5 6.2L0.45 5.95L0.35 5.5L0.35 5.35L0.2 4.9Q0.1 4.7 0.3 4.55L0.35 4.5" />
</g>
</svg>
