<?xml version="1.0" encoding="utf-8"?>
<svg version="1.1" id="Layer_1"
xmlns="http://www.w3.org/2000/svg"
xmlns:xlink="http://www.w3.org/1999/xlink"
width="19px" height="23px"
xml:space="preserve">
<g id="1273" transform="matrix(1, 0, 0, 1, 0.05, 4.45)">
<path style="fill:#7EF0FF;fill-opacity:1" d="M6.25,-1.45Q5.2 -1.6 5.2 -2.55Q5.2 -3.15 5.65 -3.5L7.3 -4.45L6.15 -3.45Q5.6 -3.05 5.6 -2.55Q5.6 -1.9 7.2 -1.7Q8.8 -1.55 8.8 -0.7L8 0.1Q7.25 0.9 7.05 1.75L8.7 2.1Q11.05 2.75 11.05 3.7L10.7 4.35L10.4 4.2L10.65 3.8Q10.65 3.05 8.7 2.6L6.8 2.2L6.7 2.2L6.7 2.15L4.6 1.55L4.7 2.8Q4.35 5.85 3.35 5.85Q2.8 5.85 2.7 5.3Q2.65 4.7 1.45 4.7L0.7 4.85L0.3 5.25L0.1 4.95L0.55 4.4L1.45 4.15Q3.05 4.15 3.2 4.5L3.25 5.3L3.9 4.1L4.15 2.8L3.85 0.45Q3.85 -0.55 4.85 -0.5Q5.8 -0.4 5.8 0.05L5.55 0.5L4.95 1.1L6.65 1.65L6.65 1.55Q6.65 1.15 7.25 0.3Q7.95 -0.6 8.45 -0.65Q7.8 -1.2 6.25 -1.45M15.9,-0.35Q16.9 -0.35 18.05 2.45L18.05 2.5L17.85 2.55Q17.35 2.55 16.7 1.35L16 0.15L15.25 0.35Q14.95 0.35 14.4 -0.2Q13.9 -0.7 13 -0.6L12.2 -0.6L12.25 1.45Q13.25 1.2 14.55 2.2L16.9 3.95Q16.65 4.35 15.4 4.6Q14.25 4.85 14.25 5.1Q14.25 5.65 14.7 5.85Q17.1 5.8 18.1 7.65Q18.7 8.7 18.7 9.95L18.65 10.2L18.45 10.3L13.05 9L12.55 10.65Q12.55 11.35 13.6 12.4Q13.3 12.8 12.85 12.8Q12 12.8 11.7 12.1L11.6 11.4L11.8 10Q11.8 9.25 10.8 9.25L9.45 9.4L9.45 9.6L9.3 9.95L8.85 9.45L8.5 9.5L8.4 9.35L8.65 9.15Q8.35 8.65 7.7 8.65Q7 8.65 6.6 9.05L5.85 9.4Q5.4 9.4 5.3 9L5 8.4Q3.4 8.45 3.4 9.35L3 9.25L3.2 8.8Q2.7 9.1 1.95 9.2L2.4 10.2L2.8 11.3L2.5 11.95L0.55 12.5L0.5 12.6L0.85 13.1L1.45 13.7L1.15 13.85Q0.7 13.85 0.3 13.3Q-0.05 12.85 -0.05 12.55Q-0.05 12.05 1.15 11.8Q2.3 11.6 2.3 11.3L1.85 10.15Q1.35 9.35 1.35 9L1.6 8.65Q2.75 8.7 3.3 8Q3.7 7.55 3.7 7.05L3.6 6.7L2.9 6.8Q3.5 6.25 3.8 6.6L4.05 7.25L3.85 8.15L4.35 7.95Q5.5 7.7 5.85 8.9L6.65 8.35L7.7 8.2Q8.5 8.2 9.05 8.8L9.15 8.9L9.65 8.8L10.8 8.8Q11.8 8.8 12.15 9.5L12.35 8.85Q12.45 8.3 12.8 8.3L18 9.45Q17.6 6.7 15.6 6.45Q13.75 6.25 13.75 5.1Q13.75 4.65 14.1 4.5L15.5 4.1L15.7 4.05L14.15 2.85Q13.15 2.05 12.25 1.7L12.25 2.4Q12.2 4.3 11.1 5.4L11 5.45L11.15 4.5Q11.15 4.15 11.45 3.55L11.7 2.35L11.6 0.25L11.6 -0.4Q11.7 -1 12.15 -1.15L14.55 -1.05L15.2 -0.15L15.9 -0.35M12.15,11.6L12.3 12L12.35 12.05L12.15 11.6M5.15,0.1L4.5 0.05L4.4 0.55L4.4 0.65L5.15 0.15L5.15 0.1M7.55,10.7L8.1 10.7L7.95 10.85L9.05 10.85Q11.15 10.85 11.35 12.2L11.1 14.1L12.95 14.3L13.3 14.7Q13.4 14.85 14.85 15.4L13.8 15.7Q13.25 15.7 13 15.1Q12.8 14.55 11 14.6Q10.7 14.45 10.7 14L10.9 12.8Q10.9 11.95 9.2 11.45L7.5 10.9L7.55 10.7M5.6,11.5Q5.6 11 6.5 10.05Q7.45 9.05 7.9 9.3L7.95 9.4Q6 10.8 6.1 11.6Q8.4 11.95 8.4 12.75L7.55 14.9L8.35 15.45Q9.1 15.85 9.1 16.25L8.8 17.35L8 18.2L7.65 18.1L7.6 17.85L7.9 17.15L8.05 17.25L8.1 17.35L8.55 16.25Q8.55 16 7.75 15.7Q6.95 15.4 6.95 14.95Q6.95 14.65 7.45 13.85L7.9 12.75Q7.9 12.55 6.75 12.25Q5.6 11.95 5.6 11.5" />
</g>
</svg>
