<?xml version="1.0" encoding="utf-8"?>
<svg version="1.1" id="Layer_1"
xmlns="http://www.w3.org/2000/svg"
xmlns:xlink="http://www.w3.org/1999/xlink"
width="30px" height="12px"
xml:space="preserve">
<g id="587" transform="matrix(1, 0, 0, 1, -2.7, -13.7)">
<path style="fill:#000000;fill-opacity:1" d="M24.45,18.1L25.55 19.05Q26.35 18.95 27 19.35Q27.4 18.75 28.1 18.65L29 18.45Q32.05 18.8 31.9 21.65Q31.85 22.85 30.45 22.95L28.9 22.85Q28.95 23.55 27.9 24Q26.4 24.55 25.15 23.75L24.9 23.45L22.5 23.55L20.7 23.6L20.65 23.5L20.7 23.3L19.95 22.45Q19.5 21.9 19.4 21.2L19.4 21.15Q20.35 20.3 21.6 19.85L22.3 19.65Q20.95 18.85 19.35 18.65Q18.9 18.6 18.75 18.2L18.75 18.1L18.75 17.9L18.85 17.75L19 17.5L19.5 16.75L19.8 16.6Q21.55 16.65 23.05 17.3Q23.8 17.6 24.45 18.1M28.5,22.4L28.3 22.45L28.55 22.5L28.5 22.4M4.35,20.8L4.65 20.3Q5.5 19.45 6.6 18.95L9.4 19.6L12.25 19.85L12.3 19.95L11.8 20.35L11.6 20.45L11.45 20.75L11.25 21.2L11.2 21.25L10.85 21.95L10.9 22.05L10.95 22.05Q10.85 21.9 11.05 21.9L11.3 22.1L11.5 22.15L11.5 22.2L11.45 22.25L11.6 22.3L12.25 22.55L12.35 22.7L12.65 22.95L12.75 23.1L12.9 23.3Q13.35 23.85 13.05 24.4L6.05 25.2L2.75 25.05L2.7 24.95L2.7 24.9L2.7 24.8L2.7 24.7L2.7 24.6L2.7 24.55L2.7 24.45L2.7 24.4L2.7 24.3Q2.8 24.15 3 24.1L3.1 24.05L3.3 23.95L3.6 23.75L3.75 23.65Q3.9 23.5 4.1 23.4L4.2 23.35L4.1 23.1L3.85 23L3.8 22.9L3.65 22.7L3.5 22.55L3.25 22.25L3.2 22.1L3.2 22.05L3.85 21.4L4.35 20.8" />
<path style="fill:#7E0000;fill-opacity:1" d="M11.95,14.05L11.95 14.65L11.95 14.75L11.6 14.85L11 14.7L11.05 14.35Q11.15 14 11.4 13.8L11.5 13.7L11.95 14.05M11.9,15.95L12.3 16L12.5 16.1L12.35 16.75Q11.95 17.35 11.2 17.3L11 17.25L11 16.85L11.65 16.1L11.9 15.95M10.8,17.9Q11.45 18.05 11.2 18.7L10.55 19.5L10.5 19.55Q10.1 19.3 10.2 18.8Q10.3 18.3 10.7 17.95L10.8 17.9M14.5,16.9L14.75 17.4L14.75 17.5L14.2 17.6L13.7 17.4L13.65 17.3L13.65 17.1L13.85 16.8L14 16.75L14.5 16.9M17.8,20.2L17.7 20.15L17.55 20.05L17.25 19.7L17.25 19.6L17.3 19.35Q17.4 19.2 17.6 19.15L18.1 19.2L18.45 19.45L18.5 19.55L18.5 19.6L18.15 19.9L17.8 20.2" />
</g>
</svg>
