<?xml version="1.0" encoding="utf-8"?>
<svg version="1.1" id="Layer_1"
xmlns="http://www.w3.org/2000/svg"
xmlns:xlink="http://www.w3.org/1999/xlink"
width="18px" height="19px"
xml:space="preserve">
<g id="1032" transform="matrix(1, 0, 0, 1, 9.1, 10)">
<path style="fill:#7EF0FF;fill-opacity:1" d="M1.95,-10L2.1 -9.9L2.2 -9.9L2.2 -8.3L1.9 -6.65Q1.7 -5.75 1.8 -4.95L1.8 -3.9L-0.2 -2.95L-2.2 -1.9L-1.3 -0.8L-0.35 0.25L-0.3 0.35L-0.05 -0.2L0.5 -1L1.1 -1.75L1.9 -2.55Q2.3 -2.3 2.7 -2.2L3.3 -2.05L3.5 -2.2L4.1 -2.55L4.7 -2.85L4.85 -2.85Q4.9 -2.6 4.6 -2.45L4.1 -2.3L3.55 -2.05L3.5 -2Q3.9 -1.75 4.3 -1.65L4.7 -1.25Q4.35 -0.7 3.7 -1L2.85 -1.5L2.1 -1.75L1.95 -1.75L1.25 -1L0.75 -0.45L0.35 0.2L0.05 0.8L0.1 1.15L0.35 1.45L0.5 1.8L0.5 1.85L0.75 2.1L1.1 2.4L1.65 2.8L1.8 2.9Q2.6 3.4 3.3 3.15L5.1 2.75Q5.55 2.65 5.9 3L5.5 4.2L5.8 4.4L6.3 4.8L6.75 5Q7.15 5 7.35 5.3L7.25 5.6L7.1 5.7L6.6 6L6.45 6.2L6.35 6.25L7.1 6.4L7.9 6.8L8.2 7.05L7.5 7L6.2 6.8Q5.9 6.75 5.65 6.5L5.65 6.2L5.95 5.85L6.3 5.7L6.6 5.4L6.15 5.2L5.55 4.8L5.3 4.5L5 5.6L4.7 6.65L4.45 7.55L3.65 8.65Q3.1 8.25 3.4 7.55L3.7 6.4L3.9 5.7L4.2 4.9L4.45 4.25L4.45 4.2Q2.5 4.75 1.15 3.6L0.05 2.35L-0.3 1.6L-0.35 1.7L-1.8 2.2L-2.75 2.6L-4.2 3.3L-3.7 3.6L-3.25 4Q-3.1 4.2 -2.85 4.2L-2.6 4.1L-2.45 4.4L-2.1 4.8L-1.9 5.05L-1.8 5.2L-1.7 5.3L-3.3 6.6L-4.45 7.4L-5.3 8.35Q-5.9 9.05 -6.6 9Q-6.7 8.35 -6.2 7.8L-5.65 6.9L-4.9 6L-3.95 5.15L-3.5 4.65L-3.95 4.2Q-4.2 3.95 -4.5 3.85L-5 3.6L-5.15 3.3L-4.5 2.65L-5 2.1L-5.5 1.6L-5.55 1.55L-6.75 2.4L-7.8 3.45L-8.85 4.1Q-9.1 4.2 -9.1 3.95L-7.8 2.9L-6.75 1.95L-5.9 1.15L-5.65 1.05L-5.1 1.45L-4.6 1.95L-4.1 2.4L-3.7 2.25L-2.45 1.8L-1.1 1.3L-1.8 0.4L-2.9 -0.85L-3.4 -1.4Q-4.35 -1 -5.4 -0.7L-6.95 -0.6L-6.95 -1.25L-6.95 -2L-6.95 -2.6L-6.7 -2.95Q-6.45 -2.8 -6.45 -2.45L-6.45 -1.9L-6.45 -1.4L-6.45 -1L-5.25 -1.35L-3.5 -1.6L-3.65 -2.4L-1.5 -3.6Q-0.45 -4.05 0.5 -4.65L0.75 -4.8L0.75 -5.75L-0.35 -5.6Q-1 -5.65 -1.55 -6L-1.55 -6.3L-1.5 -6.8L-1.4 -7.25L-1.3 -7.75L-1.55 -7.75L-2.05 -7.45L-2.5 -7.5L-2.3 -7.85L-1.7 -8.3L-1.15 -8.65Q-0.7 -8.65 -0.9 -8.25L-1.1 -7.5L-1.1 -6.85Q-1.1 -6.55 -1.25 -6.3L0.35 -6.05L0.85 -6L0.85 -6.25L1.1 -7.85L1.4 -9.45Q1.5 -9.9 1.95 -10" />
</g>
</svg>
