<?xml version="1.0" encoding="utf-8"?>
<svg version="1.1" id="Layer_1"
xmlns="http://www.w3.org/2000/svg"
xmlns:xlink="http://www.w3.org/1999/xlink"
width="289px" height="64px"
xml:space="preserve">
<g id="481" transform="matrix(1, 0, 0, 1, 104.15, -199.5)">
<path style="fill:#3A1D0F;fill-opacity:0.85098" d="M86.45,228.3Q82.85 228.8 79.25 228.25Q74.65 227.6 70.45 225.75L70.2 225.5L70.1 225.25L70.05 225L70.05 224.55L70.05 224.3L70.05 224.05L70.25 223.85L70.75 223.3L71.75 222.6L73.5 222.45L73.6 222.2L74.25 221.5L75.95 220.3Q76.65 219.85 77.55 219.75L77.6 219.7Q86.25 218.15 88.6 224.95Q89.65 227.9 86.45 228.3M157.1,251.8Q165.45 249.45 169.4 255.3Q170.5 256.9 168.6 257.8Q161.8 261 154.2 260.85L150.05 260.1Q148.65 259.6 147.7 258.45L147.65 258.2Q147.65 257 148.05 256Q149.35 253 152.6 252.5L157.1 251.8M50.65,199.85Q58.8 198.1 59.4 204.9Q59.65 207.3 57.65 208Q57.2 209 55.85 209.55L54.15 210.3Q51.45 211.5 48.95 210.65L48.9 210.45L48.9 210.2L48.9 209.95L48.9 209.45L48.95 209.25Q49.3 208.85 49.75 208.7Q50.65 208.4 50.9 207.65L51.05 207.2Q48.7 205.55 49.1 201.4L49.55 200.25L49.7 200.2L50.2 200.05L50.65 199.9L50.65 199.85M65.25,258.45Q64.4 261.9 60.35 262.8Q54.9 264.05 50.85 261.35Q47.45 259.15 49.9 255.95Q50.6 255 51.6 254.5L53.55 253.7Q56.25 253.2 58.45 254.65L62.55 256.8Q64.05 257.4 65.25 258.45M172.7,237.9Q172.75 240.35 170.4 241.3Q160.55 245.35 161.5 236.55Q161.8 233.6 164.8 232.8Q172.55 232.1 172.7 237.9M170.7,246.8L170.65 245.6Q170.5 244.65 171.05 243.95Q172.55 242.05 174.75 241.25L176.65 240.55Q182.45 240.9 184.25 246.75Q185.2 249.9 181.45 250.35Q175.5 251.05 171.2 247.25L170.7 246.8" />
<path style="fill:#3A1D0F;fill-opacity:0.611765" d="M110.95,250.35Q117.3 252.25 114.85 258.35L114.65 258.6Q106.75 259.15 98.85 257.5Q95.3 256.7 91.9 255.2Q88.95 253.9 89.6 250.65L89.8 250.45L90.05 250.2L90.25 250.05L91.2 249.7L91.65 249.55L92.15 249.4Q92.45 249.25 92.7 249.15L92.95 249L93.35 248.8L93.9 248.6Q98.05 248.25 102.05 248.65Q106.65 249.05 110.95 250.35" />
<path style="fill:#3A1D0F;fill-opacity:0.85098" d="M-10.95,235.35Q-1.3 232.5 1.15 240.2Q2.2 243.6 -1.8 244.6L-16.15 245.15L-17.75 244.6L-17.9 244.2L-18 242.65Q-18 241.45 -17.6 240.45L-16.15 237.85L-15.8 237.15L-15.15 236.9L-14.25 236.6L-13.55 236.45L-11.45 235.55L-10.95 235.35M-77.85,242.1Q-80.45 242.6 -81.5 240.7L-81.5 240.3L-81.2 239.55L-80.75 238.75L-79.95 238.1L-77.7 238.45Q-76.9 238.7 -76.4 239.45L-76.05 240.15L-76.1 240.55Q-76.45 241.8 -77.85 242.1M-63.75,239.15L-59.95 239.2Q-57.75 239.3 -55.8 240.4Q-55.1 240.85 -54.6 241.6L-54.6 243.95Q-54.8 245.65 -56.55 246.4Q-60.85 248.25 -65.3 246.85L-66.65 245.3L-67.2 244.45Q-67.6 243.75 -67.65 242.9Q-67.75 241.1 -66.9 239.6Q-66.35 238.65 -65.3 238.35Q-64.65 239.15 -63.75 239.15" />
<path style="fill:#3A1D0F;fill-opacity:0.498039" d="M-77.15,210.5Q-76.8 210.75 -76.55 211.15L-76.7 211.55L-76.85 211.95L-77.05 212.35L-77.45 213L-78.25 213.5L-78.95 213.75Q-82.65 214.4 -84.15 211.8Q-85 210.3 -83.45 209.5L-83.1 209.35L-79.7 209.6Q-78.3 209.75 -77.15 210.5M-94.6,207.4Q-92.25 207.6 -90.75 209.4L-89.5 211.05Q-89.5 212.5 -90.5 213.35Q-96.95 219.1 -103.2 213.55Q-104.3 212.6 -104.1 210.9Q-103.7 207.85 -100.85 207.1L-94.6 207.4M-92.5,237.7L-92.1 237.75L-88.85 238.15Q-87.4 238.4 -86.45 239.5Q-85.95 240 -85.95 240.7L-86.35 241.3Q-89.85 244.3 -94.3 242.65L-94.65 242.2L-94.7 241.85L-94.45 240.4Q-94.05 239.3 -93.3 238.4L-92.5 237.7" />
</g>
</svg>
