<?xml version="1.0" encoding="utf-8"?>
<svg version="1.1" id="Layer_1"
xmlns="http://www.w3.org/2000/svg"
xmlns:xlink="http://www.w3.org/1999/xlink"
width="13px" height="43px"
xml:space="preserve">
<g id="500" transform="matrix(1, 0, 0, 1, 0, 0)">
<path style="fill:#BD8051;fill-opacity:1" d="M4.45,20.05L3.9 18.8L10.55 1.2L10.75 2.7L4.45 20.05M4,3.15L4.6 3.4L1.75 13.75L1.25 12.55L4 3.15M3.05,0.15L3.4 0.2L3.7 1L3.75 1.15L4.1 1.5L4.8 2L5 2.05L5.6 2.15Q6.6 2.15 7.15 1.5L7.7 0.8L8.1 0.85L7.4 1.85Q6.65 2.5 5.6 2.5L4.9 2.45L4.05 2.1L3.75 1.85L3.25 1L3.1 0.55L3.05 0.15M2.7,2.1L2.6 2.3L2.85 2.3L3.05 2.5L3.55 2.9L1.15 3.25L2.25 1.3L2.7 2.1" />
<path style="fill:#000000;fill-opacity:1" d="M10.75,2.7L12.3 15.3L9.9 27.1L9.5 27.45L10.1 41.65L8.75 42.8L5.25 42.85L3.7 41.95L2.4 28.95L4.45 20.05L10.75 2.7M4.6,3.4L5.6 3.5Q7.15 3.5 8.2 2.5Q8.85 1.85 9.1 1L10.55 1.2L3.9 18.8L1.75 13.75L4.6 3.4M1.25,12.55L0.4 10.6L2.3 3.95L0 3.95L2 0.1Q2 0.6 2.15 1L2.25 1.3L1.15 3.25L3.55 2.9L3.75 3.05L4 3.15L1.25 12.55M2.6,2.3L2.7 2.1L2.85 2.3L2.6 2.3" />
<path style="fill:#0B0B0B;fill-opacity:1" d="M2.25,1.3L2.15 1Q2 0.6 2 0.1L2 0L3.05 0.15L3.1 0.55L3.25 1L3.75 1.85L4.05 2.1L4.9 2.45L5.6 2.5Q6.65 2.5 7.4 1.85L8.1 0.85L9.1 1Q8.85 1.85 8.2 2.5Q7.15 3.5 5.6 3.5L4.6 3.4L4 3.15L3.75 3.05L3.55 2.9L3.05 2.5L2.85 2.3L2.7 2.1L2.25 1.3M3.4,0.2L7.7 0.8L7.15 1.5Q6.6 2.15 5.6 2.15L5 2.05L4.8 2L4.1 1.5L3.75 1.15L3.7 1L3.4 0.2" />
</g>
</svg>
