<?xml version="1.0" encoding="utf-8"?>
<svg version="1.1" id="Layer_1"
xmlns="http://www.w3.org/2000/svg"
xmlns:xlink="http://www.w3.org/1999/xlink"
width="20px" height="17px"
xml:space="preserve">
<g id="1042" transform="matrix(1, 0, 0, 1, 11.2, 12.8)">
<path style="fill:#232323;fill-opacity:0.278431" d="M7.4,-12.45L7.25 -12.45L7.4 -12.45M8.5,-11.75Q8.5 -11.3 7.9 -10.7L6.95 -10.7L6.25 -11.2L6.15 -11.7Q6.15 -12.8 7.4 -12.8L8.15 -12.35L8.5 -11.75M2.65,-7.25L3.35 -6.9L3.6 -6.35Q3.6 -5.6 2.85 -5.6L2.15 -6L1.85 -6.45Q1.85 -7.25 2.65 -7.25M5.85,1.1Q5.85 1.5 5.2 1.5Q4.7 1.5 4.45 1.1L4.3 0.7Q4.3 0.25 4.7 0.25Q5.15 0.25 5.85 1.1M-4.55,-10.1Q-5.65 -10.1 -5.65 -10.8L-5.35 -11.3L-4.55 -11.6Q-4.1 -11.6 -3.85 -11.3L-3.65 -10.9L-3.95 -10.4Q-4.25 -10.1 -4.55 -10.1M-1.45,-6.75L-0.95 -6.5L-0.8 -6.15Q-0.8 -5.7 -1.35 -5.7Q-2.2 -5.7 -2.2 -6.2L-2 -6.55L-1.45 -6.75M-0.65,2.2Q-0.25 2.5 -0.25 2.75L-0.55 3.25L-1.2 3.5L-2.05 3.15L-2.6 2.55Q-2.25 1.85 -1.6 1.85Q-1.1 1.85 -0.65 2.2M-9.85,0.4Q-10.05 0.6 -10.25 0.6L-10.9 0.45L-11.2 0.05Q-11.2 -0.4 -10.4 -0.3Q-9.65 -0.15 -9.65 0.1L-9.85 0.4" />
<path style="fill:#232323;fill-opacity:0.478431" d="M4.35,-5.5L4.3 -5.5L4.3 -5.4L4.35 -5.5M3.9,-5.05Q3.9 -5.7 4.2 -5.8L4.6 -5.8L5.1 -5.45L5.5 -4.9Q5.5 -4.2 4.75 -4.2Q3.9 -4.2 3.9 -5.05M1.6,-2.45Q0.5 -2.7 0.5 -3.05Q0.5 -3.85 1.75 -3.85Q2.1 -3.85 2.75 -3.3L3.4 -2.5Q3.4 -1.9 2.85 -1.9L2.15 -2.15L1.6 -2.45M1.35,-0.85L0.55 -0.6Q-0.15 -0.6 -0.6 -1.25L-0.95 -2.15L-0.8 -2.6L-0.35 -2.9Q0.2 -2.9 0.35 -1.95Q0.45 -1.75 1.05 -1.5L1.6 -1.2L1.35 -0.85M-3,-3.55Q-3 -2.9 -3.85 -2.9L-4.6 -3.15L-4.85 -3.55Q-4.85 -4.35 -3.9 -4.3Q-3 -4.2 -3 -3.55" />
</g>
</svg>
