<?xml version="1.0" encoding="utf-8"?>
<svg version="1.1" id="Layer_1"
xmlns="http://www.w3.org/2000/svg"
xmlns:xlink="http://www.w3.org/1999/xlink"
width="23px" height="15px"
xml:space="preserve">
<g id="682" transform="matrix(1, 0, 0, 1, 7.85, 15.2)">
<path style="fill:#7E0000;fill-opacity:1" d="M8.5,-7.5L9.75 -6.9Q10.3 -6.45 10.45 -5.8L10.45 -5.7Q9.35 -5 8.15 -5.95Q7.3 -6.6 8.15 -7.35L8.5 -7.5M3.05,-8.45L3.1 -9.05L3.95 -9.7Q5.7 -9.9 5 -8.7Q4.4 -7.6 3.2 -8.2L3.1 -8.25L3.05 -8.45M0.95,-10.85Q-0.25 -10.05 -0.3 -11.5Q-0.35 -11.95 0.1 -12Q2.45 -11.9 0.95 -10.85M9.4,-4.4L10.45 -4.65Q12.25 -4.25 12.05 -3.3L13.05 -2.8L14.15 -1.9L14.2 -1.85Q13.95 -0.6 12.6 -1.35Q11.65 -1.85 11.4 -2.65L11.3 -2.7Q9.85 -3.1 9.05 -4.05L9.4 -4.4M-6.4,-12.75L-6.45 -12.8L-6.5 -12.8Q-7.75 -12.3 -7.85 -13.4Q-8 -14.95 -6.3 -15.2Q-3.55 -14.7 -3.35 -11.8L-3.35 -11.7L-3.3 -11.8L-3.05 -12.35L-3 -12.4L-2.9 -12.7L-2.2 -13.35L-1.85 -13.3L-1.1 -13.35Q-0.8 -13.35 -0.65 -13.15Q-0.4 -11.9 -1.8 -11.6L-2.4 -11.5L-2.65 -10.4Q-3 -9.6 -2.9 -8.7L-3 -8.25L-3.25 -8.15Q-3.6 -7.95 -3.9 -8.25L-4.1 -7.8L-4.3 -7.55L-4.3 -7.5L-4.4 -7.05L-4.45 -7.05L-4.7 -7.05L-4.85 -7.15L-5.15 -9.8Q-5.15 -11.15 -5.5 -12.4L-6.05 -12.55L-6.4 -12.75M-5.45,-13.7L-5.45 -13.75L-5.55 -13.85L-5.45 -13.7" />
</g>
</svg>
