<?xml version="1.0" encoding="utf-8"?>
<svg version="1.1" id="Layer_1"
xmlns="http://www.w3.org/2000/svg"
xmlns:xlink="http://www.w3.org/1999/xlink"
width="19px" height="24px"
xml:space="preserve">
<g id="759" transform="matrix(1, 0, 0, 1, 0.25, 3.9)">
<path style="fill:#000000;fill-opacity:1" d="M3.8,-0.45L4.8 -0.5L5.2 -0.35L6.2 0.05L6.25 0.15L6.2 0.7L6.15 1.1L6.15 1.2Q5.25 1.75 4.25 1.7L3.85 1.6L3.85 1.55L3.5 0.6Q3.45 0.1 3.7 -0.35L3.75 -0.4L3.8 -0.45M7.2,-3.85L7.25 -3.85Q8.85 -3.7 9.05 -2.4Q9.15 -1.75 9.6 -1.3L9.6 -1.15L9.55 -0.65L9.35 -0.3L9.3 -0.25L6.95 -0.45L6.6 -0.6L6.5 -0.65L5.85 -1.1L5.7 -1.2L5.4 -1.45L5.35 -1.5L5.35 -1.6L5.35 -1.85Q5.2 -2.2 5.35 -2.6L5.4 -2.55L5.4 -2.45L5.7 -3.25Q6.05 -4.1 7.2 -3.85M13.35,-0.45L13.85 -0.6L14.3 -0.7L14.7 0L16.3 3L17.95 5.55L17.95 5.6Q15.65 5.35 14.45 2.85Q13.65 1.25 13.2 -0.35L13.35 -0.45M12,0.9Q12.1 1.75 11.65 2.3Q9.8 4.5 8 2.8L8.1 2.7Q9.2 2.35 9.9 1.4Q10.55 0.5 11.65 0.05L12 0.9M11.7,7.75Q11.25 9 10.1 8.2L9.3 7.6Q8.05 8.05 7.15 7.3L6.35 6.55L4.8 6.4Q3.65 7.65 1.1 6.45L1.05 6.3Q1 5.45 1.2 4.7L1.5 3.7L1.5 3.65L1.3 3.45L1.45 3.3L1.55 3.2L1.75 3.05L1.85 3.15L1.95 3.05L2.7 2.65L3.35 2.45L3.9 2.25L5.25 2.1L5.6 2.1L5.7 2.15L5.75 2.15L5.85 2.25L5.9 2.3L5.9 2.4L5.95 2.45Q6.4 2.3 6.8 2.45Q7.3 2.65 7.6 3L7.65 3.05L7.7 3.2L7.6 3.45L7.55 3.6L7.5 3.75L7.5 3.85L7.4 3.95L7.35 4L6.9 4.15L6.95 4.2L7 4.35L7 4.5L7.05 4.6L7.9 4.55L7.95 4.6L9.35 4.6L9.45 4.6L9.7 4.75L9.7 4.85L9.7 4.9L9.65 4.95L9.6 4.95L9.6 5.5L9.65 5.85L9.65 5.95L10.45 6.6L11.7 7.75M4.65,7.55L4.85 7.7Q5.1 8.7 4.9 9.75L5.05 9.9L5.65 10.7L5.7 10.5L5.9 10.75L6.85 11.85L7.9 12.85L7.75 12.85Q7.95 13.4 7.55 14.1Q5.95 13.9 4.45 12.75Q3.75 12.2 3.45 11.5L3.15 12.6L2.3 14.7L2.05 14.6Q1.15 13.95 -0.05 13.85L-0.1 13.75Q-0.35 12.65 0.1 11.75L0.35 11.2L0.5 10.25L0.8 9.7L0.8 9.25L0.8 8.8L2.35 8.5Q3.15 8.15 3.8 7.6L3.95 7.6L4.3 7.65L4.65 7.55M8.35,14.55L8.75 15.5L9.25 17.1L9.35 17.05L9.75 17.4L9.55 17L9.8 17.05Q10.45 17.55 10.65 18.35Q10.85 19.35 10 19.45L8.2 19.7L8.15 19.6L7.7 19.1L7.6 18.9Q7.35 18.6 7.25 18.15L6.8 16.2L6.75 15.1L7 14.95Q7.3 14.75 7.7 14.7L8.35 14.55M2.4,15Q2.35 15.35 2.65 15.6L3.8 16.85L4 17.25L3.85 17.25L3.85 17.5L3.75 17.7L3.6 18.5L3.45 18.75Q2.55 19 1.65 18.4Q0.85 17.8 -0.05 17.55L-0.2 16.4L-0.25 15L-0.25 14.65L-0.2 14.65L0.9 14.55L2.25 14.9L2.4 15M3.05,16.35L3 16.3L2.95 16.3L3 16.4L3.05 16.35M3.4,16.95L3.4 16.85L3.35 16.8L3.3 16.8L3.4 16.95" />
</g>
</svg>
