<?xml version="1.0" encoding="utf-8"?>
<svg version="1.1" id="Layer_1"
xmlns="http://www.w3.org/2000/svg"
xmlns:xlink="http://www.w3.org/1999/xlink"
width="9px" height="8px"
xml:space="preserve">
<g id="662" transform="matrix(1, 0, 0, 1, 18.3, 23.95)">
<path style="fill:#000000;fill-opacity:0.498039" d="M-10,-20.8Q-10 -19.85 -10.5 -19.55L-10.35 -20.45L-10.65 -20.2L-10.7 -20.3L-10.5 -21.1L-10.65 -21.6L-10.7 -21.65L-11.45 -22Q-11.3 -21.55 -11.3 -20.95L-11.35 -20.8L-11.25 -20.6L-11.4 -20.65L-11.4 -20.6L-11.4 -20.45L-11.45 -20.15L-11.4 -19.85L-11.4 -19.6L-11.35 -19.2L-11.35 -19.15L-10.6 -18L-10.55 -17.95L-11.5 -18.6L-11.6 -18.6L-11.7 -18.8L-12.3 -19.3L-13.85 -20.65L-14 -20.7L-13.95 -20.75L-14.15 -20.95L-13.45 -20.95L-13.35 -20.95L-13.2 -20.95L-13.8 -21.1L-13.6 -21.25L-14.2 -21.35L-14.95 -21L-15 -21L-14.85 -21.3L-15.2 -21.15L-14.65 -20.5L-14.65 -20.6L-14.6 -20.75L-12.65 -19.4Q-11.25 -18.5 -11.25 -17.9L-11.3 -17.7L-12.1 -18.3L-13 -18.8L-14.05 -18.65L-15.55 -19.05L-16.05 -18.7L-15.9 -18.3L-15.55 -18.8L-15.7 -18.35Q-15.7 -17.85 -15.2 -17.5Q-14.5 -16.95 -13.05 -17.1L-12.9 -17.05L-14 -16.8Q-14.95 -16.8 -15.55 -17.4L-15.6 -17.45Q-16.05 -17.5 -16.35 -18.7L-16 -19.4L-16.05 -19.45L-16.25 -19.45L-16.3 -19.35L-16.4 -19.35L-16.45 -19.5L-17.2 -19.8Q-17.55 -20.05 -17.55 -20.25L-17.05 -20.1L-17.2 -20.3L-17.35 -20.5L-17.4 -20.5Q-17.8 -20.5 -18.1 -21.2L-18.3 -22Q-18.3 -23 -17.5 -23.2L-15.75 -23.65Q-15.3 -23.65 -15 -23.2L-15 -23.15L-14.7 -23.25L-14.05 -22.95L-14 -22.95Q-13.3 -23.4 -12.75 -23.3Q-11.65 -24.4 -10.8 -23.6Q-10 -22.85 -10 -21.55L-10.1 -21.35L-10.1 -21.3L-10 -20.8M-12.2,-23.25L-12.1 -23.25Q-11.15 -23.25 -10.55 -22.35L-10.35 -22.1L-10.5 -22.55Q-10.8 -23.5 -11.55 -23.5L-12.2 -23.25M-12.65,-22.75L-12.9 -22.6Q-12.6 -22.55 -12.35 -22.3L-12.2 -22.2L-12 -22.25Q-12.25 -22.7 -12.65 -22.75M-11.6,-22.3L-11.05 -22.25Q-11.45 -22.75 -11.95 -22.85L-11.6 -22.3M-11.9,-22.1L-12.1 -22.1L-11.8 -21.65L-11.7 -21.4L-11.8 -21.75L-11.9 -22.1M-14.8,-22.9L-14.75 -22.8L-14.65 -22.85L-14.8 -22.9M-13.4,-21.9L-13.35 -21.95L-13.45 -21.95L-13.4 -21.9M-13.4,-22.65L-13.35 -22.65L-13.3 -22.7L-13.4 -22.65M-14.7,-19.9L-15.3 -20.15L-15.3 -20.1L-15.35 -20.1L-15.75 -20.2L-15.25 -20.5L-15.5 -20.9L-15.6 -20.8L-15.55 -20.75L-15.55 -20.7L-15.65 -20.75L-15.75 -20.55L-15.8 -20.5L-15.95 -20.1L-15.7 -20.05L-14.25 -19.6L-14.7 -19.9M-16.65,-23.1L-17.3 -22.75L-17.55 -22.2L-17.4 -21.85L-17.25 -22.1L-16.95 -22.8L-16.65 -23.1M-17.9,-22.45L-17.95 -22L-17.65 -20.95L-17.55 -21.3L-17.55 -21.4Q-17.9 -21.7 -17.9 -22.3L-17.9 -22.45" />
</g>
</svg>
