<?xml version="1.0" encoding="utf-8"?>
<svg version="1.1" id="Layer_1"
xmlns="http://www.w3.org/2000/svg"
xmlns:xlink="http://www.w3.org/1999/xlink"
width="61px" height="9px"
xml:space="preserve">
<g id="183" transform="matrix(1, 0, 0, 1, 30.3, 4.5)">
<path style="fill:#2C3643;fill-opacity:1" d="M-29.7,-4.5L30.3 -4.5L30.3 -0.5L-29.7 -0.5L-29.7 -1.5L19.7 -1.5L19.7 -3.5L-29.7 -3.5L-29.7 -4.5" />
<path style="fill:#598EAD;fill-opacity:1" d="M-30.3,-1.5L-30.3 -3.5L-29.7 -3.5L19.7 -3.5L19.7 -1.5L-29.7 -1.5L-30.3 -1.5" />
<path style="fill:#663300;fill-opacity:1" d="M-30,0.5L30 0.5L30 4.5L-30 4.5L-30 0.5M-29,3.5L29 3.5L29 1.5L-29 1.5L-29 3.5" />
<path style="fill:#FFCC00;fill-opacity:1" d="M-29,1.5L29 1.5L29 3.5L-29 3.5L-29 1.5" />
</g>
</svg>
