<?xml version="1.0" encoding="utf-8"?>
<svg version="1.1" id="Layer_1"
xmlns="http://www.w3.org/2000/svg"
xmlns:xlink="http://www.w3.org/1999/xlink"
width="34px" height="73px"
xml:space="preserve">
<g id="214" transform="matrix(1, 0, 0, 1, -67.4, -37.35)">
<path style="fill:#D7D7D7;fill-opacity:0.0862745" d="M99.9,46.75L97.05 55Q102.2 61.25 99.55 68.5Q100.9 71 101.1 74.1Q101.6 82.2 98.55 89.65Q96.65 94.35 96.4 99Q96.2 102.05 94.55 104.6Q89.5 112.65 80.5 107.3Q75.8 95.25 81.05 83L73.55 82.55Q70.7 81.9 69.3 79.2Q63.7 68.25 74.55 63.25Q77.35 52.45 82.55 42.35Q84.75 38.1 89.3 37.5Q99.45 36.1 99.9 46.75" />
</g>
</svg>
