<?xml version="1.0" encoding="utf-8"?>
<svg version="1.1" id="Layer_1"
xmlns="http://www.w3.org/2000/svg"
xmlns:xlink="http://www.w3.org/1999/xlink"
width="20px" height="25px"
xml:space="preserve">
<g id="576" transform="matrix(1, 0, 0, 1, 1.3, 0.25)">
<path style="fill:#000000;fill-opacity:1" d="M15,2.6Q17 3 17.35 5Q17.55 6.4 16.95 7.6L17.6 8.2Q18.1 8.65 18.15 9.35L18.15 9.4Q17.45 9.35 16.75 8.8L16.3 8.5L14.9 8.6L16.75 12.3Q17.9 14.9 16.8 17.4L16.5 17.9Q15.3 18.3 14.3 17.6L13.95 17.3L13.9 16.35Q13.85 15.55 14.2 14.95L14.45 14.65L14.3 13.95Q14.15 12.85 13.4 11.95L13 11.7Q10.85 14.55 12.4 17.4Q13.85 20.15 14.2 23.3L14.1 24.5L9.2 24.05L9.3 23.3Q9.45 22.7 9.9 22.25L10.5 21.7L9.75 19.4Q9.15 17.95 8.35 16.75L7.45 16.65Q6.65 17.7 6.55 19.4Q6.45 21.3 6.85 23.1Q7 23.7 6.75 24.15L1.5 24.6L1.4 24.35Q1.25 24.1 1.35 23.6Q1.4 23.1 2.7 22.75Q4 22.35 3.9 21.15L3.75 19.65L3.7 19.2L3.25 18.9L2.4 18.3L2.25 18.2L2.7 17.8L3.35 17.4L3.45 17.3Q3.5 16.55 3.85 15.75L4.25 14.9Q3.65 14.05 2.8 10.7Q2.1 12.15 1.9 13.25L1.85 13.25L2.05 14.5Q2.3 15.4 0.4 15.7Q-1.5 14.95 -1.25 13.8Q-1 12.65 -0.4 12.95L-0.25 11.45L1.05 8.25Q0.9 8.05 1.1 7.8L1.35 7.25L1.95 6.3L2.05 6.3L2.45 6.35L2.8 6.5L2.9 6.55L2.9 6.6L2.7 6.65L2.7 6.7Q4.45 7.95 5.15 9.8Q5.7 10.65 5.85 11.6L7.2 14.15L7.3 14.45L8.05 11.5Q8.4 9.55 9.85 8.2L9.9 8.2L9.95 8.05L10.35 7.55L10.85 7.3L10.95 7.25L11.05 7.25L11.1 7.2L11.75 6.9L11.85 6.8L12 6.85Q11.8 6.1 11.95 5.05Q12 4.55 12.35 4.2L12 3.8Q12.2 3.25 12.8 3.05L15 2.6" />
<path style="fill:#7E0000;fill-opacity:1" d="M1.3,-0.25Q2.35 0.9 2.95 2.4L3.95 5.45L3.95 5.55Q3.25 5.35 3.05 4.45L2.45 2.9L2.4 2.75Q2.35 2.6 2.25 2.75L2.05 2.85L1.85 2.85Q1.4 2.5 1.25 1.9L0.9 0.9L0.85 0.75L1 0.3Q1 0.05 1.15 -0.15L1.3 -0.25M10.3,4.7L8.7 7L8.6 7.05Q8.3 6 8.9 4.55Q9.5 3.25 10.45 2.25L10.65 2.15Q11.2 3.2 10.3 4.7M7.55,10.4L7.25 12.85L7.15 13Q6.7 11.95 6.85 10.6Q6.95 9.3 7.45 8.1L7.55 8.05L7.55 10.4" />
</g>
</svg>
