<?xml version="1.0" encoding="utf-8"?>
<svg version="1.1" id="Layer_1"
xmlns="http://www.w3.org/2000/svg"
xmlns:xlink="http://www.w3.org/1999/xlink"
width="33px" height="4px"
xml:space="preserve">
<g id="768" transform="matrix(1, 0, 0, 1, 28.9, -19)">
<path style="fill:#000000;fill-opacity:0.498039" d="M-9.8,19L-0.3 19.65Q3.55 20.3 3.55 21.05Q3.55 21.8 -0.3 22.25L-9.8 22.7L-19.1 22.05Q-23 21.45 -23 20.7Q-23 19.95 -19.1 19.45L-9.8 19M-28.2,20.55L-26.4 20.2L-24.6 20.45L-24.1 20.65L-23.8 21L-23.85 21.3Q-24.1 21.55 -24.6 21.65L-26.4 21.95L-27.7 21.9L-28.2 21.75L-28.9 21.3L-28.9 21.2Q-28.9 20.85 -28.2 20.55" />
</g>
</svg>
