<?xml version="1.0" encoding="utf-8"?>
<svg version="1.1" id="Layer_1"
xmlns="http://www.w3.org/2000/svg"
xmlns:xlink="http://www.w3.org/1999/xlink"
width="25px" height="19px"
xml:space="preserve">
<g id="1240" transform="matrix(1, 0, 0, 1, 21.85, 23.35)">
<path style="fill:#100806;fill-opacity:1" d="M1.5,-14.85L0.5 -18.6L-2.2 -17.05L-11.85 -17.05L-13.35 -15.2L-12.55 -15.15L1.5 -14.85M-13.15,-11.55L-8.65 -5.95L-2.2 -5.95L1.75 -9.9L1.75 -14.2L-13.15 -14.2L-13.15 -13.4L-13.15 -11.55M-13.85,-21.35L-18.85 -20.4L-20.8 -16.85L-21.85 -16.85L-19.15 -21.55L-8.15 -23.35L-6.45 -23.35L1.15 -19.05L2.45 -14.45L2.45 -8.95L2.8 -8.6L-1.2 -5L-8.75 -5L-13.95 -11.15L-13.95 -15.55L-13.1 -16.85L-13.85 -21.35M-0.15,-18.9L-5.9 -22.25L-12.9 -21.45L-12.05 -17.85L-2.2 -17.85Q-1.15 -18.35 -0.15 -18.9" />
<path style="fill:#9F6329;fill-opacity:1" d="M0.3,-17.45L-1.5 -15.75L-11.75 -16L-12.55 -15.15L-13.35 -15.2L-11.85 -17.05L-2.2 -17.05L0.5 -18.6L1.5 -14.85L0.3 -17.45M1.05,-13.4L-13.15 -13.4L-13.15 -14.2L1.75 -14.2L1.75 -9.9L1.05 -13.4" />
<path style="fill:#000000;fill-opacity:0.419608" d="M-20.8,-16.85L-18.85 -20.4L-13.85 -21.35L-13.1 -16.85L-20.8 -16.85M-2.2,-17.85L-12.05 -17.85L-12.9 -21.45L-5.9 -22.25L-0.15 -18.9Q-1.15 -18.35 -2.2 -17.85" />
<linearGradient
id="LinearGradID_447" gradientUnits="userSpaceOnUse" gradientTransform="matrix(0, -0.00450134, 0.00909424, 0, -5.4, -16.1)" spreadMethod ="pad" x1="-819.2" y1="0" x2="819.2" y2="0" >
<stop  offset="0" style="stop-color:#511A16;stop-opacity:1" />
<stop  offset="0.505882" style="stop-color:#6D4414;stop-opacity:1" />
<stop  offset="1" style="stop-color:#511A16;stop-opacity:1" />
</linearGradient>
<path style="fill:url(#LinearGradID_447) " d="M-12.55,-15.15L-11.75 -16L-1.5 -15.75L0.3 -17.45L1.5 -14.85L-12.55 -15.15" />
<linearGradient
id="LinearGradID_448" gradientUnits="userSpaceOnUse" gradientTransform="matrix(-0.00280762, -0.00862122, 0.00970459, -0.00315857, -6.65, -13.05)" spreadMethod ="pad" x1="-819.2" y1="0" x2="819.2" y2="0" >
<stop  offset="0" style="stop-color:#511A16;stop-opacity:1" />
<stop  offset="0.505882" style="stop-color:#6D4414;stop-opacity:1" />
<stop  offset="1" style="stop-color:#511A16;stop-opacity:1" />
</linearGradient>
<path style="fill:url(#LinearGradID_448) " d="M-13.15,-13.4L1.05 -13.4L1.75 -9.9L-2.2 -5.95L-8.65 -5.95L-13.15 -11.55L-13.15 -13.4" />
<path style="fill:#7EFFED;fill-opacity:1" d="M0.35,-11.15L-12.2 -11.15L-12.2 -12.65L0.35 -12.65L0.35 -11.15" />
</g>
</svg>
