<?xml version="1.0" encoding="utf-8"?>
<svg version="1.1" id="Layer_1"
xmlns="http://www.w3.org/2000/svg"
xmlns:xlink="http://www.w3.org/1999/xlink"
width="75px" height="9px"
xml:space="preserve">
<g id="779" transform="matrix(1, 0, 0, 1, 9.4, -29.8)">
<path style="fill:#3A1D0F;fill-opacity:0.85098" d="M58.1,36.05Q59.15 35.5 60.3 35.1L60.4 35.1L63.45 36.4L64.75 37.25Q60.25 38.5 55.5 38Q56.55 36.85 58.1 36.05M11.85,33.9Q10.5 35.35 12.25 36.85L13.1 36.85Q13.6 36.2 14.75 36.25L14.95 36.25L15.3 36.3L16.05 35.75L16.4 35.7L16.5 36.05L16.4 36.65L16.45 37.05L16.45 37.15L22.6 37.35L22.85 37.55L15.35 37.45L13.75 37.7L13.1 37.45Q2.5 37.45 -7.95 37.9Q-8.9 37.95 -9.4 37.35Q-5.95 37.5 -2.7 35.75Q-0.35 34.45 2.1 33.7L2.15 33.9L2.05 34.25L1.9 34.7L1.9 34.75L2.3 34.95L2.35 35.15Q5.75 34.65 7.45 31.6L8.6 29.8Q11.85 30.2 12.15 32.5L12.15 32.75L12.15 32.95L12.15 33.35L11.85 33.9M20,35.5L20.8 35.15L21.3 35.25L21.5 35.5L21.4 35.7L21 35.95L21.05 35.95Q21 37.5 18.7 36.75L18.55 36.55Q19.05 35.85 20 35.5" />
</g>
</svg>
