<?xml version="1.0" encoding="utf-8"?>
<svg version="1.1" id="Layer_1"
xmlns="http://www.w3.org/2000/svg"
xmlns:xlink="http://www.w3.org/1999/xlink"
width="529px" height="529px"
xml:space="preserve">
<g id="343" transform="matrix(1, 0, 0, 1, 264.1, 264.1)">
<radialGradient
id="RadialGradID_323" gradientUnits="userSpaceOnUse" gradientTransform="matrix(0.324295, 0, 0, 0.324295, 0.05, 0)" spreadMethod ="pad" cx="0" cy="0" r="819.2" fx="0" fy="0" >
<stop  offset="0"  style="stop-color:#220000;stop-opacity:0.6" />
<stop  offset="0.831373"  style="stop-color:#1C0000;stop-opacity:0" />
</radialGradient>
<path style="fill:url(#RadialGradID_323) " d="M15.7,-263.9L14.6 -241.65L13.6 -222.65L10.95 -170.75L9.75 -147.75L8.85 -130.3Q6.6 -87.3 4.25 -50.75L2.8 -29.6L0.95 -4.05L11.45 -50.75L33.15 -147.75L38.3 -170.75L49.95 -222.65L54.2 -241.65L58.1 -259.1L82.15 -252.65L82.2 -252.6L82.4 -252.55L82.4 -252.45L82.6 -252.4L82.6 -252.35L82.85 -252.25L79.45 -241.65L73.3 -222.65L56.55 -170.75L49.1 -147.75L41.7 -124.95L21.25 -62.25L17.5 -50.75L2.15 -4.55L123.1 -234.1L144.7 -221.6L144.65 -221.6L144.8 -221.55L144.8 -221.5L144.9 -221.45L144.85 -221.45L144.95 -221.35L144.95 -221.3L145.05 -221.25L145.05 -221.2L145.25 -221.1L145.35 -221L112.85 -170.75L97.95 -147.75L72.6 -108.7Q52.45 -77.65 34.55 -50.75L17 -24.5L2.8 -3.6L179.55 -194.5L197.15 -176.9L197.1 -176.85L197.25 -176.75L197.2 -176.75L197.35 -176.55L197.3 -176.5L197.55 -176.25L197.5 -176.2L197.6 -176.1L98.3 -86.5L58.35 -50.75L22.8 -19.55L3.7 -3L223.35 -141.4L235.85 -119.8L235.8 -119.8L235.85 -119.65L235.9 -119.55L235.85 -119.55L235.95 -119.45L235.9 -119.4L235.95 -119.3L235.9 -119.3L236 -119.05L236.1 -118.95L116.9 -58.05L102.55 -50.75Q61.25 -29.8 26.7 -12.95L4.7 -2.3L252.5 -79.05L258.95 -55L258.9 -55L258.95 -54.85L258.95 -54.75L258.9 -54.75L258.95 -54.6L258.9 -54.6L258.9 -54.45L258.95 -54.35L258.9 -54.35L258.95 -54.25L258.95 -54.1L254.15 -53.05L243.4 -50.75L243.15 -50.7L128.1 -26.15Q73.5 -14.55 29.3 -5.9L3.05 -0.85L264.15 -11L264.15 14.1L264.1 14.1L264.1 14.35L264.05 14.35L264.05 14.45L264 14.45L264 14.6L263.95 14.6L263.95 14.85L254.15 14.35L243.15 13.8L174.15 10.25L130.35 8L29.6 1.95L6.1 0.25L257.8 57.4L251.35 81.45L251.3 81.55L251.25 81.55L251.25 81.65L251.2 81.8L251.15 81.8L251.1 81.9L251.05 81.85L251 82.1L250.95 82.15L250.95 82.25L174.05 57.35L123.65 41Q72.6 24.45 31.15 10.25L27.95 9.15L2.35 0.25L234.05 122.3L221.6 143.9L221.6 143.85L221.5 143.95L221.45 143.95L221.4 144.1L221.4 144.05L221.35 144.15L221.3 144.15L221.25 144.25L221.2 144.25L221.15 144.35L221.1 144.3L221.05 144.4L221 144.55L108.65 71.8L86.5 57.35L24.45 16.2L15.7 10.25L4.8 2.85L194.45 178.45L176.75 196.15L176.7 196.15L176.65 196.2L176.6 196.2L176.5 196.3L176.45 196.25L176.3 196.4L176.25 196.35L176.1 196.55L86.4 97.2L50.8 57.35L19.5 21.7L9.6 10.25L1.5 0.85L141.3 222.7L119.65 235.2L119.65 235.15L119.45 235.25L119.4 235.2L119.3 235.3L119.25 235.25L119.15 235.35L119.15 235.3L119.05 235.35L119 235.35L118.95 235.4L118.95 235.35L118.8 235.45L112.1 222.3L57.9 116.3L28.2 57.35L12.8 26.05L5.15 10.25L2.65 5.1L78.95 251.4L54.85 257.85L54.85 257.8L54.6 257.85L54.6 257.8L54.5 257.85L54.5 257.8L54.35 257.85L54.2 257.85L54.2 257.8L54.15 257.85L54.1 257.8L53.95 257.9L46.35 222.3L25.95 127.05Q18.05 89.8 11.55 57.35L5.75 28.15L2.3 10.25L0.7 1.8L1.05 10.25L3 57.35L9.8 222.3L11.5 264.15L-13.45 264.15L-13.45 264.1L-13.65 264.1L-13.65 264L-13.9 264L-13.9 263.95L-14.15 263.95L-12.05 222.3L-7.3 130.35L-3.8 64.5L-3.4 57.35L-0.7 10.25L-0.3 3.8L-57.65 256.8L-81.9 250.25L-81.85 250.25L-82 250.2L-82 250.15L-82.1 250.15L-82.25 250.1L-82.2 250.05L-82.35 250L-82.35 249.95L-82.4 249.95L-82.55 249.9L-73.65 222.3L-41.4 122.6Q-30.05 87.7 -19.8 57.35L-9.45 26.9L-3.7 10.25L-1.15 3L-4.95 10.25L-29.6 57.35L-116.05 222.3L-122.3 234.25L-143.9 221.75L-143.9 221.7L-144.1 221.6L-144.05 221.5L-144.25 221.4L-144.25 221.35L-144.4 221.25L-71.7 108.95L-38.15 57.35L-35.75 53.65L-7.2 10.25L-2 2.45L-9.15 10.25L-52.55 57.35L-178.75 194.35L-196.4 176.7L-196.35 176.65L-196.5 176.45L-196.45 176.4L-196.6 176.25L-196.75 176.05L-97.4 86.4L-65.05 57.35L-48.35 42.35L-12.45 10.25L-2.8 1.75L-16.2 10.25L-90.55 57.35L-223.35 141.5L-235.8 119.85L-235.75 119.85L-235.9 119.65L-235.8 119.6L-235.9 119.4L-235.9 119.35L-236 119.15Q-176.55 88.7 -116.85 58.3L-115 57.35L-58.1 28.4L-22.1 10.25L-2.8 0.65L-22.6 6.85L-184.2 57.35L-252.2 78.6L-258.65 54.5L-258.6 54.45L-258.65 54.2L-258.55 54.2L-258.65 53.95L-258.6 53.95L-258.65 53.75L-220.8 45.65L-127.8 25.75L-63.3 12.1L-22.6 3.6L-4.75 0L-22.6 0.75L-220.8 8.95L-264.1 10.7L-264.1 -14.25L-264.05 -14.25L-264.05 -14.5L-263.95 -14.5L-263.95 -14.7L-263.9 -14.7L-263.9 -14.95L-220.8 -12.75L-130.3 -8.15L-64.45 -4.65L-22.6 -2.3L-1.8 -1L-22.6 -5.65L-220.8 -50.15L-258.05 -58.5L-251.6 -82.6L-251.55 -82.5L-251.45 -82.8L-251.4 -82.75L-251.35 -83L-251.3 -83L-251.25 -83.25L-220.8 -73.4L-123.95 -42L-61.2 -21.6L-22.6 -8.85L-4.7 -2.85L-22.6 -12.2L-220.8 -116.05L-234.25 -123.1L-221.8 -144.7L-221.75 -144.65L-221.65 -144.85L-221.55 -144.8L-221.45 -145L-221.4 -145L-221.25 -145.2L-220.8 -144.9L-109 -72.5L-53.7 -36.5L-22.6 -16.15L-1.65 -2.3L-22.6 -21.55L-159.65 -147.75L-183.55 -169.75L-194.4 -179.75L-176.75 -197.4L-176.55 -197.55L-176.5 -197.5L-176.35 -197.65L-176.3 -197.6L-176.1 -197.8L-151.65 -170.75L-130.9 -147.75L-86.45 -98.5L-42.4 -49.4L-22.6 -27.3L-3.15 -5.35L-22.6 -36.05L-93.35 -147.75L-107.95 -170.75L-140.85 -222.65L-141.65 -223.9L-120.05 -236.4L-120 -236.35L-119.85 -236.5L-119.8 -236.4L-119.55 -236.55L-119.55 -236.45Q-119.4 -236.5 -119.3 -236.6L-112.15 -222.65L-85.6 -170.75L-73.85 -147.75L-58.45 -117.5L-28.55 -58.7L-22.6 -46.95Q-5.8 -13.75 -0.35 -2.6L-15.4 -50.75L-45.7 -147.75L-52.85 -170.75L-69.1 -222.65L-75.05 -241.65L-78.7 -253.3L-54.4 -259.75L-54.4 -259.65L-54.1 -259.7L-54.1 -259.65L-53.9 -259.75L-50 -241.65L-45.9 -222.65L-34.8 -170.75L-29.9 -147.75L-25.9 -128.9L-12.25 -64.4L-9.35 -50.75L-0.15 -6.1L-10.1 -264.1L14.95 -264.1L14.95 -264.05L15.2 -264.05L15.2 -264L15.3 -264L15.3 -263.95L15.55 -263.95L15.55 -263.9L15.7 -263.9" />
<path style="fill:#665954;fill-opacity:0.298039" d="M12.1,12.05Q7.4 16.8 0.7 16.8Q-6 16.8 -10.75 12.05Q-15.5 7.3 -15.5 0.65Q-15.5 -6.05 -10.75 -10.8Q-6 -15.55 0.7 -15.55Q7.4 -15.55 12.1 -10.8Q16.9 -6.05 16.9 0.65Q16.9 7.3 12.1 12.05" />
</g>
</svg>
