<?xml version="1.0" encoding="utf-8"?>
<svg version="1.1" id="Layer_1"
xmlns="http://www.w3.org/2000/svg"
xmlns:xlink="http://www.w3.org/1999/xlink"
width="20px" height="22px"
xml:space="preserve">
<g id="1274" transform="matrix(1, 0, 0, 1, 2.1, 4.05)">
<path style="fill:#7EF0FF;fill-opacity:1" d="M4.75,-0.15Q2.75 0.3 2.55 0.65L2.7 1.45L3.95 1.15L4.95 0.95L5.4 1L5.45 1.25L4.95 2.25Q4.4 2.95 4.4 3.35L4.6 4.85Q4.6 5.4 4.95 5.65L5.2 5.8L6.05 6L6.75 6L6.7 3.8L6.8 3.15L6.95 2.85L7.2 2.55L7.95 1.95Q9 1.25 9 0.75Q9 -0.25 8.3 -0.7Q7.6 -1.15 7.6 -1.75L7.7 -2.2L8.55 -2.9L8.65 -3.5Q8.6 -3.9 9 -4.05L11.6 -3.15L12.65 -3.1L15 -2.1L15.75 -1.45L15.75 -0.9L15.45 0.05L13.65 0.7L16 3.05Q16 3.65 15.6 3.7L14.9 3.7L14.5 3.4L15.45 3.15L13.05 0.75Q13.05 0.25 14.15 0.05Q15.25 -0.2 15.25 -0.9Q15.25 -1.6 12.85 -2.5L9.8 -3.5L9.25 -3.5L9.35 -3.15Q9.35 -2.8 8.75 -2.35L8.1 -1.7Q9.45 -0.4 9.45 0.55Q9.45 1.1 8.55 1.95L8.2 2.35Q8.7 2.4 9.1 3.2L9.55 4.25L8.75 3.45L8.15 2.8Q7.4 2.8 7.35 4.05L7.45 5.3Q7.75 6.6 6.5 6.6Q5.5 6.6 4.9 6.2L4.3 7.4L4.05 9.25L4.65 10.5L3.4 11.1L1.9 11.4Q0.45 11.4 0.55 9.8L-0.5 10.35L-1.35 10.35Q-2.1 9.8 -2.1 7.55Q-2.1 6.8 -1.15 6.35L0.85 5.3Q1.1 4.3 2.1 5.2Q2.85 5.9 3.2 6.6L2.8 6.85L2 6.1L1.35 5.3Q1.3 5.65 -0.15 6.45Q-1.6 7.2 -1.6 7.5L-1.3 9.8L-1.25 9.85Q-0.45 9.95 0.05 9.55L0.65 9.05Q0.95 9.05 1.15 9.8L1.55 10.85L2.2 10.85Q3.6 10.35 3.75 10.1L3.65 9.2Q3.85 6.45 4.45 5.85L4.05 5.1L3.85 3.3Q3.85 2.95 4.15 2.4L4.7 1.55L4.7 1.5L2.85 2.05Q2.25 2.05 2 0.6Q2 0.25 3.1 -0.25L4.75 -0.3L4.75 -0.15M15.65,5.85L15.4 6.6Q15.4 6.9 16.1 7.25Q16.9 7.7 17.15 8.2L15.95 8.95L15.05 9.2L14.95 9.2L14.45 9.9Q16.1 10.55 16.7 11.25Q17.2 11.85 17.2 12.85L17.15 13.1L16.9 13.15Q16.75 13.15 16.5 12.35L16.1 11.35L14.75 10.8Q13.75 10.4 13.75 10.05L14.2 9.4L14.55 8.85L14.55 8.7L14.6 8.7L14.65 8.45L14.6 8.2L14.25 8.05L13.55 8.05Q13.75 8.5 13.2 9Q12.55 9.55 11.25 9.75Q10.1 9.9 9.2 10.55L7.95 11.45L7.8 11.2Q7.8 10.4 10.45 9.55Q13.05 8.65 13.05 8.15L12.95 7.95L12.8 7.7Q12.8 7.2 14 7.5Q15.15 7.8 15.15 8.4L15.1 8.8L16.3 8.15L15.2 7.4Q14.85 7 14.85 6.65Q14.85 5.85 15.5 5.1Q16.35 4.1 17.5 4.75L17.55 4.7L17.6 4.85L17.35 5.2L16.45 5.15Q16 5.15 15.65 5.85M11.3,11.85L10.95 12.65Q12.5 12.9 13.15 13.8Q13.9 14.85 14.65 15.15L14.5 15.4L14.2 15.5Q13.4 15.5 13.05 14.9L12.65 14.05Q11.95 13.3 11.05 13.15Q10.45 13.05 10.45 12.65Q10.45 12.35 10.75 11.8L11.05 10.95Q11.05 10.4 9.95 10.25L11.25 10.5L11.45 11.05L11.3 11.85M4.95,10.15L6.2 10.1Q6.7 10.1 7.05 10.35Q7.65 10.7 7.65 11.1Q7.65 12.4 5.85 13.35L7.8 14.8L9.2 16.1L8.75 16.7L7.65 17.15Q7.4 17.05 7.4 16.75Q7.4 16.3 8.45 15.9L8.45 15.85L6.6 14.6L5.15 13.35L6.2 12.45Q7.25 11.65 7.25 11.1Q7.25 10.15 5.05 10.45L4.95 10.15" />
</g>
</svg>
