<?xml version="1.0" encoding="utf-8"?>
<svg version="1.1" id="Layer_1"
xmlns="http://www.w3.org/2000/svg"
xmlns:xlink="http://www.w3.org/1999/xlink"
width="131px" height="97px"
xml:space="preserve">
<g id="399" transform="matrix(1, 0, 0, 1, 29.95, 62.1)">
<path style="fill:#333333;fill-opacity:0.278431" d="M18.1,-62.1Q18.7 -57.65 18.8 -53.05Q18.95 -48.4 20.15 -44.15Q21.4 -39.65 19.55 -35.4Q18.25 -32.45 17.85 -29.25Q17.45 -28.95 17.4 -29.45L17.4 -30L17.3 -30.55L16.95 -31.1Q18.45 -35.1 18.15 -39.6Q17.8 -43.7 17.85 -47.9L17.6 -56.2Q17.45 -59.55 18.1 -62.1M36.95,-34.3L36.7 -34.25L36.4 -34.35L36 -34.4L35.3 -34.5L35.1 -34.6L35.15 -34.8L35.25 -34.95L35.55 -35.3L36 -35.6L36.4 -35.75Q37 -37.1 38.45 -37.55Q40 -38.05 41.4 -38.85Q43 -39.8 44.75 -40.3L45.05 -40.4Q45.75 -40.4 45.75 -39.7Q45.8 -39.05 45.05 -38.75L44.1 -38.25L43.1 -37.7L42.75 -37.55Q42.25 -36.65 41.25 -36.35L39.05 -35.5L37.45 -34.65L36.95 -34.3M3.9,-38.55Q5.05 -38.25 5.6 -37.25L5.45 -36.7L4.3 -35.55L4.15 -35.4L4 -35.2Q3.55 -34.65 2.9 -34.4L1.65 -34.45L1.25 -34.7L-6.15 -34.45L-6.3 -34.5Q-7.9 -34.8 -8.7 -36.1Q-9.15 -36.85 -9 -37.8L-8.85 -38L-8.1 -38.7L-6.7 -39.7L-6.65 -39.8Q-6.3 -40.25 -5.75 -40.5L-5.5 -40.55L-2.5 -40.05L0.8 -39.4L3.9 -38.55M1.15,-13.55L3.15 -13.65Q3.85 -13.6 4.25 -13.15L4.95 -12.6L5 -12.45L5.05 -12.25L5.1 -11.9L5.1 -11.5L5.05 -11.35L5 -11.15L3.85 -10.05L3.6 -9.9L0.75 -9.65Q-0.8 -9.95 -1.85 -11.1L-1.85 -12L-1.75 -12.2L-1.65 -12.35L-1.4 -12.7L-0.85 -13.25L-0.25 -13.65L0 -13.7L1.15 -13.55M2.05,-0.85L3.15 -0.05L3.7 0.75L3.7 0.95L3.7 1.1L3.65 1.3L3.65 1.5L3.65 1.65L3.6 2.05L3.5 2.25L3 2.4L-5.95 2.15L-6.45 2.05L-6.55 1.85Q-6.7 1.05 -6.2 0.5L-4.95 -0.6Q-3.4 -1.65 -1.5 -1.45L0.7 -1.3L2.05 -0.85M16.05,-9.1L16.25 -8.55Q16.2 -7.2 15 -6.65Q13.25 -5.9 11.5 -7.1L10.85 -7.8Q10.6 -8.35 10.65 -8.9L10.65 -9.1Q10.85 -9.7 11.45 -9.65L13.15 -9.75L13.45 -9.85L15 -9.75L15.5 -9.65L16.05 -9.1M65.25,-37.9Q68.6 -38.8 71.2 -37.45Q72.85 -36.65 74.65 -36Q78.5 -34.7 76.55 -31.95Q75.7 -30.8 74.2 -30.4Q71.9 -29.8 70.15 -31.2L69.75 -31.15Q66.35 -30.25 63.8 -32.3Q63.1 -32.9 62.2 -33.05Q60.9 -33.3 60.2 -34.25L60.25 -34.4Q60.35 -35.2 61.15 -35.55L62.25 -36.25L63.1 -36.9L64.65 -37.7L65.25 -37.9M47.8,-33.6Q49.15 -34.95 51.5 -34.9L51.95 -34.55L52.3 -34.25L52.8 -33.75L53.2 -33.4L53.55 -33.1Q53.4 -30.55 50.8 -29.4Q48.35 -28.35 46 -27Q43.65 -25.65 41.5 -24Q40.45 -23.2 39.35 -23.1Q40.55 -25.25 42.7 -27.15Q44.35 -28.6 45.4 -30.45Q46.4 -32.15 47.8 -33.6M56.15,-14.3L59.6 -14.25L59.9 -14.15L60.1 -13.95L60.45 -13.4L60.55 -12.7L60.55 -11.75L60.5 -10.85L60.45 -10.65L60.3 -10.45L59.85 -9.85L59.1 -8.9Q58.5 -8.35 57.65 -8.45L57.3 -8.5L47 -9.8L46.9 -10L46.85 -10.15L46.85 -10.35L46.85 -10.55L46.85 -10.7L46.85 -11.1L46.85 -11.25L47.05 -11.45L47.85 -12.1L49.55 -13.4L49.5 -13.6L49.65 -13.7L55.85 -14.2L56.15 -14.3M72.35,-18.8L71.6 -18.9Q74.05 -21.35 78.6 -22.3L84.75 -23.6Q85.35 -23.75 85.85 -24.1Q86.85 -24.75 88 -24.75L89.4 -25.05L90.15 -25L90.6 -24.8L90.95 -24.45L91.05 -24.15Q89.75 -22.05 86.75 -21.35Q82 -20.3 77.2 -19.95L75.45 -19.75L72.35 -18.8M82.4,14.2L82.35 14.35Q80.3 15.2 78.5 14.4Q76.2 13.35 74.1 12.1Q73.3 11.65 73.9 10.85Q74.6 9.95 75.65 9.45L75.85 9.4L77.85 9.55Q78.8 10.1 79.9 10.45Q80.9 10.8 81.7 11.5Q82.5 12.2 83 13.05L82.95 13.25L82.9 13.45L82.8 13.6L82.65 13.8L82.45 14L82.4 14.2M-8.15,-37.2L-7.9 -37.45Q-7.75 -37.7 -7.9 -37.75L-8.1 -37.75L-8.25 -37.35Q-8.35 -37 -8.15 -37.2M-12.45,-28.3L-13 -26.85Q-13.65 -26.5 -14.45 -26.4L-20.5 -26.1Q-21.35 -26.15 -21.95 -26.7L-22.35 -27.6Q-22.75 -28.85 -21.7 -29.65Q-19.7 -31.1 -17 -30.8L-15.85 -30.95L-14.35 -30.75Q-13.55 -30.55 -12.95 -30Q-12.25 -29.3 -12.45 -28.3M-27.25,-8.25L-27.15 -8.1L-27.1 -8L-26.85 -7.8L-26.2 -7.7L-22.75 -7.8Q-21.65 -7.15 -21.15 -5.95Q-20.1 -3.35 -23.2 -1.95Q-26.4 -0.5 -28.9 -2.95Q-30.55 -4.55 -29.55 -6.55Q-28.85 -7.9 -27.6 -8.45L-27.25 -8.25M-15.9,-5.05L-15.85 -5.1Q-14.15 -5.9 -12.15 -5.6L-11.85 -5.65L-10.4 -5.55L-9.9 -5.5L-8.4 -5.25Q-7.6 -5.1 -7 -4.55L-6.3 -3.8L-6.3 -3.3L-6.55 -2.35Q-6.8 -0.9 -8.1 -0.6L-13.75 0.05L-13.95 -0.15L-14.15 -0.5L-14.25 -0.65L-14.75 -1.4L-15.75 -2.25L-16.45 -2.9L-16.45 -3.05L-16.45 -3.25L-16.45 -3.45L-16.45 -3.65L-16.45 -3.8L-16.45 -4L-16.45 -4.2L-16.45 -4.35L-16.45 -4.55L-16.25 -4.75L-15.9 -5.05M-17.5,19.4L-17.5 19.6L-17.5 19.75L-17.55 19.95L-17.65 20.15L-17.75 20.35L-17.8 20.5L-18 20.8L-18.3 21Q-19.65 22.1 -21.3 22.55L-27.8 22.35L-27.8 22.15Q-27.9 21.6 -27.55 21.25L-26.05 19.85Q-25.2 19.05 -24.15 18.6L-23.65 18.45L-19.05 18.55Q-18.15 18.55 -17.65 19.2L-17.5 19.4M-3.4,30.1L-5.2 30.35L-6.2 31.3L-8.2 32.85Q-9.9 34.05 -11.65 33.1L-12.9 32.3L-14 30.85L-13.9 30.3L-13.35 29.45L-12.85 28.85Q-12.1 28.15 -11.1 27.9L-9.4 27.25L-8.4 26.9L-8.4 26.85L-7.1 27L-5.4 27.35L-3.65 27.95Q-2.75 28.3 -2.15 28.9L-2.05 29.05L-2.1 29.25L-2.25 29.4L-2.45 29.65L-2.75 29.85L-3.4 30.1" />
<path style="fill:#333333;fill-opacity:0.298039" d="M7.9,-1.6L8.1 -1.55L8.35 -1.4L8.5 -1.1L8.55 -0.75L8.6 -0.35L8.6 -0.25Q9.45 0.85 9.25 2.5Q9.05 4.15 9.2 5.65Q9.4 7.2 8.3 8.35L6.65 9.85L6.25 9.5L6.1 9L6.2 8.2L6.2 7.9L6.1 7.7L6.8 5.5L7 2.9L6.9 0.5Q6.8 -0.7 7.65 -1.5L7.9 -1.6M37.7,-0.15Q39.8 -0.15 41.65 1Q42.7 1.6 43.9 1.4L48.15 1.55Q50.15 2 52 3L52.4 3.3L52.45 3.45L52.5 3.65L52.5 3.85L52.5 4L52.5 4.2L52.45 4.4L52.4 4.55Q51.35 5.35 50 5.75Q48.4 6.2 47.05 7.15L46.8 7.3Q43.75 9.45 40 8.4L39.65 8.25L39.4 8.05L39.3 7.9L39.2 7.7L39.05 7.5L38.95 7.35L38.75 7.2L36.7 6.45L35.65 5.7L34.65 4.95L34.45 4.8L34.4 4.65L34.3 4.45L34.2 4.25L34.2 4.1L34.2 3.9L34.25 3.75L34.6 2.8L34.9 1.95L35.75 1.2L36.1 0.95L36.3 0.8L37.5 -0.05L37.7 -0.15" />
<path style="fill:#333333;fill-opacity:0.298039" d="M96.45,30.1Q95.85 29.8 95.85 29.35Q95.85 28.8 96.3 28.7L97.3 28.8L98.4 29.05L99.35 29.25Q100 29.35 100.4 29.9L100.7 30.25L100.7 30.45L100.7 30.6L100.7 30.8L100.65 31L100.6 31.15L100.55 31.35L100.3 31.55L100.05 31.75L99.95 31.8L98.6 31.85L98.25 31.5L97.5 30.85L96.45 30.1M61.1,19.95L61.85 20.15L62.6 20.4L63.15 20.9L63.55 21.65Q64.8 21.6 65.5 22.65L66.7 23.95L68.25 25.6L69.15 27.25L69.35 27.55L70.5 28.05Q71.25 28.35 71.65 29.1L72.1 30L72.2 31.1L72.25 31.85L72.45 32.05L72.6 32.2L72.75 32.4L72.85 32.6L72.85 32.75Q70.65 35.5 67.55 33.75L60.7 29.95Q57.5 28.25 56.65 25.25L56.55 24.35L56.65 24.15L57 23.8L57.4 23.45L58.3 22.9L58.75 22.6L58.9 22.4L58.95 22.25L58.95 22.05L58.95 21.9L59 21.7L59.2 21.5L59.55 21.15L60 20.8L60.65 20.2Q60.8 19.95 61.1 20L61.1 19.95" />
</g>
</svg>
