<?xml version="1.0" encoding="utf-8"?>
<svg version="1.1" id="Layer_1"
xmlns="http://www.w3.org/2000/svg"
xmlns:xlink="http://www.w3.org/1999/xlink"
width="24px" height="19px"
xml:space="preserve">
<g id="1247" transform="matrix(1, 0, 0, 1, 20.55, 23.15)">
<path style="fill:#100806;fill-opacity:1" d="M-13.75,-21.15L-18.2 -19.9L-19.25 -18.7L-20.55 -18.7L-18.7 -21L-8.05 -23.15L-6.35 -23.15L1.25 -18.85L2.55 -14.25L2.55 -8.75L2.9 -8.4L-1.1 -4.8L-8.65 -4.8L-13.85 -10.95L-13.85 -15.35L-12.65 -17.1L-13.2 -18.7L-13.75 -21.15M-13.05,-11.35L-8.55 -5.75L-2.1 -5.75L1.85 -9.7L1.85 -14L-13.05 -14L-13.05 -13.2L-13.05 -11.35M1.6,-14.65L0.6 -18.4L-2.1 -16.85L-11.75 -16.85L-13.25 -15L-12.45 -14.95L1.6 -14.65M-5.8,-22.05L-12.8 -21.25L-11.95 -17.65L-2.1 -17.65Q-1.05 -18.15 -0.05 -18.7L-5.8 -22.05" />
<path style="fill:#9F6329;fill-opacity:1" d="M1.15,-13.2L-13.05 -13.2L-13.05 -14L1.85 -14L1.85 -9.7L1.15 -13.2M0.4,-17.25L-1.4 -15.55L-11.65 -15.8L-12.45 -14.95L-13.25 -15L-11.75 -16.85L-2.1 -16.85L0.6 -18.4L1.6 -14.65L0.4 -17.25" />
<path style="fill:#000000;fill-opacity:0.419608" d="M-19.25,-18.7L-18.2 -19.9L-13.75 -21.15L-13.2 -18.7L-19.25 -18.7M-0.05,-18.7Q-1.05 -18.15 -2.1 -17.65L-11.95 -17.65L-12.8 -21.25L-5.8 -22.05L-0.05 -18.7" />
<linearGradient
id="LinearGradID_455" gradientUnits="userSpaceOnUse" gradientTransform="matrix(0, -0.00450134, 0.00909424, 0, -5.3, -15.9)" spreadMethod ="pad" x1="-819.2" y1="0" x2="819.2" y2="0" >
<stop  offset="0" style="stop-color:#511A16;stop-opacity:1" />
<stop  offset="0.505882" style="stop-color:#6D4414;stop-opacity:1" />
<stop  offset="1" style="stop-color:#511A16;stop-opacity:1" />
</linearGradient>
<path style="fill:url(#LinearGradID_455) " d="M-12.45,-14.95L-11.65 -15.8L-1.4 -15.55L0.4 -17.25L1.6 -14.65L-12.45 -14.95" />
<linearGradient
id="LinearGradID_456" gradientUnits="userSpaceOnUse" gradientTransform="matrix(-0.00280762, -0.00862122, 0.00970459, -0.00315857, -6.55, -12.85)" spreadMethod ="pad" x1="-819.2" y1="0" x2="819.2" y2="0" >
<stop  offset="0" style="stop-color:#511A16;stop-opacity:1" />
<stop  offset="0.505882" style="stop-color:#6D4414;stop-opacity:1" />
<stop  offset="1" style="stop-color:#511A16;stop-opacity:1" />
</linearGradient>
<path style="fill:url(#LinearGradID_456) " d="M-13.05,-13.2L1.15 -13.2L1.85 -9.7L-2.1 -5.75L-8.55 -5.75L-13.05 -11.35L-13.05 -13.2" />
<path style="fill:#7EFFED;fill-opacity:1" d="M0.45,-11.5L-11.35 -11.5L-11.35 -12.5L0.45 -12.5L0.45 -11.5M-9.95,-9.15L-11.25 -10.15L0.3 -10.15L-1.1 -9.15L-9.95 -9.15" />
</g>
</svg>
