<?xml version="1.0" encoding="utf-8"?>
<svg version="1.1" id="Layer_1"
xmlns="http://www.w3.org/2000/svg"
xmlns:xlink="http://www.w3.org/1999/xlink"
width="64px" height="16px"
xml:space="preserve">
<g id="1102" transform="matrix(1, 0, 0, 1, 14.2, 13.6)">
<path style="fill:#2E1803;fill-opacity:1" d="M8.15,-10.75L9.15 -10.75L6.95 -8.55L9.35 -6.15L11.7 -8.55L9.5 -10.75L10.5 -10.75L12.2 -9.05L13.9 -10.75L14.9 -10.75L12.7 -8.55L15.1 -6.15L17.5 -8.55L15.3 -10.75L16.3 -10.75L18 -9.05L19.7 -10.75L20.7 -10.75L18.5 -8.55L20.85 -6.2L23.2 -8.55L21 -10.75L22 -10.75L23.7 -9.05L25.4 -10.75L26.4 -10.75L24.2 -8.55L26.6 -6.15L29 -8.55L26.8 -10.75L27.8 -10.75L29.5 -9.05L31.2 -10.75L32.2 -10.75L30 -8.55L32.4 -6.15L34.75 -8.55L32.55 -10.75L33.55 -10.75L35.25 -9.05L36.95 -10.75L37.95 -10.75L35.75 -8.55L38.15 -6.15L38.25 -6.25L38.25 -5.9L37.4 -5.9L35.25 -8.05L33.1 -5.9L31.65 -5.9L29.5 -8.05L27.35 -5.9L25.85 -5.9L23.7 -8.05L21.55 -5.9L20.15 -5.9L18 -8.05L15.85 -5.9L14.35 -5.9L12.2 -8.05L10.05 -5.9L8.6 -5.9L6.45 -8.05L4.3 -5.9L2.8 -5.9L0.65 -8.05L-1.5 -5.9L-2.9 -5.9L-5.05 -8.05L-7.2 -5.9L-8.7 -5.9L-10.85 -8.05L-13 -5.9L-14 -5.9L-11.35 -8.55L-13.55 -10.75L-12.55 -10.75L-10.85 -9.05L-9.15 -10.75L-8.15 -10.75L-10.35 -8.55L-7.95 -6.15L-5.55 -8.55L-7.75 -10.75L-6.75 -10.75L-5.05 -9.05L-3.35 -10.75L-2.35 -10.75L-4.55 -8.55L-2.2 -6.2L0.15 -8.55L-2.05 -10.75L-1.05 -10.75L0.65 -9.05L2.35 -10.75L3.35 -10.75L1.15 -8.55L3.55 -6.15L5.95 -8.55L3.75 -10.75L4.75 -10.75L6.45 -9.05L8.15 -10.75" />
<path style="fill:#2E1803;fill-opacity:1" d="M34.05,-1.45L36.15 -3.6L-7.55 -3.6L-5.15 1.15L6.2 1.15L8.5 -1.45L34.05 -1.45M34.75,-0.6L9.25 -0.6L6.75 2.2L-5.8 2.2L-8.75 -3.6L-14.2 -3.6L-14.2 -6.45L49.15 -6.45L43.15 -3.6L37.45 -3.6L34.75 -0.6M41.75,-12.95L-13.6 -12.95L-13.6 -12.25L-13.6 -11.3L46.55 -11.4L43.95 -12.25L41.75 -12.95M-13.6,-4.25L42.9 -4.3L44.95 -5.2L46.55 -5.9L-13.6 -5.9L-13.6 -5.2L-13.6 -4.25M49.15,-10.75L-14.2 -10.75L-14.2 -13.6L43.15 -13.6L49.15 -10.75" />
<path style="fill:#C6C6C6;fill-opacity:1" d="M-13.6,-12.25L-13.6 -12.95L41.75 -12.95L43.95 -12.25L-13.6 -12.25M-13.6,-5.2L-13.6 -5.9L46.55 -5.9L44.95 -5.2L-13.6 -5.2" />
<linearGradient
id="LinearGradID_336" gradientUnits="userSpaceOnUse" gradientTransform="matrix(0, -0.00378418, 0.00289917, 0, 17.1, -2.9)" spreadMethod ="pad" x1="-819.2" y1="0" x2="819.2" y2="0" >
<stop  offset="0" style="stop-color:#511A16;stop-opacity:1" />
<stop  offset="0.505882" style="stop-color:#7B5814;stop-opacity:1" />
<stop  offset="1" style="stop-color:#511A16;stop-opacity:1" />
</linearGradient>
<path style="fill:url(#LinearGradID_336) " d="M8.5,-1.45L6.2 1.15L-5.15 1.15L-7.55 -3.6L36.15 -3.6L34.05 -1.45L8.5 -1.45" />
<linearGradient
id="LinearGradID_337" gradientUnits="userSpaceOnUse" gradientTransform="matrix(0.0357361, 0, 0, 0.000579834, 15.65, -4.75)" spreadMethod ="pad" x1="-819.2" y1="0" x2="819.2" y2="0" >
<stop  offset="0" style="stop-color:#646464;stop-opacity:1" />
<stop  offset="0.662745" style="stop-color:#9F9F9F;stop-opacity:1" />
<stop  offset="1" style="stop-color:#5F5F5F;stop-opacity:1" />
</linearGradient>
<path style="fill:url(#LinearGradID_337) " d="M44.95,-5.2L42.9 -4.3L-13.6 -4.25L-13.6 -5.2L44.95 -5.2" />
<linearGradient
id="LinearGradID_338" gradientUnits="userSpaceOnUse" gradientTransform="matrix(0.0367126, 0, 0, 0.000579834, 16.45, -11.8)" spreadMethod ="pad" x1="-819.2" y1="0" x2="819.2" y2="0" >
<stop  offset="0" style="stop-color:#646464;stop-opacity:1" />
<stop  offset="0.662745" style="stop-color:#9F9F9F;stop-opacity:1" />
<stop  offset="1" style="stop-color:#5F5F5F;stop-opacity:1" />
</linearGradient>
<path style="fill:url(#LinearGradID_338) " d="M43.95,-12.25L46.55 -11.4L-13.6 -11.3L-13.6 -12.25L43.95 -12.25" />
</g>
</svg>
