<?xml version="1.0" encoding="utf-8"?>
<svg version="1.1" id="Layer_1"
xmlns="http://www.w3.org/2000/svg"
xmlns:xlink="http://www.w3.org/1999/xlink"
width="59px" height="58px"
xml:space="preserve">
<g id="464" transform="matrix(1, 0, 0, 1, 7.2, 28.1)">
<path style="fill:#1E1E1E;fill-opacity:1" d="M19.5,-19.3L19.35 -19.45L19.15 -19.75L19.1 -20Q19.95 -21.1 20.85 -19.8Q21.4 -19 21.35 -17.95L21.15 -16.85Q22.45 -17.3 23.55 -18.35Q24.65 -19.4 25.3 -20.75L25.6 -21.45L25.3 -22L24.75 -22.75L24.7 -22.95L24.6 -23Q23.8 -23.5 22.7 -23.55L18.75 -23.75Q17.2 -22.55 16.6 -20.55Q16.05 -18.75 15 -17.15L14.35 -16.2L14 -15.25L13.55 -14.8L13.25 -13.95L13.2 -13.15Q15.55 -13.3 17.8 -14.2L18.85 -15.35Q19.95 -16.25 19.85 -17.7L19.85 -19.1L19.5 -19.3M12.45,-13.05Q12.6 -14.55 13.2 -15.9L14.7 -19.15L16 -22.45Q16.7 -24.4 18.45 -25.1Q24.05 -26.25 27.05 -22.65Q28.2 -21.35 27.3 -19.7Q25.25 -16.05 21 -14.75Q19.9 -14.35 18.85 -13.55Q15.85 -11.15 12.45 -12.45L12.45 -13.05M5.1,-19.65L3.9 -19.2L3 -18.6L2.1 -18.35L2.05 -18.05L2 -17.95L1.95 -17.65L1.9 -17.2L1.95 -16.95Q2.65 -16.15 3.65 -16.3L6 -16.35L6.45 -16.85L6.7 -17.35L6.85 -17.8L6.9 -17.95L6.55 -18.45L5.85 -19.2L5.1 -19.65M2.4,-20L3.1 -20.15L3.7 -20.35L4.45 -20.8L4.75 -20.95Q9.05 -19.9 7.05 -16.5Q6.05 -14.8 3.9 -15.25Q-0.4 -16.15 2.3 -19.85L2.4 -20M20.2,-11.6Q21.75 -13.4 24.1 -13.65Q29.75 -13.5 31.85 -8.1Q32.35 -6.85 32.1 -5.65Q31.4 -2.4 27.25 -2.85Q24.4 -3.2 22.1 -1.55L25.45 -1Q27.65 -0.35 28.85 1.65Q29.55 2.8 29.65 4.15Q32.45 4.6 33.6 7.35Q34.2 8.8 33.95 10.1Q36.5 11.25 36.65 14.4Q36.85 17.8 33.95 19.95Q32.3 21.15 30.55 21.45Q31 25.4 27.5 27.45Q21.8 30.7 16.15 27.6Q11.6 31.1 6.9 27Q4.2 24.65 4.45 21L4.55 20.3Q4.05 18.95 4.35 17.45Q3.4 16.45 3.25 15.05Q3 12.5 4.1 10.4Q5.45 7.9 8.25 7.2Q7.4 6.15 7.6 5Q8.1 2.55 9.8 0.8Q11.55 -0.95 13.75 -1.95L14.95 -1.9Q14.8 -2.85 15 -3.95Q15.65 -7.6 18.5 -9.9L20.2 -11.6M13.3,-0.25Q11.5 0.45 10.5 2Q9.5 3.5 9.25 5.35Q9.1 6.35 9.65 7.3L10.5 7.45Q12.4 6.6 13.75 4.95Q15.25 3 14.65 0.6L14.55 0.7L13.5 1.75L12.3 1.65L12.4 1.25L12.75 0.5Q12.9 0.15 13.2 -0.05Q13.65 -0.35 13.3 -0.25M19.6,-2.05Q22.85 -3.85 24.5 -6.35Q24.9 -6.95 24.7 -7.65Q24.45 -8.4 24.7 -9.1L25.05 -9.3L25.3 -9.35Q25.8 -9.3 25.95 -8.8L26.35 -7.6Q26.65 -6.75 26.35 -5.9L26.25 -5.75L27.45 -5.95Q29.15 -6.5 28.8 -8.2Q28.5 -9.75 27.3 -11.05Q27 -11.4 27 -11.85L26.05 -12.05Q24.15 -12.45 22.55 -11.6L21.35 -10.95L21.3 -10.8L21.25 -10.7L21.25 -10.55L21.2 -10.4L21.15 -10.25L21.05 -10.1L19 -8.55Q17.25 -6.9 16.85 -4.55L16.1 -1.8L16.2 -1.8L16.85 -1.7L17.25 -0.95Q18.45 -1.4 19.6 -2.05M39.35,-8.55L40.35 -9.05Q44.8 -8.45 47.25 -5.55L47.6 -5.45L47.8 -5.3L47.95 -5.2L48.1 -4.9L48.15 -4.6L48.15 -4.25L48.6 -3.4L48.75 -3.35L48.9 -3.25L49 -3.1L49.1 -2.8L49.15 -2.55L49.2 -2.25L49.2 -2.1L49.2 -2L49.25 -1.85Q49.6 -0.75 48.4 -0.6L42.7 -1Q40.3 -1.5 38.85 -3.35Q36.85 -5.9 39.35 -8.55M38.35,-24.55Q39.45 -24 41.05 -24.2L42.95 -24.4Q43.9 -24.55 44.35 -25.4Q44.65 -26 44.15 -26.5L44.1 -26.5Q43.4 -25.55 42.2 -25.5L40.05 -25.15L38.35 -24.55M44.3,-28.1Q46.7 -26.3 44.3 -24.1Q42.8 -22.75 40.6 -22.8Q38.45 -22.85 36.65 -23.95Q37.7 -26.25 40.7 -26.45Q42.85 -26.6 44.3 -28.1M43.25,-7.25Q42.05 -8 40.65 -7.8Q38.2 -5.75 40.15 -3.9Q41.15 -2.95 42.65 -2.6L43.75 -2.35Q44.7 -2.9 45.4 -3.9Q45.75 -4.45 45.2 -5Q44.35 -5.8 44.5 -6.45L43.25 -7.25M46.4,-1.55L46.55 -1.5L46.5 -1.6L46.4 -1.55M41.4,19.35Q41.7 16.05 42.85 12.95Q43.75 10.6 46.3 9.85Q53.1 11.6 51.15 18.95Q50.2 22.7 46.7 24.3Q43.5 25.8 42.05 22.8Q41.25 21.15 41.4 19.35M49,17.5Q50.25 15 48.95 12.75Q48.2 11.4 46.65 11.35Q44.25 12.4 43.8 14.95Q43.35 17.3 44.15 19.4Q44.55 20.6 45.55 21.4Q47.8 20.05 49 17.5M26.2,1Q25.15 0.35 23.6 0.25L19.55 0.2L17.45 0.4L17.4 0.85Q17.45 1.35 17.1 2.1L16.95 2.45L16.1 4.7L15.7 5.85L16.05 5.9Q16.8 5.7 17.2 6.25L17.3 6.4Q17.4 6.8 17.1 7.1L15.95 7.9L15.35 8.1Q14.1 9.45 13.45 11.25Q13.05 12.25 13.3 13.1L13.4 13.1L13.95 13.25L14.05 13.4L14.1 13.55L14.1 13.7L14.15 13.85L14.1 14.1L14.05 14.3L14.45 14.6Q15.3 15.15 15.35 16L13.15 15.95Q11.5 16.35 10.7 17.85Q10.05 19 9.8 20.3Q9.5 21.6 8.55 22.35L8.95 22.75L11 24.5L11.5 24.45Q12.9 24.35 13.35 23.15Q13.75 22.15 14.7 21.7L15.65 23.55Q16.95 23.6 18.35 24.85Q18.8 25.25 19.55 25.3Q24.95 25.8 26.65 21.5Q26.85 20.95 26.5 20.3Q25.65 18.85 24.4 17.85L24.4 17.7L24.4 17.55L24.45 17.4L24.55 17.3L25.05 17.05Q25.9 17.1 26.5 17.55L26.55 17.45Q31.3 19.75 33.4 15.25Q34.2 13.5 33 12L32.3 12.65Q28.75 15.65 24.65 13.4Q24.65 13.15 24.8 13.05L24.75 12.9L24.8 12.75L24.8 12.45Q26.85 12.15 28.4 10.95Q29.2 10.3 29.65 9.3L30.05 8.65L29.65 7.25Q29.6 6.7 29.2 6.4Q28.55 7.45 27.15 8.1L24.25 8Q25 6.55 26.65 5.25Q27.7 4.45 27 3.15L26.15 1.55Q25.95 1.15 26.2 1M10.15,11.3L10.05 10.5Q9.95 9.75 9.45 9.2L8.55 8.75Q6.25 9.15 5.25 11.15Q4.3 13.1 4.85 15.25L5.35 16.35L5.4 16.2L5.55 16.05Q6.15 16.2 6.2 16.85L6.4 17.95L6.8 18.7L7.75 18.85Q8.35 17.05 9.1 15.3L10.3 12.05L10.15 11.3M-1.5,-9.8Q2.25 -9 0.85 -5.05Q0.05 -2.9 -0.1 -0.55Q-0.4 3.15 -3.45 0.9Q-4.7 0 -4.2 -1.4Q-2.75 -5.35 -2 -9.5L-1.85 -9.65L-1.7 -9.7L-1.5 -9.75L-1.5 -9.8M-1.05,-8.55L-2.3 -4.9L-3.4 -1.25Q-3.6 -0.1 -2.65 0.8L-1.7 0.9L-1.5 0.8Q-0.55 -0.85 -0.75 -3Q-0.9 -4.85 -0.3 -6.5Q0.3 -8.1 -1.05 -8.55M-5.8,18.4L-6.15 20.2Q-6.3 20.85 -6.05 21.5Q-4.7 21.3 -4.45 19.5Q-4.3 18.15 -5 17.05L-5.4 16.55L-5.8 18.4M-4.85,22.45Q-7.15 23.65 -7.2 21.25Q-7.25 18.55 -6.75 15.85L-5.75 10.7Q-3.3 15.55 -3.85 21.05Q-3.95 21.95 -4.85 22.45" />
<path style="fill:#3A3A3A;fill-opacity:1" d="M19.85,-19.1L19.85 -17.7Q19.95 -16.25 18.85 -15.35L17.8 -14.2Q15.55 -13.3 13.2 -13.15L13.25 -13.95L13.55 -14.8L14 -15.25L14.35 -16.2L15 -17.15Q16.05 -18.75 16.6 -20.55Q17.2 -22.55 18.75 -23.75L22.7 -23.55Q23.8 -23.5 24.6 -23L24.7 -22.95L24.75 -22.75L25.3 -22L25.6 -21.45L25.3 -20.75Q24.65 -19.4 23.55 -18.35Q22.45 -17.3 21.15 -16.85L21.35 -17.95Q21.4 -19 20.85 -19.8Q19.95 -21.1 19.1 -20L19.15 -19.75L19.35 -19.45L19.5 -19.3L19.85 -19.1M5.85,-19.2L6.55 -18.45L6.9 -17.95L6.85 -17.8L6.7 -17.35L6.45 -16.85L6 -16.35L3.65 -16.3Q2.65 -16.15 1.95 -16.95L1.9 -17.2L1.95 -17.65L2 -17.95L2.05 -18.05L2.1 -18.35L3 -18.6L3.9 -19.2L5.1 -19.65L5.85 -19.2M13.2,-0.05Q12.9 0.15 12.75 0.5L12.4 1.25L12.3 1.65L13.5 1.75L14.55 0.7L14.65 0.6Q15.25 3 13.75 4.95Q12.4 6.6 10.5 7.45L9.65 7.3Q9.1 6.35 9.25 5.35Q9.5 3.5 10.5 2Q11.5 0.45 13.3 -0.25Q13.65 -0.35 13.2 -0.05M17.25,-0.95L16.85 -1.7L16.2 -1.8L16.1 -1.8L16.85 -4.55Q17.25 -6.9 19 -8.55L21.05 -10.1L21.15 -10.25L21.2 -10.4L21.25 -10.55L21.25 -10.7L21.3 -10.8L21.35 -10.95L22.55 -11.6Q24.15 -12.45 26.05 -12.05L27 -11.85Q27 -11.4 27.3 -11.05Q28.5 -9.75 28.8 -8.2Q29.15 -6.5 27.45 -5.95L26.25 -5.75L26.35 -5.9Q26.65 -6.75 26.35 -7.6L25.95 -8.8Q25.8 -9.3 25.3 -9.35L25.05 -9.3L24.7 -9.1Q24.45 -8.4 24.7 -7.65Q24.9 -6.95 24.5 -6.35Q22.85 -3.85 19.6 -2.05Q18.45 -1.4 17.25 -0.95M40.05,-25.15L42.2 -25.5Q43.4 -25.55 44.1 -26.5L44.15 -26.5Q44.65 -26 44.35 -25.4Q43.9 -24.55 42.95 -24.4L41.05 -24.2Q39.45 -24 38.35 -24.55L40.05 -25.15M44.5,-6.45Q44.35 -5.8 45.2 -5Q45.75 -4.45 45.4 -3.9Q44.7 -2.9 43.75 -2.35L42.65 -2.6Q41.15 -2.95 40.15 -3.9Q38.2 -5.75 40.65 -7.8Q42.05 -8 43.25 -7.25L44.5 -6.45M45.55,21.4Q44.55 20.6 44.15 19.4Q43.35 17.3 43.8 14.95Q44.25 12.4 46.65 11.35Q48.2 11.4 48.95 12.75Q50.25 15 49 17.5Q47.8 20.05 45.55 21.4M26.15,1.55L27 3.15Q27.7 4.45 26.65 5.25Q25 6.55 24.25 8L27.15 8.1Q28.55 7.45 29.2 6.4Q29.6 6.7 29.65 7.25L30.05 8.65L29.65 9.3Q29.2 10.3 28.4 10.95Q26.85 12.15 24.8 12.45L24.8 12.75L24.75 12.9L24.8 13.05Q24.65 13.15 24.65 13.4Q28.75 15.65 32.3 12.65L33 12Q34.2 13.5 33.4 15.25Q31.3 19.75 26.55 17.45L26.5 17.55Q25.9 17.1 25.05 17.05L24.55 17.3L24.45 17.4L24.4 17.55L24.4 17.7L24.4 17.85Q25.65 18.85 26.5 20.3Q26.85 20.95 26.65 21.5Q24.95 25.8 19.55 25.3Q18.8 25.25 18.35 24.85Q16.95 23.6 15.65 23.55L14.7 21.7Q13.75 22.15 13.35 23.15Q12.9 24.35 11.5 24.45L11 24.5L8.95 22.75L8.55 22.35Q9.5 21.6 9.8 20.3Q10.05 19 10.7 17.85Q11.5 16.35 13.15 15.95L15.35 16Q15.3 15.15 14.45 14.6L14.05 14.3L14.1 14.1L14.15 13.85L14.1 13.7L14.1 13.55L14.05 13.4L13.95 13.25L13.4 13.1L13.3 13.1Q13.05 12.25 13.45 11.25Q14.1 9.45 15.35 8.1L15.95 7.9L17.1 7.1Q17.4 6.8 17.3 6.4L17.2 6.25Q16.8 5.7 16.05 5.9L15.7 5.85L16.1 4.7L16.95 2.45L17.1 2.1Q17.45 1.35 17.4 0.85L17.45 0.4L19.55 0.2L23.6 0.25Q25.15 0.35 26.2 1Q25.95 1.15 26.15 1.55M10.3,12.05L9.1 15.3Q8.35 17.05 7.75 18.85L6.8 18.7L6.4 17.95L6.2 16.85Q6.15 16.2 5.55 16.05L5.4 16.2L5.35 16.35L4.85 15.25Q4.3 13.1 5.25 11.15Q6.25 9.15 8.55 8.75L9.45 9.2Q9.95 9.75 10.05 10.5L10.15 11.3L10.3 12.05M-0.3,-6.5Q-0.9 -4.85 -0.75 -3Q-0.55 -0.85 -1.5 0.8L-1.7 0.9L-2.65 0.8Q-3.6 -0.1 -3.4 -1.25L-2.3 -4.9L-1.05 -8.55Q0.3 -8.1 -0.3 -6.5M-5.4,16.55L-5 17.05Q-4.3 18.15 -4.45 19.5Q-4.7 21.3 -6.05 21.5Q-6.3 20.85 -6.15 20.2L-5.8 18.4L-5.4 16.55" />
</g>
</svg>
