<?xml version="1.0" encoding="utf-8"?>
<svg version="1.1" id="Layer_1"
xmlns="http://www.w3.org/2000/svg"
xmlns:xlink="http://www.w3.org/1999/xlink"
width="15px" height="18px"
xml:space="preserve">
<g id="569" transform="matrix(1, 0, 0, 1, 5.75, -4.45)">
<path style="fill:#1E1E1E;fill-opacity:1" d="M5.8,5.55L6.55 5.7L6.95 5.65L7.35 5.3L7.3 4.95L6.8 5.3L6.25 5.4Q6 5.4 5.8 5.55M6.4,6.15Q5.85 6.15 5.4 5.8Q5.7 5.05 6.4 5L7.35 4.45Q7.95 5 7.35 5.7Q6.95 6.15 6.4 6.15M0.85,5.85Q0.45 6.2 0.3 6.9L-0.15 8L-0.3 8.25L-0.35 8.6L-0.45 8.75L-0.55 9.05L-0.55 9.25L0.6 8.9L0.85 8.55Q1.15 8.25 1.1 7.75L1.1 7.35L1.1 7.25L1 7.25L0.95 7.15L0.95 7.05Q1.15 6.7 1.4 7.15L1.5 7.7L1.45 8.05L2.1 7.6L2.5 6.85L2.55 6.55L2.5 6.4L2.4 6.15L2.35 6.15L2.35 6.05L1.85 5.9L0.85 5.85M3,7.15Q2.5 8.35 1.45 8.75L0.85 9.1Q0.1 9.9 -0.75 9.45L-0.75 9.3L-0.55 8.4L-0.15 7.35L0.15 6.25Q0.3 5.65 0.8 5.4Q2.15 5.05 2.95 6.2Q3.25 6.65 3 7.15M2.5,10.45L2.7 10.65L2.8 11.05L2.8 11.6L2.7 11.65L3.1 11.6Q3.5 11.4 3.4 10.9L3 9.95L2.95 9.7L2.7 9.6Q2.25 9.45 1.85 9.75L1.5 9.95L1.5 10.1L1.45 10.2L1.45 10.25L0.85 10.75Q0.45 11.3 0.4 12L0.15 12.95L0.4 12.95L0.45 13.2L1.1 12.85L2.3 11.45L2.35 11.05L2.35 10.6L2.45 10.55L2.5 10.45M2.85,20.45L2.85 20.05L2.3 19.25L2.3 19.1L2.35 19.1L2.45 19.05Q2.7 19.05 2.85 19.2L2.85 19.1Q4 19.9 4.55 18.4Q4.8 17.85 4.45 17.4L4.3 17.6Q3.4 18.55 2.35 17.85L2.4 17.7L2.4 17.55L3.3 17.05L3.65 16.5L3.7 16.25L3.65 15.85L3.5 15.55L3 16.15L2.25 16.05L2.85 15.2Q3.1 14.95 2.95 14.5L2.7 14L2.7 13.85L2.1 13.6L1.1 13.6L0.5 13.65L0.5 13.8L0.45 14.2L0.4 14.3L0.15 15L0.05 15.4L0.15 15.4L0.45 15.5L0.5 15.55L0.45 15.8L0.15 16.05L0 16.15L-0.5 17.1L-0.5 17.75L-0.4 17.75L-0.35 17.85L-0.35 18.1L-0.2 18.2L0 18.7Q-0.3 18.9 -0.55 18.7Q-1 18.75 -1.15 19.25L-1.4 20.05L-1.75 20.75L-2.75 20.7L-2.75 20.3L-2.75 20.05L-2.75 19.1L-3.05 18.35Q-3.15 17.55 -2.85 16.85Q-2.55 16.05 -1.75 15.85L-1.95 15.15Q-1.85 14.35 -1.4 13.8L-0.4 12.85L-0.15 12.85L-0.15 12.25Q0.05 11.05 0.8 10.3L1.25 9.75Q1.6 9.2 2.25 9.1Q3.65 9.2 4.2 10.9L4.25 11.65Q4.1 12.75 3 12.6Q2.3 12.45 1.7 13L2.55 13.15Q3.1 13.35 3.4 14.1L3.65 14.85Q4.35 15 4.65 15.85L4.7 16.75Q5.35 17.1 5.4 18.2Q5.5 19.25 4.7 19.95L3.85 20.45L3.65 21.75L2.3 21.4L2.85 20.45M0.05,20.95L-0.45 20.85L-0.15 20.55L0.05 20.95M6.35,10.6Q7.5 10.8 8.1 11.75L8.2 11.75L8.2 11.8L8.25 11.8L8.35 11.95L8.35 12L8.35 12.15L8.4 12.45L8.5 12.45L8.55 12.5L8.55 12.6L8.6 12.65L8.6 12.8L8.6 12.95Q8.7 13.3 8.35 13.3L6.95 13.15Q6.3 13 5.95 12.45Q5.5 11.6 6.1 10.75L6.35 10.6M6.4,11.05Q5.8 11.65 6.3 12.25L6.95 12.65L7.2 12.75L7.65 12.25L7.55 11.9L7.35 11.45L7.1 11.15L6.4 11.05M7.95,17.2Q7.3 17.5 7.2 18.35Q7.1 19.1 7.3 19.75L7.65 20.4L8.55 19.2Q8.85 18.35 8.55 17.6Q8.35 17.2 7.95 17.2M7.85,16.7Q9.6 17.25 9.1 19.6Q8.8 20.8 7.95 21.4Q7.15 21.8 6.75 20.9L6.55 19.75L6.95 17.7Q7.2 16.9 7.85 16.7M-2.25,7.55L-2.4 7.35L-2.6 7.2Q-2.75 7.2 -2.9 7.35L-3.15 7.5L-3.35 7.6L-3.4 7.7L-3.4 7.85L-3.4 8L-3.4 8.05Q-3.25 8.35 -3 8.25L-2.4 8.25L-2.3 8.05L-2.25 7.9L-2.15 7.75L-2.15 7.7L-2.25 7.55M-2.75,6.75L-2.7 6.75Q-1.6 7.05 -2.15 8.2Q-2.35 8.75 -2.9 8.6Q-4 8.35 -3.35 7.15L-3.3 7.05L-3.15 7L-3 6.9L-2.75 6.75M-4.45,11.95L-4.75 13.1L-4.6 13.8L-4.35 13.8L-4.3 13.8L-4.05 12.5L-4 11.4Q-3.85 10.9 -4.2 10.75L-4.45 11.95M-4.3,10.4L-4.3 10.3Q-3.35 10.6 -3.7 11.9L-3.9 13.3Q-4 14.5 -4.8 13.8Q-5.1 13.5 -5 13.1L-4.4 10.45L-4.35 10.4L-4.3 10.4M-0.2,13.7L-0.5 14.1L-0.75 14.1L-0.75 13.95L-0.7 13.65L-0.55 13.5L-0.5 13.45L-1.2 14.15L-1.55 15.2L-1.45 15.85L-1.2 15.9L-0.4 15.15Q-0.05 14.5 -0.15 13.7L-0.2 13.7M-2.7,18.4L-2.55 18.75L-2.55 18.7L-2.35 18.95L-2.3 19.3L-2.15 19.55L-1.95 19.6L-1.6 18.45L-1.3 17.4L-1.35 17.1L-1.35 16.9L-1.5 16.5Q-1.6 16.35 -1.75 16.35Q-2.35 16.5 -2.55 17.1L-2.7 18.4M-5.45,20.45Q-5.1 20.4 -5 19.8L-5.2 19.05L-5.3 18.85L-5.4 19.45L-5.45 20.05L-5.45 20.45M-5.6,18.6L-5.4 17Q-4.75 18.55 -4.9 20.3L-5.15 20.75L-5.2 20.8L-5.6 20.85L-5.75 20.4L-5.6 18.6" />
<path style="fill:#3A3A3A;fill-opacity:1" d="M6.25,5.4L6.8 5.3L7.3 4.95L7.35 5.3L6.95 5.65L6.55 5.7L5.8 5.55Q6 5.4 6.25 5.4M1.85,5.9L2.35 6.05L2.35 6.15L2.4 6.15L2.5 6.4L2.55 6.55L2.5 6.85L2.1 7.6L1.45 8.05L1.5 7.7L1.4 7.15Q1.15 6.7 0.95 7.05L0.95 7.15L1 7.25L1.1 7.25L1.1 7.35L1.1 7.75Q1.15 8.25 0.85 8.55L0.6 8.9L-0.55 9.25L-0.55 9.05L-0.45 8.75L-0.35 8.6L-0.3 8.25L-0.15 8L0.3 6.9Q0.45 6.2 0.85 5.85L1.85 5.9M2.45,10.55L2.35 10.6L2.35 11.05L2.3 11.45L1.1 12.85L0.45 13.2L0.4 12.95L0.15 12.95L0.4 12Q0.45 11.3 0.85 10.75L1.45 10.25L1.45 10.2L1.5 10.1L1.5 9.95L1.85 9.75Q2.25 9.45 2.7 9.6L2.95 9.7L3 9.95L3.4 10.9Q3.5 11.4 3.1 11.6L2.7 11.65L2.8 11.6L2.8 11.05L2.7 10.65L2.5 10.45L2.45 10.55M-0.15,20.55L-0.45 20.85L-1.75 20.75L-1.4 20.05L-1.15 19.25Q-1 18.75 -0.55 18.7Q-0.3 18.9 0 18.7L-0.2 18.2L-0.35 18.1L-0.35 17.85L-0.4 17.75L-0.5 17.75L-0.5 17.1L0 16.15L0.15 16.05L0.45 15.8L0.5 15.55L0.45 15.5L0.15 15.4L0.05 15.4L0.15 15L0.4 14.3L0.45 14.2L0.5 13.8L0.5 13.65L1.1 13.6L2.1 13.6L2.7 13.85L2.7 14L2.95 14.5Q3.1 14.95 2.85 15.2L2.25 16.05L3 16.15L3.5 15.55L3.65 15.85L3.7 16.25L3.65 16.5L3.3 17.05L2.4 17.55L2.4 17.7L2.35 17.85Q3.4 18.55 4.3 17.6L4.45 17.4Q4.8 17.85 4.55 18.4Q4 19.9 2.85 19.1L2.85 19.2Q2.7 19.05 2.45 19.05L2.35 19.1L2.3 19.1L2.3 19.25L2.85 20.05L2.85 20.45L2.3 21.4L1.05 21.1L0.05 20.95L-0.15 20.55M7.1,11.15L7.35 11.45L7.55 11.9L7.65 12.25L7.2 12.75L6.95 12.65L6.3 12.25Q5.8 11.65 6.4 11.05L7.1 11.15M8.55,17.6Q8.85 18.35 8.55 19.2L7.65 20.4L7.3 19.75Q7.1 19.1 7.2 18.35Q7.3 17.5 7.95 17.2Q8.35 17.2 8.55 17.6M-2.15,7.7L-2.15 7.75L-2.25 7.9L-2.3 8.05L-2.4 8.25L-3 8.25Q-3.25 8.35 -3.4 8.05L-3.4 8L-3.4 7.85L-3.4 7.7L-3.35 7.6L-3.15 7.5L-2.9 7.35Q-2.75 7.2 -2.6 7.2L-2.4 7.35L-2.25 7.55L-2.15 7.7M-4.2,10.75Q-3.85 10.9 -4 11.4L-4.05 12.5L-4.3 13.8L-4.35 13.8L-4.6 13.8L-4.75 13.1L-4.45 11.95L-4.2 10.75M-0.15,13.7Q-0.05 14.5 -0.4 15.15L-1.2 15.9L-1.45 15.85L-1.55 15.2L-1.2 14.15L-0.5 13.45L-0.55 13.5L-0.7 13.65L-0.75 13.95L-0.75 14.1L-0.5 14.1L-0.2 13.7L-0.15 13.7M-2.55,17.1Q-2.35 16.5 -1.75 16.35Q-1.6 16.35 -1.5 16.5L-1.35 16.9L-1.35 17.1L-1.3 17.4L-1.6 18.45L-1.95 19.6L-2.15 19.55L-2.3 19.3L-2.35 18.95L-2.55 18.7L-2.55 18.75L-2.7 18.4L-2.55 17.1M-5.45,20.05L-5.4 19.45L-5.3 18.85L-5.2 19.05L-5 19.8Q-5.1 20.4 -5.45 20.45L-5.45 20.05" />
</g>
</svg>
