<?xml version="1.0" encoding="utf-8"?>
<svg version="1.1" id="Layer_1"
xmlns="http://www.w3.org/2000/svg"
xmlns:xlink="http://www.w3.org/1999/xlink"
width="20px" height="8px"
xml:space="preserve">
<g id="914" transform="matrix(1, 0, 0, 1, 1.4, 0.9)">
<path style="fill:#100806;fill-opacity:1" d="M15.25,2.75Q14.05 2.75 13.4 2.25Q12.9 1.85 12.9 1.4Q12.9 -0.15 15.7 -0.75Q18.45 -1.35 18.45 0.6Q18.45 1.45 17.6 2.1Q16.7 2.75 15.25 2.75M11.05,3.35Q14.95 3.35 14.95 5.4Q14.95 6 14.35 6.45Q13.7 6.9 12.7 6.9Q11.2 6.9 10.25 5.75L9.7 4.8Q8.9 5.3 8.35 5.3Q7.6 5.3 6.5 4.2Q5.5 3.2 5.5 2.85Q5.5 2.2 6.15 1.7Q6.8 1.15 7.85 1.15Q9.45 1.15 10.35 1.85Q11.05 2.4 11.05 3.25L11.05 3.35M0.25,3L-0.4 3.3Q-1.2 3.3 -1.4 2.15Q-1.4 1.45 -0.35 1.65Q0.65 1.85 0.65 2.45L0.25 3" />
</g>
</svg>
