<?xml version="1.0" encoding="utf-8"?>
<svg version="1.1" id="Layer_1"
xmlns="http://www.w3.org/2000/svg"
xmlns:xlink="http://www.w3.org/1999/xlink"
width="38px" height="36px"
xml:space="preserve">
<g id="1586" transform="matrix(1, 0, 0, 1, -5.4, -3.85)">
<path style="fill:#FF0100;fill-opacity:1" d="M42.6,14.7L42.6 14.8L40.45 14.45L40.4 14.5L40.75 16L41 17.2Q39.95 18.3 38.7 17.65Q40.95 17.85 40.15 15.55Q39.85 14.6 40.55 14Q41.75 14.2 42.6 14.7M41.2,23.35L41.2 23.45L37.25 23.95L37.2 25.9L37 26.3L36.9 26.55Q37.75 27.45 37.4 28.75Q37.1 29.75 37.35 30.7Q36.9 29.75 37.2 28.55Q37.55 27.35 36.55 26.65L36.95 24.65L36.95 23.95L36.95 23.85Q38.75 23.1 40.95 23.25L40.9 21.85L41 21.85L41.2 23.35M32.8,9.35L32.75 9.45L34.1 10.5L34.15 10.55L32.4 9.6Q33.35 8.05 32.7 6.55L32.45 6.1L28.3 8.5L28.25 8.55Q28.7 8 29.5 7.5L31.6 6.2L32.1 5.8Q34.3 6.9 32.8 9.35M22.7,3.85Q23.65 4.95 22.05 6.4L21.95 6.5Q22.95 6.95 23.8 7.95Q23 9.4 21.4 9.85Q22.7 9.15 23.65 7.95Q22.9 7.05 21.7 6.6Q23.35 5.2 22.65 3.9L22.7 3.85M29.2,11.85Q27.35 10.45 27.9 9.15L27.9 9.6Q28.15 11.05 29.2 11.85M25.65,22.6Q23.25 22.45 24.05 22.1Q24.95 22.15 25.65 22.6M14.6,18.15Q15.2 18.9 14.85 19.75Q13.4 20 11.6 19.3L14.5 19.7L14.15 17.5L14.6 18.15M13.8,16.3L13.5 15.4Q13.25 14.75 13.95 14.25L14.6 13.85Q13.65 14.6 13.8 16.3M10.25,35.6Q11.4 34.3 13.15 35Q11.6 35.65 10.25 35.6M15.4,35.35L15.85 36.05Q14.45 34.7 12.9 34.5Q14.4 33.85 15.4 35.35M7.3,27.15Q3.7 30 7.65 31.5L7.7 31.55Q7.3 34.7 9.95 35Q8.6 35.6 8 34.1L7.7 33.15L7.6 31.6Q3.4 29.95 7.25 27.15L7.3 27.15M8.7,35.2Q7.05 34.5 7 33Q7.55 34.35 8.7 35.2M32.9,30.35Q32.8 26.65 30.3 26.75L29.6 26.75L30.1 26.5Q32.9 25.5 32.9 29.3L32.9 30.35M31.35,33.1Q29.05 32.4 27 33.65L26.95 33.7Q27.85 34.75 28.2 36.15Q28.65 38.3 26.5 39.15Q25.95 39.6 27.5 39.35L27.65 39.45L25.55 39.5L25.6 39.45Q27.85 38.55 27.85 36.7Q27.85 34.95 26.45 33.8Q26.65 33.35 27.1 33.1L28.6 32.5Q30.05 32.5 31.3 33.05L31.35 33.1M28.35,26.55Q26 25.85 25.8 22.7Q26.8 23.4 27.2 25Q27.45 25.85 28.25 26.5L28.35 26.55" />
</g>
</svg>
