<?xml version="1.0" encoding="utf-8"?>
<svg version="1.1" id="Layer_1"
xmlns="http://www.w3.org/2000/svg"
xmlns:xlink="http://www.w3.org/1999/xlink"
width="62px" height="62px"
xml:space="preserve">
<g id="1572" transform="matrix(1, 0, 0, 1, 6.65, 7.05)">
<path style="fill:#643714;fill-opacity:1" d="M51.1,23.45Q51.1 34.7 43.1 42.65Q35.15 50.65 23.9 50.65Q12.65 50.65 4.65 42.65Q-3.3 34.7 -3.3 23.45Q-3.3 12.2 4.65 4.2Q12.65 -3.75 23.9 -3.75Q35.15 -3.75 43.1 4.2Q51.1 12.2 51.1 23.45" />
<path style="fill:none;stroke-width:0.1;stroke-linecap:round;stroke-linejoin:round;stroke-miterlimit:3;stroke:#0E0700;stroke-opacity:1" d="M51.1,23.45Q51.1 34.7 43.1 42.65Q35.15 50.65 23.9 50.65Q12.65 50.65 4.65 42.65Q-3.3 34.7 -3.3 23.45Q-3.3 12.2 4.65 4.2Q12.65 -3.75 23.9 -3.75Q35.15 -3.75 43.1 4.2Q51.1 12.2 51.1 23.45z" />
<path style="fill:#211105;fill-opacity:1" d="M44.5,35.15Q42.9 38 40.45 40.45Q36.9 44 32.6 45.75Q28.45 47.4 23.7 47.4Q13.9 47.4 6.95 40.45Q0 33.5 0 23.7Q0 13.9 6.95 6.95Q13.9 0 23.7 0Q33.5 0 40.45 6.95Q47.4 13.9 47.4 23.7Q47.4 30 44.5 35.15" />
<path style="fill:#ECC08A;fill-opacity:1" d="M42.95,42.5Q35.05 50.35 23.9 50.35Q12.75 50.35 4.9 42.5Q-3 34.6 -3 23.45Q-3 12.3 4.9 4.45Q12.75 -3.45 23.9 -3.45Q35.05 -3.45 42.95 4.45Q50.8 12.3 50.8 23.45Q50.8 34.6 42.95 42.5M50,23.45Q50 12.6 42.4 5Q34.75 -2.65 23.9 -2.65Q13.05 -2.65 5.45 5Q-2.2 12.6 -2.2 23.45Q-2.2 34.3 5.45 41.95Q13.05 49.55 23.9 49.55Q34.75 49.55 42.4 41.95Q50 34.3 50 23.45" />
<path style="fill:#643714;fill-opacity:1" d="M8.3,-1.9L9 -2.3L10.4 -3.15L10.9 -2.2L10.05 -1.7L9 -2.3L9.5 -1.35L8.8 -0.95L8.3 -1.9M9.35,0.1L10.05 -0.3L11.4 1.9L10.65 -0.65L11.55 -1.2L12.85 1.05Q12.15 1.5 11.4 1.9L10.7 2.3L9.35 0.1M23.9,-5.5L23.1 -5.5L23.1 -6.55L23.9 -6.55L23.9 -5.5M24.55,-5.55L23.9 -6.55L25.6 -6.6L25.55 -5.55L24.55 -5.55M25.6,-4.35L25.6 -1.75L23.95 -1.7L23.1 -1.7L23.05 -4.3L23.85 -4.3L23.95 -1.7L24.55 -4.35L25.6 -4.35M37.1,-0.95L37.75 -0.55L36.55 1.75L38.4 -0.25L39.3 0.3L38 2.55L36.55 1.75L35.8 1.35L37.1 -0.95M39.85,-0.8L39 -1.3L38.9 -2.45L38.4 -1.55L37.7 -1.95L38.2 -2.85L38.9 -2.45L40.45 -1.65L39.85 -0.8M49.75,7.95L50.15 8.65L49.25 9.15L48.85 8.45L49.75 7.95M47.8,9L48.2 9.7L46 11.1L48.6 10.3L49.1 11.2L46.85 12.5L46 11.1L45.55 10.35Q46.7 9.7 47.8 9M50.15,10.6L49.65 9.7L50.15 8.65L51.05 10.05L50.15 10.6M51.95,23.5L49.35 23.6L52 24.2L52 25.25L49.4 25.25L49.35 23.6L49.35 22.75L51.95 22.7L51.95 23.5M53.15,22.75L54.2 22.75L54.2 23.55L54.25 25.25L53.2 25.2L53.2 24.2L54.2 23.55L53.15 23.55L53.15 22.75M48.2,37.55L45.9 36.35L47.9 38.2L47.4 39.1L45.15 37.8L45.9 36.35L46.35 35.6L48.6 36.85L48.2 37.55M49.25,38.2L49.65 37.5L50.55 38.05L50.15 38.75L49.35 40.2L48.45 39.65L48.95 38.8L50.15 38.75L49.25 38.2M-0.25,9.85L2.05 11.1L0.05 9.2L0.55 8.3L2.8 9.6L2.05 11.1L1.6 11.8L-0.65 10.55L-0.25 9.85M-1,8.6L-2.2 8.65L-1.3 9.2L-1.7 9.9L-2.6 9.35L-2.2 8.65L-1.4 7.2L-0.5 7.75L-1 8.6M-0.05,37.85L2.15 36.5L-0.45 37.25L-0.95 36.35L1.3 35.05L2.15 36.5L2.6 37.2L0.35 38.55L-0.05 37.85M-1.1,38.45L-0.7 39.1L-1.6 39.6L-2 38.95L-2.9 37.5L-2 37L-1.5 37.85L-2 38.95L-1.1 38.45M10.1,47.95L11.3 45.65L9.45 47.65L8.5 47.1L9.8 44.85L11.3 45.65L12.05 46.05L10.8 48.35L10.1 47.95M10.15,49.35L9.6 50.25L8.9 49.85L7.4 49.05L7.95 48.2L8.85 48.7L8.9 49.85L9.45 48.95L10.15 49.35M24.1,51.55L24 48.95L23.4 51.6L22.35 51.6L22.35 49L24 48.95L24.85 48.95L24.9 51.55L24.1 51.55M24.05,52.75L24.85 52.75L24.85 53.8L24.05 53.8L22.35 53.85L22.4 52.8L23.4 52.8L24.05 53.8L24.05 52.75M38.2,47.95L36.8 45.75L37.6 48.35L36.7 48.9L35.4 46.65L36.8 45.75L37.55 45.35L38.9 47.55L38.2 47.95M39.45,48.65L39.95 49.55L39.25 49.95L37.85 50.85L37.35 49.85L38.2 49.35L39.25 49.95L38.75 49.05L39.45 48.65M-5.15,23.05L-6.15 23.7L-6.2 22L-5.15 22.05L-5.15 23.05M-3.95,23.05L-3.95 22L-1.35 22L-1.3 23.65L-1.3 24.5L-3.9 24.55L-3.9 23.75L-1.3 23.65L-3.95 23.05M-5.1,24.5L-6.15 24.5L-6.15 23.7L-5.1 23.7L-5.1 24.5" />
<path style="fill:#ECC08A;fill-opacity:1" d="M11.55,-1.2L10.65 -0.65L11.4 1.9L10.05 -0.3L9.35 0.1L8.8 -0.95L9.5 -1.35L9 -2.3L10.05 -1.7L10.9 -2.2L11.55 -1.2M25.55,-5.55L25.6 -4.35L24.55 -4.35L23.95 -1.7L23.85 -4.3L23.05 -4.3L23.1 -5.5L23.9 -5.5L23.9 -6.55L24.55 -5.55L25.55 -5.55M38.4,-1.55L38.9 -2.45L39 -1.3L39.85 -0.8L39.3 0.3L38.4 -0.25L36.55 1.75L37.75 -0.55L37.1 -0.95L37.7 -1.95L38.4 -1.55M49.65,9.7L50.15 10.6L49.1 11.2L48.6 10.3L46 11.1L48.2 9.7L47.8 9L48.85 8.45L49.25 9.15L50.15 8.65L49.65 9.7M53.15,23.55L54.2 23.55L53.2 24.2L53.2 25.2L52 25.25L52 24.2L49.35 23.6L51.95 23.5L51.95 22.7L53.15 22.75L53.15 23.55M50.15,38.75L48.95 38.8L48.45 39.65L47.4 39.1L47.9 38.2L45.9 36.35L48.2 37.55L48.6 36.85L49.65 37.5L49.25 38.2L50.15 38.75M-0.5,7.75L0.55 8.3L0.05 9.2L2.05 11.1L-0.25 9.85L-0.65 10.55L-1.7 9.9L-1.3 9.2L-2.2 8.65L-1 8.6L-0.5 7.75M-2,38.95L-1.5 37.85L-2 37L-0.95 36.35L-0.45 37.25L2.15 36.5L-0.05 37.85L0.35 38.55L-0.7 39.1L-1.1 38.45L-2 38.95M9.45,48.95L8.9 49.85L8.85 48.7L7.95 48.2L8.5 47.1L9.45 47.65L11.3 45.65L10.1 47.95L10.8 48.35L10.15 49.35L9.45 48.95M24.05,53.8L23.4 52.8L22.4 52.8L22.35 51.6L23.4 51.6L24 48.95L24.1 51.55L24.9 51.55L24.85 52.75L24.05 52.75L24.05 53.8M38.75,49.05L39.25 49.95L38.2 49.35L37.35 49.85L36.7 48.9L37.6 48.35L36.8 45.75L38.2 47.95L38.9 47.55L39.45 48.65L38.75 49.05M-1.3,23.65L-3.9 23.75L-3.9 24.55L-5.1 24.5L-5.1 23.7L-6.15 23.7L-5.15 23.05L-5.15 22.05L-3.95 22L-3.95 23.05L-1.3 23.65" />
<path style="fill:#331803;fill-opacity:1" d="M10.7,2.3L11.4 1.9Q12.15 1.5 12.85 1.05L11.55 -1.2L10.9 -2.2L10.4 -3.15L9 -2.3L8.3 -1.9L8.8 -0.95L9.35 0.1L10.7 2.3M13.3,1.25L10.5 2.8L9.2 0.5L7.7 -2.05L10.45 -3.7L11.8 -1.25L13.3 1.25M23.05,-4.3L23.1 -1.7L23.95 -1.7L25.6 -1.75L25.6 -4.35L25.55 -5.55L25.6 -6.6L23.9 -6.55L23.1 -6.55L23.1 -5.5L23.05 -4.3M22.7,-4.05L22.7 -7L25.9 -7.05L25.85 -4.25L25.9 -1.35L22.7 -1.4L22.7 -4.05M35.8,1.35L36.55 1.75L38 2.55L39.3 0.3L39.85 -0.8L40.45 -1.65L38.9 -2.45L38.2 -2.85L37.7 -1.95L37.1 -0.95L35.8 1.35M38.05,3.05L35.35 1.4L36.65 -0.9L38.15 -3.45L40.9 -1.9L39.45 0.45L38.05 3.05M45.55,10.35L46 11.1L46.85 12.5L49.1 11.2L50.15 10.6L51.05 10.05L50.15 8.65L49.75 7.95L48.85 8.45L47.8 9Q46.7 9.7 45.55 10.35M46.65,13L45.1 10.15L47.4 8.85L49.95 7.35L51.6 10.15L49.2 11.5L46.65 13M53.2,25.2L54.25 25.25L54.2 23.55L54.2 22.75L53.15 22.75L51.95 22.7L49.35 22.75L49.35 23.6L49.4 25.25L52 25.25L53.2 25.2M49,25.55L49.05 22.35L51.7 22.35L54.65 22.35L54.7 25.55L51.9 25.5L49 25.55M47.15,39.3L44.65 37.9L46.3 35.1L48.6 36.45L51.15 37.9L49.6 40.75L47.15 39.3M48.45,39.65L49.35 40.2L50.15 38.75L50.55 38.05L49.65 37.5L48.6 36.85L46.35 35.6L45.9 36.35L45.15 37.8L47.4 39.1L48.45 39.65M-0.5,7.75L-1.4 7.2L-2.2 8.65L-2.6 9.35L-1.7 9.9L-0.65 10.55L1.6 11.8L2.05 11.1L2.8 9.6L0.55 8.3L-0.5 7.75M-3.2,9.5L-1.65 6.7L0.8 8.15L3.3 9.55L1.65 12.3L-0.65 10.95L-3.2 9.5M0.75,38.7L-1.8 40.2L-3.4 37.45L-1 36.1L1.5 34.6L3.05 37.4L0.75 38.7M-2,37L-2.9 37.5L-2 38.95L-1.6 39.6L-0.7 39.1L0.35 38.55L2.6 37.2L2.15 36.5L1.3 35.05L-0.95 36.35L-2 37M7.95,48.2L7.4 49.05L8.9 49.85L9.6 50.25L10.15 49.35L10.8 48.35L12.05 46.05L11.3 45.65L9.8 44.85L8.5 47.1L7.95 48.2M9.75,44.35L12.55 46L11.2 48.3L9.75 50.85L6.9 49.3L8.35 46.9L9.75 44.35M25.25,51.3L25.25 54.25L22.05 54.3L22.1 51.5L22.05 48.6L25.25 48.65L25.25 51.3M22.4,52.8L22.35 53.85L24.05 53.8L24.85 53.8L24.85 52.75L24.9 51.55L24.85 48.95L24 48.95L22.35 49L22.35 51.6L22.4 52.8M37.35,49.85L37.85 50.85L39.25 49.95L39.95 49.55L39.45 48.65L38.9 47.55L37.55 45.35L36.8 45.75L35.4 46.65L36.7 48.9L37.35 49.85M40.55,49.75L37.75 51.35L36.4 48.9L34.9 46.45Q36.35 45.7 37.75 44.9L39.05 47.15L40.55 49.75M-3.65,24.9L-6.6 24.9L-6.65 21.7L-3.85 21.75L-0.95 21.7L-1 24.9L-3.65 24.9M-6.15,24.5L-5.1 24.5L-3.9 24.55L-1.3 24.5L-1.3 23.65L-1.35 22L-3.95 22L-5.15 22.05L-6.2 22L-6.15 23.7L-6.15 24.5" />
<path style="fill:#333333;fill-opacity:0.498039" d="M11.8,-1.25L14.8 1.55L10.1 4.25L9.2 0.5L10.5 2.8L13.3 1.25L11.8 -1.25M22.7,-1.4L25.9 -1.35L25.85 -4.25L27.05 -0.35L21.6 -0.35L22.7 -4.05L22.7 -1.4M39.45,0.45L38.55 4.45L33.8 1.75L36.65 -0.9L35.35 1.4L38.05 3.05L39.45 0.45M49.2,11.5L46.4 14.5L43.65 9.75L47.4 8.85L45.1 10.15L46.65 13L49.2 11.5M51.9,25.5L48 26.7L48 21.25L51.7 22.35L49.05 22.35L49 25.55L51.9 25.5M46.3,35.1L44.65 37.9L47.15 39.3L43.2 38.35L45.95 33.65L48.6 36.45L46.3 35.1M4.75,9.05L2 13.75L-0.65 10.95L1.65 12.3L3.3 9.55L0.8 8.15L4.75 9.05M3.05,37.4L1.5 34.6L-1 36.1L1.3 33.6L2.25 33.9L4.55 37.8L0.75 38.7L3.05 37.4M11.2,48.3L12.55 46L9.75 44.35L8.35 46.9L9.25 42.9L14 45.6L11.2 48.3M25.25,48.65L22.05 48.6L22.1 51.5L21.1 48.25L21.8 47.6L26.35 47.6L25.25 51.3L25.25 48.65M33.45,46.1L38.15 43.4L39.05 47.15L37.75 44.9Q36.35 45.7 34.9 46.45L36.4 48.9L33.45 46.1M-1,24.9L-0.95 21.7L-3.85 21.75L0.05 20.55L0.05 26L-3.65 24.9L-1 24.9" />
</g>
</svg>
