<?xml version="1.0" encoding="utf-8"?>
<svg version="1.1" id="Layer_1"
xmlns="http://www.w3.org/2000/svg"
xmlns:xlink="http://www.w3.org/1999/xlink"
width="16px" height="20px"
xml:space="preserve">
<g id="553" transform="matrix(1, 0, 0, 1, -0.9, -5.6)">
<path style="fill:#000000;fill-opacity:1" d="M13.65,5.85L14.25 6.75L14.3 7.75L13.95 9.05L14 9.45L15.25 9.65L15.8 9.55L16.2 9.95L16.2 10.45L13.4 10.3L12.95 10.7L12.95 11.4L13.85 11.5L15.2 11.8Q15.95 12 16 12.5L15.35 12.65L14.85 12.95L14.8 13.25L12.95 14.55L12.95 15L12.9 15.2L13.15 15.5L13.1 15.75L13.75 17.1L13.4 17.8L12.4 18.5L11.95 18.65L11.55 18.65L11.3 19.4L10.95 19.7L10.6 19.95L11.25 20.15L13 20.65Q14 21 14.35 21.85L14.2 22.65L13.85 22.9L13.6 24.1L10.8 24.4L10.55 23.45L11.05 22.9L10.3 22.8L10.05 22.55L8.6 22.5L8.55 23L7.85 22.75L6.2 21.95L6.15 22.65L6.3 23.3L6.25 23.35L6.15 24Q6 24.05 6 24.35L5.8 25.5L2.25 25.35L1.9 25.3L1.55 25.05L0.9 24.9L1.1 23.95L2.25 23.25L3.65 23.3L3.1 20.55L2.7 20.05L3.3 20.25L2.4 19.3L2.2 17.7L2.9 18.3L5.1 17.55L5.2 17.3L4.4 16.85L5 15.4L5.75 15.6L6 15.55L7 14.35L6.85 13.6L7.85 11.8L7.8 11.1L8.25 11L8.6 10.7L9.5 10.35L9.15 10.2L8.65 9.25L8.55 8.55L8.8 7.65L8.65 7.15L8.95 6.6L9.3 6.45L9.85 6.05L10.95 5.7L12.5 5.6L13.65 5.85M15.65,12.35L15.75 12.3L15.65 12.3L15.65 12.35M13,11.65L12.9 13.55Q13.6 13.1 14.25 12.6L15.2 12.5L15.4 12.2L13 11.65M9.35,19.9L9.8 19.85L9.3 19.6L9.35 19.9" />
</g>
</svg>
