<?xml version="1.0" encoding="utf-8"?>
<svg version="1.1" id="Layer_1"
xmlns="http://www.w3.org/2000/svg"
xmlns:xlink="http://www.w3.org/1999/xlink"
width="122px" height="73px"
xml:space="preserve">
<g id="400" transform="matrix(1, 0, 0, 1, 31.6, 43.05)">
<path style="fill:#333333;fill-opacity:0.105882" d="M1.15,-40.15Q1.3 -39.4 0.9 -38.8Q-0.2 -37 -2.75 -37.35L-3.8 -37.15L-4.35 -37.2L-5.1 -37.45L-5.5 -37.75L-5.65 -37.95L-8.55 -38.3Q-9.35 -38.45 -9.95 -39.05L-10.25 -39.4L-10.15 -39.75L-9 -41.25Q-8.05 -42.05 -6.85 -42.35L-4.2 -43.05L-2.5 -42.9L-1.2 -42.35L0.05 -41.35L1.1 -40.35L1.15 -40.15M74.05,-38.35Q75.45 -37.2 75.65 -35.55Q75.85 -34.2 74.6 -33.55L74.15 -33.6L73.85 -33.7L73.65 -33.85L73.5 -34L73.5 -34.05L72.45 -33.85Q71.65 -33.3 70.65 -33.1Q69.35 -32.8 68.6 -33.95L67.55 -35.4L67.4 -35.5L64.4 -36.2Q63.95 -36.25 63.65 -36.65L63.7 -37.2L64.2 -38.1L64.85 -38.9Q65.35 -39.8 66.35 -40.2L67.95 -40.8Q69.6 -40.8 71.1 -40.15Q72.7 -39.45 74.05 -38.35M79.4,-25.5L79.4 -25.7L79.4 -26.05L79.4 -26.25L80.3 -27.1Q81.1 -27.65 82.1 -27.65L85.8 -27.95L86.7 -27.6Q87.1 -27.35 87.65 -27.1L88.6 -26.85Q89.3 -26.75 89.45 -26.15Q89.5 -25.25 88.6 -24.85Q85.2 -23.4 81.35 -23.45Q80.55 -23.45 79.75 -23.85L79.7 -24.05L79.6 -24.55L79.55 -24.75L79.4 -25.15L79.4 -25.3L79.4 -25.5M53.3,-38.9L53.5 -38.8L53.45 -37.5Q53.2 -36.4 52.2 -35.75Q51.6 -35.3 50.9 -35L48.45 -34L47.95 -33Q47.35 -32.15 46.35 -31.95Q45.15 -31.7 44.25 -30.9Q43.95 -30.6 43.45 -30.9L45.35 -33.55L46.7 -35.95Q47.3 -37.4 48.8 -37.55Q50.7 -37.75 52.3 -38.95L52.45 -39.05L53.3 -38.9M54.45,-16.45L57.15 -15.9L57.45 -15.9L60.1 -15.55Q61.65 -15.3 61.95 -13.95Q62.15 -12.95 61.25 -12.3L56 -12.05L52.85 -12.55L52.7 -12.6L51.7 -12.95L51.45 -13.5L51.35 -13.85L51.35 -14.05L51.4 -14.2Q51.55 -14.75 51.95 -15.1Q52.75 -15.85 53.7 -16.15L54.45 -16.45M-16.8,-29.75L-16.75 -29.35L-16.7 -29.2L-16.75 -29L-16.85 -28.8L-16.95 -28.65L-17.05 -28.45L-17.15 -28.25L-17.35 -28.1Q-17.9 -27.75 -18.7 -27.6L-19.45 -27.45L-20.05 -27.3Q-22.55 -26.65 -23.85 -28.15L-23.95 -28.7L-23.9 -28.85L-23.8 -29.05L-23.7 -29.25L-23.65 -29.4L-23.35 -29.8L-22.6 -30.5L-21.65 -31.1L-20.5 -30.95L-19.45 -30.7L-18.2 -30.5L-16.95 -29.95L-16.8 -29.75M-31.55,-6.45L-31.4 -7.05L-31.35 -7.2L-31.3 -7.4L-30.85 -8.55L-29.95 -10L-29 -10.85Q-28.7 -11 -28.55 -11.05L-26.9 -10.85L-25.1 -10.45Q-24.25 -10.3 -23.85 -9.65Q-23.45 -9 -23.35 -8.3Q-23.35 -7.85 -23.7 -7.55L-24.45 -7.05Q-27.75 -5.7 -31.35 -6.35L-31.55 -6.45M-14.4,-7.3L-14.2 -7.35L-13.95 -7.35L-12 -7.45Q-11.4 -7.6 -11 -7.85L-9.7 -7.7Q-8.8 -7.65 -8.1 -7.15Q-7.3 -6.5 -7.5 -5.55Q-7.65 -4.75 -8.15 -4.05L-8.3 -3.9L-9.1 -3.8L-10.3 -3.8L-14.8 -4.4L-14.9 -4.55L-15 -4.75L-15.1 -4.9L-15.25 -5.3L-15.35 -5.85L-15.2 -6.65L-14.7 -7.15L-14.4 -7.3" />
<path style="fill:#333333;fill-opacity:0.211765" d="M35.4,-1.35L35.95 -1.95L36.75 -2.1L36.95 -2.1L37.2 -2.15L38.45 -2.5L39.75 -2.9L42.45 -2.65L44.2 -2.25Q45.65 -2.15 46.75 -1.2Q47.75 -0.3 48.9 0.45L48.95 0.6L49 0.8L49.05 1.15L49 1.5L48.8 1.9L48.7 2.1L48.6 2.25L48.25 2.65L47.55 3.3Q45.45 3.4 43.5 2.55Q41.85 1.8 40.2 2.15Q34.75 3.25 35.15 -0.8L35.25 -1.2L35.4 -1.35M70.1,24.25Q70.25 26.55 67.95 27.5L66.2 27.4L64.85 26.3Q63.75 25.65 62.5 25.25Q61.05 24.85 59.8 24.1L56.05 22.05L56.05 21.85L56.05 21.65L56.05 21.5L56.05 21.3L56.05 21.1L56.05 20.95L56.05 20.75L56.05 20.55L56.35 20.15L56.7 19.6L57.1 18.75L57.4 18.35L58.6 17.25L59 17L59.45 16.85L59.45 16.8L61.05 17.15Q61.8 17.45 62.45 17.9L63.85 18.5Q64.55 18.7 64.85 19.4Q66.9 19.65 68.35 20.8Q69.25 21.5 69.7 22.6L70.1 24.25M-7.4,24.45Q-4.65 25.1 -5.95 27.45Q-7.1 29.5 -9.5 28.8Q-11.4 28.2 -12.95 27.2L-12.95 27L-12.9 26.5L-12.85 26.1L-12.55 25.15Q-12.3 24.8 -11.75 24.6L-11.3 24.45Q-9.3 24.05 -7.4 24.45" />
</g>
</svg>
