<?xml version="1.0" encoding="utf-8"?>
<svg version="1.1" id="Layer_1"
xmlns="http://www.w3.org/2000/svg"
xmlns:xlink="http://www.w3.org/1999/xlink"
width="16px" height="15px"
xml:space="preserve">
<g id="1196" transform="matrix(1, 0, 0, 1, 16.65, -5.1)">
<path style="fill:#A6A6A6;fill-opacity:0.694118" d="M-1,6.45L-1.1 6.6L-0.9 7.1Q-0.9 7.5 -1.65 7.95Q-2.35 8.35 -3.05 8.35Q-6 8.35 -6 6.8Q-6 5.35 -3.45 5.15Q-0.9 4.95 -0.9 6.25L-1 6.45M-3.6,11.45Q-3.6 10.4 -1.25 10.4Q-0.9 10.4 -0.9 10.75Q-0.9 12.15 -2.75 12.15Q-3.6 12.15 -3.6 11.45M-10.2,11.1L-9.4 11.75Q-9.05 12.2 -9.05 12.45Q-9.05 12.85 -9.85 13.4Q-10.7 13.95 -11.35 13.95Q-12.85 13.95 -13.3 13.45L-13.5 12.9Q-13.5 12.3 -12.75 11.75Q-11.75 11 -10.2 11.1M-14.65,17.35L-14.95 16.85Q-14.95 16.45 -14.4 15.8Q-13.7 15 -12.85 15Q-11.85 15 -11.05 15.45Q-10.3 15.85 -10.3 16.2Q-10.3 16.55 -10.8 17L-11.55 18.05Q-11.55 18.25 -12.6 18.95Q-13.8 19.8 -14.65 19.8Q-16.65 19.8 -16.65 18.8Q-16.65 18.35 -16.15 18.35Q-15.9 18.35 -15.85 18.5L-15.4 18.65L-14.8 18.6L-15.1 18Q-15.1 17.6 -14.65 17.35M-3.55,14.65Q-3.55 14.85 -4.25 15L-6.3 15.2Q-7.7 15.2 -7.45 14.35Q-7.45 13.4 -5.9 13.4Q-4.2 13.4 -4.2 14.3Q-3.55 14.25 -3.55 14.65M-5.35,17.4L-6.15 17.75L-6.95 17.75L-7.4 17.35L-7.45 17.1Q-7.45 16.05 -6.3 16.1Q-5.2 16.15 -5.2 17Q-5.2 17.3 -5.35 17.4" />
</g>
</svg>
