<?xml version="1.0" encoding="utf-8"?>
<svg version="1.1" id="Layer_1"
xmlns="http://www.w3.org/2000/svg"
xmlns:xlink="http://www.w3.org/1999/xlink"
width="12px" height="9px"
xml:space="preserve">
<g id="513" transform="matrix(1, 0, 0, 1, 1, 8.3)">
<path style="fill:#000000;fill-opacity:1" d="M4.7,-8.2L7.75 -8.3L10.4 -6.95L10.4 -6.6L9.55 -4.55L9.45 -4.1L9.6 -3.55L9.75 -3.3L9.75 0.3L9.6 0.3Q7.05 0.95 4.55 0.25L4.25 0.15L2.9 -0.3L2.25 -0.75L-0.35 -1.45L-0.4 -1.45L-0.4 -1.6L-1 -3.05L-0.25 -3.95L-0.2 -4.95L0.15 -5.4L0.95 -5.15L1.35 -5.25Q1.85 -5.25 2.2 -4.85L2.25 -4.8L5 -4L4.8 -7.85L4.7 -8.2" />
</g>
</svg>
