<?xml version="1.0" encoding="utf-8"?>
<svg version="1.1" id="Layer_1"
xmlns="http://www.w3.org/2000/svg"
xmlns:xlink="http://www.w3.org/1999/xlink"
width="66px" height="31px"
xml:space="preserve">
<g id="1228" transform="matrix(1, 0, 0, 1, 39.1, 14.3)">
<path style="fill:#C9EBFF;fill-opacity:0.988235" d="M16.9,-7.4Q16.4 -7.4 15.65 -6.8L14.95 -6.1Q14.95 -5.9 15.3 -5.2L15.65 -4.4L15.4 -2.55L15.65 -1.95L15.85 -1.5Q15.85 -1.05 15.45 -0.75Q15 -0.4 14.4 -0.4L13.65 -0.6L14.5 -0.9Q15.25 -1.15 15.4 -1.5L14.95 -2L14.9 -2.45L15.15 -4.45L14.85 -5.25L14.55 -6.15Q14.55 -6.85 15.55 -7.35L17.45 -7.8L18.35 -8.5Q19.2 -8.9 20.1 -7.55L20.2 -6.55L20.2 -5.55Q20.75 -3.85 22.45 -3.15Q23.9 -2.55 23.9 -1.8L23.6 -1.05L23.75 -0.85L24.1 -1.05L25.2 -0.95Q25.85 -0.15 26.45 0.2L25.85 0.7Q24.95 0.7 24.9 -0.05Q24.85 -0.85 24.5 -0.85Q24.15 -0.85 23.9 -0.55Q23.9 -0.05 23.5 -0.05Q23.05 -0.05 22.75 -0.55L22.5 -1.05L22.7 -1.4L22.9 -1.85L21.65 -2.7Q20.4 -3.2 20.4 -4.35L20.05 -4.85Q19.65 -5.25 19.65 -6.15L19.45 -7.05L19.05 -7.8L18.35 -7.75Q17.85 -7.4 17.45 -7.35L16.9 -7.4M20.3,-1.15L20.25 -1.25Q20.85 -2.85 22.9 0.1L22.75 0.35L22.45 0.5Q21.5 0.5 21.1 -0.35Q20.75 -1.2 20.3 -1.15M25.45,3.5Q25.25 4.35 24.7 4.35L24.65 4.35L24.65 4.4L24.5 4.65L24.15 4.8Q23.75 4.6 23.25 4.55L23.15 4.65L22.95 4.8L22.65 5.55L22.45 6.9L22.7 7.85Q22.7 8.55 21.6 9.5Q20.35 10.55 18.95 10.55Q18.3 10.55 17.85 9.8L17.35 8.95L16.1 8.2Q15.6 7.85 15.6 7.55Q15.6 7.35 15.95 6.9L16.15 6.9L16.05 7.3Q16.05 7.65 16.8 8.1L17.85 8.55L18.35 9.3Q18.6 9.8 19.05 9.8Q21 9.8 21.55 8.65L21.75 6.85Q21.75 6.35 22.05 5.7L22.45 4.6L22.35 4.4Q22.1 4 21.6 4Q20.9 4 20.45 4.95L19.55 6.25L19.35 6.2L19.3 6.05L19.65 5.6L20.1 4.8L20.1 4.25Q20.05 3.95 20.4 3.7Q21.35 3 22.35 3.35L23 3.7L23.6 3.55Q24.25 3.5 24.5 3.85L25.05 2.6Q25.35 1.8 26.65 1.85Q25.75 2.45 25.45 3.5M-28.25,-13.65L-28.3 -13.35Q-29.45 -13.35 -29.8 -13L-30.4 -12.5L-29.1 -11.7Q-28.75 -11.55 -28.75 -11.1L-28.95 -10.2L-29.3 -10.1L-29.1 -10.55Q-29.1 -11.1 -29.9 -11.6L-30.75 -12.35Q-30.75 -13.2 -29.05 -13.7L-28.85 -13.8L-29.15 -14.15Q-28.8 -14.4 -28.5 -14.15L-28.25 -13.65M-21.4,-13.65L-20.75 -13.75Q-20.75 -13 -20.3 -12.8L-19.85 -12.5Q-19.85 -12.05 -20.4 -11.85L-21.7 -11.05L-21.35 -10.7L-21.85 -10.6L-22.05 -10.95L-21.55 -11.75Q-21.05 -12.2 -20.45 -12.45L-21 -12.95L-21.4 -13.65M-36.2,-12.65L-36.5 -12.6L-36.7 -11.7L-36.45 -10.9Q-36.45 -10.55 -37.25 -10.15Q-38.05 -9.8 -38.05 -8.9Q-38.05 -8.35 -37.5 -7.8Q-37 -7.25 -37 -6.9L-37.45 -6.2L-37.95 -5.5L-37.85 -5.25L-37.7 -5.15L-37.85 -5Q-38.3 -5 -38.25 -5.55L-37.35 -6.9L-38.05 -7.9Q-38.45 -8.45 -38.45 -8.95Q-38.45 -10.3 -36.9 -10.95L-37.15 -11.75Q-37.15 -13.15 -36.25 -13.1L-35.75 -12.95L-35.4 -13.15L-34.3 -12.85L-34 -13.55Q-33.75 -14.1 -33.2 -14.1L-33.05 -13.85L-33.75 -13.05L-33.85 -12.55Q-33.95 -12.3 -34.25 -12.3L-34.8 -12.5L-35.25 -12.7L-35.4 -12.65L-35.35 -12.25L-35.7 -10.35Q-35.7 -9.4 -34.9 -8.55L-34.1 -7.75L-34.15 -7.5L-34.45 -7.4Q-35.7 -7.4 -36.1 -10.35L-35.9 -11.65L-36.1 -12.15L-36 -12.55L-36.2 -12.65M-37.7,8.7L-38.4 9.7L-38.55 10.55L-37.9 11.05Q-37.2 11.25 -37.15 11.55L-36.85 12Q-36.55 12.4 -36.55 12.7L-35.95 12.7L-35.85 12.1Q-35.7 11.75 -34.55 11.6L-33.85 11.6Q-33.45 11.75 -33.55 12.15L-34.25 12.1L-35.55 12.35L-35.75 13.1L-36.6 13.15L-37.6 11.75L-39.1 10.65L-38.75 9.45Q-38.35 8.75 -37.7 8.7M-31.15,11.7Q-31.15 12.05 -31.8 13L-32.45 14.15L-31.95 14.85L-31.3 15.3L-30.25 14.9L-29.1 14.5Q-28.65 14.5 -28.35 14.85L-27.8 15.35L-27.75 15.55Q-27.95 15.75 -28.15 15.75Q-28.6 15.75 -28.8 15.4L-29.2 15L-31 15.7Q-32.6 15.7 -32.8 14.1Q-32.8 13.7 -32 12.6L-31.2 11.55L-31.15 11.7" />
</g>
</svg>
