<?xml version="1.0" encoding="utf-8"?>
<svg version="1.1" id="Layer_1"
xmlns="http://www.w3.org/2000/svg"
xmlns:xlink="http://www.w3.org/1999/xlink"
width="46px" height="51px"
xml:space="preserve">
<g id="451" transform="matrix(1, 0, 0, 1, 0.15, 7.2)">
<path style="fill:#FFCC00;fill-opacity:1" d="M40.7,-0.1Q37.55 4.5 36 9.7Q34.7 14.05 32.55 18.1Q37.1 17.2 42.5 18.95Q41.45 20.6 39.25 21.55Q37 22.5 35.2 24.15L34.6 24.75L39.6 27.8Q42.55 29.55 44.95 32.05L45.1 32.25Q37.95 33.15 30.55 31.9L31.9 35.75Q32.4 37.8 33.2 39.8Q33.9 41.65 33.5 43.5Q30.05 43.75 28.45 39.65Q27.25 36.4 25.1 33.75Q24.25 32.75 23.75 31.55Q19.95 32.55 16 35.25Q12.35 37.75 8.75 37.45L8.65 37.35Q9.3 35.1 11.15 33.4Q13.25 31.4 14.85 29L16.1 27.5Q11.45 25.25 6.05 23.7Q2.25 22.65 -0.15 20.5Q7.65 20.05 15.75 20.7Q14.7 18.4 13.95 15.95L12.5 11L11.4 7.15Q14.15 7.15 16.8 9.35Q19.55 11.65 21.7 14.5L22.8 15.45Q27.85 10.8 32.1 5.7Q36.55 0.35 39.95 -5.25Q40.75 -6.6 41.95 -7.2Q43.7 -4.55 40.7 -0.1M37.1,2.45Q35.9 3.25 34.85 4.45L27.35 13.25L25.45 15Q24.1 15.95 23.55 16.95L22.85 16.4Q20.65 14.95 18.75 13.2L14.55 9.9L14.55 9.95L14.2 10.05L14 10.15L13.9 10.3Q13.8 11.35 14.2 12.45L15.2 15.3L16.35 18.4L17.25 21.55Q14.5 22.1 11.8 21.45L6.65 21.65Q8.9 23.6 12.3 24.5Q14.15 25 15.7 26.05Q17.2 27.1 18.5 27.2Q17 29.3 15.1 31.1Q13 33.05 13.35 35.15Q17.1 32.4 21.8 30.7L23.2 30.55Q27.15 31.35 28.4 35.9Q29.2 38.8 31.15 40.1Q31.9 38.75 31.25 37.15L30.05 33.8L29.2 30.6Q35.35 32.7 40.85 31.05Q39.8 29.35 37.85 28.2L32.5 25.15Q34.1 23.55 36.1 22.55Q38.35 21.45 39.5 19.65Q35.65 19.05 31.25 19.75L32.8 15.8Q33.85 12.35 35.2 9.1L37.8 2.8L37.7 2.7L37.55 2.55L37.2 2.45L37.1 2.45M28.25,29.35L28.25 29.3L38 30.25L38.1 30.3L28.25 29.35" />
<path style="fill:#FFFF00;fill-opacity:1" d="M37.2,2.45L37.55 2.55L37.7 2.7L37.8 2.8L35.2 9.1Q33.85 12.35 32.8 15.8L31.25 19.75Q35.65 19.05 39.5 19.65Q38.35 21.45 36.1 22.55Q34.1 23.55 32.5 25.15L37.85 28.2Q39.8 29.35 40.85 31.05Q35.35 32.7 29.2 30.6L30.05 33.8L31.25 37.15Q31.9 38.75 31.15 40.1Q29.2 38.8 28.4 35.9Q27.15 31.35 23.2 30.55L21.8 30.7Q17.1 32.4 13.35 35.15Q13 33.05 15.1 31.1Q17 29.3 18.5 27.2Q17.2 27.1 15.7 26.05Q14.15 25 12.3 24.5Q8.9 23.6 6.65 21.65L11.8 21.45Q14.5 22.1 17.25 21.55L16.35 18.4L15.2 15.3L14.2 12.45Q13.8 11.35 13.9 10.3L14 10.15L14.2 10.05L14.55 9.95L14.55 9.9L18.75 13.2Q20.65 14.95 22.85 16.4L23.55 16.95Q24.1 15.95 25.45 15L27.35 13.25L34.85 4.45Q35.9 3.25 37.1 2.45L37.2 2.45M38.1,30.3L38 30.25Q35.85 28.8 33.45 27.7Q31.55 26.8 30.45 25.3Q31.05 24.3 32 23.45Q33.15 22.45 34.4 21.55L34.8 21.3L29.55 21.2Q29.6 18.95 30.65 16.7L32.3 12.05L33.4 8.8Q31.3 10.65 29.2 13.35L24.65 18.5L24.55 18.8L24.25 18.85L23.4 19.3L23.25 18.8Q21.85 18.55 20.6 17.2L17.4 14.4L16.2 13.7Q16.4 15.1 17.05 16.35L18.05 19Q18.45 20.15 19.2 21.1Q19.95 22 19.4 22.95L14.3 23.45L14.35 23.5Q15.9 23.95 17.25 24.8Q18.55 25.65 20 26.2L20.35 26.65L20.15 26.8Q20.3 27.25 19.9 27.75L18.85 29.2L18.2 30.1Q21.75 28.45 25.65 29.4L26.5 29.95Q27.4 30.75 28 31.85L27.85 31.2L27.6 30.25Q27.45 29.85 27.6 29.45L27.7 29.3L28.25 29.35L38.1 30.3" />
<path style="fill:#FFFFFF;fill-opacity:1" d="M28.25,29.3L28.25 29.35L27.7 29.3L27.6 29.45Q27.45 29.85 27.6 30.25L27.85 31.2L28 31.85Q27.4 30.75 26.5 29.95L25.65 29.4Q21.75 28.45 18.2 30.1L18.85 29.2L19.9 27.75Q20.3 27.25 20.15 26.8L20.35 26.65L20 26.2Q18.55 25.65 17.25 24.8Q15.9 23.95 14.35 23.5L14.3 23.45L19.4 22.95Q19.95 22 19.2 21.1Q18.45 20.15 18.05 19L17.05 16.35Q16.4 15.1 16.2 13.7L17.4 14.4L20.6 17.2Q21.85 18.55 23.25 18.8L23.4 19.3L24.25 18.85L24.55 18.8L24.65 18.5L29.2 13.35Q31.3 10.65 33.4 8.8L32.3 12.05L30.65 16.7Q29.6 18.95 29.55 21.2L34.8 21.3L34.4 21.55Q33.15 22.45 32 23.45Q31.05 24.3 30.45 25.3Q31.55 26.8 33.45 27.7Q35.85 28.8 38 30.25L28.25 29.3" />
</g>
</svg>
