<?xml version="1.0" encoding="utf-8"?>
<svg version="1.1" id="Layer_1"
xmlns="http://www.w3.org/2000/svg"
xmlns:xlink="http://www.w3.org/1999/xlink"
width="39px" height="44px"
xml:space="preserve">
<g id="1580" transform="matrix(1, 0, 0, 1, -4.3, -0.2)">
<path style="fill:#FF0100;fill-opacity:1" d="M42.7,22.2Q42.75 22.6 42.35 22.7Q41.55 22.9 41.1 22.45Q43.05 22.8 42.55 21.25Q42.2 20.25 43.25 19.75Q42.6 20.8 42.7 22.2M34.95,12.2L34.95 12.15L35.05 12.1L34.65 11.85Q34.35 11.65 34.5 11.4Q34.85 11.8 35.3 12L35.6 11.9L37.6 12.05L38.35 12.15Q38.95 12.5 39 13.1Q38.45 12.5 37.8 12.25L35.1 12.3L34.95 12.2M20.35,1.15L20.35 1.2L21.95 1.85Q20.95 1.9 20.1 1.3Q20.3 0.5 21.1 0.2L20.35 1.15M28.3,10.25L29.6 13.35L29.7 13.8L29.15 12.55L28.8 11.9Q28.15 11.1 28.3 10.25M22.7,20.9Q26.2 20.6 26.95 23.55L26.95 23.65Q25.5 20.45 21.6 21.65L21.05 21.6L21.05 21.45Q21.8 20.95 22.7 20.9M30.1,18.65L32.5 19.9Q33.25 20.35 32.95 21.25Q32.95 20.45 32.15 19.95Q31.2 19.4 30.2 19Q29.9 18.85 30.1 18.65M32.3,22.7L30.2 24.9L30.15 24.9Q30.75 23.5 32.25 22.7L32.3 22.7M14.65,10L14.7 10Q14.4 11 14.65 12.05Q14.1 11.1 14.65 10M8.95,6.95Q7.65 7.85 5.55 7.8L5.5 7.8L8.95 6.95M5.4,22.1Q4.7 22.5 4.6 23.3Q4.15 25.8 6.6 26.45L6.5 26.35Q6.5 26.15 6.75 26.2L7.1 26.55L7.25 26.55L7.15 26.55Q8.35 27.85 6.2 28.5L6.15 28.5Q8.05 27.5 6.7 26.5Q3.55 26.1 4.5 22.95Q4.8 21.95 5.75 21.3Q7.2 20.3 6.9 18.7Q7.6 20.8 5.4 22.1M14.2,14.65L12.9 15.45L12.65 15.45Q13.95 14.35 15.5 13.7L15.55 13.7Q15.25 14.15 14.2 14.65M18.7,31.3L18.6 31.15Q18.05 30.15 18.95 29.35Q19.25 29.1 19.6 29Q18.4 30.05 18.7 31.3M19.3,33.2Q19.35 35 17.55 34.85Q19.5 34.05 19.05 32.25L19.3 33.2M13.65,36.75L12.5 37.95L12.45 37.95L13.55 36.8L13.65 36.75M36.05,33.05Q35.95 31.85 37 31.1L37.05 30.7Q36.55 29.6 37.55 28.75Q36.85 29.8 37.2 31Q37.4 31.8 36.65 32.1L36.25 32.5L36.05 33.05M25.1,42.25Q23.95 43.25 22.4 43.3Q21.85 43.3 21.65 43.75Q21.55 43.9 21.45 43.85Q22.1 42.4 24 42.55L24.85 42.2Q25.95 40.8 27.6 40.15L25.1 42.25" />
</g>
</svg>
