<?xml version="1.0" encoding="utf-8"?>
<svg version="1.1" id="Layer_1"
xmlns="http://www.w3.org/2000/svg"
xmlns:xlink="http://www.w3.org/1999/xlink"
width="179px" height="15px"
xml:space="preserve">
<g id="1390" transform="matrix(1, 0, 0, 1, 1, -19.75)">
<path style="fill:#F6D7BF;fill-opacity:1" d="M173.1,31.9L170.1 33.85L171.2 30.45L168.4 28.15L172 28.15L173.3 24.8L174.4 28.25L178 28.4L175.1 30.55L176 34L173.1 31.9M151.1,25.15L156.3 25.15L158.2 20.3L159.8 25.25L165 25.5L160.8 28.6L162.15 33.65L157.9 30.55L153.55 33.4L155.15 28.45L151.1 25.15M25.9,24.6L21.85 27.9L23.45 32.85L19.1 30L14.85 33.1L16.2 28.05L12 24.95L17.2 24.7L18.8 19.75L20.7 24.6L25.9 24.6M1,33.45L1.9 30L-1 27.85L2.6 27.7L3.7 24.25L5 27.6L8.6 27.6L5.8 29.9L6.9 33.3L3.9 31.35L1 33.45" />
</g>
</svg>
