<?xml version="1.0" encoding="utf-8"?>
<svg version="1.1" id="Layer_1"
xmlns="http://www.w3.org/2000/svg"
xmlns:xlink="http://www.w3.org/1999/xlink"
width="42px" height="31px"
xml:space="preserve">
<g id="321" transform="matrix(1, 0, 0, 1, -4.2, 12.2)">
<path style="fill:#E2E2E2;fill-opacity:0.8" d="M28.2,-12.15Q31.55 -11.5 32.85 -8.8Q36.2 -7.8 36.3 -4.5L37.5 -4.95L38.7 -5Q44.3 -4.3 43.4 1.25L42.85 3.35Q45 4.05 45.9 6.4Q46.85 8.95 44.95 10.85L44.75 11Q45.15 16.05 39.6 16.25Q37.75 16.3 36.65 14.9Q35.85 13.85 35.65 12.9L34.05 12.45Q29.75 10.75 25.2 11.35L24.8 11.3Q20.05 12.2 15.35 13.7Q9.9 15.4 5.4 18.15L5.2 17.65Q4.9 17.45 5.1 17.2L5.2 17.15Q5.35 16.85 4.55 17.15L4.2 17.05Q10.45 12.8 16.25 7.45Q21.05 3.1 24.35 -2.05Q23.45 -2.4 22.7 -3.4Q20.25 -6.75 23.1 -9.95Q24.85 -11.9 27.4 -12.2L28 -12.15L28.1 -12.1L28.2 -12.15M26,-2.05L24.65 -1.95Q24.75 -0.2 23.05 1.4Q20.8 3.5 18.7 5.75Q14.35 10.3 9.4 14.1L7.35 15.6Q7.05 15.7 7.45 16L7.5 16.25Q14.3 12.45 22.85 10.55L27.95 10.4L28.1 10.4L32.9 10.8Q34.4 11.1 35.65 11.75Q35.85 10.45 37.3 9.35L37.5 9.4L37.6 9.5L37.7 9.55L36.95 11.55Q37.65 12 37.95 13.35Q38.1 14.05 38.8 14.2Q41.3 14.85 42.65 12.8Q43.05 12.15 42.7 11.35Q42 9.7 40.7 8.6L40.7 8.55L40.75 8.45L40.85 8.4L40.9 8.35L40.95 8.3L41.1 8.3Q42.65 8.65 43.75 9.8L44.05 10.15L44.1 10.1Q46.05 8.35 44.6 5.95Q43.8 4.6 42.55 4Q40.7 7.5 35.6 7Q33.9 6.85 33.65 5.2L33.8 4.9L35.75 5.8L38.25 6.05Q40.4 5.7 41.55 3.9L41.7 3.65L41.55 3.6L41.6 3.45Q41.7 3.3 41.85 3.3L41.9 3.3Q44.1 -0.75 40.55 -3.55Q39.75 -4.2 38.7 -4.2Q37.35 -4.2 36.4 -3.6Q36.65 -1.7 34.9 -0.15Q33.95 1 32.4 1.7L31.1 1.95L30.85 2.05Q27.3 3.95 23.85 6.15L19 9.05Q21.4 6.35 24.9 4.5L30.9 1L30.15 0.7Q29.95 0.6 30.15 0.4Q33.05 0 34.4 -2.5Q35.25 -4.1 34.25 -5.35L33.3 -4.65L33.3 -4.6Q32.95 -3.6 32.1 -2.65Q30.95 -1.3 29.5 -1.45Q31.8 -3.25 32.5 -6.15Q32.75 -7.3 32.1 -8.35L31.8 -8.85L31.75 -8.85L31.75 -8.9Q30.25 -11 27.8 -11.65Q24.6 -11.05 23.1 -8.15Q21.2 -4.4 25.35 -2.7L26 -2.05" />
<path style="fill:#E2E2E2;fill-opacity:0.498039" d="M25.35,-2.7Q21.2 -4.4 23.1 -8.15Q24.6 -11.05 27.8 -11.65Q30.25 -11 31.75 -8.9L31.75 -8.85L31.8 -8.85L32.1 -8.35Q32.75 -7.3 32.5 -6.15Q31.8 -3.25 29.5 -1.45Q30.95 -1.3 32.1 -2.65Q32.95 -3.6 33.3 -4.6L33.3 -4.65L34.25 -5.35Q35.25 -4.1 34.4 -2.5Q33.05 0 30.15 0.4Q29.95 0.6 30.15 0.7L30.9 1L24.9 4.5Q21.4 6.35 19 9.05L23.85 6.15Q27.3 3.95 30.85 2.05L31.1 1.95L32.4 1.7Q33.95 1 34.9 -0.15Q36.65 -1.7 36.4 -3.6Q37.35 -4.2 38.7 -4.2Q39.75 -4.2 40.55 -3.55Q44.1 -0.75 41.9 3.3L41.85 3.3Q41.7 3.3 41.6 3.45L41.55 3.6L41.7 3.65L41.55 3.9Q40.4 5.7 38.25 6.05L35.75 5.8L33.8 4.9L33.65 5.2Q33.9 6.85 35.6 7Q40.7 7.5 42.55 4Q43.8 4.6 44.6 5.95Q46.05 8.35 44.1 10.1L44.05 10.15L43.75 9.8Q42.65 8.65 41.1 8.3L40.95 8.3L40.9 8.35L40.85 8.4L40.75 8.45L40.7 8.55L40.7 8.6Q42 9.7 42.7 11.35Q43.05 12.15 42.65 12.8Q41.3 14.85 38.8 14.2Q38.1 14.05 37.95 13.35Q37.65 12 36.95 11.55L37.7 9.55L37.6 9.5L37.5 9.4L37.3 9.35Q35.85 10.45 35.65 11.75Q34.4 11.1 32.9 10.8L28.1 10.4L27.95 10.4L22.85 10.55Q14.3 12.45 7.5 16.25L7.45 16Q7.05 15.7 7.35 15.6L9.4 14.1Q14.35 10.3 18.7 5.75Q20.8 3.5 23.05 1.4Q24.75 -0.2 24.65 -1.95L26 -2.05L25.35 -2.7" />
</g>
</svg>
