<?xml version="1.0" encoding="utf-8"?>
<svg version="1.1" id="Layer_1"
xmlns="http://www.w3.org/2000/svg"
xmlns:xlink="http://www.w3.org/1999/xlink"
width="23px" height="24px"
xml:space="preserve">
<g id="727" transform="matrix(1, 0, 0, 1, 10.5, 4.55)">
<path style="fill:#000000;fill-opacity:1" d="M2.85,-2.3L2.95 -1.95L3.3 -0.4L3.6 1L3.45 1.25L3.35 3L2.75 4.95L2.55 5.05L2.5 5.25L2.25 5.45Q0.1 5.3 1.35 3.45Q2 2.55 1.8 1.5L1.75 0.7L1.05 -0.6Q0.45 -2.05 1.65 -2.55L2.2 -2.45L2.85 -2.3M0.3,-1.4L-3.55 -1.6L-3.8 -1.95Q-4 -4.15 -1.7 -4.55L-0.9 -3.9Q-0.2 -3.2 0.2 -2.3L0.3 -1.4M-0.5,2.8L-0.75 3.8L-0.15 4.5L0.3 5.4L0.25 5.6L0.1 5.6L-0.1 5.5L-0.4 6.25L-1.95 7.95L-0.45 9.75Q0.2 10.45 -0.3 11.1Q-0.85 11.75 -1.55 11.8L-1.25 12L-1.2 12.05L-0.95 14.8L-0.6 16.25Q0.3 19.15 -2.8 18.4L-3.1 16.9Q-3.05 15.3 -3.5 13.85L-4.15 13.45L-4.35 13.25Q-4.65 13.5 -5 13.55L-5.15 13.45L-6.5 12.5L-7.15 11.85Q-7.95 11.8 -8.55 11.15L-10.5 9.15L-10.45 9.1L-9.5 8.4L-8.75 7.4L-8.1 7.85L-5.7 10.2L-3.8 12.1L-3.8 12.05Q-3.45 11.3 -2.35 11.7L-2.5 11.6Q-4.3 10.8 -5.35 9.1Q-6.1 7.85 -5.4 7.45L-4.2 4.9L-3.6 4.15L-3.2 3.65L-2.6 2.9Q-3.15 2.5 -3.3 1.4L-3.2 1.25Q-2.5 0.8 -1.7 0.5L-0.3 -0.25Q0.2 0.15 0.35 0.85Q0.65 2.15 -0.5 2.75L-0.5 2.8M-3.3,13.1L-3.25 13.3L-3.25 13.15L-3.3 13.1M-4.1,17.3Q-3.55 18.3 -4.4 18.95L-6.75 18.9L-6.7 18.8L-5.8 17.55L-4.65 16.6L-4.1 17.3M1.65,10.8L2.3 11.2Q4.15 12.05 4.35 14L4.8 13.9L8.15 13.45L11.75 13.05L11.9 13.15L11.95 13.3L11.95 13.55L11.95 13.7L11.95 13.8L11.9 13.9L10.65 14.25L6.7 14.9L4.55 15.1Q5.1 16.85 7.1 17.5Q7.2 18.4 6.35 18.65Q5.3 19 4.6 18.35Q3.7 17.55 3.3 16.5Q2.65 14.9 1.25 13.95L0.35 13Q-0.65 11 1.15 10.6L1.65 10.8" />
</g>
</svg>
