<?xml version="1.0" encoding="utf-8"?>
<svg version="1.1" id="Layer_1"
xmlns="http://www.w3.org/2000/svg"
xmlns:xlink="http://www.w3.org/1999/xlink"
width="6px" height="6px"
xml:space="preserve">
<g id="1143" transform="matrix(1, 0, 0, 1, -11.2, 5.3)">
<path style="fill:#683D14;fill-opacity:1" d="M13.25,-3.45L12.75 -3.45L12.55 -3.45L12.55 -3.75L12.75 -3.75L13.25 -3.75L15.15 -3.8L15.15 -3.5L13.25 -3.45M12.8,-2.7L13.25 -2.7L15.15 -2.75L15.15 -2L13.25 -1.95L12.8 -1.95L12.6 -1.95L12.55 -2.7L12.8 -2.7M12.1,-3.75L12.1 -3.45L11.3 -3.45L11.25 -4.4L12.1 -3.75M12.1,-1.9L11.4 -1L11.3 -2.7L12.1 -2.7L12.1 -1.9M15.65,-3.5L15.65 -3.7L16.2 -3.7L16.2 -3.55L15.65 -3.5M16.2,-2.8L16.2 -2L15.65 -2L15.65 -2.75L16.2 -2.8" />
<path style="fill:#985929;fill-opacity:1" d="M12.55,-2.7L12.55 -3.45L12.75 -3.45L13.25 -3.45L15.15 -3.5L15.15 -2.75L13.25 -2.7L12.8 -2.7L12.55 -2.7M12.1,-2.7L11.3 -2.7L11.3 -3.45L12.1 -3.45L12.1 -2.7M15.65,-2.75L15.65 -3.5L16.2 -3.55L16.2 -2.8L15.65 -2.75" />
<path style="fill:#100806;fill-opacity:1" d="M12.55,-2.7L12.6 -1.95L12.8 -1.95L13.25 -1.95L15.15 -2L15.15 -2.75L15.15 -3.5L15.15 -3.8L13.25 -3.75L12.75 -3.75L12.55 -3.75L12.55 -3.45L12.55 -2.7M12.1,-3.45L12.1 -3.75L11.25 -4.4L11.2 -5.3L12.2 -4.5L16.2 -4.5L16.65 -3.7L16.7 -3.7L16.7 -1.95L16.2 -1.05L12.1 -0.95L11.4 0.1L11.4 -1L12.1 -1.9L12.1 -2.7L12.1 -3.45M15.65,-2.75L15.65 -2L16.2 -2L16.2 -2.8L16.2 -3.55L16.2 -3.7L15.65 -3.7L15.65 -3.5L15.65 -2.75" />
</g>
</svg>
