<?xml version="1.0" encoding="utf-8"?>
<svg version="1.1" id="Layer_1"
xmlns="http://www.w3.org/2000/svg"
xmlns:xlink="http://www.w3.org/1999/xlink"
width="16px" height="12px"
xml:space="preserve">
<g id="1039" transform="matrix(1, 0, 0, 1, 8.5, 9.5)">
<path style="fill:#232323;fill-opacity:0.878431" d="M6.8,-7.4L6.5 -6.7Q6.15 -6.2 5.45 -6.2L4.3 -6.5L3.65 -6.3L3.1 -6.7L3.05 -6.75Q2.85 -6.9 2.8 -7.25L2.7 -7.6L2.95 -8.3L3.05 -8.35Q3.2 -9.3 4.55 -9.3Q5.7 -9.3 6.35 -8.55L6.8 -7.4M4.35,-3.15L4.05 -2.65L5.3 -1.75L5.5 -0.65Q5.5 -0.1 4.95 -0.1L4.5 -0.2L4.75 0.8Q4.75 1.8 3.6 1.8L3.1 1.7L2.9 1.5L2.95 1.95Q2.85 2.45 2.2 2.45Q1.55 2.45 1.05 1.4L1 1.35Q0.5 1.85 -0.2 1.85Q-1.4 1.85 -2.05 1.15L-2.5 0.1L-2.25 -0.6L-3.55 -1.45L-4.4 -1.85Q-4.6 -2 -4.6 -2.3Q-4.6 -3.85 -2.75 -3.85L-2.4 -3.8Q-2.4 -4.35 -1.75 -4.75L-0.6 -4.65L-0.4 -5.05L0.35 -6Q1.25 -6.3 1.7 -5.6Q2.1 -5.05 2 -4.35L2.6 -4.4Q3.6 -4.4 4.05 -3.9L4.35 -3.15M1.3,-0.35L2 0.1L2.1 -0.6L2.25 -0.65L2.65 -0.5Q2.95 -0.5 2.95 -1.3Q2.9 -1.45 3.2 -2.05L0.75 -3.6L0.75 -2.95L0.85 -2.65Q0.85 -2.4 0.45 -2.4L-0.2 -2.65L-0.6 -2.85L-0.95 -2.95L-1.2 -2.95L-1.4 -2.9L-1.4 -2.4L-1.2 -2L-0.9 -1.25L-0.85 -1.05L-0.9 -0.9L-1.1 -0.55Q-1.05 -0.1 -0.25 -0.1L0.25 -0.15L0.35 -0.55L0.6 -0.8L1.3 -0.35M-4.35,-8.75Q-3.9 -9.5 -3.3 -9.5Q-2.25 -9.5 -1.6 -8.45Q-1.1 -7.7 -1.1 -7.15Q-1.1 -6.15 -3.1 -6.15Q-4.7 -6.15 -4.7 -7.6L-4.35 -8.75M-5.75,1.7L-7 2.15Q-7.8 2.15 -8.25 1.75L-8.5 1.25Q-8.5 0.4 -6.85 -0.3L-4.8 1.05Q-4.8 1.2 -5.75 1.7" />
<path style="fill:#FFB600;fill-opacity:0.917647" d="M0.6,-0.8L0.35 -0.55L0.25 -0.15L-0.25 -0.1Q-1.05 -0.1 -1.1 -0.55L-0.9 -0.9L-0.85 -1.05L-0.9 -1.25L-1.2 -2L-1.4 -2.4L-1.4 -2.9L-1.2 -2.95L-0.95 -2.95L-0.6 -2.85L-0.2 -2.65L0.45 -2.4Q0.85 -2.4 0.85 -2.65L0.75 -2.95L0.75 -3.6L3.2 -2.05Q2.9 -1.45 2.95 -1.3Q2.95 -0.5 2.65 -0.5L2.25 -0.65L2.1 -0.6L2 0.1L1.3 -0.35L0.6 -0.8" />
</g>
</svg>
