<?xml version="1.0" encoding="utf-8"?>
<svg version="1.1" id="Layer_1"
xmlns="http://www.w3.org/2000/svg"
xmlns:xlink="http://www.w3.org/1999/xlink"
width="21px" height="13px"
xml:space="preserve">
<g id="621" transform="matrix(1, 0, 0, 1, -39.1, -13.2)">
<path style="fill:#000000;fill-opacity:1" d="M48.6,14.05L49.7 14.75Q51.7 16.05 53.9 15.9L57.25 15.35L58.45 15L59.1 16.2L59.65 17L60.05 17.6Q60.25 18.15 59.9 18.65L59.1 19.6L57.45 18.2L56.9 18.1L54.45 19L53 19.55L53.25 19.7L53.9 20.1Q55.95 20.1 57.8 19.05L58.05 19.75L58.5 20.9Q59 21.75 59.1 22.75L59 23.4L59 23.45L59.05 23.55L59.05 23.75L57.6 24.15L56.9 24.05L56.8 23.85L56.7 23.7L56.55 23.45L56.4 23.15L56.25 22.8L56.25 22.75L53.8 23.45L51.55 24.05L51.5 24.15L51.35 24.9L51.35 25L51.3 25L51.3 25.05L48.2 25.25L46.4 25.05L41.25 24.25L41.1 23.45L41.1 23.15L40.6 23.15L39.9 22.8L39.4 22.35L39.25 22.2L39.15 21.8Q39 21.3 39.4 20.85L40 20.3L40.2 19.45L40.9 17.75L41.8 15.45L41.85 15.4L42.3 15.35L42.6 15.4L43.25 15.5L43.25 15.55L44.7 14.05Q45.45 13.45 46.35 13.2Q47.5 13.4 48.6 14.05M41.1,23.05L41.05 23.1L41.1 23.1L41.1 23.05M46.25,19.55L45.9 20.35L45.85 20.4L46.45 20.6L46.1 20.45L46.15 20.45L47 20.6L47.15 20.65L48.3 20.15L47.6 19.3L46.8 18.9L46.25 19.55" />
</g>
</svg>
