<?xml version="1.0" encoding="utf-8"?>
<svg version="1.1" id="Layer_1"
xmlns="http://www.w3.org/2000/svg"
xmlns:xlink="http://www.w3.org/1999/xlink"
width="27px" height="14px"
xml:space="preserve">
<g id="628" transform="matrix(1, 0, 0, 1, 45.95, -12.25)">
<path style="fill:#000000;fill-opacity:0.498039" d="M-21.85,23.3Q-19.45 23.6 -19.45 24.3Q-19.45 25 -23.45 25.5L-32.75 26L-42.15 25.5Q-45.95 25 -45.95 24.3Q-45.95 23.9 -44.75 23.6L-42.15 23.1L-38.05 22.75Q-35.6 22.6 -30.9 22.75L-25.2 22.95L-21.85 23.3" />
<path style="fill:#000000;fill-opacity:1" d="M-19.25,19.55L-19.15 20.2L-19.3 21.05L-19.75 22.2L-19.85 22.25L-20.85 22.15L-21.2 22.05Q-21.95 24.3 -23.75 25.1L-24.25 25.15Q-27.75 24.9 -30.8 23.3Q-31.6 22.85 -32.6 22.9L-37.1 23.45Q-37.25 24.35 -37.8 25.2L-38.5 25.65Q-40.8 26.2 -41.8 24.9Q-44.6 25.9 -45.45 23.55Q-46.45 20.75 -43.45 19.8L-42.15 20L-42.05 18.7Q-42.05 18.3 -41.7 18.25L-41.2 18.3L-41 18.35L-41.1 19.75L-41.2 20.35L-40.9 20.6L-39.25 19.55L-39.35 19.2L-39.3 17.6L-39.2 17.55Q-38.75 18.1 -38.6 18.95L-38.55 19.25L-37.25 18.75L-37.1 18.7L-36.55 18.5L-37.5 18.25L-38 17.7L-37.75 17.45L-36.55 17.95L-35.8 18.2Q-34.3 17.5 -32.95 16.45Q-31.7 16.7 -30.55 17.3L-27.65 16.35L-27.5 16.5L-26.95 16.05Q-26.15 15.45 -26.55 14.25L-26.9 13.05L-26.8 12.9Q-26.25 12.35 -25.4 12.3L-25.3 12.3Q-24.2 12.05 -23.7 13.15Q-23.2 14.35 -24.15 14.95L-24.25 15.05Q-24.25 16.85 -24.85 18.3L-25.25 18.7Q-26.65 19.6 -28.1 19.9L-28.1 19.95L-27.35 20.45Q-26.1 21.3 -24.7 21.6L-23.8 20.5Q-23.2 19.75 -22.9 18.85L-22.2 18.15L-20.8 18.7Q-20.05 18.95 -19.45 19.4L-19.25 19.55" />
</g>
</svg>
