<?xml version="1.0" encoding="utf-8"?>
<svg version="1.1" id="Layer_1"
xmlns="http://www.w3.org/2000/svg"
xmlns:xlink="http://www.w3.org/1999/xlink"
width="27px" height="14px"
xml:space="preserve">
<g id="684" transform="matrix(1, 0, 0, 1, 13.15, 14.2)">
<path style="fill:#7E0000;fill-opacity:1" d="M4.3,-6.25L4.55 -6.1L4.65 -5.85L4.65 -5.35L4.4 -4.95Q3.9 -4.7 3.55 -5.1Q3.25 -5.5 3.4 -6L3.5 -6.05L3.55 -6.15L3.8 -6.25L3.95 -6.3L4.1 -6.3L4.3 -6.25M9.15,-3.3L9.2 -3.3L9.4 -3.45L9.5 -3.45L9.8 -3.45L9.95 -3.35L10.4 -2.95L10.4 -2.2L10.35 -2.15Q9.7 -1.65 9.35 -2.4L9.3 -2.8L9.2 -2.85L9.2 -2.9L9.15 -3L9.15 -3.1L9.15 -3.3M12.35,-2.65L12.6 -2.6L12.7 -2.5L12.8 -2.45L12.95 -1.95L12.95 -1.1L12.9 -0.8Q12.05 -0.3 11.85 -1.3L11.85 -1.6L11.75 -1.7Q11.7 -1.6 11.55 -1.6L11.35 -1.75L11.45 -1.9L11.9 -2.1L11.9 -2.35L11.95 -2.45L12 -2.5L12.15 -2.6L12.35 -2.65M-7,-12.75L-6.8 -12.65L-6.85 -12.6L-6.95 -12.45Q-5.8 -11.95 -7.25 -11.5L-8.25 -11.6L-8.3 -11.6L-8.35 -11.5L-8.45 -11.4L-8.65 -11.35L-8.7 -11.5L-8.6 -11.75L-8.5 -12L-8.5 -12.1L-8.1 -12.45L-7.5 -12.75L-7.3 -12.8L-7 -12.75M-9,-13.15Q-9.05 -12.25 -9.9 -11.85L-9.9 -11.8L-9.95 -10.3L-9.55 -11.25L-9.4 -11.35Q-9.15 -10.85 -9.55 -10L-9.85 -8.75L-8.4 -10.5L-8.15 -10.6L-8.05 -10.6L-7.8 -10.55L-7.6 -10.4Q-7.2 -9.4 -8.15 -8.85L-9.05 -7.9L-9.4 -7.5L-9.9 -6.95L-10.25 -6.55L-10.75 -7.15Q-11.15 -7.15 -11.4 -7.5L-11.7 -8.2L-11.9 -8.65L-12.75 -8.8Q-13.2 -9.05 -13.15 -9.65L-13.05 -10.15L-13 -10.2L-12.9 -10.3L-12.7 -10.4L-12.55 -10.45Q-11.85 -10.3 -11.3 -9.85L-11.3 -10.65Q-11.15 -12.3 -10.5 -13.8Q-10.35 -14.15 -10 -14.2Q-8.9 -14.2 -9 -13.15M-1.7,-10.25Q-1.5 -9.8 -1.8 -9.45L-1.9 -9.35Q-2.45 -9.15 -2.8 -9.65L-2.9 -10.4L-2.75 -10.55L-2.55 -10.65L-2.4 -10.7L-1.8 -10.45L-1.8 -10.4L-1.7 -10.25M-4.95,-10.8Q-4.55 -9.8 -5.55 -9.85L-5.6 -9.85L-6.4 -9.85L-6.45 -10.15L-6.45 -10.4L-6.45 -10.55L-5.95 -11L-5.4 -11.35L-5.15 -11.1L-5 -10.9L-4.95 -10.85L-4.95 -10.8" />
</g>
</svg>
