<?xml version="1.0" encoding="utf-8"?>
<svg version="1.1" id="Layer_1"
xmlns="http://www.w3.org/2000/svg"
xmlns:xlink="http://www.w3.org/1999/xlink"
width="180px" height="15px"
xml:space="preserve">
<g id="347" transform="matrix(1, 0, 0, 1, -1.8, -19.75)">
<path style="fill:#E7B366;fill-opacity:1" d="M176.7,31.9L173.7 33.85L174.8 30.45L172 28.15L175.6 28.15L176.9 24.8L178 28.25L181.6 28.4L178.7 30.55L179.6 34L176.7 31.9M164.4,28.6L165.75 33.65L161.5 30.55L157.15 33.4L158.75 28.45L154.7 25.15L159.9 25.15L161.8 20.3L163.4 25.25L168.6 25.5L164.4 28.6M28.7,24.6L24.65 27.9L26.25 32.85L21.9 30L17.65 33.1L19 28.05L14.8 24.95L20 24.7L21.6 19.75L23.5 24.6L28.7 24.6M5.4,27.7L6.5 24.25L7.8 27.6L11.4 27.6L8.6 29.9L9.7 33.3L6.7 31.35L3.8 33.45L4.7 30L1.8 27.85L5.4 27.7" />
</g>
</svg>
