<?xml version="1.0" encoding="utf-8"?>
<svg version="1.1" id="Layer_1"
xmlns="http://www.w3.org/2000/svg"
xmlns:xlink="http://www.w3.org/1999/xlink"
width="52px" height="44px"
xml:space="preserve">
<g id="459" transform="matrix(1, 0, 0, 1, 0.35, 4.05)">
<path style="fill:#FFCC00;fill-opacity:1" d="M29.95,-2.8Q32 -1.65 32.55 0.55Q34.7 0.6 36.4 1.85Q38.5 3.35 39.8 5.5L40.35 6.9L41.3 7.85Q42.6 9.45 42.85 11.45Q43 12.65 42.65 13.8Q45.5 17 45 21.2Q44.7 23.8 42.55 25.25Q38.35 28.1 34.25 26.35Q34.65 27.8 32.7 28.85Q30.95 29.8 29 29.1L28.05 28.55Q26.95 29.95 24.7 30.15Q23.25 30.3 22.05 29.7Q21.65 33.5 17.25 33.95Q11.75 34.55 10 29.6Q9.3 27.7 10.4 26Q10.6 25.7 10.85 25.7L14.85 28.15Q16.85 29.55 19.3 29.55L22.05 29.7L21.1 29.1L20.85 28.95L19.65 27.95L19.5 27.9L18.6 28.35Q17.8 28.8 17.1 28.35Q15.45 28.3 13.95 26.6Q12.8 25.25 12.75 23.55Q12.75 22.75 13.05 22Q12.15 20.95 11.75 19.4Q11.55 18.5 11.75 17.65Q10.35 16.8 10.7 14.25Q11.1 11.05 13.35 8.65L14.7 7.6Q13.7 6.4 14.4 4.2Q15.75 0.05 19.75 -2.1Q22.6 -3.6 25.75 -4.05Q28 -3.9 29.95 -2.8M24.2,-2.4L22.6 -2Q19.65 -1.2 17.65 1.1Q16.1 2.9 15.3 5.1Q14.95 6.05 15.25 7L15.25 7.3L15.65 7.15Q16.9 7.2 17.7 6.3L18.35 6L18.65 5.9L18.75 5.75Q18.9 5 19.45 4.45Q20.7 3.1 22.35 2.3L23.55 1.8L26.85 2.05Q28.15 2.2 29.2 3L29.95 4L29.95 4.1L29.9 4.25L29.8 4.55L29.7 4.65L29.65 4.75Q29.1 3.85 28.2 3.25Q27.05 2.4 25.5 2.5Q24.05 2.55 22.75 3.25Q21.1 4.15 19.95 5.55L19.55 6.4Q17.7 6.75 16.1 8.05Q14.8 9.1 15.2 10.6L15.2 11.35L14.9 11L14.7 10.4L14.55 10.15L14.3 10.05L14.1 10L13.85 10Q13.5 10.45 13.5 10.95Q12.85 11.25 12.5 12Q11.9 13.2 11.85 14.55Q11.8 15.6 12.25 16.35L12.25 16.4L12.3 16.35L12.8 16.95L12.8 17.2Q12.75 18.5 13.1 19.7Q13.5 20.95 14.35 21.5Q13.95 22.35 13.9 23.5Q13.8 25.5 15.5 26.4L16.6 26.95L17.9 27.45L18.1 27.3Q20.2 27.5 21.15 25.4L21.25 25.5L21.2 25.7Q21 25.85 20.95 26.15L21 27L20.95 27L20.8 27.15Q20.6 27.8 21.1 28.2Q21.6 28.6 22.15 28.65L25.85 28.5Q27.65 27.8 28.2 26.85L28.65 27.5L28.6 27.6L28.85 27.65Q30.2 28.85 32.8 27.45Q34.2 26.7 34.45 25.7L34.55 25.7Q38 26 40.6 24.45Q41.7 24.1 42.45 23.1L42.85 22.55Q43.85 21.35 43.85 19.85Q43.85 16.05 41.1 14.1Q41.45 12.85 41.2 11.65Q40.9 9.75 39.65 8.25L39.6 8.2L39.4 8.15L38.45 5.8Q37.05 2.45 33.1 1.6L32.8 1.7L32.6 1.85L32.35 2.15L32.3 2.4L32.3 2.7L33.1 3.15L33.15 3.35L33.1 3.5L33.05 3.6L32.95 3.75L32.9 3.9L32.75 4L32.4 4.1L31.6 2.6L31.8 2.7Q32.5 1.55 31.35 0.55L28.9 -1.15L27.95 -1.7L27.75 -1.75Q26.05 -2.45 24.2 -2.4M40.25,-0.4L40.1 -0.3L39.9 -0.15Q42.55 1 44.35 3.25Q46.1 5.5 46.6 8.35L47.2 12.05Q49.95 11.15 49.8 7.55Q49.55 2.9 45.7 0.65Q43.4 -0.7 40.65 -0.55L40.45 -0.5L40.25 -0.4M40.65,-1.65Q50.8 -1.5 51 8.2Q51.1 13.15 46.55 13.05Q45.85 13 45.85 12.2Q45.85 3.05 37.3 1.2L37.25 1.05Q37.3 0.4 37.85 0.05L39.3 -0.95Q39.9 -1.45 40.65 -1.65M37,18.5Q38.3 15.35 36 14.2L35.9 14.05L35.8 14.1L35.55 14L35.3 14.05L34.8 14.05Q36.35 11.3 34.55 8.65Q33 6.45 30.45 6.4L30.5 6.35Q30.65 6.2 30.9 6.15L31.25 6.1Q33.8 6 35.45 7.85Q37.05 9.6 36.85 11.95L36.55 13.2Q38.5 14.4 38.25 17.3Q37.95 20.75 34.85 22.05L32.85 22.4Q35.8 21.4 37 18.5M22,21.35Q20.9 21.1 19.95 19.65Q19.45 18.85 19.65 18Q18.4 17.85 18.35 15.85Q18.35 13.8 19.55 12.15Q20.35 11 21.5 10.55L22.15 11.3L22.05 11.4Q20.8 12.5 20.05 13.95Q19.45 15 19.7 16.25L19.95 16.5L21.05 16.85L21.35 16.85Q20.85 17.4 20.75 18.1L20.75 19.05Q20.9 20.35 21.95 21.3L22 21.35M27.1,15.15L27.65 16.3Q28 17.8 26.45 18.6L25.25 18.55L25.75 18.2Q27 17.2 27.1 15.55L27.1 15.15M7.95,8.65L8.85 8.55L9.2 8.55L9.65 8.7L10 9.1L8.2 11.35Q7.35 12.6 7.1 14.15Q6.9 15.4 7.4 16.5Q5.25 17.8 5.6 20.35Q5.95 22.8 6.75 25.15Q7.4 27.15 6.75 28.7Q2.25 28.45 0.4 24.05Q-0.75 21.3 -0.15 18.35Q0.1 17 1 16Q0.2 14.1 1.3 12.3Q3.65 8.6 7.95 8.65M3.85,11.45Q2.25 12.65 2.4 14.55L2.65 16.75L2.55 16.9L2.45 17.05L2.3 17.1L2.05 17.2L1.85 17.25Q1.2 18.55 1.05 20.05Q0.85 22.55 2.1 24.55Q3.45 26.7 5.85 27.35L5.15 24.9L4.3 20.75Q3.9 18.3 5.35 16.55L5.75 16.15L5.6 14.95Q5.5 14 5.8 13.15Q6.2 11.85 6.9 10.8L7.2 9.85Q5.35 10.3 3.85 11.45M11.35,27.35Q11.15 29.65 12.95 31.4Q14.7 33.15 17.3 32.7Q18.65 32.5 19.7 31.55Q16.95 31 13.8 29.2L11.4 27.35L11.35 27.35M38.4,30.4Q36.85 32.45 34.6 33.75Q32.4 34.95 30 35.15Q28.25 35.25 26.7 34.55Q29.65 39 34.85 37.65Q37.75 36.9 38.75 34.15Q39.4 32.55 38.8 30.85L38.4 30.4M38.1,27.55Q43.05 32.3 38.3 37.35Q36.65 39.15 34.25 39.4Q27.55 40.15 24.8 34.35Q24.4 33.55 24.85 32.75Q28.3 33.85 31.85 32.9Q36.7 31.55 38.1 27.6L38.1 27.55" />
<path style="fill:#FFFF00;fill-opacity:1" d="M15.3,7.1L15.25 7Q14.95 6.05 15.3 5.1Q16.1 2.9 17.65 1.1Q19.65 -1.2 22.6 -2L24.2 -2.4Q26.05 -2.45 27.75 -1.75L28 -1.65L28.9 -1.15L31.35 0.55Q32.5 1.55 31.8 2.7L31.6 2.6Q29.6 1.5 27.3 0.6L22.4 0.8Q19.5 2.2 18.4 5.1L17.7 6.3Q16.9 7.2 15.65 7.15L15.3 7.1M21.35,24.9L21.15 25.4Q20.2 27.5 18.1 27.3L18 27.3L17.5 27.2L16.6 26.95L15.5 26.4Q13.8 25.5 13.9 23.5Q13.95 22.35 14.35 21.5Q13.5 20.95 13.1 19.7Q12.75 18.5 12.8 17.2L12.8 16.95L12.3 16.35L12.25 16.35Q11.8 15.6 11.85 14.55Q11.9 13.2 12.5 12Q12.85 11.25 13.5 10.95Q13.5 10.45 13.85 10L14.1 10L14.3 10.05L14.55 10.15L14.7 10.4L14.9 11L15.2 11.35L15.2 10.6Q14.8 9.1 16.1 8.05Q17.7 6.75 19.55 6.4L19.95 5.55Q21.1 4.15 22.75 3.25Q24.05 2.55 25.5 2.5Q27.05 2.4 28.2 3.25Q29.1 3.85 29.65 4.75L30.05 5.45L30.25 6.25L30.3 6.4L30.45 6.4Q33 6.45 34.55 8.65Q36.35 11.3 34.8 14.05L35.3 14.05L35.55 14L35.8 14.1L36 14.2Q38.3 15.35 37 18.5Q35.8 21.4 32.85 22.4L32 22.6L30.15 23.6L30.55 24.25Q31.2 25.6 32.65 24.75L33.25 24.45L33.25 24.4L33.45 24.4L34.35 24.25Q36.9 23.75 39 21.85Q41.75 19.35 39.15 16.55Q38.3 15.65 38.8 14.7L38.75 14.6L38.55 14.4L38.45 14.3L38.4 14.15L38.3 14L38.3 13.9L38.3 13.75L38.35 13.6L38.4 13.45L38.45 13.3L38.55 13.2Q38.65 13.1 38.7 13.1L38.8 13.05L39.05 13L39.35 13.15L39.35 12.75Q39.3 11.55 38.8 10.5L38.35 9.5L38.3 9.65L38.2 9.9L38.1 10.2L37.8 10.45L37.4 10.55L37.1 10.55Q36.45 9.6 36.75 8.35Q37.25 6.35 35.7 5L33.1 3.15L32.3 2.7L32.3 2.4L32.35 2.15L32.6 1.85L32.8 1.7L33.1 1.6Q37.05 2.45 38.45 5.8L39.4 8.15L39.6 8.2L39.65 8.25Q40.9 9.75 41.2 11.65Q41.45 12.85 41.1 14.1Q43.85 16.05 43.85 19.85Q43.85 21.35 42.85 22.55L42.7 22.7L40.6 24.45Q38 26 34.55 25.7L34.45 25.7Q34.2 26.7 32.8 27.45Q30.2 28.85 28.85 27.65L28.65 27.5L28.2 26.85Q27.65 27.8 25.85 28.5L22.15 28.65Q21.6 28.6 21.1 28.2Q20.6 27.8 20.8 27.15L20.95 27L21 27L20.95 26.15Q21 25.85 21.2 25.7L21.25 25.5L21.35 24.9M40.45,-0.5L40.65 -0.55Q43.4 -0.7 45.7 0.65Q49.55 2.9 49.8 7.55Q49.95 11.15 47.2 12.05L46.6 8.35Q46.1 5.5 44.35 3.25Q42.55 1 39.9 -0.15L40.1 -0.3L40.25 -0.4L40.45 -0.5M21.95,21.3Q20.9 20.35 20.75 19.05L20.75 18.1Q20.85 17.4 21.35 16.85L21.05 16.85L19.95 16.5L19.7 16.25Q19.45 15 20.05 13.95Q20.8 12.5 22.05 11.4L22.15 11.3Q23.1 10.4 24.2 9.95L24.45 10L24.75 10.1L25.05 10.35L25.1 10.5Q25 11.55 24 12.25Q23.2 12.75 22.65 13.55L21.95 15L22.1 15L23.05 15.1L23.45 15.35Q23.75 16.55 23.15 17.8Q22.5 19.25 23.95 20L25 20.8L25.5 20.45Q26.7 19.7 27.4 21.15L27.65 21.65L30.25 21.5L32.5 19.6Q33.95 18.55 34.4 16.8L34.3 15.65L34.3 15.6L33.5 15.65L33.05 15.6L32.95 15.7Q31.85 17.35 30.1 16.85L29.95 16.7L29.9 16.55L29.9 16.4L29.9 16.25L29.9 16.15L29.9 16L29.95 15.85L30.5 15.25L30.9 14.75L31.35 13.9L31.65 13.15L31.3 11.9Q30.95 10.75 29.95 10.1Q29.15 9.55 29.05 9.05L27.4 8.05L27.4 7.9L27.45 7.75L27.55 7.6L28.15 7.3L28.7 7.25L28.7 7.1L28.75 6.95L28.8 6.9L27.7 6.3L27.2 6.1L27.05 6.05Q23.95 5.4 22.45 7.95L21.65 8.75L21.45 8.75L21.1 8.7L20.9 8.55L20.8 8.4L20.75 8.3L20.75 8.05L19.9 8.2Q18.95 8.6 18.15 9.2L16.65 10.75L16.6 10.85L16.6 11L16.6 11.15L16.65 11.3L16.85 11.55L17.5 12.2L17.7 12.7L17.25 13.1Q15.5 13.45 14.3 12.35Q14.05 12.9 13.95 13.55L13.7 14.5L14.45 14.05L15.7 13.95L15.85 14.05Q16.05 15.7 15.15 17.3Q14.4 18.55 15.4 19.6L15.9 20.1L17.25 20.2L19 20.15Q19.6 20.25 19.7 20.85L19.5 21.4L19 21.7L18.45 21.8L16.8 22.15L17.6 23.05Q18.15 23.7 19 23.65Q20.05 23.6 20.9 23.05L22.05 23.1L22.15 23.5L22.2 23.45Q22.65 23.55 22.65 24L22.65 24.7L22.4 25.4Q23.8 26.65 25.45 25.6Q26.3 25.05 27.25 25.15L27.35 25.05L27.5 24.9L27.55 24.9L27.55 23.45L27.1 23.1Q26.6 22.8 26.2 22.35L25.9 22.05L24.55 22.55Q23.5 22.8 22.95 22L22 21.35L21.95 21.3M27.1,15.55Q27 17.2 25.75 18.2L25.25 18.55Q24.65 18.75 24.1 18.25Q24.2 17.45 24.65 16.75Q25.2 15.95 25.1 15L25.1 13.45L25.2 13.3L25.4 13.2L25.7 13.1Q27.05 13.7 27.1 15.15L27.1 15.55M7.2,9.85L6.9 10.8Q6.2 11.85 5.8 13.15Q5.5 14 5.6 14.95L5.75 16.15L5.35 16.55Q3.9 18.3 4.3 20.75L5.15 24.9L5.85 27.35Q3.45 26.7 2.1 24.55Q0.85 22.55 1.05 20.05Q1.2 18.55 1.85 17.25L2.05 17.2L2.3 17.1L2.45 17.05L2.55 16.9L2.65 16.75L2.4 14.55Q2.25 12.65 3.85 11.45Q5.35 10.3 7.2 9.85M11.4,27.35L13.8 29.2Q16.95 31 19.7 31.55Q18.65 32.5 17.3 32.7Q14.7 33.15 12.95 31.4Q11.15 29.65 11.35 27.35L11.4 27.35M38.8,30.85Q39.4 32.55 38.75 34.15Q37.75 36.9 34.85 37.65Q29.65 39 26.7 34.55Q28.25 35.25 30 35.15Q32.4 34.95 34.6 33.75Q36.85 32.45 38.4 30.4L38.8 30.85" />
<path style="fill:#FFFFFF;fill-opacity:1" d="M31.6,2.6L32.4 4.1L32.75 4L32.9 3.9L32.95 3.75L33.05 3.6L33.1 3.5L33.15 3.35L33.1 3.15L35.7 5Q37.25 6.35 36.75 8.35Q36.45 9.6 37.1 10.55L37.4 10.55L37.8 10.45L38.1 10.2L38.2 9.9L38.3 9.65L38.35 9.5L38.8 10.5Q39.3 11.55 39.35 12.75L39.35 13.15L39.05 13L38.8 13.05L38.7 13.1Q38.65 13.1 38.55 13.2L38.45 13.3L38.4 13.45L38.35 13.6L38.3 13.75L38.3 13.9L38.3 14L38.4 14.15L38.45 14.3L38.55 14.4L38.75 14.6L38.8 14.7Q38.3 15.65 39.15 16.55Q41.75 19.35 39 21.85Q36.9 23.75 34.35 24.25L33.45 24.4L33.25 24.4L33.25 24.45L32.65 24.75Q31.2 25.6 30.55 24.25L30.15 23.6L32 22.6L32.85 22.4L34.85 22.05Q37.95 20.75 38.25 17.3Q38.5 14.4 36.55 13.2L36.85 11.95Q37.05 9.6 35.45 7.85Q33.8 6 31.25 6.1L30.9 6.15Q30.65 6.2 30.5 6.35L30.45 6.4L30.3 6.4L30.25 6.25L30.05 5.45L29.65 4.75L29.7 4.65L29.8 4.55L29.9 4.25L29.95 4.1L29.95 4L29.2 3Q28.15 2.2 26.85 2.05L23.55 1.8L22.35 2.3Q20.7 3.1 19.45 4.45Q18.9 5 18.75 5.75L18.65 5.9L18.35 6L17.7 6.3L18.4 5.1Q19.5 2.2 22.4 0.8L27.3 0.6Q29.6 1.5 31.6 2.6M21.5,10.55Q20.35 11 19.55 12.15Q18.35 13.8 18.35 15.85Q18.4 17.85 19.65 18Q19.45 18.85 19.95 19.65Q20.9 21.1 22 21.35L22.95 22Q23.5 22.8 24.55 22.55L25.9 22.05L26.2 22.35Q26.6 22.8 27.1 23.1L27.55 23.45L27.55 24.9L27.5 24.9L27.35 25.05L27.25 25.15Q26.3 25.05 25.45 25.6Q23.8 26.65 22.4 25.4L22.65 24.7L22.65 24Q22.65 23.55 22.2 23.45L22.15 23.5L22.05 23.1L20.9 23.05Q20.05 23.6 19 23.65Q18.15 23.7 17.6 23.05L16.8 22.15L18.45 21.8L19 21.7L19.5 21.4L19.7 20.85Q19.6 20.25 19 20.15L17.25 20.2L15.9 20.1L15.4 19.6Q14.4 18.55 15.15 17.3Q16.05 15.7 15.85 14.05L15.7 13.95L14.45 14.05L13.7 14.5L13.95 13.55Q14.05 12.9 14.3 12.35Q15.5 13.45 17.25 13.1L17.7 12.7L17.5 12.2L16.85 11.55L16.65 11.3L16.6 11.15L16.6 11L16.6 10.85L16.65 10.75L18.15 9.2Q18.95 8.6 19.9 8.2L20.75 8.05L20.75 8.3L20.8 8.4L20.9 8.55L21.1 8.7L21.45 8.75L21.65 8.75L22.45 7.95Q23.95 5.4 27.05 6.05L27.2 6.1L27.7 6.3L28.8 6.9L28.75 6.95L28.7 7.1L28.7 7.25L28.15 7.3L27.55 7.6L27.45 7.75L27.4 7.9L27.4 8.05L29.05 9.05Q29.15 9.55 29.95 10.1Q30.95 10.75 31.3 11.9L31.65 13.15L31.35 13.9L30.9 14.75L30.5 15.25L29.95 15.85L29.9 16L29.9 16.15L29.9 16.25L29.9 16.4L29.9 16.55L29.95 16.7L30.1 16.85Q31.85 17.35 32.95 15.7L33.05 15.6L33.5 15.65L34.3 15.6L34.3 15.65L34.4 16.8Q33.95 18.55 32.5 19.6L30.25 21.5L27.65 21.65L27.4 21.15Q26.7 19.7 25.5 20.45L25 20.8L23.95 20Q22.5 19.25 23.15 17.8Q23.75 16.55 23.45 15.35L23.05 15.1L22.1 15L21.95 15L22.65 13.55Q23.2 12.75 24 12.25Q25 11.55 25.1 10.5L25.05 10.35L24.75 10.1L24.45 10L24.2 9.95Q23.1 10.4 22.15 11.3L21.5 10.55M26.45,18.6Q28 17.8 27.65 16.3L27.1 15.15Q27.05 13.7 25.7 13.1L25.4 13.2L25.2 13.3L25.1 13.45L25.1 15Q25.2 15.95 24.65 16.75Q24.2 17.45 24.1 18.25Q24.65 18.75 25.25 18.55L26.45 18.6" />
</g>
</svg>
