<?xml version="1.0" encoding="utf-8"?>
<svg version="1.1" id="Layer_1"
xmlns="http://www.w3.org/2000/svg"
xmlns:xlink="http://www.w3.org/1999/xlink"
width="4px" height="5px"
xml:space="preserve">
<g id="1030" transform="matrix(1, 0, 0, 1, 2.2, 1.25)">
<path style="fill:#7EF0FF;fill-opacity:1" d="M0.6,-0.2L0.05 0.2Q-0.2 0.35 -0.6 0.5L-0.5 0.6L-0.2 0.75L0.1 1L0.2 1.15L0.3 1.2L0.3 1.3L0.45 1.6L0.6 2.2L0.9 2.8L1 3.15L1 3.4L0.9 3.45L0.9 3.6Q0.45 3.55 0.3 3.05L-0.05 2.25L-0.1 2L-0.3 2.1L-1 2.5Q-1.4 2.75 -1.7 2.8Q-2.2 2.9 -2.2 2.6L-1.65 2L-0.9 1.7L-0.7 1.6L-0.75 1.55Q-1.1 1.2 -1.4 1.05L-1.95 0.75L-2.05 0.6L-1.3 -0.05L-0.45 -0.55L0.2 -1L0.7 -1.25L0.75 -1.25L0.9 -1.2L1.1 -1L1.1 -0.85L1.1 -0.7L0.6 -0.2" />
</g>
</svg>
