<?xml version="1.0" encoding="utf-8"?>
<svg version="1.1" id="Layer_1"
xmlns="http://www.w3.org/2000/svg"
xmlns:xlink="http://www.w3.org/1999/xlink"
width="72px" height="45px"
xml:space="preserve">
<g id="360" transform="matrix(1, 0, 0, 1, 11.45, 5.3)">
<path style="fill:#3A1D0F;fill-opacity:0.85098" d="M9.5,-5.25Q10.9 -5.55 12.9 -3.25Q15.3 -0.45 18.25 0.2L18.45 0.7Q18 1.55 16.5 1.55Q12.2 1.55 10.7 -1.3Q9.9 -2.8 9.5 -5.25M57.55,24.25Q59.85 25 59.85 25.9Q59.85 27.25 56.05 28.8Q51.7 30.6 46.55 30.6Q45.5 30.6 45.25 29.65L45.25 28.65Q45.25 23.8 52.55 23.6Q55.3 23.55 57.55 24.25M52.55,36.5Q50.4 37.6 45.1 37.8L30 38.35L17.6 38.5L-9.6 39.45L-11.2 39.25L-11.45 39Q-10.7 38.05 -8.6 37.2L-8.35 37.15L-8.4 37.1Q-6.8 36.1 0.3 33.5Q6.45 31.25 7.7 29.75L12.15 25.45Q15.4 22.25 15.4 20.65L14.75 20.4Q13.8 20.1 12.6 18.7Q13.75 17.8 16.15 17.15L15.8 17Q15.65 16.9 15.65 16.4Q15.65 15.95 16.35 15.3L17.6 13.85Q17.3 13.5 17.1 12.5L17 11.5Q17 10.85 15.7 8.3L14.35 5.6Q14.35 3.05 18.55 6.6L24.15 11.75Q23.15 13.1 21.85 16.8Q20.45 20.6 20.45 22.4Q20.45 23.1 18.1 25.95L19.6 26.45Q20.8 26.9 20.8 27.55Q20.8 28.65 20.1 29.9L18 33.6Q20.75 35.1 25.35 33Q30.85 30.5 31.35 30.5Q33.2 30.5 33.55 31.05L34.4 32.6L37.95 32.75Q39.6 33.7 44.45 34.45Q48.15 35 49.15 35.8L51.95 35.8L52.55 36.5M30.15,15.25Q30.15 13.55 31.15 12.5Q32.45 11.1 35.15 11.1Q35.55 11.1 37.75 12.5Q40.05 14 40.05 14.65Q40.05 15.5 39.3 16.45Q38.55 17.4 37.8 17.4Q32.8 16.05 30.45 15.9Q30.25 15.85 30.2 15.8L30.15 15.25M34.45,20.35Q34.45 21.5 24.35 28.7L24.15 27.35Q24.15 26.95 28.65 23.6Q33.2 20.2 34.2 19.85L34.35 19.8L34.45 20.35" />
</g>
</svg>
