<?xml version="1.0" encoding="utf-8"?>
<svg version="1.1" id="Layer_1"
xmlns="http://www.w3.org/2000/svg"
xmlns:xlink="http://www.w3.org/1999/xlink"
width="36px" height="22px"
xml:space="preserve">
<g id="1049" transform="matrix(1, 0, 0, 1, 18.45, 15.45)">
<path style="fill:#FFFF00;fill-opacity:1" d="M3.65,-8.1Q4 -7.5 4.55 -7.9L4.55 -7.95L4.45 -8.05L4.35 -8.1L4.35 -8.15L4.2 -8.6L3.8 -8.85L3.65 -8.85L3.45 -8.75L3.15 -9.1L3.55 -9.25L4.25 -9.3L4.35 -9.35L4.75 -9.25L4.85 -9.2L4.85 -9.15L5.2 -8.8L5.35 -8.25L5.35 -8.15L4.6 -7.8L4.15 -7.65Q3.95 -7.7 3.75 -7.85L3.45 -8.35L3.65 -8.1M0.1,-8.35L0.05 -8.2L0.25 -7.85L0.35 -7.05Q0.5 -5.3 0.2 -3.45Q-0.5 -4.2 -0.6 -5.2L-0.6 -5.3L-0.45 -6.25Q-0.3 -6.9 -0.5 -7.4L-0.5 -7.45Q-0.3 -9 -0.35 -10.6L-0.05 -9.3L0.1 -8.4L0.1 -8.35M0,-7.05L-0.05 -7.1L-0.15 -7.1L-0.2 -7.05L-0.25 -7L-0.25 -6.95L-0.25 -5.45L0 -4.05L0.1 -4.15L0.2 -5.65L0.05 -7.05L0 -7.05M3.2,-4.7L3.2 -4.75L3.7 -5.25L4.05 -5.95L4.7 -5.45Q4.95 -5.1 4.8 -4.7L4.5 -4.7L4.55 -4.85L4.25 -5L4.2 -5.05L4.25 -5.2L4.4 -5.35L4.4 -5.4L4.35 -5.45L4.25 -5.5L4.15 -5.5L4.1 -5.45L3.65 -5.1L3.5 -4.85L3.8 -4.8L4 -4.7L3.2 -4.7M-0.4,-1.95L-0.35 -2L-0.25 -2.05L-0.05 -2.15L0.05 -2.15L0.8 -2.05L1.3 -1.9L1.35 -1.8L1.8 -2L2.7 -1.95L2.9 -1.85L2.95 -1.8L2.95 -1.7L2.95 -1.65L3.35 -1.55Q3.85 -1.05 3.5 -0.25L3.25 -0.05L1.75 0.3L0.8 0.25L0.1 0.2L0 0.15L-0.05 0.15L-0.1 0.25L-1.05 0.35L-1.1 0.35L-1.35 0.45L-2.4 0.55L-3.1 0L-3.25 -0.25Q-3.7 -1.8 -2 -2.4Q-1.25 -2.55 -0.7 -2.1L-0.45 -2L-0.4 -1.95M0.15,-1.8L0 -1.75L-0.1 -1.7L-0.1 -1.6L-0.1 -1.5L0 -0.7L0 -0.6L0.1 -0.4L0.1 -0.2Q0.3 -0.05 0.55 0L0.95 0.1L0.75 -0.45Q0.65 -1.1 1.05 -1.55L1 -1.6L0.9 -1.8L0.8 -1.8L0.15 -1.8M0.95,-0.75L1.05 -0.35L1.25 0L1.3 -0.05L1.4 -0.05L1.4 0.05L1.85 0.1L2.15 -0.15L2.6 -0.2L2.65 -0.15L2.65 -0.1L2.7 -0.05L2.7 0Q3.55 -0.05 3.35 -0.75Q3.25 -1.3 2.65 -1.5L2.6 -1.55L2.55 -1.65L2.05 -1.7L1.45 -1.35L1 -0.8L0.95 -0.75M7.4,-3.9L7.9 -4L8.15 -3.95L9.15 -3.8L11 -3.45L14.05 -2.55L13.8 -2.45L13.75 -2.45L13.25 -2.25L12.8 -2.05Q12.85 -2.4 12.3 -2.5L12.4 -2.6L12.4 -2.7L12.25 -2.85L10.75 -3.15L10.55 -3.25L10.5 -3.3L10 -3.3L9.7 -3.45L8 -3.6L8 -3.75L7.75 -3.85L7.45 -3.9L7.4 -3.9M12.25,-2.15L12.15 -2.15L12.1 -2.15L12.1 -2.25L12.25 -2.15M10.9,-2.9L11.1 -2.85L12 -2.6L11.95 -2.45L12 -2.35L11.95 -2.35L11.75 -2.4L11.55 -2.45L11.55 -2.5L11.45 -2.65L10.9 -2.8L10.85 -2.85L10.8 -2.85L10.9 -2.9M10.4,-3.05L10.55 -2.95L9.9 -3.1L10.4 -3.05M7.65,-3.55L7.55 -3.55L7.3 -3.7L7.25 -3.75L7.6 -3.6L7.65 -3.55M7.15,-3.8L7 -3.85L6.6 -4L6.9 -3.95L7.15 -3.9L7.15 -3.8M9.1,-2.6L9.7 -2.15L10 -1.6Q9.25 -0.9 8.2 -1.25L8.2 -1.3L8.3 -1.3L8.7 -1.35Q9.2 -1.4 9.15 -1.75L9.25 -1.8L9.3 -1.9L9.25 -2.05L9.3 -2.1L9.4 -2.15L9.45 -2.15L9.5 -2.25L9.35 -2.35L9.2 -2.3L9 -2.2L9.1 -2.6M8.95,-2.1L8.95 -1.95L8.9 -1.95L8.85 -1.9L8.8 -1.9L8.8 -1.75L8.55 -1.6L8.75 -1.85L8.95 -2.1M14.2,-1.5L15.35 -1.4L15.4 -1.35L15.55 -1.25Q15.85 -0.9 16.25 -0.9L16.25 -0.8L16.1 -0.35L16 -0.25L16.1 -0.15L16.25 -0.05L16.5 0.4L15.7 1.3L15.15 1.7L14.35 2.4L14.2 2.5L14.2 2.55L14.25 2.6L14.2 2.7L14.25 2.7L14.3 2.8Q12.55 3.65 10.6 3.9L7.9 4.55L7.85 4.6L7.6 4.6L7.55 4.65L7.55 4.7L7.25 4.8L6.7 4.6L6.05 4.3L6 4.25L5.8 4.1Q7.55 3.25 9.55 3.25Q10.5 3.3 10.65 2.8L10.65 2.9L10.75 3L10.8 3.05L8.05 3.55Q7 3.6 6.35 4.05L6.35 4.1L7.1 4.1L11.1 3.25L11.15 3.15L11.1 2.95L10.95 2.75L11.1 2.75L11.55 2.55L11.8 2.55Q12.85 2.55 13.55 1.95L14.3 1.6L14.8 1Q15.05 0.85 15.35 0.8Q15.85 0.7 15.7 0.3L15.65 0.3L15.1 0.1L15.2 0.05L15.35 -0.15L15.3 -0.35L15.2 -0.4L15.2 -0.45L15.15 -0.9L14.85 -1.25L14.8 -1.2L14.75 -1.2L14.7 -1.15L14.7 -1.05L14.75 -0.85L14.8 -0.7L14.2 -1.5M14.7,0.25L14.55 0.15L14.55 0.05L14.55 0L14.85 -0.15L14.9 -0.15L14.7 -0.05L14.65 0L14.7 0.2L15.15 0.5L14.45 0.95L13.5 1.65L14.55 0.6L14.65 0.5L14.65 0.4L14.7 0.25M13.25,1.8L13.25 1.85L11.15 2.25L11.1 2.35L11.1 2.4L11.05 2.4L10.65 2.6L10.6 2.2L10.75 2.15L11.2 2.15L11.7 2.2Q12.5 2.2 13.25 1.8M1.9,4.15L-2.4 4.4L-2.6 4.3L-1.1 4.3L-0.45 4.2L-0.3 4.2L1.3 4.1L1.9 4.15M-2.9,4.2L-3.65 3.95L-3.55 3.8L-3.5 3.9L-3.5 3.95L-3.15 4.05L-2.9 4.2M-3.95,3.6L-3.8 3.6L-4.45 3.7L-3.95 3.6M3.2,5.45L3.15 5.45L-8.3 4.6Q-7.85 4.2 -7.05 3.95L-6.15 3.8L-5.85 3.8Q-6.15 3.9 -6.3 4.1L-4.05 4Q-3.8 4.45 -3 4.55L-2.6 4.55L2.9 4.3L3.15 4.5L3.5 4.85L3.65 5.05L3.8 5.15L4.15 5.3L4 5.4L3.2 5.45M2.8,4.25L2.7 4.2L2.8 4.2L2.8 4.25M-16.35,-0.85L-16.25 -0.8L-16.1 -0.7L-16.35 -0.55Q-17.05 -0.2 -17.7 -0.3L-17.65 -0.35L-17.1 -0.7L-16.6 -1.1L-16.35 -0.9L-16.35 -0.85M-16.05,-1.45Q-14.25 -2.5 -12.2 -3L-8.05 -3.75L-7.95 -3.7L-7.4 -3.6L-7.35 -3.6L-7.25 -3.5L-7.25 -3.45L-8.1 -3.35L-10.4 -2.7L-11.95 -2.1L-12.1 -2.05L-13.1 -1.6L-13.8 -1.3L-14 -1.2L-14.05 -1.2L-16.15 -1.3L-16.05 -1.45M-13.2,-1.75L-12.15 -2.25L-11.2 -2.5L-9.85 -3L-9.85 -3.1L-10.05 -3.25L-10.25 -3.3L-11.95 -2.65L-12.8 -2.25L-14.15 -1.3L-13.85 -1.4L-13.2 -1.75M-3,-8.8L-3.1 -8.9L-3.25 -8.95L-3.4 -8.85L-3.65 -8.45L-3.65 -8.1L-3.5 -8.05L-4.2 -7.85L-4.35 -7.9L-4.5 -8.1L-4.45 -8.15L-4 -8.8L-3.6 -9.1L-3.5 -9.1L-3.4 -9.15L-3.25 -9.15L-3.05 -9.05L-3 -8.95L-2.95 -8.8L-3 -8.8M-2.95,-8.4L-2.95 -8.5L-2.95 -8.6L-3 -8.65L-3 -8.7L-2.95 -8.75L-2.95 -8.8L-2.75 -8.5L-2.95 -8.35L-2.95 -8.4M-3.05,-8.3L-3.15 -8.25L-3.1 -8.3L-3.05 -8.3M-6.9,-5.8Q-7.2 -5.5 -7.5 -5.65L-7.5 -5.7L-7.3 -6.3L-6.8 -6.8L-6.7 -6.75L-6.4 -6.55L-6.35 -6.5L-6.45 -6.55L-6.55 -6.6L-6.7 -6.5L-6.9 -6.25L-6.9 -6L-6.85 -6L-6.65 -6L-6.9 -5.8M-7,-2L-7.75 -2.2L-7.85 -2.1L-7.8 -1.95L-7.55 -1.8L-7.75 -1.8L-7.9 -1.75L-8 -1.6Q-7.8 -1.3 -7.35 -1.3Q-6.7 -1.25 -6.3 -1.55L-6.05 -1.1L-7.15 -1.25L-7.2 -1.25L-7.45 -1.2L-7.75 -1.15L-7.9 -1.15L-8.5 -1.15L-8.7 -1.15Q-9.3 -1.25 -9.75 -1.7L-9.7 -1.75L-9.3 -2.2L-9.15 -2.35L-8.9 -2.65L-8.75 -2.6L-8.3 -2.45L-7.2 -2.15L-6.5 -1.8L-7 -2M-3.3,-5.7L-3.1 -5.7L-2.55 -5.35L-2.25 -4.95L-2.75 -4.6Q-3.5 -4 -4.35 -4.1L-4.5 -4.2Q-4.55 -4.9 -4 -5.3L-3.45 -5.65L-3.3 -5.7M-3.35,-5.15L-3.35 -5.1L-3.85 -4.85L-4 -4.6L-3.9 -4.55L-2.9 -4.85Q-2.25 -5.25 -2.9 -5.5L-3.25 -5.5L-3.4 -5.4L-3.4 -5.25L-3.35 -5.15M-3.25,-0.5L-3.05 -0.45L-2.95 -0.5L-2.8 -0.45L-2.7 0L-2.15 0.45L-2 0.45L-0.95 0.15L-0.3 0L-0.25 -0.05L-0.3 -0.25L-0.45 -0.35L-0.45 -0.4L-0.45 -0.6L-0.45 -0.7L-0.35 -0.85L-0.35 -0.9L-0.8 -1.7Q-1.2 -2.2 -1.9 -2.05L-2.05 -2L-2.25 -1.9L-2.35 -1.85L-2.35 -1.6L-2.45 -1.45L-2.6 -1.3L-2.75 -1.45L-2.8 -1.5L-3.15 -1.1L-3.25 -0.6L-3.25 -0.5M-4.5,0.85L-4.5 0.9L-4.55 0.95Q-4.5 1.3 -4.8 1.5L-6.65 1.6L-6.8 1.35Q-6.9 0.5 -5.85 0.3L-5.5 0.3L-5.25 0.3L-5 0.45Q-4.8 0.6 -4.55 0.7L-4.5 0.85M-18.1,1.65Q-18.4 0.5 -17.2 0.4L-15.25 0.1L-15.15 0.1L-15.15 0.2L-15.2 0.25L-15.2 0.35L-15.25 0.3L-15.35 0.2L-15.45 0.2L-15.5 0.25L-15.85 0.45L-15.95 0.65L-15.9 0.7L-15.75 0.75L-15.75 0.9L-15.7 0.95L-15.6 1L-15.55 1.05L-15.55 1.15L-15.55 1.2L-15.5 1.25L-15.45 1.25L-15.35 1.3Q-15.7 1.5 -15.5 1.75L-15.1 2L-13.3 2.05L-13.55 2.2L-13.6 2.25L-13.6 2.5L-13.1 2.7L-12.85 3.05L-11.95 3.15L-12 3.1L-12.55 2.8L-12.35 2.9Q-11.6 3.15 -10.85 2.9L-9.9 2.45L-9.85 2.5L-9.9 2.55L-9.9 2.65L-9.95 2.65L-9.95 2.8L-9.95 2.85L-9.95 2.95L-9.05 3.05Q-8.9 3.05 -8.7 3.2L-8.65 3.2L-8.1 3.45L-10.35 4.1L-10.85 4.15L-12.95 3.75Q-15.6 2.95 -18.05 1.75L-18.1 1.65M-15.35,0.5L-15.35 0.55L-15.4 0.6L-15.4 0.5L-15.35 0.5M-15.35,0.65L-15.35 0.75L-15.25 0.8L-15 0.9L-14.9 0.95L-14.8 1.05L-14.85 1.1L-14.95 1.2L-14.95 1.25L-15 1.35L-15 1.45L-15.05 1.5L-14.95 1.55L-14.75 1.65L-15.15 1.55L-15.05 1.4L-15 1.2L-15 1.05L-15.1 1.05L-15.2 1L-15.25 0.9L-15.4 0.75L-15.45 0.7L-15.45 0.65L-15.4 0.65L-15.35 0.65M-12.75,2.1L-12.85 2.15L-12.85 2.2L-12.75 2.3L-12.8 2.55L-13.1 2.35L-12.95 2.1L-12.95 1.9L-14 1.95L-14.2 1.85L-14.65 1.7L-14.55 1.7L-12.15 1.6L-12.25 1.7L-12.6 2L-12.65 2.05L-12.75 2.1" />
<path style="fill:#FFCC00;fill-opacity:1" d="M3.4,-8.75L3.35 -8.65L3.45 -8.4L3.45 -8.35L3.75 -7.85Q3.95 -7.7 4.15 -7.65L4.6 -7.8L5.35 -8.15L5.35 -8.25L5.2 -8.8L4.85 -9.15L4.85 -9.2L4.75 -9.25L4.35 -9.35L4.25 -9.3L3.55 -9.25L3.15 -9.1L3.45 -8.75L3.4 -8.75M5.3,-7.7L3.85 -7.5Q3.15 -7.6 3.2 -8.35L3.2 -8.65L3.2 -8.7L3.15 -8.7L3.05 -8.8L3 -8.85L2.9 -9L2.9 -9.2L2.85 -9.2L2.85 -9.25L2.95 -9.35L4.25 -9.65Q5.8 -9.5 5.55 -8L5.3 -7.7M0.75,-6.9L0.7 -4.9L0.45 -2.95Q-0.05 -3 -0.35 -3.65Q-1.25 -5.4 -0.85 -7.4Q-0.55 -8.8 -0.65 -10.25L-0.65 -11.1L-0.4 -12L0.15 -9.8L0.55 -8.05L0.75 -6.9M0.1,-8.4L-0.05 -9.3L-0.35 -10.6Q-0.3 -9 -0.5 -7.45L-0.5 -7.4Q-0.3 -6.9 -0.45 -6.25L-0.6 -5.3L-0.6 -5.2Q-0.5 -4.2 0.2 -3.45Q0.5 -5.3 0.35 -7.05L0.25 -7.85L0.05 -8.2L0.1 -8.35L0.1 -8.4M3.9,-6.4L4.95 -5.55Q5.35 -4.95 5 -4.3L4.95 -4.25L2.85 -4.15L2.55 -4.2L2.5 -4.3L2.5 -4.4L2.45 -4.45L2.5 -4.55L3.25 -5.15L3.75 -6.15L3.75 -6.3L3.85 -6.4L3.9 -6.4M4.5,-4.7L4.8 -4.7Q4.95 -5.1 4.7 -5.45L4.05 -5.95L3.7 -5.25L3.2 -4.75L3.2 -4.7L4 -4.7L4 -4.65Q4.2 -4.5 4.45 -4.65L4.5 -4.7M1.85,-2.35Q2.95 -2.5 3.65 -1.6Q4.1 -1.1 3.85 -0.4Q3.5 0.8 2.1 0.55L1.65 0.55L-0.05 0.6L-0.5 0.65L-1.4 0.85Q-2.6 1.4 -3.25 0.2L-3.8 -0.35L-3.8 -0.95L-3.4 -1.85Q-2.9 -2.45 -2.1 -2.7L-1.05 -2.65L-0.45 -2.35Q0.6 -2.55 1.6 -2.35L1.85 -2.35M0.8,-2.05L0.05 -2.15L-0.05 -2.15L-0.25 -2.05L-0.35 -2L-0.45 -2L-0.7 -2.1Q-1.25 -2.55 -2 -2.4Q-3.7 -1.8 -3.25 -0.25L-3.1 0L-2.4 0.55L-1.35 0.45L-1.1 0.35L-1.05 0.35L-0.1 0.25L0.1 0.2L0.8 0.25L1.75 0.3L3.25 -0.05L3.5 -0.25Q3.85 -1.05 3.35 -1.55L2.95 -1.8L2.9 -1.85L2.7 -1.95L1.8 -2L1.55 -1.95L1.3 -1.9L0.8 -2.05M7.4,-3.9L7.3 -4L7.25 -3.95L7.2 -3.9L7.15 -3.9L6.9 -3.95L6.6 -4L7 -3.85L7.15 -3.8L7.25 -3.75L7.3 -3.7L7.55 -3.55L7.65 -3.55L7.65 -3.5L7.7 -3.45L7.8 -3.3L9.55 -3.15L9.65 -3.15L9.9 -3.1L10.55 -2.95L10.8 -2.85L10.85 -2.85L10.9 -2.8L11.45 -2.65L11.55 -2.5L11.55 -2.45L11.75 -2.4L11.95 -2.35L12 -2.35L12 -2.3L12.1 -2.25L12.1 -2.15L11.9 -2.1L11.85 -2.1L11.75 -1.95L11.85 -1.9Q12.1 -1.75 12.5 -1.9L12.7 -1.95L12.8 -2.05L13.25 -2.25L13.75 -2.45L13.8 -2.45L14.05 -2.55L11 -3.45L9.15 -3.8L8.15 -3.95L8 -4L7.9 -4L7.4 -3.9M7.9,-4.3L11.15 -3.7L14.3 -2.8L14.45 -2.75L14.25 -2.35L13.55 -2L12.3 -1.6L11 -1.5L10.95 -1.65L11 -1.7L11.15 -1.85L11.3 -1.95L11.4 -2L11.5 -2.1L11.55 -2.05L11.6 -2.1L11.6 -2.15L11.25 -2.25L11.2 -2.3L11.15 -2.3L11.15 -2.45L10.6 -2.65L10.6 -2.7L9.55 -2.85L7.65 -3.1L7.55 -3.2L7.45 -3.3L7.4 -3.3L7.1 -3.45L7.1 -3.5L7.05 -3.55L6.7 -3.7L6.6 -3.7L6.3 -3.75L6.15 -3.9L6.1 -4.1L6.15 -4.1L6.4 -4.2L6.9 -4.3L7.8 -4.3L7.9 -4.3M7.5,-1.05L7.45 -1.1L7.45 -1.25L8.3 -1.8Q8.7 -2.25 8.9 -2.85L9.05 -2.9Q10.45 -2.4 10.1 -1.4L9.85 -1.05L8.85 -0.85L7.55 -1.05L7.5 -1.05M8.75,-1.85L8.55 -1.6L8.3 -1.55Q8.05 -1.5 8.2 -1.3L8.2 -1.25Q9.25 -0.9 10 -1.6L9.7 -2.15L9.1 -2.6L9 -2.2L8.95 -2.2L8.95 -2.1L8.75 -1.85M13.9,-1.8L15.6 -1.55L15.95 -1.45Q17 -1.2 16.4 -0.4L16.75 0.2Q16.9 0.65 16.5 1.05L15.7 1.8L14.65 2.5Q14.7 3.25 13.75 3.5L11.8 4.05L8 5.05L7.2 5.1L7.15 5.05L6.95 5L6.65 4.9L5.8 4.55L5.4 4.2Q5.5 3.6 6.2 3.45L6.7 3.35L10.15 2.85L10.15 2.8L10.2 2.75L10.2 2.7L10.35 2.6L10.35 2.55L10.4 2.55L10.35 2.45L10.3 2.4L10.25 2.3L10.2 2.2L10.2 2L10.2 1.9L12.05 1.8L12.8 1.55L14.3 0.4L14.25 0.3L14.2 0.1L14.3 -0.25L14.4 -0.35L14.55 -0.4L14.45 -0.5L14.35 -0.65L14 -1.1L13.75 -1.55L13.9 -1.8M7.85,4.6L7.9 4.55L10.6 3.9Q12.55 3.65 14.3 2.8L14.25 2.7L14.2 2.7L14.25 2.6L14.35 2.4L15.15 1.7L15.7 1.3L16.5 0.4L16.25 -0.05L16.15 -0.2L16.1 -0.35L16.25 -0.8L16.25 -0.9Q15.85 -0.9 15.55 -1.25L15.4 -1.4L15.35 -1.4L14.2 -1.5L14.8 -0.7L14.85 -0.65L14.9 -0.55L14.85 -0.55L14.8 -0.3L14.85 -0.15L14.55 0L14.55 0.05L14.55 0.15L14.7 0.25L14.65 0.4L14.55 0.6L13.5 1.65L13.25 1.7L13.25 1.8Q12.5 2.2 11.7 2.2L11.2 2.15L10.75 2.15L10.6 2.2L10.65 2.6L10.65 2.8Q10.5 3.3 9.55 3.25Q7.55 3.25 5.8 4.1L6 4.25L6.05 4.3L6.7 4.6L7.25 4.8L7.55 4.7L7.85 4.6M-3.95,3.6L-4.45 3.7L-4.7 3.65L-5.85 3.8L-6.15 3.8L-7.05 3.95Q-7.85 4.2 -8.3 4.6L3.15 5.45L3.2 5.45L3.65 5.45L4 5.4L4.15 5.3L3.8 5.15L3.65 5.05L3.5 4.85L3.15 4.5L2.9 4.3L2.85 4.25L2.8 4.25L2.8 4.2L2.7 4.2L2.3 4.15L2 4.15L1.9 4.15L1.3 4.1L-0.3 4.2L-0.45 4.2L-1.1 4.3L-2.6 4.3L-2.75 4.2L-2.9 4.2L-3.15 4.05L-3.55 3.8L-3.5 3.75L-3.5 3.7L-3.65 3.6L-3.8 3.6L-3.85 3.55L-3.95 3.6M3.7,4.45L4.5 5.3L4.4 5.5L3.1 5.7L2.7 5.65L-7.1 5.15L-8.8 4.7L-8.85 4.6L-7.65 3.9L-6.65 3.6L-4.65 3.4L-3.85 3.25Q-3.65 3.25 -3.5 3.4L-3.2 3.7L-3.2 3.75L-0.2 3.9L2.4 3.8L2.75 3.9L3.7 4.45M-18.05,-0.2Q-17.8 -0.8 -17.15 -1.15L-16.65 -1.45L-16.55 -1.45L-16.4 -1.45L-16.35 -1.45L-15.55 -2.25L-12 -3.35L-8.15 -4.05L-7.7 -4.05L-7.2 -3.9L-7.05 -3.8L-7 -3.65L-6.95 -3.55L-6.95 -3.3L-7.05 -3L-8.65 -2.9L-6.95 -2.4Q-5.8 -2.05 -5.75 -0.85L-5.8 -0.8L-9.25 -1.05L-9.45 -1.15L-10.15 -1.55L-10.1 -1.85L-9.75 -2.15L-9.5 -2.4L-9.15 -2.75L-9.4 -2.7L-12.2 -1.7Q-12.9 -1.45 -13.5 -1L-13.5 -0.9L-15.5 -0.75L-15.5 -0.7Q-16.1 -0.2 -16.8 -0.05L-15.35 -0.2L-14.95 -0.15L-14.85 -0.15L-14.85 -0.1L-14.75 -0.05L-14.7 0.1L-14.7 0.15L-14.75 0.3L-14.9 0.5L-14.8 0.6L-14.45 1Q-14.35 1.2 -14.55 1.35L-11.85 1.15Q-11.55 1.1 -11.45 1.3L-11.55 1.6L-12.2 2.05L-12.5 2.25Q-11.95 3.05 -10.9 2.5L-9.55 2.05L-9.55 2.1L-9.55 2.25L-9.55 2.45L-9.55 2.6Q-8.9 2.6 -8.35 3L-7.55 3.2Q-7.65 3.85 -8.55 4.1L-10.4 4.4L-13.3 4L-16.8 2.7L-17.65 2.35L-18.2 1.95L-18.45 1.2Q-18.45 0.15 -17.5 0L-18.05 -0.1L-18.05 -0.2M-16.35,-0.9L-16.6 -1.1L-17.1 -0.7L-17.65 -0.35L-17.7 -0.3Q-17.05 -0.2 -16.35 -0.55L-16.1 -0.7L-16.25 -0.8L-16.35 -0.9M-16.15,-1.3L-14.05 -1.2L-14 -1.2L-13.8 -1.3L-13.1 -1.6L-12.1 -2.05L-11.95 -2.1L-10.4 -2.7L-8.1 -3.35L-7.25 -3.45L-7.25 -3.5L-7.35 -3.6L-7.4 -3.6L-7.95 -3.7L-8.05 -3.75L-12.2 -3Q-14.25 -2.5 -16.05 -1.45L-16.15 -1.3M-3.75,-9.4L-3.7 -9.45L-3.4 -9.45Q-3.05 -9.55 -2.9 -9.2L-2.45 -8.75L-2.35 -8.65Q-2.7 -7.85 -3.65 -7.55Q-4.4 -7.3 -4.95 -7.9L-5 -7.95L-4.7 -8.7L-4.05 -9.25L-4 -9.3L-3.75 -9.4M-3.6,-9.1L-4 -8.8L-4.45 -8.15L-4.5 -8.1L-4.35 -7.9L-4.2 -7.85L-3.5 -8.05L-3.4 -8L-3.15 -8L-3.15 -8.05L-3.15 -8.15L-3.15 -8.25L-3.05 -8.3L-2.95 -8.35L-2.75 -8.5L-2.95 -8.8L-3 -8.95L-3.05 -9.05L-3.25 -9.15L-3.4 -9.15L-3.6 -9.1M-6.35,-6.5L-6.4 -6.55L-6.7 -6.75L-6.8 -6.8L-7.3 -6.3L-7.5 -5.7L-7.5 -5.65Q-7.2 -5.5 -6.9 -5.8L-6.65 -6Q-6.55 -6 -6.45 -6.1L-6.3 -6.25L-6.3 -6.35L-6.3 -6.45L-6.35 -6.5M-7.75,-1.15L-7.45 -1.2L-7.2 -1.25L-7.15 -1.25L-6.05 -1.1L-6.3 -1.55L-6.3 -1.6L-6.35 -1.65L-6.5 -1.8L-7.2 -2.15L-8.3 -2.45L-8.75 -2.6L-8.9 -2.65L-9.15 -2.35L-9.3 -2.2L-9.7 -1.75L-9.75 -1.7Q-9.3 -1.25 -8.7 -1.15L-7.75 -1.15M-7.75,-5.95Q-7.65 -6.8 -6.85 -7.15Q-5.15 -6.2 -7.1 -5.35Q-7.9 -5.05 -7.75 -5.95M-2.15,-4.6L-3.65 -3.8L-4.4 -3.75Q-5.35 -4.25 -4.65 -5.1Q-3.9 -6 -2.8 -6.1Q-2.05 -5.55 -2.05 -4.75L-2.15 -4.6M-3.45,-5.65L-4 -5.3Q-4.55 -4.9 -4.5 -4.2L-4.35 -4.1Q-3.5 -4 -2.75 -4.6L-2.25 -4.95L-2.55 -5.35L-3.1 -5.7L-3.3 -5.7L-3.45 -5.65M-3.9,0.6L-4.45 1.5L-5.45 2.15Q-6.6 2.45 -7.15 1.5Q-7.4 1.1 -7.1 0.75L-7.05 0.7Q-6.5 0.15 -5.7 0L-4.8 0.15L-3.95 0.55L-3.9 0.6M-5.85,0.3Q-6.9 0.5 -6.8 1.35L-6.65 1.6L-4.8 1.5Q-4.5 1.3 -4.55 0.95L-4.5 0.9L-4.45 0.85L-4.4 0.85L-4.35 0.8L-4.55 0.7Q-4.8 0.6 -5 0.45L-5.25 0.3L-5.85 0.3M-10.85,2.9Q-11.6 3.15 -12.35 2.9L-12.55 2.8L-12.6 2.75L-12.8 2.55L-12.75 2.3L-12.65 2.05L-12.6 2L-12.25 1.7L-12.15 1.6L-14.55 1.7L-14.65 1.7L-14.75 1.65L-14.95 1.55L-15 1.5L-15 1.45L-15 1.35L-14.95 1.25L-14.95 1.2L-14.85 1.1L-14.8 1.05L-14.9 0.95L-15 0.9L-15.25 0.8L-15.35 0.75L-15.35 0.65L-15.35 0.55L-15.35 0.5L-15.25 0.45L-15.2 0.35L-15.2 0.25L-15.15 0.2L-15.15 0.1L-15.25 0.1L-17.2 0.4Q-18.4 0.5 -18.1 1.65L-18.1 1.7L-18.05 1.75Q-15.6 2.95 -12.95 3.75L-10.85 4.15L-10.35 4.1L-8.1 3.45L-8.65 3.2L-8.7 3.2Q-8.9 3.05 -9.05 3.05L-9.95 2.95L-9.95 2.85L-9.95 2.8L-9.95 2.65L-9.9 2.65L-9.9 2.55L-9.85 2.5L-9.85 2.4L-9.9 2.45L-10.85 2.9" />
<path style="fill:#FFFFFF;fill-opacity:1" d="M3.45,-8.35L3.45 -8.4L3.35 -8.65L3.4 -8.75L3.45 -8.75L3.65 -8.85L3.8 -8.85L4.2 -8.6L4.35 -8.15L4.35 -8.1L4.45 -8.05L4.55 -7.95L4.55 -7.9Q4 -7.5 3.65 -8.1L3.45 -8.35M0.05,-7.05L0.2 -5.65L0.1 -4.15L0 -4.05L-0.25 -5.45L-0.25 -6.95L-0.25 -7L-0.2 -7.05L-0.15 -7.1L-0.05 -7.1L0 -7.05L0.05 -7.05M4.45,-4.65Q4.2 -4.5 4 -4.65L4 -4.7L3.8 -4.8L3.5 -4.85L3.65 -5.1L4.1 -5.45L4.15 -5.5L4.25 -5.5L4.35 -5.45L4.4 -5.4L4.4 -5.35L4.25 -5.2L4.2 -5.05L4.25 -5L4.55 -4.85L4.5 -4.7L4.45 -4.65M0.8,-1.8L0.9 -1.8L1 -1.6L1.05 -1.55Q0.65 -1.1 0.75 -0.45L0.95 0.1L0.55 0Q0.3 -0.05 0.1 -0.2L0.1 -0.4L0 -0.6L0 -0.7L-0.1 -1.5L-0.1 -1.6L-0.1 -1.7L0 -1.75L0.15 -1.8L0.8 -1.8M1,-0.8L1.45 -1.35L2.05 -1.7L2.55 -1.65L2.6 -1.55L2.65 -1.5Q3.25 -1.3 3.35 -0.75Q3.55 -0.05 2.7 0L2.7 -0.05L2.65 -0.1L2.65 -0.15L2.6 -0.2L2.15 -0.15L1.85 0.1L1.4 0.05L1.4 -0.05L1.3 -0.05L1.25 0L1.05 -0.35L0.95 -0.75L1 -0.8M9.9,-3.1L9.65 -3.15L9.55 -3.15L7.8 -3.3L7.7 -3.45L7.65 -3.5L7.65 -3.55L7.6 -3.6L7.25 -3.75L7.15 -3.8L7.15 -3.9L7.2 -3.9L7.25 -3.95L7.3 -4L7.4 -3.9L7.45 -3.9L7.75 -3.85L8 -3.75L8 -3.6L9.7 -3.45L10 -3.3L10.5 -3.3L10.55 -3.25L10.75 -3.15L12.25 -2.85L12.4 -2.7L12.4 -2.6L12.3 -2.5Q12.85 -2.4 12.8 -2.05L12.7 -1.95L12.5 -1.9Q12.1 -1.75 11.85 -1.9L11.75 -1.95L11.85 -2.1L11.9 -2.1L12.1 -2.15L12.15 -2.15L12.25 -2.15L12.1 -2.25L12 -2.3L12 -2.35L11.95 -2.45L12 -2.6L11.1 -2.85L10.9 -2.9L10.8 -2.85L10.55 -2.95L10.4 -3.05L9.9 -3.1M8.3,-1.55L8.55 -1.6L8.8 -1.75L8.8 -1.9L8.85 -1.9L8.9 -1.95L8.95 -1.95L8.95 -2.1L8.95 -2.2L9 -2.2L9.2 -2.3L9.35 -2.35L9.5 -2.25L9.45 -2.15L9.4 -2.15L9.3 -2.1L9.25 -2.05L9.3 -1.9L9.25 -1.8L9.15 -1.75Q9.2 -1.4 8.7 -1.35L8.3 -1.3L8.2 -1.3Q8.05 -1.5 8.3 -1.55M10.65,2.6L11.05 2.4L11.1 2.4L11.1 2.35L11.15 2.25L13.25 1.85L13.25 1.8L13.25 1.7L13.5 1.65L14.45 0.95L15.15 0.5L14.7 0.2L14.65 0L14.7 -0.05L14.9 -0.15L14.85 -0.15L14.8 -0.3L14.85 -0.55L14.9 -0.55L14.85 -0.65L14.8 -0.7L14.75 -0.85L14.7 -1.05L14.7 -1.15L14.75 -1.2L14.8 -1.2L14.85 -1.25L15.15 -0.9L15.2 -0.45L15.2 -0.4L15.3 -0.35L15.35 -0.15L15.2 0.05L15.1 0.1L15.65 0.3L15.7 0.3Q15.85 0.7 15.35 0.8Q15.05 0.85 14.8 1L14.3 1.6L13.55 1.95Q12.85 2.55 11.8 2.55L11.55 2.55L11.1 2.75L10.95 2.75L11.1 2.95L11.15 3.15L11.1 3.25L7.1 4.1L6.35 4.1L6.35 4.05Q7 3.6 8.05 3.55L10.8 3.05L10.75 3L10.65 2.9L10.65 2.8L10.65 2.6M2.8,4.25L2.85 4.25L2.9 4.3L-2.6 4.55L-3 4.55Q-3.8 4.45 -4.05 4L-6.3 4.1Q-6.15 3.9 -5.85 3.8L-4.7 3.65L-4.45 3.7L-3.8 3.6L-3.65 3.6L-3.5 3.7L-3.5 3.75L-3.55 3.8L-3.65 3.95L-2.9 4.2L-2.75 4.2L-2.6 4.3L-2.4 4.4L1.9 4.15L2 4.15L2.3 4.15L2.7 4.2L2.8 4.25M-13.85,-1.4L-14.15 -1.3L-12.8 -2.25L-11.95 -2.65L-10.25 -3.3L-10.05 -3.25L-9.85 -3.1L-9.85 -3L-11.2 -2.5L-12.15 -2.25L-13.2 -1.75L-13.85 -1.4M-3.1,-8.3L-3.15 -8.25L-3.15 -8.15L-3.15 -8.05L-3.15 -8L-3.4 -8L-3.5 -8.05L-3.65 -8.1L-3.65 -8.45L-3.4 -8.85L-3.25 -8.95L-3.1 -8.9L-3 -8.8L-2.95 -8.8L-2.95 -8.75L-3 -8.7L-3 -8.65L-2.95 -8.6L-2.95 -8.5L-2.95 -8.4L-2.95 -8.35L-3.05 -8.3L-3.1 -8.3M-6.3,-6.45L-6.3 -6.35L-6.3 -6.25L-6.45 -6.1Q-6.55 -6 -6.65 -6L-6.85 -6L-6.9 -6L-6.9 -6.25L-6.7 -6.5L-6.55 -6.6L-6.45 -6.55L-6.35 -6.5L-6.3 -6.45M-6.3,-1.55Q-6.7 -1.25 -7.35 -1.3Q-7.8 -1.3 -8 -1.6L-7.9 -1.75L-7.75 -1.8L-7.55 -1.8L-7.8 -1.95L-7.85 -2.1L-7.75 -2.2L-7 -2L-6.5 -1.8L-6.35 -1.65L-6.3 -1.6L-6.3 -1.55M-3.4,-5.25L-3.4 -5.4L-3.25 -5.5L-2.9 -5.5Q-2.25 -5.25 -2.9 -4.85L-3.9 -4.55L-4 -4.6L-3.85 -4.85L-3.35 -5.1L-3.35 -5.15L-3.4 -5.25M-3.25,-0.6L-3.15 -1.1L-2.8 -1.5L-2.75 -1.45L-2.6 -1.3L-2.45 -1.45L-2.35 -1.6L-2.35 -1.85L-2.25 -1.9L-2.05 -2L-1.9 -2.05Q-1.2 -2.2 -0.8 -1.7L-0.35 -0.9L-0.35 -0.85L-0.45 -0.7L-0.45 -0.6L-0.45 -0.4L-0.45 -0.35L-0.3 -0.25L-0.25 -0.05L-0.3 0L-0.95 0.15L-2 0.45L-2.15 0.45L-2.7 0L-2.8 -0.45L-2.95 -0.5L-3.05 -0.45L-3.25 -0.5L-3.25 -0.6M-15.4,0.5L-15.4 0.6L-15.4 0.65L-15.45 0.65L-15.45 0.7L-15.4 0.75L-15.25 0.9L-15.2 1L-15.1 1.05L-15 1.05L-15 1.2L-15.05 1.4L-15.15 1.55L-14.75 1.65L-14.65 1.7L-14.2 1.85L-14 1.95L-12.95 1.9L-12.95 2.1L-13.1 2.35L-12.8 2.55L-12.6 2.75L-12.55 2.8L-12 3.1L-11.95 3.15L-12.85 3.05L-13.1 2.7L-13.6 2.5L-13.6 2.25L-13.55 2.2L-13.3 2.05L-15.1 2L-15.5 1.75Q-15.7 1.5 -15.35 1.3L-15.45 1.25L-15.5 1.25L-15.55 1.2L-15.55 1.15L-15.55 1.05L-15.6 1L-15.7 0.95L-15.75 0.9L-15.75 0.75L-15.9 0.7L-15.95 0.65L-15.85 0.45L-15.5 0.25L-15.45 0.2L-15.35 0.2L-15.25 0.3L-15.2 0.35L-15.25 0.45L-15.35 0.5L-15.4 0.5" />
<path style="fill:#FFCC00;fill-opacity:0.498039" d="M0.25,-14.8L-1.6 -14.85Q-0.3 -15.6 1.45 -15.4L2.2 -14.65L3.05 -13.95L3.1 -13.9Q1.95 -13.95 0.8 -14.65L0.25 -14.8M4.55,-12.9Q5.05 -13 5.3 -12.7L5.6 -11.95L5.6 -11.9L4.9 -12.05L4.1 -12.65Q3.95 -12.7 3.9 -12.8L3.95 -12.8L4.55 -12.9M9.65,-10.7L10.15 -9.5L10.05 -8.95L8.8 -10.15L8.45 -10.65Q8.15 -11.35 8.2 -11.95L8.75 -11.75L9.15 -11.5L9.2 -11.45Q9.2 -11.2 9.65 -10.7M1.15,-7.9L1.6 -7.75L2.15 -7.6L2.25 -7.4L2.1 -7.2L1.85 -6.9L1.6 -6.75L1.6 -6.6L1.55 -6.5L1.45 -6.4L1 -6.6L0.45 -7.05L0.3 -7.15L0.6 -7.4L0.9 -7.75L1.15 -7.9M14.1,-5.95L14.55 -4.6L14.7 -3.35L14.7 -3.2L13.7 -2.7L13.15 -2.55Q13.75 -3.35 13.9 -4.25L14 -5.8L14.1 -5.95M9.2,0.55L9.5 1.05L9.5 1.1L6.35 1.4L8.35 0.55L8.95 0.1L9.05 0L9.2 0.55M-5.25,-14.7L-3.4 -15Q-3.1 -14.8 -3.35 -14.6L-3.45 -14.2L-3.45 -14.15Q-4.35 -14.3 -4.9 -13.65L-4.95 -13.6L-6.35 -13.65L-6.35 -13.8L-6.4 -13.65L-6.5 -13.8L-6.5 -13.95L-5.25 -14.7M-9.2,-12.45L-8.95 -12.4L-8.75 -12.25L-8.65 -12.2L-9 -11.7L-9.7 -11.1L-9.7 -10.9Q-9.9 -10.75 -10.15 -10.7L-10.65 -10.45L-10.65 -10.35L-10.65 -10.1L-10.75 -10L-11 -9.75L-11.5 -9.25L-11.6 -9.2L-11.55 -10.4L-10.95 -11.35L-10.25 -12.1L-10.2 -12.1L-10 -12.05L-9.95 -12.05L-9.85 -12.2L-9.25 -12.4L-9.2 -12.45M-13,-3.85Q-13.45 -3.45 -13.4 -2.9L-13.25 -1.9L-13.3 -1.8L-14.05 -1.65L-14.1 -1.55Q-14.55 -2.45 -14.45 -3.6L-14.05 -5.6L-13.8 -5.8L-13.5 -4.85L-13.1 -3.95L-13 -3.85M-11.1,-0.1Q-10.45 0.3 -9.7 0.35L-9.6 0.45L-9.55 1L-9.55 1.4L-9.55 1.85L-9.6 1.9L-11 1.4L-11.9 1.35L-12 0.55L-12.2 0L-12.35 -0.3L-12.5 -0.6L-12.45 -0.65L-12.35 -0.7L-12.3 -0.7L-11.1 -0.1M-4.3,-10.55L-4 -10.45L-3.7 -10.15Q-3.95 -9.9 -4.35 -9.7L-5.1 -9.5L-5.25 -9.85L-5.05 -10.15L-4.95 -10.4L-4.7 -10.45L-4.3 -10.5L-4.3 -10.55M-6.65,-8.75L-6.55 -8.55L-6.35 -8.3L-6.7 -7.55L-6.75 -6.7L-6.85 -6.5Q-7.4 -6.9 -7.4 -7.75Q-7.5 -8.45 -6.95 -9.1L-6.75 -9.15L-6.55 -9L-6.65 -8.75" />
</g>
</svg>
