<?xml version="1.0" encoding="utf-8"?>
<svg version="1.1" id="Layer_1"
xmlns="http://www.w3.org/2000/svg"
xmlns:xlink="http://www.w3.org/1999/xlink"
width="11px" height="10px"
xml:space="preserve">
<g id="511" transform="matrix(1, 0, 0, 1, -1.45, 8.45)">
<path style="fill:#000000;fill-opacity:1" d="M8.95,-7.65L10.8 -6.7L10.9 -5.3L11.25 -5L11.95 -3.45L11.95 -1.85L11.2 -1L10.5 -0.9L9.75 -0.55L8.75 -0.4L6.6 0.45L3.2 0.65L3.05 0.55L2.6 0.55L2.1 0.35L1.7 -0.05L1.7 -1.75L1.45 -1.9L1.45 -2.5L1.5 -2.55L1.55 -2.6L1.55 -2.85L2.15 -3.45L4.75 -3.45L5.7 -3.9L6.05 -3.9L6 -4.35L5.4 -4.95L5 -5.9L5 -6.2L4.9 -6.55L4.8 -6.7L4.85 -8.4L4.95 -8.45L5.1 -8.25L8.95 -7.65" />
</g>
</svg>
