<?xml version="1.0" encoding="utf-8"?>
<svg version="1.1" id="Layer_1"
xmlns="http://www.w3.org/2000/svg"
xmlns:xlink="http://www.w3.org/1999/xlink"
width="26px" height="12px"
xml:space="preserve">
<g id="1141" transform="matrix(1, 0, 0, 1, 14.35, 7.2)">
<path style="fill:#1C0E0B;fill-opacity:1" d="M1.5,-6.75L1.6 -4.75Q1.75 -3.3 3.1 -2.9L10.85 -3L10.8 -4.75L3.95 -4.7L2.25 -6.75L1.5 -6.75M11.15,-0.45L11.1 -2.4L2.95 -2.35Q1.2 -2.7 1.05 -4.45L1.05 -6.75L-0.35 -6.7L-0.4 -6.7L-1.55 -5.05L-1.7 -4.85L-1.85 -0.45L0.85 -0.45L4.5 -0.45L11.15 -0.45M4.1,-5.3L11.2 -5.3Q11.7 -2.8 11.4 0.1L-2.4 0.1L-2.4 -5.1L-0.8 -7.2L2.4 -7.2L4.1 -5.3" />
<path style="fill:#985929;fill-opacity:1" d="M-1.55,-5.05L-0.4 -6.7L-0.35 -6.7L-0.2 -4.4Q0 -2.7 1.9 -1.9L4.5 -0.45L0.85 -0.45Q-1.55 -1.55 -1.55 -5.05" />
<path style="fill:#100806;fill-opacity:1" d="M-0.25,2.4L-0.25 4.45L-14.25 2.8L-14.35 2.25L-0.25 2.4" />
<linearGradient
id="LinearGradID_365" gradientUnits="userSpaceOnUse" gradientTransform="matrix(0, -0.00985718, 0.00805664, 0, 7.75, -4.3)" spreadMethod ="pad" x1="-819.2" y1="0" x2="819.2" y2="0" >
<stop  offset="0" style="stop-color:#511A16;stop-opacity:1" />
<stop  offset="0.505882" style="stop-color:#6D4414;stop-opacity:1" />
<stop  offset="1" style="stop-color:#511A16;stop-opacity:1" />
</linearGradient>
<path style="fill:url(#LinearGradID_365) " d="M2.25,-6.75L3.95 -4.7L10.8 -4.75L10.85 -3L3.1 -2.9Q1.75 -3.3 1.6 -4.75L1.5 -6.75L2.25 -6.75M0.85,-0.45L-1.85 -0.45L-1.7 -4.85L-1.55 -5.05Q-1.55 -1.55 0.85 -0.45M-0.35,-6.7L1.05 -6.75L1.05 -4.45Q1.2 -2.7 2.95 -2.35L11.1 -2.4L11.15 -0.45L4.5 -0.45L1.9 -1.9Q0 -2.7 -0.2 -4.4L-0.35 -6.7" />
</g>
</svg>
