<?xml version="1.0" encoding="utf-8"?>
<svg version="1.1" id="Layer_1"
xmlns="http://www.w3.org/2000/svg"
xmlns:xlink="http://www.w3.org/1999/xlink"
width="39px" height="22px"
xml:space="preserve">
<g id="858" transform="matrix(1, 0, 0, 1, -55.7, 17.85)">
<path style="fill:#0E0E0E;fill-opacity:1" d="M55.7,-5.5Q55.7 -6.85 57.35 -6.85Q58.95 -6.85 58.95 -5.45L58.9 -5L58.3 -4.55L56.65 -4.55L55.7 -5.5M79.15,-6.9Q78.15 -6.2 76.9 -6.2Q75.4 -6.2 74.6 -7.2Q74.05 -7.85 74.05 -8.4Q74.05 -10.5 77.05 -10.55Q80.05 -10.65 80.05 -8.2Q80.05 -7.55 79.15 -6.9M91.85,-17.85L92.25 -17.8L93 -17.8Q94.4 -17.65 94.4 -16.8Q94.4 -16.05 93.5 -16.05Q92.35 -16.05 91.85 -16.6L91.6 -17.2L91.85 -17.65L91.85 -17.85M82.85,-11.05Q84.15 -10.95 84.15 -10Q84.15 -9.4 83.6 -9.25L82.2 -9.25Q81.5 -9.4 81.5 -10Q81.5 -11.1 82.85 -11.05M85.75,2.85L85.65 3.35L84.6 3.55L84.35 3.45L84.25 3Q84.25 2.55 84.4 2.4L85.55 2.35L85.75 2.85M62.65,1.8Q62.05 2.3 61.4 2.3Q59.95 2.3 58.6 1.3Q57.5 0.45 57.5 0.05Q57.5 -2.05 60.4 -2.2Q63.3 -2.3 63.3 0.65Q63.3 1.25 62.65 1.8" />
</g>
</svg>
