<?xml version="1.0" encoding="utf-8"?>
<svg version="1.1" id="Layer_1"
xmlns="http://www.w3.org/2000/svg"
xmlns:xlink="http://www.w3.org/1999/xlink"
width="17px" height="32px"
xml:space="preserve">
<g id="1020" transform="matrix(1, 0, 0, 1, 4.3, 10.65)">
<path style="fill:#FFFF00;fill-opacity:1" d="M7.75,-8.05Q8.7 -7 7.75 -6.15L7.7 -6.15Q7.6 -7 7.65 -7.95L7.75 -8.05M1.65,-10.6L1.7 -10.65L1.9 -9.4Q1.95 -8.3 1.15 -8.9Q1.1 -9.85 1.65 -10.6M4.85,-6.35Q4.7 -5.65 4 -5.9Q3.8 -7.3 4.85 -8.15Q5.15 -7.45 4.85 -6.35M3.75,-1.95Q4.2 -0.55 3.25 1.3L3.15 1.85Q3.5 0.9 4.95 0.2Q5.4 0 5.55 -0.6L5.85 -1.15Q6.1 0.55 4.85 2.25L4.8 2.3Q6.6 3.85 4.4 4.3Q3.85 4.4 3.5 3.85L3.4 3.65Q1.2 3.8 2 1.2Q2.35 0.05 3 -0.95L3.75 -1.95M1.5,-0.55L1.5 0.15Q1.6 1.9 0.25 0.7Q-0.55 0.05 0 -0.85Q0.85 -2.3 1 -3.75Q1.6 -2.4 1.5 -0.55M6.9,-3.9L6.95 -3.85Q6.9 -2.7 6.15 -2.4Q5.9 -2.3 5.9 -2.55Q5.9 -3.55 6.75 -4L6.9 -3.9M8.15,-1.35Q9.7 0 8.65 1.5L8.1 1.55Q7.9 1.25 8.05 0.85Q8.45 -0.25 8.1 -1.35L8.15 -1.35M11.25,9.55L11.15 9.4L11.35 7.35Q12.95 8.8 11.25 9.55M11.6,11.4L12.25 13.1Q12.4 13.6 12.05 14L11.05 14.85Q11.15 13.2 11.4 11.65L11.6 11.4M6.4,5.75Q5.5 4.85 6.3 3.65L7.25 2.4Q7.45 4.15 6.65 5.75L6.4 5.75M4.65,8.15Q5.4 8.65 5.55 9.75Q6.85 8.95 7.25 7.6Q7.7 10.5 6.7 13.35Q6.5 13.9 5.9 13.5Q3.5 11.9 4.45 8.85L4.55 8.3L4.65 8.15M2.05,7.95Q2.15 6.5 3.5 5.9Q3.6 7.15 2.25 8.1L2.05 7.95M3.45,12.2L3.15 12.25Q2.85 11.75 2.85 11.1L2.65 10L2.7 9.95Q3.85 10.9 3.45 12.2M9.45,6.2Q9.5 5.1 10.05 4.35L10.25 4.45Q10.45 5.8 9.6 6.3Q9.4 6.45 9.45 6.2M1.15,8.1Q0.3 9.45 -0.75 8.1Q-1.15 7.6 -1.05 6.9Q-0.85 5.5 -0.9 3.95Q-0.95 3.3 -0.55 2.95Q-0.6 4.7 0.95 6.15Q1.85 6.95 1.15 8.1M8.9,15.65Q9.15 17.85 7.3 19.6L6.45 20.1Q4.3 20.75 4.85 18.7Q5.15 17.8 6.1 17.6Q8.1 17.3 8.9 15.65M1.9,13Q1.3 14.9 2.45 16.8Q2.75 17.35 2.45 17.9Q1.35 19.8 -0.45 20.65Q-1.05 20.9 -1.2 20.2Q-1.65 18.4 -1.45 16.5Q-1.4 16.05 -1.7 15.65Q-2.75 14.1 -3.05 12.9Q-0.35 13.95 0.5 16.5L0.55 16.55Q0.5 15.05 1.1 13.6Q1.35 12.9 1.9 13M-2.05,-0.65Q-1.15 0.65 -1.95 1.6L-2.05 1.5Q-2.45 0.55 -2.2 -0.55L-2.05 -0.65M-1.3,-1.75Q-1.4 -1.6 -1.5 -1.85Q-1.85 -2.95 -1.05 -3.7Q-0.4 -2.5 -1.3 -1.75M-4.1,7.85L-4.3 7.45Q-4.05 5.6 -3.25 4.15L-3.15 7.2Q-3.15 8.45 -4.1 7.85M-1.45,11.4Q-2.2 11.1 -2.1 10.15L-1.75 8.85Q-1.25 9.7 -1.2 10.6L-1.2 11.15L-1.25 11.3L-1.4 11.4L-1.45 11.4" />
</g>
</svg>
