<?xml version="1.0" encoding="utf-8"?>
<svg version="1.1" id="Layer_1"
xmlns="http://www.w3.org/2000/svg"
xmlns:xlink="http://www.w3.org/1999/xlink"
width="143px" height="53px"
xml:space="preserve">
<g id="955" transform="matrix(1, 0, 0, 1, 0, 14.25)">
<path style="fill:#000000;fill-opacity:1" d="M124.35,29.85L90.1 29.85L85.05 26.05L74.25 26.05L70.4 32.95L54.3 32.95L50.75 29.9L20.75 29.9L16.55 27.6L16.55 25.25L20.1 22.9Q19 16.2 0 6.3L31.8 6.3L36 11.3L46.15 11.3L48.65 3.6L49 3.6L49 3Q49 1.85 49.45 1.15Q50.15 0 52 0L56.25 0Q58.05 0 58.75 1.05Q59.25 1.8 59.25 3L59.25 3.6L59.7 3.6L62 11.3L74.25 11.3L76.45 7.9L77.3 7.9L78.1 7.3L80.1 7.3L80.1 6.65L83.25 6.65L83.25 7.3L88.75 7.3L88.75 6.65L91.9 6.65L91.9 7.3L97.1 7.3L97.1 6.65L100.25 6.65L100.25 7.3L103 7.3L106 11.5L134.25 11.5L137.5 16.05L135.65 21.75L131.7 21.75L131.65 21.85L124.35 29.85" />
<path style="fill:#000000;fill-opacity:1" d="M25.05,-4.25L27.7 7.1L26.2 7.45L23.5 -3.95L25.05 -4.25M54.85,-14.25L54.85 0.75L53.35 0.75L53.35 -14.25L54.85 -14.25M97.65,-9.95L97.65 9.45L96.15 9.45L96.15 -9.95L97.65 -9.95M142.5,19.5L132.85 19.5L132.85 18L142.5 18L142.5 19.5M137.55,2.85L138.85 3.6L133.25 12.65L131.95 11.85L137.55 2.85M133.85,28.25L123.65 25.8L124 24.35L134.2 26.8L133.85 28.25" />
<path style="fill:#000000;fill-opacity:1" d="M94.45,33.35L93.85 29.7L104.8 29.7L104.3 33.35L104.1 33.8L104.15 34.55L103.85 34.55L103.7 34.85L103.05 34.85L103.05 35.1Q99.35 35.8 95.65 35.1L95.65 34.85L95.05 34.85L94.9 34.55L94.65 34.55L94.65 33.8L94.45 33.35M111.45,33.35L110.85 29.7L121.8 29.7L121.3 33.35L121.1 33.8L121.15 34.55L120.85 34.55L120.7 34.85L120.05 34.85L120.05 35.1Q116.35 35.8 112.65 35.1L112.65 34.85L112.05 34.85L111.9 34.55L111.65 34.55L111.65 33.8L111.45 33.35M55.4,36.9L55.45 36.15L55.15 35.7L54.35 32.05L69.3 32.05L68.6 35.7L68.3 36.15L68.4 36.9L67.95 36.9L67.8 37.2L66.9 37.2L66.9 37.45Q61.85 38.15 56.8 37.45L56.8 37.2L55.95 37.2L55.8 36.9L55.4 36.9M42.25,34.35L41.35 34.35L41.35 34.6Q36.3 35.3 31.25 34.6L31.25 34.35L30.4 34.35L30.25 34.05L29.85 34.05L29.9 33.3L29.6 32.85L28.8 29.2L43.75 29.2L43.05 32.85L42.75 33.3L42.85 34.05L42.4 34.05L42.25 34.35" />
</g>
</svg>
