<?xml version="1.0" encoding="utf-8"?>
<svg version="1.1" id="Layer_1"
xmlns="http://www.w3.org/2000/svg"
xmlns:xlink="http://www.w3.org/1999/xlink"
width="17px" height="12px"
xml:space="preserve">
<g id="540" transform="matrix(1, 0, 0, 1, 3.4, 15.9)">
<path style="fill:#000000;fill-opacity:1" d="M4.2,-15.6Q5.7 -14.4 5.7 -13.9L5.5 -13.35L5.05 -12.9L5.55 -11.7L4.65 -11L4.6 -10.95L5.6 -9.55L5.6 -9.5L5.85 -9.15L6.4 -8.3L6.5 -8.3L7.35 -7.95L7.9 -8.05L8.75 -7.75L10.25 -7.5L11.3 -7.3L11.6 -7.2L11.65 -7.2Q12.9 -6.9 12.9 -6.5Q11.35 -3.45 9.9 -4L7.55 -4.1L6.9 -4.1L6.6 -4.15L6 -4Q5.35 -4 4.7 -4.3Q4.25 -4.5 4.15 -4.65L3.5 -4.25Q3.25 -4.25 2.5 -5.45L1.9 -6.45Q1.5 -6.65 0.65 -8.3Q0 -7.9 -0.3 -7.9Q-0.75 -7.9 -1.4 -9.2L-2.4 -9.1Q-2.7 -9.1 -3.1 -10.75L-3.4 -12.4L-3.1 -12.95L-1.5 -13L-1.05 -11.8L-0.85 -11.95Q-0.2 -12.4 0.1 -11.65L0.75 -12L1.05 -12.2L1.55 -12.45L2.2 -12.7L1.8 -13.45Q1.8 -13.8 2.05 -13.9L2.45 -14.05L2.25 -14.35L2 -14.8L2.7 -15.55L4.2 -15.6" />
</g>
</svg>
