<?xml version="1.0" encoding="utf-8"?>
<svg version="1.1" id="Layer_1"
xmlns="http://www.w3.org/2000/svg"
xmlns:xlink="http://www.w3.org/1999/xlink"
width="21px" height="15px"
xml:space="preserve">
<g id="1047" transform="matrix(1, 0, 0, 1, 10.7, 11.2)">
<path style="fill:#FFCC00;fill-opacity:1" d="M2.95,-5.6L2.05 -5.85L2 -5.85L1.7 -5.8L1.55 -5.75L1.3 -5.7L1.2 -5.65L1.45 -5.15L1.75 -4.45L1.8 -4.25Q1.95 -4.85 2.75 -4.6L4 -4.35L4.15 -4.35L4.05 -4.65L3.35 -5.35L2.95 -5.6M1.55,-4.25L1.35 -4.8L1.3 -5L1.2 -5.25L0.95 -5.8L1.05 -5.85L1.25 -5.9L1.9 -6.05L3.55 -5.55Q4.35 -5.05 4.45 -4.15L4.45 -4.05L3.8 -4.1L3.2 -4.25L3 -4.25L2.9 -4.25L2.7 -4.3L2.1 -4.3L2.1 -4.25L2.05 -4.2L2 -4.05L1.95 -3.9L1.9 -3.8L1.85 -3.8L1.7 -3.85L1.6 -4.05L1.55 -4.25M2.65,-3.35L2.65 -3L2.65 -2.9L2.2 -2.9L2.15 -2.9L2.1 -2.75L2.1 -2.6L2.15 -2.55L2.15 -2.5L2.1 -2.5L2.1 -2.45L2.15 -2.35L2.2 -2.05L1.95 -1.7L2.3 -1.3L2.35 -0.9L2.35 -0.85Q3.5 -1.1 3.55 -2.25L3.55 -2.5L3.35 -3.1L2.55 -3.65L2.65 -3.35M4.85,-3.55L5 -2.9L5.05 -2.8L5.25 -2.15L5.25 -1.5L5.25 -1.4L5.25 -1.3L5.2 -1.2Q5.15 -1.1 5.1 -1.15L5.05 -1.25L4.9 -1.2L4.65 -1.15L4.6 -1L4.55 -0.95L4.25 -0.95L4.1 -0.6L4.05 -0.25L4.05 -0.2L4.2 -0.15L4.25 -0.1L4.25 -0.05L5.75 -0.55L5.95 -0.55L5.9 -2L5.2 -3.25L5.1 -3.4L4.9 -3.5L4.85 -3.55M4.5,-3.8L4.6 -3.85Q5.7 -3.45 6.1 -2.35L6.3 -1.25Q6.35 -0.5 5.9 -0.2L5 0L4 0.25L3.95 0.2L3.95 0.1L3.8 0.15L3.45 0.1L3.4 0.05L3.5 -0.05L3.7 -0.1L3.8 -0.1L3.9 -0.4L4 -0.85L4.15 -1.25L4.35 -1.2L4.4 -1.15L4.45 -1.25L4.45 -1.3L4.55 -1.4L4.6 -1.4L4.7 -1.45L4.85 -1.55L4.95 -1.6L5.05 -1.6L5.05 -1.55L5.1 -1.6Q5.25 -2.05 5 -2.45L4.55 -3.4L4.5 -3.8M0.85,-4.4L1.2 -3.25L1.35 -2L1.4 -1.65L1.4 -1.6L1.35 -1.55L1.3 -1.55Q1.4 -1.1 1.65 -0.8Q1.9 -0.45 2.3 -0.3L2.35 -0.2L1.25 -0.05L1.15 -0.1L1.05 -0.1L0.5 -0.25L0.4 -0.05L0.2 -0.05L-0.4 0.2L-0.75 0.15L-0.25 -0.05L-0.75 -0.15L-0.9 -0.15L-1.1 -0.05L-1.25 0.1L-1.45 0.25L-1.3 0.25L-1.2 0.3L-1.3 0.55L-1.55 0.85L-1.7 0.95L-1.7 1.1L-0.25 1L-0.05 1.1L0.6 2.05L0.9 2.65L-5 2.35L-5.1 2.25L-4.45 1.6L-3.95 1.2L-3.6 0.95L-3.55 1.05L-3.5 1.25L-3.55 1.45Q-2.85 1.45 -2.25 0.85L-1.6 0.3L-1.45 0.25L-1.5 0.25L-1.65 0.15L-1.65 -0.05L-1.65 -0.1L-2.15 0.1L-2.55 0.1L-2.15 -0.45L-2.3 -0.5L-2.35 -0.5L-2.5 -0.65L-2.7 -0.85L-2.75 -0.95L-2.8 -1.1L-2.8 -1.15Q-2.8 -1.3 -3 -1.25L-3.05 -1.25L-3.15 -1.35L-3.15 -1.45L-3.15 -1.5L-3.15 -1.05L-3.1 -0.55L-3.1 -0.35L-3.2 -0.3L-3.35 -0.25L-3.45 0.25L-3.5 0.7L-3.55 0.9L-3.75 0.9L-3.85 0.8Q-5.3 0.75 -6.25 -0.3L-6.55 -0.1L-6.6 0L-5.65 0.3Q-5.25 0.45 -5.2 0.8Q-4.95 0.85 -4.8 1.05L-4.6 1.4L-4.6 1.55Q-5.95 2.15 -7.45 1.55L-8.35 0.7Q-8.8 0.5 -8.5 0.15L-8.5 0.1L-8.35 -0.05L-8.15 -0.1L-8.05 -0.15L-8 -0.15L-6.6 -0.7L-6.55 -0.7L-6.65 -1Q-6.75 -0.65 -7.25 -0.5Q-8.1 -0.25 -8.85 -0.7L-9.05 -0.85L-9.05 -0.9L-9.05 -1.05L-8.95 -1.25L-8.85 -1.35L-7.15 -1.6L-6.9 -1.6L-6.7 -1.5L-6.6 -1.45L-6.6 -1.35L-6.4 -1.7Q-6.15 -2.05 -5.75 -2.2L-5.75 -2.25L-5.7 -2.3L-5.8 -2.35L-6.05 -2.35Q-6.2 -3 -5.8 -3.5L-4.75 -4.35L-4.2 -4.55L-3.1 -3.55L-3.15 -3.45L-4.75 -2.25L-4.8 -2.2L-4.65 -2.2L-4.35 -2.4L-4.15 -2.55L-3.9 -2.85Q-3.65 -3.2 -3.25 -3.2L-3.15 -2.75L-3.1 -2.25L-3.05 -2.1L-2.5 -2.95L-1.8 -3.7L-1.5 -3.2L-1.15 -2.7L-1.1 -2.65L-0.95 -3.2L-0.85 -3.75L-0.85 -4L-0.8 -4.05L-0.65 -4.05L-0.65 -4.35L-0.65 -4.7L-0.55 -4.8L-0.3 -4.4L-0.15 -3.95L-0.15 -3.9L0.15 -3.7L0.3 -3.45L0.45 -3.75L0.5 -4.25L0.55 -4.35L0.8 -4.4L0.85 -4.4M0,-0.95L0 -1.65L0.05 -1.75L0.2 -1.05L0.2 -0.65L0.3 -0.4L1.75 -0.3L1.4 -0.75L1.2 -1L1 -1.9L0.9 -2.55L0.95 -2.75L0.95 -3L0.95 -3.05L0.85 -3.5L0.75 -4.1L0.7 -4.15L0.65 -3.55L0.4 -3L0.35 -3L-0.25 -3.65L-0.45 -4.05L-0.45 -3.65Q-0.4 -3.3 -0.7 -3.3L-1 -2.05L-1.3 -1.1L-1.4 -0.85L-1.7 -0.5L-1.8 -0.3L-1.65 -0.4L-1.55 -0.45L-1.45 -0.3L-1.45 -0.15Q-0.85 -0.7 -0.05 -0.3L0.05 -0.3L0.05 -0.45L0.05 -0.55L0 -0.95M2.45,-3.3L2.3 -3.55L2.25 -3.85L2.3 -3.9Q3.55 -3.95 3.8 -2.7Q4 -1.3 2.7 -0.7L2.1 -0.6L2.1 -0.65L2.15 -0.8L2.05 -1.3L1.45 -1.75L1.85 -2L2 -2.05L2 -2.1L1.9 -2.45L1.9 -2.85L1.9 -3.05L2.1 -3.15Q2.45 -3.05 2.45 -3.3M7.15,-0.85L7.65 -0.9L8.1 -0.95Q9.75 -1.25 10.05 0.15Q10.2 0.9 9.45 1.2L7.75 1.5L7.3 1.5L7.25 1.5L7.25 1.45L7.1 1.4L7.05 1.3L7.05 1.2L7.05 1.15L7.25 1.05L7.65 0.85L8 0.75L7.6 0.65L7.4 0.65L7.15 0.7L6.4 0.55L6.35 0.5L6.4 0.45L6.05 0.25L6.15 0.15L7.55 -0.1L7.75 -0.15L7.75 -0.2L7.6 -0.3Q7.4 -0.3 7.2 -0.45Q7.05 -0.55 7.05 -0.8L7.15 -0.85M8.2,-0.1L8.2 0L7.5 0.15L6.75 0.25L8 0.45L8.65 0.6L8.6 0.8L7.85 1.1L7.5 1.2L8.85 1.05L9.8 0.7L9.85 0.5L9.9 0.35L9.95 0.15L9.8 -0.1L9.55 -0.4L9.35 -0.5L8.15 -0.7L8 -0.6L7.75 -0.5L7.7 -0.5L7.95 -0.4L8.2 -0.1M6.9,1.5L6.9 1.6L6.9 1.65Q5.8 2.6 4.3 2.65L4.15 2.7L3.7 2.75L2.3 3L2.2 3L2.15 3L2.05 2.95L2 2.95L1.7 1.95L1.55 1.2L1.55 0.35L1.65 0.3Q2.15 0.4 2.35 1L2.6 1.35L2.6 1.3L2.65 1.3L2.7 1.4L3.1 1.35L3.1 1.3L3.2 1.25L3.4 1.2L3.35 1.15L3.25 1.05L3.25 0.9L3.25 0.85Q3.6 0.85 4.05 1.1L4.65 1.15L4.6 1L4.35 0.65L4.35 0.4Q5.5 0.25 6.4 1.05L6.9 1.45L6.9 1.5M6,1.05L4.8 0.85L4.85 1L5 1.35L5 1.4L4.95 1.4L4.95 1.45L3.65 1.4L3.6 1.5L3.55 1.5L3.45 1.55L3.45 1.65L3.5 1.7L3.3 1.7L3.25 1.7L3.05 1.8L2.7 1.8L2.65 1.75L2.55 1.65L2.35 1.55L2.15 1.25L1.95 0.9L1.95 1L2 1.1L2 1.2L1.85 1.15L1.75 1L1.95 1.7L2 1.9L2.1 2.35L2.2 2.7L5.5 2.15L6.6 1.55L6.5 1.4L6.25 1.3L6 1.05M0.25,1.9L-0.4 1.1L-1.35 1.35L-1.7 1.35L-1.75 1.2L-1.85 1.15L-1.95 0.85L-2.4 1.2L-2.8 1.55L-2.85 1.6L-3.8 1.65L-3.8 1.6L-3.9 1.7L-4 1.75L-4.1 1.75L-4.25 1.8L-4.45 1.9L-4.55 2L-4.7 2.2L-3.3 2.5L-1.5 2.6L0.5 2.45L0.25 1.9M-2,-6.35L-1.25 -6.55L-0.95 -6.55L-0.85 -6.45L-0.9 -6.35L-1.25 -6.05L-1.45 -5.85L-1.45 -5.8L-1.5 -5.75L-1.55 -5.7L-1.55 -5.65L-1.2 -5.4L-1.1 -5.2L-1.1 -5.15L-1.6 -4.75L-2 -4.15L-2.15 -3.85L-2.3 -3.9L-2.6 -4.2L-2.7 -4.35L-2.75 -4.4L-3.3 -4.45Q-3.8 -4.3 -4 -4.6L-3.9 -4.8L-3.85 -5L-3.7 -5.3L-3.45 -5.55L-3.4 -5.6L-2.85 -6L-2.05 -6.3L-2 -6.35M-6.95,-1.35L-7 -1.35L-7.05 -1.35L-7.3 -1.3L-8.2 -1.25L-8.8 -1L-8.6 -0.8L-8.35 -0.65L-7.9 -0.6L-7.15 -0.8L-6.8 -1.2L-6.85 -1.3L-6.9 -1.3L-6.95 -1.35M-5.5,-2.35L-5.5 -2.25L-5.15 -2.25L-5.05 -2.2L-4.65 -2.75L-3.45 -3.6L-3.4 -3.6L-3.45 -3.7L-3.55 -3.85L-3.75 -3.95L-4.05 -4.05L-4.5 -4.15L-4.7 -4.1L-4.85 -4.05L-5.8 -3L-5.85 -2.6L-5.7 -2.6L-5.6 -2.6L-5.5 -2.55L-5.5 -2.35M-5.6,-1.95L-5.85 -1.85L-6.15 -1.4L-6.2 -1.4L-6.3 -1.3L-6.3 -1.2L-6.35 -1.1L-6.4 -0.95L-5.45 -0.05Q-5 0.45 -4.35 0.5L-3.7 0.55L-3.65 0.15L-3.6 -0.2L-3.55 -0.5L-3.45 -0.55L-3.35 -0.55L-3.3 -0.55L-3.4 -1.05L-3.4 -1.55L-3.4 -1.65L-3.35 -1.75L-3.2 -1.85L-3.3 -2.25L-3.3 -2.65L-3.35 -2.75L-3.55 -2.7L-3.55 -2.75L-4.1 -2.25L-4.1 -2.15L-4.1 -2.1Q-4.55 -1.75 -5.05 -1.95L-5.1 -1.95L-5.6 -1.95M-6.9,0L-6.85 -0.15L-6.7 -0.3L-6.55 -0.4L-6.5 -0.45L-6.55 -0.5L-7.3 -0.2L-8.25 0.15L-8.4 0.3L-7.6 1.15Q-6.25 1.9 -4.85 1.45L-5 1.2Q-5.05 1.1 -5.2 1.1L-5.35 1.05L-5.45 0.95L-5.45 0.75L-5.5 0.7L-6.15 0.5L-6.65 0.3L-6.9 0.05L-6.9 0M-1.75,-5.85L-1.75 -5.95L-1.7 -6L-1.55 -6.05L-1.95 -6.05L-2.4 -5.9L-2.65 -5.8L-2.85 -5.7L-3.5 -5.05L-3.6 -4.9L-3.15 -4.75L-3.05 -4.7L-2.85 -4.7L-2.7 -4.65L-2.7 -4.6L-2.5 -4.45L-2.25 -4.2L-2.1 -4.5L-1.75 -5L-1.4 -5.25L-1.65 -5.45L-1.9 -5.55L-1.9 -5.7L-1.8 -5.85L-1.75 -5.85M-1.85,-3.3L-2.55 -2.5Q-2.9 -2.1 -2.9 -1.55L-2.9 -1.5L-2.7 -1.55L-2.5 -1.5L-2.5 -1.4L-2.55 -1.3L-2.6 -1.25L-2.45 -1L-2.25 -0.75L-2.2 -0.75L-1.8 -1.45L-1.3 -2.15L-1.45 -2.6L-1.5 -2.7L-1.55 -2.75L-1.7 -3L-1.8 -3.2L-1.85 -3.3" />
<path style="fill:#FFFF00;fill-opacity:1" d="M3.05,-5.2L2.6 -5.5Q2.3 -5.35 1.8 -5.5L1.5 -5.55Q1.4 -5.4 1.55 -5.15L1.7 -4.75L1.7 -4.7L3.65 -4.65L3.05 -5.2M3.35,-5.35L4.05 -4.65L4.15 -4.35L4 -4.35L2.75 -4.6Q1.95 -4.85 1.8 -4.25L1.75 -4.45L1.45 -5.15L1.2 -5.65L1.3 -5.7L1.55 -5.75L1.7 -5.8L2 -5.85L2.05 -5.85L2.95 -5.6L3.35 -5.35M3,-4.25L3.2 -4.25L3.2 -4.2L2.9 -4.25L3 -4.25M1.6,-4.05L1.7 -3.85Q1.55 -3.95 1.55 -4.25L1.6 -4.05M2.75,-3.3L2.75 -3.2L2.8 -3L2.85 -2.8L2.8 -2.65L2.7 -2.65L2.6 -2.7L2.55 -2.75L2.35 -2.75L2.3 -2.75L2.4 -2.45L2.4 -2.2L2.35 -2L2.25 -1.85L2.2 -1.8L2.45 -1.6L2.6 -1.35L2.65 -1.1Q3.05 -1.2 3.25 -1.75L3.25 -2.3L3.1 -2.75L3.05 -2.85L3.05 -2.9L3 -3L2.9 -3.2L2.85 -3.2L2.75 -3.3M2.55,-3.65L3.35 -3.1L3.55 -2.5L3.55 -2.25Q3.5 -1.1 2.35 -0.85L2.35 -0.9L2.3 -1.3L1.95 -1.7L2.2 -2.05L2.15 -2.35L2.1 -2.45L2.1 -2.5L2.15 -2.5L2.15 -2.55L2.1 -2.6L2.1 -2.75L2.15 -2.9L2.2 -2.9L2.65 -2.9L2.65 -3L2.65 -3.35L2.55 -3.65M4.9,-3.5L5.1 -3.4L5.2 -3.25L5.9 -2L5.95 -0.55L5.75 -0.55L4.25 -0.05L4.25 -0.1L4.2 -0.15L4.05 -0.2L4.05 -0.25L4.1 -0.6L4.25 -0.95L4.55 -0.95L4.6 -1L4.65 -1.15L4.9 -1.2L5.05 -1.25L5.1 -1.15Q5.15 -1.1 5.2 -1.2L5.25 -1.3L5.25 -1.4L5.25 -1.5L5.25 -2.15L5.05 -2.8L5 -2.9L4.85 -3.55L4.9 -3.5M0.35,-0.6L0.75 -0.5L0.95 -0.55L1.25 -0.45L1.4 -0.45L1.3 -0.55L1.25 -0.7L1.15 -0.85L1.1 -0.9L0.9 -1.5L0.75 -2.05L0.65 -2.55L0.65 -2.5L0.55 -2.2L0.45 -2.05L0.25 -2.25L0.2 -2.5L0.1 -2.75L0.15 -2.8L0.05 -2.9L0 -2.95L0 -3L-0.2 -3.15L-0.3 -3.35L-0.3 -3.5L-0.35 -3.5L-0.3 -3.2L-0.35 -2.9L-0.3 -2.6L-0.3 -2.4L-0.35 -2.35L-0.4 -2.35L-0.5 -2.35L-0.6 -2.45L-0.65 -2.55L-0.7 -2.7L-0.7 -2.85L-0.8 -2.3L-0.9 -1.8L-1 -1.35L-1.1 -1L-1 -0.9L-0.9 -0.9L-0.9 -0.7L-0.95 -0.65L-0.8 -0.65L-0.6 -0.65L-0.5 -0.6L-0.4 -0.7L-0.35 -0.75L-0.15 -0.7L-0.05 -0.55L0 -0.5L0.05 -0.55L0.05 -0.45L0.05 -0.3L-0.05 -0.3Q-0.85 -0.7 -1.45 -0.15L-1.45 -0.3L-1.55 -0.45L-1.65 -0.4L-1.8 -0.3L-1.7 -0.5L-1.4 -0.85L-1.3 -1.1L-1 -2.05L-0.7 -3.3Q-0.4 -3.3 -0.45 -3.65L-0.45 -4.05L-0.25 -3.65L0.35 -3L0.4 -3L0.65 -3.55L0.7 -4.15L0.75 -4.1L0.85 -3.5L0.95 -3.05L0.95 -3L0.95 -2.75L0.9 -2.55L1 -1.9L1.2 -1L1.4 -0.75L1.75 -0.3L0.3 -0.4L0.2 -0.65L0.35 -0.6M4.5,-0.85L4.45 -0.55L4.35 -0.2Q4.5 -0.2 4.55 -0.3L4.6 -0.45L5.9 -0.7L5.75 -1.5L5.6 -2.25L5.55 -2.25L5.55 -1.55L5.4 -0.9L5.35 -0.85Q5.25 -0.85 5.15 -0.95L5.05 -0.95L5.05 -0.85L4.9 -0.75L4.6 -0.85L4.5 -0.85M7.95,-0.4L7.7 -0.5L7.75 -0.5L8 -0.6L8.15 -0.7L9.35 -0.5L9.55 -0.4L9.8 -0.1L9.95 0.15L9.9 0.35L9.85 0.5L9.8 0.7L8.85 1.05L7.5 1.2L7.85 1.1L8.6 0.8L8.65 0.6L8 0.45L6.75 0.25L7.5 0.15L8.2 0L8.2 -0.1L7.95 -0.4M8.65,-0.1L8.75 0L8.4 0.3L8.95 0.55L8.9 0.85L8.75 1L8.65 1.05L9.4 0.75L9.75 0.35L9.7 0.25L9.65 0.1L9.4 -0.25L9.1 -0.45L9.05 -0.45L9.1 -0.35L9.05 -0.25L8.6 -0.35L8.35 -0.35L8.65 -0.1M5.2,1.15Q5.5 1.7 4.95 1.75L4 1.8L3.9 1.8L3.9 1.9L3.85 2L2.25 1.9L2.3 2.15L2.4 2.4L5.7 2L6.35 1.6L5.3 1.15L5.2 1.15M6.25,1.3L6.5 1.4L6.6 1.55L5.5 2.15L2.2 2.7L2.1 2.35L2 1.9L1.95 1.7L1.75 1L1.85 1.15L2 1.2L2 1.1L1.95 1L1.95 0.9L2.15 1.25L2.35 1.55L2.55 1.65L2.65 1.75L2.7 1.8L3.05 1.8L3.25 1.7L3.3 1.7L3.5 1.7L3.45 1.65L3.45 1.55L3.55 1.5L3.6 1.5L3.65 1.4L4.95 1.45L4.95 1.4L5 1.4L5 1.35L4.85 1L4.8 0.85L6 1.05L6.25 1.3M0.5,2.45L-1.5 2.6L-3.3 2.5L-4.7 2.2L-4.55 2L-4.45 1.9L-4.25 1.8L-4.1 1.75L-4 1.75L-3.9 1.7L-3.8 1.6L-3.8 1.65L-2.85 1.6L-2.8 1.55L-2.4 1.2L-1.95 0.85L-1.85 1.15L-1.75 1.2L-1.7 1.35L-1.35 1.35L-0.4 1.1L0.25 1.9L0.5 2.45M-6.9,-1.3L-6.85 -1.3L-6.8 -1.2L-7.15 -0.8L-7.9 -0.6L-8.35 -0.65L-8.6 -0.8L-8.8 -1L-8.2 -1.25L-7.3 -1.3L-7.05 -1.35L-7 -1.35L-6.9 -1.3M-8.35,-0.75L-8.15 -0.75Q-7.4 -0.7 -7 -1.1L-7.05 -1.15L-7.15 -1.25L-7.25 -1.25L-7.65 -1.25Q-8.3 -1.3 -8.45 -0.85L-8.35 -0.75M-5.2,-2.95L-5.15 -2.8L-5.25 -2.6L-5.3 -2.5L-4.65 -3.1L-3.8 -3.55L-4.25 -3.7L-4.5 -3.55L-4.8 -3.65L-4.85 -3.75L-5.25 -3.45L-5.55 -3L-5.45 -3L-5.2 -2.95M-5.5,-2.55L-5.6 -2.6L-5.7 -2.6L-5.85 -2.6L-5.8 -3L-4.85 -4.05L-4.7 -4.1L-4.5 -4.15L-4.05 -4.05L-3.75 -3.95L-3.55 -3.85L-3.45 -3.7L-3.4 -3.6L-3.45 -3.6L-4.65 -2.75L-5.05 -2.2L-5.15 -2.25L-5.5 -2.25L-5.5 -2.35L-5.5 -2.55M-5.65,-1.6L-5.75 -1.5L-5.85 -1.3L-6 -1.05L-6.05 -0.9Q-5.55 -0.8 -5.2 -0.55L-5 -0.2L-4.95 -0.2L-4.85 -0.2L-4.5 0.2L-4.25 0.35L-3.9 0.1L-3.95 -0.2L-4 -0.6L-3.9 -0.8L-3.7 -0.85L-3.75 -1.1L-3.75 -1.4L-3.75 -1.45L-3.85 -1.8L-3.8 -2.05L-3.75 -2.15L-4.2 -1.8L-4.6 -1.45L-4.9 -1.45L-4.95 -1.45L-5.2 -1.55L-5.65 -1.6M-5.1,-1.95L-5.05 -1.95Q-4.55 -1.75 -4.1 -2.1L-4.1 -2.15L-4.1 -2.25L-3.55 -2.75L-3.55 -2.7L-3.35 -2.75L-3.3 -2.65L-3.3 -2.25L-3.2 -1.85L-3.35 -1.75L-3.4 -1.65L-3.4 -1.55L-3.4 -1.05L-3.3 -0.55L-3.35 -0.55L-3.45 -0.55L-3.55 -0.5L-3.6 -0.2L-3.65 0.15L-3.7 0.55L-4.35 0.5Q-5 0.45 -5.45 -0.05L-6.4 -0.95L-6.35 -1.1L-6.3 -1.2L-6.3 -1.3L-6.2 -1.4L-6.15 -1.4L-5.85 -1.85L-5.6 -1.95L-5.1 -1.95M-6.95,0L-6.9 0.05L-6.65 0.3L-6.15 0.5L-5.5 0.7L-5.45 0.75L-5.45 0.95L-5.35 1.05L-5.2 1.1Q-5.05 1.1 -5 1.2L-4.85 1.45Q-6.25 1.9 -7.6 1.15L-8.4 0.3L-8.25 0.15L-7.3 -0.2L-6.55 -0.5L-6.5 -0.45L-6.55 -0.4L-6.7 -0.3L-6.85 -0.15L-6.9 0L-6.95 0M-1.8,-5.85L-1.9 -5.7L-1.9 -5.55L-1.65 -5.45L-1.4 -5.25L-1.75 -5L-2.1 -4.5L-2.25 -4.2L-2.5 -4.45L-2.7 -4.6L-2.7 -4.65L-2.85 -4.7L-3.05 -4.7L-3.15 -4.75L-3.6 -4.9L-3.5 -5.05L-2.85 -5.7L-2.65 -5.8L-2.4 -5.9L-1.95 -6.05L-1.55 -6.05L-1.7 -6L-1.75 -5.95L-1.75 -5.85L-1.8 -5.85M-2,-5.9L-2.35 -5.75L-2.7 -5.55L-2.75 -5.55L-2.75 -5.5L-2.8 -5.45L-2.95 -5.3L-3.15 -5.1L-3.2 -5.05L-2.5 -4.85L-2.3 -4.65L-2.15 -4.8L-2 -5L-1.8 -5.2L-1.85 -5.2L-1.95 -5.15L-2.1 -5.15L-2.15 -5.35L-2.1 -5.6L-1.95 -5.9L-2 -5.9M-1.8,-3.2L-1.7 -3L-1.55 -2.75L-1.5 -2.7L-1.45 -2.6L-1.3 -2.15L-1.8 -1.45L-2.2 -0.75L-2.25 -0.75L-2.45 -1L-2.6 -1.25L-2.55 -1.3L-2.5 -1.4L-2.5 -1.5L-2.7 -1.55L-2.9 -1.5L-2.9 -1.55Q-2.9 -2.1 -2.55 -2.5L-1.85 -3.3L-1.8 -3.2M-2.55,-1.75L-2.4 -1.7L-2.35 -1.45L-2.35 -1.25L-2.3 -1.2L-1.9 -1.75L-1.55 -2.1L-1.5 -2.25L-1.65 -2.4L-1.85 -2.55L-1.85 -2.65L-1.95 -2.8L-2.05 -2.6L-2.15 -2.35L-2.15 -2.3L-2.45 -2.2L-2.65 -2.05L-2.6 -1.95L-2.65 -1.75L-2.65 -1.7L-2.55 -1.75M-2.15,1.25L-2.85 1.9L-3.75 1.85L-3.8 1.8L-4.05 2.05L-4.35 2.2L0.1 2.35L-0.2 1.9L-0.5 1.65L-0.6 1.5L-1.85 1.65L-2.1 1.4L-2.15 1.25M-5.75,1.05L-5.8 0.95Q-6.15 0.65 -6.65 0.6Q-7.2 0.55 -7.3 0.05L-7.35 0L-7.8 0.15L-8.25 0.3L-8.3 0.35Q-8.2 0.55 -7.95 0.45L-7.85 0.45L-7.75 0.6L-7.6 0.8Q-7.5 0.85 -7.55 0.95L-7.55 1.1L-5.75 1.35L-5.55 1.3L-5.65 1.2L-5.7 1.1L-5.75 1.05" />
<path style="fill:#FFFFFF;fill-opacity:1" d="M3.65,-4.65L1.7 -4.7L1.7 -4.75L1.55 -5.15Q1.4 -5.4 1.5 -5.55L1.8 -5.5Q2.3 -5.35 2.6 -5.5L3.05 -5.2L3.65 -4.65M2.85,-3.2L2.9 -3.2L3 -3L3.05 -2.9L3.05 -2.85L3.1 -2.75L3.25 -2.3L3.25 -1.75Q3.05 -1.2 2.65 -1.1L2.6 -1.35L2.45 -1.6L2.2 -1.8L2.25 -1.85L2.35 -2L2.4 -2.2L2.4 -2.45L2.3 -2.75L2.35 -2.75L2.55 -2.75L2.6 -2.7L2.7 -2.65L2.8 -2.65L2.85 -2.8L2.8 -3L2.75 -3.2L2.75 -3.3L2.85 -3.2M0.05,-0.55L0 -0.5L-0.05 -0.55L-0.15 -0.7L-0.35 -0.75L-0.4 -0.7L-0.5 -0.6L-0.6 -0.65L-0.8 -0.65L-0.95 -0.65L-0.9 -0.7L-0.9 -0.9L-1 -0.9L-1.1 -1L-1 -1.35L-0.9 -1.8L-0.8 -2.3L-0.7 -2.85L-0.7 -2.7L-0.65 -2.55L-0.6 -2.45L-0.5 -2.35L-0.4 -2.35L-0.35 -2.35L-0.3 -2.4L-0.3 -2.6L-0.35 -2.9L-0.3 -3.2L-0.35 -3.5L-0.3 -3.5L-0.3 -3.35L-0.2 -3.15L0 -3L0 -2.95L0.05 -2.9L0.15 -2.8L0.1 -2.75L0.2 -2.5L0.25 -2.25L0.45 -2.05L0.55 -2.2L0.65 -2.5L0.65 -2.55L0.75 -2.05L0.9 -1.5L1.1 -0.9L1.15 -0.85L1.25 -0.7L1.3 -0.55L1.4 -0.45L1.25 -0.45L0.95 -0.55L0.75 -0.5L0.35 -0.6L0.2 -0.65L0.2 -1.05L0.05 -1.75L0 -1.65L0 -0.95L0.05 -0.55M4.6,-0.85L4.9 -0.75L5.05 -0.85L5.05 -0.95L5.15 -0.95Q5.25 -0.85 5.35 -0.85L5.4 -0.9L5.55 -1.55L5.55 -2.25L5.6 -2.25L5.75 -1.5L5.9 -0.7L4.6 -0.45L4.55 -0.3Q4.5 -0.2 4.35 -0.2L4.45 -0.55L4.5 -0.85L4.6 -0.85M8.35,-0.35L8.6 -0.35L9.05 -0.25L9.1 -0.35L9.05 -0.45L9.1 -0.45L9.4 -0.25L9.65 0.1L9.7 0.25L9.75 0.35L9.4 0.75L8.65 1.05L8.75 1L8.9 0.85L8.95 0.55L8.4 0.3L8.75 0L8.65 -0.1L8.35 -0.35M5.3,1.15L6.35 1.6L5.7 2L2.4 2.4L2.3 2.15L2.25 1.9L3.85 2L3.9 1.9L3.9 1.8L4 1.8L4.95 1.75Q5.5 1.7 5.2 1.15L5.3 1.15M-8.45,-0.85Q-8.3 -1.3 -7.65 -1.25L-7.25 -1.25L-7.15 -1.25L-7.05 -1.15L-7 -1.1Q-7.4 -0.7 -8.15 -0.75L-8.35 -0.75L-8.45 -0.85M-5.45,-3L-5.55 -3L-5.25 -3.45L-4.85 -3.75L-4.8 -3.65L-4.5 -3.55L-4.25 -3.7L-3.8 -3.55L-4.65 -3.1L-5.3 -2.5L-5.25 -2.6L-5.15 -2.8L-5.2 -2.95L-5.45 -3M-5.2,-1.55L-4.95 -1.45L-4.9 -1.45L-4.6 -1.45L-4.2 -1.8L-3.75 -2.15L-3.8 -2.05L-3.85 -1.8L-3.75 -1.45L-3.75 -1.4L-3.75 -1.1L-3.7 -0.85L-3.9 -0.8L-4 -0.6L-3.95 -0.2L-3.9 0.1L-4.25 0.35L-4.5 0.2L-4.85 -0.2L-4.95 -0.2L-5 -0.2L-5.2 -0.55Q-5.55 -0.8 -6.05 -0.9L-6 -1.05L-5.85 -1.3L-5.75 -1.5L-5.65 -1.6L-5.2 -1.55M-1.95,-5.9L-2.1 -5.6L-2.15 -5.35L-2.1 -5.15L-1.95 -5.15L-1.85 -5.2L-1.8 -5.2L-2 -5L-2.15 -4.8L-2.3 -4.65L-2.5 -4.85L-3.2 -5.05L-3.15 -5.1L-2.95 -5.3L-2.8 -5.45L-2.75 -5.5L-2.75 -5.55L-2.7 -5.55L-2.35 -5.75L-2 -5.9L-1.95 -5.9M-2.65,-1.7L-2.65 -1.75L-2.6 -1.95L-2.65 -2.05L-2.45 -2.2L-2.15 -2.3L-2.15 -2.35L-2.05 -2.6L-1.95 -2.8L-1.85 -2.65L-1.85 -2.55L-1.65 -2.4L-1.5 -2.25L-1.55 -2.1L-1.9 -1.75L-2.3 -1.2L-2.35 -1.25L-2.35 -1.45L-2.4 -1.7L-2.55 -1.75L-2.65 -1.7M-2.1,1.4L-1.85 1.65L-0.6 1.5L-0.5 1.65L-0.2 1.9L0.1 2.35L-4.35 2.2L-4.05 2.05L-3.8 1.8L-3.75 1.85L-2.85 1.9L-2.15 1.25L-2.1 1.4M-5.7,1.1L-5.65 1.2L-5.55 1.3L-5.75 1.35L-7.55 1.1L-7.55 0.95Q-7.5 0.85 -7.6 0.8L-7.75 0.6L-7.85 0.45L-7.95 0.45Q-8.2 0.55 -8.3 0.35L-8.25 0.3L-7.8 0.15L-7.35 0L-7.3 0.05Q-7.2 0.55 -6.65 0.6Q-6.15 0.65 -5.8 0.95L-5.75 1.05L-5.7 1.1" />
<path style="fill:#FFCC00;fill-opacity:1" d="M5.95,-7.9L5.75 -8.2L5.15 -8.75Q4.85 -9 5.1 -9.1Q6.05 -9.05 6.65 -8.4L7.5 -6.9L7.5 -6.8L7.6 -6.7L7.6 -6.6Q7.45 -6.45 7.15 -6.6L5.9 -6.8L5.8 -6.85L5.9 -7L6 -7.2L6.05 -7.45L6.05 -7.55L6 -7.6L5.95 -7.8L5.95 -7.9M6.05,-8.15L6.2 -7.1L6.2 -7L7.25 -6.85L6.65 -8.05L5.75 -8.75L5.35 -8.95L6.05 -8.15M0.15,-10.25Q-0.05 -10.25 -0.1 -10.4L-0.35 -10.55L-0.8 -10.8L-0.95 -10.9L-0.95 -10.95L-0.9 -11L-0.8 -11.1L-0.15 -11.15L1.4 -10.85Q2.15 -10.55 2.45 -9.9L2.45 -9.85L1.5 -9.7L1.05 -9.6L0.65 -9.45L0.6 -9.5L0.5 -9.65L0.4 -9.85L0.2 -10.1L0.15 -10.25M0.55,-10L0.65 -9.75L1.35 -10L2.15 -10.05L1.2 -10.7L-0.1 -10.9L-0.15 -10.85L-0.4 -10.85L0.15 -10.5L0.55 -10M4.8,-1.6L5.15 -1.75L5.6 -2.05L6.05 -1.75L6.4 -1.5L6.65 -1.85L6.8 -2.25L6.9 -2.4L7.4 -1.9L7.85 -1.4Q6.35 -0.25 4.25 -0.35L3.15 -0.7L3 -0.65L2.7 -0.65L4.8 -1.6M3.3,-0.75L6.8 -0.9Q7.25 -1.05 7.55 -1.35L7.2 -1.75L6.95 -2L6.5 -1.4L5.95 -1.5L5.6 -1.75L4.4 -1.05L3.3 -0.75M9.3,-4.45L9.9 -3.45L10.05 -2.2L10.05 -2.15L9.3 -2.9Q8.8 -3.2 8.4 -3.45L8.85 -4.05L9.3 -4.45M9.6,-3.7L9.3 -4.15L9.05 -3.8L8.75 -3.55L9.4 -3.15L9.9 -2.75L9.75 -3.25L9.6 -3.7M-10.4,-3.95L-9.9 -4.65L-9.75 -4.75Q-9.5 -4.65 -9.7 -4.4L-9.85 -4L-9.9 -3.95L-9.45 -3.85L-9.4 -3.8L-9.4 -3.65L-9.4 -3.55L-9.2 -3.5L-9 -3.35Q-8.8 -2.75 -8 -2.5L-6.35 -2.05L-9.7 -2.2L-9.85 -1.85L-9.85 -1.5L-9.9 -1.4Q-10.7 -1.7 -10.7 -2.6L-10.4 -3.95M-10.15,-1.8L-10.1 -1.75Q-10.05 -2.85 -8.65 -2.45L-8.2 -2.4L-9.15 -3.1L-9.55 -3.35L-9.6 -3.5L-9.6 -3.6L-10.1 -3.65L-10.1 -3.85L-10.05 -3.95L-10.1 -3.95L-10.4 -2.9Q-10.45 -2.25 -10.15 -1.8M-3.2,-9.75L-3.25 -9.7L-5.85 -9.45L-6.2 -9.5Q-5.6 -10.5 -4.15 -10.85L-2.7 -11.2Q-2.55 -10.95 -3 -10.55L-3.2 -9.75M-3.25,-10.6L-3.15 -10.9L-4.55 -10.5L-5.85 -9.85L-5.85 -9.8L-4.45 -10.05L-3.45 -10L-3.45 -10.2L-3.35 -10.45L-3.25 -10.6M-4.65,-7.5L-4.4 -7.25L-3.7 -7.55L-3.15 -7.5L-3.45 -6.75L-3.55 -6.1L-3.7 -5.4L-5.55 -5.7Q-5.8 -5.65 -5.8 -5.85L-5.9 -5.85L-5.55 -6.7L-5.3 -7.2L-4.95 -7.65L-4.65 -7.5M-4.65,-7.2L-4.95 -7.35L-5.3 -6.8L-5.65 -6.1L-3.95 -5.7L-3.8 -6.4L-3.5 -7.15L-3.5 -7.3L-3.8 -7.2L-4.15 -7.15L-4.15 -7.1L-4.3 -6.95L-4.65 -7.2M-0.45,-6.45L-1 -6.25L-1.35 -6.05L-1.35 -5.9L-1.5 -5.85L-1.6 -5.8L-0.4 -5.9L-0.45 -6L-0.45 -6.15L-0.45 -6.25L-0.45 -6.45M-0.35,-6.7Q-0.15 -6.5 -0.2 -6.15L-0.05 -5.7L-0.05 -5.65L-2 -5.45L-2.1 -5.6L-1.95 -5.8L-1.9 -5.8L-1.9 -6L-0.75 -6.55Q-0.5 -6.6 -0.35 -6.7M-6.8,-9.4Q-6.55 -9.25 -6.75 -8.9L-6.75 -8.6L-6.55 -8.25L-7.35 -7.5L-7.4 -6.95L-7.45 -6.85L-8.05 -6.4L-8.3 -5.8Q-9 -6.45 -8.5 -7.5L-7.05 -9.3L-6.8 -9.4M-7.65,-7L-7.6 -7.6L-7 -8.25Q-6.85 -8.25 -6.95 -8.35L-6.95 -8.55L-7 -8.75L-7.05 -8.9L-7.95 -7.7L-8.4 -6.35L-8.4 -6.25L-8.2 -6.6Q-8 -6.9 -7.65 -7" />
<path style="fill:#FFFF00;fill-opacity:1" d="M5.35,-8.95L5.75 -8.75L6.65 -8.05L7.25 -6.85L6.2 -7L6.2 -7.1L6.05 -8.15L5.35 -8.95M0.15,-10.5L-0.4 -10.85L-0.15 -10.85L-0.1 -10.9L1.2 -10.7L2.15 -10.05L1.35 -10L0.65 -9.75L0.55 -10L0.15 -10.5M4.4,-1.05L5.6 -1.75L5.95 -1.5L6.5 -1.4L6.95 -2L7.2 -1.75L7.55 -1.35Q7.25 -1.05 6.8 -0.9L3.3 -0.75L4.4 -1.05M9.75,-3.25L9.9 -2.75L9.4 -3.15L8.75 -3.55L9.05 -3.8L9.3 -4.15L9.6 -3.7L9.75 -3.25M-10.4,-2.9L-10.1 -3.95L-10.05 -3.95L-10.1 -3.85L-10.1 -3.65L-9.6 -3.6L-9.6 -3.5L-9.55 -3.35L-9.15 -3.1L-8.2 -2.4L-8.65 -2.45Q-10.05 -2.85 -10.1 -1.75L-10.15 -1.8Q-10.45 -2.25 -10.4 -2.9M-3.35,-10.45L-3.45 -10.2L-3.45 -10L-4.45 -10.05L-5.85 -9.8L-5.85 -9.85L-4.55 -10.5L-3.15 -10.9L-3.25 -10.6L-3.35 -10.45M-4.3,-6.95L-4.15 -7.1L-4.15 -7.15L-3.8 -7.2L-3.5 -7.3L-3.5 -7.15L-3.8 -6.4L-3.95 -5.7L-5.65 -6.1L-5.3 -6.8L-4.95 -7.35L-4.65 -7.2L-4.3 -6.95M-0.45,-6.25L-0.45 -6.15L-0.45 -6L-0.4 -5.9L-1.6 -5.8L-1.5 -5.85L-1.35 -5.9L-1.35 -6.05L-1 -6.25L-0.45 -6.45L-0.45 -6.25M-8.2,-6.6L-8.4 -6.25L-8.4 -6.35L-7.95 -7.7L-7.05 -8.9L-7 -8.75L-6.95 -8.55L-6.95 -8.35Q-6.85 -8.25 -7 -8.25L-7.6 -7.6L-7.65 -7Q-8 -6.9 -8.2 -6.6" />
</g>
</svg>
