<?xml version="1.0" encoding="utf-8"?>
<svg version="1.1" id="Layer_1"
xmlns="http://www.w3.org/2000/svg"
xmlns:xlink="http://www.w3.org/1999/xlink"
width="13px" height="9px"
xml:space="preserve">
<g id="515" transform="matrix(1, 0, 0, 1, 2.85, 8.25)">
<path style="fill:#000000;fill-opacity:1" d="M9.75,-7.3L10.15 -6.7L9.7 -5.3L8.9 -3.95L8.65 -3.7Q8.2 -3.3 7.65 -3.3L7.55 -2.15L7.5 -1.65Q7.55 -0.7 7 0L6.1 0.25L5.9 0.4L3.85 0.25L3.6 0.1L3.2 0.1L0.15 -1.25L-0.25 -1.55L-1.95 -2.55L-2.3 -2.55L-2.3 -2.7L-2.85 -3.05L-2.85 -3.9L-2.05 -4.35L-1.95 -5.5L3.45 -4.45L3.5 -4.55L3.45 -4.85L3.6 -6.05L4.5 -7.75L4.5 -8.25L6.75 -8.15L9.75 -7.3" />
</g>
</svg>
