<?xml version="1.0" encoding="utf-8"?>
<svg version="1.1" id="Layer_1"
xmlns="http://www.w3.org/2000/svg"
xmlns:xlink="http://www.w3.org/1999/xlink"
width="65px" height="20px"
xml:space="preserve">
<g id="1115" transform="matrix(1, 0, 0, 1, 14.2, 17.25)">
<path style="fill:#2E1803;fill-opacity:1" d="M8.55,-8.65L8.55 -8.6L8.5 -8.6L3.75 -6.2L2.35 -6.2L6 -8.65L2.35 -11.05L3.75 -11.05L8.5 -8.65L8.55 -8.65M1.15,-8.65L1.15 -8.6L1.1 -8.6L-3.65 -6.2L-5.05 -6.2L-1.4 -8.65L-5.05 -11.05L-3.65 -11.05L1.1 -8.65L1.15 -8.65M17.75,-6.2L21.4 -8.65L17.75 -11.05L19.15 -11.05L23.9 -8.65L23.95 -8.65L23.95 -8.6L23.9 -8.6L19.15 -6.2L17.75 -6.2M10.95,-6.2L9.55 -6.2L13.2 -8.65L9.55 -11.05L10.95 -11.05L15.7 -8.65L15.75 -8.65L15.75 -8.6L15.7 -8.6L10.95 -6.2M28.6,-8.65L24.95 -11.05L26.35 -11.05L31.1 -8.65L31.15 -8.65L31.15 -8.6L31.1 -8.6L26.35 -6.2L24.95 -6.2L28.6 -8.65M-12.25,-6.2L-8.6 -8.65L-12.25 -11.05L-10.85 -11.05L-6.1 -8.65L-6.05 -8.65L-6.05 -8.6L-6.1 -8.6L-10.85 -6.2L-12.25 -6.2" />
<path style="fill:#2E1803;fill-opacity:1" d="M-13.6,-12.25L-13.6 -11.3L12.5 -11.35L12.9 -11.35L16.5 -11.35L16.6 -11.35L17.15 -11.35L17.5 -11.35L17.8 -11.35L18.2 -11.35L18.8 -11.35L19 -11.35L33.4 -11.35L36.15 -12.75L36.15 -11.35L37.05 -11.35L39.25 -12.85L39.25 -11.35L40.65 -11.35L42.3 -12.6L42.3 -11.35L47.3 -11.35L40.25 -14.65L17.55 -14.65L8.4 -12.95L-13.6 -12.95L-13.6 -12.25M17.05,-15.25L40.55 -15.25L50.45 -10.75L-14.2 -10.75L-14.2 -13.6L2.2 -13.6L3.8 -17.25L5.1 -17.25L6.35 -17.25L7.95 -13.65L12.15 -14.6L13.4 -17.25L17.05 -17.25L17.05 -15.25M3.8,-13.6L6.55 -13.6L5.1 -17.25L3.8 -13.6M36.15,-3.6L-7.55 -3.6L-5.15 1.15L6.2 1.15L8.5 -1.45L27.2 -1.45L36.15 -3.6M27.2,-0.6L9.25 -0.6L6.75 2.2L-5.8 2.2L-8.75 -3.6L-14.2 -3.6L-14.2 -6.45L49.15 -6.45L43.15 -3.6L37.45 -3.6L27.2 -0.6M-13.6,-4.25L42.9 -4.3L44.95 -5.2L46.55 -5.9L-13.6 -5.9L-13.6 -5.2L-13.6 -4.25" />
<path style="fill:#696969;fill-opacity:1" d="M47.3,-11.35L42.3 -11.35L42.3 -12.6L40.65 -11.35L39.25 -11.35L39.25 -12.85L37.05 -11.35L36.15 -11.35L36.15 -12.75L33.4 -11.35L19 -11.35L18.8 -11.35L18.2 -11.35L17.8 -11.35L17.5 -11.35L17.15 -11.35L16.6 -11.35L16.5 -11.35L12.9 -11.35L12.5 -11.35L-13.6 -11.3L-13.6 -12.25L31.6 -12.25L11.3 -12.9L17.95 -13.95L40.25 -14.65L47.3 -11.35M44.95,-5.2L42.9 -4.3L-13.6 -4.25L-13.6 -5.2L44.95 -5.2" />
<path style="fill:#ADADAD;fill-opacity:1" d="M-13.6,-12.95L8.4 -12.95L17.55 -14.65L40.25 -14.65L17.95 -13.95L11.3 -12.9L31.6 -12.25L-13.6 -12.25L-13.6 -12.95M-13.6,-5.2L-13.6 -5.9L46.55 -5.9L44.95 -5.2L-13.6 -5.2" />
<linearGradient
id="LinearGradID_349" gradientUnits="userSpaceOnUse" gradientTransform="matrix(0, -0.00506592, 0.00723267, 0, 3.7, -4.25)" spreadMethod ="pad" x1="-819.2" y1="0" x2="819.2" y2="0" >
<stop  offset="0" style="stop-color:#511A16;stop-opacity:1" />
<stop  offset="0.505882" style="stop-color:#7B5814;stop-opacity:1" />
<stop  offset="1" style="stop-color:#511A16;stop-opacity:1" />
</linearGradient>
<path style="fill:url(#LinearGradID_349) " d="M27.2,-1.45L8.5 -1.45L6.2 1.15L-5.15 1.15L-7.55 -3.6L36.15 -3.6L27.2 -1.45" />
</g>
</svg>
