<?xml version="1.0" encoding="utf-8"?>
<svg version="1.1" id="Layer_1"
xmlns="http://www.w3.org/2000/svg"
xmlns:xlink="http://www.w3.org/1999/xlink"
width="35px" height="8px"
xml:space="preserve">
<g id="754" transform="matrix(1, 0, 0, 1, -17.2, -13.8)">
<path style="fill:#000000;fill-opacity:1" d="M45.55,20L46.15 19.75Q46.5 19.6 46.3 19.85L46.1 19.95L46.1 20L46.35 19.85L46.55 19.7L47.3 19.45L47.4 19.4L49.15 19.7L49.35 19.8L49.55 19.55Q49.75 19.35 50.05 19.3Q50.7 19.15 51.05 19.65L51.65 20.6L51.75 20.75L51.5 21L50.65 21.15L50.65 21.2L46.2 21.05Q45.4 20.95 45.35 20.25L45.35 20.15L45.55 20M42.95,20.65L35.3 21.05L17.2 20.7Q19.1 18.3 22.05 18L21.1 17.3L21 17.15L21.15 16.9L21.5 16.65Q21.65 16.5 21.85 16.45Q22.7 16.55 23.3 17.1L24.7 18.05Q25.85 18.05 26.9 17.45L27.35 17.2L28.15 17.15L27.9 16.3L27.75 14.45L27.75 14.4L27.95 14.7L27.9 14.45L27.8 14.1Q27.95 13.9 28.2 13.85L28.35 13.8L28.65 13.8L28.8 13.85L29.05 15.5L29.3 16.75L29.45 16.75Q30.35 16.75 30.9 16.25Q31.6 16.45 32.2 16.95L32.55 17.35Q36.35 15.75 40 17.5Q40.95 18 41.7 18.8L42.95 20.65M46.05,20L46.05 20.05L46.1 20L46.05 20" />
</g>
</svg>
