<?xml version="1.0" encoding="utf-8"?>
<svg version="1.1" id="Layer_1"
xmlns="http://www.w3.org/2000/svg"
xmlns:xlink="http://www.w3.org/1999/xlink"
width="19px" height="15px"
xml:space="preserve">
<g id="937" transform="matrix(1, 0, 0, 1, -0.8, -0.45)">
<path style="fill:#0B0B0B;fill-opacity:1" d="M13.6,5.4Q13.45 5.6 13.45 5.85L13.6 6.25L14.05 6.45Q14.3 6.45 14.45 6.25L14.65 5.85L14.45 5.4Q14.3 5.25 14.05 5.25Q13.8 5.25 13.6 5.4M11.25,5.05L11.8 5.3Q18.05 4.1 16.4 9.3L11.95 7.05L10.8 7.7L8.6 5.5L11.25 5.05M11.2,8.15L12.05 7.8L17.7 10.65L15.45 15.4L9.65 12.4L9.85 10.35L11.2 8.15M10.3,8.05L9.45 9.35L4.45 6.8L4.5 5.5L2.15 4.15L2.55 3.45L0.8 2.5L1.55 0.9L3.3 1.95Q6.8 4.05 10.3 8.05M5,2L10.65 4.75L8.05 4.85L5 2M14.8,6.9L14.95 7.3L15.35 7.45L15.75 7.3L15.9 6.9L15.75 6.5Q15.6 6.35 15.35 6.35L14.95 6.5Q14.8 6.65 14.8 6.9" />
<path style="fill:#AF8A80;fill-opacity:1" d="M14.05,5.25Q14.3 5.25 14.45 5.4L14.65 5.85L14.45 6.25Q14.3 6.45 14.05 6.45L13.6 6.25L13.45 5.85Q13.45 5.6 13.6 5.4Q13.8 5.25 14.05 5.25M3.3,1.95L2.75 1.15L3.3 0.45L4.9 1.3L4.95 1.95L5 2L8.05 4.85L10.65 4.75L11.25 5.05L8.6 5.5L10.8 7.7L11.95 7.05L16.4 9.3L18.1 10.15L17.7 10.65L12.05 7.8L11.2 8.15L9.85 10.35L9.25 9.95L9.45 9.35L10.3 8.05Q6.8 4.05 3.3 1.95M14.95,6.5L15.35 6.35Q15.6 6.35 15.75 6.5L15.9 6.9L15.75 7.3L15.35 7.45L14.95 7.3L14.8 6.9Q14.8 6.65 14.95 6.5" />
<path style="fill:#000000;fill-opacity:0.901961" d="M18.35,2.3L16 4.2L15.95 4.25L16.1 4.25L16.9 3.95L17.45 3.95L17.5 4.1L17.3 4.45L17.3 4.5L18.3 4.4L18.4 4.55L17.9 5L18.25 5.1L18.3 5.35L17.45 5.45L19.1 5.85L19.2 5.9L16.65 5.65L16.6 5.5L16.8 5.35L16.9 5.3L16.25 5.2L16.25 4.75L16.7 4.55L17.05 4.3L17.25 4.2L16.15 4.5L15.45 4.85L15.45 4.55L15 4.55L16.3 3.2L18.2 2.1L18.35 2.3M17.4,2.65L16.9 3.1L17.5 2.65L17.4 2.65M15.65,4.15L15.45 4.4L15.7 4.1L15.65 4.15" />
</g>
</svg>
