<?xml version="1.0" encoding="utf-8"?>
<svg version="1.1" id="Layer_1"
xmlns="http://www.w3.org/2000/svg"
xmlns:xlink="http://www.w3.org/1999/xlink"
width="21px" height="10px"
xml:space="preserve">
<g id="1075" transform="matrix(1, 0, 0, 1, 3, -2.5)">
<path style="fill:#FF7000;fill-opacity:1" d="M12.45,6.7Q12.55 7.2 12.15 7.65Q11.8 7.3 11.7 6.55Q11 6.5 10.45 6.9Q9.85 6.55 10.45 6.1L12.2 6.25L12.45 6.7M11.95,6.4L12.05 7.1L12.05 7.2Q12.4 6.75 11.95 6.4M10.4,6.5L11.45 6.3L10.85 6.25Q10.5 6.25 10.4 6.5M13.7,10.65Q14.3 11.15 13.85 11.6L13.1 11.65L13.6 11.25L13.6 11.15L13.6 11L13.65 10.8L13.7 10.65M13.4,11.55L13.3 11.65Q14.1 11.65 13.75 10.9Q13.8 11.4 13.4 11.55M17.3,8.85Q17.65 9.45 17.1 9.9L16.7 9.65L16.9 8.95L16.95 8.45L17.3 8.85M8.5,3.15L8.65 3.3L8.8 3.5L7.15 3.85L7.25 3.65Q7.8 3.1 8.5 3.15M3.85,2.95L3.85 3.55L3.95 3.55L3.95 2.95L3.85 2.95M4.15,2.8Q4.4 3.4 4.05 3.75L3.05 3.9L3.3 3.45L3.75 2.5L4.15 2.8M1.45,4.9L2 4.4Q2.2 4.2 2.65 4.4Q2.25 4.85 2.15 5.4Q1.85 6.9 1.25 7.25L1.05 6.85Q1.15 6.2 1.4 5.65L1.45 4.9M1.35,6.8L1.35 5.95L1.25 6.8L1.35 6.8M2.1,10.55Q2.5 10.9 2.3 11.7L2.15 11.55Q1.25 10.9 2.1 10.55M7.95,10.2L8.25 10.55Q8.7 11.15 8.1 11.5L7.75 11.45Q7.6 11.2 7.95 10.8L7.9 10.55L7.85 10.25L7.85 10.2L7.95 10.2M-2.9,9.4Q-3.15 9.05 -2.75 9.2L-2.7 9.25Q-2.9 8.6 -2.3 7.95L-1.55 7.7L-2.15 9.2L-2.05 9.45L-1.9 9.65Q-2.1 10.5 -2.9 9.4" />
<path style="fill:#FFCC00;fill-opacity:1" d="M12.05,7.2L12.05 7.1L11.95 6.4Q12.4 6.75 12.05 7.2M10.85,6.25L11.45 6.3L10.4 6.5Q10.5 6.25 10.85 6.25M13.75,10.9Q14.1 11.65 13.3 11.65L13.4 11.55Q13.8 11.4 13.75 10.9M3.95,2.95L3.95 3.55L3.85 3.55L3.85 2.95L3.95 2.95M1.25,6.8L1.35 5.95L1.35 6.8L1.25 6.8" />
</g>
</svg>
