<?xml version="1.0" encoding="utf-8"?>
<svg version="1.1" id="Layer_1"
xmlns="http://www.w3.org/2000/svg"
xmlns:xlink="http://www.w3.org/1999/xlink"
width="22px" height="30px"
xml:space="preserve">
<g id="471" transform="matrix(1, 0, 0, 1, -13.8, 13.85)">
<path style="fill:#1E1E1E;fill-opacity:1" d="M15.45,-1.1Q19.25 -2.35 19.15 1.25Q19.05 3.85 15.8 2.9Q13.4 2.2 13.85 -0.35L13.9 -1.05L14 -1.2L14.45 -1.45L14.85 -1.7L15.1 -1.6L15.35 -1.35L15.45 -1.1M16.6,-0.1Q16.2 0 15.9 0.25Q15.55 0.55 15.5 1L15.35 1.55Q16.4 2.35 17.8 1.8L18.35 1.55L18.35 1.45L18.3 1.15L18.2 0.85L18.1 0.45L18.05 0.3L17.8 0.1L17.1 -0.1L16.6 -0.1M25.4,-13.6L26.35 -13.8Q30.15 -14.2 29.6 -11Q29.45 -10.1 28.6 -9.55Q25.55 -7.5 23.8 -10.2Q23.55 -10.65 23.9 -11.1L23.7 -11.25L23.6 -11.35L23.5 -11.5L23.5 -11.65Q23.5 -12.15 23.8 -12.55Q24.35 -13.4 25.4 -13.6M28.2,-12.3L26.5 -12.4L26.35 -12.15L26.15 -12.1L25.95 -12.1L25.65 -12.1L25.2 -11.4L25.05 -10.95L24.85 -10.3Q26.8 -9.5 28.45 -11L28.85 -11.65L28.2 -12.3M33.3,-5.4L33.55 -5.3L33.75 -5.2Q34.1 -2.9 33.95 -0.65Q33.9 0.6 34.45 1.8Q35.75 4.7 32.7 5.5L32.25 5.45Q32 3.3 31.4 1.25Q30.85 -0.5 31.35 -2.45L32.2 -4.85L32.85 -5.45L33.3 -5.4M32.3,1.5Q32.9 2.2 32.95 3.1L33.3 4Q34 3.5 33.65 2.7L32.85 1.1L32.35 0.4Q31.5 0.5 32.3 1.5M21.25,11.6Q23.15 11.3 23.65 13Q24.15 14.6 22.65 15.35L20.5 15.55L20.2 15Q19.85 14.3 19.85 13.45Q19.9 12.5 20.55 11.9Q20.9 11.6 21.25 11.6M22.65,13.65Q22.6 13.2 22.15 12.95L21.15 13Q21 13.2 21 13.45L21 14L21.1 14.4L22.3 14.35L22.65 13.65" />
<path style="fill:#3A3A3A;fill-opacity:1" d="M17.1,-0.1L17.8 0.1L18.05 0.3L18.1 0.45L18.2 0.85L18.3 1.15L18.35 1.45L18.35 1.55L17.8 1.8Q16.4 2.35 15.35 1.55L15.5 1Q15.55 0.55 15.9 0.25Q16.2 0 16.6 -0.1L17.1 -0.1M28.85,-11.65L28.45 -11Q26.8 -9.5 24.85 -10.3L25.05 -10.95L25.2 -11.4L25.65 -12.1L25.95 -12.1L26.15 -12.1L26.35 -12.15L26.5 -12.4L28.2 -12.3L28.85 -11.65M32.35,0.4L32.85 1.1L33.65 2.7Q34 3.5 33.3 4L32.95 3.1Q32.9 2.2 32.3 1.5Q31.5 0.5 32.35 0.4M22.3,14.35L21.1 14.4L21 14L21 13.45Q21 13.2 21.15 13L22.15 12.95Q22.6 13.2 22.65 13.65L22.3 14.35" />
</g>
</svg>
