<?xml version="1.0" encoding="utf-8"?>
<svg version="1.1" id="Layer_1"
xmlns="http://www.w3.org/2000/svg"
xmlns:xlink="http://www.w3.org/1999/xlink"
width="26px" height="16px"
xml:space="preserve">
<g id="670" transform="matrix(1, 0, 0, 1, -12.05, -6.45)">
<path style="fill:#000000;fill-opacity:0.498039" d="M15.6,21.6Q12.55 21.05 12.55 20.3Q12.55 19.55 15.6 19L23.1 18.45L30.5 19Q33.6 19.55 33.6 20.3Q33.6 21.05 30.5 21.6L23.1 22.15L15.6 21.6" />
<path style="fill:#000000;fill-opacity:1" d="M32.85,7.8L36.8 7.1Q37.1 7.1 37.2 7.55L37.3 8.1L36.5 8.3L35.9 8.35L31.1 8.95L30.6 9.45L29.3 10.45Q28.7 10.8 28.35 11.1L29.45 12.65Q30.15 12.1 31 12.1Q34.4 12.1 34.4 13.95L34.15 14.85Q33.7 15.35 32.45 15.4L30.05 15.05L29.6 15.25L29.45 15.25L29.45 15.55L29.6 16.15Q29.6 17.35 23.7 20.05L22.35 18.85Q22.35 18.65 24.1 17.7Q25.75 16.8 26.2 16.65L26.45 16.55L26.75 15.85L25.25 16.2Q24.05 16.5 22.05 17.5L16.3 20.55L15.9 20L15.75 19.4Q15.75 18.95 17.35 18.25L19 17.65L21.45 15.4L19.85 15.4L19.2 15.55L17.05 16.5L12.85 18.15L12.15 18.15L12.05 17.75Q12.05 16.95 12.25 16.7L12.4 16.2L13.4 15.8L16.15 14.5Q18 13.15 18.45 13.05L22.2 12.45L23.75 12.15L25.55 11.85L25.6 11.85L26.05 11.05L26.7 10.15L27.1 9.6L25.35 9.95L25.2 10.1Q23 10.1 22.7 10.45L20.75 10.6L20.3 10.75Q19.95 10.75 19.85 9.95L19.7 8.9L19.7 8.55L23.45 7.95L23.5 7.85Q23.9 7.9 24.3 8.3L24.65 8.65L25.8 8.55L27.55 8.5L28.6 8.45L28.95 8.15Q31.2 6.45 31.85 6.45L32.55 6.7L32.85 7L32.1 7.95L32.85 7.8" />
</g>
</svg>
