<?xml version="1.0" encoding="utf-8"?>
<svg version="1.1" id="Layer_1"
xmlns="http://www.w3.org/2000/svg"
xmlns:xlink="http://www.w3.org/1999/xlink"
width="17px" height="30px"
xml:space="preserve">
<g id="1029" transform="matrix(1, 0, 0, 1, 4.1, 9.7)">
<path style="fill:#FFFF00;fill-opacity:1" d="M7.9,-7.15Q8.75 -5.75 7.35 -5.3L7.2 -5.35Q7.3 -6.35 7.85 -7.15L7.9 -7.15M4.9,-7.3L4.95 -7.25Q5.3 -5.9 4.35 -5.2Q4.05 -4.95 3.95 -5.3Q3.6 -6.5 4.65 -7.3L4.9 -7.3M1.4,-9.6L1.5 -9.7Q2.2 -8.4 1.15 -7.85L1.1 -7.85Q0.85 -8.85 1.4 -9.6M2.05,-3.4Q1.85 -1.1 0.95 0.85L0.55 0.9Q-0.25 0.3 0.15 -0.7Q0.85 -2.25 1.85 -3.5L2.05 -3.4M6.6,-3.45L6.5 -1.55Q6.5 -1.15 6.05 -1.05L5.55 -1.2Q5.5 -2.5 6.55 -3.45L6.6 -3.45M11.9,8.35L11.95 8.35Q12.55 9.85 11.25 10.6L11.15 10.65Q10.5 9.8 11.35 8.6L11.55 8.3L11.75 8.25L11.9 8.35M6.65,3.8Q7.5 5.15 6.35 6.35Q6.2 6.55 6 6.35Q5.55 5.7 5.9 4.75L6.65 3.8M9.7,5Q10.45 6.25 9.7 7.4L9.5 7.35Q9 6.5 9.35 5.55Q9.45 5.2 9.7 5M7.95,2.3Q7.65 1.65 7.95 0.9L8.65 -0.4Q9.35 1.2 8.2 2.35L7.95 2.3M4.4,1.15Q5.05 0.45 5.75 0.25L4.95 3.55L4.5 3.95Q2.15 4.6 2 2.35Q1.95 1.85 2.2 1.35L3.6 -1.35Q4.25 0.4 3.15 2.15L3.15 2.2L4.4 1.15M3.3,10.85Q4.1 12.1 3.35 13.2L3.15 13.2Q2.5 12.45 3 11.35L3.3 10.85M0.4,8.25Q-1.15 7.8 -0.9 6.05L-0.8 4.95L-0.45 3.9Q1 5.75 0.85 7.95Q0.8 8.35 0.4 8.25M2.9,8.3Q2.1 9.7 2 8.2Q1.95 7.1 2.9 6.7Q3.5 7.2 2.9 8.3M6.95,11.9L6.4 13.1L6.6 13.15L6.25 13.35L6.1 13.6L6.1 13.4Q5.55 13.35 5.05 12.55Q4.25 11.2 4.6 9.55Q4.75 8.95 5.1 8.65Q5.7 9.85 5.95 11.2Q6.05 9.9 7.4 9L7.35 10.7L6.95 11.9M8.9,16.25L9.1 16.35Q8.2 19.1 5.65 20.2Q5.45 20.3 5.35 20.1Q4.1 18 6.35 17.5L7.75 16.95L8.9 16.25M1.65,13.6Q2 16.25 1.65 18.85L1.15 19.7Q-0.65 21.15 -1.45 19.1Q-1.85 18.1 -1.7 16.95Q-1.45 15.2 -2.15 13.55L-2.1 13.45Q-0.75 15.05 0.5 16.95L0.55 17.05Q0.65 15.5 1.1 14.1Q1.25 13.65 1.65 13.6M11.45,15.15L11.05 15.1Q10.5 14.1 11.15 13L11.65 12.4Q12.75 13.9 11.45 15.15M-0.9,-1L-0.9 -0.95Q-1.95 -1.35 -1.35 -2.65L-1.3 -2.7Q-0.4 -2.05 -0.9 -1M-1.8,2.8Q-2.35 2.4 -2.3 1.55L-2.2 0.75L-2 0.35Q-1.05 1.5 -1.45 2.75L-1.8 2.8M-1.2,12.1L-1.4 12.05Q-2.45 11 -1.8 9.75Q-0.65 10.8 -1.2 12.1" />
<path style="fill:#FFFF00;fill-opacity:0.498039" d="M-4.1,7.65Q-4.1 6.4 -3.5 5.45L-3 7.05Q-2.9 7.65 -3.15 8.25L-3.9 8.3L-4.1 7.65" />
</g>
</svg>
