<?xml version="1.0" encoding="utf-8"?>
<svg version="1.1" id="Layer_1"
xmlns="http://www.w3.org/2000/svg"
xmlns:xlink="http://www.w3.org/1999/xlink"
width="14px" height="77px"
xml:space="preserve">
<g id="443" transform="matrix(1, 0, 0, 1, 0, 0)">
<path style="fill:#000000;fill-opacity:1" d="M13.65,11.4L13.2 14.2L7.2 17.9L6.95 19.6L8.4 20.5Q10.05 22 10.2 24.3L10 26.25L10.05 28.05L10.35 28.3L10.85 32.6L10.2 33.3L11.1 60.3L9.15 62.5L9.95 76.75L4.65 69.75L4.25 62.65L2.1 60.8L0.25 36.2L1.9 23.85L0 17.7L5.1 0L9 5.2L7.45 13.8L11.75 11.6L12.1 9.35L13.65 11.4" />
</g>
</svg>
