<?xml version="1.0" encoding="utf-8"?>
<svg version="1.1" id="Layer_1"
xmlns="http://www.w3.org/2000/svg"
xmlns:xlink="http://www.w3.org/1999/xlink"
width="37px" height="23px"
xml:space="preserve">
<g id="1081" transform="matrix(1, 0, 0, 1, 13.2, 25.6)">
<path style="fill:#3A3A3A;fill-opacity:1" d="M13.15,-18.75L13.2 -18.5L13.25 -18.05Q13.25 -16.45 11.35 -15.75L10.9 -16.2Q11.05 -14.95 10.4 -13.8Q9.75 -12.65 8.65 -13.4Q7.9 -13.85 7.85 -14.65Q7.75 -16.55 9.7 -16.25L9.75 -16.25L9.8 -16.3L9.85 -16.4L9.65 -16.7L9.35 -16.8L9.25 -17Q9.55 -19.5 12.3 -19.4Q13 -19.4 13.15 -18.75M10.85,-22.15L11 -21.8L10.8 -21.4Q9.95 -20.15 8.9 -21.25Q8.5 -21.7 8.75 -22.2L8.85 -22.2L8.95 -22.2L9.05 -22.15L9.2 -22.15L9.15 -22.2L9.1 -22.25L9.1 -22.3L9.05 -22.35L9 -22.35L9 -22.45L9.15 -22.6L9.45 -22.8L9.8 -22.9L10.5 -22.65L10.85 -22.15M13.65,-15.9Q14.85 -15 13.75 -14.45L13.7 -14.45L13.6 -14.35L13.5 -14.35L13.35 -14.2L12.55 -13.6Q11.9 -12.9 11 -12.8Q11.6 -13.45 11.65 -14.5L11.65 -14.55Q12.1 -14.45 12.55 -14.85L13.45 -16.1L13.65 -15.9M17.3,-13.25L17.75 -13.55L17.85 -13.55L17.95 -13.5L18.2 -13.3L18.45 -13.1L18.6 -12.85L18.6 -12.75Q18.65 -12.25 18.15 -12.15Q17.55 -12.05 17.15 -12.5L17.1 -12.8L17.3 -13.25M6.7,-23.4Q6.9 -22.7 6.65 -22.05Q6.3 -21.15 5.4 -21.15L5.35 -21.25L5.35 -21.4L5.3 -21.45L5.2 -21.5L4.65 -20.4L4.35 -20.1Q3.1 -19.95 2.2 -20.9Q1.65 -20.3 0.95 -20.3L1.35 -20.8L1.45 -21.05L1.85 -21.6Q2.4 -22.65 1.5 -23.45L1.9 -24.3Q2.95 -25.85 4.45 -24.7L4.9 -24L5.15 -22.95L5.4 -22.95L5.5 -23.25L5.5 -23.55L5.45 -23.75L5.45 -23.85L5.5 -23.95Q6.15 -23.95 6.7 -23.45L6.7 -23.4M0.75,-23.55L0.75 -23.5L1 -23.25L1.1 -22.55Q1.2 -22.1 0.9 -21.75Q0.25 -21 -0.6 -21.05L-0.7 -21.2L-0.95 -21.55Q-1.55 -23.2 0.45 -23.55L0.75 -23.55M4.1,-16.3L4.5 -16.95L5.1 -17.35L5.1 -17.45L5.05 -17.5Q6 -18.05 7.15 -17.5Q7.7 -17.25 7.8 -16.65L7.85 -16.3L7.35 -15.6Q6.85 -14.45 7.05 -13.35L7.05 -13.2L7.05 -13L7 -12.9L6.7 -12.75L6.2 -12.6Q6.4 -13.25 5.85 -13.7L5.7 -13.45L5.8 -12.8Q5.6 -11.8 4.65 -12.1L4.35 -12.5Q3.95 -12.85 3.95 -13.35L3.85 -14.25L3.8 -14.25Q3.25 -14 3.15 -13.4Q3.05 -12.65 3.45 -12.15L3.85 -11.8L2.25 -11.75L2.2 -12.25L2.25 -12.95L2.35 -13.25L2.85 -13.15L2.85 -13.3L2.9 -14.15L3.4 -14.75L4.05 -15.1L4.1 -15.5L4.1 -16.3M4.15,-17.4L3.4 -16.85L3.05 -16.35L3 -16L2.65 -15.8L1.9 -14.95Q1.7 -14.55 1.8 -14.15L1.45 -13.75L1.25 -12.7L1.45 -12L1.3 -11.95L0.85 -12.75L0.9 -13.6Q0.7 -14.4 0.05 -14.75L0 -14.75Q-0.4 -15.2 -1 -15.25L-1.05 -15.2L-1.2 -15.25L-1.4 -15.95Q-1.6 -16.75 -2.3 -17.2Q-1.9 -17.8 -1.85 -18.5L-0.8 -18.3Q-0.05 -17.95 0.25 -17.2L0.65 -16.55L1.95 -17.6L4.35 -17.55L4.15 -17.4M7.2,-12.7L7.4 -12.25Q7.55 -11.9 7.9 -11.9L9.1 -12L9.6 -12.05Q9.85 -11.9 9.7 -11.55L9.15 -10.95Q9.9 -10.65 9.7 -9.9Q9.4 -8.75 8.2 -8.95L8.15 -8.95L8.05 -9.15L7.85 -9.25L7.4 -8.95Q7 -8.85 6.65 -9.1L6.6 -9.4L6.5 -9.75L6.4 -10.1Q6.05 -10.15 5.9 -10.45Q5.55 -10.95 5.85 -11.55L6.2 -12.25L6.35 -12.25Q6.85 -12.3 7.15 -12.65L7.2 -12.7M4,-11.25Q4.7 -11 4.65 -10.3Q4.6 -9.95 4.25 -9.75L4.3 -9.65Q4.85 -9 4.1 -8.3Q3.8 -8.05 3.45 -8.3L2.55 -8.9Q2.55 -7.85 1.4 -8.15L1.05 -8.25L1.05 -8.35L0.55 -9.1L1 -9.85Q1.5 -10.8 1.35 -11.65L1.8 -11.6Q2.1 -11.25 2.55 -11.15Q3.3 -11 3.8 -11.35L4 -11.25M0.1,-9.85Q-0.7 -9.4 -1.65 -9.1L-2.65 -9.2L-3.15 -9.4Q-2.5 -9.75 -2.15 -10.5Q-1.75 -11.4 -2.4 -11.75Q-1.25 -12.75 -1.15 -14.35L-1.15 -14.9L-0.35 -14.65L-0.2 -14.5Q0.25 -13.95 0.2 -13.15L-0.1 -12.4Q1 -11.5 0.35 -10.1L0.1 -9.85M0.15,-8.15L-0.3 -7.75L-0.35 -7.75L-0.5 -7.8L-0.6 -7.8L-0.65 -7.75L-0.65 -7.6Q-0.55 -6.6 -1.6 -6.6Q-2.9 -6.65 -2.6 -7.65Q-0.9 -7.65 0.2 -8.7L0.15 -8.15M2.85,-5.3L3 -5.2L3.1 -5.1L3.15 -5L2.95 -4.6L2.45 -4.5L2.25 -4.75Q2.1 -4.95 2.25 -5.15Q2.35 -5.35 2.6 -5.35L2.85 -5.3M4.9,-4L5.1 -4.65Q5.1 -5.05 5.35 -5.35L5.55 -5.05Q5.6 -4.6 5.3 -4.25L4.75 -3.55L4.9 -4M8.55,-4.85L8.15 -4.7L8.05 -4.55L7.5 -4.65L7.45 -4.75L7.4 -4.8L7.4 -4.9L7.35 -4.95L7.35 -5L7.5 -5.25L7.75 -5.45L8.35 -5.1L8.55 -4.85M18.05,-8L18.15 -7.95L18.2 -7.75L18.2 -7.6L18.15 -7.45Q17.8 -7.25 17.65 -7.45L17.75 -7.6L17.9 -7.75L18.05 -8M12.2,-6.75L12.75 -7.05L12.9 -6.8L12.8 -6.5L12.8 -6.45L12.75 -6.4L12.7 -6.35L12.5 -6.15L12.1 -5.75L12 -5.75L11.4 -5.7L11.4 -5.75L11.4 -5.85L11.45 -5.9L11.45 -6L11.45 -6.1L11.75 -6.4L12.2 -6.75M13.65,-7.95L13.45 -7.35L13.25 -7.05L13.05 -7.25L12.95 -7.35Q12.75 -7.6 12.95 -7.9L13.4 -8.3L13.65 -7.95M21.25,-9.85Q22.25 -9.75 22.15 -8.9Q22.05 -8 21.05 -8.1L20.65 -8.4Q20.35 -8.8 20.5 -9.25Q20.65 -9.65 21.1 -9.85L21.25 -9.85M-4.15,-19.05L-3.25 -18L-3.2 -17.45Q-3.3 -16.9 -3.65 -16.55Q-3.15 -16.35 -2.65 -16.85L-2.55 -16.95L-2.4 -16.8L-2.15 -16.55L-1.95 -15.95L-1.7 -15.45L-1.85 -15.15L-1.85 -14.2Q-1.8 -13.75 -2.05 -13.45L-2.3 -13.1L-3.35 -12.75Q-3.85 -12.6 -4.2 -12.95L-5.5 -13.7L-5.6 -13.65Q-5.75 -13.4 -6 -13.3Q-6.8 -13.3 -7.2 -14L-7.35 -14.65Q-7.2 -15.5 -7.8 -15.8Q-7.85 -15.15 -8.35 -14.65Q-9.35 -13.55 -10.05 -14.85Q-10.4 -15.45 -10 -16L-9.75 -16.4L-7.75 -16.45L-7.4 -16.45Q-5.85 -16.7 -5.95 -18.2Q-6 -19.1 -6.65 -19.75L-6.6 -19.8L-6.55 -19.75Q-6.1 -20.55 -5.25 -21Q-3.7 -21.8 -3.3 -20.25Q-3.15 -19.65 -3.4 -19.1L-4.15 -19.05M-3.15,-18.85L-3 -19.15L-2.8 -20L-2.6 -19.7Q-2.1 -19.2 -2.2 -18.5Q-2.3 -17.95 -2.65 -17.55L-2.75 -17.85L-3.1 -18.8L-3.15 -18.85M-8,-21.3Q-7.5 -21.25 -7.15 -20.8Q-6.85 -20.35 -7.15 -19.95L-7.2 -19.3L-7.05 -19.3L-7 -19.3L-6.9 -19.4L-6.85 -19.4L-6.7 -19.15Q-6.3 -18.4 -6.45 -17.55Q-6.55 -16.9 -7.3 -16.95L-8.45 -16.8L-8.25 -16.65L-9.7 -16.7L-9.75 -16.8L-9.8 -16.75L-10.25 -17.4Q-10.55 -18.1 -9.9 -18.6L-10.2 -19.3Q-10.4 -19.7 -10.05 -19.95L-9.55 -20.2Q-9.65 -19.75 -9.25 -19.7L-9.1 -20.3L-8.65 -21L-8 -21.3M-9.25,-13.25L-8 -13.15L-7.8 -12.8L-6.75 -12.35L-6.65 -12.4L-6.6 -12.4L-5.25 -12.4L-4.95 -11.9L-5.65 -11.4Q-6.85 -10.85 -7.95 -11.6L-8.8 -12.4L-8.95 -12.65L-9.25 -13.25M-12.45,-17.3Q-13.5 -18.1 -12.1 -18.55L-11.9 -18.5L-11.7 -18.2L-11.55 -17.85L-11.65 -17.5Q-11.8 -17.4 -11.9 -17.4L-12.25 -17.25L-12.25 -17.2L-12.45 -17.3M-10.95,-8L-10.5 -7.95Q-9.6 -7.1 -10.85 -6.65L-11.35 -6.7Q-12.25 -7.5 -10.95 -8M-6.5,-5.6L-6.3 -5.75L-6 -6L-5.65 -6.1L-4.9 -6.05L-4.8 -5.95L-4.8 -5.85L-5 -5.45Q-5.4 -4.95 -6.05 -5.15L-6.5 -5.6M-2.35,-4.65L-1.95 -4.6L-1.8 -4.45L-1.75 -4.35L-1.8 -4.35L-1.8 -4.3L-1.85 -4.25L-1.85 -4.2L-1.9 -4.2L-2.75 -4.25L-2.8 -4.35L-2.75 -4.45L-2.6 -4.6L-2.45 -4.65L-2.35 -4.65" />
<path style="fill:#1E1E1E;fill-opacity:1" d="M4.8,-24.9L5.3 -24.35Q6.25 -24.45 7 -23.85Q7.5 -23.55 7.6 -22.95L7.7 -21.65L7.65 -21.45Q7.55 -20.15 6.5 -19.35L6.05 -19.05Q5.1 -18.4 3.6 -18.6L1.2 -19.15Q0.2 -19.5 -0.25 -20.15L-0.3 -20.2L-0.4 -20.25L-0.95 -20.65L-1.35 -21.4L-1.35 -21.65Q-1.7 -23.6 0.45 -23.9L1.1 -23.7L1.25 -23.9L1.55 -24.55L2.1 -25.15L2.55 -25.45L2.95 -25.6L3.9 -25.4L4.8 -24.9M12.25,-19.75Q13.75 -19.6 13.7 -18.05Q13.9 -17.45 13.7 -16.7L13.6 -16.4L14.45 -15.7Q14.95 -15 14.35 -14.35Q14.1 -14.05 13.7 -13.9Q13.95 -13.1 13.2 -12.65L12.95 -12.45L13.15 -11.6Q13.2 -10.95 12.7 -10.5Q12.45 -10.2 12.05 -10.1Q12.9 -9.45 12.55 -8.45Q12.25 -7.6 11.4 -7.35L10.3 -7.4Q9.65 -5.6 7.55 -6.15Q6.95 -6.3 6.45 -6.7L5.65 -6.15Q6.15 -4.85 5.3 -3.6Q4.6 -2.6 4.55 -3.75L4.7 -4.6L5 -5.2L5.45 -6.1L4.2 -6.25Q3.6 -6.5 2.95 -6.25L1.55 -6.35Q0.85 -6.85 0.9 -7.4L0.75 -7.25Q0.55 -7 0.2 -6.95L-0.45 -6.25Q-1.15 -5.8 -1.8 -6.25L-2.5 -6.6Q-3.15 -6.8 -2.95 -7.55L-2.9 -7.65L-3.8 -7.8Q-4.4 -7.9 -4.85 -8.35L-5.4 -8.7L-6.05 -9.2L-6.35 -9.45Q-7.95 -9.75 -9.05 -11.2L-9.5 -12L-9.65 -13.2L-9.7 -13.6L-9.8 -13.75L-10.3 -14.55L-10.35 -14.75L-10.4 -14.85Q-10.65 -15.5 -10.4 -16.1L-10 -16.6Q-10.95 -17.35 -10.5 -18.3L-10.3 -18.65L-10.6 -19.25L-10.5 -20Q-10.15 -20.5 -9.6 -20.6L-9.45 -20.6L-8.8 -21.4L-7.95 -21.65Q-7.4 -21.6 -7 -21.2L-6.55 -20.35L-5.5 -21.3L-4.45 -21.65Q-3.45 -21.7 -3 -20.85L-2.85 -20.4Q-1.85 -19.9 -1.85 -18.8L-1.8 -18.85L-1.5 -18.85L-0.45 -18.55L0.4 -17.85L0.7 -17.3L1.95 -17.95Q3.5 -18.7 4.7 -17.7L5.75 -18.15L6 -18.2Q6.85 -18.35 7.5 -17.9Q8.15 -17.45 8.3 -16.65L8.3 -16.6L8.95 -16.75L9 -16.75Q8.75 -16.95 8.9 -17.5Q9.3 -18.95 10.75 -19.55L12.25 -19.75M10.45,-20.4Q8.6 -20.1 8.4 -21.8Q8.3 -22.45 8.8 -22.9Q9.3 -23.45 10.05 -23.4Q12.05 -23.2 11.5 -21.35Q11.25 -20.55 10.45 -20.4M12.3,-19.4Q9.55 -19.5 9.25 -17L9.35 -16.8L9.65 -16.7L9.85 -16.4L9.8 -16.3L9.75 -16.25L9.7 -16.25Q7.75 -16.55 7.85 -14.65Q7.9 -13.85 8.65 -13.4Q9.75 -12.65 10.4 -13.8Q11.05 -14.95 10.9 -16.2L11.35 -15.75Q13.25 -16.45 13.25 -18.05L13.2 -18.5L13.15 -18.75Q13 -19.4 12.3 -19.4M10.5,-22.65L9.8 -22.9L9.45 -22.8L9.15 -22.6L9 -22.45L9 -22.35L9.05 -22.35L9.1 -22.3L9.1 -22.25L9.15 -22.2L9.2 -22.15L9.05 -22.15L8.95 -22.2L8.85 -22.2L8.75 -22.2Q8.5 -21.7 8.9 -21.25Q9.95 -20.15 10.8 -21.4L11 -21.8L10.85 -22.15L10.5 -22.65M13.45,-16.1L12.55 -14.85Q12.1 -14.45 11.65 -14.55L11.65 -14.5Q11.6 -13.45 11 -12.8Q11.9 -12.9 12.55 -13.6L13.35 -14.2L13.5 -14.35L13.6 -14.35L13.7 -14.45L13.75 -14.45Q14.85 -15 13.65 -15.9L13.45 -16.1M10.85,-12.65L10.8 -12.6L10.9 -12.65L10.85 -12.65M17.1,-13.55Q17.4 -13.85 17.85 -13.85Q19.5 -13.95 19.05 -12.5Q18.9 -11.8 18.15 -11.7Q16.75 -11.5 16.8 -12.75Q16.8 -13.2 17.1 -13.55M17.1,-12.8L17.15 -12.5Q17.55 -12.05 18.15 -12.15Q18.65 -12.25 18.6 -12.75L18.6 -12.85L18.45 -13.1L18.2 -13.3L17.95 -13.5L17.85 -13.55L17.75 -13.55L17.3 -13.25L17.1 -12.8M6.7,-23.45Q6.15 -23.95 5.5 -23.95L5.45 -23.85L5.45 -23.75L5.5 -23.55L5.5 -23.25L5.4 -22.95L5.15 -22.95L4.9 -24L4.45 -24.7Q2.95 -25.85 1.9 -24.3L1.5 -23.45Q2.4 -22.65 1.85 -21.6L1.45 -21.05L1.35 -20.8L0.95 -20.3Q1.65 -20.3 2.2 -20.9Q3.1 -19.95 4.35 -20.1L4.65 -20.4L5.2 -21.5L5.3 -21.45L5.35 -21.4L5.35 -21.25L5.4 -21.15Q6.3 -21.15 6.65 -22.05Q6.9 -22.7 6.7 -23.4L6.7 -23.45M0.45,-23.55Q-1.55 -23.2 -0.95 -21.55L-0.7 -21.2L-0.6 -21.05Q0.25 -21 0.9 -21.75Q1.2 -22.1 1.1 -22.55L1 -23.25L0.75 -23.5L0.75 -23.55L0.45 -23.55M4.1,-15.5L4.05 -15.1L3.4 -14.75L2.9 -14.15L2.85 -13.3L2.85 -13.15L2.35 -13.25L2.25 -12.95L2.2 -12.25L2.25 -11.75L3.85 -11.8L3.45 -12.15Q3.05 -12.65 3.15 -13.4Q3.25 -14 3.8 -14.25L3.85 -14.25L3.95 -13.35Q3.95 -12.85 4.35 -12.5L4.65 -12.1Q5.6 -11.8 5.8 -12.8L5.7 -13.45L5.85 -13.7Q6.4 -13.25 6.2 -12.6L6.7 -12.75L7 -12.9L7.05 -13L7.05 -13.2L7.05 -13.35Q6.85 -14.45 7.35 -15.6L7.85 -16.3L7.8 -16.65Q7.7 -17.25 7.15 -17.5Q6 -18.05 5.05 -17.5L5.1 -17.45L5.1 -17.35L4.5 -16.95L4.1 -16.3L4.1 -15.5M4.35,-17.55L1.95 -17.6L0.65 -16.55L0.25 -17.2Q-0.05 -17.95 -0.8 -18.3L-1.85 -18.5Q-1.9 -17.8 -2.3 -17.2Q-1.6 -16.75 -1.4 -15.95L-1.2 -15.25L-1.05 -15.2L-1 -15.25Q-0.4 -15.2 0 -14.75L0.05 -14.75Q0.7 -14.4 0.9 -13.6L0.85 -12.75L1.3 -11.95L1.45 -12L1.25 -12.7L1.45 -13.75L1.8 -14.15Q1.7 -14.55 1.9 -14.95L2.65 -15.8L3 -16L3.05 -16.35L3.4 -16.85L4.15 -17.4L4.35 -17.55M7.15,-12.65Q6.85 -12.3 6.35 -12.25L6.2 -12.25L5.85 -11.55Q5.55 -10.95 5.9 -10.45Q6.05 -10.15 6.4 -10.1L6.5 -9.75L6.6 -9.4L6.65 -9.1Q7 -8.85 7.4 -8.95L7.85 -9.25L8.05 -9.15L8.15 -8.95L8.2 -8.95Q9.4 -8.75 9.7 -9.9Q9.9 -10.65 9.15 -10.95L9.7 -11.55Q9.85 -11.9 9.6 -12.05L9.1 -12L7.9 -11.9Q7.55 -11.9 7.4 -12.25L7.2 -12.7L7.15 -12.65M3.8,-11.35Q3.3 -11 2.55 -11.15Q2.1 -11.25 1.8 -11.6L1.35 -11.65Q1.5 -10.8 1 -9.85L0.55 -9.1L1.05 -8.35L1.05 -8.25L1.4 -8.15Q2.55 -7.85 2.55 -8.9L3.45 -8.3Q3.8 -8.05 4.1 -8.3Q4.85 -9 4.3 -9.65L4.25 -9.75Q4.6 -9.95 4.65 -10.3Q4.7 -11 4 -11.25L3.8 -11.35M0.35,-10.1Q1 -11.5 -0.1 -12.4L0.2 -13.15Q0.25 -13.95 -0.2 -14.5L-0.35 -14.65L-1.15 -14.9L-1.15 -14.35Q-1.25 -12.75 -2.4 -11.75Q-1.75 -11.4 -2.15 -10.5Q-2.5 -9.75 -3.15 -9.4L-2.65 -9.2L-1.65 -9.1Q-0.7 -9.4 0.1 -9.85L0.35 -10.1M0.2,-8.7Q-0.9 -7.65 -2.6 -7.65Q-2.9 -6.65 -1.6 -6.6Q-0.55 -6.6 -0.65 -7.6L-0.65 -7.75L-0.6 -7.8L-0.5 -7.8L-0.35 -7.75L-0.3 -7.75L0.15 -8.15L0.2 -8.7M2.6,-5.35Q2.35 -5.35 2.25 -5.15Q2.1 -4.95 2.25 -4.75L2.45 -4.5L2.95 -4.6L3.15 -5L3.1 -5.1L3 -5.2L2.85 -5.3L2.6 -5.35M4.75,-3.55L5.3 -4.25Q5.6 -4.6 5.55 -5.05L5.35 -5.35Q5.1 -5.05 5.1 -4.65L4.9 -4L4.75 -3.55M3.05,-4.35Q2.55 -3.9 2.15 -4.35Q1.4 -5.25 2.45 -5.65L2.7 -5.75Q4 -5.2 3.05 -4.35M9.55,-5.5L10.85 -5.7L11.1 -5.8Q11.05 -6.15 11.3 -6.4L12.1 -7.2L12.6 -7.35Q12.45 -7.8 12.75 -8.2L13.3 -8.65Q13.7 -8.6 13.9 -8.3Q14.8 -7.55 13.9 -6.55L12 -5.3L11.5 -5.2L10.7 -5.15L10.4 -5.15Q9.6 -5.1 9 -4.6L8.85 -4.4L8.1 -4.2L7.25 -4.45Q7.05 -4.7 7.1 -5.05Q7.15 -5.6 7.7 -5.8Q8.05 -5.9 8.2 -5.65L9.05 -5.5L9.55 -5.5M8.35,-5.1L7.75 -5.45L7.5 -5.25L7.35 -5L7.35 -4.95L7.4 -4.9L7.4 -4.8L7.45 -4.75L7.5 -4.65L8.05 -4.55L8.15 -4.7L8.55 -4.85L8.35 -5.1M17.65,-8.2L18.3 -8.3Q19.4 -7.75 18.3 -7.1Q17.55 -6.65 17.35 -7.35Q17.2 -7.85 17.65 -8.2M17.9,-7.75L17.75 -7.6L17.65 -7.45Q17.8 -7.25 18.15 -7.45L18.2 -7.6L18.2 -7.75L18.15 -7.95L18.05 -8L17.9 -7.75M11.75,-6.4L11.45 -6.1L11.45 -6L11.45 -5.9L11.4 -5.85L11.4 -5.75L11.4 -5.7L12 -5.75L12.1 -5.75L12.5 -6.15L12.7 -6.35L12.75 -6.4L12.8 -6.45L12.8 -6.5L12.9 -6.8L12.75 -7.05L12.2 -6.75L11.75 -6.4M13.4,-8.3L12.95 -7.9Q12.75 -7.6 12.95 -7.35L13.05 -7.25L13.25 -7.05L13.45 -7.35L13.65 -7.95L13.4 -8.3M21.1,-9.85Q20.65 -9.65 20.5 -9.25Q20.35 -8.8 20.65 -8.4L21.05 -8.1Q22.05 -8 22.15 -8.9Q22.25 -9.75 21.25 -9.85L21.1 -9.85M20.35,-8.4Q19.95 -8.85 20.2 -9.4Q20.55 -10.1 21.4 -10.25Q23.2 -10.35 22.9 -8.7L22.7 -8.3Q21.5 -7.05 20.35 -8.4M-3.4,-19.1Q-3.15 -19.65 -3.3 -20.25Q-3.7 -21.8 -5.25 -21Q-6.1 -20.55 -6.55 -19.75L-6.6 -19.8L-6.65 -19.75Q-6 -19.1 -5.95 -18.2Q-5.85 -16.7 -7.4 -16.45L-7.75 -16.45L-9.75 -16.4L-10 -16Q-10.4 -15.45 -10.05 -14.85Q-9.35 -13.55 -8.35 -14.65Q-7.85 -15.15 -7.8 -15.8Q-7.2 -15.5 -7.35 -14.65L-7.2 -14Q-6.8 -13.3 -6 -13.3Q-5.75 -13.4 -5.6 -13.65L-5.5 -13.7L-4.2 -12.95Q-3.85 -12.6 -3.35 -12.75L-2.3 -13.1L-2.05 -13.45Q-1.8 -13.75 -1.85 -14.2L-1.85 -15.15L-1.7 -15.45L-1.95 -15.95L-2.15 -16.55L-2.4 -16.8L-2.55 -16.95L-2.65 -16.85Q-3.15 -16.35 -3.65 -16.55Q-3.3 -16.9 -3.2 -17.45L-3.25 -18L-4.15 -19.05L-3.4 -19.1M-3.1,-18.8L-2.75 -17.85L-2.65 -17.55Q-2.3 -17.95 -2.2 -18.5Q-2.1 -19.2 -2.6 -19.7L-2.8 -20L-3 -19.15L-3.15 -18.85L-3.1 -18.8M-8.65,-21L-9.1 -20.3L-9.25 -19.7Q-9.65 -19.75 -9.55 -20.2L-10.05 -19.95Q-10.4 -19.7 -10.2 -19.3L-9.9 -18.6Q-10.55 -18.1 -10.25 -17.4L-9.8 -16.75L-9.75 -16.8L-9.7 -16.7L-8.25 -16.65L-8.45 -16.8L-7.3 -16.95Q-6.55 -16.9 -6.45 -17.55Q-6.3 -18.4 -6.7 -19.15L-6.85 -19.4L-6.9 -19.4L-7 -19.3L-7.05 -19.3L-7.2 -19.3L-7.15 -19.95Q-6.85 -20.35 -7.15 -20.8Q-7.5 -21.25 -8 -21.3L-8.65 -21M-8.95,-12.65L-8.8 -12.4L-7.95 -11.6Q-6.85 -10.85 -5.65 -11.4L-4.95 -11.9L-5.25 -12.4L-6.6 -12.4L-6.65 -12.4L-6.75 -12.35L-7.8 -12.8L-8 -13.15L-9.25 -13.25L-8.95 -12.65M-12.15,-18.95Q-10.15 -18.65 -11.1 -17.05Q-11.2 -16.85 -11.45 -16.8Q-13.05 -16.55 -13.2 -17.9L-12.85 -18.65L-12.15 -18.95M-12.25,-17.2L-12.25 -17.25L-11.9 -17.4Q-11.8 -17.4 -11.65 -17.5L-11.55 -17.85L-11.7 -18.2L-11.9 -18.5L-12.1 -18.55Q-13.5 -18.1 -12.45 -17.3L-12.25 -17.2M-11.35,-6.7L-10.85 -6.65Q-9.6 -7.1 -10.5 -7.95L-10.95 -8Q-12.25 -7.5 -11.35 -6.7M-11.9,-7.55Q-11.65 -8.35 -10.85 -8.45Q-9.15 -8.5 -9.65 -7.05Q-9.85 -6.25 -10.7 -6.25Q-12.25 -6.15 -11.9 -7.55M-6.85,-6.1Q-6.45 -6.65 -5.75 -6.7Q-3.85 -6.55 -4.6 -5.05Q-4.85 -4.6 -5.3 -4.5Q-6.65 -4.2 -7 -5.3L-6.85 -6.1M-6.05,-5.15Q-5.4 -4.95 -5 -5.45L-4.8 -5.85L-4.8 -5.95L-4.9 -6.05L-5.65 -6.1L-6 -6L-6.3 -5.75L-6.5 -5.6L-6.05 -5.15M-2.45,-4.65L-2.6 -4.6L-2.75 -4.45L-2.8 -4.35L-2.75 -4.25L-1.9 -4.2L-1.85 -4.2L-1.85 -4.25L-1.8 -4.3L-1.8 -4.35L-1.75 -4.35L-1.8 -4.45L-1.95 -4.6L-2.35 -4.65L-2.45 -4.65M-2.35,-3.75Q-3.65 -4 -2.7 -4.85L-2.25 -5Q-0.95 -4.75 -1.8 -3.9Q-2 -3.7 -2.35 -3.75" />
</g>
</svg>
