<?xml version="1.0" encoding="utf-8"?>
<svg version="1.1" id="Layer_1"
xmlns="http://www.w3.org/2000/svg"
xmlns:xlink="http://www.w3.org/1999/xlink"
width="21px" height="15px"
xml:space="preserve">
<g id="893" transform="matrix(1, 0, 0, 1, -0.25, -5.9)">
<path style="fill:#000000;fill-opacity:1" d="M20.9,8.65L20.5 9.9Q18.05 9.75 15.75 11.25L15.6 11.65L12.95 14.45L15 16.2L15 19.6L12.5 20.05L11.8 19.35L11.75 18.7L12.3 17.9L12.15 16.75L9.85 15.65L9.25 16.8L8.8 17.35Q7 18.5 5.3 17.35Q4.45 16.75 4.05 15.95L4.4 13.8L3.25 14.5L3 15L2.5 15.45L0.9 15.4L0.25 14.65L0.3 13.65L1.25 12.65Q2.6 12.5 3.8 11.65Q4.1 11.4 4.65 11.2L7.95 11.3Q8.4 10.4 9.2 10Q10.4 9.4 11.7 8.9L13.9 6.5Q14.35 6 14.9 5.9Q16.35 5.8 17.2 7.3Q16.9 8 17.4 7.75L18.55 7.2L20.35 7.95L20.9 8.65" />
</g>
</svg>
