<?xml version="1.0" encoding="utf-8"?>
<svg version="1.1" id="Layer_1"
xmlns="http://www.w3.org/2000/svg"
xmlns:xlink="http://www.w3.org/1999/xlink"
width="22px" height="13px"
xml:space="preserve">
<g id="1054" transform="matrix(1, 0, 0, 1, 10.6, 10.05)">
<path style="fill:#FFCC00;fill-opacity:1" d="M8.45,-9.85Q8.8 -9.5 8.1 -8.95L6.7 -7.75Q6.1 -7.2 5.3 -7.25Q5.3 -7.95 6.05 -8.4L7.65 -9.45L8.45 -9.85M5.75,-7.6L5.8 -7.6L6.35 -7.65L7.35 -8.35L7.95 -9.3L7.9 -9.35L7.85 -9.4L7.75 -9.45L7.7 -9.45L7.4 -9.25L6.6 -8.55L5.8 -7.8L5.8 -7.7L5.75 -7.6M6.35,-4.9L6.35 -4.85L6.4 -4.7L6.65 -4.5L6.7 -4.5L6.65 -4.45L6.55 -4.2L6.5 -4L6.4 -3.9L6.3 -3.75L6.35 -3.7Q6.85 -3.5 7.25 -4.2L7.45 -4.7Q7.55 -5.4 7.25 -5.95L6.75 -6.35L6.45 -6.65L5.85 -6.85L5.25 -6.9L4.8 -6.8L4.4 -6.65L4.2 -6.45L4.4 -6.25L3.9 -6.25L3.8 -6.3Q3.75 -6.6 4.15 -6.7L5.8 -7.05Q7 -6.6 7.6 -5.6Q8.2 -4.5 6.95 -3.7Q6.35 -3.3 5.65 -3.2Q5.5 -3.4 5.75 -3.6L6.2 -4.05L6.5 -4.45L6.3 -4.6L6.1 -4.65L6.05 -4.75L6.05 -4.95L6.05 -5.1L6.1 -5.3L6.2 -5.55L5.4 -5.7L5.4 -5.8L5.4 -5.9L5.4 -5.95L5.5 -6.05L4.45 -6.25L5.45 -6.35L5.45 -6.25L5.5 -6.2L5.6 -6.15L5.7 -6.05L5.75 -6L5.75 -5.8L5.95 -5.7L6.1 -5.65L6.35 -5.5L6.3 -5.3L6.35 -5L6.35 -4.9M7.05,-5.5L6.9 -5.8L7.05 -5.5M2.25,-8L3.1 -7.9L3.8 -7.85L3.9 -7.8L3.95 -7.75L4 -7.7L4.1 -7.7L4.2 -7.55L4.25 -7.55L4.15 -7.4L3.95 -7.2L3.5 -6.75L2.95 -6.15L2.75 -6.1L2.7 -6.2L2.7 -6.3L2.7 -6.45L2.6 -6.6L2.7 -6.8L2.75 -6.9L2.7 -6.95L2.55 -7.05L2.4 -7.05L1.85 -7.05L1.85 -7L1.8 -6.95L1.8 -6.9L1.8 -6.75L1.7 -6.75L1.7 -6.7L1.6 -6.6L1.35 -6.65L1.2 -6.75L1.1 -7.05L1.1 -7.4L1.15 -7.7L1.2 -7.75L1.1 -7.75L0.95 -7.75L0.9 -7.8L0.95 -7.8L1.1 -7.9L1.15 -7.9L1.2 -7.95L1.55 -8.05L1.6 -8.05L2.25 -8M1.35,-7.65L1.35 -7.45L1.4 -7.3L1.4 -7.25L1.4 -7.15L1.45 -7L1.8 -7.15L2.25 -7.35L2.3 -7.3L2.65 -7.25L2.8 -7.15L2.8 -7L2.8 -6.85L2.8 -6.75L2.9 -6.65L2.9 -6.6L3.15 -6.6L3.25 -6.7L3.5 -7.05L3.7 -7.25L3.7 -7.3L3.75 -7.3L3.8 -7.4L3.85 -7.5L3.25 -7.85L2.25 -7.85L1.5 -7.9L1.4 -7.8L1.35 -7.8L1.25 -7.75L1.35 -7.7L1.35 -7.65M0.15,-9L-0.15 -9.7L-0.25 -9.7L-0.35 -9.6L-0.35 -9.55L-0.25 -9.15L-0.25 -8.25Q-0.35 -7.7 0 -7.65Q0.05 -7.45 0.25 -7.4L0.4 -7.75L0.4 -8.45L0.15 -8.9L0.15 -9M0.55,-7.75L0.3 -7.05Q-0.3 -7.3 -0.4 -8L-0.5 -9.3L-0.4 -10.05Q0.3 -9.75 0.5 -9.05Q0.7 -8.4 0.55 -7.75M2.85,-3.2L3.75 -2.75L4.25 -2.1Q2.95 -1.3 1.55 -0.9L-0.65 -1L-3.05 -1.4L-3 -1.85Q-2.7 -2.3 -2.05 -2.3L-2.75 -2.75L-3.05 -3.35L-3.05 -3.4L-1.45 -3.35L-1.45 -3.4Q-1.55 -3.85 -1 -4.15L0.55 -4.5L0.95 -4.95L1.45 -5.5L1.65 -5.55L1.7 -5.55L1.85 -5.5L1.9 -4.6Q1.95 -4.1 2.7 -3.95L3.3 -3.6L3.25 -3.5L3 -3.35L2.85 -3.2M-2.4,-1.75L-2.3 -1.75L-1.35 -1.3L1.55 -1.15L1.65 -1.25L2.6 -1.55L3.75 -2.25L3.7 -2.3L3.25 -2.65L2.45 -2.85L2.5 -2.95L2.6 -3.15L2.7 -3.35L2.75 -3.55L2.75 -3.8L2.3 -4L1.75 -4.35L1.35 -4.7L1.3 -4.7L0.75 -4.25L0.5 -3.9L0.45 -3.75L0.45 -4.1L0.45 -4.15L0.4 -4.2L0.2 -4.3L-0.2 -4.3Q-0.6 -4.25 -0.85 -3.9L-1.05 -3.35L-1.05 -3.15L-1.45 -3.05L-1.5 -3.1L-1.75 -3.15L-1.95 -3.15L-2.2 -3.15L-2.3 -3.1Q-2.45 -2.9 -2.2 -2.75L-1.75 -2.45L-1.6 -2.35L-2.1 -2.2L-2.5 -2L-2.55 -1.9L-2.35 -1.75L-2.4 -1.75M-1.15,1.1Q-1 0.95 -0.85 0.9L-0.65 1.2L-0.45 1.6L-0.4 1.7L-0.4 1.75L-0.35 1.75L-0.1 1.85L0.15 1.5L0.2 1.45L0.4 1.2L0.5 1.1L0.55 1L0.6 0.95L1.15 1.2L1.9 1.55L1.95 1.6L2.1 1.65L2.4 1.65L2.45 1.55L2.5 1.4L2.6 1.1L2.65 1.05L2.7 0.95L2.75 0.9L2.9 0.85L3.2 1L3.6 1.3L3.65 1.3L3.8 1.35L4 1.35L4.05 1.25L4.05 1.2L4.05 1.15L4.05 1.1L4 1L4 0.95L3.95 0.95L3.95 0.9L6.8 0.65L7.15 0.7L7.85 0.65L7.9 0.65L7.9 0.6L7.95 0.5L7.9 0.45L7.85 0.4L7.75 0.35L7.45 0.3L7.3 0.25L7.4 0.25L8.15 0.15L8.25 0.15L8.25 0.1L8.3 0L8.3 -0.15L8.2 -0.2L8.15 -0.25L8.05 -0.3L8.9 -0.45L8.9 -0.5L9 -0.55L9 -0.65L9 -0.75L8.7 -0.95L8.6 -0.95L8.55 -1L8.45 -1.05L8.4 -1.1L8.35 -1.2L8.25 -1.2L7.4 -1.2L7.05 -1.2L6.4 -1.25L6.3 -1.25L6.2 -1.2L6.15 -1.15L6.15 -1.1L6.35 -0.95L6.3 -0.9L6 -0.8L5.4 -0.6L5.35 -0.55L5.35 -0.45L5.4 -0.3L5.5 -0.25L4.9 0L2.15 0.3L1 0.15L0 0.1L-0.2 0.1Q1.1 -0.25 2.75 0.1L3.3 0.05L3.4 -0.05Q3.8 -0.55 4.9 -0.25L5.1 -0.25L5.05 -0.4Q4.9 -0.55 5.05 -0.7Q5.3 -1.1 5.8 -1.1L5.75 -1.15L5.75 -1.3L5.85 -1.4L6 -1.4L6.1 -1.45L6.65 -1.4L7.5 -1.5L8.3 -1.45L9.85 -1.45L10.25 -1.2L10.2 -1.15L9.25 -0.95L9 -0.9L9.1 -0.85L9.15 -0.8L10.25 -0.6L10.65 -0.35L10.7 -0.3L10.65 -0.2L10.55 -0.2L8.75 -0.15L8.75 -0.1L8.8 -0.05L8.9 0.05L8.9 0.2L8.85 0.25L8.8 0.25L8.15 0.35L8.2 0.4L8.3 0.4L8.35 0.45L8.75 0.55L8.9 0.8L8.9 0.85L7.65 1L6.5 0.85L4.2 0.9L4.2 1L4.35 1.15L4.45 1.35L4.45 1.45L4.4 1.55L4.35 1.55Q3.75 1.65 3.25 1.35L3 1.2L2.8 1.15L2.75 1.15L2.75 1.25L2.75 1.35L2.6 1.45L2.55 1.5L2.4 1.65L2.25 1.9L1.65 1.75L1.4 1.65L1.2 1.55L1 1.45L0.65 1.15L0.55 1.15L0.4 1.4L0.3 1.5L0.25 1.6L0.2 1.65L0.15 1.7L0.05 1.75L-0.05 1.95L-0.2 2.2L-0.3 2.2L-0.45 2.2L-0.55 2.2L-0.75 1.9L-0.75 1.8L-0.75 1.75L-0.75 1.65L-0.85 1.55L-0.85 1.35L-0.95 1.1L-1.15 1.15L-1.15 1.1M-4,-0.15L-4.15 -0.1L-4.6 -0.05L-4.9 -0.1L-4.85 -0.2L-4.95 -0.35L-5.3 -0.5L-5.35 -0.5L-5.3 -0.55L-5.3 -0.6L-5.25 -0.7L-5.25 -0.75Q-5.3 -0.9 -5.45 -0.9L-6.15 -0.9L-8.35 -0.75Q-8.65 -0.7 -8.8 -0.45L-8.75 -0.4L-8.55 -0.25L-8.65 -0.2L-8.75 -0.1L-8.75 0L-8.45 0.1L-7.3 0L-7 0.15L-7.15 0.3L-7.45 0.5L-7.55 0.55L-7.8 0.65L-7.85 0.75L-7.8 0.85L-7.35 0.85L-7.25 0.85L-7.05 0.85L-7 0.85L-6.9 0.95L-6.3 0.95L-5.9 0.9L-5.35 0.85L-5.45 0.9L-5.65 1L-5.75 1.2L-5.75 1.3L-5.65 1.4L-5 1.3L-3.75 0.9L-3.4 0.9L-3.4 0.95L-3.45 1.05L-3.45 1.2L-3.45 1.3L-3.5 1.35L-3.4 1.4L-3.2 1.4L-2.6 1.2L-1.9 0.95L-1.9 1.05L-1.85 1.2L-1.8 1.3L-1.75 1.45L-1.5 1.45L-1.35 1.35L-1.4 1.4L-1.45 1.45L-1.55 1.55L-1.6 1.6L-1.65 1.65L-1.95 1.7L-2.05 1.6L-2.1 1.45L-2.1 1.25L-2.15 1.2L-2.75 1.4L-2.95 1.45L-3.1 1.55L-3.2 1.65L-3.55 1.95L-3.8 1.95L-3.8 1.75L-3.8 1.65L-3.75 1.5L-3.75 1.4L-3.7 1.35L-3.7 1.25L-4.5 1.45L-4.95 1.5L-5.8 1.75L-6.75 1.8L-6.5 1.5L-6.3 1.4L-6.25 1.35L-6.1 1.25L-6.05 1.2L-6 1.15L-5.85 1.1L-7.95 1L-8.2 0.95L-8.3 0.95L-8.1 0.65L-7.9 0.6L-7.85 0.55L-7.7 0.5L-7.65 0.4L-7.6 0.35L-7.35 0.2L-7.35 0.15L-9.55 0.05L-9.6 0L-9.35 -0.2L-9.1 -0.25L-8.8 -0.35L-9.85 -0.5L-9.95 -0.6L-7.7 -0.9L-7 -0.9L-6.7 -0.95L-6.25 -1.1L-4.7 -0.8L-4.6 -0.65L-4.6 -0.55L-4.65 -0.45L-4.7 -0.45L-4.6 -0.4L-4.4 -0.3L-4.35 -0.2L-3.7 -0.2L-4 -0.15M-2.4,-0.1L-2.55 -0.25L-2.75 -0.25L-2.35 -0.35Q-1.85 -0.45 -1.8 -0.15L-1.85 -0.1L-0.45 0.05L-0.25 0.1L-2.4 -0.1M8.15,-3.6L7.45 -3.65Q7.75 -4.1 8.4 -4.35L10.2 -4.9L10.4 -4.8L10.5 -4.8L10.7 -4.75L9.6 -4L8.6 -3.7L8.65 -3.75L9.4 -4Q10.05 -4.1 10.3 -4.55L10.25 -4.6L10.2 -4.65L10.1 -4.7L10 -4.7L9.55 -4.55L8.9 -4.35L8.15 -3.9L8.15 -3.75L8.2 -3.7L8.4 -3.65L8.15 -3.6M6.65,-3.1L7.35 -3.1L7.75 -2.95L7.7 -2.85L7.65 -2.75L7.6 -2.65L7.4 -2.5L7.45 -2.45L7.45 -2.4L7.4 -2.3L7.4 -2.15L7.35 -2.05L7.25 -2L7 -1.95L5.5 -1.75Q5.35 -1.7 5.3 -1.8L5.3 -1.9L5.4 -2.05L5.65 -2.15L5.8 -2.25L5.75 -2.3L5.75 -2.35L5.75 -2.5L5.9 -2.75L5.85 -2.85L5.8 -2.95L5.8 -3L6 -3.05L6.45 -3.1L6.65 -3.1M7.3,-2.85L7.15 -2.95L6.85 -2.95L6.55 -2.9L6.1 -2.65L6.1 -2.5L5.95 -2.3L5.95 -2.2L5.95 -2.15L6 -2.1Q6.4 -1.95 6.9 -2.1L7 -2.25L7 -2.3L7.05 -2.3L7 -2.35L7 -2.4L7.1 -2.5L7.3 -2.7L7.3 -2.8L7.3 -2.85M5.85,-0.15L5.85 -0.1L5.75 0L5.85 -0.15M2.3,0.9L2.3 0.85L2.35 0.8L2.4 0.8L2.3 0.9M-10.45,-7.75Q-9.75 -7.75 -9.3 -7.35L-8.35 -6.7L-7.65 -6.45L-7.65 -6.3L-7.7 -6.25L-7.7 -6.2Q-8.75 -6.2 -9.45 -6.65L-10.4 -7.35Q-10.75 -7.6 -10.45 -7.75M-2.1,-5.6L-2.05 -5.65L-1.8 -5.6L-1.9 -6L-2.3 -6.55L-2.45 -6.9L-1.8 -7.2L-1.3 -7.1L-0.55 -6.7Q-0.4 -6.85 -0.55 -7.05L-0.7 -7.65Q-0.75 -8.05 -1.15 -8L-1.9 -7.95L-2.35 -8L-2.35 -8.05L-2.15 -8.1L-2.1 -8.1L-1.95 -8.05L-1.85 -8.05L-1.65 -7.95L-1.6 -7.95L-1.45 -8.05L-1.4 -8.1L-1.2 -8.15L-1 -8.15L-0.85 -8.1L-0.55 -8L-0.5 -7.55L-0.3 -6.85L-0.4 -6.2L-0.65 -6.25L-0.85 -6.5L-1.1 -6.85L-2.3 -6.8L-2.35 -6.75L-2.1 -6.3L-1.6 -5.6L-1.55 -5.05L-1.7 -5.05L-2.1 -5.2L-2.55 -5.5L-3.2 -5.55L-4.45 -5.6L-4.35 -5.3L-3.9 -4.75Q-3.7 -4.5 -3.8 -4.25Q-4.95 -4.5 -5.8 -5.4Q-6.55 -6.25 -5.6 -6.75L-4.6 -7.05L-4.2 -7.6Q-3.7 -8.05 -2.95 -7.95Q-3.85 -7.75 -4.45 -7L-4.65 -6.95L-5.1 -6.7L-5.2 -6.55L-5.5 -6.5L-5.75 -6.2Q-5.9 -5.65 -5.45 -5.25L-4.05 -4.4L-4.15 -4.8L-4.5 -5.3L-4.6 -5.65L-4 -5.8L-2.35 -5.7L-2.1 -5.6M-2.75,-6.55L-2.8 -6.75L-2.8 -6.8L-2.75 -6.55M-10.1,-7.5Q-10.3 -7.35 -10.1 -7.2L-9.55 -6.8Q-9.05 -6.4 -8.6 -6.6L-9 -6.9L-9.55 -7.2L-10.1 -7.5M-5.3,-4.75L-4.95 -4.5L-4 -4.1L-3.5 -3.5L-3.55 -3.45Q-3.55 -3.4 -3.65 -3.4L-3.7 -3.4L-3.9 -3.45L-4 -3.45L-4 -3.2L-4 -3.1L-4.2 -3L-4.6 -2.9L-4.8 -2.85L-4.45 -2.5L-4.35 -2.1L-4.25 -1.6L-4.2 -1.1L-5.15 -1.15L-6.5 -1.55L-6.7 -1.65L-6.75 -1.7L-6.75 -1.85L-6.9 -1.9L-7 -2L-7 -2.05L-6.95 -2.15L-6.5 -2.3L-5.85 -2.4L-5.85 -2.55L-5.9 -2.7L-6 -2.85L-6.1 -2.95L-6.3 -3.1L-6.7 -3.25L-6.8 -3.4L-6.65 -3.55L-5.5 -3.75L-6.25 -4.3L-7.05 -4.85Q-7.6 -5.1 -7.6 -5.45L-7.5 -5.5L-6.65 -5.3L-5.65 -5.05L-5.3 -4.75M-6.45,-4.75L-6.4 -4.55L-6.05 -4.25L-5.6 -3.95L-5.1 -3.65L-5.55 -3.65L-6.2 -3.35L-6.15 -3.2L-5.95 -2.95L-5.75 -2.75L-5.6 -2.45L-5.65 -2.45L-5.85 -2.4L-6.05 -2.35L-6.35 -2.2L-6.4 -2L-5.85 -1.5L-4.6 -1.3L-4.6 -1.35L-4.5 -1.75L-4.55 -2.05L-4.65 -2.4L-4.95 -2.85L-4.75 -2.95L-4.4 -3.1L-4.2 -3.35L-4.25 -3.6L-4.2 -3.65L-4.2 -3.7L-4.15 -3.75L-4.15 -3.85L-4.7 -4.25L-5.7 -4.75L-6.85 -5.15L-6.9 -5.1L-6.9 -4.95L-6.7 -4.85L-6.45 -4.75" />
<path style="fill:#FFFF00;fill-opacity:1" d="M5.8,-7.7L5.8 -7.8L6.6 -8.55L7.4 -9.25L7.7 -9.45L7.75 -9.45L7.85 -9.4L7.9 -9.35L7.95 -9.3L7.35 -8.35L6.35 -7.65L5.8 -7.6L5.8 -7.7M4.4,-6.25L4.2 -6.45L4.4 -6.65L4.8 -6.8L5.25 -6.9L5.85 -6.85L6.45 -6.65L6.75 -6.35L7.25 -5.95Q7.55 -5.4 7.45 -4.7L7.25 -4.2Q6.85 -3.5 6.35 -3.7L6.3 -3.75L6.4 -3.9L6.5 -4L6.55 -4.2L6.65 -4.45L6.7 -4.5L6.65 -4.5L6.4 -4.7L6.35 -4.85L6.35 -4.9L6.35 -4.95L6.35 -5L6.3 -5.3L6.35 -5.5L6.1 -5.65L5.95 -5.7L5.75 -5.8L5.75 -6L5.7 -6.05L5.6 -6.15L5.5 -6.2L5.45 -6.25L5.45 -6.35L4.45 -6.25L4.4 -6.25M6.9,-5.8L6.8 -5.9L6.75 -5.95Q6.5 -5.95 6.4 -6.1L6.35 -6.25L6.25 -6.3L6.1 -6.35L5.9 -6.35L6 -6.3L6.1 -6.3L6.15 -6.25L6.15 -6.15L6.2 -6.05L6.65 -5.7L6.8 -5.45L6.75 -4.95L7 -4.8L7.1 -4.7L7.15 -5.05L7.05 -5.3L7.05 -5.5L6.9 -5.8M1.4,-7.8L1.5 -7.9L2.25 -7.85L3.25 -7.85L3.85 -7.5L3.8 -7.4L3.75 -7.3L3.7 -7.3L3.7 -7.25L3.5 -7.05L3.25 -6.7L3.15 -6.6L2.9 -6.6L2.9 -6.65L2.8 -6.75L2.8 -6.85L2.8 -7L2.8 -7.15L2.65 -7.25L2.3 -7.3L2.25 -7.35L1.8 -7.15L1.45 -7L1.4 -7.15L1.4 -7.25L1.4 -7.3L1.35 -7.45L1.35 -7.65L1.35 -7.7L1.4 -7.8M0.15,-8.9L0.4 -8.45L0.4 -7.75L0.25 -7.4Q0.05 -7.45 0 -7.65Q-0.35 -7.7 -0.25 -8.25L-0.25 -9.15L-0.35 -9.55L-0.35 -9.6L-0.25 -9.7L-0.15 -9.7L0.15 -9L0.15 -8.9M-2.35,-1.75L-2.55 -1.9L-2.5 -2L-2.1 -2.2L-1.6 -2.35L-1.75 -2.45L-2.2 -2.75Q-2.45 -2.9 -2.3 -3.1L-2.2 -3.15L-1.95 -3.15L-1.75 -3.15L-1.5 -3.1L-1.45 -3.05L-1.05 -3.15L-1.05 -3.35L-0.85 -3.9Q-0.6 -4.25 -0.2 -4.3L0.2 -4.3L0.4 -4.2L0.45 -4.15L0.45 -4.1L0.45 -3.75L0.5 -3.9L0.75 -4.25L1.3 -4.7L1.35 -4.7L1.75 -4.35L2.3 -4L2.75 -3.8L2.75 -3.55L2.7 -3.35L2.6 -3.15L2.5 -2.95L2.45 -2.85L3.25 -2.65L3.7 -2.3L3.75 -2.25L2.6 -1.55L1.65 -1.25L1.55 -1.15L-1.35 -1.3L-2.3 -1.75L-2.35 -1.75M0.65,-3.25Q0.4 -3 0.05 -3L0 -3.1L-0.1 -3.15L-0.1 -3.2L-0.15 -3.4L-0.15 -3.5L-0.2 -3.7L-0.05 -3.85L-0.05 -3.9L-0.45 -3.85Q-0.75 -3.6 -0.65 -3.2L-0.35 -2.7L-0.5 -2.6L-1.5 -2.7L-1.4 -2.65L-1.1 -2.35L-1.1 -2.2L-1.1 -2.15L-1.2 -2.1L-1.35 -2.05L-1.55 -1.95L-1.15 -1.8L-0.15 -1.45L-0.1 -1.4L0.1 -1.5L0.3 -1.75L0.4 -2.1L0.5 -2.25L0.55 -2.25L0.65 -2.25L0.65 -2.2L0.7 -2.15L0.7 -2.1L0.7 -2L0.75 -1.9L0.7 -1.7L0.65 -1.55L0.95 -1.5L1.3 -1.5L1.4 -1.6L1.4 -1.65L1.45 -1.7L1.5 -1.7L1.5 -1.75L1.45 -1.85L1.45 -1.9L1.45 -2L1.5 -2.2L1.55 -2.25L1.75 -2.15L1.8 -1.75L1.9 -1.8L2.8 -2.15L3.1 -2.25L2.65 -2.4L1.95 -2.5L1.9 -2.55L1.9 -2.6L1.75 -2.65L1.6 -2.7L1.6 -2.9L1.8 -3.05L2.05 -3.1L2.15 -3.2L2.3 -3.4L2.35 -3.45L2.35 -3.5L1.95 -3.75L1.6 -3.9L1.45 -4.05L0.95 -3.65L0.65 -3.25M-0.4,1.7L-0.45 1.6L-0.65 1.2L-0.85 0.9Q-1 0.95 -1.15 1.1L-1.15 1.15L-1.35 1.35L-1.5 1.45L-1.75 1.45L-1.8 1.3L-1.85 1.2L-1.9 1.05L-1.9 0.95L-2.6 1.2L-3.2 1.4L-3.4 1.4L-3.5 1.35L-3.45 1.3L-3.45 1.2L-3.45 1.05L-3.4 0.95L-3.4 0.9L-3.75 0.9L-5 1.3L-5.65 1.4L-5.75 1.3L-5.75 1.2L-5.65 1L-5.45 0.9L-5.35 0.85L-5.9 0.9L-6.3 0.95L-6.9 0.95L-7 0.85L-7.05 0.85L-7.25 0.85L-7.35 0.85L-7.8 0.85L-7.85 0.75L-7.8 0.65L-7.55 0.55L-7.45 0.5L-7.15 0.3L-7 0.15L-7.3 0L-8.45 0.1L-8.75 0L-8.75 -0.1L-8.65 -0.2L-8.55 -0.25L-8.75 -0.4L-8.8 -0.45Q-8.65 -0.7 -8.35 -0.75L-6.15 -0.9L-5.45 -0.9Q-5.3 -0.9 -5.25 -0.75L-5.25 -0.7L-5.3 -0.6L-5.3 -0.55L-5.35 -0.55L-5.35 -0.5L-5.3 -0.5L-4.95 -0.35L-4.85 -0.2L-4.9 -0.1L-4.6 -0.05L-4.15 -0.1L-4 -0.15L-3.7 -0.2L-3.4 -0.25L-3.15 -0.3L-3.1 -0.3L-2.8 -0.3L-2.75 -0.25L-2.55 -0.25L-2.4 -0.1L-0.25 0.1L-0.2 0.1L0 0.1L1 0.15L2.15 0.3L4.9 0L5.5 -0.25L5.4 -0.3L5.35 -0.45L5.35 -0.55L5.4 -0.6L6 -0.8L6.3 -0.9L6.35 -0.95L6.15 -1.1L6.15 -1.15L6.2 -1.2L6.3 -1.25L6.4 -1.25L7.05 -1.2L7.4 -1.2L8.25 -1.2L8.35 -1.2L8.4 -1.1L8.45 -1.05L8.55 -1L8.6 -0.95L8.7 -0.95L9 -0.75L9 -0.65L9 -0.55L8.9 -0.5L8.9 -0.45L8.05 -0.3L8.15 -0.25L8.2 -0.2L8.3 -0.15L8.3 0L8.25 0.1L8.25 0.15L8.15 0.15L7.4 0.25L7.3 0.25L7.45 0.3L7.75 0.35L7.85 0.4L7.9 0.45L7.95 0.5L7.9 0.6L7.85 0.65L7.15 0.7L6.8 0.65L3.95 0.9L3.95 0.95L4 0.95L4 1L4.05 1.1L4.05 1.15L4.05 1.2L4.05 1.25L4 1.35L3.8 1.35L3.65 1.3L3.6 1.3L3.2 1L2.9 0.85L2.75 0.9L2.7 0.95L2.65 1.05L2.6 1.1L2.5 1.4L2.45 1.55L2.4 1.65L2.1 1.65L1.95 1.6L1.9 1.55L1.15 1.2L0.6 0.95L0.55 1L0.5 1.1L0.4 1.2L0.2 1.45L0.15 1.5L-0.1 1.85L-0.35 1.75L-0.4 1.7M8.4,-3.65L8.2 -3.7L8.15 -3.75L8.15 -3.9L8.9 -4.35L9.55 -4.55L10 -4.7L10.1 -4.7L10.2 -4.65L10.25 -4.6L10.3 -4.55Q10.05 -4.1 9.4 -4L8.65 -3.75L8.6 -3.7L8.4 -3.65M7.3,-2.8L7.3 -2.7L7.1 -2.5L7 -2.4L7 -2.35L7.05 -2.3L7 -2.3L7 -2.25L6.9 -2.1Q6.4 -1.95 6 -2.1L5.95 -2.15L5.95 -2.2L5.95 -2.3L6.1 -2.5L6.1 -2.65L6.55 -2.9L6.85 -2.95L7.15 -2.95L7.3 -2.85L7.3 -2.8M5.75,0L5.35 0.35L5.8 0.4L6.65 0.3L6.65 0.25L6.65 0.15L6.7 0.05L6.9 0L7 -0.05L7.35 -0.3L7.35 -0.45L7.4 -0.55L7.45 -0.55L7.5 -0.6L7.55 -0.6L7.95 -0.7L8.05 -0.7L8.1 -0.7L7.65 -0.8L7.35 -0.85L7 -0.8L6.7 -0.8L6.65 -0.8L6.3 -0.5L5.95 -0.35L5.85 -0.15L5.75 0M3.5,0.5L3.2 0.6L3.5 0.65L3.6 0.5L3.5 0.5M2.4,0.8L2.7 0.6L2.8 0.6L2.3 0.45L0.8 0.6L0.85 0.6L2.05 1.15L2.15 1.2L2.25 1L2.3 0.95L2.3 0.9L2.4 0.8M0.4,0.55L0.05 0.5L-0.2 0.5L-2.4 0.4L-2.85 0.25L-2.9 0.2L-3.05 0.05L-3.35 0.1L-3.45 0.1L-3.55 0.15L-3.8 0.2L-4.65 0.25L-5 0.25L-5.05 0.25L-5.15 0.3L-5.2 0.3L-5.25 0.3L-5.3 0.35L-5.45 0.3L-5.5 0.25L-5.55 0.2L-5.55 0.15L-5.5 0.1L-5.45 0L-5.45 -0.05L-5.9 -0.1L-6.05 -0.1L-6.05 -0.15L-6.1 -0.2L-6.1 -0.3L-6.05 -0.45L-7.05 -0.3L-6.6 -0.25L-6.45 -0.1L-6.45 -0.05L-6.4 0L-6.45 0L-6.45 0.1L-6.5 0.1L-6.55 0.2L-6.6 0.3L-5.2 0.4L-4.6 0.55L-4.6 0.65L-4.5 0.7L-4 0.55L-3.1 0.5L-3.05 0.6L-3 0.7L-3 0.85L-2.65 0.65L-1.7 0.75L-1.55 1L-1.5 1L-1.4 0.9L-1.2 0.65L-0.95 0.5Q-0.7 0.5 -0.6 0.7L-0.35 1L-0.15 1.2L-0.1 1.1L0 0.95L0.45 0.55L0.4 0.55M-2.35,-8L-1.9 -7.95L-1.15 -8Q-0.75 -8.05 -0.7 -7.65L-0.55 -7.05Q-0.4 -6.85 -0.55 -6.7L-1.3 -7.1L-1.8 -7.2L-2.45 -6.9L-2.3 -6.55L-1.9 -6L-1.8 -5.6L-2.05 -5.65L-2.35 -5.7L-4 -5.8L-4.6 -5.65L-4.5 -5.3L-4.15 -4.8L-4.05 -4.4L-5.45 -5.25Q-5.9 -5.65 -5.75 -6.2L-5.5 -6.5L-5.2 -6.55L-5.1 -6.7L-4.65 -6.95L-4.45 -7Q-3.85 -7.75 -2.95 -7.95L-2.35 -8M-2.8,-6.8L-2.8 -6.9Q-2.85 -7.3 -2.4 -7.35L-2.15 -7.45L-2.85 -7.45L-3.05 -7.4L-3.35 -7.35L-3.6 -7.25L-3.55 -7.1L-3.25 -6.9L-3.1 -6.65L-3.1 -6.45L-4.15 -6.5Q-4.7 -6.7 -5.15 -6.25L-5.4 -6.1L-5.45 -6.05L-5.45 -5.95L-5.4 -5.8L-5.25 -5.65L-5 -5.5L-4.95 -5.45Q-5.1 -5.9 -4.65 -6.05L-2.45 -6.1L-2.7 -6.4L-2.75 -6.55L-2.8 -6.8M-9.55,-7.2L-9 -6.9L-8.6 -6.6Q-9.05 -6.4 -9.55 -6.8L-10.1 -7.2Q-10.3 -7.35 -10.1 -7.5L-9.55 -7.2M-6.7,-4.85L-6.9 -4.95L-6.9 -5.1L-6.85 -5.15L-5.7 -4.75L-4.7 -4.25L-4.15 -3.85L-4.15 -3.75L-4.2 -3.7L-4.2 -3.65L-4.25 -3.6L-4.2 -3.35L-4.4 -3.1L-4.75 -2.95L-4.95 -2.85L-4.65 -2.4L-4.55 -2.05L-4.5 -1.75L-4.6 -1.35L-4.6 -1.3L-5.85 -1.5L-6.4 -2L-6.35 -2.2L-6.05 -2.35L-5.85 -2.4L-5.65 -2.45L-5.6 -2.45L-5.75 -2.75L-5.95 -2.95L-6.15 -3.2L-6.2 -3.35L-5.55 -3.65L-5.1 -3.65L-5.6 -3.95L-6.05 -4.25L-6.4 -4.55L-6.45 -4.75L-6.7 -4.85M-5.6,-3.15L-5.6 -3.1L-5.45 -2.95L-5.45 -2.9L-5.4 -2.85L-5.3 -2.55L-5.3 -2.25L-5.35 -2.2L-5.4 -2.15L-5.55 -2.1L-5.85 -2L-5.75 -2L-5.7 -1.95L-5.3 -1.75L-4.85 -1.65L-4.85 -1.8L-4.95 -2.2L-5.15 -2.65L-5.3 -2.85L-5.35 -3.05L-5.35 -3.1L-5.35 -3.15L-5.3 -3.15L-5.25 -3.2L-5.05 -3.25L-4.9 -3.3L-5 -3.3L-5.45 -3.25L-5.65 -3.15L-5.6 -3.15" />
<path style="fill:#FFFFFF;fill-opacity:1" d="M7.05,-5.5L7.05 -5.3L7.15 -5.05L7.1 -4.7L7 -4.8L6.75 -4.95L6.8 -5.45L6.65 -5.7L6.2 -6.05L6.15 -6.15L6.15 -6.25L6.1 -6.3L6 -6.3L5.9 -6.35L6.1 -6.35L6.25 -6.3L6.35 -6.25L6.4 -6.1Q6.5 -5.95 6.75 -5.95L6.8 -5.9L6.9 -5.8L7.05 -5.5M0.95,-3.65L1.45 -4.05L1.6 -3.9L1.95 -3.75L2.35 -3.5L2.35 -3.45L2.3 -3.4L2.15 -3.2L2.05 -3.1L1.8 -3.05L1.6 -2.9L1.6 -2.7L1.75 -2.65L1.9 -2.6L1.9 -2.55L1.95 -2.5L2.65 -2.4L3.1 -2.25L2.8 -2.15L1.9 -1.8L1.8 -1.75L1.75 -2.15L1.55 -2.25L1.5 -2.2L1.45 -2L1.45 -1.9L1.45 -1.85L1.5 -1.75L1.5 -1.7L1.45 -1.7L1.4 -1.65L1.4 -1.6L1.3 -1.5L0.95 -1.5L0.65 -1.55L0.7 -1.7L0.75 -1.9L0.7 -2L0.7 -2.1L0.7 -2.15L0.65 -2.2L0.65 -2.25L0.55 -2.25L0.5 -2.25L0.4 -2.1L0.3 -1.75L0.1 -1.5L-0.1 -1.4L-0.15 -1.45L-1.15 -1.8L-1.55 -1.95L-1.35 -2.05L-1.2 -2.1L-1.1 -2.15L-1.1 -2.2L-1.1 -2.35L-1.4 -2.65L-1.5 -2.7L-0.5 -2.6L-0.35 -2.7L-0.65 -3.2Q-0.75 -3.6 -0.45 -3.85L-0.05 -3.9L-0.05 -3.85L-0.2 -3.7L-0.15 -3.5L-0.15 -3.4L-0.1 -3.2L-0.1 -3.15L0 -3.1L0.05 -3Q0.4 -3 0.65 -3.25L0.95 -3.65M5.95,-0.35L6.3 -0.5L6.65 -0.8L6.7 -0.8L7 -0.8L7.35 -0.85L7.65 -0.8L8.1 -0.7L8.05 -0.7L7.95 -0.7L7.55 -0.6L7.5 -0.6L7.45 -0.55L7.4 -0.55L7.35 -0.45L7.35 -0.3L7 -0.05L6.9 0L6.7 0.05L6.65 0.15L6.65 0.25L6.65 0.3L5.8 0.4L5.35 0.35L5.75 0L5.85 -0.1L5.85 -0.15L5.95 -0.35M3.6,0.5L3.5 0.65L3.2 0.6L3.5 0.5L3.6 0.5M2.35,0.8L2.3 0.85L2.3 0.9L2.3 0.95L2.25 1L2.15 1.2L2.05 1.15L0.85 0.6L0.8 0.6L2.3 0.45L2.8 0.6L2.7 0.6L2.4 0.8L2.35 0.8M0.45,0.55L0 0.95L-0.1 1.1L-0.15 1.2L-0.35 1L-0.6 0.7Q-0.7 0.5 -0.95 0.5L-1.2 0.65L-1.4 0.9L-1.5 1L-1.55 1L-1.7 0.75L-2.65 0.65L-3 0.85L-3 0.7L-3.05 0.6L-3.1 0.5L-4 0.55L-4.5 0.7L-4.6 0.65L-4.6 0.55L-5.2 0.4L-6.6 0.3L-6.55 0.2L-6.5 0.1L-6.45 0.1L-6.45 0L-6.4 0L-6.45 -0.05L-6.45 -0.1L-6.6 -0.25L-7.05 -0.3L-6.05 -0.45L-6.1 -0.3L-6.1 -0.2L-6.05 -0.15L-6.05 -0.1L-5.9 -0.1L-5.45 -0.05L-5.45 0L-5.5 0.1L-5.55 0.15L-5.55 0.2L-5.5 0.25L-5.45 0.3L-5.3 0.35L-5.25 0.3L-5.2 0.3L-5.15 0.3L-5.05 0.25L-5 0.25L-4.65 0.25L-3.8 0.2L-3.55 0.15L-3.45 0.1L-3.35 0.1L-3.05 0.05L-2.9 0.2L-2.85 0.25L-2.4 0.4L-0.2 0.5L0.05 0.5L0.4 0.55L0.45 0.55M-2.8,-6.75L-2.75 -6.55L-2.7 -6.4L-2.45 -6.1L-4.65 -6.05Q-5.1 -5.9 -4.95 -5.45L-5 -5.5L-5.25 -5.65L-5.4 -5.8L-5.45 -5.95L-5.45 -6.05L-5.4 -6.1L-5.15 -6.25Q-4.7 -6.7 -4.15 -6.5L-3.1 -6.45L-3.1 -6.65L-3.25 -6.9L-3.55 -7.1L-3.6 -7.25L-3.35 -7.35L-3.05 -7.4L-2.85 -7.45L-2.15 -7.45L-2.4 -7.35Q-2.85 -7.3 -2.8 -6.9L-2.8 -6.8L-2.8 -6.75M-5.65,-3.15L-5.45 -3.25L-5 -3.3L-4.9 -3.3L-5.05 -3.25L-5.25 -3.2L-5.3 -3.15L-5.35 -3.15L-5.35 -3.1L-5.35 -3.05L-5.3 -2.85L-5.15 -2.65L-4.95 -2.2L-4.85 -1.8L-4.85 -1.65L-5.3 -1.75L-5.7 -1.95L-5.75 -2L-5.85 -2L-5.55 -2.1L-5.4 -2.15L-5.35 -2.2L-5.3 -2.25L-5.3 -2.55L-5.4 -2.85L-5.45 -2.9L-5.45 -2.95L-5.6 -3.1L-5.6 -3.15L-5.65 -3.15" />
</g>
</svg>
