<?xml version="1.0" encoding="utf-8"?>
<svg version="1.1" id="Layer_1"
xmlns="http://www.w3.org/2000/svg"
xmlns:xlink="http://www.w3.org/1999/xlink"
width="103px" height="85px"
xml:space="preserve">
<g id="332" transform="matrix(1, 0, 0, 1, -5.85, 54.35)">
<path style="fill:#E2E2E2;fill-opacity:0.2" d="M71.5,-50.25L67.9 -49.1Q67.15 -48.85 67.55 -49.15L68 -49.3L68.15 -49.45L68.2 -49.5L67.7 -49.5Q56.8 -45.75 59.8 -35.55Q62.95 -25 74.35 -23.9Q88.7 -22.45 89.95 -35.8Q90.25 -39.25 88.6 -42.25Q84.35 -50 75.15 -51.1L71.5 -50.25M34.95,-54.35Q48.25 -53.6 47.3 -40.75Q46.9 -34.65 40.7 -33.2Q27.1 -30.05 20.95 -40.95Q18.85 -44.65 21.45 -48.25Q24.85 -53 31.2 -54.05L34.95 -54.35M22.6,-38.95Q30.75 -30.65 42.35 -35.35Q47.95 -37.65 46.75 -43.8Q44.75 -53.85 33.6 -53.35Q22.45 -53.6 21 -43.95Q20.55 -41.1 22.6 -38.95M37.95,-14.15Q46.3 -10.2 47.8 -2.3L47.95 -2.35L48.45 3Q48.65 5.3 47.15 6.9Q45.3 10.4 39.65 9.45Q34.3 8.55 31.3 4L29.15 0.25Q27.95 -1.1 27.5 -3.55L27.3 -4.15L27.5 -3.75L26.85 -8.3L26.85 -8.35L26.8 -8.2Q26.55 -7.45 26.6 -6.65Q25.55 -11.6 30.85 -13Q34.4 -13.95 37.95 -14.15M27.1,-8.6Q27.25 -6.2 27.95 -4.05L29.2 -0.45Q33 5.75 39.8 8.85L42.05 9Q45.75 8.05 47.2 5.75Q47.8 4.2 47.85 2.5L47.8 -0.55L47.65 -1.05Q46.45 -5.5 43.6 -9.15Q40.65 -12.95 35.9 -13.05Q28.75 -13.95 26.9 -8.55L27.1 -8.6M59.15,-36.8Q57.4 -45.15 65.75 -48.9Q70.45 -51.05 75.4 -52Q91.1 -48.95 90.45 -33.6Q90.4 -32.05 89.75 -30.55Q85.6 -20.9 74.05 -22.8Q61.6 -24.8 59.15 -36.8M85.95,-14.95Q90.55 -18.25 96.45 -19.45Q109.75 -17.9 108.5 -4.35Q107.05 11.75 90.9 13.6Q86.9 14.05 84.3 11.2Q83.25 10.05 82.35 8.7Q75.05 -2.15 83 -12.15Q84.3 -13.75 85.95 -14.95M86.9,-13.85Q78.6 -10.25 79.55 -0.9Q80.45 7.3 87.95 11.5Q92.45 14 97.05 11.35Q110.9 3.4 106.25 -11.35Q104 -18.55 96.5 -18.4Q94.75 -18.1 93.2 -17.45L89.85 -15.95L89.4 -15.75Q89.85 -15.1 86.9 -13.85M64.4,7.15Q53.85 8.25 53.15 17.8Q52.65 24.5 59.05 27.8Q68.35 32.6 71.95 23.95Q76.2 13.65 66.55 7.8Q65.5 7.15 64.4 7.15M74.4,18.8Q75.05 29 65.35 30.3Q61.4 30.8 58.05 28.55Q47.45 21.35 54.55 11Q56.05 8.75 58.65 7.6Q60.4 6.75 62.15 6.4Q73.75 7.75 74.4 18.8M14.8,7.9Q16.1 8.65 14.95 9.65L13.05 10.85L12.85 11Q13.05 11.3 12.85 11.65L12.2 12.55L12.1 12.7L12.5 12.7Q13.35 12.35 13.8 12.95Q12.9 14.6 10.75 15.4L7.05 16.1Q6.35 15.5 6.75 14.6L7.4 13.4L7.8 12.85L6.95 12.8Q6.4 12.7 5.95 12.3L5.85 12.15Q6 11.25 6.95 10.9L8.6 10.85Q10.5 9.45 12.75 8.55L14.8 7.9M10.6,10.45L9.8 10.85L9.1 11.2L8.85 11.4L8.9 11.5L9.1 11.75L9.35 12.1L9.2 13L8.6 13.8L8 14.7Q8.3 14.9 9.3 14.4Q10.15 14 11.05 13.75L10.7 13.2L10.7 12.65L11.1 12.2L10.9 12L10.8 11.85L10.7 11.5L10.7 11.3Q10.65 11.05 10.9 10.9Q11.45 10.6 11.1 10.5L10.6 10.45" />
<path style="fill:#E2E2E2;fill-opacity:0.0470588" d="M75.15,-51.1Q84.35 -50 88.6 -42.25Q90.25 -39.25 89.95 -35.8Q88.7 -22.45 74.35 -23.9Q62.95 -25 59.8 -35.55Q56.8 -45.75 67.7 -49.5L68.2 -49.5L68.15 -49.45L68 -49.3L67.55 -49.15Q67.15 -48.85 67.9 -49.1L71.5 -50.25L75.15 -51.1M21,-43.95Q22.45 -53.6 33.6 -53.35Q44.75 -53.85 46.75 -43.8Q47.95 -37.65 42.35 -35.35Q30.75 -30.65 22.6 -38.95Q20.55 -41.1 21 -43.95M26.9,-8.55Q28.75 -13.95 35.9 -13.05Q40.65 -12.95 43.6 -9.15Q46.45 -5.5 47.65 -1.05L47.8 -0.55L47.85 2.5Q47.8 4.2 47.2 5.75Q45.75 8.05 42.05 9L39.8 8.85Q33 5.75 29.2 -0.45L27.95 -4.05Q27.25 -6.2 27.1 -8.6L26.9 -8.55M89.4,-15.75L89.85 -15.95L93.2 -17.45Q94.75 -18.1 96.5 -18.4Q104 -18.55 106.25 -11.35Q110.9 3.4 97.05 11.35Q92.45 14 87.95 11.5Q80.45 7.3 79.55 -0.9Q78.6 -10.25 86.9 -13.85Q89.85 -15.1 89.4 -15.75M66.55,7.8Q76.2 13.65 71.95 23.95Q68.35 32.6 59.05 27.8Q52.65 24.5 53.15 17.8Q53.85 8.25 64.4 7.15Q65.5 7.15 66.55 7.8M11.1,10.5Q11.45 10.6 10.9 10.9Q10.65 11.05 10.7 11.3L10.7 11.5L10.8 11.85L10.9 12L11.1 12.2L10.7 12.65L10.7 13.2L11.05 13.75Q10.15 14 9.3 14.4Q8.3 14.9 8 14.7L8.6 13.8L9.2 13L9.35 12.1L9.1 11.75L8.9 11.5L8.85 11.4L9.1 11.2L9.8 10.85L10.6 10.45L11.1 10.5" />
</g>
</svg>
