<?xml version="1.0" encoding="utf-8"?>
<svg version="1.1" id="Layer_1"
xmlns="http://www.w3.org/2000/svg"
xmlns:xlink="http://www.w3.org/1999/xlink"
width="35px" height="8px"
xml:space="preserve">
<g id="770" transform="matrix(1, 0, 0, 1, 29.4, -13.8)">
<path style="fill:#000000;fill-opacity:1" d="M-17.65,17.5Q-14 15.75 -10.2 17.35L-9.85 16.95Q-8.9 16.2 -7.7 16.1Q-5.5 15.85 -4.2 13.8L-3.85 13.8L-3.6 13.9L-3.35 14.15L-3.35 14.2L-3.4 14.55L-3.65 14.95L-4.65 16.1L-5.2 17.1L-4.55 17.45Q-3.25 18.2 -1.8 18Q2.6 17.45 5.15 20.7L-12.95 21.05L-20.6 20.65L-19.35 18.8L-17.65 17.5M-26.8,19.7Q-26.05 19.3 -25.05 19.4L-24.95 19.45L-24.2 19.7L-24 19.85L-23.75 20L-23.7 20.05L-23.7 20L-23.75 20L-23.75 19.95L-23.95 19.85Q-24.15 19.6 -23.8 19.75L-23.2 20L-23 20.15L-23 20.25Q-23.05 20.95 -23.85 21.05L-28.3 21.2L-28.3 21.15L-29.15 21L-29.4 20.75L-29.3 20.6L-28.7 19.65Q-28.35 19.15 -27.7 19.3Q-27.4 19.35 -27.2 19.55L-27 19.8L-26.8 19.7" />
</g>
</svg>
