<?xml version="1.0" encoding="utf-8"?>
<svg version="1.1" id="Layer_1"
xmlns="http://www.w3.org/2000/svg"
xmlns:xlink="http://www.w3.org/1999/xlink"
width="99px" height="79px"
xml:space="preserve">
<g id="331" transform="matrix(1, 0, 0, 1, -5.15, 50.1)">
<path style="fill:#E2E2E2;fill-opacity:0.298039" d="M34.7,-50.1Q44.35 -49.35 47.9 -40.65Q51.85 -31.05 42.9 -25.85Q35.8 -21.75 29.75 -26.95Q23.5 -32.35 24.9 -40.85Q25.8 -46.6 31.15 -48.45L31.2 -48.5L31.9 -49.15L32.95 -49.65L34.7 -50.1M28.05,-29.35Q35.2 -21.45 44.15 -27.35Q47.15 -29.3 47.95 -32.8Q49.65 -40.8 43.1 -46.2Q39.25 -49.4 34.25 -49.25Q24.1 -46.55 25.15 -35.95Q25.55 -32.15 28.05 -29.35M29.65,-11.6Q32.85 -11.9 35.1 -9.95Q37.3 -8.05 38.8 -5.5L38.95 -5.15Q44.4 -3.8 44.65 2.15Q45 9.75 37.75 11.2Q30.25 12.65 28.15 5.75Q27 1.9 23.25 -0.25Q22.3 -0.8 22.1 -1.95Q21.25 -6.85 25.5 -9.85Q27.4 -11.15 29.65 -11.6M22.75,-3.25Q22.6 -1.1 24.5 0Q26.7 1.25 28 3.35L29.9 6.95Q32.2 11.9 37.9 10.35Q43.85 8.7 43.5 2.35Q43.2 -3.3 38.05 -5L37.55 -5.55Q34.9 -10.15 29.75 -10.5Q23.3 -9.9 22.75 -3.25M65.95,-45.8Q64.1 -45.05 62.6 -44.05Q62.4 -43.9 62.45 -44.1Q57.55 -37.75 61.3 -30.2Q64.2 -24.4 70.9 -23.3Q77.65 -22.2 82.5 -26.15Q90.05 -32.25 84.9 -40.1Q83.5 -42.15 81.45 -43.4Q76.15 -46.6 69.9 -46.85Q67.9 -46.6 65.95 -45.8M61.65,-28.3Q59.8 -30.5 59.4 -33.4Q57.85 -45.45 69.85 -47.8Q81.25 -47.6 86.65 -38.45Q90 -32.8 86 -27.55Q83.55 -24.3 79.7 -23.25Q68.45 -20.3 61.65 -28.3M83.7,-14.7Q72.7 -7.75 76.95 4.9Q79.05 11.25 84.9 13.6Q85.85 14 86.9 14Q95.35 13.95 100.05 7.1Q102.4 3.75 102.6 -0.35Q103.15 -10.6 94.25 -15.3Q92.6 -16.2 90.65 -16.05Q88.5 -15.75 86.5 -15L82.6 -13.6L82.4 -13.65L82.65 -13.85L83.3 -14.3L83.6 -14.6L83.7 -14.7M92.05,-17.05Q100.9 -15.15 103.1 -6.15Q105.55 4 97.95 10.9Q90.4 17.75 81.5 12.9Q80.4 12.3 79.7 11.35Q72.95 2.45 76.75 -7.55Q79.8 -15.6 88.6 -16.85L92.05 -17.05M65.1,10.2Q62.75 7.15 59.15 6.45Q50.9 7.65 49.6 16.25Q49.3 18.2 49.95 20.1Q53.25 29.7 63.2 26.5Q65.35 25.8 66.4 23.8Q70.05 16.65 65.1 10.2M58.05,5.6L59.4 5.4Q69.25 8.9 68.75 19.35Q68.45 26.5 61.6 28.05Q55.55 29.5 52.05 24.9Q45.25 15.9 53.45 8.2Q55.4 6.35 58.05 5.6M14.05,9.65L15.4 9Q16.5 8.45 16.75 8Q14.8 8.55 13 9.45Q11.2 10.35 9.65 11.55L9.35 11.75L9.6 12.25L9.5 12.8L9 13.4L8.65 13.9L11.65 13.05L14.75 11.95L15.9 11.55L15.95 11.45L15.85 11.3L15.75 11.2L15.7 11.05L15.7 10.85L15.7 10.7L14.5 11Q13.75 11.25 13.2 10.8L13.1 10.65Q13.35 10 14.05 9.65M18.3,8.2Q17.3 8.8 16.35 9.5L16.2 9.6L17.45 9.2Q17.75 9.05 18.1 9.2L18.2 9.3L18.35 9.55L18.35 9.85L19.5 9.9L19.75 10.2Q17.65 12.9 13.75 14.1Q10.2 15.2 6.75 15.55Q6.4 14.95 6.8 14.4L7.6 13.3L8.1 12.8L7.65 12.8L6.9 12.65L6.75 12.55L6.6 12.3L6.6 12.1L5.35 11.75L5.15 11.6Q6.95 10.3 9.85 9.9L10.5 10.1Q13.15 8.4 16.1 7.35L18.9 6.4Q19.8 7.35 18.3 8.2" />
<path style="fill:#E2E2E2;fill-opacity:0.0862745" d="M25.15,-35.95Q24.1 -46.55 34.25 -49.25Q39.25 -49.4 43.1 -46.2Q49.65 -40.8 47.95 -32.8Q47.15 -29.3 44.15 -27.35Q35.2 -21.45 28.05 -29.35Q25.55 -32.15 25.15 -35.95M29.75,-10.5Q34.9 -10.15 37.55 -5.55L38.05 -5Q43.2 -3.3 43.5 2.35Q43.85 8.7 37.9 10.35Q32.2 11.9 29.9 6.95L28 3.35Q26.7 1.25 24.5 0Q22.6 -1.1 22.75 -3.25Q23.3 -9.9 29.75 -10.5M69.9,-46.85Q76.15 -46.6 81.45 -43.4Q83.5 -42.15 84.9 -40.1Q90.05 -32.25 82.5 -26.15Q77.65 -22.2 70.9 -23.3Q64.2 -24.4 61.3 -30.2Q57.55 -37.75 62.45 -44.1Q62.4 -43.9 62.6 -44.05Q64.1 -45.05 65.95 -45.8Q67.9 -46.6 69.9 -46.85M83.6,-14.6L83.3 -14.3L82.65 -13.85L82.4 -13.65L82.6 -13.6L86.5 -15Q88.5 -15.75 90.65 -16.05Q92.6 -16.2 94.25 -15.3Q103.15 -10.6 102.6 -0.35Q102.4 3.75 100.05 7.1Q95.35 13.95 86.9 14Q85.85 14 84.9 13.6Q79.05 11.25 76.95 4.9Q72.7 -7.75 83.7 -14.7L83.6 -14.6M66.4,23.8Q65.35 25.8 63.2 26.5Q53.25 29.7 49.95 20.1Q49.3 18.2 49.6 16.25Q50.9 7.65 59.15 6.45Q62.75 7.15 65.1 10.2Q70.05 16.65 66.4 23.8M13.1,10.65L13.2 10.8Q13.75 11.25 14.5 11L15.7 10.7L15.7 10.85L15.7 11.05L15.75 11.2L15.85 11.3L15.95 11.45L15.9 11.55L14.75 11.95L11.65 13.05L8.65 13.9L9 13.4L9.5 12.8L9.6 12.25L9.35 11.75L9.65 11.55Q11.2 10.35 13 9.45Q14.8 8.55 16.75 8Q16.5 8.45 15.4 9L14.05 9.65Q13.35 10 13.1 10.65" />
</g>
</svg>
