<?xml version="1.0" encoding="utf-8"?>
<svg version="1.1" id="Layer_1"
xmlns="http://www.w3.org/2000/svg"
xmlns:xlink="http://www.w3.org/1999/xlink"
width="36px" height="35px"
xml:space="preserve">
<g id="1589" transform="matrix(1, 0, 0, 1, -4.85, -1.15)">
<path style="fill:#FF0100;fill-opacity:0.333333" d="M33.15,9.55Q33.05 9.7 33.3 9.8Q34.65 10.35 34.6 11.6Q35.8 12.45 37.35 12.4Q35.2 13.2 34.4 11.4L34.15 11.05L33.2 10.1Q32.3 9.4 33 8.35Q33.65 7.35 32.7 6.75Q32.25 6.5 32.5 6.25Q34.45 7.45 33.15 9.55M22.5,2.5Q23 1.55 24.05 1.15Q24.35 1.55 23.5 1.95Q22.05 2.6 23.25 3.5Q24.55 4.45 23 5.3Q21.55 6.05 22.75 7Q23.4 7.55 23.45 8.25Q21.55 7.3 22.15 5.55Q22.3 5 22.85 4.7Q24.15 4 22.7 3.2Q22.25 2.95 22.5 2.5M21.4,21L21.05 21.1Q21.45 22.1 22.35 22.4L22.15 22.4L21.5 22.25Q20.5 21.7 20.95 20.9L21.4 21M23.55,22.5L23.9 22.45Q24.5 22.35 25 22.75Q26.3 23.7 27.3 24.9Q27.75 25.45 27.45 26.05Q26.7 24.05 24.65 22.9L23.55 22.5M40.35,15Q41.2 16.5 40.3 17.9Q40.05 18.35 39.45 18.3L39.45 18.35Q39.9 19.65 38.95 20.4L38.5 20.5L37 20.1L39.1 19.85L39.2 19.65Q38.85 18.4 39.65 18.05L40.1 17.7Q40.8 16.75 40.3 15.6Q40.15 15.2 40.35 15M33.15,18.1L33.2 18.15Q31.45 18.4 32.25 20.05Q32.8 21.1 32.55 22.15L32.25 22.5Q32.55 21.15 31.9 19.65Q31.35 18.4 32.7 17.85Q33 17.85 33.15 18.1M11.95,10.1L12.1 10.5Q10.35 8.8 10.15 6.2L10.2 6.15L11.3 8.75L11.95 10.1M5.9,13.45Q7.25 11.55 9.8 11.5L10.15 11.45Q10.2 12.15 8.7 12.2Q7.4 12.25 6.5 13.2L5.9 13.45M5.35,24.1Q4.35 22.25 5.3 20.2L5.35 20.2L5.25 22.1L5.35 24.1M14.05,34.45L14.05 34.4L14.15 34.3L14.35 34.3Q16.55 34.6 18.35 35.85L18.75 35.85L20.6 34.55Q19.8 36.6 17.7 35.85L16.9 35.45Q15.6 34.55 14.05 34.45M7.15,28.65L7.15 28.7Q5.1 30.3 7.5 31.75Q8.1 32.1 7.9 32.75Q7.3 31.6 6.1 30.6L5.9 30.15Q6 29.1 6.9 28.55L7.15 28.65M37.15,26.85L37.3 25.9L37.4 25.6Q38.3 27.3 36.4 28L36.2 28.25L35.85 29.35Q35.45 28.35 36.45 27.55L37.15 26.85M32.35,27.55L29.85 27.15Q28.45 27.2 28.5 26.3Q29.8 26.9 31.65 27.05L32.1 27.2L32.35 27.55M34.7,34.15L35.3 34.2L35.6 34.25Q34.25 35.05 32.95 33.75Q31.55 32.3 29.4 32.65L29.35 32.6L30.75 32.35Q32.9 32.8 34.7 34.15" />
</g>
</svg>
