<?xml version="1.0" encoding="utf-8"?>
<svg version="1.1" id="Layer_1"
xmlns="http://www.w3.org/2000/svg"
xmlns:xlink="http://www.w3.org/1999/xlink"
width="183px" height="15px"
xml:space="preserve">
<g id="1704" transform="matrix(1, 0, 0, 1, -2.2, -19.75)">
<path style="fill:#E9B669;fill-opacity:1" d="M181.2,28.25L184.8 28.4L181.9 30.55L182.8 34L179.9 31.9L176.9 33.85L178 30.45L175.2 28.15L178.8 28.15L180.1 24.8L181.2 28.25M171.8,25.5L167.6 28.6L168.95 33.65L164.7 30.55L160.35 33.4L161.95 28.45L157.9 25.15L163.1 25.15L165 20.3L166.6 25.25L171.8 25.5M29.1,24.6L25.05 27.9L26.65 32.85L22.3 30L18.05 33.1L19.4 28.05L15.2 24.95L20.4 24.7L22 19.75L23.9 24.6L29.1 24.6M5.8,27.7L6.9 24.25L8.2 27.6L11.8 27.6L9 29.9L10.1 33.3L7.1 31.35L4.2 33.45L5.1 30L2.2 27.85L5.8 27.7" />
</g>
</svg>
