<?xml version="1.0" encoding="utf-8"?>
<svg version="1.1" id="Layer_1"
xmlns="http://www.w3.org/2000/svg"
xmlns:xlink="http://www.w3.org/1999/xlink"
width="25px" height="13px"
xml:space="preserve">
<g id="961" transform="matrix(1, 0, 0, 1, 5, 4.9)">
<path style="fill:#000000;fill-opacity:0.85098" d="M9.05,-3.15L8.35 -2.8L6.55 -2.75Q6.35 -2.8 6.1 -2.95L6.1 -3.05L6.05 -3.4L6.1 -3.75L6.25 -4.15L6.75 -4.65L7.15 -4.9L8.95 -4.4Q10.05 -3.75 9.05 -3.15M12.4,-2.25Q14.65 -2.55 15.05 -0.45Q15.2 0.6 14.15 1.1Q12.3 2.05 10.95 0.55Q10.05 -0.45 11.05 -1.45Q11.6 -2.05 12.4 -2.25M17.1,-2.8Q18.5 -2.8 19.4 -1.85Q19.95 -1.3 19.35 -0.85Q18.25 0.05 16.95 -0.65Q15.45 -1.5 16.7 -2.55L17.1 -2.8M10.5,6.4L10.45 6.55L9.95 6.9L8.85 7.25Q7 7.5 6.5 6.05Q6.4 5.75 6.65 5.45L7.05 5.1L7.35 4.95L7.45 5L7.5 5.05L7.55 5.1Q8.45 4.9 9.3 5.1L9.45 5.1Q9.95 5.2 10.25 5.55Q10.55 5.9 10.5 6.4M5.25,4.25Q4.8 4.9 3.95 5.15L3.1 5.5L2.3 5.9L1.35 6.2L1.25 6.2L1.15 6.2L1.05 6.15L1 6.1L0.95 6.05L0.95 5.95L0.95 5.85L0.9 5.8L0.95 5.8L0.7 5.4L0.5 4.9L0.35 4.35L0.35 3.85L0.45 3.75L0.7 3.6L1.05 3.6L1.05 3.55L1.05 3.45L1.1 3.3L1.15 3.15L1.3 3.05Q1.65 3.1 1.65 3.45L1.65 4.05L1.65 4.6L1.65 4.7L2.1 4.15L2.6 3.7L3.35 3.05Q3.65 2.8 3.95 2.7L4.15 2.9L4.05 3.15L3.95 3.4L3.85 3.65L3.85 3.7L3.9 3.7L4.45 3.85L4.5 3.95L4.5 4L5.2 4.2L5.25 4.25M-4.7,1.75Q-4.25 1.35 -3.7 1.25Q-2.35 1.2 -2.1 2.4Q-1.95 3.05 -2.6 3.25Q-3.7 3.55 -4.65 2.85Q-5.35 2.35 -4.7 1.75" />
</g>
</svg>
