<?xml version="1.0" encoding="utf-8"?>
<svg version="1.1" id="Layer_1"
xmlns="http://www.w3.org/2000/svg"
xmlns:xlink="http://www.w3.org/1999/xlink"
width="21px" height="6px"
xml:space="preserve">
<g id="635" transform="matrix(1, 0, 0, 1, 0, 0)">
<path style="fill:#000000;fill-opacity:1" d="M20.3,3.25Q20 3.85 20 4.45L20.1 4.65L20.15 4.9L19.8 5.15L17.05 4.75L15.7 4.25L15.1 3.35Q14.7 2.65 13.9 2.65L13.65 2.95L13.35 3.25L12.85 3.25L12.15 3.2L12 3.3L11.9 3.25L9.6 3.25L9.55 3.2L8.85 3.2L7.85 3L7.5 2.55L7.5 2.25L1.25 2.25L1.05 2.2L1.05 1.8L0.05 1.8L0 1.15L0.2 0.65L12.9 0.65Q12.9 0.25 13.9 0.25L14.1 0.3L14.6 0L14.85 0L14.9 0.15L14.6 0.8L14.65 0.85L14.65 0.95L16.7 1.7L18 1.75L18.15 1.8L20.2 1.85Q20.6 2 20.6 2.35L20.3 3.25M14,0.65L13.9 0.6L13.45 0.65L14.2 0.8L14.1 0.65L14 0.65M12.25,2.45L11.75 2.4L12.1 2.85L13.05 2.9L12.65 2.5L12.55 2.6L12.2 2.75L12.15 2.65L12.25 2.45" />
</g>
</svg>
