<?xml version="1.0" encoding="utf-8"?>
<svg version="1.1" id="Layer_1"
xmlns="http://www.w3.org/2000/svg"
xmlns:xlink="http://www.w3.org/1999/xlink"
width="22px" height="22px"
xml:space="preserve">
<g id="756" transform="matrix(1, 0, 0, 1, 0, 0)">
<path style="fill:#000000;fill-opacity:0.498039" d="M15.5,22L11.55 21.45Q9.95 20.9 9.95 20.15Q9.95 19.4 11.55 18.85Q13.2 18.3 15.5 18.3Q17.8 18.3 19.4 18.85Q21.05 19.4 21.05 20.15Q21.05 20.9 19.4 21.45L15.5 22" />
<path style="fill:#000000;fill-opacity:1" d="M22,17.2L21.95 18.25L21.7 19.2L21.45 20Q21.05 20.75 20.15 20.45L19.95 19.7L19.85 18.75L19.7 18.5Q17.25 18.3 16.3 16.5L15.5 14.2L15.45 14.1L14.8 15.2Q13.85 16.65 13.8 18.55L13.8 18.8Q13.65 19.95 12.95 20.9L10.95 20.45L10.3 20.25Q9.4 19.95 9.05 19.2L9.05 19L9.2 18.7L9.25 18.6L9.3 18.5L10.15 18.35Q10.35 18.35 10.55 18.5L11.45 18.6L11.7 14.9Q11.8 13.8 12.6 13Q13.45 12.2 14.3 11.55L14.05 10.9L12.25 9.55L10.6 8.1L8.25 8.45Q7.7 8.5 6.65 7.45L5.35 6L4.6 5.7L4.15 5.2L4.25 4.4L0.85 3.25L0.7 3.15L0.8 2.85L0 2.55L0.15 2Q0.25 1.65 0.4 1.65L10.9 5.2L11.85 5.15L12 5.25L12.5 5.15L12.7 5.2L12.7 5.35L12.75 5.3L13.15 5.3Q13.35 4.85 13.65 4.7L13.75 4.65L13.75 4.6L13.25 4.65Q12.85 4.55 12.25 2.95L12.75 1.5Q12.9 0.95 13.45 0.5L13.85 0.3L14.15 0.05L15 0L15.45 0L16.05 0.1Q16.65 0.55 16.65 1.35L16.65 2.4L16.6 2.55L16.5 2.7L15.95 4.25L15.9 4.5L16 4.55L16.5 5.25Q16.8 5.5 16.95 6.4L16.9 6.95L17.05 7.6L17.9 11.7L17.75 12.3L17.8 13Q17.85 15.35 19.8 16.15L22 17.1L22 17.2M11.8,5.5L11.75 5.45L11.35 5.35L11.85 5.6L11.9 5.55L11.8 5.5" />
</g>
</svg>
