<?xml version="1.0" encoding="utf-8"?>
<svg version="1.1" id="Layer_1"
xmlns="http://www.w3.org/2000/svg"
xmlns:xlink="http://www.w3.org/1999/xlink"
width="32px" height="8px"
xml:space="preserve">
<g id="404" transform="matrix(1, 0, 0, 1, -155.35, -208.7)">
<path style="fill:#3A1D0F;fill-opacity:0.85098" d="M160.9,211.7L160.85 210.65Q160.85 209.85 161.6 209.4L162.05 209.2Q162.55 209.2 162.75 209.5Q163.1 209.45 163.25 209.8L163.25 209.85Q162.7 210.15 162.3 210.55L162.15 211.3Q161.85 212.15 162.1 212.95Q162.55 213.45 163.3 213.25L163.35 213.45L164.3 213.45L163.85 212.7L163.6 212.05L163.5 211.6L163.6 211.35L163.65 210.75L163.75 210.65Q163.8 211.7 164.35 212.5L164.95 212.9L164.85 212.7Q164.75 212.5 164.95 212.5L165.3 212.75L165.4 212.65L165.65 212.8L166.1 212.8L165.85 212.95L166.75 213.6L167.45 214.1L167.5 214.15L168.2 214L168.35 214Q169.1 213.8 169.3 214.3L169.35 214.35L169.9 214.55L170.1 214.6L171.85 214.85L171.9 214.8L172.6 215L171.35 213.85L171.6 213.65Q174.55 214.55 177.55 214.4L177.6 214.4L178 214.2L178.15 214.15Q178.8 215.1 177.9 215.55L178.1 215.55L176.35 215.9L175.85 215.95Q174.7 216.25 173.4 215.55L171.1 215L170.8 214.8L169.6 214.95Q169.3 215 169.35 214.65L165.85 215.15L165.7 215.15L165.65 215.1L165.65 215.05L165.55 214.9L164.05 215.3L163.7 215.2L165.45 214.6L162.65 214.65L162.6 214.6L162.8 214.55L162.45 214.55L160.55 214.85L160.5 214.9Q158.05 214.85 155.85 214L157.5 213.85Q157.5 213.5 157.9 213.45Q157.8 212.85 158 212.4Q157.9 211.9 158.3 211.5L158.8 211.05Q159.6 211 160 211.55L160 211.6L159.4 212L159.15 212.25Q159.6 213.3 160.55 213.8L160.8 213.9L161.8 213.7L161.85 213.5L161.25 212.8L161.15 212.8L160.9 211.7M158.15,212.8Q158.15 213.5 158.75 213.8L158.15 212.85L158.15 212.8M182.7,209.7L182.85 209.5L183 209.45Q185.3 210.25 185.5 211.6Q185.95 212.25 185.85 213.2L185.9 213.35L186.35 213.1Q186.75 214.6 184.95 214.95L183.9 215.25L183.6 215.3L182.95 215.3L182.6 215.35L181.25 215.1L179.9 214.8L179.75 214.7L179 214.45L180.05 214.3L180 214.25L179.95 214.25L179.2 214.25L182.15 212.75Q182.1 212.15 181.55 211.8L181.35 211.6L181.45 211.25L181.6 211.15Q184.05 212.65 181.7 213.95L181.5 214.05L183.8 213.8L184.5 213.25L184.7 213L184.75 212.85L184.7 212.8L184.75 212.75L184.7 212.65L184.25 212.35Q183.4 212 182.85 211.5L183 211.35L183.25 211.25Q184.15 211.4 184.7 211.7L184.6 211.55L183.3 210.45Q183.1 210.35 183.3 210.35L183.7 210.45L182.85 209.95L182.7 209.7" />
<path style="fill:#3A1D0F;fill-opacity:0.6" d="M160.45,210.2Q160.75 208.9 162 208.7L162.2 208.75L162.6 208.8L162.85 208.95L163.05 209.1L163 209.1L163.5 209.4L163.75 209.6L163.75 209.95L163.6 210.2L163.75 210.15L164.05 210.25L164.25 210.5L164.75 212L164.95 212L165.25 212.1L165.45 212.15L165.6 212.2L166.25 212.35Q166.4 212.35 166.5 212.5L166.6 212.65L167.7 213.65L168.95 213.5L169.25 213.55L169.45 213.75L169.8 213.9L169.9 213.95L171 214.15L171.05 214.15L170.95 213.75L171 213.55L171.1 213.35Q171.25 213.15 171.6 213.15L171.75 213.2L173.25 213.6L176.15 213.95L176.25 214L177.45 213.95L178 213.7L178.15 213.65L179.7 211.6Q180.85 209.85 182.85 209.55Q184.35 209.6 184.65 211.05L184.7 211.05Q187 211.4 186.85 213.75Q186.8 214.4 186.2 214.7Q183.1 216.3 179.55 215.95L178.55 215.8L178.45 215.9L178.25 216.05L175.3 216.45L174 216.25L173.95 216.2Q173.25 215.9 172.4 215.9L172.25 215.9L170.75 215.35L169.65 215.45L169.6 215.45Q169.25 215.45 169.1 215.25L169.05 215.2L165.95 215.65L165.75 215.65L165.55 215.55L165.45 215.45L163.8 215.7L163.45 215.65L163.25 215.35L163.2 215.05L162.55 215.05L160.65 215.35L160.6 215.35L158.05 215.2Q156.8 215.05 155.65 214.45L155.4 214.2L155.4 213.8Q155.45 213.6 155.65 213.55L156.5 213.3L156.8 213.3L157.25 213.3L157.3 213.2L157.55 212.45L157.55 212.4Q157.5 211.2 158.55 210.65L158.9 210.55L159.65 210.75L159.8 210.8L160.3 211.2L160.35 211.2L160.4 210.2L160.45 210.2M162.65,211.1Q162.4 211.8 162.55 212.65L162.85 212.8L163.35 212.85Q163 212.25 162.95 211.5L162.95 211.45Q162.95 210.85 163.2 210.5L162.8 210.85L162.7 211.05L162.65 211.1" />
</g>
</svg>
