<?xml version="1.0" encoding="utf-8"?>
<svg version="1.1" id="Layer_1"
xmlns="http://www.w3.org/2000/svg"
xmlns:xlink="http://www.w3.org/1999/xlink"
width="24px" height="9px"
xml:space="preserve">
<g id="915" transform="matrix(1, 0, 0, 1, 1.9, 1.3)">
<path style="fill:#100806;fill-opacity:1" d="M20.85,1.65Q19.75 2.5 18.3 2.5Q16.95 2.5 16.3 1.8Q15.9 1.35 15.9 0.95Q15.9 -0.95 18.85 -1.25Q21.75 -1.55 21.75 0.35Q21.75 0.95 20.85 1.65M12.65,5.05L12.9 4.75L13.35 4.5Q13.85 4.1 14.95 4.25Q17 4.5 17 5.75L16.7 6.35L15.95 6.8L13.3 6.8Q11.95 6.55 11.95 5.75Q11.95 5 12.4 5L12.65 5.05M10.6,4.5Q9.4 4.5 8.8 3.85L8.6 3.6Q7.6 3.25 7.4 2.95L7.3 2.3Q7.3 1.45 8.3 1.25L9.2 1.35L10.95 1.1Q13.45 1.35 13.45 2.75Q13.45 3.35 12.85 3.85Q12.05 4.5 10.6 4.5M1.85,2.8Q1.15 3.2 0.05 3.2Q-1 3.2 -1.55 2.8L-1.9 2.2Q-1.9 0.9 0.3 1Q2.45 1.1 2.45 2.1Q2.45 2.45 1.85 2.8" />
</g>
</svg>
