<?xml version="1.0" encoding="utf-8"?>
<svg version="1.1" id="Layer_1"
xmlns="http://www.w3.org/2000/svg"
xmlns:xlink="http://www.w3.org/1999/xlink"
width="17px" height="24px"
xml:space="preserve">
<g id="879" transform="matrix(1, 0, 0, 1, 2.65, -1.8)">
<path style="fill:#000000;fill-opacity:1" d="M12.15,2.5L12.65 4.55Q13 7.15 11.15 9.05L9.75 10.65L10.7 14.45Q12.9 17.75 12.5 21.1L13.85 23.1L13.8 23.9L13.75 23.9Q12.7 24.95 11.55 24.5L10.15 22.05L10 19.1L8.3 17.1L7.35 18.9Q8.15 20.45 8.4 21.8L8.35 24.05Q8.15 25.1 7.1 25.8L5.7 25.45Q5.1 25.15 5.4 24.45Q6 22.9 5.25 21.35Q4.6 19.85 4.5 18.35L5.6 15.85L4 11.65Q2.25 13.25 0.55 13.1L-2.45 9.8L-2.65 9.3Q-2.8 8.25 -1.9 7.25L-0.45 7.8L1 11.15L4.9 8.9Q4.25 8.6 4.05 8Q3.6 6.85 4 5.75Q4.7 3.95 6.6 3.9Q7.65 4.15 8.1 5Q9.05 6.7 8.85 8.35L10.55 6L10.2 4.15L9.3 3.45L9.5 2.4L10.15 1.8L12.15 2.5" />
</g>
</svg>
