<?xml version="1.0" encoding="utf-8"?>
<svg version="1.1" id="Layer_1"
xmlns="http://www.w3.org/2000/svg"
xmlns:xlink="http://www.w3.org/1999/xlink"
width="27px" height="30px"
xml:space="preserve">
<g id="435" transform="matrix(1, 0, 0, 1, 0.15, 7.7)">
<path style="fill:#000000;fill-opacity:0.4" d="M19.65,-0.45L20.45 0.05L20.9 0.55Q24.8 -0.5 26.35 2.55L26.5 3.45Q26.3 6.05 26.45 8.35L25.95 9Q22 10.75 18.35 8.5Q15.8 7 15.35 3.95Q14.75 0.1 18.75 -0.45L19.65 -0.45M9.85,-4.15Q10.5 -3.6 11.25 -3.2Q13 -2.25 13.5 -0.7L13.65 0.65Q13.65 1.4 13.95 2.05L13.9 2.15L12.6 3.2L12.25 3.4L11.85 3.65Q10.95 4.3 9.85 4.25Q7.5 4.15 6.1 2.5L5.9 2.4L5.7 2.45L4.1 2.4L3.9 2.2Q2.8 2.25 2.05 1.15Q1.15 -0.1 1.45 -1.7Q2 -4.8 4.9 -5.55L5.1 -5.6Q7.9 -6 9.85 -4.15M13.2,2.05L13.2 2L13.2 1.9L13.2 2.05M15.4,10.75Q13.6 12.55 10.95 13.1Q7.3 13.9 4.6 11.6Q4.2 11.25 3.65 11.15Q0 10.3 2.35 7.7Q2.9 7.1 3.8 6.9L4.4 6.7L6.05 6.8Q6.65 6.85 6.8 7.4L6.8 7.5L14.9 8.9Q16.8 9.35 15.4 10.75M1.55,14.5L1.7 14.55L2 15.05L2.25 15.65L2.75 16.05L4.05 16Q4.5 16.15 4.55 16.7L4.55 17.15L6.5 18.15L9 19.15L9.4 19.4L9.45 20.05L9.05 20.85L8.65 21.3L8.4 21.4L8.2 21.35L8.15 21.25L8 21.1L7.95 20.9Q6.3 21.55 4.95 20.5Q3.7 19.5 2.15 19.2L1.8 19.15L1.6 18.95L1.3 18.75L0.9 18.4L0.9 18.35L0.9 18.25L1 18.1L1.15 17.95L1 16.95L1 16L0.95 15.2Q0.9 14.65 1.3 14.5L1.55 14.5" />
<path style="fill:#000000;fill-opacity:0.4" d="M4.75,-7.7Q12.85 -8.1 11.65 -1.3Q11.2 1.3 8.45 1.25Q3.4 1.1 3.1 -4.2Q2.95 -6.4 4.75 -7.7M22.3,10.1Q18.45 11.5 15.55 8.3Q14.2 6.85 15.15 4.95Q16.55 2.25 19.7 2.3Q26.25 2.8 23.8 8.7Q23.4 9.7 22.3 10.1M6.65,8.75Q12.95 9.4 10.2 15.1Q9.2 17.15 6.8 16.4Q2.8 15.1 4.1 11.15Q4.7 9.3 6.65 8.75M1.4,18L2.2 18.85L2.4 19.8L0.7 19.85Q-0.1 19.3 -0.15 18.45Q-0.15 17.9 0.4 17.85L1.4 18M4.6,20.4L5.85 20.05L6.1 19.95L7.95 20.05L8.4 20.2L8.55 20.35L8.75 20.65L8.9 21.05L9 21.5L8.8 21.7L4.5 21.8Q4.05 21.6 4.1 21.15L4.1 21Q4.1 20.55 4.6 20.4" />
</g>
</svg>
