<?xml version="1.0" encoding="utf-8"?>
<svg version="1.1" id="Layer_1"
xmlns="http://www.w3.org/2000/svg"
xmlns:xlink="http://www.w3.org/1999/xlink"
width="21px" height="7px"
xml:space="preserve">
<g id="402" transform="matrix(1, 0, 0, 1, -161.2, -209.6)">
<path style="fill:#3A1D0F;fill-opacity:0.85098" d="M163.55,210.1Q164.25 211.35 164.75 213.05L165.1 213.8L165.3 214.15L177.5 214.7Q178.8 214.7 179.7 213.55Q180.3 212.75 181 212.95Q180.5 213.85 179.6 214.55Q181.45 214.1 181.1 215.2L180.8 215.4Q171.2 215.75 161.7 215.1Q163.1 214.4 164.8 214.65Q163.6 214.35 163.2 213.6Q162.7 213.25 162.6 212.7Q163.25 212.4 163.85 212.95Q163.25 211.5 163.5 210.15L163.55 210.1" />
<path style="fill:#3A1D0F;fill-opacity:0.6" d="M161.4,215.5L161.2 215.2L161.25 214.9L161.5 214.65Q162.2 214.3 163 214.15L162.8 213.9Q162.25 213.45 162.1 212.8L162.15 212.5L162.4 212.25Q162.75 212.1 163.05 212.1Q162.8 211.05 163 210.05Q163.05 209.6 163.55 209.6L163.8 209.7L164 209.85L165.25 212.9L165.55 213.55L165.65 213.7L177.5 214.2Q178.55 214.2 179.3 213.25Q180.15 212.15 181.15 212.5L181.4 212.65L181.5 212.9L181.45 213.2L180.95 213.95L181.1 214.05Q181.9 214.3 181.6 215.35L180.9 215.9L180.85 215.9Q171.2 216.25 161.7 215.6L161.4 215.5" />
</g>
</svg>
