<?xml version="1.0" encoding="utf-8"?>
<svg version="1.1" id="Layer_1"
xmlns="http://www.w3.org/2000/svg"
xmlns:xlink="http://www.w3.org/1999/xlink"
width="26px" height="25px"
xml:space="preserve">
<g id="713" transform="matrix(1, 0, 0, 1, -11.45, 5.9)">
<path style="fill:#000000;fill-opacity:1" d="M23.75,-2.95Q22.1 -2.15 20.35 -2.1L20.15 -2.15Q20.65 -3.45 22.05 -4.3Q23.15 -4.95 24.25 -5.45Q26.05 -4.05 23.75 -2.95M24.2,-2.2Q26.8 -2.2 25.5 -0.1Q24.65 1.25 23.5 0.25Q22.9 -0.25 23 -1.05Q23.05 -2.1 24.2 -2.2M26.35,-5.45L27.4 -5.9Q29.7 -5.95 29.5 -3.75Q29.45 -3.3 29.05 -3Q27.25 -1.95 25.95 -3.7L25.55 -4.55L25.6 -4.65L26.35 -5.45M31.35,3.3Q30.85 4.95 28.85 4.85Q26.8 4.8 25.35 3.2L24.75 2.25L25.25 1.25Q25.6 0.65 26.2 0.3L27.1 -0.1Q29.85 0.65 31.3 2.8L31.35 3.3M25.5,5.15Q24.15 7.25 23 5.25L22.65 4.3Q22.4 3.1 23.35 2.5Q23.55 3.2 24.2 3.85L25.45 5.05L25.5 5.15M30,5.05Q32.2 5.8 31.9 7.85Q31.4 11.05 28.1 10.3L27.3 9.8Q25.5 7.8 28.05 6.05Q28.6 5.65 29.2 5.4L29.25 5.35L29.75 5.15L29.95 5.15L30 5.05M28.95,11.35L29.15 11.25L29.35 11.15L30.15 11.15L30.25 11.2Q30.65 12.25 30.65 13.5L30.65 15.85Q30.65 16.7 30 17.3Q28.1 17.05 28.35 15.3L28.5 14.1L28.6 11.95L28.8 11.65L28.9 11.4L28.95 11.35M26.4,15L26.35 15.1L20.9 16.65Q19.9 16.95 19.3 16.2Q20.05 14.9 21.55 14.2L24.35 12.9L24.75 12.75Q25.75 12.65 26.25 13.4Q26.8 14.2 26.4 15M33.75,14.4Q34.85 14.35 35.65 15.15Q36.45 15.9 36.65 16.9L36.7 17.05L34.25 17.1L33.45 16.25Q32.7 15.1 33.75 14.4M18.95,14.6L19.3 15L19.4 15.3L15.65 17.05Q13.9 17.85 12 18.1Q11.8 18.1 11.55 17.9L11.45 17.7Q13.1 16.6 15.05 15.85L18.25 14.5L18.45 14.45L18.8 14.45L18.9 14.5L18.95 14.6M16.15,18Q16.35 17.2 17.3 17.2L17.7 17.1L18.8 17.2L19.75 17.65L19.8 17.75L19.8 17.8L19.85 18.15L19.75 18.5L19.45 18.9Q17.5 19.4 16.25 18.4L16.15 18" />
</g>
</svg>
