<?xml version="1.0" encoding="utf-8"?>
<svg version="1.1" id="Layer_1"
xmlns="http://www.w3.org/2000/svg"
xmlns:xlink="http://www.w3.org/1999/xlink"
width="10px" height="7px"
xml:space="preserve">
<g id="651" transform="matrix(1, 0, 0, 1, 1.15, 9.75)">
<path style="fill:#000000;fill-opacity:1" d="M7.75,-7.45Q8.8 -7.15 8.55 -6.2Q8.25 -5.2 4.4 -3.75Q4.3 -3.55 4.1 -3.6L4.05 -3.65L3.7 -3.8Q3.05 -4.15 1.9 -5.4L1 -6.05L0.35 -6.8L0.25 -6.85L-0.15 -6.95L-0.55 -7.7L-0.95 -8.55L-0.95 -8.6Q-1.25 -8.8 -1.05 -9.2L-0.8 -9.75L-0.35 -9.65L-0.35 -9.45L-0.15 -9.4L0.6 -9L1.55 -8.3L1.6 -8.25L1.75 -8.25L2.7 -7.25L3.95 -6.2Q4.45 -6.05 5.8 -6.85Q7.1 -7.65 7.75 -7.45" />
</g>
</svg>
