<?xml version="1.0" encoding="utf-8"?>
<svg version="1.1" id="Layer_1"
xmlns="http://www.w3.org/2000/svg"
xmlns:xlink="http://www.w3.org/1999/xlink"
width="69px" height="26px"
xml:space="preserve">
<g id="387" transform="matrix(1, 0, 0, 1, -66.9, 9.85)">
<path style="fill:#0B0B0B;fill-opacity:0.8" d="M89.05,-4.35Q95.2 -3.3 95.2 -0.4Q95.2 0.15 93.9 0.85Q92.65 1.5 91.85 1.5Q90.6 1.5 89 0.6Q87.35 -0.35 86.9 -0.35L84.85 0.1Q83.85 0.1 83.3 -0.65L82.9 -1.45Q82.9 -5.45 89.05 -4.35M106.95,8.95Q107.35 9.35 107.35 10.5Q107.35 11.3 106.55 11.85Q105.7 12.45 104.45 12.45L100.05 12.1Q98.8 11.95 96.2 12.05L93.5 10.5Q92.75 10.05 92.75 9.1Q92.75 7.45 95.8 7.05L105 7.65L106.95 8.95M90.2,4.85L90.85 5.35Q90.9 6.55 88.55 7.8L85.8 9.1L85.8 9.25L87.9 11.25Q90 13.2 90 13.6Q90 14.25 89.5 14.9Q88.8 15.8 87.55 15.55L85.8 15.55Q85.4 15.5 85.3 14.95Q84.8 15.25 82.5 15.75L80.1 16.15Q79.3 16.15 78.55 15.4L77.95 14.55Q77.95 14.05 78.55 13.2L79.35 11.95L78.4 11.35Q77.15 12.8 76.4 12.8L74.2 12.35Q73.35 12.35 72.95 13.45Q72.55 14.55 71.35 14.55Q70.65 14.55 70.45 13.75L70.4 12.95Q70.4 12.2 70.55 11.95L71.5 10.75L71.55 10.65L70.25 10.45L68.75 10.4Q66.9 10.4 66.9 9.1Q66.9 7.25 71.15 4.2Q75.4 1.15 76.5 2.05L78.05 4.15L78.9 5.15L84.7 4.55L88.6 4.7L90.2 4.85" />
<path style="fill:#0B0B0B;fill-opacity:0.6" d="M100.75,-7.75Q100.75 -8.6 102.4 -9.45Q104.3 -10.4 106.4 -9.2Q107.35 -8.45 109.7 -7.45Q111 -6.9 111 -5.9Q111 -4.95 110.2 -4.2Q109.2 -3.25 107.4 -3.25Q107.15 -3.25 106.8 -3.5L106.15 -3.75Q105.15 -3.75 104.15 -3L103 -2.25Q101.1 -2.25 100.65 -3.25L100.55 -4.55L100.75 -7.75M119.8,-4.9Q119.8 -5.5 120.8 -5.7L123.8 -6.05L124.55 -5.1Q124.55 -4.8 123.95 -4.2L120.65 -4.2Q119.8 -4.6 119.8 -4.9M133.75,1.4Q135.65 1.3 135.65 2.25L135.2 3.1Q134.7 3.5 134.15 3.5L133.55 3.3L132.9 3.1L132.45 3.3L132.25 3.5L131.95 3.4Q131.8 3.35 131.8 3Q131.8 1.45 133.75 1.4M115.1,10.65Q115.1 10 117.2 9.95Q119.3 9.9 119.3 10.5Q119.3 11.75 118.5 11.75L115.6 11.5Q115.1 11.3 115.1 10.65M115.2,7.1Q114.3 7.1 112.5 5.8L110.85 4.45Q111.4 2.4 114.25 3.85Q115.7 4.6 117 5.75L116.35 6.65L115.2 7.1" />
</g>
</svg>
