<?xml version="1.0" encoding="utf-8"?>
<svg version="1.1" id="Layer_1"
xmlns="http://www.w3.org/2000/svg"
xmlns:xlink="http://www.w3.org/1999/xlink"
width="91px" height="51px"
xml:space="preserve">
<g id="364" transform="matrix(1, 0, 0, 1, 4.6, 11.45)">
<path style="fill:#3A1D0F;fill-opacity:0.85098" d="M9.65,-5.8Q7.55 -10.1 7.55 -10.55Q7.55 -11.25 7.7 -11.45L15.45 -2.85Q21.15 3.15 25.6 5.35L24.15 7.1Q25.55 8.4 25.55 9.4Q25.55 10.4 24.6 10.65L22.2 10.8L19 10.1L16.3 9.4Q15.85 9.4 15.9 9.8Q15.95 10.15 15.5 10.15Q14.5 10.15 13.5 6.1L12.1 -0.3L9.65 -5.8M83.95,25.95Q86 26.8 86.3 27.7Q85.75 28.65 84 28.85L76.6 28.9Q71.45 28.9 69.9 28.2Q69.3 27.9 69.3 27.3L70.25 26.2L75.3 25.25L81.4 24.8L83.95 25.95M85.95,7.35Q84.1 8.85 80 9.65L72.15 10.35Q71.15 10.35 68.7 8.75L65.5 6.6Q65.95 6 67.45 5.55L70 5.1L73.7 5.4L79.3 5.75L85.2 6.3Q85.7 6.55 85.95 7.35M46.45,8.95L46 10.05L45.35 10.5L44.25 10.15L43.15 9.75L41.15 10L39.1 10.45L38.45 10.25L38.25 9.5Q38.25 7.6 42.35 7.3Q46.45 7 46.45 8.95M43.05,22.4L42.8 22.9Q42.4 22.75 42.15 22.5Q42.8 19.5 50.7 18.7Q58.6 17.85 58.6 21.3L58.3 22.25L56.85 23.05L51.7 23.05L51.25 22.35L43.65 22Q43.15 22 43.05 22.4M58.05,34.45L60.45 34.1L62.9 33.7Q63.55 33.7 66.85 35.15L70.95 35.35Q74.85 35.7 76.75 36.9L74.2 38.35L72.05 38.85L52.6 38.8L46.1 39.5L45.5 39.55L42.05 39.2Q41.9 39.7 41.9 38.8Q41.9 37.6 43.7 37.95L44.15 37.7L48.9 35.5Q52.55 33.9 53.65 34L58.05 34.45M28.7,13.6L29.4 13.7Q29.4 14.2 28.9 14.7Q34.85 11.5 37.9 13.05Q40.3 14.2 40.3 17.5Q40.3 18.15 36.85 20.3Q33.25 22.55 31.5 22.55L27.65 19.5Q27.65 18.2 28.7 17.35L27.7 16.35Q27.3 15.9 27.3 15.35Q27.3 13.7 28.7 13.6M11.45,22.45Q11.1 21.75 11.1 21.3L11.2 20.35Q12.6 20.85 17.8 25.55Q22.45 29.75 26.7 30.25L26.85 30.75L24 33.95L30.55 35.1L31.9 35.5L35.05 35.15Q35.35 34.4 38.05 34.75Q40.7 35.05 41.65 35.8Q38.95 36.9 34.55 37.3L34.5 37.3L34.4 37.4L26.15 37.9L25.6 37.95Q25.3 38.2 25.55 38.4L22.75 38.5L18.85 38.2L15.4 38.1L9.2 37.65L3.8 38.2L3 38.85L-2.85 39.2L-3.7 39.35L-4.4 39.25Q-4.6 39.65 -4.6 38.8L-4.4 38.1L-4.2 37.35L0.6 35.5Q5.35 33.55 5.35 31.4Q5.35 31 8.25 29.2Q11.1 27.4 11.1 25.45Q11.1 25 11.45 24.5L11.75 23.55L11.45 22.45M17.85,34.7L16.85 33.65Q16.85 33.35 17.85 32.7L18.7 32.5Q15 30.15 10.8 32.5L7.2 34.7Q5.5 35.7 4.05 36.1L7.45 35.85L7.6 35.85L9.95 35.8L17.15 35.9Q17.15 35.15 17.85 34.7" />
</g>
</svg>
