<?xml version="1.0" encoding="utf-8"?>
<svg version="1.1" id="Layer_1"
xmlns="http://www.w3.org/2000/svg"
xmlns:xlink="http://www.w3.org/1999/xlink"
width="16px" height="12px"
xml:space="preserve">
<g id="1068" transform="matrix(1, 0, 0, 1, 6.8, 11.7)">
<path style="fill:#FFCC00;fill-opacity:1" d="M5.6,-10.4L3.95 -5.7L3.7 -5.45L3.1 -4.55L4.95 -5.2L4.75 -4.4L4.45 -4.2L3.75 -2.85L7.55 -1.9L7.1 -1L8.5 -0.15L-5.5 -0.05L-4.55 -0.2L-6.55 -1.85L-4.6 -2.05L-6.8 -3.8L-3.7 -3.8L-5.8 -5.35L-0.85 -5.4L-1.5 -7.2L-0.5 -7.15L-0.4 -9.05L-0.2 -9.6L1.25 -6.35L4.15 -10.05L4.25 -10.45L5.65 -11.7L5.6 -10.4M0,-6.45Q-0.4 -6.05 -0.65 -6.05L-0.3 -4.3L-4.5 -5.05L-2.65 -3.5L-5.15 -2.95L-3.6 -1.85L-5.45 -1.4L-3.55 -0.2L5.05 -0.5L6.4 -1.2L2.85 -2.65L3.6 -3.25L4 -4.35L2.85 -4.35L5.05 -10.25L2.15 -7L1.3 -5.3L0 -8.3L0 -6.45" />
<path style="fill:#FFFF00;fill-opacity:1" d="M3.3,-7.05L0.75 -4.7L0.5 -6.1L0.05 -3.55L-3.3 -4.35L-1.7 -3.45L-4.2 -2.7L-2.8 -2L-4.55 -1.1L-2.9 -1.15L-2.7 -0.75L5.2 -1.25L2.5 -2.7L3.15 -3.6L2.25 -3.35Q1.7 -3.35 2.15 -3.65L2.35 -3.85L3.55 -7.55L3.3 -7.05M0,-8.3L1.3 -5.3L2.15 -7L5.05 -10.25L2.85 -4.35L4 -4.35L3.6 -3.25L2.85 -2.65L6.4 -1.2L5.05 -0.5L-3.55 -0.2L-5.45 -1.4L-3.6 -1.85L-5.15 -2.95L-2.65 -3.5L-4.5 -5.05L-0.3 -4.3L-0.65 -6.05Q-0.4 -6.05 0 -6.45L0 -8.3" />
<path style="fill:#FFFFFF;fill-opacity:1" d="M3.55,-7.55L2.35 -3.85L2.15 -3.65Q1.7 -3.35 2.25 -3.35L3.15 -3.6L2.5 -2.7L5.2 -1.25L-2.7 -0.75L-2.9 -1.15L-4.55 -1.1L-2.8 -2L-4.2 -2.7L-1.7 -3.45L-3.3 -4.35L0.05 -3.55L0.5 -6.1L0.75 -4.7L3.3 -7.05L3.55 -7.55" />
</g>
</svg>
