<?xml version="1.0" encoding="utf-8"?>
<svg version="1.1" id="Layer_1"
xmlns="http://www.w3.org/2000/svg"
xmlns:xlink="http://www.w3.org/1999/xlink"
width="16px" height="12px"
xml:space="preserve">
<g id="537" transform="matrix(1, 0, 0, 1, 2.75, 14.3)">
<path style="fill:#000000;fill-opacity:1" d="M2.85,-14.3Q3.55 -12.9 3.55 -11.4Q3.55 -11.05 3.25 -11.05L3 -11.05Q3.25 -10.2 3.95 -8.9L4.6 -7.75L5.05 -8L5.55 -8L5.45 -8.05L6.2 -8.5L7.1 -8.9L7.95 -8.55L8.4 -8.4L9.55 -8.3L10.95 -7.75L11.3 -7.55L12.5 -6.5Q12.5 -5.95 11.75 -5.7L9.95 -5.1Q7.1 -4 6.6 -4L6.5 -4L4.95 -3.35L2.85 -2.75Q2.25 -2.75 0.6 -6.25L-0.85 -9.5L-1.15 -9.35L-2.05 -10.65L-2.75 -12.05L-2.2 -12.65L-1.45 -13.1Q-0.95 -13.1 0.3 -10.75L1.45 -11.15L0.85 -13.9L2.85 -14.3" />
</g>
</svg>
