<?xml version="1.0" encoding="utf-8"?>
<svg version="1.1" id="Layer_1"
xmlns="http://www.w3.org/2000/svg"
xmlns:xlink="http://www.w3.org/1999/xlink"
width="24px" height="61px"
xml:space="preserve">
<g id="413" transform="matrix(1, 0, 0, 1, -11.5, -1.7)">
<path style="fill:#000000;fill-opacity:1" d="M35.1,12.75L27.25 41.55L20.85 44.55L19.05 51.55L22.9 55.3L22.9 59.6Q18.6 63.6 15.6 61.15Q12.55 58.65 11.5 53.7L22.3 3.95L33.05 1.7L35.1 12.75M30.65,9.4L21.6 40.55L26.05 38.85L32.9 12.85L30.65 9.4" />
<path style="fill:#BD8051;fill-opacity:1" d="M25.65,4.8L23.7 13.3L27.7 14.35L27.3 15.75L23.35 14.75L22.85 16.75L26.8 17.8L26.4 19.2L22.55 18.25L22 20.5L25.9 21.5L25.5 22.9L21.65 21.95L21.2 23.95L25 24.95L24.6 26.35L20.85 25.4L20.4 27.45L24.05 28.4L23.65 29.8L20.05 28.9L19.6 30.9L23.15 31.85L22.75 33.25L19.25 32.35L14.5 52.6L21.4 56.35L21.4 57.3L13.35 53.05L23.55 5.6L25.65 4.8" />
</g>
</svg>
