<?xml version="1.0" encoding="utf-8"?>
<svg version="1.1" id="Layer_1"
xmlns="http://www.w3.org/2000/svg"
xmlns:xlink="http://www.w3.org/1999/xlink"
width="55px" height="46px"
xml:space="preserve">
<g id="1004" transform="matrix(1, 0, 0, 1, -24.05, -6.95)">
<path style="fill:#000000;fill-opacity:1" d="M50.8,22.45L50.8 32.4L49.85 33.65L48.6 34.4Q49.75 34.6 49.75 35.95L49.75 36.15L50.15 36.15L50.15 37.35L49.75 37.35L49.75 37.8L50.25 37.8L50.25 39L49.75 39L49.75 39.55L50.45 39.55L50.45 40.85L49.75 40.85L51 41.45L52.4 39.65L52.4 21.5L53.3 21.5L53.3 39.65L59.55 39.65L60.6 41.35L61.5 42.15L66.3 42.15L66.3 40.55L67.7 40.55L67.7 42.15L68.75 42.15L68.75 42.85L67.7 42.85L67.7 44.35L68.95 44.35L68.95 44.85L72.15 44.85L72.15 43.55L73.3 43.55L73.3 44.85L74.9 44.85L74.9 44.35L75.8 44.35L75.8 44.65L77.95 44.65Q79.7 45.45 77.95 46.3L75.8 46.3L75.8 46.55L74.9 46.55L74.9 46.05L73.3 46.05L73.3 47.35L72.15 47.35L72.15 46.05L68.95 46.05L68.95 46.55L65.2 46.55L65.2 46.05L63.7 46.05L63.7 47L60.75 47L60.35 48.35L57.9 49.1L58.45 49.8L61.1 49.8L61.7 50.65L58.05 50.65L56.95 49.4L53.95 50.25L51.75 50.1L51.45 52.55L45.5 52.55L44.25 51.1L34.3 50.15L32 47.1L29.7 47.1L26.3 44.95L39.95 44.95L40.6 39.65L40.6 21.5L41.5 21.5L41.5 39.65L42.6 41.3L43.85 40.85L43.15 40.85L43.15 39.55L43.85 39.55L43.85 39L43.35 39L43.35 37.8L43.85 37.8L43.85 37.35L43.45 37.35L43.45 36.15L43.85 36.15L43.85 35.95Q43.85 34.35 45.45 34.35L46.8 34.35L49.05 33.05L49.9 31.75L49.9 22.3L50.8 22.45M44.15,47.1L50.6 47.1L51.15 47.5L50.4 51.5L46.4 51.55L43.35 47.3L44.15 47.1M42.75,47.1L46 51.95L50.7 51.9L51.55 47.4L50.9 46.65L43.75 46.65L42.75 47.1M63.7,44.85L65.2 44.85L65.2 44.35L66.3 44.35L66.3 42.85L61.85 42.85L61.55 43.9L63.7 43.9L63.7 44.85M32.95,47.1L34.6 49.4L35.95 47.1L32.95 47.1M35.4,49.5L37.5 49.7L38.7 47.1L36.9 47.1L35.4 49.5M43.95,50.25L42.5 48.2L41.7 50.05L43.95 50.25M41.7,47.1L39.55 47.1L38.4 49.75L40.65 49.95L41.7 47.1" />
<path style="fill:#BD8051;fill-opacity:1" d="M43.35,47.3L46.4 51.55L50.4 51.5L51.15 47.5L50.6 47.1L44.15 47.1L43.35 47.3M43.75,46.65L50.9 46.65L51.55 47.4L50.7 51.9L46 51.95L42.75 47.1L43.75 46.65" />
<path style="fill:#000000;fill-opacity:1" d="M35.55,36.55Q36.4 37.6 35.05 39.05L35.05 39.4L36.35 39.4L37.15 41.7L38.8 41.7L38.8 42.05L40.25 42.05L40.25 42.75L38.8 42.75L38.8 43.1L36.35 43.1L37.8 44.95L29.9 44.95L30.15 43.05Q29.3 42.8 28.6 42.1Q27.5 41 27.5 39.4L27.55 39.05Q27.65 38.15 28.7 37.4Q29.75 36.6 32.25 36.05Q34.7 35.45 35.55 36.55" />
<path style="fill:#000000;fill-opacity:1" d="M55.5,7.85L55.8 7.85L56.1 7.85L56.1 6.95L57.2 7L58.05 7.05L58.35 7.05L58.35 8.1Q66.6 10 70.4 14.65Q69.1 18.4 58.35 21.95L58.35 22.95L58.05 23L57.2 23.05L56.1 23.1L56.1 22.25L55.8 22.25L55.5 22.3L51.1 22.45L42.45 22.4L38.95 22.3L38.6 22.25L38.35 22.25L38.35 23.1L37.25 23.05L36.4 23L36.1 22.95L36.1 21.95Q25.3 18.4 24.05 14.65Q27.85 10 36.1 8.1L36.1 7.05L36.4 7.05L37.25 7L38.35 6.95L38.35 7.85L38.6 7.85L38.95 7.85L42.45 7.7L51.1 7.65L55.5 7.85M57.4,7.4L57.4 22.6L57.95 22.6L57.95 7.4L57.4 7.4M36.5,7.4L36.5 22.6L37.05 22.6L37.05 7.4L36.5 7.4" />
<path style="fill:#BD8051;fill-opacity:1" d="M57.95,7.4L57.95 22.6L57.4 22.6L57.4 7.4L57.95 7.4M37.05,7.4L37.05 22.6L36.5 22.6L36.5 7.4L37.05 7.4" />
</g>
</svg>
