<?xml version="1.0" encoding="utf-8"?>
<svg version="1.1" id="Layer_1"
xmlns="http://www.w3.org/2000/svg"
xmlns:xlink="http://www.w3.org/1999/xlink"
width="17px" height="8px"
xml:space="preserve">
<g id="1194" transform="matrix(1, 0, 0, 1, 24.95, -11)">
<path style="fill:#A6A6A6;fill-opacity:0.694118" d="M-19.4,12.1Q-20.1 11.9 -20.25 11.25Q-18.8 11.25 -17.35 12.4Q-17.2 12 -16.3 11.9L-15.5 12Q-14.75 11.6 -13.05 11.4Q-9.65 10.85 -9.1 12Q-8.8 12.6 -9.2 13.3L-9 13.8L-8.85 14.3Q-8.85 15.55 -9.65 16.8Q-10.5 18.2 -11.55 18.2Q-12.5 18.2 -13.95 17.1L-14.4 16.9L-14.55 17.4L-16 17.75L-15.95 17.75L-15.9 18Q-15.95 18.2 -16.25 18.2L-17.6 17.75L-18.3 17.5L-18.65 17.35L-18.75 17.25L-18.9 17.1L-19.05 17.1L-19.05 17L-19.25 16.55L-19.2 16.35L-19.6 15.45L-19.8 15.9L-19.9 16.45L-19.8 16.85Q-19.8 17.55 -20.5 17.55Q-22.55 17.55 -23.95 15.95Q-24.65 15.15 -24.95 14.25Q-23.55 13.95 -21.75 14.9Q-21.7 13.85 -20.8 14.05L-20.55 14.15L-20.7 13.95Q-21.15 13.25 -20.7 13.05L-21.45 12.75Q-21.65 12.55 -21.45 12.15Q-21.65 11.9 -23.6 11.4L-23.6 11Q-20.45 11.4 -19.65 12.1Q-19.05 12.55 -19.05 14L-19.4 15.05L-19.55 15.3Q-19.2 15.35 -18.85 15.55L-18.95 15.3Q-18.95 14.9 -18.75 14.9L-17.85 14.7L-18.15 14.1Q-18.15 13.6 -17.8 13.6L-17.25 13.5L-18.65 12.95L-18.75 12.35Q-18.75 12.25 -19.4 12.1M-12,14.8Q-12 14.45 -12.9 13.45L-13.65 12.4L-14.2 12.6L-13.5 13.2L-14.4 12.75L-14.65 13.2L-14.85 13.7L-15.5 13.7L-16.25 13.45Q-15.7 14.1 -15.45 14.85L-14.95 15.35L-14.65 15.55L-14.15 15.45Q-13.8 15.45 -13.75 15.9Q-13.7 16.35 -13.45 16.35Q-12.45 16.35 -12.45 15.5L-12.2 15.2L-12 14.8M-21.45,16.4L-21.4 16.4L-21.45 16.4" />
</g>
</svg>
