<?xml version="1.0" encoding="utf-8"?>
<svg version="1.1" id="Layer_1"
xmlns="http://www.w3.org/2000/svg"
xmlns:xlink="http://www.w3.org/1999/xlink"
width="12px" height="6px"
xml:space="preserve">
<g id="922" transform="matrix(1, 0, 0, 1, -1.15, 0.95)">
<path style="fill:#100806;fill-opacity:1" d="M9.65,-0.95L10.15 -0.8Q11.5 -0.8 12.2 -0.1Q12.75 0.45 12.75 1.05L12.25 2.15Q11.65 2.8 10.9 2.8Q9.65 2.8 8.7 1.85Q7.9 1.05 7.9 0.55Q7.9 0 8.25 -0.4Q8.7 -0.95 9.65 -0.95M7.1,4.55L5.75 4L4.65 3.4Q4.5 3.4 4.15 3.7L3.55 4Q2.55 4 1.8 3.45L1.15 2.65Q1.15 -0.2 4.9 0.85Q8.6 1.85 8.6 3.45Q8.6 4.55 7.1 4.55" />
</g>
</svg>
