<?xml version="1.0" encoding="utf-8"?>
<svg version="1.1" id="Layer_1"
xmlns="http://www.w3.org/2000/svg"
xmlns:xlink="http://www.w3.org/1999/xlink"
width="16px" height="20px"
xml:space="preserve">
<g id="1306" transform="matrix(1, 0, 0, 1, 8.15, 19.65)">
<path style="fill:#7E0000;fill-opacity:1" d="M0.25,-16.35Q0.05 -17.45 -0.4 -18.35Q-1 -19.65 0.65 -19.65Q1.25 -19.4 1.2 -18.75Q0.85 -14.05 0.8 -9.05L0.6 -2.95L0.75 -2.75L0.8 -2.9L1.4 -4.5Q1.6 -5.2 2.25 -5.45L2.4 -5.95L3 -8.25L3.2 -9.2L3.2 -9.25Q3.05 -10.65 4.35 -10.9L4.65 -10.65Q5.2 -9.25 4.4 -7.85L3.35 -5.65L3.25 -5.4L1.95 -1.75L3.05 -1.8Q4.2 -1.85 4.85 -2.7L5 -2.1L4.85 -1.65L4.8 -1.5L4.9 -1.5Q5.8 -1.75 5.95 -2.4Q6.05 -3.25 7.05 -3.25L7.15 -3.2L7.4 -3.15L7.5 -3L7.5 -2.7Q7.1 -1.75 6.2 -1.1Q5.4 -0.6 5.2 0.15L-4.9 0.25L-4.95 0.1L-4.95 -0.15Q-5.8 -0.25 -6.45 -0.7Q-6.8 -0.85 -6.75 -1.1L-6.55 -1.3L-4 -1.8Q-4.6 -3.7 -2.9 -2.65L-2.45 -2.35Q-2.5 -3.55 -3.3 -4.55Q-4.2 -5.6 -3.85 -6.8L-3.75 -6.85L-3.6 -6.85L-3.3 -6.95L-3.2 -6.8Q-3 -5.3 -2 -3.95Q-1.25 -2.95 -1.35 -2.05L-0.05 -1.85L-0.05 -9.45Q-0.05 -12.85 0.3 -16.25L0.25 -16.35M6.8,-7.8L6.95 -7.7Q6.95 -7.65 7.05 -7.65L7.1 -7.6L7.1 -7.3Q6.8 -6.4 6.15 -5.6Q5.4 -4.6 4.55 -4.5L4.55 -4.6L5.25 -6.5Q5.5 -7.6 6.8 -7.8M-7.45,-7.5L-6.9 -7L-5.85 -5.6Q-5.2 -4.9 -5.05 -4.05Q-5.25 -3.8 -5.45 -4.05Q-6.25 -4.9 -7.25 -5.5Q-8.4 -6.25 -8.05 -7.35L-7.8 -7.4L-7.45 -7.5" />
<path style="fill:#FFCBCB;fill-opacity:1" d="M0.25,-19.55L0.4 -19.65L0.6 -19.45L0.95 -18.7L0.9 -18.05L0.7 -18.05L0.55 -18.05Q0.55 -15.95 0.7 -13.8L0.55 -9.35L0.45 -9.55L0.55 -14L0.45 -18.1Q0.05 -18.2 0 -18.7Q-0.1 -19.2 0.15 -19.55L0.25 -19.55M5.55,-6.3L5.8 -6.95L6.45 -7.45L6.5 -7.3Q6.65 -6.95 6.3 -6.6L5.6 -6.2L5.55 -6.3M3.6,-7.8L2.45 -5.05L1.7 -2.45L1.65 -2.55L2.45 -5.25L3.55 -7.85L3.6 -7.8M4.35,-9.7Q4.35 -9.15 3.8 -9L3.7 -9.05Q3.2 -9.35 3.5 -9.95Q3.7 -10.5 4.25 -10.7L4.35 -10.55L4.35 -9.7M1.2,-2.35L1.3 -2.55L1.35 -2.55L1.35 -2.3L1.3 -2.1L1.3 -2.2L1.2 -2.35M4.65,-2.2L4.6 -1.5L4.1 -1.1L4.05 -1.2L4.3 -1.75L4.6 -2.2L4.65 -2.2M6.85,-3.1L7 -3L7.05 -2.85L6.75 -2.35Q6.55 -2.05 6.2 -2.1L6.2 -2.25L6.45 -2.75L6.8 -3.15L6.85 -3.1M-3.45,-6.35L-2.95 -5.55Q-2.85 -5.2 -3.15 -4.85L-3.25 -4.95L-3.65 -5.6Q-3.85 -6.1 -3.5 -6.35L-3.45 -6.35M-7.55,-6.55Q-8.05 -7 -7.6 -7.25L-7.55 -7.25L-7 -6.85L-6.7 -6.2Q-7.2 -6.15 -7.55 -6.55M-5.25,-1.55Q-4.7 -1.65 -4.45 -1.25L-4.4 -1.15Q-4.7 -0.9 -5.25 -0.95Q-5.7 -1 -5.85 -1.3L-5.75 -1.45L-5.5 -1.55L-5.25 -1.55M-3.35,-2.65L-2.95 -2.35Q-2.6 -2.1 -2.85 -1.9L-2.9 -1.8L-2.55 -1.5L-2.35 -0.7L-2.9 -1.4L-3.25 -1.8L-3.35 -1.95L-3.8 -2.35L-3.8 -2.55L-3.7 -2.6L-3.7 -2.65L-3.65 -2.65L-3.5 -2.75L-3.35 -2.65" />
</g>
</svg>
