<?xml version="1.0" encoding="utf-8"?>
<svg version="1.1" id="Layer_1"
xmlns="http://www.w3.org/2000/svg"
xmlns:xlink="http://www.w3.org/1999/xlink"
width="26px" height="12px"
xml:space="preserve">
<g id="907" transform="matrix(1, 0, 0, 1, 12.95, 5.95)">
<path style="fill:#000000;fill-opacity:1" d="M8.15,-4.15L6.2 -4.35L6.15 -4.5L6.05 -4.8L5.95 -5.05L6 -5.25L6.25 -5.75L6.55 -5.95L7.1 -5.9L7.8 -5.65L8.3 -5.3L8.75 -4.8L8.7 -4.5Q8.5 -4.25 8.15 -4.15M12.9,2.85L12.95 2.9L12.7 3.25L11.4 3.6Q10.65 3.6 10.45 2.85L10.1 2.5L10.1 2.4L10.1 2.3L10.1 2.2L10.1 2.1L10.1 2.05L10.15 1.95L10.2 1.9L10.3 1.8L10.4 1.75L10.55 1.7L10.7 1.6L10.9 1.5L11.4 1.55L11.85 1.7L12.25 1.9L12.6 2.15L12.7 2.25L12.7 2.3L12.7 2.45L12.7 2.5L12.7 2.6L12.8 2.7L12.9 2.75L12.9 2.85M3.75,2.95L2.95 3.4L2.75 3.5L2.85 3.55L3.1 3.75L3.5 3.95L3.85 4.2L3.9 4.3L3.85 4.55L3.3 4.85L3 5.1L2.7 5.6L2.45 5.9L1 5.6L-0.15 5.05L-1 4.25L-1.1 3.95L-1.35 3.7L-3.85 3.65L-3.95 3.7L-4.15 3.9L-4.3 4.3L-4.25 4.6L-4.3 5.15L-4.5 5.7L-5.9 5.9L-7.25 5.45L-7.45 5.35L-7.5 5.3L-7.5 5.25L-7.5 5.15L-7.5 5.05L-7.5 4.95L-7.5 4.85L-7.5 4.7L-7.5 4.65L-7.3 4.5L-7 4.3L-6.75 3.95L-6.6 3.75L-6.25 3.3L-6.2 3.25L-6.2 3.15L-6.9 2.95Q-7.45 2.75 -7.95 2.95L-7.95 3L-8 3.05L-8.1 3.15L-8.15 3.3L-8.15 3.4L-8.15 3.5L-8.2 3.65L-8.2 3.75L-9.45 4L-10.8 4.4Q-11.45 4.65 -12.15 4.4L-12.25 4.35L-12.25 4.25L-12.25 4.15L-12.3 4L-12.45 4L-12.6 3.9L-12.7 3.85L-12.85 3.8L-12.9 3.75L-12.95 3.7Q-12.9 3.3 -12.5 3.1L-11 2.75Q-10.3 2.7 -9.85 2.3L-9.55 1.75L-9 1.15L-7.85 0.4L-7.35 0.2L-6.8 0.25L-6.7 0.3L-6.15 0.35L-6 0.4L-4.35 0.2L-3.25 -0.15L-3.3 -0.3L-3.35 -0.5L-3.35 -0.75L-3.35 -0.9L-3.35 -1.05L-3.25 -1.3L-3.1 -1.4L-2.6 -1.35L-2.15 -1.2L-1.6 -0.9L-1 -0.8L-0.9 -0.75L-0.9 -0.65L-0.85 -0.65L-0.8 -0.45L-0.75 -0.35L-0.75 -0.1L-0.75 -0.05L-0.75 0.05L-0.75 0.15L1.55 0.05L3.65 0.1L4.4 0.5L4.55 0.65L4.6 1.15L4.55 1.8L4.15 2.75L3.95 2.8L3.75 2.95M-10.15,-3.4L-9.95 -3.4L-9.75 -3.35Q-9.4 -3.1 -9.5 -2.6Q-9.6 -2.05 -10.15 -1.75L-11.25 -1.55Q-11.65 -1.6 -11.8 -1.9L-11.65 -2.3L-10.9 -2.95L-10.15 -3.4" />
</g>
</svg>
