<?xml version="1.0" encoding="utf-8"?>
<svg version="1.1" id="Layer_1"
xmlns="http://www.w3.org/2000/svg"
xmlns:xlink="http://www.w3.org/1999/xlink"
width="18px" height="24px"
xml:space="preserve">
<g id="758" transform="matrix(1, 0, 0, 1, 0, 4.45)">
<path style="fill:#000000;fill-opacity:1" d="M0.7,-4.05Q1.15 -4.4 1.75 -4.4L1.95 -4.45Q3.25 -1.65 4.9 1.15L5.9 2.95L7.1 2.55L8.5 1.55Q7.5 0.8 8.4 -0.35Q8.95 -1.15 9.8 -1.45Q12.75 -1.1 11.4 1.2L10.75 1.9L13.55 4.85Q14.4 5.7 13.85 6.95L13.55 7.65L13.45 7.9L13.2 8.55L13.25 8.6Q13.9 8.95 13.35 9.8L12.75 10.45L13.8 12.5Q15.1 14.5 17.5 15.75L17.7 15.9L16.35 17.7L15.65 18.35Q15.1 18.75 14.65 18.6L14.45 18.65Q14.1 18.7 13.9 18.45Q13.25 17.65 14.05 16.6L13.7 16.4L11.4 17.8L10.35 17.85L9.75 17.4Q11.65 15.15 10.35 12.6Q9.45 10.75 9.05 8.75Q8.4 7.6 8.15 6.25L8 5.05L7.05 4.75L6.75 4.6L7.55 6.8L7.6 7.05L6.85 7.55L6.4 7.55L6.25 7.2Q4.2 7.7 3.55 5.4Q3.25 4.35 3.35 3.5L2.55 3Q1.35 2.15 0 1.55L0 1.4L0.05 1.1L0.3 0.75L0.55 0.5L0.65 0.45Q1.95 0.65 3.05 1.45L3.8 2L3.75 1.85Q2.5 -1.1 0.85 -3.75L0.7 -4.05M11.85,6.2L12.05 7L12.3 6.35L11.85 6.2" />
</g>
</svg>
