<?xml version="1.0" encoding="utf-8"?>
<svg version="1.1" id="Layer_1"
xmlns="http://www.w3.org/2000/svg"
xmlns:xlink="http://www.w3.org/1999/xlink"
width="37px" height="41px"
xml:space="preserve">
<g id="428" transform="matrix(1, 0, 0, 1, 2.95, 19.5)">
<path style="fill:#000000;fill-opacity:0.4" d="M13.45,-15.3Q11.05 -9.95 5.1 -12.65Q3.05 -13.6 1.25 -12.4Q0.15 -11.65 -0.85 -12.55Q-3.4 -14.9 -0.05 -16.1Q3.7 -17.5 7.8 -17.35L8 -17.55L8.45 -18.1L8.9 -18.65L10 -19.45L10.15 -19.5Q15.2 -19.25 13.45 -15.3M14.4,-2.65Q16.95 -2.2 17.95 0.05L19.55 3.15L19.5 3.3L18.95 4.05L18.25 4.55L17.8 4.8L17.7 4.9L17.55 5L17.4 5.05L16.3 4.95Q15.45 4.3 15.35 3.25Q15.05 1.4 13.45 0.55Q9.7 -1.5 8.1 2.1L7.8 2.8Q5.95 3.35 5.25 1.75Q4.65 0.35 5.75 -0.75Q7.8 -2.85 10.7 -3.1L14.4 -2.65M29.05,-5.85L30.95 -7.7L31.45 -8Q32.35 -7.4 32.55 -6Q32.75 -4.7 32.15 -3.45L31.2 -2.25Q27.85 -1.7 28.4 -4.65Q28.5 -5.3 29.05 -5.85M27.35,-7.45L27.9 -7.05Q27.15 -5 25.3 -3.6Q22.9 -1.8 22.1 -4.15Q21.9 -4.75 22.4 -5.45Q23.6 -7.05 25.45 -7.8L26.4 -7.75Q26.85 -7.55 27.35 -7.45M18.45,11.25L18.7 11.1Q20.95 11.15 20.7 13.4Q20.45 15.3 18.9 16.45L17.2 17.7Q16.7 17.9 16.35 17.5L15.35 16.6L14.6 15.55Q14.6 15.1 14.9 14.75L16.2 13.35L17.4 12.4L17.5 12.25L17.5 12.15L17.55 11.85L17.6 11.7L17.8 11.6L18.45 11.25M2.5,5.25L3.05 5.05L3.45 5.1L3.7 5.15L3.9 5.3L4.35 6.3L4.55 7.7Q4.6 8.45 5 9L5.05 9.1L4.95 9.4L4.9 9.7L4.65 10.1Q3.65 10.35 2.9 10.85L1.75 11.1L1.05 10.6L0.5 9.6L0.2 9.1L0.05 9.2L-0.15 9.3L-0.6 9.25L-0.8 9.05L-0.8 8.25L-0.55 7.2L-0.45 6.05L-0.45 5.9L-0.3 5.75L-0.15 5.6L0 5.5L0.3 5.4L0.6 5.45L1 5.65L1.45 6.05L1.8 5.85L2.5 5.25M9.95,17.7L10.2 17.7L10.4 17.8L10.65 18.1L10.75 18.2L12.4 18.15Q12.85 18.15 13.2 18.45L13.45 19.05Q12.4 20.45 10.45 20.75L6.3 20.65L6.25 20.6Q6.25 20 6.7 19.6Q7.35 19 8.15 18.65L9.95 17.7M-1,-14.5L-1.05 -14.4L-0.9 -14L-0.9 -14.15L-1 -14.5" />
<path style="fill:#000000;fill-opacity:0.4" d="M8.65,-13.5Q7.55 -16.6 10.4 -18.7L11.55 -19.2Q18.7 -19.1 16.6 -12.7Q16.25 -11.55 15.15 -11.05Q10.3 -8.7 8.65 -13.5M0.6,-11Q-2.25 -10.5 -2.9 -13L-2.95 -13.15L-2.9 -13.3L-2.55 -13.9L-1.9 -14.4L-0.95 -15Q1.95 -15.1 2 -12.5Q2 -11.25 0.6 -11M28,-9Q29.1 -9.9 30.5 -10.3Q33.3 -9.9 33.4 -7.15Q33.55 -4.8 31.15 -4.9Q29.3 -4.95 27.65 -5.55Q27.3 -6.15 27.25 -6.85Q27.1 -8.25 28 -9M25.45,-6.75Q22.95 -5.15 21.8 -7.7Q21.3 -8.7 22.25 -9.4L22.55 -9.55L23.9 -9.45L25.25 -8.9L25.95 -8.35Q26.35 -7.35 25.45 -6.75M22.4,17.7Q17.45 21.9 13.4 16.95Q11.9 15.15 12.8 13.85L13.65 12.6Q14.15 12 14.8 11.7Q15.05 11.45 15.45 11.35L15.75 11.3Q22.75 10.35 23 16.4Q23.05 17.15 22.4 17.7M12.45,6.5Q8.55 7.8 7.55 4.2Q6.65 1.2 9.55 0L11.55 -0.45Q17.15 0.3 14.5 4.9Q13.8 6 12.45 6.5M4.95,13.2Q8.8 13.7 8.1 17.1Q7.8 18.75 5.9 19.5Q3 20.65 0.55 18.65L-0.05 16.8Q-0.5 14.6 1.65 14.1L3.8 13.55L4.95 13.2" />
</g>
</svg>
