<?xml version="1.0" encoding="utf-8"?>
<svg version="1.1" id="Layer_1"
xmlns="http://www.w3.org/2000/svg"
xmlns:xlink="http://www.w3.org/1999/xlink"
width="21px" height="10px"
xml:space="preserve">
<g id="1078" transform="matrix(1, 0, 0, 1, 11.05, 11.25)">
<path style="fill:#FF7000;fill-opacity:1" d="M0.6,-10.45L0.75 -10.25L-0.9 -9.9L-0.8 -10.1Q-0.25 -10.65 0.45 -10.6L0.6 -10.45M2.4,-7.65L4.15 -7.5L4.4 -7.05Q4.5 -6.55 4.1 -6.1Q3.75 -6.45 3.65 -7.2L2.4 -6.85Q1.8 -7.2 2.4 -7.65M3.9,-7.35L4 -6.65L4 -6.55Q4.35 -7 3.9 -7.35M2.8,-7.5Q2.45 -7.5 2.35 -7.25L3.4 -7.45L2.8 -7.5M0.05,-2.25L-0.3 -2.3L-0.1 -2.95L-0.15 -3.2L-0.2 -3.5L-0.2 -3.55L-0.1 -3.55L0.2 -3.2Q0.65 -2.6 0.05 -2.25M8.85,-4.8L8.9 -5.3L9.25 -4.9Q9.6 -4.3 9.05 -3.85L8.65 -4.1L8.85 -4.8M5.55,-2.6L5.55 -2.75L5.6 -2.95L5.65 -3.1Q6.25 -2.6 5.8 -2.15L5.05 -2.1L5.55 -2.5L5.55 -2.6M5.25,-2.1Q6.05 -2.1 5.7 -2.85Q5.75 -2.35 5.35 -2.2L5.25 -2.1M-10.8,-4.55L-10.75 -4.5Q-10.95 -5.15 -10.35 -5.8L-9.6 -6.05L-10.2 -4.55L-10.1 -4.3L-9.95 -4.1Q-10.15 -3.25 -10.95 -4.35Q-11.2 -4.7 -10.8 -4.55M-3.9,-10.95Q-3.65 -10.35 -4 -10L-5 -9.85L-4.75 -10.3L-4.3 -11.25L-3.9 -10.95M-4.2,-10.2L-4.1 -10.2L-4.1 -10.8L-4.2 -10.8L-4.2 -10.2M-5.4,-9.35L-5.9 -8.35Q-6.2 -6.85 -6.8 -6.5L-7 -6.9L-6.65 -8.1Q-6.55 -8.3 -6.6 -8.85L-6.05 -9.35Q-5.85 -9.55 -5.4 -9.35M-6.7,-6.95L-6.7 -7.8L-6.8 -6.95L-6.7 -6.95M-5.9,-2.2Q-6.8 -2.85 -5.95 -3.2Q-5.55 -2.85 -5.75 -2.05L-5.9 -2.2" />
<path style="fill:#FFCC00;fill-opacity:1" d="M4,-6.55L4 -6.65L3.9 -7.35Q4.35 -7 4 -6.55M3.4,-7.45L2.35 -7.25Q2.45 -7.5 2.8 -7.5L3.4 -7.45M5.35,-2.2Q5.75 -2.35 5.7 -2.85Q6.05 -2.1 5.25 -2.1L5.35 -2.2M-4.2,-10.8L-4.1 -10.8L-4.1 -10.2L-4.2 -10.2L-4.2 -10.8M-6.8,-6.95L-6.7 -7.8L-6.7 -6.95L-6.8 -6.95" />
</g>
</svg>
