<?xml version="1.0" encoding="utf-8"?>
<svg version="1.1" id="Layer_1"
xmlns="http://www.w3.org/2000/svg"
xmlns:xlink="http://www.w3.org/1999/xlink"
width="90px" height="44px"
xml:space="preserve">
<g id="869" transform="matrix(1, 0, 0, 1, 12.8, 9.65)">
<path style="fill:#0B0B0B;fill-opacity:1" d="M18.6,5.75L24.6 -0.8L25 -0.85L30.2 -1.3L43.7 0.25L38.2 7.95L18.6 5.75M17.75,6.5L37.7 8.75L37.2 9.65L38.05 8.55L42.75 9.85L44.45 10.45L45.3 10.95L46.25 11.8L46.85 11.95L47.4 13.2L48.65 13.2L48.25 12.2L47.7 12.1L46.95 11.1L45.4 9.85Q44.5 9.3 43.4 9L38.7 7.7L45.4 -1.15L48.85 -0.15L50.8 8.1Q51.6 8.35 52.3 9.05L54 11.75L54.8 11.85Q55.6 14.35 53 16.3L52.15 16.9L52.9 18.2L50.7 20.55L50.4 19.15L51.8 17.65L50.6 15.5L48.45 15.95L48.2 15.7Q47.05 14.55 45.75 13.95Q44.55 13.35 43.3 13.2L43.05 11.6L40.6 11.2L39.8 12.7L33.1 11.65L32.9 10.05L30.55 9.75L30.55 9.9L30.2 9.9L29.5 11.1L23.15 10.15L23 9.35L23.05 9.35L22.9 8.7L20.45 8.35L20.15 9.15L19.7 9.15L19.45 9.6L16.45 9.15L16.25 8.9L15.8 8.85L15.55 8.4L15.8 8.15L15.75 8.15L15.8 8.15L17.75 5.95L18.25 6.05L17.75 6.5M50.5,24.35L52.15 26.05L50.3 29.65L47.4 29.2L48.3 28.35L48.45 28.2L50.15 28.45L51.25 26.3L50.25 25.25L50.5 24.35M44.35,30.85L43.85 33L39.8 33.45L38.65 30.95L39.95 30.95L40.7 32.65L43.1 32.4L43.5 30.95L43.9 30.95L44.35 30.85M34.9,30.95L34.05 33.3L29.95 33.3L29.25 30.95L30.45 30.95L30.95 32.6L33.4 32.6L34 30.95L34.9 30.95M23.9,30.95L22.9 33.35L18.85 33.2L18.2 30.95L19.45 30.95L19.85 32.55L22.35 32.65L23 30.95L23.9 30.95M14.15,30.8L12.5 32.15L9 30.1L9.6 27.25L10.6 28.35L10.15 29.95L12.3 31.25L13.25 30.45L14.15 30.8M6.5,10.9L6.15 11.35L6.3 10.9L6.35 10.7L6.75 9.45L5.3 9.1L4.6 8.9L1.95 8L1.65 8.3L1.9 9.6L1.25 10.4L0.95 9.05L-6.65 25.85L-6.2 28.7L-9.9 32.45L-12.8 30.9L-11.55 25.65L-9.25 24.75L-1.95 8.2L-2.9 7.7L-2.15 5.15Q-3.85 3.6 -4.85 1.25L-3.05 0L-0.7 2.95L-0.35 1.45L6.35 3.8L5.4 6.4L6.45 6.65L7.2 4.65L9.2 7.2L10 5.5L11 5.6L13 6.55L14.3 7.15L14.65 8.9L13.45 8.7L13 6.55L10.55 6.3L9.7 8.15L8.8 8L9.2 7.2L7.75 7.85L7.35 8L7.45 8.3L8.4 8.35L8 8.9L7.9 9.05L6.65 10.7L6.5 10.9M38.85,-9.65L40.3 -8.85L44 -7.75L43.6 -7.75L42.95 -7.25L34.6 -3.95L38.85 -9.65M70.25,19.9L71.4 16.1L75.55 17.55L74.25 17.25L73.35 19.55L74.55 23L75.8 23.5L76.5 25.55L71.8 27.25L71.25 25.5L71.85 24.1L70.25 19.9M47.25,1.45L46.55 1.05Q46.1 1.05 45.8 1.3Q45.45 1.6 45.4 2.05Q45.35 2.5 45.65 2.8Q45.85 3.15 46.3 3.15Q46.75 3.25 47.1 2.95L47.45 2.25L47.25 1.45M47.9,5.8Q48.2 5.55 48.3 5.1L48.05 4.3Q47.75 4 47.3 3.95Q46.85 3.9 46.55 4.2Q46.25 4.4 46.2 4.85Q46.1 5.3 46.4 5.7L47.1 6.05L47.9 5.8M48.35,6.65L47.5 6.8Q47.2 7.1 47.15 7.55Q47.1 8 47.4 8.3L47.65 8.65L48.05 8.7L48.9 8.5L49.25 8.05L49.25 7.75Q49.3 7.3 49 7Q48.8 6.65 48.35 6.65M37.7,0.2L31.3 -0.6L31 0.15L37.4 1.3L37.7 0.2M38.5,10.3L37 10L36.9 10.15L38.5 10.3M0.1,5.65L-0.5 5.2Q-2.4 3.7 -3.25 1.5L-3.85 1.65Q-2.6 3.7 -0.65 5.35L0.05 5.95L0.6 6.45L0.6 6.5L1.35 6.9L1.85 7.1L2.2 7.25L6.35 8.7L6.55 8.05Q4.75 7.9 2.65 6.95L2.05 6.65L1.9 6.6L1.05 6.2L0.85 6L0.1 5.65M7.05,30.8L5.55 32.7L1.7 31.55L1.7 29.1L2.8 29.45L2.8 29.5L2.85 29.6L2.9 31.15L5.15 31.8L6.15 30.55L7.05 30.8M0.85,27.4L-0.75 29L-4.4 27.25L-4 23.95L-3.55 24.6L-2.95 25.4L-3.2 27.05L-1.05 28.1L-0.1 27.15L0.8 27.35L0.85 27.4M-1.15,8.75L-8.4 24.85L-8.1 25.15L-0.65 9L-1.15 8.75M-7.2,28.6L-10.8 26.5L-10.3 27.55L-11.7 30.85L-10.85 31.25L-9.2 28.3L-7.2 28.6" />
<path style="fill:#BD8051;fill-opacity:1" d="M18.25,6.05L18.55 5.75L18.6 5.75L38.2 7.95L37.7 8.75L17.75 6.5L18.25 6.05M38.05,8.55L38.7 7.7L43.4 9Q44.5 9.3 45.4 9.85L46.95 11.1L47.7 12.1L48.25 12.2L48.65 13.2L47.4 13.2L46.85 11.95L46.25 11.8L45.3 10.95L44.45 10.45L42.75 9.85L38.05 8.55M6.35,3.8L7.2 4.65L6.45 6.65L5.4 6.4L6.35 3.8M47.45,2.25L47.1 2.95Q46.75 3.25 46.3 3.15Q45.85 3.15 45.65 2.8Q45.35 2.5 45.4 2.05Q45.45 1.6 45.8 1.3Q46.1 1.05 46.55 1.05L47.25 1.45L47.45 2.25M47.1,6.05L46.4 5.7Q46.1 5.3 46.2 4.85Q46.25 4.4 46.55 4.2Q46.85 3.9 47.3 3.95Q47.75 4 48.05 4.3L48.3 5.1Q48.2 5.55 47.9 5.8L47.1 6.05M49,7Q49.3 7.3 49.25 7.75L49.25 8.05L48.9 8.5L48.05 8.7L47.65 8.65L47.4 8.3Q47.1 8 47.15 7.55Q47.2 7.1 47.5 6.8L48.35 6.65Q48.8 6.65 49 7M8,8.9L41.9 14L43 14.15L43.05 14.15L43.45 14.2L45.4 14.85L45.55 14.9Q46.65 15.45 47.6 16.4L48.65 17.65L49.35 18.9Q49.9 20.3 49.9 21.95L49.75 23.55L49.55 24.5Q49 26.2 47.75 27.6L47.65 27.65L47.3 28Q46.1 29.2 44.6 29.75L43.8 29.95L15.7 29.95L15.2 29.9L14.1 29.7L13.2 29.3L12.15 28.5L2.1 17.3L2 17.15Q1.1 15.85 1.1 14.15L1.15 13.65Q1.25 11.75 2.6 10.45L3.55 9.55L4.6 8.9L5.3 9.1Q4.5 9.4 3.35 10.6Q1.9 12.1 1.75 13.55Q1.55 14.95 1.95 15.85L2.7 17.2L3.45 17.85L3.5 17.9L8.6 23.9L8.75 24.1L11.8 27.7L11.85 27.75L11.9 27.85L12.1 28.1L12.25 28.2Q13.15 29.1 14.35 29.5L14.9 29.6L15.15 29.65L44.35 29.65L44.65 29.55Q46.1 29 47.35 27.7L47.3 27.7L47.65 27.4Q48.9 26 49.35 24.35L49.5 23.75L49.65 22.2Q49.65 20.55 49.05 19.1Q48.45 17.75 47.3 16.6Q45.65 14.95 43.45 14.5L42.45 14.4L7.9 9.05L8 8.9M48.25,17.85L46.15 20.25L49.3 20.1L49.45 23.6L46.55 23.7L48.65 25.55L46.35 28.2L44 26.2L44.25 29.3L40.8 29.55L40.6 26.6L38.65 28.8L36.1 26.55L38.05 24.35L34.95 24.55L34.7 21.05L37.95 20.85L35.4 18.6L37.7 15.95L40.1 18.05L39.9 15L43.3 14.75L43.55 18.1L45.7 15.6L48.25 17.85M45.7,16.3L43.45 18.85L43.05 18.7L42.85 15.15L40.35 15.4L40.55 19.05L37.8 16.65L36.1 18.6L38.7 20.85Q38.55 21.05 38.55 21.3L35.25 21.5L35.45 24.05L38.8 23.8L38.9 24L36.7 26.5L38.55 28.2L40.95 25.5L41.15 29.15L43.7 29L43.55 25.45L43.8 25.35L46.25 27.45L47.95 25.55L45.4 23.3L48.85 23.1L48.8 20.7L45.45 20.85L45.3 20.65L47.7 18.05L45.7 16.3M7.6,12.4L7.9 12.15L8.8 11.2L10 12.4L8.85 13.55L10.45 13.55L10.45 15.35L8.95 15.35L9.95 16.35L8.7 17.6L7.6 16.5L7.6 18.1L5.8 18.1L5.8 16.6L4.75 17.65L3.55 16.45L4.35 15.65L4.6 15.4L4.2 15.4L3 15.4L3 13.6L3.9 13.6L4.65 13.55L4.1 13L3.45 12.35L4.7 11.1L5.4 11.8L5.85 12.25L5.85 11.65L5.8 10.7L6.35 10.7L6.3 10.9L6 10.9L6.05 12.75L4.75 11.45L3.8 12.4L5 13.6L4.95 13.85L3.3 13.8L3.3 15.1L5 15.1L5.05 15.25L3.85 16.45L4.7 17.3L6.05 16.05L6 17.9L7.3 17.9L7.3 16.1L7.45 16.05L8.6 17.2L9.6 16.3L8.35 15.05L10.15 15.05L10.2 13.9L8.45 13.85L8.4 13.7L9.65 12.45L8.75 11.55L7.55 12.75L7.35 12.65L7.35 10.85L6.5 10.9L6.65 10.7L7.55 10.65L7.6 11.95L7.6 12.4M37.4,1.3L31 0.15L31.3 -0.6L37.7 0.2L37.4 1.3M0.85,6L1.05 6.2L1.9 6.6L2.05 6.65L2.65 6.95Q4.75 7.9 6.55 8.05L6.35 8.7L2.2 7.25L1.85 7.1L1.35 6.9L0.6 6.5L0.6 6.45L0.05 5.95L-0.65 5.35Q-2.6 3.7 -3.85 1.65L-3.25 1.5Q-2.4 3.7 -0.5 5.2L0.1 5.65L0.85 6M13,21.65L14.2 22.85L14.15 23.1L12.5 23.05L12.5 24.35L14.2 24.35L14.25 24.5L13.05 25.7L13.9 26.55L15.25 25.3L15.2 27.15L16.5 27.15L16.5 25.35L16.65 25.3L17.8 26.45L18.8 25.55L17.55 24.3L19.35 24.3L19.4 23.15L17.65 23.1L17.6 22.95L18.85 21.7L17.95 20.8L16.75 22L16.55 21.9L16.55 20.1L15.2 20.15L15.25 22L13.95 20.7L13 21.65M14.2,26.7L13.95 26.9L12.75 25.7L13.2 25.3L13.8 24.65L13.1 24.65L12.2 24.65L12.2 22.85L13.7 22.8L13.85 22.8L13.8 22.75L12.65 21.6L13.9 20.35L15.05 21.5L15 19.95L16.75 19.9L16.8 21.65L18 20.45L19.2 21.65L18.05 22.8L19.65 22.8L19.65 24.6L18.6 24.6L18.15 24.6L18.6 25.05L19.15 25.6L17.9 26.85L17.65 26.6L16.8 25.75L16.8 27.15L16.8 27.35L15 27.35L15 27.2L15 25.85L14.2 26.7M-0.65,9L-8.1 25.15L-8.4 24.85L-1.15 8.75L-0.65 9M-9.2,28.3L-10.85 31.25L-11.7 30.85L-10.3 27.55L-10.8 26.5L-7.2 28.6L-9.2 28.3" />
<path style="fill:#000000;fill-opacity:1" d="M34,30.95L33.4 32.6L30.95 32.6L30.45 30.95L29.25 30.95L23.9 30.95L23 30.95L22.35 32.65L19.85 32.55L19.45 30.95L18.2 30.95L15.55 30.95L14.15 30.8L13.25 30.45L12.3 31.25L10.15 29.95L10.6 28.35L9.6 27.25L6.6 23.9L5.1 24.5L3.55 22.85L3.55 22.75L3.5 22.7L4.25 21.3L1.25 17.95L0.75 17.15L-0.55 17.15L-1.1 15.65L-0.7 15.35L-0.55 14.35L0 13.9L0.3 12.15Q0.6 11.2 1.25 10.4L1.9 9.6L1.65 8.3L1.95 8L4.6 8.9L3.55 9.55L2.6 10.45Q1.25 11.75 1.15 13.65L1.1 14.15Q1.1 15.85 2 17.15L2.1 17.3L12.15 28.5L13.2 29.3L14.1 29.7L15.2 29.9L15.7 29.95L43.8 29.95L44.6 29.75Q46.1 29.2 47.3 28L47.65 27.65L47.75 27.6Q49 26.2 49.55 24.5L49.75 23.55L49.9 21.95Q49.9 20.3 49.35 18.9L48.65 17.65L47.6 16.4Q46.65 15.45 45.55 14.9L45.4 14.85L43.45 14.2L43.05 14.15L43 14.15L41.9 14L8 8.9L8.4 8.35L7.45 8.3L7.35 8L7.75 7.85L7.85 7.85L8.8 8L9.7 8.15L10.55 6.3L13 6.55L13.45 8.7L14.65 8.9L16.45 9.15L19.45 9.6L19.7 9.15L20.15 9.15L20.45 8.35L22.9 8.7L23.05 9.35L23 9.35L23.15 10.15L29.5 11.1L30.2 9.9L30.55 9.9L30.55 9.75L32.9 10.05L33.1 11.65L39.8 12.7L40.6 11.2L43.05 11.6L43.3 13.2Q44.55 13.35 45.75 13.95Q47.05 14.55 48.2 15.7L48.45 15.95L50.6 15.5L51.8 17.65L50.4 19.15L50.7 20.55L50.8 21.95L50.5 24.35L50.25 25.25L51.25 26.3L50.15 28.45L48.45 28.2L48.3 28.35L47.4 29.2Q46 30.35 44.35 30.85L43.9 30.95L43.5 30.95L43.1 32.4L40.7 32.65L39.95 30.95L38.65 30.95L34.9 30.95L34 30.95M45.7,15.6L43.55 18.1L43.3 14.75L39.9 15L40.1 18.05L37.7 15.95L35.4 18.6L37.95 20.85L34.7 21.05L34.95 24.55L38.05 24.35L36.1 26.55L38.65 28.8L40.6 26.6L40.8 29.55L44.25 29.3L44 26.2L46.35 28.2L48.65 25.55L46.55 23.7L49.45 23.6L49.3 20.1L46.15 20.25L48.25 17.85L45.7 15.6M6.75,9.45L6.35 10.7L5.8 10.7L5.85 11.65L5.4 11.8L4.7 11.1L3.45 12.35L4.1 13L3.9 13.6L3 13.6L3 15.4L4.2 15.4L4.35 15.65L3.55 16.45L4.75 17.65L5.8 16.6L5.8 18.1L7.6 18.1L7.6 16.5L8.7 17.6L9.95 16.35L8.95 15.35L10.45 15.35L10.45 13.55L8.85 13.55L10 12.4L8.8 11.2L7.9 12.15L7.6 11.95L7.55 10.65L6.65 10.7L7.9 9.05L42.45 14.4L43.45 14.5Q45.65 14.95 47.3 16.6Q48.45 17.75 49.05 19.1Q49.65 20.55 49.65 22.2L49.5 23.75L49.35 24.35Q48.9 26 47.65 27.4L47.3 27.7L47.35 27.7Q46.1 29 44.65 29.55L44.35 29.65L15.15 29.65L14.9 29.6L14.35 29.5Q13.15 29.1 12.25 28.2L12.1 28.1L11.9 27.85L11.85 27.75L11.8 27.7L8.75 24.1L8.6 23.9L3.5 17.9L3.45 17.85L2.7 17.2L1.95 15.85Q1.55 14.95 1.75 13.55Q1.9 12.1 3.35 10.6Q4.5 9.4 5.3 9.1L6.75 9.45M22.2,24.5Q22.2 26.85 20.7 28.65L36.15 28.7L35.8 28.35Q33.1 25.6 33.1 21.95Q33.1 20.85 33.35 19.8L33.75 18.65Q34.35 17.05 35.7 15.7L36.25 15.2L37.1 14.65L11.9 10.65Q12.9 12.2 12.9 14.15Q12.9 16.8 11 18.7L9.6 19.8Q8.3 20.55 6.75 20.6L9.35 23.7Q9.6 21.55 11.2 19.95L11.35 19.8Q13.2 18.05 15.75 18.05Q18.3 18.05 20.15 19.8L20.3 19.95Q22.2 21.85 22.2 24.5M13.7,22.8L12.2 22.85L12.2 24.65L13.1 24.65L13.2 25.3L12.75 25.7L13.95 26.9L14.2 26.7L15 27.2L15 27.35L16.8 27.35L16.8 27.15L17.65 26.6L17.9 26.85L19.15 25.6L18.6 25.05L18.6 24.6L19.65 24.6L19.65 22.8L18.05 22.8L19.2 21.65L18 20.45L16.8 21.65L16.75 19.9L15 19.95L15.05 21.5L13.9 20.35L12.65 21.6L13.8 22.75L13.7 22.8" />
<path style="fill:#0E0E0E;fill-opacity:1" d="M47.7,18.05L45.3 20.65L45.45 20.85L48.8 20.7L48.85 23.1L45.4 23.3L47.95 25.55L46.25 27.45L43.8 25.35L43.55 25.45L43.7 29L41.15 29.15L40.95 25.5L38.55 28.2L36.7 26.5L38.9 24L38.8 23.8L35.45 24.05L35.25 21.5L38.55 21.3Q38.55 21.05 38.7 20.85L36.1 18.6L37.8 16.65L40.55 19.05L40.35 15.4L42.85 15.15L43.05 18.7L43.45 18.85L45.7 16.3L47.7 18.05M7.6,11.95L7.9 12.15L7.6 12.4L7.6 11.95M4.35,15.65L4.2 15.4L4.6 15.4L4.35 15.65M3.9,13.6L4.1 13L4.65 13.55L3.9 13.6M5.85,12.25L5.4 11.8L5.85 11.65L5.85 12.25M20.3,19.95L20.15 19.8Q18.3 18.05 15.75 18.05Q13.2 18.05 11.35 19.8L11.2 19.95Q9.6 21.55 9.35 23.7L6.75 20.6Q8.3 20.55 9.6 19.8L11 18.7Q12.9 16.8 12.9 14.15Q12.9 12.2 11.9 10.65L37.1 14.65L36.25 15.2L35.7 15.7Q34.35 17.05 33.75 18.65L33.35 19.8Q33.1 20.85 33.1 21.95Q33.1 25.6 35.8 28.35L36.15 28.7L20.7 28.65Q22.2 26.85 22.2 24.5Q22.2 21.85 20.3 19.95M6.15,11.35L6.5 10.9L7.35 10.85L7.35 12.65L7.55 12.75L8.75 11.55L9.65 12.45L8.4 13.7L8.45 13.85L10.2 13.9L10.15 15.05L8.35 15.05L9.6 16.3L8.6 17.2L7.45 16.05L7.3 16.1L7.3 17.9L6 17.9L6.05 16.05L4.7 17.3L3.85 16.45L5.05 15.25L5 15.1L3.3 15.1L3.3 13.8L4.95 13.85L5 13.6L3.8 12.4L4.75 11.45L6.05 12.75L6 10.9L6.3 10.9L6.15 11.35M13.95,20.7L15.25 22L15.2 20.15L16.55 20.1L16.55 21.9L16.75 22L17.95 20.8L18.85 21.7L17.6 22.95L17.65 23.1L19.4 23.15L19.35 24.3L17.55 24.3L18.8 25.55L17.8 26.45L16.65 25.3L16.5 25.35L16.5 27.15L15.2 27.15L15.25 25.3L13.9 26.55L13.05 25.7L14.25 24.5L14.2 24.35L12.5 24.35L12.5 23.05L14.15 23.1L14.2 22.85L13 21.65L13.95 20.7M18.15,24.6L18.6 24.6L18.6 25.05L18.15 24.6M16.8,25.75L17.65 26.6L16.8 27.15L16.8 25.75M15,25.85L15 27.2L14.2 26.7L15 25.85M13.8,24.65L13.2 25.3L13.1 24.65L13.8 24.65M13.7,22.8L13.8 22.75L13.85 22.8L13.7 22.8" />
</g>
</svg>
