<?xml version="1.0" encoding="utf-8"?>
<svg version="1.1" id="Layer_1"
xmlns="http://www.w3.org/2000/svg"
xmlns:xlink="http://www.w3.org/1999/xlink"
width="77px" height="42px"
xml:space="preserve">
<g id="361" transform="matrix(1, 0, 0, 1, 9.25, 2.65)">
<path style="fill:#3A231C;fill-opacity:1" d="M11.05,-2.65L11.15 -2.65Q13.3 -2.8 14.3 -1.15Q15 0.05 15 1.85L14.85 2.35L14.5 2.4L19.85 7.25Q22.6 9.7 22.6 11.75L21.4 14.75Q20.15 17.55 20.15 18.05Q20.15 18.35 20.45 18.5L20.75 19L18.7 22.25L17.15 24.2Q17.35 24.7 18.1 25L19.65 25.65Q20 25.9 20 26.65Q20 27.55 18.1 29.25L15.25 31.35L17.3 32.35Q18.15 32.85 17.85 33.6L20.65 33.5Q21.35 33.5 21.7 33.9L22.25 34.3Q24.55 34.3 26.8 33Q28.5 32.05 30 32.8L31.25 32.35L37.5 32.25L39.6 31.95L41.5 31.8Q45.75 31.8 47.15 32.5L49.05 34.35Q49.65 34.95 52.3 35.95Q54.7 36.85 55.25 37.65Q54.1 39 38 39L32.35 38.4Q27.7 37.9 21.1 38.4L14.35 38.05Q11.85 37.25 9.05 37.25L0.15 38.15L-7 39Q-8.35 39 -8.85 38.5L-9.25 38Q-8.2 37 -1.9 34.9Q5.85 32.35 7.9 31.4L8.25 31.35Q5.2 30.75 4.8 29.35Q5.15 28.45 7.85 27.9Q10.75 27.3 11.5 26.25Q12.55 24.8 14.2 23.8L13.85 23.75L13.75 23.35Q13.75 22.25 14.95 19.75Q16.1 17.25 16.1 16.55L15.85 16.1Q15.55 15.95 15.55 15.6L17 9.85Q17 9.35 15.7 7.3Q14.2 4.95 13.75 3.65L12.05 0.05L11.05 -2.25L11.05 -2.65M65.6,23.65Q66.65 23.9 66.9 24.95L67 26.15Q67 27.35 66.6 27.75Q65.75 28.5 62.85 28.5L57.85 27.75L51.3 27.15L50.75 27Q50.55 27.3 50.55 26.65Q50.55 26.05 53.5 24.45Q56.7 22.65 58.5 23.05L58.5 22.9L60.85 23.2L65.6 23.65M48.15,8.65Q47.75 8.45 47.15 9L46.75 9.25L48.15 9L48.15 8.65M45.65,9.8L45.25 9Q45.25 7.95 47.45 7.4Q49.6 6.9 49.6 8.65L49.1 9.65L48.3 10.3L46.65 10.3Q46.1 10.35 45.65 9.8M29.75,13.35Q31.7 12.5 33.2 12.5Q34.55 12.5 35.25 14.5Q35.25 15.9 34.2 16.8Q33 17.8 31 17.8Q27.15 17.8 27.15 16.15Q27.15 14.45 29.75 13.35M34.75,22.95Q30.6 24.5 26.75 25.3Q26.55 25.3 26.55 24.65Q26.55 23.6 33.15 20.7Q39.75 17.8 39.75 20Q39.75 21.1 34.75 22.95M14.55,23.6L14.85 23.45L14.8 23.3L14.55 23.6" />
</g>
</svg>
