<?xml version="1.0" encoding="utf-8"?>
<svg version="1.1" id="Layer_1"
xmlns="http://www.w3.org/2000/svg"
xmlns:xlink="http://www.w3.org/1999/xlink"
width="8px" height="12px"
xml:space="preserve">
<g id="645" transform="matrix(1, 0, 0, 1, -3.95, 0.45)">
<path style="fill:#000000;fill-opacity:1" d="M8.35,-0.2L9.55 0.25L9.65 0.3Q9.6 0.95 9.05 1.45L9 1.55L9.6 5.6Q9.8 6.75 10.55 7.8Q11.35 8.85 11.45 10.15Q8.6 11.15 7.35 10.85Q7 10.35 7.2 9.9L7.45 9.4L7.65 9.25L8.5 8.9L7.65 8.15L7.65 8.1L7.4 8.25Q5.5 9.45 5.35 8.65Q4.95 7.6 5.3 7.4L5.75 7.05L5.85 6.65L5.9 6.55Q3.85 5.6 3.95 3.8Q4 2.5 4.95 1.45L7.05 -0.45L8.35 -0.2" />
</g>
</svg>
