<?xml version="1.0" encoding="utf-8"?>
<svg version="1.1" id="Layer_1"
xmlns="http://www.w3.org/2000/svg"
xmlns:xlink="http://www.w3.org/1999/xlink"
width="11px" height="11px"
xml:space="preserve">
<g id="1713" transform="matrix(1, 0, 0, 1, 0.5, 0.5)">
<linearGradient
id="LinearGradID_845" gradientUnits="userSpaceOnUse" gradientTransform="matrix(0, -0.0057373, 0.0057373, 0, 4.7, 4.7)" spreadMethod ="pad" x1="-819.2" y1="0" x2="819.2" y2="0" >
<stop  offset="0" style="stop-color:#665545;stop-opacity:1" />
<stop  offset="1" style="stop-color:#FFFFFF;stop-opacity:1" />
</linearGradient>
<path style="fill:url(#LinearGradID_845) " d="M9.4,4.7Q9.4 6.65 8 8.05Q6.65 9.4 4.7 9.4Q2.7 9.4 1.35 8.05Q0 6.65 0 4.7Q0 2.75 1.35 1.35Q2.7 0 4.7 0Q6.65 0 8 1.35Q9.4 2.75 9.4 4.7" />
<path style="fill:none;stroke-width:1;stroke-linecap:round;stroke-linejoin:round;stroke-miterlimit:3;stroke:#271513;stroke-opacity:1" d="M9.4,4.7Q9.4 6.65 8 8.05Q6.65 9.4 4.7 9.4Q2.7 9.4 1.35 8.05Q0 6.65 0 4.7Q0 2.75 1.35 1.35Q2.7 0 4.7 0Q6.65 0 8 1.35Q9.4 2.75 9.4 4.7z" />
</g>
</svg>
