<?xml version="1.0" encoding="utf-8"?>
<svg version="1.1" id="Layer_1"
xmlns="http://www.w3.org/2000/svg"
xmlns:xlink="http://www.w3.org/1999/xlink"
width="58px" height="58px"
xml:space="preserve">
<g id="454" transform="matrix(1, 0, 0, 1, 2.9, 15.95)">
<path style="fill:#1E1E1E;fill-opacity:1" d="M30.85,-14.55Q32.2 -13.6 32.65 -12Q33.1 -10.45 32.85 -8.8Q32.7 -7.85 32 -7.15L33.55 -5.65L33.9 -5.3Q34.4 -6.5 35.4 -7.4Q36.5 -8.4 37.8 -8.8L38.75 -8.8L39.35 -8.45L39.45 -8.05L39 -7.9L38.2 -8.05L38.2 -8L37.9 -7.9L37.6 -7.7L37.5 -7.55L37.45 -7.45L37.4 -7.3L37.5 -7.05L35.85 -5.55Q33.55 -2.7 36.8 -1.7L38.1 -1.45L40.2 -2.95Q41.4 -4.05 40.3 -4.95L40.35 -5.15L40.35 -6.15L40.65 -6.2L40.65 -6.25Q42.95 -5.1 41.75 -2.65Q41.25 -1.7 40.55 -1.1Q41.1 -0.55 41.3 0.4L41.45 1.25Q42.1 0.45 43.1 0.2L43.1 0.15L43.15 0.15L43.2 0.1L44.15 -0.35L44.2 -0.35Q48.6 -0.65 49.55 3.35Q50.15 5.9 48.7 7.35Q50 7.65 51 8.75Q52.6 10.5 51.95 12.85Q52.85 13.1 53.4 13.7L54.35 14.4Q55.6 15.5 54.75 17.2Q53.85 18.9 52.2 19.95L52.4 21.4Q52.45 22.75 51.55 23.75Q50.3 25.15 48.95 25.3L48.8 25.4Q51.2 27.3 50.1 31.05Q48.65 35.85 43.65 36.15Q41.15 36.25 39.75 35.35Q39.25 36.8 37.5 38.15Q34 40.8 30.05 39L29.55 38.75L26.3 38.5L25.25 38.1Q24.6 40.35 21.5 41.45Q16.65 43.05 13.75 39.05Q13.05 38.1 13.15 37.3L12.15 37.1L11.4 36.8L11.3 37.2Q10.55 39.55 8.05 40.15Q5.8 40.65 5.2 39.1Q4.45 38.75 4.3 37.3Q4.15 35.95 4.55 34.75Q4.9 33.6 5.6 32.65Q4.3 31.75 4.05 30.35Q3.85 29.2 4.15 28.15L4.25 27.95Q1.8 28.85 -1.1 26.5Q-2.4 25.45 -2.65 23.7Q-2.85 22.3 -2.2 21.45Q-3.7 18.85 -1.9 16.2Q-0.6 14.3 1.5 13.55Q0.9 11.65 1.8 9.85L2.9 8Q2.05 7.05 2 5.6Q1.95 4 2.65 2.55Q3 1.8 3.6 1.45L3.45 1.1Q2.5 -1 3.25 -3.3Q3.8 -5.05 5.65 -5.35L6.4 -5.25L6.8 -5.1L6.9 -5Q8.45 -6.5 11.1 -5.75Q13.15 -5.15 14.95 -4.1L19.3 -4.35L21.35 -3.7Q21.45 -4.6 22.15 -5.2L23.75 -6.45L25.15 -7.2Q24.45 -8.55 24.95 -10.05Q25.6 -11.9 26.8 -13.5Q28.1 -15.15 29.9 -15.95L30.3 -15.95L30.75 -15.8L31.05 -15.4L30.5 -15L30 -15.6L29.95 -15.6Q29.4 -15.3 29.35 -14.5L29.35 -14L28 -12.6Q26.6 -11 26.5 -9Q26.4 -7.6 26.9 -6.2Q24.95 -5.9 23.35 -4.6Q22.45 -3.9 22.5 -2.65Q22.55 -2.1 22.15 -1.7Q20.75 -2.05 19.4 -2.95Q17.2 -4.35 15.75 -2.3L15.65 -2.1L15.95 -0.7Q16.05 3.15 12.8 4.45L12.65 4.3L13.1 2.15Q13.55 -0.1 12.15 -1.75Q10.65 -3.45 8.45 -4.3L6.9 -4.25L6.6 -4L6.3 -4.15L6.15 -4.2L6.1 -4.25Q4.35 -3.9 4 -2.15Q3.55 -0.2 5.05 0.95Q6.25 1.9 6.75 3.1L6.7 3.35Q5.45 3.5 4.6 2.75L3.95 3.8Q2.85 5.15 3.85 6.4Q4.45 7.2 4.6 8.15Q3.3 9.7 2.9 11.6Q2.55 13.55 4.2 14.95L5.95 16.6Q3.25 17.75 1.85 14.45Q-0.6 15.8 -1.25 18.6Q-2 22.05 1.65 22.95L5.7 22.7Q6.15 22.55 6.25 23.05Q2.25 26.8 -1.3 22.65L-0.85 24Q0 26.6 2.7 26.2L6.35 26.05L6.5 26.2L5.75 27Q6.2 27.25 5.65 27.9Q5.15 28.5 5.1 29.3L5.1 30.25L5.95 31.15L7 31.9L7.4 32.4L6.1 34.85Q5.4 36.05 5.9 37.25L6.2 38.35L6.9 38.6Q8.25 39.25 9.45 38.15L10.6 36.4L10.3 35.95L9.6 35.25L8.2 34.05L8.2 33.95L8.2 33.8L8.25 33.65L8.35 33.55L8.5 33.4L8.85 33.3Q11.25 33.85 11.5 35.55L14.95 35.15Q16.4 34.95 17.4 33.85L17.7 33.35L17.85 33.2L18 33.1L18.25 33.05L18.55 33.15L18.8 33.3L18.9 33.45Q18.65 35.55 16.4 36.7Q15.25 37.3 14.05 37.35Q15.2 39.4 17.65 40.3Q20.85 41.45 22.85 38.7Q23.45 37.85 24.15 37.35L23.5 36.55Q22.8 35.5 23.7 34.95Q24.3 35.9 25.25 36.65L25.35 36.6L25.35 36.75L25.95 37.1L28.1 37.4Q27.6 36.65 27.55 35.65L29.65 36.65L30.8 36.35L30.85 37.3L31.25 37.5Q34.45 39.2 37.3 36.6Q38.55 35.5 38.3 33.85Q38.1 32.8 38.35 31.75L38.45 31.6L38.65 31.5L38.95 31.4L38.95 31.35Q39.8 32.65 39.9 33.85Q43.55 33.15 45.6 30.05Q47.25 27.5 45.75 24.85Q45.55 24.45 45.85 24.35Q45.6 24.2 45.65 23.9Q48.15 23.1 49.75 20.55Q50.2 19.8 49.65 19.05Q48.55 17.55 49.85 16.8L50.6 17.35L51 17.1L51.95 16.7L52.1 16.6Q52.4 16.05 52.1 15.45L51.25 14.3L51.15 14.2L50.95 14.15L50.2 14.15L50.25 13.9Q49 13.4 50.25 12.7L50.5 12.75L50.6 12.4Q51.25 10.3 49.05 9.35Q47.25 8.6 45.55 8.9L45.5 8.75Q43.35 9 42.9 7.1L44.4 7.05L43.95 6.65Q44.2 5.95 45.1 5.7Q46.05 5.5 46.4 4.45L46.7 3.1L46.25 2.5L45.3 1.3L45.2 0.85L44.55 0.8Q44.05 1.35 43.35 1.5Q42.5 1.7 42.2 2.5Q41.95 3.3 42.35 4.1L42.35 4.2Q41.75 4.65 41.4 4.5L40.85 4.9Q39.85 4.15 40 2.65Q40.15 1.15 39.2 -0.05L39.1 -0.2Q36.9 0.9 34.15 -1.75Q33.35 -2.5 33.5 -3.6L31.4 -4.45Q29.55 -5.4 28.3 -3.7Q27.35 -2.45 26.7 -0.95Q25.2 -4.25 29.4 -6.85Q32.15 -8.55 31.2 -11.55L31.05 -12.05L31.35 -12.3Q31.65 -12.75 31.45 -13.35L30.85 -14.55" />
<path style="fill:#3A3A3A;fill-opacity:1" d="M31.45,-13.35Q31.65 -12.75 31.35 -12.3L31.05 -12.05L31.2 -11.55Q32.15 -8.55 29.4 -6.85Q25.2 -4.25 26.7 -0.95Q27.35 -2.45 28.3 -3.7Q29.55 -5.4 31.4 -4.45L33.5 -3.6Q33.35 -2.5 34.15 -1.75Q36.9 0.9 39.1 -0.2L39.2 -0.05Q40.15 1.15 40 2.65Q39.85 4.15 40.85 4.9L41.4 4.5Q41.75 4.65 42.35 4.2L42.35 4.1Q41.95 3.3 42.2 2.5Q42.5 1.7 43.35 1.5Q44.05 1.35 44.55 0.8L45.2 0.85L45.3 1.3L46.25 2.5L46.7 3.1L46.4 4.45Q46.05 5.5 45.1 5.7Q44.2 5.95 43.95 6.65L44.4 7.05L42.9 7.1Q43.35 9 45.5 8.75L45.55 8.9Q47.25 8.6 49.05 9.35Q51.25 10.3 50.6 12.4L50.5 12.75L50.25 12.7Q49 13.4 50.25 13.9L50.2 14.15L50.95 14.15L51.15 14.2L51.25 14.3L52.1 15.45Q52.4 16.05 52.1 16.6L51.95 16.7L51 17.1L50.6 17.35L49.85 16.8Q48.55 17.55 49.65 19.05Q50.2 19.8 49.75 20.55Q48.15 23.1 45.65 23.9Q45.6 24.2 45.85 24.35Q45.55 24.45 45.75 24.85Q47.25 27.5 45.6 30.05Q43.55 33.15 39.9 33.85Q39.8 32.65 38.95 31.35L38.95 31.4L38.65 31.5L38.45 31.6L38.35 31.75Q38.1 32.8 38.3 33.85Q38.55 35.5 37.3 36.6Q34.45 39.2 31.25 37.5L30.85 37.3L30.8 36.35L29.65 36.65L27.55 35.65Q27.6 36.65 28.1 37.4L25.95 37.1L25.35 36.75L25.35 36.6L25.25 36.65Q24.3 35.9 23.7 34.95Q22.8 35.5 23.5 36.55L24.15 37.35Q23.45 37.85 22.85 38.7Q20.85 41.45 17.65 40.3Q15.2 39.4 14.05 37.35Q15.25 37.3 16.4 36.7Q18.65 35.55 18.9 33.45L18.8 33.3L18.55 33.15L18.25 33.05L18 33.1L17.85 33.2L17.7 33.35L17.4 33.85Q16.4 34.95 14.95 35.15L11.5 35.55Q11.25 33.85 8.85 33.3L8.5 33.4L8.35 33.55L8.25 33.65L8.2 33.8L8.2 33.95L8.2 34.05L9.6 35.25L10.3 35.95L10.6 36.4L9.45 38.15Q8.25 39.25 6.9 38.6L6.2 38.35L5.9 37.25Q5.4 36.05 6.1 34.85L7.4 32.4L7 31.9L5.95 31.15L5.1 30.25L5.1 29.3Q5.15 28.5 5.65 27.9Q6.2 27.25 5.75 27L6.5 26.2L6.35 26.05L2.7 26.2Q0 26.6 -0.85 24L-1.3 22.65Q2.25 26.8 6.25 23.05Q6.15 22.55 5.7 22.7L1.65 22.95Q-2 22.05 -1.25 18.6Q-0.6 15.8 1.85 14.45Q3.25 17.75 5.95 16.6L4.2 14.95Q2.55 13.55 2.9 11.6Q3.3 9.7 4.6 8.15Q4.45 7.2 3.85 6.4Q2.85 5.15 3.95 3.8L4.6 2.75Q5.45 3.5 6.7 3.35L6.75 3.1Q6.25 1.9 5.05 0.95Q3.55 -0.2 4 -2.15Q4.35 -3.9 6.1 -4.25L6.15 -4.2L6.3 -4.15L6.6 -4L6.9 -4.25L8.45 -4.3Q10.65 -3.45 12.15 -1.75Q13.55 -0.1 13.1 2.15L12.65 4.3L12.8 4.45Q16.05 3.15 15.95 -0.7L15.65 -2.1L15.75 -2.3Q17.2 -4.35 19.4 -2.95Q20.75 -2.05 22.15 -1.7Q22.55 -2.1 22.5 -2.65Q22.45 -3.9 23.35 -4.6Q24.95 -5.9 26.9 -6.2Q26.4 -7.6 26.5 -9Q26.6 -11 28 -12.6L29.35 -14L29.35 -14.5Q29.4 -15.3 29.95 -15.6L30 -15.6L30.5 -15L30.8 -14.6L30.85 -14.55L31.45 -13.35M39,-7.9Q39.6 -7.65 40 -7.05L40.35 -6.15L40.35 -5.15L40.3 -4.95Q41.4 -4.05 40.2 -2.95L38.1 -1.45L36.8 -1.7Q33.55 -2.7 35.85 -5.55L37.5 -7.05L37.4 -7.3L37.45 -7.45L37.5 -7.55L37.6 -7.7L37.9 -7.9L38.2 -8L38.2 -8.05L39 -7.9" />
</g>
</svg>
