<?xml version="1.0" encoding="utf-8"?>
<svg version="1.1" id="Layer_1"
xmlns="http://www.w3.org/2000/svg"
xmlns:xlink="http://www.w3.org/1999/xlink"
width="76px" height="70px"
xml:space="preserve">
<g id="456" transform="matrix(1, 0, 0, 1, 12.05, 22.2)">
<path style="fill:#1E1E1E;fill-opacity:1" d="M9.6,-6.7Q11.85 -6.4 13.3 -4.8L13.65 -5.35L15.4 -6.4L17.1 -6.8Q18.55 -7.2 19.75 -6.5L20.05 -7.05L21.05 -7.8L21.7 -8.1L22.3 -8.35L23.7 -10.55Q25.9 -13.05 29.15 -12.9Q30.65 -12.45 31.3 -10.95L31.6 -10.15L33.8 -10.25Q35.4 -10.15 36.6 -9.1L36.7 -9L37.45 -10.1Q38.4 -11.4 39.9 -11.95Q42.55 -12.05 43.7 -9.65Q44.9 -7.2 43.35 -5.15L42.45 -4.25L42.6 -3.25Q42.65 -1.3 41.4 0.15Q43.4 0.85 44.75 2.55Q46 4.2 46.85 6.05Q50 6.25 51.55 8.85Q53.25 11.55 52.35 14.55L52 15.5Q53.25 17.05 53.9 19Q55.3 23.05 52.4 25.9Q51.3 26.95 50.25 27.1Q51.35 29.55 51.1 32.45Q50.8 36.25 47.05 37.45L44.05 38Q43.25 39.3 41.55 40.2Q38.4 41.85 34.8 40.9L33.25 40.2Q30.45 43.6 26.15 43.45Q24 43.4 22.35 42.05L21.65 41.35L19.8 43.1Q16 45.75 12.15 42.75Q10.7 41.65 10.6 40.45Q9.7 41.15 8.6 41.65L6.35 42.5Q6.2 44.85 4.35 46.35Q1.55 48.55 -0.8 46.15L-1 45.9Q-1.6 45.4 -1.5 44.3Q-1.45 43.45 -1.05 42.65Q-0.25 40.9 1.25 39.65L1.7 39.4Q1.5 38.15 1.65 36.85Q1.85 35.3 2.95 34.15L3.35 33.8L2.9 32.8Q2.65 31.9 2.9 30.95L3.2 29.65L3.3 29.5Q1.3 28.75 0.3 27.1L-0.55 25.35L-0.6 25.1L-0.7 25.1Q-2.95 25.4 -4.05 23.75Q-8 25.05 -11.3 22.1Q-12.45 21.05 -11.8 19.75L-11.7 19.7L-11.5 19.65L-11.25 19.75L-11.05 19.95L-10.05 19.65Q-8.9 18.9 -7.6 18.6L-6.25 18.35L-5.25 18.2L-5.2 18.05Q-4.6 17.1 -3.7 16.45L-3.25 16.1Q-2.55 15.6 -1.75 15.45L-0.95 15.3L-0.7 15.3L-0.9 14.55Q-1.05 13.25 -0.15 12.35L0.5 11.45Q-0.35 10.5 -0.35 9.15L-0.15 6.6L0 6.2Q-1.55 4.75 -0.65 2.65Q-0.05 1.2 1.3 0.75L2.6 0.85L3 0.95L3.8 -0.7L4.4 -1.35Q2.95 -1.6 1.5 -2.5Q-1.2 -4.15 -1.1 -7.2Q-1.05 -10.7 2.25 -11.15Q8.7 -10.95 9.45 -6.65L9.6 -6.7M1.95,-9.45L1.15 -9.15L0.35 -8.85Q-0.6 -6.55 1.25 -5Q3.7 -2.85 3.9 -5.75Q4.05 -8.35 2.65 -9.6L1.95 -9.45M9.3,-3.25L9.25 -3.1Q9.1 -2.4 8.4 -2Q7.25 -1.45 6.1 -1.3Q5.75 -0.45 5.05 0.3Q4.4 1 4.15 2L4.2 2.35L4.1 2.35L4.05 2.45L4 3.2L4.1 3.25L4.3 3.35Q5.35 5.05 4.05 6.35Q2.9 7.55 1.55 7.15L1.25 8.5Q1.15 9.2 1.4 9.95L2.6 9.8Q3.45 9.45 3.8 10.2L1.2 12.85Q0.05 13.85 0.6 15.3L0.65 15.35L0.85 15.35Q1.45 15.35 1.6 15.95L1.5 16.15Q0 16.95 -1.95 17.4L-2.4 17.6Q-3 17.9 -3.45 18.35Q-1.6 19.05 -1.7 20.95Q-1.8 22.35 -2.85 23.1L-2.7 23.25Q-1.9 24.1 -0.65 24.2L-0.55 24.2L-0.2 23.85L0.2 24.15L1.1 23.8Q1.05 23.35 0.45 22.95L-0.45 22.25L-0.9 21.55L-0.9 21.25L-0.85 21.15L-0.7 21L-0.5 20.85L-0.2 20.75Q0.95 21.3 2.15 22.15Q3.2 22.85 4.5 22.7Q5.7 22.55 5.9 23.65L5.9 23.8L5.85 23.95L5.75 24.1L5.6 24.2L5.5 24.3L0.8 24.9L1.35 26Q1.85 27.35 3.3 27.95L4.8 28.5Q5.2 29.5 4.6 30.55Q4.1 31.35 4.45 32.2L4.7 32.9Q5.8 32.25 7.15 32.05L7.6 32.15L8.05 32.55L8.15 33L4.3 35.05Q3.6 35.4 3.3 36.2Q2.55 38.15 3.4 40L3.4 40.2Q2.1 40.6 1.05 41.75L0.1 43.05Q-0.45 44.05 -0.35 45.15L-0.05 45.75L0.05 45.85Q1.9 45.25 3.4 43.75Q4.15 43 4.25 41.85Q4.35 41.05 4.6 40.3L4.9 39.9L5 39.85L5.55 39.95L6.05 40.45L6.1 40.6Q7.25 40.05 8.45 38.95Q9.4 38.1 9.85 36.9Q10.1 36.2 9.85 35.5L9.85 35.1L10.15 34.85Q10.55 34.5 11.1 34.55L11.85 35Q14.35 35.55 16.05 33.75Q16.75 32.95 17.65 32.6L18.05 32.65L18.35 32.7L18.55 32.85Q19 34.4 17.7 35.65Q16.25 37 14.4 37.45L12.3 37.15Q12.4 38.5 11.65 39.5Q13.15 42.6 17.6 42.45Q19 42.4 20 41.35Q21.3 40 20.35 38.5Q19.75 37.65 20.1 36.75L20.25 36.6L20.35 36.5L20.45 36.5L20.7 36.45L20.7 36.4L21.8 37.9L22 37.75Q22.6 37.4 23.2 37.9L23.2 38.05L23.2 38.35L23.05 38.65L22.9 38.9Q25.95 42.15 30.15 39.3Q31.45 38.4 32.25 37Q36.4 37.65 40.3 37L40.25 36.95Q44 35.55 45.95 31.8Q47.4 29 46.95 25.95Q46.75 24.7 47.8 24.3L47.9 24.35L48.25 24.4L48.65 24.55L49.3 25.45L50.1 22.7Q50.55 20.15 49.05 18Q47.75 16.05 47.95 13.9L48.05 13.75L48.15 13.65L48.55 13.6L48.55 13.55L48.85 13.65L49.15 13.8L49.4 13.95L49.65 13.9L49.85 13.85L50.25 13.7L50.6 14L50.8 13.15Q51.35 10.45 49.2 8.75L47.3 7.25Q47.8 8.95 46.9 10.2Q45.55 9.35 45.15 7.25Q44.6 4.45 42.4 2.7L40.6 0.8Q39.85 1.1 39.25 0.35L40.9 -2.25Q41.4 -3.1 41.25 -3.95L40.95 -4L41 -4.7L40.75 -5.1Q40.2 -5.95 40.85 -6.45L41.75 -5.65Q42.9 -6.9 42.5 -8.45Q42.05 -10.45 40.05 -10.55L39.15 -9.7L37.65 -8.2L37.5 -8L38 -6.4Q38.1 -5.25 37.25 -4.75Q36.35 -5.35 36.15 -6.6L35.75 -6.25Q35.05 -6.5 35.45 -7.2L35.7 -7.6L35.15 -8Q33.6 -8.8 31.95 -9.1L32.1 -8.1Q32.25 -7.1 31.35 -6.8Q30.4 -8.9 28.9 -11Q28.3 -11.75 27.3 -11.15L23.65 -8.8L25.6 -8.75Q26.4 -8.75 26.8 -8.1L26.9 -7.85Q26.8 -7.45 26.45 -7.5Q24.05 -7.95 22 -6.9Q21.2 -6.5 20.85 -5.8L22 -4.95Q22.9 -4.2 22.75 -3.2Q21.8 -2.35 20.9 -3.55Q18.9 -6.3 15.65 -5.25Q14.35 -4.85 14.3 -3.65L14.2 -3.55Q15.55 -1.15 13.6 0.95Q12.6 2.05 11.65 1.85Q10.75 2.8 9.8 1.85L10.9 -0.25Q11.75 -2.15 9.65 -3.1L9.3 -3.25M32.4,-20.4L32 -20.7L31.35 -20.45L31.05 -20.3L30.75 -20.45L30.6 -20.55L30.55 -20.65L30.5 -20.7L30.4 -20.7L30.35 -20.65L29.6 -20L29.1 -19.25L29 -18.55Q29.3 -18.05 29.8 -17.85L31.9 -18L32.15 -18.75L32.3 -19.4L32.45 -20.25L32.4 -20.4M32.4,-17.25Q31.25 -15.7 29.5 -16.8Q26.3 -18.8 29.25 -21.4Q30 -22.1 31.05 -22.2Q35.55 -21.35 32.4 -17.25M43.6,-15.85L42.9 -15.3L42.2 -14.6Q41.9 -14.3 41.85 -13.85Q41.9 -13.4 42.45 -13.1Q43.5 -12.55 44.4 -13.4L44.55 -13.55L44.55 -14.25L44.45 -14.95Q44.35 -15.5 43.85 -15.8L43.6 -15.85M43.85,-17.4Q47.9 -15.25 44.6 -12.25L41.75 -12.35Q39.15 -14.8 42.6 -17Q43.15 -17.35 43.85 -17.4M49.1,-2.1L48.5 -1.95L48 -1.95Q47.6 -1.55 47.6 -1L47.6 -0.3L47.8 0.7L47.85 0.85L48.6 1.35L51 -0.05Q51.5 -0.35 51.3 -1.05Q51.15 -1.6 51.4 -1.9Q50.55 -2.75 49.3 -2.7Q49.4 -2.35 49.1 -2.1M48.85,-4.25Q55.1 -3.55 52.95 1.9Q52.4 3.3 50.85 3.1L48.75 2.65L48.3 2.5Q44.85 1.05 47.1 -2.9Q47.7 -3.95 48.85 -4.25M61.1,16.55L60.45 16.1L60.35 16.55L61.15 16.65L61.1 16.55M62.1,18.35Q60.3 18.8 58.8 18.05Q54.4 18.95 54.25 15.1Q54.2 14.1 55.3 13.8L56.45 13.5Q58.55 13.55 59.55 14.2L59.65 14.15Q61.9 14.4 63.05 16.25Q64.05 17.85 62.1 18.35M56.15,15.1L55.6 15.5L55.3 15.8L56.2 16.4L59.3 16.25L59 15.6L57.45 14.75L56.75 14.8L56.15 15.1M2.6,2.45L1.4 2.7Q0.3 3.05 0.65 4.2Q0.9 5.05 1.4 5.45L1.55 5.55Q2.2 5.9 3.3 5.55L3.3 5.4L3.3 5.1L3.2 4.65L3.1 4.3Q2.3 4.05 2.55 2.6L2.6 2.45M-7.2,20L-8.4 20.45L-9.3 21Q-9.15 21.4 -8.35 21.65L-4.15 21.55L-3.75 21.35L-3.7 21.25L-4.15 20.95L-4.4 20.7L-4.6 20.25L-4.7 20L-4.8 19.85L-4.8 19.8L-6 19.8L-6.1 19.8L-7.2 20" />
<path style="fill:#3A3A3A;fill-opacity:1" d="M2.65,-9.6Q4.05 -8.35 3.9 -5.75Q3.7 -2.85 1.25 -5Q-0.6 -6.55 0.35 -8.85L1.15 -9.15L1.95 -9.45L2.65 -9.6M9.65,-3.1Q11.75 -2.15 10.9 -0.25L9.8 1.85Q10.75 2.8 11.65 1.85Q12.6 2.05 13.6 0.95Q15.55 -1.15 14.2 -3.55L14.3 -3.65Q14.35 -4.85 15.65 -5.25Q18.9 -6.3 20.9 -3.55Q21.8 -2.35 22.75 -3.2Q22.9 -4.2 22 -4.95L20.85 -5.8Q21.2 -6.5 22 -6.9Q24.05 -7.95 26.45 -7.5Q26.8 -7.45 26.9 -7.85L26.8 -8.1Q26.4 -8.75 25.6 -8.75L23.65 -8.8L27.3 -11.15Q28.3 -11.75 28.9 -11Q30.4 -8.9 31.35 -6.8Q32.25 -7.1 32.1 -8.1L31.95 -9.1Q33.6 -8.8 35.15 -8L35.7 -7.6L35.45 -7.2Q35.05 -6.5 35.75 -6.25L36.15 -6.6Q36.35 -5.35 37.25 -4.75Q38.1 -5.25 38 -6.4L37.5 -8L37.65 -8.2L39.15 -9.7L40.05 -10.55Q42.05 -10.45 42.5 -8.45Q42.9 -6.9 41.75 -5.65L40.85 -6.45Q40.2 -5.95 40.75 -5.1L41 -4.7L40.95 -4L41.25 -3.95Q41.4 -3.1 40.9 -2.25L39.25 0.35Q39.85 1.1 40.6 0.8L42.4 2.7Q44.6 4.45 45.15 7.25Q45.55 9.35 46.9 10.2Q47.8 8.95 47.3 7.25L49.2 8.75Q51.35 10.45 50.8 13.15L50.6 14L50.25 13.7L49.85 13.85L49.65 13.9L49.4 13.95L49.15 13.8L48.85 13.65L48.55 13.55L48.55 13.6L48.15 13.65L48.05 13.75L47.95 13.9Q47.75 16.05 49.05 18Q50.55 20.15 50.1 22.7L49.3 25.45L48.65 24.55L48.25 24.4L47.9 24.35L47.8 24.3Q46.75 24.7 46.95 25.95Q47.4 29 45.95 31.8Q44 35.55 40.25 36.95L40.3 37Q36.4 37.65 32.25 37Q31.45 38.4 30.15 39.3Q25.95 42.15 22.9 38.9L23.05 38.65L23.2 38.35L23.2 38.05L23.2 37.9Q22.6 37.4 22 37.75L21.8 37.9L20.7 36.4L20.7 36.45L20.45 36.5L20.35 36.5L20.25 36.6L20.1 36.75Q19.75 37.65 20.35 38.5Q21.3 40 20 41.35Q19 42.4 17.6 42.45Q13.15 42.6 11.65 39.5Q12.4 38.5 12.3 37.15L14.4 37.45Q16.25 37 17.7 35.65Q19 34.4 18.55 32.85L18.35 32.7L18.05 32.65L17.65 32.6Q16.75 32.95 16.05 33.75Q14.35 35.55 11.85 35L11.1 34.55Q10.55 34.5 10.15 34.85L9.85 35.1L9.85 35.5Q10.1 36.2 9.85 36.9Q9.4 38.1 8.45 38.95Q7.25 40.05 6.1 40.6L6.05 40.45L5.55 39.95L5 39.85L4.9 39.9L4.6 40.3Q4.35 41.05 4.25 41.85Q4.15 43 3.4 43.75Q1.9 45.25 0.05 45.85L-0.05 45.75L-0.35 45.15Q-0.45 44.05 0.1 43.05L1.05 41.75Q2.1 40.6 3.4 40.2L3.4 40Q2.55 38.15 3.3 36.2Q3.6 35.4 4.3 35.05L8.15 33L8.05 32.55L7.6 32.15L7.15 32.05Q5.8 32.25 4.7 32.9L4.45 32.2Q4.1 31.35 4.6 30.55Q5.2 29.5 4.8 28.5L3.3 27.95Q1.85 27.35 1.35 26L0.8 24.9L5.5 24.3L5.6 24.2L5.75 24.1L5.85 23.95L5.9 23.8L5.9 23.65Q5.7 22.55 4.5 22.7Q3.2 22.85 2.15 22.15Q0.95 21.3 -0.2 20.75L-0.5 20.85L-0.7 21L-0.85 21.15L-0.9 21.25L-0.9 21.55L-0.45 22.25L0.45 22.95Q1.05 23.35 1.1 23.8L0.2 24.15L-0.2 23.85L-0.55 24.2L-0.65 24.2Q-1.9 24.1 -2.7 23.25L-2.85 23.1Q-1.8 22.35 -1.7 20.95Q-1.6 19.05 -3.45 18.35Q-3 17.9 -2.4 17.6L-1.95 17.4Q0 16.95 1.5 16.15L1.6 15.95Q1.45 15.35 0.85 15.35L0.65 15.35L0.6 15.3Q0.05 13.85 1.2 12.85L3.8 10.2Q3.45 9.45 2.6 9.8L1.4 9.95Q1.15 9.2 1.25 8.5L1.55 7.15Q2.9 7.55 4.05 6.35Q5.35 5.05 4.3 3.35L4.1 3.25L4 3.2L4.05 2.45L4.1 2.35L4.2 2.35L4.15 2Q4.4 1 5.05 0.3Q5.75 -0.45 6.1 -1.3Q7.25 -1.45 8.4 -2Q9.1 -2.4 9.25 -3.1L9.3 -3.25L9.65 -3.1M32.45,-20.25L32.3 -19.4L32.15 -18.75L31.9 -18L29.8 -17.85Q29.3 -18.05 29 -18.55L29.1 -19.25L29.6 -20L30.35 -20.65L30.4 -20.7L30.5 -20.7L30.55 -20.65L30.6 -20.55L30.75 -20.45L31.05 -20.3L31.35 -20.45L32 -20.7L32.4 -20.4L32.45 -20.25M43.85,-15.8Q44.35 -15.5 44.45 -14.95L44.55 -14.25L44.55 -13.55L44.4 -13.4Q43.5 -12.55 42.45 -13.1Q41.9 -13.4 41.85 -13.85Q41.9 -14.3 42.2 -14.6L42.9 -15.3L43.6 -15.85L43.85 -15.8M49.3,-2.7Q50.55 -2.75 51.4 -1.9Q51.15 -1.6 51.3 -1.05Q51.5 -0.35 51 -0.05L48.6 1.35L47.85 0.85L47.8 0.7L47.6 -0.3L47.6 -1Q47.6 -1.55 48 -1.95L48.5 -1.95L49.1 -2.1Q49.4 -2.35 49.3 -2.7M61.15,16.65L60.35 16.55L60.45 16.1L61.1 16.55L61.15 16.65M56.75,14.8L57.45 14.75L59 15.6L59.3 16.25L56.2 16.4L55.3 15.8L55.6 15.5L56.15 15.1L56.75 14.8M2.55,2.6Q2.3 4.05 3.1 4.3L3.2 4.65L3.3 5.1L3.3 5.4L3.3 5.55Q2.2 5.9 1.55 5.55L1.4 5.45Q0.9 5.05 0.65 4.2Q0.3 3.05 1.4 2.7L2.6 2.45L2.55 2.6M-6.1,19.8L-6 19.8L-4.8 19.8L-4.8 19.85L-4.7 20L-4.6 20.25L-4.4 20.7L-4.15 20.95L-3.7 21.25L-3.75 21.35L-4.15 21.55L-8.35 21.65Q-9.15 21.4 -9.3 21L-8.4 20.45L-7.2 20L-6.1 19.8" />
</g>
</svg>
