<?xml version="1.0" encoding="utf-8"?>
<svg version="1.1" id="Layer_1"
xmlns="http://www.w3.org/2000/svg"
xmlns:xlink="http://www.w3.org/1999/xlink"
width="8px" height="5px"
xml:space="preserve">
<g id="658" transform="matrix(1, 0, 0, 1, 4, 2.25)">
<path style="fill:#000000;fill-opacity:1" d="M1.85,-0.15L2.45 0.1L2.6 0.25L3.1 0.4L3.2 0.55Q3.95 0.75 4 1.1L3.9 1.65Q3.65 2.4 3.25 2.25L1.65 1.7L1.55 1.55L-0.65 0.75L-0.75 0.6L-1.95 0.15L-2.05 -0.05L-2.6 -0.2L-3 -0.35L-3.75 -0.85L-4 -1.15L-3.65 -2.25L-3.35 -2.15L-3.15 -1.95L-1.6 -1.2L-0.55 -1.05L-0.45 -0.9L1 -0.5L1.85 -0.15" />
</g>
</svg>
