<?xml version="1.0" encoding="utf-8"?>
<svg version="1.1" id="Layer_1"
xmlns="http://www.w3.org/2000/svg"
xmlns:xlink="http://www.w3.org/1999/xlink"
width="7px" height="13px"
xml:space="preserve">
<g id="1138" transform="matrix(1, 0, 0, 1, 0, 0)">
<path style="fill:#000000;fill-opacity:1" d="M5.75,3.2L5.6 3.5L4.9 3.45L4.15 4.45L2.4 7.05Q3.95 6.85 5.25 7.65L4.6 9.5L3.8 10.6Q3.45 10.95 3.35 11.65L4.4 12.25L4.35 12.25L4.2 12.5L3.3 12.75L0.55 12.55L0.55 12.3L2.15 9.8L2.55 9.05L2.3 8.9L0.9 8.1L0 7.2L0.65 5L3.55 3.2Q3.3 3.2 3.15 2.85L2.95 1.95L2.75 1.95L2.9 1.25L3.2 0.6L4.5 0Q5.15 0.2 5.6 0.65L6.45 1.85L6.15 1.85L5.75 3.2" />
</g>
</svg>
