<?xml version="1.0" encoding="utf-8"?>
<svg version="1.1" id="Layer_1"
xmlns="http://www.w3.org/2000/svg"
xmlns:xlink="http://www.w3.org/1999/xlink"
width="17px" height="4px"
xml:space="preserve">
<g id="806" transform="matrix(1, 0, 0, 1, 0, 0)">
<path style="fill:#0B0B0B;fill-opacity:1" d="M14.3,3.75L12.25 3.75L14.55 0L16.55 0L16.55 0.1L14.3 3.75M16.55,1.45L16.55 3.75L15.15 3.75L16.55 1.45M11.7,0L13.7 0L11.4 3.75L9.4 3.75L11.7 0M8.55,3.75L6.6 3.75L8.9 0L10.85 0L8.55 3.75M6.05,0L8.05 0L5.75 3.75L3.75 3.75L6.05 0M2.9,3.75L1 3.75L3.3 0L5.2 0L2.9 3.75M0.15,3.75L0 3.75L0 0L2.45 0L0.15 3.75" />
<path style="fill:#BD8051;fill-opacity:1" d="M15.15,3.75L14.3 3.75L16.55 0.1L16.55 1.45L15.15 3.75M13.7,0L14.55 0L12.25 3.75L11.4 3.75L13.7 0M9.4,3.75L8.55 3.75L10.85 0L11.7 0L9.4 3.75M8.05,0L8.9 0L6.6 3.75L5.75 3.75L8.05 0M5.2,0L6.05 0L3.75 3.75L2.9 3.75L5.2 0M1,3.75L0.15 3.75L2.45 0L3.3 0L1 3.75" />
</g>
</svg>
