<?xml version="1.0" encoding="utf-8"?>
<svg version="1.1" id="Layer_1"
xmlns="http://www.w3.org/2000/svg"
xmlns:xlink="http://www.w3.org/1999/xlink"
width="32px" height="15px"
xml:space="preserve">
<g id="1073" transform="matrix(1, 0, 0, 1, 14.05, 13.55)">
<path style="fill:#3A3A3A;fill-opacity:1" d="M11.2,-12.95L11.2 -12.15L10.55 -11.3L10.6 -11.2L11.25 -11L11.6 -9.85Q11.85 -8.6 10.95 -7.7Q10.3 -7.1 9.55 -6.8L11.45 -6.9Q12.15 -7.15 12.6 -7.6L12.8 -7.55Q13.75 -7.35 13.65 -6.45L13.25 -5.65L13.85 -5.75L13.9 -5.7L14.05 -5.05Q14 -4.5 13.35 -4.4L13.4 -4.2L14.25 -3.4L14.55 -2.7L14.5 -2.65L14.4 -2.45L14.4 -2.3L14.4 -2.15L15.25 -1.9L15.75 -1.95L15.95 -1.75L15.95 -1.65L15.9 -1.35L15.85 -1.15Q15.7 -0.9 15.35 -1L15 -1.1L14.9 -1.2L14.8 -1.35L14.6 -1.45L14.3 -1.05Q14.15 -0.35 13.4 -0.2Q12.6 -0.1 12.35 -0.95L12.1 -0.8L11.95 -0.65L11.85 -0.45L11 -0.2L10.05 -0.4L10.1 -0.75L10.15 -1.15L9.95 -1.45L9.85 -1.35Q9.75 -0.75 9.15 -0.55Q8.3 -0.3 7.75 -0.8L7.7 -2.2Q7.4 -3.3 6.3 -3.65Q6.1 -3.35 6.5 -2.9Q7.3 -2 6.6 -0.95L5.7 -0.05L5.55 -0.05Q5.25 0.05 5.15 -0.15L5 -0.55L4.85 -1.05Q4.6 -1.55 4.15 -1.45L4.15 -1.35L4.15 -1.25L4.2 -1.2L4.2 -1.15L4.15 -1.05L4 -0.75L3.8 -0.65L3 -0.85Q2.35 -1.1 1.8 -1.5Q1.25 -1.9 1.05 -2.4L0.85 -2.25L0.85 -2.05L0.9 -1.9L0.8 -1.8L0.75 -1.7L0.4 -1.6L-0.75 -1.4Q-1.4 -1.5 -1.9 -1.85L-1.95 -1.85L-2.05 -1.7L-2.05 -1.6L-2.1 -1.5L-2.1 -1.45L-2.15 -1.3Q-2.35 -1.1 -2.65 -1.1L-3.3 -0.85L-3.8 -0.6L-4.45 -0.55L-4.45 -0.6L-4.45 -0.75L-4.45 -0.8L-4.55 -1L-4.55 -1.2L-4.6 -1.35L-4.75 -1.5L-4.8 -1.65L-5.1 -2.35L-5.1 -2.75L-4.9 -3.2L-5.3 -3.95Q-5.65 -4.75 -5.4 -5.55L-4.7 -6.1L-3.4 -6.1L-3.65 -6.35L-4.25 -6.5L-4.8 -6.55L-5 -6.45Q-5.7 -6.05 -5.75 -5.25L-5.6 -4L-5.2 -3.15L-5.3 -2.8L-5.25 -2.15L-5.1 -1.65L-4.95 -1.4L-5.15 -0.9Q-5.5 -0.1 -6.35 -0.3L-7.25 -0.8L-7.9 -1.1L-8.4 -1.85Q-8.65 -2.3 -8.3 -2.7Q-7.8 -3.35 -8.3 -3.95L-8.5 -3.6L-8.7 -3.05L-9.35 -2.55Q-9.35 -2.1 -9.7 -1.75Q-10.1 -1.35 -10.7 -1.25L-10.85 -1.3L-11.6 -1.7L-12.2 -2.5L-12.25 -2.45Q-12.35 -2.9 -12.05 -3.25L-11.45 -3.7L-11.35 -3.75L-11.3 -3.7L-11.15 -3.7L-11.05 -3.7L-11.05 -3.75L-11.1 -3.9L-11.3 -4.05L-11.45 -4.05L-11.5 -4.05L-11.6 -4.05Q-12.15 -3.95 -12.45 -3.55L-12.4 -3.9L-12.35 -4.05L-11.8 -4.5Q-11.45 -4.55 -11.3 -4.75L-11.35 -4.85L-11.5 -4.95L-11.7 -4.95L-11.25 -6.2L-10.35 -7.1Q-9.35 -7.65 -8.25 -7.55L-8.4 -7.75L-8.75 -7.8L-8.8 -7.8L-8.95 -7.8L-8.95 -8L-8.75 -8.5L-7.95 -9L-7.85 -9.1L-7.85 -9.35Q-7.9 -10.1 -7.35 -10.6Q-6.8 -11.1 -6.05 -11.2L-4.45 -11.05L-4.4 -11.15L-4.25 -11.1Q-3.4 -10.9 -3.2 -10.1Q-3.1 -9.5 -2.65 -9.3L-2.7 -10.1L-2.75 -10.25L-2.5 -10.7Q-1.95 -11.3 -1.25 -10.9L-1.05 -10.9L-1 -11.3L-0.7 -11.75L-0.2 -11.95L-0.1 -11.95L-0.05 -11.85L0.5 -11.9L0.55 -11.9Q0.65 -12.4 1.15 -12.55Q2.2 -12.8 2.55 -12L2.6 -11.95L2.65 -11.75L2.85 -11.6L3.1 -10.95L3.25 -10.45L3.2 -10.3L3.25 -10.3L3.3 -10.25L3.35 -10.25L3.55 -10.2L3.95 -9.5L4.15 -8.6L4.15 -8.4L4.1 -8.4L4.1 -8.3L3.85 -7.85Q4.15 -7.8 4.35 -8L4.45 -7.9L4.6 -7.5L4.6 -7.3L4.6 -7.15L4.55 -7.1L4.45 -7.05L4.4 -7L4.45 -6.7L4.8 -6.15L5.05 -5.55L5.35 -5.35L5.45 -5.45L5.65 -5.75L5.6 -6.05L5.55 -6.15L5.55 -6.3L5.95 -6.6L6.2 -6.85L6.25 -7.05L6.25 -7.2L6.2 -7.25L6.2 -7.3L6.1 -7.4Q6.2 -8 5.9 -8.4L5.35 -9.3Q4.95 -9.9 4.15 -9.9L4.1 -9.9L3.55 -10.45L3.6 -10.7L3.3 -11.6L3.05 -11.9L3.05 -11.95L3.9 -11.9L4.25 -11.6L4.5 -11.45L5.1 -11.95Q5.8 -12.5 6.3 -11.7Q6.45 -11.45 6.7 -11.45L7.15 -11.85Q7.6 -12.4 8.2 -12.55Q8.35 -12.4 8.6 -12.3L9.15 -11.7L9.3 -11.25L9.45 -11.3L9.55 -11.35L9.7 -11.5L9.85 -11.6L9.9 -12L9.85 -12.2L9.75 -12.4L9.6 -12.8L9.7 -12.85L11.2 -13.1L11.2 -12.95M-12.9,-2.7Q-13.05 -2.05 -12.55 -1.4L-12.45 -1.3L-13.1 -1.2L-13.45 -1.45L-13.55 -1.6L-13.65 -1.8L-13.05 -2.6L-12.9 -2.7" />
<path style="fill:#1E1E1E;fill-opacity:1" d="M11.2,-13.1L9.7 -12.85L9.6 -12.8L9.75 -12.4L9.85 -12.2L9.9 -12L9.85 -11.6L9.7 -11.5L9.55 -11.35L9.45 -11.3L9.3 -11.25L9.15 -11.7L8.6 -12.3Q8.35 -12.4 8.2 -12.55Q7.6 -12.4 7.15 -11.85L6.7 -11.45Q6.45 -11.45 6.3 -11.7Q5.8 -12.5 5.1 -11.95L4.5 -11.45L4.25 -11.6L3.9 -11.9L3.05 -11.95L3.05 -11.9L3.3 -11.6L3.6 -10.7L3.55 -10.45L4.1 -9.9L4.15 -9.9Q4.95 -9.9 5.35 -9.3L5.9 -8.4Q6.2 -8 6.1 -7.4L6.2 -7.3L6.2 -7.25L6.25 -7.2L6.25 -7.05L6.2 -6.85L5.95 -6.6L5.55 -6.3L5.55 -6.15L5.6 -6.05L5.65 -5.75L5.45 -5.45L5.35 -5.35L5.05 -5.55L4.8 -6.15L4.45 -6.7L4.4 -7L4.45 -7.05L4.55 -7.1L4.6 -7.15L4.6 -7.3L4.6 -7.5L4.45 -7.9L4.35 -8Q4.15 -7.8 3.85 -7.85L4.1 -8.3L4.1 -8.4L4.15 -8.4L4.15 -8.6L3.95 -9.5L3.55 -10.2L3.35 -10.25L3.3 -10.25L3.25 -10.3L3.2 -10.3L3.25 -10.45L3.1 -10.95L2.85 -11.6L2.65 -11.75L2.6 -11.95L2.55 -12Q2.2 -12.8 1.15 -12.55Q0.65 -12.4 0.55 -11.9L0.5 -11.9L-0.05 -11.85L-0.1 -11.95L-0.2 -11.95L-0.7 -11.75L-1 -11.3L-1.05 -10.9L-1.25 -10.9Q-1.95 -11.3 -2.5 -10.7L-2.75 -10.25L-2.7 -10.1L-2.65 -9.3Q-3.1 -9.5 -3.2 -10.1Q-3.4 -10.9 -4.25 -11.1L-4.4 -11.15L-4.45 -11.05L-6.05 -11.2Q-6.8 -11.1 -7.35 -10.6Q-7.9 -10.1 -7.85 -9.35L-7.85 -9.1L-7.95 -9L-8.75 -8.5L-8.95 -8L-8.95 -7.8L-8.8 -7.8L-8.75 -7.8L-8.4 -7.75L-8.25 -7.55Q-9.35 -7.65 -10.35 -7.1L-11.25 -6.2L-11.7 -4.95L-11.5 -4.95L-11.35 -4.85L-11.3 -4.75Q-11.45 -4.55 -11.8 -4.5L-12.35 -4.05L-12.4 -3.9L-12.45 -3.55Q-12.15 -3.95 -11.6 -4.05L-11.5 -4.05L-11.45 -4.05L-11.3 -4.05L-11.1 -3.9L-11.05 -3.75L-11.05 -3.7L-11.15 -3.7L-11.3 -3.7L-11.35 -3.75L-11.45 -3.7L-12.05 -3.25Q-12.35 -2.9 -12.25 -2.45L-12.2 -2.5L-11.6 -1.7L-10.85 -1.3L-10.7 -1.25Q-10.1 -1.35 -9.7 -1.75Q-9.35 -2.1 -9.35 -2.55L-8.7 -3.05L-8.5 -3.6L-8.3 -3.95Q-7.8 -3.35 -8.3 -2.7Q-8.65 -2.3 -8.4 -1.85L-7.9 -1.1L-7.25 -0.8L-6.35 -0.3Q-5.5 -0.1 -5.15 -0.9L-4.95 -1.4L-5.1 -1.65L-5.25 -2.15L-5.3 -2.8L-5.2 -3.15L-5.6 -4L-5.75 -5.25Q-5.7 -6.05 -5 -6.45L-4.8 -6.55L-4.25 -6.5L-3.65 -6.35L-3.4 -6.1L-4.7 -6.1L-5.4 -5.55Q-5.65 -4.75 -5.3 -3.95L-4.9 -3.2L-5.1 -2.75L-5.1 -2.35L-4.8 -1.65L-4.75 -1.5L-4.6 -1.35L-4.55 -1.2L-4.55 -1L-4.45 -0.8L-4.45 -0.75L-4.45 -0.6L-4.45 -0.55L-3.8 -0.6L-3.3 -0.85L-2.65 -1.1Q-2.35 -1.1 -2.15 -1.3L-2.1 -1.45L-2.1 -1.5L-2.05 -1.6L-2.05 -1.7L-1.95 -1.85L-1.9 -1.85Q-1.4 -1.5 -0.75 -1.4L0.4 -1.6L0.75 -1.7L0.8 -1.8L0.9 -1.9L0.85 -2.05L0.85 -2.25L1.05 -2.4Q1.25 -1.9 1.8 -1.5Q2.35 -1.1 3 -0.85L3.8 -0.65L4 -0.75L4.15 -1.05L4.2 -1.15L4.2 -1.2L4.15 -1.25L4.15 -1.35L4.15 -1.45Q4.6 -1.55 4.85 -1.05L5 -0.55L5.15 -0.15Q5.25 0.05 5.55 -0.05L5.7 -0.05L6.6 -0.95Q7.3 -2 6.5 -2.9Q6.1 -3.35 6.3 -3.65Q7.4 -3.3 7.7 -2.2L7.75 -0.8Q8.3 -0.3 9.15 -0.55Q9.75 -0.75 9.85 -1.35L9.95 -1.45L10.15 -1.15L10.1 -0.75L10.05 -0.4L11 -0.2L11.85 -0.45L11.95 -0.65L12.1 -0.8L12.35 -0.95Q12.6 -0.1 13.4 -0.2Q14.15 -0.35 14.3 -1.05L14.6 -1.45L14.8 -1.35L14.9 -1.2L15 -1.1L15.35 -1Q15.7 -0.9 15.85 -1.15L15.9 -1.35L15.95 -1.65L15.95 -1.75L15.75 -1.95L15.25 -1.9L14.4 -2.15L14.4 -2.3L14.4 -2.45L14.5 -2.65L14.55 -2.7L14.25 -3.4L13.4 -4.2L13.35 -4.4Q14 -4.5 14.05 -5.05L13.9 -5.7L13.85 -5.75L13.25 -5.65L13.65 -6.45Q13.75 -7.35 12.8 -7.55L12.6 -7.6Q12.15 -7.15 11.45 -6.9L9.55 -6.8Q10.3 -7.1 10.95 -7.7Q11.85 -8.6 11.6 -9.85L11.25 -11L10.6 -11.2L10.55 -11.3L11.2 -12.15L11.2 -12.95L11.2 -13.1M10.8,-13.55Q11.6 -13.6 12 -12.95L12.4 -11.6L12.15 -11.1Q13.05 -10.6 13.1 -9.25L12.8 -7.85L13.15 -7.8L13.65 -7.5L14 -7.2L14.15 -6.7L14.1 -6.15L14.7 -5.8Q15.05 -5.5 15.05 -5L14.9 -4.45L15.5 -3.85L15.85 -3.05L15.9 -2.4L15.95 -2.45L16.05 -2.35L16.2 -2.25L16.25 -2.15L16.75 -1.6Q17.1 -1.1 16.95 -0.5L16.65 0.15L15.95 0.15L15.75 0.1L15 0.65L14.5 0.75L12.9 0.75L12.4 0.65L10.65 0.75L10.3 0.85L9.35 1.05Q8.45 0.95 7.8 0.45L7.6 0.25L7.3 0.45L6.9 0.55L6.75 0.55L5.15 0.6L4.85 0.45L4.25 0.7L3.35 0.55L3.15 0.4L2.2 0.5L1.55 0.25L1.4 0.2Q0.95 0.8 0.2 0.5L-0.85 0.1L-1.4 0.05Q-2.05 0.8 -3.05 0.8L-5.3 0.45L-6.2 0.75L-7.55 0.6L-7.8 0.5L-8 0.3L-8.05 0.15L-8.1 0.1Q-9 0.8 -10.3 0.45Q-11.1 0.25 -11.45 -0.4Q-12.6 0.05 -13.55 -0.65L-13.8 -0.85Q-14.15 -1.15 -14.05 -1.75L-13.65 -2.4L-13.05 -3.1L-12.75 -3.3L-12.7 -3.75L-12.45 -4.5L-11.85 -4.9L-11.9 -5.45L-11.55 -6.25L-10.2 -7.65L-9.25 -7.85L-9.25 -8.2L-9 -8.7L-8.85 -8.9L-8.65 -9.05L-8.25 -9.2L-8.25 -9.6L-7.9 -10.45L-7.25 -11.1L-5.9 -11.65L-5.1 -11.55L-4.85 -11.5L-4.75 -11.5L-4.55 -11.55Q-3.9 -11.5 -3.4 -11.1L-2.9 -10.6L-2.85 -10.7Q-2.35 -11.55 -1.35 -11.35L-1.35 -11.4L-1.15 -11.95Q-0.55 -12.45 0.15 -12.25L0.2 -12.2L0.4 -12.5L0.75 -12.85L1.1 -13.05Q1.7 -13.3 2.15 -13.05L2.95 -12.25L2.95 -12.2L4.15 -12.15L4.5 -11.9L4.75 -12.15L6.35 -12.2L6.65 -11.9L6.85 -12.05L7.3 -12.55L8.25 -13.05L8.85 -13L9.2 -12.95L9.3 -13.1L10.3 -13.45L10.8 -13.55M1.1,-1.65L1 -1.65L1.15 -1.55L1.1 -1.65M-13.05,-2.6L-13.65 -1.8L-13.55 -1.6L-13.45 -1.45L-13.1 -1.2L-12.45 -1.3L-12.55 -1.4Q-13.05 -2.05 -12.9 -2.7L-13.05 -2.6M-12.35,-1.7L-12.25 -1.55L-12.25 -1.6L-12.35 -1.7" />
</g>
</svg>
