<?xml version="1.0" encoding="utf-8"?>
<svg version="1.1" id="Layer_1"
xmlns="http://www.w3.org/2000/svg"
xmlns:xlink="http://www.w3.org/1999/xlink"
width="23px" height="20px"
xml:space="preserve">
<g id="749" transform="matrix(1, 0, 0, 1, -17.7, -1.6)">
<path style="fill:#000000;fill-opacity:1" d="M39.9,3.05L39.55 3.45Q39.25 3.7 38.95 3.35Q38.15 2.4 38.9 1.6Q39.9 1.85 40.05 2.35L40.05 2.4L39.95 2.9L39.95 3L39.9 3.05M36.15,3.6Q38.45 4.05 38.65 5.5L38.85 5.6L38.9 5.65L38.75 6.05L38.55 6.35L38.4 6.75Q38.25 7.05 37.85 7Q34.5 6.8 35.4 4.2Q35.55 3.8 36 3.65L36.15 3.6M26.85,5.85L27.25 6.35L27.3 6.4L25.05 8.75Q23.7 10.35 22.3 10.05L23.9 8L26 5.9L26.35 5.55L26.85 5.85M29.85,14.25L30.95 15.3L31.5 15L31.6 14.95L32.45 14.25Q33.3 13.75 34.3 13.55L34.7 13.4Q36.7 14.05 38.2 15.75Q39.05 16.7 39.4 18.05L39.7 19.85L39.7 19.9L39.15 19.85Q38.25 20.5 37.15 20.8L36.7 20.9L36.7 21Q34.25 21.3 31.65 21L30.8 21.15L29.4 21.1L28.85 21.15L23.1 21.35L19.3 20.85L17.7 20.65L17.7 20L17.8 19.75L18.15 18.95L18.2 18.65L18.25 18.5L18.3 18.35L18.5 17.95L18.55 17.8L18.7 17.6L18.95 17.75L19.1 17.9L19.15 18Q22.1 19 25.2 18.7L25.4 18.4L26 17.85L26.1 17.7L26.2 17.65L26.35 17.45L26.4 17.35L26.6 17.2L24.3 16.95L23.95 16.7L24.9 15.65Q25.9 14.35 27.7 14.15L28.3 13.95L29.85 14.25M30.05,16.9L29.75 16.4Q28.65 16.95 27.4 17.15L30.9 17.55L31.55 17.7L31.25 17.4L32.45 17.5L33.5 17.6L33.55 17.6L33.45 17.35L33.15 16.95L31.75 17.2Q30.7 17.55 30 16.9L30.05 16.9M35.5,20.9L35.45 20.95L36.15 20.9L35.8 20.85L35.5 20.9" />
</g>
</svg>
