<?xml version="1.0" encoding="utf-8"?>
<svg version="1.1" id="Layer_1"
xmlns="http://www.w3.org/2000/svg"
xmlns:xlink="http://www.w3.org/1999/xlink"
width="155px" height="16px"
xml:space="preserve">
<g id="154" transform="matrix(1, 0, 0, 1, -2.65, -10.2)">
<path style="fill:none;stroke-width:1;stroke-linecap:round;stroke-linejoin:round;stroke-miterlimit:3;stroke:#C7E9FD;stroke-opacity:1" d="M148.9,11.55L152.55 12.6L154.15 12L156.35 13.6M135.75,20.2L139.45 17.6L140.85 18.3L144.5 16.25L147.35 16.5M155.05,15.45L152.55 14.85L153.3 16.1L149.4 16.15M136.75,12.15L139.55 12.9L141.6 12.25M101.55,13.35L107.85 14.35L109 14.4L115.8 12.55L125.45 12.45M87.15,20.05L92.15 20.25L93.85 17.05L98.7 17.8L100.15 15.85M107.75,25.65L103.15 24.6L97.55 23.9M63.15,10.7L68.5 12.45L76.75 11.6M3.15,18.15L5.7 17.55L7.95 18.3L10.65 16.5" />
</g>
</svg>
