<?xml version="1.0" encoding="utf-8"?>
<svg version="1.1" id="Layer_1"
xmlns="http://www.w3.org/2000/svg"
xmlns:xlink="http://www.w3.org/1999/xlink"
width="18px" height="26px"
xml:space="preserve">
<g id="614" transform="matrix(1, 0, 0, 1, -7.1, -0.5)">
<path style="fill:#000000;fill-opacity:0.498039" d="M8.25,23.15Q8.65 22.85 9.4 22.65L11.3 22.3L13.7 22.15L17.1 22.45L17.95 22.65Q19.75 23.15 19.75 23.85Q19.75 24.55 17.95 25.05L13.7 25.55L9.4 25.05Q7.65 24.55 7.65 23.85Q7.65 23.45 8.25 23.15" />
<path style="fill:#000000;fill-opacity:1" d="M22.4,5.8L22.5 5.8L22.45 5.75L22.4 5.8M22.75,4.95L22.8 5L22.5 5.6L23 5.65L23.25 5.7L24.15 5.65L24.75 5.65L24.8 5.7L24.8 5.75L24.75 6.25L24.6 6.75L22.15 6.4L22 6.7L21.4 7.45L21.35 7.55L21.35 7.6L21.15 8.1L22.95 7.8L23.35 7.7L23.5 7.75L23.55 7.8L23.7 8L23.75 8.4L23.8 8.6L23.25 8.75L21.45 10L21.5 10.35L21.5 10.45L21.45 10.5L21.4 10.55L21.35 10.85L21.2 11.2L21.15 11.3L20.9 11.55L20.75 11.65L20.65 11.7L20.6 11.7L20.5 11.7L20.2 12.1L19.95 12.4L18.9 13.65Q18.05 14.6 16.85 14.1L16.75 14L16.45 14.2L15.2 14.9Q15.4 16.2 15.9 17.4Q16.45 18.8 17.75 19.65L17.8 19.75L17.1 20.75L16.4 21.45L16.25 21.6L16.1 21.75L15.4 22.2L13.7 22.15L13.6 19.65Q13.55 18.95 13.15 18.4Q12.65 17.55 12.45 16.6L11.7 17.6L11.6 18.05L11.55 18.55L11.55 18.95L11.8 20.85L11.9 21.2L12.15 22.25L12.15 22.35L11.45 22.55L11.3 22.65Q9.35 23.3 7.4 23.4L7.2 23.05L7.1 22.6L7.1 22.45L7.95 21.6Q8.25 21.25 8.7 21L8.8 18.9L8.15 17.6L7.55 16.5L8.95 16.25L9.3 15.9L10.55 14.5L11.3 13.5L11.25 13.4L11.55 12.6L11.4 12.7L12 11.75L12.75 10.85L12.8 10.9L13.65 9.9L13.8 9.8L12.55 8.8L12.4 8.75L11.55 8.35Q10.2 7.95 9.2 7.1L9.1 7.05L8 6.9L7.85 6.65Q7.55 6.3 7.7 5.9Q7.8 5.45 8.35 5.35L8.55 5Q8.8 4.45 9.35 4.15L10.1 4L10.1 3.95Q10.9 3.85 11.35 4.4L12 5.6L12.05 5.75Q13.8 6.7 15.75 7.3L16.05 7L16.35 6.85L15.9 6.1L15.45 5L15.05 5.15L14.65 4.75L14.55 4.5L14.4 4.45L14.35 4.45L14.1 4.4L14 4.2L12.95 3.8Q12.85 3.15 13 2.55L13.15 1.95L13.15 1.5Q13.2 0.95 13.75 0.8L14.4 0.55Q15.45 0.3 16.15 0.9L16.2 0.95L16.65 1.05L17.3 1.3L17.5 1.4L17.55 1.55L17.55 1.75L17.55 2.15L18.1 1.7Q18.9 0.9 19.95 0.65L20.2 0.55Q21.8 0.65 22.6 2.05Q23.35 3.35 22.75 4.65L22.75 4.75L22.75 4.95M22.95,8.8L22.75 9L23.05 8.75L22.95 8.8M20.6,9L20.35 9.3L21.05 9.6L21.2 9.7L22.65 8.8L20.6 9M14.35,4.25L14.4 4.3L14.4 4.25L14.35 4.25M20.1,9.25L20.15 9.25L20.15 9.2L20.1 9.2L20.1 9.25M20,9.4L19.95 9.4L20 9.4" />
</g>
</svg>
