<?xml version="1.0" encoding="utf-8"?>
<svg version="1.1" id="Layer_1"
xmlns="http://www.w3.org/2000/svg"
xmlns:xlink="http://www.w3.org/1999/xlink"
width="12px" height="27px"
xml:space="preserve">
<g id="876" transform="matrix(1, 0, 0, 1, 5.25, 8.05)">
<path style="fill:#000000;fill-opacity:0.988235" d="M4.55,-5.55Q4.45 -6.85 4.8 -7.95L5.75 -8.05L6.4 -6.05L6.15 -5.8L6.1 -4.75L5.35 -1.55L5.2 -1.05L3.35 3.5L3.5 4.1Q3.9 6.05 3.05 7.15L2.85 7.35L3.55 9.4L4.5 12Q5.1 13.75 5.1 14.75L5.1 15.6Q5.15 15.45 5.35 15.8Q6.2 17.4 6.75 18L5.6 18.75Q3.25 17.25 3.2 16.1Q3.15 14.9 2.5 14.3Q1.9 13.75 1.4 12.15Q0.85 10.55 0.5 11.75L-0.15 13.8L-0.6 14.55Q-1.9 15.65 -1.55 17.15L-3.2 18.1Q-4.65 18.95 -5.25 17.45L-3.85 16.4L-3.8 16.25L-3.25 14.7L-2.25 11.7L-1.2 7.35L-2.35 6.85L-2.5 3.8L-2.85 3.25Q-3.85 0.95 -4.25 -1.45L-4.5 -1.85L-4.35 -4.75Q-5.25 -5.95 -4.35 -7.25L-3.45 -7.2L-3.3 -6.6L-3.1 -5.3L-2.75 -1.45Q-1.85 -0.05 -1.75 1.85L-1.15 1.7L-1.6 0.85Q-2.5 -1.55 -0.35 -2.9L0.9 -2.55L1.6 -1.9Q2.7 -0.25 1.65 1.55L2.4 1.75Q2.6 -0.4 4 -2.15L4.45 -4.5L4.55 -5.55" />
</g>
</svg>
