<?xml version="1.0" encoding="utf-8"?>
<svg version="1.1" id="Layer_1"
xmlns="http://www.w3.org/2000/svg"
xmlns:xlink="http://www.w3.org/1999/xlink"
width="78px" height="86px"
xml:space="preserve">
<g id="455" transform="matrix(1, 0, 0, 1, 12.5, 24.2)">
<path style="fill:#FFCC00;fill-opacity:1" d="M0.9,-12.75L5.75 -8.4Q7.55 -6.7 7.85 -4.5L8.5 1.25Q6.15 -0.2 4.2 -3Q2.5 -5.5 1.35 -8.3Q0.55 -10.3 0.3 -12.4L0.4 -12.55L0.6 -12.65L0.9 -12.75M3.35,-8.1L4.1 -5.55Q4.6 -4.3 5.5 -3.3L6.6 -2.15L6.15 -4.6Q5.55 -6.05 4.35 -7.15L3.35 -8.1M34.1,-18.15Q33.1 -15.15 31.7 -12.15Q30.9 -10.35 29.8 -9.15Q28.6 -11.75 29.75 -15.25L31.35 -20.85Q31.85 -22.95 33.3 -24.2Q35.3 -21.7 34.1 -18.15M32.2,-19.3L31.5 -17.05L31.15 -15.8Q32.25 -16.35 32.75 -17.7Q33.15 -18.8 33.15 -20.05L33.1 -21.45L32.2 -19.3M37.9,-6.35Q39.75 -7.45 40.85 -9.3Q41.7 -10.7 42.2 -12.35Q42.5 -13.4 42.3 -14.2L40.05 -11.4Q38.8 -10 38.5 -8.25L37.9 -6.35M36.25,-3.75L37.9 -9.3Q38.9 -12.2 40.85 -14.5L43.4 -16.95Q44.45 -14.25 43.5 -10.8Q42.65 -7.55 39.85 -5.55L37.25 -3.2L36.75 -3.1L36.1 -3L36 -3.05L35.95 -3.2L36 -3.3L36.2 -3.65L36.25 -3.75M58.45,14.85Q59.05 15.1 59.65 15.5Q60.15 15.85 60.1 16.5L60 16.75L55.8 17.2Q54.45 17 53.2 16.3Q52.4 15.8 52.1 14.95L51.95 14.85L51.55 14.75L51.45 14.65L51.4 14.5Q51.6 14.25 51.95 14.2L52.25 14.2L54.65 14L55.25 14.05L56.65 14.2L57.95 14.3L58.3 14.7L58.45 14.85M56.3,16L57.25 15.75Q56.4 14.9 55.2 15.45L55.35 15.55L55.45 15.7L55.55 15.85L55.8 16.05L56.3 16M54.95,24.3L55.85 25.15Q57.05 26.1 58.4 26.7Q59.85 27.35 61.45 27.2L61.4 26.75L60.45 25.8L58.95 24.65L57.5 23.85L57.25 23.85L56.3 24L56 24.05L55.2 24.2L54.95 24.3M53.5,23.2L56.1 22.35L57.1 22.2Q58.9 22.8 60.4 23.9Q62 25.05 63.4 26.3Q64.35 27.15 64.6 28.15Q61.05 29.4 57.2 27.65Q54.5 26.5 52.8 24.2Q52.8 23.45 53.5 23.2M34.35,6Q35.8 7.5 36.25 9.65Q36.5 10.75 36.1 11.7Q38 13.25 38.6 16Q39.45 20.15 37.2 23.75Q35.85 25.85 34.15 25.25Q34.9 24.9 35.6 24Q38.05 20.65 37.25 16.5Q36.5 12.75 33.25 10.85L33.15 10.55Q33.1 10.25 33.5 10.25L34.3 10.55L34.25 10.25L34.25 10.2L34.95 9.95Q34.9 9.1 34.45 8.25Q33.75 6.9 32.35 6.25Q31.05 5.6 29.6 5.55L29.15 5.6L29.05 5.6Q28.2 4.6 27 4.05Q25.45 3.3 23.75 3.3L23.4 3.4Q21.15 3.75 19.5 5.1L18.05 6.7Q14.15 7.2 12.45 10.55Q11.7 11.95 11.65 13.5L11.25 12.75L11.05 12.7L10.85 12.65L10.65 12.65Q9.55 13.3 9.4 14.75L9.3 17.55Q9.3 19.55 10.85 20.35L10.95 21.45Q11.5 24.25 14.2 25.7Q16.8 27.1 18.45 26.6L18.6 26.9L15.8 27.55L15.1 26.8Q14.6 26.95 14.5 27.35L13.95 27.1L14.55 27.7L14.6 27.9L15.45 29.4Q16.55 30.65 17.7 30.55L18.15 30.85L18.25 30.45L18.6 30.25Q19.25 32.05 21.25 33.05Q24.7 34.65 26.8 33.45Q27.4 34.5 29.15 34.75Q32.85 35.3 35.7 33.2Q37.95 31.55 37.9 29.15L38.05 29.1L38.3 29.5L39.25 28.55Q41.1 27.45 42 25.1Q44 19.8 43.3 14.05Q42.55 8 36.6 6.05L36.35 6.1L35.95 6.25L35.65 6.5L34.35 6M42.5,27.15Q41.1 30 38.65 30.65Q38.75 32.25 36.45 33.85Q33.4 36 29.7 35.65Q28.15 35.5 27.25 34.75Q24.3 36.7 20.45 34.45Q19.2 33.7 18.55 32.5Q17.05 32 15.85 31.15L9.35 30.8Q9.65 29.6 10.3 28.35Q10.9 27.25 11.1 26.05Q11.2 25.4 11.65 25.15L10.9 24.05Q9.1 24.45 6.75 23.6Q4.7 22.9 3.05 21.6Q3 20.05 4.7 19.6Q6.5 19.1 7.85 17.85L8.25 17.6Q8.15 14.75 9.45 12.45Q10.15 11.15 11.4 10.5Q12.35 8.3 14.5 7.05Q15.55 6.45 16.6 6.2L16.75 6.2Q16.9 5.5 17.45 4.9Q18.75 3.6 20.45 2.85L22.3 2.4L25.8 2.75Q27.2 3.2 28.3 4.3L28.75 4.1L29.05 4L29.25 3.9Q31.9 3.85 33.8 5.45L34.15 5.8L34.5 5.65L34.75 5.6Q42.75 6.65 44.15 13.95Q45.45 20.9 42.5 27.15M19.2,6.65L19.45 6.55L19.7 6.7L19.2 6.65M11.2,18.85L11.1 18.6L11.05 18.5L11.45 18.2L11.55 18.25L11.2 18.85M24.65,10.65L23.25 11.1Q22.4 11.55 21.85 12.25L21.3 12.65L20.95 13.2Q20.65 12.7 20.9 12.15L21.2 11.4L21.35 11Q21.9 10.1 22.85 9.85L22.9 9.85L24.5 9.95Q25.15 10 25.5 10.5L25.6 10.75L24.65 10.65M30.25,17.25Q30.7 15.55 29.7 14Q29.15 13.1 28.3 12.75L28.6 12.55Q30.3 13.25 31.15 14.8Q32.15 16.6 30.95 18.1Q30.2 19.05 29.35 18.6Q30 18.15 30.25 17.25M28.5,23.7Q28.4 24.95 26.7 24.8Q24.75 24.6 23.2 23.55Q21.15 24 19.05 21.95Q18.1 21 18.05 19.65Q18.05 18.5 18.55 17.6L18.75 17.45L18.85 17.35L18.9 17.3L19.15 17.3L19.15 17.25L19.45 17.35L19.6 17.4L19.4 17.95Q19.1 19.35 19.65 20.6Q20.65 22.85 22.5 21.8L22.45 21.7L22.8 21.7Q23.65 23 25.1 23.6L28.5 23.7M7.65,18.75Q7.5 18.75 7.3 18.9L6.65 19.25L5.35 19.9Q4.65 20.3 4.55 21.05Q5 21.85 6 22.15Q7.1 22.5 7.85 22.15L9.3 22.4L10.35 22.75L10.1 21.6Q8.7 21.25 8.35 19.15L8.2 19.3L7.65 18.75M11.75,26.7Q11.6 26.75 11.45 26.9Q11.1 27.2 11 27.65L10.45 29.3Q10.15 30.05 10.35 30.85L12.5 31.05Q13.45 30.8 13.5 30L13.5 29.95L14.4 29.95L13.85 29.3Q12.7 27.95 12.6 26.2L12.3 25.9L12.2 27L12.2 27.05L11.75 26.7M6.6,38.4L6.65 38.55L6.75 38.8L6.75 38.95L6.75 39.1L3.9 42.8L0.7 46.8Q-0.3 48 -1.55 47.6L-0.35 43.5Q0.1 41.6 1.55 40.5Q3.35 39.1 5.35 38.1L5.55 38.15L6 38.2L6.25 38.2L6.5 38.25L6.6 38.4M1.6,41.75L1.5 42.3L1.5 42.85L1.4 43.3L1.35 43.8L1.35 44.1L1.8 43.65L2.3 43.05L2.8 42.5Q3 42.3 3.3 42.2L3.45 41.55L3.65 40.95L4.1 40.45Q4.65 39.95 4.45 39.85L3.35 40.55L2.25 41.15L1.6 41.75M38.35,49.3L38.45 49.2L38.55 49.15L38.8 49.15L38.8 49.1Q39.65 49.2 40.1 50L40.7 51.4Q40.9 51.95 41.45 52.1L42.5 55.15Q43.05 56.95 43.95 58.55Q44.7 59.8 44.6 61.05Q41.4 60.7 39.75 57.15Q38.6 54.75 38.25 51.95Q38.1 50.65 38.25 49.45L38.35 49.3M40.5,53.7Q40.35 54.75 40.8 55.55L41.8 57.25L42.55 58.3L42 56.35L41.35 54.9L40.5 53.7M-12.45,20.9L-12.2 20.5L-10.5 19.7L-7.95 18.75L-6.35 18.65L-4.35 18.85Q-3.25 19.15 -2.5 19.95Q-2.55 20.6 -3.05 20.95Q-5.5 22.85 -8.3 22.15L-12.45 21.3L-12.45 20.9M-6.2,20.95L-5.8 20.75L-5.45 20.55L-4.95 20.25L-7.6 20L-7.7 20L-7.95 20.15L-8.05 20.25L-8.4 20.35L-8.6 20.5Q-8.95 20.65 -8.1 20.8L-7.1 21.05L-6.55 21.2L-6.2 20.95" />
<path style="fill:#FFFF00;fill-opacity:1" d="M4.35,-7.15Q5.55 -6.05 6.15 -4.6L6.6 -2.15L5.5 -3.3Q4.6 -4.3 4.1 -5.55L3.35 -8.1L4.35 -7.15M33.1,-21.45L33.15 -20.05Q33.15 -18.8 32.75 -17.7Q32.25 -16.35 31.15 -15.8L31.5 -17.05L32.2 -19.3L33.1 -21.45M38.5,-8.25Q38.8 -10 40.05 -11.4L42.3 -14.2Q42.5 -13.4 42.2 -12.35Q41.7 -10.7 40.85 -9.3Q39.75 -7.45 37.9 -6.35L38.5 -8.25M55.8,16.05L55.55 15.85L55.45 15.7L55.35 15.55L55.2 15.45Q56.4 14.9 57.25 15.75L56.3 16L55.8 16.05M55.2,24.2L56 24.05L56.3 24L57.25 23.85L57.5 23.85L58.95 24.65L60.45 25.8L61.4 26.75L61.45 27.2Q59.85 27.35 58.4 26.7Q57.05 26.1 55.85 25.15L54.95 24.3L55.2 24.2M38.05,29.1L37.9 29.15Q37.95 31.55 35.7 33.2Q32.85 35.3 29.15 34.75Q27.4 34.5 26.8 33.45Q24.7 34.65 21.25 33.05Q19.25 32.05 18.6 30.25L18.25 30.45L17.7 30.55Q16.55 30.65 15.45 29.4L14.6 27.9L14.55 27.7L14.5 27.35Q14.6 26.95 15.1 26.8L15.8 27.55L16.4 28.4Q17.05 29.4 18.2 29.2L18.4 29.2L18.4 28.25L18.5 27.9L19.15 27L19.4 27.95Q20.85 29.4 22.7 30.3Q24.95 31.5 27.05 29.85Q28.15 29 29.35 28.85Q29.95 29.45 29.6 30.25L28.75 31.5L28.25 32L27.7 32.75Q32.25 34.2 35.5 30.6Q36.45 29.55 36.45 28.05L36.5 27.65L36.65 27.5L36.85 27.4L37.15 27.3L37.45 27.4L37.65 27.5L37.9 28.8Q38.4 27.1 39.8 25.2Q41.35 23 41.9 20.35Q43.05 14.75 39.75 10.35Q38.45 8.65 36.45 7.8Q35.75 7.55 35.45 6.9L35.45 6.8L35.6 6.55L35.65 6.5L35.95 6.25L36.35 6.1L36.6 6.05Q42.55 8 43.3 14.05Q44 19.8 42 25.1Q41.1 27.45 39.25 28.55L38.05 29.1M11.55,18.25L12.3 17.5L12.5 17.5L12.8 17.6L13.1 17.85L13.2 18Q11.45 20.15 13.05 22.4Q14.95 25.05 18.1 24.45L20.2 24.35Q20.35 24.35 20.5 24.5Q19.8 26.2 18.45 26.6Q16.8 27.1 14.2 25.7Q11.5 24.25 10.95 21.45L10.85 20.35Q9.3 19.55 9.3 17.55L9.4 14.75Q9.55 13.3 10.65 12.65L10.85 12.65L11.05 12.7L11.25 12.75L11.65 13.5Q11.7 11.95 12.45 10.55Q14.15 7.2 18.05 6.7L19.5 5.1Q21.15 3.75 23.4 3.4L23.75 3.3Q25.45 3.3 27 4.05Q28.2 4.6 29.05 5.6L29.15 5.6L29.6 5.55Q31.05 5.6 32.35 6.25Q33.75 6.9 34.45 8.25Q34.9 9.1 34.95 9.95L34.25 10.2Q33.45 10.2 32.95 9Q32.3 7.35 30.55 6.9L29.75 6.65Q30.15 7.55 29.85 8.45L29.6 8.4L29.6 8.7Q29.7 10 29.05 10.9L28.8 10.95L28.65 10.9L28.35 10.8L28.05 10.55L27.9 8.95Q27.55 7.45 26.1 6.8L22.75 5.05Q20.9 5.7 19.45 6.55L19.2 6.65L19.7 6.7L19.85 6.7L20.3 6.85L20.4 6.8L22 7.45Q22.7 7.9 22.95 8.65L23 8.7Q23.35 9.1 23 9.55L22.9 9.55L22.7 9.75Q22 10 21.55 9.45L21.45 9.3L17.9 9.5Q16.1 9.8 15.25 11.4Q14 13.8 14.9 16.35Q15.15 17 14.6 17.4Q13.65 17.4 13.4 16.4L13.4 17.1Q12.45 16.85 12 15.95L11.3 15.85L10.75 15.2L10.65 15.1Q10.4 15.95 10.55 16.9L11.05 18.5L11.1 18.6L11.2 18.85L11.55 18.25M33.25,10.85Q36.5 12.75 37.25 16.5Q38.05 20.65 35.6 24Q34.9 24.9 34.15 25.25L32.1 25.1L30.1 25.7Q29.65 25.75 29.35 25.45L29.3 25.2L29.3 24.8L29.35 24.35L29.35 24.25Q32.85 23.2 34.15 19.8Q35.1 17.25 34.35 14.65L34.25 14L33.95 13.65Q32.7 12.3 31.95 10.95L32 10.85L32.1 10.7L32.25 10.6L32.55 10.5L32.55 10.45L33.25 10.85M29.35,18.6L28.9 18.8Q27.9 18.6 28.45 17.75Q29.1 16.7 28.55 15.65Q28.05 14.65 27.2 14.05L27 14.05L26.7 14.1L26.2 14L26 13.8L26 13.75L25.5 13.65Q23.45 12.75 21.8 14.35L21 14.5L20.85 14.2Q20.7 13.65 20.95 13.2L21.3 12.65L21.85 12.25Q22.4 11.55 23.25 11.1L24.65 10.65L25.6 10.75Q25.95 10.85 26.3 11.1Q27 11.55 27.4 12.3L27.5 12.55L28.3 12.75Q29.15 13.1 29.7 14Q30.7 15.55 30.25 17.25Q30 18.15 29.35 18.6M25.1,23.6Q23.65 23 22.8 21.7L22.45 21.7L22.5 21.8Q20.65 22.85 19.65 20.6Q19.1 19.35 19.4 17.95L19.6 17.4Q19.85 16.7 20.6 16.5L20.9 16.6L21.15 16.7L21.25 16.85L21 18.7Q20.8 19.65 21.45 20.4L22.15 20.25L22.15 19.4L22.65 18.45Q23 18 23.5 17.9Q24.05 17.95 24.1 18.55Q24.2 19 23.9 19.3L23.55 19.9L24 20.6L24.75 21.3L24.8 21.3L27.8 21.95L29.2 22.25L29.6 22.75L28.5 23.7L25.1 23.6M7.85,22.15Q7.1 22.5 6 22.15Q5 21.85 4.55 21.05Q4.65 20.3 5.35 19.9L6.65 19.25L7.3 18.9Q7.5 18.75 7.65 18.75L8.2 19.3L8.1 19.55L7.4 20.35L6.55 20.8L8.25 21.25Q8.6 21.3 8.5 21.65L7.85 22.15M12.2,27.05L12.15 27.65Q11.9 28.2 11.8 28.85L11.55 29.7L12.8 29.65Q13.3 29.55 13.5 29.95L13.5 30Q13.45 30.8 12.5 31.05L10.35 30.85Q10.15 30.05 10.45 29.3L11 27.65Q11.1 27.2 11.45 26.9Q11.6 26.75 11.75 26.7L12.2 27.05M2.25,41.15L3.35 40.55L4.45 39.85Q4.65 39.95 4.1 40.45L3.65 40.95L3.45 41.55L3.3 42.2Q3 42.3 2.8 42.5L2.3 43.05L1.8 43.65L1.35 44.1L1.35 43.8L1.4 43.3L1.5 42.85L1.5 42.3L1.6 41.75L2.25 41.15M41.35,54.9L42 56.35L42.55 58.3L41.8 57.25L40.8 55.55Q40.35 54.75 40.5 53.7L41.35 54.9M-6.55,21.2L-7.1 21.05L-8.1 20.8Q-8.95 20.65 -8.6 20.5L-8.4 20.35L-8.05 20.25L-7.95 20.15L-7.7 20L-7.6 20L-4.95 20.25L-5.45 20.55L-5.8 20.75L-6.2 20.95L-6.55 21.2" />
<path style="fill:#FFFFFF;fill-opacity:1" d="M20.5,24.5Q20.35 24.35 20.2 24.35L18.1 24.45Q14.95 25.05 13.05 22.4Q11.45 20.15 13.2 18L13.1 17.85L12.8 17.6L12.5 17.5L12.3 17.5L11.55 18.25L11.45 18.2L11.05 18.5L10.55 16.9Q10.4 15.95 10.65 15.1L10.75 15.2L11.3 15.85L12 15.95Q12.45 16.85 13.4 17.1L13.4 16.4Q13.65 17.4 14.6 17.4Q15.15 17 14.9 16.35Q14 13.8 15.25 11.4Q16.1 9.8 17.9 9.5L21.45 9.3L21.55 9.45Q22 10 22.7 9.75L22.9 9.55L23 9.55Q23.35 9.1 23 8.7L22.95 8.65Q22.7 7.9 22 7.45L20.4 6.8L20.3 6.85L19.85 6.7L19.7 6.7L19.45 6.55Q20.9 5.7 22.75 5.05L26.1 6.8Q27.55 7.45 27.9 8.95L28.05 10.55L28.35 10.8L28.65 10.9L28.8 10.95L29.05 10.9Q29.7 10 29.6 8.7L29.6 8.4L29.85 8.45Q30.15 7.55 29.75 6.65L30.55 6.9Q32.3 7.35 32.95 9Q33.45 10.2 34.25 10.2L34.25 10.25L34.3 10.55L33.5 10.25Q33.1 10.25 33.15 10.55L33.25 10.85L32.55 10.45L32.55 10.5L32.25 10.6L32.1 10.7L32 10.85L31.95 10.95Q32.7 12.3 33.95 13.65L34.25 14L34.35 14.65Q35.1 17.25 34.15 19.8Q32.85 23.2 29.35 24.25L29.35 24.35L29.3 24.8L29.3 25.2L29.35 25.45Q29.65 25.75 30.1 25.7L32.1 25.1L34.15 25.25Q35.85 25.85 37.2 23.75Q39.45 20.15 38.6 16Q38 13.25 36.1 11.7Q36.5 10.75 36.25 9.65Q35.8 7.5 34.35 6L35.65 6.5L35.6 6.55L35.45 6.8L35.45 6.9Q35.75 7.55 36.45 7.8Q38.45 8.65 39.75 10.35Q43.05 14.75 41.9 20.35Q41.35 23 39.8 25.2Q38.4 27.1 37.9 28.8L37.65 27.5L37.45 27.4L37.15 27.3L36.85 27.4L36.65 27.5L36.5 27.65L36.45 28.05Q36.45 29.55 35.5 30.6Q32.25 34.2 27.7 32.75L28.25 32L28.75 31.5L29.6 30.25Q29.95 29.45 29.35 28.85Q28.15 29 27.05 29.85Q24.95 31.5 22.7 30.3Q20.85 29.4 19.4 27.95L19.15 27L18.5 27.9L18.4 28.25L18.4 29.2L18.2 29.2Q17.05 29.4 16.4 28.4L15.8 27.55L18.6 26.9L18.45 26.6Q19.8 26.2 20.5 24.5M20.85,14.2L21 14.5L21.8 14.35Q23.45 12.75 25.5 13.65L26 13.75L26 13.8L26.2 14L26.7 14.1L27 14.05L27.2 14.05Q28.05 14.65 28.55 15.65Q29.1 16.7 28.45 17.75Q27.9 18.6 28.9 18.8L29.35 18.6Q30.2 19.05 30.95 18.1Q32.15 16.6 31.15 14.8Q30.3 13.25 28.6 12.55L28.3 12.75L27.5 12.55L27.4 12.3Q27 11.55 26.3 11.1Q25.95 10.85 25.6 10.75L25.5 10.5Q25.15 10 24.5 9.95L22.9 9.85L22.85 9.85Q21.9 10.1 21.35 11L21.2 11.4L20.9 12.15Q20.65 12.7 20.95 13.2Q20.7 13.65 20.85 14.2M19.45,17.35L19.15 17.25L19.15 17.3L18.9 17.3L18.85 17.35L18.75 17.45L18.55 17.6Q18.05 18.5 18.05 19.65Q18.1 21 19.05 21.95Q21.15 24 23.2 23.55Q24.75 24.6 26.7 24.8Q28.4 24.95 28.5 23.7L29.6 22.75L29.2 22.25L27.8 21.95L24.8 21.3L24.75 21.3L24 20.6L23.55 19.9L23.9 19.3Q24.2 19 24.1 18.55Q24.05 17.95 23.5 17.9Q23 18 22.65 18.45L22.15 19.4L22.15 20.25L21.45 20.4Q20.8 19.65 21 18.7L21.25 16.85L21.15 16.7L20.9 16.6L20.6 16.5Q19.85 16.7 19.6 17.4L19.45 17.35M8.5,21.65Q8.6 21.3 8.25 21.25L6.55 20.8L7.4 20.35L8.1 19.55L8.2 19.3L8.35 19.15Q8.7 21.25 10.1 21.6L10.35 22.75L9.3 22.4L7.85 22.15L8.5 21.65M12.8,29.65L11.55 29.7L11.8 28.85Q11.9 28.2 12.15 27.65L12.2 27.05L12.2 27L12.3 25.9L12.6 26.2Q12.7 27.95 13.85 29.3L14.4 29.95L13.5 29.95Q13.3 29.55 12.8 29.65" />
</g>
</svg>
