<?xml version="1.0" encoding="utf-8"?>
<svg version="1.1" id="Layer_1"
xmlns="http://www.w3.org/2000/svg"
xmlns:xlink="http://www.w3.org/1999/xlink"
width="19px" height="11px"
xml:space="preserve">
<g id="1076" transform="matrix(1, 0, 0, 1, 7.85, 10.55)">
<path style="fill:#FFCC00;fill-opacity:1" d="M5.65,-10.2L5.9 -10L5.75 -9.9L5.6 -9.85L5.5 -10L5.4 -10.15L5.25 -10.35L5.65 -10.2M7.5,-8.05L7.7 -7.9L7.75 -7.5L7.55 -7L7.5 -7.05L7.45 -7.1L7.4 -7.2L7.45 -7.4L7.5 -7.75L7.5 -8.05M10,-8.15L10 -8.2L10.05 -8L9.95 -7.75Q9.7 -7.3 9.25 -7.5L9.4 -7.65L9.75 -7.85L10 -8.15M2.05,-8.85L2 -8.9L1.95 -9L1.95 -9.15L1.85 -9.25L1.85 -9.35L1.95 -9.5L2.2 -9.25L2.3 -8.95L2.25 -8.75Q2.15 -8.7 2.1 -8.8L2.05 -8.85M1.1,-9.3L1.05 -9.25L0.85 -9.25L0.65 -9.15L0.65 -9.1L0.6 -9.05L0.2 -9L-0.4 -8.95L-0.9 -8.85L-0.95 -8.85L-1.15 -8.9L-1 -9.2L-0.1 -9.65L0.3 -9.7L0.7 -9.7L1.05 -9.5L1.1 -9.3M2.3,-7Q2.25 -6.9 2.55 -6.9L2.6 -6.85L3.15 -6.7L3.6 -6.6L3.65 -6.6L3.65 -6.75L3.7 -6.85L3.75 -6.85L3.7 -6.9L3.7 -6.95L3.65 -6.95L3.65 -7L2.75 -7.15L2.6 -7.15L2.5 -7.1L2.4 -7.05L2.3 -7M1.75,-6.7L1.75 -6.8L1.95 -6.95L2.05 -7.05L2.25 -7.2L2.65 -7.35L2.75 -7.35L3.45 -7.3L4 -6.95L4.05 -6.65L3.95 -6.65L4.1 -6.2L4.2 -6.05L4.2 -5.95L4.35 -5.6L4.3 -5.2L4.2 -5.2L4.15 -5.25L3.9 -5.75L3.5 -6.35L3.2 -6.45L3.1 -6.45Q3 -6.4 2.95 -6.5L2.9 -6.5L2.65 -6.5L2.65 -6.45L2.4 -6.4L2.3 -6.45L2.3 -6.5L2.3 -6.6L2.3 -6.65L2.35 -6.7L2.1 -6.7L2 -6.65L1.8 -6.65L1.75 -6.7M4.95,-4.8L5.1 -4.25L4.7 -3.75L4.85 -3.95L4.9 -4.4L4.85 -4.85L4.95 -4.8M0.8,-4.35L0.8 -4.3L0.9 -4.2L0.95 -3.85L1.1 -3.5L1.05 -3.15L1.15 -3.15L1.25 -3.15L1.3 -3.1L0.9 -2.35Q0.4 -1.75 -0.35 -1.75L-0.4 -1.75L-0.4 -1.85L-0.3 -2L-0.05 -2.3L0.1 -2.6L0.15 -2.65L0.25 -2.65L0.4 -2.9L0.5 -3.1L0.5 -3.45L0.5 -3.55L0.45 -3.55L0.4 -3.6L0.4 -3.7L0.4 -3.8L0.5 -3.85L0.55 -3.85L0.6 -3.8L0.6 -3.9L0.5 -4.15L0.4 -4.35Q0.25 -4.5 0.35 -4.55L0.4 -4.65L0.55 -4.55L0.7 -4.4L0.8 -4.35M0.8,-3.55L0.65 -2.95L0.35 -2.45L0.1 -2.15Q0.45 -2.15 0.65 -2.45L0.95 -2.85L0.95 -2.9L0.9 -2.9L0.85 -2.95L0.85 -3.15L0.9 -3.4L0.8 -3.55M2.45,-2.1L2.65 -2L2.75 -1.85L3.55 -1.8L3.55 -1.75L3.5 -1.7L3.45 -1.65L3.05 -1.65L2.55 -1.85Q2.3 -2 2.3 -2.3L2.35 -2.3L2.4 -2.2L2.45 -2.1M9.4,-5.15L9.4 -5.05L9.3 -4.9L9.2 -4.7L9.15 -4.85L9.1 -5.05L8.9 -5.3L8.85 -5.3L8.75 -5.25L8.75 -5.2L7.95 -5.35L7.95 -5.4L7.35 -5.45L6.8 -5.2L6.85 -5.3L7 -5.4L7.1 -5.5L7.3 -5.5Q8 -5.7 8.55 -5.5L8.55 -5.6L8.5 -5.7L8.45 -5.8L8.75 -5.75L8.8 -5.7L9.1 -5.5L9.4 -5.2L9.4 -5.15M9.95,-3.7L10.1 -3.9L10.2 -3.6L10.2 -3.3L10.05 -3.1L9.95 -3.25L9.8 -3.4L9.85 -3.5L9.95 -3.7M5.8,-1.25L5.8 -1.75L5.9 -2.4Q5.85 -2.7 6.05 -2.8L6.1 -2.8L6.2 -2.8L6.3 -2.75L6.4 -2.25L6.25 -1.65L6 -1.3L6 -1.2L5.95 -1.2L5.9 -1.15L5.85 -1.15L5.85 -1.2L5.8 -1.25M-3.4,-8.35L-3.95 -8.8L-4.35 -8.75L-4.35 -8.7L-4.4 -8.7L-4.45 -8.65L-4.55 -8.6L-4.6 -8.55L-4.65 -8.45L-4.7 -8.35L-4.75 -8.3L-4.8 -8.15L-4.85 -8.1L-4.9 -8.05L-5.05 -8.1L-5.15 -8.15L-5.25 -8.1L-5.5 -8L-5.75 -7.75L-5.75 -7.65L-5.4 -7.65L-5.35 -7.65L-5.35 -7.7L-5.3 -7.7L-5.2 -7.65L-5.15 -7.6L-5.15 -7.5L-5.15 -7.4L-5 -7.45L-4.5 -7.65L-3.65 -7.65L-3.65 -7.85L-3.65 -7.95L-3.6 -7.95L-3.6 -8L-3.55 -8.05L-3.2 -8.1L-3.25 -8.15L-3.4 -8.35M-3.1,-7.7L-3.1 -7.75L-3.2 -7.8L-3.25 -7.85L-3.3 -7.85L-3.4 -7.8L-3.4 -7.75L-3.4 -7.65L-3.4 -7.55L-3.35 -7.5L-3.3 -7.3L-3.35 -7.15L-3.4 -7.15L-3.5 -7.2L-3.55 -7.25L-3.55 -7.3L-4.15 -7.45L-5 -7.15L-5.05 -7.1L-5.15 -7L-5.25 -6.9L-5.25 -6.85L-5.35 -6.85L-5.4 -6.85L-5.55 -6.9L-5.6 -6.95L-5.6 -7.05L-5.6 -7.1L-5.55 -7.2L-5.5 -7.25L-5.45 -7.25L-5.4 -7.55L-5.6 -7.5L-5.85 -7.35L-6.05 -7.3L-6.15 -7.55L-5.95 -7.95L-5.5 -8.25L-5.35 -8.35L-5.15 -8.3L-4.95 -8.3L-4.9 -8.35L-4.9 -8.55L-4.85 -8.6L-4.75 -8.7L-4.65 -8.8L-4.6 -8.85L-4.4 -8.95L-3.55 -8.85L-2.9 -8.2Q-2.75 -7.9 -2.95 -7.65L-3.05 -7.65L-3.1 -7.7M-6.1,-5L-6.1 -4.8L-6.05 -4.45L-6.05 -4.1L-6.4 -4.4L-6.45 -4.85L-6.3 -5.05L-6.2 -5.05L-6.15 -5.05L-6.1 -5M-7.3,-1.6L-7.35 -1.7L-7.4 -2.05L-7.5 -2.05L-7.65 -2.1L-7.65 -2.3L-7.45 -2.6L-7.05 -2.95L-7.1 -3L-7.1 -3.1L-7.1 -3.15L-7.05 -3.25L-6.6 -3.55L-6.5 -3.55L-6.3 -3.55L-6.2 -3.5L-6.2 -3.45L-6.2 -3.35L-6.15 -3.3L-6.15 -3.25L-6.3 -3.15L-6.5 -3L-6.5 -2.95L-6.5 -2.85L-6.5 -2.7L-6.6 -2.55L-6.6 -2.4L-6.6 -2.1L-6.55 -1.85L-6.5 -1.6L-6.55 -1.6L-6.6 -1.55L-6.7 -1.5L-6.7 -1.45L-6.7 -1.2L-6.55 -1.05L-6.5 -0.85Q-6.8 -0.7 -7 -1.05L-7.3 -1.6M-6.8,-3.15Q-6.75 -3 -6.85 -2.9L-7.15 -2.55L-7.4 -2.35L-7.2 -2.05L-7.15 -1.75L-6.95 -1.45L-6.9 -1.4L-6.9 -1.7L-6.85 -1.75L-6.8 -1.75L-6.8 -2L-6.8 -2.3L-6.8 -2.55L-6.75 -2.75L-6.75 -2.8L-6.8 -2.85L-6.8 -2.95L-6.75 -3.05L-6.6 -3.15L-6.55 -3.25L-6.65 -3.2L-6.7 -3.2L-6.8 -3.15M-4.15,-5.05L-4.2 -5.1Q-4.05 -5.4 -3.75 -5.4L-3.7 -5.4L-3.15 -5.6L-3.05 -5.65L-2.95 -5.6L-2.9 -5.45L-2.9 -5.3L-3.65 -5.05L-4.1 -5L-4.15 -5.05M-3.9,-4.05L-3.85 -4.05L-3.95 -3.85L-4 -3.6L-4 -3.45L-4.1 -3.35L-4.15 -3.3L-4.15 -3.25L-4.25 -3.3L-4.3 -3.45L-4.3 -3.5L-4.35 -3.6L-4.3 -3.65L-4.25 -3.75L-4.25 -3.8L-4.2 -3.9L-4.15 -3.9L-4.05 -3.95L-3.95 -4L-3.9 -4.05M-3.9,-1.7Q-3.8 -1.5 -3.55 -1.55L-3.45 -1.5L-3.3 -1.4L-3.55 -1.4L-3.9 -1.35L-4 -1.45L-4.1 -1.75L-4.1 -2L-4.05 -1.9L-3.9 -1.7" />
<path style="fill:#FF7000;fill-opacity:1" d="M5.25,-10.35L5.4 -10.15L5.5 -10L5.6 -9.85L5.75 -9.9L5.9 -10L5.65 -10.2L5.25 -10.35M5.5,-9.65L5.35 -9.85L5.2 -10.05L4.85 -10.3L4.8 -10.35L4.8 -10.4L4.8 -10.5L4.85 -10.55L4.9 -10.55L5.6 -10.45L6.15 -10.05L6.35 -9.7L6.3 -9.65L6.25 -9.65L6.15 -9.65L6 -9.75L5.95 -9.75L5.9 -9.7L5.9 -9.65L5.85 -9.65L5.85 -9.6L5.75 -9.6L5.7 -9.55L5.65 -9.55L5.5 -9.65M7.5,-7.75L7.45 -7.4L7.4 -7.2L7.45 -7.1L7.5 -7.05L7.55 -7L7.75 -7.5L7.7 -7.9L7.5 -8.05L7.5 -7.75M7.25,-8.4L7.9 -7.9Q8.1 -7.45 7.85 -7.05L7.45 -6.75L7.35 -6.85L7.25 -7.05L7.15 -7.2L7.15 -7.35L7.2 -7.4L7.25 -7.45L7.3 -7.45L7.3 -7.7L7.25 -7.95L7.2 -8.35L7.25 -8.4M9.75,-7.85L9.4 -7.65L9.25 -7.5Q9.7 -7.3 9.95 -7.75L10.05 -8L10 -8.2L10 -8.15L9.75 -7.85M9.7,-8.2L10 -8.65L10.05 -8.65L10.2 -7.85L9.7 -7.35L9.15 -7.25L9.15 -7.3L9.1 -7.35L9 -7.4L9 -7.5L9.05 -7.65L9.1 -7.8L9.7 -8.2M2.05,-8.8L2.1 -8.8Q2.15 -8.7 2.25 -8.75L2.3 -8.95L2.2 -9.25L1.95 -9.5L1.85 -9.35L1.85 -9.25L1.95 -9.15L1.95 -9L2 -8.9L2.05 -8.8M1.7,-9.8L2.15 -9.5L2.4 -8.95L2.4 -8.65L2.1 -8.6L1.85 -8.75L1.8 -9.05L1.75 -9.35Q1.55 -9.65 1.7 -9.8M1.05,-9.5L0.7 -9.7L0.3 -9.7L-0.1 -9.65L-1 -9.2L-1.15 -8.9L-0.95 -8.85L-0.9 -8.85L-0.4 -8.95L0.2 -9L0.6 -9.05L0.65 -9.1L0.65 -9.15L0.85 -9.25L1.05 -9.25L1.1 -9.3L1.05 -9.5M1.25,-9.35L1.35 -9L1.3 -9L1.15 -9L0.95 -9.15L0.85 -9.15L0.85 -9.1L0.9 -9.05L0.95 -8.95L0.95 -8.9L1 -8.8L0.55 -8.75Q-0.2 -9.1 -0.8 -8.55L-1.15 -8.35L-1.2 -8.4L-1.2 -8.45L-1.2 -8.55L-1.15 -8.6L-1.1 -8.7L-1.15 -8.75L-1.3 -8.7L-1.35 -8.65L-1.45 -8.65L-1.5 -8.7L-1.45 -8.85L-0.75 -9.45L-0.3 -9.65L0.2 -9.85L0.85 -9.8L1.25 -9.35M1.75,-6.8L1.75 -6.7L1.75 -6.65L1.8 -6.65L2 -6.65L2.1 -6.7L2.35 -6.7L2.3 -6.65L2.3 -6.6L2.3 -6.5L2.3 -6.45L2.4 -6.4L2.65 -6.45L2.65 -6.5L2.9 -6.5L2.95 -6.5Q3 -6.4 3.1 -6.45L3.2 -6.45L3.5 -6.35L3.9 -5.75L4.15 -5.25L4.2 -5.2L4.3 -5.2L4.35 -5.6L4.2 -5.95L4.2 -6.05L4.1 -6.2L3.95 -6.65L4.05 -6.65L4 -6.95L3.45 -7.3L2.75 -7.35L2.65 -7.35L2.25 -7.2L2.15 -7.15L1.95 -7L1.95 -6.95L1.75 -6.8M1.65,-6.2Q1.55 -6.1 1.45 -6.1L1.4 -6.2L1.55 -6.85L2.15 -7.3L2.7 -7.5L3.55 -7.45L4.15 -6.9L4.4 -6.5L4.35 -6.45L4.2 -6.4L4.2 -6.35L4.45 -5.9L4.5 -5.35L4.4 -4.8L4.35 -4.7L4.3 -4.7L4.2 -4.75L4.1 -4.8L4.1 -4.85L4.1 -5L4 -5.25L3.7 -5.5L3.7 -5.7Q3.65 -6.25 3.1 -6.35Q2.4 -6.5 2.1 -5.85L2.05 -5.8L2 -5.85L2 -6L2 -6.2L2.05 -6.4L2.1 -6.55L1.85 -6.4L1.65 -6.2M4.85,-4.85L4.9 -4.4L4.85 -3.95L4.7 -3.75L5.1 -4.25L4.95 -4.8L4.85 -4.85M4.65,-4.6Q4.5 -4.95 4.7 -5.2L5.2 -4.7L5.2 -4L4.95 -3.65L4.8 -3.6L4.45 -3.45Q4.35 -3.4 4.3 -3.5L4.55 -4L4.65 -4.6M0.7,-4.4L0.55 -4.55L0.4 -4.65L0.35 -4.55Q0.25 -4.5 0.4 -4.35L0.5 -4.15L0.6 -3.9L0.6 -3.8L0.55 -3.85L0.5 -3.85L0.4 -3.8L0.4 -3.7L0.4 -3.6L0.45 -3.55L0.5 -3.55L0.5 -3.45L0.5 -3.1L0.4 -2.9L0.25 -2.65L0.15 -2.65L0.1 -2.6L-0.05 -2.3L-0.3 -2L-0.4 -1.85L-0.4 -1.75L-0.35 -1.75Q0.4 -1.75 0.9 -2.35L1.3 -3.1L1.25 -3.15L1.15 -3.15L1.05 -3.15L1.1 -3.5L0.95 -3.85L0.9 -4.2L0.8 -4.3L0.8 -4.35L0.7 -4.4M0.15,-4.45L-0.05 -4.6L-0.1 -4.9Q0.4 -4.9 0.75 -4.55L1.2 -3.8L1.25 -3.25L1.35 -3.2L1.4 -3.2L1.15 -2.45L1.05 -2.3L0.85 -2.15L0.6 -1.95Q-0.2 -1.4 -1.15 -1.75L-1.15 -1.8L-1.2 -1.85L-1.2 -1.95L-0.8 -2L-0.4 -2.1L-0.1 -2.35L-0.1 -2.45L-0.05 -2.55L0 -2.65L0.05 -2.75L0.05 -2.8L0 -2.85L0 -2.95L0.05 -3L0.25 -3L0.3 -2.95L0.3 -2.85L0.4 -2.95L0.4 -3.35L0.15 -3.85L0 -4.15L0.05 -4.2L0.15 -4.25L0.2 -4.2L0.25 -4.2L0.35 -4.2L0.25 -4.3L0.15 -4.45M2.05,-2.25Q2.05 -2.5 2.2 -2.6L2.45 -2.55L2.65 -2.4L2.75 -2.2L2.65 -2.2L2.65 -2.15L2.85 -2L3.3 -1.95L3.5 -2L3.55 -2.05L3.6 -2.1L3.6 -2.2L3.6 -2.25L3.65 -2.3L3.9 -2.1L3.85 -1.8L3.6 -1.5L3.55 -1.4Q2.8 -1.3 2.3 -1.8L2.05 -2.25M2.4,-2.2L2.35 -2.3L2.3 -2.3Q2.3 -2 2.55 -1.85L3.05 -1.65L3.45 -1.65L3.5 -1.7L3.55 -1.75L3.55 -1.8L2.75 -1.85L2.65 -2L2.45 -2.1L2.4 -2.2M9.35,-5.6L9.6 -5.35L9.55 -4.9L9.15 -4.25L9.05 -4.2L9 -4.3L9 -4.4L9 -4.5L9 -4.65L9 -4.8L8.5 -5.05L7.55 -5L7.35 -5L7.35 -5.1L7.4 -5.15L7.45 -5.2L7.45 -5.25L7.2 -5.15L6.9 -5L6.45 -4.95L6.65 -5.4Q7.25 -6 8.2 -5.85L8.25 -5.85L8.25 -5.95L8.3 -5.95L8.35 -6L8.4 -6.05L8.8 -5.95L9.15 -5.8L9.35 -5.6M9.4,-5.2L9.1 -5.5L8.8 -5.7L8.75 -5.75L8.45 -5.8L8.5 -5.7L8.55 -5.6L8.55 -5.5Q8 -5.7 7.3 -5.5L7.1 -5.5L7 -5.4L6.85 -5.3L6.8 -5.2L7.35 -5.45L7.95 -5.4L7.95 -5.35L8.75 -5.2L8.75 -5.25L8.85 -5.3L8.9 -5.3L9.1 -5.05L9.15 -4.85L9.2 -4.7L9.3 -4.9L9.4 -5.05L9.4 -5.15L9.4 -5.2M9.9,-4.1L9.8 -4.2L9.9 -4.3L10 -4.3L10.05 -4.25L10.35 -3.65Q10.45 -3.2 10.15 -2.9Q9.9 -2.65 9.65 -2.7L9.6 -2.75L9.6 -2.8L9.6 -2.9L9.6 -2.95L9.7 -3L9.8 -3.1L9.75 -3.15L9.6 -3.35L9.6 -3.5L9.6 -3.55L9.75 -3.7L9.85 -3.9L9.9 -4.1M9.85,-3.5L9.8 -3.4L9.95 -3.25L10.05 -3.1L10.2 -3.3L10.2 -3.6L10.1 -3.9L9.95 -3.7L9.85 -3.5M5.85,-3.35L6.15 -3.05L6.35 -2.7L6.5 -2.45L6.4 -1.8Q6.25 -1.2 5.75 -0.95L5.35 -0.8L5.4 -1L5.55 -1.2L5.65 -1.4L5.65 -1.45L5.5 -1.5L5.45 -1.6L5.65 -1.75L5.75 -1.95L5.8 -2.05L5.75 -2.3L5.65 -2.6Q5.55 -2.75 5.6 -2.9L5.7 -2.95L5.85 -2.9L5.85 -3.05L5.8 -3.2L5.85 -3.35M5.8,-1.2L5.85 -1.2L5.85 -1.15L5.9 -1.15L5.95 -1.2L6 -1.2L6 -1.3L6.25 -1.65L6.4 -2.25L6.3 -2.75L6.2 -2.8L6.1 -2.8L6.05 -2.8Q5.85 -2.7 5.9 -2.4L5.8 -1.75L5.8 -1.25L5.8 -1.2M-3.2,-8.8L-3 -8.55L-2.9 -8.45L-2.65 -7.9Q-2.65 -7.6 -2.9 -7.5L-2.9 -7.4L-2.95 -7.4L-2.95 -7.35L-3 -7.3L-3.15 -7.3L-3.15 -7.2L-3.1 -7.05L-3.15 -6.9L-3.2 -6.75L-3.25 -6.75L-3.35 -6.75L-3.4 -6.8L-3.4 -6.85Q-3.6 -7.4 -4.2 -7.3Q-4.95 -7.15 -5.35 -6.5L-5.6 -6.65L-5.7 -6.95L-5.75 -7.2L-5.85 -7.2L-5.95 -7.05L-6.1 -6.95L-6.15 -6.95Q-6.35 -7.25 -6.2 -7.65Q-5.95 -8.3 -5.25 -8.55L-5.1 -8.55L-4.95 -8.8L-4.4 -9.1L-3.8 -9.15L-3.25 -8.85L-3.2 -8.8M-3.15,-7.75L-3.1 -7.65L-3.05 -7.65L-2.95 -7.65Q-2.75 -7.9 -2.9 -8.2L-3.55 -8.85L-4.4 -8.95L-4.6 -8.85L-4.65 -8.8L-4.75 -8.7L-4.85 -8.6L-4.9 -8.55L-4.9 -8.35L-4.95 -8.3L-5.15 -8.3L-5.35 -8.35L-5.5 -8.25L-5.95 -7.95L-6.15 -7.55L-6.05 -7.3L-5.85 -7.35L-5.6 -7.5L-5.4 -7.55L-5.45 -7.25L-5.5 -7.25L-5.55 -7.2L-5.6 -7.1L-5.6 -7.05L-5.6 -6.95L-5.55 -6.9L-5.4 -6.85L-5.35 -6.85L-5.25 -6.85L-5.25 -6.9L-5.15 -7L-5.05 -7.1L-5 -7.15L-4.15 -7.45L-3.55 -7.3L-3.55 -7.25L-3.5 -7.2L-3.4 -7.15L-3.35 -7.15L-3.3 -7.3L-3.35 -7.5L-3.4 -7.55L-3.4 -7.65L-3.4 -7.75L-3.4 -7.8L-3.3 -7.85L-3.15 -7.75M-6.15,-5.05L-6.2 -5.05L-6.3 -5.05L-6.45 -4.85L-6.4 -4.4L-6.05 -4.1L-6.05 -4.45L-6.1 -4.8L-6.1 -5L-6.15 -5.05M-6,-4.85L-5.85 -4.15Q-5.75 -3.9 -5.9 -3.75L-6.5 -4.15L-6.6 -4.75L-6.6 -4.95L-6.45 -5.2L-6.3 -5.45L-6.15 -5.55Q-6 -5.3 -6 -4.85M-7.05,-3.4L-6.55 -3.6L-6.5 -3.65L-6.2 -3.6L-6 -3.5L-5.95 -3.5L-5.95 -3.45L-5.9 -3.45L-5.95 -3.4L-5.95 -3.35L-5.85 -3.3L-5.8 -3.3L-5.75 -3.2L-5.75 -3.15Q-5.9 -2.95 -6.15 -3L-6.3 -2.95L-6.15 -2.9L-6.1 -2.85L-6.45 -2.5L-6.55 -2.1L-6.4 -1.6L-6.05 -1.2Q-6.1 -1.05 -6.25 -1.1L-6.5 -1.2L-6.6 -1.25L-6.6 -1.15L-6.4 -0.85L-6.15 -0.65L-6 -0.5Q-6.35 -0.4 -6.8 -0.65L-7.3 -1.15L-7.6 -1.8L-7.65 -1.8L-7.8 -1.85L-7.85 -2.1L-7.8 -2.35L-7.75 -2.4L-7.65 -2.55L-7.5 -2.8L-7.35 -2.9L-7.35 -3L-7.4 -3.05L-7.35 -3.1L-7.05 -3.4M-7.25,-1.4L-7 -1.05Q-6.8 -0.7 -6.5 -0.85L-6.55 -1.05L-6.7 -1.2L-6.7 -1.45L-6.7 -1.5L-6.6 -1.55L-6.55 -1.6L-6.5 -1.6L-6.55 -1.85L-6.6 -2.1L-6.6 -2.4L-6.6 -2.55L-6.5 -2.7L-6.5 -2.85L-6.5 -2.95L-6.5 -3L-6.3 -3.15L-6.15 -3.25L-6.15 -3.3L-6.2 -3.35L-6.2 -3.45L-6.2 -3.5L-6.3 -3.55L-6.5 -3.55L-6.6 -3.55L-7.05 -3.25L-7.1 -3.15L-7.1 -3.1L-7.1 -3L-7.05 -2.95L-7.45 -2.6L-7.65 -2.3L-7.65 -2.1L-7.5 -2.05L-7.4 -2.05L-7.35 -1.7L-7.25 -1.4M-5.3,-1.55L-5.25 -1.5L-5.2 -1.5L-5.2 -1.4L-5.2 -1.3L-5.2 -1.15L-5.15 -1.15L-5.35 -0.85L-5.9 -0.8L-5.8 -0.95L-5.65 -1.1L-5.6 -1.15L-5.55 -1.25L-5.45 -1.5L-5.4 -1.55L-5.3 -1.55M-2.9,-5.7L-2.8 -5.7L-2.7 -5.65L-2.7 -5.6L-2.7 -5.5L-2.7 -5.4L-2.6 -5.3L-2.6 -5.1L-2.95 -5.05L-3.45 -4.9L-3.75 -4.9L-4.35 -4.8L-4.4 -4.85L-4.4 -5L-4.4 -5.1L-4.3 -5.2L-4.25 -5.25L-4 -5.45L-4 -5.5L-3.95 -5.55L-3.95 -5.6L-3.5 -5.65L-3.1 -5.75L-2.95 -5.7L-2.9 -5.7M-4.2,-5L-4.1 -5L-3.65 -5.05L-2.9 -5.3L-2.9 -5.45L-2.95 -5.6L-3.05 -5.65L-3.15 -5.6L-3.7 -5.4L-3.75 -5.4Q-4.05 -5.4 -4.2 -5.1L-4.15 -5.05L-4.2 -5M-3.95,-4L-4.05 -3.95L-4.15 -3.9L-4.2 -3.9L-4.25 -3.8L-4.25 -3.75L-4.3 -3.65L-4.35 -3.6L-4.3 -3.5L-4.3 -3.45L-4.25 -3.3L-4.15 -3.25L-4.15 -3.3L-4.1 -3.35L-4 -3.45L-4 -3.6L-3.95 -3.85L-3.85 -4.05L-3.9 -4.05L-3.95 -4M-3.95,-4.25L-3.6 -4.25L-3.5 -4.15L-3.55 -4.05L-3.75 -3.65L-3.75 -3.2L-3.7 -3.05L-3.75 -3.05L-3.85 -3.05L-3.95 -3.05L-4 -3.05L-4 -3L-4.05 -3L-4.25 -3.1Q-4.5 -3.2 -4.55 -3.45L-4.55 -3.9L-4.55 -3.95L-4.3 -4.1L-4 -4.2L-3.95 -4.25M-3.25,-1.6L-2.9 -1.45L-4.15 -1.4L-4.2 -1.5L-4.3 -2.1L-4.3 -2.3L-4.25 -2.3L-4.25 -2.35L-4.2 -2.35L-4.15 -2.4L-3.75 -1.95L-3.25 -1.6M-4.05,-1.9L-4.1 -2L-4.1 -1.75L-4 -1.45L-3.9 -1.35L-3.55 -1.4L-3.3 -1.4L-3.45 -1.5L-3.55 -1.55Q-3.8 -1.5 -3.9 -1.7L-4.05 -1.9" />
<path style="fill:#666666;fill-opacity:1" d="M2.1,-8.8L2.05 -8.8L2 -8.9L2.05 -8.85L2.1 -8.8M2.05,-7.05L1.95 -6.95L1.95 -7L2.15 -7.15L2.25 -7.2L2.05 -7.05M1.8,-6.65L1.75 -6.65L1.75 -6.7L1.8 -6.65M5.85,-1.2L5.8 -1.2L5.8 -1.25L5.85 -1.2M-3.3,-7.85L-3.25 -7.85L-3.2 -7.8L-3.1 -7.75L-3.1 -7.7L-3.05 -7.65L-3.1 -7.65L-3.15 -7.75L-3.3 -7.85M-7,-1.05L-7.25 -1.4L-7.35 -1.7L-7.3 -1.6L-7 -1.05M-4.15,-5.05L-4.1 -5L-4.2 -5L-4.15 -5.05" />
<path style="fill:#FFFF00;fill-opacity:1" d="M2.4,-7.05L2.5 -7.1L2.6 -7.15L2.75 -7.15L3.65 -7L3.65 -6.95L3.7 -6.95L3.7 -6.9L3.75 -6.85L3.7 -6.85L3.65 -6.75L3.65 -6.6L3.6 -6.6L3.15 -6.7L2.6 -6.85L2.55 -6.9Q2.25 -6.9 2.3 -7L2.4 -7.05M0.9,-3.4L0.85 -3.15L0.85 -2.95L0.9 -2.9L0.95 -2.9L0.95 -2.85L0.65 -2.45Q0.45 -2.15 0.1 -2.15L0.35 -2.45L0.65 -2.95L0.8 -3.55L0.9 -3.4M-3.25,-8.15L-3.2 -8.1L-3.55 -8.05L-3.6 -8L-3.6 -7.95L-3.65 -7.95L-3.65 -7.85L-3.65 -7.65L-4.5 -7.65L-5 -7.45L-5.15 -7.4L-5.15 -7.5L-5.15 -7.6L-5.2 -7.65L-5.3 -7.7L-5.35 -7.7L-5.35 -7.65L-5.4 -7.65L-5.75 -7.65L-5.75 -7.75L-5.5 -8L-5.25 -8.1L-5.15 -8.15L-5.05 -8.1L-4.9 -8.05L-4.85 -8.1L-4.8 -8.15L-4.75 -8.3L-4.7 -8.35L-4.65 -8.45L-4.6 -8.55L-4.55 -8.6L-4.45 -8.65L-4.4 -8.7L-4.35 -8.7L-4.35 -8.75L-3.95 -8.8L-3.4 -8.35L-3.25 -8.15M-6.7,-3.2L-6.65 -3.2L-6.55 -3.25L-6.6 -3.15L-6.75 -3.05L-6.8 -2.95L-6.8 -2.85L-6.75 -2.8L-6.75 -2.75L-6.8 -2.55L-6.8 -2.3L-6.8 -2L-6.8 -1.75L-6.85 -1.75L-6.9 -1.7L-6.9 -1.4L-6.95 -1.45L-7.15 -1.75L-7.2 -2.05L-7.4 -2.35L-7.15 -2.55L-6.85 -2.9Q-6.75 -3 -6.8 -3.15L-6.7 -3.2" />
</g>
</svg>
