<?xml version="1.0" encoding="utf-8"?>
<svg version="1.1" id="Layer_1"
xmlns="http://www.w3.org/2000/svg"
xmlns:xlink="http://www.w3.org/1999/xlink"
width="90px" height="33px"
xml:space="preserve">
<g id="1396" transform="matrix(1, 0, 0, 1, -599.1, -283.05)">
<path style="fill:#000000;fill-opacity:0.705882" d="M599.1,293.65L599.1 287.4Q599.1 283.05 602.3 283.05L685.8 283.05Q689.05 283.05 689.05 287.4L689.05 293.65Q689.05 298 685.8 298L602.3 298Q599.1 298 599.1 293.65" />
<path style="fill:#000000;fill-opacity:0.705882" d="M689.1,311.65Q689.1 316 685.9 316L602.3 316Q599.1 316 599.1 311.65L599.1 305.4Q599.1 301.05 602.3 301.05L685.9 301.05Q689.1 301.05 689.1 305.4L689.1 311.65" />
</g>
</svg>
