<?xml version="1.0" encoding="utf-8"?>
<svg version="1.1" id="Layer_1"
xmlns="http://www.w3.org/2000/svg"
xmlns:xlink="http://www.w3.org/1999/xlink"
width="32px" height="18px"
xml:space="preserve">
<g id="1161" transform="matrix(1, 0, 0, 1, 15.25, 13.05)">
<path style="fill:#100806;fill-opacity:1" d="M-4.9,-12.35L-6.1 -11.05L-5.85 -9.9L-3.25 -9.9L-2.65 -7.95L-4.1 -7.9L-5.4 -7.9L-4.75 -3.85L-4 -3.75L-3.4 -3.45L-3.4 -0.55L-1.8 0.05L0.1 0L0.1 -0.75L-1.05 -2.05L-1.05 -3.25L-1.05 -4.45L0.25 -5.25L0.7 -7.2L0.75 -7.2L-2.7 -11.85L-4.85 -12.35L-4.9 -12.35M1.15,-5.25L1.2 -5.25L1.2 0.8L-2.25 0.7L-4.05 0.1L-4.05 -3L-5.15 -3L-6.2 -8.5L-3.3 -8.55L-3.5 -9.3L-6.4 -9.3L-6.85 -11.2L-5.4 -13.05L-5.35 -13.05L-2.3 -12.3L1.45 -7.05L1.15 -5.25" />
<radialGradient
id="RadialGradID_386" gradientUnits="userSpaceOnUse" gradientTransform="matrix(0.0128632, 0, 0, 0.0128632, -1.05, -10.55)" spreadMethod ="pad" cx="0" cy="0" r="819.2" fx="0" fy="0" >
<stop  offset="0"  style="stop-color:#6D4414;stop-opacity:1" />
<stop  offset="1"  style="stop-color:#511A16;stop-opacity:1" />
</radialGradient>
<path style="fill:url(#RadialGradID_386) " d="M-4.85,-12.35L-2.7 -11.85L0.75 -7.2L0.7 -7.2L0.25 -5.25L-4.85 -12.35M-1.05,-3.25L-1.05 -2.05L0.1 -0.75L0.1 0L-1.8 0.05L-3.4 -0.55L-3.4 -3.45L-4 -3.75L-4.75 -3.85L-5.4 -7.9L-4.1 -7.9L-1.05 -3.25" />
<path style="fill:#9F6329;fill-opacity:1" d="M-4.1,-7.9L-2.65 -7.95L-3.25 -9.9L-5.85 -9.9L-6.1 -11.05L-4.9 -12.35L-4.85 -12.35L0.25 -5.25L-1.05 -4.45L-1.05 -3.25L-4.1 -7.9" />
<path style="fill:#100806;fill-opacity:1" d="M11.3,-0.6L12.1 -1.9L12.1 -2.7L12.1 -3.45L12.1 -3.75L11.05 -4.45L0.55 -4.55L0.9 -5.15L11.35 -5.05L12.2 -4.5L16.2 -4.5L16.65 -3.7L16.7 -3.7L16.7 -1.95L16.2 -1.05L12.1 -0.95L11.55 -0.1L0.9 0.1L1 -0.6L11.3 -0.6M12.55,-2.6L12.6 -1.6L12.8 -1.6L13.25 -1.6L15.15 -1.65L15.15 -2.65L15.15 -3.65L15.15 -4.05L13.25 -4L12.75 -4L12.55 -4L12.55 -3.6L12.55 -2.6M15.65,-2.65L15.65 -1.65L15.85 -1.65L16.2 -2.7L16.2 -3.75L16.05 -4L15.65 -4L15.65 -3.65L15.65 -2.65" />
<path style="fill:#985929;fill-opacity:1" d="M13.25,-2.6L12.8 -2.6L12.55 -2.6L12.55 -3.6L12.75 -3.6L13.25 -3.6L15.15 -3.65L15.15 -2.65L13.25 -2.6M15.65,-2.65L15.65 -3.65L16.2 -3.75L16.2 -2.7L15.65 -2.65" />
<linearGradient
id="LinearGradID_387" gradientUnits="userSpaceOnUse" gradientTransform="matrix(0, -0.00341797, 0.0101013, 0, 7.9, -3.5)" spreadMethod ="pad" x1="-819.2" y1="0" x2="819.2" y2="0" >
<stop  offset="0" style="stop-color:#511A16;stop-opacity:1" />
<stop  offset="0.509804" style="stop-color:#6D4414;stop-opacity:1" />
<stop  offset="1" style="stop-color:#511A16;stop-opacity:1" />
</linearGradient>
<path style="fill:url(#LinearGradID_387) " d="M12.1,-2.7L12.1 -1.9L11.3 -0.6L1 -0.6L-0.35 -2.5L-0.3 -3.55L0.55 -4.55L11.05 -4.45L12.1 -3.75L12.1 -3.45L1.25 -3.5L1.25 -2.5L12.1 -2.7M13.25,-3.6L12.75 -3.6L12.55 -3.6L12.55 -4L12.75 -4L13.25 -4L15.15 -4.05L15.15 -3.65L13.25 -3.6M15.15,-2.65L15.15 -1.65L13.25 -1.6L12.8 -1.6L12.6 -1.6L12.55 -2.6L12.8 -2.6L13.25 -2.6L15.15 -2.65M15.65,-3.65L15.65 -4L16.05 -4L16.2 -3.75L15.65 -3.65M16.2,-2.7L15.85 -1.65L15.65 -1.65L15.65 -2.65L16.2 -2.7" />
<path style="fill:#9F6329;fill-opacity:1" d="M1.25,-2.5L1.25 -3.5L12.1 -3.45L12.1 -2.7L1.25 -2.5" />
<path style="fill:#100806;fill-opacity:1" d="M-0.4,4.8L-6 4.95L-6.45 3.6L-14.65 2.3L-15.25 1.2L-5.2 2.65L-3.15 2.55L-2.5 3.65L-1.05 4.3L-0.4 4.8" />
<path style="fill:#FFCC00;fill-opacity:1" d="M3.95,-3.9L10.4 -3.35L10.4 -2.35L3.95 -1.7L3.95 -3.9" />
</g>
</svg>
