<?xml version="1.0" encoding="utf-8"?>
<svg version="1.1" id="Layer_1"
xmlns="http://www.w3.org/2000/svg"
xmlns:xlink="http://www.w3.org/1999/xlink"
width="68px" height="20px"
xml:space="preserve">
<g id="1237" transform="matrix(1, 0, 0, 1, 40.05, 6.85)">
<path style="fill:#C9EBFF;fill-opacity:0.988235" d="M10.85,-5.7Q10.85 -6.75 13.65 -6.85Q16.5 -6.95 16.7 -5.35L17.35 -5.3L18.05 -4.7L19 -5.45Q19.9 -6.2 20.2 -6.2Q21.25 -6.2 22.1 -4.5L21.4 -3.45L22.8 -2.5Q23.7 -1.8 23.7 -1.15L23.5 -0.75L23.2 -0.35L24.6 -0.15L24.65 -0.05L24.75 -0.55L25.15 -1.5Q25.65 -2.2 26.25 -1.7L27.7 -0.7L27.75 -0.6Q27.75 -0.25 27.35 -0.25Q26.8 -0.25 26.25 -0.7L25.65 -1.35Q25.15 -0.95 25 -0.2Q24.9 0.6 24.6 0.85L24.5 0.65L24.55 0.4L23.9 0.45L22.7 0.25L23.45 0.75L23.45 1.05L23 1.1L21.95 0.4Q21.35 -0.25 21.3 -0.7L21.25 -0.8L19.45 -0.2L19.05 -0.25L19.05 -1.1L17.95 -1.35L16.6 -1.1L16.2 -0.8L16.1 -1.1L16.85 -1.8L19.3 -1.5L19.55 -0.95L19.65 -0.85L20.3 -1.15L21 -1.35L21.85 -0.55L22.5 0.05L22.45 -0.15L23.05 -1.2Q23.05 -1.75 21.95 -2.45L20.85 -3.35L21.5 -4.5L21.05 -5.2L20.3 -5.65Q19.9 -5.65 19.25 -4.95L18.2 -4.25Q17.9 -4.25 17.55 -4.55L17.2 -4.85L16.5 -4.9L16.05 -5.7Q15.65 -6.35 14.9 -6.35L11.7 -5.9L11.55 -5.75L12.45 -4.45L13 -3.45Q13.15 -3.2 14.55 -2.45Q15.8 -1.75 15.8 -1.35L15.7 -0.95L13.9 -1.9Q12.95 -2.4 12.55 -3.2Q12.4 -3.45 12.4 -3.9L12.1 -4.55L11.35 -5.05Q10.85 -5.4 10.85 -5.7M22.4,2.9L23.2 3L23.5 3.25L23.85 2.95L23.95 3.2L23.45 4.3L22.75 5.4Q20.95 6.9 20.95 7.3L21.25 8.75Q21.2 10.9 20.05 10.9Q19.75 10.9 18.6 10.2L17.5 9.45L16.4 9.65L14.65 9.65Q14.2 9.5 14.15 9.05L14.1 8.45L13.55 8.05L13.1 7.65Q13.1 7.25 13.9 6.55L15.25 5.55L15.6 5.7L13.6 7.55Q14.35 7.75 14.45 8.3L14.65 9.15L16.15 9.15L17.25 8.95Q18.05 8.95 20 10.4L20.55 9.55L20.8 8.7L20.4 7.25L22.2 5.1L22.95 3.9L23.3 3.45L22.35 3.5Q22.05 3.5 21.8 3.15L21.6 2.75Q20.9 2.6 20.45 3.45Q19.9 4.4 19 4.4Q18.25 4.4 17.6 3.8L17 3.2Q16.9 3.2 16.85 3.3L16.65 3.4Q15.95 3.4 15.7 2.85L15.6 2.25L15.8 1Q16.05 0.2 16.4 -0.1L16.25 0.8L15.95 2.15L16.15 2.5L16.3 3L17 2.6L17.85 3.25Q18.7 3.9 19.4 3.9L20.25 2.8Q20.65 2.2 21.6 2.2L22.1 2.5L22.4 2.9" />
<path style="fill:#C9EBFF;fill-opacity:0.988235" d="M-31.65,-6.3L-31.45 -6.4L-30.75 -6.65L-29.75 -6.5L-28.9 -6.55L-27.95 -6.8L-27.5 -6.7Q-27.65 -6.6 -29.45 -5.95L-30.05 -6.15L-30.75 -6.4L-31.5 -6L-31.45 -5.8L-31.7 -5.1Q-31.7 -4.8 -31.1 -4.45L-30.25 -4.6L-30.05 -4.35L-30.25 -4.1Q-31.4 -3.85 -31.8 -4.45L-32.05 -5.1L-31.9 -5.75L-32.05 -6.25L-32.9 -6.4L-33.8 -5.9Q-34.6 -5.45 -35 -4.85L-34.9 -4.75L-34.55 -5.05L-34.05 -5.25L-33.9 -5.25L-34.95 -4.5L-35.2 -4.5L-35.25 -4.75L-34.8 -5.55L-33.15 -6.6L-31.8 -6.45L-31.65 -6.3M-39,-1.25L-39 -1.15L-39.1 -1.1Q-39.5 -1.05 -39.8 -1.55L-39.2 -2.55Q-38.5 -3.4 -38 -3.3L-37.6 -2.5L-37.8 -2.4Q-38.1 -2.3 -38.2 -2.6L-38.2 -3.05L-39.1 -2.35L-39.65 -1.65L-39 -1.25M-39.05,5.05L-38.95 5.55L-39.45 5.95L-39.9 6.25L-39.4 6.75L-39.35 6.8L-39.65 6.85Q-39.95 6.85 -40.05 6.3L-39.95 5.95Q-39.75 5.7 -39.25 5.75Q-39.05 5.65 -39.1 5.4L-39.05 5.05M-35.7,10.65L-34.75 11.45L-34.75 11.35L-34.6 11.45L-34.4 11.35L-33.95 11.25L-34.15 11.55L-34.4 11.75L-34.4 11.8L-33.9 12.3L-32.85 12.5L-32.6 12.1L-32.05 11.8Q-31.75 11.7 -30.9 12.15Q-30.1 12.45 -29.95 12.7L-30.15 12.75L-31.65 12.1Q-32.15 12 -32.25 12.4L-32.75 12.8L-34.45 12.1L-34.75 11.65L-35.4 11.35L-36 10.8L-36.3 10.2L-36.35 9.8L-36.25 9.3Q-36.05 9.1 -35.65 9.05Q-35.55 9.35 -35.8 9.55L-36.05 9.9L-35.7 10.65" />
</g>
</svg>
