<?xml version="1.0" encoding="utf-8"?>
<svg version="1.1" id="Layer_1"
xmlns="http://www.w3.org/2000/svg"
xmlns:xlink="http://www.w3.org/1999/xlink"
width="61px" height="70px"
xml:space="preserve">
<g id="453" transform="matrix(1, 0, 0, 1, 5.4, 14.45)">
<path style="fill:#FFCC00;fill-opacity:1" d="M37.6,4.6Q38.7 5.7 39.6 7.1L41.1 10.1L41.2 10.3Q42 10.7 42.2 11.35L41 10.65Q38.95 9.6 36.5 9.95L34.6 10.35L33.8 10.55Q32.75 7.8 29.85 6Q26.5 3.95 22.3 4.35L18.05 4.55Q17.15 4.8 16.4 5.3L15.4 4.45L11.9 1.4Q10.35 -0.35 8.3 -1.4L8.3 -1.35L8 -1.25L7.8 -1.15L7.7 -1Q7.6 -0.15 7.95 0.7L9.4 4.15L10.5 7.3Q10.85 8.55 11.55 9.35Q10.5 10.05 9.95 11.3Q8.55 14.6 8.9 18.25Q9.1 20.45 10.1 21.7L9.95 22.45Q9.05 21.95 8.55 21.1L9.1 20.65L8.8 20.3L8.3 20.1L7.55 20L7.1 20Q2.25 19.6 -1.25 21.6Q-1.05 22.4 0 22.2L0.75 22.2L0.8 22.2Q0.9 22.65 1.9 23.05L5 23.9L12.5 25.05L11.15 28.05L10.05 29.95L9.65 30.55L8.65 31.9Q8.1 32.8 8.4 33.75Q8.95 34.35 9.65 34L11.7 32.55L12.55 31.85L14.35 30.75L15.15 30.3L16.35 32.05Q20 35.85 25 35.05Q25.25 33.95 24.55 33.1Q26.6 34.1 29.35 33.75L29.4 33.75L29.45 33.75L29.6 34.55L30.35 35.95Q30.95 37 32.05 36.5L32.3 36.1L32.6 36.3L32.4 35.85L32.4 35.75L32.35 35.4L32.25 34.2Q32.25 33.65 32.4 33.2Q33.25 32.8 34.3 32.55L34.7 32.45L35.55 32.3Q38.05 31.45 40.1 29.85Q42 28.4 42.65 26.05Q43.05 24.55 43.75 23.4Q47.6 22.55 51.6 23.45L52.3 23.45L52.7 23.6L52.6 23.3L52.9 22.75Q52.1 20.85 50.3 19.65Q48.4 18.4 46.25 17.6L43.85 16.65Q45.3 16.95 46.45 16.25L46.9 15.75L47.2 15.75L46.95 15.65L46.95 15.5L46.95 15.35Q45.75 14.75 44.85 13.65L42.45 11.5L46.8 13.7Q48.5 14.55 49.8 15.9L48.15 17.25L48.15 17.3L50.75 18.8Q52.95 20.5 54.7 22.55Q55.9 23.95 55.45 25.6Q52.75 25.7 49.9 24.7Q46.75 23.65 43.7 24.6Q43.5 26.3 42.8 27.85Q41.6 30.5 39.05 31.95Q36.35 33.5 33.65 34.3L33.95 35.3L34.3 36.35L34.75 37.45Q35.1 38.2 35.05 39L35 39.25Q33.75 39.95 32.65 38.8L30.4 36.8Q29.45 36.1 29.05 35.25Q21.7 37.75 16.35 32.7L14.85 31.35L14.7 31.25L13.45 32.4L11.8 33.5Q11.2 33.9 10.7 34.45L8.85 36.65L7.65 37.95L7.1 38.45L6.8 38.45L6.3 38.35L5.95 38.1Q5.85 36.8 6.65 35.55L7.25 34.55L7.75 33.25Q8.15 32.15 8.7 31.1L9.4 29.6Q9.9 27.85 10.75 26.25L10.9 26L3.7 24.1L0.1 23.25L-5.15 22.25L-5.25 22.1L-5.35 21.85L-5.4 21.55L-5.3 21.15L-5.2 21Q-1.9 19.95 1.65 19.75L7.1 19.05L7.15 19.05L7.8 19.05L7.7 17.35Q7.8 13.95 9.15 10.9Q9.75 9.6 10.75 8.8L9.8 6.6L8.25 3L6.3 -0.95Q5.75 -1.9 5.65 -3L5.75 -3.15L5.85 -3.25L6 -3.4L6.15 -3.45L6.45 -3.5L6.45 -3.55L10.65 -0.3L14.8 2.8L16.05 3.8Q16.65 3.25 17.5 2.8Q21.5 0.75 26 1.5Q26.45 -0.9 27.3 -3.2L28.85 -8.15Q29.3 -9.95 30.7 -10.65L30.75 -10.35Q31.4 -11.45 32.45 -11.9Q33.05 -9.75 32.5 -7.3L31.35 -2.55L30.65 0.8L30.65 0.9L31.9 1.1Q33.7 -2.45 35.95 -5.7L40.95 -12.7Q41.75 -13.8 42.7 -14.45Q43.45 -12.1 42.05 -8.95Q40.4 -5.4 39.2 -1.7L37.5 3.65Q37.15 0.45 38.9 -2.8Q41.05 -7 40.65 -10.75Q40.05 -10.45 39.6 -9.75Q37.7 -6.95 35.95 -3.95Q34.15 -1 31.95 1.55Q31.2 1.7 30.85 1.2L30.45 0.85L30.55 -1.5Q30.6 -3.45 30.95 -5.3Q31.35 -7.15 31.05 -8.9L30.85 -9.05L30.55 -9.15Q29.45 -8.55 29.3 -7.1Q28.95 -4.45 27.75 -1.95Q26.45 0.85 27.05 2.95L27.5 2.75Q29.8 3.95 31.45 5.9L33.9 9.45L39.7 9.6L38.3 6.45L37.6 4.6M34.1,14.7Q37.4 16.55 37.7 20.25Q37.85 22.75 36.2 24.65Q33.9 27.3 31.5 26.5L31.75 26.4Q35.75 25 36.55 21Q37.35 17 34 15L34.1 14.7M16.95,23.95Q14.8 24.2 13.65 21.85Q13 20.45 13.25 18.95Q13.35 18.35 13.7 17.9L13.45 17.1Q13.05 14.85 14 12.95Q15.35 10.25 18.2 9.6L19.15 9.65L19.75 9.95L19.8 10L19.5 10Q17.05 10.2 15.5 12.35Q14.45 13.75 14.5 15.6L14.6 16.7Q14.75 17.5 15.3 18.1Q14.65 19.1 14.8 20.25Q14.8 20.65 14.95 21.05L15.4 22.1L16.2 23.3L16.95 23.95M26.55,21.7Q25.15 23.3 22.75 21.4Q21.5 20.45 21.7 18.85Q21.75 18.45 21.95 18.2L22.2 19Q22.5 19.95 23.35 20.5Q25.2 21.75 26.55 21.7M33.05,44.6L33.05 44.45L33.15 44.35L33.25 44.2L33.4 44.05L33.75 43.95L34.05 43.85Q36.25 45.2 37.85 47.3Q39.4 49.35 39.8 52.05Q40.05 53.6 39.45 55Q37.45 54.8 35.9 52.8Q34.35 50.85 33.65 48.35L32.85 45.55L32.85 45.45L32.9 45.3L33 45.15L33.05 44.9L33.05 44.6M35.05,48.65Q35.6 49.85 36.5 50.8L37.85 51.95L37.15 49.45Q36.6 47.95 35.35 46.75Q34.75 46.2 34.15 46Q34.45 47.35 35.05 48.65" />
<path style="fill:#FFFF00;fill-opacity:1" d="M38.3,6.45L39.7 9.6L33.9 9.45L31.45 5.9Q29.8 3.95 27.5 2.75L27.05 2.95Q26.45 0.85 27.75 -1.95Q28.95 -4.45 29.3 -7.1Q29.45 -8.55 30.55 -9.15L30.85 -9.05L31.05 -8.9Q31.35 -7.15 30.95 -5.3Q30.6 -3.45 30.55 -1.5L30.45 0.85L30.85 1.2Q31.2 1.7 31.95 1.55Q34.15 -1 35.95 -3.95Q37.7 -6.95 39.6 -9.75Q40.05 -10.45 40.65 -10.75Q41.05 -7 38.9 -2.8Q37.15 0.45 37.5 3.65L37.6 4.55L37.6 4.6L38.3 6.45M29.45,33.7L29.35 33.75Q26.6 34.1 24.55 33.1Q25.25 33.95 25 35.05Q20 35.85 16.35 32.05L15.15 30.3L14.35 30.75L12.55 31.85L11.7 32.55L9.65 34Q8.95 34.35 8.4 33.75Q8.1 32.8 8.65 31.9L9.65 30.55L10.05 29.95L11.15 28.05L12.5 25.05L5 23.9L1.9 23.05Q0.9 22.65 0.8 22.2L0.75 22.2L0 22.2Q-1.05 22.4 -1.25 21.6Q2.25 19.6 7.1 20L7.55 20L8.3 20.1L8.8 20.3L9.1 20.65L8.55 21.1Q7.3 21.95 5.8 22.3L6.5 22.4L11.75 22.95Q10.75 22.55 10.1 21.7Q9.1 20.45 8.9 18.25Q8.55 14.6 9.95 11.3Q10.5 10.05 11.55 9.35Q10.85 8.55 10.5 7.3L9.4 4.15L7.95 0.7Q7.6 -0.15 7.7 -1L7.8 -1.15L8 -1.25L8.3 -1.35L8.3 -1.4Q10.35 -0.35 11.9 1.4L15.4 4.45L16.4 5.3Q17.15 4.8 18.05 4.55L22.3 4.35Q26.5 3.95 29.85 6Q32.75 7.8 33.8 10.55L34.6 10.35L36.5 9.95Q38.95 9.6 41 10.65L42.2 11.35L42.45 11.5L44.85 13.65Q45.75 14.75 46.95 15.35L46.95 15.5L46.95 15.65L46.9 15.75L46.45 16.25Q45.3 16.95 43.85 16.65L46.25 17.6Q48.4 18.4 50.3 19.65Q52.1 20.85 52.9 22.75L52.6 23.3L52.3 23.45L51.6 23.45Q47.6 22.55 43.75 23.4Q43.05 24.55 42.65 26.05Q42 28.4 40.1 29.85Q38.05 31.45 35.55 32.3L34.7 32.45L34.3 32.55Q33.25 32.8 32.4 33.2Q32.25 33.65 32.25 34.2L32.35 35.4L32.4 35.75L32.3 36.1L32.05 36.5Q30.95 37 30.35 35.95L29.6 34.55L29.45 33.75L29.45 33.7M37.4,-3.4L35.4 -0.3L33.05 2.7Q32.35 3.55 31.15 3.15L32.95 4.9L34.35 7.05L34.8 7.85L37.05 7.7Q35.75 5.8 35.6 3.65Q35.45 1.9 36.15 0.25L37.5 -3.35Q37.55 -3.55 37.4 -3.4M34,15Q37.35 17 36.55 21Q35.75 25 31.75 26.4L31.5 26.5Q29.05 27.25 27.65 25.55Q32 25.45 34.2 21.65Q34.85 20.5 34.5 19.2L33.6 17.15L33.45 16.95L33.1 16.45L33 16.45L32.75 16.45L32.45 16.35L32.15 16.1L32.15 15.7Q31.15 15.15 29.85 15.15Q28.8 15.15 28.25 14.5L28.4 14.3L28.65 14.2L28.9 14.1L29.3 14L29.7 13.9L32.15 14.2Q32.2 13.25 32.4 12.3L32.45 11.95L32.45 11.9L32.4 11.8L32.4 11.65L32.4 11.5L32.4 11.35L32.45 11.35Q32.3 10.5 31.55 9.8Q25.5 3.95 16.95 6.85Q15.95 7.7 14.7 6.4L12.2 4Q11.8 3.65 11.3 3.45L11.8 5.4L12.65 7.45L13.25 8.9L13.55 9.05L13.75 9.3L13.5 9.55Q13.55 10.05 13.05 10.45L12.7 10.3Q11.25 11.85 10.7 14Q9.95 17.05 11.55 19.9L13.05 23.05Q14.6 23.3 15.2 24.55L14.2 25.9L13.65 26.65Q13.5 26.9 13.5 27.2L13.35 27.85L13.25 28.15L13.2 28.45L12.9 29L12.4 29.65L13.05 29.25L14.2 28.6L14.9 28.45Q15.35 28.5 15.55 28.85L15.55 28.9Q16.95 29.35 18.1 30.7Q19.55 32.45 21.5 33.4L22.1 33.55L20 30.55Q19.55 29.8 19.4 28.95L19.3 28.15L19.3 27.6Q19.3 26.5 20.05 25.65L20.25 25.55L20.6 25.45L21 25.55L21.25 25.7L21.45 25.95L21.4 26.05Q21.65 28.4 23.4 30.3Q25.2 32.25 28.05 31.8L30.9 32Q32.15 30.9 34.2 30.8L34.75 30.85L34.9 30.75L35.3 30.55L35.35 30.55L39.45 27.7Q40.5 26.9 40.8 25.5Q41.4 22.55 43.95 21.75L48.8 21.4L49.9 21.45Q48.65 20.4 47.2 19.7Q44.3 18.3 41.1 18.25Q39.45 18.2 39 17.05L39.1 16.85Q39.6 16.3 40.35 16.1L41.9 15.65L43.4 15.25Q43.2 14.25 42 13.4Q39.6 11.7 36.8 11.9L34.25 12.2Q34.45 13.45 34.1 14.7L34 15M16.2,23.3L15.4 22.1L14.95 21.05Q14.8 20.65 14.8 20.25Q14.65 19.1 15.3 18.1Q14.75 17.5 14.6 16.7L14.5 15.6Q14.45 13.75 15.5 12.35Q17.05 10.2 19.5 10L19.8 10L21.9 10.05Q22.7 10.05 22.8 10.75Q20.3 11.35 17.9 12.75Q15.1 14.4 16.45 17.4Q17.05 18.8 16.65 20.45Q16.5 21.1 17.05 21.7Q18.2 22.8 19.45 23.55Q19.25 24.6 18.1 24.4Q17.45 24.3 16.95 23.95L16.2 23.3M23.35,20.5Q22.5 19.95 22.2 19L21.95 18.2L21.8 16.85Q21.8 16.1 22.45 15.9L23.95 18.75Q24.35 19.7 25.4 19.7Q27.3 19.7 28.65 20.55Q27.8 21.65 26.55 21.7Q25.2 21.75 23.35 20.5M34.15,46Q34.75 46.2 35.35 46.75Q36.6 47.95 37.15 49.45L37.85 51.95L36.5 50.8Q35.6 49.85 35.05 48.65Q34.45 47.35 34.15 46" />
<path style="fill:#FFFFFF;fill-opacity:1" d="M8.55,21.1Q9.05 21.95 9.95 22.45L10.1 21.7Q10.75 22.55 11.75 22.95L6.5 22.4L5.8 22.3Q7.3 21.95 8.55 21.1M37.5,-3.35L36.15 0.25Q35.45 1.9 35.6 3.65Q35.75 5.8 37.05 7.7L34.8 7.85L34.35 7.05L32.95 4.9L31.15 3.15Q32.35 3.55 33.05 2.7L35.4 -0.3L37.4 -3.4Q37.55 -3.55 37.5 -3.35M36.2,24.65Q37.85 22.75 37.7 20.25Q37.4 16.55 34.1 14.7Q34.45 13.45 34.25 12.2L36.8 11.9Q39.6 11.7 42 13.4Q43.2 14.25 43.4 15.25L41.9 15.65L40.35 16.1Q39.6 16.3 39.1 16.85L39 17.05Q39.45 18.2 41.1 18.25Q44.3 18.3 47.2 19.7Q48.65 20.4 49.9 21.45L48.8 21.4L43.95 21.75Q41.4 22.55 40.8 25.5Q40.5 26.9 39.45 27.7L35.35 30.55L35.3 30.55L34.9 30.75L34.75 30.85L34.2 30.8Q32.15 30.9 30.9 32L28.05 31.8Q25.2 32.25 23.4 30.3Q21.65 28.4 21.4 26.05L21.45 25.95L21.25 25.7L21 25.55L20.6 25.45L20.25 25.55L20.05 25.65Q19.3 26.5 19.3 27.6L19.3 28.15L19.4 28.95Q19.55 29.8 20 30.55L22.1 33.55L21.5 33.4Q19.55 32.45 18.1 30.7Q16.95 29.35 15.55 28.9L15.55 28.85Q15.35 28.5 14.9 28.45L14.2 28.6L13.05 29.25L12.4 29.65L12.9 29L13.2 28.45L13.25 28.15L13.35 27.85L13.5 27.2Q13.5 26.9 13.65 26.65L14.2 25.9L15.2 24.55Q14.6 23.3 13.05 23.05L11.55 19.9Q9.95 17.05 10.7 14Q11.25 11.85 12.7 10.3L13.05 10.45Q13.55 10.05 13.5 9.55L13.75 9.3L13.55 9.05L13.25 8.9L12.65 7.45L11.8 5.4L11.3 3.45Q11.8 3.65 12.2 4L14.7 6.4Q15.95 7.7 16.95 6.85Q25.5 3.95 31.55 9.8Q32.3 10.5 32.45 11.35L32.4 11.35L32.4 11.5L32.4 11.65L32.4 11.8L32.45 11.9L32.45 11.95L32.4 12.3Q32.2 13.25 32.15 14.2L29.7 13.9L29.3 14L28.9 14.1L28.65 14.2L28.4 14.3L28.25 14.5Q28.8 15.15 29.85 15.15Q31.15 15.15 32.15 15.7L32.15 16.1L32.45 16.35L32.75 16.45L33 16.45L33.1 16.45L33.45 16.95L33.6 17.15L34.5 19.2Q34.85 20.5 34.2 21.65Q32 25.45 27.65 25.55Q29.05 27.25 31.5 26.5Q33.9 27.3 36.2 24.65M19.75,9.95L19.15 9.65L18.2 9.6Q15.35 10.25 14 12.95Q13.05 14.85 13.45 17.1L13.7 17.9Q13.35 18.35 13.25 18.95Q13 20.45 13.65 21.85Q14.8 24.2 16.95 23.95Q17.45 24.3 18.1 24.4Q19.25 24.6 19.45 23.55Q18.2 22.8 17.05 21.7Q16.5 21.1 16.65 20.45Q17.05 18.8 16.45 17.4Q15.1 14.4 17.9 12.75Q20.3 11.35 22.8 10.75Q22.7 10.05 21.9 10.05L19.8 10L19.75 9.95M21.7,18.85Q21.5 20.45 22.75 21.4Q25.15 23.3 26.55 21.7Q27.8 21.65 28.65 20.55Q27.3 19.7 25.4 19.7Q24.35 19.7 23.95 18.75L22.45 15.9Q21.8 16.1 21.8 16.85L21.95 18.2Q21.75 18.45 21.7 18.85" />
</g>
</svg>
