<?xml version="1.0" encoding="utf-8"?>
<svg version="1.1" id="Layer_1"
xmlns="http://www.w3.org/2000/svg"
xmlns:xlink="http://www.w3.org/1999/xlink"
width="31px" height="13px"
xml:space="preserve">
<g id="561" transform="matrix(1, 0, 0, 1, 13.15, -13.15)">
<path style="fill:#000000;fill-opacity:1" d="M2.05,16.7L5.55 17.65Q7.7 18.2 6.95 20.15L6.85 20.7L6.8 20.85Q10.8 22.05 15.05 22.25Q16.2 22.3 16.85 23.2Q17.65 24.2 17.65 25.35Q17.65 25.85 17.1 25.95Q15.4 26.3 14.65 25.05Q10.8 25.6 7.35 24.5L5.7 24.05L2.65 23.6Q1.55 23.55 0.85 23.1L-0.2 23.7L-3.2 24.25L-3.35 24.25L-7.45 24.15Q-7.7 24.15 -7.8 23.95Q-9.6 25.35 -11.95 24.6L-13.05 24.25L-13.15 24L-13.15 23.7L-13.05 23.45Q-10.6 21.8 -7.45 21.85L-6.45 21.75L-5.25 21.45L-5.25 21.4L-5.25 21.05L-5.25 20.85Q-6.35 21.1 -7.55 20.45L-7.7 20.8L-7.7 20.85Q-9.8 20.75 -9.65 18.6L-9.5 17.8L-8.9 16.5L-8.75 16.3L-7.6 15.25L-7.5 15.2L-7.4 15.25L-7.3 15.35L-7.3 15.4L-7.25 15.35L-5.45 15.7L-4.85 14.9L-4 14.2Q-3.8 14.95 -4 15.9L-4.2 16.45L-3.7 17.1L-3.35 17L-1.65 17.4Q-2.1 16.75 -1.75 16.2L-2.2 15.25L-2.4 14.3Q-2.5 13.55 -1.9 13.15L-0.85 14.65L-0.45 15.6Q0.6 15.65 1.05 16.5L1.75 16.5Q1.95 16.55 2.05 16.7" />
</g>
</svg>
