<?xml version="1.0" encoding="utf-8"?>
<svg version="1.1" id="Layer_1"
xmlns="http://www.w3.org/2000/svg"
xmlns:xlink="http://www.w3.org/1999/xlink"
width="27px" height="34px"
xml:space="preserve">
<g id="606" transform="matrix(1, 0, 0, 1, 38.85, 7.85)">
<path style="fill:#000000;fill-opacity:0.498039" d="M-12.05,23.7Q-12.05 24.4 -15.9 24.9L-25.4 25.4L-34.8 24.9Q-38.85 24.4 -38.85 23.7Q-38.85 23 -34.8 22.5L-32.9 22.3L-25.4 22L-20.1 22.15L-15.9 22.5L-13.3 23Q-12.05 23.3 -12.05 23.7" />
<path style="fill:#000000;fill-opacity:1" d="M-25.25,-1.05Q-24.8 -0.4 -25.4 0L-29.7 0.1L-29.7 -0.1Q-29.85 -1.3 -28.8 -1.65L-26.85 -1.8Q-25.8 -1.75 -25.25 -1.05M-13.3,15.65L-13.95 16.95L-14.7 18.6Q-15.65 18.6 -16.55 18.05Q-18.65 16.8 -20.95 16.05L-20.95 16.1L-20.6 16.5L-20.4 16.7L-19.05 18.5L-18.85 18.55Q-18.1 18.65 -17.6 19.25L-17 20.1Q-18.65 22.2 -20.75 21.3Q-21.65 20.9 -22.2 19.95L-23.65 17.45Q-24.45 16.05 -25.6 15.5L-25.75 15.45L-25.8 15.35L-27.1 15L-28.75 14.5L-31.05 14.6L-32.65 13.8Q-33.25 14.3 -34.2 14L-34.65 13.75L-35.15 13.9L-36.4 14.2L-37 14L-37 13.95L-36.95 13.85L-36.9 13.8L-36.9 13.7L-36.9 13.6L-36.9 13.5L-36.9 13.45L-36.7 13.2L-35.6 12.9L-35.15 12.85L-35.15 12.35L-35.2 12.35L-35.75 12.4L-36.2 12.3L-36.65 12.75L-37.15 13.5L-37.9 13.5L-38.3 13.15L-38.15 13.05L-37.4 12.25L-36.85 11.7L-37.15 11.45Q-37.75 10.75 -37.8 9.9L-37.7 9.95Q-38 8.25 -35.8 6.95L-34.85 6.75Q-34.3 6.75 -33.9 7.15L-33.6 7.45L-33.5 7.5L-33.55 7.65L-33.65 7.85Q-32.9 7.85 -32.3 8.35Q-31.55 8.95 -31.55 9.65L-31.25 9.6L-31.4 8.8Q-31.5 6.8 -29.5 6.65L-28.1 7.15Q-25.95 8.05 -25.3 10.2L-25.25 10.5L-24.25 11.05L-23.4 11.45L-22.85 11.85L-22.9 12L-19.6 12.4Q-18.35 12.3 -17.4 13.1L-15.75 14.5L-15.4 14.2Q-15.1 13.3 -14.3 13.5Q-12 14.1 -13.3 15.65M-34.45,17.7L-34.3 17.45L-34.15 17.6L-32.15 16.95L-31.95 16.75L-31.8 16.45L-31.7 16.5L-31.6 16.35L-31.05 15.95Q-30.2 15.75 -29.45 16.25Q-28.8 16.65 -29.05 17.4L-29.25 18.05Q-29.25 19.1 -30.7 19.35L-33.1 19.75L-34.5 21.85Q-33.65 22.9 -34.75 24.2Q-35.3 24.75 -36 24.45Q-38.4 23.65 -37.6 20.95L-37.6 20.85Q-37.1 20.25 -36.45 20.3L-35.65 19.5L-34.5 17.8L-34.5 17.7L-34.45 17.7" />
<path style="fill:#7E0000;fill-opacity:1" d="M-20.65,-7.65L-17.25 -7.85Q-16.8 -7.8 -17.05 -7.65Q-19.5 -6.1 -22.55 -5.7L-22.75 -5.75L-22.8 -6L-22.85 -6.3L-22.85 -6.45L-22.8 -6.6L-22.75 -6.7Q-21.85 -7.5 -20.65 -7.65M-22.3,2.1Q-22 3.4 -23.45 4.05L-26.1 4.1L-25.95 3.65L-24.35 2.45L-22.55 1.8L-22.3 2.1M-28.45,2.3L-28.1 2.5Q-27.85 2.65 -27.95 2.9L-28.15 3.1L-30.65 4.45Q-31.85 5.1 -32.65 4.45L-32.5 3.7Q-31.65 2.8 -30.4 2.65L-28.85 2.15L-28.65 2.2L-28.45 2.3" />
</g>
</svg>
