<?xml version="1.0" encoding="utf-8"?>
<svg version="1.1" id="Layer_1"
xmlns="http://www.w3.org/2000/svg"
xmlns:xlink="http://www.w3.org/1999/xlink"
width="131px" height="15px"
xml:space="preserve">
<g id="1326" transform="matrix(1, 0, 0, 1, -3.2, -19.75)">
<path style="fill:#F6D7BF;fill-opacity:1" d="M131.3,34L128.4 31.9L125.4 33.85L126.5 30.45L123.7 28.15L127.3 28.15L128.6 24.8L129.7 28.25L133.3 28.4L130.4 30.55L131.3 34M113.2,30.55L108.85 33.4L110.45 28.45L106.4 25.15L111.6 25.15L113.5 20.3L115.1 25.25L120.3 25.5L116.1 28.6L117.45 33.65L113.2 30.55M30.1,24.6L26.05 27.9L27.65 32.85L23.3 30L19.05 33.1L20.4 28.05L16.2 24.95L21.4 24.7L23 19.75L24.9 24.6L30.1 24.6M8.1,31.35L5.2 33.45L6.1 30L3.2 27.85L6.8 27.7L7.9 24.25L9.2 27.6L12.8 27.6L10 29.9L11.1 33.3L8.1 31.35" />
</g>
</svg>
