<?xml version="1.0" encoding="utf-8"?>
<svg version="1.1" id="Layer_1"
xmlns="http://www.w3.org/2000/svg"
xmlns:xlink="http://www.w3.org/1999/xlink"
width="42px" height="16px"
xml:space="preserve">
<g id="408" transform="matrix(1, 0, 0, 1, -150.3, -203.55)">
<path style="fill:#3A1D0F;fill-opacity:0.85098" d="M161.25,204.15L161.25 204.2Q159.05 204.7 158.15 206.65L158 206.95L158 206.85L157.75 207.25L157.7 207.3Q157.45 205.2 159.4 204.5L159.6 204.4L160.1 204.2L160.8 204Q161.15 203.9 161.25 204.15M159.95,210L159.25 210.6Q158.5 211.35 157.6 211.6Q157.55 209.2 160.35 208.05L160.8 207.95Q161.65 208.8 159.95 210M151.9,211.45Q152.2 211.55 152.15 211.8Q150.15 211 151.4 208.6L151.9 211.4L151.9 211.45M161.85,213.85L169.95 214.85L157.85 214.25Q159.7 213.6 161.85 213.85M185.85,210.25Q186.8 211.55 187.2 213.1L187.2 213.15Q186.5 215 184.55 214.25Q186.6 212.45 185.75 210.3L185.85 210.25M191.65,213.2L191.05 213.8L191 213.85L190.95 214.25L190.9 214.3Q190.7 213.85 190.3 214.05L190.2 214L191.25 213.35Q192.15 212.4 191.25 211.35L191.25 211.1Q192.6 212.25 191.65 213.2M166.35,218.05L166.35 218.1Q163.85 218.5 161.65 216.95L162 216.75L162.1 216.75L166.35 218.05M179.1,217.85L179.15 217.85L178.45 217.8L179.1 217.85M173.75,218.5L173.65 218.5L176.3 218.3L173.75 218.5" />
<path style="fill:#3A1D0F;fill-opacity:0.6" d="M157.75,207.25L157.7 207.3L157.7 207.2L157.55 207.1Q157 206.5 157.55 205.65Q158.85 203.75 161.2 203.55Q162.5 204.15 160.9 204.5Q159.8 204.75 159.05 205.4L158.15 206.65L158 206.95L158 206.85L157.75 207.25M159.95,210L159.25 210.6Q158.5 211.35 157.6 211.6Q157.55 209.2 160.35 208.05L160.8 207.95Q161.65 208.8 159.95 210M151.6,209.4L151.9 211.4L151.9 211.45Q152.2 211.55 152.15 211.8L152 211.75L152.15 211.9L152.05 212.1Q151.4 212.65 150.8 211.6Q149.65 209.65 151.2 208.25Q152 208.6 151.6 209.4M158.55,213.85Q158.4 213.8 158.5 213.6L158.9 213.3L168.35 214Q169.35 214.1 168.6 214.6L168.45 214.7L169.95 214.85L157.85 214.25L159.1 213.95L158.55 213.85M161.65,216.95L162 216.75L162.1 216.75L166.35 218.05L166.35 218.1L165.95 218.15L165.95 218.35Q165.25 219.05 164.1 218.7L162.3 217.95Q161.35 217.45 161.75 217L161.65 216.95M186,209.95L186.05 209.9Q188 211.05 187.45 213.3Q187.25 214.05 186.5 214.45L184.85 214.35L184.55 214.25L184.8 214.05L184.75 213.95L184.85 213.15L185.8 210.45L185.75 210.3L185.85 210.25L185.9 210.3L186 209.95M191.05,211.6L190.75 210.5Q190.75 210.25 191.05 210.2Q192.8 211.45 191.75 213.4L191 214.2L190.95 214.25L190.9 214.3L190.9 214.25L189.8 214.15Q189.65 214.05 189.8 213.95L191 212.95Q191.5 212.4 191.05 211.6M173.55,218.9Q172.7 218.75 173.3 218.2L173.9 217.95L176.25 218.2Q176.85 218.4 176.25 218.65L173.95 219L173.55 218.9M179.7,218.35L177.6 218.3Q177.4 218.15 177.6 218.05Q178.6 217.45 179.8 217.3Q181 217.85 179.7 218.35" />
</g>
</svg>
