<?xml version="1.0" encoding="utf-8"?>
<svg version="1.1" id="Layer_1"
xmlns="http://www.w3.org/2000/svg"
xmlns:xlink="http://www.w3.org/1999/xlink"
width="25px" height="13px"
xml:space="preserve">
<g id="890" transform="matrix(1, 0, 0, 1, 3.45, -7.3)">
<path style="fill:#000000;fill-opacity:1" d="M21.15,13.75Q21.45 14.2 21.2 14.75L21 14.85Q20.1 15.6 19.2 15.65L17.9 14.4L16.7 14.55L15.25 14.75L15.85 14.95L16.6 15.1Q17.45 15.45 18.15 16.05L18.4 16.65Q18.5 18.2 17.9 19.65L15.1 19.6L15 19.4L14.75 18.4Q14.65 17.5 14.2 16.95L12.95 16.6L11.45 16.15L10.85 16Q10.4 15.75 9.95 15.6L9.4 15.4L8.9 15.2L5.15 15L4.75 15.4L4.45 16.05L3.5 17.5L3.45 17.5L2.2 17.7L1.45 17.6L0.3 17.15L-1.05 16.65L-1.4 16.75Q-2.5 17.05 -3.35 15.95Q-3.7 14.8 -2.95 13.7L-2.05 13.65L-1.9 13.75L-1.6 13.9L-1.1 14.2Q0.2 15.3 1.9 14.75L2 14.55L2.5 13.7L1.65 13.5Q0.6 13.5 -0.25 12.75L-0.3 12.55L-0.9 11.2L-0.75 10.4L-0.5 9.5L0.65 8.4L1.45 8.4L1.85 8L2.65 7.4L3.35 7.3L4.45 7.5L6 7.85Q6.35 7.8 6.75 8.1Q7.5 8.65 7.7 9.45Q9 9.3 10.25 10.05L10.6 10.6Q11.1 11.3 11.2 11.95L13.6 12.15L15.3 12.3L19.25 12L19.35 12.05L20.55 13.1L21.15 13.75" />
</g>
</svg>
