<?xml version="1.0" encoding="utf-8"?>
<svg version="1.1" id="Layer_1"
xmlns="http://www.w3.org/2000/svg"
xmlns:xlink="http://www.w3.org/1999/xlink"
width="17px" height="20px"
xml:space="preserve">
<g id="1157" transform="matrix(1, 0, 0, 1, 10.75, 5.8)">
<path style="fill:#999999;fill-opacity:0.705882" d="M3.9,-4.4L3.3 -4.3L2.7 -4.35L2.4 -4.65L2.4 -4.95L3.65 -4.95L4.15 -4.6L3.9 -4.4M2.5,-2.4L2.75 -2.2L2.5 -1.95L1.95 -1.8Q1.65 -1.8 1.65 -1.95L2.15 -2.4L2.5 -2.4M3.5,11.75Q4.4 11.75 4.4 12.25Q4.4 12.7 3.9 12.7Q3.55 12.7 3.3 12.4L3.1 12L3.15 11.8L3.5 11.75M4.15,9.45L4.5 9.25Q4.8 9.25 5.25 9.6L5.65 10L5.15 10.35L3.95 9.65L4.15 9.45M0.6,13.7L0.4 13.7L0.1 13.35Q0.1 13.2 0.45 13.2Q1 13.2 1 13.45Q1 13.7 0.6 13.7M-10.75,-4.35Q-10.75 -5.6 -9.1 -5.6Q-8.1 -5.6 -8.1 -5.2L-8.2 -5.05L-8.6 -5.1L-9.15 -4.55L-8.9 -4.25L-8.7 -3.8Q-8.7 -3.35 -9.25 -3.35Q-10 -3.35 -10.45 -3.8L-10.75 -4.35M-5.2,-5.6Q-4.25 -5.6 -4.25 -5.2Q-4.25 -5.05 -4.6 -4.9L-5.35 -4.7Q-6.15 -4.7 -6.15 -5.25Q-6.15 -5.6 -5.2 -5.6M-6.9,-3.9Q-6.9 -3.4 -7.6 -3.3L-7.65 -3.4L-7.35 -4.05L-7.9 -4.9L-7.8 -5.05L-7.25 -4.45L-6.9 -3.9M-6.05,-3.5Q-6.05 -3.15 -7 -2.15L-7.25 -2.35L-6.65 -3.1Q-6.6 -3.9 -6.25 -3.9Q-6.05 -3.9 -6.05 -3.5M-7.55,-0.65L-7.8 -1.15L-7.15 -0.9L-6.75 -0.25L-6.95 0.35L-7.3 1.1L-7.45 1.1L-7.5 -0.1L-7.55 -0.65M-1,-5.8Q-0.45 -5.8 -0.45 -5.45Q-0.45 -5.2 -1.1 -5.2Q-1.45 -5.2 -1.45 -5.5Q-1.45 -5.8 -1 -5.8M-3.4,-1.55Q-3.4 -1.1 -4 -0.45L-5.2 0.35L-5.25 0.25L-4.6 -0.35L-4.7 -0.5L-4.45 -0.95L-4.6 -1.55Q-4.6 -2.3 -4.25 -2.55Q-3.95 -2.75 -3.95 -2.25L-4.1 -1.9L-4 -1.5L-3.95 -1.45L-3.7 -1.7L-3.45 -1.7L-3.4 -1.55M-1.75,-2.55Q-2.3 -2.55 -2.3 -2.95Q-2.3 -3.15 -1.7 -3.15L-1.05 -2.95Q-1.05 -2.55 -1.75 -2.55M-0.2,8.5L0.5 9.2Q0.5 9.65 -0.15 9.7L-0.15 9.8L-0.5 10.1L-1.65 10.3L-2.65 10.1L-3.05 9.75L-2.65 9.75Q-2.65 9.15 -2.2 9.2L-1.5 9.2L-0.95 9.25L-0.95 9.15Q-0.95 8.2 -0.2 8.5M-5.05,12.2Q-4.2 12.1 -4.2 12.6L-4.2 12.75Q-3.9 12.75 -3.45 13.05L-2.95 13.45Q-2.95 14.2 -3.85 14.2L-4.75 13.9L-5 13.5L-4.8 13.05Q-5.45 13.05 -5.45 12.5L-5.2 12.1L-5.05 12.2" />
</g>
</svg>
