<?xml version="1.0" encoding="utf-8"?>
<svg version="1.1" id="Layer_1"
xmlns="http://www.w3.org/2000/svg"
xmlns:xlink="http://www.w3.org/1999/xlink"
width="14px" height="18px"
xml:space="preserve">
<g id="572" transform="matrix(1, 0, 0, 1, 4.2, -2.95)">
<path style="fill:#1E1E1E;fill-opacity:1" d="M0.45,2.95L0.6 3L0.85 3.1L1 3.3L0.8 3.8L0.1 4.35L-0.4 4.3L-0.5 3.95L-0.2 3.3L0.3 3L0.45 2.95M0.15,3.5L-0.15 3.7L-0.2 3.95L0.05 4L0.5 3.5Q0.65 3.35 0.45 3.35L0.15 3.5M2.55,6.05L2.15 6.25L1.8 6.55L1.6 6.75L2.55 6.7L3.25 6.2L3 6.15L2.55 6.05M3.15,5.7L3.85 6.05Q4.1 6.2 3.9 6.5Q3.25 6.55 2.65 7Q1.6 7.6 1.5 6.65Q1.45 6.2 1.85 6L2.55 5.65L3.15 5.7M2.5,9.9Q4 10.05 3.35 11.75L2.85 12.25Q1.5 12.65 1.35 11.4Q1.25 10.8 1.7 10.4Q2.1 9.95 2.5 9.9M1.45,11.3L1.45 11.45L1.45 11.5L1.5 11.65L1.55 11.65L1.7 11.75L1.8 11.8Q2.35 11.75 2.8 11.3Q3.15 11.05 2.9 10.55Q2.8 10.3 2.55 10.4L2.25 10.6L1.85 10.9L1.55 11.05L1.5 11.15L1.45 11.25L1.45 11.3M7.85,8.45Q7.2 8.6 7.1 7.9L7.1 7.75L7.15 7.6L7.3 7.5L7.4 7.4Q8.05 7.35 8.1 8.05L7.85 8.45M7.75,7.9L7.35 7.85L7.35 8.1L7.4 8.1L7.85 8.1L7.85 8L7.75 7.9M9.6,12.6L9.6 13L9.5 13.85L9.4 14.7L9.35 14.95Q8.7 15.3 8.55 14.5Q8.4 13.85 8.6 13.3L8.7 12.5L8.8 12.5L8.8 12.45L8.95 12.45L9 12.45L9.35 12.45L9.5 12.5L9.6 12.6M9.05,12.75L9 12.75L8.95 12.8L8.95 12.85L8.85 13L8.85 13.2L8.85 13.3L8.8 13.3L8.95 13.35L9 13.35L9 13.7L8.85 14.15L8.85 14.5L8.95 14.55L9 14.65L9.1 14.55L9.2 13.95L9.4 13.3L9.35 12.8L9.35 12.75L9.25 12.75L9.05 12.75M4.5,13.5L4.7 13.5L4.75 13.5L4.95 14.3L5 15.3L4.95 16.05Q3.7 16.5 3.7 15.05Q3.7 14.3 4.1 13.7L4.5 13.5M4.55,14L4.5 13.95L4.35 14.1L4.25 14.2Q4.1 14.2 4.1 14.35L4.1 14.45L4.25 14.55L4.25 14.7L4.1 14.7L4.1 14.85L4.1 15.05L4.1 15.2L4 15.3L3.95 15.3L3.95 15.35L4.1 15.7L4.65 15.8L4.75 15.7L4.7 15.2L4.7 14.55L4.55 14M1.9,13.5L2.1 13.65Q2.4 14.2 2.1 14.55Q0.85 15.8 -0.15 14.55Q-0.35 14.35 -0.2 14Q-0.05 13.35 0.5 13.2L1.1 13.35L1.3 13.45L1.9 13.5M0.15,13.85Q-0.2 14.45 0.25 14.65L1.35 14.8L1.9 14.35L1.95 14.3L1.9 14.2L1.9 14.15L1.85 14.1L1.8 14L1.1 13.85L0.55 13.7L0.45 13.8L0.25 13.85L0.15 13.85M1.15,17.75L1.9 17.6Q3.1 17.55 2.7 18.55L1.8 19.45Q0.4 19.8 0.3 18.4L0.5 18.1L0.55 18.4L0.65 18.2L1.15 17.75M2.55,18.4L2.25 18.05Q1.3 17.85 0.85 18.7L0.7 18.85Q0.85 19.25 1.45 19.2Q2.1 19.05 2.45 18.55L2.55 18.4M-2,9.1Q-1.3 8.95 -1.15 9.75Q-1 10.6 -1.7 10.75L-2.25 10.45L-2.25 10.4L-2.25 10.25L-2.25 10.1L-2.25 9.75L-2.15 9.55L-2.15 9.4L-2.15 9.3L-2.15 9.2L-2 9.1M-1.6,9.55L-1.9 9.55L-1.95 9.9L-2.05 10.1L-2 10.3L-1.95 10.4L-1.85 10.45L-1.75 10.55L-1.5 10.4L-1.45 10.4L-1.4 10.2L-1.4 9.95L-1.4 9.75L-1.6 9.55M-3.6,12.8Q-2.6 13.8 -3 15.05Q-3.25 15.7 -3.6 15.3L-3.9 14.15Q-4 13.15 -3.6 12.45L-3.6 12.6L-3.6 12.75L-3.6 12.8M-3.55,13.5L-3.6 14.15L-3.6 14.8L-3.45 15.15Q-3.05 15 -3.2 14.45L-3.4 13.65L-3.55 13.5M-2.75,19.4Q-2.7 19.75 -2.9 19.95Q-3.45 20.45 -4.05 20.1L-4.15 19.95L-4.15 19.9L-4.2 19.7L-4.05 19.25L-3.75 18.95Q-3 18.7 -2.75 19.4M-3.05,19.6L-3 19.45L-3.75 19.4L-3.8 19.45L-3.9 19.6L-3.9 19.75Q-3.6 20.05 -3.3 19.75L-3.05 19.6" />
<path style="fill:#3A3A3A;fill-opacity:1" d="M0.45,3.35Q0.65 3.35 0.5 3.5L0.05 4L-0.2 3.95L-0.15 3.7L0.15 3.5L0.45 3.35M3,6.15L3.25 6.2L2.55 6.7L1.6 6.75L1.8 6.55L2.15 6.25L2.55 6.05L3 6.15M1.45,11.25L1.5 11.15L1.55 11.05L1.85 10.9L2.25 10.6L2.55 10.4Q2.8 10.3 2.9 10.55Q3.15 11.05 2.8 11.3Q2.35 11.75 1.8 11.8L1.7 11.75L1.55 11.65L1.5 11.65L1.45 11.5L1.45 11.45L1.45 11.3L1.45 11.25M7.85,8L7.85 8.1L7.4 8.1L7.35 8.1L7.35 7.85L7.75 7.9L7.85 8M9.25,12.75L9.35 12.75L9.35 12.8L9.4 13.3L9.2 13.95L9.1 14.55L9 14.65L8.95 14.55L8.85 14.5L8.85 14.15L9 13.7L9 13.35L8.95 13.35L8.8 13.3L8.85 13.3L8.85 13.2L8.85 13L8.95 12.85L8.95 12.8L9 12.75L9.05 12.75L9.25 12.75M4.7,14.55L4.7 15.2L4.75 15.7L4.65 15.8L4.1 15.7L3.95 15.35L3.95 15.3L4 15.3L4.1 15.2L4.1 15.05L4.1 14.85L4.1 14.7L4.25 14.7L4.25 14.55L4.1 14.45L4.1 14.35Q4.1 14.2 4.25 14.2L4.35 14.1L4.5 13.95L4.55 14L4.7 14.55M0.25,13.85L0.45 13.8L0.55 13.7L1.1 13.85L1.8 14L1.85 14.1L1.9 14.15L1.9 14.2L1.95 14.3L1.9 14.35L1.35 14.8L0.25 14.65Q-0.2 14.45 0.15 13.85L0.25 13.85M2.45,18.55Q2.1 19.05 1.45 19.2Q0.85 19.25 0.7 18.85L0.85 18.7Q1.3 17.85 2.25 18.05L2.55 18.4L2.45 18.55M-1.4,9.75L-1.4 9.95L-1.4 10.2L-1.45 10.4L-1.5 10.4L-1.75 10.55L-1.85 10.45L-1.95 10.4L-2 10.3L-2.05 10.1L-1.95 9.9L-1.9 9.55L-1.6 9.55L-1.4 9.75M-3.4,13.65L-3.2 14.45Q-3.05 15 -3.45 15.15L-3.6 14.8L-3.6 14.15L-3.55 13.5L-3.4 13.65M-3.3,19.75Q-3.6 20.05 -3.9 19.75L-3.9 19.6L-3.8 19.45L-3.75 19.4L-3 19.45L-3.05 19.6L-3.3 19.75" />
</g>
</svg>
