<?xml version="1.0" encoding="utf-8"?>
<svg version="1.1" id="Layer_1"
xmlns="http://www.w3.org/2000/svg"
xmlns:xlink="http://www.w3.org/1999/xlink"
width="25px" height="26px"
xml:space="preserve">
<g id="615" transform="matrix(1, 0, 0, 1, -8.2, 0.55)">
<path style="fill:#000000;fill-opacity:0.498039" d="M25.95,23.7Q25.95 24.4 23.6 24.9L18.15 25.4L12.65 24.9Q10.45 24.4 10.45 23.7Q10.45 23.3 11.15 23L12.65 22.5L15.1 22.15L18.15 22L22.5 22.3L23.6 22.5Q25.95 23 25.95 23.7" />
<path style="fill:#000000;fill-opacity:1" d="M25.25,-0.2Q26.25 0.2 26.5 0.8Q26.8 1.2 26.6 1.7L26.5 1.95L26.45 2.05L26.1 2.45L24.7 2.9L24.6 3L24.4 3.4L24.4 3.45L25.2 5.05L25.4 5.05L25.45 5Q26.15 5.15 26.6 5.6L27.4 4.8Q27.95 4.35 28.7 4.25L28.95 4.3L28.75 3.6L28.8 3.6L28.85 3.65L28.8 3.4L29.1 3.15L30.35 3.05Q33.1 3.85 33.1 6.85Q33.1 7.65 32.6 8.05Q31.6 8.85 30.4 9.05L30 9.9L29.55 10.75L29.5 10.9L28.8 10.85L29 9.75L29.15 9.15L28.45 9.05L27.55 8.9L27.15 9.45L27.65 9.9L28.8 10.95L28.85 11.05Q28 11.7 27.25 11.2L25.1 11.1Q25.25 11.5 24.85 11.9L23.3 12Q21.35 12.4 19.5 11.65L14.75 12.45L14.6 12.5L14.7 13.2L14.95 14.1L15 14.15Q14.15 14.6 13.35 15.15L13.35 15.3L13.05 16.4L12.5 17L8.25 16.75L8.2 16.3L8.4 15.65Q8.65 14.9 9.6 14.85L9.9 14.75L10 14.25Q9.9 13.3 10.05 12.4L10.5 11.2L10.45 10.85L10.35 10.15L10.2 9.55Q10.2 9.45 10.3 9.5L11.1 9.9L11.4 10.1L11.75 9.85L11.95 9.5L12.25 8.8L12.4 8.35L12.5 8.05L13.1 7.3L13.45 7.05L15.4 7.25L17 7.6L17.15 7.5L17.2 7.55Q17.85 7.2 18.65 6.95L20.8 6.45L20.6 5.75L20.5 4.15L20.55 3.6L20.6 3.35L20.7 2.9L20.7 2.85L20.65 2.65L20.6 2.4L20.6 2.3L21.3 1.65L22.2 0.85L22.25 0.65L22.55 0L22.75 -0.2L24 -0.55L24.5 -0.4L24.75 -0.3L25.25 -0.2M20.85,2.5L20.9 2.3L20.8 2.45L20.85 2.5M20.75,3.15L20.7 3.05L20.6 3.5L20.75 3.15M24.95,10.75L26.5 10.75L26.75 10.75L26.05 10.15L25.8 10.2L24.7 10.5L24.95 10.75" />
</g>
</svg>
