<?xml version="1.0" encoding="utf-8"?>
<svg version="1.1" id="Layer_1"
xmlns="http://www.w3.org/2000/svg"
xmlns:xlink="http://www.w3.org/1999/xlink"
width="18px" height="30px"
xml:space="preserve">
<g id="1017" transform="matrix(1, 0, 0, 1, -0.5, 0.6)">
<path style="fill:#D9E9FF;fill-opacity:1" d="M16.3,5.3L16.75 5.1Q16.5 6.25 14.8 5.95Q14.2 5.85 13.95 6.4Q14.85 7.7 12.8 7.7Q11.85 7.75 12.45 8.5Q13.5 9.7 13.25 11L13 11.05Q11.8 11.1 12.05 12.2Q10.95 11.4 12.35 10.85L13.05 10.6Q12.25 9.3 12 7.9Q11.85 6.95 12.95 7.15L13.85 7Q13.15 5.45 15.4 5.55L16.3 5.3M14.6,2.75Q13.6 2.35 12.5 1.55Q12.05 1.2 11.7 1.7L11.45 3.25Q11.15 4.05 11.8 4.4Q11.3 5.15 10.2 5.5L9.8 5.45Q10 4.95 10.75 4.75L11.15 4.55Q10.85 3.85 10.85 2.95Q10.9 2.35 11.35 2.1Q11.15 1.6 11.6 1.2Q11.85 0.95 12.2 0.9Q13.8 1.3 14.6 2.7L14.6 2.75M5.45,4.35Q4.7 4.15 4.45 3.4L4.4 3.15Q2.9 2.9 2.5 1.75Q2.25 1.1 2.65 0.4L2.45 0.25L2.45 0.2Q3.3 -0.95 4.45 0L6.65 -0.6Q7.95 -0.2 8.45 1.25L8.8 1.75Q9.2 2.05 9 2.55Q7.85 1.65 7.25 0.15L7.05 -0.15L3.1 0.1L2.85 1.6L2.9 2.15Q4.6 2.35 5.5 3.65L5.65 3.95L5.65 4L5.6 4.25L5.45 4.35M4.65,6.8Q6.6 7.25 7.2 9.15L7.2 9.2Q8.35 9.2 9 8.3L9.1 8.3Q9.15 9.5 7.55 9.45Q6.65 9.45 6.2 8.4L6.05 8.1Q4.7 6.7 3.15 8.2Q2.9 8.45 2.7 8.1L2.65 7.95L2.05 8.7L1.55 9Q1.7 8.25 2.3 7.5Q2.55 7.15 2.95 7.25L3.05 7.5L3.05 7.85L3.05 7.9Q3.75 7.7 4.35 7L4.65 6.8M6.85,17.05Q8.25 18.2 7.4 19.6Q7.45 18.7 6.95 17.8L6.05 17L5.3 16.5Q4.55 15.9 3.55 16.1L2.95 14.95L2.75 14.45Q2.05 14.35 1.65 14.7L1.85 15.15L1.9 15.7L1.75 15.75L1.4 15.65L1.25 14.75L1.25 14.15L2.15 14L2.35 13.95Q3.55 14.3 3.85 15.7L3.85 15.75Q5.55 15.45 6.55 16.75L6.85 17.05M3.1,18.15Q4.15 18.35 4.65 19.25L5.05 19.5L5.6 19.45Q5.85 17.9 7 19.2L7 19.4L6.5 19.15L6.1 19.1Q5.55 20.8 3.85 19.25L3.65 18.9Q3.45 18.4 2.9 18.65L2.9 18.7L2.9 18.95L2.85 19.1Q2.3 18.95 2.75 18.35L3.1 18.15M0.65,23.3Q3.05 24.05 2.55 26.3L2.5 27.4Q2.9 26.65 3.65 26.1L4.1 25.85L4.5 26.2L6.9 24.35L7.15 24.5L8.2 23.6L8.4 23.5Q7.75 22.75 7.75 22Q7.75 21.75 8.1 21.65L8.25 21.6L10 22.1L10.05 22.15L7.95 22.25Q9.3 22.95 8.55 24L7.6 24.7L8.25 25.15L8.4 25.45Q7.7 25.55 7.1 24.95L6 25.85L4.75 26.55L4.15 26.4Q3.3 26.85 2.75 27.65L2.75 27.9L2.35 27.85L2.3 27.8L2.5 27.4Q1.85 26.85 1.95 25.8L2.25 25.2Q1.6 24 0.5 23.3L0.65 23.3M16.3,14.4Q17.45 14.65 17.75 15.5L17.75 15.7Q16.6 15.25 15.9 14.35L15.6 13.9Q14.55 14.25 14.3 15.65L14.2 16.4L13.15 16.45Q13.2 15.3 12.2 15.25L11.4 15.05Q12.8 14.25 13.3 15.65L13.4 16.05L13.75 16.1Q13.8 15.2 14.25 14.35L15.15 13.45Q16.2 13.35 16.3 14.35L16.3 14.4M16.1,17.5Q17.8 18.45 16.15 19.7Q15.55 20.15 14.85 20.1Q15.55 21.65 13.55 22.45Q13.25 23.2 12.05 23.4L12.3 24.3L12.35 24.5Q12.9 24.6 13.15 24.95Q12.55 25.55 11.6 25.7L11.6 25.65L10.25 25.8L10.15 25.8Q10.65 27.3 9.1 27.95Q8.75 28.1 9 28.5Q9.3 28.9 9.25 29.25Q7.85 28.65 9 27.3Q9.3 26.95 9.75 26.8L9.45 26.05Q9.35 25.75 9.55 25.45L11.65 25.2L11.7 25.25Q11.8 25 12.2 24.9Q11.15 23.85 12.2 23.05L12.95 22.5L14.7 20.85Q13.8 19.4 15.95 19.3Q16.55 19.25 16.45 18.65L16 17.45L16.1 17.5M11.15,17.95Q12.5 18.15 12.65 19.6L12.7 19.65L12.85 19.6L13.2 19.55Q12.45 20.65 12.1 19Q12 18.45 11.3 18.35Q10.9 19.55 10.2 19.6L9.95 19.4Q10 19.25 10.2 19.3L10.4 19.35L10.65 18.4L11.15 17.95M16.2,27.9L16.6 28.15L16.85 28.35Q15.25 28.8 15.45 27.05Q15.5 26.55 15.1 26.45Q14.95 26.25 15.25 26.1L15.35 26.05L16.2 27.9" />
</g>
</svg>
