<?xml version="1.0" encoding="utf-8"?>
<svg version="1.1" id="Layer_1"
xmlns="http://www.w3.org/2000/svg"
xmlns:xlink="http://www.w3.org/1999/xlink"
width="24px" height="14px"
xml:space="preserve">
<g id="906" transform="matrix(1, 0, 0, 1, -8.7, -60.95)">
<path style="fill:#000000;fill-opacity:1" d="M28.5,64.5L28.1 65.1L27.1 65.45L25.9 65.7Q25.75 65.75 25.7 65.6Q25.6 65.3 25.75 65.1L26.4 64.55L27.25 64.2L28.1 64.1L28.1 64.15L28.2 64.15L28.25 64.15L28.3 64.2L28.35 64.35L28.5 64.45L28.5 64.5M26.05,67.35L26.15 67.25L26.7 67.2L27.25 67.5Q27.85 67.85 28.35 68.35L28.95 69.15L29.25 69.85Q29.75 70.3 30.45 70.4L32 70.8L32.45 71.55L32.4 71.6L32.35 71.7L32.2 71.75L32.1 71.8L31.9 71.9L31.8 71.95L31.75 72.1L31.75 72.2L31.75 72.25L31.75 72.35L31.65 72.4Q30.95 72.75 30.25 72.4L28.85 71.95L27.55 71.6L27.55 71.5L27.5 71.3L27.5 71.15L27.5 71.05L27.45 70.9L27.4 70.75L27.35 70.7L27.35 70.6Q26.8 70.35 26.25 70.6L25.55 70.9L25.55 71L25.6 71.05L25.9 71.6L26.1 71.85L26.35 72.25L26.65 72.5L26.85 72.75L26.85 72.8L26.85 73L26.85 73.05L26.85 73.15L26.85 73.2L26.85 73.35L26.85 73.45L26.85 73.5L26.8 73.6L26.55 73.7L25.2 74.2L23.8 74.05Q23.6 73.7 23.55 73.35L23.5 72.7L23.55 72.3L23.4 71.8L23.2 71.55L23.1 71.5L20.5 71.55L20.3 71.85L20.2 72.2L19.3 73.15L18.1 73.95L16.65 74.25L16.35 73.9L16.05 73.2L15.75 73L15.15 72.55L15.1 72.3L15.15 72.15L15.55 71.85L15.95 71.6L16.2 71.35L16.3 71.3L16.1 71.15L15.25 70.6L15.05 70.45L14.9 70.35Q14.5 69.85 14.45 69.2L14.4 68.4L14.45 67.75L14.6 67.6L15.4 67.05L17.55 67L19.9 67.15L19.9 67L19.9 66.9L19.9 66.85L19.9 66.55L19.95 66.4L20 66.2L20.1 66.15L20.1 66L20.2 65.95L20.8 65.8L21.35 65.55Q21.55 65.35 21.8 65.3L22.3 65.25L22.5 65.35L22.6 65.65L22.6 65.8L22.6 66L22.6 66.35L22.55 66.6L22.5 66.8Q22.95 67.1 23.6 67.2L25.3 67.5L25.5 67.45L26.05 67.35M15.85,61L16.9 61.4L17.75 62L17.9 62.45L17.25 62.95L15.35 63L15.1 62.7Q14.85 62.35 14.9 62L15.2 61.3L15.8 60.95L15.85 61M9.05,68.55L9.7 67.85Q10 67.55 10.4 67.4L11.4 67.25L11.4 67.35L11.55 67.4L11.8 67.4L11.9 67.45L12 67.5L12.2 67.7L12.25 67.75L12.25 68.1L12.35 68.35L12.45 68.55L12.6 68.75L12.65 68.9L12.65 69Q12.55 69.45 11.95 69.55L9.25 69.45L8.7 69.1Q8.8 68.75 9.05 68.55" />
</g>
</svg>
