<?xml version="1.0" encoding="utf-8"?>
<svg version="1.1" id="Layer_1"
xmlns="http://www.w3.org/2000/svg"
xmlns:xlink="http://www.w3.org/1999/xlink"
width="56px" height="40px"
xml:space="preserve">
<g id="804" transform="matrix(1, 0, 0, 1, -1.25, -1.1)">
<path style="fill:#BD8051;fill-opacity:1" d="M55.05,37.2Q59 33.95 50.9 25.2L52.25 25.25Q59.4 32.8 55.8 37.65Q53.75 40.35 44.35 40.3L43.6 39.3Q51.05 40.4 55.05 37.2M35.45,4.45L37.65 7.1L37.75 9.05L34.5 4.85L34.2 4.45L33.75 3.95Q31.9 2.1 29.25 2.1Q26.6 2.1 24.7 3.95L24.6 4.1L24 4.85L21.2 8.05L21.35 6.3L23.25 4.15L24 3.25L24.2 3.05Q26.35 1.1 29.25 1.1Q32.3 1.1 34.45 3.25L35.45 4.45M3.2,37.2Q7.2 40.4 14.65 39.3L13.9 40.3Q4.5 40.35 2.45 37.65Q-1.15 32.8 6 25.25L7.35 25.2Q-0.75 33.95 3.2 37.2" />
</g>
</svg>
