<?xml version="1.0" encoding="utf-8"?>
<svg version="1.1" id="Layer_1"
xmlns="http://www.w3.org/2000/svg"
xmlns:xlink="http://www.w3.org/1999/xlink"
width="8px" height="15px"
xml:space="preserve">
<g id="1231" transform="matrix(1, 0, 0, 1, 11.95, 18.05)">
<path style="fill:#5D2C15;fill-opacity:1" d="M-5.95,-12.05L-6.05 -11.95Q-6.65 -11.4 -7.45 -11.25L-7.95 -11.2L-8.05 -11.2L-8.5 -11.2Q-9.3 -11.35 -9.95 -11.95L-10.1 -12.05Q-10.9 -12.85 -11 -13.9Q-10.9 -14.85 -10.1 -15.5Q-9.25 -16.2 -8.05 -16.2Q-6.85 -16.2 -5.95 -15.5Q-5.2 -14.85 -5.1 -13.9Q-5.2 -12.85 -5.95 -12.05M-10,-14.25L-10 -14.15Q-10 -13.5 -9.4 -13L-9.3 -12.9Q-8.9 -12.6 -8.35 -12.5L-7.65 -12.5Q-7.15 -12.6 -6.75 -12.9L-6.7 -13Q-6.1 -13.5 -6.1 -14.15L-6.1 -14.25Q-6.2 -14.9 -6.7 -15.3Q-7.25 -15.8 -8.05 -15.8Q-8.85 -15.8 -9.4 -15.3Q-9.95 -14.9 -10 -14.25" />
<path style="fill:#100806;fill-opacity:1" d="M-5.1,-13.9L-5.1 -14.15Q-5.1 -15.35 -5.95 -16.25Q-6.85 -17.1 -8.05 -17.1Q-9.25 -17.1 -10.1 -16.25Q-11 -15.35 -11 -14.15L-11 -13.9Q-10.9 -12.85 -10.1 -12.05L-9.95 -11.95Q-9.3 -11.35 -8.5 -11.2L-8.05 -11.2L-7.95 -11.2L-7.45 -11.25Q-6.65 -11.4 -6.05 -11.95L-5.95 -12.05Q-5.2 -12.85 -5.1 -13.9M-5.3,-16.9Q-4.15 -15.75 -4.15 -14.15Q-4.15 -12.55 -5.3 -11.4L-5.4 -11.25Q-7.7 -9.3 -10.6 -11.25L-10.8 -11.4Q-11.95 -12.55 -11.95 -14.15Q-11.95 -15.75 -10.8 -16.9Q-9.65 -18.05 -8.05 -18.05Q-6.45 -18.05 -5.3 -16.9M-10.65,-4.8L-5.25 -4.8L-5.25 -3.85L-10.65 -3.85L-10.65 -4.8M-10.65,-6.8L-5.25 -6.8L-5.25 -5.85L-10.65 -5.85L-10.65 -6.8M-10.65,-8.8L-5.25 -8.8L-5.25 -7.85L-10.65 -7.85L-10.65 -8.8" />
<path style="fill:#9F6329;fill-opacity:1" d="M-11,-14.15Q-11 -15.35 -10.1 -16.25Q-9.25 -17.1 -8.05 -17.1Q-6.85 -17.1 -5.95 -16.25Q-5.1 -15.35 -5.1 -14.15L-5.1 -13.9Q-5.2 -14.85 -5.95 -15.5Q-6.85 -16.2 -8.05 -16.2Q-9.25 -16.2 -10.1 -15.5Q-10.9 -14.85 -11 -13.9L-11 -14.15" />
<linearGradient
id="LinearGradID_442" gradientUnits="userSpaceOnUse" gradientTransform="matrix(0, -0.00360107, 0.00227356, -1.52588e-005, -7.9, -12.6)" spreadMethod ="pad" x1="-819.2" y1="0" x2="819.2" y2="0" >
<stop  offset="0" style="stop-color:#511A16;stop-opacity:1" />
<stop  offset="0.505882" style="stop-color:#6D4414;stop-opacity:1" />
<stop  offset="1" style="stop-color:#511A16;stop-opacity:1" />
</linearGradient>
<path style="fill:url(#LinearGradID_442) " d="M-9.4,-15.3Q-8.85 -15.8 -8.05 -15.8Q-7.25 -15.8 -6.7 -15.3Q-6.2 -14.9 -6.1 -14.25L-6.1 -14.15Q-6.1 -13.5 -6.7 -13L-6.75 -12.9Q-7.15 -12.6 -7.65 -12.5L-8.35 -12.5Q-8.9 -12.6 -9.3 -12.9L-9.4 -13Q-10 -13.5 -10 -14.15L-10 -14.25Q-9.95 -14.9 -9.4 -15.3" />
</g>
</svg>
