<?xml version="1.0" encoding="utf-8"?>
<svg version="1.1" id="Layer_1"
xmlns="http://www.w3.org/2000/svg"
xmlns:xlink="http://www.w3.org/1999/xlink"
width="33px" height="24px"
xml:space="preserve">
<g id="1058" transform="matrix(1, 0, 0, 1, 15.3, 17.75)">
<path style="fill:#FF7000;fill-opacity:1" d="M11.9,-12.45Q11.85 -12.85 12.2 -13.2L12.7 -13.7L13.1 -14L13.25 -13.95L13.3 -13.95L13.35 -13.85L13.35 -13.75L13.3 -13.65L13.25 -13.5L13.3 -13.45L13.3 -13.35Q13.2 -13.05 12.9 -12.85L12.1 -12.45L11.9 -12.45M4.05,-15.9L5.8 -15.05Q6.65 -14.55 7.75 -14.35L8.3 -14.25L8.75 -13.9L8.45 -13.5L8.1 -13.3L7.55 -13.1L7.45 -13.1L7.5 -13.3L7.6 -13.45L7.75 -13.55L7.9 -13.7L7.9 -13.75L7.85 -13.9L7.6 -14.05L7.5 -14.1Q6.35 -14.15 5.45 -14.75L4.2 -15.35L3.9 -15.55L3.8 -15.5L3.65 -15.45L3.55 -15.35L3.55 -15.3Q3.45 -15.35 3.5 -15.5L3.55 -15.65L3.75 -15.85L3.95 -15.9L4.05 -15.9M5.35,-11.95L5.45 -11.9L5.55 -11.85L5.6 -11.8L5.35 -11.25L4.95 -10.75Q4.8 -10.5 4.55 -10.5Q4.35 -10.75 4.55 -11.1L4.95 -11.6L5.3 -11.95L5.35 -11.95M7.4,-4.05L7.55 -3.9L7.55 -3.75L7.45 -3.6L7.25 -3.4L7.25 -3.25L7.3 -3.15L7.4 -3.05L7.45 -2.95Q7.1 -2.8 6.9 -3.15L6.85 -3.55L7.1 -3.9L6.85 -4.1L6.8 -4.3Q6.7 -4.45 6.9 -4.45L7.15 -4.25L7.4 -4.05M13.65,-9.3L14.15 -8.65L14.25 -7.8Q14.35 -7.4 14.75 -7.15L14.85 -6.95Q14.05 -6.8 13.8 -7.6L13.4 -8.6L13.1 -9.2L13.1 -9.5L12.8 -9.6L12.7 -9.75L12.7 -9.85L12.45 -9.85L12.05 -9.7L11.7 -9.8L11.75 -9.9L12.2 -10.1L12.7 -10.25L13.35 -10.1L13.7 -9.65L13.65 -9.3M14.6,-1.6L14.3 -1.7Q14.15 -1.8 14.15 -1.95L14.15 -2L14.2 -2.1L16.05 -2.25L16.6 -2.25L16.7 -2.2L16.9 -1.9Q16.95 -1.4 16.15 -1.4L15.25 -1.25L15.25 -1.2L15.2 -1.05L15.05 -0.8L14.8 -0.6L14.85 -0.5L15.35 0L15.25 0.3L15.05 0.5L14.9 0.65L14.95 0.9L15.1 1.5L14.95 1.7L14.55 1.95L14.15 2.1Q13.6 3.2 12.15 3.75Q9.15 4.85 5.95 4.9L5.95 4.95L6 4.95L5.95 5L5.95 5.05L5.9 5.15L5.7 5.25L4.1 5.55Q2.65 5.8 1.15 5.55L0.8 5.5L-1.35 5.25L-3.2 5.05L-3.85 5.05L-5.5 4.95L-5.6 4.85L-5.6 4.8Q-6.15 4.9 -6.45 4.6L-6.5 4.5L-8 4.3L-8.4 3.85L-8.3 3.6L-8.25 3.55Q-8.8 3.65 -9.1 3.25L-9.2 2.95L-9.35 2.9Q-10.25 3 -10.5 2.45L-10.6 2.3L-10.7 2.3L-10.8 2.3L-11 2.25L-11.1 2.2L-11.15 2.15L-11.15 2.1L-11.2 2.1L-11.2 2.05L-11.2 1.95L-11.2 1.9L-11.5 1.95L-12.05 1.85L-12.1 1.75L-12.15 1.6L-11.95 1.3L-11.65 1.15L-11.95 1.1Q-12.45 1.1 -12.55 0.75L-12.45 0.55L-12.4 0.45L-12.55 0.4L-12.6 0.35L-12.7 0.3L-12.75 0.25L-12.75 0.15L-12.85 0.1L-12.75 0L-12.65 -0.1L-12.65 -0.15L-12.7 -0.2L-12.85 -0.25L-12.9 -0.3L-12.9 -0.45L-13.65 -0.65Q-14.1 -0.7 -14.45 -0.9L-15 -1.1L-15.2 -1.2L-15.2 -1.45Q-14.9 -1.85 -14.25 -1.85L-13.55 -1.95L-13.3 -1.95L-13.2 -2.2L-12.65 -2.4L-12.3 -2.45L-12.25 -2.5L-12.15 -2.6L-12.05 -2.7L-11.35 -2.75L-11.2 -2.75L-11.1 -2.7L-11 -2.65L-10.9 -2.6L-10.9 -2.5L-11 -2.45L-11.15 -2.3Q-11.5 -1.8 -12.35 -1.95L-12.95 -1.95L-12.75 -1.85L-12.75 -1.8L-12.7 -1.75L-12.7 -1.7L-12.75 -1.6L-12.75 -1.55L-12.9 -1.5L-13.15 -1.45L-13.75 -1.3L-13.2 -1.1L-12.25 -0.75L-12.1 -0.55L-12.1 -0.45L-12.05 -0.45L-12.05 -0.4L-12 -0.35L-12 -0.25L-12 -0.1L-12 0L-11.85 0.1L-11.75 0.2L-11.7 0.45L-11.7 0.5L-11.25 0.6Q-10.75 0.6 -10.6 1L-10.6 1.2L-10.6 1.25L-10.5 1.3L-10.3 1.4L-10.2 1.6L-10.2 1.65L-10 1.65Q-9.8 1.7 -9.7 1.85L-9.8 2.15L-9.85 2.25L-9.2 2.45Q-8.75 2.45 -8.6 2.8L-8.5 2.9L-7.75 3.15Q-7.4 3.2 -7.5 3.45L-7.55 3.65Q-7.55 3.8 -7.25 3.8Q-6.45 3.75 -5.95 4.25L-5.55 4.25L-5.2 4.35L-5 4.55L-1.3 4.65L-1.15 4.15L-1.15 3.85L-0.95 3.45L-0.55 3.45L-0.55 3.55L-0.65 4L-0.7 4.35L-0.65 4.5L-0.5 4.7L0.15 4.75L0.8 4.9L1.65 5.05L3.2 5.2L2.8 4.9Q2.3 4.7 1.95 4.35L1.75 4.1L1.75 3.75Q2.5 3.8 2.95 4.3L3.55 4.8L5.25 4.85Q5.3 4.05 6.5 4.25L6.85 4.3Q8.8 4.35 10.5 3.6L11.15 3.4L11.5 3.1Q12.35 3 12.9 2.55L13.35 2.25L13.5 2.2Q13.4 1.95 13.6 1.8Q13.9 1.55 14.35 1.4L14.5 1.35L14.5 1.3L14.3 0.85L14.3 0.5L14.45 0.3L14.55 0.15L14.65 0.1L14.55 0Q14.25 -0.2 14.2 -0.5L14.25 -0.85L14.35 -1.05L14.55 -1.2L14.55 -1.25L14.5 -1.35L14.55 -1.5L14.55 -1.6L14.6 -1.6M16.65,-5.5Q16.7 -5.25 16.4 -5.05L15.8 -4.8L15.7 -4.75L15.55 -4.8L15.5 -4.85L15.45 -4.85L15.45 -5.15L15.4 -5.2L15.25 -5.25L15.25 -5.3L15.55 -5.55L16.05 -5.65L16.45 -5.65L16.65 -5.6L16.65 -5.5M-7.75,-12.4L-8.05 -12.3L-8.05 -12.2L-8 -12.15L-8 -12.05L-7.95 -12L-8 -11.95L-8.1 -11.85L-8.3 -11.75L-8.45 -11.5L-8.8 -11.15L-9.2 -11L-9.2 -10.65L-9.5 -10.25L-9.7 -9.95L-9.8 -9.9L-9.95 -10.2L-9.8 -10.45L-9.5 -10.7L-9.5 -10.75L-9.6 -10.8L-9.65 -10.85L-9.65 -11.05L-9.2 -11.4Q-8.8 -11.6 -8.7 -11.9L-8.45 -12.1L-8.4 -12.35L-8.1 -12.65L-7.75 -12.8Q-7.5 -12.8 -7.55 -12.6L-7.75 -12.4M-1.6,-17.3Q-1.7 -17.6 -1.4 -17.75L-0.95 -17.1Q-0.75 -16.7 -0.7 -16.3L-0.75 -15.8Q-1.35 -15.8 -1.4 -16.4L-1.6 -17.3M-11.5,-6.35L-11.45 -6.35L-11.45 -6.5L-11.45 -6.55L-11.4 -6.6L-11.25 -6.6L-11.1 -6.6L-11 -6.55L-10.85 -6.55L-10.7 -6.5L-10.7 -6.4L-10.7 -6.3L-10.7 -6.25L-10.9 -6.1L-11.2 -6L-11.25 -5.95L-11.25 -5.85L-11.25 -5.75L-11.35 -5.65L-11.45 -5.55L-11.4 -5.45L-11.35 -5.35L-11.35 -5.2L-11.45 -5.05L-11.45 -4.9L-11.45 -4.8L-11.65 -4.65L-11.7 -4.55L-11.25 -4.45L-10.6 -4.2L-10.6 -4.05L-11.65 -3.95L-12.05 -3.85L-12.35 -3.9L-12.45 -4.15L-12.35 -4.55L-12.15 -4.75L-11.95 -4.9L-12 -5L-12 -5.15L-11.95 -5.15L-11.95 -5.2L-12.05 -5.4L-12.05 -5.55L-11.8 -5.8L-11.75 -5.85L-11.8 -5.9L-11.8 -6.05L-11.8 -6.15L-11.75 -6.2L-11.5 -6.35M-5.35,-5.3L-5 -5.4L-4.75 -5.4L-4.5 -5.35L-4.35 -5.2L-4.35 -5.15L-4.45 -5.05L-5.05 -4.9L-5.1 -4.75L-5.4 -4.4L-5.7 -4.25L-5.85 -4.2L-5.5 -4.05L-5.35 -3.65L-5.35 -3.4L-5.35 -3.1L-5.4 -3.05L-5.5 -3.05L-5.55 -3L-5.6 -3L-5.7 -3.05L-5.75 -3.05L-5.85 -3.15L-5.85 -3.2L-5.85 -3.4L-5.85 -3.55L-5.85 -3.65L-6 -3.8L-6.45 -4L-6.6 -4.2L-6.6 -4.3L-6.25 -4.55L-5.85 -4.7L-5.75 -4.75L-5.75 -5L-5.7 -5.15L-5.35 -5.3" />
</g>
</svg>
