<?xml version="1.0" encoding="utf-8"?>
<svg version="1.1" id="Layer_1"
xmlns="http://www.w3.org/2000/svg"
xmlns:xlink="http://www.w3.org/1999/xlink"
width="82px" height="64px"
xml:space="preserve">
<g id="995" transform="matrix(1, 0, 0, 1, 0, -6.4)">
<path style="fill:#000000;fill-opacity:1" d="M66.7,37.6L66.7 42.35L67.9 42.35L67.9 37.75L68 36.65L71.8 38.8Q71.55 39.6 71.55 40.65L71.55 45.4L72.75 45.4L72.75 40.8Q72.75 40.05 72.9 39.45L77.45 53.15L77.35 53.15L77.45 53.4L77.95 54.7L77.95 54.75L80.85 59.7L35.5 58.7L30.55 56.35L29.7 55.25L34.7 51.6L28.7 54.75L28.7 56.95L34.5 59.7L80.85 59.7L81.9 61.5L70.4 61.5L69.45 66.25L68.95 66.95L69.15 68.2L68.4 68.2L68.15 68.65L66.7 68.65L66.7 69.05Q58.55 70.2 50.4 69.05L50.4 68.65L49.05 68.65L48.8 68.2L48.15 68.2L48.25 66.95L47.75 66.25L46.7 61.5L33.5 61.5L26.7 57.8L26.7 54L32.45 50.2Q30.65 39.4 0 23.4L41.8 23.4L37.9 6.9L40.4 6.4L44.4 23.4L51.3 23.4L52.4 24.7L56 23.25L59.55 15.85L62.35 14.6L58 24.4L53.85 26.4L55.45 28.35L60.5 25.45L65.6 13.55L68.55 12.3L62.9 26.8L58.8 29.15L59.1 31.5L66.9 36L66.7 37.6M56.4,29.6L50.1 29.6Q45.25 29.6 45.25 34.45L45.25 39.2L46.45 39.2L46.45 34.6Q46.45 30.7 50.35 30.7L56.4 30.7L56.4 29.6M50.95,25.25L44.7 25.25Q39.85 25.25 39.85 30.1L39.85 39.25L41.05 39.25L41.05 30.25Q41.05 26.35 44.9 26.35L50.95 26.35L50.95 25.25M58,34.5L58 49.05L41.7 49.05L37.2 35.55L37 35.4L28.3 25.4L28.15 25.25L27.9 25.3L27.75 25.55L27.85 25.8L36.4 35.55L28.05 39.9L27.9 40.1L28 40.3L28.15 40.5L28.4 40.5L36.7 36.15L41.05 49.1L35 50.4Q34.85 50.4 34.85 50.55L34.75 50.8L34.9 51.05L35.15 51.05L41.55 49.7L75.25 49.7L75.5 49.6L75.55 49.35L75.5 49.1L75.25 49.05L58.65 49.05L58.65 34.5L58.55 34.25L58.3 34.2L58.05 34.25L58 34.5M42.5,47.8L42.65 48.3L43.15 48.45L43.65 48.3L43.9 47.8L43.65 47.35L43.15 47.2L42.65 47.35Q42.5 47.5 42.5 47.8M44.85,48.3L45.35 48.45L45.8 48.3L46.05 47.8L45.8 47.35Q45.65 47.2 45.35 47.2L44.85 47.35Q44.7 47.5 44.7 47.8L44.85 48.3M47.1,47.8L47.25 48.3L47.75 48.45L48.25 48.3L48.45 47.8Q48.45 47.5 48.25 47.35L47.75 47.2Q47.5 47.2 47.25 47.35Q47.1 47.5 47.1 47.8M49.45,48.3L49.95 48.45L50.4 48.3L50.65 47.8L50.4 47.35L49.95 47.2L49.45 47.35Q49.3 47.5 49.3 47.8Q49.3 48.05 49.45 48.3M52.35,47.2L51.85 47.35Q51.7 47.5 51.7 47.8L51.85 48.3L52.35 48.45L52.85 48.3L53.05 47.8Q53.05 47.5 52.85 47.35L52.35 47.2M54.05,48.3L54.5 48.45L55 48.3L55.25 47.8L55 47.35Q54.85 47.2 54.5 47.2L54.05 47.35Q53.9 47.5 53.9 47.8L54.05 48.3M55.8,47.8L55.95 48.3L56.45 48.45L56.95 48.3L57.2 47.8L56.95 47.35Q56.8 47.2 56.45 47.2Q56.2 47.2 55.95 47.35Q55.8 47.5 55.8 47.8M59.7,47.35L59.5 47.8L59.7 48.3L60.15 48.45L60.65 48.3L60.9 47.8L60.65 47.35L60.15 47.2Q59.95 47.2 59.7 47.35M61.7,47.8L61.85 48.3L62.35 48.45L62.85 48.3L63.05 47.8L62.85 47.35Q62.65 47.2 62.35 47.2L61.85 47.35Q61.7 47.5 61.7 47.8M64.75,47.2Q64.5 47.2 64.3 47.35L64.1 47.8L64.3 48.3L64.75 48.45L65.25 48.3L65.5 47.8L65.25 47.35L64.75 47.2M67.45,47.35L66.95 47.2Q66.7 47.2 66.45 47.35Q66.3 47.5 66.3 47.8L66.45 48.3L66.95 48.45L67.45 48.3L67.65 47.8L67.45 47.35M68.9,48.3L69.35 48.45L69.85 48.3L70.1 47.8L69.85 47.35Q69.7 47.2 69.35 47.2L68.9 47.35L68.7 47.8L68.9 48.3M72.85,47.8L73 48.3L73.5 48.45L73.95 48.3L74.2 47.8L73.95 47.35L73.5 47.2L73 47.35Q72.85 47.5 72.85 47.8M71.05,47.35Q70.9 47.5 70.9 47.8L71.05 48.3L71.55 48.45L72 48.3L72.25 47.8L72 47.35L71.55 47.2L71.05 47.35M3.55,24.35Q15.75 30.9 25.55 38.95Q18.4 32.8 20.5 31.35Q16.2 32.5 7.1 25.15L19.85 24.35L3.55 24.35M19.35,26.45L19.85 26.3L20.1 25.8L19.85 25.3Q19.7 25.15 19.35 25.15L18.85 25.3Q18.7 25.5 18.7 25.8L18.85 26.3L19.35 26.45M16.85,25.3Q16.7 25.15 16.35 25.15Q16.15 25.15 15.9 25.3Q15.75 25.5 15.75 25.8Q15.75 26.05 15.9 26.3L16.35 26.45L16.85 26.3L17.1 25.8L16.85 25.3M13.05,26.3L13.55 26.45L14.05 26.3L14.3 25.8L14.05 25.3L13.55 25.15L13.05 25.3Q12.9 25.5 12.9 25.8L13.05 26.3M10.65,26.45L11.15 26.3L11.35 25.8L11.15 25.3L10.65 25.15L10.15 25.3Q10 25.5 10 25.8L10.15 26.3L10.65 26.45M33,33.3L32.5 33.45Q32.35 33.65 32.35 33.95L32.5 34.45L33 34.6L33.45 34.45L33.7 33.95L33.45 33.45L33 33.3M31.8,31.55L31.3 31.35L30.8 31.55Q30.65 31.7 30.65 32L30.8 32.5L31.3 32.65L31.8 32.5L32 32L31.8 31.55M32.4,35.9L32.6 36.35Q32.85 36.55 33.05 36.55Q33.4 36.55 33.55 36.35L33.8 35.9L33.55 35.4Q33.4 35.25 33.05 35.25L32.6 35.4L32.4 35.9M30.65,36.6Q30.4 36.6 30.15 36.75Q30 36.95 30 37.25L30.15 37.75L30.65 37.9L31.15 37.75L31.35 37.25L31.15 36.75L30.65 36.6M28,27.25Q27.85 27.1 27.5 27.1Q27.25 27.1 27 27.25Q26.85 27.4 26.85 27.75L27 28.2Q27.25 28.4 27.5 28.4L28 28.2L28.25 27.75L28 27.25M25.35,25.3L25.15 25.8L25.35 26.3L25.8 26.45L26.3 26.3L26.55 25.8L26.3 25.3L25.8 25.15Q25.55 25.15 25.35 25.3M30,29.6L29.75 29.1Q29.6 28.95 29.3 28.95Q29.05 28.95 28.8 29.1Q28.65 29.25 28.65 29.6L28.8 30.1L29.3 30.25L29.75 30.1L30 29.6M23,26.3L23.25 25.8L23 25.3L22.5 25.15L22 25.3Q21.85 25.5 21.85 25.8L22 26.3L22.5 26.45L23 26.3M28.7,38.55L28.45 38.05L28 37.9L27.5 38.05Q27.35 38.2 27.35 38.55L27.5 39.05L28 39.2L28.45 39.05L28.7 38.55M36.6,39.05L36.85 38.55L36.6 38.05L36.15 37.9L35.65 38.05Q35.5 38.2 35.5 38.55L35.65 39.05L36.15 39.2L36.6 39.05M37.75,40.7L37.5 40.25L37 40.1Q36.8 40.1 36.55 40.25Q36.4 40.4 36.4 40.7L36.55 41.2L37 41.35L37.5 41.2L37.75 40.7M37.1,42.8L37.25 43.3L37.75 43.45L38.25 43.3L38.45 42.8Q38.45 42.5 38.25 42.35L37.75 42.15L37.25 42.35Q37.1 42.5 37.1 42.8M34.85,48.85Q34.7 48.7 34.35 48.7Q34.1 48.7 33.9 48.85L33.7 49.35L33.9 49.85L34.35 50L34.85 49.85L35.1 49.35L34.85 48.85M38.05,44.6Q37.9 44.75 37.9 45.1L38.05 45.55L38.55 45.7L39.05 45.55L39.3 45.1L39.05 44.6Q38.9 44.45 38.55 44.45L38.05 44.6M37,49.2L37.5 49.05L37.75 48.55L37.5 48.05L37 47.9Q36.8 47.9 36.55 48.05Q36.4 48.2 36.4 48.55L36.55 49.05L37 49.2M39.6,46.95L39.1 46.75Q38.9 46.75 38.65 46.95L38.45 47.4L38.65 47.9L39.1 48.05L39.6 47.9L39.85 47.4L39.6 46.95M67.5,61.05L67 60.9Q66.8 60.9 66.55 61.05L66.4 61.55Q66.4 61.85 66.55 62Q66.8 62.2 67 62.2L67.5 62L67.75 61.55L67.5 61.05M63.25,61.05L63.05 61.55L63.25 62L63.7 62.2L64.2 62L64.45 61.55L64.2 61.05L63.7 60.9Q63.5 60.9 63.25 61.05M66.95,63.55L50.15 63.55L50.15 63.95Q50.15 68.25 55 68.25L62.1 68.25Q66.95 68.25 66.95 63.95L66.95 63.55M53.15,61.05L52.65 60.9Q52.45 60.9 52.2 61.05L52 61.55L52.2 62L52.65 62.2Q53 62.2 53.15 62L53.4 61.55L53.15 61.05M59.3,61.05L59.1 61.55L59.3 62Q59.5 62.2 59.75 62.2Q60.1 62.2 60.25 62L60.5 61.55L60.25 61.05L59.75 60.9L59.3 61.05M56.45,60.9Q56.2 60.9 55.95 61.05L55.8 61.55Q55.8 61.85 55.95 62L56.45 62.2Q56.8 62.2 56.95 62L57.2 61.55L56.95 61.05Q56.8 60.9 56.45 60.9M48.7,61.55L48.9 62Q49.1 62.2 49.35 62.2Q49.7 62.2 49.85 62L50.1 61.55L49.85 61.05Q49.7 60.9 49.35 60.9Q49.1 60.9 48.9 61.05L48.7 61.55" />
<path style="fill:#714D30;fill-opacity:1" d="M80.85,59.7L34.5 59.7L28.7 56.95L28.7 54.75L34.7 51.6L29.7 55.25L30.55 56.35L35.5 58.7L80.85 59.7M72.9,39.45Q72.75 40.05 72.75 40.8L72.75 45.4L71.55 45.4L71.55 40.65Q71.55 39.6 71.8 38.8L72.9 39.45M68,36.65L67.9 37.75L67.9 42.35L66.7 42.35L66.7 37.6L66.9 36L68 36.65M56.4,30.7L50.35 30.7Q46.45 30.7 46.45 34.6L46.45 39.2L45.25 39.2L45.25 34.45Q45.25 29.6 50.1 29.6L56.4 29.6L56.4 30.7M50.95,26.35L44.9 26.35Q41.05 26.35 41.05 30.25L41.05 39.25L39.85 39.25L39.85 30.1Q39.85 25.25 44.7 25.25L50.95 25.25L50.95 26.35M19.85,24.35L7.1 25.15Q16.2 32.5 20.5 31.35Q18.4 32.8 25.55 38.95Q15.75 30.9 3.55 24.35L19.85 24.35" />
<path style="fill:#8A5D3B;fill-opacity:1" d="M58.05,34.25L58.3 34.2L58.55 34.25L58.65 34.5L58.65 49.05L75.25 49.05L75.5 49.1L75.55 49.35L75.5 49.6L75.25 49.7L41.55 49.7L35.15 51.05L34.9 51.05L34.75 50.8L34.85 50.55Q34.85 50.4 35 50.4L41.05 49.1L36.7 36.15L28.4 40.5L28.15 40.5L28 40.3L27.9 40.1L28.05 39.9L36.4 35.55L27.85 25.8L27.75 25.55L27.9 25.3L28.15 25.25L28.3 25.4L37 35.4L37.2 35.55L41.7 49.05L58 49.05L58 34.5L58.05 34.25" />
<path style="fill:#855A39;fill-opacity:1" d="M42.65,47.35L43.15 47.2L43.65 47.35L43.9 47.8L43.65 48.3L43.15 48.45L42.65 48.3L42.5 47.8Q42.5 47.5 42.65 47.35M44.7,47.8Q44.7 47.5 44.85 47.35L45.35 47.2Q45.65 47.2 45.8 47.35L46.05 47.8L45.8 48.3L45.35 48.45L44.85 48.3L44.7 47.8M47.25,47.35Q47.5 47.2 47.75 47.2L48.25 47.35Q48.45 47.5 48.45 47.8L48.25 48.3L47.75 48.45L47.25 48.3L47.1 47.8Q47.1 47.5 47.25 47.35M49.3,47.8Q49.3 47.5 49.45 47.35L49.95 47.2L50.4 47.35L50.65 47.8L50.4 48.3L49.95 48.45L49.45 48.3Q49.3 48.05 49.3 47.8M52.85,47.35Q53.05 47.5 53.05 47.8L52.85 48.3L52.35 48.45L51.85 48.3L51.7 47.8Q51.7 47.5 51.85 47.35L52.35 47.2L52.85 47.35M53.9,47.8Q53.9 47.5 54.05 47.35L54.5 47.2Q54.85 47.2 55 47.35L55.25 47.8L55 48.3L54.5 48.45L54.05 48.3L53.9 47.8M55.95,47.35Q56.2 47.2 56.45 47.2Q56.8 47.2 56.95 47.35L57.2 47.8L56.95 48.3L56.45 48.45L55.95 48.3L55.8 47.8Q55.8 47.5 55.95 47.35M60.15,47.2L60.65 47.35L60.9 47.8L60.65 48.3L60.15 48.45L59.7 48.3L59.5 47.8L59.7 47.35Q59.95 47.2 60.15 47.2M61.85,47.35L62.35 47.2Q62.65 47.2 62.85 47.35L63.05 47.8L62.85 48.3L62.35 48.45L61.85 48.3L61.7 47.8Q61.7 47.5 61.85 47.35M65.25,47.35L65.5 47.8L65.25 48.3L64.75 48.45L64.3 48.3L64.1 47.8L64.3 47.35Q64.5 47.2 64.75 47.2L65.25 47.35M67.65,47.8L67.45 48.3L66.95 48.45L66.45 48.3L66.3 47.8Q66.3 47.5 66.45 47.35Q66.7 47.2 66.95 47.2L67.45 47.35L67.65 47.8M68.7,47.8L68.9 47.35L69.35 47.2Q69.7 47.2 69.85 47.35L70.1 47.8L69.85 48.3L69.35 48.45L68.9 48.3L68.7 47.8M73,47.35L73.5 47.2L73.95 47.35L74.2 47.8L73.95 48.3L73.5 48.45L73 48.3L72.85 47.8Q72.85 47.5 73 47.35M71.55,47.2L72 47.35L72.25 47.8L72 48.3L71.55 48.45L71.05 48.3L70.9 47.8Q70.9 47.5 71.05 47.35L71.55 47.2M18.85,26.3L18.7 25.8Q18.7 25.5 18.85 25.3L19.35 25.15Q19.7 25.15 19.85 25.3L20.1 25.8L19.85 26.3L19.35 26.45L18.85 26.3M17.1,25.8L16.85 26.3L16.35 26.45L15.9 26.3Q15.75 26.05 15.75 25.8Q15.75 25.5 15.9 25.3Q16.15 25.15 16.35 25.15Q16.7 25.15 16.85 25.3L17.1 25.8M12.9,25.8Q12.9 25.5 13.05 25.3L13.55 25.15L14.05 25.3L14.3 25.8L14.05 26.3L13.55 26.45L13.05 26.3L12.9 25.8M10.15,26.3L10 25.8Q10 25.5 10.15 25.3L10.65 25.15L11.15 25.3L11.35 25.8L11.15 26.3L10.65 26.45L10.15 26.3M33.45,33.45L33.7 33.95L33.45 34.45L33 34.6L32.5 34.45L32.35 33.95Q32.35 33.65 32.5 33.45L33 33.3L33.45 33.45M32,32L31.8 32.5L31.3 32.65L30.8 32.5L30.65 32Q30.65 31.7 30.8 31.55L31.3 31.35L31.8 31.55L32 32M32.6,35.4L33.05 35.25Q33.4 35.25 33.55 35.4L33.8 35.9L33.55 36.35Q33.4 36.55 33.05 36.55Q32.85 36.55 32.6 36.35L32.4 35.9L32.6 35.4M31.15,36.75L31.35 37.25L31.15 37.75L30.65 37.9L30.15 37.75L30 37.25Q30 36.95 30.15 36.75Q30.4 36.6 30.65 36.6L31.15 36.75M28.25,27.75L28 28.2L27.5 28.4Q27.25 28.4 27 28.2L26.85 27.75Q26.85 27.4 27 27.25Q27.25 27.1 27.5 27.1Q27.85 27.1 28 27.25L28.25 27.75M25.8,25.15L26.3 25.3L26.55 25.8L26.3 26.3L25.8 26.45L25.35 26.3L25.15 25.8L25.35 25.3Q25.55 25.15 25.8 25.15M29.75,30.1L29.3 30.25L28.8 30.1L28.65 29.6Q28.65 29.25 28.8 29.1Q29.05 28.95 29.3 28.95Q29.6 28.95 29.75 29.1L30 29.6L29.75 30.1M22.5,26.45L22 26.3L21.85 25.8Q21.85 25.5 22 25.3L22.5 25.15L23 25.3L23.25 25.8L23 26.3L22.5 26.45M28.45,39.05L28 39.2L27.5 39.05L27.35 38.55Q27.35 38.2 27.5 38.05L28 37.9L28.45 38.05L28.7 38.55L28.45 39.05M36.15,39.2L35.65 39.05L35.5 38.55Q35.5 38.2 35.65 38.05L36.15 37.9L36.6 38.05L36.85 38.55L36.6 39.05L36.15 39.2M37.5,41.2L37 41.35L36.55 41.2L36.4 40.7Q36.4 40.4 36.55 40.25Q36.8 40.1 37 40.1L37.5 40.25L37.75 40.7L37.5 41.2M37.25,42.35L37.75 42.15L38.25 42.35Q38.45 42.5 38.45 42.8L38.25 43.3L37.75 43.45L37.25 43.3L37.1 42.8Q37.1 42.5 37.25 42.35M35.1,49.35L34.85 49.85L34.35 50L33.9 49.85L33.7 49.35L33.9 48.85Q34.1 48.7 34.35 48.7Q34.7 48.7 34.85 48.85L35.1 49.35M38.55,44.45Q38.9 44.45 39.05 44.6L39.3 45.1L39.05 45.55L38.55 45.7L38.05 45.55L37.9 45.1Q37.9 44.75 38.05 44.6L38.55 44.45M36.55,49.05L36.4 48.55Q36.4 48.2 36.55 48.05Q36.8 47.9 37 47.9L37.5 48.05L37.75 48.55L37.5 49.05L37 49.2L36.55 49.05M39.85,47.4L39.6 47.9L39.1 48.05L38.65 47.9L38.45 47.4L38.65 46.95Q38.9 46.75 39.1 46.75L39.6 46.95L39.85 47.4M67.75,61.55L67.5 62L67 62.2Q66.8 62.2 66.55 62Q66.4 61.85 66.4 61.55L66.55 61.05Q66.8 60.9 67 60.9L67.5 61.05L67.75 61.55M63.7,60.9L64.2 61.05L64.45 61.55L64.2 62L63.7 62.2L63.25 62L63.05 61.55L63.25 61.05Q63.5 60.9 63.7 60.9M53.4,61.55L53.15 62Q53 62.2 52.65 62.2L52.2 62L52 61.55L52.2 61.05Q52.45 60.9 52.65 60.9L53.15 61.05L53.4 61.55M59.75,60.9L60.25 61.05L60.5 61.55L60.25 62Q60.1 62.2 59.75 62.2Q59.5 62.2 59.3 62L59.1 61.55L59.3 61.05L59.75 60.9M56.95,61.05L57.2 61.55L56.95 62Q56.8 62.2 56.45 62.2L55.95 62Q55.8 61.85 55.8 61.55L55.95 61.05Q56.2 60.9 56.45 60.9Q56.8 60.9 56.95 61.05M48.9,61.05Q49.1 60.9 49.35 60.9Q49.7 60.9 49.85 61.05L50.1 61.55L49.85 62Q49.7 62.2 49.35 62.2Q49.1 62.2 48.9 62L48.7 61.55L48.9 61.05" />
<path style="fill:#261A10;fill-opacity:1" d="M66.95,63.95Q66.95 68.25 62.1 68.25L55 68.25Q50.15 68.25 50.15 63.95L50.15 63.55L66.95 63.55L66.95 63.95" />
</g>
</svg>
