<?xml version="1.0" encoding="utf-8"?>
<svg version="1.1" id="Layer_1"
xmlns="http://www.w3.org/2000/svg"
xmlns:xlink="http://www.w3.org/1999/xlink"
width="17px" height="31px"
xml:space="preserve">
<g id="1563" transform="matrix(1, 0, 0, 1, -2.25, 21.95)">
<path style="fill:#D6D6D6;fill-opacity:0.498039" d="M5.7,-19.25Q5.45 -19.25 5.35 -19.35L5.35 -19.6Q5.8 -19.7 6.05 -19.35L5.7 -19.25M2.25,-21.35Q2.8 -21.9 3.55 -21.95Q4.35 -22 4.35 -21.15Q4.35 -20.05 3.1 -20.05L2.25 -20.15L2.25 -21.35M4.1,-15.2L3.8 -14.9L3.4 -14.9L3.3 -15.25Q3.3 -15.6 3.9 -15.8L4.1 -15.2M15.3,-11.3L15.6 -11.35L16.1 -10.95L15.45 -10.45L15.25 -10.9L15.3 -11.3M16.55,-7.95L16.2 -7.65L15.95 -7.65Q15.85 -7.65 15.85 -7.95L15.9 -8.3L16.45 -8.25L16.55 -7.95M14.7,-9.65L14.75 -9.05L14.5 -8.45L13.2 -8.05L12.9 -8.35L12.85 -8.8L12.95 -9.55L14.7 -9.65M18.05,2.65L17.6 2.95L17.35 2.95L17.25 2.6L17.3 2.3L17.85 2.35L18.05 2.65M15.55,5.8L15.45 6.05L15.2 6.15L14.8 6.1L14.7 5.9Q15.25 5.35 15.45 5.35L15.55 5.8M18,8.15Q17.05 8.15 16.85 7.45L16.85 6.85Q16.85 5.4 17.9 5.7Q18.95 5.95 18.95 7.05L18.9 7.75Q18.7 8.15 18 8.15M17.55,7.15L17.55 7.2L17.95 7.15L17.7 6.7L17.7 6.75L17.55 7.15" />
</g>
</svg>
