<?xml version="1.0" encoding="utf-8"?>
<svg version="1.1" id="Layer_1"
xmlns="http://www.w3.org/2000/svg"
xmlns:xlink="http://www.w3.org/1999/xlink"
width="18px" height="26px"
xml:space="preserve">
<g id="1133" transform="matrix(1, 0, 0, 1, 6, 14.65)">
<path style="fill:#2E1803;fill-opacity:1" d="M7.95,-7.5Q11.1 -4.35 11.1 0.1Q11.1 4.55 7.95 7.7Q5.9 9.75 3.3 10.5L0.95 3.7Q4.3 2.75 4 -0.7Q3.65 -4.2 0.55 -4.8L-4.35 -9.6L-6 -14.4L-5.15 -14.65L4.85 -9.7L5.4 -9.45L7.95 -7.5M1.4,-5.6Q3.7 -4.35 4.45 -2.7Q5.15 -1.05 4.7 0.95Q4.25 2.95 1.7 4.25L3.35 8.25L3.85 9.55Q5.85 8.8 7.45 7.15Q10.4 4.25 10.4 0.1Q10.4 -1.4 10.05 -2.7Q9.35 -5.1 7.45 -7L6.65 -7.75L-5.15 -13.7L-3.9 -10.2L1.4 -5.6" />
<path style="fill:#5D340E;fill-opacity:1" d="M9.25,-3.8L10.05 -2.7Q10.4 -1.4 10.4 0.1Q10.4 4.25 7.45 7.15Q5.85 8.8 3.85 9.55L3.35 8.25Q10.8 5.1 9.25 -3.8" />
<path style="fill:#9F6329;fill-opacity:1" d="M9.25,-3.8Q8.15 -5.2 6.45 -6.45L-3.5 -11.3L-3.9 -10.2L-5.15 -13.7L6.65 -7.75L7.45 -7Q9.35 -5.1 10.05 -2.7L9.25 -3.8" />
<linearGradient
id="LinearGradID_360" gradientUnits="userSpaceOnUse" gradientTransform="matrix(0.00767517, -0.0132599, 0.00656128, 0.0038147, 2.45, -4.4)" spreadMethod ="pad" x1="-819.2" y1="0" x2="819.2" y2="0" >
<stop  offset="0" style="stop-color:#511A16;stop-opacity:1" />
<stop  offset="0.505882" style="stop-color:#7B5814;stop-opacity:1" />
<stop  offset="1" style="stop-color:#511A16;stop-opacity:1" />
</linearGradient>
<path style="fill:url(#LinearGradID_360) " d="M3.35,8.25L1.7 4.25Q4.25 2.95 4.7 0.95Q5.15 -1.05 4.45 -2.7Q3.7 -4.35 1.4 -5.6L-3.9 -10.2L-3.5 -11.3L6.45 -6.45Q8.15 -5.2 9.25 -3.8Q10.8 5.1 3.35 8.25" />
<path style="fill:#2E1803;fill-opacity:1" d="M4.75,-1.75L4.1 -2.65L10.1 -3.05L10.25 -2L4.75 -1.75" />
<path style="fill:#9F6329;fill-opacity:1" d="M10.25,-2L5.4 -1L4.65 1.4L4.75 -1.75L10.25 -2" />
</g>
</svg>
