<?xml version="1.0" encoding="utf-8"?>
<svg version="1.1" id="Layer_1"
xmlns="http://www.w3.org/2000/svg"
xmlns:xlink="http://www.w3.org/1999/xlink"
width="102px" height="96px"
xml:space="preserve">
<g id="333" transform="matrix(1, 0, 0, 1, -12.8, 59.75)">
<path style="fill:#E2E2E2;fill-opacity:0.00784314" d="M77.75,-56.5L81.4 -57.35Q90.6 -56.25 94.85 -48.5Q96.5 -45.5 96.2 -42.05Q94.95 -28.7 80.6 -30.15Q69.2 -31.25 66.05 -41.8Q63.05 -52 73.95 -55.75L74.45 -55.75L74.4 -55.7L74.25 -55.55L73.8 -55.4Q73.4 -55.1 74.15 -55.35L77.75 -56.5M35.15,-40.75Q23.55 -36.05 15.4 -44.35Q13.35 -46.5 13.8 -49.35Q15.25 -59 26.4 -58.75Q37.55 -59.25 39.55 -49.2Q40.75 -43.05 35.15 -40.75M30.55,-12.35L30.35 -12.3Q32.2 -17.7 39.35 -16.8Q44.1 -16.7 47.05 -12.9Q49.9 -9.25 51.1 -4.8L51.25 -4.3L51.3 -1.25Q51.25 0.45 50.65 2Q49.2 4.3 45.5 5.25L43.25 5.1Q36.45 2 32.65 -4.2L31.4 -7.8Q30.7 -9.95 30.55 -12.35M95.3,-20.4L95.75 -20.6L99.1 -22.1Q100.65 -22.75 102.4 -23.05Q109.9 -23.2 112.15 -16Q116.8 -1.25 102.95 6.7Q98.35 9.35 93.85 6.85Q86.35 2.65 85.45 -5.55Q84.5 -14.9 92.8 -18.5Q95.75 -19.75 95.3 -20.4M72.4,12.05Q73.5 12.05 74.55 12.7Q84.2 18.55 79.95 28.85Q76.35 37.5 67.05 32.7Q60.65 29.4 61.15 22.7Q61.85 13.15 72.4 12.05" />
<path style="fill:#E2E2E2;fill-opacity:0.0862745" d="M74.15,-55.35Q73.4 -55.1 73.8 -55.4L74.25 -55.55L74.4 -55.7L74.45 -55.75L73.95 -55.75Q63.05 -52 66.05 -41.8Q69.2 -31.25 80.6 -30.15Q94.95 -28.7 96.2 -42.05Q96.5 -45.5 94.85 -48.5Q90.6 -56.25 81.4 -57.35L77.75 -56.5L74.15 -55.35M24,-59.45L27.75 -59.75Q41.05 -59 40.1 -46.15Q39.7 -40.05 33.5 -38.6Q19.9 -35.45 13.75 -46.35Q11.65 -50.05 14.25 -53.65Q17.65 -58.4 24 -59.45M39.55,-49.2Q37.55 -59.25 26.4 -58.75Q15.25 -59 13.8 -49.35Q13.35 -46.5 15.4 -44.35Q23.55 -36.05 35.15 -40.75Q40.75 -43.05 39.55 -49.2M30.05,-10.4Q29 -15.35 34.3 -16.75Q37.85 -17.7 41.4 -17.9Q49.75 -13.95 51.25 -6.05L51.4 -6.1L51.9 -0.75Q52.1 1.55 50.6 3.15Q48.75 6.65 43.1 5.7Q37.75 4.8 34.75 0.25L32.6 -3.5Q31.4 -4.85 30.95 -7.3L30.75 -7.9L30.95 -7.5Q30.55 -9.75 30.3 -12.05L30.3 -12.1L30.25 -11.95Q30 -11.2 30.05 -10.4M31.4,-7.8L32.65 -4.2Q36.45 2 43.25 5.1L45.5 5.25Q49.2 4.3 50.65 2Q51.25 0.45 51.3 -1.25L51.25 -4.3L51.1 -4.8Q49.9 -9.25 47.05 -12.9Q44.1 -16.7 39.35 -16.8Q32.2 -17.7 30.35 -12.3L30.55 -12.35Q30.7 -9.95 31.4 -7.8M65.4,-43.05Q63.65 -51.4 72 -55.15Q76.7 -57.3 81.65 -58.25Q97.35 -55.2 96.7 -39.85Q96.65 -38.3 96 -36.8Q91.85 -27.15 80.3 -29.05Q67.85 -31.05 65.4 -43.05M91.85,-19.6Q96.45 -22.9 102.35 -24.1Q115.65 -22.55 114.4 -9Q112.95 7.1 96.8 8.95Q92.8 9.4 90.2 6.55Q89.15 5.4 88.25 4.05Q80.95 -6.8 88.9 -16.8Q90.2 -18.4 91.85 -19.6M92.8,-18.5Q84.5 -14.9 85.45 -5.55Q86.35 2.65 93.85 6.85Q98.35 9.35 102.95 6.7Q116.8 -1.25 112.15 -16Q109.9 -23.2 102.4 -23.05Q100.65 -22.75 99.1 -22.1L95.75 -20.6L95.3 -20.4Q95.75 -19.75 92.8 -18.5M66.65,12.5Q68.4 11.65 70.15 11.3Q81.75 12.65 82.4 23.7Q83.05 33.9 73.35 35.2Q69.4 35.7 66.05 33.45Q55.45 26.25 62.55 15.9Q64.05 13.65 66.65 12.5M61.15,22.7Q60.65 29.4 67.05 32.7Q76.35 37.5 79.95 28.85Q84.2 18.55 74.55 12.7Q73.5 12.05 72.4 12.05Q61.85 13.15 61.15 22.7" />
</g>
</svg>
