<?xml version="1.0" encoding="utf-8"?>
<svg version="1.1" id="Layer_1"
xmlns="http://www.w3.org/2000/svg"
xmlns:xlink="http://www.w3.org/1999/xlink"
width="37px" height="35px"
xml:space="preserve">
<g id="1588" transform="matrix(1, 0, 0, 1, -4.8, -2)">
<path style="fill:#FF0100;fill-opacity:0.498039" d="M41.2,14.2L41.2 14.25Q39.8 14.9 40.65 16.55Q41.15 17.55 40 17.8Q39.8 17.85 39.85 18.15Q40.2 19.9 38.8 20.05Q39.9 19.25 39.75 17.7Q39.7 17.25 40.25 17.15Q40.85 17.1 40.5 16.5Q39.7 15.15 40.65 14.15L41.2 14.2M32.75,6.55L32.15 6.45Q31.05 7 30 7.35Q31 6.55 32.25 6.2Q33.95 6.45 33.15 8.2Q32.95 8.65 33.1 9.1L33.6 9.8Q34.6 10.55 34.8 11.85L36.3 11.85Q34.45 12.8 34 10.85Q33.75 9.95 32.95 9.35Q32.55 9.1 32.85 8.7Q33.6 7.55 32.75 6.55M23.2,2L22.7 2.9Q22.45 3.25 22.85 3.5Q24.25 4.3 22.75 5.45Q21.4 6.45 23.1 7.05Q23.95 7.35 23.7 8.05Q23.5 8.7 22.95 8.95L23.45 7.9L23.5 7.75Q22.05 7.25 21.95 6Q21.95 5.6 22.3 5.35L23.35 4.1Q21.5 3.05 23.2 2M22.4,21.7Q21.1 21.45 21.5 20.2L21.6 20.15Q21.55 21.2 22.4 21.7M24.25,22.05Q26.2 22.35 26.8 24.35L27.35 25.5Q28 26.45 29.2 26.75L30.1 26.9Q28 27.05 27 25.4L26.6 24.6Q25.95 22.7 24.25 22.05M32.75,17.9L31.5 18.65L31.5 18.7Q32.45 19.65 32.7 21L32.55 21.7Q32.45 20 31.35 18.55Q31.25 18.5 31.45 18.35Q32.05 18 32.75 17.9M39.25,23.7Q38.15 24.15 37.2 24.85Q37.05 24.95 37.05 25.2L37.35 27.8Q37.45 28.3 37.1 28.6Q37.45 27.2 36.85 25.8L36.75 25.2Q36.85 23.65 38.75 23.7L39 23.65L39.25 23.7M11.25,9.65L11.25 9.7Q10.35 8.6 10.35 7.15L10.25 6.4L10.35 6.25Q11.1 7.75 11.25 9.65M9.25,11.9L9.3 11.95L7.1 12.65L6.4 13.05Q6.4 12.65 6.75 12.4L8.05 11.85L9.25 11.9M4.9,23.95L4.9 24Q4.65 22.85 4.95 21.7L4.9 23.95M13.45,16.05Q13.2 15.25 13.75 14.6L13.45 16L13.45 16.05M14.35,19.4L15.5 19.45L15.55 19.5L13.9 19.9Q13.45 19.95 13.3 19.65L13.4 19.55L14.25 19.4L14.35 19.4M15.4,35.2L13.2 35.3Q13.5 35.5 13.1 35.45L12.95 35.3Q13.55 34.45 14.65 34.4L17.55 35.65L18.85 35.55L18.95 35.6Q17.2 36.7 15.4 35.2M6,29.4Q5.6 31.2 7.6 31.6Q8.05 31.7 8.1 32.15Q8.35 33.4 7.7 34.25Q8.35 32.55 7.1 31.65L6.4 31.2Q5.9 30.95 5.7 30.35Q5.55 29.75 6 29.4M31.65,26.9Q33.15 27.5 32.85 29.05L32.8 29.1Q32.65 27.75 31.55 26.95L31.65 26.9M31,33.05Q28.5 31.8 27.35 33.9Q27.05 34.5 27.4 35.05L27.9 36.25Q26.75 35.25 27.1 33.8Q27.45 32.55 28.8 32.3Q31.35 32.6 33.6 33.8L34.4 34L34.65 34.15Q32.95 34.4 31.5 33.35L31 33.05" />
</g>
</svg>
