<?xml version="1.0" encoding="utf-8"?>
<svg version="1.1" id="Layer_1"
xmlns="http://www.w3.org/2000/svg"
xmlns:xlink="http://www.w3.org/1999/xlink"
width="34px" height="10px"
xml:space="preserve">
<g id="410" transform="matrix(1, 0, 0, 1, -155.25, -205.8)">
<path style="fill:#3A1D0F;fill-opacity:0.85098" d="M157.45,206.95L157.45 207Q157.15 207.95 156.4 208.2Q156.3 207.35 157.1 206.75L157.2 206.7L157.45 206.95M188,213.6L187.95 213.65L187.6 212.5L187.65 212.45Q188.4 212.85 188 213.6" />
<path style="fill:#3A1D0F;fill-opacity:0.6" d="M156.15,208.65Q155.85 209 155.55 208.65Q154.95 207.75 155.65 206.8Q156.25 206.05 157.25 205.8Q159.1 206.35 157.6 207.35L157.05 207.8L156.8 208.05L156.15 208.65M187.5,213.7L187.05 211.75Q187 211.5 187.3 211.45Q189.6 212.5 188.25 214.7Q188.05 215.1 187.85 214.7L187.5 213.7" />
</g>
</svg>
