<?xml version="1.0" encoding="utf-8"?>
<svg version="1.1" id="Layer_1"
xmlns="http://www.w3.org/2000/svg"
xmlns:xlink="http://www.w3.org/1999/xlink"
width="18px" height="19px"
xml:space="preserve">
<g id="544" transform="matrix(1, 0, 0, 1, 4.65, 23.05)">
<path style="fill:#000000;fill-opacity:1" d="M1.5,-13.95L1.85 -14.15Q2.3 -14.4 2.6 -13.85L2.95 -13.3L3.1 -13.35L3.7 -13.15L3.95 -13L4 -13.05L3.15 -13.8L3.9 -15.2L6.85 -13.35L6.35 -12.15L6.85 -11.1L6.4 -10.5L7.25 -9.25L7.15 -9.15L7.8 -8.55L8.1 -8.55L9.75 -8.25L10.7 -8.05L10.7 -7.95L12.3 -7.45L12.5 -6.75Q12.5 -6.2 11.4 -5.3Q10.45 -4.55 9.8 -4.35L7.75 -4.3L7.75 -4.35Q6 -4.2 5.6 -5.2L5.55 -5.2L5.4 -5.15Q5.15 -5.15 4.75 -5.7L4.35 -6.25L4.2 -6.2L3.6 -6.05Q3 -6.05 1.95 -7.45L1.55 -7.4L1.35 -7.4L0.35 -8.65L0.35 -8.7L0.2 -8.65L-0.7 -8.85L-1.15 -9.1L-1.35 -9L-1.55 -9.05L-1.55 -10L-1.3 -12.35L-0.9 -12.35L0.4 -12.5L0.55 -12.05L0.6 -12.1L0.7 -11.75L0.55 -11.65L0.4 -10.6L0.5 -10.7L0.9 -10.9L0.8 -11.6L1.05 -11.85L0.3 -12.9L0.9 -13.55L1.5 -13.95" />
<path style="fill:#FFFFFF;fill-opacity:1" d="M0.35,-16.75L0.35 -16.85Q0.8 -16.6 1.45 -15.25L1.15 -14.6Q0.8 -14.2 0.05 -14.2Q-0.85 -14.2 -1.1 -14.85L-1.2 -15.05L-1.65 -15.9L-2.4 -17.7L-2.4 -17.95L-2.35 -17.95L-1.45 -16.3L-1.3 -16.05L-1.7 -17.1L-2.4 -18.65L-3 -20L-3 -20.05L-2.7 -19.65L-1.8 -18.5L-1.1 -17.2L-0.4 -16.3L-0.6 -17L-1.25 -18.55L-1.15 -18.7L0.05 -17.15L0.35 -16.7L0.35 -16.75M-0.1,-16.25L-0.05 -16.25L-0.1 -16.3L-0.1 -16.25" />
<path style="fill:#FFFAB1;fill-opacity:1" d="M0.35,-16.7L0.05 -17.15L-1.15 -18.7L-1.25 -18.55L-0.6 -17L-0.4 -16.3L-1.1 -17.2L-1.8 -18.5L-2.7 -19.65L-3 -20.05L-3 -20L-2.4 -18.65L-1.7 -17.1L-1.3 -16.05L-1.45 -16.3L-2.35 -17.95L-2.4 -17.95L-2.4 -17.7L-1.65 -15.9L-1.2 -15.05L-1.1 -14.85Q-0.85 -14.2 0.05 -14.2Q0.8 -14.2 1.15 -14.6L1.45 -15.25Q0.8 -16.6 0.35 -16.85L0.35 -16.75L0.35 -16.7M0.05,-13.55Q-0.95 -13.55 -1.5 -14.2L-2.15 -15.7L-3.15 -17.95L-3.7 -19.85L-3.8 -19.85L-3.9 -20.45L-3.95 -20.7L-4.1 -21.15L-4.55 -22.45L-4.5 -22.45L-4.65 -22.8L-4.65 -23.05Q-3.9 -22.85 -3.4 -21.7Q-2.8 -21.5 -2.4 -21L-1.7 -20.15L-0.1 -18.55L1.3 -16.85Q2.1 -15.85 2.1 -15.25Q1.5 -13.95 1.05 -13.8Q0.95 -13.7 0.85 -13.7L0.05 -13.55" />
</g>
</svg>
