<?xml version="1.0" encoding="utf-8"?>
<svg version="1.1" id="Layer_1"
xmlns="http://www.w3.org/2000/svg"
xmlns:xlink="http://www.w3.org/1999/xlink"
width="22px" height="14px"
xml:space="preserve">
<g id="983" transform="matrix(1, 0, 0, 1, 5.4, 11.35)">
<path style="fill:#000000;fill-opacity:0.85098" d="M9.7,-11.35L10 -11.3L10.2 -11.25L10.4 -11.15L10.5 -10.95L10.25 -10.5L9.5 -10L8.55 -9.8L7.65 -9.9L7.6 -9.85L7.45 -9.8L7.25 -9.8L7.2 -9.85Q7.15 -10.15 7.45 -10.25L8.35 -10.7L9.2 -11.1L9.7 -11.35M0.6,-0.4L0.9 -1.1L1.65 -1.75L2.7 -2.2L3 -2.3L3.7 -2.25L3.95 -2.2L4.05 -2.1L3.7 -1.55L3 -0.6Q2.6 -0.05 1.95 0.2Q1.2 0.45 0.7 -0.05L0.6 -0.2L0.6 -0.4M8.35,-5.35L8.45 -5.25L8.45 -5.2L8.5 -5.15L8.5 -5.1L8.45 -5L8.25 -4.55Q7.95 -3.85 7.15 -4.25L6.75 -4.55L6.75 -4.6L6.75 -4.7L6.85 -4.95L7.1 -5.25L7.4 -5.45L8 -5.45L8.25 -5.4L8.35 -5.35M7.15,-2.1L7.45 -2.05L7.55 -2.05L7.6 -2L7.65 -1.75L7.45 -1.25L7.15 -0.7L6.75 -0.25L6.65 -0.1L6.5 -0.1L5.65 0.15L5.4 0.5L5.25 0.6Q4.9 0.3 5.05 -0.2L5.2 -1.1L5.5 -1.55Q6.25 -2 7.05 -2.05L7.15 -2.1M16.25,-10.4L14.85 -10.4L14.75 -10.45L14.75 -10.5L14.7 -10.55L14.65 -10.65L14.6 -10.7L14.6 -10.75L14.65 -10.8L14.65 -10.85L14.7 -10.9L14.7 -10.95L14.75 -11.05L14.75 -11.15L14.85 -11.2L14.95 -11.25L15.05 -11.3L15.15 -11.3L15.2 -11.35L15.95 -11.3L16.4 -11.1L16.6 -10.65L16.55 -10.55L16.55 -10.5L16.25 -10.4M0.35,1.5L0.5 1.55L0.9 1.5L1.35 1.55L1.6 1.7L1.65 1.75L1.65 1.8L1.65 1.9L1.65 2L1.6 2.05L1.6 2.1L1.25 2.25L0.95 2.35L0.35 2.6Q-0.25 2.75 -0.5 2.2L-0.45 2.05L-0.4 1.9L-0.4 1.85L-0.35 1.8L-0.3 1.7L-0.2 1.55L-0.05 1.5L0 1.45L0.35 1.5M-3.45,-6.8L-2.45 -7.25L-1.75 -7.5L-1.5 -7.6L-1.35 -7.6L-1.25 -7.55L-1.2 -7.45L-1.2 -7.35L-1.2 -7.25L-2.4 -6.8L-3.6 -6.3L-4.9 -5.75Q-5.25 -5.65 -5.4 -5.9Q-5.1 -6.4 -4.35 -6.55L-3.45 -6.8" />
</g>
</svg>
