<?xml version="1.0" encoding="utf-8"?>
<svg version="1.1" id="Layer_1"
xmlns="http://www.w3.org/2000/svg"
xmlns:xlink="http://www.w3.org/1999/xlink"
width="10px" height="21px"
xml:space="preserve">
<g id="1592" transform="matrix(1, 0, 0, 1, 2.15, -1.3)">
<path style="fill:#2E201B;fill-opacity:1" d="M-1.8,4.75L-2.15 3.4Q1.6 1.65 5.65 1.35L7.75 1.3L7.4 2.55L5.25 2.55Q1.7 3.25 -1.8 4.75" />
<linearGradient
id="LinearGradID_742" gradientUnits="userSpaceOnUse" gradientTransform="matrix(0.00491333, 0.0118713, -0.0113983, 0.00471497, 2.9, 11.7)" spreadMethod ="pad" x1="-819.2" y1="0" x2="819.2" y2="0" >
<stop  offset="0" style="stop-color:#2E180E;stop-opacity:1" />
<stop  offset="1" style="stop-color:#5F4A42;stop-opacity:1" />
</linearGradient>
<path style="fill:url(#LinearGradID_742) " d="M-1.8,4.75Q1.7 3.25 5.25 2.55Q3.25 14.6 7.15 21.35L7.2 21.55L2.45 15.15Q-0.1 11.55 -1.8 4.75" />
<radialGradient
id="RadialGradID_743" gradientUnits="userSpaceOnUse" gradientTransform="matrix(0.0309296, 0, 0, 0.0309296, 29.3, 11.15)" spreadMethod ="pad" cx="0" cy="0" r="819.2" fx="0" fy="0" >
<stop  offset="0.921569"  style="stop-color:#B6B6B6;stop-opacity:1" />
<stop  offset="1"  style="stop-color:#665D5A;stop-opacity:1" />
</radialGradient>
<path style="fill:url(#RadialGradID_743) " d="M6.1,16.8Q6.3 18.85 7.15 21.35Q3.25 14.6 5.25 2.55L7.4 2.55Q5.4 10.05 6.1 16.8" />
<path style="fill:#000000;fill-opacity:1" d="M1.3,14.5L1.3 13.6L4.8 13.2L1.3 14.5M5.15,15.7L3.3 16.8L2.85 16.1L5.15 15.7M-0.55,10.9L3.25 10.7L-0.05 11.85L-0.55 10.9M-1.45,7.4L2.65 7.65L-1 8.45L-1.45 7.4" />
</g>
</svg>
