<?xml version="1.0" encoding="utf-8"?>
<svg version="1.1" id="Layer_1"
xmlns="http://www.w3.org/2000/svg"
xmlns:xlink="http://www.w3.org/1999/xlink"
width="61px" height="9px"
xml:space="preserve">
<g id="182" transform="matrix(1, 0, 0, 1, -86.35, -27.05)">
<path style="fill:#663300;fill-opacity:1" d="M87.6,33.05L87.6 35.05L145.6 35.05L146.65 35.05L146.65 36.05L86.65 36.05L86.65 32.05L146.65 32.05L146.65 33.05L145.6 33.05L87.6 33.05" />
<path style="fill:#2C3643;fill-opacity:1" d="M136.35,30.05L136.35 28.05L86.95 28.05L86.95 27.05L146.95 27.05L146.95 31.05L86.95 31.05L86.95 30.05L136.35 30.05" />
<path style="fill:#598EAD;fill-opacity:1" d="M86.95,28.05L136.35 28.05L136.35 30.05L86.95 30.05L86.35 30.05L86.35 28.05L86.95 28.05" />
<path style="fill:#FFCC00;fill-opacity:1" d="M145.6,33.05L145.6 35.05L87.6 35.05L87.6 33.05L145.6 33.05" />
</g>
</svg>
