<?xml version="1.0" encoding="utf-8"?>
<svg version="1.1" id="Layer_1"
xmlns="http://www.w3.org/2000/svg"
xmlns:xlink="http://www.w3.org/1999/xlink"
width="77px" height="55px"
xml:space="preserve">
<g id="327" transform="matrix(1, 0, 0, 1, -4.1, 33.85)">
<path style="fill:#E2E2E2;fill-opacity:0.694118" d="M27.35,-33.85Q35.15 -33.9 35.25 -26.4Q35.3 -23.5 32.4 -22.55Q27.95 -21.15 24.6 -23.45Q18.8 -20.45 16.95 -26.6Q16.2 -29.15 18.5 -30.7Q21.05 -32.35 24 -33.3L27.35 -33.85M27.5,-32.2Q25.95 -32.2 24.8 -31.25Q23.4 -30.15 22.1 -30.75L21.95 -30.9Q16.4 -29.95 18.85 -25.3Q19.45 -24.15 20.8 -24.05Q22.85 -23.9 24.8 -24.7L25.75 -24.6Q31.05 -22 33.6 -26.2Q34.25 -27.25 33.75 -28.55Q32.15 -32.7 27.5 -32.2M19.1,-2.8L20.2 -3.55L21.25 -3.75L22.6 -3.5Q23.3 -3.2 23.75 -2.5L23.9 -2.3Q29.15 -2.15 29.6 3L29.65 3.2Q31.35 4.8 29.65 6.85L28.45 8.2Q31.7 12.4 26.2 13.95Q22.6 14.95 18.85 14.6Q12.95 14.05 7.7 16.9L5.35 16.75L5.4 16.35Q6.2 15.5 7.25 14.9L7.85 14.45L7.6 14.5L5.45 14.9L5.15 14.8L5.15 14.65Q5.15 14.2 5.5 13.9L6.75 12.9L6.7 12.85Q4.75 13.6 4.1 12.5L12.8 6.3Q16.25 3.95 17.05 -0.25Q17.2 -1.1 17.9 -1.8L19.05 -2.7L19.1 -2.8M37.15,-23.8L37.95 -24Q47.05 -23.7 47.6 -15.45Q47.75 -12.8 45.35 -11.5Q41.35 -9.45 37 -11.2Q29.8 -14 33.45 -20.6Q34.65 -22.75 37.15 -23.8M36.95,-12.6Q43 -10.1 45.8 -14.6Q46.8 -16.1 45.9 -17.75Q43.45 -22.2 38.05 -22.35Q31.6 -20.25 34.7 -14.55Q35.45 -13.2 36.95 -12.6M20.6,-1.9L19.7 -1.9Q16.7 1 15.55 5.3Q15.25 6.25 14.35 6.9Q10.4 9.7 6.2 12.1L7.8 12.05L8.15 12.3Q8.1 12.8 7.65 13.1L6.4 14.05L6.35 14.1L7.8 13.65L9.35 13.55L9.45 13.8L9.45 14.05L9.4 14.25L9.35 14.35Q17.35 11.8 25.9 12.5Q27.4 12.6 27.9 11.2Q28.45 9.75 27.3 8.75Q25.75 9.6 23.25 9.65Q22.75 9.7 22.55 9.15Q25.3 8.1 27.6 6.05Q28.2 5.5 28.2 4.6L28.15 3.2L27.85 2.95Q26.1 1.5 24.75 -0.25L24.65 -0.3L24.6 1L24.35 1.85Q23.95 3.1 22.8 3.8Q22.3 4.1 21.9 3.65Q21.7 3.25 21.8 2.8L22 1.55L22 1.4L22 0.5Q21.95 0.2 22.05 -0.05L21.55 -0.05L21.25 -0.65L21.05 -1.35L20.85 -1.7L20.6 -1.9M38,-6.7Q39.65 -8.1 41.55 -8.85Q42.7 -8.9 43.6 -8.2Q44.6 -7.45 44.2 -6.25L44.2 -6.1Q48.95 -3.65 48.9 1.5Q48.85 3.55 47.2 5Q44.1 7.7 41 5.65L40.2 5.2Q36.6 3.1 32.8 1.9Q32.35 1.75 32.4 1.15Q32.55 -1.95 35.3 -4.35L38 -6.7M55.1,-22.15Q55.8 -23.65 57.25 -24.6Q60.55 -26.75 64.7 -26.1Q73.85 -23.25 71.15 -14.6Q70.75 -13.3 69.4 -12.65Q64.15 -10.2 58.75 -12.75Q52.25 -15.8 55.1 -22.15M56.2,-21.1L56.1 -20.25L56 -20.15Q57.1 -12.85 64.6 -14Q67.05 -14.4 69.3 -15.15L70.05 -15.85Q70.65 -16.4 70.5 -17.3Q69.4 -24.75 61.7 -24.5Q57.3 -23.8 56.2 -21.15L56.2 -21.1M43.35,-5.7Q42.85 -5.95 42.9 -6.65Q42.95 -7.6 42 -7.7Q39.15 -6.3 36.85 -4.15Q34.3 -1.8 33.75 1L33.75 1.35Q37 1.9 40.1 3.25Q41.5 3.85 42.05 5.15Q47.75 5.2 47.2 -0.2Q46.9 -3.8 43.35 -5.7M64.7,-8.25Q57.4 -7.15 57.8 -1.4Q59.5 1.75 63.45 1.55Q66 1.45 67.5 -0.5Q68.55 -1.9 70.05 -1.2L70.05 -1.15Q70.65 -2.9 69.65 -4.65Q68 -7.6 64.7 -8.25M71.4,-0.05Q71.05 2.7 68.6 3.95Q61 7.95 56.7 1.15Q55.95 -0.05 56.1 -1.6Q56.9 -8.4 64.05 -9.85Q72.5 -8.35 71.4 -0.05M72.05,8.2Q70.4 8.35 68.95 9.25Q67.6 10.1 66.9 11.55L66.75 11.8L66.9 12.05L67.15 12.55L67.3 13L67.2 13.6L66.9 13.9Q65.75 14 64.85 13.1Q62.85 11.1 60.3 11.85Q56.4 17.35 62.65 19Q64.05 18 65.6 16.95Q66.45 16.35 66.95 15.35Q67.15 15 67.55 15Q68.15 15.05 68.3 15.65L68.6 16.6L68.6 16.7Q70.45 17.8 72.4 18.55Q73.15 18.85 73.45 19.45Q76.45 19 78.5 15.95Q79.65 14.25 78.85 12.3Q77.15 7.85 72.05 8.2M66.4,9.4Q67.15 8.35 68.3 7.7Q70 6.75 71.9 6.55Q80.15 6.45 80.45 13.95Q80.7 19.8 74.7 20.45L66.55 20.2L65.8 20.3L64.5 20.65L63.4 20.75Q59.35 21 57.9 16.7Q56.9 13.75 59 11.35Q61.75 8.15 65.9 10.1L66.4 9.4" />
<path style="fill:#E2E2E2;fill-opacity:0.498039" d="M69.65,-4.65Q70.65 -2.9 70.05 -1.15L70.05 -1.2Q68.55 -1.9 67.5 -0.5Q66 1.45 63.45 1.55Q59.5 1.75 57.8 -1.4Q57.4 -7.15 64.7 -8.25Q68 -7.6 69.65 -4.65" />
<path style="fill:#E2E2E2;fill-opacity:0.4" d="M33.75,-28.55Q34.25 -27.25 33.6 -26.2Q31.05 -22 25.75 -24.6L24.8 -24.7Q22.85 -23.9 20.8 -24.05Q19.45 -24.15 18.85 -25.3Q16.4 -29.95 21.95 -30.9L22.1 -30.75Q23.4 -30.15 24.8 -31.25Q25.95 -32.2 27.5 -32.2Q32.15 -32.7 33.75 -28.55M34.7,-14.55Q31.6 -20.25 38.05 -22.35Q43.45 -22.2 45.9 -17.75Q46.8 -16.1 45.8 -14.6Q43 -10.1 36.95 -12.6Q35.45 -13.2 34.7 -14.55M20.85,-1.7L21.05 -1.35L21.25 -0.65L21.55 -0.05L22.05 -0.05Q21.95 0.2 22 0.5L22 1.4L22 1.55L21.8 2.8Q21.7 3.25 21.9 3.65Q22.3 4.1 22.8 3.8Q23.95 3.1 24.35 1.85L24.6 1L24.65 -0.3L24.75 -0.25Q26.1 1.5 27.85 2.95L28.15 3.2L28.2 4.6Q28.2 5.5 27.6 6.05Q25.3 8.1 22.55 9.15Q22.75 9.7 23.25 9.65Q25.75 9.6 27.3 8.75Q28.45 9.75 27.9 11.2Q27.4 12.6 25.9 12.5Q17.35 11.8 9.35 14.35L9.4 14.25L9.45 14.05L9.45 13.8L9.35 13.55L7.8 13.65L6.35 14.1L6.4 14.05L7.65 13.1Q8.1 12.8 8.15 12.3L7.8 12.05L6.2 12.1Q10.4 9.7 14.35 6.9Q15.25 6.25 15.55 5.3Q16.7 1 19.7 -1.9L20.6 -1.9L20.85 -1.7M56.2,-21.15Q57.3 -23.8 61.7 -24.5Q69.4 -24.75 70.5 -17.3Q70.65 -16.4 70.05 -15.85L69.3 -15.15Q67.05 -14.4 64.6 -14Q57.1 -12.85 56 -20.15L56.1 -20.25L56.2 -21.1L56.2 -21.15M47.2,-0.2Q47.75 5.2 42.05 5.15Q41.5 3.85 40.1 3.25Q37 1.9 33.75 1.35L33.75 1Q34.3 -1.8 36.85 -4.15Q39.15 -6.3 42 -7.7Q42.95 -7.6 42.9 -6.65Q42.85 -5.95 43.35 -5.7Q46.9 -3.8 47.2 -0.2M78.85,12.3Q79.65 14.25 78.5 15.95Q76.45 19 73.45 19.45Q73.15 18.85 72.4 18.55Q70.45 17.8 68.6 16.7L68.6 16.6L68.3 15.65Q68.15 15.05 67.55 15Q67.15 15 66.95 15.35Q66.45 16.35 65.6 16.95Q64.05 18 62.65 19Q56.4 17.35 60.3 11.85Q62.85 11.1 64.85 13.1Q65.75 14 66.9 13.9L67.2 13.6L67.3 13L67.15 12.55L66.9 12.05L66.75 11.8L66.9 11.55Q67.6 10.1 68.95 9.25Q70.4 8.35 72.05 8.2Q77.15 7.85 78.85 12.3" />
</g>
</svg>
