<?xml version="1.0" encoding="utf-8"?>
<svg version="1.1" id="Layer_1"
xmlns="http://www.w3.org/2000/svg"
xmlns:xlink="http://www.w3.org/1999/xlink"
width="6px" height="6px"
xml:space="preserve">
<g id="412" transform="matrix(1, 0, 0, 1, 0, 0)">
<path style="fill:#0B0B0B;fill-opacity:1" d="M2.6,0.75Q1.8 0.75 1.25 1.3Q0.75 1.85 0.75 2.6Q0.75 3.4 1.25 3.95Q1.8 4.45 2.6 4.45Q3.35 4.45 3.9 3.95Q4.45 3.4 4.45 2.6Q4.45 1.85 3.9 1.3Q3.35 0.75 2.6 0.75M4.45,0.75Q5.2 1.5 5.2 2.6Q5.2 3.7 4.45 4.45Q3.7 5.2 2.6 5.2Q1.5 5.2 0.75 4.45Q0 3.7 0 2.6Q0 1.5 0.75 0.75Q1.5 0 2.6 0Q3.7 0 4.45 0.75M3.7,1.5Q4.2 1.9 4.2 2.6Q4.2 3.25 3.7 3.7Q3.3 4.2 2.6 4.2Q1.95 4.2 1.5 3.7Q1 3.25 1 2.6Q1 1.9 1.5 1.5Q1.95 1 2.6 1Q3.3 1 3.7 1.5" />
<path style="fill:#BD8051;fill-opacity:1" d="M3.9,1.3Q4.45 1.85 4.45 2.6Q4.45 3.4 3.9 3.95Q3.35 4.45 2.6 4.45Q1.8 4.45 1.25 3.95Q0.75 3.4 0.75 2.6Q0.75 1.85 1.25 1.3Q1.8 0.75 2.6 0.75Q3.35 0.75 3.9 1.3M2.6,1Q1.95 1 1.5 1.5Q1 1.9 1 2.6Q1 3.25 1.5 3.7Q1.95 4.2 2.6 4.2Q3.3 4.2 3.7 3.7Q4.2 3.25 4.2 2.6Q4.2 1.9 3.7 1.5Q3.3 1 2.6 1" />
</g>
</svg>
