<?xml version="1.0" encoding="utf-8"?>
<svg version="1.1" id="Layer_1"
xmlns="http://www.w3.org/2000/svg"
xmlns:xlink="http://www.w3.org/1999/xlink"
width="12px" height="6px"
xml:space="preserve">
<g id="985" transform="matrix(1, 0, 0, 1, 1.75, 3.75)">
<path style="fill:#000000;fill-opacity:0.85098" d="M3.95,-3.3L4.35 -3.15L4.7 -2.95L4.7 -2.55Q4.5 -1.55 3.5 -1.4L2.9 -1.15Q2.1 -0.6 1.05 -0.75L0.95 -0.8L0.9 -0.85L0.65 -1.3Q0.5 -1.7 0.85 -1.95L2.25 -2.2L2.35 -2.3L2.45 -2.45L2.55 -2.65L2.75 -3L3.15 -3.3L3.2 -3.35L3.95 -3.3M8.85,-3.75L9.4 -3.75L9.5 -3.7L9.55 -3.65L9.65 -3.6L9.65 -3.55L9.7 -3.4L9.8 -3.3L9.85 -3.2L9.75 -2.75L8.95 -1.8Q8.4 -1.3 7.75 -1.35L7.1 -1.1L7 -1.05L6.95 -1L6.6 -1L6.4 -1.1L6.35 -1.15L6.3 -1.2L6.3 -1.3L6.3 -1.4L6.3 -1.45L6.15 -1.55L6.2 -2L6.8 -2.8L7.55 -3.35L8.45 -3.65L8.85 -3.75M0.3,0.8L0.45 0.95L0.45 1.1Q0.5 1.45 0.2 1.6L-0.75 1.9L-1.6 1.65L-1.7 1.5L-1.75 1.45L-1.7 1.2L-1.55 0.95L-1.4 0.65L-1 0.35L-0.35 0.4L0 0.5L0.3 0.8" />
</g>
</svg>
