<?xml version="1.0" encoding="utf-8"?>
<svg version="1.1" id="Layer_1"
xmlns="http://www.w3.org/2000/svg"
xmlns:xlink="http://www.w3.org/1999/xlink"
width="25px" height="25px"
xml:space="preserve">
<g id="559" transform="matrix(1, 0, 0, 1, 9.35, -1.1)">
<path style="fill:#000000;fill-opacity:1" d="M5.15,5.05Q6.3 5.6 5.75 7.25Q8.05 8.55 9.25 10.75L9.35 11.6L8.45 14.25L10.45 16.45L10.7 16.15Q10.9 15.9 11.15 15.8L11.45 16.8L11.35 17.6L12.9 19.8L13.55 20.9L14.8 21.35L15.6 21.9Q14.75 24.85 11.95 24.05Q10.05 23.5 10 21.8L6.65 18.7Q5.75 17.85 5.2 16.85L5.15 16.9Q4.8 18.65 6.2 19.6L8.85 21.05Q8.75 22.95 7.85 24.6L6.75 25.35Q5.5 25.6 4.45 24.85Q4.4 24.4 4.6 24.05L5 23.15L5 23.1L3.4 21.05L2.25 19.9Q1.05 20.05 0.25 19.5Q0.7 19.15 1.35 18.9L1.8 18.65L1.75 16.85L1.75 15.35L0.9 14.55L-0.45 13.3L-1.8 14.25L-4.1 16.05L-4.35 16.25L-4.2 16.45L-4 16.55Q-3.9 16.75 -3.95 16.95L-4 17.15L-4.1 17.35L-4.15 17.45L-5.4 17.4L-5.7 17.5L-5.85 17.75L-5.95 18.05L-5.95 18.25L-6 18.3L-7.05 18.45L-7.2 18.25Q-7.55 18.7 -8.05 18.9Q-8.55 19.15 -9.1 18.9L-9.35 18.65L-8.6 17.75Q-8.3 17.55 -8.15 17.15L-8.1 16.65L-4.95 14.05L-2.5 12.15L-1.8 11L-1.5 10.65L-1.4 9.9L-1.35 9.75L-1.85 9.6Q-3.7 8.95 -3.7 7.6L-4.45 7.55Q-4.9 7.5 -4.95 7Q-5.4 3.6 -2.45 2.35Q-0.35 2.5 0.5 3.7L1.4 3L2.35 2.4L2.75 2.8L2.95 3.35L2.95 3.4L1.4 4.8L1.3 4.9L2.85 4.8L2.95 4.8L3.1 4.6L3.95 3.5L4 3.45L3.85 2.75L3.7 1.7L3.7 1.3L3.8 1.25L4 1.15L4.15 1.1L4.45 1.1L4.55 1.15L5.3 3.25Q5.6 4.3 5.15 5.05" />
</g>
</svg>
