<?xml version="1.0" encoding="utf-8"?>
<svg version="1.1" id="Layer_1"
xmlns="http://www.w3.org/2000/svg"
xmlns:xlink="http://www.w3.org/1999/xlink"
width="116px" height="55px"
xml:space="preserve">
<g id="370" transform="matrix(1, 0, 0, 1, 4.35, 15.4)">
<path style="fill:#3A1D0F;fill-opacity:0.85098" d="M4,-15.15L4.1 -15.4L13.1 -4Q18.85 3.2 21.45 8.05L21.4 8.45Q21.3 8.65 20.7 8.65Q20.25 8.65 19.5 8.1L18.7 7.35L17.75 7.35L17.95 7.5L18.1 8.15Q18.1 9.2 14.15 14.05Q12.95 12.95 12.85 10.7L12.85 6.8Q12.75 5.6 11.85 3.25L10.4 -0.45Q7.4 -9.3 4 -15.15M49.5,-10.1Q54.2 -11.1 61.8 -10.4Q61.8 -10.3 61.95 -10.35L62.05 -9.8Q62.05 -9.25 60.7 -8.5L60.6 -8.45Q62.15 -8.85 63.1 -7.7Q63.6 -7.05 63.75 -6.25Q63.75 -4.7 60.2 -4.7L54.8 -5.35L46.9 -6.45Q45.6 -6.7 45.6 -7.95Q45.6 -9.25 49.5 -10.1M102.95,19.25L102.75 18.7Q102.75 16.85 106.45 17.05Q110.15 17.2 111 19.25L110.05 19.8L108.65 20.05L103.65 19.95L102.95 19.25M71.5,3.25L71.4 2.65Q75.45 0.9 79.4 1.7Q83 2.4 83 3.95Q83 5.35 80.45 5.35L76.2 4.65Q72.5 3.85 71.5 3.25M43.05,16.65L42.15 17.65Q40.8 18.35 36.75 18.35L34.6 18.25L32.95 18L27.8 18.2L27.7 18.1Q27.55 18.05 27.55 17.5Q27.55 16.7 31.2 15.9L37.45 15.2L39.65 15.65L42.9 16.25L43.05 16.65M48.75,39.3Q48.6 39.25 48.6 38.7Q48.6 38.15 52.85 36.25Q57.05 34.3 57.05 35.9Q57.05 35.75 60.7 34.55L64.7 33.2L66.6 31.65Q67.9 30.85 69.05 32.45Q69.9 34 73.45 35.6L81.15 38.6Q80.8 39.45 79.7 39.45L66.35 38.45Q58.15 37.8 48.85 39.35L48.75 39.3M28.75,17.25L30.8 16.9L30.5 16.45L29.05 17.15L28.75 17.25M14.7,30.85L14 31.9Q13.3 32.65 13.3 33.05L13.5 33.95L13.65 34.7Q17.25 34.65 18.3 35.6L27.3 36.15L29.75 36.15L29.9 37Q28.45 38.7 23.8 39.25L19.05 39.45L17.4 39.3L16 39L6.35 38.85L2.65 38.95L0.45 39.2L-1.45 39L-1.2 38.25L-1.15 38Q-1.55 38 -3.35 39.45L-4.35 39.1L4.05 32.25Q9.8 27.8 12.25 26.85L12.35 27.35L11.35 28.9Q10.65 29.85 10.6 30.35L11.45 30.1L14.15 30.1L14.6 30.2L14.7 30.85" />
</g>
</svg>
