<?xml version="1.0" encoding="utf-8"?>
<svg version="1.1" id="Layer_1"
xmlns="http://www.w3.org/2000/svg"
xmlns:xlink="http://www.w3.org/1999/xlink"
width="26px" height="41px"
xml:space="preserve">
<g id="1560" transform="matrix(1, 0, 0, 1, 3.8, 24.3)">
<path style="fill:#D6D6D6;fill-opacity:0.498039" d="M2.45,-13.1Q2.9 -11.6 1.9 -11.15L0.85 -11.15L0.7 -11.25L0.7 -11.6Q0.7 -12.2 1.15 -12.75Q1.7 -13.4 2.45 -13.1M7.8,-19.05Q7.8 -16.75 9.9 -15.7Q12.25 -14.5 12.6 -13.45Q13.4 -11 15.1 -9.9Q16.4 -9.05 16.4 -7.15Q16.4 -5.8 15.7 -4.55L13.8 -1.45Q16.4 -1.05 16.9 0.35Q17.6 2.5 18 2.85Q21.4 5.75 21.4 7.35Q21.4 8.5 20.8 9.9L19.8 12.4Q19.85 13.85 19.4 14.7Q18.45 16.4 14.9 16.4Q11.85 16.4 10.55 14.9Q9.8 14.05 9.8 13.1Q9.8 12.15 12 11.55Q14.15 11 14.15 10.55L13.5 9.6Q12.8 9 12.8 8.45Q12.8 7.8 13.9 7.25Q15 6.65 15 6.25Q15 5.8 12.8 4.35L13 3.85L13.2 3.15L13.05 2.7L12.7 2.45L10 2.4Q9.4 1.85 9.4 1.4Q9.4 -0.2 10.9 -1.3Q12.4 -2.4 12.4 -3L12.1 -3.8Q11.8 -4.4 11.8 -4.65L12 -5.25L12.2 -5.85Q12.2 -6.95 11.15 -7.55Q9.3 -8.55 8.75 -9.1L7.45 -9.1L5.5 -8.6Q4.2 -8.6 4.2 -9.6Q4.2 -10 5.4 -11.2L5.15 -11.4Q5 -11.55 5 -11.85Q5 -12.45 5.8 -13.25Q4.75 -13.65 4.4 -14.55Q3.95 -15.7 3.3 -16.2L0.4 -16.5L-0.75 -16.25L-1.9 -16Q-3.2 -16 -3.65 -17.05L-3.8 -18.1Q-3.8 -18.7 -1.95 -21.1Q-0.05 -23.55 0.75 -23.85Q3.9 -24.9 5.7 -23.6Q7.45 -22.4 7.8 -19.05M4.35,-3.3L4.3 -3.9Q4.3 -4.65 5.2 -4.7Q6.1 -4.75 6.1 -3.95L5.85 -3.45Q5.55 -3.15 5.05 -3.15L4.35 -3.3M8.65,-5.45L8.1 -5L7.55 -5.15Q7.95 -5.6 8.5 -5.6L8.65 -5.45M11.9,6.15L11.5 7.15Q11.1 7.9 10.8 7.9Q9.75 7.9 9.5 7.25L9.45 6.55Q9.45 5.6 10.7 5.35Q11.9 5.1 11.9 6.15M7.45,9.85L7.05 10Q6.95 10.25 6.95 9.75Q6.95 9.45 7.2 9.5L7.7 9.55L7.45 9.85M-1.8,-10.9L-1.95 -11.25L-1.5 -11.15L-1.8 -10.9" />
</g>
</svg>
