<?xml version="1.0" encoding="utf-8"?>
<svg version="1.1" id="Layer_1"
xmlns="http://www.w3.org/2000/svg"
xmlns:xlink="http://www.w3.org/1999/xlink"
width="43px" height="34px"
xml:space="preserve">
<g id="1113" transform="matrix(1, 0, 0, 1, 20.95, 22.95)">
<path style="fill:#2E1803;fill-opacity:1" d="M4.5,-4.25Q6.3 -2.45 6.3 0.1Q6.3 2.65 4.5 4.4Q2.75 6.2 0.2 6.2Q-2.35 6.2 -4.15 4.4Q-5.9 2.65 -5.9 0.1Q-5.9 -2.45 -4.15 -4.25Q-2.35 -6 0.2 -6Q2.75 -6 4.5 -4.25" />
<path style="fill:#2E1803;fill-opacity:1" d="M1,-4.85L1.7 -4.65L1.2 -3.15L3.05 -1.25L4.9 -1.7L5.05 -1L2.9 -0.55L0.5 -2.85L1 -4.85M-4.5,2.05L-4.55 2.05L-4.7 1.35L-4.65 1.35L-2.55 0.9L-0.15 3.2L-0.65 5.05L-0.7 5.15L-1.35 5L-1.3 4.95L-0.85 3.45L-2.75 1.6L-4.5 2.05" />
<linearGradient
id="LinearGradID_345" gradientUnits="userSpaceOnUse" gradientTransform="matrix(-0.0038147, 0.0038147, -0.00431824, -0.00431824, 0.05, 0.25)" spreadMethod ="pad" x1="-819.2" y1="0" x2="819.2" y2="0" >
<stop  offset="0" style="stop-color:#511A16;stop-opacity:1" />
<stop  offset="0.505882" style="stop-color:#6D4414;stop-opacity:1" />
<stop  offset="1" style="stop-color:#511A16;stop-opacity:1" />
</linearGradient>
<path style="fill:url(#LinearGradID_345) " d="M0.5,-2.85L2.9 -0.55L5.05 -1L5.15 0.1Q5.15 2.2 3.7 3.65Q2.25 5.1 0.15 5.1L-0.65 5.05L-0.15 3.2L-2.55 0.9L-4.65 1.35L-4.85 0.1Q-4.85 -1.95 -3.4 -3.4Q-1.95 -4.9 0.15 -4.9L1 -4.85L0.5 -2.85M1.7,-4.65Q2.85 -4.3 3.7 -3.4L4.9 -1.7L3.05 -1.25L1.2 -3.15L1.7 -4.65M-2.75,1.6L-0.85 3.45L-1.3 4.95Q-2.5 4.55 -3.4 3.65L-4.5 2.05L-2.75 1.6M1.9,-3.15L3.3 -1.75L4.05 -2.2L2.4 -3.85L1.9 -3.15M1.25,-1.35Q0.75 -1.9 0 -1.9Q-0.75 -1.9 -1.25 -1.35Q-1.75 -0.85 -1.75 -0.1Q-1.75 0.65 -1.25 1.15Q-0.75 1.65 0 1.65Q0.75 1.65 1.25 1.15Q1.75 0.65 1.75 -0.1Q1.75 -0.85 1.25 -1.35M-3.45,2.9L-2 4.05L-1.35 3.35L-2.65 2.15L-3.45 2.9" />
<path style="fill:#9F6329;fill-opacity:1" d="M2.4,-3.85L4.05 -2.2L3.3 -1.75L1.9 -3.15L2.4 -3.85M1.75,-0.1Q1.75 0.65 1.25 1.15Q0.75 1.65 0 1.65Q-0.75 1.65 -1.25 1.15Q-1.75 0.65 -1.75 -0.1Q-1.75 -0.85 -1.25 -1.35Q-0.75 -1.9 0 -1.9Q0.75 -1.9 1.25 -1.35Q1.75 -0.85 1.75 -0.1M-2.65,2.15L-1.35 3.35L-2 4.05L-3.45 2.9L-2.65 2.15" />
<path style="fill:#E20000;fill-opacity:1" d="M14.6,-1.45L16.25 -3.6L21.8 -3.6L20.2 -1.45L14.6 -1.45M0.1,-2.7Q-0.95 -2.65 -1.75 -1.85Q-2.55 -1 -2.55 0.15L-2.5 0.55L-4.05 0.6L-4.1 0.15Q-4.1 -1.65 -2.85 -2.95Q-1.6 -4.15 0.1 -4.2L0.1 -2.7M4.6,0.15Q4.6 1.95 3.3 3.2Q2.05 4.5 0.25 4.5L0.1 4.5L0.1 3L0.25 3Q1.45 3 2.25 2.15Q3.05 1.35 3.1 0.25L4.6 0.15" />
<path style="fill:#2E1803;fill-opacity:1" d="M7.95,-7.5Q11.1 -4.35 11.1 0.1Q11.1 4.55 7.95 7.7Q5.9 9.75 3.3 10.5L2.2 6.6Q3.75 6.15 5.05 4.85Q7 2.9 7 0.2Q7 -2.5 5.05 -4.5L4 -5.35L2.75 -6L-4.35 -9.6L-6 -14.4L-5.15 -14.65L4.85 -9.7L5.4 -9.45L7.95 -7.5M4.95,-5.55L5.5 -5.05Q7.65 -2.9 7.65 0.1Q7.65 3.15 5.5 5.25Q4.3 6.45 2.85 6.95L3.35 8.25L3.85 9.55Q5.85 8.8 7.45 7.15Q10.4 4.25 10.4 0.1Q10.4 -1.4 10.05 -2.7Q9.35 -5.1 7.45 -7L6.65 -7.75L-5.15 -13.7L-3.9 -10.2L4.95 -5.55" />
<path style="fill:#5D340E;fill-opacity:1" d="M9.25,-3.8L10.05 -2.7Q10.4 -1.4 10.4 0.1Q10.4 4.25 7.45 7.15Q5.85 8.8 3.85 9.55L3.35 8.25Q10.8 5.1 9.25 -3.8" />
<linearGradient
id="LinearGradID_346" gradientUnits="userSpaceOnUse" gradientTransform="matrix(0.00640869, -0.0141602, 0.00572205, 0.00259399, 5.75, -5.75)" spreadMethod ="pad" x1="-819.2" y1="0" x2="819.2" y2="0" >
<stop  offset="0" style="stop-color:#511A16;stop-opacity:1" />
<stop  offset="0.505882" style="stop-color:#6D4414;stop-opacity:1" />
<stop  offset="1" style="stop-color:#511A16;stop-opacity:1" />
</linearGradient>
<path style="fill:url(#LinearGradID_346) " d="M3.35,8.25L2.85 6.95Q4.3 6.45 5.5 5.25Q7.65 3.15 7.65 0.1Q7.65 -2.9 5.5 -5.05L4.95 -5.55L-3.9 -10.2L-3.5 -11.3L6.45 -6.45Q8.15 -5.2 9.25 -3.8Q10.8 5.1 3.35 8.25" />
<path style="fill:#9F6329;fill-opacity:1" d="M9.25,-3.8Q8.15 -5.2 6.45 -6.45L-3.5 -11.3L-3.9 -10.2L-5.15 -13.7L6.65 -7.75L7.45 -7Q9.35 -5.1 10.05 -2.7L9.25 -3.8" />
<path style="fill:#2E1803;fill-opacity:1" d="M-9.8,-16.15L-7.8 -13.5L-8.45 -12.95L-10.35 -15.25L-20.95 -15.7L-20.95 -18.15Q-19 -23 4.15 -22.95L3.9 -22.25L3.2 -20.5L1.5 -16.35L0.15 -12.95L-0.55 -13.5L2.35 -20.5L3.05 -22.2Q-17.65 -22.4 -19.75 -17.75L-19.75 -16.15L-17.5 -16.15L-9.8 -16.15" />
<linearGradient
id="LinearGradID_347" gradientUnits="userSpaceOnUse" gradientTransform="matrix(-0.00151062, -0.00901794, 0.00621033, -0.00102234, -3.35, -20.3)" spreadMethod ="pad" x1="-819.2" y1="0" x2="819.2" y2="0" >
<stop  offset="0" style="stop-color:#511A16;stop-opacity:1" />
<stop  offset="0.505882" style="stop-color:#6D4414;stop-opacity:1" />
<stop  offset="1" style="stop-color:#511A16;stop-opacity:1" />
</linearGradient>
<path style="fill:url(#LinearGradID_347) " d="M-7.8,-13.5L-9.8 -16.15L-17.5 -16.15Q-15.15 -20.25 2.35 -20.5L-0.55 -13.5L-7.8 -13.5" />
<path style="fill:#9F6329;fill-opacity:1" d="M-17.5,-16.15L-19.75 -16.15L-19.75 -17.75Q-17.65 -22.4 3.05 -22.2L2.35 -20.5Q-15.15 -20.25 -17.5 -16.15" />
</g>
</svg>
