<?xml version="1.0" encoding="utf-8"?>
<svg version="1.1" id="Layer_1"
xmlns="http://www.w3.org/2000/svg"
xmlns:xlink="http://www.w3.org/1999/xlink"
width="9px" height="7px"
xml:space="preserve">
<g id="663" transform="matrix(1, 0, 0, 1, 18.4, 25.45)">
<path style="fill:#000000;fill-opacity:0.298039" d="M-13.35,-25L-12.95 -24.5L-11.75 -24.45L-11.9 -24.55Q-12.55 -25.1 -13.1 -25.1L-13.35 -25M-14.3,-25.45L-13.5 -25.1Q-13.4 -25.7 -12.3 -25.25Q-11.1 -24.8 -11.1 -24.1L-11.1 -23.95L-9.65 -22.25L-9.65 -21.55Q-9.7 -21.15 -10.05 -20.55L-10.3 -20.8L-10.1 -21.45L-10.3 -21.55L-10.5 -21.85L-10.8 -21.35L-10.95 -20.85L-11.1 -20.8L-10.8 -19.8L-10.6 -19.35L-10.6 -19.3L-10.6 -19.25L-10.15 -18.7L-10.35 -18.65Q-10.6 -18.65 -10.9 -18.8L-12.3 -19.2L-12.8 -19.4L-13.1 -19.35Q-14.15 -19.35 -15.15 -20.25L-16.1 -20.6L-16.1 -20.75L-15.05 -20.6L-13.95 -20.3L-13.95 -20.15L-13.65 -20.15L-13.35 -20.2Q-13.75 -20.25 -14.15 -20.45L-14.85 -21.05L-13.95 -20.9L-13.85 -20.85L-14.5 -21.45L-14.45 -21.65L-13.05 -21.3L-13 -21.3L-14.2 -22.4L-14.3 -22.45L-15.65 -22.05L-15.85 -21.6L-16.5 -21.5L-16.5 -21.6L-16.75 -21.65L-16.75 -21.85L-17 -21.65Q-17.3 -21.45 -17.7 -21.4L-16.8 -22.3L-16.7 -22.85Q-17.05 -22.2 -17.35 -22.2L-17.6 -22.2L-17.9 -20.7L-18.25 -21.45L-17.95 -22.6L-18.15 -23.25L-18.15 -23.3L-18.2 -23.3L-18.1 -23.45L-18 -23.65L-18.05 -23.75L-18.3 -23.55L-18.4 -23.55L-18.4 -23.7Q-18.4 -24.1 -17.8 -24.45Q-17.15 -24.85 -16.2 -24.85L-16.05 -24.8L-15.75 -24.95L-15.65 -25.05Q-15.2 -25.4 -14.8 -25.35L-14.3 -25.45M-11.8,-22.8Q-12.3 -23.6 -13.25 -23.6L-13.3 -23.6L-13.2 -23.45Q-13.2 -23.15 -13.5 -23.15L-13.7 -23.25L-13.75 -23.2L-13.55 -23.15L-13.95 -22.95Q-14.3 -22.95 -14.25 -23.2L-14.15 -23.5L-14.35 -23.65L-14.8 -23.55L-14.95 -23.3L-13.95 -22.85Q-12.5 -22 -12.5 -21.3L-12.5 -21.1L-12 -20.65L-11.7 -20.5L-12.15 -21.15L-12.15 -21.25L-11.5 -21L-11.45 -21.7Q-11.45 -22.25 -11.8 -22.8M-13.3,-24.35L-14.25 -24.55L-14.5 -24.55L-14.05 -24.25L-13.7 -24.1L-13.3 -24.35M-14.75,-20.2L-14.6 -20.1L-14.6 -20.15L-14.75 -20.2M-14.35,-19.95L-14.05 -19.85L-14.1 -19.9L-14.6 -20.1L-14.35 -19.95M-15.35,-23.4L-15.8 -22.9L-15.3 -23.1L-15.4 -23.2L-15.3 -23.3L-15.35 -23.4M-17.55,-23.4L-18 -23.3L-18 -23.2L-17.9 -22.7L-17.7 -23.05L-17.55 -23.4" />
</g>
</svg>
