<?xml version="1.0" encoding="utf-8"?>
<svg version="1.1" id="Layer_1"
xmlns="http://www.w3.org/2000/svg"
xmlns:xlink="http://www.w3.org/1999/xlink"
width="15px" height="14px"
xml:space="preserve">
<g id="533" transform="matrix(1, 0, 0, 1, -0.4, 0.55)">
<path style="fill:#000000;fill-opacity:0.498039" d="M7.9,9.5L13.25 10Q15.4 10.55 15.4 11.3Q15.4 12.05 13.25 12.55L7.9 13.1L2.65 12.55Q0.4 12.05 0.4 11.3Q0.4 10.55 2.65 10L7.9 9.5" />
<path style="fill:#000000;fill-opacity:1" d="M6.35,-0.35L6.65 -0.55L10.4 -0.35L10.9 0.1L12 3.5L11 4L11.05 4.8L11.5 4.7L12.05 5.65L11.65 6.55L13.85 9.45L10.85 11.9L9.2 12.05L7.15 11.65L7.15 10L8.4 9.15L7.95 7.8L6.9 7.55L5.85 11.45L0.45 11.05L2.05 8.4L2.85 8.1L3.2 6.85L3.5 6.1L3 5.65L2.65 2.05L3.9 3.9L5.65 -0.1L6.35 -0.35" />
</g>
</svg>
