<?xml version="1.0" encoding="utf-8"?>
<svg version="1.1" id="Layer_1"
xmlns="http://www.w3.org/2000/svg"
xmlns:xlink="http://www.w3.org/1999/xlink"
width="55px" height="39px"
xml:space="preserve">
<g id="825" transform="matrix(1, 0, 0, 1, -0.6, -4.25)">
<path style="fill:#0B0B0B;fill-opacity:1" d="M45.75,41.2L46.35 41.5L48.2 42.05L8.15 42.05L9.95 41.5L10.55 41.2L45.75 41.2M35.95,6.95Q35.7 5.7 35 4.6L55.05 29.4L54.8 29.15Q53.8 28.15 52.65 27.65L35.95 6.95M4.05,27.5L3.4 27.8Q3.2 27.85 3.05 28L1.9 28.8L22.2 4.25Q21.65 5.1 21.35 6.05L21.15 6.7L4.05 27.5M1.6,29.2L0.6 30.4Q0.95 29.8 1.45 29.3L1.6 29.2M6.85,42.3L5.85 42.25L8.15 42.2L6.85 42.3" />
<path style="fill:#BD8051;fill-opacity:1" d="M10.55,41.2L11.85 40.25L44.45 40.25L45.75 41.2L10.55 41.2M52.65,27.65L50.9 27.1L36.1 8.75L36.1 8.55L35.95 6.95L52.65 27.65M21.15,6.7Q20.9 7.55 20.9 8.45L5.65 27.05L4.05 27.5L21.15 6.7" />
</g>
</svg>
