<?xml version="1.0" encoding="utf-8"?>
<svg version="1.1" id="Layer_1"
xmlns="http://www.w3.org/2000/svg"
xmlns:xlink="http://www.w3.org/1999/xlink"
width="33px" height="4px"
xml:space="preserve">
<g id="752" transform="matrix(1, 0, 0, 1, 0, 0)">
<path style="fill:#000000;fill-opacity:0.498039" d="M32.45,2.3Q32.35 2.6 31.75 2.75L31.25 2.9L29.95 2.95L28.15 2.65Q27.65 2.55 27.4 2.3L27.35 2L27.65 1.65L28.15 1.45L29.95 1.2Q31.05 1.25 31.75 1.55L32.45 2.2L32.45 2.3M26.55,1.7Q26.55 2.45 22.65 3.05L13.35 3.7L3.85 3.25Q0 2.8 0 2.05Q0 1.3 3.85 0.65L13.35 0L22.65 0.45Q26.55 0.95 26.55 1.7" />
</g>
</svg>
