<?xml version="1.0" encoding="utf-8"?>
<svg version="1.1" id="Layer_1"
xmlns="http://www.w3.org/2000/svg"
xmlns:xlink="http://www.w3.org/1999/xlink"
width="18px" height="11px"
xml:space="preserve">
<g id="691" transform="matrix(1, 0, 0, 1, 28.4, 8.8)">
<path style="fill:#7E0000;fill-opacity:1" d="M-23.9,-8.8L-23.1 -8.5L-22.5 -7.9L-22.5 -7.85Q-22.85 -7.2 -23.6 -7.4L-24.65 -7.9L-24.65 -8L-24.65 -8.1L-24.65 -8.2L-24.6 -8.35L-24.6 -8.4L-24.45 -8.5L-24.35 -8.5L-24.1 -8.55L-24.1 -8.65L-24.05 -8.7L-23.95 -8.8L-23.9 -8.8M-26.4,-4.95L-26.5 -5L-25.95 -5.6L-24.95 -6.05L-24.95 -6.1L-24.6 -6.05L-24.45 -6L-24.45 -5.95L-24.45 -5.85L-24.4 -5.65L-24.4 -5.55L-25.4 -5.05L-26.4 -4.95M-28.35,-0.15L-28.35 -0.25L-28.3 -0.35L-28.2 -0.4L-28.1 -0.5L-27.85 -0.55L-27.65 -0.5L-27.5 -0.65L-26.75 -0.25Q-25.85 0.15 -25.45 1.05L-25.35 1.2L-25.3 1.3L-25.35 1.4L-25.35 1.45Q-25.3 1.75 -25.6 1.6L-26.75 1.8L-27.75 1.5L-27.45 1.15L-26.9 1.05L-28.4 0.05L-28.4 0L-28.4 -0.1L-28.35 -0.15M-20.35,-3.8L-20.2 -3.95L-20.15 -3.95L-20.05 -4L-19.95 -4L-19.95 -4.05L-19.7 -4L-19.55 -3.9L-19.5 -3.85L-19.7 -3.35L-19.95 -2.85L-20.1 -2.6L-20.3 -2.65Q-20.4 -2.85 -20.7 -2.85L-20.75 -2.85L-20.75 -3.2L-20.35 -3.8M-21.45,-3.25L-20.5 -2.1L-20.45 -1.85Q-21.15 -1.1 -22 -1.85L-23.3 -3.45L-23.35 -3.5L-23.3 -3.6L-23.2 -3.75L-22.95 -3.95L-23.05 -4.2L-22.85 -4.45L-22.1 -3.9L-21.7 -3.45L-21.45 -3.25M-15.35,-4.55Q-15.05 -4.45 -15.1 -4.2L-15.1 -4.15L-15.75 -4.1L-15.95 -4.5L-15.8 -4.65L-15.35 -4.55M-11.55,-4.75L-11.2 -4.4L-11.1 -4.3L-11.95 -4.25Q-12.25 -4.45 -12.2 -4.8L-12.2 -4.9L-12.15 -4.95L-12.05 -5L-12 -5L-11.8 -5L-11.7 -5L-11.55 -4.75" />
</g>
</svg>
