<?xml version="1.0" encoding="utf-8"?>
<svg version="1.1" id="Layer_1"
xmlns="http://www.w3.org/2000/svg"
xmlns:xlink="http://www.w3.org/1999/xlink"
width="26px" height="25px"
xml:space="preserve">
<g id="729" transform="matrix(1, 0, 0, 1, 16.25, 5.9)">
<path style="fill:#000000;fill-opacity:1" d="M0.1,-2.1Q-1.65 -2.15 -3.3 -2.95Q-5.6 -4.05 -3.8 -5.45L-1.6 -4.3Q-0.2 -3.45 0.3 -2.15L0.1 -2.1M-6.95,-5.9Q-6.4 -5.8 -5.9 -5.45L-5.15 -4.65L-5.1 -4.55L-5.5 -3.7Q-6.8 -1.95 -8.6 -3Q-9 -3.3 -9.05 -3.75Q-9.25 -5.95 -6.95 -5.9M-2.55,-1.05Q-2.45 -0.25 -3.05 0.25Q-4.2 1.25 -5.05 -0.1Q-6.35 -2.2 -3.75 -2.2Q-2.6 -2.1 -2.55 -1.05M-4.3,2.25L-4.9 3.2Q-6.35 4.8 -8.4 4.85Q-10.4 4.95 -10.9 3.3L-10.85 2.8Q-9.4 0.65 -6.65 -0.1L-5.75 0.3Q-5.15 0.65 -4.8 1.25L-4.3 2.25M-2.2,4.3L-2.55 5.25Q-3.7 7.25 -5.05 5.15L-5 5.05L-3.75 3.85L-2.9 2.5Q-1.95 3.1 -2.2 4.3M-7.6,6.05Q-5.05 7.8 -6.85 9.8Q-7.2 10.2 -7.65 10.3Q-10.95 11.05 -11.45 7.85Q-11.75 5.8 -9.55 5.05L-9.5 5.15L-9.3 5.15L-8.8 5.35L-8.75 5.4Q-8.15 5.65 -7.6 6.05M-9.7,11.15L-8.9 11.15L-8.7 11.25L-8.5 11.35L-8.45 11.4L-8.35 11.65L-8.15 11.95L-8.05 14.1L-7.9 15.3Q-7.65 17.05 -9.55 17.3Q-10.2 16.7 -10.2 15.85L-10.2 13.5Q-10.2 12.25 -9.8 11.2L-9.7 11.15M-13,16.25L-13.8 17.1L-16.25 17.05L-16.2 16.9Q-16 15.9 -15.2 15.15Q-14.4 14.35 -13.3 14.4Q-12.25 15.1 -13 16.25M-5.8,13.4Q-5.3 12.65 -4.3 12.75L-3.9 12.9L-1.1 14.2Q0.4 14.9 1.15 16.2Q0.55 16.95 -0.45 16.65L-5.9 15.1L-5.95 15Q-6.35 14.2 -5.8 13.4M9,17.7L8.9 17.9L8.45 18.1Q6.55 17.85 4.8 17.05L1.05 15.3L1.15 15L1.5 14.6L1.55 14.5L1.65 14.45L2 14.45L2.2 14.5L5.4 15.85Q7.35 16.6 9 17.7M1.65,17.2L2.75 17.1L3.15 17.2Q4.1 17.2 4.3 18L4.2 18.4Q2.95 19.4 1 18.9L0.7 18.5L0.6 18.15L0.65 17.8L0.65 17.75L0.7 17.65Q1.15 17.35 1.65 17.2" />
</g>
</svg>
