<?xml version="1.0" encoding="utf-8"?>
<svg version="1.1" id="Layer_1"
xmlns="http://www.w3.org/2000/svg"
xmlns:xlink="http://www.w3.org/1999/xlink"
width="21px" height="19px"
xml:space="preserve">
<g id="567" transform="matrix(1, 0, 0, 1, 6.3, -3.6)">
<path style="fill:#1E1E1E;fill-opacity:1" d="M10.8,10.75L10.05 10.65L10 10.65L9.95 10.8L9.9 10.9L10.15 11.3Q10.65 11.5 10.8 11.1L10.8 10.75M10.5,11.8Q9.1 11.4 10.05 10.25L10.2 10.05Q11.65 10.05 11.1 11.4Q10.95 11.9 10.5 11.8M5.15,4L4.95 4.15L4.75 4.35L4.75 4.55L4.55 4.55L4.55 4.65L4.5 4.65L4.5 4.8L4.5 4.85L4.55 5Q4.8 5.2 5 5L5.3 4.5L5.35 4.35L5.3 4.3L5.3 4.2L5.25 4.15L5.15 4M8.35,5.4L8.15 5.65L8.1 5.8L8.15 6L8.35 6.15L8.55 6.2L8.65 6.05L8.7 5.85L8.8 5.8L8.8 5.5L8.7 5.35L8.65 5.3L8.4 5.2L8.4 5.3L8.35 5.4M7.8,5.85Q7.8 5.55 7.95 5.3Q8.1 4.85 8.4 4.7Q8.95 4.65 9.05 5.3Q9.2 5.8 9 6.2L8.7 6.75L8.5 6.75L8.05 6.55L7.8 6.35L7.8 6.15L7.85 6.15L7.85 6.05L7.8 5.85M5,3.6Q6.2 4 5.25 5.3L4.55 5.35Q3.8 4.95 4.4 4.1L5 3.6M3.4,8.05L3.3 7.85L2.7 7.75L2.65 7.85Q2.4 7.85 2.25 8Q2 8.2 2.1 8.55L2.15 8.9L3.25 8.75L3.4 8.05M4.7,8.45L4.7 8.6L4.7 8.7L5.15 9.1L5.55 9.3L5.75 9.45L5.95 9.4L6.2 9.3L6.2 9.25L7.1 9.75L7.55 9.6Q7.85 9.2 7.75 8.6L7.8 8.35Q7.4 7.85 7.15 8.55L6.8 8.95Q6.3 9.3 5.85 8.7L5.4 8.25L4.95 8.1L4.85 8.1L4.75 8.1L4.65 8.2L4.65 8.35L4.7 8.45M3.7,8.05Q3.85 9.05 3.1 9.3Q1.7 9.75 1.85 8.2Q1.9 7.4 2.55 7.2Q3.5 7.05 3.7 8.05M4.85,7.55L5.55 7.75L6.25 8.25L6.55 8.6Q7.2 6.85 8.25 8.35L8.4 8.85Q8.5 10.8 6.85 10.75Q6.55 10.65 6.35 10.4L6.15 9.9L5.2 9.75Q4.35 9.3 4.3 8.35Q4.25 7.6 4.85 7.55M0.95,10.9Q0.25 11.15 -0.15 11.95L-0.2 12.8L1.7 12.25L4.1 11.75Q4.1 11.65 4.25 11.65L4.35 11.75L4.65 11.65L4.75 11.5L4.35 10.95L3.55 10.6L2.3 10.55L0.95 10.9M7.2,22.15L7.95 20.9Q8.05 20.3 7.75 19.9L8.35 19.25L8.6 18.85L8.65 18.35L8.35 17.6Q7.95 17 7.3 16.9L6.95 16.75Q7.15 15.7 6.65 14.85Q6.1 13.7 5.15 13.3L4.95 13.15L4.4 12.3L0.85 12.85L0.3 13.1L0.45 13.15L0.6 13.3L0.6 13.5Q-0.15 13.35 -0.75 14.1Q-1.3 14.5 -1.35 15.3L-1.35 16.4Q-1.95 17.05 -1.7 18.05L-1.2 19.45L-1.3 19.9L-1.55 20.75L-1.95 20.75L-1.75 19.95L-1.55 19.4L-2 18.4L-2.15 17.75L-2 16.7L-1.75 16.15L-1.75 15.05L-1.15 13.85L-0.35 13.2L-0.4 13.15L-0.45 12.95L-0.5 12.75L-0.5 12.5L-0.45 12.1L-0.2 11.65L-0.2 11.5Q-0.2 11.15 0 11.05Q0.65 10.45 1.5 10.25L2.25 10.05Q4.2 9.6 5 11.5L4.95 12L4.85 12.1L5.25 12.75L5.5 13.15Q6.3 13.3 6.8 14.1L7.3 15.2L7.4 16.35Q8.35 16.55 8.8 17.6Q9.1 18.2 9 18.9Q8.8 19.7 8.25 19.95Q8.35 21.1 7.85 21.95L7.7 22.25L7.1 22.25L7.2 22.15M10.55,21.3L10.5 20.25L10.35 19.95L10.25 20.9L9.95 21.65L9.8 22L9.4 22.05Q9.4 21.55 9.7 21.1Q10.2 20.4 9.8 19.45L9.5 18.45L9.55 18.35Q10.5 18.9 10.8 20.15Q11 21 10.75 21.7L10.4 21.8L10.55 21.3M12.25,17.4L13.05 17.1L13.55 16.9L13.65 16.9L13.5 16.85L13.4 16.85L12.8 17.05L12.2 17.2Q11.9 17.25 11.9 17.4L12.25 17.4M11.6,17.05L12.2 16.75L13.35 16.4L13.4 16.4Q14.65 16.7 13.65 17.25L12.2 17.75Q11.55 17.85 11.6 17.05M-5.4,6.4Q-4.05 6.35 -4.6 7.6L-4.4 7.55L-4.4 7.35L-4.4 7.15L-4.25 6.75L-4.15 6.7L-4.05 6.7L-3.85 6.7L-3.55 6.65Q-2.55 6.5 -2.6 7.6Q-2.6 8.35 -3.25 8.45Q-4 8.7 -4.35 8.1L-4.8 8L-5.15 8.1Q-6.45 8.1 -6 6.9L-5.4 6.4M-5.4,6.9L-5.55 7L-5.6 7.15L-5.55 7.35L-5 7.55L-4.9 7.6L-4.9 7.55L-4.85 7.55L-4.75 7.4L-4.7 7.4L-4.75 7.15Q-4.9 6.75 -5.25 6.9L-5.4 6.9M-3.45,7.05L-3.55 7.05L-3.75 7.15L-3.85 7.2L-3.9 7.2L-3.9 7.4L-4 7.6L-4.05 7.85L-3.75 8.1Q-3.15 8.2 -2.9 7.6L-2.9 7.5L-3 7.25Q-3.15 6.9 -3.45 7.05M-3.55,12.35L-2.85 12.85Q-2.05 12.85 -1.75 11.95L-1.85 11.8L-1.85 11.75L-1.9 11.65L-1.95 11.5L-1.95 11.45L-2.4 11.25L-3.05 11.1Q-3.85 11.5 -3.55 12.35M-2.75,10.6Q-1.15 10.45 -1.35 12.3L-1.7 12.85Q-3.15 14.1 -3.9 12.25L-4 11.8Q-3.7 10.8 -2.75 10.6M-1.85,14L-1.75 14.1Q-2.05 16.05 -2.7 18.05L-2.85 18.45Q-3.8 19.9 -4.25 18.25L-4.3 17.55Q-4.2 16.5 -3.6 15.55L-3.35 15.2L-2.25 13.95L-2.05 13.95L-1.85 14M-3,17.9L-2.85 17.55L-2.15 14.45Q-3.4 15.5 -3.7 17.35Q-3.85 18.6 -3 17.9M-5.8,12.5L-5.75 12.5Q-4.7 12.8 -5.4 13.6Q-6 14.35 -6.25 13.45Q-6.4 12.8 -5.8 12.5M-5.55,13.35Q-5.4 13.15 -5.6 13L-5.75 13.1L-5.9 13.2L-6 13.45Q-5.75 13.65 -5.55 13.35M-4.85,20.8L-4.85 20.55Q-4.7 19.7 -4.15 19.4Q-3.35 19.6 -2.85 20.6L-2.75 20.7L-3.45 20.7L-3.85 19.9L-4 19.9Q-4 19.8 -4.15 19.8L-4.3 20.15L-4.3 20.65L-4.3 20.75L-4.85 20.8" />
<path style="fill:#3A3A3A;fill-opacity:1" d="M10.8,11.1Q10.65 11.5 10.15 11.3L9.9 10.9L9.95 10.8L10 10.65L10.05 10.65L10.8 10.75L10.8 11.1M5.25,4.15L5.3 4.2L5.3 4.3L5.35 4.35L5.3 4.5L5 5Q4.8 5.2 4.55 5L4.5 4.85L4.5 4.8L4.5 4.65L4.55 4.65L4.55 4.55L4.75 4.55L4.75 4.35L4.95 4.15L5.15 4L5.25 4.15M8.4,5.3L8.4 5.2L8.65 5.3L8.7 5.35L8.8 5.5L8.8 5.8L8.7 5.85L8.65 6.05L8.55 6.2L8.35 6.15L8.15 6L8.1 5.8L8.15 5.65L8.35 5.4L8.4 5.3M3.25,8.75L2.15 8.9L2.1 8.55Q2 8.2 2.25 8Q2.4 7.85 2.65 7.85L2.7 7.75L3.3 7.85L3.4 8.05L3.25 8.75M4.65,8.35L4.65 8.2L4.75 8.1L4.85 8.1L4.95 8.1L5.4 8.25L5.85 8.7Q6.3 9.3 6.8 8.95L7.15 8.55Q7.4 7.85 7.8 8.35L7.75 8.6Q7.85 9.2 7.55 9.6L7.1 9.75L6.2 9.25L6.2 9.3L5.95 9.4L5.75 9.45L5.55 9.3L5.15 9.1L4.7 8.7L4.7 8.6L4.7 8.45L4.65 8.35M2.3,10.55L3.55 10.6L4.35 10.95L4.75 11.5L4.65 11.65L4.35 11.75L4.25 11.65Q4.1 11.65 4.1 11.75L1.7 12.25L-0.2 12.8L-0.15 11.95Q0.25 11.15 0.95 10.9L2.3 10.55M7.1,22.25L4.7 22L3.7 21.75L1.05 21.1L-1.55 20.75L-1.3 19.9L-1.2 19.45L-1.7 18.05Q-1.95 17.05 -1.35 16.4L-1.35 15.3Q-1.3 14.5 -0.75 14.1Q-0.15 13.35 0.6 13.5L0.6 13.3L0.45 13.15L0.3 13.1L0.85 12.85L4.4 12.3L4.95 13.15L5.15 13.3Q6.1 13.7 6.65 14.85Q7.15 15.7 6.95 16.75L7.3 16.9Q7.95 17 8.35 17.6L8.65 18.35L8.6 18.85L8.35 19.25L7.75 19.9Q8.05 20.3 7.95 20.9L7.2 22.15L7.1 22.25M10.4,21.8L9.8 22L9.95 21.65L10.25 20.9L10.35 19.95L10.5 20.25L10.55 21.3L10.4 21.8M11.9,17.4Q11.9 17.25 12.2 17.2L12.8 17.05L13.4 16.85L13.5 16.85L13.65 16.9L13.55 16.9L13.05 17.1L12.25 17.4L11.9 17.4M-5.25,6.9Q-4.9 6.75 -4.75 7.15L-4.7 7.4L-4.75 7.4L-4.85 7.55L-4.9 7.55L-4.9 7.6L-5 7.55L-5.55 7.35L-5.6 7.15L-5.55 7L-5.4 6.9L-5.25 6.9M-3,7.25L-2.9 7.5L-2.9 7.6Q-3.15 8.2 -3.75 8.1L-4.05 7.85L-4 7.6L-3.9 7.4L-3.9 7.2L-3.85 7.2L-3.75 7.15L-3.55 7.05L-3.45 7.05Q-3.15 6.9 -3 7.25M-3.05,11.1L-2.4 11.25L-1.95 11.45L-1.95 11.5L-1.9 11.65L-1.85 11.75L-1.85 11.8L-1.75 11.95Q-2.05 12.85 -2.85 12.85L-3.55 12.35Q-3.85 11.5 -3.05 11.1M-3.7,17.35Q-3.4 15.5 -2.15 14.45L-2.85 17.55L-3 17.9Q-3.85 18.6 -3.7 17.35M-6,13.45L-5.9 13.2L-5.75 13.1L-5.6 13Q-5.4 13.15 -5.55 13.35Q-5.75 13.65 -6 13.45M-4.3,20.75L-4.3 20.65L-4.3 20.15L-4.15 19.8Q-4 19.8 -4 19.9L-3.85 19.9L-3.45 20.7L-4.3 20.75" />
</g>
</svg>
