<?xml version="1.0" encoding="utf-8"?>
<svg version="1.1" id="Layer_1"
xmlns="http://www.w3.org/2000/svg"
xmlns:xlink="http://www.w3.org/1999/xlink"
width="20px" height="13px"
xml:space="preserve">
<g id="850" transform="matrix(1, 0, 0, 1, -59.85, 10.95)">
<path style="fill:#0E0E0E;fill-opacity:1" d="M60.15,-3.05L61.7 -3.35L62.4 -3.3Q62.5 -4 63.15 -4.8Q64.3 -6.15 66.3 -5.45Q66.55 -6.7 69.75 -7.35Q73.25 -8.05 73.25 -4.45Q73.25 -2.75 71.55 -2.2Q72.6 -1.9 72.6 -0.9Q72.6 0 71.45 0.65Q70.2 1.4 68.2 1.4Q67.7 1.4 67.2 0.45L66.8 -0.75L66.95 -1.35L65.85 -1.2Q64.35 -1.2 63.45 -1.65L63.1 -1.4Q62.5 -1.05 62.3 -1.05Q61 -1.05 60.35 -1.55Q59.85 -1.9 59.85 -2.3Q59.85 -2.85 60.15 -3.05M68,-2.1L68.25 -2.2L68.1 -2.25L68 -2.1M79.85,-7.1Q79.85 -6.25 79.2 -5.6Q78.35 -4.75 76.7 -4.75Q74.8 -4.75 73.85 -6Q73.2 -6.8 73.2 -7.55Q73.2 -10.5 76.55 -10.9Q79.85 -11.3 79.85 -7.1" />
</g>
</svg>
