<?xml version="1.0" encoding="utf-8"?>
<svg version="1.1" id="Layer_1"
xmlns="http://www.w3.org/2000/svg"
xmlns:xlink="http://www.w3.org/1999/xlink"
width="280px" height="59px"
xml:space="preserve">
<g id="478" transform="matrix(1, 0, 0, 1, 109, -200.3)">
<path style="fill:#3A1D0F;fill-opacity:0.85098" d="M121.15,252.95L121.3 252.65Q121.5 252.45 121.8 252.4L123.35 252.1L123.6 251.95L123.9 251.75L124.4 251.6L124.4 251.55Q128.65 252.2 132.7 251.6Q137.8 250.9 142.8 252.1Q147.1 253.1 149.85 256Q145.95 257.85 140.3 258.65Q135.65 259.3 131.1 257.9L126.6 257.3L126.2 256.5L125.95 256.15L125.2 255.3L124.8 254.95L124.35 254.6L122.95 254Q122.1 253.7 121.35 253.25L121.15 252.95M107.15,252.1L107.8 252.25L110.25 252.65Q110.6 252.7 110.85 252.9L111.05 253.25Q111.25 254.25 110.2 254.85L108.95 255.55Q103.65 258.7 96.15 256.8Q95.9 256.75 96.05 257.4Q91.25 260.1 84.4 256.4Q81.45 254.8 77.8 255.65Q68.95 257.6 59.55 256.2Q55.65 255.6 52.55 254L53 253.6L55.9 253L56.45 252.95Q57.95 252.75 59.2 252.05Q60.35 251.45 61.15 250.1Q65.85 249.85 70.55 250.1L90.95 249.45L96.35 249.75Q99.35 250.1 102.4 249.75Q105.95 249.3 106.35 251.95L107.15 252.1M145.55,251.6Q145.85 251 146.45 250.8L147.8 249.9L147.9 249.55Q154 249.45 159.15 246.15L162.5 243.4L162.55 243.3Q164.2 243.4 163.55 244.6L162.35 246.45L161.35 247.35L161.45 247.55L163.1 247.15L164.35 247.1Q164.9 249.05 168.1 248.75Q169.75 248.6 170.1 250.1Q170.25 252.6 167.7 252.85Q155.65 254.05 145.45 252.3L145.55 251.6M55.15,241.2Q55.3 239.55 56.85 237.5Q58.45 235.4 60.4 233.4L63.5 230.25L63.9 229.85Q66.05 230.25 67.8 229.8Q70.05 229.25 72.1 228.2L72.15 228.15Q73.55 227.95 74.5 228.9Q75.45 229.8 75.95 230.8Q76.3 231.55 76.95 232.2Q75.85 238.6 67.5 239.05Q62.45 239.35 58.15 241.5Q56.5 242.35 55.15 241.2" />
<path style="fill:#3A1D0F;fill-opacity:0.2" d="M-99.15,204.1Q-104.15 207.35 -108.95 204.35L-109 204Q-109.15 203 -108.3 202.4Q-107.05 201.45 -105.65 200.65L-105.05 200.3L-101.4 200.6Q-99.9 200.8 -98.9 201.85Q-98.25 202.55 -98.5 203.45L-99.15 204.1" />
<path style="fill:#3A1D0F;fill-opacity:0.85098" d="M-48.75,250.35Q-45.55 250.6 -46.2 253.25Q-46.45 254.4 -47.85 254.45Q-50.65 254.65 -52.2 253.45L-52.45 253.45L-52.7 253.3L-52.85 253.15L-52.95 253.05L-52.95 252.9L-52.95 252.75L-52.3 251.7Q-51.4 250.75 -50.1 250.6L-48.75 250.35M-43.15,251.05Q-40.9 248.7 -37.9 247.5Q-32.2 247.15 -31.5 251.6Q-31.3 252.95 -32.6 253.8Q-39.15 258.2 -43.2 252.1Q-43.6 251.5 -43.15 251.05M-55.9,255.6Q-61.2 259.25 -67.05 255.4Q-69.75 253.6 -67.7 251.35Q-66 249.45 -63.5 248.95Q-56.4 248.4 -55.4 254.4Q-55.25 255.15 -55.9 255.6M-80.7,252.25Q-86.55 251.95 -90.2 247.8Q-90.75 247.15 -90.1 246.5Q-89.25 245.65 -88.05 245.45Q-79.65 244.3 -72.35 247.25Q-70 248.25 -72.05 249.75Q-75.85 252.5 -80.7 252.25M-1.45,250.25Q0.85 253.3 -2.45 255.45Q-5.3 257.35 -8.75 256.35Q-10.3 255.9 -12 256.35Q-17.2 257.85 -22.2 256.15Q-26.4 254.75 -23.65 251.75Q-22.4 250.4 -20.5 249.75L-16.4 248.55L-3.25 249.4Q-2.15 249.35 -1.45 250.25M-84.55,219.55Q-83.2 218.8 -81.8 218.35Q-75.25 220.1 -79 225.85Q-81.2 229.2 -85.7 227.55Q-87.9 226.8 -89.9 228.35Q-92.25 230.2 -95.05 228.6Q-100.8 225.2 -96.9 219.95Q-95.4 217.95 -92.65 219Q-89.35 220.25 -86 220.05L-84.55 219.55M-100.9,234.45L-100.45 232.95Q-99.55 231.5 -97.95 231.15L-96.75 230.9Q-91.85 230.2 -92.2 234.6Q-92.35 236.3 -94.05 236.95Q-98.45 238.65 -100.5 235.25L-100.9 234.6L-100.9 234.45" />
</g>
</svg>
