<?xml version="1.0" encoding="utf-8"?>
<svg version="1.1" id="Layer_1"
xmlns="http://www.w3.org/2000/svg"
xmlns:xlink="http://www.w3.org/1999/xlink"
width="17px" height="31px"
xml:space="preserve">
<g id="1021" transform="matrix(1, 0, 0, 1, 4.25, 11.05)">
<path style="fill:#FFFF00;fill-opacity:1" d="M7.9,-8.45Q8.55 -7.55 7.75 -7L7.65 -7.05Q7.55 -7.9 7.9 -8.45M1.3,-9.4Q1.25 -10.3 1.65 -11.05L1.7 -11.05Q2.3 -10.1 1.6 -9.45L1.3 -9.4M4.3,-6.75Q4.35 -7.6 4.85 -8.15Q5.55 -7.1 4.4 -6.55Q4.25 -6.5 4.3 -6.75M3.55,-2.8L3.6 -2.8Q4.5 -0.6 3.5 1.5L2.9 1.55Q1.85 0.6 2.65 -0.7L3.55 -2.8M0.95,-0.95Q2.15 0.3 0.95 1.05L0.75 1L0.55 0.85Q-0.35 -0.4 0.7 -1.55L0.95 -0.95M1.4,-3.2L1.1 -2.15L0.4 -2.1Q0.2 -2.35 0.25 -2.7Q0.4 -3.85 1.05 -4.65L1.4 -3.2M6.65,-2.55L6.4 -0.3Q6.35 0.25 5.7 0.35Q4.95 -0.7 5.85 -2L6.45 -2.65L6.65 -2.55M6.4,-3.65L6.4 -3.85Q6.7 -4.7 7.15 -5.35Q7.7 -4 6.4 -3.65M11.3,8.85L11.25 8.8Q11.2 8.05 11.4 7.3L11.5 7.25Q12.45 8.4 11.3 8.85M12.15,11.15L12.2 11.2Q12.8 12.7 11.8 13.5L11.55 13.45Q11 12.15 11.95 11.1L12.15 11.15M9.75,5.7Q9.6 4.85 10.2 4.15Q10.9 4.9 9.95 5.75L9.75 5.7M8.25,0.4Q7.9 -0.75 8.3 -1.5Q9.4 -0.4 8.6 0.5Q8.35 0.75 8.25 0.4M6.3,4.55Q6 4.6 6.1 4.2L6.9 2.8L7.15 2.85L7.2 2.9Q7.5 4.4 6.3 4.55M4.55,2.65L5.45 2.55Q5.55 4.25 3.65 3.75Q1.4 3.2 2 1Q2.45 1.85 3.35 1.95Q3.7 2 3.9 1.6Q4.3 0.65 5.15 0.05Q5.45 0.55 4.9 1.35Q4.5 1.95 4.55 2.65M0.15,5.9L-0.95 5.95Q-1.6 5.25 -1.4 4.25Q-1.25 3.2 -0.7 2.5L0.1 4.35Q0.45 5.15 0.15 5.9M2.2,8.55Q1.85 8.75 1.85 8.4Q1.85 7.25 2.75 6.6Q3.3 7.85 2.2 8.55M3,10.9Q3.8 11.55 3.55 12.6L3.5 12.65Q3.2 12.9 2.95 12.65L2.9 11.1L3 10.9M0.4,6.25Q0.5 5.45 1 4.95Q1.55 6.3 0.75 7.75Q0.1 8.9 -0.75 7.9Q-1.35 7.3 -0.6 6.8L0.15 6.5L0.4 6.25M7.95,7.1Q8.05 9 6.45 9.2Q6.15 9.25 6.25 8.9Q6.6 7.65 7.65 7L7.95 7.1M7.5,9.1L7.55 9.15Q7.75 11.65 5.8 12.9Q5.1 13.3 4.75 12.55Q4.2 11.3 5.25 11.15L5.75 11.05Q6.45 11 6.6 10.15Q6.7 9.45 7.3 9.05L7.5 9.1M6.1,7.45Q5.45 9 5.45 10.5Q5.45 10.65 5.25 10.6Q4.15 10.5 4.65 9.45Q5.2 8.25 5.9 7.3L6.05 7.4L6.1 7.45M7.7,17.5L8.2 17.65L8.25 17.7Q7.5 19.55 5.75 19.75Q5.15 19.8 5.15 19.2Q5.25 17.55 7.1 17.6L7.7 17.5M9.4,14.4Q10.2 16.2 8.55 17Q8.25 17.2 8.15 16.85Q7.9 16.2 8.3 15.55L9.4 14.4M0.8,13.1Q1.05 12.25 1.85 11.85Q2.8 13.8 1.5 15.45L1.2 15.4Q0.35 14.5 0.8 13.1M1,16.35L1.2 15.75L1.35 15.65Q2.75 17.75 0.6 19.7Q0.1 20.15 -0.3 19.85L-0.35 19.85Q-1.5 19.8 -1.5 18.45Q-1.45 16.55 -0.55 15Q0.4 16.25 0.5 17.6Q0.6 17 1 16.35M-2,-1.25Q-1.6 -0.55 -1.75 0.25L-1.8 0.3Q-2.5 -0.25 -2.05 -1.2L-2 -1.25M-1.4,-2.4L-1.6 -2.55Q-1.7 -3.4 -1.25 -3.9Q-0.3 -2.85 -1.4 -2.4M-3.75,4.65Q-2.65 5.85 -3.35 7.15Q-3.45 7.35 -3.65 7.15Q-4.45 6.4 -4.15 5.2Q-4.05 4.8 -3.75 4.65M-1.4,11.8L-1.6 11.75Q-2.15 10.7 -1.7 9.75Q-0.75 10.85 -1.4 11.8M-2.6,14.5Q-3.5 12.95 -2.9 11.45Q-2.4 13 -1.25 14.4Q-1.1 14.65 -1.35 14.8Q-2.1 15.4 -2.6 14.5" />
</g>
</svg>
