<?xml version="1.0" encoding="utf-8"?>
<svg version="1.1" id="Layer_1"
xmlns="http://www.w3.org/2000/svg"
xmlns:xlink="http://www.w3.org/1999/xlink"
width="40px" height="7px"
xml:space="preserve">
<g id="722" transform="matrix(1, 0, 0, 1, -11.95, -15.4)">
<path style="fill:#000000;fill-opacity:0.498039" d="M41.3,21.35L29.4 22L17.3 21.55Q12.35 21.1 12.35 20.35Q12.35 19.6 17.3 18.95L29.4 18.3L41.3 18.75Q46.25 19.25 46.25 20Q46.25 20.75 41.3 21.35M46.75,19.55L47.05 19.2L47.55 19L49.35 18.75L51.15 19.1Q51.85 19.4 51.85 19.75L51.85 19.85L51.15 20.3L50.65 20.45L49.35 20.5L47.55 20.2Q47.05 20.1 46.8 19.85L46.75 19.55" />
<path style="fill:#000000;fill-opacity:1" d="M49.55,17.95L51.15 18.15Q51.85 18.65 51.95 19.55L51.9 19.7L49.95 19.9L47.7 19.35L47.7 19.3L47.6 18.95Q47.6 18.6 47.75 18.35L47.9 18.1L47.95 18.1L48.7 18.1L49.55 17.95M45.85,19.85L38.75 20.3L33.3 20.85L28.4 20.25L28.1 20.1L28.1 18.85Q28.2 18.35 28.55 18Q29.1 17.45 29.8 17.2L30.25 16.4Q30.5 15.95 30.9 15.65L31.4 15.4L31.9 15.7L32.3 16.15L32.35 16.25Q33.95 16 35.7 16.75L36.05 16.75Q38.3 16.15 40.4 17.5L41.45 18.1Q43.7 17.25 45.35 18.75Q45.8 19.2 45.85 19.85M21.95,18.05L23.95 17.45Q25.3 17.25 26.3 18.15Q27.35 19.05 27.35 20.35L27.3 20.45L25.6 20.2Q24.55 19.5 23.3 19.35Q21 21.1 17.85 20.75L14.9 20.7L12 20.6L12 20.55L11.95 20.2L11.95 19.85L12 19.45L12.05 19.4L17.85 18.8L18.2 18.75L20.9 18.35L21.95 18.05" />
</g>
</svg>
