<?xml version="1.0" encoding="utf-8"?>
<svg version="1.1" id="Layer_1"
xmlns="http://www.w3.org/2000/svg"
xmlns:xlink="http://www.w3.org/1999/xlink"
width="16px" height="11px"
xml:space="preserve">
<g id="860" transform="matrix(1, 0, 0, 1, -54.85, 13.25)">
<path style="fill:#0E0E0E;fill-opacity:1" d="M58.65,-11.85Q58.65 -14.6 62.35 -11.95Q66.05 -9.25 66.05 -8.15Q66.05 -6.55 64.85 -6Q62.2 -4.85 60 -3L59.65 -3.65L59.6 -4.15L58.6 -4.2Q58.15 -4.2 58 -5.25L57.75 -6.75L57 -6.65Q55.6 -6.65 55.1 -8Q54.85 -8.65 54.85 -9.5Q54.85 -11.75 56.95 -11.85Q58.2 -11.95 58.7 -11.45L58.65 -11.85M70.4,-9.65Q70 -9.15 68.3 -9.15Q66.6 -9.15 65.9 -10.2L65.55 -11.15Q65.55 -12.85 68.1 -13.1Q70.6 -13.35 70.6 -10.75L70.4 -9.65" />
</g>
</svg>
