<?xml version="1.0" encoding="utf-8"?>
<svg version="1.1" id="Layer_1"
xmlns="http://www.w3.org/2000/svg"
xmlns:xlink="http://www.w3.org/1999/xlink"
width="23px" height="21px"
xml:space="preserve">
<g id="703" transform="matrix(1, 0, 0, 1, -4.3, -0.5)">
<path style="fill:#000000;fill-opacity:0.498039" d="M26.9,19.25Q26.9 20 24.55 20.55Q22.5 21.05 19.4 18.6Q20.95 17.75 22.55 17.8L25.6 18.15Q26.9 18.5 26.9 19.25M14.1,17.95Q15.9 17.45 18.55 18.4Q16.05 21.05 14.1 20.55Q12.1 20 12.1 19.25Q12.1 18.5 14.1 17.95" />
<path style="fill:#000000;fill-opacity:1" d="M20.7,3.7Q20.15 2.8 20.75 1.95Q21.65 0.7 23.2 0.5Q26.4 0.65 25.25 3.4L24.65 4.15Q23.7 4.9 22.95 5.05Q23.5 5.35 24.1 5.95L25.45 7.3L27.25 9.8L24.8 9.85Q24.1 8.7 23 7.8Q21.9 9.95 21.1 12.25Q20.95 12.55 21.2 12.85L24.1 17.05L24.1 17.6Q22.85 19.7 20.75 19.2Q20.7 18.8 20.9 18.45L21.35 17.55L21.35 17.5L17.95 12.65Q17.45 11.9 18.1 11.15Q20.4 8.45 21.05 5L21.1 4.3L20.7 3.7M16.25,3.85L18.05 3.9Q18.65 3.9 19.2 4.25L19.2 4.65L17.55 7.05Q16.6 8.15 15.95 9.35L16.1 9.75Q16.35 11.1 16.05 12.2L15.7 12.8Q14.8 13.65 14.05 14.65L14.85 15.55Q16.5 16.9 15.7 18.35L15.3 18.95Q14.3 20 13.05 19.55L13.05 19.35L13.05 19.3L13 19.1L13.1 18.45L13.55 17.85Q12.3 16.5 11.8 14.8Q11.65 14.25 12.1 13.85L13.2 12.7L12.5 12.05L12.4 11.5L11.3 10.15L10.95 9.15L7.75 6.4L6.45 5L4.3 3.45L4.4 2.9L4.75 2.45L4.85 2.4L4.9 2.45L4.95 2.4Q5.25 2.45 5.4 2.65L5.55 3.05Q7.7 4.5 9.5 6.4L11.2 8Q12.1 6.5 13.45 5.4Q14.45 4.55 15.6 3.9L16.25 3.85M14.35,7.95L14.4 7.55Q14.5 7.05 14.85 6.7Q14.8 6.55 14.7 6.75L14.6 6.8Q13.85 7.3 13.4 8.05L12.6 9L13.55 9.6L13.85 9.85L14.3 8L14.35 7.95M11.7,9.85L11.65 9.8L11.7 9.9L11.7 9.85M6.7,4.65L6.9 4.8L6.7 4.65" />
</g>
</svg>
