<?xml version="1.0" encoding="utf-8"?>
<svg version="1.1" id="Layer_1"
xmlns="http://www.w3.org/2000/svg"
xmlns:xlink="http://www.w3.org/1999/xlink"
width="20px" height="27px"
xml:space="preserve">
<g id="880" transform="matrix(1, 0, 0, 1, 4.7, 0.1)">
<path style="fill:#000000;fill-opacity:1" d="M6.9,0L7.85 -0.1Q8.8 0 9.25 0.95Q10.95 4.4 9.4 7.95L10.95 13.5L10.5 14.2L11.8 16.6L13.15 18.6Q14.9 20.7 14.6 23.1L12.35 24L11.65 20.95L10.8 19.4L10.15 19.1L8.9 17L8.4 19.55L9.95 21.45L10.3 22.15Q10.75 24.2 9.3 26.05L7.9 25.75L8 23.5L5.85 20.45L5.7 15.25L4.15 11.75Q2.65 12.5 1.1 12.35L0.2 12.05Q-1.15 11.7 -2.45 11.05L-4.35 11L-4.7 9.6Q-3.85 8.35 -2.35 8.8Q-1 9.25 0.15 9.95L2.05 10.05L4.5 9.1L3.8 8.5Q1.95 6.95 2.8 5.1Q3.85 3.8 5.4 3.95Q6.55 4.15 7.1 5.05Q7.85 6.25 7.35 7.6L7.85 7.75Q8.35 4.9 7.55 2.15L6.3 1.55L6.25 0.6L6.9 0" />
</g>
</svg>
