<?xml version="1.0" encoding="utf-8"?>
<svg version="1.1" id="Layer_1"
xmlns="http://www.w3.org/2000/svg"
xmlns:xlink="http://www.w3.org/1999/xlink"
width="77px" height="11px"
xml:space="preserve">
<g id="774" transform="matrix(1, 0, 0, 1, 7.65, -27.85)">
<path style="fill:#3A1D0F;fill-opacity:0.85098" d="M59.5,36.4Q61.85 34.45 62 31.15Q62.05 30.2 62.7 29.75Q63 31.5 62.6 33.85Q62.4 34.8 62.65 35.8L64.9 37.4L65.1 37.7L58.25 38.05L57.4 38.55Q56.6 38.95 55.85 38.55L56.95 37.95L54.9 37.7L57.6 37.55L58.8 36.75Q59.1 36.5 59.5 36.4M64.25,35.3L64.5 35L64.55 34.95Q64.9 34.55 65.45 34.45L66.4 34.4Q67.2 34.25 67.85 34.65L67.9 34.75L67.9 34.95L67.9 35L67.9 35.25L67.9 35.4L68.3 35.65L68.35 35.75L68.7 36.4L68.7 36.45Q66.45 36.85 64.45 35.7L64.25 35.3M12.35,36.1L17.15 35.55Q19 35.55 20.15 36.9L20.45 37.35Q10.65 38.9 0.5 37.15L-0.35 37.15L-7.65 37.5Q-5 37.15 -2.95 35.6L-3.1 35.55L-2.6 35.3L-2.55 35.25Q-2.15 34.9 -1.75 34.9L5.85 29.85L8.5 27.85Q8.45 28.95 7.55 30.25Q7.2 30.8 7.1 31.4L7.95 31.7L7.9 32.6L7.8 33.35Q10.3 33.9 11.55 31.5Q11.9 30.9 12.55 30.6Q15.6 29.25 18.05 30.95L18.15 31.5Q17.75 33 15.95 33.85Q13.9 34.85 11.9 33.9L12.3 34.9Q12.6 35.5 12.35 36.1M3,33.25L1.35 34.2L0.6 34.8Q2.7 36.1 3.55 34.15L3.65 33.45L3.4 33.3L3 33.25M26,36.4Q24.95 38.45 21.85 37.5Q20.8 37.15 20.55 36.05L20.6 36Q20.8 35.8 21.1 36L21.25 36.1L21.75 35.8Q22.45 35.25 23.25 35Q24.55 34.75 25.2 35.75L26 36.4" />
</g>
</svg>
