<?xml version="1.0" encoding="utf-8"?>
<svg version="1.1" id="Layer_1"
xmlns="http://www.w3.org/2000/svg"
xmlns:xlink="http://www.w3.org/1999/xlink"
width="82px" height="16px"
xml:space="preserve">
<g id="775" transform="matrix(1, 0, 0, 1, 8.6, -22.4)">
<path style="fill:#3A1D0F;fill-opacity:0.85098" d="M59.4,29.35L59.15 28.05L58.45 26.05L58.5 26Q58.8 25.75 59.15 25.75Q61.1 25.75 61.4 27.7L61.8 29.05Q61.45 29.9 60.4 29.45L59.4 29.35M60.25,35.35L60.4 35.3Q61 36.8 62.65 37.05Q63.6 37.2 64.15 37.75L53.55 37.45Q56.25 37.1 59.1 35.85L60.25 35.35M73.25,35.15Q70.45 35.35 67.9 34.25Q69.4 33.55 71.3 33.25L71.45 33.2Q72.75 33.05 73.05 34.2L73.25 35.15M64.85,27.3Q67.8 28.65 66.3 31.05L65.25 31.1Q64.35 30.25 64.35 28.7Q64.4 27.85 64.85 27.3M12.4,22.4L11.45 27.7Q11.15 28.95 10.5 30.05L13.15 30.25L11.55 31.95L11.05 32.25Q9.65 32.1 8.8 31.05L8.7 30.9L7.4 31.4Q8.7 31.95 8.85 33.7L9.2 35.5Q10.1 36.1 11.25 36.3Q11.55 36.35 11.65 36.6L12.95 36.85L14.1 37.35Q11.85 38.3 8.75 37.95Q4.15 37.45 -0.5 37.9Q-4.65 38.3 -8.6 38.05Q-4.05 35.7 1.25 35.2L2.5 34.9Q4.15 34.35 5.9 34.1L6.55 33.75Q6.05 33.05 5.2 33L4.2 32.8L2.45 32.9Q7.35 29.45 10.9 24.4L12.25 22.5L12.4 22.4M18.35,31.85L14.75 31.55Q14.25 30.55 14.75 29.65Q15.5 28.2 17.25 27.95Q21.3 28.05 20 31.2Q19.55 32.25 18.35 31.85M18.6,36.35L18.8 36.2L19.5 35.7L20.5 35.3Q22.65 35.1 24.4 35.95L26.2 36.7Q25.75 38 23.9 37.75L19.65 37.65Q17.5 37.95 17.8 36.4L17.95 36.35L18.15 36.45L18.2 36.5L18.2 36.6L18.25 36.6L18.6 36.35M27.65,33.2Q30.3 34 27.5 35.05L24.9 35.1Q25.35 34.35 26.15 33.75Q26.8 33.25 27.65 33.2" />
</g>
</svg>
