<?xml version="1.0" encoding="utf-8"?>
<svg version="1.1" id="Layer_1"
xmlns="http://www.w3.org/2000/svg"
xmlns:xlink="http://www.w3.org/1999/xlink"
width="33px" height="14px"
xml:space="preserve">
<g id="705" transform="matrix(1, 0, 0, 1, -2.85, -6.65)">
<path style="fill:#000000;fill-opacity:0.498039" d="M28,20.25Q20.2 20.4 21.95 18.55Q24.8 17.75 27.75 17.8L33.35 18.2Q35.7 18.55 35.7 19.3Q35.7 20.05 28 20.25M12.25,17.95Q14.8 17.45 18.55 18.4Q18.4 20.2 13.9 20.1L9.7 19.6L4.3 19.6L2.85 19.25Q2.85 18.95 5.3 18.65L9.9 18.65Q10.6 18.25 12.25 17.95" />
<path style="fill:#000000;fill-opacity:1" d="M31.6,6.65Q34.55 6.8 33.65 9.55Q33.1 11.05 31.65 10.35L32 10.95Q32.55 12.55 32.55 14.45Q32.6 16.15 31.05 17.45L30.9 17.55Q29.45 16.7 30.75 15.2Q31.2 14.7 31.2 13.9L31.1 12.15L28.05 13.65L25.9 14.35L25.45 14.4L25.3 14.4Q24.55 14.8 24.25 15.6L24.25 15.7L25.6 16.55Q26.45 17 26.7 17.85Q26.1 18.6 25.1 19L24.3 19.2Q23.55 19.4 23 18.9L23.05 18.5L23.4 18.3L23.75 18.1Q22.3 17.05 21.4 15.45Q21.1 14.95 21.7 14.55L22.15 14.3L22.95 13.6L24.2 12.65L24.65 12.5L28.2 10.1L29.55 9.2L30.5 9.35Q29.85 8.35 31.05 7L31.6 6.65M13.2,10.85L13.65 10.65L16.2 10.95L18.3 11.55L18.35 11.5Q20.45 11.5 19.75 12.95Q19.15 14.1 17.8 14.6Q15.25 15.45 13.15 17.05L13.1 17.1Q14.6 16.8 15.85 17.55Q16.8 18.2 17.15 19.2L13.95 19.05L12.75 18.8Q11.05 18.85 9.9 17.55L9.9 17.5L9.9 17.4L9.9 17.3L9.9 17.15Q11.55 15.75 12.75 14L13.35 13.4L11.45 13.7L4.55 14.9L3.05 15.05L2.95 14.65L2.9 14.3L3.15 14L3.3 14.05L10.8 12.7L10.85 12.65L11.95 11.85L13.2 10.85" />
</g>
</svg>
