<?xml version="1.0" encoding="utf-8"?>
<svg version="1.1" id="Layer_1"
xmlns="http://www.w3.org/2000/svg"
xmlns:xlink="http://www.w3.org/1999/xlink"
width="45px" height="25px"
xml:space="preserve">
<g id="947" transform="matrix(1, 0, 0, 1, 28.15, 10.8)">
<path style="fill:#BD8051;fill-opacity:1" d="M8.15,-9.6L7.95 -9.25L7.3 -9.3L7.1 -9.55Q6.95 -9.85 7.1 -10L7.4 -10.35L7.75 -10.3L8.15 -10.1L8.15 -9.6M9.45,-9.9L9.8 -9.55L9.8 -9.2L9.45 -8.95Q9.25 -8.8 9.05 -8.95Q8.8 -8.9 8.85 -9.05Q8.6 -9.35 8.7 -9.6L9.1 -9.9L9.45 -9.9M4.95,-4.65L5.15 -6.3Q0.25 -8.4 -3.75 -8.9L-4.65 -9.4L-4.3 -10.25L-2.5 -10.3L-2.25 -9.65L-2.2 -9.6L1.85 -8.3L4.2 -9.45L4.75 -9.35L2.5 -7.85L5.5 -6.75L6.25 -7.8L11.2 -7.6L13.05 -7.6L12.95 -7.2L12.75 -7L6.65 -7.2L6.05 -6.5L5.8 -4.65L4.95 -4.65M12.75,1.8L12.2 1.95L12.2 1.4L11.9 1.25L11.9 1.05L11.5 0.9L11.6 -1.4L12.35 -1.4L12.75 1.8M-5.7,-0.9L-8.1 -0.1L-7.55 -0.55L-4.9 -1.85L-4.45 0.3L-4.75 0.35L-5.7 -0.9M2.75,-1.3L2.65 -1.15L2.05 -1.4L2.1 -1.55L2.75 -1.3M10.45,2.8L7.25 2.6L6.85 2.8L6.7 2.8Q5.55 3.45 4.9 4.65Q4.55 5.45 4.55 6.8L8.45 5.95L11.1 3.05Q10.8 2.85 10.45 2.8M11.3,2.6L12.55 3.85L13.05 4.85Q13.75 6.7 12.9 8.45Q12.05 10.3 10.2 10.9L6.65 10.7Q5.35 10.1 4.75 9.05L4.2 8Q3.6 6.2 4.4 4.45Q5.2 2.65 7.05 2.05L10.7 2.2L11.3 2.6M10.35,5.35L12.15 4.9L11.35 3.8L10.35 5.35M12.8,5.65L8.75 6.5L6.5 9.85Q6.3 9.9 6.85 10.2L10.1 10.4Q11.7 9.8 12.4 8.25Q13 7 12.8 5.65M6.75,4L6.75 3.8L8.25 3.3L8.3 3.9L6.75 4M7.15,7.25L5 7.45L6.15 8.95L7.15 7.25M-25.65,8.85L-25.45 8.35L-20.35 6.95L-20.85 4.8L-19.75 4.8L-19.25 6.65L-18 6.4L-17.7 6.4L-17.7 6.35L-18 4.45L-16.95 4.5L-16.6 6.1L-16.65 6.15L-16.5 7.5L-17.55 7.8L-17.65 6.4L-19.1 6.85L-18.95 7.6L-20.15 8L-20.35 7.25L-24.9 8.65L-25.3 10.05L-25.45 9.5L-25.65 8.85M-25.8,6.7Q-26.6 7.35 -26.7 8.25Q-26.9 9.25 -26.35 10.05L-25.45 10.75L-25.2 10.05L-24.7 10.3L-24.9 10.7L-23.9 10.6L-24.15 10.3L-23.6 10.2L-23.35 10.7L-23.1 10.65L-22.35 9.9L-22.05 9.8L-23 10.85Q-23.8 11.45 -24.9 11.3Q-26.05 11.05 -26.6 10.2Q-27.25 9.3 -27 8.25Q-26.8 7.15 -25.95 6.5Q-25.1 5.9 -24 6.05Q-22.95 6.3 -22.35 7.05L-22.65 7.15L-23.65 6.4L-24 7.55L-25.05 7.8L-25.5 6.55L-25.8 6.7M-24.5,7.55L-24.15 6.5L-25 6.6L-24.5 7.55" />
<path style="fill:#0B0B0B;fill-opacity:1" d="M8.15,-10.1L7.75 -10.3L7.4 -10.35L7.1 -10Q6.95 -9.85 7.1 -9.55L7.3 -9.3L7.95 -9.25L8.15 -9.6L8.15 -10.1M9.1,-9.9L8.7 -9.6Q8.6 -9.35 8.85 -9.05Q8.8 -8.9 9.05 -8.95Q9.25 -8.8 9.45 -8.95L9.8 -9.2L9.8 -9.55L9.45 -9.9L9.1 -9.9M9.05,-4.5L5.8 -4.65L6.05 -6.5L6.65 -7.2L12.75 -7L9.05 -4.5M5.4,-9.3Q10.6 -13 11.2 -7.6L6.25 -7.8L5.5 -6.75L2.5 -7.85L4.75 -9.35L5.4 -9.3M4.2,-9.45L1.85 -8.3L-2.2 -9.6L4.2 -9.45M-3.75,-8.9Q0.25 -8.4 5.15 -6.3L4.95 -4.65L1.95 -4.55L1.9 -4.8L-0.7 -4.95L-1.3 -6.25L-3.9 -6.5L-3.9 -7.25L-5.8 -7.35L-5.75 -9.15L-3.75 -8.9M11.95,2L12.2 1.95L12.75 1.8L12.35 -1.4L12.3 -1.8L15.25 -4.75L15 -3.25L15.9 -2L14.75 -0.8L15.1 2.7L14.15 3.55L14.25 3.6L14.7 5L14.15 5.65L15 6.05L14.9 7.65L14.15 7.95L14.4 8.35L13.7 9.7L13.05 9.7L13.3 10.65L12.1 11.6L11.7 11.45L11.65 12.05L10.1 12.6L9.75 12.2L9.2 12.9L7.7 12.85L7.35 11.85L6.45 12.55L5.05 11.85L5.05 11.2L4.3 11.3L3.3 10.15L3.65 9.35L3 9.65L3.1 10.65L-1.05 12.05L-4.85 13.35L-5.85 9.75L-5.35 9.45L-5.9 9.5L-6.85 6.2L-2.4 3.15L-2.75 1.1L-7.25 5.1L-7.75 3.2L-4.3 0.25L-4.45 0.3L-4.9 -1.85L-7.55 -0.55L-1.8 -5.45L1.55 -2.05L-0.25 -1.35L-1.35 -2.5L-1.85 -1.7L-1.3 -0.95L2.15 -0.45L2.2 -0.6L2.2 -0.7L5.35 -0.25L9.3 -2.3L9.45 -2.25L9.45 -1.4L11 -1.65L11.15 0.7L11.5 0.9L11.9 1.05L11.9 1.25L11.95 2M-4.75,0.35L-8.25 1.75L-8.7 0.5L-8.1 -0.1L-5.7 -0.9L-4.75 0.35M11.1,3.05L8.45 5.95L4.55 6.8Q4.55 5.45 4.9 4.65Q5.55 3.45 6.7 2.8L6.85 2.8L7.25 2.6L10.45 2.8Q10.8 2.85 11.1 3.05M10.7,2.2L7.05 2.05Q5.2 2.65 4.4 4.45Q3.6 6.2 4.2 8L4.75 9.05Q5.35 10.1 6.65 10.7L10.2 10.9Q12.05 10.3 12.9 8.45Q13.75 6.7 13.05 4.85L12.55 3.85L11.3 2.6L10.7 2.2M11.35,3.8L12.15 4.9L10.35 5.35L11.35 3.8M12.4,8.25Q11.7 9.8 10.1 10.4L6.85 10.2Q6.3 9.9 6.5 9.85L8.75 6.5L12.8 5.65Q13 7 12.4 8.25M6.7,4.05L6.8 5.05L7.9 5.2L8 5.2L9.3 3.95L8.3 3.9L8.25 3.3L6.75 3.8L6.75 4L6.7 4.05M1.55,1.4L-0.85 0.75L-0.9 2.75L0.95 3.2L1.55 1.4M7.75,9.6Q11.05 9.9 12 6.75L9.75 7.2L9.7 7.4L9.05 7.55L7.75 9.6M6.15,8.95L5 7.45L7.15 7.25L6.15 8.95M-9.9,11.9L-11.2 11.6L-12.15 12.35L-13.95 11.9L-13.85 10.3L-16.05 9.6L-15.75 8.15L-21.05 9.45L-21.1 9.6L-21.4 9.7L-21.15 10.25L-21.6 10.9L-22.25 10.85L-22.15 11.4L-22.85 11.95L-23.2 11.7L-23.25 12.05L-24.1 12.25L-24.4 11.8L-24.7 12.2L-25.55 12.05L-25.6 11.65L-26.05 11.9L-26.7 11.4L-26.7 11L-27.3 11.15L-27.85 10.4L-27.55 10L-28 9.85L-28.15 9.05L-27.65 8.7L-28.05 8.4L-27.85 7.5L-27.35 7.4L-27.6 7.05L-27.15 6.3L-26.85 6.35L-26.95 6.05L-26.15 5.55L-25.75 5.75L-25.6 5.35L-24.75 5.15L-24.55 5.45L-24.3 5.1L-23.45 5.25L-23.3 3.65L-16.7 2L-12.25 3.2L-10.5 2.85L-9.75 10.4L-9.9 11.9M-1.45,8.8L0.4 7.65L-2.45 8.15L-1.05 12.05L-1.45 8.8M-4.25,7.6L-3.6 6.15L-5.95 7.85L-4.25 7.6M-25.35,8.3L-25.75 7.15Q-26.9 8.8 -25.65 10.2L-25.45 9.5L-25.3 10.05L-24.9 8.65L-20.35 7.25L-20.15 8L-18.95 7.6L-19.1 6.85L-17.65 6.4L-17.55 7.8L-16.5 7.5L-16.65 6.15L-16.6 6.1L-16.95 4.5L-18 4.45L-17.7 6.35L-17.7 6.4L-18 6.4L-19.25 6.65L-19.75 4.8L-20.85 4.8L-20.35 6.95L-25.45 8.35L-25.35 8.3M-25.5,6.55L-25.05 7.8L-24 7.55L-23.65 6.4L-22.65 7.15L-22.35 7.05Q-22.95 6.3 -24 6.05Q-25.1 5.9 -25.95 6.5Q-26.8 7.15 -27 8.25Q-27.25 9.3 -26.6 10.2Q-26.05 11.05 -24.9 11.3Q-23.8 11.45 -23 10.85L-22.05 9.8L-22.35 9.9L-23.1 10.65L-23.35 10.7L-23.6 10.2L-24.15 10.3L-23.9 10.6L-24.9 10.7L-24.7 10.3L-25.2 10.05L-25.45 10.75L-26.35 10.05Q-26.9 9.25 -26.7 8.25Q-26.6 7.35 -25.8 6.7L-25.5 6.55M-21.65,6.85L-20.85 6.55L-21.8 6.65L-21.65 6.85M-25,6.6L-24.15 6.5L-24.5 7.55L-25 6.6M-23.15,7.35L-23.35 7.05L-23.4 7.35L-23.15 7.35" />
</g>
</svg>
