<?xml version="1.0" encoding="utf-8"?>
<svg version="1.1" id="Layer_1"
xmlns="http://www.w3.org/2000/svg"
xmlns:xlink="http://www.w3.org/1999/xlink"
width="48px" height="39px"
xml:space="preserve">
<g id="1550" transform="matrix(1, 0, 0, 1, 20, 24.8)">
<path style="fill:#333333;fill-opacity:0.498039" d="M15.55,-14.4Q15.55 -16.6 17.2 -16.4L21.8 -15.65Q23.6 -15.65 23.65 -14.35L23.4 -13.75L23.1 -13.15Q23.1 -12.95 25.4 -11.5Q27.65 -10.05 27.65 -8.75L27.6 -7.85Q27.4 -7.35 26.6 -6.95L25 -6.95Q24 -7.45 23.8 -8.45Q23.55 -9.6 23.1 -10.05L21.4 -10.15L20.75 -10.7Q19.1 -10.7 16.9 -8.7Q14.65 -6.75 11.1 -6.75Q9.95 -6.75 9.75 -7.35L9.75 -7.95L9.8 -8.75L10.6 -9.25L12 -9.25L13.15 -8.5Q14.2 -8.5 14.75 -9.2L15.35 -10.05L16.7 -10.75L16.95 -11.5Q16.95 -12.05 16.25 -12.75Q15.55 -13.45 15.55 -14.4M14.7,-21.15L14.15 -20.2Q13.75 -19.45 13.2 -19.45Q11.8 -19.45 11.8 -20.35Q11.8 -21.2 12.3 -21.7Q13.1 -22.5 14.7 -21.15M6.65,-20.85Q6 -20.1 3.85 -19.75L3.05 -18.75Q2.45 -18.05 1.7 -18.05Q0.35 -18.05 0.2 -19.1L0.25 -20.3Q-0.4 -21.6 -1.1 -21.9Q-1.55 -22.1 -1.55 -22.6L-1.45 -23.6L0 -24.75L1.2 -24.75Q1.7 -24.25 2.2 -24.25Q3.55 -24.25 5.6 -24.8Q7 -24.85 7 -22.4Q7 -21.3 6.65 -20.85M20.7,9.6Q20.15 10 19.6 10Q18.25 10 17.8 8.95L17.6 7.9Q17.6 6.8 18.7 6.45Q20.2 6 20.5 5.65Q19.6 4.75 19.6 4.3Q19.6 1.6 23.3 1.8Q27 2 27 4.8Q27 7.25 25.45 8.1L23.4 8.25Q22.3 8.1 21.45 8.9L20.7 9.6M4.7,11Q5.55 11.1 5.55 11.95Q5.55 12.75 5 12.75Q4.1 12.75 3.85 12.2L3.8 11.65Q3.8 10.9 4.7 11M11.15,13.75L10.6 13.95Q9.75 13.95 9.75 12.95Q10.25 12.55 10.85 12.45Q11.55 12.35 11.55 13Q11.55 13.5 11.15 13.75M-6.1,-20.6Q-7.15 -20.6 -7.15 -21.4Q-7.15 -22.75 -6.15 -22.6Q-5.2 -22.4 -5.2 -21.6Q-5.2 -20.6 -6.1 -20.6M-17.2,-15.05L-18.4 -15.05L-18.9 -15.45L-18.95 -15.9Q-18.95 -17 -17.55 -17.45Q-16.2 -17.9 -16.2 -17Q-16.2 -15.05 -17.2 -15.05M-14.6,-12.8Q-14.15 -12.55 -14.15 -12.15L-14.2 -11.5Q-11.8 -11.3 -11.8 -9.3L-12 -8.4Q-12.3 -7.9 -13.4 -7.5L-13.15 -6.55L-9.4 -6.2Q-9 -6.05 -9 -5.55Q-9 -5.05 -9.8 -4Q-10.7 -2.8 -11.5 -2.8Q-12.15 -2.8 -13.05 -3.7L-14.55 -3.7L-15.6 -2.95Q-16.3 -2.4 -17.1 -2.4Q-18.6 -2.4 -19.05 -3.3L-19.2 -4.5L-18.8 -6.5L-20 -8.9Q-20 -9.9 -19.8 -10.1Q-19.25 -10.7 -16.7 -11.25L-16.8 -11.3L-17.25 -11.35L-17.35 -11.8L-16.8 -12.45L-14.6 -12.8" />
</g>
</svg>
