<?xml version="1.0" encoding="utf-8"?>
<svg version="1.1" id="Layer_1"
xmlns="http://www.w3.org/2000/svg"
xmlns:xlink="http://www.w3.org/1999/xlink"
width="24px" height="19px"
xml:space="preserve">
<g id="1253" transform="matrix(1, 0, 0, 1, 2.8, 2.2)">
<path style="fill:#7EF0FF;fill-opacity:1" d="M3.35,-1.3Q2.7 -0.95 2.7 -0.6Q2.7 -0.35 3.3 -0.1L3.9 0.35L2.9 1.4L3.95 1.95L4.35 2.55Q4.35 3.75 1.85 5.45L2.55 5.85L4.15 6L4.35 6.3L3 7.4Q1.65 8.3 1.65 8.9Q1.65 9.5 2.25 9.6L4.9 9.65Q5.5 9.65 5.35 10.05L4.8 11.05L4.65 11.75L4.9 11.55L5.6 11.4Q6.2 11.4 8.15 12.7L7.85 11.35L8.3 10.25Q8.85 9.3 9.25 9.3Q9.8 9.3 10.85 10.2L11.1 10.4L11.7 10.4Q12.6 10.6 12.65 11.05L12.9 10.55Q12.9 9.95 13.05 9.75Q13.3 9.4 14.3 9.35L15.6 9.35L14.45 8.35Q14.45 7.8 14.7 7.6L16 6.75Q15.75 6.35 15.3 6.3L14.8 5.85Q14.9 5.15 14.65 5L13.1 4.25Q12.45 4 12.45 3.6Q12.45 2.95 14.2 2.35Q15.9 1.7 15.9 1.05L15.7 0.45L15.9 0.05L16.1 -0.25Q16.1 -0.7 15.45 -0.7Q15.1 -0.7 14.25 0.25Q13.4 1.15 12.85 1.15Q11.8 1.15 11.45 0.05Q11.3 -0.5 11.3 -1.1Q11.3 -1.65 10.1 -1.65Q9.15 -1.65 8.3 -0.6Q7.6 0.25 7.6 0.55L8.4 0.75Q9.15 1 9.15 2.3L9.35 4.25L9.05 4.7Q8.7 5 8.7 5.45Q8.45 5.45 8.45 5.15L8.9 4.4L8.7 2.25Q8.7 1.45 7.9 1.3Q7.1 1.15 7.1 0.6Q7.1 -0.05 8.15 -1.15Q9.35 -2.4 10.55 -2.15Q11.45 -1.8 11.85 -0.55Q12.15 0.6 12.85 0.6Q13.15 0.6 14.05 -0.3L15.35 -1.25Q16.6 -1.25 16.6 -0.25Q16.6 1.45 14.85 2.55Q13.05 3.35 13.05 3.6Q13.05 4 14.15 4.3Q15.25 4.6 15.4 5.15Q15.5 5.65 16.15 5.95Q16.75 6.3 16.75 6.7L16.05 7.5L15.1 8.2L16.2 9.05Q17.3 9.75 18.05 9.75L20.05 9Q20.3 9 20.4 9.3Q19.3 10.4 18 10.4Q17.2 10.4 16.2 9.8L14.85 9.9Q13.4 9.85 13.4 10.7Q13.4 11.65 12.3 11.65L11.4 12.3Q10.15 13.1 10.15 13.55Q10.15 13.8 11.8 14.55Q13.85 15.4 14.35 15.8L13.9 15.9Q11.45 15.9 9.7 13.55Q9.7 12.7 11 11.95L11.75 11.5L10.9 10.95L11.1 11.2L10.8 11.2L10.75 10.95L10.75 10.8Q9.85 9.95 9.25 9.95Q9.05 9.95 8.75 10.65L8.45 11.35L8.7 12.45L8.7 13.4L8.4 13.45L5.65 11.95L4.65 12.25L4.85 12.7L4.35 12.75L4.35 12.4L3.1 12.7L2.85 13.2L3.85 15.1Q3.85 15.5 3.15 15.5L1.5 15.1Q0.45 14.65 0.45 14.3Q0.45 13.85 0.9 13.6L1.05 14.1Q1.05 14.5 2.95 14.95L2.6 14Q2.3 13.5 2.3 13.2Q2.3 12.45 2.95 12.1Q3.75 11.6 3.95 11.7L4.3 11.8L4.65 10.3L4.7 10.25L3.5 10.35Q2.1 10.35 1.5 9.65L1.15 8.9Q1.15 8.35 1.95 7.6Q2.75 6.85 3.65 6.45L1.3 5.8L0.65 5.55L-0.8 4.65L-1.5 3.55L-2.2 3.1L-2.8 2.55L-0.95 2.35L-0.05 2.15L-1.3 2.8L-0.8 3.7L-0.1 4.55L1.15 5.15L1.45 5.25L1.6 5.2Q2.1 5.2 3.9 2.6Q3.9 2.4 3.05 2.05L2.2 1.45L2.45 1.05L3.1 0.4L2.4 -0.2Q2.1 -0.4 2.1 -0.65Q2.1 -1.15 3 -1.5L4.55 -2L3.35 -1.3M11.4,10.6L12.25 11.05L11.95 10.75L11.65 10.6L11.4 10.6" />
</g>
</svg>
