<?xml version="1.0" encoding="utf-8"?>
<svg version="1.1" id="Layer_1"
xmlns="http://www.w3.org/2000/svg"
xmlns:xlink="http://www.w3.org/1999/xlink"
width="36px" height="34px"
xml:space="preserve">
<g id="1585" transform="matrix(1, 0, 0, 1, -5.8, -5.1)">
<path style="fill:#FF0100;fill-opacity:1" d="M41.6,13.8L41.65 13.8L41.75 14L41.7 14.2Q40.55 14.1 40.45 15.5L40.55 17.25Q40.7 18.1 39.85 17.95Q40.65 17.15 40.2 15.9Q39.85 14.75 40.85 14L41.3 13.75L41.6 13.8M33.25,5.6Q33.35 6 32.5 6.4Q30.9 7.05 29.55 8Q28.8 8.45 28.45 9.35L28.15 10.75Q27.75 7.75 30.95 6.8L33.25 5.6M32.8,9.35Q32.7 9.6 33 9.7Q33.45 9.8 33.7 10.05Q31.9 10.15 32.65 8.5L33.1 7.8L32.8 9.35M22.95,7.8L22.75 7.55Q21.15 6.4 22.9 5.1L22.4 6.45Q22.25 6.8 22.55 7.15L22.55 6.95Q24.35 8.2 22.55 9.55L21.95 9.7L23.05 8L22.95 7.8M25.4,22.5L28.15 25.15L28.2 25.1L30.55 25.75L30.9 25.8L30.95 25.8L30.8 25.85Q33.4 26.7 32.35 29.2Q32.7 26.85 30.7 25.85Q29.3 26.1 28.3 25.3L28.65 25.65Q26.6 24.4 25.35 22.5L25.4 22.5M39.5,23.75Q36.7 23.8 37.25 26.3Q37.7 28.55 37.35 30.65Q37.15 31.6 36.6 32.05Q37.75 28.85 36.8 25.4Q36.7 25.05 36.95 24.7Q37.95 22.95 40.15 23.35Q40.55 23.75 39.5 23.75M13.65,16.85Q14.85 18.2 14.65 19.8L14.3 20.15Q13.1 20.35 12.7 19.5Q13.8 20.05 14.4 19.2L14.35 18.95Q13.8 17.85 13.65 16.85M13.55,34.25Q16.2 36.45 19.1 34.55L19.1 34.6Q17.5 36.6 14.95 35.35L14.25 35Q13.1 34.45 11.95 34.55Q12.6 34.05 13.55 34.25M6.85,30.85Q7.8 31.9 7.8 33.45L8 33.75Q9 34.2 9.85 34.75Q7.15 34.75 7.1 32.3Q7.1 31.05 6.05 30.15Q5.75 29.9 5.8 29.55Q5.85 28.25 6.85 27.4Q5.9 28.75 6.45 30.2L6.85 30.85M27.7,33.35Q27.25 33.7 27.5 34.1Q28.35 35.4 27.9 36.7Q27.55 37.75 26.7 38.15Q28.15 36.85 27.4 35.35Q26.95 34.45 27.2 33.5Q27.4 32.7 28.2 32.55Q28.4 32.85 27.7 33.35" />
</g>
</svg>
