<?xml version="1.0" encoding="utf-8"?>
<svg version="1.1" id="Layer_1"
xmlns="http://www.w3.org/2000/svg"
xmlns:xlink="http://www.w3.org/1999/xlink"
width="40px" height="18px"
xml:space="preserve">
<g id="1079" transform="matrix(1, 0, 0, 1, 18.2, 18.25)">
<path style="fill:#3A3A3A;fill-opacity:1" d="M11.2,-17.2L11.6 -17.2Q12.55 -16.9 12.8 -15.85L12.7 -15.25L12.7 -15.2L12.65 -15.2L12.6 -15.15L12.65 -15.1L12.35 -14.6L12.9 -14.75L13.25 -14.45Q14.1 -13.8 13.8 -12.65Q13.55 -11.65 12.55 -11.3L12.55 -11.25L13.2 -11.1L13.55 -11.1L13.6 -11.1L13.7 -11.1L13.8 -10.95L13.9 -10.85L14.05 -10.7L14.05 -10.6L14.1 -10.5L14.15 -10.4L14.25 -10.3L14.2 -10.3Q13.6 -9.3 12.45 -9.2L12.35 -9.25L11.6 -9.5L11.8 -10.2L11.7 -10.7L11.55 -10.85L11.4 -10.95L11.35 -11L11.1 -11.75Q10.7 -12.2 10.15 -12.25L10.1 -12.25L10 -12.2L9.95 -12.15L9.95 -12.05L10.05 -11.95L10.1 -11.95L10.1 -11.85L10.2 -11.7L10.3 -11.55L10.35 -11.45L10.4 -11.45L10.45 -11.4L10.55 -11.35L10.55 -11.1L10.7 -10.95L10.7 -10.75L10.7 -10.55L10.8 -10.4L11.05 -10.45L11.05 -10.4L11.15 -9.8L11.1 -9.35L11.2 -9.3L11.2 -9.25Q11.65 -8.7 12.25 -8.65L12.3 -8.55L12.3 -8.5L12.2 -8.5L11.3 -8.45L11.35 -8.35L12.05 -7.75Q12.65 -7.25 12.6 -6.4L12.25 -5.3L12.2 -5.3L12 -5.25L11.95 -5.25L11.9 -5.1Q11.9 -3.8 10.85 -3.1L10.55 -3.15L10.5 -3.1L10.55 -2.95Q9.85 -2.75 9.2 -3.25L8.55 -3.9Q8.9 -4.85 8.55 -6L8.5 -6.05L8.4 -6.05L8.1 -6.6L8 -6.75L7.85 -6.85L7.75 -6.9L7.75 -7.25L7.3 -8.15L6.55 -8.5L6.6 -8.65Q6.75 -9.4 6.2 -9.8L5.8 -10.3Q5.5 -10.65 5 -10.7L4.05 -10.6L3.75 -10.5Q3.7 -11.05 3.3 -11.6L3.2 -11.5L3.25 -11.4L3.35 -11.3L3.3 -11L3.35 -10.7L3.45 -10.35L2.9 -9.6Q2.1 -9.1 1.25 -9.35L1.1 -9.65L1 -9.95L0.9 -10.25L0.8 -10.3L0.65 -10.25Q0.5 -9.8 0.7 -9.35L0.6 -9.15Q0.4 -8.45 0.65 -7.75L0.65 -7.7L0.8 -7.4L0.95 -6.55L0.95 -5.1L0.85 -5.3L0.75 -5.5L0.6 -5.65L0.5 -5.8L0.5 -5.85L0.2 -6L-0.2 -6.25L-0.7 -6.25L-0.75 -6.2L-0.85 -6.15L-0.95 -6.1L-1.05 -6.05L-1.1 -6L-1.1 -5.85L-0.9 -5.7Q-0.15 -5.5 -0.1 -4.75L-0.2 -3.75L-0.45 -3.3L-0.5 -3.3L-0.75 -3.2L-1 -3.25L-0.95 -3.5Q-0.7 -4 -0.85 -4.5L-1.35 -5.55Q-1.55 -5.9 -1.8 -5.75L-1.65 -5.25Q-1.45 -4.95 -1.55 -4.55L-1.6 -4.3L-1.7 -4.25L-1.8 -4.15L-1.9 -3.7Q-1.9 -3.3 -2.05 -3L-2.4 -2.45L-3 -2.7L-3.05 -2.65L-3.1 -2.65L-3.15 -2.6L-3.15 -2.55L-3.4 -2.8L-3.45 -2.8L-3.55 -3.1L-3.65 -3.25L-3.55 -3.45Q-3.2 -4.2 -3.75 -4.75L-3.8 -4.7L-3.85 -4.7L-3.9 -4.65Q-3.55 -4.15 -3.8 -3.65Q-4.15 -2.9 -4.8 -2.75L-5.05 -3.05L-5.8 -3.35L-6.95 -2.95L-7.1 -2.9L-6.95 -3.05Q-6.55 -3.5 -6.45 -4.05L-5.45 -4.25Q-4.7 -4.8 -4.45 -5.65Q-4.25 -6.55 -4.8 -7.05L-4.3 -7.75L-4.05 -8.5Q-3.45 -8.9 -3.35 -9.55L-2.85 -9.8L-2.1 -10.6L-1.9 -11.05L-1.75 -10.95Q-1.2 -10.6 -1.1 -9.95L-0.85 -9.05Q-0.55 -9.35 -0.65 -9.8L-1.1 -10.8L-1.85 -11.4L-1.85 -11.55L-1.9 -12.25L-2.1 -12.8L-2.15 -13L-1.65 -13.15Q-0.9 -13.05 -0.45 -12.5L0.05 -12.4L-0.15 -12.9Q-0.4 -13.25 -0.8 -13.4L-0.9 -14.2L-0.35 -15.2L0.55 -15.85L0.5 -15.95L0.4 -16Q0.35 -16.4 0.6 -16.8L1.15 -17.3Q2.4 -18.15 3.15 -17Q3.55 -16.35 3.15 -15.75L3.2 -15.7L3.35 -15.7Q3.7 -15.9 3.7 -16.35L3.45 -17.1L3.55 -17.3Q4.4 -18.4 5.45 -17.5Q5.8 -17.15 5.75 -16.65Q5.75 -16.1 5.4 -15.7L5.55 -15.6L5.95 -15.6L6.4 -15.25L6.65 -14.8L6.7 -14.65Q6.4 -14.2 6.35 -13.6L6.45 -13.25L6.4 -13.1L6.45 -11.9Q6.75 -11.05 7.55 -10.8L7.25 -10.8L7.7 -10.3Q8.3 -9.95 8.85 -10.45Q9.4 -10.95 9.1 -11.55L8.75 -11.15L8.2 -10.9L7.9 -10.85L7.8 -11.15L8.3 -11.3L8.25 -11.35L7.8 -11.95Q7.7 -12.15 7.75 -12.3L7.65 -12.95L7.5 -12.85L7.3 -12.25L7.25 -11.85L7.25 -11.75L6.95 -12.5L6.8 -13.25L7.05 -14.15Q7.35 -14.75 8 -15.05L8.8 -15.55L8.65 -15.65L8.25 -15.65L8.1 -15.6L8.1 -15.7L8.05 -15.85L8.05 -15.9L8.1 -15.95L8.15 -16.4L8.25 -16.75L8.45 -17.05L8.5 -17.15L9.2 -17.55L9.7 -17.65Q11.15 -17.55 10.8 -16.1L10.4 -15.6Q9.85 -15.35 10.05 -14.95Q10.7 -14.7 11.1 -15.2Q11.85 -16.05 11.3 -17.05L11.2 -17.2M4.65,-14.4L5.5 -14.75L5.55 -14.85L5.55 -14.95L5.55 -15L5.5 -15.05L5.4 -15.1L5.1 -15.1Q4.4 -15.05 3.9 -14.6Q3.55 -14.35 3.55 -14Q3.2 -13.95 2.9 -13.7L2.3 -12.9Q2.1 -12.3 2.55 -12.1L2.6 -12.1L2.65 -12L2.75 -11.95L2.8 -11.95L2.85 -12.05L2.85 -12.15L2.8 -12.25L2.75 -12.35L3 -12.75L3.45 -13.2L3.7 -13.35Q3.85 -13.15 4.15 -13.2L4.2 -13.35L4.15 -13.45L4.15 -13.55L4.4 -14.1L4.65 -14.4M3.85,-12.7L3.5 -12.4Q3.2 -11.85 3.6 -11.35Q4.2 -10.65 4.95 -10.75L4.6 -11.25L4.2 -12L4.1 -12.65L4.05 -12.65L4 -12.7L3.85 -12.7M6.05,-9.15L6.15 -8.85L6.1 -8.75L5.6 -8.15L5 -7.7L5.55 -7.65L5.7 -7.65L6.8 -7.6L7 -7.55L7.1 -7.5L7.25 -7.2L7.35 -6.95L7.35 -6.8L7.35 -6.7L7.4 -6.7L7.45 -6.65Q7.4 -6.45 7.5 -6.3Q7.8 -5.65 7.45 -5.05Q6.9 -4.15 6.05 -4.55L6.05 -4.6L6.05 -4.75L6.05 -4.85L6.05 -4.9L5.95 -4.95L5.9 -5L5.85 -5L5.5 -4.3Q5.15 -3.65 4.45 -3.9L4.4 -3.95L4.3 -4.05L4.25 -4.1L4.2 -4.25L4.15 -4.4L4.1 -4.5L3.9 -4.55L3.8 -4.5Q3.7 -4.3 3.4 -4.3Q2.9 -4.3 2.75 -4.7L2.35 -5.4L2.05 -5.5Q1.45 -5.55 1.6 -6.15Q1.9 -6.95 1.4 -7.7Q1.05 -8.25 1 -8.9Q1.55 -8.3 2.55 -8.5L3.35 -9.1L3.55 -9.45Q4.2 -10.35 5.3 -9.8L6.05 -9.25L6.05 -9.15M6.7,-7.1L6.7 -6.95L6.65 -6.9L6.6 -6.9L6.6 -6.65L6.5 -6.35L6.4 -6.1L6.1 -5.95L5.7 -5.7Q5.75 -5.5 5.95 -5.6L6.35 -5.6L6.7 -5.9L7.1 -6.5Q7.15 -6.95 6.85 -7.2L6.8 -7.15L6.75 -7.15L6.75 -7.1L6.7 -7.1M15.7,-11.15L15.85 -11.1L15.85 -11.05L15.9 -10.95L15.9 -10.9L15.9 -10.8L15.95 -10.75L16 -10.7L16 -10.65L16 -10.55L16.05 -10.5L16.1 -10.4L16.05 -10.25L16 -10.1L16 -9.95L16 -9.85L15.95 -9.8Q15.45 -9.2 15 -9.9L14.7 -10.2Q14.75 -10.9 15.55 -11.15L15.7 -11.15M18.35,-6.5L18.4 -6.6L18.6 -6.75L18.75 -6.85L19.05 -6.9L19.1 -6.95L19.15 -6.95L19.15 -7.05Q18.95 -7.15 19.15 -7.2L19.45 -7.3L19.65 -7.35L20.05 -7.3L20.2 -7.3L20.4 -7.25L20.4 -6.8Q20.5 -6.25 20.05 -6L19 -5.35L18.35 -5.75L18.15 -6.1L18.2 -6.2L18.25 -6.35L18.3 -6.45L18.35 -6.5M17.75,-6.2L17.75 -5.9L17.65 -5.45Q17.25 -5.1 16.6 -5.2Q16.4 -5.55 16.55 -5.95Q16.65 -6.3 17.05 -6.45L17.75 -6.55L17.75 -6.2M13.85,-9.05Q14.65 -8.9 14.7 -8.1L14.65 -7.7L14.55 -7L14.65 -7L14.65 -6.95L14.7 -6.9Q15.1 -6.3 14.9 -5.65Q14.7 -4.9 14 -4.5L14.1 -4.35L14.55 -3.85L14.8 -3.4L14.7 -3.25L14.65 -3.15L14.55 -3Q13.85 -3.1 13.4 -2.6L11.45 -2.55L11.45 -2.6L11.75 -2.7L12.25 -3.2L12.45 -3.65L13.1 -4.15L13.3 -4.9L13.35 -5.15L13.45 -5.3Q13.9 -6 13.75 -6.8L13 -7.95L13.15 -8.2L13.05 -8.55L12.95 -8.75L13.7 -9.05L13.85 -9.05M12.65,-1.8L12 -1.4Q11.5 -1.25 11.15 -1.7L11.2 -1.85L11.35 -2.1L11.35 -2.25L11.4 -2.25Q11.75 -1.95 12.2 -1.85L12.65 -1.8M-7.05,-16.4Q-6.3 -17.15 -5.15 -17Q-4.55 -16.9 -4.25 -16.3L-3.95 -15.7L-4.65 -15.95L-4.75 -15.9L-4.8 -15.85L-4.8 -15.8L-4.85 -15.8L-4.7 -15.75L-4.55 -15.55L-4.35 -15.3L-4.25 -15.1L-4.2 -15.05L-4.15 -15.05L-4.15 -15L-4.1 -14.95L-4 -14.55L-3.9 -14.15Q-3.85 -13.95 -3.95 -13.8L-4 -13.8L-4.3 -13.75L-4.3 -13.15L-4.25 -12.65L-4.15 -12.15L-4.3 -11.7L-4.6 -11.2L-4.95 -10.7L-5.2 -10.35L-5.15 -9.95L-5.2 -9.95L-4.95 -9.15Q-5 -8.5 -5.35 -7.9Q-5.65 -7.35 -6.2 -7.2L-6.45 -8.1L-6.7 -8.8Q-6.85 -9.3 -7.15 -9.1Q-6.9 -8.65 -7 -8.15L-7.35 -7L-7.8 -6.25L-7.9 -6.25L-7.95 -6.2L-8 -6.2L-8 -6.05L-8.05 -6L-8.05 -5.95L-7.8 -6.05L-5.9 -6.25L-5.25 -6.7L-5.15 -6.75L-5.15 -6.7L-5.1 -6.5L-5.1 -6.4L-5.15 -6.25Q-5.25 -5.75 -5.65 -5.35Q-6.2 -4.8 -6.95 -4.5L-6.85 -4.3L-6.75 -4.25Q-6.7 -3.75 -7.05 -3.35Q-7.55 -2.8 -8.2 -2.85L-8.3 -2.95L-8.5 -3.25L-9.2 -3.7L-9.65 -3.9L-9.7 -4.15L-9.95 -4.8L-9.6 -4.85L-9.3 -4.8L-9.3 -4.9L-8.95 -4.95Q-8.55 -5 -8.5 -5.35L-8.9 -5.5L-10.25 -5.75L-10.75 -6.1L-10.2 -6.15L-10.35 -6.4Q-11.35 -6.9 -12 -7.75Q-12.65 -8.6 -12.6 -9.6Q-12.55 -10.4 -12 -10.95L-12.2 -11.15Q-12.8 -11.45 -12.8 -12.1L-12.6 -12.85L-11.85 -13.4L-11.85 -13.45L-11.9 -13.6L-11.95 -13.75L-11.95 -13.95L-11.95 -14.2L-11.9 -14.3L-11.45 -14.8L-10.9 -15.15L-9.9 -15.25L-10 -15.45L-10.25 -15.55L-10.5 -15.55L-9.4 -16.3L-7.45 -16.4L-7.35 -16.25L-7.3 -16.2L-7.15 -15.9L-6.95 -15.45L-7 -15.4L-7.1 -15.2L-7.25 -15L-7.35 -14.85L-7.4 -14.85L-7.45 -14.8L-7.5 -14.75L-7.5 -14.7L-7.1 -13.8Q-6.95 -12.35 -8.3 -11.8Q-9.05 -11.5 -9.5 -12.05L-9.95 -12.45L-10.1 -12.65L-10.15 -12.5L-10.1 -12.1L-10.05 -12.05L-10 -11.95L-9.95 -11.7Q-9.1 -10.7 -7.85 -11.05Q-6.8 -11.35 -6.2 -12.25L-6.2 -12.3L-6.15 -12.85L-6.2 -13.35L-6.4 -13.8L-6.05 -14.4Q-5.9 -15.05 -6.2 -15.55L-7 -16.4L-7.05 -16.4M-15.95,-5.3L-15.95 -5.35L-15.9 -5.35L-15.85 -5.3L-15.8 -5.3L-15.75 -5.25L-15.7 -5.25L-15.7 -5.2L-15.4 -5.2L-14.9 -4.95L-14.85 -4.7L-14.95 -4.65L-15.7 -4.6L-15.85 -4.7L-15.85 -4.8L-15.9 -4.85L-15.95 -4.9L-15.95 -4.95L-16 -5L-16.05 -5.15L-16.05 -5.25L-16 -5.3L-15.95 -5.3M-16.25,-4.7Q-16.65 -3.7 -17.65 -4.3L-17.95 -4.7L-18 -5.1L-17.9 -5.4L-17.75 -5.45L-17.55 -5.6Q-17.4 -5.65 -17.3 -5.75L-16.55 -5.65Q-16.15 -5.35 -16.2 -4.9L-16.25 -4.7M-10.35,-2.95L-10.15 -3.2L-9.75 -2.95L-9.6 -2.8L-9.55 -2.9L-9.15 -2.5L-9.2 -2.4L-9.35 -2.15L-9.65 -1.95L-9.75 -1.8L-9.8 -1.8L-10.4 -2.25L-10.5 -2.7L-10.5 -2.75L-10.35 -2.95M-5.65,-2.85Q-5.35 -2.65 -5.3 -2.25Q-5.25 -2 -5.45 -1.9L-5.8 -1.75L-5.95 -1.75L-6.85 -2L-7.1 -2.4L-6.85 -2.65L-6.35 -2.9L-5.8 -3.05L-5.7 -3L-5.65 -2.85" />
<path style="fill:#1E1E1E;fill-opacity:1" d="M11.3,-17.05Q11.85 -16.05 11.1 -15.2Q10.7 -14.7 10.05 -14.95Q9.85 -15.35 10.4 -15.6L10.8 -16.1Q11.15 -17.55 9.7 -17.65L9.2 -17.55L8.5 -17.15L8.45 -17.05L8.25 -16.75L8.15 -16.4L8.1 -15.95L8.05 -15.9L8.05 -15.85L8.1 -15.7L8.1 -15.6L8.25 -15.65L8.65 -15.65L8.8 -15.55L8 -15.05Q7.35 -14.75 7.05 -14.15L6.8 -13.25L6.95 -12.5L7.25 -11.75L7.25 -11.85L7.3 -12.25L7.5 -12.85L7.65 -12.95L7.75 -12.3Q7.7 -12.15 7.8 -11.95L8.25 -11.35L8.3 -11.3L7.8 -11.15L7.9 -10.85L8.2 -10.9L8.75 -11.15L9.1 -11.55Q9.4 -10.95 8.85 -10.45Q8.3 -9.95 7.7 -10.3L7.25 -10.8L7.55 -10.8Q6.75 -11.05 6.45 -11.9L6.4 -13.1L6.45 -13.25L6.35 -13.6Q6.4 -14.2 6.7 -14.65L6.65 -14.8L6.4 -15.25L5.95 -15.6L5.55 -15.6L5.4 -15.7Q5.75 -16.1 5.75 -16.65Q5.8 -17.15 5.45 -17.5Q4.4 -18.4 3.55 -17.3L3.45 -17.1L3.7 -16.35Q3.7 -15.9 3.35 -15.7L3.2 -15.7L3.15 -15.75Q3.55 -16.35 3.15 -17Q2.4 -18.15 1.15 -17.3L0.6 -16.8Q0.35 -16.4 0.4 -16L0.5 -15.95L0.55 -15.85L-0.35 -15.2L-0.9 -14.2L-0.8 -13.4Q-0.4 -13.25 -0.15 -12.9L0.05 -12.4L-0.45 -12.5Q-0.9 -13.05 -1.65 -13.15L-2.15 -13L-2.1 -12.8L-1.9 -12.25L-1.85 -11.55L-1.85 -11.4L-1.1 -10.8L-0.65 -9.8Q-0.55 -9.35 -0.85 -9.05L-1.1 -9.95Q-1.2 -10.6 -1.75 -10.95L-1.9 -11.05L-2.1 -10.6L-2.85 -9.8L-3.35 -9.55Q-3.45 -8.9 -4.05 -8.5L-4.3 -7.75L-4.8 -7.05Q-4.25 -6.55 -4.45 -5.65Q-4.7 -4.8 -5.45 -4.25L-6.45 -4.05Q-6.55 -3.5 -6.95 -3.05L-7.1 -2.9L-6.95 -2.95L-5.8 -3.35L-5.05 -3.05L-4.8 -2.75Q-4.15 -2.9 -3.8 -3.65Q-3.55 -4.15 -3.9 -4.65L-3.85 -4.7L-3.8 -4.7L-3.75 -4.75Q-3.2 -4.2 -3.55 -3.45L-3.65 -3.25L-3.55 -3.1L-3.45 -2.8L-3.4 -2.8L-3.15 -2.55L-3.15 -2.6L-3.1 -2.65L-3.05 -2.65L-3 -2.7L-2.4 -2.45L-2.05 -3Q-1.9 -3.3 -1.9 -3.7L-1.8 -4.15L-1.7 -4.25L-1.6 -4.3L-1.55 -4.55Q-1.45 -4.95 -1.65 -5.25L-1.8 -5.75Q-1.55 -5.9 -1.35 -5.55L-0.85 -4.5Q-0.7 -4 -0.95 -3.5L-1 -3.25L-0.75 -3.2L-0.5 -3.3L-0.45 -3.3L-0.2 -3.75L-0.1 -4.75Q-0.15 -5.5 -0.9 -5.7L-1.1 -5.85L-1.1 -6L-1.05 -6.05L-0.95 -6.1L-0.85 -6.15L-0.75 -6.2L-0.7 -6.25L-0.2 -6.25L0.2 -6L0.5 -5.85L0.5 -5.8L0.6 -5.65L0.75 -5.5L0.85 -5.3L0.95 -5.1L0.95 -6.55L0.8 -7.4L0.65 -7.7L0.65 -7.75Q0.4 -8.45 0.6 -9.15L0.7 -9.35Q0.5 -9.8 0.65 -10.25L0.8 -10.3L0.9 -10.25L1 -9.95L1.1 -9.65L1.25 -9.35Q2.1 -9.1 2.9 -9.6L3.45 -10.35L3.35 -10.7L3.3 -11L3.35 -11.3L3.25 -11.4L3.2 -11.5L3.3 -11.6Q3.7 -11.05 3.75 -10.5L4.05 -10.6L5 -10.7Q5.5 -10.65 5.8 -10.3L6.2 -9.8Q6.75 -9.4 6.6 -8.65L6.55 -8.5L7.3 -8.15L7.75 -7.25L7.75 -6.9L7.85 -6.85L8 -6.75L8.1 -6.6L8.4 -6.05L8.5 -6.05L8.55 -6Q8.9 -4.85 8.55 -3.9L9.2 -3.25Q9.85 -2.75 10.55 -2.95L10.5 -3.1L10.55 -3.15L10.85 -3.1Q11.9 -3.8 11.9 -5.1L11.95 -5.25L12 -5.25L12.2 -5.3L12.25 -5.3L12.6 -6.4Q12.65 -7.25 12.05 -7.75L11.35 -8.35L11.3 -8.45L12.2 -8.5L12.3 -8.5L12.3 -8.55L12.25 -8.65Q11.65 -8.7 11.2 -9.25L11.2 -9.3L11.1 -9.35L11.15 -9.8L11.05 -10.4L11.05 -10.45L10.8 -10.4L10.7 -10.55L10.7 -10.75L10.7 -10.95L10.55 -11.1L10.55 -11.35L10.45 -11.4L10.4 -11.45L10.35 -11.45L10.3 -11.55L10.2 -11.7L10.1 -11.85L10.1 -11.95L10.05 -11.95L9.95 -12.05L9.95 -12.15L10 -12.2L10.1 -12.25L10.15 -12.25Q10.7 -12.2 11.1 -11.75L11.35 -11L11.4 -10.95L11.55 -10.85L11.7 -10.7L11.8 -10.2L11.6 -9.5L12.35 -9.25L12.45 -9.2Q13.6 -9.3 14.2 -10.3L14.25 -10.3L14.15 -10.4L14.1 -10.5L14.05 -10.6L14.05 -10.7L13.9 -10.85L13.8 -10.95L13.7 -11.1L13.6 -11.1L13.55 -11.1L13.2 -11.1L12.55 -11.25L12.55 -11.3Q13.55 -11.65 13.8 -12.65Q14.1 -13.8 13.25 -14.45L12.9 -14.75L12.35 -14.6L12.65 -15.1L12.6 -15.15L12.65 -15.2L12.7 -15.2L12.7 -15.25L12.8 -15.85Q12.55 -16.9 11.6 -17.2L11.2 -17.2L11.3 -17.05M10.95,-17.65Q12.05 -17.7 12.7 -16.95Q13.5 -16.2 13.15 -15.15L13.15 -15.1L13.2 -15.1L13.6 -14.85L13.75 -14.55L13.85 -14.55L13.9 -14.5L14.5 -13.35Q14.7 -12.65 14.4 -12.05L14.05 -11.5L14.5 -11.05L14.6 -10.9Q14.95 -11.45 15.6 -11.45Q16.2 -11.4 16.6 -10.95Q17 -10.5 16.9 -9.85L16.55 -9.35L16.55 -9.2Q15.3 -8.15 14.5 -9.4L14.4 -9.6L14.05 -9.3L14.8 -8.65Q15.05 -8.1 14.95 -7.45L14.85 -7.15Q15.5 -6.95 15.75 -6.4Q16.05 -5.75 15.8 -5.1L15.45 -4.4L15.8 -3.55L16.2 -2.35L16.3 -1.35L16.05 -1.25L15.95 -1.2L15.8 -1.15L15.8 -1L15.8 -0.85L15.8 -0.7L15.7 -0.55L15.7 -0.5L15.6 -0.5L15.4 -0.55L15.15 -0.9L14.9 -1.4L15 -2L15.05 -2.1L13.6 -1.8L13 -1.75L12.1 -1.1Q11.3 -0.9 10.9 -1.5Q10.75 -1.75 10.9 -2.1L11 -2.25L11 -2.3L10.95 -2.35L10.95 -2.45L10.7 -2.6Q9.95 -2.4 9.1 -3L9 -3.1L8.55 -3.45L8.4 -3.65L7.5 -2.55Q6.75 -1.9 5.8 -2.25L4.9 -2.2L4.05 -1.75Q3.8 -1.6 3.55 -1.75Q2.85 -2.15 2.3 -2.8L2.3 -2.85L2.25 -2.9L2.2 -2.95L2.15 -2.85Q1.75 -1.6 0.4 -2.05L-0.55 -2.25L-1.25 -1.65L-2.35 -1.75L-2.45 -1.55Q-2.85 -0.65 -3.8 -1.15L-4.15 -1.55L-4.05 -1.85L-4.1 -2L-4.25 -2.15L-4.65 -2.35L-4.75 -2.35L-4.75 -2.3L-4.9 -1.8L-5.15 -1.6Q-5.35 -1.45 -5.55 -1.4L-7.15 -1.5L-8 -1.8L-8.05 -1.8L-8.05 -1.7L-8.25 -1.7L-8.4 -1.75L-8.6 -1.8Q-9.2 -1.4 -10 -1.6L-10.6 -2.15L-10.75 -2.3L-10.8 -2.65L-10.75 -3.05L-10.35 -3.55L-10.45 -3.75L-10.6 -4.05L-10.8 -4.25L-10.95 -4.5L-11 -4.7L-11.05 -4.7L-11.1 -4.75L-11.1 -4.95L-11.05 -5.25L-11.1 -5.3L-11.7 -5.65L-12.05 -6.4L-12.2 -7.15L-12.15 -7.3Q-12.7 -8 -12.9 -8.85Q-13.1 -9.95 -12.45 -10.9L-12.95 -11.5L-13.1 -12.25Q-13.1 -12.95 -12.6 -13.35L-12.2 -13.6L-12.2 -13.7L-12.25 -13.95L-12.2 -14.15L-12.2 -14.25L-12.2 -14.3L-12.15 -14.45L-11.75 -14.9L-11.35 -15.2L-10.65 -15.5L-9.9 -16.3Q-8.9 -17.05 -7.7 -16.75L-7.25 -16.6L-6.95 -16.95L-6.1 -17.3L-5.45 -17.4Q-4.8 -17.4 -4.3 -16.9L-3.6 -15.9L-3.5 -15.3L-3.4 -15.1L-3.05 -13.95L-2.95 -13.75L-2.8 -13.7L-2.45 -13.45L-2.45 -13.5L-2.25 -13.6L-1.85 -13.65L-1.25 -13.55L-1.25 -13.65Q-1.35 -14.6 -0.75 -15.35Q-0.4 -15.8 0.15 -15.95L0.15 -16.3L0.65 -17.35Q1.1 -17.95 1.9 -18Q2.65 -18.1 3.15 -17.55L3.3 -17.4L3.35 -17.55L4.05 -18.15L4.35 -18.25L5.6 -17.85Q6.1 -17.4 6.15 -16.65L5.95 -15.95L6.3 -15.75L6.8 -15.25L6.9 -14.95Q7.3 -15.45 7.85 -15.55L7.8 -16.1Q7.85 -16.75 8.25 -17.25Q8.8 -17.9 9.65 -18.05Q10.4 -18 10.85 -17.6L10.9 -17.65L10.95 -17.65M4.4,-14.1L4.15 -13.55L4.15 -13.45L4.2 -13.35L4.15 -13.2Q3.85 -13.15 3.7 -13.35L3.45 -13.2L3 -12.75L2.75 -12.35L2.8 -12.25L2.85 -12.15L2.85 -12.05L2.8 -11.95L2.75 -11.95L2.65 -12L2.6 -12.1L2.55 -12.1Q2.1 -12.3 2.3 -12.9L2.9 -13.7Q3.2 -13.95 3.55 -14Q3.55 -14.35 3.9 -14.6Q4.4 -15.05 5.1 -15.1L5.4 -15.1L5.5 -15.05L5.55 -15L5.55 -14.95L5.55 -14.85L5.5 -14.75L4.65 -14.4L4.4 -14.1M4,-12.7L4.05 -12.65L4.1 -12.65L4.2 -12L4.6 -11.25L4.95 -10.75Q4.2 -10.65 3.6 -11.35Q3.2 -11.85 3.5 -12.4L3.85 -12.7L4 -12.7M6.05,-9.25L5.3 -9.8Q4.2 -10.35 3.55 -9.45L3.35 -9.1L2.55 -8.5Q1.55 -8.3 1 -8.9Q1.05 -8.25 1.4 -7.7Q1.9 -6.95 1.6 -6.15Q1.45 -5.55 2.05 -5.5L2.35 -5.4L2.75 -4.7Q2.9 -4.3 3.4 -4.3Q3.7 -4.3 3.8 -4.5L3.9 -4.55L4.1 -4.5L4.15 -4.4L4.2 -4.25L4.25 -4.1L4.3 -4.05L4.4 -3.95L4.45 -3.9Q5.15 -3.65 5.5 -4.3L5.85 -5L5.9 -5L5.95 -4.95L6.05 -4.9L6.05 -4.85L6.05 -4.75L6.05 -4.6L6.05 -4.55Q6.9 -4.15 7.45 -5.05Q7.8 -5.65 7.5 -6.3Q7.4 -6.45 7.45 -6.65L7.4 -6.7L7.35 -6.7L7.35 -6.8L7.35 -6.95L7.25 -7.2L7.1 -7.5L7 -7.55L6.8 -7.6L5.7 -7.65L5.55 -7.65L5 -7.7L5.6 -8.15L6.1 -8.75L6.15 -8.85L6.05 -9.15L6.05 -9.25M6.75,-7.1L6.75 -7.15L6.8 -7.15L6.85 -7.2Q7.15 -6.95 7.1 -6.5L6.7 -5.9L6.35 -5.6L5.95 -5.6Q5.75 -5.5 5.7 -5.7L6.1 -5.95L6.4 -6.1L6.5 -6.35L6.6 -6.65L6.6 -6.9L6.65 -6.9L6.7 -6.95L6.7 -7.1L6.75 -7.1M15.55,-11.15Q14.75 -10.9 14.7 -10.2L15 -9.9Q15.45 -9.2 15.95 -9.8L16 -9.85L16 -9.95L16 -10.1L16.05 -10.25L16.1 -10.4L16.05 -10.5L16 -10.55L16 -10.65L16 -10.7L15.95 -10.75L15.9 -10.8L15.9 -10.9L15.9 -10.95L15.85 -11.05L15.85 -11.1L15.7 -11.15L15.55 -11.15M17.7,-6.65L17.75 -6.6L18.15 -7.25L18.7 -7.65L19.45 -7.9Q21.15 -7.8 21 -6.3Q20.95 -5.5 20.2 -5.15L18.6 -5.2L18.4 -5.3L18.35 -5L18 -4.75Q17.65 -4.45 17.15 -4.5L17.05 -4.55L17 -4.55L17 -4.65Q16.6 -4.75 16.35 -5.15Q16.15 -5.45 16.2 -5.8L16.75 -6.65L16.85 -6.65Q16.95 -6.65 17.05 -6.75L17.25 -6.85L17.5 -6.75L17.7 -6.65M18.3,-6.45L18.25 -6.35L18.2 -6.2L18.15 -6.1L18.35 -5.75L19 -5.35L20.05 -6Q20.5 -6.25 20.4 -6.8L20.4 -7.25L20.2 -7.3L20.05 -7.3L19.65 -7.35L19.45 -7.3L19.15 -7.2Q18.95 -7.15 19.15 -7.05L19.15 -6.95L19.1 -6.95L19.05 -6.9L18.75 -6.85L18.6 -6.75L18.4 -6.6L18.35 -6.5L18.3 -6.45M17.75,-6.55L17.05 -6.45Q16.65 -6.3 16.55 -5.95Q16.4 -5.55 16.6 -5.2Q17.25 -5.1 17.65 -5.45L17.75 -5.9L17.75 -6.2L17.75 -6.55M13.7,-9.05L12.95 -8.75L13.05 -8.55L13.15 -8.2L13 -7.95L13.75 -6.8Q13.9 -6 13.45 -5.3L13.35 -5.15L13.3 -4.9L13.1 -4.15L12.45 -3.65L12.25 -3.2L11.75 -2.7L11.45 -2.6L11.45 -2.55L13.4 -2.6Q13.85 -3.1 14.55 -3L14.65 -3.15L14.7 -3.25L14.8 -3.4L14.55 -3.85L14.1 -4.35L14 -4.5Q14.7 -4.9 14.9 -5.65Q15.1 -6.3 14.7 -6.9L14.65 -6.95L14.65 -7L14.55 -7L14.65 -7.7L14.7 -8.1Q14.65 -8.9 13.85 -9.05L13.7 -9.05M12.2,-1.85Q11.75 -1.95 11.4 -2.25L11.35 -2.25L11.35 -2.1L11.2 -1.85L11.15 -1.7Q11.5 -1.25 12 -1.4L12.65 -1.8L12.2 -1.85M-7,-16.4L-6.2 -15.55Q-5.9 -15.05 -6.05 -14.4L-6.4 -13.8L-6.2 -13.35L-6.15 -12.85L-6.2 -12.3L-6.2 -12.25Q-6.8 -11.35 -7.85 -11.05Q-9.1 -10.7 -9.95 -11.7L-10 -11.95L-10.05 -12.05L-10.1 -12.1L-10.15 -12.5L-10.1 -12.65L-9.95 -12.45L-9.5 -12.05Q-9.05 -11.5 -8.3 -11.8Q-6.95 -12.35 -7.1 -13.8L-7.5 -14.7L-7.5 -14.75L-7.45 -14.8L-7.4 -14.85L-7.35 -14.85L-7.25 -15L-7.1 -15.2L-7 -15.4L-6.95 -15.45L-7.15 -15.9L-7.3 -16.2L-7.35 -16.25L-7.45 -16.4L-9.4 -16.3L-10.5 -15.55L-10.25 -15.55L-10 -15.45L-9.9 -15.25L-10.9 -15.15L-11.45 -14.8L-11.9 -14.3L-11.95 -14.2L-11.95 -13.95L-11.95 -13.75L-11.9 -13.6L-11.85 -13.45L-11.85 -13.4L-12.6 -12.85L-12.8 -12.1Q-12.8 -11.45 -12.2 -11.15L-12 -10.95Q-12.55 -10.4 -12.6 -9.6Q-12.65 -8.6 -12 -7.75Q-11.35 -6.9 -10.35 -6.4L-10.2 -6.15L-10.75 -6.1L-10.25 -5.75L-8.9 -5.5L-8.5 -5.35Q-8.55 -5 -8.95 -4.95L-9.3 -4.9L-9.3 -4.8L-9.6 -4.85L-9.95 -4.8L-9.7 -4.15L-9.65 -3.9L-9.2 -3.7L-8.5 -3.25L-8.3 -2.95L-8.2 -2.85Q-7.55 -2.8 -7.05 -3.35Q-6.7 -3.75 -6.75 -4.25L-6.85 -4.3L-6.95 -4.5Q-6.2 -4.8 -5.65 -5.35Q-5.25 -5.75 -5.15 -6.25L-5.1 -6.4L-5.1 -6.5L-5.15 -6.7L-5.15 -6.75L-5.25 -6.7L-5.9 -6.25L-7.8 -6.05L-8.05 -5.95L-8.05 -6L-8 -6.05L-8 -6.2L-7.95 -6.2L-7.9 -6.25L-7.8 -6.25L-7.35 -7L-7 -8.15Q-6.9 -8.65 -7.15 -9.1Q-6.85 -9.3 -6.7 -8.8L-6.45 -8.1L-6.2 -7.2Q-5.65 -7.35 -5.35 -7.9Q-5 -8.5 -4.95 -9.15L-5.2 -9.95L-5.15 -9.95L-5.2 -10.35L-4.95 -10.7L-4.6 -11.2L-4.3 -11.7L-4.15 -12.15L-4.25 -12.65L-4.3 -13.15L-4.3 -13.75L-4 -13.8L-3.95 -13.8Q-3.85 -13.95 -3.9 -14.15L-4 -14.55L-4.1 -14.95L-4.15 -15L-4.15 -15.05L-4.2 -15.05L-4.25 -15.1L-4.35 -15.3L-4.55 -15.55L-4.7 -15.75L-4.85 -15.8L-4.8 -15.8L-4.8 -15.85L-4.75 -15.9L-4.65 -15.95L-3.95 -15.7L-4.25 -16.3Q-4.55 -16.9 -5.15 -17Q-6.3 -17.15 -7.05 -16.4L-7 -16.4M-16,-5.3L-16.05 -5.25L-16.05 -5.15L-16 -5L-15.95 -4.95L-15.95 -4.9L-15.9 -4.85L-15.85 -4.8L-15.85 -4.7L-15.7 -4.6L-14.95 -4.65L-14.85 -4.7L-14.9 -4.95L-15.4 -5.2L-15.7 -5.2L-15.7 -5.25L-15.75 -5.25L-15.8 -5.3L-15.85 -5.3L-15.9 -5.35L-15.95 -5.35L-15.9 -5.4L-15.8 -5.45L-15.6 -5.5Q-14.85 -5.55 -14.65 -4.9Q-14.5 -4.35 -15.1 -4.25Q-15.6 -4.2 -16 -4.45L-16.5 -3.95L-17.55 -4Q-18.6 -4.65 -17.9 -5.7L-17.4 -6.05Q-16.2 -6.15 -15.95 -5.3L-16 -5.3M-16.2,-4.9Q-16.15 -5.35 -16.55 -5.65L-17.3 -5.75Q-17.4 -5.65 -17.55 -5.6L-17.75 -5.45L-17.9 -5.4L-18 -5.1L-17.95 -4.7L-17.65 -4.3Q-16.65 -3.7 -16.25 -4.7L-16.2 -4.9M-10.5,-2.75L-10.5 -2.7L-10.4 -2.25L-9.8 -1.8L-9.75 -1.8L-9.65 -1.95L-9.35 -2.15L-9.2 -2.4L-9.15 -2.5L-9.55 -2.9L-9.6 -2.8L-9.75 -2.95L-10.15 -3.2L-10.35 -2.95L-10.5 -2.75M-5.7,-3L-5.8 -3.05L-6.35 -2.9L-6.85 -2.65L-7.1 -2.4L-6.85 -2L-5.95 -1.75L-5.8 -1.75L-5.45 -1.9Q-5.25 -2 -5.3 -2.25Q-5.35 -2.65 -5.65 -2.85L-5.7 -3" />
</g>
</svg>
