<?xml version="1.0" encoding="utf-8"?>
<svg version="1.1" id="Layer_1"
xmlns="http://www.w3.org/2000/svg"
xmlns:xlink="http://www.w3.org/1999/xlink"
width="53px" height="47px"
xml:space="preserve">
<g id="452" transform="matrix(1, 0, 0, 1, 0.5, 6.3)">
<path style="fill:#1E1E1E;fill-opacity:1" d="M16.25,-0.1L11.1 0.2Q10.95 1.05 10.15 2.05Q8.65 4 8.55 6.5Q8.5 8.1 8.8 9.55L8.85 9.55L9.1 9.65L9.3 9.8L9.45 10.05Q8 11.5 5.7 12.4Q4.85 12.75 4.5 13.7Q3.95 15.05 3.8 16.45L5.1 16.25L6.2 16.3L7.05 16.6Q7.4 16.85 7.3 17.2Q4 17.4 1.8 19.7Q0.55 20.95 1.2 22.6Q2.85 26.95 8.05 26.35Q8.3 26.3 8.4 26.65L7.85 28.1Q7.55 28.7 7.5 29.35L7.5 30.9Q7.6 32.45 8.65 33.6L8.8 33.8L10.35 34.25Q11.85 34.65 13.2 33.85L14.6 33.7L14.8 33.8L14.85 33.95L15.15 34.6L15.6 35.65L15.7 35.95L16 36.65L16.15 36.9L19.35 38.25Q21.1 38.85 22.75 37.7L25.05 35.95L23.6 33.9Q25.45 33.45 27.4 35.6Q28.8 37.1 30.8 37.2Q37.05 37.5 36.4 31.65L36.55 31.55L36.65 31.55L36.9 31.5L37.1 31.5L37.45 31.55Q39.75 34.3 42.8 32.65Q45.8 31.05 46.45 27.85Q46.55 27.3 46.8 26.85Q45.7 22.9 49.8 20.45Q50.2 20.25 50.2 19.65Q50.3 15.15 47.8 11.6L46.3 9.35Q45.6 11.2 44.3 10.1Q44.95 9.05 45 7.85Q45.1 5.6 43.05 4.3L42.1 3.6Q41.95 6.2 39.55 5.8Q40.35 4.5 40.5 2.8Q40.6 1.4 39.8 0.35Q37.9 -2.3 35.1 -0.25L34.5 -0.35Q34.25 -1.2 34.15 -2.15Q33.95 -4 32.1 -4.7L29.9 -5L30 -4.7Q28.6 -3.45 26.1 -3.45Q25.45 -3.45 24.8 -3.1Q23.8 -2.55 23.2 -1.65L22.7 -0.5L20.15 -0.45L16.25 -0.1M8.1,-0.95Q9.1 -1.9 10.7 -1.45L15.45 -1.3L19.65 -2.15L21.7 -2L21.85 -2.2L22.9 -3.5L23.25 -3.75L24.55 -4.6L27.1 -5.35L28.85 -5.3L28.85 -5.35Q28.8 -5.9 29.35 -6.1L30.85 -6.25Q32.25 -6.3 33.45 -5.6Q34.6 -5 35.3 -3.85Q35.75 -3.15 35.65 -2.3Q39.9 -3.55 41.5 0.25L42.05 2.15Q44.45 2.35 45.8 4.4Q47 6.2 46.6 8.35Q49.85 9.95 50.95 13.65Q52.15 17.55 50.85 21.35Q50.6 22.15 49.95 22.75L47.95 24.3Q48.3 26.8 47.45 29.2Q45.45 34.95 39.6 34.45L37.9 33.95Q36.8 39.1 31.55 38.7L29.4 38.3Q27.4 37.85 25.95 36.75L24.85 38Q20.95 41.2 16.6 38.85Q14.55 37.7 13.65 35.35L13.65 35.25Q10.85 36.4 8.2 34.65Q6.55 33.6 6.25 31.75Q5.85 29.65 6.5 27.65Q2.8 27.85 0.7 24.95Q-1.65 21.75 0.65 18.55Q1.4 17.5 2.4 16.95Q2.35 15.85 2.55 14.8Q2.9 12.8 4.45 11.35Q5.8 10.1 7.65 9.7Q6.8 8.8 7 6.6Q7.25 3.8 8.35 1.2L9.3 -0.15L8.1 -0.95" />
<path style="fill:#3A3A3A;fill-opacity:1" d="M20.15,-0.45L22.7 -0.5L23.2 -1.65Q23.8 -2.55 24.8 -3.1Q25.45 -3.45 26.1 -3.45Q28.6 -3.45 30 -4.7L29.9 -5L32.1 -4.7Q33.95 -4 34.15 -2.15Q34.25 -1.2 34.5 -0.35L35.1 -0.25Q37.9 -2.3 39.8 0.35Q40.6 1.4 40.5 2.8Q40.35 4.5 39.55 5.8Q41.95 6.2 42.1 3.6L43.05 4.3Q45.1 5.6 45 7.85Q44.95 9.05 44.3 10.1Q45.6 11.2 46.3 9.35L47.8 11.6Q50.3 15.15 50.2 19.65Q50.2 20.25 49.8 20.45Q45.7 22.9 46.8 26.85Q46.55 27.3 46.45 27.85Q45.8 31.05 42.8 32.65Q39.75 34.3 37.45 31.55L37.1 31.5L36.9 31.5L36.65 31.55L36.55 31.55L36.4 31.65Q37.05 37.5 30.8 37.2Q28.8 37.1 27.4 35.6Q25.45 33.45 23.6 33.9L25.05 35.95L22.75 37.7Q21.1 38.85 19.35 38.25L16.15 36.9L16 36.65L15.7 35.95L15.6 35.65L15.15 34.6L14.85 33.95L14.8 33.8L14.6 33.7L13.2 33.85Q11.85 34.65 10.35 34.25L8.8 33.8L8.65 33.6Q7.6 32.45 7.5 30.9L7.5 29.35Q7.55 28.7 7.85 28.1L8.4 26.65Q8.3 26.3 8.05 26.35Q2.85 26.95 1.2 22.6Q0.55 20.95 1.8 19.7Q4 17.4 7.3 17.2Q7.4 16.85 7.05 16.6L6.2 16.3L5.1 16.25L3.8 16.45Q3.95 15.05 4.5 13.7Q4.85 12.75 5.7 12.4Q8 11.5 9.45 10.05L9.3 9.8L9.1 9.65L8.85 9.55L8.8 9.55Q8.5 8.1 8.55 6.5Q8.65 4 10.15 2.05Q10.95 1.05 11.1 0.2L16.25 -0.1L20.15 -0.45" />
</g>
</svg>
