<?xml version="1.0" encoding="utf-8"?>
<svg version="1.1" id="Layer_1"
xmlns="http://www.w3.org/2000/svg"
xmlns:xlink="http://www.w3.org/1999/xlink"
width="24px" height="16px"
xml:space="preserve">
<g id="938" transform="matrix(1, 0, 0, 1, -1.3, 0.25)">
<path style="fill:#0B0B0B;fill-opacity:1" d="M14.1,5.75Q13.95 5.95 13.95 6.2L14.1 6.6Q14.3 6.8 14.55 6.8Q14.8 6.8 14.95 6.6L15.15 6.2L14.95 5.75L14.55 5.6Q14.3 5.6 14.1 5.75M11.75,5.4L12.3 5.65Q18.55 4.45 16.9 9.65L12.45 7.4L11.3 8.05L9.1 5.85L11.75 5.4M11.7,8.5L12.55 8.15L18.2 11L15.95 15.75L10.15 12.75L10.35 10.7L11.7 8.5M10.8,8.4L9.95 9.7L4.95 7.15L5 5.85L2.65 4.5L3.05 3.8L1.3 2.85L2.05 1.25L3.8 2.3Q7.3 4.4 10.8 8.4M5.5,2.35L11.15 5.1L8.55 5.2L5.5 2.35M16.25,6.85L15.85 6.7Q15.6 6.7 15.45 6.85Q15.3 7 15.3 7.25L15.45 7.65L15.85 7.8L16.25 7.65L16.4 7.25L16.25 6.85" />
<path style="fill:#AF8A80;fill-opacity:1" d="M14.55,5.6L14.95 5.75L15.15 6.2L14.95 6.6Q14.8 6.8 14.55 6.8Q14.3 6.8 14.1 6.6L13.95 6.2Q13.95 5.95 14.1 5.75Q14.3 5.6 14.55 5.6M3.8,2.3L3.25 1.5L3.8 0.8L5.4 1.65L5.45 2.3L5.5 2.35L8.55 5.2L11.15 5.1L11.75 5.4L9.1 5.85L11.3 8.05L12.45 7.4L16.9 9.65L18.6 10.5L18.2 11L12.55 8.15L11.7 8.5L10.35 10.7L9.75 10.3L9.95 9.7L10.8 8.4Q7.3 4.4 3.8 2.3M16.4,7.25L16.25 7.65L15.85 7.8L15.45 7.65L15.3 7.25Q15.3 7 15.45 6.85Q15.6 6.7 15.85 6.7L16.25 6.85L16.4 7.25" />
<path style="fill:#000000;fill-opacity:0.901961" d="M23.7,2.4L23.4 3.4L23.1 3.85Q23.45 4.05 23.45 4.45L23.15 4.85L23.05 5.25L23.25 5.2L23.3 5.3L23.2 5.4Q24.65 5.35 24.65 6.3L23.85 6.85L22.2 7.2Q19.75 7.2 20.2 6.55L21.25 6.55L21.45 6.2L20.4 6.25Q19.65 6.25 19.65 5.9L19.75 5.75L19.65 5.6L19.75 5.5L19.9 5.65L20.7 5.3Q21.75 5.05 21.75 4.25L21.45 3.9L21.15 3.55L21.35 3.3L21.95 3.3L22.05 3.3L22.35 3L22.2 2.6L22.15 2.7L21.95 2.8Q21.6 2.8 21.65 2.15L21.8 1.5L21.7 1.4L21.25 2.5Q20.7 3.35 20.15 3.35L19.9 3.3L18.55 3.6L18.35 3.5L20.35 2.6Q19.9 2.55 19.9 2.25L20.2 1.9L20.5 1.5L20.45 1.25L19.9 1.95L19.85 1.95L20.25 1.1L19.9 1.05L19.85 1.1L19.45 1.6L19.3 1.35L19.5 1.15L19.2 1.2L17.45 2.65L15.45 4.4L15.3 4.35L15.5 4.1L15.5 4.2L17.35 2.3Q18 1.65 19 1.2L18.85 1.1L17.8 1.75L17.65 1.5Q17.65 0.9 18.55 0.3Q18.8 0.1 19 0.05L20.1 -0.25Q21.1 -0.25 21.4 0.45Q22.25 0.05 22.9 0.7Q23.7 1.45 23.7 2.4M20.35,5.2L20.15 5.15L18.75 5.45L17.95 5.75L17.9 5.6L18.8 5.1L20.35 4.9L20.4 5L20.35 5.2M23.2,4.4L23.05 4.15L23.15 4.6L23.2 4.4M16.45,4.75L16.4 4.6Q18.4 3.65 19.55 3.9L18.25 4.4L16.65 4.8L16.45 4.75M17.1,5.15L18 4.7L20.15 4.6L20.15 4.75L18.4 5.15L18.3 5.2L17.85 5.2L17.35 5.25L17.1 5.15" />
</g>
</svg>
