<?xml version="1.0" encoding="utf-8"?>
<svg version="1.1" id="Layer_1"
xmlns="http://www.w3.org/2000/svg"
xmlns:xlink="http://www.w3.org/1999/xlink"
width="9px" height="8px"
xml:space="preserve">
<g id="1258" transform="matrix(1, 0, 0, 1, -0.25, 0.15)">
<path style="fill:#100806;fill-opacity:0.988235" d="M8.45,-0.15L8.45 0.65L0.25 0.65L0.25 -0.15L8.45 -0.15M7.2,5.15L0.25 5.15L0.25 4.35L7.9 4.35L7.2 5.15M8,2.7L0.25 2.7L0.25 1.9L8 1.9L8 2.7M0.25,6.8L5.85 6.8L5.15 7.6L0.25 7.6L0.25 6.8" />
<path style="fill:#C9EBFF;fill-opacity:0.988235" d="M4.8,3.2Q5.9 3.2 5.9 3.55Q5.9 3.95 4.4 3.95Q2.7 3.95 2.9 3.55Q2.9 3.2 4.8 3.2M4.4,5.75Q5.55 5.75 5.55 6.1Q5.55 6.5 4.2 6.5Q2.7 6.5 2.7 6.1Q2.7 5.75 4.4 5.75M4.4,0.95Q5.55 0.95 5.55 1.3Q5.55 1.7 4.2 1.7Q2.7 1.7 2.7 1.3Q2.7 0.95 4.4 0.95" />
</g>
</svg>
