<?xml version="1.0" encoding="utf-8"?>
<svg version="1.1" id="Layer_1"
xmlns="http://www.w3.org/2000/svg"
xmlns:xlink="http://www.w3.org/1999/xlink"
width="19px" height="29px"
xml:space="preserve">
<g id="602" transform="matrix(1, 0, 0, 1, 5, 3.25)">
<path style="fill:#000000;fill-opacity:0.498039" d="M4.85,22.05L7.25 21.9L10.65 22.2L11.5 22.4Q13.3 22.9 13.3 23.6Q13.3 24.3 11.5 24.8L7.25 25.3L2.95 24.8Q1.2 24.3 1.2 23.6Q1.2 23.2 1.8 22.9Q2.2 22.6 2.95 22.4L4.85 22.05" />
<path style="fill:#000000;fill-opacity:1" d="M3.5,-0.2L3.85 -0.2Q3.8 -0.85 4.2 -1.45L4.2 -1.5Q3.9 -2.65 5.35 -3.05L6.5 -3.2Q8.85 -3.55 9.15 -1.5L9.2 -1.2L9.65 -2.05L9.8 -2.15L10.15 -2.05L10.35 -1.8L10.4 -1.75Q10.3 -0.95 9.6 -0.35L9.1 0.1L8.25 1.8L8.15 1.9L8.05 1.95L7.7 1.85L7.65 1.85L6.85 2.2Q7.55 2.9 7.6 4Q7.7 5.35 7.35 6.55L6.75 8.85L6.4 9.15L6.25 9.4L6.2 9.45Q4.65 9.6 4.75 8.45L4.85 7.75L4.85 6.5L4.85 6.35Q4.35 7.8 3.2 8.1Q4 9.2 4.05 10.9L4.05 14.3Q4 15.65 3.4 16.65L3.1 16.85Q0.2 17.65 0.3 14.75Q0.3 14.1 0.85 13.7L0.75 10.55L0.5 7.7L0.35 7.65L-0.45 7.45L-0.95 9.2L-1.45 11.9L-1.5 12.6L-1.3 12.7L-1.2 12.9Q-1.4 14.3 -2.25 15.3L-2.65 15.4Q-5.85 14.65 -4.65 11.6Q-4 10 -3.95 8.25Q-3.85 5.9 -2.15 4.4L-2.15 4.25L-2 3.8Q-2.35 3.5 -2.4 2.8Q-2.45 2.1 -1.65 1.75Q0.5 0.75 2.8 -0.05L3.5 -0.2" />
</g>
</svg>
