<?xml version="1.0" encoding="utf-8"?>
<svg version="1.1" id="Layer_1"
xmlns="http://www.w3.org/2000/svg"
xmlns:xlink="http://www.w3.org/1999/xlink"
width="73px" height="32px"
xml:space="preserve">
<g id="1229" transform="matrix(1, 0, 0, 1, 41.05, 14)">
<path style="fill:#C9EBFF;fill-opacity:0.988235" d="M19.85,-1.25Q19.85 -1.9 20.65 -2.65Q21.6 -3.45 22.35 -2.3Q22.55 -1.6 23.4 -0.95L24.4 0.2L25 0.25L24.55 -0.15Q24.05 -0.6 24.05 -1L24.25 -2L24.05 -3.45L23.65 -4.7L21.15 -4.65Q20.45 -4.65 19.7 -5.35L18.95 -6.1Q17.65 -6.1 16.95 -4.65Q16.35 -3 16 -2.75L15.95 -3Q15.95 -3.5 16.55 -4.6L17.75 -6.1L18.75 -6.3L19.85 -6L20.6 -5.15L22.65 -5.35Q24.1 -5.35 24.6 -3.8L24.8 -2L24.6 -1.2L25.7 -0.25Q26.1 -0.85 25.8 -1.3Q27 -1.45 27.7 -0.65L28.1 0L28.2 0Q29 0.1 29.15 0.55L29.55 1.1L31 1.6L31.2 1.7L31.4 1.7L31.45 1.85L31.45 1.9L31.45 2L30.4 2.65Q29.35 2.65 28.75 2.05Q28.2 1.4 27.7 1.4L26.95 1.95Q26.6 2.3 25.95 1.7L25.8 2.5L25.7 2.8L25.45 3.25Q25.3 3.5 25.3 3.75L25.05 4.5L24.8 5.2Q24.8 5.9 25.55 6.2Q26.25 6.5 26.25 7.1Q26.25 7.75 25.3 8.15L23.05 8.7L22.35 8.7L22 8.4L19.4 10.25L18.35 9.75Q17.55 9.3 16.5 9.4L15.95 8.2L15.55 6.95L15.8 6.85Q16.3 6.85 16.3 7.35L16.55 7.95L16.75 8.85Q18.85 9.1 19.35 9.8L21.75 8.05L21.65 7.95L21.2 7.45L20.5 7.65L19.75 7.65L19.3 7.3L19 6.9L19 6.7L19.7 6.75L19.55 6.95L19.8 7.2L20.55 7.2L21.1 7Q21.6 7 21.95 7.6L22.1 7.85L22.5 7.55L22.45 5.6Q22.45 5.05 22.9 4.35Q23.45 3.45 24.25 3.75L24.15 3.2L24.2 2.75Q24.35 2.45 24.9 2.5L25.25 2.2L25.35 1.65L25.2 1.3L25 1.1L25.05 0.9L24.9 0.85L24.6 0.9L24.7 0.85L24.15 0.75L23.85 0.3L23.65 -0.15L23 -0.5L22.35 -0.9L22.05 -1.9Q21.9 -2.6 21.3 -2.6Q20.85 -2.6 20.55 -2.05L20.35 -1.45L20.45 -1.3L19.95 -1.05L19.85 -1.25M25.85,-0.1L26.2 0.9L26.2 0.95L27.65 0.75L27.75 0.75L27.7 0.7L27.6 0.7L27.4 0.4L27.45 0.2L27.2 -0.55L26.4 -0.7L25.85 -0.1M28.35,0.8L28.75 0.9L28.4 0.4L28.3 0.45L28.35 0.8M24.55,4.2L24 4.35Q23.15 4.45 23.05 5.4L23.1 6.25L23.1 7.2L22.35 8.1L22.75 8.2Q24.35 8.2 25.75 7.2L24.65 6.25Q24.3 5.9 24.3 5.25L24.5 4.3L24.55 4.2M-23.5,-13.45L-23 -12.7Q-21.5 -12.3 -21.3 -11.65L-21.6 -10.8L-21.1 -10.65Q-21.25 -10.35 -21.85 -10.35Q-22 -10.95 -21.8 -11.4Q-21.8 -11.95 -22.4 -12.25Q-23.45 -12.2 -23.85 -12.9L-24.55 -13.55Q-25.5 -13.55 -25.6 -11.85L-25.45 -11.6L-25.35 -11.4Q-25.35 -11.05 -26 -11L-27.7 -10.95Q-28 -10.95 -28.3 -10.55Q-28.6 -10.15 -28.8 -10.1L-28.9 -10.35Q-28.9 -10.95 -28.5 -11.2L-27.4 -11.35L-26.35 -11.4Q-26 -11.5 -25.85 -12.8Q-25.7 -14 -24.5 -14Q-23.95 -14 -23.5 -13.45M-33.25,-9.05Q-33.55 -9.8 -34.05 -9.8Q-34.85 -9.8 -35 -8.9L-35.15 -7.75L-35.35 -7.75L-35.4 -8.5Q-35 -10.85 -33.55 -10.15L-32.8 -9.4Q-32.3 -8.8 -32.35 -8.5L-31.6 -8.45L-31.55 -8.25L-32 -8L-32.6 -7.8L-33 -7.9L-33.25 -9.05M-23.65,12Q-23.65 12.45 -24 12.8L-24.35 13.3L-24.05 13.75Q-23.75 14.1 -23.75 14.3Q-23.75 14.7 -24.2 14.95L-25.35 16L-25.05 16.3L-24.45 16.45L-23.8 16.25L-23.55 16.35L-23.35 16.45Q-22.7 16.45 -22.35 15.4Q-22 14.3 -21.25 14.3L-20.85 14.35L-20.8 14.5Q-21.3 14.8 -21.95 16.05Q-22.45 17.05 -23.5 17.05L-24.35 16.95Q-25.05 16.95 -25.55 16.55L-25.9 15.95Q-25.9 15.6 -25.05 14.95L-24.2 14.3L-24.45 13.75L-24.75 13.25L-24.45 12.6L-23.95 11.9L-23.65 12M-39.35,7.25L-38.35 8.95L-38.3 8.9Q-38.15 9.05 -38.15 9.35Q-38.15 9.9 -38.65 10.75L-37.35 11.2L-36.35 11.35Q-35.95 11.35 -35.7 11.05L-35.4 10.6L-34.55 10.6L-34.45 11L-35.45 11.5L-35.85 11.9L-38.35 11.45L-39.2 10.75L-38.9 9.85L-38.55 9.2L-39.3 8.45L-39.9 7.45L-41 7.8L-41.05 7.6Q-41.05 7.2 -40.4 6.9Q-39.7 6.6 -39.35 7.25M-31.5,11.75L-31.4 12L-31.95 12.45L-32.5 12.9L-32.15 13.6L-31.8 14.3L-31.85 14.65L-32.85 14.85Q-32.45 15.6 -31.8 15.6Q-31.25 15.6 -30.7 15Q-30.2 14.35 -29.65 14.35L-29.15 14.55L-28.15 14.7L-28.05 14.85L-28.2 15.05L-29.05 15.05Q-29.35 14.75 -29.65 14.75Q-29.95 14.75 -30.5 15.4Q-31.1 16 -31.8 16Q-33.2 16 -33.2 14.95L-32.95 14.35L-32.3 14.25L-32.65 13.55L-32.95 12.85Q-32.95 12.3 -32.65 12.2L-31.5 11.75" />
</g>
</svg>
