<?xml version="1.0" encoding="utf-8"?>
<svg version="1.1" id="Layer_1"
xmlns="http://www.w3.org/2000/svg"
xmlns:xlink="http://www.w3.org/1999/xlink"
width="23px" height="20px"
xml:space="preserve">
<g id="765" transform="matrix(1, 0, 0, 1, 17.7, -1.6)">
<path style="fill:#000000;fill-opacity:1" d="M3.25,17.9L3.4 17.75L3.65 17.6L3.8 17.8L3.85 17.95L4.05 18.35L4.1 18.5L4.15 18.65L4.2 18.95L4.55 19.75L4.65 20L4.65 20.65L3.05 20.85L-0.75 21.35L-6.5 21.15L-7.05 21.1L-8.45 21.15L-9.3 21Q-11.9 21.3 -14.35 21L-14.35 20.9L-14.8 20.8Q-15.9 20.5 -16.8 19.85L-17.35 19.9L-17.35 19.85L-17.05 18.05Q-16.7 16.7 -15.85 15.75Q-14.35 14.05 -12.35 13.4L-11.95 13.55Q-10.95 13.75 -10.1 14.25L-9.25 14.95L-9.15 15L-8.6 15.3L-7.5 14.25L-5.95 13.95L-5.35 14.15Q-3.55 14.35 -2.55 15.65L-1.6 16.7L-1.95 16.95L-4.25 17.2L-4.05 17.35L-4 17.45L-3.85 17.65L-3.75 17.7L-3.65 17.85L-3.05 18.4L-2.85 18.7Q0.25 19 3.2 18L3.25 17.9M-4,5.55L-3.65 5.9L-1.55 8Q-0.6 9 0.05 10.05Q-1.35 10.35 -2.7 8.75L-4.95 6.4L-4.9 6.35L-4.5 5.85L-4 5.55M-13.65,3.65L-13.05 4.2Q-12.15 6.8 -15.5 7Q-15.9 7.05 -16.05 6.75L-16.2 6.35L-16.4 6.05L-16.55 5.65L-16.5 5.6L-16.3 5.5Q-16.1 4.05 -13.8 3.6L-13.65 3.65M-17.7,2.4L-17.7 2.35Q-17.55 1.85 -16.55 1.6Q-15.8 2.4 -16.6 3.35L-17.2 3.45L-17.55 3.05L-17.6 3L-17.6 2.9L-17.7 2.4M-11.15,17.6L-10.1 17.5L-8.9 17.4L-9.2 17.7L-8.55 17.55L-5.05 17.15L-7.4 16.4L-7.7 16.9L-7.65 16.9Q-8.35 17.55 -9.4 17.2L-10.8 16.95L-11.1 17.35L-11.2 17.6L-11.15 17.6M-13.45,20.85L-13.8 20.9L-13.1 20.95L-13.15 20.9L-13.45 20.85" />
</g>
</svg>
