<?xml version="1.0" encoding="utf-8"?>
<svg version="1.1" id="Layer_1"
xmlns="http://www.w3.org/2000/svg"
xmlns:xlink="http://www.w3.org/1999/xlink"
width="17px" height="24px"
xml:space="preserve">
<g id="666" transform="matrix(1, 0, 0, 1, -5.75, 2.95)">
<path style="fill:#000000;fill-opacity:1" d="M5.75,-2.4L6.15 -2.75L6.65 -2.95L8.5 -0.75L9.4 0.25L9.95 0.9L10 0.9L13.1 4.25L13.7 4.15L15.75 3.8L15.7 3.45Q15.7 2.65 16.2 1.55L16.8 0.6L17.05 0.25L17.9 0L18 0L18.05 0Q20.2 0.1 20.2 2.45Q20.2 3.2 19.7 3.75L19.1 4.2L19.5 5.35L20.05 7.25L20.75 8.75L21.4 10.35L20.7 10.85L19.45 11.15Q18.95 11.15 18.35 8.85L17.75 10.1L17.4 11.3L18.05 13.25L19.8 15.15L21.25 17.05Q22.5 18.85 22.5 19.5L21.65 20.1L21.15 20.1L19.85 20.65L19.25 19.75L18.55 18.55L16.95 16.55Q16.4 15.7 16.05 14.35L15.85 13.4L15.75 13.55Q14.95 15.6 14.95 17.5Q14.95 18.15 14.5 18.2Q13.8 18.25 13.4 18.7L13.15 19.4Q12.95 19.9 12.45 19.9L11.85 19.85L10.8 19.15L10.2 18.35Q11.9 16.7 12.5 14.85L13.05 12.95Q13.4 12 14.25 11.4L14.4 11.05Q14.2 10.95 14.2 10.45L14.3 8.95Q14.3 7.45 13.6 6L12.8 6.35L10.8 7.05L10.1 6.65L9.6 6.2L9.65 6.05Q8.7 4.9 8.7 4.55L8.9 2.5L8.85 2.45L8.9 2.35L8.9 2L9.15 2.15L9.2 2.1L8.55 1.35L5.75 -2.1L5.75 -2.4M12.95,4.55L12.65 4.65L13 4.6L12.95 4.55M10.65,4.15Q10.65 4.7 11.55 4.7L11.6 4.7L10.7 3.75L10.65 4.15" />
</g>
</svg>
