<?xml version="1.0" encoding="utf-8"?>
<svg version="1.1" id="Layer_1"
xmlns="http://www.w3.org/2000/svg"
xmlns:xlink="http://www.w3.org/1999/xlink"
width="59px" height="59px"
xml:space="preserve">
<g id="1439" transform="matrix(1, 0, 0, 1, 35.4, 29.8)">
<path style="fill:#000000;fill-opacity:1" d="M22.5,-19.8L22.5 18.65Q22.5 28.1 13.05 28.1L-25.4 28.1Q-34.9 28.1 -34.9 18.65L-34.9 -19.8Q-34.9 -29.3 -25.4 -29.3L13.05 -29.3Q22.5 -29.3 22.5 -19.8" />
<path style="fill:none;stroke-width:1;stroke-linecap:round;stroke-linejoin:round;stroke-miterlimit:3;stroke:#FF9900;stroke-opacity:0.8" d="M13.05,-29.3L-25.4 -29.3Q-34.9 -29.3 -34.9 -19.8L-34.9 18.65Q-34.9 28.1 -25.4 28.1L13.05 28.1Q22.5 28.1 22.5 18.65L22.5 -19.8Q22.5 -29.3 13.05 -29.3z" />
</g>
</svg>
