<?xml version="1.0" encoding="utf-8"?>
<svg version="1.1" id="Layer_1"
xmlns="http://www.w3.org/2000/svg"
xmlns:xlink="http://www.w3.org/1999/xlink"
width="25px" height="34px"
xml:space="preserve">
<g id="605" transform="matrix(1, 0, 0, 1, 30.85, 8.15)">
<path style="fill:#000000;fill-opacity:0.498039" d="M-7.7,23.7Q-7.7 24.4 -10.5 24.9L-17.45 25.4L-24.3 24.9Q-27.25 24.4 -27.25 23.7Q-27.25 23 -24.3 22.5L-22.9 22.3L-17.45 22L-13.55 22.15L-10.5 22.5L-8.6 23Q-7.7 23.3 -7.7 23.7" />
<path style="fill:#000000;fill-opacity:1" d="M-21.55,-3.05L-20.65 -2.75Q-20.1 -2.5 -20 -1.95L-19.9 -1.55L-19.85 -1.45L-19.95 -1.35L-20.1 -1.2Q-19.5 -0.85 -19.2 -0.1Q-18.85 0.8 -19.2 1.4L-17.8 1.65Q-15.5 1.75 -13.4 2.5Q-12.55 2.85 -11.75 3.3L-11.25 2.55Q-10.8 2.05 -9.95 2.35L-9.65 2.65Q-9.2 3.5 -9.6 4.5Q-10.35 6.45 -12.75 5.6L-12.75 5.55L-12.8 5.55L-13.8 5.6Q-13.35 6.2 -13.05 6.95Q-12.55 8.25 -11.55 9.3L-11.6 9.4L-11.3 9.45L-9.65 9.85Q-9.05 10 -8.55 10.4Q-8.2 11.45 -8.1 12.65L-7.95 14.35L-7.9 15.45L-7.7 15.4L-7.35 15.45Q-6.65 15.5 -6.25 15.95L-6.2 16L-6.15 16.6L-6.15 17.1L-6.2 17.45L-7.45 17.7L-9.75 17.65L-9.85 17.6L-10.65 17.25L-10.95 15L-11.25 13.7Q-11.5 12.7 -12.45 12.15L-13.4 11.6L-13.1 12.7L-12.8 15.3L-12.6 15.45Q-12.05 15.95 -11.9 16.7L-11.8 17.75Q-14.3 18.7 -15.65 16.9Q-16.25 16.1 -16.25 15L-16.25 12.15Q-16.25 10.5 -16.95 9.45L-17.05 9.35L-17.05 9.25L-18 8.25L-18.05 8.2Q-18.95 8.65 -19.7 7.75L-21.1 6.15L-21.85 6.1Q-22.4 6.05 -22.6 5.6Q-23.35 3.9 -21.7 3.25L-22.05 2.55L-23.7 1.9L-24.2 1.65L-24.2 1.7L-24.4 1.6L-25.35 2Q-26 2.2 -26.25 1.45L-26.15 1.4L-25.25 0.85L-24.8 0.65L-24.8 0.5L-24.9 0.15Q-25.15 -0.75 -24.75 -1.5L-24.7 -1.45Q-24.1 -3.05 -21.55 -3.05M-16.6,-4.2L-16.5 -4.45L-16.5 -4.5L-16.5 -4.65L-16.45 -4.7L-16.3 -4.75L-15.55 -4.8L-14.6 -4.9Q-13 -4.95 -12.2 -3.6Q-11.3 -2.15 -12.75 -1.5Q-13.35 -1.25 -13.9 -1.65L-16.75 -3.9L-16.6 -4.2M-18.5,10.65Q-18.15 11.3 -18.7 11.85L-19.25 12.3Q-19.75 13.25 -21.15 12.7Q-24.5 11.3 -27.95 10.3Q-28.7 11.4 -30.2 10.6Q-30.9 10.2 -30.85 9.5Q-30.65 7 -27.8 7.05L-27.75 7.05Q-27 7.35 -26.95 8L-25.9 8.55Q-23.65 9.5 -21.2 9.9L-20.9 9.8L-20.65 9.65L-20.6 9.7L-20.4 9.65L-19.75 9.6Q-18.9 9.8 -18.5 10.65M-6.7,17.15L-6.75 17.25L-6.65 17.25L-6.65 17.2L-6.7 17.15M-22.1,2.35L-22.05 2.4L-22 2.4L-22.1 2.35" />
<path style="fill:#7E0000;fill-opacity:1" d="M-22.05,-4.55L-20.7 -4.35Q-18.15 -4.05 -16.45 -2.55L-17.45 -2.5L-20.65 -2.75Q-22.65 -3.05 -22.3 -4.5L-22.05 -4.55M-11.4,-6.2L-15.1 -6.1Q-16.2 -5.9 -17.15 -6.45L-18.1 -7.55L-18.05 -7.65L-17.5 -8L-16.95 -8.15L-16.75 -8.05Q-13.95 -6.9 -11.05 -7.05L-11.45 -6.7L-11.35 -6.3L-11.4 -6.2M-23.15,5.5L-23.9 7.4Q-24 7.95 -24.7 7.95L-24.85 7.85Q-25.45 7 -24.9 6.05Q-24.45 5.15 -23.3 5.25Q-23.05 5.35 -23.15 5.5M-23.1,3.65Q-23.25 4.15 -23.85 4.25L-25.15 4.35Q-27.7 4.45 -28.05 3.05Q-28.2 2.8 -27.95 2.75L-26.4 2.55L-26.25 2.6Q-24.7 2.9 -23.2 3.5L-23.1 3.65" />
</g>
</svg>
