<?xml version="1.0" encoding="utf-8"?>
<svg version="1.1" id="Layer_1"
xmlns="http://www.w3.org/2000/svg"
xmlns:xlink="http://www.w3.org/1999/xlink"
width="112px" height="16px"
xml:space="preserve">
<g id="1379" transform="matrix(1, 0, 0, 1, -0.5, 9.8)">
<path style="fill:#FF2F23;fill-opacity:1" d="M2.8,0.8L0.8 -0.15L0.9 -0.25L1.25 -0.3L2.4 0.4L3.45 0.95L2.8 0.8M12.45,-0.2Q10.6 1.15 9.75 1.15L4.85 1.05L11.3 0.4Q12.1 0.05 12.5 -0.75L13.75 -1.15L12.45 -0.2M20.5,-5.7Q18.1 -4.95 18.1 -4.25L17.9 -3.65L17.05 -2.8L18.15 -4.8Q19.05 -5.8 21.65 -6L20.5 -5.7M28,-2.65L28.15 -2.8L27.4 -4.55L26.25 -5.8Q27.95 -5.45 28.35 -4.65Q28.75 -3.85 28.7 -1.75L29.1 -0.95L27.4 -3.2L27.5 -3.25L27.6 -3.25L27.55 -3.35L27.4 -3.3Q27.25 -3.7 27.25 -4.05L28 -2.65M32.65,3.35Q32.35 3.35 31.4 2L30.8 1.1L33 3.25Q33.4 2.75 34.55 2.35L36.1 1.6Q33.8 3.35 32.65 3.35M30.15,0.4L31.3 2.15Q32.3 3.55 32.65 3.55Q34.3 3.55 36.6 1.4L37.35 0.6L37.1 0.8L37.8 -0.3L38.3 -1.8Q38.75 -2.95 40.45 -4L39.45 -2.8L38.45 -1.2L37.6 0.3L38.95 -1.2L40.7 -3.65Q43.2 -5.95 47.5 -5.95L48.5 -5.05Q48.85 -4.6 49.3 -4.4L49.1 -4.4L49.35 -4.35L49.45 -4.3L49.75 -4.2Q51.35 -3.7 52.25 -2.6L54.1 -0.6L55.1 0.55L56.45 2.65L56.85 2.65Q57.45 3.2 57.75 3.2Q58.8 3.2 59.75 1.55L61 -0.5L63.4 -0.85Q65.3 -0.8 66.05 -1.35Q66.6 -1.75 69.5 -2.75L70.7 -2.85Q71.35 -2.25 72 0L71.9 0.65L71.85 0.75L71.9 0.75Q71.95 1.25 72.35 1.25Q73.6 1.25 74.35 -0.45L74.2 -0.55L78.7 -4.45L82.55 -7.9Q83.15 -7.9 83.55 -6.1L84.5 -2.1Q84.65 -1.55 85.55 -0.65Q86.45 0.2 86.55 0.7L87.25 2.1L87.8 2.7L87.6 2.7Q86 2.7 84.4 -0.75Q82.9 -4 82.7 -6.95L78.2 -2.05Q74.3 2.05 71.75 2.05Q70.7 2.05 70.7 0.8L70.85 -0.5Q70.85 -2.35 68.55 -2.35L67.15 -1.2Q65.8 -0.05 65.3 -0.05Q64.6 -0.05 64.15 -0.35L63.55 -0.7Q60.9 -0.7 60.35 1.5Q59.75 3.7 56.4 3.7Q55.95 3.7 53.75 0.15Q51.55 -3.45 49.7 -3.45Q48.75 -3.45 48 -4.45L47.25 -5.5Q44.4 -5.5 41.6 -3.55Q39.4 -2 38.9 -0.9Q37.9 1.1 36.05 2.65Q34.25 4.15 33 4.15Q31.45 4.15 29.3 0.7Q28 -1.35 27.55 -2.8L28.35 -1.75L29.3 -0.7L30.15 0.4M53.9,-1L52.15 -3.05Q51.35 -3.95 50.2 -4.25L49.45 -5L48.5 -5.7L46.6 -6.05L44.1 -5.7L43.95 -5.65L46.25 -6.35L47.55 -6.35Q48.05 -5.95 50.8 -4.4Q52.85 -3.25 53.5 -2.15L54.55 -0.4L53.9 -1M64.5,-1.1L61.35 -0.85Q61 -0.7 60.35 0.45Q58.75 2.95 57.7 2.95L57.05 2.6Q59.15 2.4 59.55 0.4Q60 -1.85 63 -1.85Q64.15 -1.85 64.7 -1.5L65.1 -1.2L64.5 -1.1M69.5,-3.15Q68.2 -3.15 66.7 -2.1L66.3 -1.8L66.8 -2.3Q68.05 -3.45 68.7 -3.45L70.4 -3.1L69.5 -3.15M87.85,1.95L85.3 -1.65Q84.9 -2.1 84.65 -2.85L84.3 -4.15Q83.6 -6.15 83.6 -6.8Q83.4 -9.25 81.5 -7.75L78.95 -5.1L75.3 -1.7L73.25 -0.05Q73.25 0.15 73.4 0L74.2 -0.55L73.35 0.3L72.35 0.85L72.2 0.85L72.25 0.8L72.35 0.45Q75.15 -1.5 79.7 -6.05L83.25 -9.8Q83.65 -10.05 83.65 -7.1Q83.65 -5.25 85.55 -2.15L87.25 0.5L88.15 1.45L89.9 2.95Q88.65 2.95 87.85 1.95M101.05,-3.7L99.45 -3.25L99.25 -3.3Q97.6 -3.3 94.35 -0.7Q96.8 -3 97.8 -3Q98.1 -3 99.25 -3.75L101.7 -3.95Q101.8 -3.9 102.05 -3.8L101.05 -3.7M110.5,2.05L109.7 2.45L108.05 2.75Q106.35 2.75 105.05 -0.05Q103.75 -2.9 100.8 -2.9Q97.9 -2.9 94.45 0.6L90.65 4.1Q89.35 4.1 88.1 2.95L89.9 3.45Q90.55 3.45 92.1 1.85L94.1 -0.15L97.05 -1.8L99.15 -3.05L99.8 -3.05L100.4 -3.35L101.8 -3.4Q102.85 -3.4 103.8 -2.65L103.55 -3.05L103.55 -3.1Q105 -2.5 105.4 -2.1L106.35 -0.1L105.05 -1.4L104.85 -1.6L105.5 -0.75L106.7 0.75L107.3 1.3L107.15 0.9L109.75 1.3L110.45 1.4L110.6 1.7L107.65 1.5L109.2 1.9L109.8 2L110.5 2.05M27,-4.5L25.05 -4.95L22.2 -5.35Q19.8 -5.35 18.55 -4.3Q18.85 -4.75 19.95 -5.25Q21.4 -5.9 23.2 -6.05L25.6 -5.9L26.3 -5.45L27 -4.5M14.5,-1.3L16.05 -1.8Q16.95 -2.05 17.1 -2.4L17.65 -3.05L16.85 -1.5Q16.05 -0.65 14.5 -0.4L12.9 -0.05L14.5 -1.3M12.25,0.4L11.45 1.3L5.05 1.65Q2.8 1.35 1.85 0.85Q1.3 0.6 1 0.2Q1.4 0.35 1.95 0.65L3.95 1.3L7 1.35L9.9 1.45Q10.7 1.45 12.25 0.4" />
<path style="fill:#FFFFFF;fill-opacity:1" d="M9.9,1.45L7 1.35L3.95 1.3L1.95 0.65Q1.4 0.35 1 0.2L0.5 -0.05L0.5 -0.25L0.8 -0.15L2.8 0.8L3.45 0.95L4.85 1.05L9.75 1.15Q10.6 1.15 12.45 -0.2L13.75 -1.15L14.25 -1.55Q15.55 -1.75 16.85 -2.65L17.05 -2.8L17.9 -3.65L18.1 -4.25Q18.1 -4.95 20.5 -5.7L21.65 -6L25.6 -6.1L26.25 -5.8L27.4 -4.55L28.15 -2.8L28 -2.65L27.25 -4.05L27 -4.5L26.3 -5.45L25.6 -5.9L24.4 -6.1L23.2 -6.05Q21.4 -5.9 19.95 -5.25Q18.85 -4.75 18.55 -4.3L18.4 -4L17.85 -3.25L17.65 -3.05L17.1 -2.4Q16.95 -2.05 16.05 -1.8L14.5 -1.3L12.9 -0.05L12.55 0.15L12.25 0.4Q10.7 1.45 9.9 1.45M36.1,1.6L37.1 0.8L37.35 0.6L36.6 1.4Q34.3 3.55 32.65 3.55Q32.3 3.55 31.3 2.15L30.15 0.4L29.95 0.1L29.3 -0.7L28.35 -1.75L27.55 -2.8L27.3 -3.3L27.4 -3.3L27.55 -3.35L27.6 -3.25L27.5 -3.25L27.4 -3.2L29.1 -0.95L30.1 0.1L30.8 1.1L31.4 2Q32.35 3.35 32.65 3.35Q33.8 3.35 36.1 1.6M88.1,2.95L87.8 2.7L87.25 2.1L86.55 0.7Q86.45 0.2 85.55 -0.65Q84.65 -1.55 84.5 -2.1L83.55 -6.1Q83.15 -7.9 82.55 -7.9L78.7 -4.45L74.2 -0.55L74.35 -0.45Q73.6 1.25 72.35 1.25Q71.95 1.25 71.9 0.75L71.9 0.65L72 0Q71.35 -2.25 70.7 -2.85L69.5 -2.75Q66.6 -1.75 66.05 -1.35Q65.3 -0.8 63.4 -0.85L61 -0.5L59.75 1.55Q58.8 3.2 57.75 3.2Q57.45 3.2 56.85 2.65L55.8 1.45L55.1 0.55L54.1 -0.6L52.25 -2.6Q51.35 -3.7 49.75 -4.2L49.45 -4.3L49.35 -4.35L49.1 -4.4L49.3 -4.4Q48.85 -4.6 48.5 -5.05L47.5 -5.95Q43.2 -5.95 40.7 -3.65L38.95 -1.2L37.6 0.3L38.45 -1.2L39.45 -2.8L40.45 -4L40.65 -4.3Q41.55 -5.1 43.95 -5.65L44.1 -5.7L46.6 -6.05L48.5 -5.7L49.45 -5L50.2 -4.25Q51.35 -3.95 52.15 -3.05L53.9 -1L54.55 -0.4L56.05 1.45L57.05 2.6L57.7 2.95Q58.75 2.95 60.35 0.45Q61 -0.7 61.35 -0.85L64.5 -1.1L65.1 -1.2L66.3 -1.8L66.7 -2.1Q68.2 -3.15 69.5 -3.15L70.4 -3.1L70.9 -3.1L72 -1.2L72.35 0.45L72.25 0.8L72.2 0.85L72.35 0.85L73.35 0.3L74.2 -0.55L73.4 0Q73.25 0.15 73.25 -0.05L75.3 -1.7L78.95 -5.1L81.5 -7.75Q83.4 -9.25 83.6 -6.8Q83.6 -6.15 84.3 -4.15L84.65 -2.85Q84.9 -2.1 85.3 -1.65L87.85 1.95Q88.65 2.95 89.9 2.95L90 2.95Q90.35 2.85 93.7 -0.15L94.35 -0.7Q97.6 -3.3 99.25 -3.3L99.45 -3.25L101.05 -3.7L102.05 -3.8Q103.15 -3.8 103.55 -3.1L103.55 -3.05L103.8 -2.65Q102.85 -3.4 101.8 -3.4L100.4 -3.35L99.8 -3.05L99.15 -3.05L97.05 -1.8L94.1 -0.15L92.1 1.85Q90.55 3.45 89.9 3.45L88.1 2.95M107.3,1.3L106.7 0.75L105.5 -0.75L104.85 -1.6L105.05 -1.4L106.35 -0.1L106.75 0.35L107.15 0.9L107.3 1.3M109.8,2L109.2 1.9L107.65 1.5L110.6 1.7L110.65 1.7L110.85 1.95L110.6 2.05L110.5 2.05L109.8 2" />
<path style="fill:#FFFFFF;fill-opacity:1" d="M8.85,-3.75Q8.3 -3.3 8.2 -2.45L8.2 -1.1L7.9 -0.1L8.05 -0.95L8.25 -3.55Q8.35 -3.9 9.55 -3.9Q11.05 -3.95 11.75 -4.4L13.25 -5.55L13.95 -6.8Q14.45 -7.6 15.55 -7.65L15.55 -7.6Q14.6 -7.25 13.55 -5.7Q12.65 -4.35 10 -3.8L8.85 -3.75M18.3,-0.75L18.7 0.75L20 1.85L19.65 1.65Q18.6 1.15 18.2 -0.15L18.3 -0.75M15.2,-1.4L14.4 -0.9Q16.85 -2.6 17.8 -1.6L16.55 -1.8L15.2 -1.4M29.65,-5.3L27.8 -3.2L27.8 -3.15L27.75 -3.3L28.6 -4.5L29.6 -5.55L29.9 -5.2Q29.95 -4.9 30.35 -4.9L31.75 -5.7L32.8 -6.7L33.2 -6.7L34.25 -6.55L34.95 -6.4Q35.3 -6.4 35.55 -6.75L36.05 -7.2L36.1 -7.15L35.7 -6.6Q35.3 -6.15 34.9 -6.15Q34.35 -6.15 33.75 -6.45L32.85 -6.45Q31.15 -4.65 30.3 -4.65Q30 -4.65 29.65 -5.3M49.2,-4.4L49.05 -3.8L48.4 -2.35L49.15 -1.8Q48.2 -2 48.2 -2.35L48.65 -3.45L49.1 -4.45Q49.1 -5.15 46.95 -5.65L48.45 -5.25Q49.2 -4.85 49.2 -4.4M50.05,-1.4L50.55 -0.8L50.45 0.1Q50.35 0.65 50.55 0.9Q51.55 2.1 54.1 4.35L54.15 4.4Q53 3.95 51.65 2.6Q50.45 1.45 50.3 0.95Q50.2 0.6 50.25 0.1L50.3 -0.8L50.05 -1.4M65.3,-7.6L64.95 -6.15Q64.8 -5.4 63.7 -5.05L62.65 -5.15L62.35 -5.35Q61.6 -5.35 61.35 -4.85L61.25 -4.35Q61.25 -3.7 61.85 -2.2L62.45 -0.8L62.7 -0.8Q63.6 -0.8 63.5 -0.25L63.2 0.85L63.4 1.2L63.85 1.2L65.6 2.95Q67.35 4.7 67.95 4.7L68.35 4.65L68.3 3.55Q68.3 2.65 68.95 2.65L70.85 3.1Q72.55 3.65 72.9 4.55L72.95 4.65L69.2 3L68.7 3Q68.9 4.4 68.45 5Q66.9 4.7 65.35 3.05L63.8 1.5Q63.2 1.5 63.05 1.2L63 0.85Q63 0.4 63.3 -0.2L63.05 -0.65L62.65 -0.65L62.45 -0.65L62.4 -0.55L62.15 -0.6L61.35 -0.3L60.35 0.15L61.15 -0.4L62.3 -0.75Q61.05 -3 61.05 -4.35L61.1 -4.9L61.75 -5.5L62.45 -5.5Q62.7 -5.25 63 -5.25L63.7 -5.3Q64.6 -5.55 64.7 -6.5Q64.8 -7.4 65.3 -7.6M76.05,-0.3L74.55 -0.15L73.85 -0.15L73.55 -0.2L73.8 -0.3L76.05 -0.3M77.05,-0.35L77.25 1.25L77.55 1.35L78 1.1L78.6 0.85L79.05 1.85Q79.4 2.95 80 3.2Q81.85 3.5 82.2 4.6Q82.55 5.65 85.1 5.85L85.25 6.05L84.25 6.2Q82.55 6.2 81.9 5.15L81.25 3.7Q80.95 3.4 80.15 3.3L79.25 3.2Q78.75 2.9 78.75 2.5L78.55 1.1Q78.15 1.15 78 1.4Q77.9 1.6 77.45 1.6Q76.95 1.6 76.9 0.85Q76.8 0 76.4 -0.3L77.05 -0.35M82.7,-7.2Q83.05 -7.55 83.6 -7.55Q83.9 -7.55 84 -6.65Q84.15 -5.6 84.5 -5.35L85.15 -5.35L85.55 -5.55L86.1 -5.7Q86.55 -5.7 86.7 -5.15Q86.8 -4.65 87.1 -4.65Q88.6 -4.65 90.55 -7.3L92.3 -7.4L93.4 -5.85L93.4 -5.75L92.4 -6.7L91.55 -7.55Q91.1 -7.55 89.65 -5.95Q88.2 -4.35 87.2 -4.35Q86.3 -4.35 86.3 -5.35L86.05 -5.45L85.4 -5.25L84.75 -5.1Q83.6 -5.1 83.55 -5.95L83.75 -7.3L83.65 -7.35L82.7 -7.2M105.75,-4Q106.35 -4 106.75 -3.5L107.15 -3Q107.5 -3 108.1 -3.6L108.9 -4.3L111.05 -4.1L111.75 -3.3L111.7 -3.2L111.2 -3.65L110.2 -4.1Q108.7 -4.1 108.15 -3.35Q107.6 -2.65 107.25 -2.65L106.7 -2.75L106.7 -3.15Q106.7 -3.75 105.65 -3.75L104.3 -3.4L103.7 -3.1L103.5 -3.2L104.2 -3.6L105.75 -4M101.95,5Q101.2 4.35 100.45 4.35L98.3 5L97.15 4.1L95.95 3.05L95.6 1.95Q95.4 1.25 94.25 1.25L93.65 1.3L93.9 1.05Q95.7 1.3 95.75 1.8Q95.8 2.65 96.25 2.95L98.2 4.85L99.3 4.3L100.45 4.1Q101.55 4.1 102.15 4.65L103 5.5L103 5.55L102.75 5.65L101.95 5M93.2,1.75L93 2.05L92.85 2.05L93.2 1.75M46.45,3.85Q44.35 3.85 42.5 2.65L41.75 1.8L41.15 1.15Q40.7 1.15 40.45 1.45L39.55 1.75L38.75 1.25L38.5 0.5L37.35 1.35L36.75 2L36.2 1.8L36.15 1.5L36.25 1.45L36.4 1.9L37.2 1.15Q37.75 0.6 38.05 0.4Q38.6 0.05 38.9 0.7L39.45 1.45Q40.05 1.45 40.85 0.85Q41.5 0.85 42 1.5L42.6 2.35L46.4 3.7L46.6 3.8L46.45 3.85M20.9,3Q21.6 4 23.45 4.55L24.1 4.55L24.55 4.1L24.7 4.4L24.15 4.95L23.4 4.95Q21.05 4 20.95 3.4L20.75 2.75L20.9 3M6.75,1.55L6.65 1.45L7.35 0.8L6.95 1.5L6.75 1.55" />
</g>
</svg>
