<?xml version="1.0" encoding="utf-8"?>
<svg version="1.1" id="Layer_1"
xmlns="http://www.w3.org/2000/svg"
xmlns:xlink="http://www.w3.org/1999/xlink"
width="23px" height="27px"
xml:space="preserve">
<g id="545" transform="matrix(1, 0, 0, 1, 7.9, 29.1)">
<path style="fill:#000000;fill-opacity:1" d="M8.5,-9.55L9 -8.5L8.55 -7.9L9.4 -6.65L10 -7.35L10.35 -7.6L10.3 -7.7Q10.3 -7.9 10.6 -7.8L11 -8L11.05 -7.85L11 -7.65L11.35 -7.5L12.7 -6.75L14.15 -6Q14.95 -5.55 14.95 -5.15Q14.95 -4.65 13.45 -3.9Q11.95 -3.15 11.15 -3.2L9.15 -2.9L8.2 -2.9L7.75 -3.1L7.4 -3.05L6.65 -3.45L6.6 -3.55L6.5 -3.65L6.35 -3.6L5.75 -3.45Q5.15 -3.45 4.1 -4.85L3.7 -4.8L3.5 -4.8L2.5 -6.05L2.5 -6.1L2.35 -6.05L1.45 -6.25L1 -6.5L0.8 -6.4L0.6 -6.45L0.6 -7.4L0.85 -9.75L1.25 -9.75L2.55 -9.9L2.7 -9.45L2.75 -9.5L2.85 -9.15L2.7 -9.05L2.55 -8L2.65 -8.1L3.05 -8.3L2.95 -9L3.2 -9.25Q2.85 -9.55 2.45 -10.3L3.05 -10.95L3.65 -11.35L4 -11.55Q4.45 -11.8 4.75 -11.25L5.1 -10.7L5.25 -10.75L5.85 -10.55L6.1 -10.4L6.15 -10.45L5.3 -11.2L6.05 -12.6Q6.6 -12.6 9 -10.75L8.5 -9.55" />
<path style="fill:#FFFAB1;fill-opacity:1" d="M-7.35,-28.25L-7.3 -28.2L-7.4 -28.4L-7.35 -28.25M-6.95,-28.35L-6.3 -27.15L-5 -24.95L-2.8 -20.55L-3.05 -20.55Q-6.95 -24.75 -7.9 -29.1Q-7.4 -29 -6.95 -28.35" />
<path style="fill:#232323;fill-opacity:1" d="M1.55,-21.1Q2.4 -21 2.95 -19.7L2.9 -19.6L2.95 -19.25L2.95 -19L3.2 -18.95Q3.9 -18.75 3.9 -18.1Q3.9 -17.7 2.8 -17.1L2.65 -17.1L2.75 -16.8L2.55 -16.3Q2.4 -15.65 1.75 -15.7L1.65 -15.7L2.05 -14.8L1.25 -14.25L0.95 -14.35L1 -13.75L0.75 -13.45L0.9 -13.2L0.9 -12.85L0.8 -12.8L-0.25 -14L-0.75 -14.5L-1.05 -14.3L-0.9 -14.35Q-1 -13.95 -1.6 -13.95L-2 -14Q-3.25 -14.05 -3.35 -15.45L-3.3 -15.6Q-3.85 -15.9 -3.8 -16.55L-3.9 -16.55L-4.2 -16.65L-4.25 -16.65Q-4.85 -16.65 -4.85 -17.4Q-4.65 -18.5 -4.15 -18.5L-3.85 -18.4L-3.75 -18.4Q-3.8 -19.25 -4.8 -21.75L-4.95 -22L-4.9 -22L-4.1 -20.5L-4.05 -20.5L-4.3 -20.95L-4.2 -21.2L-3.5 -20.55L-3.2 -20L-3.05 -19.9L-2.85 -20L-2.65 -19.9L-2.45 -20.15L-2.65 -20.7L-2.9 -21.35L-3.25 -22.05L-3.25 -22.4L-3.2 -22.4L-2.9 -21.8L-2.9 -21.85L-2.85 -21.85L-2.65 -21.4L-2.65 -21.45L-2.3 -21.7L-1.5 -20.4L-0.75 -19.6Q-0.7 -20.6 0.55 -21.05L1.55 -21.1M0.05,-19.9L-0.15 -19.5L-0.15 -19.45L-0.1 -19.4L-0.15 -19.4L-0.1 -19.1L-0.1 -19.05L0.3 -18.4L0.65 -18.25L0.5 -18.2L0.75 -18L1.2 -17.95L2.15 -18L2.3 -18.05L2.45 -19.2L2.3 -19.55L2.25 -19.3L2.15 -19.3L2 -19.8L0.4 -20.1L0.2 -20L0.05 -19.9M2.6,-17.25L2.55 -17.25L2.55 -17.2L2.6 -17.25M3.3,-18.15Q3.3 -18.5 2.8 -18.55L2.7 -18.3L2.75 -18.15L2.5 -17.7L2.9 -17.85L3.2 -17.9L3.3 -18.15M1.55,-17.55L0.6 -17.8L0.6 -17.6Q0.6 -17.4 0.95 -16.65L1.45 -15.95L1.8 -16.25L2.1 -16.75L2 -17.05L1.9 -17L1.75 -17L1.9 -17.2L1.55 -17.55M0.65,-16.45Q0.35 -16.8 0.2 -17.8L-0.25 -18.15L-0.45 -18.15Q-0.95 -18.15 -1.55 -18.55L-1.55 -18.5Q-1.55 -18.1 -1.85 -18.1L-2.15 -18.2L-2.25 -18.1L-2.15 -17.9L-2.2 -17.7L-2.1 -17.6L-1.9 -17.3L-1.45 -17.05Q-1.1 -16.75 -1.1 -16.3L-1.2 -15.8L-1.3 -15.7L0.25 -14L0.3 -14L0.3 -14.3L0.45 -14.35L0.7 -14.1L0.75 -14.2L0.65 -14.4L0.65 -15L0.75 -15.05L1.2 -14.55L1.35 -14.55L1.1 -15.15L1.2 -15.25Q1.6 -15.25 1.65 -14.85L1.7 -14.85L1.2 -15.7L0.65 -16.45M-1.35,-18.6L-0.25 -18.2L-0.35 -18.35L-0.75 -18.6L-1 -18.65L-1.2 -18.6L-1.3 -18.6L-1.35 -18.6M-0.6,-18.65L-0.45 -18.55L-0.5 -18.7L-0.6 -18.65M-1.4,-16.3L-1.85 -17L-2 -16.95L-2.35 -17.35L-2.8 -17.6L-3 -17.4L-3 -17.2Q-3 -16.75 -3.4 -16.6L-3.4 -16.5L-3.1 -15.95L-2.85 -16.15L-2.85 -15.85L-2.5 -15.85Q-1.4 -15.85 -1.4 -16.3M-1.85,-15.45L-1.9 -15.45L-1.95 -15.45L-2.45 -15.45L-2.7 -15.45L-2.6 -15.1L-1.95 -14.45L-1.9 -14.4L-1.05 -14.7L-1 -14.8L-1.7 -15.5L-1.85 -15.45M-3.4,-17.45L-3.45 -17.6L-3.65 -17.55L-3.7 -17.65L-3.8 -17.6L-3.85 -17.65L-3.75 -17.95L-4.1 -18.15L-4.15 -18.15L-4.15 -18.2L-4.55 -17.4Q-4.55 -17 -4.15 -17L-3.65 -17.1L-3.4 -17.45M-1.9,-14.4L-2.25 -14.5L-2.2 -14.4L-1.95 -14.4L-1.9 -14.4" />
<path style="fill:#626262;fill-opacity:1" d="M0.2,-20L0.4 -20.1L2 -19.8L2.15 -19.3L2.25 -19.3L2.3 -19.55L2.45 -19.2L2.3 -18.05L2.15 -18L1.2 -17.95L0.75 -18L0.5 -18.2L0.65 -18.25L0.3 -18.4L-0.1 -19.05L-0.1 -19.1L-0.15 -19.4L-0.1 -19.4L-0.15 -19.45L-0.15 -19.5L0.05 -19.9L0.2 -20M3.2,-17.9L2.9 -17.85L2.5 -17.7L2.75 -18.15L2.7 -18.3L2.8 -18.55Q3.3 -18.5 3.3 -18.15L3.2 -17.9M1.9,-17.2L1.75 -17L1.9 -17L2 -17.05L2.1 -16.75L1.8 -16.25L1.45 -15.95L0.95 -16.65Q0.6 -17.4 0.6 -17.6L0.6 -17.8L1.55 -17.55L1.9 -17.2M1.2,-15.7L1.7 -14.85L1.65 -14.85Q1.6 -15.25 1.2 -15.25L1.1 -15.15L1.35 -14.55L1.2 -14.55L0.75 -15.05L0.65 -15L0.65 -14.4L0.75 -14.2L0.7 -14.1L0.45 -14.35L0.3 -14.3L0.3 -14L0.25 -14L-1.3 -15.7L-1.2 -15.8L-1.1 -16.3Q-1.1 -16.75 -1.45 -17.05L-1.9 -17.3L-2.1 -17.6L-2.2 -17.7L-2.15 -17.9L-2.25 -18.1L-2.15 -18.2L-1.85 -18.1Q-1.55 -18.1 -1.55 -18.5L-1.55 -18.55Q-0.95 -18.15 -0.45 -18.15L-0.25 -18.15L0.2 -17.8Q0.35 -16.8 0.65 -16.45L1.2 -15.7M-1.3,-18.6L-1.2 -18.6L-1 -18.65L-0.75 -18.6L-0.35 -18.35L-0.25 -18.2L-1.35 -18.6L-1.3 -18.6M-2.5,-15.85L-2.85 -15.85L-2.85 -16.15L-3.1 -15.95L-3.4 -16.5L-3.4 -16.6Q-3 -16.75 -3 -17.2L-3 -17.4L-2.8 -17.6L-2.35 -17.35L-2 -16.95L-1.85 -17L-1.4 -16.3Q-1.4 -15.85 -2.5 -15.85M-1.7,-15.5L-1 -14.8L-1.05 -14.7L-1.9 -14.4L-1.95 -14.45L-2.6 -15.1L-2.7 -15.45L-2.45 -15.45L-1.95 -15.45L-1.9 -15.45L-1.85 -15.45L-1.7 -15.5M-3.65,-17.1L-4.15 -17Q-4.55 -17 -4.55 -17.4L-4.15 -18.2L-4.15 -18.15L-4.1 -18.15L-3.75 -17.95L-3.85 -17.65L-3.8 -17.6L-3.7 -17.65L-3.65 -17.55L-3.45 -17.6L-3.4 -17.45L-3.65 -17.1" />
</g>
</svg>
