<?xml version="1.0" encoding="utf-8"?>
<svg version="1.1" id="Layer_1"
xmlns="http://www.w3.org/2000/svg"
xmlns:xlink="http://www.w3.org/1999/xlink"
width="12px" height="12px"
xml:space="preserve">
<g id="1129" transform="matrix(1, 0, 0, 1, -31.2, -11)">
<path style="fill:#171717;fill-opacity:1" d="M41.1,20.9Q39.4 22.6 37 22.6Q34.6 22.6 32.9 20.9Q31.2 19.2 31.2 16.8Q31.2 14.4 32.9 12.7Q34.6 11 37 11Q39.4 11 41.1 12.7Q42.8 14.4 42.8 16.8Q42.8 19.2 41.1 20.9M32.4,16.8Q32.4 18.75 33.75 20.1Q35.1 21.4 37 21.4Q38.9 21.4 40.25 20.1Q41.6 18.75 41.6 16.8Q41.6 14.9 40.25 13.55Q38.9 12.2 37 12.2Q35.1 12.2 33.75 13.55Q32.4 14.9 32.4 16.8" />
<path style="fill:#683C14;fill-opacity:1" d="M37,13.05Q35.45 13.05 34.35 14.15Q33.25 15.25 33.25 16.8Q33.25 18.4 34.35 19.5Q35.45 20.55 37 20.55Q38.55 20.55 39.65 19.5Q40.75 18.4 40.75 16.8Q40.75 15.25 39.65 14.15Q38.55 13.05 37 13.05M33.75,13.55Q35.1 12.2 37 12.2Q38.9 12.2 40.25 13.55Q41.6 14.9 41.6 16.8Q41.6 18.75 40.25 20.1Q38.9 21.4 37 21.4Q35.1 21.4 33.75 20.1Q32.4 18.75 32.4 16.8Q32.4 14.9 33.75 13.55" />
<path style="fill:#482708;fill-opacity:1" d="M39.65,14.15Q40.75 15.25 40.75 16.8Q40.75 18.4 39.65 19.5Q38.55 20.55 37 20.55Q35.45 20.55 34.35 19.5Q33.25 18.4 33.25 16.8Q33.25 15.25 34.35 14.15Q35.45 13.05 37 13.05Q38.55 13.05 39.65 14.15" />
</g>
</svg>
