<?xml version="1.0" encoding="utf-8"?>
<svg version="1.1" id="Layer_1"
xmlns="http://www.w3.org/2000/svg"
xmlns:xlink="http://www.w3.org/1999/xlink"
width="131px" height="15px"
xml:space="preserve">
<g id="340" transform="matrix(1, 0, 0, 1, -3.2, -19.75)">
<path style="fill:#E9B669;fill-opacity:1" d="M127.45,28.15L128.75 24.8L129.85 28.25L133.45 28.4L130.55 30.55L131.45 34L128.55 31.9L125.55 33.85L126.65 30.45L123.85 28.15L127.45 28.15M113.35,30.55L109 33.4L110.6 28.45L106.9 25.45L106.9 25.15L111.75 25.15L113.65 20.3L115.25 25.25L120.45 25.5L116.25 28.6L117.6 33.65L113.35 30.55M30.1,24.6L26.05 27.9L27.65 32.85L23.3 30L19.05 33.1L20.4 28.05L16.2 24.95L21.4 24.7L23 19.75L24.9 24.6L30.1 24.6M12.8,27.6L10 29.9L11.1 33.3L8.1 31.35L5.2 33.45L6.1 30L3.2 27.85L6.8 27.7L7.9 24.25L9.2 27.6L12.8 27.6" />
</g>
</svg>
