<?xml version="1.0" encoding="utf-8"?>
<svg version="1.1" id="Layer_1"
xmlns="http://www.w3.org/2000/svg"
xmlns:xlink="http://www.w3.org/1999/xlink"
width="16px" height="12px"
xml:space="preserve">
<g id="538" transform="matrix(1, 0, 0, 1, 3.05, 14.15)">
<path style="fill:#000000;fill-opacity:1" d="M3.75,-14.15L4.05 -12.45L4.3 -11.35L4.15 -11.15L3.7 -11.05L3.75 -10.95L4.45 -8.9L4.45 -8.85L4.95 -8.3L5 -8.2L5.55 -8.35L6.2 -8.5L7.95 -8.5L8.05 -8.45L9.5 -8.3L11.2 -7.8L12 -7.35Q12.55 -7 12.55 -6.65Q12.55 -6.3 11.4 -5.5Q10 -4.65 8.95 -4.65L8.05 -4.75L7.45 -4.8L6.65 -4.65L6.65 -4.4Q6.65 -4.2 5.3 -3.65Q3.9 -3.05 3.3 -3.05Q2.65 -3.05 2.3 -3.9L1.85 -5.3Q0.75 -7.2 0.75 -7.5Q0.5 -7.75 0.2 -8.55L-0.15 -9.55L-0.2 -9.55Q-0.7 -9.2 -0.85 -9.2Q-1.35 -9.2 -2.25 -10.4L-3.05 -11.5L-2.15 -12.4Q-1.75 -12.75 -1.35 -12.65Q-0.95 -12.6 -0.8 -12.25L0.5 -10.65L1.1 -10.85L1.25 -10.8L2.05 -11.15L2.4 -11.35Q2.1 -11.5 1.85 -13.85L3.05 -14.15L3.75 -14.15" />
</g>
</svg>
