<?xml version="1.0" encoding="utf-8"?>
<svg version="1.1" id="Layer_1"
xmlns="http://www.w3.org/2000/svg"
xmlns:xlink="http://www.w3.org/1999/xlink"
width="45px" height="27px"
xml:space="preserve">
<g id="1187" transform="matrix(1, 0, 0, 1, 32.3, 21.8)">
<path style="fill:#4F2906;fill-opacity:1" d="M-0.65,-9.7L-1.65 -8.75L-9.2 -8.25L-9.2 -9.1L-0.65 -9.7" />
<path style="fill:#1C0A00;fill-opacity:1" d="M8.35,-6.55L-1.2 -5.3L-2.4 -6.5L8.25 -7.8L8.25 -9.55L12.35 -9.55L12.35 -7.05L4.65 0.65L3.45 -0.6L9.1 -5.6L8.35 -6.55M-1.65,-8.75L-0.65 -9.7L-0.65 -12.95L-0.65 -14L-1.15 -14.7L-1.65 -15.45L-9.2 -16.05L-8.35 -16.9L-1.4 -16.25L0.4 -14L0.4 -9.7L0.55 -9.7L-1.1 -8.25L-8.5 -7.5L-9.2 -8.25L-1.65 -8.75" />
<path style="fill:#9F6329;fill-opacity:0.988235" d="M-1.15,-14.7L-0.65 -14L-0.65 -12.95L-9.2 -12.95L-9.2 -15.1L-1.15 -14.7" />
<linearGradient
id="LinearGradID_416" gradientUnits="userSpaceOnUse" gradientTransform="matrix(-0.00495911, -0.0187073, 0.0177917, -0.00471497, -19.1, -14.25)" spreadMethod ="pad" x1="-819.2" y1="0" x2="819.2" y2="0" >
<stop  offset="0" style="stop-color:#511A16;stop-opacity:1" />
<stop  offset="0.505882" style="stop-color:#6D4414;stop-opacity:1" />
<stop  offset="1" style="stop-color:#511A16;stop-opacity:1" />
</linearGradient>
<path style="fill:url(#LinearGradID_416) " d="M-9.2,-15.1L-9.2 -16.05L-1.65 -15.45L-1.15 -14.7L-9.2 -15.1M-9.2,-9.1L-9.2 -12.95L-0.65 -12.95L-0.65 -9.7L-9.2 -9.1" />
<path style="fill:#1C0A00;fill-opacity:1" d="M4.85,-0.15Q4.85 1.95 3.35 3.45Q1.85 4.95 -0.25 4.95Q-2.25 4.95 -3.75 3.6L-10.8 4.5L-14.15 3.1L-14.95 0.25L-30.15 0.25L-32.3 -1.65L-32.3 -5.65L-25.25 -7.6Q-24.7 -19.6 -14.35 -21.8L-6.25 -21.8L-5.05 -20.6L-5.05 -17.45L-6.75 -15.75L-6.75 -7.35L0.1 -6L0.1 -5.25Q2 -5.15 3.35 -3.8Q4.85 -2.3 4.85 -0.15M-29.75,-0.7L-5.1 -0.7L-1.05 -5.15L-7.65 -6.65L-21.5 -6.65L-25.15 -6.65L-31.45 -4.85L-31.45 -2.2L-29.75 -0.7M-7.5,-7.45L-7.5 -16.6L-13.5 -16.6L-14.4 -17.7L-14.4 -20.95Q-23.85 -18.35 -24.05 -7.45L-21.1 -7.45L-7.5 -7.45M-5.9,-20.3L-6.55 -21L-13.75 -21L-13.75 -17.85L-12.85 -17.05L-6.6 -17.05L-5.9 -17.8L-5.9 -19.4L-5.9 -20.3" />
<path style="fill:#9F6329;fill-opacity:0.988235" d="M-30,-3.85L-31.45 -2.2L-31.45 -4.85L-25.15 -6.65L-21.5 -6.65L-30 -3.85M-21.1,-7.45L-24.05 -7.45Q-23.85 -18.35 -14.4 -20.95L-14.4 -17.7Q-20.85 -16.4 -21.1 -7.45M-13.75,-17.85L-13.75 -21L-6.55 -21L-5.9 -20.3L-5.9 -19.4L-11.7 -19.4L-13.75 -17.85" />
<linearGradient
id="LinearGradID_417" gradientUnits="userSpaceOnUse" gradientTransform="matrix(-0.0043335, -0.0163422, 0.0177917, -0.00471497, -13, -12.55)" spreadMethod ="pad" x1="-819.2" y1="0" x2="819.2" y2="0" >
<stop  offset="0" style="stop-color:#511A16;stop-opacity:1" />
<stop  offset="0.505882" style="stop-color:#6D4414;stop-opacity:1" />
<stop  offset="1" style="stop-color:#511A16;stop-opacity:1" />
</linearGradient>
<path style="fill:url(#LinearGradID_417) " d="M-21.5,-6.65L-7.65 -6.65L-1.05 -5.15L-5.1 -0.7L-29.75 -0.7L-31.45 -2.2L-30 -3.85L-21.5 -6.65M-14.4,-17.7L-13.5 -16.6L-7.5 -16.6L-7.5 -7.45L-21.1 -7.45Q-20.85 -16.4 -14.4 -17.7M-11.7,-19.4L-5.9 -19.4L-5.9 -17.8L-6.6 -17.05L-12.85 -17.05L-13.75 -17.85L-11.7 -19.4" />
<path style="fill:#1C0A00;fill-opacity:1" d="M-22.3,-1.55L-22.3 -4.15L-21.3 -5.9L-21.3 -1.55L-22.3 -1.55M-14.65,-1.55L-14.65 -4.15L-13.6 -5.9L-13.6 -1.55L-14.65 -1.55M-17.5,-5.9L-17.5 -1.55L-18.5 -1.55L-18.5 -4.15L-17.5 -5.9M-9.8,-1.55L-10.85 -1.55L-10.85 -4.15L-9.8 -5.9L-9.8 -1.55" />
<path style="fill:#9F6329;fill-opacity:0.988235" d="M-22.3,-4.15L-22.3 -1.55L-23.45 -1.55L-23.45 -4.4L-21.3 -5.9L-22.3 -4.15M-14.65,-4.15L-14.65 -1.55L-15.8 -1.55L-15.8 -4.4L-13.6 -5.9L-14.65 -4.15M-18.5,-4.15L-18.5 -1.55L-19.65 -1.55L-19.65 -4.4L-17.5 -5.9L-18.5 -4.15M-12,-1.55L-12 -4.4L-9.8 -5.9L-10.85 -4.15L-10.85 -1.55L-12 -1.55" />
</g>
</svg>
