<?xml version="1.0" encoding="utf-8"?>
<svg version="1.1" id="Layer_1"
xmlns="http://www.w3.org/2000/svg"
xmlns:xlink="http://www.w3.org/1999/xlink"
width="12px" height="12px"
xml:space="preserve">
<g id="522" transform="matrix(1, 0, 0, 1, -2.4, 0.3)">
<path style="fill:#000000;fill-opacity:1" d="M9.3,-0.3L10.6 2.9L9.45 3.6L9.4 3.8Q9.35 4.3 9.6 4L10.95 4.9L14 6.15L11.7 11L9.4 11.05L8.95 10.5L9 8.45L8.25 7.8L8.1 11.7L2.4 11.7Q2.3 11.1 2.65 10.55Q3.2 9.5 4.1 9.05L4.85 8.85L4.9 6.9L4.25 6.45L3.75 3.9L4.65 4.3L5.3 -0.1L9.3 -0.3" />
</g>
</svg>
