<?xml version="1.0" encoding="utf-8"?>
<svg version="1.1" id="Layer_1"
xmlns="http://www.w3.org/2000/svg"
xmlns:xlink="http://www.w3.org/1999/xlink"
width="29px" height="19px"
xml:space="preserve">
<g id="733" transform="matrix(1, 0, 0, 1, 20.15, -2.7)">
<path style="fill:#000000;fill-opacity:1" d="M3.65,20.9L3.65 21L3.6 21.2L3.55 21.25Q1.25 21.75 -0.35 20.3Q-1.95 18.9 -3.75 19.6L-4.7 20Q-6.05 20.75 -7.15 19.35L-7.15 19.25L-5.8 17.95Q-5 17.45 -4.05 17.25Q-2.45 17.6 -0.9 18.3Q-0.05 18.7 0.7 19.15L1.15 19L2.55 18.7L3.2 19.1L3.5 19.3L3.8 19.55L4.35 19.55L5.75 19.65L7.4 19.95L7.5 20L8.35 20.25L8.45 20.4L8.35 20.45L8.4 20.45L8.4 20.7L8.35 20.9L8.3 21L7.95 21.15L3.75 20.8L3.65 20.9M-8.7,5.65L-8.65 5.65L-9.05 6.25Q-10.3 7.45 -11.9 7.9Q-13.85 8.4 -14.2 6.9Q-14.35 6.15 -13.95 5.55L-13.05 5.45L-10.95 5.45L-9.6 5.45L-8.7 5.65M-8.6,10.2Q-7.9 10.5 -8 11.3Q-8.25 12.75 -9.55 12.5Q-10 12.45 -10.05 12Q-10.1 10.75 -8.6 10.2M-16.65,3.45Q-16.9 5.8 -19.6 5.25L-19.9 5Q-20.8 2.95 -18.15 2.7L-17.65 2.8Q-17.1 2.8 -16.7 3.2Q-16.55 3.25 -16.65 3.4L-16.65 3.45M-12.7,12.05L-12.35 12.1L-12.25 12.1L-12.2 12.1L-12.1 12.15Q-11.55 12.65 -11.35 13.35L-11.45 13.75Q-12.7 15.05 -14.6 15.55L-17.75 15.4L-17.8 15.25Q-18.25 13.25 -16.5 12.5Q-14.9 11.8 -13.05 11.95L-13 12L-12.7 12.05M-11.55,15.3Q-10.7 15.6 -10.15 16.3L-9.45 17.4L-9.25 17.65Q-7.75 17.45 -7.25 18.7L-7.3 19Q-9.95 21.05 -13.55 20.25L-14.15 20.15L-18.15 20.2L-18.2 19.85Q-18.2 18.9 -17.25 18.4Q-16.65 18.1 -15.95 18.15L-15.35 17.95L-15.25 17.95Q-14.9 16.8 -14.05 15.95Q-13.05 14.95 -11.55 15.3" />
</g>
</svg>
