<?xml version="1.0" encoding="utf-8"?>
<svg version="1.1" id="Layer_1"
xmlns="http://www.w3.org/2000/svg"
xmlns:xlink="http://www.w3.org/1999/xlink"
width="10px" height="7px"
xml:space="preserve">
<g id="653" transform="matrix(1, 0, 0, 1, 1.5, 10.25)">
<path style="fill:#000000;fill-opacity:1" d="M7.3,-7.3Q8.5 -7 8.25 -6.1Q8.1 -5.5 6.15 -4.75Q4.15 -4 3.15 -4.25Q2.55 -4.4 1.2 -5.9Q-0.05 -7.35 0 -7.6Q-0.4 -7.8 -0.65 -8.55L-0.75 -9L-1 -9.35L-1.4 -9.45Q-1.6 -9.4 -1.4 -9.95L0.2 -10Q1.6 -9.55 1.4 -8.6L2.15 -7.8Q2.9 -6.9 3.2 -6.85L5.2 -7.1L7.3 -7.3" />
</g>
</svg>
