<?xml version="1.0" encoding="utf-8"?>
<svg version="1.1" id="Layer_1"
xmlns="http://www.w3.org/2000/svg"
xmlns:xlink="http://www.w3.org/1999/xlink"
width="122px" height="99px"
xml:space="preserve">
<g id="394" transform="matrix(1, 0, 0, 1, 25.7, 38.5)">
<path style="fill:#FFFF0E;fill-opacity:1" d="M77.15,-4.25L76.8 -4.05L76.6 -4L72.5 -3.2Q71.55 -3.05 71.05 -2.45L70.6 -2.3L67.1 -1.95L66.7 -1.9L63.25 -2.05Q62.05 -2.25 61.85 -3.2Q61.75 -3.8 62.35 -4L62.55 -4.05L63.35 -4.4L65.95 -5.5L67.15 -5.9L69.6 -6.5L69.95 -6.6L71.95 -6.5L74.9 -6.05L77.2 -5.85L77.4 -5.85Q78.35 -5.7 78.75 -4.95Q78.7 -4.55 78.3 -4.5L77.95 -4.4L77.15 -4.25M1.4,51.35Q0.45 51.85 -0.55 51.8L-0.6 51.65Q-0.5 51.05 -1.15 51.3L-1.45 51.35L-3.7 51.1Q-3.95 51.05 -3.8 50.75Q-2.7 50.25 -3.7 50.05L-4.75 49.85Q-5.8 49.25 -7.45 49.4L-7.7 49.35Q-8.95 49.1 -9.3 48.05L-8.85 47.65L-7.55 47.05L-1.5 45.65L3.45 44.65L4.95 44.75L5.5 44.85L6.9 45.05L8.2 45.35L8.95 45.6L9 45.75L9.1 45.95L9.25 46.15L9.35 46.35L9.35 46.5Q9.4 47.05 9.05 47.45L8.05 48.3L4.7 49.85L2.1 51L1.75 51L1.4 51.35M19.05,-24.1Q19.05 -25 19.7 -25.3Q20.4 -22.15 20.05 -18.5Q19.65 -14.95 19.65 -11.55Q19.65 -8 19.15 -4.5Q18.8 -2.1 19.15 0.1Q18.75 0.35 18.65 0.9L18.55 2.1L18.8 3Q19.05 3.55 18.8 3.95Q17.4 0.8 17.35 -3.65L17.2 -11.4Q17.15 -15.4 16.55 -19.3L15.8 -24.45Q16.75 -24.35 17 -23.2L17.4 -21.5L18.1 -19.65L18.65 -18.75L18.8 -20.4L18.9 -22.25L19.05 -24.1M59.35,-21.85Q58.8 -21.35 58.1 -21Q57.5 -20.65 57.2 -20.1L57.35 -20.1L58.6 -20.05L59 -19.85L59.2 -19.65Q59.1 -17.95 57.3 -17.3Q54.45 -16.25 51.45 -15.6L45.45 -14.1L45.35 -14.2Q46.1 -16 47.75 -17.4L51.3 -20.3Q53.3 -21.95 55.85 -22.55L59.75 -23.65L59.8 -23.6L60.75 -23.55Q60.95 -23.3 60.45 -22.85L59.35 -21.85M63.65,45.1L63.35 45.15L62.95 44.8Q62.8 44.4 63.3 44.5L63.45 44.5L63.65 45.1M28.15,48.25L29.3 47.6L30.45 46.7L30.9 46.6L31 46.7L31.15 46.6L31.85 46.3L31.8 46.3Q31.2 46.05 32.35 46.1L32.45 46.1L32.6 46Q33.15 45.9 33.15 46.15Q34.25 46.2 35.3 46.65L38 47.75Q39.45 48.35 40.8 49.1Q42.15 49.9 42.85 51Q42.85 51.7 42.2 51.7Q39.4 51.75 36.9 52.75L32.15 52.9L32.05 52.4Q31.9 51.75 31.05 51.5L29.35 51.15Q27.45 50.95 26.25 49.95L26.35 49.6Q26.7 49.1 27.2 48.75Q27.65 48.45 28.15 48.25M-10.8,12.75L-10.6 12.6L-10.35 12.55L-10.1 12.5L-10.1 12.45L-8.95 12.6L-7.85 12.9L-6.85 13.25Q-6.2 13.45 -5.65 13.8L-5.5 13.95Q-4.9 15.7 -6.75 16.55L-13.55 19.4L-17.35 20.75L-19 21.1Q-20.35 21.1 -21.3 20.25L-21.4 20.15L-21.2 19.6L-20.75 19.25L-20.5 19L-20.2 18.7L-20 18.5L-19.7 18.1L-19.7 17.95Q-19.8 17.55 -20.2 17.35L-20.7 17L-20.9 16.85L-21.3 16.45L-21.45 16.25L-21.55 15.9Q-20.95 14.6 -19.05 14.4L-11.6 13.2L-10.85 13.05L-10.9 12.9L-10.8 12.75" />
<path style="fill:#333333;fill-opacity:0.901961" d="M77.95,-4.4L78.2 -4.15Q78.2 -3.65 77.65 -3.4L77.1 -3.1L76.75 -3L73.25 -1.7L70.75 -0.95L69.2 -0.5L69.05 -0.4Q67.95 0.1 66.75 0.1L66.45 0.05L65.25 1.15L64.75 1.55Q62.05 3.3 58.45 3.25L55.25 3.5L54.2 3.7L52.35 6.1Q50.2 8.25 47.4 6.9Q46.15 6.3 44.7 6.1Q41.85 5.75 39.85 7L39.65 7.15L39.25 7.65L38.45 8.55Q37.95 9.15 37.25 9.55Q36.6 9.9 36.1 10.4L40.05 9.45Q42.3 8.85 44.25 10L46.4 11.65L46.55 11.75L48.5 12Q49.45 11.85 50.25 12.3L51.25 12.75L51.95 15.15Q52.25 16.35 52.05 17.5Q51.9 18.45 52.4 19.3Q52.95 20.2 53.85 20.7Q55.05 21.35 55.3 22.7L55.25 23.75Q53.75 25.05 51.75 24.85Q48.4 24.5 45.5 25.8Q44.7 26.2 44 26.8Q43.65 27.65 44 28.5L44.3 30.1Q44.25 31.05 43.8 31.9Q43.5 32.45 43.75 33.05L44.5 34.35L44.7 34.9L47.85 34.8Q49.3 34 51 33.7Q52.9 33.45 54.4 32.75L56.5 32.85L57.05 32.75L57.35 32.9L57.55 33.05L57.75 33.25L58 33.45Q58.05 34.45 58.75 35.1Q59.6 35.8 60.25 36.85Q60.75 37.75 60.85 38.75Q60.9 39.35 61.25 39.85L61.9 40.9L62.05 41.45Q63.25 41.75 64.1 42.65Q64.85 43.4 65.25 44.3L65.55 45.5Q65.6 46.35 66.15 47.05L66.25 47.35Q64.05 48.5 61.3 48.9Q60.8 48.95 60.35 49.45Q58.45 51.65 56 49.7Q54.9 48.85 54.3 47.65Q53 45.35 50.3 46.2L50.15 46.4L50 46.75L49.85 47.1L49.75 47.3L49.65 47.45L49.55 47.65L46.85 47.35L44.9 47.1Q46.15 48.75 45.85 51.75Q45.7 53.55 43.75 53.95L37.85 55.2Q32.7 56.3 29.6 52.85Q29.25 52.6 29 52.65Q27.75 52.85 27.05 53.55L26.85 53.65Q25.75 53.6 25.2 52.55Q24.7 51.65 23.75 51.25Q22.9 50.9 22.35 51.25L22.35 52.55L22.15 53.85L21.95 55.1Q21.9 55.85 21.5 56.4L21.4 56.55Q20.3 56.6 19.4 55.8L17.75 54.55Q16.9 54.05 16.65 53.25Q13.9 52.7 11.55 53.8L6.9 56.2L6.55 56.45L6.4 56.5L5.55 56.25L5.3 56.1Q4 57.35 2.25 57.3Q0.4 57.3 -0.65 56L-0.25 54.65L0.15 53.25Q0.35 52.5 0.8 51.95L1.4 51.35L1.75 51L2.1 51L4.7 49.85L8.05 48.3L9.05 47.45Q9.4 47.05 9.35 46.5L9.35 46.35L9.25 46.15L9.1 45.95L9 45.75L8.95 45.6L8.2 45.35L6.9 45.05L5.5 44.85L4.95 44.75L3.45 44.65L-1.5 45.65L-7.55 47.05L-8.85 47.65L-9.3 48.05Q-8.95 49.1 -7.7 49.35L-7.45 49.4Q-5.8 49.25 -4.75 49.85L-4.5 50.05Q-5.7 50.85 -7.4 50.8Q-9.85 50.7 -11.55 49.15Q-7.05 43.7 0 43.05L1.85 42.85Q8.4 41.85 12.55 37.65Q13.9 36.25 14.2 34L14.6 29.2L14.45 28.65Q13.45 29.25 13.05 30.4Q12.45 31.95 11.25 33.25L8.55 35.85L8.05 36.35Q6.15 36.05 4.45 36.85Q2.5 37.8 0.8 36.3L-0.35 34.8Q-1.2 34.55 -1.85 34.05L-3.35 32.65L-4.65 31.35L-4.8 31.15L-4.95 31.05Q-5.85 30.75 -6.55 31.25L-7.65 31.6L-8.2 31.7L-8.25 31.9L-8.35 32.05L-8.45 32.3L-8.5 32.65L-8.5 32.85L-8.55 33L-8.6 33.2L-8.65 33.4L-8.8 33.75L-8.95 34.1L-9.15 34.5Q-11.3 34.95 -13 36.5Q-17.4 40.55 -21.8 36.5Q-23.25 35.15 -22.55 33.1Q-21.9 31.35 -20.05 30.4Q-17.65 29.25 -15.05 29.85L-14.75 30.05L-14.65 30.2L-14.6 30.3L-14.55 30.35L-14.25 30.5L-14.1 30.65L-13.95 30.85L-13.75 31.05Q-13 31.55 -12.1 31.4L-7.6 30.15L-4.9 29.25Q-3.95 28.95 -3.15 28.4L-3.15 28.2L-3.2 28L-3.2 27.85L-3.2 27.65L-3.2 27.3L-3.25 27.1L-3.3 26.9L-3.4 26.7L-3.4 26.55L-3.4 26.35L-3.4 26.2L-3.15 25.65Q-2.55 25.05 -1.75 24.7Q-0.55 24.15 -0.15 22.95Q0.15 22.05 0.9 21.45Q2.6 20.15 4.7 19.45L4.9 19.35L4.95 19.15L4.95 18.8L4.8 18L4.7 17.5L4.8 16.55L5.2 15.65L5.7 14.95L6.4 14.2L6.65 14.1Q7 14.15 7.3 14.35L8.2 14.9L9.6 15.75Q10.65 16.2 11.5 16.95L12.9 18Q13.75 18.6 14.8 18.65L14.35 17.75L13.4 16.1L12.2 13.75L10.9 11.25Q10.2 9.95 9.8 8.55Q9.5 7.55 8.8 6.7L7.8 6.35L6.1 5.5L3.9 4.1L2 2.75L-0.75 0.5L-0.95 0.2L-0.95 0L-0.95 -0.2L-0.9 -0.35L-0.8 -0.55L-0.7 -0.75L-0.65 -0.9L-0.55 -1.1L-0.45 -1.3L-0.5 -1.45L-0.75 -2L-0.9 -2.75L-0.9 -3.3L-0.75 -4.25L-0.4 -5.3L0.4 -6.25L0.9 -6.6L4.65 -6.25Q6.65 -5.9 8.2 -4.7L11.55 -2.75L12 -2.5L13.05 -2.85Q13.6 -2.9 13.9 -2.35L14.35 -1.25Q14.55 -0.8 15.05 -0.6L15.05 -1.55Q15.3 -6.6 13.65 -11.15Q13.1 -12.8 13.35 -14.5Q13.9 -18.6 13.1 -22.45L13.45 -22.4L13.6 -22.3L13.65 -22.1L13.7 -21.95L13.8 -21.95L13.95 -22.1Q14.05 -24.45 14.8 -26.5Q15.45 -28.5 15.45 -30.6L15.8 -33.7Q16.25 -35.65 15.75 -37.65Q15.55 -38.45 16.2 -38.5Q17.05 -37.35 16.8 -35.95Q16.55 -34.5 16.95 -33.15Q17.3 -31.8 18 -30.55L18.45 -29.7L18.7 -29.5L19.2 -29.2L19.45 -29.05L19.65 -29.4L19.9 -29.55L19.95 -29.55L20.45 -29.1L20.7 -28.3L20.85 -27.55L20.95 -26.85Q24.1 -23.7 23.4 -18.4L22.15 -11.15Q21.65 -8.8 21.6 -6.35L21.95 -5.55L22.2 -3.95Q22.3 -3.15 22.75 -2.55Q23.5 -1.5 24.7 -1.65L25.9 -4.95Q26.55 -6.55 27.6 -7.9L30.15 -11.35Q30.95 -12.45 31.9 -13.05L31.85 -12.75L33.55 -14.25Q36.8 -17 41.05 -17.55Q43.8 -17.9 44.5 -20.45L45.6 -21.2L47.85 -22.2L48.55 -22.45Q51.15 -23.25 53.25 -24.75Q54.65 -25.7 56.25 -25.8L58.25 -25.7L58.55 -25.65L59.2 -25.55L59.45 -25.55L59.7 -25.4L59.85 -25.15L59.9 -25.1L60.15 -24.9L60.25 -24.75L60.3 -24.6Q60.35 -24.5 60.4 -24.55Q62.35 -24.7 64 -23.75L65.2 -22.7L65.25 -22.55L65.25 -22.35L62.75 -20.05Q61.55 -19.2 60.65 -18.05Q59.4 -16.5 57.8 -15.4Q56.7 -14.65 55.25 -14.4Q52.55 -13.9 50.4 -12.2L49.85 -11.2L49.05 -10.4Q49.15 -9.95 48.65 -9.6L47.6 -8.75L46.9 -7.8L46.4 -6.85L46.6 -6.5L46.85 -6.15L47.2 -5.75L47.4 -5.55L47.45 -5.4Q48.2 -5.4 48.95 -6L51.2 -7.8L52.05 -8.35L52.75 -9.15Q53.95 -10.5 55.75 -11.4Q57.2 -12.1 58.75 -12.65L59 -12.6L59.05 -12.4L59 -12.25L58.45 -11.85L58.2 -11.65L58.05 -11.5Q60 -12.85 62.45 -14.05Q64.55 -15.1 66.8 -15.2Q68.9 -15.35 70.7 -16.05Q71.45 -16.2 71.9 -15.65L72.5 -14.75L73.05 -13.8L73.35 -12.75Q69.75 -9.05 64.35 -8.6L63.6 -8L61.5 -6.25L61.45 -6.2L63.6 -6.9Q65.5 -7.55 67 -8.6L69.3 -8.35L71 -8.05L74.4 -7.7L75.75 -7.45L75.9 -7.3L76.05 -7.1L76.2 -6.95L76.5 -6.75L76.7 -6.65L77.1 -6.55L77.35 -6.5L77.7 -6.3L77.85 -6.15L77.2 -5.85L74.9 -6.05L71.95 -6.5L69.95 -6.6L69.6 -6.5L67.15 -5.9L65.95 -5.5L63.35 -4.4L62.55 -4.05L62.35 -4Q61.75 -3.8 61.85 -3.2Q62.05 -2.25 63.25 -2.05L66.7 -1.9L67.1 -1.95L70.6 -2.3L71.05 -2.45Q71.55 -3.05 72.5 -3.2L76.6 -4L76.8 -4.05L77.15 -4.25L77.95 -4.4M39.9,-28.35L40.9 -28.3L41.2 -28.25L42.45 -28L43.2 -27.65L43.45 -27.35L43.35 -27.2L43.25 -27L43 -26.8L42.6 -26.4L42.4 -26.3Q42 -26.2 41.9 -25.75L41.85 -25.55L41.85 -25.4L41.85 -25.2L41.85 -25L41.8 -24.85L41.7 -24.65L39.85 -23.15Q38 -21.5 35.75 -20.45Q33.65 -19.4 31.45 -18.65Q29.5 -18 28.45 -19.35L29.6 -21.2L31.9 -24.6Q32.8 -25.95 34.05 -26.9Q36.05 -28.45 38.5 -28.15L39.9 -28.35M4.55,-26.5Q6.7 -26 7.7 -24Q8.55 -22.2 9.95 -20.75L10.6 -19.6L10.15 -17.15Q9.1 -10.75 1.95 -11.75Q0.4 -11.95 -0.8 -10.75Q-4 -7.4 -8.6 -9.9Q-9.6 -10.45 -10.3 -11.3L-10.4 -11.3L-11 -11.45L-11.3 -11.55L-12.15 -13.5Q-12.75 -15.5 -11.3 -17.1Q-9.5 -19.05 -7.15 -20.75Q-6.45 -21.2 -6.3 -22.15Q-5.7 -25.05 -2.85 -26.1L-1.45 -26.75L1 -26.65L4.55 -26.5M18.9,-22.25L18.8 -20.4L18.65 -18.75L18.1 -19.65L17.4 -21.5L17 -23.2Q16.75 -24.35 15.8 -24.45L16.55 -19.3Q17.15 -15.4 17.2 -11.4L17.35 -3.65Q17.4 0.8 18.8 3.95Q19.05 3.55 18.8 3L18.55 2.1L18.65 0.9Q18.75 0.35 19.15 0.1Q18.8 -2.1 19.15 -4.5Q19.65 -8 19.65 -11.55Q19.65 -14.95 20.05 -18.5Q20.4 -22.15 19.7 -25.3Q19.05 -25 19.05 -24.1L18.9 -22.25M60.45,-22.85Q60.95 -23.3 60.75 -23.55L59.8 -23.6L59.75 -23.65L55.85 -22.55Q53.3 -21.95 51.3 -20.3L47.75 -17.4Q46.1 -16 45.35 -14.2L45.45 -14.1L51.45 -15.6Q54.45 -16.25 57.3 -17.3Q59.1 -17.95 59.2 -19.65L59 -19.85L58.6 -20.05L57.35 -20.1L57.2 -20.1Q57.5 -20.65 58.1 -21Q58.8 -21.35 59.35 -21.85L60.45 -22.85M89,34.95L89.4 34.85Q91.4 34.5 93.15 35.25Q94.9 36.05 95.65 37.75Q96.4 39.5 96.05 41.5Q95.8 42.95 94.85 44.1L94.8 44.15Q91.6 44.3 88.6 43.15Q86.85 42.45 86.55 40.7Q86.4 39.9 86.9 39.15L86.9 39L86.85 39.05L86.6 39.1L86.35 39L86.25 38.85L86.25 38.7Q86.35 38.15 86.65 37.75L87.25 36.75L87.7 35.9Q88.15 35.15 89 34.95M64.55,21.45Q64.6 20.4 65.25 19.7Q66.1 18.8 67.15 19.2L67.2 19.4L67.05 19.7L67.15 19.7L68.45 19.5L69.7 19.3Q70.35 19.8 71.2 19.85Q73.3 19.95 75.25 19.2L76.35 18.8Q80.45 19.3 79.15 22.65Q78.45 24.35 76.45 24.7L70.2 25.95Q66.85 26.75 64.3 24.6Q63.9 24.3 63.85 23.85Q63.7 23.25 64.05 22.85Q64.55 22.2 64.55 21.45M77.95,31.1Q81.4 32.55 80.4 35.9Q79.4 39.05 75.65 38.25Q72.8 37.65 71.45 35.15L71.45 35.05L69.95 34.6L69.15 34.25L68.95 34.1L68.75 33.95L68.25 33.4L68.25 33.2L68.35 32.3L68.45 32.1L68.45 31.9Q68.45 31.4 68.7 30.95Q69.2 30.1 70.15 30L71.9 29.45Q75.05 29.9 77.95 31.1M63.45,44.5L63.3 44.5Q62.8 44.4 62.95 44.8L63.35 45.15L63.65 45.1L63.45 44.5M27.2,48.75Q26.7 49.1 26.35 49.6L26.25 49.95Q27.45 50.95 29.35 51.15L31.05 51.5Q31.9 51.75 32.05 52.4L32.15 52.9L36.9 52.75Q39.4 51.75 42.2 51.7Q42.85 51.7 42.85 51Q42.15 49.9 40.8 49.1Q39.45 48.35 38 47.75L35.3 46.65Q34.25 46.2 33.15 46.15Q33.15 45.9 32.6 46L32.45 46.1L32.35 46.1Q31.2 46.05 31.8 46.3L31.85 46.3L31.15 46.6L31 46.7L30.9 46.6L30.45 46.7L29.3 47.6L28.15 48.25Q27.65 48.45 27.2 48.75M-1.85,5.9L0.55 8.1L-1 15.55Q-1.9 19.65 -5.85 21.1Q-16.35 24.85 -25.25 18.25L-25.7 17.4Q-25.65 14.4 -24.55 11.95Q-23.75 10.15 -22.2 9.05L-22.3 8.9L-22.85 8L-23.2 7.05L-23.4 5.95L-23.4 5.2L-23.4 4.8L-23.35 4.45L-23.2 4.25L-22.25 2.9Q-21.65 2.1 -20.75 1.65Q-19.55 1.05 -18.5 1.65L-17.55 1.95L-17.2 1.75L-16.2 1.15L-13.6 0.35L-13.3 0.25L-11.65 0.45L-10.6 0.95Q-10.05 1.3 -9.8 1.85L-9.25 2.65L-7.55 3.1Q-5.3 3.55 -3.4 4.8L-1.85 5.9M-10.9,12.9L-10.85 13.05L-11.6 13.2L-19.05 14.4Q-20.95 14.6 -21.55 15.9L-21.45 16.25L-21.3 16.45L-20.9 16.85L-20.7 17L-20.2 17.35Q-19.8 17.55 -19.7 17.95L-19.7 18.1L-20 18.5L-20.2 18.7L-20.5 19L-20.75 19.25L-21.2 19.6L-21.4 20.15L-21.3 20.25Q-20.35 21.1 -19 21.1L-17.35 20.75L-13.55 19.4L-6.75 16.55Q-4.9 15.7 -5.5 13.95L-5.65 13.8Q-6.2 13.45 -6.85 13.25L-7.85 12.9L-8.95 12.6L-10.1 12.45L-10.1 12.5L-10.35 12.55L-10.6 12.6L-10.8 12.75L-10.9 12.9M-9.55,55.35L-10.35 56.45Q-13.2 60.95 -18.9 59.05Q-19.4 58.85 -20 59.05Q-21.35 59.45 -22.05 58.4L-22 58.05L-21.85 57.85L-21.6 57.6L-21.1 56.9L-21 56.7L-20.9 56.5L-20.85 56.35L-20.85 56L-20.85 55.8L-19.25 54.85L-18.7 54.3L-18.6 54.15L-17.7 53.3Q-16.45 52.4 -15.3 52.05L-14.8 52.05L-14.55 52.1L-14.3 52.1L-13.7 52.15L-13.5 52.35L-13.45 52.55L-13.5 52.65L-13.55 52.7L-10.1 53Q-9.45 53.2 -9.1 53.75L-9 53.95Q-9.05 54.75 -9.55 55.35" />
</g>
</svg>
