<?xml version="1.0" encoding="utf-8"?>
<svg version="1.1" id="Layer_1"
xmlns="http://www.w3.org/2000/svg"
xmlns:xlink="http://www.w3.org/1999/xlink"
width="26px" height="7px"
xml:space="preserve">
<g id="403" transform="matrix(1, 0, 0, 1, -158.75, -209.25)">
<path style="fill:#3A1D0F;fill-opacity:0.85098" d="M159.25,214.65Q160.05 213.7 161.7 213.9L162.05 214L162.35 213.95Q161.8 213.4 161.4 212.5Q161.25 212.2 161.65 212L162.5 211.75L163.85 212.85L163.8 212.35Q163.75 210.75 164.2 209.75Q165.1 211 165.4 212.85L165.65 214.05L165.5 214.1L165.95 214.45L165.4 214.65Q167.85 214.45 170.1 213.4Q170.6 213.7 170 214.1L169.95 214.15L178.2 214.5Q178.85 213.05 180.15 211.9Q180.4 211.65 180.65 211.55L180.95 211.7L181 211.75Q180.2 212.5 179.85 213.35L179.75 213.55Q181.6 212.2 183.25 212.75L183.55 213.1Q183.75 214.2 182.8 214.7Q183.45 214.7 183.9 215Q182.25 216.3 180.35 215.35L179.15 215.25Q176.95 215.85 174.35 215.35L172.35 215.15L170.05 214.95L167.9 214.85L165.3 214.8L165.35 214.9Q163.55 215.45 161.65 214.95L161.35 214.85L159.25 214.65M181,214.1Q181 214 180.9 214.05L180.3 214.4L181.1 214.35L180.65 214.6L181.7 214.4L181.05 214.25L181 214.1" />
<path style="fill:#3A1D0F;fill-opacity:0.6" d="M160.95,212.75Q160.5 212 161.45 211.55L162.45 211.25L162.8 211.35L163.3 211.75Q163.35 210.45 163.75 209.55L164 209.3L164.35 209.3L164.6 209.45Q165.55 210.8 165.9 212.8L166.1 213.9L166.15 213.95L166.15 214.05L166.3 214.05Q168.15 213.8 169.9 212.95L170.15 212.9L170.35 213Q170.9 213.3 170.85 213.75L177.9 214Q178.55 212.65 179.8 211.55L179.85 211.55Q180.15 211.2 180.5 211.1L180.65 211.05Q181.15 211.05 181.4 211.45L181.5 211.65L181.5 211.9L181.35 212.15L181.25 212.25L183.4 212.3Q183.85 212.35 184.05 212.95L184.05 213Q184.2 213.85 183.85 214.4L184.2 214.6L184.4 214.85L184.4 215.15L184.2 215.4Q182.35 216.85 180.25 215.85L179.15 215.75Q176.9 216.35 174.25 215.85L172.35 215.65L170 215.45L169.95 215.45L167.95 215.35L165.65 215.35L165.5 215.4Q163.55 215.95 161.55 215.45L161.3 215.35L159.1 215.15L158.85 214.95L158.75 214.65L158.9 214.35Q159.7 213.3 161.3 213.4L160.95 212.7L160.95 212.75M165.55,214.1L165.5 214.1L165.35 214.15L165.45 214.6L165.45 214.65L165.45 214.75L165.6 214.4L165.7 214.5L165.7 214.1L165.55 214.1M180.9,215.05L181.3 214.8L181 214.75L180.85 214.8L180.9 215.05M180.85,214.7L180.75 214.75L180.85 214.8L180.85 214.7" />
</g>
</svg>
