<?xml version="1.0" encoding="utf-8"?>
<svg version="1.1" id="Layer_1"
xmlns="http://www.w3.org/2000/svg"
xmlns:xlink="http://www.w3.org/1999/xlink"
width="14px" height="10px"
xml:space="preserve">
<g id="534" transform="matrix(1, 0, 0, 1, 2, 11.15)">
<path style="fill:#000000;fill-opacity:1" d="M6.05,-7.75L6.25 -8L7 -8.55L8.55 -8.4L11.2 -7.4L11.45 -7.4L11.75 -6.95L11.8 -6.6L9.75 -4.55L9.6 -4.3L8.45 -3.8L7.1 -3.6L6.95 -3.3L4.45 -2.1L4.25 -1.8L3.6 -1.6L2.2 -1.75L1.75 -2.15L1.05 -2.8L0.75 -3.55L-0.8 -6.15L-0.9 -7.2L-1.15 -7.4L-1.2 -7.65L-1.4 -7.65L-1.45 -8.4L-2 -10.3L-1.5 -10.7L-0.65 -10.55L0.65 -11.15L1.2 -11L2.25 -8.45L4.2 -5.8L4.75 -6.25L4.75 -6.6L5.75 -7.7L6.05 -7.75" />
</g>
</svg>
