<?xml version="1.0" encoding="utf-8"?>
<svg version="1.1" id="Layer_1"
xmlns="http://www.w3.org/2000/svg"
xmlns:xlink="http://www.w3.org/1999/xlink"
width="12px" height="28px"
xml:space="preserve">
<g id="875" transform="matrix(1, 0, 0, 1, 4.8, 8.05)">
<path style="fill:#000000;fill-opacity:0.988235" d="M4.55,-5.55Q4.45 -6.85 4.8 -7.95L5.75 -8.05L6.4 -6.05L6.15 -5.8L6.1 -4.75L5.35 -1.55L5.2 -1.05L3.35 3.5L3.5 4.1Q3.85 5.8 3.25 6.85Q2.6 7.1 2.2 7.55Q2.65 7.15 3.3 6.9L3.1 7.2L2.85 7.4L3.45 9.5L4.25 12.15L4.55 13.05L4.45 15.1L4.35 15.9L4.55 16.15Q5.15 17.85 5.6 18.5L4.35 19.05Q2.3 17.25 2.4 16.1Q2.5 14.95 2 14.25Q1.65 13.85 1.45 12.9L1.15 12.1L0.75 11.25L0.75 11.3L0.65 11.75L0.4 10.6L0.4 10.5L0.4 10.65L0.6 11.8L0.2 13.15L0.35 13.25L0.1 14Q-0.85 15.45 -0.15 16.8L-1.45 18.2Q-2.6 19.35 -3.65 18.1L-2.6 16.7L-2.55 16.55L-2.4 14.85L-2.2 11.85L-2.05 11.3L-1.1 7.65L-1.3 7.6L-1.25 7.35L-2.35 6.85L-2.5 3.8L-2.85 3.25Q-3.85 0.95 -4.25 -1.45L-4.5 -1.85L-4.35 -4.75Q-5.25 -5.95 -4.35 -7.25L-3.45 -7.2L-3.3 -6.6L-3.1 -5.3L-2.75 -1.45Q-1.85 -0.05 -1.75 1.85L-1.15 1.7L-1.6 0.85Q-2.5 -1.55 -0.35 -2.9L0.9 -2.55L1.6 -1.9Q2.7 -0.25 1.65 1.55L2.4 1.75Q2.6 -0.4 4 -2.15L4.45 -4.5L4.55 -5.55" />
</g>
</svg>
