<?xml version="1.0" encoding="utf-8"?>
<svg version="1.1" id="Layer_1"
xmlns="http://www.w3.org/2000/svg"
xmlns:xlink="http://www.w3.org/1999/xlink"
width="26px" height="13px"
xml:space="preserve">
<g id="610" transform="matrix(1, 0, 0, 1, 47.6, -12.65)">
<path style="fill:#000000;fill-opacity:1" d="M-37.95,19.05Q-36.8 19.3 -35.85 19.85L-33.8 21L-33.7 21L-33.6 20.95L-33.5 20.9L-33.3 21L-33.25 21.05L-32.9 21.05L-25.2 21.95L-25.1 21.85L-25 21.8L-25 21.7L-24.7 21.4L-24.6 21.35L-24.55 21.3L-24.55 21.25L-23 21.3L-22.8 21.45L-22.4 21.6Q-22.1 21.75 -22.1 22.05L-22.1 22.1L-22.35 22.4L-22.4 22.5L-22.75 23.2L-22.5 22.95L-23.3 24.2Q-23.65 24.65 -24.15 24.75L-24.35 24.85L-24.35 24.8L-24.6 24.8L-29.7 25.35L-31.9 24.95L-32.35 24.75L-34.95 24.4L-35.95 24.65Q-37.4 25.5 -39.15 24.95L-43.7 24.7Q-45.05 24.95 -45.7 24.35L-46.35 24.3L-46.65 23.9Q-47.35 23.3 -47.55 22.5Q-47.65 21.85 -47.4 21.3Q-46.6 19.55 -45.25 19.9L-42.65 20.1Q-41.4 19.95 -39.5 18.8L-37.95 19.05M-42.85,12.65Q-42.6 13.2 -42.65 13.9Q-42.95 16.5 -44.9 17.75L-45.3 17.45L-46.25 16.25Q-46.8 15.25 -46.2 14.35L-44 12.9L-42.85 12.65" />
</g>
</svg>
