<?xml version="1.0" encoding="utf-8"?>
<svg version="1.1" id="Layer_1"
xmlns="http://www.w3.org/2000/svg"
xmlns:xlink="http://www.w3.org/1999/xlink"
width="20px" height="16px"
xml:space="preserve">
<g id="902" transform="matrix(1, 0, 0, 1, -0.05, -5.6)">
<path style="fill:#000000;fill-opacity:1" d="M10.95,5.75Q11.6 6 11.7 6.65L11.95 6.6L13.3 6.55Q14.3 6.75 15.05 7.55Q15.55 8.45 15.05 9.55L14.65 10.25Q14.25 10.75 13.45 11L13.3 11L13.5 11.3L14.15 11.55L16 11L16.9 10.45Q17.55 9.8 18.4 10L19.1 10.75L19.1 12.2L18.85 12.4Q17.75 13.05 16.65 13.5L15.7 13.8L14.35 14.25L13.3 13.6Q12.4 13 11.6 12.8Q11.1 13.05 10.95 13.25L10.55 13.75L9.45 14.75Q9.05 15.2 8.9 15.9L8.2 18.05L7.65 19.2L7.1 20.25L6.3 20.6Q4.85 20.9 4.1 19.7Q4.1 18.5 4.7 17.2L5.55 15.55L4.85 16.1L3.8 17.05L3.1 17.75L2.95 18.9L2.35 19.65L0.85 19.5L0.65 19.2L0.05 18.15L0.1 17.05L1.55 15.65L2.85 14.4L4.6 12.75L4.65 11.9L5.7 11L7 9.75Q6.65 9.15 6.85 8.6L7.4 8.1L8.65 6.65Q9.3 5.85 10.3 5.6L10.95 5.75" />
</g>
</svg>
