<?xml version="1.0" encoding="utf-8"?>
<svg version="1.1" id="Layer_1"
xmlns="http://www.w3.org/2000/svg"
xmlns:xlink="http://www.w3.org/1999/xlink"
width="55px" height="54px"
xml:space="preserve">
<g id="470" transform="matrix(1, 0, 0, 1, 1, 32.7)">
<path style="fill:#1E1E1E;fill-opacity:1" d="M16.1,-31L15 -30.4Q14.6 -30.1 14.6 -29.6L15.6 -29.55Q16.6 -30.1 17.45 -30.9Q18.05 -31.45 17.15 -31.4L16.1 -31M19.4,-31.6Q19.25 -30.75 18.5 -30.15Q17.25 -29.05 15.8 -28.45Q14.75 -28 13.85 -28.65Q13.45 -29.05 13.45 -29.6Q13.45 -30.9 14.5 -31.6Q15.5 -32.25 16.65 -32.6L17.05 -32.7L17.9 -32.6L18.85 -32.3L19.4 -31.6M7.45,-13.55Q10.35 -14 10.85 -11.55Q11.35 -9 8.9 -8.55Q7.45 -8.3 6.5 -9.55L6.5 -9.65L6.5 -10.1L6.5 -10.65Q6.45 -11.2 6.7 -11.7L7 -12.2L6.95 -12.35L6.8 -12.65Q6.7 -12.85 6.75 -13.05L7.05 -13.4L7.45 -13.55M9.9,-11.6Q9.55 -12.05 9 -12.2L7.9 -12.2L7.65 -11.3L7.35 -10.5L7.4 -9.95L7.7 -9.65L8.1 -9.45L8.4 -9.3Q9 -9.2 9.45 -9.6L9.7 -9.75L9.9 -10.3L9.9 -10.9L9.9 -11.6M1.35,-2.9L1.4 -2.5L1.35 -2.25Q5 0.85 3.5 4.8Q2.7 6.9 1.2 5.4Q-0.05 4.1 -0.1 2.05Q-0.25 -1.05 1.05 -3.2L1.35 -2.9M19.6,-0.4Q20 -0.2 20.4 -0.15L22.85 0.1Q23.3 0.15 23.6 0.5Q24.9 2.15 23.5 3.3Q18.95 7 14.95 3.4Q14.15 2.7 14.55 1.55Q15.2 -0.45 17.3 -0.8L19.6 -0.4M30.75,-21.65Q28.1 -21.6 25.65 -20.3Q21.8 -18.2 21.3 -21.35Q21.1 -22.65 22.55 -23.25L25.4 -24.3L28 -24.25Q29.35 -23.9 30.45 -23.15Q31.4 -22.55 30.75 -21.65M25.6,-23L24.05 -22.45Q23.1 -22.25 22.45 -21.55L21.75 -20.85Q23.65 -20.15 25.55 -21.2L28.15 -22.55L27.25 -22.95L25.6 -23M25.55,-9.7L24.1 -9.1L22.7 -8.15Q22.1 -7.7 21.45 -7.6L21.3 -7.3L21.2 -7.05L21.2 -6.75L21.2 -6.45L21.2 -6.05L21.4 -5.75L21.5 -5.65L21.95 -5.4L22.4 -5.25Q24.55 -5.6 26.4 -6.8Q27.85 -7.75 26.8 -9.15Q26.3 -9.8 25.55 -9.7M22,-9.75Q23.5 -10.9 25.2 -11.2Q31.15 -10.75 28.6 -5.5Q28 -4.2 26.5 -3.85Q21.35 -2.55 20.65 -6.55Q20.3 -8.45 22 -9.75M44.6,-18.8Q47.1 -19.15 47.3 -16.85Q47.35 -15.9 46.4 -15.7Q43.7 -15.1 43.25 -17.3L43.25 -17.75L43.35 -17.9L43.55 -18.15L44.1 -18.65L44.6 -18.8M44.65,-16.65L46.3 -16.8L46.3 -17.05L45.85 -17.45L44.5 -17.55Q43.95 -17.2 44.45 -16.75L44.65 -16.65M50.05,-3.2L50.5 -3.3L50.8 -3.4L52.05 -3.35Q52.45 -3.3 52.75 -3.05L53.1 -2.75L53.2 -1.6Q53.5 -0.1 52.85 1.2Q52.25 2.4 52.3 3.75L52.1 4.3Q49.7 5.5 49.05 3.05Q48.55 1.15 49.25 -0.7Q49.7 -1.75 49.65 -3L49.8 -3.1L50.05 -3.2M50.45,-2L50.35 -1.45L50.25 -0.85L50.25 -0.75L50.2 -0.65L50.2 -0.6L50.6 -0.45L50.75 -0.35Q51.05 0.2 50.85 0.75L50.3 2Q50 2.7 50.4 3.15L50.55 3.3L50.8 3.5Q51.35 3.7 51.2 3.2Q51.2 2.15 51.7 1.25Q52.2 0.3 52.3 -0.75L52.1 -2.3L52 -2.45L51.9 -2.45L51.05 -2.45L50.8 -2.4L50.45 -2.3L50.45 -2M33.2,1.35Q32.8 1.45 32.5 1.7L32 2.1L31.7 2.6L31.7 2.9L31.8 3.05L32 3.35L32.15 3.6L32.1 3.7L31.75 3.75L31.45 4.2L31.45 4.75L31.5 5.2L31.4 5.35L31.25 5.45L30.95 5.6L30.9 5.7Q30.9 6.35 31.4 6.75Q32.35 7.55 33.55 7.05L34 6.85L33.9 5.3L33.8 3.3Q33.75 2.3 33.35 1.45L33.2 1.35M34.15,0.05Q35.05 1 35 2.35L35.15 5.45Q35.3 6.8 34.75 7.95Q29.85 9.25 29.9 4.85Q29.9 2.35 31.65 0.65Q32.3 0.05 33.1 -0.05L33.8 0L34.15 0.05M23,2.45L22.9 2.15L22.8 2L22.7 1.85L22.65 1.7L22.5 1.5L19.85 1.1L17.65 0.75L17.1 0.95L16.55 1L15.95 1Q14.55 2.75 16.45 3.6L20.75 3.85L22.95 2.55L23 2.45M22.4,18.4Q16.9 19.6 16.8 15.1Q16.75 14.45 17.4 14.25L17.6 15.25L17.6 15.15L18 14.4Q18.85 13.4 20.1 13.25L22.95 12.75Q27.7 12.55 26 15.7Q24.85 17.9 22.4 18.4M24.25,14.1Q20.4 13.4 18.8 16.15L18.25 16.55L18.15 16.55Q19 17.85 21.05 17.55Q23.45 17.2 25.05 15.5L25.5 15.1Q25.25 14.3 24.25 14.1M1.35,2L1.4 4Q1.45 4.55 1.8 4.95Q3.35 4.55 2.95 2.95L1.95 0.45L1.45 0L1.35 2M0.75,16.85Q3.6 16.15 4.5 18.35Q4.9 19.35 3.85 20.1Q1.65 21.55 -0.55 20.4L-0.95 19.95L-0.95 19.85L-1 19.15Q-1.1 18.35 -0.7 17.7Q-0.15 16.95 0.75 16.9L0.75 16.85M0.65,18.3L0.35 18.55Q0.15 18.75 0.1 19L0.1 19.4Q1.05 20.25 2.4 19.4L3.2 18.85L3.5 18.55Q2.25 17.7 0.65 18.3" />
<path style="fill:#3A3A3A;fill-opacity:1" d="M17.15,-31.4Q18.05 -31.45 17.45 -30.9Q16.6 -30.1 15.6 -29.55L14.6 -29.6Q14.6 -30.1 15 -30.4L16.1 -31L17.15 -31.4M9.9,-10.9L9.9 -10.3L9.7 -9.75L9.45 -9.6Q9 -9.2 8.4 -9.3L8.1 -9.45L7.7 -9.65L7.4 -9.95L7.35 -10.5L7.65 -11.3L7.9 -12.2L9 -12.2Q9.55 -12.05 9.9 -11.6L9.9 -10.9M27.25,-22.95L28.15 -22.55L25.55 -21.2Q23.65 -20.15 21.75 -20.85L22.45 -21.55Q23.1 -22.25 24.05 -22.45L25.6 -23L27.25 -22.95M26.8,-9.15Q27.85 -7.75 26.4 -6.8Q24.55 -5.6 22.4 -5.25L21.95 -5.4L21.5 -5.65L21.4 -5.75L21.2 -6.05L21.2 -6.45L21.2 -6.75L21.2 -7.05L21.3 -7.3L21.45 -7.6Q22.1 -7.7 22.7 -8.15L24.1 -9.1L25.55 -9.7Q26.3 -9.8 26.8 -9.15M44.45,-16.75Q43.95 -17.2 44.5 -17.55L45.85 -17.45L46.3 -17.05L46.3 -16.8L44.65 -16.65L44.45 -16.75M50.45,-2.3L50.8 -2.4L51.05 -2.45L51.9 -2.45L52 -2.45L52.1 -2.3L52.3 -0.75Q52.2 0.3 51.7 1.25Q51.2 2.15 51.2 3.2Q51.35 3.7 50.8 3.5L50.55 3.3L50.4 3.15Q50 2.7 50.3 2L50.85 0.75Q51.05 0.2 50.75 -0.35L50.6 -0.45L50.2 -0.6L50.2 -0.65L50.25 -0.75L50.25 -0.85L50.35 -1.45L50.45 -2L50.45 -2.3M33.35,1.45Q33.75 2.3 33.8 3.3L33.9 5.3L34 6.85L33.55 7.05Q32.35 7.55 31.4 6.75Q30.9 6.35 30.9 5.7L30.95 5.6L31.25 5.45L31.4 5.35L31.5 5.2L31.45 4.75L31.45 4.2L31.75 3.75L32.1 3.7L32.15 3.6L32 3.35L31.8 3.05L31.7 2.9L31.7 2.6L32 2.1L32.5 1.7Q32.8 1.45 33.2 1.35L33.35 1.45M22.95,2.55L20.75 3.85L16.45 3.6Q14.55 2.75 15.95 1L16.55 1L17.1 0.95L17.65 0.75L19.85 1.1L22.5 1.5L22.65 1.7L22.7 1.85L22.8 2L22.9 2.15L23 2.45L22.95 2.55M25.5,15.1L25.05 15.5Q23.45 17.2 21.05 17.55Q19 17.85 18.15 16.55L18.25 16.55L18.8 16.15Q20.4 13.4 24.25 14.1Q25.25 14.3 25.5 15.1M1.45,0L1.95 0.45L2.95 2.95Q3.35 4.55 1.8 4.95Q1.45 4.55 1.4 4L1.35 2L1.45 0M3.5,18.55L3.2 18.85L2.4 19.4Q1.05 20.25 0.1 19.4L0.1 19Q0.15 18.75 0.35 18.55L0.65 18.3Q2.25 17.7 3.5 18.55" />
</g>
</svg>
