<?xml version="1.0" encoding="utf-8"?>
<svg version="1.1" id="Layer_1"
xmlns="http://www.w3.org/2000/svg"
xmlns:xlink="http://www.w3.org/1999/xlink"
width="27px" height="17px"
xml:space="preserve">
<g id="585" transform="matrix(1, 0, 0, 1, -2.5, -8.7)">
<path style="fill:#000000;fill-opacity:0.498039" d="M24.65,22.5Q26.25 23 26.25 23.7Q26.25 24.4 24.65 24.9L21.05 25.4L17.35 24.9Q15.9 24.4 15.9 23.7Q15.9 23.3 16.35 23L17.35 22.5Q18.1 22.25 19 22.15L21.05 22L23.95 22.3L24.65 22.5M8.8,22L11.7 22.3L12.4 22.5Q14 23 14 23.7Q14 24.4 12.4 24.9L8.8 25.4L5.1 24.9Q3.65 24.4 3.65 23.7Q3.65 23.3 4.1 23Q4.5 22.7 5.1 22.5Q5.85 22.25 6.75 22.15L8.8 22" />
<path style="fill:#000000;fill-opacity:1" d="M24.9,9.45L26.5 9.6Q26.5 9.3 26.65 9.1L27.05 8.7L27.5 8.8L27.85 9.05L27.85 9.1L27.8 9.4L27.65 9.75Q28.5 10.05 28.7 10.95Q28.95 12.05 28.45 13.05L28.35 13.15L27.75 13L27.5 12.85L26.4 13.35L25.6 13.55L26.1 14.45L26.15 14.35L27 13.55L27.05 13.5L27.3 13.55L27.55 13.65L27.65 13.8L27 14.8L26.45 15.3L26.9 16.9L27.7 20.35L27.95 20.65L26.05 22.15Q25.25 22.7 24.45 22.65L24.1 21.45Q23.75 20.55 24.6 19.9L24.8 19.8L24.65 18.7L24.05 19.35Q23.55 19.8 22.85 19.55Q20.65 18.6 18.6 17.45L18.4 17.5L18.4 17.35L18.25 17.25L18.4 17.25Q18.5 16.25 19.1 15.35L20 14Q18.65 14.6 17.2 14.85L16.75 14.95L16.45 14.95L16.4 14.8Q16.05 14.55 16.05 13.9Q15.95 12.35 17.75 11.85L19.7 11.3L21.65 11.25L23.35 11.85L23.35 11.1Q23.4 10.4 24 9.9Q24.45 9.55 24.9 9.45M2.95,20.6Q3.3 19.9 4.2 19.7L6.65 18.75L8.85 18.8L8.7 18.8L9.4 18.9L9.75 18.85L10.5 18.95L10.85 19.05L10.9 19.1L11 19.25L11.05 19.3L11.05 19.4L11.1 19.45L11.4 19.95L11.55 20.35L11.4 20.35Q11.95 21.7 13.2 22.7L13.2 22.75L13.1 22.9L13.05 23L12.95 23.05L12.55 23.5L11.7 24.1L11.75 24.15L11.85 24.25L11.95 24.3L12.1 24.4L12.15 24.45L12.25 24.55L12.3 24.6L12.35 24.75Q12.3 25.1 11.85 25.05L8.25 24.75L5.95 24.95L3.45 25.15L3.35 24.55Q3.25 24.4 3.3 24.1L3.65 23.8L3.95 23.6L4.35 23.3L4.85 22.95Q4.8 22.8 4.4 22.7L4 22.55L3.05 22.1L2.9 21.95L2.85 21.8L2.7 21.95L2.5 21.45Q2.5 21 2.85 20.65L2.95 20.6M20.05,14L19.85 14.05L20 14L20.05 14" />
<path style="fill:#7E0000;fill-opacity:1" d="M21.7,19Q20.9 19.25 20.1 18.6Q19.35 17.95 18.2 18.35Q17.75 18.5 17.6 18.15L17.8 17.95L18.9 17.7L19 17.65Q19.8 17.6 20.35 18.1L21.6 18.95L21.7 19M21.3,21.35L21.1 21.1L21.05 20.65L21.25 20.5L21.6 20.75L21.85 21.1L21.9 21.2L21.8 21.3L21.4 21.35L21.3 21.35M9.7,14.7Q9.6 14.2 9.85 13.75L10.6 12.95Q11 13.4 10.75 14.1Q10.45 14.75 9.8 14.7L9.7 14.7M8.9,16.8L8.65 17.4L8.6 17.45Q8.3 17.1 8.45 16.55L8.7 15.65L8.8 15.55L8.95 15.85L9.05 16.2L9.1 16.25L8.9 16.8M9.65,18.3Q9.35 17.55 9.9 16.65Q10.55 15.6 11.6 15Q11.9 14.8 12.15 14.7L12.5 14.95L12.8 15.3L12.8 15.35Q11.75 15.7 10.85 16.5Q10.1 17.15 9.9 18.05L9.65 18.3M14,17L13.75 17.05L13.6 17L13.55 16.95L13.5 16.85L13.5 16.8L13.3 16.7L13.3 16.45L13.3 16.05L13.5 15.8Q13.9 15.8 14 16.15L14.05 16.85L14.05 16.95L14 17M19,19.75L18.55 19.7L18.45 19.7L18.35 19.5L18.4 19.2L18.55 19.05L18.95 19.15L19.4 19.5L19.45 19.6L19 19.75" />
</g>
</svg>
