<?xml version="1.0" encoding="utf-8"?>
<svg version="1.1" id="Layer_1"
xmlns="http://www.w3.org/2000/svg"
xmlns:xlink="http://www.w3.org/1999/xlink"
width="22px" height="40px"
xml:space="preserve">
<g id="1561" transform="matrix(1, 0, 0, 1, 1.15, 24.65)">
<path style="fill:#D6D6D6;fill-opacity:0.498039" d="M8.75,-22.1Q9.15 -21.6 9.15 -20.7L9.1 -19.65L8.55 -18.45Q8.9 -17.8 9.75 -17.05Q10.35 -16.5 10.35 -16Q10.35 -15.2 9.8 -14.65L8.3 -12.85L7.7 -11.45Q7.1 -10.25 6.2 -10.25L5.45 -10.35L5.45 -11.55L6.6 -13.35L6.65 -14.85Q6.65 -16.05 5.75 -16.45Q4.85 -16.85 4.85 -18.2L3.3 -18.35L1 -17.9L0.1 -17.45Q-1.3 -17.45 -1.15 -18.9Q-1.15 -19.7 -0.75 -20.2Q-0.25 -20.8 -0.15 -21.85L0.3 -23.25Q1 -24.25 3.4 -24.4Q4.05 -24.85 4.8 -24.4Q5.45 -24 5.75 -23.25Q8 -23.1 8.75 -22.1M6.15,-11Q6.65 -11.15 7.25 -12.7L6.15 -11.05L6.15 -11M9.7,-0.2L10.45 -0.5L10.75 -0.85L10.3 -0.7L9.75 -0.3L9.7 -0.2M11.85,-7.5Q10.45 -8.15 10.45 -8.8Q10.45 -10.85 13.8 -10.2Q17.15 -9.55 17.15 -7.5L16.75 -4.25Q16.75 -2.45 15.25 -1.85Q11.7 -0.45 10.2 0.55L9 0.55L8.75 0.45L8.65 0.05Q8.65 -0.8 10.25 -1.85L12.4 -3.1Q11.85 -4 11.85 -4.35Q11.85 -4.9 12.55 -5.5L13.25 -6.5Q13.25 -6.85 11.85 -7.5M20.15,5.8Q20.8 7.6 20.8 9.05Q20.8 10.2 18.1 12.05Q15.3 14 13.1 14Q12.3 14 11.6 13.4Q11 12.85 11 12.4Q11 11.95 13.45 9.95L16.25 7.6Q15.35 6.55 14.5 6.25Q14.05 6.1 14.05 5.4Q14.05 4.25 14.9 3.5Q15.95 2.55 17.4 4Q19.2 3.05 20.15 5.8M9.65,7.4Q9.55 7.65 9.55 7.15L9.8 6.8L10.4 6.8L10.1 7.4L9.65 7.4M8.95,15.1L8.9 14.25L9 13.5L10.45 13.35L10.5 14L10.45 14.85Q10.3 15.3 9.8 15.3L8.95 15.1" />
</g>
</svg>
