<?xml version="1.0" encoding="utf-8"?>
<svg version="1.1" id="Layer_1"
xmlns="http://www.w3.org/2000/svg"
xmlns:xlink="http://www.w3.org/1999/xlink"
width="16px" height="17px"
xml:space="preserve">
<g id="1217" transform="matrix(1, 0, 0, 1, -15.55, 6.3)">
<path style="fill:#C9EBFF;fill-opacity:0.988235" d="M19.85,-1.25Q19.85 -1.9 20.65 -2.65Q21.6 -3.45 22.35 -2.3Q22.55 -1.6 23.4 -0.95L24.4 0.2L25 0.25L24.55 -0.15Q24.05 -0.6 24.05 -1L24.25 -2L24.05 -3.45L23.65 -4.7L21.15 -4.65Q20.45 -4.65 19.7 -5.35L18.95 -6.1Q17.65 -6.1 16.95 -4.65Q16.35 -3 16 -2.75L15.95 -3Q15.95 -3.5 16.55 -4.6L17.75 -6.1L18.75 -6.3L19.85 -6L20.6 -5.15L22.65 -5.35Q24.1 -5.35 24.6 -3.8L24.8 -2L24.6 -1.2L25.7 -0.25Q26.1 -0.85 25.8 -1.3Q27 -1.45 27.7 -0.65L28.1 0L28.2 0Q29 0.1 29.15 0.55L29.55 1.1L31 1.6L31.2 1.7L31.4 1.7L31.45 1.85L31.45 1.9L31.45 2L30.4 2.65Q29.35 2.65 28.75 2.05Q28.2 1.4 27.7 1.4L26.95 1.95Q26.6 2.3 25.95 1.7L25.8 2.5L25.7 2.8L25.45 3.25Q25.3 3.5 25.3 3.75L25.05 4.5L24.8 5.2Q24.8 5.9 25.55 6.2Q26.25 6.5 26.25 7.1Q26.25 7.75 25.3 8.15L23.05 8.7L22.35 8.7L22 8.4L19.4 10.25L18.35 9.75Q17.55 9.3 16.5 9.4L15.95 8.2L15.55 6.95L15.8 6.85Q16.3 6.85 16.3 7.35L16.55 7.95L16.75 8.85Q18.85 9.1 19.35 9.8L21.75 8.05L21.65 7.95L21.2 7.45L20.5 7.65L19.75 7.65L19.3 7.3L19 6.9L19 6.7L19.7 6.75L19.55 6.95L19.8 7.2L20.55 7.2L21.1 7Q21.6 7 21.95 7.6L22.1 7.85L22.5 7.55L22.45 5.6Q22.45 5.05 22.9 4.35Q23.45 3.45 24.25 3.75L24.15 3.2L24.2 2.75Q24.35 2.45 24.9 2.5L25.25 2.2L25.35 1.65L25.2 1.3L25 1.1L25.05 0.9L24.9 0.85L24.6 0.9L24.7 0.85L24.15 0.75L23.85 0.3L23.65 -0.15L23 -0.5L22.35 -0.9L22.05 -1.9Q21.9 -2.6 21.3 -2.6Q20.85 -2.6 20.55 -2.05L20.35 -1.45L20.45 -1.3L19.95 -1.05L19.85 -1.25M25.85,-0.1L26.2 0.9L26.2 0.95L27.65 0.75L27.75 0.75L27.7 0.7L27.6 0.7L27.4 0.4L27.45 0.2L27.2 -0.55L26.4 -0.7L25.85 -0.1M28.35,0.8L28.75 0.9L28.4 0.4L28.3 0.45L28.35 0.8M24.55,4.2L24 4.35Q23.15 4.45 23.05 5.4L23.1 6.25L23.1 7.2L22.35 8.1L22.75 8.2Q24.35 8.2 25.75 7.2L24.65 6.25Q24.3 5.9 24.3 5.25L24.5 4.3L24.55 4.2" />
</g>
</svg>
