<?xml version="1.0" encoding="utf-8"?>
<svg version="1.1" id="Layer_1"
xmlns="http://www.w3.org/2000/svg"
xmlns:xlink="http://www.w3.org/1999/xlink"
width="22px" height="23px"
xml:space="preserve">
<g id="675" transform="matrix(1, 0, 0, 1, -1.3, 0.7)">
<path style="fill:#000000;fill-opacity:0.498039" d="M22.8,20.2Q22.8 20.95 20.85 21.5L16.15 22.05L11.4 21.5Q10.3 21.2 9.8 20.8L3.85 20.8Q1.8 20.5 1.8 20.2Q1.8 20 2.7 19.8L9.6 19.8Q10 19.3 11.4 18.9L16.15 18.35L20.85 18.9Q22.8 19.45 22.8 20.2" />
<path style="fill:#000000;fill-opacity:1" d="M12.6,-0.7Q15.05 -0.9 15.5 1.35Q15.75 2.65 15.1 3.5L16.25 4.1Q19.9 4.1 20.8 7.15L20.65 7.6L18.3 9.4Q19.2 12.85 20.45 16.3Q21.35 18.85 20.75 21.4Q20.4 21.65 19.9 21.7L18 21.85Q17.55 20.5 17.5 19L17.4 17.75L17.2 18.25L17.05 18.6L16.35 18.5L17.05 19.35Q16.9 20.15 16.35 20.8Q14.55 23 12.9 21.3L13.1 20.95L13.75 19.95Q14 19.45 13.85 18.9Q11.35 18.2 11.45 16.4Q10.65 16.3 9.95 15.65Q9.45 15.2 9.65 14.6L9.7 14.55L8.35 13.95L1.35 10.95L1.35 10.4L1.65 9.65L2.05 9.35L4.3 10.6Q6.85 11.85 9.55 12.8L11.95 13.75L12.05 11.95L11.95 11.45Q10.35 10.3 9.4 8.35Q9 7.65 9.6 7.1L12.1 5.15L12.1 5.1L12.35 4.2Q11.65 3.95 11.35 2.9Q10.9 1.15 11.95 -0.25L12.6 -0.7M17.75,6.95L17.85 7.2L18.15 7L17.75 6.95M15.6,15.1L15.5 15.4L15.9 15.6L17 15.85L16.7 14.85L16.25 13.3L15.6 15.1" />
</g>
</svg>
