<?xml version="1.0" encoding="utf-8"?>
<svg version="1.1" id="Layer_1"
xmlns="http://www.w3.org/2000/svg"
xmlns:xlink="http://www.w3.org/1999/xlink"
width="20px" height="14px"
xml:space="preserve">
<g id="1104" transform="matrix(1, 0, 0, 1, -32.7, -0.3)">
<path style="fill:#C9C9C9;fill-opacity:1" d="M49.3,1.75L48.15 1.5Q48 1.35 48 1Q48 0.25 49.15 0.3Q50.25 0.35 50.25 1.1Q50.25 1.75 49.3 1.75M46.15,3L45.35 4.25L45.2 4.3L46.45 3.95L47.35 3.25L47.2 2.75Q46.9 2.45 46 2.5L46.15 3M47.85,2L48.3 2.7Q48.3 3.8 46.9 4.55L46.25 4.9L44.65 5.05L44.2 5.25L47 5.55L47.1 5.85L46.5 6.3L45.4 6.5L42.8 6.1L38.3 6.3Q37.25 6.3 37.25 5.75L33.1 6.15L32.95 5.85Q32.95 5.55 34 5.3L37.95 5L39.7 3.2Q41 2.05 43.25 2.05Q44.3 2.05 44.1 2.3Q44.7 2.3 45.2 1.75L46.95 1.55Q47.45 1.6 47.85 2M41.1,4.75L41.2 4.65Q40.6 4.65 40.15 5L39.85 5.2L40.3 5.1L40.55 5.1Q40.6 4.85 41.1 4.75M41.35,11.3L37.6 11.7L36.6 11.7L36.1 11.3L33.05 11.8L32.7 11.4Q32.7 10.65 37.5 10.35Q42.25 10.05 42.25 10.75Q42.25 11.1 41.35 11.3M43.95,10.75L43.9 10.1Q43.9 8.4 46.05 7.9Q48.15 7.45 48.15 9.45Q48.15 10.05 47.4 10.7Q46.55 11.4 45.45 11.4Q44.25 11.4 43.95 10.75M49.55,10.95Q50.85 11.55 52.1 12.7Q52.1 13.2 51.45 13.3L50.25 13.3Q49.25 13.95 48.7 13.95Q47.95 13.95 47.4 13.15L47 12.35Q47 9.8 49.55 10.95M37.6,3.85L36.65 4.15Q35.65 4.15 35.65 3.45Q35.65 2.6 37 2.5Q38.35 2.4 38.35 3.2L37.6 3.85" />
</g>
</svg>
