<?xml version="1.0" encoding="utf-8"?>
<svg version="1.1" id="Layer_1"
xmlns="http://www.w3.org/2000/svg"
xmlns:xlink="http://www.w3.org/1999/xlink"
width="33px" height="47px"
xml:space="preserve">
<g id="431" transform="matrix(1, 0, 0, 1, 0.2, 26)">
<path style="fill:#000000;fill-opacity:0.4" d="M12.8,-24.4L15.05 -24.15L17.1 -23.35L18.6 -22.45Q19 -21.15 18.4 -19.85Q16.7 -16.15 12.35 -18.4L8.95 -20.8L9.1 -21.8Q9.25 -22.45 9.85 -22.65L11.6 -23.7L12.8 -24.4M31.3,6.35L31.7 6.55Q31.7 8.95 30.1 10.8Q28.05 13.1 25 12.15Q23.35 11.65 22 10.95L22 10.8Q22 10.45 22.3 10.3L23.5 9.7Q23.6 7.75 25.8 7.35L30.65 6.3L31.3 6.35M17.65,5.7Q18.05 6.05 18.1 6.55L18.2 7.2L19 7.75Q19.7 8.3 19.65 9.15L19.4 10.2L19.35 10.5Q20.45 12.8 18.3 14.2L17.25 14.25Q15.7 13.4 15.15 11.7L14.65 11Q12.75 9.25 14.45 6.95Q15.25 5.85 16.65 5.5Q17.25 5.3 17.65 5.7M4.35,6.55L6.55 6.3L6.95 6.35L7.2 6.4L7.6 6.95L7.85 7.85L8 8.8L8.05 8.9L8.65 9.15Q8.8 9.2 8.95 9.35Q8.55 10.7 7.7 11.85Q6.85 12.9 6.4 14.15Q6.05 15.2 6.05 16.3Q4.55 17.25 3.85 15.75L3.1 14.05L2.5 12.85L2.45 12.75L2.2 12.7L1.6 12.65Q1.05 12.05 1.1 11.25Q1.15 10.45 1.35 9.7L1.45 8.1L1.4 7.7Q2.7 6.75 4.35 6.55M8.15,16.4Q9.1 15.3 10.45 15L10.9 15.05L11.15 15.15L11.3 15.35L12.1 15.4Q12.6 15.25 12.9 15.6Q13.05 16.4 12.6 17.1L10.25 19.55Q9.4 20.2 8.45 19.3L8.1 19L7.75 17.9Q7.55 17.1 8.15 16.4" />
<path style="fill:#000000;fill-opacity:0.4" d="M14.4,-26Q19.5 -25.35 16.85 -21.2Q16 -19.8 14.4 -20.35Q9.6 -21.9 13.3 -25.25L14.4 -26M12.15,-5.15Q14.85 -4.85 13.5 -2.9Q12.3 -1.15 10.6 -2.25Q9.85 -2.7 10 -3.8L10.2 -4.1L10.95 -4.8L11.95 -5.1L12.15 -5.15M31.3,11.7Q29.85 13.65 27.8 12.1Q25.25 10.15 27.55 7.8Q28.3 7 29.2 6.6Q34.15 7.85 31.3 11.7M4.55,3Q9.55 3.15 8.8 7.8Q8.05 12.35 3.55 11.75Q1.45 11.45 -0.05 9.75L-0.2 8.1Q0.05 6.25 1 4.7Q2.15 2.75 4.55 3M9.85,14.9Q11.15 14.9 12.1 15.6Q13.2 16.35 13 17.6L12.4 19L9.35 19.4Q7.5 19.1 7.4 17.3L7.35 16.3L7.7 16L8.45 15.5Q8.95 15.15 9.6 15L9.85 14.9M0.6,16.8Q1.6 16.65 2.3 17.3L3.35 18.8Q3.6 19.35 3.45 19.9L3.05 20.2Q2.05 20.3 1.4 19.7Q0.95 19.35 0.35 19.35L0.2 19.2L-0.05 18.65L-0.1 18.05L-0.05 17.5L-0.05 17.2L0.1 17.1L0.3 16.95L0.45 16.85L0.6 16.8" />
</g>
</svg>
