<?xml version="1.0" encoding="utf-8"?>
<svg version="1.1" id="Layer_1"
xmlns="http://www.w3.org/2000/svg"
xmlns:xlink="http://www.w3.org/1999/xlink"
width="23px" height="16px"
xml:space="preserve">
<g id="901" transform="matrix(1, 0, 0, 1, 0.8, -5)">
<path style="fill:#000000;fill-opacity:1" d="M21.5,14.35Q20.5 15.1 19.3 15.65L16.85 15.55L14.85 14.45L13.85 13.9L10.45 15.05L4.05 18.8L3.85 20L1.4 20.45L0.3 17.75L3.95 15.35L2.3 15.55L2.05 16.35L0.3 16.75L-0.8 15.3L-0.65 13.95Q1.7 12.5 4.25 12.4L7.85 11.95L9.9 10.5L11 7.1L11.45 6.5L12.85 5.55Q13.8 4.9 14.8 5L15.7 5.75Q15.35 7.05 13.85 7.5L12.65 8.35Q12.25 8.75 12.55 9.05L12.7 9.4L12.9 9.4Q13.45 7.1 15.75 7.35L17.65 8.95Q18.2 10.75 16.35 11.75L16.05 11.9L18.25 13.45L19 13.05L20.4 11.8Q22.1 12.55 21.55 14.15L21.5 14.35" />
</g>
</svg>
