<?xml version="1.0" encoding="utf-8"?>
<svg version="1.1" id="Layer_1"
xmlns="http://www.w3.org/2000/svg"
xmlns:xlink="http://www.w3.org/1999/xlink"
width="32px" height="30px"
xml:space="preserve">
<g id="1309" transform="matrix(1, 0, 0, 1, 13.9, 28.8)">
<path style="fill:#7E0000;fill-opacity:1" d="M13.85,-18.2Q15.35 -17.3 14.2 -15.95L13.55 -15.9Q11.65 -17.6 13.85 -18.2M10.45,-15.2L10.6 -14.95Q10.55 -14.2 9.95 -13.55Q8.95 -12.65 8.1 -13.25L8.1 -13.45L8.75 -14.75Q9.25 -15.35 10.05 -15.45L10.05 -15.4L10.25 -15.35L10.4 -15.3L10.45 -15.2M7.8,-18.85L7.85 -18.75L8 -18.7L8.2 -18.3L8.55 -16.75Q8.7 -16 8.1 -15.65L7.85 -15.75L7.75 -15.9L7.75 -16L7.75 -16.1Q6.3 -15.95 6.45 -17.3Q6.5 -18.45 7.6 -18.9L7.75 -18.9L7.8 -18.85M1.9,-18.65L2.05 -18.5L2.15 -18.45L2.2 -18.4Q2.35 -17.8 2.1 -17.25L1.85 -16.5Q1.5 -15.5 0.4 -15.75L0.35 -15.9Q-0.15 -16.75 0.2 -17.6Q0.7 -18.5 1.65 -18.7L1.9 -18.65M3.35,-13.8L3.35 -13.7Q4.3 -12.4 3.5 -10.75Q2.6 -9.05 1.5 -7.85L1.2 -8.1Q1 -8.5 1.2 -8.9L1.65 -9.55L1.55 -9.7L1.65 -12.1Q1.85 -13.5 2.85 -14.2Q3 -14.1 3.1 -14.1L3.2 -14.05L3.35 -13.95L3.35 -13.8M7.75,-11.3Q8.35 -10.75 7.55 -10.45Q7.25 -9.75 6.55 -9.3Q6 -8.9 5.6 -9.45Q4.7 -10.65 6.1 -11.4Q6.2 -11.85 6.7 -11.95L7.05 -11.9L7.4 -11.65L7.45 -11.55L7.55 -11.5L7.75 -11.4L7.75 -11.3M1.7,-5.85L1.75 -5.9L1.9 -6L2.1 -6.05L2.4 -5.8L2.45 -5.75Q3 -5 2.95 -3.8Q2.9 -2.8 2.3 -2.1L2.1 -1.9L2.1 -1.7L2.45 -2.25L3.55 -3Q3.5 -3.55 4.05 -3.9L5.55 -4.75Q6.15 -4.65 6.1 -4L5.9 -3.55L6.3 -2.65L6.5 -2.1Q7.05 -0.1 4.15 -0.1L0.25 0.15Q-1.65 0.45 -3.6 0.1Q-6.1 -0.35 -3.9 -1L-3.65 -1.25L-2.85 -1.45L-2.85 -1.5Q-3.5 -2.85 -4.7 -3.7Q-4.95 -3.85 -4.7 -3.9Q-4.85 -4.2 -4.3 -4.35L-3.7 -4.15L-3.6 -4.2L-3.2 -3.9Q-2.55 -3.55 -2.25 -2.95L-1.8 -3.6L-1.95 -3.75L-1.95 -4.15L-1.85 -4.4L-1.65 -4.5L-1.45 -4.65L-1.45 -4.7L-1.45 -4.8L-1.65 -5.65L-1.4 -6.4L-1.4 -6.45L-2 -8.1Q-2.4 -9.1 -1.65 -9.65Q-0.9 -9.35 -0.75 -8.5L0.15 -4.45Q0.55 -3.05 -0.05 -2.25L0.7 -2L0.9 -2.2L1.45 -4.1L1.7 -5.85M9.2,-3.2Q9.1 -3.75 9.65 -4.1L10.6 -4.25L10.6 -4.2L10.7 -4.2L10.8 -4.2L10.9 -4.15L11 -4.1L11.05 -4.05Q11.65 -3.75 10.85 -3.3L10.75 -3.25L10.75 -3.2L10.8 -3.15L10.9 -3.15L10.4 -2.9Q9.75 -2.65 9.25 -3.1L9.2 -3.2M7.35,-6.1Q5.75 -7.3 8.3 -7.75Q10 -6.9 7.85 -6.05L7.35 -6.1M16.65,-9.45L16.65 -8.85L15.5 -8.6Q15.05 -8.65 14.75 -8.9L14.75 -9Q14.45 -9.55 14.6 -10.1Q14.65 -10.75 15.55 -10.7L15.95 -10.5L16.65 -9.45M10.8,-10.75L11.35 -10.85Q12.55 -10.8 13.2 -9.9Q13.5 -9.55 13.15 -9.4Q11 -8.55 10.4 -10.4L10.4 -10.45Q10.55 -10.7 10.8 -10.75M13.35,-5L12.8 -4.5Q12.05 -4.15 11.65 -4.75Q10.9 -6 12.95 -5.75L13.15 -5.65L13.3 -5.6L13.35 -5.55L13.35 -5.35Q13.55 -5.6 14.05 -5.75L14.45 -5.6L15.4 -4.85L15.55 -3.9L15.35 -3.85Q14.3 -3.75 13.7 -4.5L13.35 -5M16.9,-5.5Q18.2 -4.55 17.65 -3.15Q17.4 -2.55 16.85 -3Q14.8 -4.45 16.9 -5.5M-6.2,-25L-5.35 -24.35L-5.3 -24.2L-5.35 -24.05Q-5.75 -22.55 -7 -23.65Q-8.45 -24.9 -6.6 -25.15L-6.2 -25M-5.3,-28.75Q-4.3 -28.3 -3.9 -27.4Q-3.65 -26.55 -4.55 -26.05L-4.7 -26.05Q-5.7 -26.4 -6.4 -27.35Q-7.15 -28.6 -5.65 -28.8L-5.3 -28.75M-1.85,-26.4L-1.5 -26.25L-0.55 -24.75Q-0.15 -23.65 -1.25 -23.3L-1.5 -23.5Q-2.25 -24.1 -2.5 -24.95L-2.55 -26.1L-2.4 -26.15L-2.2 -26.3L-1.85 -26.4M-2.15,-21.7Q-1.1 -21.3 -0.75 -20.4Q-0.3 -19.45 -1.3 -18.9L-1.5 -18.95Q-2.4 -19.3 -2.75 -20.2Q-3.15 -21.3 -2.25 -21.7L-2.15 -21.7M-1.95,-15.05Q-1.65 -14.5 -1.85 -13.8Q-2.9 -13.25 -3.65 -14.25L-4.3 -15.45L-4.3 -15.5L-3.85 -16.1Q-3.65 -16.45 -3.25 -16.5L-2.85 -16.3L-1.95 -15.05M-11.3,-8.2Q-11.65 -8.85 -10.95 -9.35L-9.55 -9.85L-9.4 -9.75Q-8.35 -9.2 -9.3 -8.25Q-10 -7.5 -11.05 -7.25L-11.2 -7.45L-11.3 -7.65L-11.3 -7.75L-11.25 -8L-11.3 -8.2M-13.35,-3.95Q-14.05 -4.7 -13.85 -5.6Q-13.6 -6.65 -12.5 -6.9Q-11.45 -6.35 -12.1 -5.2Q-12.55 -4.4 -13.25 -3.9L-13.35 -3.95M-5.9,-9.45Q-5.25 -8.85 -5.95 -8.3Q-7 -7.45 -8.05 -8L-8.05 -8.05L-7.95 -8.1L-7.9 -8.2L-7.85 -8.25L-7.9 -8.35Q-8.25 -9 -7.6 -9.4Q-7.1 -9.85 -6.4 -9.7L-5.9 -9.45M-8.15,-2.15Q-8.05 -1.65 -8.8 -1.15Q-9.1 -0.9 -9.5 -1.15Q-11.1 -2.1 -8.9 -3L-8.85 -2.95L-8.75 -3L-8.25 -2.45L-8.15 -2.15M-8.35,-1.75L-8.3 -1.8L-8.4 -1.75L-8.35 -1.75" />
<path style="fill:#FFCBCB;fill-opacity:1" d="M14.25,-17.05L14.2 -16.85L14.05 -16.75L13.85 -16.75L13.75 -16.75L13.6 -16.95L13.4 -17.2L13.4 -17.3L13.5 -17.4L13.7 -17.5L13.75 -17.5L14.05 -17.35L14.25 -17.05M10.15,-14.4L10 -14.4L9.95 -14.4L9.85 -14.5L9.8 -14.5L9.8 -14.4L9.5 -14.35L9.4 -14.35L9.3 -14.4L9.3 -14.95Q9.45 -15.3 9.8 -15.3L9.85 -15.3Q10.25 -15.1 10.25 -14.8L10.15 -14.4M1.5,-17.1Q1.2 -17.35 1.2 -17.65L1.65 -18.2L1.65 -18.15L1.85 -18.1L1.85 -17.95L1.85 -17.5Q1.85 -17.2 1.55 -17.05L1.5 -17.1M3.35,-12.4Q3.15 -11.55 2.45 -11.25L2.45 -11.8L2.55 -12.55Q2.45 -13.3 2.8 -13.7Q3.6 -13.25 3.35 -12.4M7.8,-18.15L8 -17.65L8 -17.25L7.65 -17.2L7.55 -17.2L7.45 -17.25L7.35 -17.8Q7.35 -18.1 7.65 -18.3L7.8 -18.15M7.35,-11.3L7.65 -10.8L7.55 -10.45L7.2 -10.4L7 -10.3L6.9 -10.3Q6.55 -10.5 6.65 -10.95Q6.75 -11.35 7.1 -11.35L7.35 -11.3M8.5,-7.2L8.6 -7L8.6 -6.9L8.6 -6.85Q8.4 -6.6 8.15 -6.75L8 -7L8 -7.1L8.15 -7.2L8.35 -7.2L8.5 -7.2M2.55,-4.2L2.35 -3.45L1.95 -3.05L1.95 -3.15L1.95 -4.45Q1.9 -5.2 2.15 -5.6L2.2 -5.55Q2.55 -5 2.55 -4.25L2.55 -4.2M4.85,-3.85L5.05 -4.15L5.2 -4.3L5.25 -4.3L5.45 -4.3L5.6 -4.3L5.7 -4.25Q5.75 -3.9 5.45 -3.7L4.8 -3.6L4.85 -3.85M5.4,-1.7Q5 -1.95 5.05 -2.35Q5.15 -2.8 5.6 -2.85L5.75 -2.85L6 -2.1L5.45 -1.65L5.4 -1.7M15.8,-10.25L16 -10.2L16.15 -9.85L16.15 -9.55L16.1 -9.55L15.6 -9.65L15.4 -9.95L15.5 -10L15.55 -10.2L15.8 -10.25M12.75,-9.7Q12.35 -9.65 12.05 -9.9L11.9 -10.25L12 -10.3L12.1 -10.4L12.35 -10.4L12.6 -10.3L12.8 -9.95L12.8 -9.75L12.75 -9.7M12.75,-5.25L12.4 -5.05Q12.1 -5 12 -5.2L12 -5.25L12.05 -5.6L12.45 -5.75L12.6 -5.6L12.75 -5.45L12.75 -5.25M14.3,-5.45L14.45 -5.5L15 -5.2L15.2 -4.8L15.15 -4.65L14.4 -4.75L14.25 -5.35L14.3 -5.45M10.6,-3.65L10.9 -3.9L11 -3.85L11.15 -3.7L11.2 -3.45L11.15 -3.2L10.95 -3.15L10.9 -3.15L10.8 -3.15L10.75 -3.2L10.6 -3.65M16.9,-5.05L17 -5.05L17.15 -5.05L17.45 -4.5L17.15 -3.95L17 -4Q16.7 -4.2 16.65 -4.55L16.7 -4.95L16.8 -5.05L16.9 -5.05M-5.1,-28.15L-4.8 -28L-4.3 -27.45Q-4 -27.2 -4.2 -26.85L-4.3 -26.9L-5.1 -27.4Q-5.7 -27.9 -5.1 -28.15M-1.95,-25.95L-1.85 -26L-1.8 -26.05L-1.65 -26.1L-1.6 -26.1L-1.05 -25.3Q-0.7 -24.75 -1.25 -24.6L-1.4 -24.7L-1.7 -25.3L-1.95 -25.95M-1.65,-21.35L-1.6 -21.3L-1.05 -20.75Q-0.85 -20.3 -1.25 -20.1L-1.4 -20.2L-1.85 -20.65L-1.95 -21.2L-1.85 -21.2L-1.8 -21.3L-1.65 -21.35M-6.5,-24.15Q-6.8 -24.6 -6.45 -24.85L-6.4 -24.75L-5.9 -24.35Q-5.7 -24.1 -5.85 -23.85L-5.95 -23.85Q-6.3 -23.9 -6.5 -24.15M-3.1,-16L-2.6 -15.6Q-2.5 -15.35 -2.7 -15.1L-3.1 -15.3L-3.35 -15.4L-3.45 -15.45L-3.5 -15.85L-3.25 -16.1L-3.1 -16M-12.7,-6.35L-12.55 -6.4L-12.4 -6.35L-12.15 -6L-12.2 -5.65L-12.3 -5.6L-12.5 -5.6L-12.55 -5.6L-12.6 -5.75L-12.85 -6.05L-12.9 -6.15L-12.85 -6.3L-12.7 -6.35M-1.2,-8.9Q-0.7 -7.7 -0.5 -6.45Q-0.25 -5.3 -0.3 -4.2L-0.35 -4.25L-1.05 -6.65Q-1.45 -7.95 -1.3 -9L-1.2 -8.9M-6.45,-9.3L-6.1 -9.2L-6.05 -9.15L-5.95 -9.15L-5.95 -9.05L-5.95 -8.85L-5.95 -8.75Q-5.95 -8.6 -6.1 -8.6L-6.4 -8.5L-6.45 -8.5L-6.8 -8.65Q-7.2 -8.75 -7.1 -9.15L-7 -9.3L-6.85 -9.3L-6.45 -9.3M-9.3,-9.45L-9.1 -9.1L-9.2 -8.9L-9.25 -8.85Q-9.75 -8.75 -10 -9.1L-10 -9.4L-9.95 -9.45L-9.7 -9.55L-9.5 -9.6L-9.3 -9.45M-8.7,-2.8L-8.6 -2.8L-8.5 -2.75L-8.45 -2.65L-8.45 -2.6L-8.5 -2.55L-8.5 -2.45L-8.5 -2.35L-8.35 -2.2L-8.3 -1.95L-8.35 -1.75L-8.45 -1.75Q-9 -1.7 -9.1 -2.2Q-9.25 -2.65 -8.7 -2.85L-8.7 -2.8M-3.7,-3.85L-3.65 -3.8L-2.7 -3Q-2.25 -2.5 -2.7 -2.2L-2.75 -2.25L-3.6 -3.05Q-4.25 -3.55 -3.9 -3.85L-3.85 -3.9L-3.85 -3.85L-3.7 -3.85" />
</g>
</svg>
