<?xml version="1.0" encoding="utf-8"?>
<svg version="1.1" id="Layer_1"
xmlns="http://www.w3.org/2000/svg"
xmlns:xlink="http://www.w3.org/1999/xlink"
width="6px" height="10px"
xml:space="preserve">
<g id="573" transform="matrix(1, 0, 0, 1, 0.4, -9.05)">
<path style="fill:#1E1E1E;fill-opacity:1" d="M2.8,9.05Q3.7 8.9 3.65 9.95L3.35 10.45Q2.55 11.1 2.1 10.25L2.15 9.9L2.1 9.9L2.1 9.75L2.1 9.45L2.55 9.1L2.8 9.05M2.4,10.2Q2.9 10.45 3.3 9.95L3.4 9.75L3.25 9.55Q3 9.4 2.85 9.55L2.8 9.6L2.65 9.6L2.5 9.8L2.45 9.95L2.4 10.2M4.65,11.8L4.7 11.8L4.7 13.3L4.85 14.1Q5.2 15 4.4 15.3L4.3 15.3L4.1 13.95Q3.9 13.35 4.1 12.75L4.3 11.95L4.4 11.75L4.55 11.75L4.65 11.8M4.3,13.65Q4.1 13.65 4.3 14L4.45 14.5L4.55 14.8L4.65 14.35L4.4 13.85L4.3 13.65M0.45,13.5L0.3 13.5L0.1 13.6L0.05 13.85L0 14L0.6 14.1L0.7 14L0.7 13.85L0.7 13.8L0.65 13.65L0.65 13.6L0.6 13.5L0.45 13.5M0,13.15Q1 12.75 0.95 13.95Q0.95 14.8 0.1 14.45Q-0.5 14.2 -0.4 13.35L-0.4 13.15L-0.35 13.15L-0.2 13L-0.15 12.95L0 13.1L0 13.15M1.1,17.85L1.3 17.35L1.5 17.25Q1.95 17.1 2.1 17.7Q2.25 18.2 1.85 18.45L1.3 18.55L1.25 18.35L1.1 17.85M1.45,17.7L1.45 17.85L1.45 18.05L1.45 18.2Q1.6 18.35 1.7 18.1L1.85 17.9L1.7 17.7L1.45 17.7" />
<path style="fill:#3A3A3A;fill-opacity:1" d="M2.45,9.95L2.5 9.8L2.65 9.6L2.8 9.6L2.85 9.55Q3 9.4 3.25 9.55L3.4 9.75L3.3 9.95Q2.9 10.45 2.4 10.2L2.45 9.95M4.4,13.85L4.65 14.35L4.55 14.8L4.45 14.5L4.3 14Q4.1 13.65 4.3 13.65L4.4 13.85M0.6,13.5L0.65 13.6L0.65 13.65L0.7 13.8L0.7 13.85L0.7 14L0.6 14.1L0 14L0.05 13.85L0.1 13.6L0.3 13.5L0.45 13.5L0.6 13.5M1.7,17.7L1.85 17.9L1.7 18.1Q1.6 18.35 1.45 18.2L1.45 18.05L1.45 17.85L1.45 17.7L1.7 17.7" />
</g>
</svg>
