<?xml version="1.0" encoding="utf-8"?>
<svg version="1.1" id="Layer_1"
xmlns="http://www.w3.org/2000/svg"
xmlns:xlink="http://www.w3.org/1999/xlink"
width="39px" height="25px"
xml:space="preserve">
<g id="1265" transform="matrix(1, 0, 0, 1, 37.6, 24.7)">
<path style="fill:#100806;fill-opacity:1" d="M-3.55,-3.6L-8.7 -3.7L-9.85 -10.15L-12.25 -9.25L-14.7 -10.05L-15.7 -3.7L-18.1 -3.65L-19.45 0.25L-20.4 0.25L-18.7 -4.3L-16.6 -4.3L-15.55 -10.45L-14.95 -11.05L-15.05 -11.2Q-16.2 -12.35 -16.2 -13.95Q-16.2 -15.55 -15.05 -16.7Q-13.9 -17.85 -12.3 -17.85Q-10.7 -17.85 -9.55 -16.7Q-8.4 -15.55 -8.4 -13.95Q-8.4 -12.35 -9.55 -11.2L-9.75 -11.05L-9.15 -10.45L-7.9 -4.3L-2.7 -4.3L0.7 0.25L-0.8 0.25L-3.55 -3.6M-4.75,-1.85L-10.25 -1.85L-12.45 -1.25L-14.15 -1.75L-16.95 -1.75L-17.65 0.25L-18.25 0.25L-17.3 -2.55L-14.5 -2.55Q-15.05 -3.25 -15.05 -4.2Q-15.05 -5.35 -14.25 -6.2Q-13.4 -7 -12.25 -7Q-11.1 -7 -10.3 -6.2Q-9.45 -5.35 -9.45 -4.2Q-9.45 -3.25 -10 -2.55L-4.35 -2.55L-2.25 0.25L-3.3 0.25L-4.75 -1.85M-15.8,-13.7L-15.8 -13.4Q-15.7 -12.15 -14.8 -11.15L-14.65 -11.05Q-13.95 -10.4 -13 -10.2L-12.45 -10.15L-12.25 -10.15L-11.7 -10.2Q-10.75 -10.4 -10 -11.05L-9.9 -11.15Q-9 -12.15 -8.9 -13.4L-8.9 -13.7Q-8.9 -15.15 -9.9 -16.25Q-10.95 -17.2 -12.25 -17.25L-12.45 -17.25Q-13.75 -17.2 -14.8 -16.25Q-15.65 -15.35 -15.75 -14.2L-15.8 -13.7M-14.45,-4.2Q-14.45 -3.45 -14.05 -2.9L-13.85 -2.7Q-13.15 -2 -12.25 -2Q-11.35 -2 -10.75 -2.7L-10.5 -2.9Q-10.05 -3.45 -10.05 -4.2Q-10.05 -5.1 -10.75 -5.8Q-11.35 -6.4 -12.25 -6.4Q-13.15 -6.4 -13.85 -5.8Q-14.45 -5.1 -14.45 -4.2" />
<path style="fill:#9F6329;fill-opacity:1" d="M-9.5,-14.95L-9.9 -15.35Q-11 -16.2 -12.45 -16.2Q-13.9 -16.2 -14.9 -15.35L-14.9 -15.3L-15.75 -14.2Q-15.65 -15.35 -14.8 -16.25Q-13.75 -17.2 -12.45 -17.25L-12.25 -17.25Q-10.95 -17.2 -9.9 -16.25Q-8.9 -15.15 -8.9 -13.7L-8.9 -13.4Q-9 -14.3 -9.5 -14.95M-13.35,-12.8Q-13.75 -13.2 -13.75 -13.75L-13.75 -13.8Q-13.75 -14.35 -13.35 -14.65Q-12.95 -15.1 -12.4 -15.1Q-11.85 -15.1 -11.45 -14.65L-11.05 -13.8L-11.05 -13.75Q-11.05 -13.2 -11.45 -12.8L-11.5 -12.7L-12.15 -12.4L-12.6 -12.4L-13.3 -12.7L-13.35 -12.8" />
<path style="fill:#5D2C15;fill-opacity:1" d="M-10.1,-13.8Q-10.2 -14.6 -10.8 -15.1Q-11.45 -15.7 -12.45 -15.7Q-13.4 -15.7 -14.05 -15.1Q-14.75 -14.6 -14.8 -13.8L-14.8 -13.7Q-14.8 -12.9 -14.05 -12.3L-13.95 -12.2Q-13.45 -11.85 -12.8 -11.7L-11.95 -11.7Q-11.35 -11.85 -10.85 -12.2L-10.8 -12.3Q-10.1 -12.9 -10.1 -13.7L-10.1 -13.8M-15.75,-14.2L-14.9 -15.3L-14.9 -15.35Q-13.9 -16.2 -12.45 -16.2Q-11 -16.2 -9.9 -15.35L-9.5 -14.95Q-9 -14.3 -8.9 -13.4Q-9 -12.15 -9.9 -11.15L-10 -11.05Q-10.75 -10.4 -11.7 -10.2L-12.25 -10.15L-12.45 -10.15L-13 -10.2Q-13.95 -10.4 -14.65 -11.05L-14.8 -11.15Q-15.7 -12.15 -15.8 -13.4L-15.8 -13.7L-15.75 -14.2" />
<linearGradient
id="LinearGradID_466" gradientUnits="userSpaceOnUse" gradientTransform="matrix(0, -0.00434875, 0.00274658, -1.52588e-005, -12.25, -11.85)" spreadMethod ="pad" x1="-819.2" y1="0" x2="819.2" y2="0" >
<stop  offset="0" style="stop-color:#511A16;stop-opacity:1" />
<stop  offset="0.505882" style="stop-color:#6D4414;stop-opacity:1" />
<stop  offset="1" style="stop-color:#511A16;stop-opacity:1" />
</linearGradient>
<path style="fill:url(#LinearGradID_466) " d="M-10.1,-13.7Q-10.1 -12.9 -10.8 -12.3L-10.85 -12.2Q-11.35 -11.85 -11.95 -11.7L-12.8 -11.7Q-13.45 -11.85 -13.95 -12.2L-14.05 -12.3Q-14.8 -12.9 -14.8 -13.7L-14.8 -13.8Q-14.75 -14.6 -14.05 -15.1Q-13.4 -15.7 -12.45 -15.7Q-11.45 -15.7 -10.8 -15.1Q-10.2 -14.6 -10.1 -13.8L-10.1 -13.7M-13.3,-12.7L-12.6 -12.4L-12.15 -12.4L-11.5 -12.7L-11.45 -12.8Q-11.05 -13.2 -11.05 -13.75L-11.05 -13.8L-11.45 -14.65Q-11.85 -15.1 -12.4 -15.1Q-12.95 -15.1 -13.35 -14.65Q-13.75 -14.35 -13.75 -13.8L-13.75 -13.75Q-13.75 -13.2 -13.35 -12.8L-13.3 -12.7" />
<linearGradient
id="LinearGradID_467" gradientUnits="userSpaceOnUse" gradientTransform="matrix(0, -0.0165405, 0.0113831, 0, -12.75, -9.2)" spreadMethod ="pad" x1="-819.2" y1="0" x2="819.2" y2="0" >
<stop  offset="0" style="stop-color:#511A16;stop-opacity:1" />
<stop  offset="0.505882" style="stop-color:#6D4414;stop-opacity:1" />
<stop  offset="1" style="stop-color:#511A16;stop-opacity:1" />
</linearGradient>
<path style="fill:url(#LinearGradID_467) " d="M-4.35,-2.55L-10 -2.55Q-9.45 -3.25 -9.45 -4.2Q-9.45 -5.35 -10.3 -6.2Q-11.1 -7 -12.25 -7Q-13.4 -7 -14.25 -6.2Q-15.05 -5.35 -15.05 -4.2Q-15.05 -3.25 -14.5 -2.55L-17.3 -2.55L-18.25 0.25L-19.45 0.25L-18.1 -3.65L-15.7 -3.7L-14.7 -10.05L-12.25 -9.25L-9.85 -10.15L-8.7 -3.7L-3.55 -3.6L-0.8 0.25L-2.25 0.25L-4.35 -2.55M-3.3,0.25L-17.65 0.25L-16.95 -1.75L-14.15 -1.75L-12.45 -1.25L-10.25 -1.85L-4.75 -1.85L-3.3 0.25M-13.85,-5.8Q-13.15 -6.4 -12.25 -6.4Q-11.35 -6.4 -10.75 -5.8Q-10.05 -5.1 -10.05 -4.2Q-10.05 -3.45 -10.5 -2.9L-10.75 -2.7Q-11.35 -2 -12.25 -2Q-13.15 -2 -13.85 -2.7L-14.05 -2.9Q-14.45 -3.45 -14.45 -4.2Q-14.45 -5.1 -13.85 -5.8" />
<path style="fill:#100806;fill-opacity:1" d="M-9.8,-14.35L-8.55 -14.35L-8.55 -13.35L-9.7 -13.35L-9.7 -13.55L-9.8 -14.35M-9.3,-16.05L-10.2 -15.1L-10.5 -15.45L-10.95 -15.8L-10 -16.75L-9.3 -16.05M-16.05,-14.35L-14.9 -14.35L-15 -13.55L-15 -13.35L-16.05 -13.35L-16.05 -14.35M-12.35,-16.2L-12.8 -16.15L-12.8 -17.6L-11.8 -17.6L-11.8 -16.15L-12.35 -16.2M-13.7,-15.85L-14.25 -15.45L-14.45 -15.2L-15.3 -16.05L-14.6 -16.75L-13.7 -15.85M-10.5,-11.7L-10.05 -12.2L-9.3 -11.45L-10 -10.75L-10.7 -11.45L-10.5 -11.7M-11.8,-10.1L-12.8 -10.1L-12.8 -10.9L-12.35 -10.9L-11.8 -10.95L-11.8 -10.1M-14.6,-10.75L-15.3 -11.45L-14.6 -12.15L-14.25 -11.7L-13.9 -11.4L-14.6 -10.75" />
<path style="fill:#100806;fill-opacity:1" d="M-37.6,0.25L-36.5 -7.4L-35.65 -7.4L-35.75 -8.4L-35.75 -20.1Q-35.75 -23.1 -32.75 -23.1L-24.9 -23.1L-24.75 -24.7L-21.6 -24.7L-20.2 -21.75L-20.3 -11.85L-23.4 -11.45L-24.3 -10.55L-24.3 -5.7L-23.15 -4.55L-21.1 -4.55L-21.1 -2L-19.95 0.25L-20.7 0.25L-21.65 -1.75L-21.65 -3.9L-23.35 -3.9L-24.9 -5.4L-24.8 -10.85L-23.5 -12.3L-21.1 -12.4L-21.15 -21.35L-21.15 -21.7L-22.15 -23.95L-24.1 -23.95L-26.05 -6.45L-35.7 -6.4L-36.9 0.25L-37.6 0.25M-35.1,-19.5L-35.1 -9.05L-35.1 -7.4L-26.45 -7.4L-25 -22.2L-32.4 -22.2Q-35.1 -22.2 -35.1 -19.5" />
<path style="fill:#9F6329;fill-opacity:1" d="M-22.35,-23.05L-23.65 -23.05L-25.65 -6.05L-35.1 -5.65L-36.65 0.25L-36.9 0.25L-35.7 -6.4L-26.05 -6.45L-24.1 -23.95L-22.15 -23.95L-21.15 -21.7L-21.15 -21.35L-22.35 -23.05" />
<linearGradient
id="LinearGradID_468" gradientUnits="userSpaceOnUse" gradientTransform="matrix(-0.00273132, -0.0343628, 0.0106201, -0.000839233, -29.9, -18.95)" spreadMethod ="pad" x1="-819.2" y1="0" x2="819.2" y2="0" >
<stop  offset="0" style="stop-color:#511A16;stop-opacity:1" />
<stop  offset="0.505882" style="stop-color:#6D4414;stop-opacity:1" />
<stop  offset="1" style="stop-color:#511A16;stop-opacity:1" />
</linearGradient>
<path style="fill:url(#LinearGradID_468) " d="M-36.65,0.25L-35.1 -5.65L-25.65 -6.05L-23.65 -23.05L-22.35 -23.05L-21.15 -21.35L-21.1 -12.4L-23.5 -12.3L-24.8 -10.85L-24.9 -5.4L-23.35 -3.9L-21.65 -3.9L-21.65 -1.75L-20.7 0.25L-36.65 0.25" />
<linearGradient
id="LinearGradID_469" gradientUnits="userSpaceOnUse" gradientTransform="matrix(0, -0.0136414, 0.00616455, 0, -30.05, -18.7)" spreadMethod ="pad" x1="-819.2" y1="0" x2="819.2" y2="0" >
<stop  offset="0" style="stop-color:#464646;stop-opacity:1" />
<stop  offset="1" style="stop-color:#C4C4C4;stop-opacity:1" />
</linearGradient>
<path style="fill:url(#LinearGradID_469) " d="M-32.4,-22.2L-25 -22.2L-26.45 -7.4L-35.1 -7.4L-35.1 -9.05L-35.1 -19.5Q-35.1 -22.2 -32.4 -22.2" />
</g>
</svg>
