<?xml version="1.0" encoding="utf-8"?>
<svg version="1.1" id="Layer_1"
xmlns="http://www.w3.org/2000/svg"
xmlns:xlink="http://www.w3.org/1999/xlink"
width="136px" height="85px"
xml:space="preserve">
<g id="1681" transform="matrix(1, 0, 0, 1, -8, 14.45)">
<path style="fill:#000000;fill-opacity:0.498039" d="M73.75,-14.45L111.95 -6.85L143.1 -0.65L143.1 64.55Q143.1 66.45 142.15 68Q140.9 70 138.6 70.05L111.95 70.05L13.85 70.05Q11.4 69.95 9.65 68.1Q8 66.4 8 64.55L8 -0.65L73.75 -14.45" />
<linearGradient
id="LinearGradID_810" gradientUnits="userSpaceOnUse" gradientTransform="matrix(0.0856934, 0, 0, 0.0012207, 78.35, 69.05)" spreadMethod ="pad" x1="-819.2" y1="0" x2="819.2" y2="0" >
<stop  offset="0" style="stop-color:#772F10;stop-opacity:0.8" />
<stop  offset="0.54902" style="stop-color:#ED8B2E;stop-opacity:0.8" />
<stop  offset="1" style="stop-color:#772F10;stop-opacity:0.8" />
</linearGradient>
<path style="fill:url(#LinearGradID_810) " d="M81.6,70.15L13.15 70.05Q11.85 69.95 10.65 69L9.65 68.05L142.05 68.05L141.25 69.05Q140.25 70.05 139.05 70.05L85.8 70.1L81.6 70.15" />
</g>
</svg>
