<?xml version="1.0" encoding="utf-8"?>
<svg version="1.1" id="Layer_1"
xmlns="http://www.w3.org/2000/svg"
xmlns:xlink="http://www.w3.org/1999/xlink"
width="13px" height="11px"
xml:space="preserve">
<g id="800" transform="matrix(1, 0, 0, 1, 0, 0)">
<path style="fill:#000000;fill-opacity:1" d="M6.45,4.65L5.5 4.7L5.5 10.15L0 6.1L1.1 2.1L2.25 0L5.05 0L6.1 2.3L7.05 0L10 0L11.15 2.1L12.3 6.1L6.45 10.15L6.45 4.65" />
<path style="fill:#BD8051;fill-opacity:1" d="M5.5,10.15L5.5 4.7L6.45 4.65L6.45 10.15L5.5 10.15" />
<path style="fill:#BD8051;fill-opacity:1" d="M3.3,4.95L2.3 9.75L1.7 4.95L3.3 4.95M10.65,4.95L9.55 9.75L9 4.95L10.65 4.95" />
</g>
</svg>
