<?xml version="1.0" encoding="utf-8"?>
<svg version="1.1" id="Layer_1"
xmlns="http://www.w3.org/2000/svg"
xmlns:xlink="http://www.w3.org/1999/xlink"
width="49px" height="50px"
xml:space="preserve">
<g id="469" transform="matrix(1, 0, 0, 1, 0.45, 9.55)">
<path style="fill:#FFCC00;fill-opacity:1" d="M9.75,-2.75Q8.15 -1.65 7.6 0.1Q7.2 1.25 6.25 1.7Q5.55 0.6 6.35 -1.05Q7.05 -2.6 8.2 -3.7Q9.4 -4.85 10.85 -5.5Q11.9 -4.25 9.75 -2.75M46.25,-7.95L45.25 -8.6L44.1 -8.7Q44.35 -8.35 45.05 -8.2L46.05 -7.7L46.7 -7.3L46.25 -7.95M43.45,-9.3L43.95 -9.5L43.95 -9.55Q46 -9.7 47.05 -7.95Q47.95 -6.4 48.4 -4.65Q48.65 -3.45 47.95 -2.6Q46.95 -2.8 46.8 -4Q46.6 -5.75 45.3 -6.85L42.55 -8.55L42.65 -8.65L42.95 -9.05L43.45 -9.3M46,14.5Q47.9 16.3 47.9 19Q47.95 21.85 45.75 23.55Q44.3 24.7 43.35 23.8Q45.2 22.65 45.95 20.4Q46.7 18.4 45.95 16.4Q45.4 15 46 14.5M47.1,18.6L46.85 20.4L46.1 22L45.6 22.95Q46.65 22.35 47.05 21.15Q47.35 20.3 47.25 19.35L47.1 18.6M15.25,9L14.5 13.35Q14.3 14.7 13.6 15.65Q11.35 14.1 11.9 11.2Q12.45 8.45 14.15 6.2L15.6 5.05Q15.7 6.65 15.25 9M13.1,9.8Q12.8 10.9 12.85 12.1L12.65 13.5L12.8 13.75L13.05 14L13.3 14.25Q13.8 13.15 13.9 11.95L14 9.3L14.1 7.7Q13.4 8.7 13.1 9.8M1.3,11.95L1.35 12.35Q0.05 16.15 1.8 19.9Q3.45 23.35 4.45 26.95Q5 29 5.05 30.95Q1.7 27.8 0.8 22.9L0.25 20.75Q-1.05 16.7 0.15 12.55Q0.45 11.5 1.35 11.1L1.35 11.5Q1.25 11.75 1.3 11.95M1.5,22.55L2.3 24.5L4 28.65L4.3 28.95L3 24.8Q2.5 22.55 1.5 20.4L0.5 18.2Q0.55 20.5 1.5 22.55M17.5,30.4Q18.1 31.1 18.85 31.45L20.45 31.65L21.8 31.15L17.8 30.35L17.5 30.4M15.5,29.05Q15.35 28.6 15.8 28.6Q16.95 29.35 18.25 29.55L20.65 30.05Q22.5 30.6 23.3 29.25L23.45 29.2L23.65 29.15L23.95 29.25L24.05 29.35L24.15 29.5Q24 31 22.65 31.8Q20.05 33.45 17.8 31.85Q16.25 30.75 15.5 29.05M25,37.05L25.15 37.3L25.2 37.55L25.25 37.65Q28.3 38.75 31.4 37.75L31.45 37.85L31.5 37.95Q30.8 38.5 30.35 39.4L29.9 39.9Q27.7 41.2 25.55 39.5L24.3 38.5L24.3 37.95L24.4 37.4L24.45 37.15L24.5 37.05L24.75 36.95L24.75 36.9L25 37.05M25.7,38.35Q26.25 39.1 27.15 39.55L29.25 39.5L30.15 38.55L25.7 38.35" />
<path style="fill:#FFFF00;fill-opacity:1" d="M46.7,-7.3L46.05 -7.7L45.05 -8.2Q44.35 -8.35 44.1 -8.7L45.25 -8.6L46.25 -7.95L46.7 -7.3M47.25,19.35Q47.35 20.3 47.05 21.15Q46.65 22.35 45.6 22.95L46.1 22L46.85 20.4L47.1 18.6L47.25 19.35M14.1,7.7L14 9.3L13.9 11.95Q13.8 13.15 13.3 14.25L13.05 14L12.8 13.75L12.65 13.5L12.85 12.1Q12.8 10.9 13.1 9.8Q13.4 8.7 14.1 7.7M0.5,18.2L1.5 20.4Q2.5 22.55 3 24.8L4.3 28.95L4 28.65L2.3 24.5L1.5 22.55Q0.55 20.5 0.5 18.2M17.8,30.35L21.8 31.15L20.45 31.65L18.85 31.45Q18.1 31.1 17.5 30.4L17.8 30.35M30.15,38.55L29.25 39.5L27.15 39.55Q26.25 39.1 25.7 38.35L30.15 38.55" />
</g>
</svg>
