<?xml version="1.0" encoding="utf-8"?>
<svg version="1.1" id="Layer_1"
xmlns="http://www.w3.org/2000/svg"
xmlns:xlink="http://www.w3.org/1999/xlink"
width="18px" height="34px"
xml:space="preserve">
<g id="1024" transform="matrix(1, 0, 0, 1, 4.25, 13.05)">
<path style="fill:#FFFF00;fill-opacity:1" d="M1.4,-7.35Q1.05 -6.1 1.4 -4.9Q1.5 -4.5 1.05 -4.45Q0.35 -4.3 0.25 -5.05Q0 -6.6 1.25 -7.5L1.4 -7.35M4.15,-6Q4.45 -3.35 4.1 -0.6Q4 -0.15 3.6 -0.35Q2.55 -0.85 3.05 -2.1L3.4 -3.65Q3.45 -5 4.15 -6M1.55,-3.45Q2.2 -1.5 1.7 0.5L1.35 0.8Q-0.1 1.05 0.5 -0.4L1.1 -2.05L1.5 -3.4L1.55 -3.45M6.55,-5.3L6.65 -5.35Q8.5 -3.65 6.5 -1.9Q6.15 -1.6 6.05 -2.05Q5.9 -3 6.45 -3.7L6.6 -4.4L6.45 -5.2L6.55 -5.3M5.2,-1.3Q6.2 0.05 5.55 1.4L4.95 1.95L4.75 2Q4.05 1.1 4.8 0L4.9 -0.5Q4.9 -1.05 5.2 -1.3M12.85,9.15Q13.2 10.7 12 11.65Q11.75 11.85 11.8 11.55Q11.85 10.1 12.85 9.15M11.35,7.45Q10.95 6.1 11.95 5.15Q12.4 6.35 11.4 7.45L11.35 7.45M8.95,4.3L9.1 4.15Q9.7 5.75 8.2 6.9Q7.95 7.1 7.85 6.75Q7.55 5.6 8.75 4.65L8.95 4.3M5.5,5.85Q6.5 7.35 5.5 8.6Q5 9.2 4.95 8.45Q4.85 7.75 5.15 7.05L5.3 6.15L5.5 5.85M7.45,2.5L7.5 2.55L5.95 3.55L5.2 4Q4.25 4.35 4.1 3.5Q4 3.05 4.15 2.6Q5.2 2.75 6.15 2.15Q6.9 2 7.45 2.5M3.5,0.05L3.55 0.1L3.2 3.5Q3.15 4.15 2.5 3.8Q1.8 3.35 1.9 2.45Q2.15 0.95 3.3 0.05L3.5 0.05M1.4,3.85L1.45 6.25Q1.5 7.45 0.55 6.6Q0.35 6.45 0.4 6.15Q0.6 4.8 1.4 3.85M0.55,8.95Q-1 8.65 -1 6.95Q-1.05 6.35 -1.55 5.95Q-2.2 5.4 -1.95 4.95Q0.1 6.5 0.7 8.9L0.55 8.95M2.4,11.9Q2.7 13.35 1.35 12.85Q1.05 12.75 1.05 12.35Q1.15 10.8 1.7 9.6L2.4 11.9M9.4,8.6L9.5 8.55Q9.95 10.2 8.05 11.35Q7.25 11.9 7 12.95Q6.8 13.9 5.85 13.45Q4.2 12.75 4.8 11.05Q5.05 10.4 5.55 10.45Q5.05 11.85 6.25 11.6L6.55 11.4Q7.55 10.1 9 9.1L9.4 8.6M9.9,10.4Q10.15 10.85 10.05 11.65Q9.95 12.65 10.15 13.65Q10.25 14.55 9.4 14.3Q8.9 14.1 9.15 13.6L9.35 13.45Q9.1 11.85 9.85 10.45L9.9 10.4M8.15,17.2L10.85 15.6L11.25 15.4Q11.45 15.8 10.9 16.5L10.25 17.4Q9.05 19.1 8.05 17.55L7.9 17.2Q7.95 17.05 8.05 17.15L8.15 17.2M0.2,16.45Q-1.45 16.65 -1.5 14.85L-1.75 13.35Q-1.9 13.05 -1.6 12.95L0.45 15.85Q0.9 16.4 0.2 16.45M3.6,14.25Q3.2 15.4 3.1 16.5L2.7 16.75Q1.45 16.6 2.3 15.5L3.45 14.1L3.6 14.25M5.2,19.75Q4.75 19.4 5 18.85Q5.65 17.65 7.05 17.3Q7.2 17.85 6.75 18.8L6.55 19.3Q6.2 20.5 5.2 19.75M0.15,20.05Q-0.65 20.45 -0.9 19.75Q-1.5 18.15 -0.6 16.8Q-0.25 17.7 -0.25 18.8L-0.2 18.85Q0.65 18.05 1.85 17.7Q1.7 19.3 0.15 20.05M-1.3,0.5L-0.1 3.85Q0.15 4.5 -0.55 4.6Q-1.85 4.85 -1.75 3.55L-1.35 0.55L-1.3 0.5M-3.7,5.3Q-4.55 4.85 -4.05 3.9L-3.45 2.5Q-2.9 3.9 -3.45 5.25L-3.7 5.3M-2.85,8.5Q-1.2 9.85 -2.15 11.8L-2.55 12.2Q-3.65 12.7 -3.6 11.6Q-3.55 10.9 -3.1 10.3Q-2.6 9.7 -2.95 8.9Q-3.1 8.6 -2.85 8.5" />
<path style="fill:#FFFF00;fill-opacity:0.498039" d="M8.45,-1.25Q7.75 -2.7 9.1 -3.65Q9.4 -2.35 8.6 -1.2L8.45 -1.25M10.35,3.9Q10.1 4.1 9.9 3.9Q9.85 2.65 10.75 1.9Q11.25 3.15 10.35 3.9M-1.05,-4.05Q-1.05 -3.9 -1.25 -4.05Q-2 -4.55 -1.9 -5.7L-1.7 -5.9Q-1.1 -5.05 -1.05 -4.05" />
<path style="fill:#FFFF00;fill-opacity:0.25098" d="M1.35,-13.05Q1.75 -12.35 1.75 -11.5Q0.9 -11.9 1.3 -13.05L1.35 -13.05M7.65,-10.65L7.95 -9.15L7.95 -9.1L7.55 -9.05Q7.05 -9.95 7.65 -10.65M4.75,-8.65Q4.25 -9.75 4.3 -10.65Q5.6 -9.75 4.95 -8.65Q4.85 -8.5 4.75 -8.65" />
</g>
</svg>
