<?xml version="1.0" encoding="utf-8"?>
<svg version="1.1" id="Layer_1"
xmlns="http://www.w3.org/2000/svg"
xmlns:xlink="http://www.w3.org/1999/xlink"
width="9px" height="15px"
xml:space="preserve">
<g id="1154" transform="matrix(1, 0, 0, 1, 8.3, 2.25)">
<path style="fill:#999999;fill-opacity:0.705882" d="M-8.1,-2L-7.55 -2.25Q-7.45 -2.25 -7.25 -2.05L-6.65 -2.25Q-5.9 -2.25 -5.9 -1.85L-6.1 -1.45L-6.55 -1.1L-6.3 -1.6L-6.35 -1.8L-6.65 -1.85L-6.95 -1.5L-6.9 -1.5L-6.85 -1.4L-6.85 -1.35L-6.75 -0.6L-6.95 0.15L-6.35 -0.1L-6.3 -0.05L-6.95 0.6L-6.85 0.6L-6.8 0.7L-7.15 1.05L-6.55 0.8L-6.5 0.85L-7.65 1.75L-7.8 1.6L-7.55 1.2L-7.55 0.95L-7.6 0.95L-7.85 1.3L-7.95 1.3L-8 1.25L-7.55 0.35L-7.45 0L-7.85 -0.7L-8.3 -1.7L-8.1 -2M-5.95,-0.95L-5.9 -1.25L-5.9 -1.35Q-5.9 -2.05 -4.95 -1.95L-4.35 -2.15Q-3.25 -2.15 -3.25 -1.4L-3.35 -0.95L-3.3 -0.85L-3.7 -0.3L-4.05 -0.3L-3.95 -0.6L-4 -0.65L-4.4 -0.25L-4.85 0.1L-4.9 0.25L-5.55 1.3L-5.5 1.6L-5.15 1.5L-5.1 1.55L-5.35 1.7L-5.7 1.8L-5.95 1.75Q-5.95 1.65 -6.35 1.6L-6.4 1.55L-5.45 0.5L-5.4 0.4L-5.45 0.4L-5.5 0.3L-5.35 0L-5.35 -0.1L-5.95 -0.95M-4.2,-1.9L-3.85 -1.7L-3.75 -1.6L-3.6 -1.5L-3.8 -1.7L-4.2 -1.9M-2.15,-0.65L-2.1 -0.6L-2.1 -0.65L-2.15 -0.65M-1.3,-1.35Q-1.25 -1.7 -0.6 -1.35L0.1 -0.7Q0.1 0.05 -1.25 0.7Q-1.65 1.15 -2.3 1.25L-3.75 1.6L-3.95 1.6Q-3.9 1.45 -3.45 1.25L-2.85 1.05L-2.85 1L-4.5 1.5L-4.55 1.45L-3.85 1.1L-2.6 0.6L-2.1 0.25L-2.25 0.1L-2.15 -0.25L-2.5 -0.85Q-2.45 -1.05 -1.9 -1.25L-1.3 -1.35M-5.95,7.1L-4.45 8.45L-3.45 9.45L-3.3 9.25L-3.25 9.25L-3.75 8.9L-5.05 7.65L-5.05 7.35L-4.85 7.35L-5 7.45L-2.65 9.3L-2.65 9.2L-3.25 8.8L-4.5 7.5L-4.45 7.45L-4.45 7.4Q-3.85 7.65 -3 8.6L-2.45 8.85L-2.3 8.85Q-2.15 8.85 -1.65 9.2L-1.35 9.3Q-0.45 9.65 -0.45 9.95L-1 10.45L-1.2 10.7Q-1.35 10.9 -1.6 10.9L-2.2 10.75Q-2.45 11.15 -2.95 11.15L-3.15 11.1L-3.15 11.2Q-3.3 12.15 -4.25 12.15L-4.85 12L-5.55 12.2Q-6.8 12.2 -6.8 10.4L-6.75 9.7L-6.7 9.65L-6.7 9.6L-6.65 9.45L-6.55 9.55L-6.5 9.5L-6.75 8.95L-7.95 7.2L-7.8 7.1Q-7.15 7.6 -6.55 8.8L-5.8 10.3L-5.65 10.45L-5.4 10.45L-5.7 10.05L-5.6 9.9L-5 10.15L-5.45 9.6L-5.5 9.6Q-5.9 9.6 -7.6 7.1L-7.55 7L-7.5 7L-6.5 8.25L-5.6 9.1L-5.45 9.1L-4.75 9.5L-4.75 9.45L-4.5 9.45L-4.2 9.7L-4.3 9.45L-4.25 9.35L-6.05 8.3Q-7.2 7.7 -7.45 6.95L-7.4 6.95Q-6.75 7.65 -4.3 8.95L-4.6 8.7L-6.05 7.15L-5.95 7.1M-2.8,9.55L-2.95 9.45L-2.85 9.55L-2.8 9.55M-3.45,9.6L-3.6 9.5L-3.5 9.6L-3.45 9.6M-2.6,10.65L-2.85 10.8L-2.8 10.8L-2.6 10.65M-4,9.85L-3.95 9.85L-4.1 9.8L-4 9.85M-3.85,10.25L-3.8 10.3L-3.8 10.25L-3.85 10.25" />
</g>
</svg>
