<?xml version="1.0" encoding="utf-8"?>
<svg version="1.1" id="Layer_1"
xmlns="http://www.w3.org/2000/svg"
xmlns:xlink="http://www.w3.org/1999/xlink"
width="19px" height="15px"
xml:space="preserve">
<g id="984" transform="matrix(1, 0, 0, 1, 1.3, 11.65)">
<path style="fill:#000000;fill-opacity:0.85098" d="M3.55,-3.4L3.65 -3.35L3.75 -3.3L3.85 -3.3L3.95 -3.35L4.3 -3.25L4.4 -3.2L4.5 -2.75L4.5 -2.55L4.3 -2.05L4.15 -1.6L4.15 -1.35L3.25 -0.65L1.3 -0.45Q0.85 -0.55 0.5 -0.9L0.85 -1.65L1.85 -2.4L3.2 -3.25L3.45 -3.4L3.55 -3.4M7.3,-2.65L7.7 -2.55L8 -2.45L8.35 -2.25L8.6 -1.9L8.15 -1.35L7.25 -0.7Q6.85 -0.25 6.25 -0.1Q5.8 0.05 5.45 -0.3L5.45 -0.7L5.6 -1.45L5.9 -1.95L6.8 -2.5L7.3 -2.65M16.9,-11.05L16.8 -10.8L16.55 -10.6L16.5 -10.55L15.8 -10.55L15.6 -10.65L15.55 -10.6L15.4 -10.6L14.8 -10.6L14.65 -10.8L14.6 -11.05L14.6 -11.1L14.65 -11.15L14.75 -11.4L15.05 -11.6L15.1 -11.65L15.25 -11.65L15.35 -11.6L15.4 -11.5L15.4 -11.4L15.3 -11.3L16.65 -11.2L16.9 -11.05M0.8,1.45L1.15 1.75L1.15 1.9L1.1 1.95L1.1 2L1.05 2.1L1.05 2.15L0.75 2.25L0.15 2.45L-1.1 2.15L-1.3 1.9L-1.3 1.85L-1.25 1.75L-1.2 1.6L-1.2 1.5L-1.15 1.45L-1.1 1.4L-1 1.25L-0.9 1.2L-0.7 1.15L-0.6 1.15L-0.55 1.15L-0.55 1.1L-0.05 1.2L0.4 1.3L0.8 1.45" />
</g>
</svg>
