<?xml version="1.0" encoding="utf-8"?>
<svg version="1.1" id="Layer_1"
xmlns="http://www.w3.org/2000/svg"
xmlns:xlink="http://www.w3.org/1999/xlink"
width="129px" height="43px"
xml:space="preserve">
<g id="477" transform="matrix(1, 0, 0, 1, 100.15, -217.2)">
<path style="fill:#3A1D0F;fill-opacity:0.85098" d="M28.45,256.1L28.3 256.45L27.6 257.3L27.2 257.65L26.8 258.05L26.55 258.35Q23.9 259.5 21.65 259L13 256.9L12.55 256.65L12.35 256.2L12.3 255.85L12.3 255.45L12.3 255.05L12.3 254.65L12.35 254.3L12.7 253.9L12.2 253.5L11.75 253.1L11.45 252.65L11.4 252.3L11.55 251.9Q11.65 251.2 12.15 250.75L12.95 249.95Q13.35 249.55 13.8 249.35L15.15 248.55Q18.6 247.65 21.25 249.35Q23.85 251 26.15 252.95Q27.6 254.15 28.5 255.7L28.45 256.1M-77.5,221.15Q-76.4 222.35 -76.3 223.95Q-76.25 225.25 -76.7 226.3Q-78.4 228.05 -80.85 228.6Q-83.45 229.2 -84.9 228.3Q-86.05 229.95 -88.7 230.55Q-95.15 232.05 -99.15 226.7L-99.15 226.3L-99.25 224.35Q-99.45 222.4 -98.7 220.85Q-97.5 218.4 -95.1 217.55Q-87.15 215.95 -84.9 221.45Q-84.95 220 -83.15 219.65Q-81.5 219.35 -79.95 219.65Q-78.5 220.1 -77.5 221.15M-77.7,242.7L-77.55 243.45L-77.2 244.65Q-77.05 245 -77.05 245.4Q-78.8 246.65 -81.65 246.1Q-83.5 245.75 -84.4 244.5Q-83.3 243.45 -83.95 242.5Q-84.6 241.6 -84.75 240.55Q-84.85 239.65 -85.1 238.9Q-85.35 238.15 -84.65 238.1Q-82.95 237.9 -82.2 239.3Q-81.6 240.4 -80.35 241L-78.1 241.85L-77.7 242.7M-74.2,247.35Q-73 247.3 -72.55 248.45Q-72.15 249.55 -72.15 250.75L-72.35 252.3Q-73.45 253.3 -74.8 253.65L-77.9 253.85L-78.4 254.55Q-84.2 257 -87.7 252.95Q-90.55 249.7 -86.2 248.1L-85.7 247.95L-85.7 247.9L-81.05 248.3L-80.45 248.45L-80.45 248.4Q-79.7 247.35 -78.4 247.4L-74.2 247.35M-43.7,251.5L-43.15 251.5L-42.55 251.8L-42.35 251.85L-41.95 251.65Q-41.45 250.6 -40.6 249.95Q-37.9 247.95 -34.5 248.05L-34.5 248L-33.2 248.6L-31.9 249.35L-30.7 250.1Q-30.15 253.55 -32.75 256Q-36.95 259.9 -41.4 256.25L-42.05 255.65L-42.1 255.7L-42.35 256.1L-42.7 256.5Q-44.5 258.5 -47.55 258.45Q-50.9 258.4 -53.95 256.95L-54 257L-54.1 257.4L-54.25 257.75L-54.7 258.2L-55.1 258.6L-55.8 259.35L-62.1 259.1L-66.5 258.35L-66.7 257.9L-66.75 257.55L-66.75 257.15L-66.8 256.75L-66.9 256.35L-67.4 255.95L-67.8 255.6L-68.2 255.2L-68.6 254.8L-68.6 254.4L-68.6 253.6L-68.6 252.85L-68.5 251.5Q-68.25 250.7 -67.55 250.1L-67.25 249.85L-66.9 249.75L-64.25 249.65L-64.25 249.55Q-61.7 249.35 -59.35 250.3Q-57.25 251.2 -55.8 253.05L-55.35 252.65L-53.8 251.9L-52.8 251.75L-52.75 251.65L-49.5 251.95L-45.25 252.5Q-44.55 252.65 -43.9 252.95L-44.15 252.2L-44 251.8L-43.7 251.5M-5.75,251.15Q-1.75 257.5 -9 259.1Q-14.75 260.3 -20.9 259.8Q-25.25 259.4 -29.35 258.2L-29.8 257.95L-30 257.5Q-30.15 256.35 -29.75 255.35Q-28.85 253 -26.5 251.95L-25.85 252.05L-25.75 252.45L-25.6 253L-24 254.75L-23.5 255.2L-20.25 254.95Q-14.3 254.85 -9.95 250.7L-9.9 250.6L-6.55 250.9Q-6.15 250.95 -5.75 251.15M-90.55,235.05L-90.5 235.85L-90.6 237.05Q-90.8 238 -91.65 238.65L-92.5 239.4Q-96.85 240.85 -99.3 237.4Q-101.25 234.65 -98.8 232.6L-97.2 231.65L-94.55 232.1Q-93.2 232.55 -91.95 233.15Q-91.15 233.5 -90.65 234.3L-90.55 235.05" />
</g>
</svg>
