<?xml version="1.0" encoding="utf-8"?>
<svg version="1.1" id="Layer_1"
xmlns="http://www.w3.org/2000/svg"
xmlns:xlink="http://www.w3.org/1999/xlink"
width="14px" height="13px"
xml:space="preserve">
<g id="530" transform="matrix(1, 0, 0, 1, 0.45, 0.7)">
<path style="fill:#000000;fill-opacity:1" d="M6.3,-0.7L10.65 -0.05L10.55 2.7L10.4 2.8L10.05 3.05L10.1 4.8L10.5 5.4L12.05 6.4L13.4 6.95L13.4 7.15Q13.5 7.55 13.25 7.95L12.45 9.35Q11.95 10.5 10.8 10.75L8.45 10.55L7.85 8.85L8.6 7.8L7.05 7L5.85 11.95L-0.45 11.25L0.1 9.7L2.1 8.7L3 6.3L2.95 5.85L2.05 2.95L3.05 3.5L5.85 -0.5L6.3 -0.7" />
</g>
</svg>
