<?xml version="1.0" encoding="utf-8"?>
<svg version="1.1" id="Layer_1"
xmlns="http://www.w3.org/2000/svg"
xmlns:xlink="http://www.w3.org/1999/xlink"
width="38px" height="32px"
xml:space="preserve">
<g id="1584" transform="matrix(1, 0, 0, 1, -5.35, -5.85)">
<path style="fill:#FF0100;fill-opacity:1" d="M42.15,14.45L41.55 14.6Q40.15 14.35 40.4 15.85L40.6 16.35Q39.65 15.35 40.7 14.3L41.2 14.2L42.35 14.15Q41.5 13.5 40.45 13.95L41.25 13.5L41.45 13.5Q42.95 13.7 42.15 14.45M32.95,9.6L32.75 9.7L32.75 9.75L34.15 10.85L34.2 11.15L32.8 9.9Q32.55 9.75 32.75 9.6L32.95 9.6M22.3,5.85L22.25 6.3L22.2 6.15L22.3 5.85M23.2,7.7Q22.45 7.15 22.3 6.55L23.45 7.65L22.75 8.15L23.2 7.7M29,8.45L28.6 8.85Q27.8 9.85 28.7 10.95Q29.5 11.95 29.65 13L29.6 13.25L28.3 10.75Q27.25 9.1 28.9 8.25L29.8 7.35Q29.95 7.15 30.2 7.1L29 8.45M26.5,24Q26.1 23.65 26.25 23.35Q27.65 24.9 29.85 25.35L29.95 25.4L30.25 24.8L30.35 24.35L30.6 23.95L30.8 23.6L30.8 23.7L30.95 23.55L32.45 22.5Q32.35 23 31.45 23.65L30.75 24.3Q30.45 24.65 30.45 25Q30.4 25.75 31.5 26.45L32.05 27L31.8 26.95L32.35 27.4L32.35 27.45Q31.85 27.35 31.45 27.05L31.45 27.1L29.2 25.55Q28 25.2 27.05 24.5L26.95 24.4L26.5 24M14.4,17.75L14.55 18.3Q14.8 19.85 13.05 19.6Q15.3 19.05 13.9 16.95Q13.15 15.85 13.7 14.7Q13.55 16.35 14.4 17.75M14.8,35Q15.15 35.35 15.6 35.35Q18.65 35.55 19.4 32.7Q19.2 35.9 15.7 35.7Q14.35 35.65 13.5 34.7L13.05 34.6L10.2 34.95Q8.7 35.05 8.4 33.7Q9.4 35.6 11.9 34.55Q13.5 33.95 14.8 35M5.35,25.6Q7.6 25.85 7.15 27.55Q7 28.2 6.45 28.55Q5 29.45 6.35 30.4Q7.3 31.1 7.35 32.05Q7.35 32.4 7.15 32.55Q7.1 31.15 5.7 30.15Q5.3 29.85 5.45 29.3Q5.85 28.15 6.95 27.35Q7.2 27.2 7.05 26.95Q6.8 26.4 6.2 26.15L5.35 25.6M36.45,27.7Q36.4 25.7 37.25 24.1Q36.4 27.2 37.05 30.25Q37.45 32.05 36.15 33.55L35.65 33.8Q37.6 31.6 36.65 28.9L36.45 27.7M29.85,25.6L30.25 25.75L30.2 25.3L29.85 25.6M27.3,33.1L27.4 33.05L27.25 33.75L27.25 34.15Q28.85 35.6 27.6 37.3Q28.25 35.8 27.35 34.45Q26.45 33.95 27.3 33.1" />
</g>
</svg>
