<?xml version="1.0" encoding="utf-8"?>
<svg version="1.1" id="Layer_1"
xmlns="http://www.w3.org/2000/svg"
xmlns:xlink="http://www.w3.org/1999/xlink"
width="31px" height="4px"
xml:space="preserve">
<g id="766" transform="matrix(1, 0, 0, 1, 28, -19.25)">
<path style="fill:#000000;fill-opacity:0.498039" d="M-1.4,20.05Q2.3 20.75 2.3 21.5Q2.3 22.25 -1.4 22.65L-10.3 23L-19.15 22.2Q-22.8 21.55 -22.8 20.8Q-22.8 20.05 -19.15 19.6L-10.3 19.3L-1.4 20.05M-26.4,19.5L-25.25 19.75L-24.95 19.95L-24.75 20.35L-24.8 20.65L-25.25 20.95L-26.4 21.25L-27.25 21.15L-27.55 21L-28 20.5L-28 20.4L-27.55 19.8L-26.4 19.5" />
</g>
</svg>
