<?xml version="1.0" encoding="utf-8"?>
<svg version="1.1" id="Layer_1"
xmlns="http://www.w3.org/2000/svg"
xmlns:xlink="http://www.w3.org/1999/xlink"
width="113px" height="92px"
xml:space="preserve">
<g id="393" transform="matrix(1, 0, 0, 1, 22.9, 30.35)">
<path style="fill:#FFFF0E;fill-opacity:1" d="M19.5,-13L20.3 -6.7L21.5 -0.4L22.2 4.15L22.65 4.6L22.8 4.9L22.9 5.3L23.05 5.65L23.05 5.75Q23.65 5.6 24 5.15L24.7 4.35Q25.2 3.8 25.85 3.65L26.2 3.6Q25.85 5.9 25.65 8.6L25.25 13.75Q25 16.4 25.5 18.95Q25.9 20.85 25.35 22.2L23.1 19.1L20.95 15.9Q20.05 14.35 19.3 12.55L18.8 11.95L17.9 9.5Q17.3 8.25 17.05 6.9Q16.75 5.6 17.1 4.3Q17.25 3.6 17.7 3.05L18.2 3.25L18.4 3.5L18.65 3.85L18.8 4.25L18.9 4.4L18.85 -1.65L18.55 -8.15L18.05 -14.4Q17.65 -17.25 18.35 -19.3Q19.1 -16.25 19.5 -13M0.65,-17.15Q2.75 -15.75 3.5 -13.25Q4.2 -10.8 5.4 -8.55L7.5 -4.05Q8.2 -2.3 9.2 -1Q7.65 -0.9 5.8 -2.65L3.4 -4.45Q1 -5.85 -1.3 -7.35Q-2.25 -7.95 -2.4 -9Q-2.45 -9.7 -1.75 -9.75Q0.25 -10 1.85 -8.95Q2.65 -8.4 3 -8.8Q2.55 -9.6 2.35 -10.5L1.65 -12.7L0.65 -14.9Q0.1 -16 0.55 -17.05L0.65 -17.15M39.95,-11.7L42.55 -15.05L45.6 -18.6Q46.95 -20.15 48.6 -21.45L49.75 -22.1Q50.45 -21.4 49.45 -20.35Q48.75 -19.55 48.3 -18.55L47.55 -16.6L46.85 -14.8L46.85 -14.7L47.45 -15.05L48.05 -15.5L48.4 -15.85L48.5 -15.95L48.75 -16L49.5 -16L49.8 -15.9L49.85 -15.7L49.9 -15.35L49.9 -15L49.9 -14.6L49.9 -14.25L49.95 -14Q50.4 -13.75 50.95 -13.55L51.3 -13.25L51.4 -13.05Q48.8 -10.85 45.15 -9.4Q41.15 -7.85 38.05 -4.85L36.75 -3.4L36.45 -3.35L35.15 -3.5L35 -3.6L35.55 -5.8L36.65 -8.2L38.4 -10.7Q39 -11.55 39.95 -11.7M60.45,-1.3Q59.25 0.3 57 0.85Q51.9 2.05 46.7 1.5Q46.1 1.45 45.85 0.9L45.9 0.75Q47.15 -1.3 49.7 -2.4Q52.15 -3.45 54.45 -4.8Q57.45 -6.6 60.95 -7.1L61.55 -7.3L66.35 -7.05L66.65 -6.65L66.55 -6.55L64 -5.1L62.4 -4.25L60.3 -3.15L58.85 -2.15L58.8 -2.1L60.3 -1.65L60.5 -1.45L60.45 -1.3M50.2,46.25Q51.3 46.2 52.25 45.55Q53.05 45 53.4 44.15L53.65 43.2L53.6 43.05L53.5 42.85L53.3 42.65L53.15 42.45L53 42.3L53 42.1Q52.95 41.55 53.45 41.2L54.35 40.5Q54.85 40 55.6 39.75L57.3 39.5L57.3 39.45Q58.05 39.5 58.6 40L59.75 41.05L61 42L61.75 42.9L61.15 43L60.55 42.8L59.95 42.4L59.7 42.3L62.75 44.5Q64.15 45.5 65.5 46.65Q66.65 47.65 67.9 48.5Q68.8 49.1 69.3 50.05L66.25 49.85Q63.4 48.85 60.5 49.05L60.6 49.2L60.8 49.45L60.9 49.6L60.9 49.8L60.95 50L60.95 50.15L60.95 50.35Q58.2 53.2 54 51.1Q52.55 50.4 51.25 49.4L48.25 47.65Q48 47.55 48.05 47.2Q48.65 46.35 50.2 46.25M58.85,41.65L59.05 41.75L58.85 41.5L58.45 41.25L58.5 41.3L58.85 41.65M4.8,10.25Q4.35 11.1 3.5 11.65L0.7 13.2L-2.65 15.35Q-4.75 17 -5.35 18.2L-5.35 18.35Q-6.7 19.9 -9.5 20.1Q-14.2 20.55 -18.45 19.45L-18.85 19.2L-18.9 19L-18.9 18.85L-18.9 18.65L-18.9 18.45L-18.9 18.25L-18.85 18.1L-18.25 17.45L-17.45 17L-16.7 16.55L-16.2 16L-16 15.6L-16.1 15.45L-16.2 15.25L-16.35 15.05L-16.45 14.9L-16.45 14.7L-16.45 14.5Q-16.05 13.85 -15.05 13.75L-6.4 12.9L-5.15 12.6L-5.2 12.45L-6 11.7L-6.55 10.9L-7.05 10.15L-7.4 9.45L-7.55 9.1L-7.6 8.75L-7.45 8.55L-6.55 8.45L-4.05 8.75L-3.65 8.6L-3.7 8.45L-4.9 7.35L-6.15 6.3L-6.9 5.65L-7.15 5.1L-6.9 4.55L-6.65 4.5Q-4.9 4.45 -3.35 5.35Q-1.95 6.2 -0.4 6.9Q1.2 7.6 2.8 8.4Q4.2 9.05 4.8 10.25M17.5,28.8L17.7 28.9L17.85 29.05L18.15 29L19.45 28.9L19.75 29Q20.2 29.35 20.15 29.9L19.75 31.2Q19.15 32.35 18.2 33.3Q17.4 34 16.85 34.85Q16.25 35.75 15.55 35.1Q15.35 34.85 14.7 35.45L13.3 36.6L10.75 38.5L8.9 38.55Q8.85 37.85 9.3 37.35L11.3 35.05L12.9 33.3L14.55 31.3L14.7 31.15Q14.15 30.8 14.6 30.45L15.05 30.2L15.25 30.15Q16 30.05 16.4 29.5L17.15 28.7L17.5 28.8M5.65,29.15L8.6 29.2Q9.05 29.2 9.2 29.6L9.05 30.2L7.8 31.2L4.75 33.7Q3.2 34.65 1.75 35.85Q0.2 37.1 -1.75 37.4Q-2.2 37.5 -2.15 37.05L-2.15 36.85L-2.1 36.7L-1.95 36.6L-1.75 36.5L-1.35 36.45L-3.9 36.7L-4.25 36.8Q-6.85 37.3 -9.25 38.25L-11.45 38.3L-11.05 37.55Q-10.15 36.65 -9 36.1L-3.45 32.85L1.4 29.9Q2.6 29.2 3.8 28.85L4 29.1L5.3 29.2L5.65 29.15M9.85,42.95L10.15 43L10.3 43.2L10.45 43.4L10.5 43.6L10.55 43.75L10.6 43.95L10.7 44.15L10.85 44.2Q12.55 44.4 14.1 45.3L14.95 45.85Q15.65 46.4 15.95 47.3Q16.2 48.05 16.1 48.85Q14.6 48.85 13.35 50Q11.8 51.4 9.9 52.2Q8.15 52.95 6.35 51.95Q5.15 51.35 3.8 51.2Q1.05 51 0.8 48.5L0.8 48.15L0.75 48L0.5 47.75L0.3 47.6L0.1 47.4L-0.15 47.05L-0.15 46.85Q-0.05 45.75 1 45.15L1.8 44.55Q2.9 43.45 4.55 43.3L6.9 42.9L9.85 42.95M30.3,41.4L32 40.95Q34.4 40.8 36.65 41.55Q39.15 42.3 40.25 44.5Q41.45 46.8 40.3 49Q39.4 50.65 37.6 51.4L36.05 51.15L35.45 51.05L28.6 50.55L28.45 50.35L28.25 50.15L28.05 49.95L27.95 49.8L27.9 49.6L27.8 49.25L27.65 49.05L27.5 49L27.1 49L26.8 49.1L26.35 49.1L24.95 48.9L24.75 48.8L24.55 48.65L24.4 48.45L24.3 48.25L24.15 48.1L24.05 47.85L24 47.5L23.95 46.95Q23.95 46.6 24.2 46.35L24.3 46.25L24.2 45.85L24.15 44.9Q24.45 43.6 25.7 42.85Q27.85 41.65 30.3 41.4" />
<path style="fill:#333333;fill-opacity:0.980392" d="M17.05,-30.35L17.45 -29.4Q17.45 -28.8 17.75 -28.3Q18 -27.85 18.4 -27.55L19.2 -26.85L19.3 -26.65L19.5 -22.55Q19.65 -20.35 20.3 -17.95Q20.95 -15.5 22.3 -13.35L24 -10.05L26.05 -8.9Q26.6 -8.65 26.95 -8.2L27.15 -9.25Q27.5 -10.35 28.55 -11.15Q29.6 -11.95 30.9 -12.1Q31.4 -14.45 33.05 -16.1Q35.4 -18.45 38.45 -20.2Q42.9 -22.8 47.65 -22.3L47.6 -22.5L47.55 -22.8L47.8 -23.25L48 -23.4L48.45 -23.7L48.75 -23.8L48.75 -23.85L50.3 -23.7L51.5 -22.6Q52 -21.9 51.9 -21Q51.8 -20.15 51.15 -19.55L51.15 -19.35L51.2 -19.15L51.3 -19L51.4 -18.8L51.4 -18.6L51.4 -18.45L51.5 -18.25L51.65 -18.1L52.25 -17.8L52.75 -17.55L52.95 -17.45L53.35 -17.1L53.55 -16.95Q53.85 -13.15 52.75 -9.7Q52.55 -8.95 51.85 -8.35L51.8 -8.3L53.2 -8.3L60.8 -9.25L65.5 -9.75L65.5 -9.8L68.2 -9.7L70.75 -9.45Q72.05 -9.3 73.25 -8.75L75.7 -7.55L75.65 -7.2L75 -6.6L71.15 -5.35L67.9 -4.1L66.15 -3.15L65.05 -2.2L64.7 -1.35Q63.9 1.2 60.95 1.7Q58 2.2 55.4 3.4Q51.85 5.05 48.6 7.1Q47.1 8.1 46.45 9.75L46.45 9.9L46.5 10.1L46.6 10.3L46.8 10.6L47.8 11.5Q48.35 12.05 49.25 11.85L51.75 12L51.8 12.2L51.9 12.4L52 12.55L52.1 12.75L52.15 12.95L52.15 13.3L52.15 13.7L52.15 14.05L52.1 14.6L52 14.95L52.15 15.15L52.65 15.55L53.65 16.3L55.4 17.3Q56.65 17.85 57.65 18.75L58.6 19.7L59.2 20.5L59.4 20.65L59.45 20.65L59.8 20.75L60.1 20.9L60.4 21.1L60.9 21.55L61.1 22.3Q61.15 22.75 61.5 23.05L62.05 23.75L62.2 23.85L64.35 23.65L65.85 22.3Q66.85 21.3 68.2 20.85Q70.15 20.2 71.95 20.9L72.15 21.05L72.55 21.4L73.05 22.15Q73.5 23.4 74.6 23.95Q75.3 24.35 75.5 25.1Q75.7 25.65 75.55 26.25L75.1 27.15L74.85 27.55L74.65 27.65L73.15 28.1L69.85 28.7Q67.35 28.9 64.95 28.2L64.75 28L64.6 27.8L64.5 27.65L64.4 27.5L64.3 27.25L64.1 26.95L63.4 26.45L63.3 26.45L62.85 26.75Q61.9 27.3 61.45 28.25L60.25 29.8L58.8 31.3L59.15 32.2L59.95 33.15L60.8 33.65L61.9 34.5L62.15 34.65Q68.8 32.9 75.45 35.9Q78.75 37.35 76.85 40.4Q75.95 41.85 74.1 42L72.85 42L72.65 41.8L72.45 41.65L72.35 41.5Q69.9 42.5 68 41Q66.75 40.05 66.25 38.55L65.4 38.3L63.15 38.4Q62.75 38.65 62.5 39.05L62.25 39.4L62.35 39.6L62.65 40.15L63.1 40.75L63.6 41.5L64 41.95L64.2 42.35L65.3 43.25Q66.2 44.6 67.9 45L69.95 45.35L71.35 45.65L71.4 45.45L71.5 45.35L71.65 45.3L71.8 45.3L71.95 45.55L72 45.7L72 45.9L72.35 46.1L72.15 46.3L74.35 46.9L75.1 47.15L75.6 47.35L76.35 47.8L76.55 48.1Q76.5 48.65 76 49.05L75.4 49.55L75 49.95L74.85 50.05Q74.4 50.25 74.05 50.6L73.7 51.15L74.2 52.15L74.35 52.65L74.35 53L74.5 53.4L74.55 53.95L74.55 54.7L74.5 54.85L73.15 55.6L71.4 56.15L71.85 56.45Q67.6 57.65 63.1 57.75Q60.5 57.8 59.15 55.65Q54.85 56.4 51.3 54.25L48.75 52.95L48.45 52.8L48.3 52.45L48.15 52.1L48 51.7L47.7 51.35L46.55 51.2L46.05 51.15L45.8 51.5L45.55 51.8L45.25 52.05L45.05 52.4Q46.35 54.55 45.4 56.85Q43.75 60.8 39.4 60.8Q35.3 60.75 32.3 58.1Q31.7 57.6 30.75 57.35L29.55 57.25L29.55 57.8L29.45 58.35L29.25 58.75L29.15 58.9L28.85 59.2Q27.15 59.85 25.95 58.7L24.85 57.9L24.05 57.5Q22.95 58.45 21.65 57.85Q20.9 57.5 20.55 56.75L19.65 55.15Q19.15 54.4 19.2 53.45L19.2 53.05L14.55 55.7Q13.3 56.35 11.75 56.65L2.95 58.05Q2.1 56.5 -0.2 57.5Q-2 58.2 -3.7 59.2L-7.3 59.4Q-9.8 60.65 -12.65 59.75Q-13.35 59.5 -13.85 58.9L-14 58.7Q-14.2 57.8 -13.6 57.2Q-13 56.6 -12.15 56.35L-11.45 55.85L-10.25 54.5Q-10 54.25 -10.05 53.9Q-10.6 52.75 -9.15 52.2L-7.55 51.15L-5.65 49.65L-3.85 48.75Q-3.55 48.55 -3.6 48.2L-3.65 47.85L-3.65 47.45L-3.65 47.25L-3.65 47.1L-3.65 46.7L-1.4 43.95L-0.3 42.1Q0.35 40.95 1.4 40.2L0.25 40.4L-0.8 40.65L-1.4 41.4Q-3.3 42.6 -5.9 42.35L-12 42.75L-12.55 42.85L-13.85 41.95Q-14.95 41.25 -14.95 40.05Q-14.9 38.35 -14.35 36.8Q-13.7 35.2 -12.2 34.2Q-10.5 33 -9.65 31.1L-9.8 30.95L-10.6 29.8L-11.35 28.75L-11.45 28.5L-11.4 27.8L-11.1 26.95Q-10.85 26.4 -11.2 25.95L-17.55 24.25Q-21.15 23.1 -22.45 19.9Q-23.6 17.05 -21.7 14.35L-18.75 10.1L-19.05 10L-19.1 9.8Q-19.3 8.9 -18.55 8.3L-17.75 7.7L-16.8 7.45L-13.25 7.15L-13.2 7L-13.05 6.8L-13 6.6L-12.9 6.45L-12.55 6.05L-12.6 5.9L-13 4.75L-13.45 3.65L-13.55 3.5L-13.85 2.75L-14.15 1.8L-14.2 0.7L-14.15 0.55L-13.05 -0.2Q-12.35 -0.8 -11.4 -0.9L-10.65 -0.95L-10.35 -1.05L-10.35 -1.1L-7.9 -1.05L-7.55 -0.95L-7.05 -0.4Q-5.55 0.65 -3.65 0.8Q-2.9 0.9 -2.2 1.3Q-1.05 2.05 -0.2 3.2Q0.45 4.1 1.65 4.15L1.8 3.95L2.55 2.65L3 1.7L3.15 1.4L3.6 0.4Q3.75 0.05 4 -0.15L0.45 -1.95L-2.2 -3.45Q-4.65 -5.05 -4.65 -8L-4.55 -9.85L-4.4 -10.05L-3.85 -10.6L-3.45 -10.9L-2.7 -11.4L-2.15 -12.05L-2.1 -12.2L-2.2 -12.75L-2.05 -13.55L-1.75 -14.1L-1.35 -14.8L-1.05 -15.15L-1.15 -15.35L-1.2 -15.9L-1.2 -16.65L-1.15 -17.2L-0.95 -17.95L-0.75 -18.25L-0.5 -18.4L-0.5 -18.45Q0.55 -18.6 1.45 -18.05L3.3 -16.85Q3.8 -16.55 4.4 -16.4L5.45 -16.2L5.25 -16.7Q4.85 -17.65 5.4 -18.65Q6.65 -21.1 9.85 -21.1L10.85 -20.9L11.4 -20.65L11.8 -20.4L11.95 -20.3L11.95 -20.1L11.95 -19.9L11.95 -19.7L11.95 -19.55L11.95 -19.15L12 -18.8L12 -18.45Q14.75 -17.35 16.1 -15.05Q16.3 -17.4 15.55 -19.65Q14.75 -21.9 15.7 -24.15L17.05 -27.9L17 -28.5L16.65 -29.25L16.5 -29.75Q16.45 -30.05 16.7 -30.2L17.05 -30.35M18.35,-19.3Q17.65 -17.25 18.05 -14.4L18.55 -8.15L18.85 -1.65L18.9 4.4L18.8 4.25L18.65 3.85L18.4 3.5L18.2 3.25L17.7 3.05Q17.25 3.6 17.1 4.3Q16.75 5.6 17.05 6.9Q17.3 8.25 17.9 9.5L18.8 11.95L19.3 12.55Q20.05 14.35 20.95 15.9L23.1 19.1L25.35 22.2Q25.9 20.85 25.5 18.95Q25 16.4 25.25 13.75L25.65 8.6Q25.85 5.9 26.2 3.6L25.85 3.65Q25.2 3.8 24.7 4.35L24 5.15Q23.65 5.6 23.05 5.75L23.05 5.65L22.9 5.3L22.8 4.9L22.65 4.6L22.2 4.15L21.5 -0.4L20.3 -6.7L19.5 -13Q19.1 -16.25 18.35 -19.3M0.55,-17.05Q0.1 -16 0.65 -14.9L1.65 -12.7L2.35 -10.5Q2.55 -9.6 3 -8.8Q2.65 -8.4 1.85 -8.95Q0.25 -10 -1.75 -9.75Q-2.45 -9.7 -2.4 -9Q-2.25 -7.95 -1.3 -7.35Q1 -5.85 3.4 -4.45L5.8 -2.65Q7.65 -0.9 9.2 -1Q8.2 -2.3 7.5 -4.05L5.4 -8.55Q4.2 -10.8 3.5 -13.25Q2.75 -15.75 0.65 -17.15L0.55 -17.05M38.4,-10.7L36.65 -8.2L35.55 -5.8L35 -3.6L35.15 -3.5L36.45 -3.35L36.75 -3.4L38.05 -4.85Q41.15 -7.85 45.15 -9.4Q48.8 -10.85 51.4 -13.05L51.3 -13.25L50.95 -13.55Q50.4 -13.75 49.95 -14L49.9 -14.25L49.9 -14.6L49.9 -15L49.9 -15.35L49.85 -15.7L49.8 -15.9L49.5 -16L48.75 -16L48.5 -15.95L48.4 -15.85L48.05 -15.5L47.45 -15.05L46.85 -14.7L46.85 -14.8L47.55 -16.6L48.3 -18.55Q48.75 -19.55 49.45 -20.35Q50.45 -21.4 49.75 -22.1L48.6 -21.45Q46.95 -20.15 45.6 -18.6L42.55 -15.05L39.95 -11.7Q39 -11.55 38.4 -10.7M60.5,-1.45L60.3 -1.65L58.8 -2.1L58.85 -2.15L60.3 -3.15L62.4 -4.25L64 -5.1L66.55 -6.55L66.65 -6.65L66.35 -7.05L61.55 -7.3L60.95 -7.1Q57.45 -6.6 54.45 -4.8Q52.15 -3.45 49.7 -2.4Q47.15 -1.3 45.9 0.75L45.85 0.9Q46.1 1.45 46.7 1.5Q51.9 2.05 57 0.85Q59.25 0.3 60.45 -1.3L60.5 -1.45M89.9,43Q90.35 45.3 89.5 47.65Q88.65 49.9 86.4 50.85L82.75 50.95L82.45 50.75L82.35 50.6L82.25 50.45L82.15 50.25L82.1 50.05L82.05 49.9L82.05 49.75L82 49.7Q81.35 49.45 80.8 49L79.65 47.75Q79.2 47.15 79.3 46.35Q79.3 46.05 78.95 45.9L78.95 45.7Q79.35 44.65 80.45 43.85Q81.75 42.9 83.25 42.2Q84.7 41.5 86.2 41.15Q89.45 40.35 89.9 43M40.5,8.95L40.35 8.85L39.9 8.5L39.8 8.3L39.7 7.4Q39.75 6.75 39.95 6.2L40.25 5.15L40.5 4.25Q38.95 4.9 38 6.8L36.1 10.3Q35.2 11.9 34 13.3L33.15 14.4L33.05 14.75L32.9 15.3Q34.2 14.05 35.75 13.3Q37.65 12.35 39.4 11.05L40.95 9.5L40.95 9.3L40.9 9.2L40.5 8.95M50.7,30.35L50.4 29.8L49.75 29.35L48.3 28.7L47.6 28.6L46.95 28.95L46.4 29.35L45.75 29.9L45.25 30.5L45.2 30.8Q45.1 31.15 45.35 31.35L45.8 31.85L46.45 32.5Q47.1 32.8 47.45 33.4L47.75 33.5L49.9 33.35L50.05 33.25L50.15 32.9L50.3 32.55L50.55 32.15L50.7 31.8Q50.7 31.45 50.85 31.2L50.95 30.85L50.7 30.35M48.05,47.2Q48 47.55 48.25 47.65L51.25 49.4Q52.55 50.4 54 51.1Q58.2 53.2 60.95 50.35L60.95 50.15L60.95 50L60.9 49.8L60.9 49.6L60.8 49.45L60.6 49.2L60.5 49.05Q63.4 48.85 66.25 49.85L69.3 50.05Q68.8 49.1 67.9 48.5Q66.65 47.65 65.5 46.65Q64.15 45.5 62.75 44.5L59.7 42.3L59.95 42.4L60.55 42.8L61.15 43L61.75 42.9L61 42L59.75 41.05L58.6 40Q58.05 39.5 57.3 39.45L57.3 39.5L55.6 39.75Q54.85 40 54.35 40.5L53.45 41.2Q52.95 41.55 53 42.1L53 42.3L53.15 42.45L53.3 42.65L53.5 42.85L53.6 43.05L53.65 43.2L53.4 44.15Q53.05 45 52.25 45.55Q51.3 46.2 50.2 46.25Q48.65 46.35 48.05 47.2M2.8,8.4Q1.2 7.6 -0.4 6.9Q-1.95 6.2 -3.35 5.35Q-4.9 4.45 -6.65 4.5L-6.9 4.55L-7.15 5.1L-6.9 5.65L-6.15 6.3L-4.9 7.35L-3.7 8.45L-3.65 8.6L-4.05 8.75L-6.55 8.45L-7.45 8.55L-7.6 8.75L-7.55 9.1L-7.4 9.45L-7.05 10.15L-6.55 10.9L-6 11.7L-5.2 12.45L-5.15 12.6L-6.4 12.9L-15.05 13.75Q-16.05 13.85 -16.45 14.5L-16.45 14.7L-16.45 14.9L-16.35 15.05L-16.2 15.25L-16.1 15.45L-16 15.6L-16.2 16L-16.7 16.55L-17.45 17L-18.25 17.45L-18.85 18.1L-18.9 18.25L-18.9 18.45L-18.9 18.65L-18.9 18.85L-18.9 19L-18.85 19.2L-18.45 19.45Q-14.2 20.55 -9.5 20.1Q-6.7 19.9 -5.35 18.35L-5.35 18.2Q-4.75 17 -2.65 15.35L0.7 13.2L3.5 11.65Q4.35 11.1 4.8 10.25Q4.2 9.05 2.8 8.4M8.15,11.1L9.85 13.35L11.25 15.25L12.05 15.45L12.55 15.6L12.8 15.65L11.65 12.55L10.1 9.7Q9.1 8.2 7.65 7.05L6.1 6.05Q5.9 7.55 6.7 8.75L8.15 11.1M17.15,28.7L16.4 29.5Q16 30.05 15.25 30.15L15.05 30.2L14.6 30.45Q14.15 30.8 14.7 31.15L14.55 31.3L12.9 33.3L11.3 35.05L9.3 37.35Q8.85 37.85 8.9 38.55L10.75 38.5L13.3 36.6L14.7 35.45Q15.35 34.85 15.55 35.1Q16.25 35.75 16.85 34.85Q17.4 34 18.2 33.3Q19.15 32.35 19.75 31.2L20.15 29.9Q20.2 29.35 19.75 29L19.45 28.9L18.15 29L17.85 29.05L17.7 28.9L17.5 28.8L17.15 28.7M5.3,29.2L4 29.1L3.8 28.85Q2.6 29.2 1.4 29.9L-3.45 32.85L-9 36.1Q-10.15 36.65 -11.05 37.55L-11.45 38.3L-9.25 38.25Q-6.85 37.3 -4.25 36.8L-3.9 36.7L-1.35 36.45L-1.75 36.5L-1.95 36.6L-2.1 36.7L-2.15 36.85L-2.15 37.05Q-2.2 37.5 -1.75 37.4Q0.2 37.1 1.75 35.85Q3.2 34.65 4.75 33.7L7.8 31.2L9.05 30.2L9.2 29.6Q9.05 29.2 8.6 29.2L5.65 29.15L5.3 29.2M6.9,42.9L4.55 43.3Q2.9 43.45 1.8 44.55L1 45.15Q-0.05 45.75 -0.15 46.85L-0.15 47.05L0.1 47.4L0.3 47.6L0.5 47.75L0.75 48L0.8 48.15L0.8 48.5Q1.05 51 3.8 51.2Q5.15 51.35 6.35 51.95Q8.15 52.95 9.9 52.2Q11.8 51.4 13.35 50Q14.6 48.85 16.1 48.85Q16.2 48.05 15.95 47.3Q15.65 46.4 14.95 45.85L14.1 45.3Q12.55 44.4 10.85 44.2L10.7 44.15L10.6 43.95L10.55 43.75L10.5 43.6L10.45 43.4L10.3 43.2L10.15 43L9.85 42.95L6.9 42.9M25.7,42.85Q24.45 43.6 24.15 44.9L24.2 45.85L24.3 46.25L24.2 46.35Q23.95 46.6 23.95 46.95L24 47.5L24.05 47.85L24.15 48.1L24.3 48.25L24.4 48.45L24.55 48.65L24.75 48.8L24.95 48.9L26.35 49.1L26.8 49.1L27.1 49L27.5 49L27.65 49.05L27.8 49.25L27.9 49.6L27.95 49.8L28.05 49.95L28.25 50.15L28.45 50.35L28.6 50.55L35.45 51.05L36.05 51.15L37.6 51.4Q39.4 50.65 40.3 49Q41.45 46.8 40.25 44.5Q39.15 42.3 36.65 41.55Q34.4 40.8 32 40.95L30.3 41.4Q27.85 41.65 25.7 42.85" />
</g>
</svg>
