<?xml version="1.0" encoding="utf-8"?>
<svg version="1.1" id="Layer_1"
xmlns="http://www.w3.org/2000/svg"
xmlns:xlink="http://www.w3.org/1999/xlink"
width="25px" height="52px"
xml:space="preserve">
<g id="434" transform="matrix(1, 0, 0, 1, -0.8, 28.8)">
<path style="fill:#000000;fill-opacity:0.4" d="M20.75,-25.85Q18.25 -25 17.1 -27.25Q16.95 -27.5 16.95 -27.9L17.1 -28L17.4 -28.3L17.7 -28.45L18.05 -28.65L18.2 -28.75Q20.9 -29.1 21.5 -27Q21.7 -26.15 20.75 -25.85M6.1,-2.25Q9.85 -2.3 10.4 1.35Q10.8 4.05 10.2 6.7Q9.9 8.15 8.75 7.25Q8.05 6.7 7.9 5.85L2.3 6Q1.95 5.95 2.05 5.35Q2.6 2.05 4.45 -0.65L6.1 -2.25M24.85,6.45Q24.6 8.8 22.25 9.15Q21.1 9.3 20.3 8.35Q19.45 7.25 18.15 6.8Q17.45 6.55 17.15 5.9L16.05 4.2Q15.5 3.5 15.3 2.6L15.1 0.9L15.2 0.8L15.5 0.55Q15.7 0.35 15.95 0.3L16.5 0.05L16.6 0Q18.75 0.4 20.7 1.35Q22.25 2.1 23.4 3.4Q24.6 4.65 24.85 6.45M13.1,11.35Q13.05 14.5 10.15 14.15L9.25 14.05Q7.9 13.95 6.65 14.4L6.1 14.15L3.25 10.1L3.2 9.85L3.1 9.2Q3.1 8.75 3.55 8.55L4.1 8.2L4.25 8.1Q5.1 8.15 5.9 8.6L7.45 9.4L8.25 10.1Q10.8 9.8 12.85 10.8L13.1 11.35M3.85,13.25L4.15 13.5L4.45 13.9Q4.1 15.2 4.05 16.6L4 17.15L4.25 17.15L4.4 17.15L4.45 17.25L4.65 17.55L4.7 17.9L4.7 18.25Q5.45 18.1 6.05 18.5L7.25 19.15L8.45 19.75Q8.9 21.5 7.1 21.8Q5.7 22.05 4.7 21Q3.95 20.25 2.9 19.75L2.25 19.3Q1.45 19.6 0.85 18.85Q0.7 17.65 1.05 16.65Q1.5 15.3 2.3 14.15Q2.8 13.4 3.4 13.1L3.85 13.25" />
<path style="fill:#000000;fill-opacity:0.4" d="M4.15,-5.75Q4.6 -6.2 5.2 -6.35Q13.55 -6.05 11.05 1.2Q10.75 2.1 9.8 2.5Q3.75 5.1 2.5 -0.75Q1.9 -3.65 4.15 -5.75M17.8,5.15Q24.05 5.4 21.65 10.8Q20.2 14.15 16.45 12.75Q11.85 11.05 15 7.1Q16.15 5.7 17.8 5.15M2.8,12.6Q3.5 10.2 6.1 10.1Q11.2 10.65 8.95 15.5Q7.5 18.55 4.2 16.55Q2 15.25 2.8 12.6M4.3,21.25L4.4 21L4.75 20.75L5.15 20.55L5.3 20.5Q5.75 20.5 6.05 20.85L6.65 21.25Q7.15 21.45 7.1 21.9Q6.85 22.65 5.95 22.35L4.6 21.7L4.3 21.25" />
</g>
</svg>
