<?xml version="1.0" encoding="utf-8"?>
<svg version="1.1" id="Layer_1"
xmlns="http://www.w3.org/2000/svg"
xmlns:xlink="http://www.w3.org/1999/xlink"
width="17px" height="30px"
xml:space="preserve">
<g id="1028" transform="matrix(1, 0, 0, 1, 4.1, 9.65)">
<path style="fill:#FFFF00;fill-opacity:1" d="M7.85,-6.95Q8.5 -6 7.5 -5.05L7.7 -4.8Q7.25 -4.4 6.7 -4.6Q7 -5.8 7.75 -6.9L7.85 -6.95M1.5,-9.65L1.75 -7.95Q1.8 -7.25 1.1 -7.65Q0.8 -7.9 0.9 -8.4L1.5 -9.65M3.6,-0.35Q3.9 0.85 3.85 2.25L3.85 2.3L4.65 2.35L5.6 2.6Q5.65 4.6 3.7 3.7Q3.5 3.65 3.6 3.75Q3.2 4.2 2.7 3.25Q2.1 2.2 2.8 1.15L3.45 -0.2L3.6 -0.35M2.05,-3.1L2.1 -3.05Q1.4 -1.35 1.45 0.4L1.45 0.55Q0.15 1.3 0.45 -0.25Q0.65 -1.25 1.15 -2.15L1.9 -3.15L2.05 -3.1M4.3,-4.75Q3.75 -4.15 3.55 -4.95Q3.4 -5.55 3.8 -6.1L4.7 -7.15L4.65 -5.8Q4.65 -5.2 4.3 -4.75M6.45,-2.7L6.05 -0.75Q5.9 -0.35 5.6 -0.65Q5.15 -1.1 5.45 -1.7L6.25 -2.8L6.4 -2.75L6.45 -2.7M11.8,8.4L11.85 8.4Q12.5 9.5 11.4 10.55L11.5 10.7Q10.7 11.7 10.65 10.45Q10.6 9.75 11.2 9.25L11.8 8.4M7.75,1.7Q7.95 0.75 9.05 0.15Q9.25 0.55 8.8 1.3L8.7 1.7Q8.65 2.95 7.35 2.55Q7.1 1.95 7.65 1.65L7.75 1.7M6.25,4.05Q6.25 3.7 6.55 3.6Q7.4 4.75 6.45 6.05Q6.55 6.95 5.4 6.7L5.3 6.45Q5.55 5.4 6.1 4.55L6.25 4.05M4.95,9.7Q5 9.6 5.1 9.6Q5.85 10.6 5.95 11.85L6 11.9L6.5 9.7L6.6 9.6L7.25 11.75Q7.65 12.6 6.95 13.3Q6.05 14.1 5.6 13.05Q5.05 11.9 4.95 10.6L4.95 9.7M3.35,11.2L3.75 13.4Q3.85 14.25 3.05 13.9L2.65 13.4Q2.6 13 2.95 12.9L3.3 11.2L3.35 11.2M1.6,9.45Q1.35 9.05 1.55 8.6Q1.95 7.75 2.55 7.15L2.45 9.3Q2.3 10.4 1.6 9.45M0.8,8.65Q-1.45 8.9 -1 6.85L-0.35 4.75Q-0.1 5.8 0.65 6.6Q1.5 7.5 0.8 8.65M9.7,8.3Q9 7.6 9.55 6.55L10.05 6Q10.35 7.2 9.85 8.35L9.7 8.3M8.6,16.45Q8.8 17.35 8.05 18.4L7.4 19.15Q5.85 20.4 5.3 18.9Q5.05 18.3 5.6 18.25Q6.65 17.2 8.15 16.75L8.55 16.5L8.6 16.45M1.65,14.85L1.25 18.75Q1.15 19.4 0.55 19.65Q-1.3 20.3 -1.15 18.6Q-0.95 16.95 -1.45 15.4L-1.65 15.05Q-1.95 14.5 -1.6 14.2Q-0.25 15.6 0.55 17.3L0.6 17.3Q0.6 16.05 1.2 14.95Q1.4 14.65 1.65 14.85M11.95,14.25L11.6 15.5Q11.2 16.2 10.75 15.5Q10.5 15.1 10.7 14.55Q11.1 13.35 12.05 12.55L11.95 14.25M-0.6,-0.9Q-0.8 0.1 -1.35 -0.65L-1.5 -1.15Q-1.55 -2.1 -1.25 -2.75Q-0.4 -2.05 -0.6 -0.9M-1.1,3.35L-1.45 3.65Q-2.45 3.65 -2.1 2.55Q-1.95 2.05 -2.1 1.55L-2.15 0.6Q-1 1.85 -1.1 3.35M-1.55,10.2Q-0.6 11.45 -1.25 12.65L-1.55 12.8L-1.65 12.8Q-2.3 11.65 -1.65 10.25L-1.55 10.2" />
<path style="fill:#FFFF00;fill-opacity:0.498039" d="M-3.9,6.2L-3.4 5.45Q-3.2 5.95 -3.25 6.85Q-3.3 7.6 -2.8 8.3Q-2.65 8.5 -2.75 8.8Q-3.1 9.65 -3.65 8.8Q-4.45 7.55 -3.9 6.2" />
</g>
</svg>
