<?xml version="1.0" encoding="utf-8"?>
<svg version="1.1" id="Layer_1"
xmlns="http://www.w3.org/2000/svg"
xmlns:xlink="http://www.w3.org/1999/xlink"
width="26px" height="24px"
xml:space="preserve">
<g id="616" transform="matrix(1, 0, 0, 1, -12.5, -1.8)">
<path style="fill:#000000;fill-opacity:0.498039" d="M32.9,22.6L35.4 22.95Q37.15 23.25 37.15 23.95Q37.15 24.65 34.2 25.15L27.35 25.65L20.4 25.15Q17.6 24.65 17.6 23.95Q17.6 23.55 18.5 23.25L20.4 22.75L23.45 22.4Q25.25 22.25 28.7 22.4L32.9 22.6" />
<path style="fill:#000000;fill-opacity:1" d="M38.2,5.45L37.95 5.7L35.05 5.7L34.1 4.75L34.25 4.85L34.15 4.75L34.05 4.75L33.45 4.8Q32.25 5.05 31.65 5.95L31.65 6.05L31.6 6.65L31.7 7.1L31.95 7.3L33.15 7.6Q33.75 7.15 34.45 7.05L35.1 7.25L35.1 7.2L35.1 7.1L35.2 7.05L35.35 7L35.4 6.9L35.45 6.9L35.55 6.8L35.75 6.8L35.85 6.8Q39.3 8.3 37.3 11.45Q36.9 11.95 36.15 12L34.3 11.7L33.75 12.2L33.1 12.9Q32.85 12.95 32.75 12.75L32.55 12.55Q32.75 12 33.05 11.6L33.4 11.1L32.95 10.55L32.75 10.25L31.35 10.45L30.05 10.5L29.85 10.9L30.05 11.6L30.35 12.7L30.45 12.8Q29.7 12.75 29 12.3L28.95 12.1Q25.45 11.05 21.75 10.85L21.6 10.65L21.6 10L21.4 9.95Q20.25 9.8 19.1 9.95L19 9.95Q18.45 10.35 18.15 11.05L17.3 12.7L16.95 12.65L17.05 12.8Q14.55 12.2 12.7 10.4L12.5 10.15L12.65 9.55L12.95 9.15L13.1 8.95Q14.15 9.3 15.2 8.65Q13.95 8.4 12.9 7.75L12.7 6.2L12.65 5.55Q12.6 5.15 12.7 4.85Q12.85 3.65 14.25 4.1Q15.25 4.55 15.55 5.7L15.8 6L17.1 6.65L17.4 6.3L17.4 6.2L17.6 6.1L17.7 6.05L17.95 5.5L18.15 4.9Q18.2 4.45 18.55 4.4L19.1 4.95L19.25 5.15L21.6 5L21.75 4.95L21.85 5L21.9 4.95L21.95 4.95L22.05 4.75L22.15 4.75L22.2 4.9L25.8 4.6L27.7 5L27.95 5.05L29.55 3.65Q30.4 3.05 31.45 2.5L32.65 2.1L32.65 1.85L35.4 1.95L36.15 2Q38.9 2.95 38.2 5.45M32.8,10.2L32.8 10.25L32.85 10.35L32.8 10.2M26.45,10.45L26.35 10.75L26.35 10.85L26.4 10.8L26.45 10.45M26.25,11.15L26.35 11.1L26.3 11.1L26.25 11.15M26.65,10.9L27.85 11.35L28.9 11.8L28.85 11.4L28.85 10.95L28.5 11Q27.1 11.1 26.75 10.35L26.65 10.9" />
</g>
</svg>
