<?xml version="1.0" encoding="utf-8"?>
<svg version="1.1" id="Layer_1"
xmlns="http://www.w3.org/2000/svg"
xmlns:xlink="http://www.w3.org/1999/xlink"
width="20px" height="18px"
xml:space="preserve">
<g id="1097" transform="matrix(1, 0, 0, 1, -35.15, 1.85)">
<path style="fill:#C9C9C9;fill-opacity:1" d="M50.05,-0.65Q50.05 -1.65 51.75 -1.85Q53.4 -2 53.4 -0.8Q53.4 0.15 51.3 0.15Q50.35 0.15 50.1 -0.25L50.05 -0.65M53.25,10.45L51.65 10.65Q51.05 10.65 50.8 10.2L50.65 9.75Q50.65 8.95 52.15 8.85Q53.6 8.7 53.6 9.75Q53.6 10.25 53.25 10.45M48.3,2.6L45.4 3.15Q43.85 3.15 43.15 2.6Q42.65 2.2 42.65 1.7Q42.65 0.3 46.35 0.2Q50 0.1 50 1.5Q50 2 48.3 2.6M48.55,8.25L47.5 8.85Q45.35 8.85 45.35 7.75Q45.35 6.6 47.35 6.55Q49.35 6.5 49.35 7.4L48.55 8.25M54.8,14.8L54.6 15.15L53.3 15.25Q52.65 15.25 52.35 14.85L52.15 14.35Q52.15 13.6 52.75 13.5Q53.45 13.35 53.95 14.3Q54.8 14.15 54.8 14.8M36.65,2.45Q36.2 2.8 35.7 2.8Q35.3 2.8 35.2 2.55L35.15 2.25Q35.15 1.65 36.1 1.3Q37.05 1 37.05 1.85L36.65 2.45" />
</g>
</svg>
