<?xml version="1.0" encoding="utf-8"?>
<svg version="1.1" id="Layer_1"
xmlns="http://www.w3.org/2000/svg"
xmlns:xlink="http://www.w3.org/1999/xlink"
width="19px" height="19px"
xml:space="preserve">
<g id="969" transform="matrix(1, 0, 0, 1, 0.45, 6.85)">
<path style="fill:#000000;fill-opacity:0.85098" d="M8.4,-0.3L9.1 -0.05L9.35 0.55L9.35 1.25L9.3 1.45L9.2 1.55L9.1 1.6L9 1.65L8.8 1.75L8.4 1.5L8.15 1.2L8.1 1.15L7.8 1.1L7.7 1.1L7.45 1L7.25 0.85L7.2 0.8L7.2 0.65L7.2 0.55L7.25 0.35L7.4 0.15L7.8 -0.25L7.95 -0.3L8.4 -0.3M15.65,-6.8L15.75 -6.8L15.75 -6.85L15.85 -6.85L16.1 -6.8L16.2 -6.8L16.55 -6.75L17 -6.6L17.2 -6.45L17.6 -6.25L17.65 -6.15L17.7 -6.1L17.7 -6L17.7 -5.8L17.7 -5.7L17.7 -5.6L17.7 -5.5L17.7 -5.45L16.85 -5.4L16.3 -5.65L15.4 -5.9L15.3 -5.95L15.2 -6L15.15 -6.05L15.1 -6.15L15.1 -6.4L15.1 -6.5L15.15 -6.55L15.3 -6.65L15.4 -6.7L15.45 -6.75L15.55 -6.8L15.65 -6.8M15.6,-6.3L15.8 -6.25L15.65 -6.3L15.6 -6.3M12.95,-0.3L13.3 -0.2L13.65 -0.1L13.95 0.1L14.25 0.4L14.25 0.6L14.2 0.95L14.05 1.3L13.5 1.8L13.35 1.85L13.25 1.85L13.15 1.8L13.05 1.75L12.95 1.8L12.6 1.95L12.3 2.05L11.6 1.95L11.4 1.75L11.25 1.35L11.25 1L11.45 0.45L11.55 0.2L11.7 0.05L12.05 -0.05L12.4 -0.1L12.9 -0.25L12.95 -0.3M12.4,8Q11.95 8.65 12.05 9.5Q12.15 10.35 12.8 10.85L13.5 11.7Q12.5 11.7 11.95 10.6Q11.55 9.75 11.65 8.8L12.05 7.4L12.7 6.5Q12.95 7.15 12.4 8M3.75,2.75L3.85 2.65L3.95 2.6L4 2.5L4.85 2.55L4.9 2.55L5.15 3.05L4.95 4.2Q4.85 4.65 4.35 4.7Q3.85 4.75 3.5 5.05L3.25 5.25Q2.5 6.45 1.1 6.35L1.05 6.35L1 6.3L1 6.25L0.95 6.25L0.95 6.2L0.9 6.2L0.8 6.1L0.75 6.05L0.65 6.05L0.55 6.15L0.3 6.25L0.25 6.25L0 6.35L-0.15 6.15L-0.35 5.75L-0.4 5.75L-0.4 5.5L-0.4 4.4L-0.25 3.25L0 2.95L0.05 2.9L0.85 2.95L1.25 3.3L1.3 3.55L1.35 3.65L1.4 4.45L1.4 4.9L1.45 4.9L1.45 4.85L1.7 4.65L2 4.4L2.05 4.35L2.3 4.25L2.4 4.15L2.5 4.05L2.55 3.95L2.6 3.85L2.6 3.7L2.65 3.7L2.75 3.55L2.85 3.45L2.9 3.3L2.95 3.3L3 3.25L3 3.15L3.05 3.15L3.15 3.1L3.4 3Q3.45 2.9 3.6 2.9L3.65 2.85L3.75 2.75" />
</g>
</svg>
