<?xml version="1.0" encoding="utf-8"?>
<svg version="1.1" id="Layer_1"
xmlns="http://www.w3.org/2000/svg"
xmlns:xlink="http://www.w3.org/1999/xlink"
width="21px" height="32px"
xml:space="preserve">
<g id="592" transform="matrix(1, 0, 0, 1, -9.1, 6.3)">
<path style="fill:#000000;fill-opacity:0.498039" d="M24.2,22.4Q26 22.9 26 23.6Q26 24.3 24.2 24.8L19.95 25.3L15.65 24.8Q13.9 24.3 13.9 23.6Q13.9 23.2 14.5 22.9Q14.9 22.6 15.65 22.4L17.55 22.05L19.95 21.9L23.35 22.2L24.2 22.4" />
<path style="fill:#000000;fill-opacity:1" d="M12.1,-2.95Q12.2 -4.2 12.85 -5.25Q13.35 -6 14.3 -6.2L15.25 -6.25Q16.95 -6 17.4 -3.6L17.45 -3.7L18.45 -4.85L18.6 -5Q19.45 -4.25 18.3 -3.25L17.55 -2.45L17.55 -2.15Q17.95 -1.9 17.5 -1.3Q17.05 -0.75 17.75 -0.35L18.15 -1.1L19.55 -3.05L19.6 -3.1Q19.8 -2.25 19.35 -1.2L18.65 0.15L19.2 0.5L19.55 1.8L18.9 2.7L18.8 2.75L20.2 4.25L20.25 4.25Q24 6.75 26.35 10.55Q27.75 12.85 25.4 14.05L23.6 14.35L23 13.8Q22.55 12.65 23.15 11.7L21.2 9.65L19.9 8.2L19.8 8.25L19.2 9.55L18.55 11.15L18.5 11.35Q20.05 12.85 20.95 14.65Q21.2 15.05 20.9 15.45L19.7 16.65Q19.05 17.8 17.3 17.55L16.95 17.15L16.95 16.95Q16.8 16.75 16.9 16.4L16.95 16.3Q17 15.4 17.6 14.6Q16.05 13 15.2 11.15L14.9 10.65Q14.75 10.4 14.9 10.1L15.75 8.3L16.2 7.2L16.25 7.15L16.1 6.9Q15.5 5.85 15.25 4.9L14.85 4.2L14.25 5.1L12.5 6.75Q11.55 9.15 9.45 7.6Q9.1 7.35 9.1 6.85Q9.15 5.25 10.7 4.4L11.5 4.05L12.45 2.7L13.1 1.85Q12.95 1.5 13.35 0.8L14.35 -0.35L13.95 -0.7L13.8 -0.75L13.1 -1.4L13 -1.7L12.15 -1.85L12.1 -2.95M22.8,-1.1Q25.2 -0.65 26.45 1.3L26.65 1.1L26.8 1Q28.85 1.8 29.25 4.1L29.25 4.6Q29.15 6.75 27.2 6.6L26.3 6.05Q25.75 5.35 26.4 4.65L26.05 4L25.65 2.95L25.55 2.7Q24.45 3.25 23.15 2.3L22.05 1.5Q21.2 2.2 20.1 1.1L19.8 0.7Q18.7 -1.35 20.95 -2.4Q22.45 -1.95 22.8 -1.1" />
</g>
</svg>
