<?xml version="1.0" encoding="utf-8"?>
<svg version="1.1" id="Layer_1"
xmlns="http://www.w3.org/2000/svg"
xmlns:xlink="http://www.w3.org/1999/xlink"
width="29px" height="9px"
xml:space="preserve">
<g id="919" transform="matrix(1, 0, 0, 1, 0.05, 4.75)">
<path style="fill:#100806;fill-opacity:1" d="M8.35,-0.25L7.45 0.05Q7.1 0.05 6.8 -0.25L6.6 -0.55Q6.6 -1 7.7 -1.25Q8.8 -1.55 8.8 -0.9L8.35 -0.25M16.85,-2.15Q16.4 -2.25 16.4 -2.7L16.65 -3.25Q17.05 -3.75 17.85 -3.55Q18.4 -3.3 18.4 -2.85Q18.4 -2.3 17.55 -2.15L16.85 -2.15M26.9,-4.65Q28 -4.25 28 -3.7L27.65 -3.1Q27.3 -2.75 26.95 -2.75Q26.25 -2.75 25.95 -3.2L25.75 -3.65Q25.75 -5.05 26.9 -4.65M0.55,3.6L-0.05 3.25L-0.05 2.4Q0.7 0.85 2.9 0.95Q5.1 1 5.1 2.3Q5.1 2.8 4.4 3.25Q3.5 3.8 2.1 3.8L0.55 3.6" />
</g>
</svg>
