<?xml version="1.0" encoding="utf-8"?>
<svg version="1.1" id="Layer_1"
xmlns="http://www.w3.org/2000/svg"
xmlns:xlink="http://www.w3.org/1999/xlink"
width="30px" height="24px"
xml:space="preserve">
<g id="1084" transform="matrix(1, 0, 0, 1, 15.3, 33.45)">
<path style="fill:#3A3A3A;fill-opacity:1" d="M7.1,-31.1L7.35 -30.8L7.45 -30.5L7.45 -30.35L7.45 -30.25Q7.5 -29.35 6.75 -29.25L5.55 -29Q4.05 -28.7 3.05 -29.45L3.1 -29.7L3.25 -30L3.3 -30.2L3.35 -30.2Q3.8 -30.05 4.2 -30.2Q5.25 -30.45 5.45 -31.35L6.4 -31.4L6.7 -31.4L7.1 -31.1M2.75,-32.55L2.8 -32.75L3.15 -32.85L3.55 -33L3.95 -33.1L4.6 -32.75Q5.15 -32.1 4.55 -31.45Q3.8 -30.65 2.7 -31.2L2.5 -31.55L2.55 -32.15L2.75 -32.55M0.35,-28.45Q0.05 -27.6 -0.85 -27.8Q-1.35 -27.9 -1.45 -28.35L-1.45 -28.4L-1.4 -28.4L-1.35 -28.45L-1.3 -28.5L-1.15 -28.8L-0.75 -29.05L-0.2 -29.25L-0.1 -29.25L0.1 -29.15L0.15 -29.1L0.25 -29.1L0.35 -28.45M12.85,-22.6Q12.2 -22.5 12 -23.15L12.15 -23.4L12.5 -23.65L13 -23.75L13.45 -23.2Q13.6 -22.7 12.85 -22.6M12.5,-20.85L12.9 -20.75L13.25 -20.4L13.2 -19.95L13.05 -19.8Q12.25 -20.1 11.7 -19.6L11 -19.5L10.95 -19.55L10.9 -19.6L10.9 -19.8L11.15 -20.2L11.75 -20.7L12.5 -20.85M10.3,-15.9Q10.45 -15.6 10.25 -15.3L9.5 -14.75L9.7 -15.05L10 -15.5L10.15 -16.1L10.3 -15.9M9.2,-23.35Q8.95 -22.85 8.45 -23L8.15 -22.9L8.1 -22.85L8.1 -22.7L8.15 -22.65Q8.3 -22.55 8.4 -22.55L8.75 -22.5L8.75 -22.45L8.75 -22.2L9.1 -21.5L9.15 -20.85L9.05 -20.95Q8.8 -20.85 8.95 -20.6L9 -20.5Q8.65 -19.9 7.65 -20.1L7.25 -20.35Q6.2 -20.8 5.7 -19.85Q5.15 -18.85 4.05 -19.2L4 -19.2L3.9 -19.1L3.85 -19.1L3.55 -19.2L3.15 -19.5Q3 -19.7 3.1 -19.95L3.15 -20.15L2.95 -20.4L2.6 -20.6L2.55 -20.7L2.5 -20.75L2.5 -20.8L2.55 -20.8L2.65 -20.8L2.75 -20.8L3.05 -21.05L4.3 -21.7Q4.85 -21.95 5 -22.5L5.1 -23.4L5.3 -23.55L6.75 -23.45Q7.25 -23.1 7.75 -23.15L7.95 -23.45L8.3 -23.85L8.8 -24L8.95 -24L9.25 -23.75L9.3 -23.7L9.4 -23.6L9.2 -23.35M4.2,-23.65Q4.5 -23 4 -22.5Q3.55 -22.05 2.95 -21.95L2.75 -22.5Q2.55 -22.95 2.8 -23.45Q3 -23.95 3.55 -24L3.65 -24L3.95 -24L4.2 -23.65M1.6,-23.85L1.8 -22.5Q1.9 -22 1.6 -21.65L1.05 -21.55Q0.1 -21.3 -0.25 -22.05L-0.4 -22.45L-0.8 -23.15Q-1.15 -23.55 -0.9 -24.05L-0.85 -24.05L-0.75 -24.05L-0.65 -24.05L-0.6 -24.1L-0.45 -24.35L-0.1 -24.65L0.4 -24.8L1 -24.7Q1.55 -24.4 1.6 -23.85M0.35,-19.1L0.55 -19.15Q0.8 -19 0.65 -18.6L0.3 -17.9L0.15 -17.35L0.2 -17.3L0.3 -17.25L0.3 -16.95L-0.1 -16.2Q-0.35 -16 -0.55 -16L-0.85 -16.3L-0.65 -16.75Q0.1 -17.15 -0.15 -18L-0.05 -18.9L0.15 -19L0.35 -19.1M3.9,-17.45L2.45 -17.55L2.75 -17.8L2.95 -18.1L3.3 -18.1L4.2 -17.5L3.9 -17.45M3.4,-15.8L3.4 -15.75L3.45 -15.75L3.45 -15.7L3.8 -15.75L4.2 -15.95L4.65 -16.1Q5.55 -16.15 5.55 -15.25L5.55 -15.15L5.5 -14.9L5 -14.4Q4.05 -14.05 3.3 -14.75L3.2 -14.75L2.7 -14.55L2.1 -14.65L2 -14.8L2.05 -15L2.15 -15.3L2.65 -15.75L3.35 -15.85L3.4 -15.8M7.95,-15.75Q7.65 -16.05 7.75 -16.4L8.15 -16.1L8.9 -15.9L8.55 -15.6Q8.15 -15.45 7.95 -15.75M-10.55,-27.8L-10.2 -27.85L-9.55 -27.75Q-9.45 -27.85 -9.5 -28L-9.4 -28.3L-9.15 -28.45L-8.7 -28.45L-8.5 -28.1L-8.45 -28.05L-8.55 -27.5Q-8.9 -27 -9.6 -27.1L-9.6 -27.15L-9.75 -27.25L-9.9 -27.2Q-9.95 -26.7 -10.35 -26.4Q-10.75 -26.05 -11.05 -26.15L-11.3 -26.35L-11.65 -26.6Q-11.9 -27 -11.45 -27.3L-11.4 -27.3L-11 -27.65L-10.55 -27.8M-4.1,-28.65L-4 -28.65L-3.9 -28.6L-3.75 -28.45L-3.6 -28.05L-3.7 -27.65L-3.95 -27.35L-4.45 -27.4Q-4.9 -27.6 -4.65 -28.05L-4.1 -28.65M-4.85,-24.9L-4.9 -24.95L-4.85 -25.3L-4.5 -25.9Q-4.3 -26.2 -3.9 -26.2L-3.25 -25.75Q-2.9 -25.35 -3.2 -24.95L-3.8 -24.4L-3.85 -24.3L-3.85 -24.2L-3.8 -24.15L-3.65 -24.05Q-3.35 -23.9 -3.35 -23.55L-3.45 -23L-3.65 -22.7L-3.45 -22.3Q-3.25 -21.75 -3.7 -21.3Q-4.35 -20.65 -5.3 -20.95Q-5.6 -21.6 -5.55 -22.2L-5.05 -23.35L-4.25 -24.5L-4.5 -24.7L-4.75 -24.8L-4.85 -24.9M-2.05,-21.95L-1.9 -20.85Q-2 -20.2 -2.6 -19.85L-2.5 -20.35Q-2.35 -20.85 -2.45 -21.3L-2.3 -22.2L-2.05 -21.95M-3.2,-20.7Q-3.05 -20.35 -3.2 -20Q-3.55 -19 -4.6 -19.25L-5.15 -19.2L-5.55 -20.15Q-5.3 -19.85 -4.9 -19.85Q-3.85 -19.8 -3.45 -20.6L-3.4 -20.65L-3.3 -20.7L-3.2 -20.7M-14.7,-22.85Q-13.95 -22.9 -13.9 -22.3Q-13.8 -21.95 -14.1 -21.7L-14.55 -21.7Q-14.95 -21.8 -15 -22.2L-14.75 -22.85L-14.7 -22.85" />
<path style="fill:#3A3A3A;fill-opacity:0.2" d="M9.6,-27.5L9.55 -27.35L9.5 -27.2Q9.6 -26.85 10 -26.9L10.3 -27.15L10.3 -27.45L10 -27.6L9.75 -27.55L9.6 -27.5M9.55,-27.7Q9.75 -27.95 10.1 -27.95Q11.45 -27.55 10.55 -26.6L10.1 -26.45Q8.75 -26.75 9.55 -27.7M12.35,-27.6L12.25 -27.45L12.3 -27.4L12.3 -27.3L12.35 -27.3L12.35 -27.25Q12.7 -27.05 13.05 -27.25L13.3 -27.6L13.2 -27.7L13.05 -27.8L12.75 -27.85L12.55 -27.75L12.35 -27.6M12.15,-27.75Q12.45 -28.05 12.85 -28.15Q14.15 -27.85 13.15 -27L12.15 -27.05Q11.8 -27.4 12.15 -27.75M-2.2,-13.7L-1.9 -13.7L-1.5 -13.6L-1.15 -13.35Q-1.05 -12.95 -1.4 -12.7Q-2.25 -12.05 -2.55 -12.95L-2.45 -13.5L-2.2 -13.7M-2.05,-13.35L-2.15 -13.3L-2.25 -13.2L-2.3 -13.1L-2.3 -13.05L-2.25 -13L-2.25 -12.95L-2.2 -12.85Q-2.05 -12.7 -1.8 -12.85L-1.75 -12.9L-1.8 -13.1L-1.9 -13.3L-2.05 -13.35M-11.65,-12.5L-11.7 -12.3L-11.65 -12.15L-11.3 -12L-10.95 -12.3L-11.15 -12.6L-11.6 -12.65L-11.65 -12.5M-10.65,-12.6Q-10.4 -12.05 -10.9 -11.7L-11.5 -11.6L-11.8 -11.95L-11.9 -12.6L-11.6 -13.1L-11.5 -13.15Q-10.95 -13.05 -10.65 -12.6M-5.9,-11.05L-6.1 -11L-6.25 -10.9L-6.2 -10.55L-5.45 -10.45L-5.25 -10.7L-5.25 -10.8L-5.3 -10.85L-5.3 -10.95L-5.35 -11L-5.35 -11.05L-5.4 -11.05L-5.65 -11.1L-5.75 -11.1L-5.9 -11.05M-5.55,-11.6Q-5 -11.6 -4.85 -11.05Q-4.75 -10.55 -5.1 -10.2L-5.55 -9.8L-5.7 -9.8L-5.8 -9.85L-6.4 -10.55Q-6.6 -11.05 -6.2 -11.4L-5.55 -11.6" />
<path style="fill:#666666;fill-opacity:0.2" d="M9.75,-27.55L10 -27.6L10.3 -27.45L10.3 -27.15L10 -26.9Q9.6 -26.85 9.5 -27.2L9.55 -27.35L9.6 -27.5L9.75 -27.55M12.55,-27.75L12.75 -27.85L13.05 -27.8L13.2 -27.7L13.3 -27.6L13.05 -27.25Q12.7 -27.05 12.35 -27.25L12.35 -27.3L12.3 -27.3L12.3 -27.4L12.25 -27.45L12.35 -27.6L12.55 -27.75M-1.9,-13.3L-1.8 -13.1L-1.75 -12.9L-1.8 -12.85Q-2.05 -12.7 -2.2 -12.85L-2.25 -12.95L-2.25 -13L-2.3 -13.05L-2.3 -13.1L-2.25 -13.2L-2.15 -13.3L-2.05 -13.35L-1.9 -13.3M-11.6,-12.65L-11.15 -12.6L-10.95 -12.3L-11.3 -12L-11.65 -12.15L-11.7 -12.3L-11.65 -12.5L-11.6 -12.65M-5.75,-11.1L-5.65 -11.1L-5.4 -11.05L-5.35 -11.05L-5.35 -11L-5.3 -10.95L-5.3 -10.85L-5.25 -10.8L-5.25 -10.7L-5.45 -10.45L-6.2 -10.55L-6.25 -10.9L-6.1 -11L-5.9 -11.05L-5.75 -11.1" />
<path style="fill:#1E1E1E;fill-opacity:1" d="M6.7,-31.4L6.4 -31.4L5.45 -31.35Q5.25 -30.45 4.2 -30.2Q3.8 -30.05 3.35 -30.2L3.3 -30.2L3.25 -30L3.1 -29.7L3.05 -29.45Q4.05 -28.7 5.55 -29L6.75 -29.25Q7.5 -29.35 7.45 -30.25L7.45 -30.35L7.45 -30.5L7.35 -30.8L7.1 -31.1L6.7 -31.4M6.15,-31.75L6.45 -31.7L6.65 -31.7L6.85 -31.7Q8.55 -30.7 7.8 -29.2L7.8 -29.15L7.65 -28.9L7.6 -28.85Q7.4 -28.5 6.95 -28.5L5.3 -28.2L4.8 -28.1Q3.1 -27.75 2.8 -29.2Q2.65 -29.85 2.85 -30.45L2.7 -30.55L2.45 -31.05Q1.95 -31.7 2.3 -32.4Q2.7 -33.25 3.65 -33.45Q5.3 -33.55 5.45 -32L5.45 -31.6L6.15 -31.75M2.55,-32.15L2.5 -31.55L2.7 -31.2Q3.8 -30.65 4.55 -31.45Q5.15 -32.1 4.6 -32.75L3.95 -33.1L3.55 -33L3.15 -32.85L2.8 -32.75L2.75 -32.55L2.55 -32.15M0.25,-29.1L0.15 -29.1L0.1 -29.15L-0.1 -29.25L-0.2 -29.25L-0.75 -29.05L-1.15 -28.8L-1.3 -28.5L-1.35 -28.45L-1.4 -28.4L-1.45 -28.4L-1.45 -28.35Q-1.35 -27.9 -0.85 -27.8Q0.05 -27.6 0.35 -28.45L0.25 -29.1M14,-22.8L13.55 -22.35Q11.85 -21.85 11.85 -23.35Q11.85 -23.8 12.25 -24.05L12.7 -24.2Q14.45 -24.35 14 -22.8M13.45,-23.2L13 -23.75L12.5 -23.65L12.15 -23.4L12 -23.15Q12.2 -22.5 12.85 -22.6Q13.6 -22.7 13.45 -23.2M12.05,-21.65Q13.4 -21.9 13.95 -20.9Q14.2 -20.45 14.1 -19.9Q13.95 -18.7 12.8 -18.25L12.65 -18.2L12.75 -18L12.9 -17.2Q12.8 -16.05 11.6 -16.25L11.25 -16.2L11.5 -15.5Q11.55 -14.15 10.25 -13.6Q8.95 -13 8.4 -14.1Q8.05 -14.15 7.75 -14.35Q6.95 -14.9 6.95 -15.75Q6.95 -16.3 7.25 -16.8L7.5 -17L7.5 -17.05L7.8 -17.4L8.25 -18.05Q9.1 -18.8 10.2 -18.75L10.1 -19.05Q9.85 -19.75 10.25 -20.35Q10.9 -21.3 11.95 -21.6L12.05 -21.65M11.75,-20.7L11.15 -20.2L10.9 -19.8L10.9 -19.6L10.95 -19.55L11 -19.5L11.7 -19.6Q12.25 -20.1 13.05 -19.8L13.2 -19.95L13.25 -20.4L12.9 -20.75L12.5 -20.85L11.75 -20.7M10.15,-16.1L10 -15.5L9.7 -15.05L9.5 -14.75L10.25 -15.3Q10.45 -15.6 10.3 -15.9L10.15 -16.1M9.4,-23.6L9.3 -23.7L9.25 -23.75L8.95 -24L8.8 -24L8.3 -23.85L7.95 -23.45L7.75 -23.15Q7.25 -23.1 6.75 -23.45L5.3 -23.55L5.1 -23.4L5 -22.5Q4.85 -21.95 4.3 -21.7L3.05 -21.05L2.75 -20.8L2.65 -20.8L2.55 -20.8L2.5 -20.8L2.5 -20.75L2.55 -20.7L2.6 -20.6L2.95 -20.4L3.15 -20.15L3.1 -19.95Q3 -19.7 3.15 -19.5L3.55 -19.2L3.85 -19.1L3.9 -19.1L4 -19.2L4.05 -19.2Q5.15 -18.85 5.7 -19.85Q6.2 -20.8 7.25 -20.35L7.65 -20.1Q8.65 -19.9 9 -20.5L8.95 -20.6Q8.8 -20.85 9.05 -20.95L9.15 -20.85L9.1 -21.5L8.75 -22.2L8.75 -22.45L8.75 -22.5L8.4 -22.55Q8.3 -22.55 8.15 -22.65L8.1 -22.7L8.1 -22.85L8.15 -22.9L8.45 -23Q8.95 -22.85 9.2 -23.35L9.4 -23.6M9.65,-23.8Q10 -23.2 9.55 -22.7L9.15 -22.35Q9.75 -21.7 9.55 -20.8L9.45 -20.45Q9.6 -20 9.2 -19.4Q8.55 -18.35 7.45 -17.8L6.25 -17.65L5.8 -17.35L4.3 -17.2L2.95 -17.1L2.25 -17.45L2.2 -17.45L2.15 -17.45Q2 -17.45 2 -17.35Q2.15 -16.55 1.6 -16Q0.4 -14.9 -0.8 -15.85L-1.1 -16.1L-1.25 -16.4Q-1.25 -17.2 -0.45 -17.45L-0.45 -18.2Q-0.65 -18.9 -0.1 -19.25L0.75 -19.55Q1 -19.85 0.9 -20.2L0.35 -21.05Q-0.65 -21.25 -0.7 -22.35L-1.2 -23.05Q-1.45 -23.8 -1 -24.4Q-0.5 -25.05 0.3 -25.15Q2.25 -24.95 2.3 -23.05L2.65 -23.9Q3.05 -24.45 3.65 -24.55L3.8 -24.6L4.4 -24.55L4.85 -24.15L5.1 -23.9L5.65 -24.05L7.35 -23.6Q7.45 -23.5 7.55 -23.5Q7.95 -24.4 8.95 -24.25Q9.4 -24.2 9.65 -23.8M3.95,-24L3.65 -24L3.55 -24Q3 -23.95 2.8 -23.45Q2.55 -22.95 2.75 -22.5L2.95 -21.95Q3.55 -22.05 4 -22.5Q4.5 -23 4.2 -23.65L3.95 -24M1,-24.7L0.4 -24.8L-0.1 -24.65L-0.45 -24.35L-0.6 -24.1L-0.65 -24.05L-0.75 -24.05L-0.85 -24.05L-0.9 -24.05Q-1.15 -23.55 -0.8 -23.15L-0.4 -22.45L-0.25 -22.05Q0.1 -21.3 1.05 -21.55L1.6 -21.65Q1.9 -22 1.8 -22.5L1.6 -23.85Q1.55 -24.4 1 -24.7M0.15,-19L-0.05 -18.9L-0.15 -18Q0.1 -17.15 -0.65 -16.75L-0.85 -16.3L-0.55 -16Q-0.35 -16 -0.1 -16.2L0.3 -16.95L0.3 -17.25L0.2 -17.3L0.15 -17.35L0.3 -17.9L0.65 -18.6Q0.8 -19 0.55 -19.15L0.35 -19.1L0.15 -19M4.2,-17.5L3.3 -18.1L2.95 -18.1L2.75 -17.8L2.45 -17.55L3.9 -17.45L4.2 -17.5M3.35,-15.85L2.65 -15.75L2.15 -15.3L2.05 -15L2 -14.8L2.1 -14.65L2.7 -14.55L3.2 -14.75L3.3 -14.75Q4.05 -14.05 5 -14.4L5.5 -14.9L5.55 -15.15L5.55 -15.25Q5.55 -16.15 4.65 -16.1L4.2 -15.95L3.8 -15.75L3.45 -15.7L3.45 -15.75L3.4 -15.75L3.4 -15.8L3.35 -15.85M4.6,-16.45Q5.95 -16.5 5.95 -15.3Q6.15 -14.75 5.8 -14.05Q5.45 -13.35 4.65 -13.25Q4.1 -13.15 3.7 -13.55Q2.65 -13.5 2 -14.2L1.95 -14.3Q1.6 -14.55 1.85 -15.25Q2.3 -16.3 3.5 -16.25L4.25 -16.4L4.6 -16.45M8.55,-15.6L8.9 -15.9L8.15 -16.1L7.75 -16.4Q7.65 -16.05 7.95 -15.75Q8.15 -15.45 8.55 -15.6M-11,-27.65L-11.4 -27.3L-11.45 -27.3Q-11.9 -27 -11.65 -26.6L-11.3 -26.35L-11.05 -26.15Q-10.75 -26.05 -10.35 -26.4Q-9.95 -26.7 -9.9 -27.2L-9.75 -27.25L-9.6 -27.15L-9.6 -27.1Q-8.9 -27 -8.55 -27.5L-8.45 -28.05L-8.5 -28.1L-8.7 -28.45L-9.15 -28.45L-9.4 -28.3L-9.5 -28Q-9.45 -27.85 -9.55 -27.75L-10.2 -27.85L-10.55 -27.8L-11 -27.65M-12,-26.55Q-12.1 -27.35 -11.5 -27.9Q-10.8 -28.55 -9.85 -28.2L-9.8 -28.2L-9.7 -28.5L-9.45 -28.7L-9.2 -28.8L-8.45 -28.6L-8.35 -28.65Q-7.95 -28.25 -8 -27.6Q-8.05 -27.05 -8.45 -26.65L-9.15 -26.4Q-9.9 -25.4 -11.1 -25.9L-11.85 -26.3L-12 -26.55M-0.3,-29.6Q1.3 -29.3 0.35 -27.95Q-0.4 -26.9 -1.35 -27.75Q-2.1 -28.4 -1.35 -29.05L-0.3 -29.6M-4.65,-28.05Q-4.9 -27.6 -4.45 -27.4L-3.95 -27.35L-3.7 -27.65L-3.6 -28.05L-3.75 -28.45L-3.9 -28.6L-4 -28.65L-4.1 -28.65L-4.65 -28.05M-4.15,-29.05Q-2.75 -28.55 -3.65 -27.3L-4.65 -27.2Q-5.25 -27.7 -4.85 -28.35L-4.15 -29.05M-4.75,-24.8L-4.5 -24.7L-4.25 -24.5L-5.05 -23.35L-5.55 -22.2Q-5.6 -21.6 -5.3 -20.95Q-4.35 -20.65 -3.7 -21.3Q-3.25 -21.75 -3.45 -22.3L-3.65 -22.7L-3.45 -23L-3.35 -23.55Q-3.35 -23.9 -3.65 -24.05L-3.8 -24.15L-3.85 -24.2L-3.85 -24.3L-3.8 -24.4L-3.2 -24.95Q-2.9 -25.35 -3.25 -25.75L-3.9 -26.2Q-4.3 -26.2 -4.5 -25.9L-4.85 -25.3L-4.9 -24.95L-4.85 -24.9L-4.75 -24.8M-2.95,-26.2Q-2.55 -25.9 -2.4 -25.4L-2.5 -24.8L-2.4 -22.85L-2.35 -22.95Q-1.45 -22.3 -1.35 -21.25L-1.35 -21.2Q-0.45 -20 -1 -18.5Q-1.3 -17.6 -2.25 -17.4Q-4.15 -17 -4.65 -18.6L-4.65 -18.65L-5.1 -18.75L-5.2 -18.75L-5.4 -18.85Q-5.8 -19.1 -5.85 -19.6L-5.8 -20.45Q-6.05 -20.9 -5.85 -21.4L-6 -21.95L-5.5 -23.35L-4.75 -24.35L-5.1 -24.95L-5 -25.75Q-4.6 -26.45 -3.85 -26.55L-2.95 -26.2M-2.3,-22.2L-2.45 -21.3Q-2.35 -20.85 -2.5 -20.35L-2.6 -19.85Q-2 -20.2 -1.9 -20.85L-2.05 -21.95L-2.3 -22.2M-3.3,-20.7L-3.4 -20.65L-3.45 -20.6Q-3.85 -19.8 -4.9 -19.85Q-5.3 -19.85 -5.55 -20.15L-5.15 -19.2L-4.6 -19.25Q-3.55 -19 -3.2 -20Q-3.05 -20.35 -3.2 -20.7L-3.3 -20.7M-14.75,-22.85L-15 -22.2Q-14.95 -21.8 -14.55 -21.7L-14.1 -21.7Q-13.8 -21.95 -13.9 -22.3Q-13.95 -22.9 -14.7 -22.85L-14.75 -22.85M-14.3,-23.2Q-12.8 -22.75 -13.85 -21.55Q-14.15 -21.15 -14.65 -21.4Q-15.8 -22 -14.9 -22.9L-14.3 -23.2" />
</g>
</svg>
