<?xml version="1.0" encoding="utf-8"?>
<svg version="1.1" id="Layer_1"
xmlns="http://www.w3.org/2000/svg"
xmlns:xlink="http://www.w3.org/1999/xlink"
width="19px" height="35px"
xml:space="preserve">
<g id="593" transform="matrix(1, 0, 0, 1, -15.6, 8.95)">
<path style="fill:#000000;fill-opacity:0.498039" d="M33.35,23.7Q33.35 24.4 31 24.9L25.55 25.4L20.05 24.9Q17.85 24.4 17.85 23.7Q17.85 23.3 18.55 23Q19.1 22.7 20.05 22.5L22.5 22.15L25.55 22L29.9 22.3L31 22.5Q33.35 23 33.35 23.7" />
<path style="fill:#000000;fill-opacity:1" d="M17.5,-6.8Q19.35 -6.5 18.75 -4.75Q18.45 -3.75 19.1 -2.85Q19.3 -2.45 19.75 -2.2L20.2 -2.4L21.45 -3.15L21.3 -3.8Q21.05 -4.7 21.35 -5.5L21 -5.8L20.55 -6.15L20.9 -7.15Q21.65 -8.55 23.15 -8.85L24.4 -8.85Q27.05 -7.85 26.5 -5.45L26.55 -5.2L27 -5.35L27.55 -5.35L28.05 -5.2L28.1 -5.15L28.1 -5.05L28.25 -4.7L28.3 -4.5L28.3 -4.45Q27.85 -4.1 27.2 -4.05L26.3 -3.85L25.7 -3.05L25.45 -2.45L24.95 -1.75L24.9 -1.6Q26.75 0.35 26.2 3.25L26.15 3.95L26.05 4.65Q26.1 7.7 27.7 10.45L28.75 12.65Q29 13.25 28.25 13.75Q27.6 14.25 26.75 14.5L25.55 14.35Q24.5 12.1 24.1 9.7Q23.8 7.85 22.7 6.4L22.5 6.4L22.45 12.55Q22.4 14.2 20.8 14.95L18.1 15.85L17.1 15.75Q16.85 14.6 17.45 13.7L18.3 13L19.15 12.45L18.8 9.5L18.75 9.45L17.8 8.8Q18.1 8.55 18.5 8.35L18.75 8.25Q18.85 7.5 19.25 6.85L19.4 5.75L19.75 5L19.65 4.15Q19.9 2.2 20.95 1Q19.05 1.45 17.2 -0.6Q15.15 -2.85 15.7 -5.75L16 -6.3Q16.65 -7 17.5 -6.8M26.5,-4.4L26.45 -4.35L26.55 -4.35L26.5 -4.4M27.25,-0.25Q27.3 -1.85 28.7 -2.35L30.25 -2.75Q31.3 -2.5 31.85 -1.65Q32.45 -0.7 32.15 0.4L32.05 0.55L31.85 0.65Q32.55 2.6 32.35 4.8Q32.35 5.2 31.95 5.45Q30.3 6.3 28.8 7.55L28.75 7.5L27.75 7.65Q25.85 7.45 26.45 5.75Q26.6 5.25 27.05 5.2L27.45 5.35L27.7 5L28.8 3.5L29.05 3.15L28.4 1.6Q28 0.95 27.9 0.3L27.35 -0.05L27.25 -0.25" />
<path style="fill:#7E0000;fill-opacity:1" d="M29.3,-5.8L30.6 -6.3L30.9 -6.35Q30.65 -5.05 29.2 -4.25L26.75 -2.75L26.65 -2.45L26.55 -2.5Q26.2 -3.35 26.95 -4.05L27 -4.05L27.95 -5.05L28.2 -5.2L28.95 -5.9L29.35 -6L29.3 -5.8M28.65,-3.75L28.9 -3.85L29.6 -4.15L29.6 -4.2L33.05 -3.95Q33.85 -3.8 34.2 -3.45L34.15 -3.35Q32.4 -2.75 30.6 -2.8Q29.2 -2.85 28.45 -3.45L28.45 -3.6L28.65 -3.75" />
</g>
</svg>
