<?xml version="1.0" encoding="utf-8"?>
<svg version="1.1" id="Layer_1"
xmlns="http://www.w3.org/2000/svg"
xmlns:xlink="http://www.w3.org/1999/xlink"
width="11px" height="13px"
xml:space="preserve">
<g id="1248" transform="matrix(1, 0, 0, 1, 0.35, 12.8)">
<path style="fill:#000000;fill-opacity:1" d="M7.65,-9.3L6.95 -9.35L6.5 -8.7L6.8 -8.4L9.35 -8.5L9.5 -7.85L8.75 -7.5L10.35 -7.55L10.5 -6.9L5.35 -7.05L5.35 -7L4.45 -5.75Q6 -5.95 7.3 -5.15L6.65 -3.3L5.85 -2.2Q5.5 -1.85 5.4 -1.15L6.45 -0.55L6.4 -0.55L6.25 -0.3L5.35 -0.05L2.6 -0.25L2.6 -0.5L4.2 -3L4.6 -3.75L4.35 -3.9L4.2 -4L2.45 -0.4L0.55 -0.6L-0.35 -8.15L0.7 -8.25L1.6 -5.3L2.45 -5.15L2.05 -5.6L2.7 -7.8L5.6 -9.6Q5.35 -9.6 5.2 -9.95L5 -10.85L4.8 -10.85L4.95 -11.55L5.25 -12.2L6.55 -12.8Q7.2 -12.6 7.65 -12.15L8.5 -10.95L8.2 -10.95L7.8 -9.6L7.65 -9.3M10,-5.65L8.35 0.05L7.75 -0.1L9.4 -5.8L10 -5.65" />
</g>
</svg>
