<?xml version="1.0" encoding="utf-8"?>
<svg version="1.1" id="Layer_1"
xmlns="http://www.w3.org/2000/svg"
xmlns:xlink="http://www.w3.org/1999/xlink"
width="17px" height="17px"
xml:space="preserve">
<g id="884" transform="matrix(1, 0, 0, 1, 1.9, -5.1)">
<path style="fill:#000000;fill-opacity:1" d="M11.95,5.85L12.75 8L10.4 9.75L10.1 12.1L11.85 10.85L12.15 9.6L14.3 9.7L14.35 11.25L14 11.6L13.9 12.5L7.9 17.1L8.05 17.6L8.45 18.85Q9.05 19.9 8.55 20.75L8.45 20.8Q7.15 21.75 5.9 20.6L5.4 17.9L4.45 18.95L3.55 19.45Q1.45 19.7 0.45 17.85L0.5 16.65Q0.7 15.35 1.9 14.35L2.45 14.1L1.05 12.2L-0.15 13.15L-1.9 13.2L-1.85 11.45L-0.25 10.5Q1.3 9.6 3.05 9.9L4.45 13L5.15 12.45Q6.25 11.35 7.25 11.55L8.2 8.1L10.5 6.9Q10.35 5.7 11.3 5.1L11.95 5.85" />
</g>
</svg>
