<?xml version="1.0" encoding="utf-8"?>
<svg version="1.1" id="Layer_1"
xmlns="http://www.w3.org/2000/svg"
xmlns:xlink="http://www.w3.org/1999/xlink"
width="41px" height="38px"
xml:space="preserve">
<g id="1548" transform="matrix(1, 0, 0, 1, 16.95, 23.85)">
<path style="fill:#333333;fill-opacity:0.498039" d="M12.95,-14.5Q12.8 -15.1 13 -16.6L12.9 -17.65L11.45 -18.7L8.05 -15.85Q6.6 -14.5 6.6 -13.05L6.65 -12.35L7.25 -11.7Q10.5 -11.75 11 -10.35Q11.5 -8.9 12.3 -8.9Q13.8 -8.9 14.55 -10.9Q14.95 -11.9 15 -13L14.55 -13.75L12.95 -14.5M15.7,-15.7L18.45 -14.2Q19.25 -13.75 19.25 -12.9Q19.25 -12.3 18.5 -10.95L17.75 -9.45L20.2 -8.45Q22.65 -7.5 22.65 -5.6Q22.65 -4.15 21.05 -3.4Q18.7 -2.3 17.3 -0.35L21.05 1.8Q23.25 3.3 23.25 4.7Q23.25 5.95 22.6 6.9Q21.65 8.25 19.6 8.25L16.75 7.75Q15.4 7.75 14.15 10.7Q12.95 13.65 11.2 13.65Q9.15 13.65 8.85 12.5Q8.45 10.95 8.05 10.7Q6 10.85 4.95 11.55Q4.05 12.25 3.5 12.25Q2.05 12.25 1.75 11.35L1.75 10.45L1.8 9.4L2.55 8.05L2.6 7.95Q0.3 8.2 -0.4 7.95Q-0.85 7.8 -0.85 7.15Q-0.85 5.1 1.6 4.15L3 4.15Q3.65 4.6 3.65 5.2L3.45 6.35L3.55 6.5L4.9 6.45Q5.9 5.5 8.55 4.2Q10.3 3.35 10.3 2.2L9.25 1.05Q8.15 0.3 8.15 0Q9.55 -2.15 9.55 -2.65L9.5 -3.5L8.8 -4.2L7 -5.15L6.2 -4.9Q5.35 -4.9 4.95 -5.25L4.9 -5.25L4.7 -4.7Q4.65 -4.5 4.4 -4.85L4.2 -5.6L4.4 -6.35L4.6 -7.1Q4.6 -7.8 3.95 -7.9L2.45 -7.9Q0.8 -8.1 -0.8 -5.7Q-2.5 -3.2 -3.6 -3.2Q-4.75 -3.2 -5.1 -3.8L-5.4 -4.55L-7 -2.85Q-8.45 -1.45 -9.5 -1.45Q-11.15 -1.45 -11.15 -3.35Q-12 -3.25 -12.5 -2.65L-13.6 -1.65L-14.8 -1.65Q-15.6 -1.95 -15.6 -2.8L-15.35 -3.95Q-16.6 -4.5 -16.85 -4.95L-16.95 -6Q-16.95 -7.15 -15.4 -8.5L-14.95 -8.9L-14.95 -8.95L-14.25 -10.05L-13.95 -10.35L-14.55 -11.45Q-15.25 -12.6 -15.25 -13.8Q-15.25 -15.85 -14.7 -16.9Q-14.05 -18.05 -11.6 -20.05L-6.9 -19.95Q-6.1 -20.5 -5.8 -22.3Q-4.65 -23.8 1 -23.85Q1.65 -23.55 2.75 -21.35Q3.7 -19.55 5.65 -19.55Q6.35 -19.55 7.5 -21.2Q8.65 -22.85 11.5 -22.85Q17.45 -22.85 17.45 -19.5Q17.45 -18.5 17 -17.75L15.7 -15.7M0.85,-14.95L-0.6 -16.35Q-2.7 -17.1 -3 -18Q-3.15 -18.5 -5.3 -18.55L-6.6 -17.25Q-7.45 -16.4 -7.8 -16.4Q-9.9 -16.4 -11 -15.65Q-11.8 -15.1 -11.8 -14.55L-10.9 -13.55Q-10 -12.8 -10 -11.85Q-10 -11.2 -10.45 -10.55L-11.55 -8.9Q-10.6 -8.25 -10.6 -7.15Q-10.6 -6.85 -10.75 -6.5L-11.05 -6.05L-11.15 -5.9Q-9.4 -6.15 -7.95 -7.6Q-6.6 -9 -5.3 -9Q-4.8 -9 -4.35 -8.6L-4 -8.25Q-2.8 -8.25 -2.25 -9.55Q-1.9 -10.2 -1.7 -11.05L0.65 -12.5Q1.6 -12.85 1.6 -13.5L0.85 -14.95M13.8,-1Q14.6 -0.35 14.6 0.25Q14.6 0.75 13.9 1.6Q13.2 2.45 13.2 2.9Q13.2 4.1 14.2 4.1Q15.25 4.1 15.4 2.3L15 0.05Q15 -1.05 16.3 -2.2Q17.55 -3.35 17.55 -4.35Q17.55 -5.1 16.45 -5.35Q15.3 -5.55 15.3 -4.85Q15.3 -4.45 14.15 -3.85Q13 -3.2 13 -1.95Q13 -1.7 13.8 -1M0.85,5.65Q0.2 6.25 0.2 7L0.35 7.1L2.55 6.95L2.75 5.5Q1.65 4.85 0.85 5.65" />
</g>
</svg>
