<?xml version="1.0" encoding="utf-8"?>
<svg version="1.1" id="Layer_1"
xmlns="http://www.w3.org/2000/svg"
xmlns:xlink="http://www.w3.org/1999/xlink"
width="25px" height="29px"
xml:space="preserve">
<g id="617" transform="matrix(1, 0, 0, 1, -19.75, 3)">
<path style="fill:#000000;fill-opacity:0.498039" d="M43,23.95Q43 24.65 40.05 25.15L33.2 25.65L26.25 25.15Q23.45 24.65 23.45 23.95Q23.45 23.55 24.35 23.25L26.25 22.75L29.3 22.4Q31.1 22.25 34.55 22.4L38.75 22.6L41.25 22.95Q43 23.25 43 23.95" />
<path style="fill:#000000;fill-opacity:1" d="M27.3,-0.3L28.55 2.2L28.55 2.05L28.6 2.05L29.8 2.1L29.9 2.15L29.85 2.2L29.4 3.15L29.2 3.4Q30 4.6 31.25 5.5Q33.75 5.8 35.8 7.25L36.25 7.6L37.7 7.75L38.4 7.9L40.4 8.2Q42.1 7.1 43 9Q43.6 10.4 42.3 11.1L42.2 11.15Q42.75 11.4 43.2 11.9Q43.9 12.75 44 13.9L43.95 14.05L43.65 13.8L43.5 15.05Q43.4 15.5 42.95 15.75Q41.35 16.8 39.6 16.3L39.5 16.85L39.55 16.95Q38.75 17.35 37.95 16.75L38.55 15.85L38.5 15.85Q38.2 15.7 38.4 15.95L38.3 16Q38 16.1 37.85 15.85L37.6 15.55L37.7 15.65Q36.3 15.2 35.45 14.1L34.15 13.95Q33.25 13.45 33.35 12.5Q33.35 12.2 33.5 12L32.3 11.4L30.65 10.3L30.65 10.1Q29.85 9.85 29.15 9.45L26.5 9.4L22.3 11.45L21.85 10.8L20.75 9.2L20.2 8.55Q19 7.3 20.95 6.85Q21.6 6.7 22.1 7.25L22.4 7.45L22.45 7.4L23.6 6.8Q24.75 6.2 25.95 5.9L26.85 5.55L27.7 5.6L27.35 5.1Q26.1 4.35 25.15 2.75L24.2 1.35L23.25 0.6L23.35 0.85L23 0.45L22.95 0.4L22.95 0.3Q22.7 -0.25 23.2 -0.8Q24.6 -2.45 26.65 -3Q27.3 -3.1 27.75 -2.7Q28.2 -2.35 28.3 -1.8L28.35 -1.7L28.2 -1.45L27.7 -0.95L27.3 -0.3M40.9,11.45L40.45 11.35L38.6 10.85L38.7 11.15L39 11.9Q39.65 11.55 40.4 11.45L40.85 11.5L40.9 11.45M26.75,4.35L27.2 4.95L27.35 5.1L26.75 4.35" />
</g>
</svg>
