<?xml version="1.0" encoding="utf-8"?>
<svg version="1.1" id="Layer_1"
xmlns="http://www.w3.org/2000/svg"
xmlns:xlink="http://www.w3.org/1999/xlink"
width="230px" height="29px"
xml:space="preserve">
<g id="9" transform="matrix(1, 0, 0, 1, 114.85, 14)">
<linearGradient
id="LinearGradID_111" gradientUnits="userSpaceOnUse" gradientTransform="matrix(0, 0.0171509, -1, 0, 159.65, 0)" spreadMethod ="pad" x1="-819.2" y1="0" x2="819.2" y2="0" >
<stop  offset="0" style="stop-color:#FFFFFF;stop-opacity:1" />
<stop  offset="1" style="stop-color:#BBBBBB;stop-opacity:1" />
</linearGradient>
<path style="fill:url(#LinearGradID_111) " d="M19.25,14Q9.45 13.55 9.25 5.95L9.25 -5.65Q9.3 -13.65 19.25 -14L27.95 -13.15L27.85 -12.25L27.2 -7.8L23.05 -8.25L19.25 -8.45Q15.05 -8.2 15.4 -4.85L15.4 -4.75L15.4 4.6L15.4 5.65Q15.65 8.2 19.25 8.5L22.85 8.25L22.85 5.55L22.85 4.65L19.65 4.9L19.55 0.8L19.5 -0.1L22.7 -0.5L28.6 -0.1L28.6 12.7Q24.05 13.95 19.25 14M31.6,-5.7Q34.85 -6.65 38.75 -6.7Q43.75 -6.8 45.55 -5Q47.25 -3.25 47.15 0.9L47.15 1.8L47.15 13.55L42.3 13.55L41.9 12.3Q38.35 14.1 36.25 14Q31.2 13.55 31.05 8.55L31.05 7.95Q30.95 2.15 37 2.35L41.3 2.35L41.3 1.75L41.3 1.35L41.3 0.85Q41.35 -0.7 40.7 -1.3Q40 -1.95 37.75 -1.9L32.35 -1.3L31.75 -4.85L31.6 -5.7M73.2,13.55L73.2 1.3L73.2 0.45Q73.2 -1 71.75 -1Q69.75 -0.8 67.5 0.45L67.5 1.35L67.5 13.55L61.6 13.55L61.6 1.35L61.6 1.2L61.6 0.45Q61.65 -1 60.15 -1Q58.15 -0.8 55.9 0.45L55.9 1.35L55.9 13.55L50 13.55L50 -6.3L54.4 -6.3L55 -4.8Q59.05 -6.65 62.9 -6.7Q65.5 -6.7 66.55 -4.8Q70.15 -6.6 74.5 -6.7Q79.25 -6.45 79.05 -0.45L79.05 -0.35L79.05 0.55L79.05 13.55L73.2 13.55M87.3,7Q87.5 9.35 90.9 9.15Q94 9.1 96.95 8.3L97.8 12.7L97.65 12.75Q94.7 13.85 90.3 14Q81.7 13.65 81.45 7L81.45 6.85L81.45 5.9L81.45 2.15L81.45 1.5L81.45 1.25Q81.35 -2.05 83.2 -4.35Q85.1 -6.65 89.95 -6.7Q94.8 -6.6 96.45 -4.2Q98.1 -1.85 98 1.55L98 2.45L98 5.7L87.3 5.7L87.3 6.3L87.3 7M100.45,12.85L100.25 12.8L101.2 8.45Q103.75 9.25 107.2 9.35Q109.1 9.4 109.3 8.2L109.25 7.65Q109.35 6.75 108.8 6.35Q108.3 5.95 106 5.45Q102.5 4.6 101.6 3.3Q100.8 2.25 100.75 0.4L100.75 0.2L100.75 0.15L100.75 -0.75Q100.65 -3.9 102.3 -5.3Q103.9 -6.75 108.35 -6.7L111.25 -6.55L114.4 -6.05L114.3 -5.15L113.85 -1.5L108.4 -2.05Q106.05 -2.05 106.25 -0.7L106.3 -0.25Q106.35 0.25 106.65 0.5L108.8 1.2Q112.9 2.05 113.95 3.4Q114.95 4.7 114.85 7.4L114.85 7.6L114.85 7.65Q114.9 10.75 113.3 12.35Q111.65 13.95 107.45 14L103.8 13.65L100.45 12.85M87.3,1.3L92.45 1.3L92.45 0.55L92.45 0.45Q92.75 -1.9 90 -2.1Q87.1 -1.9 87.3 0.45L87.3 0.8L87.3 1.3M38.3,9.4Q40 9.35 41.3 8.75L41.3 7.35L41.3 6.45L38.45 6.45Q36.6 6.3 36.7 7.85L36.75 8.35Q36.85 9.45 38.3 9.4" />
<linearGradient
id="LinearGradID_112" gradientUnits="userSpaceOnUse" gradientTransform="matrix(0, 0.0171509, -1, 0, 152.25, -0.2)" spreadMethod ="pad" x1="-819.2" y1="0" x2="819.2" y2="0" >
<stop  offset="0" style="stop-color:#FFFFFF;stop-opacity:1" />
<stop  offset="1" style="stop-color:#BBBBBB;stop-opacity:1" />
</linearGradient>
<path style="fill:url(#LinearGradID_112) " d="M-81.15,2.15L-81.15 13.35L-87.05 13.35L-87.05 -6.5L-82.15 -6.5L-81.75 -4.55L-78.45 -6.15Q-76.2 -7.1 -74.5 -7.25L-74.55 -6.35L-74.95 -1.9L-78.25 -0.6Q-80.1 0.25 -81.15 1.25L-81.15 2.15M-96.45,13.35L-97.95 8.05L-107 8.05L-108.5 13.35L-114.55 13.35L-114.85 13.35L-106.55 -13.8L-98.4 -13.8L-90.1 13.35L-90.35 13.35L-96.45 13.35M-49.15,13.35L-49.15 1.15L-49.15 1L-49.15 0.25Q-49.1 -1.2 -50.6 -1.2Q-52.6 -1 -54.85 0.25L-54.85 1.15L-54.85 13.35L-60.75 13.35L-60.75 1.15L-60.75 1L-60.75 0.25Q-60.7 -1.2 -62.2 -1.2Q-64.15 -1 -66.45 0.25L-66.45 1.15L-66.45 13.35L-72.35 13.35L-72.35 -6.5L-67.95 -6.5L-67.35 -5Q-63.3 -6.85 -59.4 -6.9Q-56.85 -6.9 -55.8 -5Q-52.2 -6.8 -47.85 -6.9Q-43.05 -6.65 -43.25 -0.55L-43.25 0.35L-43.25 13.35L-49.15 13.35M-24.75,11.3Q-26.75 13.65 -31.95 13.8Q-37.15 13.65 -39.05 11.3Q-40.75 9.25 -40.9 6.65L-40.9 5.75L-40.9 2.05L-40.9 1.2L-40.9 1.15Q-41.05 -2.05 -39.05 -4.45Q-37.1 -6.8 -31.95 -6.9Q-26.75 -6.8 -24.75 -4.45Q-22.85 -2.05 -22.95 1.15L-22.95 1.45L-22.95 2.05L-22.95 6.4Q-23.05 9.15 -24.75 11.3M-15.2,13.35L-21.1 13.35L-21.1 -6.5L-16.2 -6.5L-15.75 -4.55Q-14.7 -5.25 -12.45 -6.15Q-10.2 -7.1 -8.55 -7.25L-8.6 -6.35L-9 -1.9L-12.3 -0.6Q-14.15 0.25 -15.2 1.25L-15.2 2.15L-15.2 13.35M-35,1.85L-35 6.25Q-34.9 8.75 -31.95 8.85Q-28.85 8.75 -28.8 6.05L-28.8 1.75L-28.8 0.95Q-28.8 -1.9 -31.95 -2Q-35.1 -1.9 -35 0.95L-35 1.5L-35 1.85M-99.65,2.95L-99.4 2.95L-102.5 -8.4L-105.65 2.95L-105.4 2.95L-99.65 2.95" />
<path style="fill:#FFFFFF;fill-opacity:1" d="M15.4,4.6L15.4 5.5L15.4 5.65L15.4 4.6M22.85,5.55L19.65 5.8L19.5 0.8L19.55 0.8L19.65 4.9L22.85 4.65L22.85 5.55M28.6,12.7L28.6 13.6Q24.05 14.85 19.25 14.9Q9.3 14.45 9.25 6.6L9.25 5.95Q9.45 13.55 19.25 14Q24.05 13.95 28.6 12.7M27.85,-12.25L27.95 -12.25L27.2 -6.9L23.05 -7.35L19.25 -7.55Q15.65 -7.35 15.4 -4.85Q15.05 -8.2 19.25 -8.45L23.05 -8.25L27.2 -7.8L27.85 -12.25M40.7,-0.4Q40 -1.05 37.75 -1L32.35 -0.4L31.6 -4.8L31.75 -4.85L32.35 -1.3L37.75 -1.9Q40 -1.95 40.7 -1.3Q41.35 -0.7 41.3 0.85L41.3 1.35Q41.25 0.1 40.7 -0.4M31.05,8.55Q31.2 13.55 36.25 14Q38.35 14.1 41.9 12.3L42.3 13.55L47.15 13.55L47.15 14.45L42.3 14.45L41.9 13.2Q38.35 15 36.25 14.9Q30.9 14.4 31.05 8.85L31.05 8.55M79.05,13.55L79.05 14.45L73.2 14.45L73.2 13.55L79.05 13.55M67.5,0.45Q69.75 -0.8 71.75 -1Q73.2 -1 73.2 0.45L73.2 1.3Q73.15 -0.1 71.75 -0.1Q69.75 0.1 67.5 1.35L67.5 0.45M67.5,13.55L67.5 14.45L61.6 14.45L61.6 13.55L67.5 13.55M55.9,0.45Q58.15 -0.8 60.15 -1Q61.65 -1 61.6 0.45L61.6 1.2Q61.55 -0.1 60.15 -0.1Q58.15 0.1 55.9 1.35L55.9 0.45M55.9,13.55L55.9 14.45L50 14.45L50 13.55L55.9 13.55M87.3,6.3L87.3 5.7L98 5.7L98 6.6L87.3 6.6L87.3 7L87.3 6.3M97.65,12.75L97.8 13.6Q94.8 14.75 90.3 14.9Q81.15 14.5 81.45 7Q81.7 13.65 90.3 14Q94.7 13.85 97.65 12.75M106.25,-0.7Q106.05 -2.05 108.4 -2.05L113.85 -1.5L114.3 -5.15L114.4 -5.15L113.85 -0.6L108.4 -1.15Q106.5 -1.15 106.3 -0.25L106.25 -0.7M103.8,13.65L107.45 14Q111.65 13.95 113.3 12.35Q114.9 10.75 114.85 7.65L114.85 8.55Q114.9 11.65 113.3 13.25Q111.65 14.85 107.45 14.9L103.8 14.55L100.25 13.7L100.45 12.85L103.8 13.65M109.3,8.2Q109.25 7.55 108.8 7.25Q108.3 6.85 106 6.35Q102.5 5.5 101.6 4.2Q100.65 2.9 100.75 0.4Q100.8 2.25 101.6 3.3Q102.5 4.6 106 5.45Q108.3 5.95 108.8 6.35Q109.35 6.75 109.25 7.65L109.3 8.2M90,-1.2Q87.45 -1.05 87.3 0.8L87.3 0.45Q87.1 -1.9 90 -2.1Q92.75 -1.9 92.45 0.45L92.45 0.55Q92.25 -1.05 90 -1.2M38.45,7.35Q36.9 7.2 36.75 8.35L36.7 7.85Q36.6 6.3 38.45 6.45L41.3 6.45L41.3 7.35L38.45 7.35M-81.15,1.25Q-80.1 0.25 -78.25 -0.6L-74.95 -1.9L-74.55 -6.35L-74.5 -6.35L-74.95 -1L-78.25 0.3Q-80.1 1.15 -81.15 2.15L-81.15 1.25M-81.15,13.35L-81.15 14.25L-87.05 14.25L-87.05 13.35L-81.15 13.35M-90.35,13.35L-90.1 14.25L-96.45 14.25L-97.95 8.95L-107 8.95L-108.5 14.25L-114.85 14.25L-114.55 13.35L-108.5 13.35L-107 8.05L-97.95 8.05L-96.45 13.35L-90.35 13.35M-43.25,13.35L-43.25 14.25L-49.15 14.25L-49.15 13.35L-43.25 13.35M-54.85,0.25Q-52.6 -1 -50.6 -1.2Q-49.1 -1.2 -49.15 0.25L-49.15 1Q-49.2 -0.3 -50.6 -0.3Q-52.6 -0.1 -54.85 1.15L-54.85 0.25M-54.85,13.35L-54.85 14.25L-60.75 14.25L-60.75 13.35L-54.85 13.35M-66.45,0.25Q-64.15 -1 -62.2 -1.2Q-60.7 -1.2 -60.75 0.25L-60.75 1Q-60.8 -0.3 -62.2 -0.3Q-64.15 -0.1 -66.45 1.15L-66.45 0.25M-66.45,13.35L-66.45 14.25L-72.35 14.25L-72.35 13.35L-66.45 13.35M-22.95,6.4L-22.95 6.65Q-22.85 9.8 -24.75 12.2Q-26.75 14.55 -31.95 14.7Q-37.15 14.55 -39.05 12.2Q-41.05 9.8 -40.9 6.65Q-40.75 9.25 -39.05 11.3Q-37.15 13.65 -31.95 13.8Q-26.75 13.65 -24.75 11.3Q-23.05 9.15 -22.95 6.4M-8.55,-6.35L-9 -1L-12.3 0.3Q-14.15 1.15 -15.2 2.15L-15.2 1.25Q-14.15 0.25 -12.3 -0.6L-9 -1.9L-8.6 -6.35L-8.55 -6.35M-21.1,13.35L-15.2 13.35L-15.2 14.25L-21.1 14.25L-21.1 13.35M-31.95,-1.1Q-34.9 -1 -35 1.5L-35 0.95Q-35.1 -1.9 -31.95 -2Q-28.8 -1.9 -28.8 0.95L-28.8 1.75Q-28.85 -1 -31.95 -1.1M-102.5,-7.5L-105.4 2.95L-105.65 2.95L-102.5 -8.4L-99.4 2.95L-99.65 2.95L-102.5 -7.5" />
</g>
</svg>
