<?xml version="1.0" encoding="utf-8"?>
<svg version="1.1" id="Layer_1"
xmlns="http://www.w3.org/2000/svg"
xmlns:xlink="http://www.w3.org/1999/xlink"
width="29px" height="25px"
xml:space="preserve">
<g id="520" transform="matrix(1, 0, 0, 1, 2.45, 26.4)">
<path style="fill:#000000;fill-opacity:0.901961" d="M22.5,-26L22.55 -26.05L22.6 -26.2L22.8 -26.3L23.1 -26.35L23.1 -26.4L24.15 -26.2L25.1 -25.75L25.25 -25.6L25.25 -25.45Q25.9 -25.15 25.5 -24.45Q25.25 -23.95 24.7 -24.05L24 -24.1Q23.55 -24.35 23.55 -24.75Q23 -24.9 22.55 -25.5L22.5 -25.55L22.55 -25.6L22.55 -25.75L22.7 -26L22.5 -25.95L22.5 -26M17.55,-25.25Q18.85 -25.25 19.8 -24.4L20.45 -24.4Q21.5 -24.2 22.4 -23.6Q23 -23.2 23.05 -22.65L23.55 -22.3L23.65 -22.5L23.9 -22.7L24 -22.7Q25.15 -22.85 25.25 -21.9Q25.3 -21.25 25 -20.8Q25.7 -20.45 25.2 -19.55Q24.85 -18.85 24.25 -18.85L24 -18.75L23.2 -18.85Q22.9 -18.95 22.85 -19.15L22.15 -18.85L20.6 -18.8Q19.25 -18.35 18.2 -19.5Q17.8 -19.95 17.7 -20.5Q16.9 -20.6 16.45 -21.45L16.3 -21.85Q15.2 -21.85 15 -23.2Q14.9 -23.8 15.4 -24.15L15.6 -24.25L17 -25.1L17.55 -25.25M20.1,-19.9L20.45 -19.55L20.3 -19.75L20.15 -19.9L20.1 -19.9" />
<path style="fill:#000000;fill-opacity:1" d="M5.6,-8.05L5.8 -8.3L6.55 -8.85L8.1 -8.7L10.75 -7.7L11 -7.7L11.3 -7.25L11.35 -6.9L9.3 -4.85L9.15 -4.6L8 -4.1L6.65 -3.9L6.5 -3.6L4 -2.4L3.8 -2.1L3.15 -1.9L1.75 -2.05L1.3 -2.45L0.6 -3.1L0.3 -3.85L-1.25 -6.45L-1.35 -7.5L-1.6 -7.7L-1.65 -7.95L-1.85 -7.95L-1.9 -8.7L-2.45 -10.6L-1.95 -11L-1.1 -10.85L0.2 -11.45L0.75 -11.3L1.8 -8.75L3.75 -6.1L4.3 -6.55L4.3 -6.9L5.3 -8L5.6 -8.05" />
</g>
</svg>
