<?xml version="1.0" encoding="utf-8"?>
<svg version="1.1" id="Layer_1"
xmlns="http://www.w3.org/2000/svg"
xmlns:xlink="http://www.w3.org/1999/xlink"
width="154px" height="27px"
xml:space="preserve">
<g id="150" transform="matrix(1, 0, 0, 1, -0.6, -2.85)">
<path style="fill:none;stroke-width:1;stroke-linecap:round;stroke-linejoin:round;stroke-miterlimit:3;stroke:#C7E9FD;stroke-opacity:1" d="M153.6,13.5L151.25 13.75L147.7 16.3L150.2 16.95L150.8 18.9L147.4 19.45L147.6 20.85M143.75,13.1L138.05 11.35L136.5 10.5L130.75 14.65L137.25 17.95L144.9 15.55L147.7 16.3M116.2,12.75L105.1 11.75L102 17.75L107.85 14.95L108.5 14.8L122.25 16.35L130.75 14.65M115.15,5.1L119.15 3.35L128.25 5.85L134.15 4.65L133.05 8.6L136.5 10.5M92.1,29.05L96.45 24.1L101 28.6L107.05 23.6L102 17.75M78.9,6.85L81.6 12.05L86.35 8.6L92.7 13.65L94.75 17.35L99.15 12.85L101.4 18.85L102 17.75M74.55,21.85L75.35 21.4L80.35 18.55L74.1 11.35L66.85 15.4L59.6 13.9L50.35 23.6L45.55 25L40.55 25M50.35,23.6L45.55 19.9L36.35 17.65L37.2 14.2L22.5 16.25L17.25 15.45L14.25 12.65L10.85 18.95L6.2 19.5L10.5 22.15M36.35,17.65L49.35 16.65L54.55 7.4L57 9.5L59.05 6.35L65.35 10.2M81.15,28.75L79.6 25.85L74.3 26.5L75.35 21.4M1.1,18L6.2 19.5M80.35,18.55L92.7 13.65" />
</g>
</svg>
