<?xml version="1.0" encoding="utf-8"?>
<svg version="1.1" id="Layer_1"
xmlns="http://www.w3.org/2000/svg"
xmlns:xlink="http://www.w3.org/1999/xlink"
width="15px" height="12px"
xml:space="preserve">
<g id="631" transform="matrix(1, 0, 0, 1, 0, 0)">
<path style="fill:#000000;fill-opacity:1" d="M14.25,10.35Q13.8 11.2 12.75 10.85Q12.5 10.5 12.5 10L12.4 8.9L12.25 8.6Q9.4 8.4 8.35 6.3Q7.75 5.1 7.4 3.7L7.35 3.55L6.6 4.85Q5.5 6.5 5.45 8.65Q5.35 10.15 4.5 11.35L1.45 10.6Q0.4 10.3 0 9.4L0 9.2L0.2 8.85L0.25 8.75L0.3 8.6L1.25 8.45L1.7 8.6L2.75 8.75L3.05 4.5Q3.15 3.2 4.1 2.3Q5.5 0.95 6.85 0L7.05 0.15L9.3 0.2L9.95 0.45L10.05 2.3Q10.1 5 12.35 5.9L14.85 7L14.85 7.1L14.8 8.3L14.55 9.4L14.25 10.35" />
</g>
</svg>
