<?xml version="1.0" encoding="utf-8"?>
<svg version="1.1" id="Layer_1"
xmlns="http://www.w3.org/2000/svg"
xmlns:xlink="http://www.w3.org/1999/xlink"
width="46px" height="34px"
xml:space="preserve">
<g id="1116" transform="matrix(1, 0, 0, 1, 20.95, 22.95)">
<path style="fill:#2E1803;fill-opacity:1" d="M4.5,-4.25Q6.3 -2.45 6.3 0.1Q6.3 2.65 4.5 4.4Q2.75 6.2 0.2 6.2Q-2.35 6.2 -4.15 4.4Q-5.9 2.65 -5.9 0.1Q-5.9 -2.45 -4.15 -4.25Q-2.35 -6 0.2 -6Q2.75 -6 4.5 -4.25" />
<path style="fill:#683C14;fill-opacity:1" d="M-1.75,-0.1Q-1.75 0.65 -1.25 1.15Q-0.75 1.65 0 1.65Q0.75 1.65 1.25 1.15Q1.75 0.65 1.75 -0.1Q1.75 -0.85 1.25 -1.35Q0.75 -1.9 0 -1.9Q-0.75 -1.9 -1.25 -1.35Q-1.75 -0.85 -1.75 -0.1M1.9,-3.15L3.3 -1.75L4.05 -2.2L2.4 -3.85L1.9 -3.15M3.7,-3.4L4.9 -1.7L3.05 -1.25L1.2 -3.15L1.7 -4.65Q2.85 -4.3 3.7 -3.4M-0.15,3.2L-2.55 0.9L-4.65 1.35L-4.85 0.1Q-4.85 -1.95 -3.4 -3.4Q-1.95 -4.9 0.15 -4.9L1 -4.85L0.5 -2.85L2.9 -0.55L5.05 -1L5.15 0.1Q5.15 2.2 3.7 3.65Q2.25 5.1 0.15 5.1L-0.65 5.05L-0.15 3.2M-2.75,1.6L-0.85 3.45L-1.3 4.95Q-2.5 4.55 -3.4 3.65L-4.5 2.05L-2.75 1.6M-3.45,2.9L-2 4.05L-1.35 3.35L-2.65 2.15L-3.45 2.9" />
<path style="fill:#2E1803;fill-opacity:1" d="M5.05,-1L2.9 -0.55L0.5 -2.85L1 -4.85L1.7 -4.65L1.2 -3.15L3.05 -1.25L4.9 -1.7L5.05 -1M-4.5,2.05L-4.55 2.05L-4.7 1.35L-4.65 1.35L-2.55 0.9L-0.15 3.2L-0.65 5.05L-0.7 5.15L-1.35 5L-1.3 4.95L-0.85 3.45L-2.75 1.6L-4.5 2.05" />
<path style="fill:#985929;fill-opacity:1" d="M-1.25,-1.35Q-0.75 -1.9 0 -1.9Q0.75 -1.9 1.25 -1.35Q1.75 -0.85 1.75 -0.1Q1.75 0.65 1.25 1.15Q0.75 1.65 0 1.65Q-0.75 1.65 -1.25 1.15Q-1.75 0.65 -1.75 -0.1Q-1.75 -0.85 -1.25 -1.35M2.4,-3.85L4.05 -2.2L3.3 -1.75L1.9 -3.15L2.4 -3.85M-2.65,2.15L-1.35 3.35L-2 4.05L-3.45 2.9L-2.65 2.15" />
<path style="fill:#E20000;fill-opacity:1" d="M0.1,-2.7Q-0.95 -2.65 -1.75 -1.85Q-2.55 -1 -2.55 0.15L-2.5 0.55L-4.05 0.6L-4.1 0.15Q-4.1 -1.65 -2.85 -2.95Q-1.6 -4.15 0.1 -4.2L0.1 -2.7M14.6,-1.45L16.25 -3.6L21.8 -3.6L20.2 -1.45L14.6 -1.45M3.3,3.2Q2.05 4.5 0.25 4.5L0.1 4.5L0.1 3L0.25 3Q1.45 3 2.25 2.15Q3.05 1.35 3.1 0.25L4.6 0.15Q4.6 1.95 3.3 3.2" />
<path style="fill:#2E1803;fill-opacity:1" d="M7.75,-7Q10.9 -3.85 10.9 0.6Q10.9 5.05 7.75 8.2Q5.7 10.25 3.1 11L0.75 4.2Q4.1 3.25 3.8 -0.2Q3.45 -3.7 0.35 -4.3L-4.55 -9.1L-6.2 -13.9L-5.35 -14.15L4.65 -9.2L5.2 -8.95L7.75 -7M1.2,-5.1Q3.5 -3.85 4.25 -2.2L4.25 -2.15L9.2 -2.5L9.65 -2.5L9.75 -2.5Q9 -4.75 7.25 -6.5L6.45 -7.25L-5.35 -13.2L-4.1 -9.7L1.2 -5.1M1.5,4.75L3.15 8.75L3.65 10.05Q5.65 9.3 7.25 7.65Q10.2 4.75 10.2 0.6L10 -1.5L4.55 -1.25L4.45 1.65Q3.95 3.5 1.5 4.75" />
<path style="fill:#5D340E;fill-opacity:1" d="M9.05,-3.3L9.65 -2.5L9.2 -2.5L9.05 -3.3M10.2,0.6Q10.2 4.75 7.25 7.65Q5.65 9.3 3.65 10.05L3.15 8.75Q9.75 5.95 9.3 -1.35L10 -1.5L10.2 0.6" />
<path style="fill:#9F6329;fill-opacity:1" d="M9.05,-3.3Q7.95 -4.7 6.25 -5.95L-3.7 -10.8L-4.1 -9.7L-5.35 -13.2L6.45 -7.25L7.25 -6.5Q9 -4.75 9.75 -2.5L9.65 -2.5L9.05 -3.3M5.2,-0.5L4.45 1.9L4.45 1.65L4.55 -1.25L10 -1.5L9.3 -1.35L5.2 -0.5" />
<linearGradient
id="LinearGradID_350" gradientUnits="userSpaceOnUse" gradientTransform="matrix(0.00480652, -0.0121155, 0.00671387, 0.00267029, 3.9, -3.25)" spreadMethod ="pad" x1="-819.2" y1="0" x2="819.2" y2="0" >
<stop  offset="0" style="stop-color:#511A16;stop-opacity:1" />
<stop  offset="0.505882" style="stop-color:#7B5814;stop-opacity:1" />
<stop  offset="1" style="stop-color:#511A16;stop-opacity:1" />
</linearGradient>
<path style="fill:url(#LinearGradID_350) " d="M9.2,-2.5L4.25 -2.15L4.25 -2.2Q3.5 -3.85 1.2 -5.1L-4.1 -9.7L-3.7 -10.8L6.25 -5.95Q7.95 -4.7 9.05 -3.3L9.2 -2.5M4.45,1.65L4.45 1.9L5.2 -0.5L9.3 -1.35Q9.75 5.95 3.15 8.75L1.5 4.75Q3.95 3.5 4.45 1.65" />
<path style="fill:#2E1803;fill-opacity:1" d="M24.3,-19.5L3 -19.5L2.6 -18.6L2.15 -17.75L24.3 -17.75L24.3 -18.6L24.3 -19.5M2.35,-20.5L3.05 -22.2Q-17.65 -22.4 -19.75 -17.75L-19.75 -16.15L-17.5 -16.15L-9.8 -16.15L-7.8 -13.5L-8.45 -12.95L-10.35 -15.25L-20.95 -15.7L-20.95 -18.15Q-19 -23 4.15 -22.95L3.9 -22.25L3.2 -20.5L3.05 -20.05L24.9 -20.05L24.9 -17.25L1.9 -17.25L1.5 -16.35L0.15 -12.95L-0.55 -13.5L2.35 -20.5" />
<path style="fill:#9F6329;fill-opacity:1" d="M24.3,-18.6L2.6 -18.6L3 -19.5L24.3 -19.5L24.3 -18.6M-17.5,-16.15L-19.75 -16.15L-19.75 -17.75Q-17.65 -22.4 3.05 -22.2L2.35 -20.5Q-15.15 -20.25 -17.5 -16.15" />
<linearGradient
id="LinearGradID_351" gradientUnits="userSpaceOnUse" gradientTransform="matrix(0, -0.0108643, 0.00630188, 0, -4.9, -20.1)" spreadMethod ="pad" x1="-819.2" y1="0" x2="819.2" y2="0" >
<stop  offset="0" style="stop-color:#511A16;stop-opacity:1" />
<stop  offset="0.505882" style="stop-color:#6D4414;stop-opacity:1" />
<stop  offset="1" style="stop-color:#511A16;stop-opacity:1" />
</linearGradient>
<path style="fill:url(#LinearGradID_351) " d="M24.3,-18.6L24.3 -17.75L2.15 -17.75L2.6 -18.6L24.3 -18.6" />
<linearGradient
id="LinearGradID_352" gradientUnits="userSpaceOnUse" gradientTransform="matrix(0, -0.0108643, 0.00630188, 0, -4.9, -20.1)" spreadMethod ="pad" x1="-819.2" y1="0" x2="819.2" y2="0" >
<stop  offset="0" style="stop-color:#511A16;stop-opacity:1" />
<stop  offset="0.505882" style="stop-color:#7B5814;stop-opacity:1" />
<stop  offset="1" style="stop-color:#511A16;stop-opacity:1" />
</linearGradient>
<path style="fill:url(#LinearGradID_352) " d="M2.35,-20.5L-0.55 -13.5L-7.8 -13.5L-9.8 -16.15L-17.5 -16.15Q-15.15 -20.25 2.35 -20.5" />
</g>
</svg>
