<?xml version="1.0" encoding="utf-8"?>
<svg version="1.1" id="Layer_1"
xmlns="http://www.w3.org/2000/svg"
xmlns:xlink="http://www.w3.org/1999/xlink"
width="37px" height="20px"
xml:space="preserve">
<g id="564" transform="matrix(1, 0, 0, 1, 19.4, -6.35)">
<path style="fill:#000000;fill-opacity:1" d="M5.7,21.45Q9.4 20.9 12.85 22.15L14.1 22.4Q17.25 22.55 17.3 25.2L17 25.45L9.4 25.2L1.8 24.5L0.95 24.65Q-2.1 25.95 -5.5 25.25L-9.4 25.55Q-11.25 26.2 -12.85 25.15Q-13 24.8 -12.8 24.5L-11.6 23.3L-9.8 23.2Q-8.55 23.9 -8.2 23L-8.25 22.95L-11.1 22.55L-11.2 22.5L-11.35 22.25L-11.35 22.05L-11.35 21.8L-11.3 21.75L-9.45 20.7L-8.8 20L-8.4 19.7L-8.1 19.6L-3.05 20.05L-2.15 20.05Q1.75 19.75 5.15 21.4L5.7 21.45M13.4,16.2Q14.7 16.05 15.4 17.1Q16.35 18.5 14.8 18.55L14.7 18.5L14.35 18.15Q13.8 17.7 13.05 17.55L12.8 17.35L12.75 17.25L12.75 17.05Q12.7 16.8 12.9 16.65L13.3 16.25L13.4 16.2M-11.85,14.2Q-10.1 14.8 -11.4 15.85Q-12.2 16.5 -12.55 16.35L-13.55 16.45L-13.7 16.5L-13.85 16.25L-13.9 16.2L-13.95 16.1L-14 15.8L-13.85 15.7L-13.6 15.25Q-13 14.55 -12.15 14.3L-11.85 14.2M-19.15,17.65L-18.95 17.4L-18.6 17.2Q-16.4 17.35 -16.7 18.95Q-16.85 19.9 -17.85 19.3L-18.6 19L-19.35 18.4L-19.35 18L-19.15 17.65" />
<path style="fill:#1E1E1E;fill-opacity:1" d="M4.25,6.85L4.1 6.9Q4 6.9 3.95 7L3.9 6.9L3.85 6.9L3.85 6.85L3.8 6.85L3.65 7.05L3.45 7.25L3.45 7.55L3.7 7.75L4.2 7.7L4.25 7.5L4.3 7.25L4.35 7L4.3 6.9L4.25 6.85M3.95,6.35Q5.15 6.65 4.3 8Q4 8.45 3.55 8.1Q2.8 7.4 3.5 6.65Q3.7 6.35 3.95 6.35M8.05,21.9Q7.95 21.45 8.2 21.4L8.35 21.4L8.4 21.45L8.6 21.75L8.8 20.8Q8.95 20.05 8.55 19.3Q8.2 18.7 8.25 18L8.35 18L8.35 17.9L8.5 17.9L8.6 18L8.8 18L8.85 17.9L8.95 18.05L9 17.75Q9.15 16.9 8.6 16.35L8.1 15.85Q8.2 16.4 7.95 16.75Q7.65 16.55 7.55 15.85Q7.4 14.95 6.85 14.35L6.4 13.8L6.1 13.65L6.5 12.8L6.55 12.25L6.5 12.25L6.55 12L6.4 11.9Q6.3 11.6 6.5 11.45L6.7 11.65Q6.95 11.3 6.85 10.8Q6.75 10.1 6.25 10.1L6 10.4L5.65 10.9L5.65 10.95L5.75 11.45L5.55 11.95L5.25 11.4L5.2 11.5Q4.95 11.4 5.1 11.15L5.15 11.05L5 10.95Q4.65 10.65 4.2 10.6L4.25 10.9L4.1 11.3L3.4 9.95L3 9.9L2.1 10.65L2.55 10.65L2.9 10.9L2.9 10.95L2.8 11.1Q2.15 10.95 1.7 11.3Q1.45 11.4 1.4 11.65L1.7 11.9L1.9 12.45Q1.6 12.75 1.4 12.35Q0.85 11.45 0.05 11.8L-0.3 12.3L-0.3 12.35Q0.05 13.15 -0.45 13.8Q-0.75 14.15 -0.95 14.1Q-1.15 14.45 -1.4 14.1L-1.15 13.45Q-0.95 12.8 -1.45 12.5L-1.55 12.45L-1.55 12.5L-1.75 12.85L-2.35 13.1L-2.6 13.6L-2.85 14.15L-2.85 14.3L-2.9 14.3L-2.9 14.55L-2.75 14.55Q-2.55 15.15 -2.9 15.55Q-3.2 15.9 -3.55 15.85L-3.6 16.25L-3.6 16.7L-3.25 16.7Q-3 16.55 -3 16.75L-3.6 17.6Q-3.9 18 -3.75 18.45L-3.7 18.45Q-3.55 18.45 -3.55 18.7L-4.4 19.1L-4.55 19.2L-4.8 19.4Q-4.3 19.7 -4.35 20.25L-4.4 20.75L-5.75 20.85L-6.35 21.05L-6.75 20.65Q-7.1 20.3 -6.9 19.9L-6.85 19.9L-6.85 19.8L-6.7 19.95L-6.45 19.8Q-6.15 19.6 -5.85 19.55L-5.45 19.4L-5.25 19.4L-5.25 19.3L-4.85 18.85L-4.75 18.7L-4.35 18.45L-4.15 18.45L-4.05 18.45L-4.15 18.2L-4 17.5L-3.8 17.2L-4 16.5L-4 15.65L-3.9 15.5Q-4.3 15.05 -4.05 14.35Q-3.9 13.85 -3.6 13.7L-3.25 13.8L-3.15 13.8L-3 13.3L-2.75 13.1L-3.55 12.75Q-4.2 12.15 -4.2 11.15Q-4.2 10.05 -3.35 9.9Q-1.7 9.95 -1.5 11.4L-1.45 11.4Q-0.9 11.45 -0.5 11.95L-0.45 11.8L0 11.45L0.45 11.3L1.1 11.4L1.15 11.25L1.45 11.05L1.6 10.9L1.7 10.8L2.1 10.1Q2.7 9.3 3.5 9.3Q3.85 9.45 4 9.95L4.1 10.25L4.7 10.2Q5.1 10.25 5.4 10.6L5.55 10.25Q5.85 9.8 6.25 9.7Q6.95 9.6 7.2 10.4Q7.5 11.15 7.1 11.9L6.85 12.15L6.95 12.45Q6.95 13.1 6.55 13.6Q7.1 13.8 7.5 14.35L7.95 15.5Q8.8 15.5 9.2 16.35Q9.6 17.25 9.4 18.2L9.35 18.55L9.8 19.6Q10.15 20.95 9.4 21.9L9.2 22.1L8.1 22.25L8.05 21.9M-3.3,20.7L-4 20.7L-4 20.65L-4.15 20.45L-4.15 20.3L-4.05 20.3L-4 20.25L-4 20.15L-3.35 20.65L-3.3 20.7M7.15,8.4L6.95 8.55L6.8 8.85L6.7 9.05L6.85 9.25L7.35 9.2L7.4 9.1L7.4 8.9L7.35 8.7L7.25 8.4L7.15 8.4M7.25,7.9Q8.25 8.6 7.4 9.55Q7.1 9.95 6.7 9.55Q6 8.75 6.95 8.05Q7.05 7.9 7.25 7.9M9.15,12.85L8.6 12.65L8.55 12.8L8.4 12.85L8.25 12.85L8.2 13.15L8.2 13.45L8.2 13.7L8.25 13.8L8.4 13.95L9.05 13.5L9.1 13.15L9.15 12.85M8.35,14.3Q7.5 13.85 8.05 12.6Q8.2 12.25 8.5 12.15Q10.1 12.35 9.55 14.15L9 14.5L8.5 14.35L8.35 14.3M11.2,18.05L12.1 18.75Q12.35 19.25 11.9 19.4L11.05 19.3Q9.95 19.6 9.9 18.4Q9.9 18.05 10.15 18L10.4 17.85Q10.95 17.9 11.2 18.1L11.2 18.05M10.2,18.55L10.15 18.6L10.4 18.85L11.2 18.75L11.05 18.55L10.65 18.25L10.5 18.25L10.35 18.4L10.2 18.55M11.4,18.7L11.4 18.85L11.6 18.9L11.6 18.85L11.4 18.7M-2.9,11.65Q-2.9 10.8 -3.25 10.4L-3.4 10.45L-3.6 10.55L-3.8 10.65Q-4.05 11.4 -3.6 11.9Q-3 12.6 -2.9 11.65M-3.25,14.3L-3.6 14.35Q-3.85 14.5 -3.75 14.85L-3.6 15.3L-3.55 15.3L-3.05 15.3L-3.05 15.15L-3.05 15L-3.15 14.95L-3.25 14.35L-3.25 14.3M-6,20.1L-6.25 20.3L-6 20.55L-5 20.45L-4.85 20.4L-5 20.25L-5 20.15L-5.1 20.05L-5.1 19.95L-5.15 19.9L-5.4 19.9L-5.45 19.9L-5.75 19.95L-6 20.1" />
<path style="fill:#3A3A3A;fill-opacity:1" d="M4.3,6.9L4.35 7L4.3 7.25L4.25 7.5L4.2 7.7L3.7 7.75L3.45 7.55L3.45 7.25L3.65 7.05L3.8 6.85L3.85 6.85L3.85 6.9L3.9 6.9L3.95 7Q4 6.9 4.1 6.9L4.25 6.85L4.3 6.9M-3.35,20.65L-4 20.15L-4 20.25L-4.05 20.3L-4.15 20.3L-4.15 20.45L-4 20.65L-4 20.7L-4.4 20.75L-4.35 20.25Q-4.3 19.7 -4.8 19.4L-4.55 19.2L-4.4 19.1L-3.55 18.7Q-3.55 18.45 -3.7 18.45L-3.75 18.45Q-3.9 18 -3.6 17.6L-3 16.75Q-3 16.55 -3.25 16.7L-3.6 16.7L-3.6 16.25L-3.55 15.85Q-3.2 15.9 -2.9 15.55Q-2.55 15.15 -2.75 14.55L-2.9 14.55L-2.9 14.3L-2.85 14.3L-2.85 14.15L-2.6 13.6L-2.35 13.1L-1.75 12.85L-1.55 12.5L-1.55 12.45L-1.45 12.5Q-0.95 12.8 -1.15 13.45L-1.4 14.1Q-1.15 14.45 -0.95 14.1Q-0.75 14.15 -0.45 13.8Q0.05 13.15 -0.3 12.35L-0.3 12.3L0.05 11.8Q0.85 11.45 1.4 12.35Q1.6 12.75 1.9 12.45L1.7 11.9L1.4 11.65Q1.45 11.4 1.7 11.3Q2.15 10.95 2.8 11.1L2.9 10.95L2.9 10.9L2.55 10.65L2.1 10.65L3 9.9L3.4 9.95L4.1 11.3L4.25 10.9L4.2 10.6Q4.65 10.65 5 10.95L5.15 11.05L5.1 11.15Q4.95 11.4 5.2 11.5L5.25 11.4L5.55 11.95L5.75 11.45L5.65 10.95L5.65 10.9L6 10.4L6.25 10.1Q6.75 10.1 6.85 10.8Q6.95 11.3 6.7 11.65L6.5 11.45Q6.3 11.6 6.4 11.9L6.55 12L6.5 12.25L6.55 12.25L6.5 12.8L6.1 13.65L6.4 13.8L6.85 14.35Q7.4 14.95 7.55 15.85Q7.65 16.55 7.95 16.75Q8.2 16.4 8.1 15.85L8.6 16.35Q9.15 16.9 9 17.75L8.95 18.05L8.85 17.9L8.8 18L8.6 18L8.5 17.9L8.35 17.9L8.35 18L8.25 18Q8.2 18.7 8.55 19.3Q8.95 20.05 8.8 20.8L8.6 21.75L8.4 21.45L8.35 21.4L8.2 21.4Q7.95 21.45 8.05 21.9L8.1 22.25L3.7 21.75L1.05 21.1L-3.3 20.7L-3.35 20.65M7.25,8.4L7.35 8.7L7.4 8.9L7.4 9.1L7.35 9.2L6.85 9.25L6.7 9.05L6.8 8.85L6.95 8.55L7.15 8.4L7.25 8.4M9.1,13.15L9.05 13.5L8.4 13.95L8.25 13.8L8.2 13.7L8.2 13.45L8.2 13.15L8.25 12.85L8.4 12.85L8.55 12.8L8.6 12.65L9.15 12.85L9.1 13.15M10.35,18.4L10.5 18.25L10.65 18.25L11.05 18.55L11.2 18.75L10.4 18.85L10.15 18.6L10.2 18.55L10.35 18.4M11.6,18.85L11.6 18.9L11.4 18.85L11.4 18.7L11.6 18.85M-3.6,11.9Q-4.05 11.4 -3.8 10.65L-3.6 10.55L-3.4 10.45L-3.25 10.4Q-2.9 10.8 -2.9 11.65Q-3 12.6 -3.6 11.9M-3.25,14.35L-3.15 14.95L-3.05 15L-3.05 15.15L-3.05 15.3L-3.55 15.3L-3.6 15.3L-3.75 14.85Q-3.85 14.5 -3.6 14.35L-3.25 14.3L-3.25 14.35M-5.75,19.95L-5.45 19.9L-5.4 19.9L-5.15 19.9L-5.1 19.95L-5.1 20.05L-5 20.15L-5 20.25L-4.85 20.4L-5 20.45L-6 20.55L-6.25 20.3L-6 20.1L-5.75 19.95" />
</g>
</svg>
