<?xml version="1.0" encoding="utf-8"?>
<svg version="1.1" id="Layer_1"
xmlns="http://www.w3.org/2000/svg"
xmlns:xlink="http://www.w3.org/1999/xlink"
width="19px" height="22px"
xml:space="preserve">
<g id="517" transform="matrix(1, 0, 0, 1, 2.1, 22)">
<path style="fill:#000000;fill-opacity:0.901961" d="M15.4,-18.6L14.4 -17.25L14.55 -17.4Q15 -18.05 15.4 -17.8L14.55 -16.9L15.2 -16.95Q15.65 -17.55 16.3 -17.35L15.4 -16.8L14.35 -15.95Q13.95 -15.4 13.45 -15.5L14.45 -16.55L13.3 -15.7Q12.85 -15.15 12.4 -15.35L13.35 -17.5L14.8 -21.45L15.4 -22L15.25 -21.45L14.9 -20.5L14.05 -18.25Q13.8 -17.75 14.15 -17.7L14.55 -17.95Q14.95 -18.8 15.45 -18.65L15.4 -18.6" />
<path style="fill:#000000;fill-opacity:1" d="M5.95,-8.8L6.3 -8.7L8.4 -8.6L11.35 -7.2L11.4 -6.65L10.2 -4.25L8.95 -4.05L8.65 -3.35L8.3 -3.25L8.15 -2.8L7.75 -2.45L6.5 -1.05Q5.85 -0.4 4.95 -0.45Q4.1 -0.65 3.6 -1.05L3.25 -1.05L-1.05 -5.2L-1.05 -5.55L-1.3 -6.05L-1.5 -6.05L-1.5 -6.45L-2.1 -7.65L-1.85 -8.3L-0.7 -8.4L-0.45 -8.85L1.55 -8.4L1.6 -8.2L2.15 -6.65L2.8 -6.65L4.6 -5.35L4.95 -5.85L5.25 -7.5L5.95 -8.8" />
</g>
</svg>
