<?xml version="1.0" encoding="utf-8"?>
<svg version="1.1" id="Layer_1"
xmlns="http://www.w3.org/2000/svg"
xmlns:xlink="http://www.w3.org/1999/xlink"
width="30px" height="11px"
xml:space="preserve">
<g id="598" transform="matrix(1, 0, 0, 1, -41.65, -15.05)">
<path style="fill:#000000;fill-opacity:1" d="M69.15,15.05Q70.25 15 70.8 15.95L71.4 17.35L71.45 17.9Q69.35 18.95 67 17.9L66 17.1L66.8 16.25Q67.85 15.4 69.15 15.05M64.8,19.9Q66.15 19.55 66.95 21.3Q67.2 21.85 67.1 22.5Q66.9 23.3 66.2 23.9L65.9 24.3L65.25 24.35Q64.6 24.95 63.25 24.7L58.7 24.95Q56.95 25.5 55.5 24.65L54.5 24.4L51.9 24.75L51.45 24.95L49.25 25.35L44.15 24.8L43.9 24.8L43.9 24.85L43.7 24.75Q43.2 24.65 42.85 24.2L42.05 22.95L42.3 23.2L41.95 22.5L41.9 22.4L41.65 22.1L41.65 22.05Q41.65 21.75 41.95 21.6L42.35 21.45L42.55 21.3L44.1 21.25L44.1 21.3L44.15 21.35L44.25 21.4L44.55 21.7L44.55 21.8L44.65 21.85L44.75 21.95L52.45 21.05L52.8 21.05L52.85 21L53.05 20.9L53.15 20.95L53.25 21L53.35 21L55.4 19.85Q56.35 19.3 57.5 19.05L59.05 18.8Q60.95 19.95 62.2 20.1L64.8 19.9" />
</g>
</svg>
