<?xml version="1.0" encoding="utf-8"?>
<svg version="1.1" id="Layer_1"
xmlns="http://www.w3.org/2000/svg"
xmlns:xlink="http://www.w3.org/1999/xlink"
width="9px" height="12px"
xml:space="preserve">
<g id="639" transform="matrix(1, 0, 0, 1, 3.65, 0.05)">
<path style="fill:#000000;fill-opacity:1" d="M2.2,1.45L1.7 3.1L1.35 4.8L1.65 5.2L1.7 5.2L3.05 5.7Q3.7 5.85 4.35 6.2L4.45 6.3L4.55 6.9L4.45 7.25L4.15 8L3.75 8.75L3.65 8.85Q4 9.8 3.65 11.05L1.5 11.35L-0.35 11.4L-0.75 10.95L-0.75 10.65L-0.75 10.55L-0.75 10.25L-0.7 10.05L0.1 9.6L0.2 9.55L0.3 9.5L0.85 9.35L-0.25 7.9Q-2.4 7.6 -2.85 7.1Q-3.85 5.6 -3.6 5.5Q-3.15 3.8 -2.35 2.5L-1 0.6L-0.9 0.2L-0.8 0.1L-0.65 0L-0.5 -0.05Q-0.15 0.3 0.3 0.2L1.6 0.15L2.25 0.5L2.2 1.45" />
</g>
</svg>
