<?xml version="1.0" encoding="utf-8"?>
<svg version="1.1" id="Layer_1"
xmlns="http://www.w3.org/2000/svg"
xmlns:xlink="http://www.w3.org/1999/xlink"
width="28px" height="14px"
xml:space="preserve">
<g id="1071" transform="matrix(1, 0, 0, 1, 11.4, 11.65)">
<path style="fill:#3A3A3A;fill-opacity:1" d="M7.65,-9.55L6.95 -9.25L6.6 -8.8L7.8 -9.3L7.85 -9.25L8 -9.3L8.05 -9.35Q10.4 -9.65 10.65 -7.5L10.7 -7.35L10.65 -7.2L10.4 -6.35L9.85 -5.7Q10.15 -5.45 10.55 -5.7Q11.15 -6.05 11.4 -6.7Q11.65 -7.25 11.3 -7.65L11.8 -7.1L11.85 -6.65L12.45 -6.2L12.6 -5.5L12.55 -5L12.45 -4.9L12.15 -4.55Q12.25 -4.35 12.5 -4.45L12.85 -4.9L13.25 -4.65L13.3 -4.6L13.3 -4.5L13.4 -4.05L13.3 -3.65Q13.3 -3.25 12.95 -3Q12.45 -2.6 11.9 -2.5Q12.1 -2.05 12.75 -2.15Q13.65 -2.35 13.85 -3.1L13.9 -2.95L13.8 -2.75L13.75 -2.45L13.6 -2.05L13.4 -1.55L13.3 -1.45Q12.4 -0.1 10.7 -0.45Q10.65 -0.7 10.35 -0.6L9.25 -0.45L9.25 -0.55L9.2 -0.65L9.1 -0.75L8.65 -0.4L7.45 -0.15L7.7 -0.8Q7.75 -1.35 7.4 -1.75L7.3 -1.65L6.6 -0.45Q5.75 0.4 4.45 0.4L2.45 -0.15L0.25 -0.3L0.05 -0.35Q-0.8 0.15 -1.7 -0.35L-2.95 -0.3L-3.15 -0.35L-3.4 -0.45L-3.65 -0.6L-4.3 0L-4.95 0.45L-6.1 0.55L-6.65 0.25L-6.65 0.2L-6.75 0.15L-6.8 0.1L-6.8 0.15L-7.35 0.15L-8.2 0.15L-8.7 0.05Q-8.35 -0.45 -8.6 -0.9L-9.1 -0.45Q-10.05 0.15 -11.05 0.1L-11.15 0L-11.1 -0.45L-10.75 -0.85L-10.55 -1.05L-10.4 -0.85L-10.25 -0.75Q-10.1 -0.6 -10 -0.75L-9.95 -0.8L-10 -0.9L-10 -0.95L-10.1 -1.05L-10.3 -1.2L-10.35 -1.2L-10.35 -1.25L-10.3 -1.3L-10.35 -1.35L-10.3 -1.7L-9.75 -2.35L-8.5 -2.9L-8.45 -2.95L-8.55 -3.25L-9.05 -3.7L-9.25 -3.95L-9.15 -4.15L-8.45 -4.75Q-8 -5.1 -7.35 -5.05L-7.3 -5.05L-7.3 -5.3L-7.3 -5.5L-7.3 -5.6L-7.35 -5.75L-7.3 -5.8L-7.15 -6L-6.8 -6.15L-6.45 -6.35L-6.4 -6.35L-6.6 -7.25L-6.4 -7.65Q-5.3 -8.55 -3.85 -7.9L-3.45 -7.8L-3.45 -8L-3.75 -8.3L-3.75 -8.35L-3.8 -8.35L-3.85 -8.4L-3.8 -8.75L-3.75 -8.9L-3.5 -9.25L-3.05 -9.5L-3.05 -9.55L-3 -9.55L-2.9 -10L-2.55 -10.25Q-2.05 -10.3 -1.75 -9.9L-1.55 -9.85L-1.5 -9.9L-1.5 -10.15L-1.2 -10.45L-0.8 -10.5L-0.7 -10.5L-0.65 -10.55L-0.3 -10.75L0.45 -10.8L0.3 -10.5Q0.2 -10.15 0.5 -10.05L0.75 -10.75L0.85 -10.75L0.85 -10.8L0.85 -10.85L1.05 -11.05Q1.9 -11.65 2.45 -10.85L3.15 -10.05L3.15 -10.6L3.05 -10.8L3.2 -10.9Q3.7 -11.2 4.15 -10.9L4.3 -10.75L4.6 -10.75L5.25 -11.15L6.05 -11.25L6.2 -11.1L6.35 -10.85L6.45 -10.7L6.45 -10.65L7.3 -10.4L7.6 -10.1L7.75 -9.55L7.65 -9.55" />
<path style="fill:#666666;fill-opacity:1" d="M14.3,-2.25L14.75 -1.85L14.95 -1.7L14.85 -1.55L14.9 -1.35L14.95 -1.2Q14.7 -0.9 14.35 -0.9L14.2 -0.9L14.2 -1L14.05 -1.55L14.3 -2.25" />
<path style="fill:#1E1E1E;fill-opacity:1" d="M8.05,-9.65Q9.15 -9.85 10 -9.25Q10.75 -8.75 11 -7.95L11.25 -7.95L11.8 -7.7L12.1 -7.15L12.15 -6.8L12.85 -6.15L13 -5.3L12.95 -5.1L13.05 -5.1L13.6 -4.75L13.9 -4.1L13.9 -3.8L13.9 -3.65L14.15 -3.1L14.3 -2.4Q15.6 -2 15.75 -0.7Q15.9 0.55 14.5 0.25L13.45 0.15L12.65 0.2L12.15 0.65L11 0.8L10.95 0.95L10.9 1.05L10.8 1.2L10.7 1.25Q9.5 1.5 8.25 1.25L7.8 1.15L7.75 1.15L7.55 1.15L7.5 1.05L7.4 1.1L6.1 1.1L5.45 1.15Q4.8 0.85 4.15 1.15L3 1.35L2.95 1.3L2.5 1.05L2.15 0.75L2.05 0.65L1.95 0.65Q1.4 0.45 0.95 0.85L0.7 0.9L0.4 0.85L0.4 0.8L-0.2 0.6L-0.45 0.8Q-0.65 1.05 -1 1.05Q-1.6 1.05 -1.95 0.6L-2 0.55L-3 0.65L-3.1 0.6L-3.45 0.5L-4.35 1.25L-6.85 1.1Q-7.2 0.9 -7.1 0.55L-7.3 0.55L-8.05 0.55L-8.85 0.2Q-9.25 0.6 -9.85 0.65L-10.8 0.5L-11.2 0.1L-11.25 0.05L-11.2 0.05L-11.3 -0.05L-11.4 -0.45L-11.1 -1L-10.75 -1.3L-10.6 -1.4L-10.5 -1.9L-10 -2.55L-8.85 -3.1L-8.8 -3.1L-9.05 -3.25Q-9.7 -3.6 -9.4 -4.25L-9.2 -4.45L-9.05 -4.55Q-8.5 -5.3 -7.55 -5.4L-7.6 -5.45L-7.6 -5.75L-7.35 -6.25L-6.9 -6.45L-6.8 -6.55L-6.8 -6.6L-6.9 -7.3L-6.45 -8L-5.5 -8.4L-4.2 -8.4L-4.05 -8.4L-4.1 -8.6L-3.8 -9.3L-2.85 -10.3L-1.75 -10.35L-1.55 -10.5L-1.2 -10.7L-0.95 -10.75L-0.9 -10.8L-0.7 -10.95L-0.4 -11.1L-0.2 -11.15L0.4 -11.1L0.6 -11L0.85 -11.25Q1.2 -11.55 1.7 -11.65L2.55 -11.35L2.9 -11L3.8 -11.3L4.3 -11.15L4.4 -11.05L4.45 -11.05L4.85 -11.3L5.35 -11.55L5.4 -11.6L5.95 -11.55L6.4 -11.3L6.6 -11L7.5 -10.65L7.9 -10.15L8.05 -9.65M7.75,-9.55L7.6 -10.1L7.3 -10.4L6.45 -10.65L6.45 -10.7L6.35 -10.85L6.2 -11.1L6.05 -11.25L5.25 -11.15L4.6 -10.75L4.3 -10.75L4.15 -10.9Q3.7 -11.2 3.2 -10.9L3.05 -10.8L3.15 -10.6L3.15 -10.05L2.45 -10.85Q1.9 -11.65 1.05 -11.05L0.85 -10.85L0.85 -10.8L0.85 -10.75L0.75 -10.75L0.5 -10.05Q0.2 -10.15 0.3 -10.5L0.45 -10.8L-0.3 -10.75L-0.65 -10.55L-0.7 -10.5L-0.8 -10.5L-1.2 -10.45L-1.5 -10.15L-1.5 -9.9L-1.55 -9.85L-1.75 -9.9Q-2.05 -10.3 -2.55 -10.25L-2.9 -10L-3 -9.55L-3.05 -9.55L-3.05 -9.5L-3.5 -9.25L-3.75 -8.9L-3.8 -8.75L-3.85 -8.4L-3.8 -8.35L-3.75 -8.35L-3.75 -8.3L-3.45 -8L-3.45 -7.8L-3.85 -7.9Q-5.3 -8.55 -6.4 -7.65L-6.6 -7.25L-6.4 -6.35L-6.45 -6.35L-6.8 -6.15L-7.15 -6L-7.3 -5.8L-7.35 -5.75L-7.3 -5.6L-7.3 -5.5L-7.3 -5.3L-7.3 -5.05L-7.35 -5.05Q-8 -5.1 -8.45 -4.75L-9.15 -4.15L-9.25 -3.95L-9.05 -3.7L-8.55 -3.25L-8.45 -2.95L-8.5 -2.9L-9.75 -2.35L-10.3 -1.7L-10.35 -1.35L-10.3 -1.3L-10.35 -1.25L-10.35 -1.2L-10.3 -1.2L-10.1 -1.05L-10 -0.95L-10 -0.9L-9.95 -0.8L-10 -0.75Q-10.1 -0.6 -10.25 -0.75L-10.4 -0.85L-10.55 -1.05L-10.75 -0.85L-11.1 -0.45L-11.15 0L-11.05 0.1Q-10.05 0.15 -9.1 -0.45L-8.6 -0.9Q-8.35 -0.45 -8.7 0.05L-8.2 0.15L-7.35 0.15L-6.8 0.15L-6.8 0.1L-6.75 0.15L-6.65 0.2L-6.65 0.25L-6.1 0.55L-4.95 0.45L-4.3 0L-3.65 -0.6L-3.4 -0.45L-3.15 -0.35L-2.95 -0.3L-1.7 -0.35Q-0.8 0.15 0.05 -0.35L0.25 -0.3L2.45 -0.15L4.45 0.4Q5.75 0.4 6.6 -0.45L7.3 -1.65L7.4 -1.75Q7.75 -1.35 7.7 -0.8L7.45 -0.15L8.65 -0.4L9.1 -0.75L9.2 -0.65L9.25 -0.55L9.25 -0.45L10.35 -0.6Q10.65 -0.7 10.7 -0.45Q12.4 -0.1 13.3 -1.45L13.4 -1.55L13.6 -2.05L13.75 -2.45L13.8 -2.75L13.9 -2.95L13.85 -3.1Q13.65 -2.35 12.75 -2.15Q12.1 -2.05 11.9 -2.5Q12.45 -2.6 12.95 -3Q13.3 -3.25 13.3 -3.65L13.4 -4.05L13.3 -4.5L13.3 -4.6L13.25 -4.65L12.85 -4.9L12.5 -4.45Q12.25 -4.35 12.15 -4.55L12.45 -4.9L12.55 -5L12.6 -5.5L12.45 -6.2L11.85 -6.65L11.8 -7.1L11.3 -7.65Q11.65 -7.25 11.4 -6.7Q11.15 -6.05 10.55 -5.7Q10.15 -5.45 9.85 -5.7L10.4 -6.35L10.65 -7.2L10.7 -7.35L10.65 -7.5Q10.4 -9.65 8.05 -9.35L8 -9.3L7.85 -9.25L7.8 -9.3L6.6 -8.8L6.95 -9.25L7.65 -9.55L7.75 -9.55M14.05,-1.55L14.2 -1L14.2 -0.9L14.35 -0.9Q14.7 -0.9 14.95 -1.2L14.9 -1.35L14.85 -1.55L14.95 -1.7L14.75 -1.85L14.3 -2.25L14.05 -1.55" />
</g>
</svg>
