<?xml version="1.0" encoding="utf-8"?>
<svg version="1.1" id="Layer_1"
xmlns="http://www.w3.org/2000/svg"
xmlns:xlink="http://www.w3.org/1999/xlink"
width="14px" height="10px"
xml:space="preserve">
<g id="527" transform="matrix(1, 0, 0, 1, 2.2, 8.35)">
<path style="fill:#000000;fill-opacity:1" d="M4.35,-5.8L5.1 -7.7L5.05 -8.25L7 -8.35L10.6 -7.85L11 -7.3L10.85 -6.15L10.75 -5.45Q10.5 -4.4 9.6 -3.85L8.9 -3.25L8.95 -2.8L9.15 -2.15L9.1 -1.6L8.9 -0.65Q8.9 -0.05 8.35 0.35L7.55 0.6L5.4 0.8L5.1 0.65L4.7 0.7L1 -0.35L0.75 -0.6L0.4 -0.7L-2.05 -1.85L-2.2 -2.7L-1.8 -3.05L-1.35 -3.25L-1.4 -4.5L0.15 -4.4L0.45 -4.35L1.6 -4.25L2.35 -4.4L4.4 -3.85L4.35 -5.8" />
</g>
</svg>
