<?xml version="1.0" encoding="utf-8"?>
<svg version="1.1" id="Layer_1"
xmlns="http://www.w3.org/2000/svg"
xmlns:xlink="http://www.w3.org/1999/xlink"
width="60px" height="43px"
xml:space="preserve">
<g id="496" transform="matrix(1, 0, 0, 1, -15.7, 8)">
<path style="fill:#BD8051;fill-opacity:1" d="M61.85,22.7L59.2 30.35L58.75 30.35L61.4 22.7L61.85 22.7M64.2,22.7L61.55 30.35L61.1 30.35L63.75 22.7L64.2 22.7M68.75,22.7L66.1 30.35L65.65 30.35L68.3 22.7L68.75 22.7M66.4,22.7L63.75 30.35L63.3 30.35L65.95 22.7L66.4 22.7M75.5,22.7L72.85 30.35L72.4 30.35L75.05 22.7L75.5 22.7M73.3,22.7L70.65 30.35L70.2 30.35L72.85 22.7L73.3 22.7M70.95,22.7L68.3 30.35L67.85 30.35L70.5 22.7L70.95 22.7M59.65,22.7L57 30.35L56.55 30.35L59.2 22.7L59.65 22.7" />
<path style="fill:#BD8051;fill-opacity:0.705882" d="M45.45,2.9L45.9 3.8Q45.9 4.35 45.45 4.7Q45.15 5.1 44.65 5.1Q44.15 5.1 43.7 4.7Q43.4 4.35 43.4 3.8Q43.4 3.25 43.7 2.9Q44.15 2.55 44.65 2.55Q45.15 2.55 45.45 2.9" />
<path style="fill:#BD8051;fill-opacity:0.705882" d="M28.65,-2.15Q29.15 -2.15 29.45 -1.8L29.9 -0.9Q29.9 -0.35 29.45 0Q29.15 0.4 28.65 0.4Q28.15 0.4 27.7 0Q27.4 -0.35 27.4 -0.9Q27.4 -1.45 27.7 -1.8L28.65 -2.15M45.45,7.2L45.9 8.1Q45.9 8.65 45.45 9Q45.15 9.4 44.65 9.4Q44.15 9.4 43.7 9Q43.4 8.65 43.4 8.1Q43.4 7.55 43.7 7.2Q44.15 6.85 44.65 6.85Q45.15 6.85 45.45 7.2" />
<path style="fill:#BD8051;fill-opacity:0.705882" d="M63.5,15.55L63.2 15.65L16.1 15.65L15.85 15.55L15.7 15.25L15.85 15L16.1 14.85L63.2 14.85Q63.35 14.85 63.5 15L63.6 15.25L63.5 15.55M43.7,10.6Q44.15 10.25 44.65 10.25Q45.15 10.25 45.45 10.6L45.9 11.5Q45.9 12.05 45.45 12.4Q45.15 12.8 44.65 12.8Q44.15 12.8 43.7 12.4Q43.4 12.05 43.4 11.5Q43.4 10.95 43.7 10.6M71.25,34.35L70.95 34.45L27.9 34.45L27.65 34.35L27.5 34.05L27.65 33.8Q27.75 33.65 27.9 33.65L70.95 33.65L71.25 33.8L71.35 34.05L71.25 34.35M31.95,1.5L32.4 2.4Q32.4 2.95 31.95 3.3Q31.65 3.7 31.15 3.7Q30.65 3.7 30.2 3.3Q29.9 2.95 29.9 2.4Q29.9 1.85 30.2 1.5Q30.65 1.15 31.15 1.15Q31.65 1.15 31.95 1.5" />
<path style="fill:#BD8051;fill-opacity:0.705882" d="M31.95,5.8L32.4 6.7Q32.4 7.25 31.95 7.6Q31.65 8 31.15 8Q30.65 8 30.2 7.6Q29.9 7.25 29.9 6.7Q29.9 6.15 30.2 5.8Q30.65 5.45 31.15 5.45Q31.65 5.45 31.95 5.8" />
<path style="fill:#BD8051;fill-opacity:0.705882" d="M27.7,9.5Q28.15 9.15 28.65 9.15Q29.15 9.15 29.45 9.5L29.9 10.4Q29.9 10.95 29.45 11.3Q29.15 11.7 28.65 11.7Q28.15 11.7 27.7 11.3Q27.4 10.95 27.4 10.4Q27.4 9.85 27.7 9.5M18.8,14.5L19.5 14.5L19.15 14.55L18.8 14.5" />
<path style="fill:#BD8051;fill-opacity:0.705882" d="M36,2.15Q35.7 1.8 35.7 1.25Q35.7 0.7 36 0.35Q36.45 0 36.95 0Q37.45 0 37.75 0.35L38.2 1.25Q38.2 1.8 37.75 2.15Q37.45 2.55 36.95 2.55Q36.45 2.55 36 2.15" />
<path style="fill:#BD8051;fill-opacity:0.705882" d="M42.7,-0.15Q42.7 0.4 42.25 0.75Q41.95 1.15 41.45 1.15Q40.95 1.15 40.5 0.75Q40.2 0.4 40.2 -0.15Q40.2 -0.7 40.5 -1.05L41.45 -1.4Q41.95 -1.4 42.25 -1.05L42.7 -0.15" />
<path style="fill:#BD8051;fill-opacity:0.705882" d="M44.5,-1.3Q44.5 -1.85 44.8 -2.2L45.75 -2.55Q46.25 -2.55 46.55 -2.2L47 -1.3Q47 -0.75 46.55 -0.4Q46.25 0 45.75 0Q45.25 0 44.8 -0.4Q44.5 -0.75 44.5 -1.3" />
<path style="fill:#BD8051;fill-opacity:0.705882" d="M49.85,-4.45Q49.85 -3.9 49.4 -3.55Q49.1 -3.15 48.6 -3.15Q48.1 -3.15 47.65 -3.55Q47.35 -3.9 47.35 -4.45Q47.35 -5 47.65 -5.35L48.6 -5.7Q49.1 -5.7 49.4 -5.35Q49.85 -5 49.85 -4.45" />
<path style="fill:#BD8051;fill-opacity:0.705882" d="M51.6,-8Q52.1 -8 52.4 -7.65Q52.85 -7.3 52.85 -6.75Q52.85 -6.2 52.4 -5.85Q52.1 -5.45 51.6 -5.45Q51.1 -5.45 50.65 -5.85Q50.35 -6.2 50.35 -6.75Q50.35 -7.3 50.65 -7.65L51.6 -8" />
<path style="fill:none;stroke-width:0.7;stroke-linecap:round;stroke-linejoin:round;stroke-miterlimit:3;stroke:#BD8051;stroke-opacity:0.705882" d="M54.25,7.65L61 7.65L63.25 10.4L63.25 13.55M60.5,12.3L51.85 12.3M54,-6.15L47.3 0.65L47.05 9.2M29.3,14.2L35.8 3.95L30.7 -2.7M35.8,3.95L47.3 0.65" />
<path style="fill:none;stroke-width:0.7;stroke-linecap:round;stroke-linejoin:round;stroke-miterlimit:3;stroke:#8C5F3C;stroke-opacity:1" d="M51.9,16.9Q51.9 18.15 52.4 19Q53 19.95 53.75 19.95L60.75 19.95Q61.5 19.95 62 19Q62.6 18.15 62.6 16.9M37.2,16.9Q37.2 18.25 37.7 19.1Q38.3 20.05 39.05 20.05L46.05 20.05Q46.8 20.05 47.3 19.1Q47.9 18.25 47.9 16.9M22.65,16.9Q22.65 18.25 23.15 19.1Q23.75 20.05 24.5 20.05L31.5 20.05Q32.25 20.05 32.75 19.1Q33.35 18.25 33.35 16.9" />
</g>
</svg>
