<?xml version="1.0" encoding="utf-8"?>
<svg version="1.1" id="Layer_1"
xmlns="http://www.w3.org/2000/svg"
xmlns:xlink="http://www.w3.org/1999/xlink"
width="22px" height="14px"
xml:space="preserve">
<g id="892" transform="matrix(1, 0, 0, 1, -1.05, -7.25)">
<path style="fill:#000000;fill-opacity:1" d="M22.15,12Q22.5 12.5 22.05 13.15L19.85 13L19.35 13.05L18.15 13.4L15.95 14.15Q15.05 14.4 14.2 14.95L12.8 15.05Q11.2 14.95 10.3 15.4L10.5 16.15Q11.05 17.3 10.75 18.35L10.65 18.45L10.2 18.9Q9.25 19.35 8.25 19.9L7.55 20.25L6.75 20.65L5.35 20.55L5.25 20.45L4.8 19.8Q4.25 18.95 4.95 18.1Q5.9 17.75 6.75 18.1L8.1 17.35Q8.5 16.3 7.9 15.35L6.95 15.2L6.8 15.45L6.2 16.45Q5.9 16.8 5.35 16.95L3.25 16.75L2.6 16.15Q2.3 15.65 1.75 15.6L1.1 14.75Q0.9 13.8 1.65 13.1L2.25 12.9L2.85 12.4Q3.35 12.1 3.8 11.95L5.6 10.85L6.6 10L7.2 9.8L9.25 9.6L11 10.2L11.65 9.8L13.1 9.3L13.75 9.1L15.6 8.2L16.9 7.4L17.6 7.3Q18.45 7.65 19 8.35L19 8.5Q19.3 9.2 18.85 9.65Q18.25 10.1 17.45 9.95L15.25 11.15L15.95 11.2L17.9 10.45L19.8 9.7Q20.55 9.35 21 10.05L21.7 11.15L22.15 12" />
</g>
</svg>
