<?xml version="1.0" encoding="utf-8"?>
<svg version="1.1" id="Layer_1"
xmlns="http://www.w3.org/2000/svg"
xmlns:xlink="http://www.w3.org/1999/xlink"
width="12px" height="14px"
xml:space="preserve">
<g id="1061" transform="matrix(1, 0, 0, 1, -1.15, -1.05)">
<path style="fill:#FFFF00;fill-opacity:1" d="M11.9,4.15L10.1 5.1L9.35 4.95L10.45 4.1L11.9 4.15M4.35,6.1L1.95 3.95L1.15 1.05L3.05 3.1L4.35 6.1M7.9,8.35L9.6 11.4L6.95 9.65L6.4 13.1L6 9.8L5.1 12.1L5.25 9.45L2.8 9.05L5.2 8.7L3.15 6.85L5.55 7.85L6.6 5.15L6.85 7.25L9.1 6.8L7.9 8.35M10.85,12.6L11.25 12.15L12.5 13.1L12.45 14.4L10.85 12.6" />
</g>
</svg>
