<?xml version="1.0" encoding="utf-8"?>
<svg version="1.1" id="Layer_1"
xmlns="http://www.w3.org/2000/svg"
xmlns:xlink="http://www.w3.org/1999/xlink"
width="23px" height="18px"
xml:space="preserve">
<g id="566" transform="matrix(1, 0, 0, 1, 8.6, -5)">
<path style="fill:#1E1E1E;fill-opacity:1" d="M10.5,11.9L10.5 11.75L10.35 11.5L10.05 11.3L9.9 11.4L9.7 11.45L9.6 11.65L9.6 11.75L9.6 11.9L9.65 11.95L9.7 12.15L10.35 12.15L10.5 11.9M11,12.15L10.8 12.65Q10.15 13.15 9.5 12.65L9.5 12.45L9.25 11.95Q9.15 11.4 9.5 11.1Q9.8 10.8 10.05 10.8L10.55 11.1L10.8 11.75L11 12.15M4.55,5Q5.65 5.05 5.2 6.4Q4.75 8 3.85 6.7Q3.7 6.5 3.8 6.15Q4.1 5.4 4.55 5M4.45,5.85L4.3 6.25L4.1 6.25Q4.1 7.05 4.55 6.7L5 6L4.95 5.55L4.85 5.5L4.65 5.5L4.45 5.85M8.05,21.25L7.8 20.75L7.3 20.55L7.1 20.25L7.1 20.15L8.05 19.9L8.15 19.75L8.35 19.2L8.35 18.9Q8.2 18.75 8.05 18.7L7.95 18.7Q7.65 18.85 7.55 18.55Q7.75 18.2 8.25 18L8.4 17.9L8.95 16.65Q9.55 14.85 8.4 13.5Q7.7 12.75 6.7 12.75L6.55 13.15Q6.4 13.35 6.3 13.15L6.25 13.1L6.25 12.95L6.3 12.8L6.3 12.65L6.25 12.65L6.25 12.6L6.2 12.6L6.15 12.5Q6.1 11.95 6.55 11.6L6.95 11.1L6.65 10.9L6.95 10.25Q7.1 9.75 6.8 9.4L6.65 9.45Q6.35 9.6 6.25 9.9L6.2 9.95L6.2 10.2L6.15 10.2L6 10.3L6.15 10.4L6.4 10.6L6.4 10.8Q6.2 11.05 5.85 10.8L5.7 10.4L5.7 10.1L5.8 9.95L5.7 9.9Q4.95 9.2 4.4 9.9L4.25 10.05Q4.3 10.75 3.65 11.25Q2.95 11.75 2.8 10.95L3 10.9Q3.55 11.05 3.7 10.3L3.5 9.4L3.55 9.25Q3.35 8.9 2.8 8.9Q2.25 8.9 2 9.6L1.85 10.05L2.1 10.65L1.35 10.6Q0.85 10.4 0.4 10.8Q0.05 11.05 0.05 11.5L0.05 12.25L0.05 12.45L-0.15 12.5L-0.45 13Q-0.75 13.15 -0.75 12.85L-0.6 12.3L-0.55 12.15L-1.15 11.75Q-1.45 11.6 -1.75 11.75Q-2.75 12.25 -2.4 13.3L-2 13.6L-1.45 13.45L-1.05 13.3L-0.75 13.3L-0.55 13.35L-0.5 13.35Q-0.4 13.85 -0.6 14.3L-0.75 14.95Q-0.95 15.85 -1.6 15.35L-2 15L-2 14.7L-3 15.15Q-3.7 15.5 -3.8 16.5Q-3.9 17.25 -3.6 18.1L-4.05 19.1L-4.2 20.75L-4.55 20.75Q-4.65 19.75 -4.4 18.75L-4 18L-4.2 17.25L-4.15 16.2Q-3.85 15 -2.9 14.5L-2.35 14.3L-2.05 14.35L-2 14.35L-1.95 14.15L-2.55 13.8Q-3.05 13.45 -3.05 12.75Q-3.05 11.9 -2.4 11.3Q-2.05 10.95 -1.7 10.9L-0.75 11.1L-0.4 11.45L-0.4 11.15L-0.15 10.55Q0.25 9.95 0.85 9.9L1.25 9.8L1.5 9.9L1.7 9.45L2.1 8.75Q2.35 8.55 2.55 8.45Q3.65 8.35 4.1 9.4L4.55 9.05Q4.7 8.95 4.8 8.9Q5.15 8.95 5.5 9.2L6 9.7L6 9.6L6.35 9.1L6.8 8.9L6.95 8.9L6.95 9.05L7.05 9.05L7.35 9.55Q7.7 9.9 7.55 10.6Q7.5 11.25 7.05 11.65L6.55 12.25L6.65 12.45Q6.7 12.35 6.8 12.35L6.85 12.3Q8.4 12.25 9.2 14Q9.95 15.65 9.25 17.4Q8.95 18.2 8.5 18.4L8.65 18.75L8.6 19.75L8.35 20.3L8.35 20.4L8.25 20.4L8.2 20.45L8.5 21.95L8.5 22.2L8.15 22.25L8.05 21.25M7.8,6.5L7.75 6.55L7.65 6.55L7.55 7L7.4 7.4L7.55 7.85L7.85 7.6L8.05 7.15L8.1 6.85L8.1 6.75L8.05 6.65L7.95 6.5L7.8 6.5M7.1,6.9Q7.25 6.2 7.8 6.05Q9.05 6.7 8.1 8.1Q7.35 9.2 7.05 8Q6.95 7.4 7.1 6.9M9.25,18.05Q11 18.95 10.6 21.4L10.55 21.8L8.8 22.2L8.7 21.75L9 19.25L8.95 19.05L8.95 18.75L9.05 18.25L9.25 18.05M9.5,18.75L9.4 20.05Q9.15 20.6 9.05 21.25Q9 21.6 9.1 21.95Q9.95 21.75 10.05 20.6Q10.1 19.7 9.8 19.05L9.5 18.75M11.35,17.85L11.9 17.75L12.2 17.85L12.45 17.7L12.65 17.6L13.1 17.7Q13.25 17.7 13.45 17.85L13.55 18L13.5 18.2Q13.1 19.05 12.35 18.75L12.25 18.7Q11.9 19.4 11.25 18.85Q10.9 18.55 11 18.05Q11.2 17.9 11.35 17.85M11.8,18.2L11.65 18.25L11.5 18.35L11.4 18.4L11.55 18.6L11.95 18.55L11.95 18.4L12 18.4L12.1 18.35L11.95 18.2L11.8 18.2M12.45,18.25L13.1 18.1Q12.8 17.9 12.5 18.1L12.45 18.1L12.45 18.25M-5.4,8.6Q-5.4 7.85 -4.8 7.6Q-3.75 7.6 -3 8.7Q-2.6 9.1 -2.55 9.45Q-2.25 10.2 -2.9 10.8Q-3.55 11.3 -4.2 10.8Q-4.7 10.45 -4.45 9.95L-5.15 9.55L-5.4 8.6M-3.7,8.55L-3.75 9.4Q-3.9 9.8 -3.55 10.05L-3.15 10.1Q-2.9 9.75 -3.05 9.4Q-3.2 8.95 -3.55 8.6L-3.7 8.55M-4.45,8.1L-4.85 8L-5.1 8.75L-4.75 9.4L-4.3 9.45Q-4 9.2 -4.05 8.7Q-4.05 8.25 -4.45 8.1M-1.55,14.85L-1.3 15.15L-1.15 14.7L-0.95 14.1Q-0.9 13.8 -1 13.7L-1.45 14.15Q-1.7 14.5 -1.55 14.85M-4.45,12.8Q-3.4 13.3 -4.3 14.45L-5.1 14.35Q-5.6 13.7 -5 13.1L-4.45 12.8M-4.3,13.45L-4.55 13.35L-4.6 13.35L-4.7 13.5L-4.7 13.65L-4.6 13.85L-4.6 14.15L-4.6 14.2L-4.4 14.1L-4.35 14.1L-4.3 13.95L-4.25 13.7L-4.25 13.5L-4.3 13.45M-6.15,19.9L-6.2 19.9L-6.9 19.8L-7 19.9L-7.05 19.95L-7.05 20.05L-6.1 20.1L-6 20.1L-6.1 19.95L-6.15 19.9M-5.6,19.75Q-5.55 20.9 -6.7 20.6Q-7.25 20.45 -7.85 20.6L-8.55 20.45L-8.45 19.95Q-8.05 19.55 -7.45 19.4L-6.75 19.25L-6.65 19.25Q-6.4 19.1 -6.2 19.25L-5.85 19.55L-5.6 19.75M-7.45,19.75L-7.7 19.9L-7.95 19.95L-8.15 20.1L-7.45 19.95L-7.4 19.75L-7.45 19.75" />
<path style="fill:#3A3A3A;fill-opacity:1" d="M10.35,12.15L9.7 12.15L9.65 11.95L9.6 11.9L9.6 11.75L9.6 11.65L9.7 11.45L9.9 11.4L10.05 11.3L10.35 11.5L10.5 11.75L10.5 11.9L10.35 12.15M4.65,5.5L4.85 5.5L4.95 5.55L5 6L4.55 6.7Q4.1 7.05 4.1 6.25L4.3 6.25L4.45 5.85L4.65 5.5M-4.2,20.75L-4.05 19.1L-3.6 18.1Q-3.9 17.25 -3.8 16.5Q-3.7 15.5 -3 15.15L-2 14.7L-2 15L-1.6 15.35Q-0.95 15.85 -0.75 14.95L-0.6 14.3Q-0.4 13.85 -0.5 13.35L-0.55 13.35L-0.75 13.3L-1.05 13.3L-1.45 13.45L-2 13.6L-2.4 13.3Q-2.75 12.25 -1.75 11.75Q-1.45 11.6 -1.15 11.75L-0.55 12.15L-0.6 12.3L-0.75 12.85Q-0.75 13.15 -0.45 13L-0.15 12.5L0.05 12.45L0.05 12.25L0.05 11.5Q0.05 11.05 0.4 10.8Q0.85 10.4 1.35 10.6L2.1 10.65L1.85 10.05L2 9.6Q2.25 8.9 2.8 8.9Q3.35 8.9 3.55 9.25L3.5 9.4L3.7 10.3Q3.55 11.05 3 10.9L2.8 10.95Q2.95 11.75 3.65 11.25Q4.3 10.75 4.25 10.05L4.4 9.9Q4.95 9.2 5.7 9.9L5.8 9.95L5.7 10.1L5.7 10.4L5.85 10.8Q6.2 11.05 6.4 10.8L6.4 10.6L6.15 10.4L6 10.3L6.15 10.2L6.2 10.2L6.2 9.95L6.25 9.9Q6.35 9.6 6.65 9.45L6.8 9.4Q7.1 9.75 6.95 10.25L6.65 10.9L6.95 11.1L6.55 11.6Q6.1 11.95 6.15 12.5L6.2 12.6L6.25 12.6L6.25 12.65L6.3 12.65L6.3 12.8L6.25 12.95L6.25 13.1L6.3 13.15Q6.4 13.35 6.55 13.15L6.7 12.75Q7.7 12.75 8.4 13.5Q9.55 14.85 8.95 16.65L8.4 17.9L8.25 18Q7.75 18.2 7.55 18.55Q7.65 18.85 7.95 18.7L8.05 18.7Q8.2 18.75 8.35 18.9L8.35 19.2L8.15 19.75L8.05 19.9L7.1 20.15L7.1 20.25L7.3 20.55L7.8 20.75L8.05 21.25L8.15 22.25L3.7 21.75L1.05 21.1L-4.2 20.75M7.95,6.5L8.05 6.65L8.1 6.75L8.1 6.85L8.05 7.15L7.85 7.6L7.55 7.85L7.4 7.4L7.55 7L7.65 6.55L7.75 6.55L7.8 6.5L7.95 6.5M9.8,19.05Q10.1 19.7 10.05 20.6Q9.95 21.75 9.1 21.95Q9 21.6 9.05 21.25Q9.15 20.6 9.4 20.05L9.5 18.75L9.8 19.05M11.95,18.2L12.1 18.35L12 18.4L11.95 18.4L11.95 18.55L11.55 18.6L11.4 18.4L11.5 18.35L11.65 18.25L11.8 18.2L11.95 18.2M12.45,18.1L12.5 18.1Q12.8 17.9 13.1 18.1L12.45 18.25L12.45 18.1M-3.55,8.6Q-3.2 8.95 -3.05 9.4Q-2.9 9.75 -3.15 10.1L-3.55 10.05Q-3.9 9.8 -3.75 9.4L-3.7 8.55L-3.55 8.6M-4.05,8.7Q-4 9.2 -4.3 9.45L-4.75 9.4L-5.1 8.75L-4.85 8L-4.45 8.1Q-4.05 8.25 -4.05 8.7M-4.25,13.5L-4.25 13.7L-4.3 13.95L-4.35 14.1L-4.4 14.1L-4.6 14.2L-4.6 14.15L-4.6 13.85L-4.7 13.65L-4.7 13.5L-4.6 13.35L-4.55 13.35L-4.3 13.45L-4.25 13.5M-6.1,19.95L-6 20.1L-6.1 20.1L-7.05 20.05L-7.05 19.95L-7 19.9L-6.9 19.8L-6.2 19.9L-6.15 19.9L-6.1 19.95M-7.4,19.75L-7.45 19.95L-8.15 20.1L-7.95 19.95L-7.7 19.9L-7.45 19.75L-7.4 19.75" />
</g>
</svg>
