<?xml version="1.0" encoding="utf-8"?>
<svg version="1.1" id="Layer_1"
xmlns="http://www.w3.org/2000/svg"
xmlns:xlink="http://www.w3.org/1999/xlink"
width="21px" height="12px"
xml:space="preserve">
<g id="1069" transform="matrix(1, 0, 0, 1, 8.8, 10.5)">
<path style="fill:#3A3A3A;fill-opacity:1" d="M5.6,-9.4Q5.85 -8.8 6.45 -8.2L7.5 -6.65L7.5 -6.6L7.6 -6.5L7.65 -6.5L8.1 -6.2L8.6 -5.7L8.6 -5.1L8.5 -4.6L8.35 -4.15L8.6 -3.7L9.05 -1.95L9.1 -1.6L9.75 -1.7L10.3 -1.1Q10.7 -0.55 10.85 -1Q10.5 -1.3 10.7 -1.25L11.25 -0.75L11.6 -0.25L11.4 0.05L10.3 0.5L8.4 0.4L7.85 0.7L3.7 0.45L2.25 0.35L1.75 0.4L1.35 0.25L0.15 0.35L-0.25 0.35L-1.45 0.25L-2.05 0.35L-2.1 0.35L-2.3 0.35L-3.15 0.45L-3.2 0.45L-3 0.55L-4.95 0.75L-5.95 0.65L-5.9 0.55Q-6 0.2 -5.6 -0.1L-5.6 -0.15L-8.4 -0.35L-7.9 -0.75L-6.95 -1.6L-7 -1.65L-7 -1.75L-6.95 -1.85L-6.75 -2.05L-6.65 -2.2L-6.8 -2.5L-6.95 -2.65L-7.1 -3.35L-7 -3.3L-6.95 -3.4L-7 -3.5L-7.05 -3.85L-7.05 -3.9L-5.7 -5.35L-5.5 -5.45L-5.25 -5.25Q-5.4 -6.8 -3.95 -7.2L-3.85 -7L-3.2 -7.6L-2.5 -7.4L-2.9 -8.65Q-2.6 -9.45 -2.25 -9.15L-2.15 -8.95L-2.1 -9L-1.8 -9.45L-1.75 -9.65L-1.3 -9.95L-0.95 -10.05L-0.75 -10L-0.3 -9.95L0.05 -9.9L0.5 -9.85L0.9 -10Q1.7 -10.05 2.15 -9.65L2.1 -9.5Q2.45 -9.35 3.1 -9.85L3.85 -10.1L4.15 -10.25L4.2 -10.3L4.75 -10.05L5.3 -9.55L5.35 -9.5Q5.45 -9.4 5.6 -9.4" />
<path style="fill:#1E1E1E;fill-opacity:1" d="M5.65,-9.6L6.7 -8.6Q7.7 -7.7 7.8 -6.7Q9.55 -5.95 8.7 -4.3L9 -3.45L9.4 -2.1L10.45 -1.5L10.95 -1.45L11.95 -0.4L11.9 -0.1L11.55 0.5L8.5 0.65Q8.1 0.45 8 0.95L3.1 0.75L3.75 0.65L1.7 0.6L0.25 0.6Q-0.85 0.45 -1.9 0.6L-2.95 0.55L-3.75 0.75L-6 0.9L-6.15 0.75L-6.2 0.5L-6.25 0.35L-6.05 0.1L-6.15 0.05L-7.4 0Q-8.45 0 -8.8 -0.35L-8.7 -0.55L-8.25 -0.85L-8.15 -0.85L-8 -1.25L-7.45 -1.75L-7 -2.15L-7.15 -2.65L-7.15 -3.5L-7.2 -3.6L-7.25 -4L-7.15 -4.15L-6.45 -4.8Q-6.35 -5.45 -5.6 -5.75L-5.6 -5.9Q-5.4 -6.95 -4.55 -7.2L-3.95 -7.6L-3.15 -7.95L-3.1 -8.85L-1.8 -9.85L-1.7 -9.9L-1.2 -10.3L-0.9 -10.3L-0.75 -10.35L-0.7 -10.4L-0.2 -10.35L0.2 -10.2L0.25 -10.15Q1.35 -10.55 2.35 -9.9L2.45 -9.95Q3.15 -10.6 4.05 -10.45L4.05 -10.5L4.2 -10.5L4.9 -10.35L5.45 -9.9L5.65 -9.6M5.35,-9.5L5.3 -9.55L4.75 -10.05L4.2 -10.3L4.15 -10.25L3.85 -10.1L3.1 -9.85Q2.45 -9.35 2.1 -9.5L2.15 -9.65Q1.7 -10.05 0.9 -10L0.5 -9.85L0.05 -9.9L-0.3 -9.95L-0.75 -10L-0.95 -10.05L-1.3 -9.95L-1.75 -9.65L-1.8 -9.45L-2.1 -9L-2.15 -8.95L-2.25 -9.15Q-2.6 -9.45 -2.9 -8.65L-2.5 -7.4L-3.2 -7.6L-3.85 -7L-3.95 -7.2Q-5.4 -6.8 -5.25 -5.25L-5.5 -5.45L-5.7 -5.35L-7.05 -3.9L-7.05 -3.85L-7 -3.5L-6.95 -3.4L-7 -3.3L-7.1 -3.35L-6.95 -2.65L-6.8 -2.5L-6.65 -2.2L-6.75 -2.05L-6.95 -1.85L-7 -1.75L-7 -1.65L-6.95 -1.6L-7.9 -0.75L-8.4 -0.35L-5.6 -0.15L-5.6 -0.1Q-6 0.2 -5.9 0.55L-5.95 0.65L-4.95 0.75L-3 0.55L-3.2 0.45L-3.15 0.45L-2.3 0.35L-2.1 0.35L-2.05 0.35L-1.45 0.25L-0.25 0.35L0.15 0.35L1.35 0.25L1.75 0.4L2.25 0.35L3.7 0.45L7.85 0.7L8.4 0.4L10.3 0.5L11.4 0.05L11.6 -0.25L11.25 -0.75L10.7 -1.25Q10.5 -1.3 10.85 -1Q10.7 -0.55 10.3 -1.1L9.75 -1.7L9.1 -1.6L9.05 -1.95L8.6 -3.7L8.35 -4.15L8.5 -4.6L8.6 -5.1L8.6 -5.7L8.1 -6.2L7.65 -6.5L7.6 -6.5L7.5 -6.6L7.5 -6.65L6.45 -8.2Q5.85 -8.8 5.6 -9.4Q5.45 -9.4 5.35 -9.5" />
</g>
</svg>
