<?xml version="1.0" encoding="utf-8"?>
<svg version="1.1" id="Layer_1"
xmlns="http://www.w3.org/2000/svg"
xmlns:xlink="http://www.w3.org/1999/xlink"
width="142px" height="29px"
xml:space="preserve">
<g id="153" transform="matrix(1, 0, 0, 1, -15.35, -3.35)">
<path style="fill:none;stroke-width:1;stroke-linecap:round;stroke-linejoin:round;stroke-miterlimit:3;stroke:#C7E9FD;stroke-opacity:1" d="M139.8,15.25L138.75 12.95L147.15 13.5L150 11.5L150.3 12.95L152.05 11L153.7 11.9L155.7 12.15M139.35,17.65L139.15 16.55L145.8 15.95L147.3 16.95M149.35,20.2L150.95 20.9M156.15,14.75L154.8 16.1L151.35 15.3L149.55 17.4L148.25 15.3L144.4 15M146,9.95L137.7 7.7L133.15 10.1L128.85 9.35M125.7,22.55L130.3 20.4L135.75 19.9L137.4 17.95M135.1,13.65L125.6 11.85L118.3 15.5L107.85 17.35L105.4 18.1M114.4,6.9L107.85 7.5L104.95 8.75L101.6 15.4L91.7 18.9L97.3 21.75L101.9 25.5M105.3,20.9L107.85 23.85L109.5 24.35L118.6 22.05L121 23.4M91.7,18.9L86.95 19.65L83.7 13L78.15 9.15L74.75 12.7L73.35 11.05L68 12.75M86.95,19.65L90.15 14.1L94.15 14.05L100.45 9.5M74.2,18.5L76.2 16.9L85.25 26.25L91.15 27.05L90.75 31M71.8,3.85L75 3.85L77.3 8.15M58.15,13.45L61.25 19.45L68.75 14.55L74.75 23.15M54.7,10.9L48.7 8.95L45.55 11.25L39.4 13.4L26.15 15.65L28.4 16.1L29.4 15.95M18.35,17.65L28.4 16.1L33.45 17.15L45.55 15.15L46.85 14.7M23.45,15.6L19.2 14.8L15.85 16.15" />
</g>
</svg>
