<?xml version="1.0" encoding="utf-8"?>
<svg version="1.1" id="Layer_1"
xmlns="http://www.w3.org/2000/svg"
xmlns:xlink="http://www.w3.org/1999/xlink"
width="74px" height="51px"
xml:space="preserve">
<g id="492" transform="matrix(1, 0, 0, 1, -14.1, 8.45)">
<path style="fill:#000000;fill-opacity:1" d="M40.45,-7.6L53.1 -8.45L54.65 -8.35L57.25 -8.1L57.25 16.85L80.8 16.85L81.45 22.7L78.6 22.7Q78.55 27.95 75.15 32.15Q73.25 34.5 70.35 36.55Q62.1 42.35 50.4 42.35Q38.7 42.35 30.5 36.55Q22.3 30.85 22.25 22.7L19.25 22.7Q19.4 19.8 20.05 16.7L14.1 16.7Q14.85 12.95 16.1 9.05L16.3 8.65L17.4 6.65Q19 4.15 21.1 2.05Q22.5 0.65 24.2 -0.6L29.85 -4Q32.85 -5.55 36.2 -6.5L40.45 -7.6" />
<path style="fill:#000000;fill-opacity:1" d="M57.3,-1.4Q57.75 -1.8 58.35 -1.8L69 -1.8L71.25 -3.9L71.25 -5.3L70.6 -5.3L69.6 -8.25L76.95 -8.25L75.85 -5.3L75.2 -5.3L75.2 -3.5L73.6 -1.8L74.25 -1.8Q74.85 -1.8 75.3 -1.4L75.75 -0.55L75.75 4.4L78.55 4.4Q79.15 4.4 79.6 4.75Q80.05 5.1 80.05 5.6L80.05 12.2L79.95 12.7L79.55 13.15L70.55 19.65Q70.1 20 69.5 19.95Q68.85 19.9 68.45 19.55L68.35 19.45L66.65 19.65L55.9 19.65Q53.6 19.65 51.9 18.35Q50.25 17.2 50.25 15.5L50.25 15.05Q50.25 13.35 51.9 12.1L52.25 11.9Q51.7 11.35 51.7 10.6L51.7 10.55L51.75 10.3L51.55 10.3Q49.25 10.3 47.55 9Q45.9 7.85 45.9 6.15L45.9 5.7Q45.9 4 47.55 2.75Q49.25 1.6 51.55 1.6L56.85 1.6L56.85 -0.55Q56.85 -1.05 57.3 -1.4M87.4,17.25Q87.1 20.2 83.25 20.2L83.3 21.15L81.7 21.15L81.7 22.15L80.05 22.15L80.05 17.45L81.7 17.4L81.7 18.55L83.25 18.6L83.2 19.2Q85.45 19.3 86.1 17.25L87.4 17.25M71.3,0.65L67.75 4.4L72.75 4.4L72.75 0.65L71.3 0.65M75.65,11.3L75.25 11.75L72.15 14L72.3 15.05L72.3 15.1L77.05 11.65L77.05 6.85L75.75 6.85L75.75 10.8L75.65 11.3M72.75,6.85L67.9 6.85Q67.6 8.1 66.25 9L66.25 9.05Q67 9.7 67 10.55L67 10.6L67 10.95Q68.95 11 70.4 12L72.75 10.3L72.75 6.85M66.4,0.65L59.85 0.65L59.85 1.6L62.3 1.6L64.9 2.05L66.4 0.65" />
</g>
</svg>
