<?xml version="1.0" encoding="utf-8"?>
<svg version="1.1" id="Layer_1"
xmlns="http://www.w3.org/2000/svg"
xmlns:xlink="http://www.w3.org/1999/xlink"
width="23px" height="14px"
xml:space="preserve">
<g id="555" transform="matrix(1, 0, 0, 1, -3.65, -12.1)">
<path style="fill:#000000;fill-opacity:0.498039" d="M23.2,23.7Q23.2 24.4 20.25 24.9L13.4 25.4L6.45 24.9Q3.65 24.4 3.65 23.7Q3.65 23.3 4.55 23Q5.25 22.7 6.45 22.5L9.5 22.15L13.4 22L18.85 22.3L20.25 22.5Q23.2 23 23.2 23.7" />
<path style="fill:#000000;fill-opacity:1" d="M26.65,17.25L26.3 18.2L25.4 18.7L24 19.05L23.7 19.25L24.4 20.35L24.85 20.75L24.65 21.2L24.3 21.4L22.6 19.25L22 19.05L21.35 19.4L21.8 20.15L22.45 21.35Q22.75 21.95 22.35 22.25L21.8 21.85L21.35 21.65L21.4 21.85L21.6 22.55L22.35 23.85L19.1 24.75Q18.75 24.7 18.5 23.8Q18.2 23 18.35 22.8L18.25 22.1L18.15 22.05Q18.05 21.9 17.75 21.9L17.25 22.4L16.75 22.55Q16.15 22.2 15.5 22L14.95 22.8Q13.8 23.65 12.3 24.1L12.45 23.75L11.75 23.9L9.85 24.35Q8.75 24.55 7.8 24L7.5 23.35L7.65 22.95L7.05 21.95L9.15 20.55L7.9 20.8L7.7 20.7L6.95 20.75L6.9 20.7L6.25 20.45L5.85 20.35L4.6 20.05L5 16.9L5.1 16.55L5.4 16.25L5.6 15.65L6.65 15.95L7.3 17.15L7.15 18.45L10.25 18.3L10.85 17.95L10.5 18.55L11.2 18.05L10.85 17.7L12 16.75L12.7 17.2L13.05 17.25L14.5 16.65L13.15 15.35L12.3 14.9Q11.8 14.55 11.85 14.15L11.4 13.4L11 12.8Q11.05 12.6 11.55 12.45L12.45 12.25Q13.05 12 13.55 12.25L14.4 12.9Q16.6 14.5 16.3 15.25L17.55 15.5L17.6 15.55L18.05 15.2L18.5 15.55L19 15.65L19.95 16.2L19.8 15.9L20.3 15.05L20.8 14.6L21.8 14.35L22.15 14L22.85 14L23.95 14.4L25 15.1L26.1 16.25L26.65 17.25M20.7,20.05L21.1 20.95L21.85 21.6L22.25 21.65L21.05 19.5L20.6 19.8L20.7 20.05M22.35,22L22.3 21.9L22.2 21.9L22.35 22M13.25,23.4L13.9 23.4L13.65 23.2L13.25 23.4" />
</g>
</svg>
