<?xml version="1.0" encoding="utf-8"?>
<svg version="1.1" id="Layer_1"
xmlns="http://www.w3.org/2000/svg"
xmlns:xlink="http://www.w3.org/1999/xlink"
width="231px" height="65px"
xml:space="preserve">
<g id="487" transform="matrix(1, 0, 0, 1, 42.75, -187.05)">
<path style="fill:#3A1D0F;fill-opacity:0.298039" d="M70.65,187.85Q72.2 188.75 73.4 190.15Q74.3 191.2 73.75 192.5Q71.25 193.25 68.95 191.8Q67 190.6 66.35 188.55Q66 187.3 67 187.05Q68.95 186.9 70.65 187.85M43.55,221Q39.95 222.95 36.7 221.7Q35.3 221.2 34.65 219.65Q32.75 215 37.35 211.6Q42.35 211.7 47.15 210.45Q51.4 216.7 43.55 221" />
<path style="fill:#3A1D0F;fill-opacity:0.290196" d="M187.45,221.4Q188.2 223 187.15 224.3Q183.95 224.75 180.8 223.7Q176.65 222.35 175.9 218.7Q175.75 218.1 176.25 217.6L177 217.3L178.95 217L179.55 216.85Q181.85 217.15 184.05 218.05Q186.45 219.05 187.45 221.4" />
<path style="fill:#3A1D0F;fill-opacity:0.0862745" d="M55.1,245.4Q62.15 244.05 66.1 249.15Q67 250.25 65.35 250.6Q59.15 251.8 53.05 251.65Q51 251.6 49.35 250.2L49.25 249.95L49.2 249.7L49.2 249.45L49.2 249.25L49.2 249L49.2 248.75L49.45 248.5L50.15 247.8L51.65 246.45Q53.15 245.3 55.1 245.4" />
<path style="fill:#3A1D0F;fill-opacity:0.298039" d="M-34.2,226.7Q-41.7 228.3 -42.7 221.8Q-43.05 219.75 -40.75 218.95Q-33.25 218.15 -33 225.2Q-33 226.45 -34.2 226.7M-26.95,217.9Q-24.15 217.4 -21.75 218.75Q-19.2 220.15 -19.4 223Q-19.55 224.45 -20.55 225.7Q-23.25 226.35 -25.95 225.25Q-29.15 224 -29.15 220.65Q-29.15 218.85 -27.5 218.15L-26.95 217.9" />
</g>
</svg>
