<?xml version="1.0" encoding="utf-8"?>
<svg version="1.1" id="Layer_1"
xmlns="http://www.w3.org/2000/svg"
xmlns:xlink="http://www.w3.org/1999/xlink"
width="11px" height="13px"
xml:space="preserve">
<g id="647" transform="matrix(1, 0, 0, 1, -2.1, 0.35)">
<path style="fill:#000000;fill-opacity:0.498039" d="M11.05,11.9L7.35 12.45L3.7 11.9Q2.15 11.4 2.15 10.65Q2.15 9.9 3.7 9.35L7.35 8.85L11.05 9.35Q12.55 9.9 12.55 10.65Q12.55 11.4 11.05 11.9" />
<path style="fill:#000000;fill-opacity:1" d="M7.8,-0.1L9.1 0.1L9.45 0.35L9.3 0.8L9.4 0.75L10.25 5.3Q10.35 6.35 11.05 7.35L12.75 9.4Q12.3 11.35 10.95 11.65Q9.55 11.9 8.8 10.9Q8.75 10.5 9.05 10.25L9.8 9.55Q7.9 8.2 7.25 6.3L7.1 5.65Q6.35 6.9 6.1 8.45L5.75 10.45Q4.15 10.75 2.3 9.85L2.1 9.3L2.15 8.35Q2.2 7.7 3 7.6L3.9 7.45Q3.6 6.05 3.8 4.75Q4.05 3.45 4.9 2.3L7.1 -0.35L7.8 -0.1" />
</g>
</svg>
