<?xml version="1.0" encoding="utf-8"?>
<svg version="1.1" id="Layer_1"
xmlns="http://www.w3.org/2000/svg"
xmlns:xlink="http://www.w3.org/1999/xlink"
width="11px" height="6px"
xml:space="preserve">
<g id="664" transform="matrix(1, 0, 0, 1, 18.65, 27.8)">
<path style="fill:#000000;fill-opacity:0.2" d="M-16.7,-27.25Q-16.15 -27.75 -15.05 -27.75L-13.2 -27.55L-11.8 -27.65L-9.4 -26.4L-8.85 -25.1L-8.6 -23.95L-9 -22.7L-9.05 -22.7Q-8.6 -23.85 -9.1 -24.85L-9.1 -24.75L-9.1 -24.3L-9.55 -23.75L-9.65 -24.7L-10.85 -25.85Q-12.15 -26.75 -13.05 -26.75Q-13.65 -26.75 -13.95 -26.35L-14.1 -26.35L-13.75 -27.1L-14.25 -27.3L-15.9 -27.3Q-16.7 -26.9 -16.7 -25.7L-17.05 -26.5L-18.05 -25.55L-18.45 -23.85L-18.3 -23.55L-17.75 -24.85Q-17.05 -25.75 -15.9 -25.6L-13.65 -26.1L-13 -26Q-12.2 -26.1 -11.5 -25.25L-11.2 -24.85L-10.7 -24.55L-10.2 -23.75Q-9.7 -23.15 -9.7 -22.55L-9.8 -22.15L-10.05 -21.8L-10.1 -22.2L-10.15 -22.65L-10.2 -22.2L-10.35 -22.1L-10.75 -23.5L-10.85 -23.05L-11.25 -23.6L-11.2 -23.25Q-11.2 -22.25 -11.8 -22.05L-11.85 -22.05L-11.7 -23.05Q-11.7 -23.75 -12.25 -24.3L-12.5 -24.35L-12.6 -24.5L-12.5 -24.5L-12.65 -24.65L-13.5 -25L-14.55 -25.05L-15.1 -24.95L-15.85 -24.7L-15.25 -24.6L-16.5 -23.85L-16.8 -23.6L-16.9 -23.2L-16.95 -23.2L-16.95 -23.45L-17.35 -22.7L-17.5 -23.15Q-17.5 -23.65 -16.8 -24.25L-16.45 -24.7L-16.45 -24.75L-16.1 -25.4Q-17.45 -25.25 -17.85 -24Q-18.1 -23.2 -17.95 -22.35L-18.1 -22.25L-18.35 -23.2L-18.35 -23.45Q-18.65 -23.65 -18.65 -24.4Q-18.65 -25.2 -18.15 -26.1Q-17.6 -27.1 -16.8 -27.1L-16.7 -27.25M-13.95,-25.6L-12.55 -25.25L-12.45 -25.2L-12.65 -25.35L-13.7 -25.6L-13.95 -25.6" />
</g>
</svg>
