<?xml version="1.0" encoding="utf-8"?>
<svg version="1.1" id="Layer_1"
xmlns="http://www.w3.org/2000/svg"
xmlns:xlink="http://www.w3.org/1999/xlink"
width="73px" height="23px"
xml:space="preserve">
<g id="1239" transform="matrix(1, 0, 0, 1, 40.9, 8.4)">
<path style="fill:#C9EBFF;fill-opacity:0.988235" d="M19.85,-1.25Q19.85 -1.9 20.65 -2.65Q21.6 -3.45 22.35 -2.3Q22.55 -1.6 23.4 -0.95L24.4 0.2L25 0.25L24.55 -0.15Q24.05 -0.6 24.05 -1L24.25 -2L24.05 -3.45L23.65 -4.7L21.15 -4.65Q20.45 -4.65 19.7 -5.35L18.95 -6.1Q17.65 -6.1 16.95 -4.65Q16.35 -3 16 -2.75L15.95 -3Q15.95 -3.5 16.55 -4.6L17.75 -6.1L18.75 -6.3L19.85 -6L20.6 -5.15L22.65 -5.35Q24.1 -5.35 24.6 -3.8L24.8 -2L24.6 -1.2L25.7 -0.25Q26.1 -0.85 25.8 -1.3Q27 -1.45 27.7 -0.65L28.1 0L28.2 0Q29 0.1 29.15 0.55L29.55 1.1L31 1.6L31.2 1.7L31.4 1.7L31.45 1.85L31.45 1.9L31.45 2L30.4 2.65Q29.35 2.65 28.75 2.05Q28.2 1.4 27.7 1.4L26.95 1.95Q26.6 2.3 25.95 1.7L25.8 2.5L25.7 2.8L25.45 3.25Q25.3 3.5 25.3 3.75L25.05 4.5L24.8 5.2Q24.8 5.9 25.55 6.2Q26.25 6.5 26.25 7.1Q26.25 7.75 25.3 8.15L23.05 8.7L22.35 8.7L22 8.4L19.4 10.25L18.35 9.75Q17.55 9.3 16.5 9.4L15.95 8.2L15.55 6.95L15.8 6.85Q16.3 6.85 16.3 7.35L16.55 7.95L16.75 8.85Q18.85 9.1 19.35 9.8L21.75 8.05L21.65 7.95L21.2 7.45L20.5 7.65L19.75 7.65L19.3 7.3L19 6.9L19 6.7L19.7 6.75L19.55 6.95L19.8 7.2L20.55 7.2L21.1 7Q21.6 7 21.95 7.6L22.1 7.85L22.5 7.55L22.45 5.6Q22.45 5.05 22.9 4.35Q23.45 3.45 24.25 3.75L24.15 3.2L24.2 2.75Q24.35 2.45 24.9 2.5L25.25 2.2L25.35 1.65L25.2 1.3L25 1.1L25.05 0.9L24.9 0.85L24.6 0.9L24.7 0.85L24.15 0.75L23.85 0.3L23.65 -0.15L23 -0.5L22.35 -0.9L22.05 -1.9Q21.9 -2.6 21.3 -2.6Q20.85 -2.6 20.55 -2.05L20.35 -1.45L20.45 -1.3L19.95 -1.05L19.85 -1.25M25.85,-0.1L26.2 0.9L26.2 0.95L27.65 0.75L27.75 0.75L27.7 0.7L27.6 0.7L27.4 0.4L27.45 0.2L27.2 -0.55L26.4 -0.7L25.85 -0.1M28.35,0.8L28.75 0.9L28.4 0.4L28.3 0.45L28.35 0.8M24.55,4.2L24 4.35Q23.15 4.45 23.05 5.4L23.1 6.25L23.1 7.2L22.35 8.1L22.75 8.2Q24.35 8.2 25.75 7.2L24.65 6.25Q24.3 5.9 24.3 5.25L24.5 4.3L24.55 4.2" />
<path style="fill:#C9EBFF;fill-opacity:0.988235" d="M-30.7,-8.3L-29.85 -8.2L-29.4 -7.75Q-27.95 -7.95 -27.75 -7.5L-28.05 -6.7L-27.6 -6.75Q-27.75 -6.5 -28.3 -6.3Q-28.5 -6.75 -28.25 -7.1Q-28.25 -7.55 -28.8 -7.6Q-29.8 -7.3 -30.1 -7.75L-30.75 -7.95Q-31.5 -7.75 -31.6 -6.5L-31.45 -6.4L-31.4 -6.25Q-31.45 -6 -31.95 -5.85L-33.25 -5.45L-33.65 -5.1L-34 -4.75L-34.1 -4.85L-33.8 -5.45L-33 -5.8L-32.15 -6.1Q-31.95 -6.2 -31.8 -7.15Q-31.7 -8 -30.7 -8.3M-35.85,-3.1L-36.1 -2.9L-36.45 -2.7L-36.75 -2.75L-36.9 -3.4L-37.35 -3.75Q-37.8 -3.65 -37.85 -3.1L-37.95 -2.4L-38.1 -2.4L-38.1 -2.8Q-37.85 -4.2 -37.05 -4L-36.6 -3.65Q-36.3 -3.4 -36.35 -3.2L-35.85 -3.2L-35.85 -3.1M-30.05,12L-30.45 12.35Q-31.05 12.55 -31.4 12.9L-31.15 13.2L-30.65 13.4L-30.1 13.4L-29.9 13.55L-29.7 13.65Q-29.1 13.85 -28.75 13.15Q-28.45 12.35 -27.7 12.5L-27.3 12.65L-27.25 12.8Q-27.8 12.9 -28.4 13.75Q-28.85 14.35 -29.85 14.05L-30.55 13.75Q-31.15 13.6 -31.55 13.25L-31.85 12.75L-31.15 12.25L-30.45 11.9L-30.65 11.5L-30.9 11.1L-30.65 10.7L-30.2 10.25L-29.95 10.35L-30.25 10.85L-30.55 11.15L-30.3 11.55L-30.05 12M-37.55,8.4L-38.15 8.6L-38.3 8.8L-39.6 8.35L-40 7.85L-39.85 7.4L-39.7 7.1L-40.05 6.65L-40.35 6.05L-40.85 6.2L-40.9 6.1Q-40.9 5.85 -40.6 5.75Q-40.25 5.65 -40.1 6L-39.6 6.95L-39.55 6.95L-39.5 7.2L-39.75 7.9L-39.1 8.25L-38.6 8.45L-38.25 8.3L-38.1 8.1L-37.6 8.15L-37.55 8.4M-36.1,9.55L-36.4 9.75L-36.25 10.2L-36 10.7L-36 10.9L-36.65 10.9Q-36.4 11.4 -36 11.5L-35.3 11.25L-34.6 11.05L-34.25 11.25L-33.55 11.5L-33.5 11.65L-33.6 11.75L-34.2 11.55L-34.6 11.25Q-34.8 11.2 -35.15 11.55L-36 11.75Q-36.9 11.5 -36.85 10.9L-36.7 10.55L-36.3 10.6L-36.5 10.1L-36.7 9.65Q-36.7 9.3 -36.5 9.3L-35.8 9.15L-35.75 9.3L-36.1 9.55" />
</g>
</svg>
