<?xml version="1.0" encoding="utf-8"?>
<svg version="1.1" id="Layer_1"
xmlns="http://www.w3.org/2000/svg"
xmlns:xlink="http://www.w3.org/1999/xlink"
width="20px" height="31px"
xml:space="preserve">
<g id="1016" transform="matrix(1, 0, 0, 1, 0.55, 2.25)">
<path style="fill:#D9E9FF;fill-opacity:1" d="M11.5,-0.4L11.5 -0.35L10.6 1.1Q12.4 2.35 12.6 4.3Q12.85 6.7 10.45 5.7L9.7 5.2L9.65 5.75L9.6 5.9Q9.25 5.45 9.25 4.8Q9.2 4.65 9.3 4.6Q10.3 5.35 11.55 5.6Q11.95 5.7 12.05 5.3L12.3 3.7L10.55 1.5Q9.95 0.8 10.7 0.05L11.3 -0.7L11.5 -0.4M7.9,-0.6Q8.4 0.25 8.5 1.4Q8.55 1.7 8.95 1.9Q9.85 2.2 9.7 2.95Q7.9 2.35 7.8 0.6Q7.75 0.3 7.95 0.1Q7.2 -0.55 7.5 -1.6L7.35 -1.75L6.65 -1.8Q6.65 -0.5 6.1 0.7L5.55 1.3L5.2 1.55L7 2.75L7.2 2.95Q6.4 3.45 5.3 2.35Q4.8 1.85 4.1 1.7L3.9 1.5Q6.25 0.75 6.35 -2.05L6.5 -2.25Q8.65 -2.3 7.9 -0.6M16.9,5.2L16.9 5.25L13.85 5.55Q13.8 6.2 14.2 6.65Q14.6 7.15 14.65 7.8L14.6 8.05L14.55 8.1Q14.1 8.1 14.1 8.25Q14.5 8.6 14.15 9.05L13.75 9.4Q14.6 9.9 14.05 10.75Q13.45 11.8 12.5 12.05L12.5 12.1L12.2 12.25L11.75 11.95L13.55 10.55Q14.1 10 13.35 9.8Q13 9.75 12.95 9.4L13.6 8.85L13.8 8.6L13.6 8.35Q13.35 8.1 13.55 7.75L13.95 7.7L14.25 7.6Q13.45 6.65 13.6 5.45Q13.65 4.9 14.35 4.95L15.95 4.95Q16.6 4.8 16.9 5.2M18.7,10.2L18.7 10.25L16.65 10.35L16.5 10.3Q16.45 10.05 16.7 9.85Q17.05 9.6 17.35 9.45Q18.4 9.35 18.7 10.2M1.45,4.45Q1.75 5.35 1.5 6.3L1.5 6.35L4.2 7.75Q4.8 5.95 6.05 6.8Q6.4 7 6.35 7.45Q6.9 7.55 6.8 8.05L6.55 7.95L6.55 8.05L6.55 8.1Q5.15 7.65 4.3 9Q4.15 9.2 4.35 9.5L4.85 10.5Q3.4 11.55 1.65 10.85L1.55 10.7L4.4 10.35Q3.95 9.8 3.85 9.1L3.75 8.35Q4.65 7.8 5.65 7.6L6.05 7.6L5.65 6.7Q4.8 7.55 3.85 8L3.5 7.95L1.45 6.5Q1.1 6.3 1.15 5.8L1.45 4.45M6.5,12.3Q5.95 11.4 4.9 11.95L6.5 12.3M5.2,11.25Q6.95 11.3 7.1 12.75L7.1 12.8Q8.1 13.7 9.2 14Q9.45 14.1 9.5 13.75L9.7 12.65L9.95 12.15Q10.95 11.35 11.25 12.55L10.95 12.55L10.6 12.25L10.1 12.55L9.9 12.9Q10.5 14.75 8.45 14.35Q8.05 14.3 7.8 14.05Q7 13.4 6.65 12.65L6.5 12.35Q5.1 12.2 4.3 13.05Q4.15 13.2 4.45 13.35Q7.5 14.55 5.85 16.85L7.65 17.35L8.3 17.85L7.8 18.8Q7.25 19.5 6.5 19.25Q6.5 18.85 6.9 18.7L7.7 18.15L7.75 18Q7.15 17.55 6.25 17.45L5.65 17.25Q5.15 17.85 4.45 17.7L3.35 18.35L3.25 18.35Q3.6 19.4 2.5 19.9L2.3 20.1L2.65 20.7L2.6 20.8Q2.15 20.7 1.85 20.2L1.8 20.1Q2.75 19.4 3 18.65Q3.25 17.85 4 17.55L3.3 17.05Q2.75 16.6 2.05 16.4Q1.1 16.2 1.3 15.3L1.6 14.95Q2.15 15.15 1.55 15.5Q2.15 16.55 3.65 16.7Q3.85 16.7 4 16.85Q4.8 17.4 5.4 17.1L5.25 16.95L5.25 16.7L5.45 16.5L5.5 16.45L5.7 16.4L5.7 16.1L5.7 15.95L5.7 15.9L5.7 15.6L6.1 15.35L6.2 15.25L6.2 15.15Q4.9 14.25 3.95 13.1Q3.7 12.8 3.95 12.5L4.2 12.25Q3.95 11.85 5.2 11.25M2.5,22.4L2.8 22.8L4.95 24.05Q5.45 24.4 5.2 25.05L4.85 25.35L4.45 26.3L4.3 26.6Q5.45 27 5.9 28.05L5.9 28.15L4.15 28.2Q4.55 27.6 5.35 27.75Q3.2 27 4.25 25.2Q4.45 24.9 4.85 24.8Q4.45 23.45 2.6 23Q2.3 22.9 2.4 22.55L2.5 22.4M6.85,23.75Q7.15 22.9 6.9 22Q6.65 21.25 7.5 21Q8.45 22.2 10.05 22.05L10.45 22.05L10.85 22.25L8.9 22.4Q7.95 22.4 7.6 21.5L7.25 21.6Q7.45 22.35 7.3 23.05L6.85 23.75M10,23.85L9.8 25.65L9.75 25.7Q11.2 26.1 11.8 27.45Q10.65 28.2 9.5 28.55Q10.1 27.8 11 27.2Q10.6 26.1 9.35 26.05Q9.1 24.85 9.8 24L10 23.85M17.05,17.35Q15.65 17.6 14.7 16L14.65 15.9Q13.85 16.15 14.25 16.9L14.3 17.35Q12.5 17.4 11.85 15.5L11.5 15.35L11.45 15.35L11.45 15.5L11.35 15.55L11.15 15.6L10.95 15.45L11.05 15.15L11.5 14.95Q12.85 15.35 13.4 16.75Q13.55 17.15 13.75 16.85Q13.6 15 15.2 16L15.5 16.25L17.05 17.35M10.45,18.45Q10.3 17.8 11.2 17.65L11.5 19.25L11.8 19.55Q13.35 20.3 14.5 19.1Q14.7 18.85 14.85 19.15Q15.3 20 15.35 20.9Q14.75 21.85 13.6 22.05L13.45 22.55L13.4 22.55Q15.1 23.25 14.6 24.15L14.45 24.45Q14.1 25.05 14.05 25.75Q13.15 24.7 14.5 23.85Q12 22.85 14 21.7Q15.45 20.85 14.45 19.4Q12.6 21.15 10.85 19.15L10.8 18.7L11 18.1Q10.5 18.15 10.45 18.45M15.55,24.6Q16.9 25.2 16.1 26.85L16.2 27Q17.2 27.05 16.9 27.9L16.7 27.9L16.55 27.65Q14.85 27.1 15.85 25.25L15.85 25.1L14.4 25.25Q14.35 24.8 14.85 24.7L14.9 24.75L15.25 24.7L15.55 24.6M1.6,27.7L-0.35 25.35L-0.55 24.9Q-0.55 24.35 -0.15 24L-0.15 25.4L-0.15 25.45Q1.35 26.15 1.7 27.45L1.6 27.7" />
</g>
</svg>
