<?xml version="1.0" encoding="utf-8"?>
<svg version="1.1" id="Layer_1"
xmlns="http://www.w3.org/2000/svg"
xmlns:xlink="http://www.w3.org/1999/xlink"
width="17px" height="24px"
xml:space="preserve">
<g id="674" transform="matrix(1, 0, 0, 1, -4.35, 1.45)">
<path style="fill:#000000;fill-opacity:1" d="M14.4,-1.45Q17.45 -0.7 16.65 2.3L17.1 2.4L17.5 2.7Q19.65 3.95 20.3 6.15L20.1 6.55L18.6 7.7L18.25 11.1Q17.6 14.35 20.25 16.75Q22.6 18.85 19.9 21.15Q17.7 21.7 18 19.95Q18.1 19.45 18.35 18.95Q16.55 17.6 16.25 15.5L15.95 13.9L15.75 14.35L15.15 15.55L15.6 17.5L16.15 18.95Q16.5 19.7 16.45 20.45L16.45 20.5Q16.25 21.95 14.75 22.3Q13.4 22.6 12.3 21.95Q12.3 21.1 12.9 20.4L13.55 19.25L13.6 19.15L13.6 19.05L13.6 18.95L12.7 17.05L12.55 15.75L11.3 14Q10.55 12.95 10.35 11.8L10.35 11.7L9.55 10.9Q9.05 10.2 9.25 9.35L7.05 6.55L4.35 2.65Q4.45 2.3 4.7 2.05L5.25 1.6L5.25 1.5L5.3 1.55L5.35 1.5Q5.85 1.6 5.6 1.95L10.2 7.7L11.15 8.8Q11.15 8.35 11.45 7.7Q12.5 5.6 14.25 3.95L14.65 3.5L14.4 3.35Q11.55 1.65 13.65 -1Q13.95 -1.35 14.4 -1.45M12.6,10.45L12.85 10.65Q12.85 10.15 13 9.55L13.5 7.9Q12.45 8.85 12.6 10.3L12.6 10.45M15.3,13L15.8 13.4L15.85 13.45L15.5 12.25L15.3 12.75L15.3 13" />
</g>
</svg>
