<?xml version="1.0" encoding="utf-8"?>
<svg version="1.1" id="Layer_1"
xmlns="http://www.w3.org/2000/svg"
xmlns:xlink="http://www.w3.org/1999/xlink"
width="75px" height="72px"
xml:space="preserve">
<g id="313" transform="matrix(1, 0, 0, 1, 37.35, 35.8)">
<linearGradient
id="LinearGradID_310" gradientUnits="userSpaceOnUse" gradientTransform="matrix(0, 0.0449829, -0.0431519, 0, 0, 0)" spreadMethod ="pad" x1="-819.2" y1="0" x2="819.2" y2="0" >
<stop  offset="0" style="stop-color:#FFCC00;stop-opacity:1" />
<stop  offset="0.815686" style="stop-color:#FF6600;stop-opacity:1" />
<stop  offset="1" style="stop-color:#FF3300;stop-opacity:1" />
</linearGradient>
<path style="fill:url(#LinearGradID_310) " d="M36.85,-9.45L15.3 7.9L23.9 34.15L0.65 19.1L-21.7 35.35L-14.55 8.7L-36.85 -7.6L-9.25 -9L-0.65 -35.3L9.2 -9.45L36.85 -9.45" />
<path style="fill:none;stroke-width:1;stroke-linecap:round;stroke-linejoin:round;stroke-miterlimit:3;stroke:#660000;stroke-opacity:0.898039" d="M36.85,-9.45L15.3 7.9L23.9 34.15L0.65 19.1L-21.7 35.35L-14.55 8.7L-36.85 -7.6L-9.25 -9L-0.65 -35.3L9.2 -9.45L36.85 -9.45z" />
<path style="fill:#FFFF99;fill-opacity:0.45098" d="M34.75,-8.8L23.55 0.25Q14.1 -2.5 2.95 -2.5Q-11.05 -2.5 -22.35 1.9L-34.65 -7.05L-8.7 -8.35L-0.6 -33.15L8.7 -8.8L34.75 -8.8" />
</g>
</svg>
