<?xml version="1.0" encoding="utf-8"?>
<svg version="1.1" id="Layer_1"
xmlns="http://www.w3.org/2000/svg"
xmlns:xlink="http://www.w3.org/1999/xlink"
width="5px" height="8px"
xml:space="preserve">
<g id="942" transform="matrix(1, 0, 0, 1, -31.95, 1.35)">
<path style="fill:#000000;fill-opacity:0.901961" d="M33.5,-0.65Q33.5 -0.35 32.7 -0.35Q32.05 -0.35 32.05 -0.8L32.25 -1.15L32.75 -1.35Q33.2 -1.35 33.5 -0.65M35.45,5.6L35.1 5.5L35.05 5.3L36.45 5.25L36.05 5.45L35.45 5.6M34.75,2Q34.75 2.5 33.3 2.5L32.15 2.25L31.95 1.95Q31.95 1.35 33.35 1.4Q34.75 1.45 34.75 2M33.75,6.05L33.65 6.2Q33.65 6.45 33.2 6.45L32.65 6.3L32.3 5.9Q32.3 5.4 33.1 5.4Q33.85 5.4 33.85 5.85L33.75 6.05" />
</g>
</svg>
