<?xml version="1.0" encoding="utf-8"?>
<svg version="1.1" id="Layer_1"
xmlns="http://www.w3.org/2000/svg"
xmlns:xlink="http://www.w3.org/1999/xlink"
width="18px" height="9px"
xml:space="preserve">
<g id="973" transform="matrix(1, 0, 0, 1, 4.55, 6.55)">
<path style="fill:#000000;fill-opacity:0.85098" d="M3.2,-5.35Q3.8 -6.3 4.95 -6.55Q6.75 -6.55 6.45 -5L5.95 -4.3L3.5 -4.2Q2.75 -4.6 3.2 -5.35M0.65,-4.45Q1.55 -4.7 2.15 -4.1Q2.9 -3.35 2 -2.8L0.8 -2.3Q-0.15 -2.05 -0.7 -2.75L-0.75 -2.8L-0.75 -3.2Q-0.8 -3.6 -0.5 -3.8L0.15 -4.2L0.65 -4.45M8.8,-4.05L9.15 -4.35L9.9 -4.7L10.2 -4.8L10.55 -5.15L11.35 -5.65L12.45 -6.2L12.5 -6.25L12.9 -6.25L13 -6.2L13.35 -5.6Q13.45 -5.05 13.1 -4.55L12.35 -3.7L11.5 -3L11.4 -2.9L11.4 -2.85L11.35 -2.8L11.35 -2.75L10.5 -2.25Q9.3 -1.75 8.8 -2.75L8.65 -3.55L8.65 -3.9L8.8 -4.05M6.05,-1.05L6.5 -0.85L6.85 -0.6L7.15 -0.25L7.05 -0.1L6.65 0.2L5.55 0.6L4.75 0.5L4.75 0.45L4.8 0.15L5 -0.2L5.15 -0.65L5.4 -0.95L5.55 -1.05L6.05 -1.05M-2.8,-0.55L-2.25 -0.45L-1.7 -0.45L-1.2 -0.3L-1.35 0.05L-1.8 0.65L-2.85 1.4Q-3.8 1.65 -4.5 1.15L-4.55 0.95L-4.55 0.75L-4.5 0.45L-4.2 0L-3.7 -0.5L-3.35 -0.7L-2.8 -0.55" />
</g>
</svg>
