<?xml version="1.0" encoding="utf-8"?>
<svg version="1.1" id="Layer_1"
xmlns="http://www.w3.org/2000/svg"
xmlns:xlink="http://www.w3.org/1999/xlink"
width="55px" height="17px"
xml:space="preserve">
<g id="1127" transform="matrix(1, 0, 0, 1, -26.6, 0.8)">
<path style="fill:#434343;fill-opacity:1" d="M74.2,10L80.85 10.85Q77.9 12.75 73.6 13.8Q74 12.6 73.05 12.2L64.2 13.8L59.65 12.7L57.95 13Q57.7 14.95 62.4 15.6Q57.9 16.45 54.45 13.1L49.75 14.65L48.45 12.55L47.65 12.7L46.75 10.9L58.05 10.9L64.4 12.25L68.5 10.9L67.4 12.6L74.2 11L74.2 10M74.2,3.95L67.4 2.35L68.5 4.05L64.4 2.7L58.05 4.05L40.75 4.05L34.7 2.05L33.4 4.05L32.25 4.05L28.75 2.05L33.1 1.8L30.8 -0.55L48.45 2.4L49.75 0.3L54.45 1.85Q57.9 -1.5 62.4 -0.65Q57.7 0 57.95 1.95L59.65 2.25L64.2 1.15L73.05 2.75Q74 2.35 73.6 1.15Q77.9 2.2 80.85 4.1L74.2 4.95L74.2 3.95M33.95,11.75L32.35 13.1L28.15 12.9L26.6 10.9L33.4 10.9L33.95 11.75" />
</g>
</svg>
