<?xml version="1.0" encoding="utf-8"?>
<svg version="1.1" id="Layer_1"
xmlns="http://www.w3.org/2000/svg"
xmlns:xlink="http://www.w3.org/1999/xlink"
width="328px" height="15px"
xml:space="preserve">
<g id="1635" transform="matrix(1, 0, 0, 1, -8, -26)">
<path style="fill:#000000;fill-opacity:0.498039" d="M109.25,36.65Q109.25 41 105.6 41L11.6 41Q8 41 8 36.65L8 30.35Q8 26 11.6 26L105.6 26Q109.25 26 109.25 30.35L109.25 36.65" />
<path style="fill:#000000;fill-opacity:0.498039" d="M113,36.6L113 30.35Q113 26 115.45 26L178.2 26Q180.65 26 180.65 30.35L180.65 36.6Q180.65 40.95 178.2 40.95L115.45 40.95Q113 40.95 113 36.6" />
<path style="fill:#000000;fill-opacity:0.498039" d="M336,36.65Q336 41 333.3 41L263.2 41Q260.5 41 260.5 36.65L260.5 30.35Q260.5 26 263.2 26L333.3 26Q336 26 336 30.35L336 36.65" />
<path style="fill:#000000;fill-opacity:0.498039" d="M256.7,36.65Q256.7 41 254.1 41L186.6 41Q184 41 184 36.65L184 30.35Q184 26 186.6 26L254.1 26Q256.7 26 256.7 30.35L256.7 36.65" />
</g>
</svg>
