<?xml version="1.0" encoding="utf-8"?>
<svg version="1.1" id="Layer_1"
xmlns="http://www.w3.org/2000/svg"
xmlns:xlink="http://www.w3.org/1999/xlink"
width="21px" height="13px"
xml:space="preserve">
<g id="622" transform="matrix(1, 0, 0, 1, 0, 0)">
<path style="fill:#000000;fill-opacity:1" d="M20.95,4.4Q21.15 4.95 20.8 5.45L20 6.4L18.35 5L17.8 4.9L15.35 5.8L13.9 6.35L14.15 6.5L14.8 6.9Q16.85 6.9 18.7 5.85L18.95 6.55L19.4 7.7Q19.9 8.55 20 9.55L19.9 10.2L19.9 10.25L19.95 10.35L19.95 10.55L18.5 10.95L17.8 10.85L17.7 10.65L17.6 10.5L17.45 10.25L17.3 9.95L17.15 9.6L17.15 9.55L14.7 10.25L12.45 10.85L12.4 10.95L12.25 11.7L12.25 11.8L12.2 11.8L12.2 11.85L9.1 12.05L7.3 11.85L2.15 11.05L2 10.25L2 9.95L1.5 9.95L0.8 9.6L0.3 9.15L0.15 9L0.05 8.6Q-0.1 8.1 0.3 7.65L0.9 7.1L1.1 6.25L1.8 4.55L2.7 2.25L2.75 2.2L3.2 2.15L3.5 2.2L4.15 2.3L4.15 2.35L5.6 0.85Q6.35 0.25 7.25 0Q8.4 0.2 9.5 0.85L10.6 1.55Q12.6 2.85 14.8 2.7L18.15 2.15L19.35 1.8L20 3L20.55 3.8L20.95 4.4M7.7,5.7L7.15 6.35Q6.9 6.7 6.8 7.15L6.75 7.2L7.35 7.4L7 7.25L7.05 7.25L7.9 7.4L8.05 7.45L9.2 6.95L8.5 6.1L7.7 5.7M1.95,9.9L2 9.9L2 9.85L1.95 9.9" />
</g>
</svg>
