<?xml version="1.0" encoding="utf-8"?>
<svg version="1.1" id="Layer_1"
xmlns="http://www.w3.org/2000/svg"
xmlns:xlink="http://www.w3.org/1999/xlink"
width="35px" height="8px"
xml:space="preserve">
<g id="771" transform="matrix(1, 0, 0, 1, 0, 0)">
<path style="fill:#000000;fill-opacity:1" d="M32.35,5.75Q32.55 5.55 32.85 5.5Q33.5 5.35 33.85 5.85L34.45 6.8L34.55 6.95L34.3 7.2L33.45 7.35L33.45 7.4L29 7.25Q28.2 7.15 28.15 6.45L28.15 6.35L28.35 6.2L28.95 5.95Q29.3 5.8 29.1 6.05L28.9 6.15L28.9 6.2L29.15 6.05L29.35 5.9Q29.7 5.7 30.1 5.65L30.2 5.6L31.95 5.9L32.15 6L32.35 5.75M24.5,5L25.75 6.85L18.1 7.25L0 6.9Q2.55 3.65 6.95 4.2Q8.4 4.4 9.7 3.65L10.35 3.3L9.8 2.3L8.8 1.15L8.55 0.75L8.5 0.4L8.5 0.35L8.75 0.1L9 0L9.35 0Q10.65 2.05 12.85 2.3Q14.05 2.4 15 3.15L15.35 3.55Q19.15 1.95 22.8 3.7L24.5 5M28.85,6.2L28.85 6.25L28.9 6.2L28.85 6.2" />
</g>
</svg>
