<?xml version="1.0" encoding="utf-8"?>
<svg version="1.1" id="Layer_1"
xmlns="http://www.w3.org/2000/svg"
xmlns:xlink="http://www.w3.org/1999/xlink"
width="19px" height="21px"
xml:space="preserve">
<g id="620" transform="matrix(1, 0, 0, 1, -39.25, -4.7)">
<path style="fill:#000000;fill-opacity:1" d="M55.8,7.8Q56.7 7.55 57 8.3L57.35 9.65L57.35 9.75Q55.6 10.65 54.95 12.65Q54.65 13.7 54 14.4L54.1 14.65L54.2 15.4L54.15 15.55L52.95 15.15L52.85 15.15L52.25 15.35L47.6 16.1L46.7 17.45L46.55 17.45L45.85 19.25L45.9 19.3L46.1 19.5L46.35 19.75L46.8 20.2L46.95 20.45L46.95 20.5L47.05 20.55L47.1 20.6L47.55 20.85L47.6 21L47.5 21.1L48.8 21.5L50.45 21.75L50.95 21.9L51.1 21.9Q51.45 21.35 52.1 21.6Q53.25 22.15 54.2 22.9L54.65 23.45L54.6 23.65L54.45 23.85L54.05 24.35L53.95 24.5L54.05 24.55L53.9 24.6L53.8 24.7L53.75 24.85L53.7 24.95L53.65 25.05L53 25.05L52.25 25.05L52.1 25L51.6 25Q47.7 25.45 43.85 24.95L42.65 24.95Q41.75 24.95 41.4 24.2L41.35 24.05Q41.1 23.75 41 23.3Q40.1 23.25 39.75 22.55L39.7 22.45L39.35 21.9Q38.95 20.65 40 19.7L40.4 19.5Q40.45 18.4 40.75 17.45L40.6 17.45L41 16.75L41 16.7L41.5 15.65L41.8 15.65L43.05 14.45L44.15 12.8Q45.15 11.65 46.55 10.95L47 10.65Q46.05 9.7 44.5 9.1Q43.65 8.8 43.25 8.05Q43.55 6.95 44.35 6.1L46 4.8L46.2 4.7Q46.8 4.95 47.1 5.55Q47.4 6.2 47.05 6.8L47 6.9L50.2 9.55L50.5 9.65L51.3 10.05L51.35 10.2L50.5 10.6L50.35 10.65L49.3 12.4Q49.95 12.05 50.75 11.85Q52 11.5 53 10.65L53.25 9.25Q53.6 7.95 55.2 7.85L55.8 7.8M50.55,10.2L50.65 10.1L50.6 10.05L50.55 10.2M53.6,14.75L53.65 14.75L53.7 14.65L53.6 14.75M43.65,24.9L42.6 24.75L42.1 24.65L43.25 24.9L43.65 24.9" />
</g>
</svg>
