<?xml version="1.0" encoding="utf-8"?>
<svg version="1.1" id="Layer_1"
xmlns="http://www.w3.org/2000/svg"
xmlns:xlink="http://www.w3.org/1999/xlink"
width="155px" height="32px"
xml:space="preserve">
<g id="152" transform="matrix(1, 0, 0, 1, -1.65, -1.05)">
<path style="fill:none;stroke-width:1;stroke-linecap:round;stroke-linejoin:round;stroke-miterlimit:3;stroke:#C7E9FD;stroke-opacity:1" d="M145.2,3.1L147.3 6.7L144.4 6.45L144 8.15L145.65 9.55M91.7,4.05L94.85 1.55L99.95 3.4L95.4 6.65L98.85 11.1L106.45 13.95L111.1 13.9L123.85 13.75L135.55 7.3L138.75 9L143.3 7.45L144 8.15M155.65,13.55L154 13.55L145.8 13.55L152.6 17.55L149.9 18.85L148.4 18.15L149.3 21.05L151 20.35L150.75 22M148.8,12.15L145.8 13.55L136.95 12.55L130.35 14.45L134.25 18.9L140.85 16.6M150.45,11.45L153.55 11.6L154 13.55M134.25,18.9L127.65 21.25L121.4 20.65L107.85 26.9L107.25 27.35L104.9 26.15L103.3 29.7L101.65 28.8L103.4 31.7M62.5,4.25L63.75 9.95L68.65 8.75L70.8 11.5L72.85 16.6L78 20.15L83.25 19.1L92.35 20.2L93.65 18.75L96.35 15.75L101.5 18.3L107.85 14.7L111.1 13.9M104.9,26.15L102.6 24.95L93.65 18.75M84.65,22L77.5 21.8L77 23.5L68.5 22.7L62.15 16.85L60.9 17.75L57.4 16.55L54.15 20.05L51.15 14.9L47 15.75M62.15,16.85L63.3 15.9M77.5,21.8L78 20.15M70.8,11.5L64.9 12.45M55.3,19.65L55.7 21.85L60.7 24.4M16.65,14.05L24.6 11.8L29.75 13.5L37.85 12.75L45.55 10.65L47.1 9.9L57.4 16.55M43.65,18.2L31.45 16.2L33.05 20.45L24.5 21.5L28.65 24.05L37.6 25.65L39.3 29.6L31.95 28.55L33.8 30.9M8.5,23.3L9.25 21.75L5.65 21.05L5.05 18L2.15 18.1L4.75 15.9L8.95 16.95M10.8,18.3L5.05 18M12.5,18.5L31.45 16.2M19.3,15.3L29.75 13.5" />
</g>
</svg>
