<?xml version="1.0" encoding="utf-8"?>
<svg version="1.1" id="Layer_1"
xmlns="http://www.w3.org/2000/svg"
xmlns:xlink="http://www.w3.org/1999/xlink"
width="193px" height="193px"
xml:space="preserve">
<g id="1732" transform="matrix(1, 0, 0, 1, 96.5, 96.5)">
<radialGradient
id="RadialGradID_864" gradientUnits="userSpaceOnUse" gradientTransform="matrix(0.0115967, 0, 0, 0.118286, 0, 0)" spreadMethod ="pad" cx="0" cy="0" r="819.2" fx="0" fy="0" >
<stop  offset="0"  style="stop-color:#FFFFFF;stop-opacity:0.498039" />
<stop  offset="1"  style="stop-color:#FFFFFF;stop-opacity:0" />
</radialGradient>
<path style="fill:url(#RadialGradID_864) " d="M6.7,-68.25Q9.5 -39.95 9.5 0Q9.5 39.95 6.7 68.2Q3.95 96.5 0 96.5Q-3.95 96.5 -6.75 68.2Q-9.5 39.95 -9.5 0Q-9.5 -39.95 -6.75 -68.25Q-3.95 -96.5 0 -96.5Q3.95 -96.5 6.7 -68.25" />
<radialGradient
id="RadialGradID_865" gradientUnits="userSpaceOnUse" gradientTransform="matrix(0, 0.0115967, -0.118286, 0, 0, 0)" spreadMethod ="pad" cx="0" cy="0" r="819.2" fx="0" fy="0" >
<stop  offset="0"  style="stop-color:#FFFFFF;stop-opacity:0.498039" />
<stop  offset="1"  style="stop-color:#FFFFFF;stop-opacity:0" />
</radialGradient>
<path style="fill:url(#RadialGradID_865) " d="M68.25,-6.75Q96.5 -3.95 96.5 0Q96.5 3.95 68.25 6.7Q39.95 9.5 0 9.5Q-39.95 9.5 -68.2 6.7Q-96.5 3.95 -96.5 0Q-96.5 -3.95 -68.2 -6.75Q-39.95 -9.5 0 -9.5Q39.95 -9.5 68.25 -6.75" />
<radialGradient
id="RadialGradID_866" gradientUnits="userSpaceOnUse" gradientTransform="matrix(0, 0.0427246, -0.0429077, 0, 0, 0)" spreadMethod ="pad" cx="0" cy="0" r="819.2" fx="0" fy="0" >
<stop  offset="0"  style="stop-color:#FFFFFF;stop-opacity:0.498039" />
<stop  offset="1"  style="stop-color:#FFFFFF;stop-opacity:0" />
</radialGradient>
<path style="fill:url(#RadialGradID_866) " d="M24.75,-24.85Q35 -14.55 35 0Q35 14.55 24.75 24.7Q14.5 35 0 35Q-14.5 35 -24.7 24.7Q-35 14.55 -35 0Q-35 -14.55 -24.7 -24.85Q-14.5 -35 0 -35Q14.5 -35 24.75 -24.85" />
</g>
</svg>
