<?xml version="1.0" encoding="utf-8"?>
<svg version="1.1" id="Layer_1"
xmlns="http://www.w3.org/2000/svg"
xmlns:xlink="http://www.w3.org/1999/xlink"
width="24px" height="22px"
xml:space="preserve">
<g id="584" transform="matrix(1, 0, 0, 1, -2.75, -4.1)">
<path style="fill:#000000;fill-opacity:0.498039" d="M23.25,24.55L20.45 24.9L17.55 24.55L16.55 24L16.4 23.7Q16.4 23.5 16.55 23.4L16.75 23.2Q17.05 22.95 17.55 22.85L18.85 22.6L20.45 22.5L22.7 22.7L23.25 22.85Q24.5 23.2 24.5 23.7Q24.5 24.15 23.25 24.55M9.35,22L12.55 22.3L13.35 22.5Q14.55 22.85 14.95 23.3L14.75 23.7L14.95 24.15Q14.55 24.55 13.35 24.9L9.35 25.4L5.25 24.9Q3.65 24.4 3.65 23.7Q3.65 23.3 4.15 23Q4.55 22.7 5.25 22.5L7.1 22.15L9.35 22" />
<path style="fill:#000000;fill-opacity:1" d="M21.15,8.7L21.85 7.1L21.95 7Q22.15 7 22.2 7.15L22.3 7.3L22.3 7.35L21.95 8.7L21.7 9.85L21.75 9.9L24.1 11.6L26.5 13.45L26.7 13.55L26 15.6Q25.05 17.35 23 16.1L22.55 15.75L22.95 15.15L23.3 14.55L23.5 13.9L22.55 13.3L21.4 12.75L21.4 12.7Q21.2 13.95 21.85 15.2Q22.6 16.65 20.85 17.5L19.5 18.1L18.7 17.95L18.2 16.95L17.75 15.85L17.5 14.9L17.35 15.35L17.25 15.8L17.25 15.85Q18.2 16.5 17.15 17.5L16.95 17.6Q14.4 18.2 14.7 15.95L14.95 15.25L14.85 13.35Q14.8 12.25 15.8 11.6L16.4 11.05L17.1 10.25L16.7 10.1L16.15 9.95L15.65 9.85L15.4 9.65L15.3 9.6L15.15 9.3L15.2 7.55L15.35 7.15Q15.4 5.6 17.15 5.15L18.75 5.65L18.8 5.45L19.1 4.4L19.4 4.1L19.9 4.15L20.05 4.2L19.95 5.1Q19.75 5.75 19.7 6.35Q20.5 7.25 20.35 8.75L21.05 9.15L21.15 8.7M7.1,15.75L9.35 15.95Q10.55 15.75 10.8 16.5L11.4 17.7L12.9 20.85L14.25 22.8L13 24.25Q11.45 25.7 9.7 25Q9.35 24.9 9.25 24.45L8.8 23.1L8.85 23.05L9.05 22.95L9.25 22.9L10.65 22.5L10.6 22.45L10.5 22.35L10.4 22.25L9.7 21.6L9.4 21.15L8.75 21.15L8.7 21.15Q8.2 21.4 8.1 21.05L8.15 21L8.2 20.9L8.2 20.8L8.6 20.4L8.95 20.1L8.9 20.05L8.8 19.95L8.75 19.85L8.6 19.55L8.45 19.25L8.4 19.25L8.2 19.3L8.15 19.3L7.75 19.5L7.4 19.7Q7 19.9 6.7 20.3L6.65 20.35L7.95 21.6Q8.25 21.95 8.2 22.45L8.3 22.75L8.1 23.5L7.95 24.2L7.85 24.8L3.5 25.25L3.3 24.8L3.15 24.35L3.15 24.05L4.5 23.2L5.3 22.65Q5.2 22.15 4.75 21.6L4.2 20.9L3.6 20.75L2.75 20.2L2.85 20L2.95 19.95Q3.4 19.45 4.15 19.15L5.5 17.35L5.7 16.95L5.75 16.95L5.95 16.9L6 16.75L6.3 16.45L6.65 16.1Q6.8 15.9 7.05 15.8L7.1 15.75" />
<path style="fill:#7E0000;fill-opacity:1" d="M22.9,16.35L23.55 16.85L24.2 17.4L24.25 17.5Q23.65 17.7 23.05 17.15Q22.75 16.85 22.8 16.45L22.9 16.35M21.55,19.65L22.05 20.05L22.05 20.1Q21.8 20.45 21.3 20.3L20.8 19.65Q20.8 19.5 20.95 19.45L21.55 19.65M8.2,15L8.25 15L8.35 14.95L9.05 14.35L10.8 13.4Q10.95 14.15 10 14.9L8.9 15.45L8.55 15.55L8.5 15.7L8.5 15.8L8.25 15.7L8.15 15.75L7.9 15.65L7.95 15.55L7.2 14.6Q6.8 13.85 7.15 13.15L7.2 13.1L7.85 14L8.2 15M9.55,15.8Q9.55 15.45 9.95 15.3L10.6 15.25L11.05 15.2L11.9 15.05L12.6 15.15L13.2 15.55L13.25 15.6L10.55 15.75L9.95 15.9Q9.7 16.05 9.55 15.8M18,18.2L19 18.45L19.8 19L19.9 19.1L19.1 19.2L18.2 18.85L18.15 18.8L18.1 18.75L18.1 18.65L18 18.6L17.8 18.4L18 18.2" />
</g>
</svg>
