<?xml version="1.0" encoding="utf-8"?>
<svg version="1.1" id="Layer_1"
xmlns="http://www.w3.org/2000/svg"
xmlns:xlink="http://www.w3.org/1999/xlink"
width="13px" height="9px"
xml:space="preserve">
<g id="681" transform="matrix(1, 0, 0, 1, 4.5, 15.85)">
<path style="fill:#7E0000;fill-opacity:1" d="M0.55,-14.75L0.65 -14.75L0.85 -14.7L1.1 -14.55Q1.4 -13.8 0.75 -13.25L0.2 -12.85L0.15 -12.75L0.3 -12.7L0.45 -12.6L1.25 -12.9L1.55 -12.9L2.25 -12.7L2.3 -12.7L2.35 -12.65Q3 -12.3 2.05 -11.7Q1.05 -11.1 0.6 -11.55L0.2 -10.7L-0.25 -9.75L-0.2 -9.85Q0.1 -9.5 -0.15 -9L-0.45 -8.15L-0.4 -7.95L-0.35 -7.85L-0.55 -7.65Q-0.7 -7.5 -0.9 -7.5L-1.15 -8L-1.35 -8.1L-1.4 -8.15L-1.6 -9.05L-2.15 -10.7L-2.7 -12.55L-2.95 -12.95Q-3.9 -12.45 -4.35 -13.5Q-4.8 -14.55 -3.85 -15.25L-3.75 -15.3Q-2.5 -14.8 -1.8 -13.75L-1.8 -14.25Q-2.05 -14.4 -1.75 -14.95L-0.65 -15.85Q0.95 -15 -0.5 -14.45L-0.65 -14.35L-1.15 -14.25L-1.55 -14.2Q-1.25 -13.4 -1.1 -12.45L-1.05 -11.85L-0.95 -11.6L-0.55 -12.25L-0.35 -12.75L-0.65 -12.9Q-0.9 -13.35 -0.65 -13.85Q-0.35 -14.45 0.3 -14.7L0.55 -14.75M5.85,-12.95L6.2 -12.85L6.3 -12.8Q6.35 -11.25 4.6 -11.15Q3.85 -11.1 4.1 -11.9Q4.45 -12.95 5.5 -13L5.85 -12.95M5.5,-9.3L5.3 -9.2L5.2 -9.2L5.15 -9.2L5 -9.3L4.85 -9.35L4.9 -9.55L4.85 -9.6L4.8 -9.65L4.75 -10.1Q4.85 -10.65 5.4 -10.7L6.05 -10.7L6.5 -10.5L6.55 -10.4L6.55 -10.25L6.5 -9.85L6.4 -9.6L6.3 -9.5L5.5 -9.3M6.4,-8.05L7.15 -8.05Q7.55 -8 7.7 -7.65L7.6 -7.3Q6.8 -6.5 5.8 -7.1L5.65 -7.3L5.65 -7.4L5.7 -7.55L5.55 -7.6Q5.15 -7.75 5.3 -8.1L5.5 -8.3L6.1 -8.2L6.35 -8.05L6.4 -8.05" />
</g>
</svg>
