<?xml version="1.0" encoding="utf-8"?>
<svg version="1.1" id="Layer_1"
xmlns="http://www.w3.org/2000/svg"
xmlns:xlink="http://www.w3.org/1999/xlink"
width="30px" height="20px"
xml:space="preserve">
<g id="1105" transform="matrix(1, 0, 0, 1, -34.05, 3.35)">
<path style="fill:#C9C9C9;fill-opacity:1" d="M48.2,-0.25Q47.45 0.6 45.7 0.6Q45 0.6 44.55 0Q44.2 -0.45 44.2 -0.7Q44.2 -1.75 46.45 -2.25Q48.65 -2.8 48.65 -1.5Q48.65 -0.75 48.2 -0.25M55.7,-2.95L55.9 -2.45Q55.9 -1.65 54.5 -1.65Q53.15 -1.65 53.15 -2.5L53.4 -3Q53.75 -3.35 54.5 -3.35Q55.35 -3.35 55.7 -2.95M61.65,4.65L57.15 4.5L55.55 4.4L55.3 4.15L55.35 4.15L49.45 4.7L47.85 4.7Q47.3 4.45 47.3 4.2Q47.3 3.35 49.45 2.95Q51.65 2.55 51.9 3.65L52.15 3.65Q52.5 3.3 53.1 3.25Q53.2 2.65 54.35 2.2L57.95 1.6L58.35 2L57.85 2.85L56.1 3.4L54.35 3.8L55.35 4.05Q55.5 3.9 55.9 3.85L60.05 3.85L62.3 4L62.35 4.25L62.3 4.6L61.65 4.65M61.05,12.8L58.2 12.55L54.55 12.25L52.65 12.45L52.6 12.5L53.15 12.65Q52.2 12.85 52.2 12.15Q52.2 11.4 54.7 11.4L56.5 11.65L59.2 11.45Q60.25 11.4 62.5 12.45L62.5 12.75L61.25 12.9L61.05 12.8M63.45,15.15L63.35 15.15Q63.35 15.55 61.6 15.55Q61 15.55 60.7 15.2L60.5 14.85Q60.5 14.25 61.95 14.4Q63.3 14.55 63.35 15.1L63.45 15.15M50.25,11.4Q51.85 11.45 51.85 12.25L51.4 12.9L50.4 12.9L48.95 12.45Q48.6 12.3 48.6 12Q48.6 11.35 50.25 11.4M56.15,16.5Q55.7 16.5 55.2 15.9L54.75 15.25Q54.75 14.2 55.9 14.7L57.75 15.6L57.8 15.7L56.15 16.5M60.4,13.45L59.75 13.35L59.8 13.25L60.4 13.45M35.55,1.4L35.3 1.95L34.4 2.25L34.05 1.85Q34.05 1.5 34.3 1.2Q34.7 0.75 35.5 1L35.55 1.4" />
</g>
</svg>
