<?xml version="1.0" encoding="utf-8"?>
<svg version="1.1" id="Layer_1"
xmlns="http://www.w3.org/2000/svg"
xmlns:xlink="http://www.w3.org/1999/xlink"
width="529px" height="529px"
xml:space="preserve">
<g id="350" transform="matrix(1, 0, 0, 1, 264.1, 264.1)">
<radialGradient
id="RadialGradID_325" gradientUnits="userSpaceOnUse" gradientTransform="matrix(0.324295, 0, 0, 0.324295, 0.05, 0)" spreadMethod ="pad" cx="0" cy="0" r="819.2" fx="0" fy="0" >
<stop  offset="0"  style="stop-color:#220000;stop-opacity:0.6" />
<stop  offset="0.831373"  style="stop-color:#1C0000;stop-opacity:0" />
</radialGradient>
<path style="fill:url(#RadialGradID_325) " d="M74.65,237.5L78.95 251.4L54.85 257.85L54.85 257.8L54.6 257.85L54.6 257.8L54.5 257.85L54.5 257.8L54.35 257.85L54.2 257.85L54.2 257.8L54.15 257.85L54.1 257.8L53.95 257.9L46.35 222.3L25.95 127.05Q18.05 89.8 11.55 57.35L5.75 28.15L0.7 1.8L3 57.35L9.8 222.3L11.5 264.15L-13.45 264.15L-13.45 264.1L-13.65 264.1L-13.65 264L-13.9 264L-13.9 263.95L-14.15 263.95L-13.45 249.9L-12.05 222.3L-11 201.6L-7.3 130.35L-3.8 64.5L-3.4 57.35L-0.3 3.8L-57.65 256.8L-81.9 250.25L-81.85 250.25L-82 250.2L-82 250.15L-82.1 250.15L-82.25 250.1L-82.2 250.05L-82.35 250L-82.35 249.95L-82.4 249.95L-82.55 249.9L-78.6 237.7L-73.65 222.3L-66.95 201.6L-41.4 122.6Q-30.05 87.7 -19.8 57.35L-9.45 26.9L-1.15 3L-29.6 57.35L-116.05 222.3L-122.3 234.25L-143.9 221.75L-143.9 221.7L-144.1 221.6L-144.05 221.5L-144.25 221.4L-144.25 221.35L-144.4 221.25L-138.6 212.3L-131.7 201.6L-71.7 108.95L-38.15 57.35L-35.75 53.65L-2 2.45L-52.55 57.35L-178.75 194.35L-196.4 176.7L-196.35 176.65L-196.5 176.45L-196.45 176.4L-196.6 176.25L-196.75 176.05L-97.4 86.4L-65.05 57.35L-48.35 42.35L-2.8 1.75L-90.55 57.35L-223.35 141.5L-235.8 119.85L-235.75 119.85L-235.9 119.65L-235.8 119.6L-235.9 119.4L-235.9 119.35L-236 119.15Q-176.55 88.7 -116.85 58.3L-115 57.35L-58.1 28.4Q-16.35 7.25 -2.8 0.65L-184.2 57.35L-252.2 78.6L-258.65 54.5L-258.6 54.45L-258.65 54.2L-258.55 54.2L-258.65 53.95L-258.6 53.95L-258.65 53.75L-220.8 45.65L-127.8 25.75L-63.3 12.1L-4.75 0L-220.8 8.95L-264.1 10.7L-264.1 -14.25L-264.05 -14.25L-264.05 -14.5L-263.95 -14.5L-263.95 -14.7L-263.9 -14.7L-263.9 -14.95L-220.8 -12.75L-130.3 -8.15L-64.45 -4.65L-1.8 -1L-220.8 -50.15L-258.05 -58.5L-251.6 -82.6L-251.55 -82.5L-251.45 -82.8L-251.4 -82.75L-251.35 -83L-251.3 -83L-251.25 -83.25L-220.8 -73.4L-123.95 -42L-61.2 -21.6L-4.7 -2.85L-220.8 -116.05L-234.25 -123.1L-221.8 -144.7L-221.75 -144.65L-221.65 -144.85L-221.55 -144.8L-221.45 -145L-221.4 -145L-221.25 -145.2L-220.8 -144.9L-109 -72.5L-53.7 -36.5Q-13.95 -10.6 -1.65 -2.3L-194.4 -179.75L-188.4 -185.75L-176.75 -197.4L-176.55 -197.55L-176.5 -197.5L-176.35 -197.65L-176.3 -197.6L-176.1 -197.8L-159.45 -179.4L-86.45 -98.5L-42.4 -49.4L-3.15 -5.35L-140.85 -222.65L-141.65 -223.9L-120.05 -236.4L-120 -236.35L-119.85 -236.5L-119.8 -236.4L-119.55 -236.55L-119.55 -236.45Q-119.4 -236.5 -119.3 -236.6L-112.15 -222.65L-58.45 -117.5L-28.55 -58.7Q-6.7 -15.6 -0.35 -2.6L-69.1 -222.65L-75.05 -241.65L-78.7 -253.3L-54.4 -259.75L-54.4 -259.65L-54.1 -259.7L-54.1 -259.65L-53.9 -259.75L-50 -241.65L-45.9 -222.65L-25.9 -128.9L-12.25 -64.4L-0.15 -6.1L-10.1 -264.1L14.95 -264.1L14.95 -264.05L15.2 -264.05L15.2 -264L15.3 -264L15.3 -263.95L15.55 -263.95L15.55 -263.9L15.7 -263.9L14.6 -241.65L13.6 -222.65L8.85 -130.3Q5.95 -74.55 2.8 -29.6L0.95 -4.05L49.95 -222.65L54.2 -241.65L58.1 -259.1L82.15 -252.65L82.2 -252.6L82.4 -252.55L82.4 -252.45L82.6 -252.4L82.6 -252.35L82.85 -252.25L79.45 -241.65L73.3 -222.65L41.7 -124.95L21.25 -62.25L2.15 -4.55L123.1 -234.1L144.7 -221.6L144.65 -221.6L144.8 -221.55L144.8 -221.5L144.9 -221.45L144.85 -221.45L144.95 -221.35L144.95 -221.3L145.05 -221.25L145.05 -221.2L145.25 -221.1L145.35 -221L72.6 -108.7Q42.2 -61.9 17 -24.5L2.8 -3.6L165.6 -179.4L179.55 -194.5L188.9 -185.15L197.15 -176.9L197.1 -176.85L197.25 -176.75L197.2 -176.75L197.35 -176.55L197.3 -176.5L197.55 -176.25L197.5 -176.2L197.6 -176.1L98.3 -86.5Q56.8 -49.1 22.8 -19.55L3.7 -3L223.35 -141.4L235.85 -119.8L235.8 -119.8L235.85 -119.65L235.9 -119.55L235.85 -119.55L235.95 -119.45L235.9 -119.4L235.95 -119.3L235.9 -119.3L236 -119.05L236.1 -118.95L116.9 -58.05Q67.2 -32.7 26.7 -12.95L4.7 -2.3L232.25 -72.75L252.5 -79.05L255.4 -68.2L258.95 -55L258.9 -55L258.95 -54.85L258.95 -54.75L258.9 -54.75L258.95 -54.6L258.9 -54.6L258.9 -54.45L258.95 -54.35L258.9 -54.35L258.95 -54.25L258.95 -54.1L254.15 -53.05L243.15 -50.7L128.1 -26.15Q73.5 -14.55 29.3 -5.9L3.05 -0.85L232.25 -9.75L261.2 -10.85L264.15 -11L264.15 14.1L264.1 14.1L264.1 14.35L264.05 14.35L264.05 14.45L264 14.45L264 14.6L263.95 14.6L263.95 14.85L254.15 14.35L243.15 13.8L130.35 8L29.6 1.95L6.1 0.25L232.25 51.6L251.45 55.95L257.8 57.4L251.35 81.45L251.3 81.55L251.25 81.55L251.25 81.65L251.2 81.8L251.15 81.8L251.1 81.9L251.05 81.85L251 82.1L250.95 82.15L250.95 82.25L174.05 57.35L123.65 41Q70.6 23.8 27.95 9.15L2.35 0.25L234.05 122.3L221.6 143.9L221.6 143.85L221.5 143.95L221.45 143.95L221.4 144.1L221.4 144.05L221.35 144.15L221.3 144.15L221.25 144.25L221.2 144.25L221.15 144.35L221.1 144.3L221.05 144.4L221 144.55L108.65 71.8L86.5 57.35L24.45 16.2L4.8 2.85L194.45 178.45L176.75 196.15L176.7 196.15L176.65 196.2L176.6 196.2L176.5 196.3L176.45 196.25L176.3 196.4L176.25 196.35L176.1 196.55L86.4 97.2L50.8 57.35L19.5 21.7L1.5 0.85L128 201.6L133.95 211L141.3 222.7L119.65 235.2L119.65 235.15L119.45 235.25L119.4 235.2L119.3 235.3L119.25 235.25L119.15 235.35L119.15 235.3L119.05 235.35L119 235.35L118.95 235.4L118.95 235.35L118.8 235.45L112.1 222.3L57.9 116.3L28.2 57.35L12.8 26.05L2.65 5.1L63.55 201.6L74.65 237.5" />
<radialGradient
id="RadialGradID_326" gradientUnits="userSpaceOnUse" gradientTransform="matrix(0.324295, 0, 0, 0.324295, -2.9, -14.25)" spreadMethod ="pad" cx="0" cy="0" r="819.2" fx="0" fy="0" >
<stop  offset="0"  style="stop-color:#220000;stop-opacity:0.6" />
<stop  offset="0.831373"  style="stop-color:#1C0000;stop-opacity:0" />
</radialGradient>
<path style="fill:url(#RadialGradID_326) " d="M179.55,-194.5L165.6 -179.4L149.45 -179.4L176.6 -208.75L194.2 -191.15L194.15 -191.1L194.3 -191L194.25 -191L194.4 -190.8L194.35 -190.75L194.6 -190.5L194.55 -190.45L194.65 -190.35L188.9 -185.15L179.55 -194.5M252.5,-79.05L232.25 -72.75L232.25 -87.95L249.55 -93.3L256 -69.25L255.95 -69.25L256 -69.1L256 -69L255.95 -69L256 -68.85L255.95 -68.85L255.95 -68.7L256 -68.6L255.95 -68.6L256 -68.5L256 -68.35L255.4 -68.2L252.5 -79.05M232.25,-9.75L232.25 -24.1L261.2 -25.25L261.2 -10.85L232.25 -9.75M232.25,51.6L232.25 38.05L254.85 43.15L251.45 55.95L232.25 51.6M128,201.6L134.05 201.6L138.35 208.45L133.95 211L128 201.6M63.55,201.6L65 201.6L76 237.15L74.65 237.5L63.55 201.6M-12.05,222.3L-13.45 249.9L-16.4 249.9L-16.4 249.85L-16.6 249.85L-16.6 249.75L-16.85 249.75L-16.85 249.7L-17.1 249.7L-14.65 201.6L-11 201.6L-12.05 222.3M-73.65,222.3L-78.6 237.7L-84.85 236L-84.8 236L-84.95 235.95L-84.95 235.9L-85.05 235.9L-85.2 235.85L-85.15 235.8L-85.3 235.75L-85.3 235.7L-85.35 235.7L-85.5 235.65L-74.5 201.6L-66.95 201.6L-73.65 222.3M-138.6,212.3L-146.85 207.5L-146.85 207.45L-147.05 207.35L-147 207.25L-147.2 207.15L-147.2 207.1L-147.35 207L-143.85 201.6L-131.7 201.6L-138.6 212.3M-188.4,-185.75L-197.35 -194L-179.7 -211.65L-179.5 -211.8L-179.45 -211.75L-179.3 -211.9L-179.25 -211.85L-179.05 -212.05L-149.55 -179.4L-159.45 -179.4L-176.1 -197.8L-176.3 -197.6L-176.35 -197.65L-176.5 -197.5L-176.55 -197.55L-176.75 -197.4L-188.4 -185.75M232.25,-135.15L232.9 -134.05L232.85 -134.05L232.9 -133.9L232.95 -133.8L232.9 -133.8L233 -133.7L232.95 -133.65L233 -133.55L232.95 -133.55L233.05 -133.3L233.15 -133.2L232.25 -132.75L232.25 -135.15" />
<path style="fill:#665954;fill-opacity:0.498039" d="M36.45,-28.85Q21.1 -13.4 -0.6 -13.4Q-22.3 -13.4 -37.75 -28.85Q-53.1 -44.25 -53.1 -65.95Q-53.1 -87.65 -37.75 -103.1Q-22.3 -118.45 -0.6 -118.45Q21.1 -118.45 36.45 -103.1Q51.9 -87.65 51.9 -65.95Q51.9 -44.25 36.45 -28.85" />
<path style="fill:#8B292A;fill-opacity:1" d="M134.3,-40.05Q168.15 -46.1 190.45 -52.2Q166.25 -44.4 131.35 -36.55Q61.6 -20.9 8.35 -20.9Q-48.1 -20.9 -117.15 -34.95Q-139.4 -39.45 -162.25 -45.35L-185.7 -51.6Q-148.95 -43.85 -118.65 -39.1Q-47.15 -27.9 8.35 -27.9Q66.5 -27.9 134.3 -40.05M134.3,18.85Q168.15 12.8 190.45 6.7Q166.25 14.5 131.35 22.3Q61.6 38 8.35 38Q-48.1 38 -117.15 23.9Q-139.4 19.45 -162.25 13.55L-185.7 7.3Q-148.95 15.05 -118.65 19.8Q-47.15 31 8.35 31Q66.5 31 134.3 18.85" />
<path style="fill:#B69789;fill-opacity:0.4" d="M-132.85,-18.25Q-129.5 -17.9 -128.05 -15.75Q-125.95 -12.65 -125.35 -9.15Q-129.1 -8.8 -132 -10.4Q-135 -11.9 -135.85 -18.45L-132.85 -18.25M-141.3,-7.4Q-144.2 -9.3 -145.85 -12.75Q-142.4 -14 -138.75 -13.65Q-136.25 -13.45 -134.2 -10.6L-132.4 -8.3Q-138.6 -5.8 -141.3 -7.4M-135.1,-6.3Q-132.9 -7.3 -129.65 -5.95Q-128.15 -5.55 -126.9 -4.7Q-131 0.6 -134.25 0.45Q-137.75 0.35 -140.75 -1.85Q-138.35 -4.65 -135.1 -6.3" />
<path style="fill:#665954;fill-opacity:1" d="M-114.2,-7.7Q-113.15 -6.65 -113.15 -5.15Q-113.15 -3.65 -114.2 -2.6Q-115.3 -1.55 -116.75 -1.55Q-118.25 -1.55 -119.3 -2.6Q-120.35 -3.65 -120.35 -5.15Q-120.35 -6.65 -119.3 -7.7Q-118.25 -8.75 -116.75 -8.75Q-115.3 -8.75 -114.2 -7.7" />
<path style="fill:#B69789;fill-opacity:0.4" d="M120.1,-15.75Q121.55 -17.9 124.9 -18.25L127.9 -18.45Q127.05 -11.9 124.05 -10.4Q121.15 -8.8 117.4 -9.15Q118 -12.65 120.1 -15.75M127.15,-6.3Q130.4 -4.65 132.8 -1.85Q129.8 0.35 126.3 0.45Q123.05 0.6 118.95 -4.7Q120.2 -5.55 121.7 -5.95Q124.95 -7.3 127.15 -6.3M126.25,-10.6Q128.3 -13.45 130.8 -13.65Q134.45 -14 137.9 -12.75Q136.25 -9.3 133.35 -7.4Q130.65 -5.8 124.45 -8.3L126.25 -10.6" />
<path style="fill:#665954;fill-opacity:1" d="M106.15,-7.75Q105.1 -6.7 105.1 -5.2Q105.1 -3.7 106.15 -2.65Q107.25 -1.6 108.7 -1.6Q110.2 -1.6 111.25 -2.65Q112.3 -3.7 112.3 -5.2Q112.3 -6.7 111.25 -7.75Q110.2 -8.8 108.7 -8.8Q107.25 -8.8 106.15 -7.75" />
</g>
</svg>
