<?xml version="1.0" encoding="utf-8"?>
<svg version="1.1" id="Layer_1"
xmlns="http://www.w3.org/2000/svg"
xmlns:xlink="http://www.w3.org/1999/xlink"
width="30px" height="20px"
xml:space="preserve">
<g id="1085" transform="matrix(1, 0, 0, 1, 15.3, 34.65)">
<path style="fill:#3A3A3A;fill-opacity:1" d="M7.35,-32.95L7.35 -32.85L7.6 -32.35Q7.5 -31.15 6.35 -31.8L6.2 -31.85Q5.45 -31.15 4.4 -31.4L4.4 -31.45L4.45 -31.9L4.9 -32.4L5.3 -32.65L5.35 -32.6L5.4 -32.6L5.5 -32.6L5.65 -32.9L6.05 -33.15L6.5 -33.35L6.9 -33.3L7.25 -33.15L7.4 -33L7.35 -32.95M2.6,-32.75Q2.35 -32.7 2.25 -32.9Q1.75 -33.9 2.9 -34.25L3.4 -33.95Q4 -32.95 2.6 -32.75M1.15,-25.95L1.2 -25.85L1.2 -25.7L0.75 -24.9Q0.1 -24.35 -0.75 -24.6L-0.9 -24.75L-1.05 -25.2L-1.1 -25.55L-1.05 -25.8L-0.85 -26L-0.55 -26.3L-0.1 -26.45L0.7 -26.3L1.1 -26.1L1.1 -26.05L1.15 -25.95M4.4,-26.5L4.55 -26.15Q4.7 -25.75 4.35 -25.45L3.5 -25.2L3.25 -25.5Q3.15 -25.85 3.4 -26.15L4 -26.55L4.35 -26.55L4.4 -26.5M11.95,-22.6Q12.5 -22.55 12.65 -22.05Q12.85 -21.45 12.3 -21.1Q11.45 -20.45 10.75 -21.25L10.85 -21.65L11.3 -22.25Q11.55 -22.6 11.95 -22.6M11.15,-19.9L11.15 -19.85L11.1 -19.7L11.1 -19.55L11.15 -19.4L10.45 -18.95L10.3 -18.6L10.3 -18.25L10.2 -18.3L10.05 -18.5L9.9 -18.7L9.8 -18.95L9.85 -19.15L10.1 -19.4L10.55 -19.45L10.65 -19.55L10.9 -19.75L11.15 -19.9M7.75,-24.25L7.8 -23.85L7.7 -23.5L7.15 -23.45L7.05 -23.35L7.15 -23.05L7.35 -22.45Q7.25 -21.9 6.65 -22L6.5 -22.25L6.25 -22.7L5.8 -22.9L5.75 -22.8L5.85 -22.5L6 -22.25L6.05 -22L6 -21.85L5.95 -21.7L5.9 -21.55L5.35 -21.1Q4.7 -20.8 4.65 -21.2Q3.95 -21.3 3.55 -22.05Q3.3 -22.6 3.75 -23.05L4.3 -23.45L5.95 -23.85L6.15 -24.15L6.45 -24.5L6.9 -24.75L7.75 -24.5L7.75 -24.25M1.3,-23.6L1 -23.2Q0.2 -22.9 -0.2 -23.55L0.2 -23.7L0.8 -23.8L1.3 -24.2L1.35 -24L1.3 -23.6M0.35,-20.5L0.65 -20.2L0.75 -19.95L0.55 -19.55L0.4 -19.7L0.05 -19.95L0.1 -20.1L0.2 -20.3L0.3 -20.5L0.35 -20.5M0.25,-19L0.35 -18.75L0.3 -18.65L0.25 -18.55L0.25 -18.5Q0 -18.35 -0.25 -18.5L-0.3 -18.65L-0.25 -18.95L-0.1 -19.2L0 -19.2L0.25 -19M3.1,-15.75Q2.7 -15.65 2.45 -15.95L2.45 -16L2.45 -16.05L2.45 -16.2L2.5 -16.3L2.65 -16.4L2.8 -16.5L3.15 -16.3L3.8 -16.5L4.4 -16.8L4.85 -16.7L5 -16.65L5.15 -16.55Q5.2 -16.3 4.95 -16.2L3.75 -15.9L3.1 -15.75M8.55,-18Q8.85 -18.05 8.75 -17.75L8.2 -16.9Q8 -16.6 8.1 -16.3L8.05 -16.25L7.9 -16.1L7.85 -16.05L7.85 -16L7.75 -16.5L8 -17.4L8.55 -18M-3.7,-27.4L-3.65 -27.25L-3.6 -27.2L-3.55 -27.1L-3.7 -26.9L-3.75 -26.8L-3.85 -26.65L-4.45 -26.7L-4.85 -27.05L-4.85 -27.1L-4.8 -27.35L-4.75 -27.45L-4.7 -27.6L-4.6 -27.65L-4.5 -27.65L-4.45 -27.7L-4.4 -27.75L-4 -27.6L-3.75 -27.45L-3.7 -27.4M-3.9,-25.15Q-3.4 -24.7 -3.35 -24.05Q-3.2 -22.9 -4.35 -23.15L-4.65 -23.6Q-4.9 -24.05 -4.75 -24.55L-4.1 -25.25L-3.9 -25.15M-2.2,-23.3Q-2.1 -22.7 -2.35 -22.25L-2.6 -21.7Q-2.75 -21.15 -3.1 -20.95L-3.15 -20.95L-3.05 -21.35L-3.05 -21.55L-3.15 -21.8L-3.05 -21.95L-3.05 -22.1L-3.05 -22.15L-2.75 -22.45L-2.35 -23.15L-2.25 -23.3L-2.2 -23.3M-3.85,-21.5Q-3.65 -21.4 -3.7 -21.15L-4 -20.8L-4.55 -20.6L-4.65 -20.7L-4.75 -20.8L-4.8 -20.9L-4.85 -21L-4.85 -21.05L-4.65 -21.25L-4.25 -21.45L-3.85 -21.5" />
<path style="fill:#666666;fill-opacity:1" d="M9.5,-16.3L9.15 -16.35L9.2 -16.4L9.2 -16.5L9.25 -16.55L9.45 -16.55L9.7 -16.4L9.5 -16.3" />
<path style="fill:#3A3A3A;fill-opacity:0.2" d="M8.85,-25.75L8.9 -25.65L8.9 -25.55L8.95 -25.45L8.95 -25.4L9.25 -25.3L9.7 -25.35L9.8 -25.5L9.8 -25.7L9.75 -26L9.75 -26.05L9.25 -26.05L9.1 -26L8.95 -25.9L8.85 -25.8L8.85 -25.75M9.2,-26.4Q10.85 -26.45 10.1 -25.15Q9.7 -24.45 9 -24.9Q8.25 -25.35 8.7 -26.05Q8.9 -26.35 9.2 -26.4M13,-25.1L13.3 -25.2L13.35 -25.2L13.65 -25.15L13.9 -25L14.15 -24.85Q14.35 -24.3 14 -23.9Q13.4 -23.25 12.8 -23.9Q12.35 -24.3 12.65 -24.8L12.7 -24.85L12.75 -24.9L13 -25.1M13.7,-24.6L13.65 -24.65L13.6 -24.7L13.2 -24.7L13.1 -24.65L12.95 -24.6L12.85 -24.55L12.85 -24.25Q13 -23.95 13.35 -23.95L13.55 -24L13.6 -24.1L13.7 -24.35L13.7 -24.6M-11.4,-28.2L-11.2 -28.5L-11.3 -28.85L-11.6 -29.2L-12.15 -28.9L-12.3 -28.3L-12.1 -28.05L-11.95 -28.05L-11.4 -28.2M-12.15,-29.25L-11.7 -29.5Q-10.15 -29.1 -11.05 -27.95Q-11.25 -27.7 -11.55 -27.7Q-12.9 -27.7 -12.4 -28.9L-12.15 -29.25M-9.75,-29.4L-9.85 -29.3L-9.9 -29.25L-9.9 -29.15L-9.95 -29.15L-9.9 -29.05L-9.85 -28.95L-9.8 -28.9L-9.2 -28.9L-8.95 -29.15L-8.9 -29.55Q-9.05 -29.75 -9.25 -29.75L-9.4 -29.7L-9.5 -29.6L-9.65 -29.55L-9.7 -29.5L-9.7 -29.4L-9.75 -29.4M-9.8,-28.6Q-10.55 -28.85 -10.2 -29.5L-9.35 -30.1Q-8 -29.75 -9 -28.75Q-9.35 -28.4 -9.8 -28.6M-0.5,-30.3L-0.75 -30.3L-0.95 -30.1L-1.05 -29.9L-1.15 -29.75L-1.1 -29.65L-1.05 -29.6L-1 -29.5L-0.95 -29.45Q-0.55 -29.4 -0.4 -29.75L-0.45 -30.15L-0.45 -30.3L-0.5 -30.3M-0.45,-30.65Q0.6 -30.3 -0.1 -29.4Q-0.45 -28.95 -1 -29.15Q-1.95 -29.45 -1.35 -30.25Q-1 -30.65 -0.45 -30.65M-4.6,-29.9L-4.75 -29.7L-4.75 -29.55L-4.5 -29.3Q-4.2 -29.2 -4.05 -29.45L-4 -29.5L-4 -29.7L-4.3 -30L-4.45 -30L-4.6 -29.9M-4.5,-30.35L-3.9 -30.15L-3.7 -29.6L-3.75 -29.25L-4.65 -29.15Q-5.1 -29.45 -4.85 -29.95L-4.5 -30.35M-14.5,-23.8L-14.75 -23.85L-15.05 -23.55L-15 -23.15L-14.75 -22.9Q-14.45 -22.85 -14.3 -23.05L-14.15 -23.35L-14.25 -23.6L-14.5 -23.8M-14.9,-22.9Q-15.7 -23.65 -14.85 -24.15Q-13.6 -24.05 -14.1 -23Q-14.4 -22.4 -14.9 -22.9" />
<path style="fill:#666666;fill-opacity:0.2" d="M8.85,-25.8L8.95 -25.9L9.1 -26L9.25 -26.05L9.75 -26.05L9.75 -26L9.8 -25.7L9.8 -25.5L9.7 -25.35L9.25 -25.3L8.95 -25.4L8.95 -25.45L8.9 -25.55L8.9 -25.65L8.85 -25.75L8.85 -25.8M13.7,-24.35L13.6 -24.1L13.55 -24L13.35 -23.95Q13 -23.95 12.85 -24.25L12.85 -24.55L12.95 -24.6L13.1 -24.65L13.2 -24.7L13.6 -24.7L13.65 -24.65L13.7 -24.6L13.7 -24.35M-11.95,-28.05L-12.1 -28.05L-12.3 -28.3L-12.15 -28.9L-11.6 -29.2L-11.3 -28.85L-11.2 -28.5L-11.4 -28.2L-11.95 -28.05M-9.7,-29.4L-9.7 -29.5L-9.65 -29.55L-9.5 -29.6L-9.4 -29.7L-9.25 -29.75Q-9.05 -29.75 -8.9 -29.55L-8.95 -29.15L-9.2 -28.9L-9.8 -28.9L-9.85 -28.95L-9.9 -29.05L-9.95 -29.15L-9.9 -29.15L-9.9 -29.25L-9.85 -29.3L-9.75 -29.4L-9.7 -29.4M-0.45,-30.3L-0.45 -30.15L-0.4 -29.75Q-0.55 -29.4 -0.95 -29.45L-1 -29.5L-1.05 -29.6L-1.1 -29.65L-1.15 -29.75L-1.05 -29.9L-0.95 -30.1L-0.75 -30.3L-0.5 -30.3L-0.45 -30.3M-4.45,-30L-4.3 -30L-4 -29.7L-4 -29.5L-4.05 -29.45Q-4.2 -29.2 -4.5 -29.3L-4.75 -29.55L-4.75 -29.7L-4.6 -29.9L-4.45 -30M-14.25,-23.6L-14.15 -23.35L-14.3 -23.05Q-14.45 -22.85 -14.75 -22.9L-15 -23.15L-15.05 -23.55L-14.75 -23.85L-14.5 -23.8L-14.25 -23.6" />
<path style="fill:#1E1E1E;fill-opacity:1" d="M7.4,-33L7.25 -33.15L6.9 -33.3L6.5 -33.35L6.05 -33.15L5.65 -32.9L5.5 -32.6L5.4 -32.6L5.35 -32.6L5.3 -32.65L4.9 -32.4L4.45 -31.9L4.4 -31.45L4.4 -31.4Q5.45 -31.15 6.2 -31.85L6.35 -31.8Q7.5 -31.15 7.6 -32.35L7.35 -32.85L7.35 -32.95L7.4 -33M6.5,-33.65Q7.75 -33.6 8.1 -32.45Q8.45 -31.3 7.4 -30.7L6.85 -30.65L6.25 -30.8Q5.05 -29.75 4 -30.9Q3.75 -31.15 3.9 -31.55Q4.25 -32.65 5.25 -33.1L6.5 -33.65M3.4,-33.95L2.9 -34.25Q1.75 -33.9 2.25 -32.9Q2.35 -32.7 2.6 -32.75Q4 -32.95 3.4 -33.95M3.1,-32.3Q1.4 -32.25 1.95 -33.65Q2.2 -34.4 3 -34.65Q4.55 -34.2 3.85 -32.75Q3.65 -32.3 3.1 -32.3M1.1,-26.05L1.1 -26.1L0.7 -26.3L-0.1 -26.45L-0.55 -26.3L-0.85 -26L-1.05 -25.8L-1.1 -25.55L-1.05 -25.2L-0.9 -24.75L-0.75 -24.6Q0.1 -24.35 0.75 -24.9L1.2 -25.7L1.2 -25.85L1.15 -25.95L1.1 -26.05M4.35,-26.55L4 -26.55L3.4 -26.15Q3.15 -25.85 3.25 -25.5L3.5 -25.2L4.35 -25.45Q4.7 -25.75 4.55 -26.15L4.4 -26.5L4.35 -26.55M2.75,-25.95L2.8 -26.1L3.15 -26.55Q3.55 -26.9 4.05 -26.95Q5.55 -27 5.15 -25.6Q5 -25 4.4 -24.85Q2.9 -24.5 2.8 -25.85L2.75 -25.95M6.85,-25.15Q7.6 -25.1 8.15 -24.6L8.35 -24.35L8.6 -24Q8.9 -23.55 8.8 -23.05L8.75 -22.5Q9.15 -22.05 9 -21.4Q8.7 -20.5 7.75 -20.25L7.15 -20.1Q6.7 -19.25 5.75 -19.15Q4.65 -19 3.9 -19.8Q2.35 -19.7 2.35 -21.25Q2.3 -22.4 3.1 -23.2L3.55 -23.45L4.25 -23.75Q4.85 -23.9 5.4 -24.2L5.8 -24.25L5.85 -24.4L6 -24.7L6.45 -25.05L6.85 -25.15M11.3,-22.25L10.85 -21.65L10.75 -21.25Q11.45 -20.45 12.3 -21.1Q12.85 -21.45 12.65 -22.05Q12.5 -22.55 11.95 -22.6Q11.55 -22.6 11.3 -22.25M10.5,-21.55Q10.9 -22.65 12 -23Q13.85 -22.8 13.5 -21.05L13.1 -20.45L12.75 -20.25Q13.05 -19.9 13 -19.25Q12.95 -18.15 11.8 -17.8L11.5 -17.7Q9.6 -17.2 9.5 -18.85Q9.4 -19.75 10.35 -20L11.05 -20.25L10.5 -21.05L10.5 -21.55M10.9,-19.75L10.65 -19.55L10.55 -19.45L10.1 -19.4L9.85 -19.15L9.8 -18.95L9.9 -18.7L10.05 -18.5L10.2 -18.3L10.3 -18.25L10.3 -18.6L10.45 -18.95L11.15 -19.4L11.1 -19.55L11.1 -19.7L11.15 -19.85L11.15 -19.9L10.9 -19.75M7.75,-24.5L6.9 -24.75L6.45 -24.5L6.15 -24.15L5.95 -23.85L4.3 -23.45L3.75 -23.05Q3.3 -22.6 3.55 -22.05Q3.95 -21.3 4.65 -21.2Q4.7 -20.8 5.35 -21.1L5.9 -21.55L5.95 -21.7L6 -21.85L6.05 -22L6 -22.25L5.85 -22.5L5.75 -22.8L5.8 -22.9L6.25 -22.7L6.5 -22.25L6.65 -22Q7.25 -21.9 7.35 -22.45L7.15 -23.05L7.05 -23.35L7.15 -23.45L7.7 -23.5L7.8 -23.85L7.75 -24.25L7.75 -24.5M1.35,-22.6Q-0.4 -22.35 -1 -24L-1.1 -24.6L-1.3 -25.55Q-1.2 -26.6 -0.15 -26.85Q1.4 -26.95 1.45 -25.8Q2.4 -24.6 1.9 -23.1Q1.8 -22.65 1.35 -22.6M1.35,-24L1.3 -24.2L0.8 -23.8L0.2 -23.7L-0.2 -23.55Q0.2 -22.9 1 -23.2L1.3 -23.6L1.35 -24M0.3,-20.5L0.2 -20.3L0.1 -20.1L0.05 -19.95L0.4 -19.7L0.55 -19.55L0.75 -19.95L0.65 -20.2L0.35 -20.5L0.3 -20.5M0,-19.2L-0.1 -19.2L-0.25 -18.95L-0.3 -18.65L-0.25 -18.5Q0 -18.35 0.25 -18.5L0.25 -18.55L0.3 -18.65L0.35 -18.75L0.25 -19L0 -19.2M1.3,-18.65Q1.3 -17.3 -0.2 -17.75Q-0.8 -17.95 -0.65 -18.65L-0.3 -20.05Q-0.15 -20.7 0.4 -20.9Q1.05 -20.9 1.4 -20.35Q1.75 -19.85 1.65 -19.25L1.3 -18.65M5.05,-17.2L5.2 -17.25Q6.35 -16.2 5.3 -15.35L4.95 -15.2L3.15 -14.9Q2.6 -14.95 2.35 -15.45Q2.25 -15.7 2.3 -15.9L2.25 -16.05Q2.15 -16.4 2.45 -16.55L3.5 -16.95L4.3 -17.2L4.95 -17.1L4.95 -17.15L5.05 -17.2M3.75,-15.9L4.95 -16.2Q5.2 -16.3 5.15 -16.55L5 -16.65L4.85 -16.7L4.4 -16.8L3.8 -16.5L3.15 -16.3L2.8 -16.5L2.65 -16.4L2.5 -16.3L2.45 -16.2L2.45 -16.05L2.45 -16L2.45 -15.95Q2.7 -15.65 3.1 -15.75L3.75 -15.9M9.65,-17.1Q11.3 -17.05 10.65 -15.65Q10.1 -14.45 8.7 -14.85Q7.15 -15.2 7.35 -16.75Q7.5 -17.5 7.95 -18.1Q8.3 -18.5 8.8 -18.45L9.45 -18.15L9.6 -17.5L9.65 -17.1M8,-17.4L7.75 -16.5L7.85 -16L7.85 -16.05L7.9 -16.1L8.05 -16.25L8.1 -16.3Q8 -16.6 8.2 -16.9L8.75 -17.75Q8.85 -18.05 8.55 -18L8 -17.4M9.7,-16.4L9.45 -16.55L9.25 -16.55L9.2 -16.5L9.2 -16.4L9.15 -16.35L9.5 -16.3L9.7 -16.4M-4.85,-27.9L-4.75 -28L-4.45 -28.1L-4.35 -28.1Q-2.85 -28.3 -3.05 -26.9Q-3.1 -26.45 -3.6 -26.35Q-5.15 -26.15 -4.9 -27.45L-4.85 -27.85L-4.85 -27.9M-3.75,-27.45L-4 -27.6L-4.4 -27.75L-4.45 -27.7L-4.5 -27.65L-4.6 -27.65L-4.7 -27.6L-4.75 -27.45L-4.8 -27.35L-4.85 -27.1L-4.85 -27.05L-4.45 -26.7L-3.85 -26.65L-3.75 -26.8L-3.7 -26.9L-3.55 -27.1L-3.6 -27.2L-3.65 -27.25L-3.7 -27.4L-3.75 -27.45M-3.8,-25.6Q-2.6 -25.25 -2.35 -24.25Q-1.1 -23.35 -1.65 -21.75L-2.05 -20.3L-2.5 -19.55Q-3 -19.2 -3.45 -19.55L-3.9 -20.25L-4.35 -20.3Q-5.4 -20.55 -4.95 -21.45Q-4.8 -21.75 -4.45 -21.85L-4 -21.95Q-4.35 -22.1 -4.7 -22.5Q-5.05 -22.95 -5 -23.45L-5.05 -24.1L-4.75 -25.1Q-4.45 -25.55 -3.8 -25.6M-4.1,-25.25L-4.75 -24.55Q-4.9 -24.05 -4.65 -23.6L-4.35 -23.15Q-3.2 -22.9 -3.35 -24.05Q-3.4 -24.7 -3.9 -25.15L-4.1 -25.25M-2.25,-23.3L-2.35 -23.15L-2.75 -22.45L-3.05 -22.15L-3.05 -22.1L-3.05 -21.95L-3.15 -21.8L-3.05 -21.55L-3.05 -21.35L-3.15 -20.95L-3.1 -20.95Q-2.75 -21.15 -2.6 -21.7L-2.35 -22.25Q-2.1 -22.7 -2.2 -23.3L-2.25 -23.3M-4.25,-21.45L-4.65 -21.25L-4.85 -21.05L-4.85 -21L-4.8 -20.9L-4.75 -20.8L-4.65 -20.7L-4.55 -20.6L-4 -20.8L-3.7 -21.15Q-3.65 -21.4 -3.85 -21.5L-4.25 -21.45" />
</g>
</svg>
