<?xml version="1.0" encoding="utf-8"?>
<svg version="1.1" id="Layer_1"
xmlns="http://www.w3.org/2000/svg"
xmlns:xlink="http://www.w3.org/1999/xlink"
width="101px" height="86px"
xml:space="preserve">
<g id="813" transform="matrix(1, 0, 0, 1, 3.95, 7.55)">
<path style="fill:#000000;fill-opacity:1" d="M43.5,2.05L43.45 2.05L42.9 2.05L42.4 2.4L42.35 2.45L40.8 3.05L40.55 2.8L40.1 2.8L39.9 3.1Q39.8 3.2 39.85 3.4L39.65 3.45Q39.6 3.25 39.4 3.25L39.25 3.2L38.95 2.65L38.35 1.05L39.65 -2.05L39.7 -2.05L54.35 -7.55L52 -1.2L43.5 2.05M45.05,6.65L47.55 5.6L48.75 5.1L49.95 6.3L50.75 7.1L51.2 7.6L51.25 6.25L51.35 4.1L51.4 4.1L51.6 4L52.55 3.6L51.3 7.95L51.2 8L44.95 7.35L45.05 6.65M40.4,-0.8L40.8 -0.4L41.4 -0.35L41.8 -0.75L41.8 -1.35L41.45 -1.6L40.95 -1.6L40.45 -1.25L40.4 -0.8M71.95,3.8L71.9 3.3L71.65 2.8L70.65 0.2L69.85 -0.3L69.95 -0.35L69.9 -0.7L69.65 -0.9L69.25 -0.85L69.05 -0.8L68.05 -1.4L68 -1.5L67.5 -1.9L67.05 -2.05L66.85 -2L63.65 -3.9L70.1 -6.1L71.25 -5.45L72.1 -2.2L71.2 -0.55L71.55 -0.65L73.05 -1.25L76.1 0.25L78.1 5.8L73.05 7L71.95 3.8M62.85,3.15L56.25 1.4L56.2 1.35L60.4 -0.45L62.85 0.9L62.85 3.15M69.2,-5.1L69.1 -4.55Q69.2 -4.25 69.45 -4.1L70 -4L70.5 -4.4L70.5 -4.9L70.1 -5.3L69.6 -5.45L69.2 -5.1M69.85,-2.75L69.65 -2.7L69.35 -2.45Q69.15 -2.15 69.35 -1.9Q69.4 -1.6 69.6 -1.45L70.3 -1.4Q70.45 -1.35 70.65 -1.65L70.75 -2.2L70.25 -2.65L69.85 -2.75M86.3,14.55L86.2 14.05L85.9 13.65L85.35 13.65Q85.05 13.8 85.05 14.1L85 14.65L85.45 15L86.1 15.05L86.3 14.55M81.8,25.1L81.85 24.8L81.9 24.6L82.6 22.95L83.05 22.85L83.3 22.5L83.35 21.8L82.95 21.65L83.3 20.45L83.65 20.2L83.8 20L83.9 19.65L83.65 19.45L83.85 18.75L82.45 15.8L82.3 15.35L82 15.05L77.65 6.45L82.45 4.6L87.5 14.4L86.3 17.55L84.95 18.4L84.75 18.4L84.95 18.55L86.7 19L88.2 22.1L86.15 28.35L81.45 26.15L81.8 25.1M75.6,16.45L77.1 20.25L75.05 22.9L74.85 23.1L72.25 21.9L73.95 16.4L75.6 16.45M84.95,16.25L84.65 16L84.6 15.95L84.1 15.95Q83.8 16.15 83.8 16.35Q83.65 16.65 83.85 16.85L84.25 17.35L84.75 17.3L84.8 17.25L85.05 16.9L84.95 16.25M84.6,21.3L85 21.7L85.15 21.65L85.5 21.45L85.75 21.05L85.85 20.45L85.4 20.2L85.1 20.2L84.95 20.2L84.55 20.7Q84.5 21 84.6 21.3M87.45,22.55L87.15 22.25L86.55 22.35Q86.3 22.45 86.15 22.7L86.2 23L86.25 23.15L86.7 23.5L87.2 23.5L87.3 23.45L87.4 23.05L87.45 22.55M85.95,40.25L84.75 43.45L82.05 47.65L81.6 48.3L81.4 48.25L81.35 48.25L81.3 48.25L81.25 48.25L81.1 48.2L70.6 35.15L70.65 35.1L75.5 32.75L75.9 32.7L76.75 32.5L77.85 32.25L78.55 32.15L78.75 32.1L78.65 30.4L78.7 29.95L78.55 29.6L78.5 28.6L83.7 28.85L84.3 38.05Q84.1 37.8 83.9 37.9L84.55 38.65L85.95 40.25M85.1,52.85L83.05 50.6L83.6 49.55L83.65 49.25L89.5 48.75L92.8 49.25L94.15 52.95L91.6 55.45L95.1 55.6L96.55 59.5L94.35 62L90.6 64.75L90.85 62.35Q90.85 58.95 89.05 56.3L88.05 55.1L87.7 54.75L85.75 53.2L85.1 52.85M88.5,69L88.5 70.45L87.8 73.7L84.05 74.85L82.3 72.85Q85.35 72.25 87.7 69.85L88.5 69M73.25,71.75L75 71.7L75.85 72.1Q77.05 72.65 78.45 72.85L80.2 73L81.65 72.95L81.35 75.65L77.4 76.85L75 74.5L73.95 72.85L73.25 71.75M52.75,71.65L68.4 71.65L68.1 72.85L67.7 74.25L66.15 77.2L62.2 77.25L60.7 74.05L59.4 77.3L55.25 77.4L53.6 74.45L53.1 72.85L52.75 71.65M46.7,72.85L46.3 74.35L44.7 77.3L40.75 77.3L39.3 74.1L37.95 77.35L33.8 77.35L32.2 74.4L31.75 72.85L31.4 71.65L47.05 71.65L46.7 72.85M25.65,72.85L22.3 76.2L19.45 77.95L16.05 75.95L16.35 72.45L13.6 74.6L10 72.5L10.05 69.15L10.65 66.8Q11.4 68.45 12.8 69.85Q15.45 72.5 18.95 72.95L22.2 72.85L24.75 72.1L25.55 71.7L25.6 71.7L26.3 71.7L26.45 72.05L25.65 72.85M16.55,52.45L16.45 52.45Q15.95 52.6 15.55 52.85Q15.25 52.95 15.05 53.15L14.9 53.25Q14.1 53.6 13.4 54.25L11.05 57.05L10.6 58.05Q9.7 60 9.7 62.35L9.9 64.5L6.7 62.4L4.4 59.95L5.65 56.2L9.15 55.8L6.5 53.55L7.75 49.6L11.05 48.95L16.9 49.15L17.1 49.8L17.5 51.15L19.5 48.75L18.8 47.8L16.45 44.45L15.15 41.35L17.65 38.3L18.3 38.5L18.65 33.25L20.75 31.9L20.85 31.9L21.05 31.7L24.25 28L23.9 33.3L25.35 33.55L27.15 34.35L28 34.7L30.25 35.65L31.6 34L29.75 31.4L29.2 30.6L28.75 29.95L28.35 29L27.95 28L27.45 26.85L29.95 23.8L30.35 23.9L31.7 24.3L32.5 24.5L33.35 24.7L32.9 23.8L32.2 22.55L31.7 21.65L31.95 21.4L33.15 19.9L34 18.85L34.35 18.45L35.7 18.7L36.65 18.9L37.65 19.05L42.3 21.05L14.9 54.55L16.55 52.45M31.55,14.85L32.75 7L35.4 11.45L31.55 14.85M44.45,12.5L50.1 15.2Q46.1 15.4 43.25 18.25L43.2 18.25L42.05 19.7L43.25 14.75L44.45 12.5M57.35,14.5L58.7 18.8L58.2 18.15L57.85 17.8Q54.85 15.15 50.8 15.15L50.25 15.2L56.8 13.5L57.35 14.5M70.7,32.95L69.2 33.3L68.6 32.6L68.55 32.6L67.1 30.8L67.15 30.75L65.9 29.2L65.85 29.25L63.5 26.35L63.55 26.3L62.7 25.25L62.65 25.3L62.55 25.2L62.55 25.1L61.35 23.6L61.25 23.5L60.75 22.9L60.75 22.85L59.5 21.4L58.1 19.7L61.5 17.8L64.75 16.9L65.45 17.6L65.95 18.15L66.55 18.8L67.5 19.75L66.2 23.05L67.95 22.35L68.35 28.1L71.2 28.25L68.6 32.6L70.15 32.25L70.7 32.95M61.65,63.25L62.35 63.75L63.05 64.25L63.1 66.2L65.3 66.35L64.55 70.3L66.8 70.25L66.25 66.45L66.25 66.4L66.3 66.4L66.5 65.85L70.1 65.85Q70.85 68.1 72.6 69.85L73.2 70.35L73.55 70.65L72.5 70.55L72.35 70.35L61.5 70.35L61.35 63.15L61.65 63.25M56.15,65.85L60 63.05L60.15 70.35L56.55 70.35L55.95 65.85L56.15 65.85M55.25,65.85L54.3 70.35L45.45 70.35L44.85 65.85L55.25 65.85M41.3,63.95L43.9 65.85L44.15 65.85L43.2 70.35L40.15 70.35L40.1 64.15L41.3 63.95M34.85,65.85L37.5 64L38.75 64.15L38.8 70.35L35.2 70.35L34.7 65.95L34.7 65.85L34.85 65.85M27.9,69.85Q29.7 68.1 30.5 65.85L33.95 65.85L32.9 70.35L27.4 70.35L27.9 69.85M40.6,32.5L24.6 52.5Q22.6 51.65 20.35 51.65L18.9 51.75L20 50.55L19.75 50.55L22.15 47.65L25.8 49.95L23.05 46.55L25.35 43.8L29.1 46.8L29.95 45.8L26.2 42.75L28.7 39.75L32.25 42.05L29.6 38.65L34.25 33.05L38.1 35.45L35.25 31.85L37.5 29.15L41.4 32.3L40.6 32.5M42.65,26.35L42.25 31.3L38.3 28.15L40.8 25.15L42.65 26.35M41.75,23.95L43 22.5L42.75 25.25L41.75 23.95M56.85,24.15L56.4 20.6L56.8 20.4L57.1 20.7L57.75 21.4L58.15 21.95L58.4 22.25L56.85 24.15M57.65,30.1L57.05 25.55L57 25.2L57.05 25.2L59.5 23.65L61.55 26.35L57.65 30.1M75.8,50.8L71.05 44.85L70.65 44.35L68.7 41.95L68.65 41.2L68.05 41.1L67.15 40L66.95 39.95L65.35 38L65.45 37.85L64.85 37.1L62.25 33.9L62.05 34L59.9 31.35L59.95 31.35L59.4 31.25L58.6 31.05L60.1 29.65L62.4 27.45L62.7 27.85L62.7 27.65L64.9 30.4L62.05 33.85L65.85 31.55L71.15 38.1L68.5 41.05L72 39.15L74.3 42L71.05 44.85L71.95 45.85L75.15 43.05L77.65 46.15L75.2 48.75L78.4 47.05L82.25 51.85L80.2 51.65L77.5 52L76.9 52.15L76.5 51.65L75.8 50.8M69.55,61.5L69.75 60L70 59.2L69.8 60Q69.6 60.9 69.55 61.95L69.55 61.5M69.6,63.5L69.8 64.75L69.6 63.6L69.6 63.5M75.6,1.5L75.4 0.95L74.9 0.85Q74.55 1.05 74.35 1.3L74.35 1.9L74.7 2.3L75.2 2.2L75.65 1.9L75.6 1.5M72.25,0.3Q71.9 0.3 71.85 0.5L71.85 1.15L72.2 1.55L72.8 1.6L73.1 1.35L73.15 1.2L73 0.75L72.8 0.2L72.3 0.3L72.25 0.3M41.05,1L40.75 0.9L40.5 0.9L40.3 0.9L39.8 1.3L39.8 1.8L39.85 1.9L40.15 2.15L40.75 2.1L40.8 2.1L41.1 1.8L41.2 1.3L41.05 1M80.1,37.9L80.05 37.9L79.9 38.2L80.3 38.1L80.1 37.9M37.7,1.35L37.5 1.5L37.4 1.85L37.5 2.25L34.1 7.35L30.4 3.7L32.65 0.4L35.95 -0.3L37.5 0.85L37.6 0.9L37.8 1.35L37.7 1.35M35.5,2.75L35.9 3.15L36.5 3.2Q36.75 3.15 36.9 2.9L36.95 2.35L36.6 1.9L36.2 1.85L36.15 1.85L35.6 2.15L35.5 2.4L35.5 2.75M33,1.4Q32.85 1.65 32.95 1.95L33.25 2.4L33.85 2.4L34.25 2.15L34.4 1.6L34 1.15L33.5 1.1L33 1.4M26.5,7.35L22.45 19.45L21.6 20.3L21.7 21.6L21.7 21.7L18.5 31.3L18.5 31.6L18.7 31.85L18.95 31.8L17.05 33.4L16.95 31L17.1 30.85L17.25 30.4L17.25 30.25L17 29.9L16.95 29.9L16.85 29.9L16.8 28.35L16.95 28.35L17 28.4L17.5 28.45L17.95 28.25L18.05 28.1L18.15 27.85L18.1 27.7L17.85 27.2L17.35 27.15L17.05 27.25L16.8 27.3L16.5 22.45L18.8 19.9L19.85 19.95Q19.85 20.3 20.1 20.35L20.5 20.5L20.7 20.55L21 20.4L21.1 20.25L21.25 19.75L21.25 19.7L21 19.3L20.55 19.15L20.3 19.25L19.55 18.55L19.3 15.2L22.8 11.55Q22.65 11.65 22.65 11.9L22.95 12.4L23.5 12.55L24 12.25L24.2 11.75L23.85 11.25L23.35 11.15L23.15 11.2Q23 11.25 22.85 11.4L24.1 9.95L24.5 10L24.9 9.75L25.1 9.25L25.05 9.05L26.5 7.35M23.9,17.85L27.6 6.85L27.55 6.5L27.4 6.4L28.1 5.7L27.75 13.65L23.9 17.85M22.05,27.55L19.3 31.55L21.85 24L22.05 27.55M23.3,14.4L23.05 13.95L22.55 13.9L21.95 14.05Q21.75 14.3 21.85 14.55Q21.9 14.9 22.1 15.05L22.7 15.2L23.15 14.9L23.3 14.4M20.8,16.75Q20.65 16.9 20.65 17.2L20.95 17.75L21.05 17.8L21.5 17.85L21.65 17.8L21.95 17.6L22.1 17.1L21.85 16.6L21.35 16.55L20.8 16.75M20.45,22.35L20.45 22.2L20.1 21.85L19.6 21.8L19.5 21.8L19.05 22L18.95 22.5Q19 22.85 19.2 23L19.65 23.15L19.75 23.15L20.2 22.95L20.25 22.85L20.4 22.65L20.45 22.35M18.25,24.55L18.2 24.7Q18.05 24.9 18.15 25.15L18.3 25.55L18.4 25.55L18.9 25.7L19.45 25.5L19.6 24.95L19.35 24.5L18.8 24.4L18.25 24.55" />
<path style="fill:#8B5F3D;fill-opacity:1" d="M52.75,0.85L53.1 1.65L50.8 2.5L51.4 4.1L51.35 4.1L51.25 6.25L49.95 2.8L43.7 5.15L43.55 5.25L43.4 5.2L40.1 3.6L39.85 3.4Q39.8 3.2 39.9 3.1L40.1 2.8L40.55 2.8L40.8 3.05L43.55 4.3L52.75 0.85M43.75,2.35L43.7 2.9L43.35 3.3L42.75 3.3L42.35 2.9L42.35 2.45L42.4 2.4L42.9 2.05L43.45 2.05L43.5 2.05L43.75 2.35M40.45,-1.25L40.95 -1.6L41.45 -1.6L41.8 -1.35L41.8 -0.75L41.4 -0.35L40.8 -0.4L40.4 -0.8L40.45 -1.25M51.45,-0.2L51.85 0.25L51.8 0.75Q51.7 1 51.4 1.1L50.8 1.1L50.45 0.75Q50.35 0.45 50.5 0.2L50.55 0.1L50.9 -0.15L51.45 -0.2M66.75,0.4L69.05 -0.8L69.25 -0.85L69.65 -0.9L69.9 -0.7L69.95 -0.35L69.85 -0.3L69.65 -0.1L66.9 1.35L66.75 1.35L66.55 1.25L62.2 -1.25L62.6 -2L66.75 0.4M70.3,7.7L69.4 7.9L68.25 4.6L68.2 4.25L69.85 1.05Q69.9 0.85 70.1 0.8L70.35 0.8L70.6 1.05L70.55 1.35L69.1 4.4L70.3 7.7M63.6,-1.95Q63.5 -2.2 63.7 -2.45L64.05 -2.8L64.7 -2.7L65 -2.3L64.95 -1.8L64.45 -1.4Q64.2 -1.35 64 -1.55Q63.75 -1.6 63.6 -1.95M69.6,-5.45L70.1 -5.3L70.5 -4.9L70.5 -4.4L70 -4L69.45 -4.1Q69.2 -4.25 69.1 -4.55L69.2 -5.1L69.6 -5.45M67.05,-2.05L67.5 -1.9L68 -1.5L68.05 -1.4L67.9 -1.05L67.5 -0.75L66.9 -0.8Q66.6 -0.95 66.55 -1.25L66.6 -1.75L66.85 -2L67.05 -2.05M70.25,-2.65L70.75 -2.2L70.65 -1.65Q70.45 -1.35 70.3 -1.4L69.6 -1.45Q69.4 -1.6 69.35 -1.9Q69.15 -2.15 69.35 -2.45L69.65 -2.7L69.85 -2.75L70.25 -2.65M86.1,15.05L85.45 15L85 14.65L85.05 14.1Q85.05 13.8 85.35 13.65L85.9 13.65L86.2 14.05L86.3 14.55L86.1 15.05M79.5,25.3L78.75 24.95L79.9 21.35L80.15 21.15L83.25 19.55L83.65 19.45L83.9 19.65L83.8 20L83.65 20.2L83.3 20.45L80.65 21.75L79.5 25.3M80.1,17.4L83 17.75L83.3 17.85L83.35 18.25L83.15 18.55L82.9 18.6L79.75 18.25L79.55 18.15L79.4 18L76.2 11.75L75.4 12.05L75.75 10.95L74.1 7.8L74.95 7.45L80.1 17.4M82,15.05L82.3 15.35L82.45 15.8L82.4 15.95L82.15 16.3L81.5 16.4L81.15 15.9L81.1 15.4Q81.05 15.2 81.45 15.1L81.85 15.05L82 15.05M82.95,21.65L83.35 21.8L83.3 22.5L83.05 22.85L82.6 22.95L82.1 22.65Q82 22.4 82.15 22.05L82.45 21.55L82.6 21.55L82.95 21.65M81.9,24.6L81.85 24.8L81.8 25.1Q81.65 25.1 81.65 25.25L81 25.35L80.65 25.05Q80.45 24.6 80.55 24.4Q80.7 24.1 81 23.9L81.45 23.85L81.9 24.25L81.9 24.6M85.05,16.9L84.8 17.25L84.75 17.3L84.25 17.35L83.85 16.85Q83.65 16.65 83.8 16.35Q83.8 16.15 84.1 15.95L84.6 15.95L84.65 16L84.95 16.25L85.05 16.9M84.55,20.7L84.95 20.2L85.1 20.2L85.4 20.2L85.85 20.45L85.75 21.05L85.5 21.45L85.15 21.65L85 21.7L84.6 21.3Q84.5 21 84.55 20.7M87.4,23.05L87.3 23.45L87.2 23.5L86.7 23.5L86.25 23.15L86.2 23L86.15 22.7Q86.3 22.45 86.55 22.35L87.15 22.25L87.45 22.55L87.4 23.05M84.55,38.5L84.55 38.65L83.9 37.9Q84.1 37.8 84.3 38.05L84.55 38.5M78.55,29.6L78.7 29.95L78.65 30.4L78.5 30.45L78.15 30.8Q77.7 30.8 77.65 30.6L77.35 30.1L77.45 29.45Q77.5 29.25 77.95 29.25L78.4 29.4L78.55 29.6M78.55,32.15L77.85 32.25Q77.8 32.15 78.2 32.05L78.55 32.15M70.15,32.25L75.75 30.95L75.55 28.45L76.4 28.5L76.6 31.1L76.65 31.2L76.65 31.45L76.75 32.5L75.9 32.7L75.8 31.85L70.7 32.95L70.15 32.25M20.85,31.9L20.75 31.9L21.05 31.7L20.85 31.9M30,21.4L30.6 20.7L31.95 21.4L31.7 21.65L32.2 22.55L30 21.4M36.65,18.9L35.7 18.7L37.6 15.2L38.15 16.15L36.65 18.9M66.55,18.8L65.95 18.15L67.55 16.6L67.65 17.8L66.55 18.8M75.65,1.9L75.2 2.2L74.7 2.3L74.35 1.9L74.35 1.3Q74.55 1.05 74.9 0.85L75.4 0.95L75.6 1.5L75.65 1.9M72.3,0.3L72.8 0.2L73 0.75L73.15 1.2L73.1 1.35L72.8 1.6L72.2 1.55L71.85 1.15L71.85 0.5Q71.9 0.3 72.25 0.3L72.3 0.3M71.9,3.3L71.95 3.8L71.45 4.25L70.95 4.15L70.6 3.7Q70.55 3.4 70.65 3.15L71 2.8L71.65 2.8L71.9 3.3M72.05,6.1L72.05 6.55L72.05 6.6L71.7 6.95L71.2 6.9L71.15 6.9L70.8 6.45Q70.65 6.2 70.75 5.8Q70.8 5.65 71.15 5.55L71.65 5.6L72.05 6.1M77.7,8.15L77.8 8.7L77.5 9.15L76.95 9.1L76.5 8.7L76.4 8.1L76.8 7.75Q77 7.6 77.25 7.75L77.7 8.15M77.85,11.2L77.75 10.65L78.05 10.3L78.6 10.2L79.05 10.75L79.1 11.15L78.75 11.55Q78.35 11.75 78.2 11.55L77.85 11.2M64.75,16.9L64.95 16.4L65.5 16.25Q65.8 16.25 66 16.4L66.2 16.9L66 17.4Q65.8 17.6 65.5 17.6L65.45 17.6L64.75 16.9M80,12.9L80.3 13.2L80.35 13.65L80 14.1L79.5 14.2L79.45 14.05L79.15 13.7Q79 13.5 79.1 13.15Q79 12.9 79.35 12.8L79.85 12.75L80 12.9M50.75,7.1L49.95 6.3L50.3 6.25L50.65 6.7L50.75 7.1M48.85,0.8L49.2 1.2L49.2 1.7L48.75 2.1L48.2 2.1L47.85 1.7Q47.7 1.45 47.85 1.15L48.25 0.85L48.85 0.8M46.55,2.15L46.55 2.75L46.2 3.1L45.55 3.1L45.15 2.7Q45.1 2.4 45.2 2.15L45.7 1.85L46.2 1.8L46.55 2.15M41.2,1.3L41.1 1.8L40.8 2.1L40.75 2.1L40.15 2.15L39.85 1.9L39.8 1.8L39.8 1.3L40.3 0.9L40.5 0.9L40.75 0.9L41.05 1L41.2 1.3M71.9,29.9L72.1 30.4L71.9 30.85L71.4 31.1L70.85 30.85Q70.6 30.75 70.6 30.4L70.85 29.9L71.4 29.75L71.9 29.9M73.7,29.4L74.3 29.25L74.75 29.4L75 29.9L74.75 30.4Q74.55 30.6 74.3 30.6L73.7 30.4L73.5 29.9L73.7 29.4M80.3,38.1L79.9 38.2L80.05 37.9L80.1 37.9L80.3 38.1M38.45,5.2L37.5 2.25L37.4 1.85L37.5 1.5L37.7 1.35L37.8 1.35L39.35 5.35L38 11.2L37.2 10.4L38.45 5.2M35.5,2.4L35.6 2.15L36.15 1.85L36.2 1.85L36.6 1.9L36.95 2.35L36.9 2.9Q36.75 3.15 36.5 3.2L35.9 3.15L35.5 2.75L35.5 2.4M37.35,4.6L37.7 5.05L37.6 5.6L37.2 5.9L36.6 5.85L36.25 5.45Q36.15 5.2 36.35 4.85L36.85 4.6L37.35 4.6M33.5,1.1L34 1.15L34.4 1.6L34.25 2.15L33.85 2.4L33.25 2.4L32.95 1.95Q32.85 1.65 33 1.4L33.5 1.1M35.9,8.25L35.6 7.9Q35.5 7.6 35.65 7.35L36.2 7.05L36.65 7.1L37.05 7.5L36.9 8L36.55 8.35L35.9 8.25M24.6,6.3Q24.85 6.1 25.1 6.05L25.6 6.15L25.9 6.65L25.75 7.1L25.25 7.4L24.7 7.2L24.45 6.8Q24.4 6.5 24.6 6.3M23.8,9.85L23.55 9.5L23.75 8.9L24.3 8.7L24.85 8.8L25.05 9.05L25.1 9.25L24.9 9.75L24.5 10L24.1 9.95L23.8 9.85M22.85,11.4Q23 11.25 23.15 11.2L23.35 11.15L23.85 11.25L24.2 11.75L24 12.25L23.5 12.55L22.95 12.4L22.65 11.9Q22.65 11.65 22.8 11.55L22.8 11.5L22.85 11.4M20.3,19.25L20.55 19.15L21 19.3L21.25 19.7L21.25 19.75L21.1 20.25L21 20.4L20.7 20.55L20.5 20.5L20.1 20.35Q19.85 20.3 19.85 19.95Q19.85 19.65 20 19.4L20.3 19.25M16.8,27.3L17.05 27.25L17.35 27.15L17.85 27.2L18.1 27.7L18.15 27.85L18.05 28.1L17.95 28.25L17.5 28.45L17 28.4L16.95 28.35L16.8 28.35L16.65 28L16.65 27.95L16.6 27.85L16.8 27.4L16.8 27.3M16.85,29.9L16.95 29.9L17 29.9L17.25 30.25L17.25 30.4L17.1 30.85L16.95 31L16.65 31.1L16.05 30.95Q15.85 30.85 15.8 30.55Q15.8 30.25 15.95 30L16.5 29.8L16.85 29.9M19.3,31.55L18.95 31.8L18.7 31.85L18.5 31.6L18.5 31.3L21.7 21.7L22.45 19.45L26.5 7.35L26.8 6.55Q26.8 6.35 26.95 6.35Q27.05 6.2 27.3 6.35L27.4 6.4L27.55 6.5L27.6 6.85L23.9 17.85L23.9 17.9L23.8 18.1L27.5 19.6L27 20.35L23.45 19L21.85 24L19.3 31.55M23.15,14.9L22.7 15.2L22.1 15.05Q21.9 14.9 21.85 14.55Q21.75 14.3 21.95 14.05L22.55 13.9L23.05 13.95L23.3 14.4L23.15 14.9M21.35,16.55L21.85 16.6L22.1 17.1L21.95 17.6L21.65 17.8L21.5 17.85L21.05 17.8L20.95 17.75L20.65 17.2Q20.65 16.9 20.8 16.75L21.35 16.55M20.4,22.65L20.25 22.85L20.2 22.95L19.75 23.15L19.65 23.15L19.2 23Q19 22.85 18.95 22.5L19.05 22L19.5 21.8L19.6 21.8L20.1 21.85L20.45 22.2L20.45 22.35L20.4 22.65M28.05,28.85L27.85 28.35L27.95 28L28.35 29L28.05 28.85M29.2,30.6L29.75 31.4L28 34.7L27.15 34.35L29.2 30.6M36.1,14.45L36.55 14.6L36.8 15.05L36.55 15.55L36.1 15.75L35.5 15.55L35.3 15.05L35.5 14.6L36.1 14.45M34.8,17.95Q34.55 17.95 34.25 17.75L34.05 17.25L34.25 16.75L34.8 16.6L35.3 16.75L35.5 17.25L35.3 17.75Q35.1 17.95 34.8 17.95M34,18.85L33.15 19.9Q32.9 19.8 32.9 19.4L33.15 18.95L33.7 18.8L34 18.85M32.9,23.8L33.35 24.7L32.5 24.5L32.9 23.8M31.7,24.3L30.35 23.9L30.45 23.7L31 23.55Q31.3 23.55 31.5 23.7L31.7 24.2L31.7 24.3M18.8,24.4L19.35 24.5L19.6 24.95L19.45 25.5L18.9 25.7L18.4 25.55L18.3 25.55L18.15 25.15Q18.05 24.9 18.2 24.7L18.25 24.55L18.8 24.4M27.35,29.9L27.85 30.05L28.05 30.5L27.85 31L27.35 31.2L26.8 31L26.6 30.5L26.8 30.05L27.35 29.9M26.1,32.05L26.6 32.2L26.8 32.7L26.6 33.2L26.1 33.4L25.55 33.2L25.35 32.7L25.55 32.2L26.1 32.05" />
<path style="fill:#0B0B0B;fill-opacity:1" d="M43.55,4.3L40.8 3.05L42.35 2.45L42.35 2.9L42.75 3.3L43.35 3.3L43.7 2.9L43.75 2.35L43.5 2.05L52 -1.2L52.75 0.85L43.55 4.3M51.6,4L51.4 4.1L50.8 2.5L53.1 1.65L52.55 3.6L51.6 4M40.1,3.6L43.4 5.2L43.55 5.25L43.7 5.15L49.95 2.8L51.25 6.25L51.2 7.6L50.75 7.1L50.65 6.7L50.3 6.25L49.95 6.3L48.75 5.1L47.55 5.6L45.05 6.65L44.95 7.35L41.2 7L41.1 6.85L39.65 3.45L39.85 3.4L40.1 3.6M50.9,-0.15L50.55 0.1L50.5 0.2Q50.35 0.45 50.45 0.75L50.8 1.1L51.4 1.1Q51.7 1 51.8 0.75L51.85 0.25L51.45 -0.2L50.9 -0.15M62.85,0.9L60.4 -0.45L62.2 -1.25L66.55 1.25L66.75 1.35L66.9 1.35L69.65 -0.1L69.85 -0.3L70.65 0.2L71.65 2.8L71 2.8L70.65 3.15Q70.55 3.4 70.6 3.7L70.95 4.15L71.45 4.25L71.95 3.8L73.05 7L70.3 7.7L69.1 4.4L70.55 1.35L70.6 1.05L70.35 0.8L70.1 0.8Q69.9 0.85 69.85 1.05L68.2 4.25L68.25 4.6L62.85 3.15L62.85 0.9M69.05,-0.8L66.75 0.4L62.6 -2L63.65 -3.9L66.85 -2L66.6 -1.75L66.55 -1.25Q66.6 -0.95 66.9 -0.8L67.5 -0.75L67.9 -1.05L68.05 -1.4L69.05 -0.8M64,-1.55Q64.2 -1.35 64.45 -1.4L64.95 -1.8L65 -2.3L64.7 -2.7L64.05 -2.8L63.7 -2.45Q63.5 -2.2 63.6 -1.95Q63.75 -1.6 64 -1.55M80.65,21.75L83.3 20.45L82.95 21.65L82.6 21.55L82.45 21.55L82.15 22.05Q82 22.4 82.1 22.65L82.6 22.95L81.9 24.6L81.9 24.25L81.45 23.85L81 23.9Q80.7 24.1 80.55 24.4Q80.45 24.6 80.65 25.05L81 25.35L81.65 25.25Q81.65 25.1 81.8 25.1L81.45 26.15L79.5 25.3L80.65 21.75M73.95,16.4L75.4 12.05L76.2 11.75L79.4 18L79.55 18.15L79.75 18.25L82.9 18.6L83.15 18.55L83.35 18.25L83.3 17.85L83 17.75L80.1 17.4L74.95 7.45L77.65 6.45L82 15.05L81.85 15.05L81.45 15.1Q81.05 15.2 81.1 15.4L81.15 15.9L81.5 16.4L82.15 16.3L82.4 15.95L82.45 15.8L83.85 18.75L83.65 19.45L83.25 19.55L80.15 21.15L79.9 21.35L78.75 24.95L74.85 23.1L75.05 22.9L77.1 20.25L75.6 16.45L73.95 16.4M76.65,31.45L76.65 31.2L76.6 31.1L76.4 28.5L78.5 28.6L78.55 29.6L78.4 29.4L77.95 29.25Q77.5 29.25 77.45 29.45L77.35 30.1L77.65 30.6Q77.7 30.8 78.15 30.8L78.5 30.45L78.65 30.4L78.75 32.1L78.55 32.15L78.2 32.05Q77.8 32.15 77.85 32.25L76.75 32.5L76.65 31.45M69.1,33.3L69.2 33.3L70.7 32.95L75.8 31.85L75.9 32.7L75.5 32.75L70.65 35.1L70.6 35.15L69.1 33.3M81.1,48.2L81.25 48.25L81.3 48.25L81.35 48.25L81.4 48.25L81.6 48.3L82.05 47.65L83.6 49.55L83.05 50.6L81.1 48.2M87.7,69.85Q85.35 72.25 82.3 72.85L81.65 72.95L80.2 73L78.45 72.85Q77.05 72.65 75.85 72.1L75 71.7Q85.55 71.35 88.05 68Q92.55 61.95 85.1 52.85L85.75 53.2L87.7 54.75L88.05 55.1L89.05 56.3Q90.85 58.95 90.85 62.35L90.6 64.75Q90.1 67.1 88.5 69L87.7 69.85M73.95,72.85L68.1 72.85L68.4 71.65L71.95 71.65L72 71.75L73.25 71.75L73.95 72.85M53.1,72.85L46.7 72.85L47.05 71.65L52.75 71.65L53.1 72.85M31.75,72.85L25.65 72.85L26.45 72.05L26.3 71.7L29.2 71.75L29.3 71.65L31.4 71.65L31.75 72.85M14.9,54.55Q9.05 62.5 13.15 68Q15.6 71.25 25.55 71.7L24.75 72.1L22.2 72.85L18.95 72.95Q15.45 72.5 12.8 69.85Q11.4 68.45 10.65 66.8Q10.1 65.7 9.9 64.5L9.7 62.35Q9.7 60 10.6 58.05L11.05 57.05L13.4 54.25Q14.1 53.6 14.9 53.25L15.05 53.15Q15.25 52.95 15.55 52.85Q15.95 52.6 16.45 52.45L16.55 52.45L14.9 54.55M17.1,49.8L18.8 47.8L19.5 48.75L17.5 51.15L17.1 49.8M27.15,34.35L25.35 33.55L23.9 33.3L24.25 28L30 21.4L32.2 22.55L32.9 23.8L32.5 24.5L31.7 24.3L31.7 24.2L31.5 23.7Q31.3 23.55 31 23.55L30.45 23.7L30.35 23.9L29.95 23.8L27.45 26.85L27.95 28L27.85 28.35L28.05 28.85L28.35 29L28.75 29.95L29.2 30.6L27.15 34.35M35.4,11.45L37.6 15.2L35.7 18.7L34.35 18.45L34 18.85L33.7 18.8L33.15 18.95L32.9 19.4Q32.9 19.8 33.15 19.9L31.95 21.4L30.6 20.7L31.55 14.85L35.4 11.45M38.15,16.15L41 10.85L44.45 12.5L43.25 14.75L42.05 19.7L43.2 18.25L43.25 18.25Q46.1 15.4 50.1 15.2L50.15 15.2L50.2 15.2L50.25 15.2L50.8 15.15Q54.85 15.15 57.85 17.8L58.2 18.15L58.7 18.8L57.35 14.5L56.8 13.5L62.2 12.05L67.55 16.6L65.95 18.15L65.45 17.6L65.5 17.6Q65.8 17.6 66 17.4L66.2 16.9L66 16.4Q65.8 16.25 65.5 16.25L64.95 16.4L64.75 16.9L61.5 17.8L58.1 19.7Q55.05 16.7 50.8 16.7Q46.7 16.7 43.7 19.45L43.4 19.7L42.35 21L42.3 21.05L37.65 19.05L36.65 18.9L38.15 16.15M66.2,23.05L67.5 19.75L66.55 18.8L67.65 17.8L67.95 22.35L66.2 23.05M71.2,28.25L75.55 28.45L75.75 30.95L70.15 32.25L68.6 32.6L71.2 28.25M73.2,70.35L72.6 69.85Q70.85 68.1 70.1 65.85L66.5 65.85L67.05 64.1L69.6 63.6L69.8 64.75L69.6 63.5L69.6 62.65L69.55 61.95Q69.6 60.9 69.8 60L70 59.2L69.75 60L69.55 61.5L69.5 60.9L69.9 54.6L76.1 52.6L77 52.3L76.5 51.65L76.9 52.15L77.5 52L80.2 51.65L82.25 51.85L82.4 51.9Q92.25 63.1 87 67.4Q82.1 71.35 73.55 70.65L73.2 70.35M44.85,65.85L44.55 63.6L44.15 65.85L43.9 65.85L41.3 63.95L40.1 64.15L39.6 64.15L39.45 64.15L39.25 64.15L38.75 64.15L37.5 64L34.85 65.85L34.7 65.85L34.4 63.65L33.95 65.85L30.5 65.85Q29.7 68.1 27.9 69.85L27.4 70.35L27.15 70.6L27 70.7Q18.9 71.15 14.2 67.4Q8.95 63.1 18.9 51.75L20.35 51.65Q22.6 51.65 24.6 52.5L40.6 32.5L41.4 32.3L42.25 31.3L42.65 26.35L40.8 25.15L41.75 23.95L42.75 25.25L43 22.5L43.4 21.95L44.25 20.9L44.4 20.7Q47.05 18.1 50.8 18.1Q54.25 18.1 56.8 20.4L56.4 20.6L56.85 24.15L58.4 22.25L59.5 23.65L57.05 25.2L57 25.2L57.05 25.55L57.65 30.1L61.55 26.35L60.1 29.65L58.6 31.05L59.4 31.25L59.95 31.35L59.9 31.35L62.05 34L54.15 37.45L47.25 35.85L46.15 35.55L46.8 37L45.2 38.65L47.2 41L49.2 39.95Q51.05 41.6 53.3 42.25L53.4 44.7L56.6 44.9L56.95 43.85L58.05 45.9Q56.3 47.75 55.65 50.05L53.35 50.2L53.25 51.2L54.2 51.15L55.45 51.1L52.7 56.55L52.6 56.55L52.55 56.6L53.65 56.55L53.7 56.5L53.8 56.5L56.55 51L59.15 50.9L56.4 56.35L55.65 56.4L55.65 56.45L56.5 58.5L54.9 60.15L56.9 62.5L58.9 61.45L60.45 62.6L60.65 62.7L61.25 63.05L61.2 63.05L60 63.05L56.15 65.85L55.95 65.85L55.65 63.7L55.25 65.85L44.85 65.85M83.2,56.7Q81.8 55.9 80.05 55.9L78.75 56.1L80.05 62.25L80.05 56.65L80.15 56.65Q81.65 56.65 82.95 57.35L80.2 62.25L84.35 57.5L83.2 56.7M85.25,65.3L80.2 62.55L85.05 66.6L85.75 65.55Q86.6 64.15 86.6 62.4L86.45 61.2L80.6 62.4L85.95 62.4L85.95 62.5Q85.95 64 85.25 65.3M71.65,5.6L71.15 5.55Q70.8 5.65 70.75 5.8Q70.65 6.2 70.8 6.45L71.15 6.9L71.2 6.9L71.7 6.95L72.05 6.6L72.05 6.55L72.05 6.1L71.65 5.6M77.25,7.75Q77 7.6 76.8 7.75L76.4 8.1L76.5 8.7L76.95 9.1L77.5 9.15L77.8 8.7L77.7 8.15L77.25 7.75M78.2,11.55Q78.35 11.75 78.75 11.55L79.1 11.15L79.05 10.75L78.6 10.2L78.05 10.3L77.75 10.65L77.85 11.2L78.2 11.55M79.85,12.75L79.35 12.8Q79 12.9 79.1 13.15Q79 13.5 79.15 13.7L79.45 14.05L79.5 14.2L80 14.1L80.35 13.65L80.3 13.2L80 12.9L79.85 12.75M48.25,0.85L47.85 1.15Q47.7 1.45 47.85 1.7L48.2 2.1L48.75 2.1L49.2 1.7L49.2 1.2L48.85 0.8L48.25 0.85M46.2,1.8L45.7 1.85L45.2 2.15Q45.1 2.4 45.15 2.7L45.55 3.1L46.2 3.1L46.55 2.75L46.55 2.15L46.2 1.8M50.6,19.8Q52.1 19.8 53.4 20.5L50.65 25.4L54.8 20.65Q54.3 20.15 53.65 19.85Q52.25 19.05 50.5 19.05L49.2 19.25L50.5 25.4L50.5 19.8L50.6 19.8M44.8,22.4Q44 23.8 44 25.55L44.2 27.05L50.35 25.7L46.25 30.45L47.35 31.25Q48.75 32.1 50.5 32.1L51.9 31.95L50.6 25.7L50.5 25.7L50.5 31.45Q48.9 31.45 47.65 30.7L50.45 25.7L50.35 25.7L50.45 25.55L44.75 25.55Q44.75 24 45.45 22.75L50.5 25.55L50.5 25.5L45.65 21.3Q45.1 21.75 44.8 22.4M56.65,24.4L51.05 25.55L55.75 25.55L56.35 25.65L56.4 25.6L56.4 25.65Q56.4 27.15 55.7 28.45L50.65 25.7L55.5 29.75L56.2 28.7Q57.05 27.3 57.05 25.55L56.65 24.4M66.3,39.85L66 40.95L64.75 38.7L65.35 38L66.95 39.95L66.3 39.85M44.65,48.7Q42.7 46.9 40.1 46.7L39.25 46.65L38.95 46.65Q36.15 46.7 34.05 48.55L33.5 49.05L33.4 49.15Q31.3 51.3 31.15 54.25L31.1 54.8L31.1 55.05Q31.15 58.1 33.25 60.35L33.5 60.55L33.85 60.85Q36 62.85 39.1 62.95L39.25 62.95L39.95 62.95Q42.75 62.65 44.85 60.7L45 60.55L45.55 60L46.75 58.1L45.75 58.25L45.15 59.2L44.6 58.15Q43.6 57.9 42.9 57.2L42.4 56.55L41.9 57.1Q40.9 58.1 39.6 58.1Q38.25 58.1 37.25 57.1Q36.3 56.1 36.3 54.8Q36.3 53.45 37.25 52.45Q38.25 51.5 39.6 51.5Q40.9 51.5 41.9 52.45L42.25 52.85L42.9 52L43.05 51.85L42.8 51.55L42.2 51L44.15 49.95L43.2 51.75Q43.85 51.2 44.65 51.05L45 50.3L45.5 50.95L46.5 51.1L45.4 49.5L45 49.05L44.65 48.7M58.9,42.4L57 43.7L57.35 42.6L58.9 42.4M71.4,29.75L70.85 29.9L70.6 30.4Q70.6 30.75 70.85 30.85L71.4 31.1L71.9 30.85L72.1 30.4L71.9 29.9L71.4 29.75M73.5,29.9L73.7 30.4L74.3 30.6Q74.55 30.6 74.75 30.4L75 29.9L74.75 29.4L74.3 29.25L73.7 29.4L73.5 29.9M63,42.8Q62.05 43.05 61.15 43.5L59.7 42.15L61.45 41.45L63 42.8M64.35,42.55L65.95 41.05L65.55 42.4L64.35 42.55M37.2,10.4L34.1 7.35L37.5 2.25L38.45 5.2L37.2 10.4M36.85,4.6L36.35 4.85Q36.15 5.2 36.25 5.45L36.6 5.85L37.2 5.9L37.6 5.6L37.7 5.05L37.35 4.6L36.85 4.6M36.55,8.35L36.9 8L37.05 7.5L36.65 7.1L36.2 7.05L35.65 7.35Q35.5 7.6 35.6 7.9L35.9 8.25L36.55 8.35M24.45,6.8L24.7 7.2L25.25 7.4L25.75 7.1L25.9 6.65L25.6 6.15L25.1 6.05Q24.85 6.1 24.6 6.3Q24.4 6.5 24.45 6.8M16.5,29.8L15.95 30Q15.8 30.25 15.8 30.55Q15.85 30.85 16.05 30.95L16.65 31.1L16.95 31L17.05 33.4L10.6 31.1L9.9 29.05L18.4 4.65L20.35 3.05L28.1 5.7L27.4 6.4L27.3 6.35Q27.05 6.2 26.95 6.35Q26.8 6.35 26.8 6.55L26.5 7.35L25.05 9.05L24.85 8.8L24.3 8.7L23.75 8.9L23.55 9.5L23.8 9.85L24.1 9.95L22.85 11.4L22.8 11.5L22.8 11.55L19.3 15.2L19.55 18.55L20.3 19.25L20 19.4Q19.85 19.65 19.85 19.95L18.8 19.9L16.5 22.45L16.8 27.3L16.8 27.4L16.6 27.85L16.65 27.95L16.65 28L16.8 28.35L16.85 29.9L16.5 29.8M21.7,21.7L21.7 21.6L21.6 20.3L22.45 19.45L21.7 21.7M27.75,13.65L27.5 19.6L23.8 18.1L23.9 17.9L23.9 17.85L27.75 13.65M21.85,24L23.45 19L27 20.35L22.05 27.55L21.85 24M29.75,31.4L31.6 34L30.25 35.65L28 34.7L29.75 31.4M35.5,14.6L35.3 15.05L35.5 15.55L36.1 15.75L36.55 15.55L36.8 15.05L36.55 14.6L36.1 14.45L35.5 14.6M35.3,17.75L35.5 17.25L35.3 16.75L34.8 16.6L34.25 16.75L34.05 17.25L34.25 17.75Q34.55 17.95 34.8 17.95Q35.1 17.95 35.3 17.75M15.35,7.15L15.15 7.7L14.55 9.35L0.7 4.4L0.45 1.85L15.35 7.15M0.85,23L3.05 16.75L-3.95 14.3L0.4 6.4L14 10.85L12.5 15.3L12.15 16.4L11.8 17.2L10.9 19.6L3.3 16.85L10.3 21.15L8.65 25.75L0.85 23M26.8,30.05L26.6 30.5L26.8 31L27.35 31.2L27.85 31L28.05 30.5L27.85 30.05L27.35 29.9L26.8 30.05M25.55,32.2L25.35 32.7L25.55 33.2L26.1 33.4L26.6 33.2L26.8 32.7L26.6 32.2L26.1 32.05L25.55 32.2M38.75,47.5L37.75 50.5L34.9 48.95Q36.5 47.65 38.75 47.5M39.6,50.2L38.75 50.3L39.5 47.9L40.2 50.3L39.6 50.2M36.35,51.55L35.95 52.1L34.75 49.95L36.9 51.05L36.35 51.55M32.8,54.65L35.1 53.95L35.05 54.8L35.1 55.4L32.85 54.7L32.8 54.65M33.85,49.95L35.4 52.9L32 53.95Q32.2 51.7 33.85 49.95M33.7,59.55Q32.1 57.65 31.95 55.35L35.3 56.35L35.3 56.45L33.7 59.55M37.9,59.05L38.8 62.1Q36.35 61.95 34.6 60.4L37.5 58.85L37.9 59.05M36.35,58L36.7 58.35L34.8 59.35L35.85 57.4L36.35 58M40.15,59.35L39.5 61.3L38.9 59.3L39.6 59.35L40.15 59.35M25.25,59.45L20.4 62.35L26.4 60.3L25.85 59.05Q25 57.65 23.5 56.75Q22.9 56.4 22.25 56.3L20.3 62.3L23.1 57.4L23.15 57.45Q24.5 58.2 25.25 59.45M26.4,64.55L20.75 62.7L25.35 65.35L25.3 65.4Q24.55 66.75 23.3 67.5L20.3 62.55L22.45 68.55L23.55 68Q25 67.15 25.9 65.65L26.4 64.55M20.3,62.35L18.2 56.3Q17.45 56.4 16.9 56.8Q15.45 57.65 14.6 59.15Q14.2 59.8 14.05 60.55L20.1 62.45L14.1 64.5L14.65 65.7Q15.5 67.2 17 68.05L18.25 68.65L20.25 62.55L20.2 62.5L17.3 67.5Q15.9 66.7 15.2 65.4L20.15 62.45L20.1 62.45L20.2 62.35L15.25 59.55Q16 58.2 17.25 57.45L20.25 62.4L20.3 62.35M74.35,59.25Q73.55 60.65 73.55 62.4L73.75 63.9L79.9 62.55L75.8 67.3L76.9 68.1Q78.3 68.95 80.05 68.95L81.45 68.8L80.15 62.55L80.05 62.55L80.05 68.3Q78.45 68.3 77.2 67.55L80 62.55L79.9 62.55L80 62.4L74.3 62.4Q74.3 60.85 75 59.6L80.05 62.4L80.05 62.35L75.2 58.15L74.35 59.25M66.8,52.55L67 55.8L65.75 55.9L65.15 55.9L66.8 52.55M64.05,50.6L64.45 50.6L66.7 50.5L66.7 50.65L64.05 55.95L61.3 56.1L64.05 50.6M60.3,50.8L62.95 50.7L60.2 56.15L57.55 56.3L60.3 50.8M61.65,63.25L63 63.75L63.05 64.25L62.35 63.75L61.65 63.25M51.65,51.3L48.9 56.75L48.85 56.75L48.8 56.8L49.9 56.75L49.95 56.7L50.05 56.7L52.8 51.2L51.65 51.3M47.9,51.8L47.85 51.8L48.5 52.75L49.15 51.4L48 51.5L47.9 51.8M47.35,52.8Q46.55 52 45.5 52Q44.55 52 43.85 52.6L43.6 52.8Q42.9 53.55 42.9 54.6L42.9 54.8Q42.95 55.75 43.6 56.5L43.8 56.7Q44.55 57.2 45.5 57.2L46.25 57.1L46.75 56.95L47.35 56.5Q48.1 55.7 48.1 54.6L47.95 53.7L47.35 52.8M47.15,53.15L47.75 54.2L47.75 54.6Q47.75 55.5 47.05 56.15L46.45 56.65L45.5 56.85L45.3 56.85Q44.55 56.75 44.05 56.25L43.95 56.15Q43.25 55.5 43.25 54.6Q43.25 53.6 43.95 53.05L44 53Q44.65 52.35 45.5 52.35Q46.5 52.35 47.05 53.05L47.15 53.15M42.8,58L43.25 57.6L44.15 59.35L42.4 58.45L42.8 58M41.55,58.95L44.15 60.35Q42.4 61.75 40.2 62L41.15 59.15L41.55 58.95M40.35,47.55Q42.25 47.85 43.85 49.1L41.2 50.5L40.35 47.55" />
<path style="fill:#BD8051;fill-opacity:1" d="M70.6,35.15L81.1 48.2L83.05 50.6L85.1 52.85Q92.55 61.95 88.05 68Q85.55 71.35 75 71.7L73.25 71.75L72 71.75L71.95 71.65L68.4 71.65L52.75 71.65L47.05 71.65L31.4 71.65L29.3 71.65L29.2 71.75L26.3 71.7L25.6 71.7L25.55 71.7Q15.6 71.25 13.15 68Q9.05 62.5 14.9 54.55L42.3 21.05L42.35 21L43.4 19.7L43.7 19.45Q46.7 16.7 50.8 16.7Q55.05 16.7 58.1 19.7L59.5 21.4L60.75 22.85L60.75 22.9L61.25 23.5L61.35 23.6L62.55 25.1L62.55 25.2L62.65 25.3L62.7 25.25L63.55 26.3L63.5 26.35L65.85 29.25L65.9 29.2L67.15 30.75L67.1 30.8L68.55 32.6L68.6 32.6L69.2 33.3L69.1 33.3L70.6 35.15M78.4,47.05L75.2 48.75L77.65 46.15L75.15 43.05L71.95 45.85L71.05 44.85L74.3 42L72 39.15L68.5 41.05L71.15 38.1L65.85 31.55L62.05 33.85L64.9 30.4L62.7 27.65L62.7 27.85L62.4 27.45L60.1 29.65L61.55 26.35L59.5 23.65L58.4 22.25L58.15 21.95L57.75 21.4L57.1 20.7L56.8 20.4Q54.25 18.1 50.8 18.1Q47.05 18.1 44.4 20.7L44.25 20.9L43.4 21.95L43 22.5L41.75 23.95L40.8 25.15L38.3 28.15L42.25 31.3L41.4 32.3L37.5 29.15L35.25 31.85L38.1 35.45L34.25 33.05L29.6 38.65L32.25 42.05L28.7 39.75L26.2 42.75L29.95 45.8L29.1 46.8L25.35 43.8L23.05 46.55L25.8 49.95L22.15 47.65L19.75 50.55L20 50.55L18.9 51.75Q8.95 63.1 14.2 67.4Q18.9 71.15 27 70.7L27.15 70.6L27.4 70.35L32.9 70.35L33.95 65.85L34.4 63.65L34.7 65.85L34.7 65.95L35.2 70.35L38.8 70.35L38.75 64.15L39.25 64.15L39.45 64.15L39.6 64.15L40.1 64.15L40.15 70.35L43.2 70.35L44.15 65.85L44.55 63.6L44.85 65.85L45.45 70.35L54.3 70.35L55.25 65.85L55.65 63.7L55.95 65.85L56.55 70.35L60.15 70.35L60 63.05L61.2 63.05L61.35 63.15L61.5 70.35L72.35 70.35L72.5 70.55L73.55 70.65Q82.1 71.35 87 67.4Q92.25 63.1 82.4 51.9L82.25 51.85L78.4 47.05M84.35,57.5L80.2 62.25L82.95 57.35Q81.65 56.65 80.15 56.65L80.05 56.65L80.05 62.25L78.75 56.1L80.05 55.9Q81.8 55.9 83.2 56.7L84.35 57.5M85.95,62.5L85.95 62.4L80.6 62.4L86.45 61.2L86.6 62.4Q86.6 64.15 85.75 65.55L85.05 66.6L80.2 62.55L85.25 65.3Q85.95 64 85.95 62.5M50.5,19.8L50.5 25.4L49.2 19.25L50.5 19.05Q52.25 19.05 53.65 19.85Q54.3 20.15 54.8 20.65L50.65 25.4L53.4 20.5Q52.1 19.8 50.6 19.8L50.5 19.8M45.65,21.3L50.5 25.5L50.5 25.55L45.45 22.75Q44.75 24 44.75 25.55L50.45 25.55L50.35 25.7L50.45 25.7L47.65 30.7Q48.9 31.45 50.5 31.45L50.5 25.7L50.6 25.7L51.9 31.95L50.5 32.1Q48.75 32.1 47.35 31.25L46.25 30.45L50.35 25.7L44.2 27.05L44 25.55Q44 23.8 44.8 22.4Q45.1 21.75 45.65 21.3M57.05,25.55Q57.05 27.3 56.2 28.7L55.5 29.75L50.65 25.7L55.7 28.45Q56.4 27.15 56.4 25.65L56.4 25.6L56.35 25.65L55.75 25.55L51.05 25.55L56.65 24.4L57.05 25.55M8.65,25.75L10.3 21.15L3.3 16.85L10.9 19.6L11.8 17.2L12.15 16.4L12.5 15.3L14 10.85L0.4 6.4L-3.95 14.3L0.45 1.85L0.7 4.4L14.55 9.35L15.15 7.7L15.35 7.15L18.4 4.65L9.9 29.05L8.65 25.75M23.15,57.45L23.1 57.4L20.3 62.3L22.25 56.3Q22.9 56.4 23.5 56.75Q25 57.65 25.85 59.05L26.4 60.3L20.4 62.35L25.25 59.45Q24.5 58.2 23.15 57.45M25.9,65.65Q25 67.15 23.55 68L22.45 68.55L20.3 62.55L23.3 67.5Q24.55 66.75 25.3 65.4L25.35 65.35L20.75 62.7L26.4 64.55L25.9 65.65M20.25,62.4L17.25 57.45Q16 58.2 15.25 59.55L20.2 62.35L20.1 62.45L20.15 62.45L15.2 65.4Q15.9 66.7 17.3 67.5L20.2 62.5L20.25 62.55L18.25 68.65L17 68.05Q15.5 67.2 14.65 65.7L14.1 64.5L20.1 62.45L14.05 60.55Q14.2 59.8 14.6 59.15Q15.45 57.65 16.9 56.8Q17.45 56.4 18.2 56.3L20.3 62.35L20.25 62.4M75.2,58.15L80.05 62.35L80.05 62.4L75 59.6Q74.3 60.85 74.3 62.4L80 62.4L79.9 62.55L80 62.55L77.2 67.55Q78.45 68.3 80.05 68.3L80.05 62.55L80.15 62.55L81.45 68.8L80.05 68.95Q78.3 68.95 76.9 68.1L75.8 67.3L79.9 62.55L73.75 63.9L73.55 62.4Q73.55 60.65 74.35 59.25L75.2 58.15M67,55.8L66.2 55.9L65.75 55.9L67 55.8M65.3,66.35L66.25 66.45L66.8 70.25L64.55 70.3L65.3 66.35" />
<path style="fill:#604129;fill-opacity:1" d="M57.55,56.3L56.6 56.35L56.6 56.4L57.3 58L57.4 58.55L57.15 59.05L56.15 60.2L57.1 61.35L58.5 60.65L59.05 60.55L59.55 60.75Q61.2 62.25 63.2 62.85L63.65 63.15L63.9 63.65L64 65.35L65.7 65.45L66.2 63.85Q66.25 63.55 66.45 63.4L66.95 63.2L69.5 62.7L69.6 62.65L69.6 63.5L69.6 63.6L67.05 64.1L66.5 65.85L66.3 66.4L66.25 66.4L66.25 66.45L65.3 66.35L63.1 66.2L63.05 64.25L63 63.75L61.65 63.25L61.35 63.15L61.2 63.05L61.25 63.05L60.65 62.7L60.45 62.6L58.9 61.45L56.9 62.5L54.9 60.15L56.5 58.5L55.65 56.45L55.65 56.4L56.4 56.35L59.15 50.9L60.3 50.8L57.55 56.3M75.8,50.8L76.5 51.65L77 52.3L76.1 52.6L76.05 52.45L75.8 50.8M66.95,39.95L67.15 40L68.05 41.1L66.95 40.9L66.4 42.7L66.1 43.15L65.6 43.35Q63.4 43.35 61.55 44.35L61.05 44.45Q60.75 44.4 60.55 44.2L59.4 43.15L58.1 44.05L58.8 45.45L58.95 46L58.7 46.5Q57.1 48.2 56.5 50.35L56.2 50.8L55.7 50.95L54.2 51.05L54.2 51.15L53.25 51.2L53.35 50.2L55.65 50.05Q56.3 47.75 58.05 45.9L56.95 43.85L56.6 44.9L53.4 44.7L53.3 42.25Q51.05 41.6 49.2 39.95L47.2 41L45.2 38.65L46.8 37L46.15 35.55L47.25 35.85L47.6 36.5L47.7 37.05L47.45 37.55L46.45 38.7L47.4 39.85L48.8 39.15L49.35 39.05L49.85 39.25Q51.5 40.75 53.5 41.35Q53.8 41.4 53.95 41.65L54.2 42.15L54.3 43.85L56 43.95L56.5 42.35Q56.55 42.05 56.75 41.9L57.25 41.7Q59.25 41.55 61 40.65L61.55 40.55L62.05 40.75L63.5 42L64.85 40.8L64 39.15L63.85 38.6L64.1 38.1L64.75 37.3L64.85 37.1L65.45 37.85L65.35 38L64.75 38.7L66 40.95L66.3 39.85L66.95 39.95M70.45,44.25Q69.9 43.95 69.35 43.8Q69.05 43.7 68.95 43.45L68.75 42.95L68.7 41.95L70.65 44.35L70.45 44.25M45,49.05L45.4 49.5L46.5 51.1L45.5 50.95L45 50.3L44.65 51.05Q43.85 51.2 43.2 51.75L44.15 49.95L42.2 51L42.8 51.55L43.05 51.85L42.9 52L42.25 52.85L41.9 52.45Q40.9 51.5 39.6 51.5Q38.25 51.5 37.25 52.45Q36.3 53.45 36.3 54.8Q36.3 56.1 37.25 57.1Q38.25 58.1 39.6 58.1Q40.9 58.1 41.9 57.1L42.4 56.55L42.9 57.2Q43.6 57.9 44.6 58.15L45.15 59.2L45.75 58.25L46.75 58.1L45.55 60L45 60.55L44.85 60.7Q42.75 62.65 39.95 62.95L39.25 62.95L39.1 62.95Q36 62.85 33.85 60.85L33.5 60.55L33.25 60.35Q31.15 58.1 31.1 55.05L31.1 54.8L31.15 54.25Q31.3 51.3 33.4 49.15L33.5 49.05L34.05 48.55Q36.15 46.7 38.95 46.65L39.25 46.65L40.1 46.7Q42.7 46.9 44.65 48.7L45 49.05M57.35,42.6L57 43.7L58.9 42.4L57.35 42.6M61.45,41.45L59.7 42.15L61.15 43.5Q62.05 43.05 63 42.8L61.45 41.45M65.55,42.4L65.95 41.05L64.35 42.55L65.55 42.4M34.9,48.95L37.75 50.5L38.75 47.5Q36.5 47.65 34.9 48.95M40.2,50.3L39.5 47.9L38.75 50.3L39.6 50.2L40.2 50.3M36.9,51.05L34.75 49.95L35.95 52.1L36.35 51.55L36.9 51.05M32.85,54.7L35.1 55.4L35.05 54.8L35.1 53.95L32.8 54.65L32.85 54.7M32,53.95L35.4 52.9L33.85 49.95Q32.2 51.7 32 53.95M35.3,56.45L35.3 56.35L31.95 55.35Q32.1 57.65 33.7 59.55L35.3 56.45M37.5,58.85L34.6 60.4Q36.35 61.95 38.8 62.1L37.9 59.05L37.5 58.85M35.85,57.4L34.8 59.35L36.7 58.35L36.35 58L35.85 57.4M39.6,59.35L38.9 59.3L39.5 61.3L40.15 59.35L39.6 59.35M65.15,55.9L64.05 55.95L66.7 50.65L66.7 50.5L64.45 50.6Q65.2 50.05 66.2 50.05Q67.4 50.05 68.25 50.9Q69.1 51.75 69.1 53Q69.1 54.2 68.25 55.05Q67.7 55.6 67 55.8L66.8 52.55L65.15 55.9M62.95,50.7L64.05 50.6L61.3 56.1L60.2 56.15L62.95 50.7M52.8,51.2L50.05 56.7L49.95 56.7L49.9 56.75L48.8 56.8L48.85 56.75L48.9 56.75L51.65 51.3L52.8 51.2M55.45,51.1L56.55 51L53.8 56.5L53.7 56.5L53.65 56.55L52.55 56.6L52.6 56.55L52.7 56.55L55.45 51.1M48,51.5L49.15 51.4L48.5 52.75L47.85 51.8L47.9 51.8L48 51.5M47.95,53.7L48.1 54.6Q48.1 55.7 47.35 56.5L46.75 56.95L46.25 57.1L45.5 57.2Q44.55 57.2 43.8 56.7L43.6 56.5Q42.95 55.75 42.9 54.8L42.9 54.6Q42.9 53.55 43.6 52.8L43.85 52.6Q44.55 52 45.5 52Q46.55 52 47.35 52.8L47.95 53.7M47.05,53.05Q46.5 52.35 45.5 52.35Q44.65 52.35 44 53L43.95 53.05Q43.25 53.6 43.25 54.6Q43.25 55.5 43.95 56.15L44.05 56.25Q44.55 56.75 45.3 56.85L45.5 56.85L46.45 56.65L47.05 56.15Q47.75 55.5 47.75 54.6L47.75 54.2L47.15 53.15L47.05 53.05M42.4,58.45L44.15 59.35L43.25 57.6L42.8 58L42.4 58.45M41.15,59.15L40.2 62Q42.4 61.75 44.15 60.35L41.55 58.95L41.15 59.15M41.2,50.5L43.85 49.1Q42.25 47.85 40.35 47.55L41.2 50.5" />
<path style="fill:#0E0E0E;fill-opacity:1" d="M55.45,51.1L54.2 51.15L54.2 51.05L55.7 50.95L56.2 50.8L56.5 50.35Q57.1 48.2 58.7 46.5L58.95 46L58.8 45.45L58.1 44.05L59.4 43.15L60.55 44.2Q60.75 44.4 61.05 44.45L61.55 44.35Q63.4 43.35 65.6 43.35L66.1 43.15L66.4 42.7L66.95 40.9L68.05 41.1L68.65 41.2L68.7 41.95L68.75 42.95L68.95 43.45Q69.05 43.7 69.35 43.8Q69.9 43.95 70.45 44.25L70.65 44.35L71.05 44.85L75.8 50.8L76.05 52.45L76.1 52.6L69.9 54.6L69.5 60.9L69.55 61.5L69.55 61.95L69.6 62.65L69.5 62.7L66.95 63.2L66.45 63.4Q66.25 63.55 66.2 63.85L65.7 65.45L64 65.35L63.9 63.65L63.65 63.15L63.2 62.85Q61.2 62.25 59.55 60.75L59.05 60.55L58.5 60.65L57.1 61.35L56.15 60.2L57.15 59.05L57.4 58.55L57.3 58L56.6 56.4L56.6 56.35L57.55 56.3L60.2 56.15L61.3 56.1L64.05 55.95L65.15 55.9L65.75 55.9L66.2 55.9L67 55.8Q67.7 55.6 68.25 55.05Q69.1 54.2 69.1 53Q69.1 51.75 68.25 50.9Q67.4 50.05 66.2 50.05Q65.2 50.05 64.45 50.6L64.05 50.6L62.95 50.7L60.3 50.8L59.15 50.9L56.55 51L55.45 51.1M54.15,37.45L62.05 34L62.25 33.9L64.85 37.1L64.75 37.3L64.1 38.1L63.85 38.6L64 39.15L64.85 40.8L63.5 42L62.05 40.75L61.55 40.55L61 40.65Q59.25 41.55 57.25 41.7L56.75 41.9Q56.55 42.05 56.5 42.35L56 43.95L54.3 43.85L54.2 42.15L53.95 41.65Q53.8 41.4 53.5 41.35Q51.5 40.75 49.85 39.25L49.35 39.05L48.8 39.15L47.4 39.85L46.45 38.7L47.45 37.55L47.7 37.05L47.6 36.5L47.25 35.85L54.15 37.45" />
</g>
</svg>
