<?xml version="1.0" encoding="utf-8"?>
<svg version="1.1" id="Layer_1"
xmlns="http://www.w3.org/2000/svg"
xmlns:xlink="http://www.w3.org/1999/xlink"
width="52px" height="41px"
xml:space="preserve">
<g id="323" transform="matrix(1, 0, 0, 1, -2.05, 19.9)">
<path style="fill:#E2E2E2;fill-opacity:0.8" d="M34.15,-13.3L33.45 -12.35Q32.3 -11.15 31.05 -10.65L31.05 -10.15Q31.3 -6 28.05 -2.7L22 3.2L20.1 4.8L15.95 7.4L15.65 7.55L17.1 7.65L17.15 8.1L16.85 8.55L16.65 8.8Q18.85 8.75 17.35 10.25L16.05 11.8Q17.95 11 19.85 11.4L19.95 11.5Q26.15 9.4 32.6 9.25L32.75 9.35L35.55 9.45L39.65 10.05L39.8 10.25L39.75 10.35L39.7 10.4L39.65 10.45L39.6 10.45L39.5 10.5L37.9 10.65L37.7 10.7L38.25 10.9L38.85 11.1L39.75 11.5Q40.4 10.8 41.25 10.35Q44.7 8.5 48.55 9.35Q49.1 9.45 49.45 9Q51.95 5.85 48.55 3.3L48.35 3.15L45.8 2.95Q44.6 2.7 43.65 2.1L43.8 2L43.75 1.95L43.75 1.85L43.75 1.8L43.75 1.65L43.8 1.5L44.5 1.6Q45.15 1.35 46 1.6Q50.05 1.25 51.75 -2.55Q52.05 -3.15 52 -3.85L52.1 -4.4L52.2 -4.45L52.3 -4.55L52.4 -4.55L52.35 -4.65Q51.65 -6.65 49.65 -7.5Q46.05 -8.95 43.65 -6.8Q44.6 -4.8 43.65 -2.75L43.55 -2.7L43.5 -2.65Q42.5 -0.65 40.45 0.15L40.3 0.1Q41.9 -1.55 42.9 -3.7L43.15 -4.75L42.9 -5.75Q42.15 -8.65 39.65 -9.25L39.65 -8.75L39.5 -7.5L38.95 -6.45L38.6 -6.1L38.6 -6.3L38.45 -6.25L37.65 -6.1L37.1 -5.95Q35.35 -5.75 34.05 -6.35L35.6 -8Q37.2 -9.6 36.3 -11.55Q35.95 -12.25 35.9 -13L34.15 -13.3M31.95,-17.5Q30.3 -19.05 27.9 -18.75Q27.05 -18.8 26.35 -18.3Q25.65 -17.8 24.95 -17.95L24.85 -18Q22.4 -15.05 25.8 -12.5L28.35 -12.3Q30.25 -11.9 31.3 -13.4Q32.75 -15.3 31.95 -17.5M34.35,-13.8Q37.4 -14 38.9 -11.5L39.45 -10.1Q41.75 -9.75 43.1 -7.75L43.25 -7.55L43.7 -8Q45.05 -8.85 46.6 -8.8Q52.5 -8.9 53.6 -3.45Q54 -1.6 53.05 -0.05Q51.65 2.3 49.4 2.95Q51.05 3.9 51.4 6Q51.85 8.7 49.55 10.15L49.3 10.3Q53.3 15 49.5 19.65L48.6 20.25Q42 22.05 38.75 16.2Q37.95 14.75 38.6 13.2L39.4 11.9L39.35 11.9Q37.85 11.15 36.15 11.15Q35.35 11.1 35.2 10.55L35.25 10.5L35.3 10.4L35.35 10.35L35.4 10.35L35.5 10.3L36.6 10.2L37.1 10.2L35.45 10Q31.55 9.5 27.9 10.5L27.45 10.5Q23.35 11.45 19.45 13.05L18.15 12.9Q18.05 12.65 18.2 12.45L18.75 12L14.6 12.7Q14.45 11.75 15.3 11L16.75 9.95L17.05 9.65Q15.75 10.05 15.75 8.95Q15.75 8.55 16.1 8.3L13.55 8.4Q16.05 6.35 19 4.55Q20.9 3.4 22.45 1.85L23 1.5L28.25 -4.45Q29.4 -5.65 29.95 -7.15L30.15 -9.2L30.45 -10.45L27.2 -10.7Q25.55 -10.95 24.65 -12.3L24.7 -12.3Q23.25 -13.75 23.1 -15.85Q23 -17.5 24.25 -18.7Q25.25 -19.6 26.6 -19.8Q32.55 -20.65 34.2 -15.45L34.35 -13.8M35.65,-4.15L29.5 0.55Q26.35 2.85 22.95 4.75L22.65 4.8Q25.8 2.75 28.85 0.35Q31.85 -2 35.15 -3.95L35.65 -4.15M40.85,11.9L40.5 12.5L40.25 12.35Q39.45 13.6 39.6 15.55Q39.65 16.65 40.5 17.5Q44.6 21.35 49.35 18.4Q50.1 17.95 50.3 17.05Q50.95 14.5 49.6 12.35Q48.95 12.45 48.6 11.8Q47.55 9.7 44.85 10.1L44.8 10.1Q41.95 10.4 40.65 11.85L40.85 11.9M40.15,3.55L40.7 3.45Q40.6 4.1 39.1 4.45Q34.35 5.5 29.65 7Q25.95 8.2 22.2 8.85L22.15 8.8Q26.8 7 31.65 5.65L40.15 3.55M11,12.15L11.1 12.55L10.85 13.2L10.6 13.65Q12.9 15.5 9.85 17.3L7.95 18.05L3.65 17.8L3.6 17.55L3.7 17.35L4 16.95L4.05 16.9L2.95 17.3L2.05 17.2L5.75 13.75Q7.3 12.05 9 10.65L9.75 10.8Q10.15 11.05 10.05 11.5L10.05 11.65Q10.15 11.95 10.65 11.95L11 12.15M9.3,11.6Q9.4 11.35 9.1 11.45Q8.05 12.35 7.25 13.45L5.35 15.35L5.15 15.5L5.55 15.75L5.8 15.95Q5.85 16.4 5.45 16.6Q5.05 16.85 4.8 17.15L4.7 17.3Q7.5 17.45 10.25 16.2L10.45 16.1L10.55 15.7L10.8 15.2L10.95 14.85L10.5 14.5L9.65 14.25Q9.45 14 9.55 13.65L10 13.05L10.2 12.75L9.25 12.4L9.15 12.4L9.15 12L9.3 11.6" />
<path style="fill:#E2E2E2;fill-opacity:0.498039" d="M35.9,-13Q35.95 -12.25 36.3 -11.55Q37.2 -9.6 35.6 -8L34.05 -6.35Q35.35 -5.75 37.1 -5.95L37.65 -6.1L38.45 -6.25L38.6 -6.3L38.6 -6.1L38.95 -6.45L39.5 -7.5L39.65 -8.75L39.65 -9.25Q42.15 -8.65 42.9 -5.75L43.15 -4.75L42.9 -3.7Q41.9 -1.55 40.3 0.1L40.45 0.15Q42.5 -0.65 43.5 -2.65L43.55 -2.7L43.65 -2.75Q44.6 -4.8 43.65 -6.8Q46.05 -8.95 49.65 -7.5Q51.65 -6.65 52.35 -4.65L52.4 -4.55L52.3 -4.55L52.2 -4.45L52.1 -4.4L52 -3.85Q52.05 -3.15 51.75 -2.55Q50.05 1.25 46 1.6Q45.15 1.35 44.5 1.6L43.8 1.5L43.75 1.65L43.75 1.8L43.75 1.85L43.75 1.95L43.8 2L43.65 2.1Q44.6 2.7 45.8 2.95L48.35 3.15L48.55 3.3Q51.95 5.85 49.45 9Q49.1 9.45 48.55 9.35Q44.7 8.5 41.25 10.35Q40.4 10.8 39.75 11.5L38.85 11.1L38.25 10.9L37.7 10.7L37.9 10.65L39.5 10.5L39.6 10.45L39.65 10.45L39.7 10.4L39.75 10.35L39.8 10.25L39.65 10.05L35.55 9.45L32.75 9.35L32.6 9.25Q26.15 9.4 19.95 11.5L19.85 11.4Q17.95 11 16.05 11.8L17.35 10.25Q18.85 8.75 16.65 8.8L16.85 8.55L17.15 8.1L17.1 7.65L15.65 7.55L15.95 7.4L20.1 4.8L22 3.2L28.05 -2.7Q31.3 -6 31.05 -10.15L31.05 -10.65Q32.3 -11.15 33.45 -12.35L34.15 -13.3L35.9 -13M31.3,-13.4Q30.25 -11.9 28.35 -12.3L25.8 -12.5Q22.4 -15.05 24.85 -18L24.95 -17.95Q25.65 -17.8 26.35 -18.3Q27.05 -18.8 27.9 -18.75Q30.3 -19.05 31.95 -17.5Q32.75 -15.3 31.3 -13.4M35.15,-3.95Q31.85 -2 28.85 0.35Q25.8 2.75 22.65 4.8L22.95 4.75Q26.35 2.85 29.5 0.55L35.65 -4.15L35.15 -3.95M40.65,11.85Q41.95 10.4 44.8 10.1L44.85 10.1Q47.55 9.7 48.6 11.8Q48.95 12.45 49.6 12.35Q50.95 14.5 50.3 17.05Q50.1 17.95 49.35 18.4Q44.6 21.35 40.5 17.5Q39.65 16.65 39.6 15.55Q39.45 13.6 40.25 12.35L40.5 12.5L40.85 11.9L40.65 11.85M31.65,5.65Q26.8 7 22.15 8.8L22.2 8.85Q25.95 8.2 29.65 7Q34.35 5.5 39.1 4.45Q40.6 4.1 40.7 3.45L40.15 3.55L31.65 5.65M9.15,12L9.15 12.4L9.25 12.4L10.2 12.75L10 13.05L9.55 13.65Q9.45 14 9.65 14.25L10.5 14.5L10.95 14.85L10.8 15.2L10.55 15.7L10.45 16.1L10.25 16.2Q7.5 17.45 4.7 17.3L4.8 17.15Q5.05 16.85 5.45 16.6Q5.85 16.4 5.8 15.95L5.55 15.75L5.15 15.5L5.35 15.35L7.25 13.45Q8.05 12.35 9.1 11.45Q9.4 11.35 9.3 11.6L9.15 12" />
</g>
</svg>
