<?xml version="1.0" encoding="utf-8"?>
<svg version="1.1" id="Layer_1"
xmlns="http://www.w3.org/2000/svg"
xmlns:xlink="http://www.w3.org/1999/xlink"
width="39px" height="24px"
xml:space="preserve">
<g id="1050" transform="matrix(1, 0, 0, 1, 19.8, 17.55)">
<path style="fill:#FFFF00;fill-opacity:1" d="M5.55,-8.7L5.35 -8.5Q4.95 -8.3 4.7 -8.5L4.65 -8.65L4.55 -8.9L4.6 -9L4.6 -8.95L4.75 -9.15L4.95 -9.35L5.2 -8.95L5.55 -8.7M0,-7.2L-0.1 -9.2L-0.15 -11.2L0.05 -11Q0.3 -10.15 0.2 -9.15L0 -7.1L0 -7.2M2.9,-3.3L2.9 -3.25L2.9 -3.1Q3.15 -3.05 3.25 -2.85L3.35 -2.5Q2.8 -1.9 1.9 -2.25L1.85 -2.35L1.75 -2.55L1.75 -2.7L1.95 -2.9L2.1 -3.15L2.1 -3.25L2.05 -3.35L1.85 -3.35L1.85 -3.4L1.95 -3.5L2.05 -3.65L2.5 -3.65L2.9 -3.45L2.9 -3.3M0.7,-0.95Q1.3 -1.15 1.65 -0.75L1.8 -0.2L1.75 -0.15L1.65 -0.05L1.45 0L1.4 -0.05L1.35 -0.05L1.2 -0.15L0.6 0L0.2 -0.1L0.2 -0.15L0.2 -0.25L0.15 -0.35L0.15 -0.45L0.2 -0.5L0.4 -0.7L0.7 -0.95M2.25,-0.75Q2.55 -0.55 2.4 -0.15Q2.2 0.3 1.75 0.3L1.65 0.25L1.8 0.05L2.05 -0.75L2.25 -0.75M7.45,-1.2L7.35 -1.35L7.55 -1.4L8.05 -1.35L8.3 -1.15L8.25 -0.95L8 -0.65L7.95 -0.55L7.6 -0.6L7.5 -0.85L7.45 -1.2M-10.4,-1.7L-10.05 -2.05L-9.55 -2.25L-9.15 -2.15L-8.95 -2L-9.65 -1.55L-10.1 -1.25L-10.1 -1.35L-10.1 -1.4L-10.15 -1.45L-10.15 -1.5L-10.2 -1.55L-10.35 -1.6L-10.4 -1.65L-10.4 -1.7M-4.3,-9.6L-4.15 -9.35L-4.05 -9.1L-3.95 -9L-4.4 -8.85Q-4.65 -8.75 -4.65 -8.95L-4.65 -9L-4.75 -9.15L-4.85 -9.35L-4.9 -9.4L-4.85 -9.45L-4.6 -9.5L-4.3 -9.6M-4.55,-6.35L-4.5 -6.2L-4.5 -6.05L-4.45 -5.85L-4.7 -5.9L-5.15 -6.05L-5.1 -6.05L-4.85 -6.2L-4.7 -6.4L-4.65 -6.4L-4.55 -6.35M-2.55,-2.55L-2.55 -2.3L-2.6 -2L-2.65 -1.75L-2.75 -1.7Q-3.4 -1.25 -3.75 -1.95Q-4.1 -2.6 -3.45 -3L-2.95 -2.85L-2.55 -2.55M-2.7,-1.3L-2.5 -1.45L-2.35 -1.6L-1.95 -1.55L-1.95 -1.45L-2.05 -1.3L-2.85 -1.2L-2.7 -1.3M-2,-2.75L-1.75 -2.3L-1.8 -2.1Q-2.1 -1.85 -2.25 -2.1L-2.25 -2.15L-2.25 -2.55L-2.4 -2.9L-2 -2.75M-2.35,0.15L-1.7 0.35Q-1.5 0.5 -1.45 0.8L-1.5 0.8L-2.25 0.9L-2.65 0.35L-2.6 0.35L-2.45 0.25L-2.35 0.15M-6.7,1.4L-7.05 1.5L-8.05 1.4L-8 1.35L-7.6 1.15L-7.2 1L-6.95 1.05L-6.8 1.2L-6.7 1.4" />
<path style="fill:#FFCC00;fill-opacity:1" d="M5.2,-8.95L4.95 -9.35L4.75 -9.15L4.6 -8.95L4.6 -9L4.55 -8.9L4.65 -8.65L4.7 -8.5Q4.95 -8.3 5.35 -8.5L5.55 -8.7L5.2 -8.95M5.8,-8.9L5.85 -8.85L5.85 -8.75L5.85 -8.6L5.85 -8.5L5.15 -8.1L4.55 -8.1L4.3 -8.45L4.2 -8.9L4.25 -9.2L4.45 -9.35L4.8 -9.6L4.9 -9.7L5.35 -9.35L5.8 -8.95L5.8 -8.9M0.35,-10.5L0.15 -6.3L0.05 -5.85Q-0.35 -6.65 -0.4 -7.8L-0.5 -12L-0.25 -14.3Q0.3 -12.95 0.35 -11.3L0.35 -10.5M0,-7.1L0.2 -9.15Q0.3 -10.15 0.05 -11L-0.15 -11.2L-0.1 -9.2L0 -7.2L0 -7.1M3.35,-3.4L3.35 -3.3Q4.25 -1.65 2.05 -2Q1.1 -2.15 1.35 -3.05Q1.5 -3.7 2.1 -3.95L2.85 -3.9L3.35 -3.4M2.9,-3.45L2.5 -3.65L2.05 -3.65L1.95 -3.5L1.85 -3.4L1.85 -3.35L2.05 -3.35L2.1 -3.25L2.1 -3.15L1.95 -2.9L1.75 -2.7L1.75 -2.55L1.85 -2.35L1.9 -2.25Q2.8 -1.9 3.35 -2.5L3.25 -2.85Q3.15 -3.05 2.9 -3.1L2.9 -3.25L2.9 -3.3L2.9 -3.45M0.4,-0.7L0.2 -0.5L0.15 -0.45L0.15 -0.35L0.2 -0.25L0.2 -0.15L0.2 -0.1L0.6 0L1.2 -0.15L1.35 -0.05L1.4 -0.05L1.45 0L1.65 -0.05L1.75 -0.15L1.8 -0.2L1.65 -0.75Q1.3 -1.15 0.7 -0.95L0.4 -0.7M0.65,-1.25Q1.7 -1.35 1.95 -0.95L2.2 -1.05Q3.2 -0.6 2.45 0.25Q1.8 1 1.35 0.4L1.15 0.4L0.5 0.3Q-0.2 0.1 -0.15 -0.7L0.1 -0.95Q0.35 -1.2 0.65 -1.25M2.05,-0.75L1.8 0.05L1.65 0.25L1.75 0.3Q2.2 0.3 2.4 -0.15Q2.55 -0.55 2.25 -0.75L2.05 -0.75M6.9,-1.55L6.9 -1.6L6.95 -1.65L7.1 -1.7L7.25 -1.8L7.8 -1.7L8.35 -1.55L8.5 -1.45Q8.8 -0.85 8.25 -0.45Q7.35 0.15 7 -0.9L6.9 -1.55M7.5,-0.85L7.6 -0.6L7.95 -0.55L8 -0.65L8.25 -0.95L8.3 -1.15L8.05 -1.35L7.55 -1.4L7.35 -1.35L7.45 -1.2L7.5 -0.85M-10.4,-1.65L-10.35 -1.6L-10.2 -1.55L-10.15 -1.5L-10.15 -1.45L-10.1 -1.4L-10.1 -1.35L-10.1 -1.25L-9.65 -1.55L-8.95 -2L-9.15 -2.15L-9.55 -2.25L-10.05 -2.05L-10.4 -1.7L-10.4 -1.65M-10.35,-2.25L-9.6 -2.6L-9.4 -2.6L-9 -2.55L-8.8 -2.5L-8.8 -2.45L-8.8 -2.35L-8.7 -2.25L-8.6 -2.25L-8.5 -2.1L-8.45 -2.05L-8.75 -1.75L-9.65 -1.15L-10 -0.85L-10.05 -0.85L-10.15 -0.85L-10.25 -0.9L-10.35 -0.95L-10.35 -1L-10.4 -1.05L-10.4 -1.15L-10.4 -1.25L-10.65 -1.6Q-10.7 -2 -10.35 -2.25M-4.6,-9.5L-4.85 -9.45L-4.9 -9.4L-4.85 -9.35L-4.75 -9.15L-4.65 -9L-4.65 -8.95Q-4.65 -8.75 -4.4 -8.85L-3.95 -9L-4.05 -9.1L-4.15 -9.35L-4.3 -9.6L-4.6 -9.5M-3.65,-9.5L-3.55 -8.75L-3.55 -8.65L-4.85 -8.55L-5.15 -9L-5.2 -9.45L-5.2 -9.6Q-4.85 -9.95 -4.3 -9.95L-4.1 -10L-3.65 -9.5M-4.65,-6.4L-4.7 -6.4L-4.85 -6.2L-5.1 -6.05L-5.15 -6.05L-4.7 -5.9L-4.45 -5.85L-4.5 -6.05L-4.5 -6.2L-4.55 -6.35L-4.65 -6.4M-4.2,-6.45Q-3.9 -6.1 -4.05 -6.05L-4.1 -6.05L-4.05 -6L-4.05 -5.95L-4.05 -5.85L-4.05 -5.75L-4.15 -5.7L-4.25 -5.6L-4.3 -5.55L-4.35 -5.5L-5.25 -5.65L-5.55 -5.85L-5.55 -6.1L-5.2 -6.35L-4.8 -6.75L-4.75 -6.8L-4.2 -6.45M-3.3,-3.45Q-2.55 -3.45 -1.9 -3.05Q-1.1 -2.65 -1.55 -1.9L-1.6 -1.85L-1.55 -1.45Q-1.55 -1.05 -1.9 -0.85L-3.1 -0.75L-3.15 -0.8L-3.15 -0.85L-3.25 -1L-3.25 -1.1Q-3.9 -1.25 -4.1 -1.75Q-4.5 -2.6 -3.8 -3.15L-3.3 -3.45M-2.95,-2.85L-3.45 -3Q-4.1 -2.6 -3.75 -1.95Q-3.4 -1.25 -2.75 -1.7L-2.65 -1.75L-2.6 -2L-2.55 -2.3L-2.55 -2.55L-2.95 -2.85M-2.85,-1.2L-2.05 -1.3L-1.95 -1.45L-1.95 -1.55L-2.35 -1.6L-2.5 -1.45L-2.7 -1.3L-2.85 -1.2M-2.4,-2.9L-2.25 -2.55L-2.25 -2.15L-2.25 -2.1Q-2.1 -1.85 -1.8 -2.1L-1.75 -2.3L-2 -2.75L-2.4 -2.9M-2.45,0.25L-2.6 0.35L-2.65 0.35L-2.25 0.9L-1.5 0.8L-1.45 0.8Q-1.5 0.5 -1.7 0.35L-2.35 0.15L-2.45 0.25M-2.15,1.25Q-3.55 0.6 -2.4 -0.25Q-0.65 0.05 -1.6 1.1Q-1.85 1.4 -2.15 1.25M-7.25,0.65Q-6.8 0.55 -6.55 0.95Q-6.3 1.3 -6.45 1.7L-6.5 1.75L-8.15 1.7L-8.4 1.5L-8.2 1.15L-7.3 0.65L-7.25 0.65M-6.8,1.2L-6.95 1.05L-7.2 1L-7.6 1.15L-8 1.35L-8.05 1.4L-7.05 1.5L-6.7 1.4L-6.8 1.2" />
<path style="fill:#FFCC00;fill-opacity:0.498039" d="M5.65,-4.85L5.75 -4.9L5.85 -4.95Q7.95 -4.3 10.15 -4.15L14.95 -3.45L15.4 -3L14.85 -2.55L14.55 -2.4L14 -2.1L12.9 -2.25L12.85 -2.35L12.85 -2.4L12.95 -2.55L13.15 -2.65L13.25 -2.7L13.35 -2.7L12 -3.15L6.3 -4.25L6.15 -4.35L6 -4.3L5.95 -4.25L5.9 -4.1L5.75 -3.95L5.65 -3.9L5.4 -3.95L5.25 -4.1L5.2 -4.15L5.2 -4.25L5.25 -4.45L5.4 -4.65L5.45 -4.7L5.65 -4.85M16.25,-1.9L16.6 -2L17.9 -1.55L18.95 -0.65L18.95 -0.6L18.35 0L17.7 0.4L17.4 0.55L16.25 1.55Q15.4 2.1 14.6 2Q14.75 1.35 15.4 1L17 0.05L17.2 -0.15L17.2 -0.3L17.25 -0.55L17.35 -0.65L17.35 -0.75L16.6 -1.05L15.95 -1.45L15.95 -1.7L16.25 -1.9M12.45,2.75Q13.15 2.75 13.65 3.15L14.1 3.5L14.1 3.55L14.15 3.7L14.15 3.75L14.1 3.8L14.1 3.85L14.05 3.9Q12.05 4.85 9.8 5.2L7.45 5.1Q6.9 4.95 6.65 4.6L6.75 4.4L7 4.3L7.2 4.35L7.85 4.6Q8.6 4.2 9.45 3.95L11.55 3.45L11.4 3.25L11.25 3.1L11.25 3.05L11.35 2.85L11.55 2.75L12.45 2.75M5.15,5.15L5.15 5.2Q6.5 6.25 4.85 6.3L-4.65 6L-5.65 5.95Q-7.65 6 -9.15 5.2L-8.7 4.65L-8.45 4.45L-8.4 4.45L-8.15 4.35Q-7.95 4.4 -8 4.6L-8.15 4.9L-8.15 4.95L-0.55 5.65L4.25 5.3Q4.2 5 4.45 4.85Q4.75 4.65 5.05 4.85L5.15 4.95L5.15 5.15M-18.8,-0.9L-18.45 -1.05L-18.25 -1.2Q-19.2 -2.2 -17.25 -2.65L-13.35 -3.65L-11.7 -4.05L-11.3 -4.1L-10.8 -4L-10.65 -3.85Q-12.05 -3.15 -13.7 -2.7L-17.05 -1.85L-17.3 -1.7L-17.25 -1.65L-17.15 -1.55L-17.05 -1.35L-17.05 -1.25L-17.3 -0.95L-18.05 -0.5L-18.45 -0.1L-18.45 0L-18.45 0.05L-18.45 0.2L-18.75 0.5L-18.85 0.55L-17.5 1.4Q-16.75 1.85 -15.7 1.9Q-15.3 1.9 -15.25 2.25Q-14.05 2.05 -13.4 2.85Q-12.8 3.6 -11.8 3.3Q-11.35 3.2 -11.25 3.65Q-11.2 3.8 -11 3.75L-10.25 3.8L-10.15 3.95L-11.15 4.5Q-12 4.75 -12.5 4.2L-12.5 4.15L-13.45 3.95Q-13.95 3.8 -14.3 3.35L-14.4 3L-15 3L-16 2.8L-16.05 2.75L-16.05 2.65L-16.05 2.55Q-17.3 2.5 -18.15 1.9L-19.45 1Q-20.15 0.5 -19.4 0.05L-19.4 -0.25L-18.8 -0.9M-5.45,-4.45L-6.2 -4.6L-8.8 -4.45Q-9.15 -4.35 -9.35 -4.6L-6.4 -5.15L-5.15 -5.25L-2.6 -5.5L-1.4 -5.5L-0.2 -5.3L-0.1 -5.15L-2.65 -4.9L-5.1 -4.65L-5.45 -4.45" />
<path style="fill:#FFCC00;fill-opacity:0.2" d="M5,-16.1L5.05 -15.9L4.35 -15.9L2.2 -16.75L1.05 -16.95L1.2 -17.1L1.25 -17.1L1.35 -17.15L1.4 -17.25L0.7 -17.3L0.55 -17.4L0.7 -17.45L0.85 -17.45L3.05 -17.15Q4.25 -16.95 5 -16.1M9.4,-14.05L10.5 -13L11.45 -11.8L11.45 -11.7Q10.75 -11.85 10.2 -12.55L9.35 -14L9.4 -14.05M14.4,-9.1L15 -8.15L15.1 -7.75L15.6 -6.65L15.95 -5.6L16.25 -4.65L16.15 -3.6Q15.45 -4.75 15.05 -6.2L14.3 -8.85L14.4 -9.1M15.95,-4.65L16 -4.45L16 -4.65L15.95 -4.65M-5.15,-17.25L-3.65 -17.55Q-3.4 -17.05 -4.25 -16.75L-7 -15.85L-8.55 -15.25Q-7.75 -16.25 -6.3 -16.75L-5.15 -17.25M-10.85,-13.45L-10.75 -13.45L-11.8 -12.1L-13.15 -10.8L-13.35 -10.8L-12.9 -12.15L-11.35 -13.35Q-11.15 -13.45 -11.05 -13.5L-10.85 -13.45M-15.55,-3.8Q-15.6 -2.75 -15.8 -1.8L-15.8 -1.75L-15.9 -1.75L-16.15 -1.75Q-16.4 -2.7 -16.25 -3.8Q-16.2 -4.8 -15.6 -5.65L-15.55 -3.8M-10.85,2.3L-10.6 2.7Q-12.2 3.05 -13.35 1.8Q-13.85 1.1 -13.75 0.55Q-13.1 1.2 -12.1 1.55L-10.85 2.3" />
</g>
</svg>
