<?xml version="1.0" encoding="utf-8"?>
<svg version="1.1" id="Layer_1"
xmlns="http://www.w3.org/2000/svg"
xmlns:xlink="http://www.w3.org/1999/xlink"
width="36px" height="22px"
xml:space="preserve">
<g id="578" transform="matrix(1, 0, 0, 1, 9.4, -4.65)">
<path style="fill:#000000;fill-opacity:1" d="M22.45,11.75Q22.5 11.5 22.7 11.4Q24.3 11.35 25.05 12.7Q25.55 13.65 25.5 14.7L25.15 16.3L25.6 16.8L26.3 17.7L26.35 17.75L26.15 17.9L25.75 18.15L25.55 18.3Q24.8 18.1 24.45 17.35L22.8 17.6L22.25 17.5L22.1 17.5L21.55 17.5L21.55 17.45L21.65 17.4Q21.35 17.45 21.55 17.2L21.6 17.2L21 16.8L20.85 16.8Q22 19.15 20.25 21.55L19.35 22.65Q17.85 24.5 15.9 22.65Q15.5 21.9 16.05 21.3Q16.65 20.65 17.55 20.6Q18.1 19.75 18.25 18.8L16.7 18.9Q15.8 18.8 15.4 18.15L11.5 19.1L12.3 19.5L12.45 19.6L12.55 19.65L14.5 20.65L14.7 20.95L14.55 21.5L14.55 21.6L14.5 21.7L14 22.85L13.7 23.35Q13.4 23.7 13.55 23.95L14 23.95L13.6 24.05L13.75 24.15L13.7 24.2L13.05 24.25L13 24.2L13.05 24.15L9.5 24.05Q9.45 23.55 9.65 23.2L10.2 22.5L10.8 21.6Q9.8 21.25 9.2 20.4L8.75 19.8L8.7 19.8Q8.15 19.55 7.75 19.1L7.2 18.5Q6.85 18.1 7.15 17.85L7.95 17.9L8.6 17.95L9.35 17.3L11.25 16.05L11.4 16Q11.65 15.5 12.25 15.2L14.6 14.4L17.8 13.8L19.15 14L19.95 14.2L19.95 14.1Q19.9 13.85 20.1 13.7L21.45 12.6Q21.9 12.35 22.4 12.25L22.45 11.75M1.95,18L2.75 18.1L2.8 18.15L2.45 18.55L1.5 19L0.8 19.4Q2.9 19.95 4.55 21.1Q5 21.1 5.35 21.4L5.9 21.8L6.05 21.85L6.15 22.15L6.25 22.7L6.25 23L6.35 22.95Q6.7 23.15 6.4 23.45L6.3 23.6L6 23.8L5.5 24.15L5.2 24.25L4.4 24.55Q2.25 25.25 0.65 24.1L0.65 23.7Q0.7 23.3 1.05 23.1L1.85 22.5L-0.5 21.3L-1.15 20.75L-2.55 20.9L-2.55 21Q-2.75 21.4 -2.6 21.95L-2.35 22.9L-2.35 22.95Q-3.3 23.75 -4.55 24.1L-5.35 24.45L-5.35 24.75L-5.4 25.25L-5.45 25.4Q-8.5 26.45 -9.4 24.05L-9.3 23.75Q-6.85 23.25 -6 21.2L-5.8 20.7L-5.9 20.25L-5.7 19.9L-5.6 19.4L-5.4 19.3L-5.2 19.2L-5.1 19.15L-4.95 19.25Q-2.25 18.5 0.85 18.3L1.95 18" />
<path style="fill:#7E0000;fill-opacity:1" d="M12,11.5Q11.95 11.05 12.35 10.7L13.05 10.2L13.4 10.65L13.3 11.25L13.2 11.35L13.05 11.4L12.75 11.3L12.7 11.3L12.35 11.55L12 11.5M16.65,10.4L16.25 10.9L16.15 11.05Q15.9 11 15.8 10.8L15.55 10.4L15.55 10.1L15.65 9.7Q15.75 9.6 15.8 9.6L16.05 9.8Q16 10.1 16.1 10.1L16.2 10.05L16.45 9.85Q16.65 9.6 16.85 9.85L16.65 10.4M0.3,5.05L0.4 5.1L0.5 5.15L0.7 5.5L0.8 6.1L0.85 6.4L0.8 6.45L0.6 6.55L0.35 6.55L0.35 6.6L0.3 6.75L0.1 6.85L-0.05 6.85L-0.2 6.15L-0.15 5.3L0.1 5.05L0.3 5.05M2.15,8.35L2.15 8.4L2.1 8.75L1.9 9.05L1.75 9.2Q1.35 9.2 1.3 8.8Q1.3 8.45 1.6 8.25L1.75 8.15L1.95 8.25L2.15 8.35M2.65,11.8Q3.25 12.15 3.3 12.75L3.05 13.95L3 14L2.65 13.9L2.5 13.55L2.5 13.5L2.45 13.45L2.3 13.4L2.2 13.35L2.2 12.7Q2.2 12.25 2.5 11.9L2.65 11.8M9.9,13.75L9.75 14.3L9.6 14.6L9.4 14.7L8.95 14.7L8.85 14.55L8.8 14.4L8.65 14.1L8.65 14.05L8.75 13.7L9.2 13.35L9.3 13.25L9.55 13.3L9.8 13.35L9.9 13.4L9.9 13.75M-2.6,4.7L-2.5 4.65L-2.3 4.65L-2.2 4.7L-2.1 4.75L-2.05 5.35L-1.8 6.15L-1.75 6.45L-1.85 6.55L-2.1 6.85L-2.3 6.95Q-2.75 6.7 -2.8 6.15L-2.85 5.1L-2.85 4.9L-2.8 4.85L-2.7 4.75L-2.6 4.7M-4.35,8.9L-4.15 9.9L-4.15 10.05L-4.4 10.25L-4.75 10.25L-5.05 9.45L-5.15 8.5L-4.9 8.25Q-4.55 8.45 -4.35 8.9" />
</g>
</svg>
