<?xml version="1.0" encoding="utf-8"?>
<svg version="1.1" id="Layer_1"
xmlns="http://www.w3.org/2000/svg"
xmlns:xlink="http://www.w3.org/1999/xlink"
width="36px" height="8px"
xml:space="preserve">
<g id="707" transform="matrix(1, 0, 0, 1, -3.25, -13.6)">
<path style="fill:#000000;fill-opacity:1" d="M26.8,16.45L28.35 15.55L29.25 15.3L30.75 14.8Q31.8 14.2 32.95 14.15L33.1 14.15Q34.1 14.2 34.8 14.85L35.05 14.35L35.75 13.8L36.55 13.6Q39.5 13.9 38.5 16.25Q37.8 17.8 36.05 17.1L35.85 17.05L36 17.9L36 18L35.4 18Q35.65 19.55 33.75 19.95L30.95 20.05L30.5 19.9L29.9 19.65L29.85 19.55L29.85 19.35L29.85 19.25Q30.7 18.55 31.75 18.35L33.1 18.05L27.7 18.25L27.65 18.4L27.65 18.6L27.8 18.8L27.9 19L27.9 19.05Q25.85 21 24.1 18.95Q22.5 17 25.15 16.85L26.75 16.45L26.8 16.45M10.1,17.25L10.75 17.2L11.6 16.55Q13.15 15.5 14.65 14.7Q17.7 14.25 19.8 16.05Q20.95 17 20.65 18.05Q20.2 19.45 18.4 18.95L15.9 18.6Q16.2 18.7 16.45 18.9Q16.65 19.8 15.9 20.35Q15.1 20.95 14.1 20.9Q12.65 20.75 13.1 19.5L13.1 19.45L11.4 18.95L10.4 18.6L10.1 18.55L9.8 18.6L3.4 18.2L3.35 17.65L3.4 17.45L3.35 17.4Q3.1 17.15 3.4 17.05L3.55 17.1L3.6 17.05L3.7 17L3.9 17.15L7.4 17.4L10.1 17.25" />
</g>
</svg>
