<?xml version="1.0" encoding="utf-8"?>
<svg version="1.1" id="Layer_1"
xmlns="http://www.w3.org/2000/svg"
xmlns:xlink="http://www.w3.org/1999/xlink"
width="19px" height="10px"
xml:space="preserve">
<g id="974" transform="matrix(1, 0, 0, 1, 4.7, 6.95)">
<path style="fill:#000000;fill-opacity:0.85098" d="M6.25,-6.45L6.9 -5.75L6.75 -5.1Q5.25 -4.7 3.8 -5.1Q3.15 -5.3 3.25 -5.95Q3.35 -6.55 3.85 -6.75L4.15 -6.85L4.3 -6.95L5.25 -6.75L6.25 -6.45M1.45,-4.6L1.8 -4.4L1.95 -4.2L1.65 -3.65L0.75 -2.95L-0.75 -2.75L-1.1 -2.95L-1.1 -3.35L-1 -3.8L-0.5 -4.4L0.2 -4.85L0.4 -4.9L0.7 -4.85L1.1 -4.7L1.45 -4.6M9.2,-4.1Q9.65 -5.75 11.6 -4.95L11.7 -5L11.85 -5.2L11.85 -5.35L11.85 -5.55L11.85 -5.8L11.85 -6L11.85 -6.15L11.9 -6.2L12 -6.25L12.05 -6.3L12.1 -6.35L12.15 -6.4L12.2 -6.5L12.25 -6.5L12.35 -6.55L12.85 -6.45L13.35 -6.3L13.7 -6.05L13.95 -5.65Q13.75 -4.55 12.9 -3.9Q11.35 -2.7 9.6 -3.25Q9 -3.45 9.2 -4.1M6.6,-1.8L6.9 -1.75L7.05 -1.7L7.25 -1.6L7.45 -1.45L7.5 -1.4L7.45 -0.7Q6.95 0.5 5.55 0L5.1 -0.3L5.05 -0.6L5.2 -1.3L5.3 -1.35L5.4 -1.35L5.8 -1.4L5.85 -1.45L6 -1.55L6.2 -1.65L6.35 -1.7L6.6 -1.8M1.5,1.25L1.6 1.25L1.75 1.35L1.8 1.35L1.8 1.65L1.4 2.15L0.95 2.35L0.45 2.35L0.4 2.3L0.35 2.25L0.3 2.2L0.25 2.15L0.2 2.1L0.2 2L0.2 1.85L0.2 1.75L0.2 1.6L0.4 1.55L0.8 1.45L1.2 1.25L1.35 1.2L1.5 1.25M-3.15,-0.4L-3.1 -0.4L-2.4 -0.3L-2.2 -0.2L-2.15 0L-2.15 0.2Q-2.3 0.75 -2.85 1L-4.3 1.2L-4.65 1L-4.7 0.85L-4.7 0.8L-4.45 0.35L-4.15 -0.1L-3.6 -0.4L-3.5 -0.45L-3.15 -0.4" />
</g>
</svg>
