<?xml version="1.0" encoding="utf-8"?>
<svg version="1.1" id="Layer_1"
xmlns="http://www.w3.org/2000/svg"
xmlns:xlink="http://www.w3.org/1999/xlink"
width="13px" height="12px"
xml:space="preserve">
<g id="642" transform="matrix(1, 0, 0, 1, 15.8, 0.4)">
<path style="fill:#000000;fill-opacity:1" d="M-3.7,5.7L-4.15 8L-4.55 9Q-4.9 9.5 -5.3 9.35Q-5.6 9.35 -5.8 9.15L-5.9 9.05L-6.1 8.45L-6.15 7.8Q-8.95 7.65 -10 5.2L-10.85 7.75L-11.9 9.75L-12.2 10.95Q-13.25 11.65 -15.75 11Q-15.9 10.25 -15.4 9.65L-13.85 8.7L-13.05 4.65Q-12.4 2.25 -11.1 0.3L-10.9 0.15L-10.85 0.3L-10.5 -0.35Q-8.65 -0.6 -8.2 0.8L-7.35 3.75L-7.2 4.05L-6.3 4.55L-3.7 4.9L-3.7 5.7" />
</g>
</svg>
