<?xml version="1.0" encoding="utf-8"?>
<svg version="1.1" id="Layer_1"
xmlns="http://www.w3.org/2000/svg"
xmlns:xlink="http://www.w3.org/1999/xlink"
width="29px" height="23px"
xml:space="preserve">
<g id="1057" transform="matrix(1, 0, 0, 1, 13.6, 16.9)">
<path style="fill:#FF7000;fill-opacity:1" d="M12.2,-13.05Q12.55 -12.55 11.85 -11.9L10.85 -10.8Q10.45 -10.3 10.05 -10.55L10.1 -10.8L10.35 -11.1L10.5 -11.3L10.45 -11.3L10.45 -11.45L11 -12.2L11.85 -12.9L12.2 -13.05M0.05,-13.4L-0.35 -13.45Q-1.15 -14.85 -1.45 -16.45L-1.2 -16.9L-1.1 -16.9L-1 -16.9Q0.1 -15.7 0.2 -14.05L0.05 -13.4M4,-14.6L3.35 -14.7L3.2 -14.4L3.05 -14.05L3 -13.8L3.2 -13.95L3.75 -14.05L3.85 -13.85L3.9 -13.65L3.95 -13.55L5.9 -13.7L6.4 -13.25Q6.7 -13.2 6.85 -12.95L6.85 -12.65L6.85 -12.6L7.05 -12.7L7.25 -12.9L6.25 -13.8L4.75 -14.05L4 -14.6M4.95,-14.4L6.3 -14.2L7.05 -13.65L7.85 -12.95L7.7 -12.7L7.2 -12.4L6.85 -12.15L6.3 -12.1L6.25 -12.2L6.25 -12.3L6.3 -12.4L6.35 -12.55L6.45 -12.7L6.5 -12.75L6.5 -12.8L6.4 -12.85L6.1 -12.9L6.1 -12.95L6.05 -13L6.05 -13.25L5.8 -13.3L5.55 -13.4L5.45 -13.45L5.4 -13.45L5.2 -13.45L4.85 -13.35L4.45 -13.35L4.25 -13.25L3.8 -13.25L3.5 -13.5L3.5 -13.65L3.4 -13.6L3.1 -13.4L2.95 -13.25L2.6 -13.15L2.5 -13.45L2.6 -13.8L2.65 -14.1L2.8 -14.4L2.95 -14.75L3 -14.8L3.1 -14.9L3.2 -14.95L3.35 -15L4 -14.9L4.6 -14.7L4.95 -14.4M5.25,-11L5.35 -10.95L4.85 -9.75L4.15 -8.55L3.55 -7.95Q3.45 -8.5 3.8 -9.3L4.3 -10.6Q4.55 -11.15 5.15 -11.05L5.2 -11.05L5.25 -11M4.75,-10.7L4.55 -10.25L4.3 -9.8L4.2 -9.45L4.45 -9.95L4.7 -10.4L4.75 -10.7M0.25,-7.55Q0.7 -7.45 0.95 -6.95L1.15 -6.3L1.7 -5.7L1.5 -5.55L0.75 -5.55L0.75 -5.25Q0.75 -4.85 0.25 -5L0.15 -5.05L0.2 -4.95L0.3 -4.7L0.25 -4.5L0.15 -4.5L0.1 -4.55L0.05 -4.65L0 -4.7L0 -4.6L-0.1 -4.5L-0.2 -4.4L-0.35 -4.6L-0.4 -4.9L-0.35 -5.15L-0.8 -5.65L-1.2 -6.15L-1.2 -6.4L-0.95 -6.4L-0.75 -6.25L-0.55 -6.15L-0.4 -6.15L-0.25 -6.2L-0.15 -6.25L-0.1 -6.6L0.05 -7L0.1 -7.4L0.1 -7.5L0.15 -7.55L0.25 -7.55M0.25,-6.2L0 -5.85L-0.55 -5.8L-0.35 -5.65L-0.25 -5.5L-0.2 -5.45L0.3 -5.4L0.45 -5.75Q0.6 -6 0.9 -6.05L0.7 -6.35L0.45 -6.7L0.4 -6.8L0.25 -6.2M5.2,-4.4Q5.1 -4.45 5.15 -4.6L5.7 -4.8L6.5 -4.85Q7.9 -4.5 7.85 -3.3L7.9 -2.9Q8.1 -1.6 6.6 -1.1Q5.9 -0.9 5.45 -1.1L5.65 -1.5L6.25 -1.9L6.65 -2.1L6.65 -2.2L6.7 -2.25L6.75 -2.4L6.9 -2.5L6.7 -2.7L6.5 -2.95L6.6 -3.2L6.6 -3.3L6.2 -3.7L5.2 -4.4M6.25,-4.4L6.25 -4.35L6.65 -3.95L7 -3.4L7 -3.05L7.1 -2.9L7.3 -2.7L7.45 -2.5L7.3 -3.45L7.25 -3.85L7.2 -4.2L7 -4.3L6.75 -4.45L6.45 -4.55L6.4 -4.45L6.3 -4.4L6.25 -4.4M7.35,-2.35L7.3 -2.25L7.3 -2.15L7.15 -1.95L6.75 -1.75L6.7 -1.7Q7.35 -1.85 7.45 -2.45L7.35 -2.45L7.35 -2.35M12.9,-9.6L12.9 -9.4L12.8 -9.2L12.9 -8.7Q12.85 -8.45 13.05 -8.3L13.5 -7.85L13.75 -7.8L13.95 -7.6L13.55 -7.05L13 -6.55L12.7 -6.35L12.55 -6.5L12.5 -6.75L12.55 -6.9L12.15 -7.15L12.15 -7.4L12.25 -7.7L12 -7.9L11.8 -8.15L11.8 -8.3L11.8 -8.35L11.75 -8.4L11.55 -8.55L11.45 -8.55L11.45 -8.7L11.45 -8.8L11.4 -8.85L11.05 -8.95Q10.95 -9.25 11.2 -9.5L11.9 -10.05L12.4 -10.15L12.45 -10.15L12.55 -10.1L12.55 -10L12.55 -9.9L12.55 -9.75L12.7 -9.75L12.9 -9.7L12.9 -9.6M11.6,-9.35L11.6 -9.3L11.55 -9.3L11.75 -9.25L11.8 -9.2L11.8 -9.1L11.8 -9L11.85 -8.85L12.1 -8.65L12.2 -8.4L12.25 -8.25L12.25 -8.2L12.6 -7.95L12.65 -7.7L12.6 -7.45L12.6 -7.4L12.55 -7.35L12.9 -7.2L12.95 -7.15L13.1 -7.2L13.35 -7.4L13.35 -7.5L12.85 -7.95Q12.45 -8.2 12.45 -8.65L12.4 -9.35L12.4 -9.4L12.25 -9.45L12.1 -9.6L12.1 -9.8L12.05 -9.75L11.9 -9.75L11.9 -9.65L11.8 -9.5L11.6 -9.35M14.5,-5.35L14.85 -5.35Q14.95 -5.25 15.1 -5.25L15.3 -5.1Q15.15 -4.7 14.65 -4.6L13.4 -4.3L12.85 -4.25L12.95 -4.65L13.65 -5.1L14.35 -5.35L14.5 -5.35M14.4,-5.1L14.2 -5.05Q13.85 -5.05 13.6 -4.85L13.55 -4.7L13.7 -4.6L14.35 -4.65L14.8 -4.9L14.7 -5.05L14.55 -5.1L14.4 -5.1M12.05,-1.55L12 -1.5L11.45 -1.45L11.85 -1.45L12 -1.45L12.15 -1.4L12.3 -1.3L12.3 -1.15L12.05 -0.9L11.85 -0.8L11.85 -0.75L11.9 -0.65L12.05 -0.5L12.1 -0.25L12.05 -0.15L11.85 0.1L11.85 0.2L11.9 0.25L12 0.25L12.2 0.4L12.3 0.5L12.3 0.6L12.3 0.8L12.3 1.1L12.3 1.25L11.55 1.6L11.6 1.65L11.65 1.7L11.7 1.75L11.7 1.85L11.7 1.95L11.25 2.2L9 2.25L8.55 2.3Q8.75 2.8 8 2.95L7.7 3.2L7.05 3.65Q5.6 3.75 4.4 3.15Q4.6 3.3 4.45 3.6L3.85 4.05Q2.5 4.1 1.8 3.25L1.8 3.3L1.85 3.35L1.95 3.5L1.95 3.8L1.95 3.9L1.85 4.1L1.75 4.15L1.7 4.15L1.5 4.15L0.3 4.1L0.25 4.15L-0.25 4.3L-0.55 4.05L-0.6 3.85L-0.75 3.4L-0.75 3.35L-0.8 3.35L-0.9 3.45L-0.95 3.6L-1.05 3.85L-1.05 3.95L-1.1 4.15L-1.15 4.25L-1.25 4.25L-2.85 4.05L-3.15 3.9L-3.25 3.95L-3.55 4.05L-4.1 4.1L-4.25 4.1L-4.75 4.1L-4.75 4.05L-4.8 3.95L-4.8 3.9L-4.95 3.6L-5.05 3.5L-5.05 3.45L-5.1 3.35L-5.15 3.4L-5.2 3.45L-5.25 3.45L-5.5 3.4L-5.55 3.3L-5.55 3.25L-6.5 3.25L-6.9 3.05L-6.95 3L-7 2.95L-7 2.9L-7.2 2.9L-7.3 2.85L-7.4 2.8L-7.45 2.75L-7.45 2.65L-7.4 2.55L-7.4 2.45L-7.35 2.4L-7.4 2.4L-7.45 2.35L-7.45 2.3L-7.55 2.25L-7.55 2.05L-7.45 1.95L-7.7 2L-8.1 2.2L-8.55 2.15L-8.55 2.05L-8.6 2L-8.6 1.95L-8.6 1.85L-8.6 1.8L-8.55 1.75L-8.55 1.7L-8.45 1.65L-8.4 1.65L-8.35 1.6L-8.35 1.55L-8.45 1.5L-8.65 1.35L-8.95 1.15L-9 1.1L-9.05 1.05L-9.05 0.85L-9.1 0.8L-9.35 0.7L-10.25 0.4L-10.4 0.35L-10.45 0.3L-10.45 0.1L-10.45 0L-10.5 -0.05L-10.5 -0.1L-10.65 -0.2L-11.1 -0.45L-11.15 -0.5L-11.25 -0.65L-11.3 -1.05L-11.15 -1.15L-11.05 -1.2L-10.75 -1.35L-10.6 -1.45L-10.7 -1.5L-11.55 -1.6L-12.4 -1.6L-11.8 -1.3L-11.7 -1.25L-11.55 -1.05L-11.9 -0.6L-12.2 -0.45Q-11.9 -0.5 -11.55 -0.2L-11.5 -0.05L-11.5 0L-11.75 0.2L-11.45 0.35Q-11.3 0.45 -11.3 0.6L-11.3 0.7L-11.4 0.9L-10.75 1L-10.65 1.15L-9.65 1.4L-9.3 1.5L-9.3 1.6L-9.3 1.7L-9.3 1.75L-9.4 1.8L-9.65 1.9L-9.75 1.95L-9.65 2.05L-9.3 2.15L-9.2 2.25L-9.2 2.3L-8.4 2.4L-8.4 2.45L-8.35 2.5L-8.25 2.55L-8.25 2.65L-8.35 2.75L-8.4 2.8L-8.5 2.85L-8.5 2.9L-8.15 3L-7.85 3.2L-7.8 3.3L-7.55 3.25L-6.9 3.3L-6.85 3.5L-6.95 3.7L-7.1 3.8L-7.15 3.85L-7.35 4L-6.15 4L-6.1 4.1L-6 4.15L-5.85 4.3L-5.55 4.25L-5.1 4.2L-5.05 4.35L-5.15 4.6L-5.25 4.7L-5.3 4.7L-5.3 4.75L-5.35 4.85L-4.55 5L-4.45 5.2L-4.4 5.25L-4.4 5.35L-3.9 4.95L-3.7 4.9L-3.45 4.7Q-3.05 4.35 -2.6 4.45L-2.6 4.55L-2.55 4.75L-2.6 4.85L-2.6 5.05L-2.2 4.9L-1.95 4.75L-1.9 4.75L-1.8 4.7L-1.15 4.75L-1.15 4.8L-1.15 4.9L-1.2 5L-1.2 5.1L0.2 5.5L0.25 5.55L1.05 5.2L2.4 5.3L2.55 5.25L2.65 5.05L2.75 4.8L2.9 4.75L3.2 4.75L3.35 4.85L3.75 4.5L4 4.4L4.25 4.45Q4.45 4.7 4.8 4.7L5.15 4.55L5.2 4.45L5.55 4.35L5.6 4.35L6.45 4.55L6.85 4.95L7.1 4.6Q7.3 4 7.85 3.75L9.25 3.5L9.35 3.55L9.4 3.5L9.4 3.45L9.5 3.4L9.55 3.35L9.55 3.3L9.65 3.2L9.75 3.15L9.9 3.15L10 3.15L10.05 3.2L10.25 3.15L10.5 3.05L10.95 2.7L11.2 2.5L11.3 2.5L11.4 2.5L11.45 2.55L11.55 2.55L11.55 2.35Q11.65 2.1 11.9 2.1L13 2.1L13 1.9L13.05 1.85L13.2 1.85L13.3 1.8L13.4 1.75L13.45 1.75L13.45 1.65L13.4 1.6L13.4 1.35L13.5 1.3L13.55 1.3L13.95 1.2L13.9 1L13.7 0.65L13.1 0.25L12.9 -0.1L13 -0.2L13.75 -0.25L14.55 -0.2L14.45 -0.25L14.25 -0.35L14.1 -0.45L13.65 -0.7L13.55 -0.8L13.55 -1.1L13.45 -1.1L13.3 -1.15L13.2 -1.15L13.2 -1.2L13.1 -1.25L13.1 -1.35L13.1 -1.4L13.25 -1.5L13.95 -1.55L12.5 -1.55L12.1 -1.6L12.05 -1.55M12,-1.75L12.05 -1.8L12.5 -1.9L13.5 -1.95L14.05 -1.9L14.55 -1.8L14.75 -1.65L14.75 -1.55L14.7 -1.5L14.55 -1.35L14.15 -1.25L13.95 -1.1L14.05 -0.95L14.5 -0.7L15.2 -0.2L15.3 -0.05L15.1 0.05L14.3 0.15L13.55 0.1L13.8 0.25L14.15 0.65L14.45 1.05L14.55 1.5L14.45 1.55L14.35 1.55L14.05 1.65L13.9 1.65L13.9 1.75L13.9 1.85L13.85 1.9L13.65 2.1L13.45 2.15L13.45 2.2L13.4 2.2L13.4 2.35L13.35 2.35L13.35 2.4L13.3 2.5L13.1 2.55L12.45 2.5L11.9 2.45L11.9 2.55L11.9 2.6L11.85 2.7L11.65 2.95L11.25 3L11.05 3.15L10.8 3.35L10 3.7L9.8 3.7L9.7 3.8L9.6 3.9L9.25 3.95L9 3.8L8.8 3.8L8.7 3.85L8.65 3.9L8.55 4L8.45 4.05L7.95 4.25L7.75 4.35L7.6 4.55L7.3 5.05Q7 5.65 6.5 5.15L6.3 4.8L6.05 4.75L5.8 4.8L5.35 4.85L5.25 4.85L5.15 4.95L4.85 5.05L3.95 4.8L3.75 5L3.4 5.2L3.2 5.2L3.15 5.15L3.1 5.15L2.75 5.6L2.65 5.65L1.55 5.75L1.25 5.6Q0.7 6 0.05 5.85L-1.4 5.4L-1.55 5.1L-2.3 5.3L-2.45 5.4L-2.65 5.55Q-2.9 5.8 -3.2 5.55L-3.25 5.4L-3.15 5.25L-3.1 5.1L-3.05 5.05L-3.05 5L-3 4.95L-3.85 5.4L-3.9 5.45L-4.2 5.65Q-4.5 6 -4.9 5.9L-4.95 5.8L-4.95 5.6L-4.9 5.5L-4.9 5.45L-4.85 5.4L-4.85 5.3L-5.65 5.35L-6.05 5.4L-6.1 5.35L-6.1 5.2L-6 5L-5.95 4.9L-5.9 4.85L-5.9 4.75L-5.85 4.75L-5.85 4.7L-6.15 4.6L-6.3 4.45L-8.05 4.45L-8.1 4.4L-8.15 4.2L-8.05 4.05L-7.95 3.95L-7.85 3.9L-7.8 3.85L-7.65 3.75L-8.25 3.4L-8.4 3.35L-8.9 3.15L-9.45 3L-9.5 2.95L-9.5 2.9L-9.45 2.8L-9.35 2.75L-9.75 2.4L-10.05 2.25L-10.2 2.15Q-10.4 1.95 -10.1 1.8L-9.9 1.65L-10.9 1.45L-11 1.3L-11.7 1.25L-11.85 1.1L-11.85 1.05L-11.85 0.95L-11.8 0.8L-11.75 0.7L-11.7 0.65L-11.95 0.5L-12.3 0.3L-12.3 0.2L-12.3 0.15L-12.25 0.05L-12.1 0Q-12.5 0 -12.75 -0.2L-12.8 -0.4L-12.65 -0.6L-12.3 -0.8L-12.2 -0.9L-12.15 -0.9L-12.1 -0.95L-12.1 -1L-12.7 -1.1L-12.75 -1.15Q-12.8 -1.4 -13.3 -1.4Q-13.5 -1.4 -13.6 -1.55L-13.6 -1.65L-11.4 -2L-11.35 -2L-11.25 -2L-11.1 -1.9L-11.05 -1.85L-10.25 -1.6L-10.2 -1.55L-10.15 -1.5L-10.2 -1.45L-10.2 -1.4L-10.25 -1.3L-10.6 -1.05L-10.65 -1.05L-10.7 -1L-10.75 -1Q-10.75 -0.95 -10.85 -0.95L-10.75 -0.9L-10.75 -0.8L-10.75 -0.7L-10.75 -0.6L-10.65 -0.55L-10.4 -0.45L-10.1 -0.25L-10.05 -0.15L-10.05 -0.1L-10.05 0.1L-9.9 0.15L-9.3 0.3L-8.95 0.5L-8.85 0.6Q-8.6 0.7 -8.65 0.95L-8.6 0.95L-8.5 1L-8.4 1.1L-8.05 1.3L-7.85 1.35L-7.85 1.6L-7.8 1.6L-7.2 1.45L-6.7 1.25L-6.15 1.1L-6 1.2L-6 1.3L-6.4 1.65L-6.5 1.7L-6.75 1.85L-7.1 2.1L-7.1 2.15L-7 2.2L-7 2.25L-6.95 2.25L-6.95 2.4L-7 2.55L-6.9 2.6L-6.6 2.8Q-6.4 3.1 -6 3L-5.45 2.9L-5.35 2.85L-5.35 2.75L-5.25 2.6L-4.95 2.35L-4.95 2.3L-4.9 2.25L-4.7 2.05L-4.55 2.05L-4.5 2.1L-4.45 2.1L-4.3 2.2L-4.25 2.3L-4.25 2.35L-4.35 2.55L-4.55 2.85L-4.65 2.95L-4.65 3.4L-4.5 3.7L-4.35 3.7L-4.3 3.75L-4.2 3.8L-4.05 3.85L-4 3.8L-3.9 3.75L-3.7 3.65L-3.4 3.6L-3.25 3.55L-3.2 3.55L-3.05 3.5L-2.9 3.6L-2.75 3.75L-1.4 3.8L-1.4 3.65L-1.25 3.3L-1.2 3.2L-1.15 3.05L-1.05 2.65L-0.95 2.45L-0.8 2.45L-0.7 2.45L-0.65 2.5L-0.6 2.55L-0.6 2.6L-0.6 2.8L-0.5 3.1L-0.4 3.15Q-0.25 3.3 -0.25 3.55L-0.15 3.95L-0.1 3.9L0 3.9L0.05 3.85L0.1 3.85L0.2 3.7L0.3 3.65L0.45 3.65L0.5 3.7L0.55 3.75L0.65 3.8L1.1 3.8L1.65 3.75L1.65 3.7L1.55 3.6L1.45 3.4L1.4 3.15L1.35 3.15L1.3 3L1.3 2.7L1.35 2.6L1.7 2.7L2.25 3.2Q2.8 3.85 3.8 3.75L4.2 3.6L4.2 3.55L4.15 3.5L4 3.35L3.8 3.05L3.8 3L3.75 2.95L3.7 2.75L4.3 2.7L5.1 3L7.3 3.2L7.3 3.15L7.3 3.05L7.45 2.85L7.6 2.65L7.65 2.6L7.7 2.55Q7.85 2.4 8 2.4L8.05 2.4L7.95 2.35L7.95 2.3L7.9 2.25L7.75 2.1L7.7 1.95Q7.85 1.8 8.05 1.8L10.9 1.85L11.05 1.8L11.15 1.8L11.05 1.75L11.05 1.65L11.05 1.55L11.05 1.4L11.15 1.35L11.25 1.3L11.35 1.25L11.9 1.15L11.9 1L11.9 0.85L11.9 0.7L11.9 0.6L11.8 0.55L11.55 0.35L11.45 0.1L11.45 0.05L11.55 0L11.7 -0.25L11.7 -0.3L11.65 -0.35L11.55 -0.5L11.45 -0.8L11.45 -0.9L11.65 -1.05L11.4 -1.15L10.6 -1.3L10.15 -1.55L10.15 -1.65L10.2 -1.75L10.8 -1.85L11.35 -1.85L11.7 -1.85L12 -1.75M-7.8,-12.85L-7.75 -13.05L-7.65 -13.1L-6.5 -12Q-6.05 -11.45 -6.7 -11.05L-7.3 -10.5L-7.7 -10.1Q-7.7 -9.4 -8.55 -9.5Q-9.65 -9.55 -9.35 -10.25L-9.25 -10.35L-9.45 -10.5L-9.6 -10.7L-9.5 -10.85L-9.5 -10.95L-8.75 -11.15L-8.25 -11.25L-8.25 -11.4L-8.2 -11.65L-7.95 -11.8L-8 -12L-8 -12.3L-7.65 -12.5L-7.75 -12.65L-7.8 -12.85M-0.8,-15.6L-0.6 -14.85L-0.35 -14.45L-0.55 -15.2L-0.7 -15.95L-1.05 -16.35L-0.8 -15.6M-3.25,-14.25L-3.2 -14.25L-2.9 -14.15L-2.75 -13.9L-2.6 -13.75L-2.55 -13.75L-2.4 -13.75L-2.3 -13.7L-2.2 -12.9Q-2 -12.15 -2.8 -12.2L-3.55 -12.35L-3.55 -12.25L-3.55 -12.2L-3.5 -12.15L-3.5 -12L-3.55 -11.95L-4 -12.5L-4.35 -13.15L-4.5 -13.65L-4.4 -13.75L-4.25 -13.7L-4.05 -13.55L-4 -13.6L-3.95 -13.6L-3.9 -13.65L-3.85 -13.65L-3.8 -13.6L-3.7 -13.6L-3.65 -13.55L-3.6 -13.75L-3.5 -13.9L-3.4 -14.1L-3.4 -14.15L-3.25 -14.25M-3.95,-13.15L-3.85 -13L-3.8 -12.85L-3.65 -12.7L-3.05 -12.55L-2.6 -12.5L-2.6 -12.6L-2.45 -12.7L-2.4 -12.85L-2.65 -13.25L-2.85 -13.55L-3.15 -13.85L-3.15 -13.8L-3.25 -13.65L-3.4 -13.45L-3.45 -13.3L-3.8 -13.2L-3.95 -13.15M-10.4,-6.6L-9.5 -6.5L-9.25 -6.25L-8.65 -6.1L-8.5 -5.9Q-8.35 -5.6 -8.5 -5.3Q-8.75 -4.7 -9.4 -4.6L-9.45 -4.55L-9.7 -4.4L-9.75 -4.35L-9.85 -4.35L-10.2 -4.2L-10 -4.05L-9.8 -3.95L-9.75 -3.9L-9.35 -3.6L-9.25 -3.35L-9.85 -3.3L-10.4 -3.55L-11.75 -4.3L-11.95 -4.5L-11.9 -4.75L-11.85 -4.8L-10.3 -5.15L-9.9 -5.25L-10.15 -5.4L-10.25 -5.5L-10.4 -5.55L-10.45 -5.6L-10.45 -5.9L-10.6 -6.1L-10.85 -6.2L-10.9 -6.2L-11.3 -6.5L-11.15 -6.65L-11.1 -6.65L-10.4 -6.6M-10.6,-4.2L-9.85 -4.75Q-9.25 -4.9 -8.9 -5.35L-8.9 -5.7L-8.9 -5.75L-9.6 -6L-10.05 -6.1L-10 -6.05L-10 -6L-9.9 -5.9L-9.9 -5.75L-9.45 -5.5L-9.25 -5.3Q-9.4 -4.9 -10.05 -4.8L-11.35 -4.5L-10.9 -4.25L-10.6 -4.2M-7.55,-11.75L-7.6 -11.6L-7.8 -11.45L-7.85 -11.4L-7.8 -11.2L-7.8 -11.15L-7.8 -11.05L-7.85 -10.9L-8.85 -10.75L-9 -10.65L-8.85 -10.45L-8.85 -10.3L-9 -10.05L-9 -10L-8.45 -9.85L-8.15 -9.9L-8.15 -10.05L-8.15 -10.2L-8.15 -10.3L-7.6 -10.8L-7.15 -11.3L-6.8 -11.5Q-6.7 -11.65 -6.75 -11.75L-6.85 -12.05L-7.15 -12.3L-7.25 -12.15L-7.4 -12.15L-7.6 -12.1L-7.6 -11.95L-7.55 -11.85L-7.55 -11.75M-6.4,-3.85L-6.1 -4L-5.55 -4.45L-4.55 -4.8L-4.75 -5L-4.8 -5.15L-4.8 -5.25L-4.7 -5.45L-4.65 -5.45L-3.8 -5.2L-3.1 -5.25Q-2.6 -5.35 -2.35 -5L-2.45 -4.85L-2.7 -4.7L-2.85 -4.65L-2.9 -4.65L-3.1 -4.6L-3.2 -4.45Q-3.25 -4.35 -3.4 -4.35L-3.6 -4.2L-3.7 -4.2L-3.6 -4.1L-3.45 -4L-3.45 -3.9L-3.4 -3.85L-3.65 -3.65L-4 -3.55L-4.2 -3.5L-4.25 -3.5L-4.35 -3.4Q-4 -2.95 -3.25 -2.75Q-2.4 -2.5 -3 -1.85Q-3.3 -1.5 -3.9 -1.55L-5.35 -1.75L-5.55 -1.85L-5.6 -1.9L-5.6 -2.1L-5.55 -2.15Q-5.45 -2.25 -5.3 -2.3L-5.15 -2.35L-4.85 -2.45L-5.55 -2.65L-5.85 -2.75L-5.9 -2.85L-6 -3L-6 -3.1L-6.35 -3.2L-6.8 -3.35L-6.85 -3.45L-6.4 -3.85M-5.5,-4.05L-6 -3.55L-5.45 -3.1L-4.9 -2.85Q-4.35 -2.7 -4.4 -2.25L-4.5 -2.15L-3.3 -2.1L-3.25 -2.15L-3.2 -2.25L-3.15 -2.3L-4.2 -2.75L-4.5 -2.9L-5.05 -3.3L-4.7 -3.65L-4.4 -3.8L-4.35 -3.85L-4.1 -3.9L-4.2 -4.3L-4.05 -4.45Q-3.95 -4.55 -3.8 -4.6L-3.5 -4.75L-4.1 -4.9L-4.1 -4.75Q-4.45 -4.3 -5.15 -4.2L-5.5 -4.05" />
<path style="fill:#FFCC00;fill-opacity:1" d="M4.75,-14.05L6.25 -13.8L7.25 -12.9L7.05 -12.7L6.85 -12.6L6.85 -12.65L6.85 -12.95Q6.7 -13.2 6.4 -13.25L5.9 -13.7L3.95 -13.55L3.9 -13.65L3.85 -13.85L3.75 -14.05L3.2 -13.95L3 -13.8L3.05 -14.05L3.2 -14.4L3.35 -14.7L4 -14.6L4.75 -14.05M4.7,-10.4L4.45 -9.95L4.2 -9.45L4.3 -9.8L4.55 -10.25L4.75 -10.7L4.7 -10.4M0.4,-6.8L0.45 -6.7L0.7 -6.35L0.9 -6.05Q0.6 -6 0.45 -5.75L0.3 -5.4L-0.2 -5.45L-0.25 -5.5L-0.35 -5.65L-0.55 -5.8L0 -5.85L0.25 -6.2L0.4 -6.8M6.3,-4.4L6.4 -4.45L6.45 -4.55L6.75 -4.45L7 -4.3L7.2 -4.2L7.25 -3.85L7.3 -3.45L7.45 -2.5L7.3 -2.7L7.1 -2.9L7 -3.05L7 -3.4L6.65 -3.95L6.25 -4.35L6.25 -4.4L6.3 -4.4M7.35,-2.45L7.45 -2.45Q7.35 -1.85 6.7 -1.7L6.75 -1.75L7.15 -1.95L7.3 -2.15L7.3 -2.25L7.35 -2.35L7.35 -2.45M11.8,-9.5L11.9 -9.65L11.9 -9.75L12.05 -9.75L12.1 -9.8L12.1 -9.6L12.25 -9.45L12.4 -9.4L12.4 -9.35L12.45 -8.65Q12.45 -8.2 12.85 -7.95L13.35 -7.5L13.35 -7.4L13.1 -7.2L12.95 -7.15L12.9 -7.2L12.55 -7.35L12.6 -7.4L12.6 -7.45L12.65 -7.7L12.6 -7.95L12.25 -8.2L12.25 -8.25L12.2 -8.4L12.1 -8.65L11.85 -8.85L11.8 -9L11.8 -9.1L11.8 -9.2L11.75 -9.25L11.55 -9.3L11.6 -9.3L11.6 -9.35L11.8 -9.5M14.55,-5.1L14.7 -5.05L14.8 -4.9L14.35 -4.65L13.7 -4.6L13.55 -4.7L13.6 -4.85Q13.85 -5.05 14.2 -5.05L14.4 -5.1L14.55 -5.1M12.1,-1.6L12.5 -1.55L13.95 -1.55L13.25 -1.5L13.1 -1.4L13.1 -1.35L13.1 -1.25L13.2 -1.2L13.2 -1.15L13.3 -1.15L13.45 -1.1L13.55 -1.1L13.55 -0.8L13.65 -0.7L14.1 -0.45L14.25 -0.35L14.45 -0.25L14.55 -0.2L13.75 -0.25L13 -0.2L12.9 -0.1L13.1 0.25L13.7 0.65L13.9 1L13.95 1.2L13.55 1.3L13.5 1.3L13.4 1.35L13.4 1.6L13.45 1.65L13.45 1.75L13.4 1.75L13.3 1.8L13.2 1.85L13.05 1.85L13 1.9L13 2.1L11.9 2.1Q11.65 2.1 11.55 2.35L11.55 2.55L11.45 2.55L11.4 2.5L11.3 2.5L11.2 2.5L10.95 2.7L10.5 3.05L10.25 3.15L10.05 3.2L10 3.15L9.9 3.15L9.75 3.15L9.65 3.2L9.55 3.3L9.55 3.35L9.5 3.4L9.4 3.45L9.4 3.5L9.35 3.55L9.25 3.5L7.85 3.75Q7.3 4 7.1 4.6L6.85 4.95L6.45 4.55L5.6 4.35L5.55 4.35L5.2 4.45L5.15 4.55L4.8 4.7Q4.45 4.7 4.25 4.45L4 4.4L3.75 4.5L3.35 4.85L3.2 4.75L2.9 4.75L2.75 4.8L2.65 5.05L2.55 5.25L2.4 5.3L1.05 5.2L0.25 5.55L0.2 5.5L-1.2 5.1L-1.2 5L-1.15 4.9L-1.15 4.8L-1.15 4.75L-1.8 4.7L-1.9 4.75L-1.95 4.75L-2.2 4.9L-2.6 5.05L-2.6 4.85L-2.55 4.75L-2.6 4.55L-2.6 4.45Q-3.05 4.35 -3.45 4.7L-3.7 4.9L-3.9 4.95L-4.4 5.35L-4.4 5.25L-4.45 5.2L-4.55 5L-5.35 4.85L-5.3 4.75L-5.3 4.7L-5.25 4.7L-5.15 4.6L-5.05 4.35L-5.1 4.2L-5.55 4.25L-5.85 4.3L-6 4.15L-6.1 4.1L-6.15 4L-7.35 4L-7.15 3.85L-7.1 3.8L-6.95 3.7L-6.85 3.5L-6.9 3.3L-7.55 3.25L-7.8 3.3L-7.85 3.2L-8.15 3L-8.5 2.9L-8.5 2.85L-8.4 2.8L-8.35 2.75L-8.25 2.65L-8.25 2.55L-8.35 2.5L-8.4 2.45L-8.4 2.4L-9.2 2.3L-9.2 2.25L-9.3 2.15L-9.65 2.05L-9.75 1.95L-9.65 1.9L-9.4 1.8L-9.3 1.75L-9.3 1.7L-9.3 1.6L-9.3 1.5L-9.65 1.4L-10.65 1.15L-10.75 1L-11.4 0.9L-11.3 0.7L-11.3 0.6Q-11.3 0.45 -11.45 0.35L-11.75 0.2L-11.5 0L-11.5 -0.05L-11.55 -0.2Q-11.9 -0.5 -12.2 -0.45L-11.9 -0.6L-11.55 -1.05L-11.7 -1.25L-11.8 -1.3L-12.4 -1.6L-11.55 -1.6L-10.7 -1.5L-10.6 -1.45L-10.75 -1.35L-11.05 -1.2L-11.15 -1.15L-11.3 -1.05L-11.25 -0.65L-11.15 -0.5L-11.1 -0.45L-10.65 -0.2L-10.5 -0.1L-10.5 -0.05L-10.45 0L-10.45 0.1L-10.45 0.3L-10.4 0.35L-10.25 0.4L-9.35 0.7L-9.1 0.8L-9.05 0.85L-9.05 1.05L-9 1.1L-8.95 1.15L-8.65 1.35L-8.45 1.5L-8.35 1.55L-8.35 1.6L-8.4 1.65L-8.45 1.65L-8.55 1.7L-8.55 1.75L-8.6 1.8L-8.6 1.85L-8.6 1.95L-8.6 2L-8.55 2.05L-8.55 2.15L-8.1 2.2L-7.7 2L-7.45 1.95L-7.55 2.05L-7.55 2.25L-7.45 2.3L-7.45 2.35L-7.4 2.4L-7.35 2.4L-7.4 2.45L-7.4 2.55L-7.45 2.65L-7.45 2.75L-7.4 2.8L-7.3 2.85L-7.2 2.9L-7 2.9L-7 2.95L-6.95 3L-6.9 3.05L-6.5 3.25L-5.55 3.25L-5.55 3.3L-5.5 3.4L-5.25 3.45L-5.2 3.45L-5.15 3.4L-5.1 3.35L-5.05 3.45L-5.05 3.5L-4.95 3.6L-4.8 3.9L-4.8 3.95L-4.75 4.05L-4.75 4.1L-4.25 4.1L-4.1 4.1L-3.55 4.05L-3.25 3.95L-3.15 3.9L-2.85 4.05L-1.25 4.25L-1.15 4.25L-1.1 4.15L-1.05 3.95L-1.05 3.85L-0.95 3.6L-0.9 3.45L-0.8 3.35L-0.75 3.35L-0.75 3.4L-0.6 3.85L-0.55 4.05L-0.25 4.3L0.25 4.15L0.3 4.1L1.5 4.15L1.7 4.15L1.75 4.15L1.85 4.1L1.95 3.9L1.95 3.8L1.95 3.5L1.85 3.35L1.8 3.3L1.8 3.25Q2.5 4.1 3.85 4.05L4.45 3.6Q4.6 3.3 4.4 3.15Q5.6 3.75 7.05 3.65L7.7 3.2L8 2.95Q8.75 2.8 8.55 2.3L9 2.25L11.25 2.2L11.7 1.95L11.7 1.85L11.7 1.75L11.65 1.7L11.6 1.65L11.55 1.6L12.3 1.25L12.3 1.1L12.3 0.8L12.3 0.6L12.3 0.5L12.2 0.4L12 0.25L11.9 0.25L11.85 0.2L11.85 0.1L12.05 -0.15L12.1 -0.25L12.05 -0.5L11.9 -0.65L11.85 -0.75L11.85 -0.8L12.05 -0.9L12.3 -1.15L12.3 -1.3L12.15 -1.4L12 -1.45L11.85 -1.45L11.45 -1.45L12 -1.5L12.05 -1.55L12.1 -1.6M-1.05,-16.35L-0.7 -15.95L-0.55 -15.2L-0.35 -14.45L-0.6 -14.85L-0.8 -15.6L-1.05 -16.35M-3.8,-13.2L-3.45 -13.3L-3.4 -13.45L-3.25 -13.65L-3.15 -13.8L-3.15 -13.85L-2.85 -13.55L-2.65 -13.25L-2.4 -12.85L-2.45 -12.7L-2.6 -12.6L-2.6 -12.5L-3.05 -12.55L-3.65 -12.7L-3.8 -12.85L-3.85 -13L-3.95 -13.15L-3.8 -13.2M-10.9,-4.25L-11.35 -4.5L-10.05 -4.8Q-9.4 -4.9 -9.25 -5.3L-9.45 -5.5L-9.9 -5.75L-9.9 -5.9L-10 -6L-10 -6.05L-10.05 -6.1L-9.6 -6L-8.9 -5.75L-8.9 -5.7L-8.9 -5.35Q-9.25 -4.9 -9.85 -4.75L-10.6 -4.2L-10.9 -4.25M-7.55,-11.85L-7.6 -11.95L-7.6 -12.1L-7.4 -12.15L-7.25 -12.15L-7.15 -12.3L-6.85 -12.05L-6.75 -11.75Q-6.7 -11.65 -6.8 -11.5L-7.15 -11.3L-7.6 -10.8L-8.15 -10.3L-8.15 -10.2L-8.15 -10.05L-8.15 -9.9L-8.45 -9.85L-9 -10L-9 -10.05L-8.85 -10.3L-8.85 -10.45L-9 -10.65L-8.85 -10.75L-7.85 -10.9L-7.8 -11.05L-7.8 -11.15L-7.8 -11.2L-7.85 -11.4L-7.8 -11.45L-7.6 -11.6L-7.55 -11.75L-7.55 -11.85M-5.15,-4.2Q-4.45 -4.3 -4.1 -4.75L-4.1 -4.9L-3.5 -4.75L-3.8 -4.6Q-3.95 -4.55 -4.05 -4.45L-4.2 -4.3L-4.1 -3.9L-4.35 -3.85L-4.4 -3.8L-4.7 -3.65L-5.05 -3.3L-4.5 -2.9L-4.2 -2.75L-3.15 -2.3L-3.2 -2.25L-3.25 -2.15L-3.3 -2.1L-4.5 -2.15L-4.4 -2.25Q-4.35 -2.7 -4.9 -2.85L-5.45 -3.1L-6 -3.55L-5.5 -4.05L-5.15 -4.2" />
</g>
</svg>
