<?xml version="1.0" encoding="utf-8"?>
<svg version="1.1" id="Layer_1"
xmlns="http://www.w3.org/2000/svg"
xmlns:xlink="http://www.w3.org/1999/xlink"
width="36px" height="36px"
xml:space="preserve">
<g id="1590" transform="matrix(1, 0, 0, 1, -4.85, -1.15)">
<path style="fill:#FF0100;fill-opacity:0.25098" d="M32.7,7.15L32.55 7.15L32.65 7.1L32.7 7.15M34.95,11.9L35 12Q37.85 11.75 40.3 13.85Q37.9 12.05 34.85 12.2Q33.85 10.65 33.55 8.85L34.95 11.9M24.7,1.15L25.3 1.2L25.3 1.25Q23.8 1.4 22.75 2.45L22.45 2.85L22.85 3.25L23.55 3.8L22.85 5.35Q22.3 6.2 22.25 6.75Q22.05 6.05 22.55 5.35L23.45 3.9L22.8 3.5L22.2 2.95Q22.55 2.2 23.3 1.7Q23.95 1.25 24.7 1.15M20.55,19.6L20.65 19.25Q20.8 18.85 21.2 18.7Q22.1 18.75 20.55 19.6M23.95,22.45Q20.45 22.25 20.45 20.4Q21.75 22.1 23.95 22.45M39.6,16.6Q39.8 18.45 39.6 20.3L39.6 20.4L35.75 20.05L35.65 20.2Q35.5 20.3 35.6 19.5L35.6 19.4Q37.45 19.6 39.4 20.25L39.5 16.65L39.6 16.6M32.75,18.2L34.05 18.4L34.1 18.45Q32.85 18.35 31.8 18.8L32.55 21.25Q32.95 22.55 31.85 23.1Q32.8 22.05 32.15 20.6L31.45 18.65Q31.65 18.45 31.95 18.4L32.75 18.2M11.15,9.3L11.2 9.85Q10.05 8.05 10.25 5.75Q11.5 6.8 11.15 9.3M9.7,5.4Q8.4 5.3 8.4 6.35L8.35 6.25L8.35 5.65L8.4 5.5L8.45 5.45L9.15 5.2L9.7 5.4M5.55,14.3Q6.25 11.4 10.1 11.45Q10.75 11.45 11.2 10.9Q10.95 11.9 9.4 12.1Q7.65 12.3 6.4 13.3L5.55 14.3M5.55,19.5Q4.5 22.6 5.5 25.05Q4.3 22.7 5.4 19.55Q5.4 19.45 5.55 19.5M15.85,34.9Q16.35 35.05 16.8 35.35Q19.05 36.8 21.2 34.2Q18.65 37.95 15.9 34.95L15.85 34.9M12.6,35.3Q14 34.6 15.2 34.75L15 34.85Q13.7 35.55 12.6 35.3M7.4,27.75Q7.6 27.9 7.2 28.3Q6.2 29.3 6.65 30.1Q6.15 30.15 6.15 29.6L7.4 27.75M36.3,28.3Q36.05 29.05 35.95 29.85L35.8 29.4Q35.55 28.65 36.3 28.3M31.45,32.8Q33.2 32.85 35 34.25Q35.75 34.85 36.05 34.05L36.15 33.8L36.2 34.05Q36.35 34.55 35.7 34.65Q33.1 35.2 31.6 33L31.45 32.8M30.55,32.9Q29.8 33.4 29.2 33.3L30.6 32.85L30.55 32.9" />
</g>
</svg>
