<?xml version="1.0" encoding="utf-8"?>
<svg version="1.1" id="Layer_1"
xmlns="http://www.w3.org/2000/svg"
xmlns:xlink="http://www.w3.org/1999/xlink"
width="41px" height="21px"
xml:space="preserve">
<g id="1080" transform="matrix(1, 0, 0, 1, 18.6, 22.1)">
<path style="fill:#3A3A3A;fill-opacity:1" d="M13.2,-18.6L13.3 -18.45Q13.7 -17.75 13.5 -16.9Q13.3 -16 12.5 -15.5L11.85 -15.3L11.4 -15L11.45 -14.85Q11.65 -14 10.9 -13.3Q10.1 -12.65 9.15 -12.2L9.15 -12.15L9.2 -12.1L9.3 -12L9.35 -11.95Q9 -11.7 8.55 -11.6L7.75 -11.3L7.25 -12.25L7.1 -12.65L7.15 -12.65L6.95 -13.5Q6.85 -14.1 7.2 -14.6L8.2 -15.5L8.25 -15.65L8.2 -15.8L8.15 -15.9L8.15 -16L8.35 -16.35L8.6 -16.6L8.8 -16.6L8.75 -16.8L8.8 -17L8.8 -17.05L8.75 -17.1L8.8 -17.35Q9 -17.85 9.55 -18.05L10.4 -18.4L10.5 -18.45Q10.95 -18.5 11.15 -18.8Q12.6 -19.4 13.2 -18.6M10.3,-19.1L9.8 -18.95L9.35 -18.95Q8.9 -18.95 8.8 -19.3Q8.2 -20.95 10.15 -21.05Q10.6 -21.1 10.75 -20.65Q11.15 -19.45 10.3 -19.1M6,-20.8Q7.35 -20 6.25 -18.85Q5.8 -18.35 5.15 -18.65Q4.55 -18.9 4 -18.65L3.3 -18.35L3.05 -18.2L3 -18.25Q2.85 -18.3 2.8 -18.15L2.75 -18.05L2.35 -17.7L0.85 -17.55Q0.5 -17.1 -0.1 -17.25Q-1.1 -17.4 -1 -18.35L-0.65 -19.1L-0.25 -19.65L0.1 -19.9L1.9 -20Q2 -20.8 2.65 -21.3L4.85 -21.25Q5 -21.1 5.15 -21.1Q5.6 -21.05 6 -20.8M3.5,-15.7L2.7 -15.45L2.35 -15.2L2.35 -15.15L2.1 -14.7L1.9 -14.15L1.95 -13.9L2.3 -13.25L2.55 -13.2L2.65 -13.65L2.75 -14.3L2.85 -14.6L3.5 -15.1L3.85 -15.2L3.95 -15.3L4.2 -15.55Q4.75 -15.95 5.35 -16Q5.35 -16 5.45 -15.95Q5.9 -15.9 6.15 -15.55L6.45 -15.15L6 -14.55Q5.6 -14.05 5.9 -13.45Q6.15 -12.95 6.6 -12.75L6.35 -12L5.45 -11.2L5.05 -11.3L4.35 -11.5L3.75 -11.8L3.65 -11.65L3.7 -11.45L3.55 -11.5L3.3 -11.65L3.3 -11.7L3.3 -12.65L3.5 -13.5L3.45 -13.55L3.4 -13.65L3.3 -13.65L3.25 -13.65L2.95 -13.45Q2.5 -12.8 2.55 -12.05L2.75 -11.35L2.65 -11.05Q2.25 -10.25 1.4 -10.7L1.35 -10.7L1.35 -10.65L1.3 -10.55L0.9 -10L0.15 -9.5Q0.45 -9 1.1 -9.35L1.75 -10L2.1 -10L3.15 -10.3L3.4 -10.45L4.85 -10.3L4.9 -10.3Q5.3 -10 5.15 -9.55L5.15 -9.45L5.05 -9.5Q4.7 -9.35 5.1 -9.15L5.2 -9.1L5.25 -9.05L5.3 -9.05Q5.7 -8.75 5.65 -8.25L5.35 -7.75L5.3 -7.65L5.35 -7.55L5.4 -7.35L5.45 -7.25L5.5 -7.15L5.4 -7.05L5.3 -6.9L5.15 -6.8L5.05 -6.7L4.95 -6.65Q4.35 -6.55 4.05 -7.05L3.6 -7.15L3.35 -6.5Q2.65 -5.55 1.95 -6.6L1.05 -7.55L1 -7.3L1.05 -6.9L1.05 -6.65L1.05 -6.45L0.7 -6.5L0.6 -6.6L0.6 -6.65L0.6 -6.75L0.65 -6.75L0.6 -6.85L0.5 -7Q0.05 -7.3 0.15 -7.8L0.15 -8.75L-0.15 -9.35L-0.15 -10L-0.6 -10.75L-1.2 -11.1L-1.2 -11.7Q-1.3 -12.15 -1.75 -12.45L-2.55 -12.75L-2.6 -13.15L-2.25 -13.75Q-2 -14.35 -2.4 -14.85L-2.4 -15.05L-1.85 -16.1L-1.15 -16.45L-0.8 -16.5L1.5 -15.8L1.8 -15.8Q3.6 -16.85 5.75 -16.85L5.7 -16.75L5.6 -16.5L5.4 -16.55L4.75 -16.6L4.55 -16.55L4.35 -16.4L3.8 -16.05L3.55 -15.7L3.5 -15.7M9.25,-11.25L9.55 -11.5L10.5 -12.2L10.95 -11.95Q11.6 -11.75 11.65 -11.1L11.75 -10.35L11.8 -10.15L11.6 -9.55L11.05 -9.05Q10.3 -8.4 9.35 -8.35L9.35 -8Q9.1 -7.05 7.95 -7.2Q7.55 -7.4 7.25 -7.7L6.8 -7.95L6.7 -8.4L6.15 -9L5.65 -9.4L5.55 -10.05L5.25 -10.5L5.7 -10.6L7.1 -11.4Q7.85 -10.05 9.15 -11.2L9.25 -11.25M5,-4.15L5.15 -3.8L4.85 -3.1L4.6 -2.4L4.4 -2.35L4.3 -2.4L4.4 -2.8L4.75 -3.45L5 -4.15M8.3,-4.8L8.45 -4.85L8.8 -4.7L8.85 -4.65L8.85 -4.35L7.9 -3.55Q7.35 -3.4 6.95 -3.75L6.95 -3.85L6.95 -4L6.9 -4L6.9 -4.05L6.95 -4.1L7.25 -4.35L7.8 -4.65L8.3 -4.8M17.85,-11.75Q17.55 -11.05 16.65 -11L16.55 -11.05Q16.35 -11.2 16.3 -11.45L16.3 -11.7L16.35 -12L16.45 -12.15L16.7 -12.3L17 -12.35L17.8 -12.1L17.85 -11.75M17.7,-7.5L17.8 -7.45L17.95 -7.35L18 -7.25L17.75 -7.05L17.2 -6.9L16.9 -7.1L17.05 -7.35L17.4 -7.4L17.7 -7.5M15.55,-6.45Q15.6 -5.65 14.95 -5.1L13.55 -5.15L13.5 -5.45Q13.9 -6.55 15.1 -6.8L15.2 -6.8L15.45 -6.65L15.55 -6.45M20.15,-8.75L20.4 -8.9L20.65 -9L21 -8.95Q21.5 -8.65 21.25 -8.15Q20.75 -7.2 19.6 -7.3L19.4 -7.45L19.4 -7.65L19.4 -7.85L19.45 -8L19.55 -8.05L19.7 -8.25L19.85 -8.4L19.9 -8.6L20.15 -8.75M12.95,-5.55L13.1 -5.5Q13.6 -4.45 12.7 -4Q12.25 -3.75 12.15 -4.25Q11.95 -4.9 12.45 -5.25L12.75 -5.3L12.8 -5.35L12.8 -5.4L12.85 -5.45L12.85 -5.5L12.95 -5.55M-7.35,-18.9Q-6.15 -20 -4.75 -19.4Q-4.15 -19.15 -4.05 -18.5L-4.2 -18.5L-4.3 -18.55L-4.5 -18.55L-4.6 -18.55L-4.6 -18.5L-4.65 -18.5L-4.65 -18.25L-4.25 -17.85L-4.05 -16.9L-4.35 -16.25L-4.4 -15.9L-4.3 -15.85L-4.3 -15.8Q-4.3 -15.55 -4.45 -15.3L-4.6 -14.8L-4.25 -14.4Q-4 -14 -4.35 -13.65L-4.85 -12.8L-4.9 -12.75L-4.85 -12.7L-4.9 -12.65L-4.85 -12.6L-4.85 -12.3Q-4.9 -11.9 -5.1 -11.55L-5.6 -11Q-6 -11.55 -6.9 -11.75L-7.1 -12.25Q-7.6 -13.15 -8.55 -13.45L-8.4 -13.55L-8.25 -13.6Q-7 -14.05 -7 -15.4Q-7 -16.25 -7.45 -16.85L-7.25 -17.6Q-7.25 -18.2 -7.55 -18.7L-7.35 -18.9M-7.9,-18.2L-7.9 -17.7L-8 -17.5Q-8.25 -17.2 -8.65 -17.1L-8.7 -17.05L-8.65 -16.9L-8.25 -16.45L-8 -15.95Q-7.65 -14.5 -8.65 -13.85L-9.35 -13.7L-9.2 -13.6L-9.75 -13.5Q-11.35 -13.2 -11.7 -14.7L-12.35 -15.2L-12.5 -15.9L-12.25 -16.35L-11.9 -16.65L-11.9 -16.8Q-12.1 -17.4 -11.75 -17.9L-11.2 -18.3L-10.85 -18.45L-10.85 -18.3Q-10.3 -18.55 -9.65 -18.95Q-8.4 -19.7 -7.8 -18.35L-7.9 -18.2M-8.2,-12.5L-7.65 -11.85L-7.5 -11.5L-7.9 -10.85L-8.95 -10.15Q-9.3 -10.1 -9.5 -10.35L-9.55 -10.45L-9.5 -10.6L-9.5 -10.75L-9.5 -10.85L-9.5 -10.9L-9.6 -11L-9.65 -10.9L-9.65 -11.05L-9.7 -11.1L-9.85 -11.1L-9.9 -11.1L-10.15 -10.4Q-10.35 -9.9 -10.95 -9.9Q-12.4 -9.9 -12.9 -11.4Q-13.2 -12.45 -12.85 -13.4L-12.65 -13.5L-12.55 -13.65L-12.55 -13.75L-12.95 -14Q-13.6 -14.25 -13.25 -14.8L-12.85 -15.2L-12.65 -14.9L-12.05 -14.4L-11.85 -13.95L-11 -13.3L-10.15 -12.75Q-9.5 -12.5 -8.9 -12.75L-8.7 -12.85L-8.2 -12.5M-3.55,-17.25L-3.4 -17Q-3.2 -16.45 -3.35 -15.95Q-3.55 -15.45 -3.95 -15.2L-4.05 -15.1L-4.05 -15.25L-4 -15.7L-4 -15.9L-3.75 -16.2L-3.65 -16.65L-3.6 -17.1L-3.55 -17.25M-1.65,-11.6L-1.2 -10.9Q-0.65 -10.5 -0.55 -9.85L-0.5 -9Q-0.5 -7.7 -2.05 -7.5L-2.1 -7.5L-2.1 -7.45L-2.15 -7.45L-2.15 -7.4L-2.75 -7.55L-3.4 -7.35L-3.8 -7.1L-3.9 -6.95L-3.75 -7.3Q-3.3 -8.65 -4.35 -9.2L-3.7 -10Q-3.15 -10.8 -2.75 -11.75L-2.55 -12.55Q-1.75 -12.35 -1.65 -11.6M-11.05,-9.5Q-10.6 -9.05 -9.75 -9.05Q-8.8 -9.1 -8 -9.6L-7.55 -9.9L-7.1 -10.4L-6.85 -11.3Q-5.7 -11.1 -5.7 -9.9Q-5.75 -7.95 -7.95 -7.9L-8.15 -7.85Q-9.5 -7.4 -10.55 -8.25Q-11.25 -8.75 -11.35 -9.5L-11.05 -9.5M-18,-6.55L-17.55 -6.6L-17.4 -6.6L-17.1 -6.4L-16.95 -6.2L-16.95 -6.15L-17 -6Q-17.45 -5.4 -18.2 -5.7L-18.45 -6L-18.35 -6.3L-18 -6.55M-16.1,-6.2L-16.3 -6.05L-16.5 -6.05L-16.5 -6.2L-16.45 -6.3L-16.4 -6.4L-16.35 -6.4L-16.2 -6.35L-16.1 -6.25L-16.1 -6.2M-10.9,-6.2Q-10.6 -6.65 -10.1 -6.85L-9.85 -6.7L-9.8 -6.5L-9.7 -6.45L-9.75 -6.4Q-9.7 -6.25 -9.55 -6.3L-9.35 -6.05L-9.35 -5.8L-9.45 -5.6L-10.1 -5.3L-10.1 -5.2L-10.1 -5.1L-10.65 -5.3Q-11.3 -5.65 -10.9 -6.2M-4.5,-8.5Q-4.1 -7.9 -4.45 -7.3Q-5 -6.25 -5.95 -6.15L-5.75 -6.75L-5.55 -7.35L-5.45 -7.6L-5.4 -7.75L-4.85 -8.65Q-4.6 -8.7 -4.5 -8.5M-3,-7.1L-2.7 -7.15Q-2.25 -7.1 -1.95 -6.75Q-1.75 -6.5 -1.85 -6.15L-1.8 -5.9L-1.75 -5.85L-1.4 -5.8L-1.35 -5.75L-1.25 -5.25Q-1.25 -4.9 -1.5 -4.65L-1.6 -4.6L-1.6 -4.55L-2.15 -4.5L-2.25 -4.85L-2.7 -5.1L-3.05 -5.2L-3.2 -5.45L-3.45 -5.7L-3.6 -5.9L-3.65 -6L-3.6 -6.1L-3.55 -6.4L-3.55 -6.6L-3.55 -6.7L-3.5 -6.8L-3.3 -6.95L-3 -7.1M-8.25,-6.5L-7.75 -6.55Q-6.8 -6.6 -6.2 -7.05Q-6.65 -6.3 -7.25 -5.85L-7.35 -5.85L-8.55 -5.5Q-8.4 -5.85 -8.65 -6.2L-8.8 -6.45L-8.25 -6.5" />
<path style="fill:#1E1E1E;fill-opacity:1" d="M11.15,-18.8Q10.95 -18.5 10.5 -18.45L10.4 -18.4L9.55 -18.05Q9 -17.85 8.8 -17.35L8.75 -17.1L8.8 -17.05L8.8 -17L8.75 -16.8L8.8 -16.6L8.6 -16.6L8.35 -16.35L8.15 -16L8.15 -15.9L8.2 -15.8L8.25 -15.65L8.2 -15.5L7.2 -14.6Q6.85 -14.1 6.95 -13.5L7.15 -12.65L7.1 -12.65L7.25 -12.25L7.75 -11.3L8.55 -11.6Q9 -11.7 9.35 -11.95L9.3 -12L9.2 -12.1L9.15 -12.15L9.15 -12.2Q10.1 -12.65 10.9 -13.3Q11.65 -14 11.45 -14.85L11.4 -15L11.85 -15.3L12.5 -15.5Q13.3 -16 13.5 -16.9Q13.7 -17.75 13.3 -18.45L13.2 -18.6Q12.6 -19.4 11.15 -18.8M11.8,-19.4Q13.8 -19.55 14 -17.8Q14.05 -17.2 14.25 -16.65Q14.5 -16.1 14.35 -15.55L14.25 -15.25L14.35 -14.2Q14.3 -13.55 13.85 -13.1L13.25 -12.65Q14.9 -11.35 14.1 -9.7L13.95 -9.5L14.05 -9.4Q14.15 -8.65 13.75 -8Q13.15 -6.9 11.9 -7L11.6 -7Q11.45 -6.25 10.75 -5.9L8.9 -5.8L6.7 -5.7L6.5 -5.85L5.85 -5.25L4.1 -5.35Q3.45 -4.4 2.25 -4.95L1.7 -5.3L0.75 -5.35L0.4 -5.55L0 -5.2Q-0.45 -4.6 -1.15 -4.45L-1.55 -4.25Q-2.35 -3.85 -2.5 -4.6L-3.2 -5.05L-3.85 -5.8L-4 -6.35L-4.05 -6.35L-4.35 -6.25L-4.55 -6.05L-4.7 -6Q-5.3 -5.6 -6.15 -5.55L-7 -5.25L-8.85 -5.15L-10.7 -5.05Q-12.15 -5.9 -10.8 -6.85L-10.4 -7.05L-11.1 -7.9L-11.25 -8.3L-11.45 -8.6Q-11.8 -9.15 -11.6 -9.55L-11.8 -9.6L-12.2 -9.8Q-13.35 -11 -13.4 -12.7L-13.1 -13.65Q-13.55 -13.85 -13.6 -14.3Q-13.65 -14.8 -13.35 -15.2L-12.9 -15.5L-12.7 -16.4L-12.3 -16.9L-12.35 -17.2L-12.3 -17.65L-11.8 -18.4Q-11.45 -18.65 -11.05 -18.85L-10.7 -18.85L-10.65 -18.85L-10.55 -18.95L-9.45 -19.55L-8.8 -19.65Q-8.15 -19.45 -7.75 -18.95L-7.1 -19.5L-5.9 -20Q-4.35 -20 -3.8 -18.7Q-3.25 -17.5 -3 -16.2L-3.1 -15.6L-3.1 -15.55L-2.8 -15.3Q-2.65 -15.95 -2.1 -16.4L-1 -16.95L-0.45 -16.95L-1.25 -17.75L-1.35 -18.4L-0.85 -19.5L-0.55 -19.7L0 -20.25L0.4 -20.35L1.65 -20.4L1.65 -20.45L1.8 -21.05L2 -21.35L2.5 -21.8L3.2 -22.1L4.45 -22L5.2 -21.6L5.3 -21.4Q6.3 -21.5 6.85 -20.7L7.15 -19.9Q7.45 -19.5 7.2 -18.8L6.55 -17.5L6.15 -16.95L6.15 -16.9L6.1 -16.6L5.95 -16.25L6 -16.2L6.3 -16L6.6 -15.6L6.8 -15.35L6.95 -15.35L7.25 -15.5L7.5 -15.55L7.7 -16.05L8.1 -16.75L8.4 -17L8.4 -17.15Q8.5 -17.85 9.1 -18.15L9.85 -18.45L9.7 -18.55L9.3 -18.6Q7.95 -18.85 8.3 -20.2Q8.55 -21.25 9.75 -21.35L10.1 -21.4Q11.3 -21.15 11.3 -20.3L11.4 -19.3L11.8 -19.4M10.75,-20.65Q10.6 -21.1 10.15 -21.05Q8.2 -20.95 8.8 -19.3Q8.9 -18.95 9.35 -18.95L9.8 -18.95L10.3 -19.1Q11.15 -19.45 10.75 -20.65M17.5,-12.75L18.15 -12.6L18.6 -12.35Q19 -11.45 18.3 -10.9Q16.95 -9.85 16 -11.25L15.9 -11.65Q15.95 -12.65 17 -12.75L17.5 -12.75M5.15,-21.1Q5 -21.1 4.85 -21.25L2.65 -21.3Q2 -20.8 1.9 -20L0.1 -19.9L-0.25 -19.65L-0.65 -19.1L-1 -18.35Q-1.1 -17.4 -0.1 -17.25Q0.5 -17.1 0.85 -17.55L2.35 -17.7L2.75 -18.05L2.8 -18.15Q2.85 -18.3 3 -18.25L3.05 -18.2L3.3 -18.35L4 -18.65Q4.55 -18.9 5.15 -18.65Q5.8 -18.35 6.25 -18.85Q7.35 -20 6 -20.8Q5.6 -21.05 5.15 -21.1M3.55,-15.7L3.8 -16.05L4.35 -16.4L4.55 -16.55L4.75 -16.6L5.4 -16.55L5.6 -16.5L5.7 -16.75L5.75 -16.85Q3.6 -16.85 1.8 -15.8L1.5 -15.8L-0.8 -16.5L-1.15 -16.45L-1.85 -16.1L-2.4 -15.05L-2.4 -14.85Q-2 -14.35 -2.25 -13.75L-2.6 -13.15L-2.55 -12.75L-1.75 -12.45Q-1.3 -12.15 -1.2 -11.7L-1.2 -11.1L-0.6 -10.75L-0.15 -10L-0.15 -9.35L0.15 -8.75L0.15 -7.8Q0.05 -7.3 0.5 -7L0.6 -6.85L0.65 -6.75L0.6 -6.75L0.6 -6.65L0.6 -6.6L0.7 -6.5L1.05 -6.45L1.05 -6.65L1.05 -6.9L1 -7.3L1.05 -7.55L1.95 -6.6Q2.65 -5.55 3.35 -6.5L3.6 -7.15L4.05 -7.05Q4.35 -6.55 4.95 -6.65L5.05 -6.7L5.15 -6.8L5.3 -6.9L5.4 -7.05L5.5 -7.15L5.45 -7.25L5.4 -7.35L5.35 -7.55L5.3 -7.65L5.35 -7.75L5.65 -8.25Q5.7 -8.75 5.3 -9.05L5.25 -9.05L5.2 -9.1L5.1 -9.15Q4.7 -9.35 5.05 -9.5L5.15 -9.45L5.15 -9.55Q5.3 -10 4.9 -10.3L4.85 -10.3L3.4 -10.45L3.15 -10.3L2.1 -10L1.75 -10L1.1 -9.35Q0.45 -9 0.15 -9.5L0.9 -10L1.3 -10.55L1.35 -10.65L1.35 -10.7L1.4 -10.7Q2.25 -10.25 2.65 -11.05L2.75 -11.35L2.55 -12.05Q2.5 -12.8 2.95 -13.45L3.25 -13.65L3.3 -13.65L3.4 -13.65L3.45 -13.55L3.5 -13.5L3.3 -12.65L3.3 -11.7L3.3 -11.65L3.55 -11.5L3.7 -11.45L3.65 -11.65L3.75 -11.8L4.35 -11.5L5.05 -11.3L5.45 -11.2L6.35 -12L6.6 -12.75Q6.15 -12.95 5.9 -13.45Q5.6 -14.05 6 -14.55L6.45 -15.15L6.15 -15.55Q5.9 -15.9 5.45 -15.95Q5.35 -16 5.35 -16Q4.75 -15.95 4.2 -15.55L3.95 -15.3L3.85 -15.2L3.5 -15.1L2.85 -14.6L2.75 -14.3L2.65 -13.65L2.55 -13.2L2.3 -13.25L1.95 -13.9L1.9 -14.15L2.1 -14.7L2.35 -15.15L2.35 -15.2L2.7 -15.45L3.5 -15.7L3.55 -15.7M9.15,-11.2Q7.85 -10.05 7.1 -11.4L5.7 -10.6L5.25 -10.5L5.55 -10.05L5.65 -9.4L6.15 -9L6.7 -8.4L6.8 -7.95L7.25 -7.7Q7.55 -7.4 7.95 -7.2Q9.1 -7.05 9.35 -8L9.35 -8.35Q10.3 -8.4 11.05 -9.05L11.6 -9.55L11.8 -10.15L11.75 -10.35L11.65 -11.1Q11.6 -11.75 10.95 -11.95L10.5 -12.2L9.55 -11.5L9.25 -11.25L9.15 -11.2M4.8,-4.55Q6.05 -4.05 5.3 -3L4.65 -2.1L4.35 -2.05Q3.55 -2.5 4.15 -3.35L4.8 -4.55M4.75,-3.45L4.4 -2.8L4.3 -2.4L4.4 -2.35L4.6 -2.4L4.85 -3.1L5.15 -3.8L5 -4.15L4.75 -3.45M0.65,-4.35L1.15 -4.95Q3 -5 2.7 -3.5L2.5 -3.25Q1.3 -2.55 0.65 -3.75Q0.5 -4.05 0.65 -4.35M7.8,-4.65L7.25 -4.35L6.95 -4.1L6.9 -4.05L6.9 -4L6.95 -4L6.95 -3.85L6.95 -3.75Q7.35 -3.4 7.9 -3.55L8.85 -4.35L8.85 -4.65L8.8 -4.7L8.45 -4.85L8.3 -4.8L7.8 -4.65M9.65,-4.8Q10.95 -4.65 11.95 -5.5L12.35 -5.7L13.1 -6.15L13.65 -6.55L14.8 -7.2Q15.75 -7.25 15.95 -6.35Q16.15 -5.45 15.65 -4.75L14.9 -4.25L14.5 -3.6Q13.65 -2.95 12.75 -3.15Q12.25 -2.65 11.4 -3.15L11.3 -3.2L7.5 -3.1L7.5 -3.15L7.5 -3.25L6.95 -3.3Q6.65 -3.35 6.6 -3.6L6.6 -4.4Q7.65 -5.45 9 -4.95L9.65 -4.8M17.8,-12.1L17 -12.35L16.7 -12.3L16.45 -12.15L16.35 -12L16.3 -11.7L16.3 -11.45Q16.35 -11.2 16.55 -11.05L16.65 -11Q17.55 -11.05 17.85 -11.75L17.8 -12.1M17.4,-7.4L17.05 -7.35L16.9 -7.1L17.2 -6.9L17.75 -7.05L18 -7.25L17.95 -7.35L17.8 -7.45L17.7 -7.5L17.4 -7.4M16.9,-7.55L17.5 -8Q18.95 -8 18.3 -7Q18.05 -6.65 17.6 -6.6Q16.25 -6.55 16.9 -7.55M15.45,-6.65L15.2 -6.8L15.1 -6.8Q13.9 -6.55 13.5 -5.45L13.55 -5.15L14.95 -5.1Q15.6 -5.65 15.55 -6.45L15.45 -6.65M19.9,-8.6L19.85 -8.4L19.7 -8.25L19.55 -8.05L19.45 -8L19.4 -7.85L19.4 -7.65L19.4 -7.45L19.6 -7.3Q20.75 -7.2 21.25 -8.15Q21.5 -8.65 21 -8.95L20.65 -9L20.4 -8.9L20.15 -8.75L19.9 -8.6M19.05,-7.9Q19.35 -9.1 20.55 -9.4L21.05 -9.35L21.55 -9.25L21.85 -9.1Q22.65 -7.9 21.5 -7.1Q20 -6.1 19.15 -7.4L19.05 -7.9M12.85,-5.5L12.85 -5.45L12.8 -5.4L12.8 -5.35L12.75 -5.3L12.45 -5.25Q11.95 -4.9 12.15 -4.25Q12.25 -3.75 12.7 -4Q13.6 -4.45 13.1 -5.5L12.95 -5.55L12.85 -5.5M-7.55,-18.7Q-7.25 -18.2 -7.25 -17.6L-7.45 -16.85Q-7 -16.25 -7 -15.4Q-7 -14.05 -8.25 -13.6L-8.4 -13.55L-8.55 -13.45Q-7.6 -13.15 -7.1 -12.25L-6.9 -11.75Q-6 -11.55 -5.6 -11L-5.1 -11.55Q-4.9 -11.9 -4.85 -12.3L-4.85 -12.6L-4.9 -12.65L-4.85 -12.7L-4.9 -12.75L-4.85 -12.8L-4.35 -13.65Q-4 -14 -4.25 -14.4L-4.6 -14.8L-4.45 -15.3Q-4.3 -15.55 -4.3 -15.8L-4.3 -15.85L-4.4 -15.9L-4.35 -16.25L-4.05 -16.9L-4.25 -17.85L-4.65 -18.25L-4.65 -18.5L-4.6 -18.5L-4.6 -18.55L-4.5 -18.55L-4.3 -18.55L-4.2 -18.5L-4.05 -18.5Q-4.15 -19.15 -4.75 -19.4Q-6.15 -20 -7.35 -18.9L-7.55 -18.7M-7.8,-18.35Q-8.4 -19.7 -9.65 -18.95Q-10.3 -18.55 -10.85 -18.3L-10.85 -18.45L-11.2 -18.3L-11.75 -17.9Q-12.1 -17.4 -11.9 -16.8L-11.9 -16.65L-12.25 -16.35L-12.5 -15.9L-12.35 -15.2L-11.7 -14.7Q-11.35 -13.2 -9.75 -13.5L-9.2 -13.6L-9.35 -13.7L-8.65 -13.85Q-7.65 -14.5 -8 -15.95L-8.25 -16.45L-8.65 -16.9L-8.7 -17.05L-8.65 -17.1Q-8.25 -17.2 -8 -17.5L-7.9 -17.7L-7.9 -18.2L-7.8 -18.35M-8.7,-12.85L-8.9 -12.75Q-9.5 -12.5 -10.15 -12.75L-11 -13.3L-11.85 -13.95L-12.05 -14.4L-12.65 -14.9L-12.85 -15.2L-13.25 -14.8Q-13.6 -14.25 -12.95 -14L-12.55 -13.75L-12.55 -13.65L-12.65 -13.5L-12.85 -13.4Q-13.2 -12.45 -12.9 -11.4Q-12.4 -9.9 -10.95 -9.9Q-10.35 -9.9 -10.15 -10.4L-9.9 -11.1L-9.85 -11.1L-9.7 -11.1L-9.65 -11.05L-9.65 -10.9L-9.6 -11L-9.5 -10.9L-9.5 -10.85L-9.5 -10.75L-9.5 -10.6L-9.55 -10.45L-9.5 -10.35Q-9.3 -10.1 -8.95 -10.15L-7.9 -10.85L-7.5 -11.5L-7.65 -11.85L-8.2 -12.5L-8.7 -12.85M-3.6,-17.1L-3.65 -16.65L-3.75 -16.2L-4 -15.9L-4 -15.7L-4.05 -15.25L-4.05 -15.1L-3.95 -15.2Q-3.55 -15.45 -3.35 -15.95Q-3.2 -16.45 -3.4 -17L-3.55 -17.25L-3.6 -17.1M-4.15,-14.95L-4.1 -14.9L-4.1 -15L-4.15 -14.95M-2.55,-12.55L-2.75 -11.75Q-3.15 -10.8 -3.7 -10L-4.35 -9.2Q-3.3 -8.65 -3.75 -7.3L-3.9 -6.95L-3.8 -7.1L-3.4 -7.35L-2.75 -7.55L-2.15 -7.4L-2.15 -7.45L-2.1 -7.45L-2.1 -7.5L-2.05 -7.5Q-0.5 -7.7 -0.5 -9L-0.55 -9.85Q-0.65 -10.5 -1.2 -10.9L-1.65 -11.6Q-1.75 -12.35 -2.55 -12.55M-11.35,-9.5Q-11.25 -8.75 -10.55 -8.25Q-9.5 -7.4 -8.15 -7.85L-7.95 -7.9Q-5.75 -7.95 -5.7 -9.9Q-5.7 -11.1 -6.85 -11.3L-7.1 -10.4L-7.55 -9.9L-8 -9.6Q-8.8 -9.1 -9.75 -9.05Q-10.6 -9.05 -11.05 -9.5L-11.35 -9.5M-18.35,-6.3L-18.45 -6L-18.2 -5.7Q-17.45 -5.4 -17 -6L-16.95 -6.15L-16.95 -6.2L-17.1 -6.4L-17.4 -6.6L-17.55 -6.6L-18 -6.55L-18.35 -6.3M-16.85,-6.9L-16.65 -6.65L-16.05 -6.7Q-15.7 -6.55 -15.8 -6.15Q-15.85 -5.55 -16.55 -5.65Q-17.05 -4.9 -17.9 -5.15Q-18.85 -5.45 -18.5 -6.25Q-18.25 -6.85 -17.65 -7L-17.25 -7L-16.85 -6.9M-16.1,-6.25L-16.2 -6.35L-16.35 -6.4L-16.4 -6.4L-16.45 -6.3L-16.5 -6.2L-16.5 -6.05L-16.3 -6.05L-16.1 -6.2L-16.1 -6.25M-10.65,-5.3L-10.1 -5.1L-10.1 -5.2L-10.1 -5.3L-9.45 -5.6L-9.35 -5.8L-9.35 -6.05L-9.55 -6.3Q-9.7 -6.25 -9.75 -6.4L-9.7 -6.45L-9.8 -6.5L-9.85 -6.7L-10.1 -6.85Q-10.6 -6.65 -10.9 -6.2Q-11.3 -5.65 -10.65 -5.3M-4.85,-8.65L-5.4 -7.75L-5.45 -7.6L-5.55 -7.35L-5.75 -6.75L-5.95 -6.15Q-5 -6.25 -4.45 -7.3Q-4.1 -7.9 -4.5 -8.5Q-4.6 -8.7 -4.85 -8.65M-3.3,-6.95L-3.5 -6.8L-3.55 -6.7L-3.55 -6.6L-3.55 -6.4L-3.6 -6.1L-3.65 -6L-3.6 -5.9L-3.45 -5.7L-3.2 -5.45L-3.05 -5.2L-2.7 -5.1L-2.25 -4.85L-2.15 -4.5L-1.6 -4.55L-1.6 -4.6L-1.5 -4.65Q-1.25 -4.9 -1.25 -5.25L-1.35 -5.75L-1.4 -5.8L-1.75 -5.85L-1.8 -5.9L-1.85 -6.15Q-1.75 -6.5 -1.95 -6.75Q-2.25 -7.1 -2.7 -7.15L-3 -7.1L-3.3 -6.95M-8.8,-6.45L-8.65 -6.2Q-8.4 -5.85 -8.55 -5.5L-7.35 -5.85L-7.25 -5.85Q-6.65 -6.3 -6.2 -7.05Q-6.8 -6.6 -7.75 -6.55L-8.25 -6.5L-8.8 -6.45M-6.7,-4.05L-6.45 -4.9Q-6.2 -5.3 -5.7 -5.25Q-3.8 -5.2 -4.25 -3.7Q-4.4 -3.25 -4.9 -3.3L-5.45 -3.25Q-6.65 -2.95 -6.7 -4.05M-8.7,-5.25L-8.75 -5.25L-8.7 -5.25M-1.6,-2.35Q-2 -1.95 -2.55 -2.15Q-3.65 -2.45 -2.9 -3.45L-2.05 -4Q-0.4 -3.5 -1.6 -2.35" />
</g>
</svg>
