<?xml version="1.0" encoding="utf-8"?>
<svg version="1.1" id="Layer_1"
xmlns="http://www.w3.org/2000/svg"
xmlns:xlink="http://www.w3.org/1999/xlink"
width="14px" height="17px"
xml:space="preserve">
<g id="570" transform="matrix(1, 0, 0, 1, 4, -4.65)">
<path style="fill:#1E1E1E;fill-opacity:1" d="M0.7,5.15Q0.25 5.3 -0.05 5.65L-0.45 6.7L-0.3 7.4L-0.2 7.4L0.05 7.4L0.5 6.9L1.4 6.25L1.7 5.8L1.8 5.55L1.6 5.35L0.85 5.05L0.7 5.15M2,5.65L1.9 6.15Q1.55 7.15 0.65 7.25L0.4 7.5L0.15 7.75Q-0.2 8.05 -0.5 7.6L-0.7 6.4L-0.3 5.5L-0.15 5.35L-0.15 5.2L-0.15 5.15L0 4.95Q0.3 4.7 0.7 4.7L0.7 4.65Q1.85 4.5 2 5.65M3,7.85L2.7 7.75Q2.55 7.75 2.4 7.9L2.15 8.2L2 8.35Q1.8 8.1 1.55 8.45L1.1 9.05Q0.85 9.3 0.85 9.7L0.85 9.75Q1.4 10.05 1.9 9.6L2.45 9.2L2.4 9.1L2.4 8.9L2.45 8.85L2.5 8.75L2.7 8.75L2.85 8.9Q3.3 9.05 3.55 8.7L3.9 8.35L3.7 8.1L3 7.85M1.95,12.35L1.85 12.45Q1.7 12.45 1.7 12.6L1.6 12.65L1.55 12.65L1.45 12.6Q0.85 12.95 0.7 13.85L0.45 15.7Q0.25 16.25 0.5 16.9Q1.8 17.05 2.7 15.8L2.85 15.15Q2.7 14.5 2.1 14.5L2.1 14.3L2.4 14.1L2.65 13.95L2.85 13.35L2.7 12.8Q2.5 12.3 2.1 12.3L1.95 12.35M0.6,10.2Q0.4 9.6 0.65 9.05Q1.55 7.35 3.1 7.25Q4.95 7.75 3.9 9.55Q3.65 10.1 3.1 10.05Q2.65 10.05 2.25 10.4Q1.15 11.4 0.6 10.2M3.15,12.1Q3.7 12.35 3.65 13.1L3.55 13.8Q4.65 15.8 2.85 16.85L2.25 17.25Q0.95 18.25 -0.35 17.7L-0.5 17.4Q-0.75 15.8 0.1 14.7L0.25 14.35Q0.45 12.1 2.3 11.8Q2.7 11.8 3.15 12.1M7.1,9.9L7.05 9.9L7.05 9.95L6.95 9.95L6.95 10.1L6.8 10.1L6.8 10.2L7.15 10.65L7.95 10.75L8.05 10.6L8.1 10.4L8.1 10.2L8.05 10.1L7.55 9.9L7.1 9.9M6.8,9.55Q6.95 9.45 7.05 9.4Q8.25 9.25 8.6 10.45Q8.7 10.95 8.25 11.1Q6.8 11.65 6.55 10.05Q6.55 9.7 6.8 9.55M9.1,16.9Q9.25 18.55 8.2 18.9L7.85 18.85Q7.55 18.4 7.8 18L7.55 17.2Q7.5 16.5 7.75 15.9L8.35 15.15Q9.15 15.2 9.05 16.35L9.1 16.9M8.25,15.9L8.2 16.35L8.15 16.7L8.05 16.7L7.95 16.65L7.8 16.85L7.8 17.05L7.8 17.2L8.15 17.7L8.15 18.25L8.05 18.45Q8.8 18.7 8.8 17.6L8.65 16.2L8.5 15.65L8.4 15.55L8.25 15.9M2.7,21L3.25 19.95L3 19.55L2.45 18.9L1.7 18.75Q0.45 19.25 0.45 20.65Q0.45 20.9 0.6 21L0.65 21.05L0.05 20.95L0 20.15Q0 19.8 0.15 19.6Q1.1 17.9 2.7 18.35L3.15 17.6L3.9 16.35Q4.1 15.9 4.5 15.85Q5.55 16.05 5.4 17.55Q5.3 18.85 4.7 19.8Q4.35 20.3 3.7 20.25L3.05 21.55L2.3 21.4L2.7 21M4.8,16.4L4.65 16.35L4.55 16.4Q4.1 16.55 4 17.2L3.7 18.2L3.45 18.75L3.55 18.9L3.7 19.05L3.7 19.3L3.7 19.4Q4.55 19.6 4.7 18.55L4.85 17.25L4.85 16.5L4.8 16.4M-0.95,12L-1 12L-1.55 12.6L-2.05 13.35L-2.15 14Q-1.4 14.7 -0.9 13.85L-0.75 13.45Q-0.6 12.95 -0.75 12.45L-0.75 12.1L-0.95 12M-0.45,11.75Q-0.15 13.2 -0.9 14.45Q-1.2 14.95 -1.75 14.7Q-2.55 14.5 -2.35 13.65Q-1.95 12.3 -1.05 11.5L-0.75 11.5L-0.5 11.65L-0.45 11.75M-3.75,17L-3.55 17.5L-2.9 17.9Q-2.75 17.9 -2.7 17.75L-2.55 17.1L-2.55 16.55L-2.75 15.85L-2.75 15.7L-3.15 16.2L-3.55 16.7L-3.75 17M-3.45,15.85L-2.7 15.05Q-1.2 16.35 -2.25 18.35L-2.45 18.45Q-3.35 18.6 -3.85 17.5Q-4.3 16.55 -3.45 15.85M-2,20.05L-2.4 19.8L-2.55 19.75L-2.55 19.8L-2.6 19.9L-2.75 19.8L-2.75 19.75L-3 19.75L-3.45 20.7L-3.7 20.7L-3.55 19.95L-3.2 19.4L-3.05 19.25Q-1.35 18.75 -0.85 20.45L-0.75 20.85L-1.55 20.75Q-1.55 20.25 -2 20.05" />
<path style="fill:#3A3A3A;fill-opacity:1" d="M0.85,5.05L1.6 5.35L1.8 5.55L1.7 5.8L1.4 6.25L0.5 6.9L0.05 7.4L-0.2 7.4L-0.3 7.4L-0.45 6.7L-0.05 5.65Q0.25 5.3 0.7 5.15L0.85 5.05M3.7,8.1L3.9 8.35L3.55 8.7Q3.3 9.05 2.85 8.9L2.7 8.75L2.5 8.75L2.45 8.85L2.4 8.9L2.4 9.1L2.45 9.2L1.9 9.6Q1.4 10.05 0.85 9.75L0.85 9.7Q0.85 9.3 1.1 9.05L1.55 8.45Q1.8 8.1 2 8.35L2.15 8.2L2.4 7.9Q2.55 7.75 2.7 7.75L3 7.85L3.7 8.1M2.1,12.3Q2.5 12.3 2.7 12.8L2.85 13.35L2.65 13.95L2.4 14.1L2.1 14.3L2.1 14.5Q2.7 14.5 2.85 15.15L2.7 15.8Q1.8 17.05 0.5 16.9Q0.25 16.25 0.45 15.7L0.7 13.85Q0.85 12.95 1.45 12.6L1.55 12.65L1.6 12.65L1.7 12.6Q1.7 12.45 1.85 12.45L1.95 12.35L2.1 12.3M7.55,9.9L8.05 10.1L8.1 10.2L8.1 10.4L8.05 10.6L7.95 10.75L7.15 10.65L6.8 10.2L6.8 10.1L6.95 10.1L6.95 9.95L7.05 9.95L7.05 9.9L7.1 9.9L7.55 9.9M8.4,15.55L8.5 15.65L8.65 16.2L8.8 17.6Q8.8 18.7 8.05 18.45L8.15 18.25L8.15 17.7L7.8 17.2L7.8 17.05L7.8 16.85L7.95 16.65L8.05 16.7L8.15 16.7L8.2 16.35L8.25 15.9L8.4 15.55M2.3,21.4L1.05 21.1L0.65 21.05L0.6 21Q0.45 20.9 0.45 20.65Q0.45 19.25 1.7 18.75L2.45 18.9L3 19.55L3.25 19.95L2.7 21L2.3 21.4M4.85,16.5L4.85 17.25L4.7 18.55Q4.55 19.6 3.7 19.4L3.7 19.3L3.7 19.05L3.55 18.9L3.45 18.75L3.7 18.2L4 17.2Q4.1 16.55 4.55 16.4L4.65 16.35L4.8 16.4L4.85 16.5M-0.75,12.1L-0.75 12.45Q-0.6 12.95 -0.75 13.45L-0.9 13.85Q-1.4 14.7 -2.15 14L-2.05 13.35L-1.55 12.6L-1 12L-0.95 12L-0.75 12.1M-3.55,16.7L-3.15 16.2L-2.75 15.7L-2.75 15.85L-2.55 16.55L-2.55 17.1L-2.7 17.75Q-2.75 17.9 -2.9 17.9L-3.55 17.5L-3.75 17L-3.55 16.7M-3.45,20.7L-3 19.75L-2.75 19.75L-2.75 19.8L-2.6 19.9L-2.55 19.8L-2.55 19.75L-2.4 19.8L-2 20.05Q-1.55 20.25 -1.55 20.75L-3.45 20.7" />
</g>
</svg>
