<?xml version="1.0" encoding="utf-8"?>
<svg version="1.1" id="Layer_1"
xmlns="http://www.w3.org/2000/svg"
xmlns:xlink="http://www.w3.org/1999/xlink"
width="68px" height="29px"
xml:space="preserve">
<g id="1227" transform="matrix(1, 0, 0, 1, 39.3, 12.55)">
<path style="fill:#C9EBFF;fill-opacity:0.988235" d="M11.55,-5.75L12.45 -4.45L13 -3.45Q13.15 -3.2 14.55 -2.45Q15.8 -1.75 15.8 -1.35L15.7 -0.95L13.9 -1.9Q12.95 -2.4 12.55 -3.2Q12.4 -3.45 12.4 -3.9L12.1 -4.55L11.35 -5.05Q10.85 -5.4 10.85 -5.7Q10.85 -6.75 13.65 -6.85Q16.5 -6.95 16.7 -5.35L17.35 -5.3L18.05 -4.7L19 -5.45Q19.9 -6.2 20.2 -6.2Q21.25 -6.2 22.1 -4.5L21.4 -3.45L22.8 -2.5Q23.7 -1.8 23.7 -1.15L23.5 -0.75L23.2 -0.35L24.6 -0.15L24.65 -0.05L24.75 -0.55L25.15 -1.5Q25.65 -2.2 26.25 -1.7L27.7 -0.7L27.75 -0.6Q27.75 -0.25 27.35 -0.25Q26.8 -0.25 26.25 -0.7L25.65 -1.35Q25.15 -0.95 25 -0.2Q24.9 0.6 24.6 0.85L24.5 0.65L24.55 0.4L23.9 0.45L22.7 0.25L23.45 0.75L23.45 1.05L23 1.1L21.95 0.4Q21.35 -0.25 21.3 -0.7L21.25 -0.8L19.45 -0.2L19.05 -0.25L19.05 -1.1L17.95 -1.35L16.6 -1.1L16.2 -0.8L16.1 -1.1L16.85 -1.8L19.3 -1.5L19.55 -0.95L19.65 -0.85L20.3 -1.15L21 -1.35L21.85 -0.55L22.5 0.05L22.45 -0.15L23.05 -1.2Q23.05 -1.75 21.95 -2.45L20.85 -3.35L21.5 -4.5L21.05 -5.2L20.3 -5.65Q19.9 -5.65 19.25 -4.95L18.2 -4.25Q17.9 -4.25 17.55 -4.55L17.2 -4.85L16.5 -4.9L16.05 -5.7Q15.65 -6.35 14.9 -6.35L11.7 -5.9L11.55 -5.75M22.4,2.9L23.2 3L23.5 3.25L23.85 2.95L23.95 3.2L23.45 4.3L22.75 5.4Q20.95 6.9 20.95 7.3L21.25 8.75Q21.2 10.9 20.05 10.9Q19.75 10.9 18.6 10.2L17.5 9.45L16.4 9.65L14.65 9.65Q14.2 9.5 14.15 9.05L14.1 8.45L13.55 8.05L13.1 7.65Q13.1 7.25 13.9 6.55L15.25 5.55L15.6 5.7L13.6 7.55Q14.35 7.75 14.45 8.3L14.65 9.15L16.15 9.15L17.25 8.95Q18.05 8.95 20 10.4L20.55 9.55L20.8 8.7L20.4 7.25L22.2 5.1L22.95 3.9L23.3 3.45L22.35 3.5Q22.05 3.5 21.8 3.15L21.6 2.75Q20.9 2.6 20.45 3.45Q19.9 4.4 19 4.4Q18.25 4.4 17.6 3.8L17 3.2Q16.9 3.2 16.85 3.3L16.65 3.4Q15.95 3.4 15.7 2.85L15.6 2.25L15.8 1Q16.05 0.2 16.4 -0.1L16.25 0.8L15.95 2.15L16.15 2.5L16.3 3L17 2.6L17.85 3.25Q18.7 3.9 19.4 3.9L20.25 2.8Q20.65 2.2 21.6 2.2L22.1 2.5L22.4 2.9M-30.6,-10.6Q-30.6 -11.3 -29.9 -11.7L-27.6 -12.55Q-26.45 -12.65 -25.85 -11.8L-25.65 -11.5L-25.4 -11.65L-24.55 -11.7Q-23.85 -11.6 -23.4 -11.1Q-23.05 -10.65 -22.5 -10.85L-21.5 -10.85L-21.05 -10.55L-23.05 -10.2L-23.75 -10.75L-24.55 -11.35L-25.5 -11.1L-25.45 -10.75L-25.7 -9.85Q-25.7 -9.4 -25 -8.7L-24 -8.6L-23.75 -8.2L-24 -7.95Q-25.3 -7.95 -25.85 -8.9L-26.15 -9.9L-25.95 -10.85L-26.2 -11.6Q-26.55 -12.15 -27.25 -12.15L-28.5 -11.85Q-29.7 -11.45 -30.25 -10.65L-30.1 -10.5L-29.6 -10.8L-28.85 -10.95L-28.65 -10.9Q-28.8 -10.75 -30.2 -10.1L-30.55 -10.2L-30.6 -10.6M-34.55,-7.8L-34.85 -7.6Q-35.4 -7.6 -35.6 -8.15L-35.65 -8.9L-37.3 -8.05L-38.45 -6.95Q-37.75 -6.7 -37.1 -6.05L-37.1 -5.9Q-37.15 -5.8 -37.3 -5.8Q-38.1 -5.8 -38.8 -6.85Q-38.8 -7.35 -37.55 -8.45Q-36.15 -9.7 -35.25 -9.3L-34.55 -7.8M-37.2,5.3L-37 6.25Q-37 6.65 -37.95 7.05Q-38.95 7.4 -38.95 7.7Q-38.95 8.25 -37.85 8.5L-37.8 8.55Q-37.9 8.8 -38.45 8.8Q-39.05 8.8 -39.3 7.8L-39 7.15Q-38.6 6.65 -37.65 6.6Q-37.25 6.45 -37.3 5.95L-37.2 5.3M-31.25,11.55Q-31.15 12.05 -31.5 12.4L-31.9 13Q-31.9 13.45 -31.3 14.2Q-30.65 15 -29.85 15.05L-29.85 14.9Q-29.8 14.9 -29.65 15.05L-29.4 14.8Q-29.2 14.5 -28.75 14.5L-29 15L-29.4 15.4L-29.3 15.5L-28.65 16.05L-27.2 16L-26.85 15.3L-26.15 14.65L-24.75 14.75Q-23.8 15 -23.65 15.25Q-23.7 15.4 -23.9 15.4L-25.65 14.95Q-26.3 14.95 -26.45 15.6Q-26.65 16.35 -27.1 16.4L-29.45 16L-29.85 15.45L-30.8 15.15L-31.8 14.45L-32.3 13.65L-32.35 13Q-32.35 12.35 -32.15 12.05Q-31.9 11.75 -31.25 11.55" />
</g>
</svg>
