<?xml version="1.0" encoding="utf-8"?>
<svg version="1.1" id="Layer_1"
xmlns="http://www.w3.org/2000/svg"
xmlns:xlink="http://www.w3.org/1999/xlink"
width="27px" height="19px"
xml:space="preserve">
<g id="608" transform="matrix(1, 0, 0, 1, 48.25, -7.15)">
<path style="fill:#000000;fill-opacity:0.498039" d="M-34.8,25.1L-44.2 24.6Q-48.25 24.1 -48.25 23.4Q-48.25 22.7 -44.2 22.2L-42.3 22L-34.8 21.7L-29.5 21.85L-25.3 22.2L-22.7 22.7Q-21.45 23 -21.45 23.4Q-21.45 24.1 -25.3 24.6L-34.8 25.1" />
<path style="fill:#000000;fill-opacity:1" d="M-37.75,19.05Q-36.6 19.3 -35.65 19.85L-33.6 21L-33.5 21L-33.4 20.95L-33.3 20.9L-33.1 21L-33.05 21.05L-32.7 21.05L-25 21.95L-24.9 21.85L-24.8 21.8L-24.8 21.7L-24.5 21.4L-24.4 21.35L-24.35 21.3L-24.35 21.25L-22.8 21.3L-22.6 21.45L-22.2 21.6Q-21.9 21.75 -21.9 22.05L-21.9 22.1L-22.15 22.4L-22.2 22.5L-22.55 23.2L-22.3 22.95L-23.1 24.2L-23.95 24.75L-24.15 24.85L-24.15 24.8L-24.4 24.8L-29.5 25.35Q-30.7 25.35 -31.7 24.95L-32.15 24.75L-34.75 24.4L-35.75 24.65Q-37.2 25.5 -38.95 24.95L-43.5 24.7Q-44.85 24.95 -45.5 24.35L-46.15 24.3L-46.45 23.9Q-47.15 23.3 -47.35 22.5Q-47.45 21.85 -47.2 21.3Q-46.4 19.55 -45.1 19.8L-42.1 20.35Q-40.45 20.65 -39.3 18.8L-37.75 19.05M-41.15,8.85L-41.15 9.45L-41.25 9.75L-41.2 9.8Q-41.05 10.05 -41.2 10.3Q-42 12.2 -44 12.8Q-45.25 13.15 -45.3 12Q-45.55 9.95 -43.45 8.65L-41.65 7.35L-41.25 7.15L-41.15 7.25L-41.15 7.35L-41.2 7.5L-41.35 7.75L-41.15 8.85" />
</g>
</svg>
