<?xml version="1.0" encoding="utf-8"?>
<svg version="1.1" id="Layer_1"
xmlns="http://www.w3.org/2000/svg"
xmlns:xlink="http://www.w3.org/1999/xlink"
width="24px" height="22px"
xml:space="preserve">
<g id="881" transform="matrix(1, 0, 0, 1, 5.15, -2.35)">
<path style="fill:#000000;fill-opacity:1" d="M2.25,2.8Q4.6 4.75 5.75 7.7L5.75 8.4L10.15 12.2L10 12.95L11.4 13.75Q13.25 14.7 15.25 15.5L16 15.9Q17.4 16.6 18.4 18.05L18.2 19.05L16.95 20.25L13.15 17.15L12.05 17.2L10.25 16.2L11.25 18.65L14.65 20L15.65 22.9L15.55 23.6L14.25 24.1L13.05 22.15L9.6 20.75L6.65 16.5L5.65 16.2Q4.3 15.5 3.45 14.4L3.05 15Q2.2 16.4 0.5 16.75L-2.35 17.4Q-2.75 17.9 -3.5 18.2L-4.75 18.05L-5.15 17.4L-5 16.5Q-4.4 15.8 -3.5 15.55L-1.85 15.1L0.3 14.65L1.45 12.95L2.25 12L-0.35 11.3L-1.35 9.3L-0.7 8Q0.3 6.6 1.9 7Q3.55 7.55 3.85 9.15L4.35 9.05Q3.2 6.35 1 4.45L-0.4 4.65L-0.85 3.9L-0.6 2.9L0.4 2.35L2.25 2.8" />
</g>
</svg>
