<?xml version="1.0" encoding="utf-8"?>
<svg version="1.1" id="Layer_1"
xmlns="http://www.w3.org/2000/svg"
xmlns:xlink="http://www.w3.org/1999/xlink"
width="19px" height="5px"
xml:space="preserve">
<g id="730" transform="matrix(1, 0, 0, 1, 13.45, -17.9)">
<path style="fill:#000000;fill-opacity:0.498039" d="M5.35,21Q5.35 21.75 3.25 22.3L-1.8 22.85L-6.75 22.3L-7.6 22.05L-8.5 22.1L-9.7 22L-10.85 22.1L-12.25 21.95L-12.7 21.75L-13.45 21.05L-13.45 20.9Q-13.45 20.4 -12.7 20.05L-10.85 19.65L-10.7 19.65L-10.95 19.3L-10.95 19.15Q-10.95 18.65 -10.2 18.3Q-9.4 17.9 -8.35 17.9L-7.15 18.05L-6.5 18.3L-6 18.6Q-5.65 18.85 -5.65 19.15L-5.7 19.5L-1.8 19.15L3.25 19.7Q5.35 20.25 5.35 21" />
</g>
</svg>
