<?xml version="1.0" encoding="utf-8"?>
<svg version="1.1" id="Layer_1"
xmlns="http://www.w3.org/2000/svg"
xmlns:xlink="http://www.w3.org/1999/xlink"
width="40px" height="4px"
xml:space="preserve">
<g id="723" transform="matrix(1, 0, 0, 1, 0, 0)">
<path style="fill:#000000;fill-opacity:0.498039" d="M38.3,2.15L37 2.2L35.2 1.9Q34.7 1.8 34.45 1.55L34.4 1.25Q34.4 1.05 34.7 0.9L35.2 0.7L37 0.45L38.8 0.8Q39.5 1.1 39.5 1.45L39.5 1.55L38.8 2L38.3 2.15M33.9,1.7Q33.9 2.45 28.95 3.05L17.05 3.7L4.95 3.25Q0 2.8 0 2.05Q0 1.3 4.95 0.65L17.05 0L28.95 0.45Q33.9 0.95 33.9 1.7" />
</g>
</svg>
