<?xml version="1.0" encoding="utf-8"?>
<svg version="1.1" id="Layer_1"
xmlns="http://www.w3.org/2000/svg"
xmlns:xlink="http://www.w3.org/1999/xlink"
width="17px" height="30px"
xml:space="preserve">
<g id="591" transform="matrix(1, 0, 0, 1, -1.2, 4.65)">
<path style="fill:#000000;fill-opacity:0.498039" d="M4.85,22.05L7.25 21.9L10.65 22.2L11.5 22.4Q13.3 22.9 13.3 23.6Q13.3 24.3 11.5 24.8L7.25 25.3L2.95 24.8Q1.2 24.3 1.2 23.6Q1.2 23.2 1.8 22.9Q2.2 22.6 2.95 22.4L4.85 22.05" />
<path style="fill:#000000;fill-opacity:1" d="M8.05,-3.9L8.5 -4.25L9.5 -4.65L10.55 -4.25L11.2 -3.35L11.85 -1.95L12.25 -1.55L13.6 -2.55L14.2 -2.45L14.55 -1.95L12.65 -0.75L12.35 -0.35L12.35 0.25L12.75 0.9L13.65 0.5Q14 0.1 14.65 -0.15L15.9 0L15.2 1.1L15.4 1.55L14.95 3.9L15.25 4.3L15.3 4.5L15.7 4.6L15.85 4.75L17.25 5.7Q17.55 6.1 17.45 6.5Q17.5 7.3 17.1 7.9L16.95 8.2L16.65 8.5L16.95 9.4L16.95 9.9L16.55 10.6L16.05 10.7L15.7 13.25L14.7 13.55L14.7 14.35Q14.55 14.65 15.05 14.5L15.4 15.55L16.25 17.15Q16.9 18.1 16.45 19L15.65 19.6L15.25 19.55L14.05 20.4L13.6 19.95L13.45 20.75L9.75 20.55L9.45 20.5L9.1 20.25L8.4 20L8.65 18.95L9.8 18.2L11.1 18.3L10.55 15.15L8.95 13.4L9.85 13.5L11.05 11.4L10.95 11.15L10 11.25L9.5 9.5L10.15 9.25L10.35 9L10.25 7.25L9.75 6.7L9.1 4.4L8.65 3.75L8.85 3.4L9.4 2.15L9.5 2.1L9.1 2.05L8.05 1.6L7.45 0.95L7.1 -0.1L6.6 -0.4L6.5 -1.15L6.65 -1.45L6.7 -2.15L8.05 -3.9M15.4,-0.05L15.5 0.1L15.5 -0.05L15.4 -0.05M13.55,0.95L12.95 1.05L14.25 2.9L14.5 1.2L15.25 0.6L15.15 0.1L13.55 0.95" />
</g>
</svg>
