<?xml version="1.0" encoding="utf-8"?>
<svg version="1.1" id="Layer_1"
xmlns="http://www.w3.org/2000/svg"
xmlns:xlink="http://www.w3.org/1999/xlink"
width="22px" height="20px"
xml:space="preserve">
<g id="546" transform="matrix(1, 0, 0, 1, 7.7, 22.6)">
<path style="fill:#000000;fill-opacity:1" d="M8.25,-9.4L7.8 -8.8L8.65 -7.55L8.55 -7.45L8.65 -7.35L8.4 -7.1L8.6 -6.75L9.3 -7.25L9.95 -7.65L9.95 -7.7L10.2 -7.75L10.45 -7.85L10.5 -7.7L10.5 -7.65L10.95 -7.5L12.2 -6.95L13.5 -6.35L13.95 -5.6Q13.95 -5.15 12.7 -4Q12.35 -3.6 11.65 -3.4L10.45 -3.25L8.9 -3.2L7.65 -3.4L7 -3.8L6.3 -3.65Q5.8 -3.65 5.25 -4.35L5 -4.35Q4.4 -4.35 3.35 -5.75L2.95 -5.7L2.75 -5.7L1.75 -6.95L1.75 -7L1.6 -6.95L0.7 -7.15L0.25 -7.4L0.05 -7.3L-0.15 -7.35L-0.15 -8.3L0.1 -10.65L0.5 -10.65L1.8 -10.8L1.95 -10.35L2 -10.4L2.1 -10.05L1.95 -9.95L1.8 -8.9L1.9 -9L2.3 -9.2L2.2 -9.9L2.45 -10.15Q2.1 -10.45 1.7 -11.2L2.3 -11.85L2.9 -12.25L3.25 -12.45Q3.7 -12.7 4 -12.15L4.35 -11.6L4.5 -11.65L5.1 -11.45L5.35 -11.3L5.4 -11.35L4.55 -12.1L5.3 -13.5Q5.85 -13.5 8.25 -11.65L7.75 -10.45L8.25 -9.4" />
<path style="fill:#626262;fill-opacity:0.694118" d="M1.35,-19.7Q0.75 -20 0.75 -20.25Q0.75 -21.3 2.2 -21.25Q3.65 -21.2 3.65 -20.25Q3.5 -19.4 2.45 -19.4L1.6 -19.55L1.6 -19.6L1.55 -19.6L1.35 -19.7M2.5,-19.05L3.45 -19.25L3.45 -19.2L4.05 -19.1L3.5 -18.6L2.95 -18.6L2.95 -18.7Q1.85 -18.8 1.65 -19.25L2.5 -19.05M4.05,-20.75L4.7 -19.8L4.5 -19.4L4.45 -19.4L4.25 -19.75L4.15 -19.35L4.05 -19.35L3.75 -19.45L3.65 -19.4L3.75 -19.55L4.05 -20.3L3.9 -20.7L4.05 -20.75M-3.3,-20.05L-3.6 -20.75L-3.55 -20.85L-3.45 -20.95L-3 -20.2L-2.15 -19.1L-2 -19.2L-2.3 -19.75L-1.8 -19.55Q-1.6 -19.55 -1.6 -19.9L-1.85 -20.6L-1.5 -20.65L-1.5 -21L-1.45 -21L-0.65 -19.65L0 -18.65L0.2 -18.3L0.7 -17.1L0.6 -17.15Q0.2 -17.7 -0.9 -18.1L-1.1 -17.75L-1.15 -17.75L-1.3 -18.05L-1.6 -18.35L-1.8 -18.2L-2.8 -19.35L-2.85 -19.45L-2.9 -19.45L-3.05 -19.65L-3.3 -20.05M1.25,-15.75L1.6 -15.75L1.8 -16L1.7 -16.35L1.9 -15.85L2.05 -15.85Q1.8 -15.65 1.8 -14.85L1.65 -14.85L1.4 -15.1L1.25 -15.05L1.3 -14.6L1.15 -14.65L0.35 -15.25Q-0.05 -15.5 -0.05 -15.95L0 -16.05L0.5 -15.7L0.7 -15.95L1.25 -15.75M-7.3,-18.9L-6.95 -19.15L-6.25 -19.15L-5.9 -18.95L-5.75 -19L-5.85 -18.55L-5.85 -18.4L-5.95 -18.35L-6.85 -18.65L-7.2 -18.55L-7.3 -18.6L-7.3 -18.9M-5.55,-18.5Q-5.55 -19.05 -4.9 -19.05L-5.15 -18.75Q-3.9 -18.3 -3.75 -17.95L-5.35 -17.95L-5.45 -18.15L-5.45 -18.25L-5.5 -18.4L-5.55 -18.5M-3.2,-15.2Q-4.25 -15.2 -4.25 -15.5Q-4.25 -16.3 -2.85 -15.4L-3.2 -15.2" />
<path style="fill:#232323;fill-opacity:0.705882" d="M1.55,-19.6L1.6 -19.6L1.6 -19.55L2.45 -19.4Q3.5 -19.4 3.65 -20.25Q3.65 -21.2 2.2 -21.25Q0.75 -21.3 0.75 -20.25Q0.75 -20 1.35 -19.7L1.55 -19.6M1.3,-19.4Q0.45 -19.8 0.45 -20.15Q0.4 -21.65 2.15 -21.65Q3.3 -21.65 3.8 -21L4.35 -20.8Q5 -20.35 5 -19.8Q5 -19.1 4.4 -19.05L4.2 -18.75Q3.9 -18.3 3.35 -18.3Q1.45 -18.3 1.45 -19.3L1.3 -19.4M1.65,-19.25Q1.85 -18.8 2.95 -18.7L2.95 -18.6L3.5 -18.6L4.05 -19.1L3.45 -19.2L3.45 -19.25L2.5 -19.05L1.65 -19.25M3.9,-20.7L4.05 -20.3L3.75 -19.55L3.65 -19.4L3.75 -19.45L4.05 -19.35L4.15 -19.35L4.25 -19.75L4.45 -19.4L4.5 -19.4L4.7 -19.8L4.05 -20.75L3.9 -20.7M-4.85,-22.55L-4.8 -22.6L-3.15 -20.65L-3 -20.8L-1.9 -19.85L-1.85 -19.9L-2.65 -21.55L-2.55 -21.65L-1.9 -21L-1.75 -20.95L-1.7 -21.3L-1.95 -21.65L-1.95 -21.9L-1.75 -21.95L-0.3 -19.6L-0.3 -19.65L0.95 -17.15L0.95 -16.75L0.75 -16.7L-0.8 -17.65L-0.95 -17.5L-1.1 -17.4Q-1.45 -17.4 -2.35 -18.5L-3.45 -20.05L-3.4 -20.1L-3.05 -19.65L-2.9 -19.45L-2.85 -19.45L-2.8 -19.35L-1.8 -18.2L-1.6 -18.35L-1.3 -18.05L-1.15 -17.75L-1.1 -17.75L-0.9 -18.1Q0.2 -17.7 0.6 -17.15L0.7 -17.1L0.2 -18.3L0 -18.65L-0.65 -19.65L-1.45 -21L-1.5 -21L-1.5 -20.65L-1.85 -20.6L-1.6 -19.9Q-1.6 -19.55 -1.8 -19.55L-2.3 -19.75L-2 -19.2L-2.15 -19.1L-3 -20.2L-3.45 -20.95L-3.55 -20.85L-4.85 -22.55M0.9,-17.75L1.8 -17L1.9 -16.5L2.15 -16.05L2.5 -15.45L2.45 -15.35L2.15 -15.35L2.3 -15.05L2.05 -14.5L1.95 -14.45L1.6 -14.55L1.55 -14.35Q1.55 -14.25 1.35 -14.25L0.85 -14.6L0.8 -14.45L0.7 -14.4Q0.5 -14.4 0.15 -15.15L-0.4 -16.3L0 -16.45L0.2 -16.3Q0.35 -16.15 0.5 -16.15L0.7 -16.25L1.25 -16.05L1.5 -16.05L1.5 -16.3Q1.2 -16.75 0.85 -17.7L0.9 -17.75M0.7,-15.95L0.5 -15.7L0 -16.05L-0.05 -15.95Q-0.05 -15.5 0.35 -15.25L1.15 -14.65L1.3 -14.6L1.25 -15.05L1.4 -15.1L1.65 -14.85L1.8 -14.85Q1.8 -15.65 2.05 -15.85L1.9 -15.85L1.7 -16.35L1.8 -16L1.6 -15.75L1.25 -15.75L0.7 -15.95M1.65,-16.45L1.7 -16.5L1.5 -16.8L1.65 -16.45M-7.3,-18.6L-7.2 -18.55L-6.85 -18.65L-5.95 -18.35L-5.85 -18.4L-5.85 -18.55L-5.75 -19L-5.9 -18.95L-6.25 -19.15L-6.95 -19.15L-7.3 -18.9L-7.3 -18.6M-5.5,-19.2L-4.65 -19.1Q-3.45 -18.7 -3.45 -18Q-3.45 -17.65 -3.6 -17.6L-4.4 -17.6Q-5.35 -17.6 -5.65 -17.9L-5.7 -17.95L-5.95 -17.95L-6.3 -18.1L-6.85 -18.25L-7.2 -18Q-7.7 -18 -7.7 -18.75Q-7.7 -19.45 -6.7 -19.55L-5.95 -19.5L-5.5 -19.2M-5.75,-19L-5.7 -19.05L-5.75 -19M-5.5,-18.4L-5.45 -18.25L-5.45 -18.15L-5.35 -17.95L-3.75 -17.95Q-3.9 -18.3 -5.15 -18.75L-4.9 -19.05Q-5.55 -19.05 -5.55 -18.5L-5.5 -18.4M-2.85,-15.85L-2.5 -15.4L-2.6 -15.15L-3 -14.9L-3.4 -14.9L-4.1 -15.1L-4.55 -15.45Q-4.55 -16.15 -3.9 -16.15L-2.85 -15.85M-2.85,-15.4Q-4.25 -16.3 -4.25 -15.5Q-4.25 -15.2 -3.2 -15.2L-2.85 -15.4" />
</g>
</svg>
