<?xml version="1.0" encoding="utf-8"?>
<svg version="1.1" id="Layer_1"
xmlns="http://www.w3.org/2000/svg"
xmlns:xlink="http://www.w3.org/1999/xlink"
width="17px" height="22px"
xml:space="preserve">
<g id="710" transform="matrix(1, 0, 0, 1, -6.05, 0.35)">
<path style="fill:#000000;fill-opacity:1" d="M21.9,6.85Q22.05 7.6 22.8 8L22.85 8.05L21.15 8.7L21.05 8.85Q19.95 10.8 17.75 11.75L17.7 11.8L17.7 12.25L18.35 16.1Q18.65 18.3 19.8 20.2L19.8 20.4Q17.95 21.25 16.1 21.25Q15.75 21.35 15.75 20.9Q15.8 19.5 16.7 18.25L16.85 17.4L16.35 14.5Q14.65 16.95 13.2 19.75Q12.9 20.4 12.1 20L9.9 19L10.05 18.75L9.65 18.25Q9.45 17.9 9.65 17.55L9.8 17.4L9.9 17.35L10.05 17.35L10.2 17.3L11.4 17.4L12.2 17.05L12.6 16.65L14.45 12.1L14.85 11.4L14.75 10.5L14.75 10.2L11.8 11.55Q9.1 12.8 6.3 13.7L6.1 13.4L6.05 13L6.05 12.75L6.65 12.35L7 12.25Q7.25 12.05 7.7 11.95L7.75 11.9Q10.05 10.6 12.6 9.45L14.9 8.4L15 7.95L14.9 7.85L14.15 7.05L13.9 6.8Q13.1 6.35 12.9 5.1Q12.85 4.7 12.95 4.25L13.75 1.8L13.65 1.5L13.5 0.45Q13.5 -0.2 14.1 -0.35Q16.1 -0.45 15.5 1.6L14.6 4.4L15.7 4.7L16.2 4.8L16.75 4Q16.15 3.6 16.1 2.7Q15.9 0.5 17.95 -0.35Q20.8 -0.2 20.3 2.6Q20 4.15 18.65 4.35L18.7 5.15L18.7 5.25Q19.45 5.5 20 5.9L20.05 5.85L21 5.6Q21.7 6.05 21.9 6.85M10.05,17.95L10 18L10.1 18.2L10.2 18.25L10.1 18.1L10.05 17.95" />
</g>
</svg>
