<?xml version="1.0" encoding="utf-8"?>
<svg version="1.1" id="Layer_1"
xmlns="http://www.w3.org/2000/svg"
xmlns:xlink="http://www.w3.org/1999/xlink"
width="11px" height="11px"
xml:space="preserve">
<g id="1037" transform="matrix(1, 0, 0, 1, 4.6, 6.4)">
<path style="fill:#FFFF00;fill-opacity:1" d="M2,-1.95L1.15 -1.4L1.15 -2.9L-0.1 -1.1L-1.95 -0.45L0.55 -0.45L1.8 0.2L1.4 -0.55L2 -1.95M2.3,-0.8L6.05 0.35L2.25 0.45L3.55 3.9L0.5 0.75L-1.6 3.25L-0.95 0.55L-4.6 0L-1.2 -2.15L-1.6 -5.85L0 -2.5L2.9 -6.4L2.15 -3L5.3 -3.25L2.3 -0.8" />
<path style="fill:#FFFFFF;fill-opacity:1" d="M1.4,-0.55L1.8 0.2L0.55 -0.45L-1.95 -0.45L-0.1 -1.1L1.15 -2.9L1.15 -1.4L2 -1.95L1.4 -0.55" />
</g>
</svg>
