<?xml version="1.0" encoding="utf-8"?>
<svg version="1.1" id="Layer_1"
xmlns="http://www.w3.org/2000/svg"
xmlns:xlink="http://www.w3.org/1999/xlink"
width="40px" height="34px"
xml:space="preserve">
<g id="1581" transform="matrix(1, 0, 0, 1, -4.45, -10.8)">
<path style="fill:#FF0100;fill-opacity:1" d="M44.1,19.4L44.15 19.45Q42.6 19.9 42.5 21.55L42.35 21.8Q42.05 20.5 43.15 19.65Q43.4 19.4 43.7 19.3L44.1 19.4M35.85,11.9L35.9 11.9Q34.35 12.2 33.95 10.8Q34.75 11.65 35.85 11.9M36.8,12.25Q37.1 11.85 37.7 11.95Q39.55 12.2 38.8 13.8L38.75 13.85L41.2 14.55Q39.45 14.85 38.55 13.7L38.5 13.4Q38.85 12.05 37.2 12.35L36.8 12.25M29.15,12.45Q28.6 11.9 28.85 11.45Q30.9 13.1 29.4 14.95Q30.25 13.55 29.15 12.45M22.9,21.2Q26.55 20.8 27.7 23.95L28.05 24.5L28.5 24.9Q27.4 24.95 27.2 23.55Q27.15 22.85 26.55 22.4Q24.55 21 22.15 21.5L22.2 21.4L22.3 21.35L22.45 21.3L22.8 21.2L22.9 21.2M32.25,22.8Q31.05 23.55 30.5 24.7Q31 22.9 32.95 21.6L33.1 21.35L32.45 20.45L32.45 20.35Q34.2 21.5 32.25 22.8M5.65,21.75Q4.35 23.25 5.1 25Q4.15 24.3 4.6 22.85Q5.05 21.4 6.35 20.7L5.65 21.75M19.7,28.25Q20.15 27.85 20.75 27.75L21 27.8L21.05 27.8Q19.8 28.6 19.1 29.9L18.95 30Q18.8 29.2 19.7 28.25M18.35,30.25Q18.5 31.7 19.05 33.2Q19.3 33.85 18.85 34.35Q18.15 35.15 17.35 35Q19.95 33.9 18.3 31.55Q18 31.05 18.15 30.55L18.35 30.25M6.1,26.25Q8.4 27.05 7.15 28.8L6.3 29.9Q6 30.3 6.55 30.55Q7.35 30.9 7.7 31.6Q5.95 31.15 6.1 29.7Q6.15 29.25 6.55 29Q8.2 27.8 6.5 26.85Q5.85 26.45 6.1 26.25M36.75,30L36.85 29.85Q37.45 31.5 36.25 33Q35.9 33.5 35.95 34.05L35.95 34.45Q35.15 33 36.5 31.5Q37.05 30.85 36.75 30M24.7,42.7L22.65 43.45Q21.15 43.65 20.1 44.25Q21.4 42.9 23.45 42.65L24.35 42.35L26 41.15Q25.85 42.05 24.7 42.7" />
</g>
</svg>
