<?xml version="1.0" encoding="utf-8"?>
<svg version="1.1" id="Layer_1"
xmlns="http://www.w3.org/2000/svg"
xmlns:xlink="http://www.w3.org/1999/xlink"
width="57px" height="27px"
xml:space="preserve">
<g id="436" transform="matrix(1, 0, 0, 1, -64.75, 10)">
<path style="fill:#0B0B0B;fill-opacity:0.8" d="M90,-5.55L92.6 -5.65Q93.5 -4.9 95.7 -3.85Q97 -3.25 97 -2.1Q97 -1.3 96.3 -0.7Q95.45 0.05 93.95 0.05Q92.3 0.05 90.2 -1.6L88.45 -3.15Q88.45 -4.35 90 -5.55M109.05,8.65Q110 9.3 110 9.7Q110 10.3 101.45 12.75L99.7 12.7Q98.95 12.35 98.6 11.5L98.1 10.25L96.55 9.15Q95.25 8.25 95.25 7.9Q95.25 7.55 96 7.05Q97 6.3 98.65 6.6L99.6 7.75Q100.1 8.45 102.6 8.45L107.1 7.95Q108 7.95 109.05 8.65M94.65,4.9Q92.65 6.5 89.4 6.5L88.7 6.9L88.2 7.2L88.25 7.3L89.75 10L91.6 12.6Q92.65 14 92.65 14.95L92.5 15.95Q92.2 16.35 90.9 16.35Q89.05 16.35 87.2 15.1L85.7 13.8Q85.7 13.55 86 13.05L86.25 12.4Q86.25 12 85.5 11.6L84.35 11Q81.9 10.95 81.55 10.3L81.5 9.1L78.95 9.4Q76.85 9.4 75.55 7.35Q74.65 5.95 74.65 5.15Q74.65 3.9 75.85 2.45Q77.2 0.8 78.95 0.8Q79.95 0.8 82.8 2.2L84.1 2.9L85.45 2.55L91.05 1.5Q94.8 0.55 95.85 1.1Q96.25 1.3 96.25 2.3Q96.25 3.6 94.65 4.9M71.1,6.9Q69.55 8.05 69.55 8.25L70.3 10L70.65 10.75L77.7 12.3L77.75 12.8Q77.75 13.5 77.4 13.75L74.65 14.15L72.3 13.7Q72.05 13.7 71.1 14.3Q70.15 14.85 69.35 14.85Q67.25 14.85 65.8 12.8Q64.75 11.3 64.75 10.6Q64.75 10.15 65.35 9.8L65.3 9.7Q67.15 6 69.95 4.3Q72.65 2.7 72.65 4.6Q72.65 5.75 71.1 6.9" />
<path style="fill:#0B0B0B;fill-opacity:0.6" d="M110.45,-9.7Q111.95 -8.9 113.6 -8.9Q114.25 -8.35 114.25 -6.95L114.15 -5.35Q113.4 -4.5 109.3 -4.5Q108.5 -4.5 108.3 -5.1L107.75 -6.25Q106.95 -6.75 106.7 -7Q106.3 -7.35 106.45 -7.75L105.3 -7.85L105.2 -8.25Q105.2 -8.7 108.15 -9.8L110.45 -9.7M117.15,3.5L117.45 3.55L117.3 3.45L117.15 3.5M120.7,4.75L120.3 5.05Q118 5.05 116.95 4.45Q116.35 4.1 116.35 3.75Q116.35 1.8 118.65 2.5Q120.95 3.2 120.95 4.2L120.7 4.75" />
</g>
</svg>
