<?xml version="1.0" encoding="utf-8"?>
<svg version="1.1" id="Layer_1"
xmlns="http://www.w3.org/2000/svg"
xmlns:xlink="http://www.w3.org/1999/xlink"
width="29px" height="5px"
xml:space="preserve">
<g id="714" transform="matrix(1, 0, 0, 1, -10.8, -17.2)">
<path style="fill:#000000;fill-opacity:0.498039" d="M27.55,18.8L27.45 18.45Q27.45 18.15 28 17.9L28.7 17.6L29.7 17.35L31.5 17.2L34.3 17.6Q35.45 17.95 35.45 18.45L35.45 18.6L35.1 18.95L35.35 18.95L38.15 19.35Q39.3 19.7 39.3 20.2L39.3 20.35Q39.1 20.75 38.15 21.05L37.45 21.25L35.35 21.4L33.6 21.3L31.75 21.4L30.4 21.35L29.1 21.6L21.6 22.15L13.95 21.6Q10.8 21.05 10.8 20.3Q10.8 19.55 13.95 19L21.6 18.45L27.55 18.8" />
</g>
</svg>
