<?xml version="1.0" encoding="utf-8"?>
<svg version="1.1" id="Layer_1"
xmlns="http://www.w3.org/2000/svg"
xmlns:xlink="http://www.w3.org/1999/xlink"
width="33px" height="8px"
xml:space="preserve">
<g id="769" transform="matrix(1, 0, 0, 1, 27.1, -14.15)">
<path style="fill:#000000;fill-opacity:1" d="M2.95,18.5Q4.35 19.45 5.3 20.7L5.3 20.8L-4.2 21.15L-20.2 20.55L-20.5 20.95L-20.55 20.8L-20.4 20.35L-20.15 19.95L-20.05 19.85L-20 19.75L-20.05 19.7L-20.05 19.65L-20.05 19.55L-20.05 19.5L-20.05 19.4L-20 19.25L-18.7 17.7L-17.35 16.85Q-16.05 16.1 -14.6 16.15L-14.1 16.1L-13.7 16.25L-12.7 16.5L-13.4 16.35L-13.15 16.45L-12 16.8Q-11.05 16.8 -10.75 17.15L-10.2 16.9Q-8.65 15.8 -6.8 15.6L-6.15 15.85L-5.15 14.9Q-4.3 14.2 -3.25 14.15L-3.2 14.2L-3.1 14.3L-3 14.6L-2.95 14.75L-2.95 14.8L-3.4 15.6L-4.4 16.8L-4.65 17Q-2.15 19.2 1.5 18.25Q2.3 18.05 2.95 18.5M-21.5,17L-21.5 17.1L-21.5 17.2L-21.6 17.2L-21.9 17.75L-21.95 17.8L-21.95 17.85L-22.5 18.55Q-23.5 19.45 -24.8 18.9L-24.85 18.8Q-25.2 17.7 -24.2 16.9Q-23.25 16.2 -22.05 16.35L-21.7 16.55L-21.5 16.85L-21.5 16.9L-21.5 17M-25.5,18.4L-26.15 18.85L-26.8 18.8L-27.1 18.6L-27.1 18.45L-27.1 17.95Q-27.1 17.65 -26.75 17.7L-26.7 17.75Q-26.45 17.45 -25.9 17.35L-25.85 17.35L-25.55 17.8L-25.4 18.1Q-25.3 18.35 -25.5 18.4" />
</g>
</svg>
