<?xml version="1.0" encoding="utf-8"?>
<svg version="1.1" id="Layer_1"
xmlns="http://www.w3.org/2000/svg"
xmlns:xlink="http://www.w3.org/1999/xlink"
width="108px" height="19px"
xml:space="preserve">
<g id="1716" transform="matrix(1, 0, 0, 1, -671.2, -71.35)">
<path style="fill:#B69789;fill-opacity:0.4" d="M766.2,90.05Q762.85 89.7 761.4 87.55Q759.3 84.45 758.7 80.95Q762.45 80.6 765.35 82.2Q768.35 83.7 769.2 90.25L766.2 90.05M763,77.75Q761.5 77.35 760.25 76.5Q764.35 71.2 767.6 71.35Q771.1 71.45 774.1 73.65Q771.7 76.45 768.45 78.1Q766.25 79.1 763 77.75M765.75,80.1Q771.95 77.6 774.65 79.2Q777.55 81.1 779.2 84.55Q775.75 85.8 772.1 85.45Q769.6 85.25 767.55 82.4L765.75 80.1" />
<path style="fill:#B69789;fill-opacity:0.4" d="M682.8,71.35Q686.05 71.2 690.15 76.5Q688.9 77.35 687.4 77.75Q684.15 79.1 681.95 78.1Q678.7 76.45 676.3 73.65Q679.3 71.45 682.8 71.35M685.05,82.2Q687.95 80.6 691.7 80.95Q691.1 84.45 689 87.55Q687.55 89.7 684.2 90.05L681.2 90.25Q682.05 83.7 685.05 82.2M671.2,84.55Q672.85 81.1 675.75 79.2Q678.45 77.6 684.65 80.1L682.85 82.4Q680.8 85.25 678.3 85.45Q674.65 85.8 671.2 84.55" />
</g>
</svg>
