<?xml version="1.0" encoding="utf-8"?>
<svg version="1.1" id="Layer_1"
xmlns="http://www.w3.org/2000/svg"
xmlns:xlink="http://www.w3.org/1999/xlink"
width="29px" height="4px"
xml:space="preserve">
<g id="586" transform="matrix(1, 0, 0, 1, 0, 0)">
<path style="fill:#000000;fill-opacity:0.498039" d="M25.35,0.3L26.25 0.5Q28.25 1 28.25 1.7Q28.25 2.4 26.25 2.9L21.7 3.4L17.05 2.9Q15.2 2.4 15.2 1.7Q15.2 1.3 15.75 1Q16.25 0.7 17.05 0.5L19.1 0.15L21.7 0L25.35 0.3M5.15,3.6L1.45 3.1Q0 2.6 0 1.9Q0 1.5 0.45 1.2L1.45 0.7L3.1 0.35L5.15 0.2L8.05 0.5L8.75 0.7Q10.35 1.2 10.35 1.9Q10.35 2.6 8.75 3.1L5.15 3.6" />
</g>
</svg>
