<?xml version="1.0" encoding="utf-8"?>
<svg version="1.1" id="Layer_1"
xmlns="http://www.w3.org/2000/svg"
xmlns:xlink="http://www.w3.org/1999/xlink"
width="37px" height="40px"
xml:space="preserve">
<g id="427" transform="matrix(1, 0, 0, 1, 4.1, 17.55)">
<path style="fill:#000000;fill-opacity:0.4" d="M13.5,-17.35L13.75 -17.3Q16 -14.75 13.6 -11.9Q10.7 -8.5 6.2 -9.85Q3.4 -10.65 0.8 -8.85L0.1 -8.75L0 -8.9L-0.35 -9.35L-1 -9.95L-1.2 -10.15L-1.2 -10.3Q-1.1 -10.9 -1.4 -11.45Q-1.8 -12.05 -1.7 -12.85L-1.7 -13.95Q-2.5 -17.7 2.5 -16.6L4.45 -16.2Q8.15 -15.5 11.4 -17.4L13.5 -17.35M9.9,-1.1L11.8 -1L13.4 -0.5Q13.85 -0.25 13.85 0.2L15.3 0.75Q16.85 1.4 18 2.6Q18.95 3.65 18.8 5.15L18.3 6.25L16.85 6.35L14.7 5.2Q13.9 4.75 13.25 4.1L13.25 4.05Q10.75 3.35 9.35 5.15Q7.95 7 6 6.5L5.75 6.4L5.8 6.55L5.95 6.65L6.15 6.75L6.3 6.9L6.4 7.05L6.4 8.3Q6.3 9.5 6.35 10.6Q6.45 11.8 6.15 13L5.75 13.8L5.2 13.95Q4 14.2 3.1 13.15L2.45 12.7L2.3 12.85L1.95 12.95L1.55 12.85L1.4 12.7L1.15 10.9L0.85 8.2Q0.55 6.35 1.5 4.95L1.75 4.75L2.85 4.9L3.85 5.1L4.15 4.85L4.25 4.8Q4.8 4.65 5.1 5.2L5.3 5.6L5.35 4.9Q5.55 3.6 6.25 2.45Q7.25 0.9 8.55 -0.35Q9.15 -0.95 9.9 -1.1M27.7,-6.2Q28.45 -6.15 28.65 -5.5L28.9 -4.95L28.95 -4.85L31.55 -4.1L32.65 -3.55L32.8 -2.7Q32.85 -1.85 32.55 -1.1Q32.1 -0.05 31.05 0.35L28.55 0.55L28.4 0.4L28.1 -0.15L27.5 -1.05L27.3 -1.3L27.25 -1.45L27.25 -1.75L23.65 -0.15Q20.75 1 21.65 -1.85Q22.15 -3.55 23.6 -4.65L24.15 -5.45L24.3 -5.6L24.9 -5.95L26.15 -6.3L27.7 -6.2M8.95,17.4L9.75 17.5L11.05 17.65L11.7 18.15L11.7 18.25L11.65 18.4L11.55 18.55L11.15 19L10.55 19.55L10.6 19.65L10.8 19.85L10.9 20L10.9 20.1L10.95 20.4L10.95 20.55Q10.75 21.1 10.15 21.05L6.5 20.25Q5.55 19.9 5.25 19.15L5.3 18.9L5.55 18.65L7.35 17.85L8.95 17.4M18.55,16.8L17.8 17.85Q18.3 18.75 17.5 19.4Q15.85 20.75 14.15 19.4Q14 18.9 14.15 18.3Q14.35 17.6 14.85 17Q15.35 16.55 15.4 15.85L15.35 15.75L15.25 15.6L15.05 15.3L15 15.15Q15.25 14.4 16.1 14.1L18.1 13.4L18.1 13.35L18.75 14.85Q18.95 15.85 18.55 16.8" />
<path style="fill:#000000;fill-opacity:0.4" d="M4.35,-9.2Q4.2 -8.9 3.8 -8.85Q-0.95 -8.45 -1.05 -12.25Q-1.05 -13.1 -0.2 -13.6L1.25 -14.1Q6.15 -13.4 4.35 -9.2M6.6,-13.8Q7.1 -17.05 10.4 -17.55Q16.8 -17 14.5 -11.3Q13.7 -9.45 11.55 -9.2Q5.75 -8.55 6.6 -13.8M29,-8.25Q32.2 -8.2 32.5 -5.2Q32.75 -2.2 29.75 -1.5Q27.6 -0.95 26.9 -2.55L26.8 -2.6L26.5 -2.35L26.25 -2.1L26.05 -1.85Q23.8 -1.35 23 -3.2Q21.55 -6.3 25.35 -5.9L26.4 -5.85L26.6 -6.15L27.05 -6.9L28.2 -7.85L29 -8.25M-4.1,10.55L-3.95 9.7Q-3.6 8.95 -2.85 8.65L-2.25 8.45Q-0.05 8.3 0.15 10.2Q0.3 11.55 -1.15 11.85Q-2.95 12.3 -4.05 11L-4.1 10.55M7.05,8.2Q4.1 4.45 8.35 1.75Q15.7 1.75 13.45 7.8Q12.4 10.5 9.4 9.75Q8 9.4 7.05 8.2M5.95,17L5.95 18Q7.6 19 6.7 20.55Q5.75 22.2 3.85 21.1Q2.5 20.35 1.05 19.9L0.45 18.6Q0.1 17.5 0.65 16.6Q1.25 15.7 2.35 15.7L2.6 15.45L2.95 15.2L4 14.85Q4.85 14.85 5.45 15.5Q6.05 16.1 5.95 17M13.25,12.8Q20 12.5 18.65 18.8Q17.95 22.2 14.45 21.2Q9.05 19.65 10.35 15.05Q10.95 13.1 13.25 12.8" />
</g>
</svg>
