<?xml version="1.0" encoding="utf-8"?>
<svg version="1.1" id="Layer_1"
xmlns="http://www.w3.org/2000/svg"
xmlns:xlink="http://www.w3.org/1999/xlink"
width="43px" height="34px"
xml:space="preserve">
<g id="1315" transform="matrix(1, 0, 0, 1, 21.95, 28.75)">
<path style="fill:#F8C601;fill-opacity:1" d="M4.65,-27.15L5.2 -28.75L5.15 -25L3.4 -21.5L4.35 -26.75L4.65 -27.15M1.05,-6.5L3.6 -3.15L3.85 -4.8L4.3 -5.8L5.1 -6.05L5.55 -2.25L8.6 -3.2L9.05 -3.5L8.55 -0.95L7.9 -0.35L7.2 0.1L5.15 0.05L4.5 0.65L4.4 0.6Q4 0.1 3.95 0.7L3.8 1.55L3.55 3.5Q3.45 4.6 2.95 5.2L1.3 1.65L0.4 2.75L-0.2 4.05L-1.6 1.55L-3.55 2.05L-4.9 2.7L-5.75 2.9L-6.45 2.6L-5.7 1.25L-6.95 1.1L-8.8 0.6Q-10 0.35 -10.55 -0.55L-4.25 -1.25L-5.85 -5.45L-5.35 -5.55L-4.6 -5.45L-2.75 -4.1L-1.4 -8.05Q-1 -8.25 -0.85 -8.6Q-0.45 -9.45 0.1 -8.8L0.3 -2.7L0.8 -3.9L0.8 -6.1L0.75 -6.2L1.05 -6.5M1.05,-0.95L0.3 0.25L-1.1 -6.15L-1.5 -1.5L-4.3 -3.9L-3.35 -0.8L-6.85 -0.15L-5 1.3L-5.4 2.1L-2.3 0.8L-1.2 0.85L-0.5 3.4L-0.15 2.5L0.65 1.6L1.55 1.05L3.25 3.55L3.3 0.95L3.65 0.1L4.85 0L5.2 -0.25L6.85 -0.6L7.5 -1.5L7.5 -2.3L4.8 -1.05L4.75 -3.15L2.6 -0.65L1.75 -3.3L1.4 -1.85L1.05 -0.95M17.75,-10.15L17.75 -11.6L16.65 -11.6L16.3 -10.15L17.75 -10.15M16.8,-9.35L15.4 -9.15L14.7 -9.9L16.65 -11.6L17.9 -12.85L20.35 -14.3L19.15 -10.95L16.8 -9.35M-21.95,-10.25L-17.2 -6.6L-20.85 -8.55L-21.95 -10.25M-17.8,-14.45L-19.45 -19.3L-16.9 -13.5L-17.8 -14.45M-13.9,-22.35L-10.15 -13.7L-14.15 -20.6L-13.9 -22.35" />
<path style="fill:#FFF193;fill-opacity:1" d="M1.4,-1.85L1.75 -3.3L2.6 -0.65L4.75 -3.15L4.8 -1.05L7.5 -2.3L7.5 -1.5L6.85 -0.6L5.2 -0.25L4.85 0L3.65 0.1L3.3 0.95L3.25 3.55L1.55 1.05L0.65 1.6L-0.15 2.5L-0.5 3.4L-1.2 0.85L-2.3 0.8L-5.4 2.1L-5 1.3L-6.85 -0.15L-3.35 -0.8L-4.3 -3.9L-1.5 -1.5L-1.1 -6.15L0.3 0.25L1.05 -0.95L1.4 -1.85M16.3,-10.15L16.65 -11.6L17.75 -11.6L17.75 -10.15L16.3 -10.15" />
</g>
</svg>
