<?xml version="1.0" encoding="utf-8"?>
<svg version="1.1" id="Layer_1"
xmlns="http://www.w3.org/2000/svg"
xmlns:xlink="http://www.w3.org/1999/xlink"
width="27px" height="50px"
xml:space="preserve">
<g id="1320" transform="matrix(1, 0, 0, 1, 0, 0)">
<path style="fill:#000000;fill-opacity:0.988235" d="M4.95,16.45L5.1 16.8L5.45 16.95L5.8 16.8L5.95 16.45L5.95 2.5L11.2 8.35L12.75 16.35L12.95 16.65L13.35 16.75L13.65 16.55L13.75 16.2Q12.85 10.65 11.8 6.6L13.3 2.15Q17.15 7.2 18.6 15.8L18.8 16.1L19.2 16.2L19.5 16L19.6 15.85L19.6 15.65L19.6 15.55L19.55 15.25Q18.05 6.85 14.3 1.8L16.8 0.85Q22.95 5.75 23.65 14.95L23.85 15.3L24.2 15.4L24.55 15.25L24.65 14.85Q23.9 5.6 17.9 0.45L19.1 0L20.4 1.2Q26.5 7.3 26.55 15.9L26.55 16L26.55 16.1L26.45 16.15L6.4 49.45L6.4 48.25L14.65 34.9L16.85 17.4L14.6 17.6L6.4 48.25L5.6 47.95L8.6 36.9Q5.7 39.4 1.1 37.25L0.65 35.55L4.15 30.5L2.35 27.95L2.15 26.25L4.65 29.8L13.1 17.7Q6.4 18.15 0 17.9L4.95 9.6L4.95 16.45M17.7,17.3L15.7 33.1L25.4 16.3L19.8 17.1L17.7 17.3M13.65,17.9L13.75 17.65L13.4 17.7L13.65 17.9M1.3,35.95Q4.75 38.85 7.95 35.95L4.65 31.2L1.3 35.95M8.85,35.9L13.55 18.4L5.1 30.5L8.85 35.9" />
<path style="fill:#3A281A;fill-opacity:1" d="M17.9,0.45Q23.9 5.6 24.65 14.85L24.55 15.25L24.2 15.4L23.85 15.3L23.65 14.95Q22.95 5.75 16.8 0.85L17.9 0.45" />
<path style="fill:#5F4129;fill-opacity:1" d="M19.6,15.85L19.5 16L19.2 16.2L18.8 16.1L18.6 15.8Q17.15 7.2 13.3 2.15L14.3 1.8Q18.05 6.85 19.55 15.25L19.6 15.55L19.6 15.85" />
<path style="fill:#724E31;fill-opacity:1" d="M11.8,6.6Q12.85 10.65 13.75 16.2L13.65 16.55L13.35 16.75L12.95 16.65L12.75 16.35L11.2 8.35L11.8 6.6" />
<path style="fill:#835938;fill-opacity:0.988235" d="M5.95,2.5L5.95 16.45L5.8 16.8L5.45 16.95L5.1 16.8L4.95 16.45L4.95 9.6L5.95 2.5" />
</g>
</svg>
