<?xml version="1.0" encoding="utf-8"?>
<svg version="1.1" id="Layer_1"
xmlns="http://www.w3.org/2000/svg"
xmlns:xlink="http://www.w3.org/1999/xlink"
width="88px" height="88px"
xml:space="preserve">
<g id="1666" transform="matrix(1, 0, 0, 1, 0, 0)">
<path style="fill:#F9DBC3;fill-opacity:1" d="M85.4,25.4L77.95 32.05Q79.15 35.55 79.65 39.35L87.35 41.2L87.35 49.6L79.45 51.6L79.15 51.6Q78.65 54.15 77.75 56.55L82.8 61.35L78.6 68.6L71.85 66.7L69.35 69.45L67.45 71.25L69.75 79.1L62.5 83.3L57 77.65Q54 78.8 50.75 79.4L50.75 79.8L48.7 87.2L40.3 87.2L38.35 80.25L38.35 79.6Q34.35 79.05 30.7 77.6L25.3 83.6L18.05 79.4L20.65 71.5L18.45 69.45L16.35 67.2L9.8 69.1L5.6 61.85L10.35 57.25Q9.25 54.55 8.65 51.65L8.35 51.65L0 49.65L0 41.25L7.9 39.25L8.2 39.25Q8.7 35.15 10.05 31.45L2.95 24.95L7.15 17.7L16.45 20.75L18.45 18.55L21.3 16L21.2 15.85L18.75 7.65L26.05 3.45L32.05 9.9Q35.15 8.85 38.5 8.4L40.1 0L48.5 0L50.7 8.6L55.85 9.95L62.25 2.8L69.5 7L66.6 16.05L69.35 18.55L71.8 21.25L81.2 18.15L85.4 25.4M48.3,18.65L48.3 28.75Q50.7 29.25 52.8 30.5L59.8 23.55Q54.65 19.55 48.3 18.65M50.2,38.7Q47.9 36.4 44.6 36.4Q41.35 36.4 39 38.7Q36.7 41 36.7 44.3Q36.7 47.6 39 49.9Q41.35 52.2 44.6 52.2Q47.9 52.2 50.2 49.9Q52.5 47.6 52.5 44.3Q52.5 41 50.2 38.7M60.35,41.6L70 41.6Q69.35 34.9 65.6 29.55L58.6 36.5Q59.9 38.85 60.35 41.6M28.8,23.5L36.2 30.9Q37.95 29.75 39.9 29.15L39.9 18.7Q33.75 19.7 28.8 23.5M22.95,29.55Q19.15 34.9 18.6 41.6L29.3 41.6Q29.6 39.25 30.6 37.2L22.95 29.55M37.2,57.9L29.6 65.5Q34.25 68.8 39.9 69.7L39.9 59.1Q38.5 58.6 37.2 57.9M31.2,52.1L30.2 50L19.05 50Q20.2 55.3 23.6 59.7L31.2 52.1M69.5,50L59.4 50L58 52.7L65 59.7Q68.35 55.3 69.5 50M48.3,59.45L48.3 69.8Q54.1 68.9 58.95 65.55L51.7 58.3Q50.1 59.05 48.3 59.45" />
</g>
</svg>
