<?xml version="1.0" encoding="utf-8"?>
<svg version="1.1" id="Layer_1"
xmlns="http://www.w3.org/2000/svg"
xmlns:xlink="http://www.w3.org/1999/xlink"
width="31px" height="30px"
xml:space="preserve">
<g id="1310" transform="matrix(1, 0, 0, 1, 11.85, 29.25)">
<path style="fill:#7E0000;fill-opacity:1" d="M14.05,-16.25Q14.6 -15.7 14.4 -14.85Q14 -13.35 12.85 -14.25L12.85 -14.35L12.85 -15.6Q12.95 -16.4 13.7 -16.45L14.05 -16.25M10.7,-16.95L10.8 -16.95Q11.8 -16.7 12.2 -15.8L12.25 -14.6L11.15 -14.3Q10.2 -14.25 10.15 -14.9Q10 -15.9 10.35 -16.75L10.45 -16.9L10.7 -16.95M4.5,-14.55Q4.6 -12.35 2.35 -13.05L2.25 -13.15L2.35 -14.9Q2.4 -15.9 3.35 -16.25L3.5 -16.2Q4.5 -15.65 4.5 -14.55M9.25,-10.15Q9.4 -9.55 9.05 -9.1L8.8 -9.05Q7.65 -9.25 7.6 -10.2Q7.45 -11.25 8.5 -11.7L8.9 -11.35L9.25 -10.15M9.3,-7.95L9.4 -7.95L9.5 -7.8L9.65 -7.4L9.65 -6.5Q9.75 -6 9.3 -5.75L9.1 -5.75Q8.75 -5.75 8.6 -6.05L8.7 -6.25L8.7 -6.3L8.35 -6.4L8.15 -6.55L8.15 -6.6Q7.95 -7.1 8.3 -7.5L9.1 -8L9.25 -8L9.3 -7.95M4.6,-4.45L4.75 -4.35L4.8 -3.55Q5.3 -2.75 4.7 -1.9L4.85 -1.45L5.05 -0.95L7.05 -0.55L7.2 -0.25L7.1 -0.05L7.05 0.05L2.55 -0.15Q2.6 0 2.45 0Q-1.05 0.3 -4.95 0.15L-5.1 -0.25Q-4.9 -0.9 -4.1 -0.8L-3.6 -1.2Q-2.25 -1.85 -0.95 -0.95L-0.95 -1.1L-0.9 -1.65L-0.65 -2L-0.45 -2.05L-0.05 -1.95L0.05 -1.9L0.05 -2L0.2 -2.6L0.45 -2.95L1 -2.85L1.15 -2.8L1.2 -3.1L1.15 -4.15Q1 -4.65 1.2 -5.15L1.35 -5.2L1.45 -5.25L1.65 -5.3Q2.05 -5.25 2.15 -4.9L2.25 -3.4L2.25 -1.7L3.3 -3.1Q3.6 -4.35 4.6 -4.45M16.6,-7.15L15.15 -7.25L14.5 -8L14.5 -8.05L14.85 -8.8Q15 -9.15 15.55 -9.1L16 -8.85L16.65 -7.8L16.6 -7.15M12.6,-6.6L11.9 -7.9Q11.6 -8.75 12.6 -8.8L13.1 -8.6Q13.7 -8.2 13.7 -7.65Q13.75 -6.65 12.6 -6.55L12.6 -6.6M13.9,-4.15L14.4 -4.2L15.15 -3.9Q15.95 -3.1 14.8 -3Q13.2 -2.8 13.15 -4.05L13.35 -4.1L13.9 -4.15M18.3,-2.2L18.15 -2.05Q17.35 -1.15 16.45 -1.95Q15.5 -2.95 16.8 -3.25Q17.55 -3.25 17.95 -2.75L18.3 -2.2M-6.8,-27.55Q-6.4 -26.5 -7.4 -26.2L-7.6 -26.3Q-8.7 -26.8 -9.3 -27.8Q-10.1 -29.05 -8.6 -29.25L-7.95 -29Q-7.15 -28.45 -6.8 -27.55M-1.4,-22.2Q-3.05 -22.45 -3.5 -24.15Q-4 -25.75 -2.55 -26.1Q-0.75 -24.85 -0.95 -22.55Q-1.05 -22.15 -1.4 -22.2M-7.15,-21.6Q-8.7 -21.7 -8.8 -23.25L-8.65 -23.3L-8.05 -23.45L-7.4 -23.55L-6.5 -22.5Q-5.95 -21.45 -7.15 -21.6M-11.3,-6.7L-11.3 -6.9L-11.25 -6.95L-11.25 -7.05L-11.05 -7.15L-10.85 -7.2L-10.7 -7.2Q-10.1 -7.1 -10 -6.5Q-9.95 -5.85 -10.55 -5.8Q-12.75 -5.45 -11.25 -6.55L-11.3 -6.7M-10.35,-3.05L-9.35 -2.4Q-9 -1.95 -9.1 -1.45Q-9.3 -0.1 -9.95 -1.2L-10.1 -1.2Q-10.85 -1.45 -11.05 -2.15Q-11.3 -2.95 -10.35 -3.05M-2.7,-6.85Q-2.05 -6.05 -1.95 -5.15Q-1.65 -3.8 -3.15 -4.35Q-3.3 -4.9 -3.7 -5.3L-4.2 -6.15Q-4.65 -7.2 -3.1 -7.05L-2.7 -6.85M-8.6,-5.55Q-9.7 -7.25 -7.95 -7.8Q-6.5 -7.1 -7.1 -5.55Q-7.6 -4.2 -8.6 -5.55" />
<path style="fill:#FFCBCB;fill-opacity:1" d="M13.85,-15.9L14.05 -15.7L14.05 -15.5L14 -15.35L13.7 -15.3L13.6 -15.35L13.55 -15.45L13.55 -15.65L13.7 -15.75L13.85 -15.9M11.15,-16.25L11.2 -16.2L11.3 -16.15L11.35 -16.15L11.4 -15.75L11.2 -15.45L11.1 -15.5L10.9 -15.85L10.9 -16.15L10.95 -16.2L11 -16.2L11.1 -16.25L11.15 -16.25M3.8,-15.65L4.1 -15.1Q4.1 -14.75 3.75 -14.6L3.7 -14.65L3.35 -15.2Q3.3 -15.6 3.7 -15.7L3.8 -15.65M8.35,-11L8.4 -10.7Q8.35 -10.4 8 -10.5L8 -10.55L8 -10.85L8.2 -11.05L8.35 -11M8.95,-7.8L9.1 -7.8L9.2 -7.75L9.3 -7.7L9.3 -7.55L9.4 -7L9.1 -6.7L8.95 -6.85L8.75 -7.3Q8.75 -7.5 8.9 -7.7L8.9 -7.75L8.95 -7.8M4.5,-4.25L4.6 -2.9L4.6 -2.85L4.45 -2.3Q4.25 -2.05 3.9 -1.95Q3.75 -2.05 3.9 -2.2L4.15 -3.1L4.25 -3.85Q4.1 -3.7 4.1 -3.85L4.15 -4.15L4.25 -4.25L4.3 -4.3L4.45 -4.3L4.5 -4.25M1.75,-4.85L2.2 -4Q2.25 -3.4 1.85 -3.15Q1.75 -3.15 1.75 -3.2L1.65 -4L1.55 -4.75L1.55 -4.8L1.65 -4.85L1.75 -4.85M0.6,-2.3L0.8 -1.95L0.55 -1.5Q0.45 -1.5 0.45 -1.55L0.25 -1.95L0.25 -2.2L0.25 -2.25L0.4 -2.3L0.45 -2.35L0.6 -2.3M5.95,-0.6L6.55 -0.45L6.85 -0.35L6.8 -0.2L6.65 -0.1Q5.95 0 5.55 -0.4L5.6 -0.55L5.8 -0.6L5.95 -0.6M16.05,-8.35Q16.15 -8.05 15.9 -7.95L15.8 -7.95L15.35 -8.35Q15.05 -8.6 15.5 -8.75L15.6 -8.65Q16 -8.75 16.05 -8.35M13,-8.55L13.15 -8.5L13.5 -8.05L13.5 -7.65L12.95 -7.7L12.65 -8.05L12.75 -8.1L12.8 -8.35L13 -8.55M14.95,-3.95L15 -3.75L15 -3.7L14.95 -3.65Q14.75 -3.45 14.6 -3.75Q14.45 -3.95 14.8 -4L14.95 -3.95M17.6,-2.45L17.55 -2.35Q17.2 -2.3 17.05 -2.55Q16.9 -2.85 17.35 -2.9L17.45 -2.85L17.65 -2.6L17.6 -2.45M-8.25,-28.75L-7.6 -28.25Q-7.4 -28 -7.55 -27.7L-7.7 -27.7Q-8.1 -27.75 -8.3 -28.05L-8.65 -28.6L-8.6 -28.7L-8.5 -28.75L-8.35 -28.8L-8.25 -28.75M-2.35,-25.4L-2.2 -25.4L-1.8 -24.75Q-1.65 -24.4 -1.85 -24.1L-2 -24.1Q-2.4 -24.2 -2.5 -24.65L-2.55 -25.3L-2.5 -25.3L-2.4 -25.4L-2.35 -25.4M-7,-22.85L-6.8 -22.4L-6.85 -22.3Q-7.2 -22 -7.6 -22.45Q-7.95 -22.85 -7.5 -23.1L-7 -22.85M-10.25,-6.75L-10.25 -6.65L-10.3 -6.6L-10.3 -6.55L-10.45 -6.55L-10.7 -6.7L-10.5 -6.95L-10.45 -6.95L-10.3 -6.85L-10.25 -6.75M-10.3,-2.65L-10.1 -2.75L-9.95 -2.65L-9.6 -2.35Q-9.5 -2.25 -9.55 -2.05L-10.25 -2.1L-10.45 -2.55L-10.35 -2.6L-10.3 -2.65M-3.15,-6.85L-3.05 -6.85L-2.6 -6.6L-2.35 -6.1L-2.2 -5.5L-2.25 -5.45Q-2.55 -5.35 -2.6 -5.6L-2.7 -5.75L-2.85 -5.8L-3.35 -6.3L-3.35 -6.7L-3.3 -6.75L-3.15 -6.85M-8.1,-7.25L-8.05 -7.3L-7.95 -7.3L-7.2 -6.85Q-7 -6.55 -7.2 -6.2Q-7.7 -6.15 -8.1 -6.6Q-8.35 -6.85 -8.25 -7.2L-8.1 -7.25M-2.75,-1.15L-2.4 -1.2L-1.6 -1L-1.3 -0.7Q-1.65 -0.4 -2.15 -0.55L-3.05 -0.75L-3.05 -0.85L-2.75 -1.15M-0.25,-1.75Q-0.1 -1.55 -0.1 -1.25L-0.1 -0.85L-0.15 -0.75L-0.45 -0.7L-0.45 -0.75L-0.55 -1.3Q-0.65 -1.7 -0.3 -1.8L-0.25 -1.75" />
</g>
</svg>
