<?xml version="1.0" encoding="utf-8"?>
<svg version="1.1" id="Layer_1"
xmlns="http://www.w3.org/2000/svg"
xmlns:xlink="http://www.w3.org/1999/xlink"
width="30px" height="4px"
xml:space="preserve">
<g id="747" transform="matrix(1, 0, 0, 1, -12.65, -18.5)">
<path style="fill:#000000;fill-opacity:0.498039" d="M42.15,19.4Q42.55 19.6 42.55 19.9L42.55 20L42.15 20.35L41.9 20.45L41.2 20.55L40.25 20.35L39.85 20.1L39.8 19.9L40 19.6L40.25 19.4L41.2 19.2L42.15 19.4M29,20.15L28.9 19.75Q28.9 19.45 29.2 19.2L29.6 18.9Q30.25 18.5 31.2 18.5Q32.15 18.5 32.8 18.9Q33.45 19.25 33.45 19.75L33.45 19.9L33.45 20L33.85 19.75L35.85 19.35Q37.05 19.35 37.85 19.75Q38.65 20.1 38.65 20.6L38.65 20.75L37.85 21.45L37.35 21.65L35.85 21.8L33.85 21.45L33.6 21.35L30.6 21.9L23.2 22.2L15.7 21.9Q12.65 21.6 12.65 21.15Q12.65 20.75 15.7 20.45L23.2 20.1L29.15 20.3L29 20.15M32.95,20.5L32.8 20.6L32.6 20.7L33 20.8L32.95 20.6L32.95 20.5" />
</g>
</svg>
