<?xml version="1.0" encoding="utf-8"?>
<svg version="1.1" id="Layer_1"
xmlns="http://www.w3.org/2000/svg"
xmlns:xlink="http://www.w3.org/1999/xlink"
width="14px" height="17px"
xml:space="preserve">
<g id="571" transform="matrix(1, 0, 0, 1, 3.95, -3.8)">
<path style="fill:#1E1E1E;fill-opacity:1" d="M1.55,4.2Q1.45 5 0.95 5.65Q-0.05 6.65 -0.5 5.4Q-0.75 5 -0.5 4.55Q-0.2 4 0.3 3.8L0.95 3.85L1.4 4.1L1.55 4.2M0.3,4.3L0.15 4.45L0 4.55L-0.15 4.85L-0.2 4.95L-0.3 4.95L-0.35 5.05L-0.35 5.2L-0.35 5.4L-0.3 5.65Q0.15 5.7 0.5 5.3L1.1 4.55L0.95 4.3Q0.65 4.1 0.3 4.3M4.3,7.5L4.1 8.05Q3.1 8.1 2 8.95L1.25 8.9Q0.4 8.1 1.35 7.25Q2.25 6.5 3.3 6.5L3.9 6.7L4.3 7.5M3.4,7.25L3.35 7.2L3.35 7.15L3.3 7.05L3.3 7L3.25 7L2.55 7.05Q2.15 7.15 1.9 7.4L1.7 7.7L1.7 7.85L1.7 8L1.7 8.05L1.7 8.25L1.7 8.35L1.6 8.4L2.1 8.25L2.8 7.75L3.4 7.35L3.4 7.25M1,12.35Q0.6 12.95 0.85 13.65Q1.3 13.3 1.85 13.2L2.45 13.15L2.55 12.95Q2.95 12.6 2.7 12.25L2.35 11.65Q1.55 11.5 1 12.35M2.8,11.15Q3.55 11.45 3.65 12.45Q3.7 13.2 3.15 13.6L3.4 14.1L3.4 14.5Q2.45 17.2 0.05 16.2Q-0.6 15.9 -0.3 15.15L0.45 13.95L0.65 13.8Q0.25 13.5 0.55 12.6Q0.85 11.65 1.7 11.25L2.8 11.15M7.95,8.9L7.5 8.9L7.35 8.9L7.15 8.95L6.95 9.05L7.15 9.2L7.95 9.25L8.1 9.1L8.05 9.05L8.05 8.95L7.95 8.9M7.1,8.4Q8.35 8.05 8.35 9.3L8.1 9.7Q6.95 10.05 6.75 8.9L6.85 8.55L7.1 8.4M8.6,14.65L8.4 15.2L8.25 15.85L8.35 16.2L8.5 16.2L8.6 16.25L8.65 16.25L8.8 16.2L8.85 16.05L8.85 15.5L8.8 15L8.6 14.65M9.2,14.8L9.2 15.5Q9.25 17.25 8.1 16.2Q7.8 16 7.8 15.55Q7.95 14.2 8.6 13.3Q9.1 13.8 9.2 14.8M4.55,15.4L4.5 15.5L4.5 15.55L4.65 15.65L4.7 15.8L4.7 15.85L4.3 16.15L4.1 16.65L4.1 17.2L4.1 17.25L4.3 17.35L4.45 17.5L4.95 16.85L4.95 16L4.65 15.4L4.55 15.4M2.8,13.8L2.3 13.7L1.9 13.7L1.7 13.8L1.5 13.8L1.35 13.95Q0.85 14.2 0.3 14.8Q-0.55 15.65 0.5 16Q1.85 16.35 2.5 15.15L3.1 14.1L2.8 13.8M0.85,18.25L0.85 18.45L0.85 18.6L0.7 18.7L0.6 18.75L0.55 18.75L0.55 18.95L0.6 19.25L0.6 19.6L0.65 19.95L1.3 20.1Q1.25 19.75 1.5 19.7L2.4 19.2L2.35 18.9L2.15 18.6L1.9 18.2L1.95 18.1L1.95 18.05L1.25 18.05L1.1 18.1L1 18.2L0.85 18.25M2.3,17.7L2.35 17.6L2.55 17.85Q3.25 18.25 3.1 19.6Q3.1 20.4 2.35 20.6Q0.85 20.95 0.1 19.7Q-0.15 19.25 0 18.85Q0.4 17.6 1.5 17.55L2.3 17.7M3.55,16.7Q3.8 15.55 4.55 14.95Q5.7 15.3 5.3 16.9Q4.95 18.75 3.8 17.7Q3.4 17.35 3.55 16.7M-1.55,10.75Q-0.5 10.6 -0.6 11.75Q-0.75 12.75 -1.2 13.35Q-1.5 13.8 -1.95 13.65L-2.15 13.1L-2.35 11.8Q-2.3 11.1 -1.75 10.8L-1.55 10.75M-1.95,11.45L-1.95 11.75L-2 12.35L-1.9 13.1L-1.85 13.15Q-1.5 13.15 -1.35 12.8L-1 11.95L-0.95 11.5L-1 11.45L-1.05 11.4L-1.5 11.3L-1.7 11.4L-1.9 11.4L-1.95 11.45M-3.25,15.15L-3.35 15.7Q-3.35 16 -3.6 15.9L-3.6 16.15L-3.55 16.35L-3.45 16.4Q-2.75 16.85 -2.6 15.85Q-2.55 15.3 -2.85 14.8L-3.05 14.55L-3.25 15.15M-3.15,13.8Q-1.55 14.65 -2.25 16.7Q-2.55 17.75 -3.35 17Q-4.3 16.05 -3.7 14.55L-3.55 14.2L-3.15 13.8M-2.4,20.55Q-2.05 20.15 -2.3 19.75L-2.35 19.6L-2.55 19.55L-3 19.45L-3.25 19.6L-3.45 19.75L-3.6 20.05L-3.55 20.05L-3.4 19.95L-3.3 19.95L-3.35 20.15L-3.4 20.4L-3.35 20.65L-3.35 20.7L-3.8 20.7L-3.8 20.65L-3.85 19.8Q-3.6 19.2 -3.05 18.95Q-1.4 19.05 -1.75 20.65L-1.75 20.75L-2.55 20.7L-2.4 20.55" />
<path style="fill:#3A3A3A;fill-opacity:1" d="M0.95,4.3L1.1 4.55L0.5 5.3Q0.15 5.7 -0.3 5.65L-0.35 5.4L-0.35 5.2L-0.35 5.05L-0.3 4.95L-0.2 4.95L-0.15 4.85L0 4.55L0.15 4.45L0.3 4.3Q0.65 4.1 0.95 4.3M3.4,7.35L2.8 7.75L2.1 8.25L1.6 8.4L1.7 8.35L1.7 8.25L1.7 8.05L1.7 8L1.7 7.85L1.7 7.7L1.9 7.4Q2.15 7.15 2.55 7.05L3.25 7L3.3 7L3.3 7.05L3.35 7.15L3.35 7.2L3.4 7.25L3.4 7.35M2.35,11.65L2.7 12.25Q2.95 12.6 2.55 12.95L2.45 13.15L1.85 13.2Q1.3 13.3 0.85 13.65Q0.6 12.95 1 12.35Q1.55 11.5 2.35 11.65M8.05,8.95L8.05 9.05L8.1 9.1L7.95 9.25L7.15 9.2L6.95 9.05L7.15 8.95L7.35 8.9L7.5 8.9L7.95 8.9L8.05 8.95M8.8,15L8.85 15.5L8.85 16.05L8.8 16.2L8.65 16.25L8.6 16.25L8.5 16.2L8.35 16.2L8.25 15.85L8.4 15.2L8.6 14.65L8.8 15M4.65,15.4L4.95 16L4.95 16.85L4.45 17.5L4.3 17.35L4.1 17.25L4.1 17.2L4.1 16.65L4.3 16.15L4.7 15.85L4.7 15.8L4.65 15.65L4.5 15.55L4.5 15.5L4.55 15.4L4.65 15.4M3.1,14.1L2.5 15.15Q1.85 16.35 0.5 16Q-0.55 15.65 0.3 14.8Q0.85 14.2 1.35 13.95L1.5 13.8L1.7 13.8L1.9 13.7L2.3 13.7L2.8 13.8L3.1 14.1M1,18.2L1.1 18.1L1.25 18.05L1.95 18.05L1.95 18.1L1.9 18.2L2.15 18.6L2.35 18.9L2.4 19.2L1.5 19.7Q1.25 19.75 1.3 20.1L0.65 19.95L0.6 19.6L0.6 19.25L0.55 18.95L0.55 18.75L0.6 18.75L0.7 18.7L0.85 18.6L0.85 18.45L0.85 18.25L1 18.2M-1.9,11.4L-1.7 11.4L-1.5 11.3L-1.05 11.4L-1 11.45L-0.95 11.5L-1 11.95L-1.35 12.8Q-1.5 13.15 -1.85 13.15L-1.9 13.1L-2 12.35L-1.95 11.75L-1.95 11.45L-1.9 11.4M-3.05,14.55L-2.85 14.8Q-2.55 15.3 -2.6 15.85Q-2.75 16.85 -3.45 16.4L-3.55 16.35L-3.6 16.15L-3.6 15.9Q-3.35 16 -3.35 15.7L-3.25 15.15L-3.05 14.55M-3.35,20.7L-3.35 20.65L-3.4 20.4L-3.35 20.15L-3.3 19.95L-3.4 19.95L-3.55 20.05L-3.6 20.05L-3.45 19.75L-3.25 19.6L-3 19.45L-2.55 19.55L-2.35 19.6L-2.3 19.75Q-2.05 20.15 -2.4 20.55L-2.55 20.7L-3.35 20.7" />
</g>
</svg>
