<?xml version="1.0" encoding="utf-8"?>
<svg version="1.1" id="Layer_1"
xmlns="http://www.w3.org/2000/svg"
xmlns:xlink="http://www.w3.org/1999/xlink"
width="17px" height="22px"
xml:space="preserve">
<g id="726" transform="matrix(1, 0, 0, 1, 2.4, 0.35)">
<path style="fill:#000000;fill-opacity:1" d="M12.75,11.95L13.45 12.25L13.8 12.35L14.4 12.75L14.4 13L14.35 13.4L14.15 13.7Q11.35 12.8 8.65 11.55L5.7 10.2L5.7 10.5L5.6 11.4L6 12.1L7.85 16.65L8.25 17.05L9.05 17.4L10.25 17.3L10.4 17.35L10.55 17.35L10.65 17.4L10.8 17.55Q11 17.9 10.8 18.25L10.4 18.75L10.55 19L8.35 20Q7.55 20.4 7.25 19.75Q5.8 16.95 4.1 14.5L3.6 17.4Q3.55 17.9 3.75 18.25Q4.65 19.5 4.7 20.9Q4.7 21.35 4.35 21.25Q2.5 21.25 0.65 20.4L0.65 20.2Q1.8 18.3 2.1 16.1Q2.35 14.1 2.75 12.25L2.75 11.8L2.7 11.75Q0.5 10.8 -0.6 8.85L-0.7 8.7L-2.4 8.05L-2.35 8Q-1.6 7.6 -1.45 6.85Q-1.25 6.05 -0.55 5.6L0.4 5.85L0.45 5.9Q1 5.5 1.75 5.25L1.75 5.15L1.8 4.35Q0.45 4.15 0.15 2.6Q-0.35 -0.2 2.5 -0.35Q4.55 0.5 4.35 2.7Q4.3 3.6 3.7 4L4.25 4.8L4.75 4.7L5.85 4.4L4.95 1.6Q4.35 -0.45 6.35 -0.35Q6.95 -0.2 6.95 0.45L6.8 1.5L6.7 1.8L7.5 4.25L7.55 5.1Q7.35 6.35 6.55 6.8L6.3 7.05L5.55 7.85L5.45 7.95L5.55 8.4L7.85 9.45Q10.4 10.6 12.7 11.9L12.75 11.95M10.4,17.95L10.35 18.1L10.25 18.25L10.35 18.2L10.45 18L10.4 17.95" />
</g>
</svg>
