<?xml version="1.0" encoding="utf-8"?>
<svg version="1.1" id="Layer_1"
xmlns="http://www.w3.org/2000/svg"
xmlns:xlink="http://www.w3.org/1999/xlink"
width="36px" height="27px"
xml:space="preserve">
<g id="525" transform="matrix(1, 0, 0, 1, 3.9, 25.55)">
<path style="fill:#000000;fill-opacity:0.25098" d="M30.15,-25.55Q31.1 -25.5 31.8 -24.9L31.9 -24.8Q31.8 -23.7 30.55 -23.45Q28.2 -23 27.4 -24.7Q27.25 -25.05 27.65 -25.25L28.4 -25.55L30.15 -25.55" />
<path style="fill:#000000;fill-opacity:1" d="M5.95,-7.5L10.6 -6L10.6 -5.25L9.35 -2.7L8 -2.45L7.65 -1.8L7.65 -1.75L7.55 -1.7L7.35 -1.7L7.25 -1.35L6 0.2Q5.25 1.15 4.05 1.45L2.45 0.95L1.6 0.55Q1.25 0.15 0.85 0L-0.7 -1.2L-2.15 -2.55Q-2.65 -3 -2.75 -3.7L-2.8 -4.15L-3.05 -4.65L-3.25 -4.65L-3.25 -4.95L-3.9 -6.2L-3.55 -7.1L-2.4 -7.2L-2.2 -7.5L0.05 -7.1L0.75 -5.6L0.95 -5.25L1.35 -5.35L3.3 -3.85L3.7 -4.45L4 -6.2L4.75 -7.6L5.15 -7.45L5.95 -7.5" />
</g>
</svg>
