<?xml version="1.0" encoding="utf-8"?>
<svg version="1.1" id="Layer_1"
xmlns="http://www.w3.org/2000/svg"
xmlns:xlink="http://www.w3.org/1999/xlink"
width="12px" height="13px"
xml:space="preserve">
<g id="528" transform="matrix(1, 0, 0, 1, -1.55, 0.7)">
<path style="fill:#000000;fill-opacity:1" d="M6.7,-0.6L8.8 -0.7Q10.1 -0.7 11.2 -0.05L10.7 2.55L10.35 2.95L10.25 5.6L10.4 5.65Q10.85 5.95 10.55 6.45L13.2 9.35L11.7 11.5L7.45 11.4L7.25 10.25L1.95 10.6L2.7 7.95L3.2 7.6L2.2 5.7L1.55 2.5L2.65 3.05L5.6 -0.1Q5.9 -0.85 6.7 -0.6M7.95,9.2L8 9.2Q8.3 8.5 7.7 8.45L7.95 9.2" />
</g>
</svg>
