<?xml version="1.0" encoding="utf-8"?>
<svg version="1.1" id="Layer_1"
xmlns="http://www.w3.org/2000/svg"
xmlns:xlink="http://www.w3.org/1999/xlink"
width="19px" height="15px"
xml:space="preserve">
<g id="1070" transform="matrix(1, 0, 0, 1, 7.35, 13.5)">
<path style="fill:#FFCC00;fill-opacity:1" d="M4,-7.1L4.8 -8.75L5.25 -9.9L6.05 -11.75L5.9 -12.3L4.5 -10.3L3.35 -9.1L2 -8.15L1.15 -8.4L0.5 -8.2L-0.5 -9.65L-0.5 -7.4L-1.1 -8.1L-1.3 -8.1L-1.3 -7.5L-1.95 -6.55L-2.25 -5.8L-3.8 -6.2L-2.5 -6.35L-1.6 -7.65L-1.45 -7.85L-1.6 -8.4L-1.5 -8.5L-0.85 -8.6L-0.7 -10.85L-0.05 -10.1L-0.05 -10.05L0 -10L0.55 -8.75L1.9 -8.4L2.95 -9.05L4.15 -10.25L6.6 -13.5L6.6 -13.45Q6.6 -11.85 5.95 -10.6L5.5 -9.75L5.45 -9.8L5.45 -9.75L4.65 -7.95Q4.8 -7.4 5.5 -6.9L4 -7.1M2.9,-0.15L3.1 -0.15L3.15 -0.15L7.35 -0.4L7.65 -0.35L8 -0.45L9.7 -0.55L7.6 -1.25L7.6 -2.05L7.1 -2.9L7 -3.25L6.6 -4.15L7.1 -4.95L7 -5L6.3 -4.65L5.95 -6.6L6.4 -5.9L6.55 -5.2L7.6 -5.35L7.65 -5.3L7.65 -5.25L7.2 -4.55L7.2 -3.95L7.3 -3L8 -1.95L7.85 -1.35Q9.1 -0.85 10.2 -0.8L10.95 -0.45Q10.15 0 9.05 0L6.15 0.05L4 0.2L3.95 0.4L3.7 0.45L2.25 0.35L0.7 0.55L0.6 0.55L-1.4 0.6L-1.8 0.5L-1.95 0.45L-2.55 -0.1L-4.6 0.7L-4.95 0.75L-5.9 0.55L-5.25 0.1L-4.85 -0.1L-7 -0.3L-6.95 -0.55L-5.9 -1.25L-5.45 -1.6L-5.35 -2.65L-7.1 -3.5L-7.15 -3.55L-7.15 -3.5L-7.35 -3.9L-5 -3.95L-4.95 -5.15L-4.75 -5.95L-3.9 -6.15L-4.55 -5.05L-4.65 -4.8L-4.65 -4.7L-4.7 -3.7L-6.95 -3.8L-5.8 -3.2L-4.95 -2.8L-5 -2.7L-5.15 -2.1L-5.15 -1.45L-5 -1.05L-5.1 -1.05L-6.35 -0.55L-5.55 -0.5L-4.9 -0.4L-4.35 -0.35L-4.4 -0.35L-4.45 -0.3L-5.25 0.5L-2.3 -0.25L-1.8 0.1L2.9 -0.15M-4.6,-1.2L-4.65 -1.3L-4.4 -1.2L-4.6 -1.2" />
<path style="fill:#FFFF00;fill-opacity:1" d="M-3.9,-6.15L-3.8 -6.2L-2.25 -5.8L-1.95 -6.55L-1.3 -7.5L-1.3 -8.1L-1.1 -8.1L-0.5 -7.4L-0.5 -9.65L0.5 -8.2L1.15 -8.4L2 -8.15L3.35 -9.1L4.5 -10.3L5.9 -12.3L6.05 -11.75L5.25 -9.9L4.8 -8.75L4 -7.1L5.5 -6.9L5.55 -6.9L5.9 -6.7L5.95 -6.6L6.3 -4.65L7 -5L7.1 -4.95L6.6 -4.15L7 -3.25L7.1 -2.9L7.6 -2.05L7.6 -1.25L9.7 -0.55L8 -0.45L8.7 -0.65L7.15 -1.05L7.15 -2.15L6.65 -2.9L6.8 -3.2Q6.9 -3.7 6.45 -3.8L6.35 -3.75L6.5 -4.35L6.45 -4.4L6.2 -4.4L5.7 -5.6Q5.55 -6.3 4.9 -6.8L3.5 -6.5L4.95 -10.25L4.1 -9Q3.35 -8.05 2.2 -8.05L2.4 -7.3Q2.1 -8.1 1.2 -8L0.85 -8.05L0.7 -7.8Q0.1 -7.95 0 -8.5Q0.1 -7.35 -0.25 -6.75L-0.85 -7.3Q-1.85 -6.6 -1.8 -5.45L-1.8 -5.25L-3 -5.55L-3.85 -5.85L-4.3 -5.5L-4.55 -5.05L-3.9 -6.15M-4.4,-1.2Q-3.75 -1 -4.55 -1Q-5.45 -1.05 -5.55 -0.5L-6.35 -0.55L-5.1 -1.05L-5 -1.05L-5.15 -1.45L-5.15 -2.1L-5 -2.7L-4.95 -2.8L-5.8 -3.2L-6.95 -3.8L-4.7 -3.7L-4.65 -4.7L-4.35 -4L-3.9 -3.45L-5.8 -3.3L-4.7 -3L-4.6 -2.9L-4.9 -1.85L-4.65 -1.3L-4.6 -1.2L-4.4 -1.2M-1.8,0.1L-2.3 -0.25L-5.25 0.5L-4.45 -0.3L-4.4 -0.35L-4.35 -0.35L-4.9 -0.4L-3.75 -0.35L-3.7 -0.25L-2.55 -0.65L-2 -0.45L2.9 -0.15L-1.8 0.1M3.15,-0.15Q4.1 -0.7 5.55 -0.7L7.35 -0.4L3.15 -0.15" />
<path style="fill:#FFFFFF;fill-opacity:1" d="M7.65,-0.35L7.35 -0.4L5.55 -0.7Q4.1 -0.7 3.15 -0.15L3.1 -0.15L2.9 -0.15L-2 -0.45L-2.55 -0.65L-3.7 -0.25L-3.75 -0.35L-4.9 -0.4L-5.55 -0.5Q-5.45 -1.05 -4.55 -1Q-3.75 -1 -4.4 -1.2L-4.65 -1.3L-4.9 -1.85L-4.6 -2.9L-4.7 -3L-5.8 -3.3L-3.9 -3.45L-4.35 -4L-4.65 -4.7L-4.65 -4.8L-4.55 -5.05L-4.3 -5.5L-3.85 -5.85L-3 -5.55L-1.8 -5.25L-1.8 -5.45Q-1.85 -6.6 -0.85 -7.3L-0.25 -6.75Q0.1 -7.35 0 -8.5Q0.1 -7.95 0.7 -7.8L0.85 -8.05L1.2 -8Q2.1 -8.1 2.4 -7.3L2.2 -8.05Q3.35 -8.05 4.1 -9L4.95 -10.25L3.5 -6.5L4.9 -6.8Q5.55 -6.3 5.7 -5.6L6.2 -4.4L6.45 -4.4L6.5 -4.35L6.35 -3.75L6.45 -3.8Q6.9 -3.7 6.8 -3.2L6.65 -2.9L7.15 -2.15L7.15 -1.05L8.7 -0.65L8 -0.45L7.65 -0.35" />
</g>
</svg>
