<?xml version="1.0" encoding="utf-8"?>
<svg version="1.1" id="Layer_1"
xmlns="http://www.w3.org/2000/svg"
xmlns:xlink="http://www.w3.org/1999/xlink"
width="30px" height="30px"
xml:space="preserve">
<g id="1308" transform="matrix(1, 0, 0, 1, 13.9, 28.95)">
<path style="fill:#7E0000;fill-opacity:1" d="M0.05,-26.05L-0.25 -26L-0.35 -26L-0.5 -26L-1.1 -26.5L-1.45 -26.75L-1.45 -26.6Q-2 -26.3 -2.4 -26.6L-3.45 -27.6Q-4 -28.45 -3.35 -28.7L-2.95 -28.9L-2.85 -28.9L-2.25 -28.9L-0.95 -28.25L0 -27.1L0.05 -26.05M0.25,-25.1L0.35 -25.1L0.45 -24.95Q1.3 -24.25 1.35 -23.2L1.1 -21.4L0.45 -21.3Q0.35 -21.3 0.2 -21.4L0.15 -21.6L0 -23.35L0 -24.95L0.05 -25Q0.2 -25 0.25 -25.1M10.45,-17.3Q9.4 -17.25 9.85 -18.1Q10.2 -18.8 11.15 -18.65Q12.2 -18.4 12.25 -17.5Q12.45 -15.3 10.4 -14.85Q10 -14.8 10 -15.05Q10 -16.15 10.45 -17.25L10.45 -17.3M4.85,-12.95L5.05 -13.05L5.2 -13.05L5.35 -12.95L5.4 -12.9L5.5 -12.35Q5.95 -11.85 5.6 -11.25Q5.65 -9.55 3.4 -9.4L3.3 -9.5L4.65 -12.85L4.75 -12.9L4.85 -12.95M1.2,-14.3Q1.15 -13.25 0.15 -12.85L-0.15 -13.05Q-0.65 -13.7 -0.5 -14.5Q-0.3 -15.45 0.55 -15.9Q1.3 -15.35 1.2 -14.3M9.45,-17.5L9.4 -16.95L9.25 -16.4L9.1 -16.15L8.8 -16.05L8.1 -15.95L7.85 -15.95L7.8 -16.15Q7.55 -16.7 7.85 -17.2Q8.3 -17.8 9.05 -17.75L9.1 -17.75L9.3 -17.7L9.4 -17.55L9.45 -17.5M6.5,-14.15Q6.7 -14.7 7.3 -14.8L7.6 -15.05Q8.4 -14.65 8.35 -14.15L8 -13.05Q7.4 -12.05 6.2 -12.35L6.2 -12.5L6.5 -14.15M8.35,-10.2L8.9 -10.45L9.3 -10.35L9.45 -10.25L9.6 -9.9L9.45 -9.15L8.6 -8.45L8.55 -8.35L8.4 -8.2L8.35 -8.05L8.15 -7.95L7.4 -8.05L7.2 -8.2Q7 -8.35 7.1 -8.6L7.6 -9.15L8.2 -9.8L8.15 -9.85L8.35 -10.2M6.3,-7.7Q6.4 -6.75 5.25 -5.75Q4.6 -5.2 4.05 -5.25Q3.45 -4.6 3.2 -3.85Q3.75 -4.15 4.3 -3.85L4.45 -3.55L4.45 -3.5L4.3 -3.15L4.1 -3L3.95 -2.8L4.65 -2.7Q6.5 -2.55 6.65 -1.2Q6.65 -0.8 6.15 -0.7L5.55 -0.65Q4.5 0.4 2.55 0.4L-1.65 0.85Q-2.75 1.1 -3.35 0.25L-3.9 0.2Q-4.8 0.05 -4.55 -0.6Q-4.05 -1.65 -3.05 -2L-2.9 -2.55Q-2.4 -3 -1.85 -2.7L-1.85 -3.15L-1.95 -4.1Q-2.15 -4.5 -1.85 -4.9L-2.15 -5.15L-2.7 -5.8Q-2.95 -6.1 -2.75 -6.55L-2.55 -6.65L-2.4 -6.7L-2.25 -6.7L-2.05 -6.65L-0.75 -5.25Q-0.9 -6.05 -0.55 -6.65L-0.05 -6.7L0.15 -6.8L0.15 -6.9L0.75 -9.55Q1.15 -10.95 2.15 -11.8Q2.75 -11.2 2.8 -10.5L2.9 -9.7Q2.8 -8.95 2.3 -8.45L2.2 -8.35Q2.1 -7.3 1.6 -7L1.3 -5.5L1.5 -5.45Q1.55 -5.4 1.7 -5.3L1.75 -5.15L1.75 -4.75L1.85 -4.45L1.9 -4.25L2.05 -4.6L2.25 -4.95L2.75 -5.15L2.95 -5.5L3.3 -6.05L3.75 -6.4L3.75 -6.55L4.5 -8Q4.8 -8.8 5.75 -9.05Q6.4 -8.4 6.3 -7.7M2.6,-2.75L2.45 -2.7L2.55 -2.7L2.6 -2.75M9.8,-5.15L9.8 -5.25L9.8 -5.4L9.5 -5.45Q9.2 -5.5 9.1 -5.8L9.1 -6L9.1 -6.05L9.85 -6.5L10.35 -6.4L10.4 -6.5L10.7 -6.55L10.95 -6.6L11.1 -6.6L11.15 -6.55L11.2 -6.55L11.3 -6.4L11.4 -6.25Q11.45 -5.8 11.15 -5.5Q10.6 -5.05 10 -5L9.8 -5.15M8.1,-4.1Q8.55 -4.5 9.1 -4.5L9.3 -4.45L9.45 -4.4L9.5 -4.35Q9.8 -3.8 9.45 -3.35Q8.75 -2.5 7.75 -3L7.75 -3.15Q7.65 -3.7 8.1 -4.1M13.7,-10.4Q13.35 -9.8 12.55 -10.15Q9.95 -11.35 12.4 -12.1Q13.15 -11.9 13.6 -11.3Q14 -10.9 13.7 -10.4M11.8,-6.9Q12.25 -7.15 12.8 -7.2L13.9 -7.25L14.6 -7.15L15.35 -6.55L15.4 -6L15.4 -5.85L14.8 -5.6Q13.75 -5.5 13.1 -6.1L12.8 -6.35L12 -6.5L11.7 -6.7L11.7 -6.8L11.8 -6.9M-4.05,-26.2L-3.85 -26.25L-3.65 -26.25Q-2.75 -25.95 -2.6 -24.95Q-2.55 -23.9 -3.8 -23.85L-4.1 -24.15L-4.45 -25.25L-4.3 -26.05L-4.05 -26.2M-0.15,-20.05Q0.7 -19.1 0.2 -17.45Q0.05 -17.05 -0.15 -17.3Q-1.6 -18.85 -0.15 -20.05M-11.8,-10.05Q-10.85 -9.8 -10.5 -8.85Q-10.35 -8.55 -10.55 -8.3Q-11.9 -7.05 -12.4 -8.55L-13.15 -8.25Q-14.3 -7.75 -13.7 -8.75Q-13.1 -9.8 -11.8 -10.05M-3.1,-9.4Q-2.55 -8.6 -3.25 -8.05L-3.45 -8.2Q-4.55 -8.55 -5.15 -9.35Q-6.05 -10.35 -4.7 -10.75L-4.3 -10.65L-3.1 -9.4M-7.9,-10.5L-9.25 -11.15L-9.3 -11.3Q-9.3 -11.9 -8.8 -12.15L-7.85 -12.5L-7.35 -12.3Q-6.65 -11.9 -6.45 -11.25Q-6.4 -10.9 -6.5 -10.5Q-7.15 -10.2 -7.9 -10.5M-5.9,-4.65L-5.65 -4.4L-5.45 -4.2L-5.5 -4.1L-5.75 -3.9L-6.1 -3.85L-6.1 -3.65L-6.1 -3.55L-6.2 -3.5Q-6.7 -3.1 -7.4 -3.15Q-8.45 -3.15 -8.25 -3.9Q-7.9 -5 -6.4 -5L-6.25 -4.95L-5.9 -4.65" />
<path style="fill:#FFCBCB;fill-opacity:1" d="M11.3,-18.2L11.3 -18.3L11.35 -18.35L11.45 -18.4Q12.05 -18.1 11.9 -17.5L11.7 -17.3Q10.9 -17.35 11.3 -18.2M0.15,-18.65Q0.2 -18.15 -0.3 -18.15L-0.35 -18.85Q-0.45 -19.2 -0.15 -19.4L-0.1 -19.4L-0.05 -19.3L0 -19.3L0.15 -18.65M0.6,-24.5L1 -23.85L1 -23.1L0.9 -23.1Q0.45 -23.35 0.4 -23.8Q0.2 -24.3 0.55 -24.5L0.6 -24.5M0.9,-15.15L0.95 -14.55L0.95 -14.05L0.8 -14.05Q0.45 -14.25 0.4 -14.65L0.45 -15.3L0.55 -15.35L0.6 -15.4L0.7 -15.4L0.8 -15.4L0.9 -15.35L0.9 -15.3L0.9 -15.15M9.2,-16.95Q8.95 -16.55 8.6 -16.7L8.6 -16.75L8.75 -17.2L9.1 -17.5L9.1 -17.4L9.2 -16.95M7.45,-14.8L7.55 -14.85L7.6 -14.85L7.65 -14.9L7.75 -14.85L7.85 -14.8L7.95 -14.8L8 -14.65L7.95 -14.1L7.95 -13.7L7.8 -13.55L7.55 -13.55L7.45 -13.7L7.45 -14.25L7.45 -14.8M8.4,-9.9L8.9 -10.2L8.95 -10.15Q9.1 -9.9 8.9 -9.6Q8.6 -9.2 8.2 -9.4L8.2 -9.45L8.4 -9.9M5.55,-12.15L5.7 -11.6L5.6 -11.5L5.25 -11.1L5.2 -11.1Q4.95 -11.35 5 -11.75L5.4 -12.2L5.45 -12.2L5.55 -12.15M6,-8.25Q6.2 -7.7 6 -7.2L5.95 -7Q5.55 -6.05 4.65 -5.9L4.65 -6L5.35 -7.15L5.95 -8.3L6 -8.25M2.25,-10.8Q2.8 -10.25 2.55 -9.55Q2.2 -8.65 1.65 -8.25L1.55 -8.3Q1.55 -9 1.85 -9.65L2.2 -10.85L2.25 -10.8M4.1,-3.65L4.15 -3.6L4.1 -3.4L4.05 -3.3L3.95 -3.2L3.5 -3L3.15 -2.9L3.1 -3L3.3 -3.55L3.8 -3.85L3.95 -3.75L4.1 -3.65M1.2,-5.05L1.3 -5.05L1.45 -3.35Q1.3 -2.35 0.8 -1.8L0.75 -1.95L0.9 -3.6L1.2 -5.05M0.05,-2.2L-0.5 -3.35L-0.9 -4.55L-0.85 -4.55L-0.1 -3.35L0.15 -2.05L0.05 -2.2M4.65,-1.9L5.05 -1.95L5.45 -1.95L5.6 -1.9L5.8 -1.7L5.95 -1.5L5.95 -1.45L5.9 -1.4L4.8 -1.45Q4.5 -1.55 4.5 -1.8L4.65 -1.9M9.4,-5.9L9.85 -6.3L10.4 -6.4L10.55 -6.35L10.7 -6.3L10.75 -6.2L10.75 -6.15Q10.4 -5.8 9.85 -5.65Q9.5 -5.6 9.4 -5.9M8.15,-3.3L8.15 -3.35L8.35 -3.85L8.9 -4.1L9.05 -4L9.1 -3.95L9.1 -3.85L8.7 -3.4Q8.5 -3.1 8.15 -3.3M13.1,-10.75L12.85 -10.8L12.4 -11.2Q12.1 -11.35 12.1 -11.6L12.1 -11.75L12.25 -11.8L12.4 -11.85L12.6 -11.8L13.1 -11.25Q13.3 -11 13.1 -10.75M13.7,-6.85L13.9 -6.95L14.2 -6.95L14.45 -6.9L14.95 -6.45L14.85 -6.3Q14.8 -6.15 14.65 -6.2L13.85 -6.55L13.6 -6.7L13.7 -6.85M-2.5,-27.9L-2.6 -27.95L-3.05 -28.45Q-3.25 -28.8 -2.85 -28.95L-1.95 -28.6L-1.25 -28.25Q-0.55 -27.7 -0.5 -26.95L-0.65 -26.95L-1.25 -27.45L-2.05 -28.2L-2.35 -28L-2.5 -27.9M-3.85,-25.8L-3.65 -25.8L-3.45 -25.7L-3.1 -25.25Q-2.95 -25 -3.15 -24.85L-3.3 -24.85L-3.8 -25.2L-4 -25.7L-3.9 -25.7L-3.85 -25.8M-11.45,-9.3L-11.3 -8.8L-11.4 -8.75L-11.5 -8.65L-11.6 -8.75L-12.15 -9.1Q-12.5 -9.4 -12.15 -9.65L-12.1 -9.65L-11.45 -9.3M-4.45,-9.65L-4.75 -10.15L-4.7 -10.25L-4.55 -10.3L-4.4 -10.3L-4.05 -10.15L-3.7 -9.7Q-3.6 -9.45 -3.8 -9.3L-4.05 -9.35L-4.45 -9.65M-7.9,-11.85L-7.9 -11.75L-7.9 -11.65L-8.45 -11.35L-8.7 -11.35L-8.8 -11.4L-8.85 -11.55L-8.85 -11.65L-8.8 -11.8L-8.5 -11.9L-8.15 -11.95L-8.05 -11.9L-7.9 -11.85M-7.4,-4.3L-7.1 -4.55L-6.8 -4.65L-6.65 -4.5Q-6.5 -4.15 -7 -4Q-7.3 -3.85 -7.5 -4.15L-7.4 -4.3M-2.7,-2L-2.55 -1.9L-2.4 -1.7L-2.4 -1.65L-2.4 -1.5L-2.55 -1.4L-2.6 -1.4L-2.9 -1.7Q-3.05 -1.95 -2.75 -2.05L-2.7 -2" />
</g>
</svg>
