<?xml version="1.0" encoding="utf-8"?>
<svg version="1.1" id="Layer_1"
xmlns="http://www.w3.org/2000/svg"
xmlns:xlink="http://www.w3.org/1999/xlink"
width="9px" height="6px"
xml:space="preserve">
<g id="1089" transform="matrix(1, 0, 0, 1, 0.85, 32.25)">
<path style="fill:#3A3A3A;fill-opacity:0.2" d="M0.1,-31Q-1 -30.75 -0.85 -31.65L-0.35 -32.25L-0.25 -32.25L0.15 -31.9L0.25 -31.35L0.1 -31M2.35,-27.6L2.7 -28.1Q3.25 -28.05 3.55 -27.65Q3.85 -27.2 3.3 -26.85Q2.95 -26.7 2.85 -26.95Q2.65 -27 2.5 -27.2Q2.35 -27.35 2.35 -27.6M3.05,-27.6L2.9 -27.45L2.8 -27.4L2.7 -27.35L2.7 -27.3L2.9 -27.3L3.05 -27.4Q3.2 -27.4 3.15 -27.55L3.05 -27.6M6.3,-29.8Q7 -29.75 7.15 -29.15Q7.35 -28.5 6.65 -28.35L5.9 -28.4L5.85 -28.65L5.85 -29.15L6.1 -29.7L6.3 -29.8M6.05,-29.2L6.05 -29.15L6.05 -29L6.1 -28.95L6.25 -28.85Q6.6 -28.85 6.8 -29.1L6.8 -29.15L6.75 -29.2L6.7 -29.25L6.6 -29.35L6.5 -29.4L6.35 -29.35L6.2 -29.3L6.1 -29.3L6.1 -29.25L6.05 -29.2M-0.45,-31.8L-0.5 -31.6L-0.55 -31.45L-0.55 -31.4Q-0.3 -31.25 -0.1 -31.4L-0.05 -31.5L-0.1 -31.7L-0.25 -31.9L-0.3 -31.9L-0.45 -31.8" />
<path style="fill:#666666;fill-opacity:0.2" d="M3.15,-27.55Q3.2 -27.4 3.05 -27.4L2.9 -27.3L2.7 -27.3L2.7 -27.35L2.8 -27.4L2.9 -27.45L3.05 -27.6L3.15 -27.55M6.1,-29.25L6.1 -29.3L6.2 -29.3L6.35 -29.35L6.5 -29.4L6.6 -29.35L6.7 -29.25L6.75 -29.2L6.8 -29.15L6.8 -29.1Q6.6 -28.85 6.25 -28.85L6.1 -28.95L6.05 -29L6.05 -29.15L6.05 -29.2L6.1 -29.25M-0.3,-31.9L-0.25 -31.9L-0.1 -31.7L-0.05 -31.5L-0.1 -31.4Q-0.3 -31.25 -0.55 -31.4L-0.55 -31.45L-0.5 -31.6L-0.45 -31.8L-0.3 -31.9" />
</g>
</svg>
