<?xml version="1.0" encoding="utf-8"?>
<svg version="1.1" id="Layer_1"
xmlns="http://www.w3.org/2000/svg"
xmlns:xlink="http://www.w3.org/1999/xlink"
width="86px" height="39px"
xml:space="preserve">
<g id="363" transform="matrix(1, 0, 0, 1, 4.15, -0.85)">
<path style="fill:#3A231C;fill-opacity:1" d="M67.2,9.05L64.25 9.5Q60.35 9.5 58.1 8L56.6 6.45Q56.6 4.85 60 4.6L73.1 5.35L73.25 5.8L72.6 7.85Q72.3 8.55 70.15 8.55Q68.6 8.55 67.2 9.05M78,24.5L78.65 25.25Q79.1 25.8 80.8 25.85L80.9 26.05L81 26.6Q81 28.75 70.8 28.75Q67.8 28.75 65.6 27.75Q64 26.95 64 26.55Q64 24.85 67.05 24.65Q69.2 24.5 78 24.5M42.05,9.75L41.75 9.75L35.25 9.3Q35.05 9.25 35.05 8.55Q35.05 7.05 38.65 7.7Q42.25 8.35 42.25 9.2Q42.25 9.8 42.05 9.75M43.1,23.3L36.75 23.3Q36.15 23.05 36.15 22.35Q36.15 20.9 40.25 19.35Q45.2 17.45 51.3 18.65L51.75 19.35L52.15 20Q52.15 20.9 49.45 21.65L43.1 23.3M45.4,35.55L42.25 34.25Q39.25 33.1 39.25 32.55Q39.25 30.4 46.6 31.35Q52.15 32.05 54.9 33L61.25 35.05Q66.9 36.75 67.8 37.3Q65.7 39.5 54.9 39.5Q52.75 39.5 48.55 38.15Q44.75 36.95 44.75 36.75L45 36.25L45.4 35.55M21.85,16.85Q20.35 19.65 18.4 19.65Q16.3 19.65 17.05 16.55L15.65 15.75Q15.05 15.45 15.05 14.95L15.8 12.45L14.55 8.2Q13.25 3.95 13.25 2.85L13.35 1Q15.15 0 19.2 5.85Q23 11.3 23 13.05Q23 14.6 21.85 16.85M26.4,16.15Q29.25 12.05 33.15 12.8Q36.75 13.5 36.75 16.55Q33.5 21.6 31.4 21.6Q30.75 21.6 28.25 19.4L25.35 16.5L25.35 16L26.4 16.15M11.5,32L10.85 32.3Q11.95 32.45 13.1 33.25Q14.05 33.9 16.7 33.9Q19 33.9 19.6 33.3L20.4 32.5Q18.8 31.4 17 32.25Q15.8 32.8 15.35 30.75L13.6 31.25L11.5 32M1.65,35.3Q5 33.25 7.8 30Q12.15 24.9 13.4 23.75Q18.1 24.65 20.75 26.6Q21.65 27.3 24.6 30.5L26.4 32.65Q27.6 33.95 28.85 34.15L37.05 34.55Q40.75 34.45 40.75 35.55Q40.75 38.4 27.55 38.4Q17.75 38.4 17.45 38.2L17 37.75Q16.35 37.35 13.9 36.85L0.9 36.85Q-0.3 37.85 -1.9 37.85L-4 37.65L-4.15 37Q-4.15 36.55 -1.9 35.7L0.9 34.65L1.65 34.75L1.75 35.1L1.65 35.3M1,35.65L1.15 35.6L1.05 35.6L1 35.65" />
</g>
</svg>
