<?xml version="1.0" encoding="utf-8"?>
<svg version="1.1" id="Layer_1"
xmlns="http://www.w3.org/2000/svg"
xmlns:xlink="http://www.w3.org/1999/xlink"
width="25px" height="24px"
xml:space="preserve">
<g id="626" transform="matrix(1, 0, 0, 1, 33.2, -2)">
<path style="fill:#000000;fill-opacity:0.498039" d="M-8.65,23.7Q-8.65 24.4 -11.85 24.9L-19.3 25.4L-26.8 24.9Q-29.8 24.4 -29.8 23.7Q-29.8 23.3 -28.85 23L-26.8 22.5L-23.45 22.15L-19.3 22L-13.35 22.3L-11.85 22.5Q-8.65 23 -8.65 23.7" />
<path style="fill:#000000;fill-opacity:1" d="M-9.75,7.4L-9.15 8.6Q-8.9 9.6 -9.25 10.4Q-9.75 11.4 -10.9 11.4Q-11.45 9.8 -13.4 10.3L-16.75 10.85L-16.55 11.35L-16.5 11.5Q-13.9 11.05 -12.15 12.45Q-11.8 12.75 -11.7 13.2Q-11.25 16.05 -13.9 16.65Q-14.3 16.45 -14.25 16L-14.45 15.15L-14.45 15.1L-17.55 14.7L-19.4 14.35L-20 12.2L-20.15 11.4L-20.35 11.35L-22.85 10.35L-24.8 11.35L-26.15 13.55Q-26.9 15.1 -27.35 14.55L-27.9 13.9L-28.8 14.6Q-28.7 15.95 -30.3 16.1Q-31.65 16.25 -32.2 14.85Q-32.3 14.6 -32.05 14.3L-31.65 14.05L-31.1 14Q-29.95 12.3 -28.25 10.8L-27.6 9.55Q-28.25 9.95 -29.75 9.55L-29.85 9.65L-30.15 9.95L-30.35 10.05L-30.6 10.1L-31.45 9.55L-32.9 8Q-33.4 6.9 -33 5.8Q-31.25 3.75 -28.95 3.95L-29.15 3.55L-29.4 2.1L-29.35 2.05L-29.25 2.05L-29.1 2Q-28.45 2.65 -28.15 3.55L-28 4.1L-27.1 4.4Q-25.9 4.9 -25.5 5.5L-24.85 5.35L-24.85 5.25L-24.55 3.75L-24.55 3.55Q-23.8 3.5 -24 4.7L-24.15 5.25L-22.4 5L-22.5 4.9L-23.95 3.15L-24.1 3.1L-24.15 2.85L-24.2 2.8L-24.1 2.6L-23.85 2.35L-23.45 2.25L-23.35 2.25L-21.85 4.15L-21.1 5.1L-18.9 5.6L-17.75 5.9L-17.6 5.6L-17.3 5.85Q-16.45 6.6 -16.55 7.45L-13.75 7.35L-10 7.25L-9.75 7.4" />
</g>
</svg>
