<?xml version="1.0" encoding="utf-8"?>
<svg version="1.1" id="Layer_1"
xmlns="http://www.w3.org/2000/svg"
xmlns:xlink="http://www.w3.org/1999/xlink"
width="22px" height="36px"
xml:space="preserve">
<g id="1562" transform="matrix(1, 0, 0, 1, 1.3, 23.45)">
<path style="fill:#D6D6D6;fill-opacity:0.498039" d="M5.85,-21.4L5.2 -22L5.15 -21.95L5.3 -21.75L5.5 -21.4L5.85 -21.4M1.05,-19.35L1 -20.1Q1 -23.95 4.1 -23.4Q7.2 -22.85 7.2 -20.2Q7.2 -18.2 5.4 -18.2L4.1 -18.4L1.6 -18.6Q1.15 -19.05 1.05 -19.35M9.3,-17L8.8 -16.65L8.5 -16.75L8.4 -17.2L8.55 -17.55L8.8 -17.55L9.3 -17M15.75,-7.2Q15.2 -6.4 14.5 -6.4Q13.65 -6.4 13.4 -7.05L13.05 -8Q12.3 -8.75 11.5 -8.75Q11 -8.75 11 -9.1Q11 -10.3 12.1 -10.5L12.95 -10.55L13.6 -10.45Q16.2 -10 16.2 -8.4L15.75 -7.2M14.35,-3.55L14.25 -3.7L14.25 -4.85Q15.75 -5.05 15.75 -4.15Q15.75 -3.45 14.9 -3.45L14.35 -3.55M17.85,-5.3L17.9 -5.15Q17.7 -4.85 17.2 -4.7Q16.85 -4.75 16.7 -4.9Q16.85 -5.4 17.2 -5.5L17.85 -5.3M18.75,5.2L19.4 5.9Q20.05 6.45 20.05 7Q20.05 7.8 19.4 8.45Q18.6 9.25 17.1 9.25Q16.25 9.25 15.75 7.9Q15.35 6.75 12.6 7.45L11.4 6.55Q13.05 3.8 16 3.9Q18.75 4 18.75 5.2M19.1,11.85Q18.85 11.7 18.7 11.2Q19.05 10.6 19.65 10.55Q20.3 10.45 20.3 11.3Q20.3 11.9 19.8 12.3L19.1 11.85M-0.55,-11.65L-0.5 -11.25L-0.5 -10.95L-0.55 -11.05L-0.8 -10.9L-1.2 -10.9L-1.3 -11.25Q-1.3 -11.6 -0.7 -11.8L-0.55 -11.65" />
</g>
</svg>
