<?xml version="1.0" encoding="utf-8"?>
<svg version="1.1" id="Layer_1"
xmlns="http://www.w3.org/2000/svg"
xmlns:xlink="http://www.w3.org/1999/xlink"
width="29px" height="9px"
xml:space="preserve">
<g id="1172" transform="matrix(1, 0, 0, 1, -29.25, 0.8)">
<path style="fill:#2E2E2E;fill-opacity:0.694118" d="M57.8,1.55L57.8 1.85L56.15 2.1L56.4 2.35L56.3 2.55L54.85 2.65L53.15 2.45L52.65 2.25L51.8 2.4L51.3 2.65L48.3 2.8Q47.75 2.8 47.1 3.3L46.05 3.8L42.6 3.05L39.45 2.2Q39.45 1.35 41.7 1.15L43.8 1L47.55 1.35L50.65 0.95Q51.4 0.9 51.7 1.3L56.2 1.4L57.8 1.55M54.25,7.75L53.3 8Q52.55 8 52.15 7.5L51.9 6.85Q51.9 4.95 55.15 7.1L54.25 7.75M40.55,3.6L39.3 3.75Q38.45 3.75 38.1 3.45L35.1 3.25L32.85 3.45L31.7 3.35L31.45 3.2L33.55 2.9L36.2 2.9L39.05 3.1L40.55 3.4L40.55 3.6M43.2,0.7L40.55 0.9L40.4 1L39.25 0.85L38.6 0.9L38.45 1L37.25 1L34.35 1.5L32 1.65L31.9 1.55L29.35 1.8L29.25 1.6L31.6 1.25L33.8 1.3L35.95 0.65Q37.95 0 38.7 0L43.85 -0.8L44 0Q44 0.6 43.2 0.7" />
</g>
</svg>
