<?xml version="1.0" encoding="utf-8"?>
<svg version="1.1" id="Layer_1"
xmlns="http://www.w3.org/2000/svg"
xmlns:xlink="http://www.w3.org/1999/xlink"
width="42px" height="14px"
xml:space="preserve">
<g id="406" transform="matrix(1, 0, 0, 1, -148, -205.25)">
<path style="fill:#3A1D0F;fill-opacity:0.85098" d="M155,209.5L155.05 209.55Q155.05 212 156.65 213.75L156.5 213.9Q156.75 214.35 157.35 214.25L157.4 214.3L157.5 214.25Q159.2 214.05 160.75 214.2Q160.25 213.65 160.25 212.45Q160.2 211.55 160.75 210.75Q161.55 209.55 162.55 209.65L163.2 209.25Q163.45 209.2 163.55 209.4L163.6 209.45Q161.5 210.85 161.85 213.15Q161.95 213.65 162.5 213.8Q163.15 213.95 163.2 214.5L163 214.6L163.65 214.75L163.8 214.8L161.1 214.85L164.3 215.35L160.75 215.25L155.85 215.35Q154.25 215.3 152.9 214.7L152.6 214.4L150.3 213.95L156.75 214.25L155.55 213.65Q154.15 213.5 153.85 211.55Q153.55 209.65 155 208.4L154.9 209.5L155 209.5M160.3,206.65Q160.9 206.25 161.65 206.15Q162.35 205.9 162.75 206.35L162.85 206.45L162.85 206.55L162.4 206.65L160.65 207.35Q159.6 208.35 158.9 209.6L158.8 209.65L158.8 208.65L158.55 208.7L158.7 208.3L158.4 208.5L159.1 207.6L160.25 206.7L160.3 206.65M157.6,208.5Q157.7 209.05 157 209.85Q156.1 210.95 156.15 212.3L155.95 211.75L155.85 212.1Q155.05 209.45 157.75 208.1L157.6 208.5M159.4,214.9L159.6 214.9L159.45 214.85L159.65 214.75L157.4 214.3Q157.6 214.75 158.25 214.8L157.3 214.8L159.4 214.9M184.15,206.4L184.75 206.3Q185.8 206.2 186.25 206.7Q186.8 207.1 186.95 207.9L186.9 207.95L185.4 206.9L183.95 206.65L184.15 206.4M187.25,206.5L188.55 207.95L188.55 208Q187.2 207.85 187.2 206.5L187.25 206.5M188.15,208.85Q190.1 209.85 189.15 211.4L189.05 211.4L188.9 210.8Q188.05 210.15 187.95 209L188 208.95L188.05 209Q187.95 208.85 188.15 208.85M188.8,211.05Q189.55 212.05 189.4 213Q189.75 213.95 188.45 215.05Q187.85 215.55 187.3 215.45Q186.9 215.6 186.5 215.2L186.6 215.15L180.95 214.85Q180.05 217.3 176.75 217.75Q173.5 218.2 170.7 216.95Q171.7 216.05 174 216.55L174.95 216.5L172.65 216.15L176.4 216.45L176.15 216.7L175.8 216.8Q178.25 216.5 180.45 214.7L180.5 214.7L180.3 214.65Q182.5 214.4 183.35 212.65Q183.65 212.1 183.4 211.55Q183.1 210.8 183.4 210.35Q186 211.55 184.85 214.35L184.85 214.4L187 214.7L187.35 214.5L188.45 212.95L188.25 212.35Q188.25 212.2 188.4 212.15L188.65 212.1L188.7 212.15L188.75 211.05L188.8 211.05M184.3,211.9L184.3 213.05L184.3 213.1Q184.5 212.5 184.3 211.9M164.45,214L164.6 214.1L164.65 214.05L164.45 213.95L164.45 214M163.9,213.55L164.05 213.55L167.3 214.05L175.55 214.55L175.75 214.5L176.35 214.35L178.8 214.55L178.85 214.6L175.55 214.55L176.2 214.6L176.35 214.65L174.45 214.75Q172.8 215.4 170.6 215.15L165.45 214.6Q167.75 215.9 170.45 216.6L170.55 216.9L168.05 216.9Q165.9 217 164.9 215.6L163.2 213.75Q162.95 213.35 163.35 213.2L164.15 213.8L164.15 213.75L163.9 213.55" />
<path style="fill:#3A1D0F;fill-opacity:0.6" d="M155.6,208.55L155.4 209.2Q155.9 208.05 157.15 207.35Q157.8 207.55 158.15 207.9Q158.85 206.45 160.45 205.75L161.95 205.25Q163.8 205.1 163.3 206.4L163.05 206.7L159.1 209.65L158.3 209.7L158.25 209.7L157.6 211.15Q157 212.25 156.15 212.15L156.4 213.45L160 213.65Q159.8 213 159.85 212.1Q160.05 209.4 162.35 208.45Q163.45 208.1 164.25 208.7Q164.65 209.05 164.3 209.55Q162.9 211.3 163.15 213.4L163.35 213.2L163.4 213Q163.5 212.6 163.95 212.5L165.4 213.65L167.3 214.05L172.75 214.35Q173.05 214.05 173.75 214.05L174.95 214Q177.3 213.6 179.05 214.6L178.95 214.75L176.25 215.55L172.75 216Q175.2 216.2 177.55 215.4L180.7 214.1L181.45 213.6Q182.45 213.1 182.55 212L182.55 210.25Q182.5 209.5 183.15 209.25Q185.75 210.25 186 213.1L185.95 214.1Q186.65 214.05 187.4 214.35L188.3 212.45L188.25 212.35Q188.25 212.2 188.4 212.15L188.45 212.15L188.8 211.6L188.8 211.5Q188 211.45 187.65 210.5Q187.3 209.7 187.7 209.05Q187.55 208.7 187.75 208.45Q187.85 208.3 188.05 208.3Q190 209.3 189.5 211.25L189.35 211.45Q190.3 212.5 189.8 214.2Q189.25 216.15 187.2 216.2L186.3 216.25Q185.1 216.4 184.6 215.9L182.95 216.05L181.6 215.7L181 216.75L179.5 217.8Q175.1 219.05 170.95 217.6L170.75 217.55Q169.65 218.15 168.2 217.95L165.3 217.2Q163.95 216.65 163.5 215.65L148.15 215Q147.85 214.95 148.1 214.7Q148.95 213.9 150.3 213.95L150.4 213.95L150.5 213.65Q150.6 213.55 150.65 213.55L152.6 213.3L152.75 213.3L154.65 213.35Q152.3 211.75 153.5 208.5Q153.95 207.25 155.15 206.75Q156.5 207.15 155.6 208.55M186.95,205.7Q189.2 206.1 188.75 208.3Q188.75 208.55 188.5 208.4L187.7 207.7Q187.35 207.45 187.25 207L187.05 206.85Q186.1 206.2 186.95 205.7M183.05,206.65L183.05 206.45Q183.65 205.9 184.45 205.8Q186.75 205.95 187.5 207.85Q187.85 208.7 187.05 208.95Q186.55 209.1 186.15 208.7Q184.8 207.35 183.05 206.65M170.2,216.2L170.65 215.8L169.45 215.55L168.6 215.4L170.15 216.3L170.2 216.2M163.25,213.8L163.2 213.75L163.15 213.65L163.2 214.05L163.25 213.8" />
</g>
</svg>
