<?xml version="1.0" encoding="utf-8"?>
<svg version="1.1" id="Layer_1"
xmlns="http://www.w3.org/2000/svg"
xmlns:xlink="http://www.w3.org/1999/xlink"
width="17px" height="33px"
xml:space="preserve">
<g id="1023" transform="matrix(1, 0, 0, 1, 4.2, 12.2)">
<path style="fill:#FFFF00;fill-opacity:1" d="M7.7,-9.7Q8.25 -9.15 7.9 -8.4L7.9 -8.35Q7.05 -8.9 7.7 -9.7M1.15,-6.8Q1.4 -5.35 1.15 -4Q1.05 -3.4 0.55 -3.85Q0.25 -4.1 0.2 -4.55Q0.1 -5.95 0.9 -6.9L1.1 -6.85L1.15 -6.8M4.6,-9.65L4.75 -9.8Q5.75 -8.5 4.6 -7.9L4.6 -9.65M4.3,-0.65Q4.3 0.6 3.25 0.05Q2.6 -0.3 2.9 -1.1L3.9 -3.95L4.3 -0.65M1.7,-0.05Q1.4 1.25 0.7 0.25Q0.5 0 0.6 -0.3Q1 -1.55 1.75 -2.65L1.7 -0.05M8.45,-0.85Q7.9 -2 8.55 -3.1Q9.4 -1.9 8.65 -0.8Q8.55 -0.65 8.45 -0.85M7.1,-2.3Q7.4 -0.8 5.95 -1.35L5.75 -1.75Q5.95 -3.15 7.15 -3.85Q7.5 -3.55 7.15 -2.7L7.1 -2.3M11.2,7.9Q10.75 6.9 11.5 6.1Q12.3 7.1 11.45 7.95L11.2 7.9M12.15,12.1L11.95 11.95Q11.3 10.85 12.35 10.1Q13.05 11.1 12.15 12.1M8.55,5.35Q9.05 7.2 7.5 7.7Q7.1 7.8 7.15 7.4Q7.35 6.1 8.3 5.25L8.5 5.3L8.55 5.35M9.9,3.9Q9.9 3.1 10.5 2.6Q10.95 3.65 10 4L9.9 3.9M7.25,1.45Q7.9 2.6 6.95 3.25L6.85 3.15Q6.85 2.15 7.25 1.45M6.45,2.5Q5.05 4 3.15 3.85L2.9 3.65L2.4 3.2Q1.95 2.6 2.1 1.85Q2.3 0.9 3.1 0.45L3.25 0.55Q2.7 1.6 3.35 2.25L3.35 2.15L3.5 2.35L3.8 2.55L3.7 2.6L5.55 2.5Q6.1 2.1 6.45 2.5M4.2,2.05Q4.35 1.15 4.85 0.25Q5 -0.05 5.3 -0.15Q6.2 1.55 4.55 2.3Q4.1 2.5 4.2 2.05M1.2,4.75L1.4 4.85L1.3 7.25L1.3 7.4Q-0.35 7.05 0.65 5.4L1.2 4.75M0.1,8.45Q-1 8.35 -0.95 7.2Q-0.95 6.35 -1.5 5.75L-1.4 5.6L-1.3 5.55Q0.25 6.6 0.25 8.35L0.1 8.45M4.7,8.35Q5.05 7.3 5.75 6.4L5.85 6.85L5.9 7L6.05 7.35L6.1 7.7Q6.1 8.5 5.7 9.05L5.7 9.1L5.3 9.45L5.25 9.5L5.25 9.45L4.9 9.25Q4.5 8.9 4.7 8.35M6.5,11.4Q7.35 10.4 8.65 9.9L8.95 9.75Q8.95 10.55 8 11.35L7.6 11.7L6.95 12.7Q6.35 13.65 5.45 13.05Q3.9 12.7 4.85 11.35Q5.1 11 5.45 11Q4.45 12.05 5.95 11.75L6.5 11.4M9.75,16.1L10.35 15.8Q10.6 16.9 9.65 17.95Q8.55 19.2 7.65 17.95Q7.45 17.7 7.65 17.5Q8.5 16.5 9.75 16.1M6.55,17.35L6.95 17.45L6.45 19.85L6.3 19.9Q4.5 19.65 5.55 18.15L6.1 17.6Q6.35 17.45 6.55 17.35M8.8,14.7L9.7 11.95Q10.45 13.75 9.6 15.5Q9.4 15.9 9.05 15.6Q8.6 15.3 8.8 14.7M0.5,17.05Q-0.9 17.2 -1.05 15.8L-1.2 14.2L-1 14.05Q0.3 15.15 0.7 16.75Q0.8 17 0.5 17.05M2.6,17.6Q2.35 19.35 0.55 18.9Q0.55 17.4 1.9 16.2L2.6 15.6L2.6 17.6M1.3,13.3Q1.05 11.75 1.85 10.5Q3.4 12.2 1.65 13.45Q1.35 13.65 1.3 13.3M0.05,18.75Q0.6 18.85 0.4 19.45L0.9 19.65Q-0.3 20.9 -0.8 19.55Q-1.25 18.4 -0.65 17.45Q-0.15 17.95 0.05 18.7L0.05 18.75M-1,-3.55Q-1.05 -3.4 -1.2 -3.55Q-1.85 -4.15 -1.85 -5.15L-1.8 -5.3L-1.7 -5.3Q-0.5 -4.55 -1 -3.55M-3.75,5.9Q-3.85 6 -3.95 5.8Q-4.65 4.45 -3.55 3.4Q-2.6 4.85 -3.75 5.9M-0.1,4.6Q-0.15 5.35 -0.9 5.25Q-1.6 5.1 -1.6 4.4Q-1.6 2.7 -0.85 1.4Q-0.45 2.3 -0.2 3.4L-0.1 4.6M-2.1,11.65L-2.45 12.85Q-2.7 13.6 -3.2 12.95Q-3.65 12.25 -3.4 11.45Q-3.05 10.4 -2.05 9.9Q-1.7 10.6 -2.1 11.65" />
<path style="fill:#FFFF00;fill-opacity:0.498039" d="M1.9,-10.8L1.85 -10.75Q1.1 -11.15 1.5 -12.2L1.55 -12.2Q2.2 -11.65 1.9 -10.8" />
</g>
</svg>
