<?xml version="1.0" encoding="utf-8"?>
<svg version="1.1" id="Layer_1"
xmlns="http://www.w3.org/2000/svg"
xmlns:xlink="http://www.w3.org/1999/xlink"
width="84px" height="9px"
xml:space="preserve">
<g id="1647" transform="matrix(1, 0, 0, 1, 51, 4)">
<path style="fill:#000000;fill-opacity:0.694118" d="M-50.1,4.05L-50.1 -2.95L31.9 -2.95L31.9 4.05L-50.1 4.05" />
<linearGradient
id="LinearGradID_776" gradientUnits="userSpaceOnUse" gradientTransform="matrix(0.0498657, 0, 0, 0.00549316, -9.25, 0.5)" spreadMethod ="pad" x1="-819.2" y1="0" x2="819.2" y2="0" >
<stop  offset="0" style="stop-color:#852600;stop-opacity:0.8" />
<stop  offset="0.533333" style="stop-color:#C67F00;stop-opacity:0.8" />
<stop  offset="1" style="stop-color:#852600;stop-opacity:0.8" />
</linearGradient>
<path style="fill:url(#LinearGradID_776) " d="M32.15,-4Q32.9 -3.7 33 -2.7L33 3.55Q32.9 4.55 32.15 4.85L31.65 5L-49.65 5L-49.95 5Q-50.7 4.8 -50.9 4.05L-51 3.65L-51 -2.6L-50.95 -2.85L-50.95 -3Q-50.7 -3.9 -49.65 -4L31.65 -4L32.15 -4M31.9,4.05L31.9 -2.95L-50.1 -2.95L-50.1 4.05L31.9 4.05" />
<path style="fill:#CCCCCC;fill-opacity:1" d="M17.6,4L15.6 4L16.6 0.4L17.6 4M-0.6,0.4L0.4 4L-1.6 4L-0.6 0.4" />
</g>
</svg>
