<?xml version="1.0" encoding="utf-8"?>
<svg version="1.1" id="Layer_1"
xmlns="http://www.w3.org/2000/svg"
xmlns:xlink="http://www.w3.org/1999/xlink"
width="24px" height="21px"
xml:space="preserve">
<g id="560" transform="matrix(1, 0, 0, 1, 9.05, -5.55)">
<path style="fill:#000000;fill-opacity:0.498039" d="M11.55,25.55L4.15 26.05L-3.35 25.55Q-6.35 25.05 -6.35 24.35Q-6.35 23.95 -5.4 23.65L-3.35 23.15L0 22.8L4.15 22.65L10.05 22.95L11.55 23.15Q14.75 23.65 14.75 24.35Q14.75 25.05 11.55 25.55" />
<path style="fill:#000000;fill-opacity:1" d="M4.85,5.65Q5.05 6.7 4.7 7.65L4.25 9.3L5.05 10.35Q5.45 11.35 5 12.05Q6.1 12.75 6.95 13.9L8.2 15.8L8.25 15.7L8.45 15.9L8.5 15.85L8.6 15.85L9 15.85L9.15 15.85L9.4 16.5L9.35 16.95L9.5 17.05L9.4 17.1L9.25 17.2L9.05 17.6Q8.9 17.8 8.7 17.6L7.25 18.35Q8.7 19.45 9.85 20.9L9.9 20.9L12.45 21.7Q13.65 22.15 13.6 23.3Q14.35 23.95 14.4 25.15L14.15 25.4L10.45 25.55L9.4 25.55L8.2 25.2L8.25 25.25Q6.75 25.15 5.05 24.3Q3.45 23.5 4.6 22L3.45 20.6Q2.7 19.9 2.4 19.05L1.35 18.55L0.4 17.95L0.2 18.75L0.4 19.45L0.5 20.4L0.45 20.45L-2.3 20.4L-2.45 20.3L-2.45 20.15L-2.65 19.8Q-2.85 19.45 -2.5 19.45L-2.3 17.8L-2.1 17.15L-4.55 19.75L-3.85 20.35L-3.75 20.95L-3.75 21L-6.8 20.85L-7.2 20.85Q-8.8 21.05 -9.05 19.8Q-9.1 19.3 -8.5 19.15Q-6.3 18.6 -4.75 16.7L-3.05 14.4L-3.05 14.25L-2.75 13.45L-4.05 12.65L-4.65 12.15L-4.85 12Q-6.5 12.4 -6.5 10.7Q-6.45 8.15 -4.1 7.3L-3.45 7.1Q-2.05 7.15 -1.2 7.65L-0.9 6.65L-0.6 6.3L-0.1 6.3L0.05 6.4Q0.3 7 0.1 7.75L-0.2 8.7Q0.2 9.35 0.2 10.35L0.95 11.1Q1.4 11.5 1.25 12.1L1.85 12.25Q1.3 11.85 1.05 11L0.95 10.1L0.9 10.1L0.9 10.05Q0.9 9.8 1.05 9.6L1.45 9.2L1.6 9.05L1.65 9L1.65 9.1L1.7 9.05L2 8.9L3.25 8.9L3.45 7.5Q3.7 6.55 4.25 5.65Q4.3 5.55 4.4 5.55L4.7 5.55L4.85 5.65" />
</g>
</svg>
