<?xml version="1.0" encoding="utf-8"?>
<svg version="1.1" id="Layer_1"
xmlns="http://www.w3.org/2000/svg"
xmlns:xlink="http://www.w3.org/1999/xlink"
width="98px" height="15px"
xml:space="preserve">
<g id="96" transform="matrix(1, 0, 0, 1, -3.2, -19.75)">
<path style="fill:#E9B669;fill-opacity:1" d="M100.95,28.4L98.05 30.55L98.95 34L96.05 31.9L93.05 33.85L94.15 30.45L91.35 28.15L94.95 28.15L96.25 24.8L97.35 28.25L100.95 28.4M87.95,25.5L83.75 28.6L85.1 33.65L80.85 30.55L76.5 33.4L78.1 28.45L74.05 25.15L79.25 25.15L81.15 20.3L82.75 25.25L87.95 25.5M30.1,24.6L26.05 27.9L27.65 32.85L23.3 30L19.05 33.1L20.4 28.05L16.2 24.95L21.4 24.7L23 19.75L24.9 24.6L30.1 24.6M6.1,30L3.2 27.85L6.8 27.7L7.9 24.25L9.2 27.6L12.8 27.6L10 29.9L11.1 33.3L8.1 31.35L5.2 33.45L6.1 30" />
</g>
</svg>
