<?xml version="1.0" encoding="utf-8"?>
<svg version="1.1" id="Layer_1"
xmlns="http://www.w3.org/2000/svg"
xmlns:xlink="http://www.w3.org/1999/xlink"
width="91px" height="79px"
xml:space="preserve">
<g id="458" transform="matrix(1, 0, 0, 1, 18.35, 26.4)">
<path style="fill:#1E1E1E;fill-opacity:1" d="M33.7,-24.9Q33.1 -24.4 32.9 -23.65Q32.75 -22.95 32.3 -22.4L31.4 -22.35Q31.5 -20.1 33.5 -21.05Q34.95 -21.75 35.1 -23.35Q35.15 -24.1 34.75 -24.65L34.6 -24.8L33.7 -24.9M1.5,-15.1L0.9 -15.3Q1 -14 0.55 -12.8Q0.1 -11.4 1.45 -10.75L3.15 -10.5Q3.95 -11.55 3.4 -12.75Q2.75 -14.05 1.5 -15.1M5.2,-12.45Q6.55 -10.25 3.85 -8.35Q1.5 -6.75 -1 -8.25Q-3.1 -9.5 -2.3 -11.05Q-3.75 -11.25 -4.85 -12.4Q-5.9 -13.45 -5.85 -15.15Q-5.75 -17.5 -3.5 -18.35Q0.65 -18.15 3.6 -15.05Q4.95 -13.65 5.2 -12.45M5.85,-6.9Q7.2 -7.9 8.85 -8.15Q10.75 -8.3 12.35 -7.5L13.8 -6.35L13.9 -7.25Q14.1 -8.4 14.85 -9.25Q16.35 -11 18.65 -11.3L20.3 -11.45L21.4 -11.25L21.95 -12.55Q22.6 -13.8 23.7 -14.65L25.4 -15.65Q29.6 -16.1 31.5 -12.7L31.5 -12.65L33.45 -13.85L34.25 -14.25Q35.7 -14 37 -13.35L39.05 -11.95L39.05 -12.05Q39.6 -13 40.55 -13.6L42.15 -14.35L42.3 -14.3L42.65 -14.2L42.95 -13.95L43 -13.9Q43.95 -13.3 44.35 -12.25Q45.65 -11.1 45.3 -9.1Q44.9 -6.95 43 -5.7Q41.95 -5 41.2 -3.9L41.55 -3.4L42.1 -3.6L42.35 -3.65Q48.65 -3.85 51.55 1.45Q54.45 6.7 51.85 12.15Q50.65 14.6 48.85 15.25L49.55 16.3Q50.2 17.95 49.2 19.35Q48.65 20.15 48.35 21.1L48.15 21.25L48 21.35L47.6 21.6Q48.85 23.6 48.8 26.1Q48.75 28.7 47.15 30.8Q45.7 32.8 43.2 31.95Q42.7 40.25 34.45 41Q29.4 41.45 24.7 39.05L21.7 36.9Q20.7 35.9 20.35 34.75Q16.55 38.2 11.25 34.8Q9.1 33.4 7.2 31.65Q6.2 30.75 6.15 29.9L5.65 30Q-0.4 30.65 -2 24.95Q-3.25 20.6 -1.9 16.35Q-1.45 14.95 -0.4 13.95L-1 11.65Q-1.45 10 -0.95 8.3Q0.25 4.55 4 3.1L6.2 2.5L7.3 2.55L7.55 2.6L7.8 1.9Q6.65 1.75 5.2 0.9Q3.25 -0.2 3.35 -2.5Q3.4 -5.15 5.85 -6.9M5.85,-0.55Q6.25 0.45 7.4 0.2L9.75 -0.2L11.1 -0.75L12.4 -0.65L13.1 -0.45L13.3 -0.35Q13.75 1.05 13.05 2.35Q12.55 3.25 12.3 4.3Q11.6 7.2 9.05 5.8L7.55 4.55L7.5 3.65L3.75 5.05Q0.9 6.25 0.45 9.15Q0 11.75 1.25 14.35Q-0.1 15.65 -0.65 17.45Q-1.65 20.65 -0.8 23.95Q0.6 29.4 6.05 28.2Q6.65 28.05 7.05 28.6L7.05 28.95Q8.7 31.35 11.2 33.45Q14.15 35.9 17.7 34.35Q19.65 33.5 21.25 33.75L20.7 34.4Q23.35 35.9 26.2 38.25Q27.35 39.2 28.9 39.25L33.6 39.5Q39.6 40 41.2 33.75L41.75 29.5Q42.15 29.05 42.65 29.35L43.15 29.65L43.8 30.4Q46.45 30.65 47.25 27.75Q47.8 25.85 46.95 24L46.25 22.4L44.25 21.85Q43.45 21.6 43.3 20.85L43.3 20.6Q45 19.95 47.05 19.7L47.45 19.3L48.4 17.65L48.35 17.55L48.25 17.4L48.15 17.1L48.15 16.95L48.15 16.85L48.15 16.7L47.05 16L46.95 15.95L46.65 16.05Q45.5 16.45 45 15.6Q46 14.4 47.9 13.85L48.65 13.55L50.6 9.75Q53 4.15 48.5 0.1Q45.65 -2.5 41.75 -2.4Q41.75 -1.7 41.25 -1.15Q40.75 -0.5 40.15 -1L40.05 -1.25L40 -1.65L40.2 -2.1L40.2 -2.55L40.1 -2.65L40.05 -2.75L40 -2.8L39.7 -2.95L39.5 -3.05Q39.35 -4.75 41.1 -5.85Q42.1 -6.5 42.8 -7.4Q42.05 -7.15 41.6 -8.05Q42.4 -8.95 42.75 -10.1Q43.3 -11.65 42.25 -12.8L41.5 -12.45Q40.5 -12.05 39.95 -11.15L39.85 -10.95L39.75 -10.3L39.5 -10.35L39.2 -9.8L39.6 -9.65Q40.25 -9.55 40.6 -8.95L40.65 -8.4L38.55 -8.3Q37.75 -8.75 37.7 -9.7L37.8 -10.65L38.2 -10.95L37.8 -11.2Q35.05 -13.35 32.7 -11.25L32.1 -10.85Q32.35 -8.6 29.6 -7.05Q26.95 -5.6 26.45 -7.85Q26.7 -8.3 27.2 -8.15Q29.45 -7.7 29.85 -9.8Q30.1 -11.25 29.3 -12.65Q29.15 -12.95 29.4 -13.15Q28.65 -14.2 26.45 -14.2Q24.25 -14.2 23.2 -12L22.65 -10.75Q23.75 -10.05 23.8 -8.9L20.7 -8.95Q18.65 -9.75 16.85 -8.45Q15.65 -7.6 15.65 -6.15L15.7 -3.9L15.5 -3.2L14.7 -3.1Q14.55 -2.15 13.55 -1.6Q12.6 -1.1 12.25 -2.05Q12.95 -2.65 13.05 -3.65L13.1 -4.2L11 -5.4L8.3 -5.45Q4.55 -3.95 5.85 -0.55M30.65,-21Q30 -21.7 30.4 -22.75Q31.35 -25.1 33.35 -26.4Q37.5 -26.2 35.9 -21.95Q34.1 -17.15 30.65 -21M46.3,-21.75L46.2 -21.7L45.9 -21.6L45.6 -21.5L45.05 -20.3Q44.7 -19.65 44.65 -18.95Q44.6 -18.1 45.15 -17.55Q45.85 -17.65 46.3 -18.35L47.05 -19.85L47.3 -20.7L47.15 -20.95L47.05 -21.25L46.75 -21.65L46.3 -21.75M46.1,-23.15Q51.1 -21 47.25 -16.65Q44.35 -13.45 43.15 -17.15Q42.55 -18.85 43.2 -20.55Q43.95 -22.65 46.1 -23.15M54.95,-8.35Q56.05 -8.2 56.95 -7.55Q58 -6.8 58 -5.55Q58 -4.65 58.7 -4.25Q59 -3.2 57.85 -2.55Q55.35 -1.2 52.8 -2.6L52.75 -2.75L52.75 -2.9L52.75 -3.05L52.75 -3.2L52.75 -3.35Q52 -3.95 51.8 -4.9Q51.5 -6.55 52.7 -7.5Q53.75 -8.3 54.95 -8.35M53.65,-6.4L53.15 -5.8L53.15 -5.5Q53.1 -5.25 53.2 -5.05L53.35 -4.8L53.7 -4.2Q54.8 -3.7 55.95 -4.2L56.8 -4.95L56.6 -5.45L56 -6.2L55 -6.85L54.25 -6.7L53.65 -6.4M67.05,14.3L64.6 14.25L64.5 14.3L64.5 14.7Q65.8 15.25 67 14.35L67.05 14.3M68.55,14.6Q67 17.05 64.05 16.25L63.8 16.15Q62.2 18.35 59.7 16.55Q58.25 15.5 58.75 14.05L59.9 13.4L62.1 13.1L63.6 13.4L64.35 13L65.3 12.75L67.1 12.9L68.3 13.35Q68.6 13.55 68.7 13.9L68.55 14.6M61.8,14.45L61.35 14.8L60.6 14.95L60.2 15.15Q60.4 15.65 60.95 15.8L62.35 15.7Q62.35 15.45 62.5 15.25L62.7 15.15L63.05 15L63.05 14.9L63.1 14.9Q62.95 14.65 62.35 14.5L61.9 14.45L61.8 14.45M67.75,23.8Q73.1 23.3 72.2 26.9Q71.9 28.1 70.7 28.45Q64.75 30.25 61.6 25.45Q61.3 24.95 62 24.7Q64.75 23.55 67.75 23.8M50.6,16.25Q50.6 15.45 50.95 14.8Q51.25 14.1 51.95 14Q58.6 16.9 57.05 24.3Q55.95 29.65 51.05 27.8Q49.55 27.2 49.65 25.55Q49.85 21.55 50.85 17.8L50.6 17.25L50.6 16.25M52.75,16.3Q52.95 18.35 52.2 20.2Q51.4 22 51.05 23.95Q50.8 25.1 51.15 26.15Q54.5 25.55 54.95 21.9Q55.25 19.15 53.75 17.05L52.75 16.3M52.15,33.55L51.95 32.25L51.8 32.15L51.25 31.95L50.9 31.9L49.6 33.8L48.25 35.55L47.25 36.55Q49 38.15 51.2 35.8Q52.1 34.85 52.15 33.55M53,35.3Q51.5 38.75 47.85 38.3Q45.65 38.05 46.05 35.9L47.55 33.85L49.5 31.15Q50.05 30.35 51 30.3Q54.7 31.35 53 35.3M70.45,27L71.55 26.05Q69.8 25 67.75 25.15L67.2 25.2Q66.7 25.8 65.85 25.45L64.4 25.55L63.6 25.95L63.15 25.75L62.75 25.75L67 27.3Q68.7 27.95 70.45 27M11.4,0.75Q10.25 1.05 9.6 2.05Q8.9 3.05 9.3 4.1Q9.55 4.8 10.25 5Q10.8 4.5 11 3.65L11.55 1.85Q11.95 0.8 11.4 0.75M2.8,34.05L2.35 34.45Q1.4 35.25 1.15 36.45L0.75 37.85L1.35 38.4L1.75 38.7L3 37.95Q4.3 39.15 1.75 40.45Q-0.05 41.35 -0.6 43.35L-0.95 44.6Q1.15 46.15 2.8 43.7L4.2 41.55L4.15 41.45L4.3 41.4L4.8 40.5L5.05 40.2L4.95 40.1Q4.95 39.6 5.45 39.35L7.2 38.55Q8 38.15 8.4 37.35L8.6 37Q8.5 36.35 8 35.75L7.45 34.7L7.1 34.45Q6.15 33.8 5 33.5L3.95 33.25L3.7 33.35L3.45 33.65L3.15 33.9L3 34L2.8 34.05M3.5,31.95Q6.85 32.05 9 34.6L9.35 35.05Q10.5 36.2 9.85 38.3Q9.2 40.3 7.6 41.4Q7.95 42.4 7.35 43.9Q6.4 46.3 4.15 47.65Q2.8 48.45 1.2 48.6Q-0.75 53.4 -4.75 50.8Q-5.7 50.2 -5.15 49.05Q-4 46.75 -2.05 45.05Q-2.25 43.75 -1.8 42.6Q-1.15 40.95 0.25 39.8Q0.4 39.65 0.6 39.55Q-0.1 39.15 -0.15 37.55Q-0.15 35.75 0.9 34.15Q1.55 33.2 2.5 32.8L2.65 32.6L3.15 32.1Q3.35 31.95 3.5 31.95M6.2,42.05L5.5 42.15L4.6 44.1Q4 45.45 2.6 46.1L1.2 47.1Q3.75 46.85 5.3 44.45Q5.9 43.5 6.15 42.35L6.2 42.05M16.8,40.5L12.85 40.05Q11.3 41.55 13.15 43.2Q14.7 44.55 16.75 43.6L18.55 42.25Q18.6 40.45 16.8 40.5M12.2,39Q13.55 38.25 15.05 38Q21.65 38.3 20.15 43.85Q19.9 44.85 18.9 45.2Q12.75 47.15 11.1 41.45Q10.65 39.9 12.2 39M24.3,43.2L24.65 43.15Q29.1 42.15 31.85 44.75Q32.8 45.7 31.9 46.6Q29.25 49.2 25.65 47.45Q23.1 46.2 23.4 43.6L23.55 43.45L23.7 43.4L24.05 43.3L24.3 43.2M26.65,44.55L26.15 44.6L25.5 44.65L25 44.75Q25.85 45.9 27.15 46.45Q29.6 47.45 31.1 45.7L31.1 45.6Q30.65 44.9 29.85 44.5Q28.25 43.75 26.65 44.55M-4.55,-14.65Q-4.45 -13.35 -3.25 -12.8L-1.55 -12.6Q-0.5 -13.5 -0.65 -14.95Q-0.75 -16.3 -2.1 -16.7L-3.7 -17.05Q-4.7 -16 -4.55 -14.65M-2.85,-0.2L-3 -0.05L-3.1 0.05L-3.15 0.5L-2.9 1.15Q-2.8 1.5 -2.85 1.9L-2.95 2.2L-2.55 2.1L-1.9 1.85L-1.7 1.75L-1.5 1.3L-1.25 0.65Q-1.2 0.25 -1.4 -0.1L-1.45 -0.2L-1.45 -0.3L-2.35 -0.5L-2.45 -0.5L-2.7 -0.35L-2.85 -0.2M-2.25,-2.15Q2.05 -0.6 -1.45 2.75Q-3.05 4.25 -4.65 2.7Q-6.8 0.7 -4.1 -1.35Q-3.25 -2.05 -2.25 -2.15M-11.3,17.85L-10.75 17.7L-9.05 17.85Q-8.35 18.25 -7.75 18.75L-6.65 19.45Q-6.4 22.95 -11 22L-15.5 21.9Q-16.95 22.15 -18.2 21.45Q-18.6 20.55 -17.9 20Q-16.3 18.7 -14.15 18.35L-11.3 17.85M-16.6,20.45Q-15.5 20.95 -14.1 20.1L-13.6 19.35L-13.7 19.3L-13.8 19.3L-14.85 19.7L-15.85 20.05L-16.6 20.45M-12.1,19.75L-12.2 20L-12.3 20.3L-8.55 20.45L-8.3 20.35L-8.6 20.05L-8.85 19.8L-9 19.7L-11.85 19.6L-11.95 19.6L-12.1 19.75M-3.65,49.2L-4.05 50.2Q-2.2 51.55 -0.75 49.35Q-0.15 48.35 -0.45 47.25Q-0.7 46.4 -1.45 46.25L-2.65 47.65L-3.65 49.2" />
<path style="fill:#3A3A3A;fill-opacity:1" d="M34.6,-24.8L34.75 -24.65Q35.15 -24.1 35.1 -23.35Q34.95 -21.75 33.5 -21.05Q31.5 -20.1 31.4 -22.35L32.3 -22.4Q32.75 -22.95 32.9 -23.65Q33.1 -24.4 33.7 -24.9L34.6 -24.8M3.4,-12.75Q3.95 -11.55 3.15 -10.5L1.45 -10.75Q0.1 -11.4 0.55 -12.8Q1 -14 0.9 -15.3L1.5 -15.1Q2.75 -14.05 3.4 -12.75M8.3,-5.45L11 -5.4L13.1 -4.2L13.05 -3.65Q12.95 -2.65 12.25 -2.05Q12.6 -1.1 13.55 -1.6Q14.55 -2.15 14.7 -3.1L15.5 -3.2L15.7 -3.9L15.65 -6.15Q15.65 -7.6 16.85 -8.45Q18.65 -9.75 20.7 -8.95L23.8 -8.9Q23.75 -10.05 22.65 -10.75L23.2 -12Q24.25 -14.2 26.45 -14.2Q28.65 -14.2 29.4 -13.15Q29.15 -12.95 29.3 -12.65Q30.1 -11.25 29.85 -9.8Q29.45 -7.7 27.2 -8.15Q26.7 -8.3 26.45 -7.85Q26.95 -5.6 29.6 -7.05Q32.35 -8.6 32.1 -10.85L32.7 -11.25Q35.05 -13.35 37.8 -11.2L38.2 -10.95L37.8 -10.65L37.7 -9.7Q37.75 -8.75 38.55 -8.3L40.65 -8.4L40.6 -8.95Q40.25 -9.55 39.6 -9.65L39.2 -9.8L39.5 -10.35L39.75 -10.3L39.85 -10.95L39.95 -11.15Q40.5 -12.05 41.5 -12.45L42.25 -12.8Q43.3 -11.65 42.75 -10.1Q42.4 -8.95 41.6 -8.05Q42.05 -7.15 42.8 -7.4Q42.1 -6.5 41.1 -5.85Q39.35 -4.75 39.5 -3.05L39.7 -2.95L40 -2.8L40.05 -2.75L40.1 -2.65L40.2 -2.55L40.2 -2.1L40 -1.65L40.05 -1.25L40.15 -1Q40.75 -0.5 41.25 -1.15Q41.75 -1.7 41.75 -2.4Q45.65 -2.5 48.5 0.1Q53 4.15 50.6 9.75L48.65 13.55L47.9 13.85Q46 14.4 45 15.6Q45.5 16.45 46.65 16.05L46.95 15.95L47.05 16L48.15 16.7L48.15 16.85L48.15 16.95L48.15 17.1L48.25 17.4L48.35 17.55L48.4 17.65L47.45 19.3L47.05 19.7Q45 19.95 43.3 20.6L43.3 20.85Q43.45 21.6 44.25 21.85L46.25 22.4L46.95 24Q47.8 25.85 47.25 27.75Q46.45 30.65 43.8 30.4L43.15 29.65L42.65 29.35Q42.15 29.05 41.75 29.5L41.2 33.75Q39.6 40 33.6 39.5L28.9 39.25Q27.35 39.2 26.2 38.25Q23.35 35.9 20.7 34.4L21.25 33.75Q19.65 33.5 17.7 34.35Q14.15 35.9 11.2 33.45Q8.7 31.35 7.05 28.95L7.05 28.6Q6.65 28.05 6.05 28.2Q0.6 29.4 -0.8 23.95Q-1.65 20.65 -0.65 17.45Q-0.1 15.65 1.25 14.35Q0 11.75 0.45 9.15Q0.9 6.25 3.75 5.05L7.5 3.65L7.55 4.55L9.05 5.8Q11.6 7.2 12.3 4.3Q12.55 3.25 13.05 2.35Q13.75 1.05 13.3 -0.35L13.1 -0.45L12.4 -0.65L11.1 -0.75L9.75 -0.2L7.4 0.2Q6.25 0.45 5.85 -0.55Q4.55 -3.95 8.3 -5.45M46.75,-21.65L47.05 -21.25L47.15 -20.95L47.3 -20.7L47.05 -19.85L46.3 -18.35Q45.85 -17.65 45.15 -17.55Q44.6 -18.1 44.65 -18.95Q44.7 -19.65 45.05 -20.3L45.6 -21.5L45.9 -21.6L46.2 -21.7L46.3 -21.75L46.75 -21.65M54.25,-6.7L55 -6.85L56 -6.2L56.6 -5.45L56.8 -4.95L55.95 -4.2Q54.8 -3.7 53.7 -4.2L53.35 -4.8L53.2 -5.05Q53.1 -5.25 53.15 -5.5L53.15 -5.8L53.65 -6.4L54.25 -6.7M67,14.35Q65.8 15.25 64.5 14.7L64.5 14.3L64.6 14.25L67.05 14.3L67 14.35M61.9,14.45L62.35 14.5Q62.95 14.65 63.1 14.9L63.05 14.9L63.05 15L62.7 15.15L62.5 15.25Q62.35 15.45 62.35 15.7L60.95 15.8Q60.4 15.65 60.2 15.15L60.6 14.95L61.35 14.8L61.8 14.45L61.9 14.45M53.75,17.05Q55.25 19.15 54.95 21.9Q54.5 25.55 51.15 26.15Q50.8 25.1 51.05 23.95Q51.4 22 52.2 20.2Q52.95 18.35 52.75 16.3L53.75 17.05M51.2,35.8Q49 38.15 47.25 36.55L48.25 35.55L49.6 33.8L50.9 31.9L51.25 31.95L51.8 32.15L51.95 32.25L52.15 33.55Q52.1 34.85 51.2 35.8M67,27.3L62.75 25.75L63.15 25.75L63.6 25.95L64.4 25.55L65.85 25.45Q66.7 25.8 67.2 25.2L67.75 25.15Q69.8 25 71.55 26.05L70.45 27Q68.7 27.95 67 27.3M3,34L3.15 33.9L3.45 33.65L3.7 33.35L3.95 33.25L5 33.5Q6.15 33.8 7.1 34.45L7.45 34.7L8 35.75Q8.5 36.35 8.6 37L8.4 37.35Q8 38.15 7.2 38.55L5.45 39.35Q4.95 39.6 4.95 40.1L5.05 40.2L4.8 40.5L4.3 41.4L4.15 41.45L4.2 41.55L2.8 43.7Q1.15 46.15 -0.95 44.6L-0.6 43.35Q-0.05 41.35 1.75 40.45Q4.3 39.15 3 37.95L1.75 38.7L1.35 38.4L0.75 37.85L1.15 36.45Q1.4 35.25 2.35 34.45L2.8 34.05L3 34M18.55,42.25L16.75 43.6Q14.7 44.55 13.15 43.2Q11.3 41.55 12.85 40.05L16.8 40.5Q18.6 40.45 18.55 42.25M29.85,44.5Q30.65 44.9 31.1 45.6L31.1 45.7Q29.6 47.45 27.15 46.45Q25.85 45.9 25 44.75L25.5 44.65L26.15 44.6L26.65 44.55Q28.25 43.75 29.85 44.5M-3.7,-17.05L-2.1 -16.7Q-0.75 -16.3 -0.65 -14.95Q-0.5 -13.5 -1.55 -12.6L-3.25 -12.8Q-4.45 -13.35 -4.55 -14.65Q-4.7 -16 -3.7 -17.05M-2.7,-0.35L-2.45 -0.5L-2.35 -0.5L-1.45 -0.3L-1.45 -0.2L-1.4 -0.1Q-1.2 0.25 -1.25 0.65L-1.5 1.3L-1.7 1.75L-1.9 1.85L-2.55 2.1L-2.95 2.2L-2.85 1.9Q-2.8 1.5 -2.9 1.15L-3.15 0.5L-3.1 0.05L-3 -0.05L-2.85 -0.2L-2.7 -0.35M-15.85,20.05L-14.85 19.7L-13.8 19.3L-13.7 19.3L-13.6 19.35L-14.1 20.1Q-15.5 20.95 -16.6 20.45L-15.85 20.05M-11.95,19.6L-11.85 19.6L-9 19.7L-8.85 19.8L-8.6 20.05L-8.3 20.35L-8.55 20.45L-12.3 20.3L-12.2 20L-12.1 19.75L-11.95 19.6M-2.65,47.65L-1.45 46.25Q-0.7 46.4 -0.45 47.25Q-0.15 48.35 -0.75 49.35Q-2.2 51.55 -4.05 50.2L-3.65 49.2L-2.65 47.65" />
</g>
</svg>
