<?xml version="1.0" encoding="utf-8"?>
<svg version="1.1" id="Layer_1"
xmlns="http://www.w3.org/2000/svg"
xmlns:xlink="http://www.w3.org/1999/xlink"
width="29px" height="25px"
xml:space="preserve">
<g id="596" transform="matrix(1, 0, 0, 1, -39.5, -1.35)">
<path style="fill:#000000;fill-opacity:0.498039" d="M63.75,24.6L54.35 25.1L44.85 24.6Q41 24.1 41 23.4Q41 23 42.25 22.7L44.85 22.2L49.05 21.85L54.35 21.7L61.85 22L63.75 22.2Q67.8 22.7 67.8 23.4Q67.8 24.1 63.75 24.6" />
<path style="fill:#000000;fill-opacity:1" d="M62.55,18.35L62.2 18.6L62.7 19.2L63.35 20.1L63.5 20.2L63.05 20.5L62.3 20.4L61.9 19.6L61.5 19.1L61.05 19.15L60.5 19L60.45 19L60.35 19.5L60.8 19.6L61.9 20.05L62.05 20.35L62.05 20.4L62.05 20.5L62 20.6L62 20.7L62.05 20.75L62.1 20.85L62.05 20.9L61.45 21L60.25 20.55L59.75 20.35L59.25 20.55Q58.3 20.7 57.8 20.15L56.1 20.7Q54.55 21.25 53.8 20.3L52.1 20.55L50.8 20.75L50.75 20.85L50.6 20.85Q49.35 21.25 48.35 22.55L46.6 24.85Q45.9 25.7 45 26Q42.8 26.6 41.45 24.35L42.15 23.55Q42.7 23.05 43.5 23.05L43.7 23L44.15 22.55L40.35 22.9Q39.85 22.2 39.7 21.5L39.5 20.75L39.65 19.65L39.7 19.6L39.75 19.4Q39.8 19.3 39.9 19.3L39.95 19.25Q41.35 18.5 42.9 19L43.55 19L47.9 17.35L48.05 17.1L48.35 17.05L48.3 16.9L48.9 16.55L49.8 16.3L50.9 15.85L50.95 15.55Q51.9 13.55 54.1 12.95L55.6 12.6Q57.55 13.05 57.2 14.95L56.95 15.75L57.25 15.85Q57.35 15.15 58.15 14.7Q58.8 14.25 59.55 14.35L59.45 14.15L59.4 14L59.55 13.95L59.85 13.7Q60.3 13.35 60.85 13.4L61.8 13.75Q63.8 15.35 63.3 16.95L63.4 16.9Q63.25 17.75 62.55 18.35M63.6,21.55Q66.05 22.9 64.95 25.2Q64.65 25.9 63.85 25.9Q62.2 25.75 62.05 24.4L59.55 23.9L57.6 25.35L55.6 25.45Q55.3 25.35 55.05 25.1Q54.3 24.75 54.5 24.05Q54.7 23.15 55.45 22.7L56.1 22.55L56.25 22.6L56.35 22.5L56.65 22.6L56.95 22.65L58.8 21.65L58.8 21.45L59.05 21.5L59.1 21.45L59.2 21.55L61.2 21.95L62.3 21.95Q62.75 21.45 63.55 21.5L63.6 21.55M57.5,3.75Q55 4.25 53.25 3.25Q52.95 3.1 53.05 2.7L53.2 2.5L53.45 2.2Q54 1.5 55 1.45L55.2 1.45L56.25 1.4L57.6 1.55L58.15 1.75Q58.5 2.45 58.2 3.15Q58.05 3.65 57.5 3.75" />
<path style="fill:#7E0000;fill-opacity:1" d="M64.45,18.8L65.95 19.15Q66.8 19.4 67.25 20.05L67.35 20.3Q66.35 21.35 64.75 20.6Q63.85 20.15 64.05 19.15Q64.15 18.8 64.45 18.8M51.8,3.85L52.1 3.9L52.35 3.95Q52.8 4.9 53.75 5.5L55.2 6.85L55.2 6.95Q53.6 8.05 52.05 6.2Q51.1 5.05 51.25 3.95L51.35 3.85L51.8 3.85M46,4.35Q46.7 5 46.9 5.9L46.85 6Q46 6.8 44.95 5.8Q43.95 4.85 44.15 3.75L44.35 3.5Q45.25 3.65 46 4.35" />
</g>
</svg>
